<svg width="391" height="374" viewBox="0 0 391 374" fill="none" xmlns="http://www.w3.org/2000/svg">
<rect width="391" height="374" fill="white"/>
<path d="M155.396 229.488C161.973 261.713 168.327 292.803 174.68 323.87C175.396 323.936 176.089 324.025 176.805 324.092C178.192 314.895 180.183 305.742 180.787 296.499C181.794 281.2 182.353 265.856 182.197 250.534C182.085 241.047 184.881 237.461 195.351 237.238C199.624 237.149 205.485 237.35 208.371 241.047C210.855 244.231 209.937 248.841 209.221 252.449C209.221 252.449 213.808 323.78 214.277 323.847C215.195 323.981 216.112 324.092 217.029 324.226C223.427 293.159 229.825 262.092 236.582 229.266C261.369 239.131 285.463 247.616 308.438 258.44C316.112 262.07 322.309 270.933 326.761 278.75C343.45 308.058 345.866 340.461 346 374C245.754 374 146.447 374 46 374C46.0447 339.058 48.8412 305.385 67.1186 275.009C73.5839 264.274 82.868 256.792 95.1946 252.516C115.083 245.545 134.613 237.483 155.396 229.488Z" fill="#E1E3EA"/>
<path d="M194.3 230.024C166.201 230.18 150.586 218.354 143.136 191.541C142.197 188.111 141.056 184.014 138.595 181.876C129.199 173.769 129.244 163.814 132.152 153.392C136.76 136.89 129.959 122.793 119.87 111.88C105.172 96.0017 105.038 80.8357 124.434 70.6582C161.078 51.3945 199.49 45.426 239.378 60.4807C249.042 64.133 259.042 67.7853 267.566 73.3974C282.577 83.3299 281.772 97.9837 269.378 110.722C258.147 122.258 251.548 136.556 256 153.837C258.55 163.792 258.751 173.502 249.848 181.475C247.118 183.925 245.619 188.223 244.568 191.942C236.962 218.466 222.04 229.868 194.3 230.024ZM244.904 122.882C219.423 117.403 159.176 117.871 144.076 123.416C169.199 145.753 216.783 145.887 244.904 122.882ZM169.892 91.8594C169.736 100.278 184.188 114.263 191.951 114.241C199.713 114.219 214.053 100.278 213.986 92.1044C208.505 96.7589 203.338 101.168 196.604 106.892C195.798 97.2488 195.217 90.4119 194.613 83.1518C199.49 82.6173 203.136 82.2164 206.805 81.8156C206.872 81.192 206.939 80.5462 207.029 79.9226C202.957 78.5864 198.908 77.2724 197.006 76.6489C197.006 70.1014 197.409 65.1129 196.581 60.3025C196.447 59.5454 190.81 59.7235 187.7 59.4785C187.364 64.9125 187.029 70.3464 186.604 77.0497C184.792 77.562 180.854 78.6977 176.939 79.8112C176.984 80.4125 177.006 81.0138 177.051 81.6151C180.989 82.2832 184.926 82.9291 189.423 83.6863C188.662 91.1245 187.991 97.8501 187.006 107.449C180.071 101.146 175.217 96.7143 169.892 91.8594Z" fill="#E1E3EA"/>
<path d="M244.904 122.882C216.783 145.887 169.199 145.753 144.054 123.416C159.177 117.871 219.4 117.381 244.904 122.882Z" fill="white"/>
<path d="M169.893 91.8582C175.217 96.7131 180.094 101.123 187.007 107.425C187.969 97.8267 188.662 91.1011 189.423 83.6628C184.926 82.9056 180.989 82.2375 177.052 81.5917C177.007 80.9904 176.985 80.3891 176.94 79.7878C180.855 78.6743 184.77 77.5608 186.604 77.0263C187.029 70.3229 187.365 64.889 187.7 59.4551C190.788 59.7001 196.448 59.5219 196.582 60.2791C197.41 65.0672 197.007 70.078 197.007 76.6254C198.909 77.249 202.958 78.5629 207.029 79.8991C206.962 80.5227 206.895 81.1685 206.806 81.7921C203.159 82.193 199.49 82.5938 194.613 83.1283C195.217 90.3884 195.799 97.2254 196.604 106.868C203.36 101.123 208.506 96.7354 213.987 92.0809C214.054 100.254 199.714 114.173 191.951 114.218C184.188 114.262 169.736 100.276 169.893 91.8582Z" fill="white"/>
<path d="M299.666 327.983C297.736 325.819 295.13 324.736 291.846 324.736C290.063 324.702 288.299 325.11 286.715 325.922C285.317 326.64 284.114 327.681 283.205 328.958V324.983H273.197V340.163C273.197 341.776 272.774 343.045 271.928 343.972C271.083 344.898 269.931 345.361 268.475 345.358C267.837 345.385 267.2 345.275 266.609 345.036C266.017 344.797 265.485 344.434 265.047 343.972C264.175 343.045 263.739 341.776 263.739 340.163V324.983H253.846V341.423C253.846 345.155 254.802 348.105 256.714 350.274C258.626 352.443 261.243 353.526 264.563 353.521C266.346 353.555 268.11 353.148 269.695 352.336C271.108 351.614 272.313 350.547 273.197 349.235V353.268H283.205V337.199C283.285 336.119 283.714 335.094 284.428 334.276C285.274 333.354 286.443 332.892 287.934 332.89C288.569 332.863 289.202 332.973 289.79 333.212C290.378 333.452 290.906 333.815 291.339 334.276C292.183 335.203 292.606 336.472 292.608 338.085V353.265H302.577V336.783C302.577 333.088 301.606 330.155 299.666 327.983Z" fill="white"/>
</svg>
