<svg width="65" height="65" viewBox="0 0 65 65" fill="none" xmlns="http://www.w3.org/2000/svg">
<g filter="url(#filter0_i)">
<path fill-rule="evenodd" clip-rule="evenodd" d="M64.4351 32.5498C64.4351 14.8767 50.1082 0.549805 32.4351 0.549805V0.549805C14.7619 0.549805 0.435059 14.8767 0.435059 32.5498V32.5498C0.435059 50.2229 14.7619 64.5498 32.4351 64.5498V64.5498C50.1082 64.5498 64.4351 50.2229 64.4351 32.5498V32.5498ZM41.8414 22.5498C44.1061 22.5498 45.9033 23.3023 47.2345 24.8087C48.5656 26.3152 49.2311 28.3532 49.2311 30.9215V38.9419C49.2311 40.8377 47.6943 42.3745 45.7985 42.3745V42.3745C43.9028 42.3745 42.366 40.8377 42.366 38.9419V31.8322C42.366 30.7106 42.0737 29.8298 41.4908 29.187C40.9065 28.5457 40.124 28.2235 39.1435 28.2235C38.1159 28.2235 37.3107 28.5457 36.7277 29.187C36.2561 29.7058 35.9751 30.3798 35.8841 31.2101V42.3416C35.8841 42.3598 35.8694 42.3745 35.8512 42.3745V42.3745H28.986V42.3745C28.9845 42.3745 28.9832 42.3733 28.9832 42.3717V41.7297C28.9832 41.0894 28.0205 40.7476 27.5079 41.1312C27.2182 41.3479 26.9047 41.5462 26.5675 41.7261C25.5399 42.2748 24.3598 42.5498 23.0287 42.5498C20.7412 42.5498 18.9369 41.7959 17.6171 40.2909C16.2988 38.7844 15.6389 36.735 15.6389 34.1439V26.1399C15.6389 24.254 17.1678 22.7251 19.0537 22.7251V22.7251C20.9397 22.7251 22.4686 24.254 22.4686 26.1399V33.2674C22.4686 34.389 22.7665 35.2699 23.3622 35.9126C23.9579 36.5554 24.7461 36.876 25.7266 36.876C26.73 36.876 27.5239 36.5554 28.1082 35.9126C28.6911 35.2699 28.9832 34.389 28.9832 33.2674V22.7279C28.9832 22.7263 28.9845 22.7251 28.986 22.7251V22.7251H35.8512V22.7251C35.8694 22.7251 35.8841 22.7398 35.8841 22.758V23.3837C35.8841 24.0283 36.8228 24.3691 37.3391 23.9833C37.6366 23.761 37.9577 23.5578 38.3027 23.3735C39.3302 22.8248 40.5103 22.5498 41.8414 22.5498Z" fill="url(#paint0_linear)"/>
</g>
<defs>
<filter id="filter0_i" x="0.435059" y="0.549805" width="64" height="68" filterUnits="userSpaceOnUse" color-interpolation-filters="sRGB">
<feFlood flood-opacity="0" result="BackgroundImageFix"/>
<feBlend mode="normal" in="SourceGraphic" in2="BackgroundImageFix" result="shape"/>
<feColorMatrix in="SourceAlpha" type="matrix" values="0 0 0 0 0 0 0 0 0 0 0 0 0 0 0 0 0 0 127 0" result="hardAlpha"/>
<feOffset dy="4"/>
<feGaussianBlur stdDeviation="2"/>
<feComposite in2="hardAlpha" operator="arithmetic" k2="-1" k3="1"/>
<feColorMatrix type="matrix" values="0 0 0 0 0 0 0 0 0 0 0 0 0 0 0 0 0 0 0.15 0"/>
<feBlend mode="normal" in2="shape" result="effect1_innerShadow"/>
</filter>
<linearGradient id="paint0_linear" x1="32.4351" y1="0.549805" x2="32.4351" y2="64.5498" gradientUnits="userSpaceOnUse">
<stop stop-color="#4482FF"/>
<stop offset="1" stop-color="#2450DB"/>
</linearGradient>
</defs>
</svg>
