<svg width="1600" height="905" viewBox="0 0 1600 905" fill="none" xmlns="http://www.w3.org/2000/svg">
<g clip-path="url(#clip0)">
<path d="M2080 -1H-480V904.638H2080V-1Z" fill="#EFF6FF"/>
<path d="M1239.51 177.805C1045.01 175.862 991.739 61.8542 972.008 -1.13281H2080.01V574.494C1804.11 620.156 1651.48 531.747 1611.86 357.845C1521.85 385.047 1465.1 335.986 1449.45 285.466C1365.7 317.721 1260.51 247.904 1239.51 177.805Z" fill="url(#paint0_linear)"/>
<path opacity="0.2" d="M1731.51 110.934C1438.86 213.507 1259.01 110.934 1191.51 -0.210404L2080.22 -0.210449V397.06C2057.35 226.027 1931.51 40.8346 1731.51 110.934Z" fill="url(#paint1_linear)"/>
<path opacity="0.95" fill-rule="evenodd" clip-rule="evenodd" d="M997.083 701.287C967.676 689.782 937.276 731.222 937.276 731.222L937.564 735.836C979.39 718.264 1088.65 681.048 1212.53 724.961C1212.53 724.961 1200.09 708.474 1185.42 703.313C1170.74 698.152 1152.34 704.437 1152.34 704.437L1141.74 697.031C1108.65 670.911 1087.13 698.886 1087.13 698.886L1069.8 683.417C1020.99 652.83 997.083 701.287 997.083 701.287Z" fill="white"/>
<path opacity="0.3" fill-rule="evenodd" clip-rule="evenodd" d="M1017.17 698.505C988.558 685.905 956.28 729.804 956.28 729.804C999.159 715.256 1103.94 679.757 1229.91 733.022C1229.91 733.022 1219.36 716.375 1205.04 710.642C1190.72 704.909 1171.95 709.926 1171.95 709.926L1161.85 702.267C1130.49 675.482 1107.21 701.084 1107.21 701.084L1090.91 685.346C1044.15 653.436 1017.17 698.505 1017.17 698.505Z" fill="white"/>
<path opacity="0.34" d="M-3 767.004C220.675 767.004 402 586.35 402 363.502C402 140.654 220.675 -40 -3 -40C-226.675 -40 -408 140.654 -408 363.502C-408 586.35 -226.675 767.004 -3 767.004Z" fill="white"/>
<path opacity="0.5" d="M-2.5 655.419C159.043 655.419 290 524.947 290 364.001C290 203.055 159.043 72.583 -2.5 72.583C-164.043 72.583 -295 203.055 -295 364.001C-295 524.947 -164.043 655.419 -2.5 655.419Z" fill="white"/>
<path d="M-3 505.973C75.9767 505.973 140 442.187 140 363.502C140 284.817 75.9767 221.031 -3 221.031C-81.9767 221.031 -146 284.817 -146 363.502C-146 442.187 -81.9767 505.973 -3 505.973Z" fill="#FFF5DE"/>
<g filter="url(#filter0_ddd)">
<path d="M1404.96 355.072C1411.6 355.072 1417.82 356.853 1423.16 359.953C1430.55 343.356 1447.36 331.764 1466.91 331.764C1492.52 331.764 1513.42 351.649 1514.62 376.624C1516.81 376.021 1519.11 375.692 1521.49 375.692C1535.58 375.692 1547 386.96 1547 400.86C1547 401.412 1546.98 401.959 1546.94 402.502H1371.09C1369.74 398.767 1369 394.744 1369 390.55C1369 370.956 1385.1 355.072 1404.96 355.072Z" fill="white"/>
</g>
<g opacity="0.9" filter="url(#filter1_ddd)">
<path opacity="0.9" d="M1329.62 178.014C1332.57 178.014 1335.33 178.789 1337.7 180.138C1340.97 172.915 1348.43 167.871 1357.1 167.871C1357.54 167.871 1357.98 167.886 1358.42 167.912C1363.92 158.321 1374.48 151.83 1386.61 151.83C1399.81 151.83 1411.14 159.503 1416.13 170.49C1419.73 168.438 1423.93 167.259 1428.41 167.259C1441.81 167.259 1452.67 177.774 1452.67 190.745C1452.67 193.521 1452.17 196.184 1451.26 198.656H1392.6H1332.62H1314.6C1314 197.031 1313.67 195.28 1313.67 193.455C1313.67 184.927 1320.81 178.014 1329.62 178.014Z" fill="white"/>
</g>
<g opacity="0.5">
<path opacity="0.5" d="M618.238 102.939C761.304 101.821 800.487 36.235 815 0H0V331.145C202.94 357.413 315.205 306.554 344.351 206.512C410.559 222.161 452.298 193.937 463.812 164.874C525.414 183.429 602.791 143.265 618.238 102.939Z" fill="url(#paint2_linear)"/>
<path opacity="0.5" d="M618.238 102.939C761.304 101.821 800.487 36.235 815 0H0V331.145C202.94 357.413 315.205 306.554 344.351 206.512C410.559 222.161 452.298 193.937 463.812 164.874C525.414 183.429 602.791 143.265 618.238 102.939Z" fill="url(#paint3_linear)"/>
</g>
<g opacity="0.3">
<path opacity="0.3" d="M380.995 96.0745C693.16 183.817 884.999 96.0745 957 1H-6.10352e-05V336C23.4977 169.753 167.66 36.1105 380.995 96.0745Z" fill="url(#paint4_linear)"/>
<path opacity="0.3" d="M380.995 96.0745C693.16 183.817 884.999 96.0745 957 1H-6.10352e-05V336C23.4977 169.753 167.66 36.1105 380.995 96.0745Z" fill="url(#paint5_linear)"/>
</g>
<g opacity="0.4">
<path opacity="0.4" d="M1113.69 97.1523C999.759 96.0973 968.557 34.1982 957 0H1606V312.531C1444.39 337.322 1355 289.322 1331.79 194.903C1279.06 209.673 1245.83 183.035 1236.66 155.606C1187.6 173.118 1125.99 135.212 1113.69 97.1523Z" fill="url(#paint6_linear)"/>
<path opacity="0.4" d="M1113.69 97.1523C999.759 96.0973 968.557 34.1982 957 0H1606V312.531C1444.39 337.322 1355 289.322 1331.79 194.903C1279.06 209.673 1245.83 183.035 1236.66 155.606C1187.6 173.118 1125.99 135.212 1113.69 97.1523Z" fill="url(#paint7_linear)"/>
</g>
<g opacity="0.2" filter="url(#filter2_ddd)">
<path opacity="0.2" d="M198.23 241.828C202.522 241.828 206.542 242.96 209.992 244.932C214.768 234.374 225.624 227 238.256 227C254.8 227 268.303 239.65 269.079 255.538C270.493 255.155 271.981 254.945 273.521 254.945C282.622 254.945 290 262.113 290 270.956C290 271.307 289.984 271.655 289.961 272H176.353C175.478 269.624 175 267.065 175 264.397C175 251.932 185.4 241.828 198.23 241.828Z" fill="white"/>
</g>
<g opacity="0.3" filter="url(#filter3_ddd)">
<path opacity="0.3" d="M1422.09 149.782C1427.46 149.782 1432.5 151.216 1436.82 153.714C1442.8 140.341 1456.39 131 1472.21 131C1492.92 131 1509.83 147.023 1510.8 167.148C1512.57 166.662 1514.44 166.397 1516.37 166.397C1527.76 166.397 1537 175.477 1537 186.677C1537 187.122 1536.98 187.562 1536.95 188H1394.69C1393.6 184.991 1393 181.749 1393 178.37C1393 162.581 1406.02 149.782 1422.09 149.782Z" fill="white"/>
</g>
<path opacity="0.3" d="M1304.03 158.475C1304.46 158.416 1304.78 158.11 1304.85 157.727C1305.94 151.573 1310.58 146.169 1317.41 144.05L1317.42 144.048C1317.72 143.955 1317.96 143.735 1318.05 143.452C1318.21 142.933 1317.87 142.437 1317.34 142.32C1315.17 141.832 1312.83 141.886 1310.55 142.593C1306.27 143.919 1303.3 147.209 1302.42 151.015C1302.36 151.266 1302.21 151.496 1301.97 151.631C1301.6 151.844 1301.13 151.8 1300.82 151.545C1297.63 148.981 1293.11 148.001 1288.82 149.332C1286.55 150.035 1284.65 151.29 1283.24 152.882C1282.98 153.169 1282.92 153.576 1283.11 153.903C1283.34 154.291 1283.83 154.465 1284.28 154.327C1284.28 154.326 1284.28 154.325 1284.29 154.324C1291.11 152.208 1298.32 153.924 1303.19 158.214C1303.42 158.412 1303.72 158.518 1304.03 158.475Z" fill="black"/>
<path opacity="0.1" d="M276.793 293.485C276.48 293.549 276.171 293.404 276.021 293.138C273.603 288.854 268.912 286.025 263.584 286.187H263.578C263.344 286.194 263.116 286.092 262.98 285.905C262.73 285.56 262.833 285.106 263.165 284.887C264.547 283.974 266.195 283.42 267.972 283.367C271.307 283.266 274.262 284.951 275.903 287.548C276.011 287.719 276.18 287.851 276.38 287.891C276.698 287.955 277.01 287.804 277.161 287.535C278.686 284.828 281.573 282.955 284.918 282.854C286.687 282.8 288.348 283.249 289.763 284.07C290.019 284.218 290.17 284.504 290.125 284.796C290.07 285.141 289.775 285.394 289.43 285.405C289.427 285.405 289.424 285.405 289.421 285.405C284.101 285.566 279.543 288.665 277.307 293.079C277.204 293.282 277.018 293.439 276.793 293.485Z" fill="black"/>
<path opacity="0.1" d="M1339.94 177.182C1338.58 176.438 1336.99 176.029 1335.29 176.073C1332.1 176.155 1329.36 177.821 1327.92 180.237C1327.8 180.434 1327.58 180.56 1327.34 180.566C1327.09 180.572 1326.86 180.458 1326.73 180.267C1325.15 177.93 1322.32 176.407 1319.12 176.489C1317.43 176.533 1315.86 177.023 1314.54 177.836C1314.29 177.993 1314.18 178.286 1314.27 178.556C1314.37 178.825 1314.64 179.006 1314.94 178.998C1314.95 178.998 1314.95 178.998 1314.95 178.998C1320.04 178.867 1324.53 181.406 1326.87 185.241C1326.99 185.447 1327.23 185.571 1327.49 185.565C1327.74 185.558 1327.97 185.422 1328.08 185.21C1330.19 181.261 1334.52 178.494 1339.61 178.363C1339.92 178.355 1340.18 178.161 1340.26 177.887C1340.34 177.613 1340.21 177.326 1339.94 177.182Z" fill="black"/>
</g>
<defs>
<filter id="filter0_ddd" x="1326" y="281.764" width="278" height="170.738" filterUnits="userSpaceOnUse" color-interpolation-filters="sRGB">
<feFlood flood-opacity="0" result="BackgroundImageFix"/>
<feColorMatrix in="SourceAlpha" type="matrix" values="0 0 0 0 0 0 0 0 0 0 0 0 0 0 0 0 0 0 127 0"/>
<feOffset dx="7"/>
<feGaussianBlur stdDeviation="25"/>
<feColorMatrix type="matrix" values="0 0 0 0 0.121569 0 0 0 0 0.247059 0 0 0 0 0.682353 0 0 0 0.02 0"/>
<feBlend mode="normal" in2="BackgroundImageFix" result="effect1_dropShadow"/>
<feColorMatrix in="SourceAlpha" type="matrix" values="0 0 0 0 0 0 0 0 0 0 0 0 0 0 0 0 0 0 127 0"/>
<feOffset dx="13" dy="2"/>
<feGaussianBlur stdDeviation="3"/>
<feColorMatrix type="matrix" values="0 0 0 0 0.121569 0 0 0 0 0.247059 0 0 0 0 0.682353 0 0 0 0.02 0"/>
<feBlend mode="normal" in2="effect1_dropShadow" result="effect2_dropShadow"/>
<feColorMatrix in="SourceAlpha" type="matrix" values="0 0 0 0 0 0 0 0 0 0 0 0 0 0 0 0 0 0 127 0"/>
<feOffset dx="10" dy="10"/>
<feGaussianBlur stdDeviation="10"/>
<feColorMatrix type="matrix" values="0 0 0 0 0.121569 0 0 0 0 0.247059 0 0 0 0 0.682353 0 0 0 0.02 0"/>
<feBlend mode="normal" in2="effect2_dropShadow" result="effect3_dropShadow"/>
<feBlend mode="normal" in="SourceGraphic" in2="effect3_dropShadow" result="shape"/>
</filter>
<filter id="filter1_ddd" x="1270.67" y="101.83" width="239" height="146.826" filterUnits="userSpaceOnUse" color-interpolation-filters="sRGB">
<feFlood flood-opacity="0" result="BackgroundImageFix"/>
<feColorMatrix in="SourceAlpha" type="matrix" values="0 0 0 0 0 0 0 0 0 0 0 0 0 0 0 0 0 0 127 0"/>
<feOffset dx="7"/>
<feGaussianBlur stdDeviation="25"/>
<feColorMatrix type="matrix" values="0 0 0 0 0.121569 0 0 0 0 0.247059 0 0 0 0 0.682353 0 0 0 0.02 0"/>
<feBlend mode="normal" in2="BackgroundImageFix" result="effect1_dropShadow"/>
<feColorMatrix in="SourceAlpha" type="matrix" values="0 0 0 0 0 0 0 0 0 0 0 0 0 0 0 0 0 0 127 0"/>
<feOffset dx="13" dy="2"/>
<feGaussianBlur stdDeviation="3"/>
<feColorMatrix type="matrix" values="0 0 0 0 0.121569 0 0 0 0 0.247059 0 0 0 0 0.682353 0 0 0 0.02 0"/>
<feBlend mode="normal" in2="effect1_dropShadow" result="effect2_dropShadow"/>
<feColorMatrix in="SourceAlpha" type="matrix" values="0 0 0 0 0 0 0 0 0 0 0 0 0 0 0 0 0 0 127 0"/>
<feOffset dx="10" dy="10"/>
<feGaussianBlur stdDeviation="10"/>
<feColorMatrix type="matrix" values="0 0 0 0 0.121569 0 0 0 0 0.247059 0 0 0 0 0.682353 0 0 0 0.02 0"/>
<feBlend mode="normal" in2="effect2_dropShadow" result="effect3_dropShadow"/>
<feBlend mode="normal" in="SourceGraphic" in2="effect3_dropShadow" result="shape"/>
</filter>
<filter id="filter2_ddd" x="132" y="177" width="215" height="145" filterUnits="userSpaceOnUse" color-interpolation-filters="sRGB">
<feFlood flood-opacity="0" result="BackgroundImageFix"/>
<feColorMatrix in="SourceAlpha" type="matrix" values="0 0 0 0 0 0 0 0 0 0 0 0 0 0 0 0 0 0 127 0"/>
<feOffset dx="7"/>
<feGaussianBlur stdDeviation="25"/>
<feColorMatrix type="matrix" values="0 0 0 0 0.121569 0 0 0 0 0.247059 0 0 0 0 0.682353 0 0 0 0.02 0"/>
<feBlend mode="normal" in2="BackgroundImageFix" result="effect1_dropShadow"/>
<feColorMatrix in="SourceAlpha" type="matrix" values="0 0 0 0 0 0 0 0 0 0 0 0 0 0 0 0 0 0 127 0"/>
<feOffset dx="13" dy="2"/>
<feGaussianBlur stdDeviation="3"/>
<feColorMatrix type="matrix" values="0 0 0 0 0.121569 0 0 0 0 0.247059 0 0 0 0 0.682353 0 0 0 0.02 0"/>
<feBlend mode="normal" in2="effect1_dropShadow" result="effect2_dropShadow"/>
<feColorMatrix in="SourceAlpha" type="matrix" values="0 0 0 0 0 0 0 0 0 0 0 0 0 0 0 0 0 0 127 0"/>
<feOffset dx="10" dy="10"/>
<feGaussianBlur stdDeviation="10"/>
<feColorMatrix type="matrix" values="0 0 0 0 0.121569 0 0 0 0 0.247059 0 0 0 0 0.682353 0 0 0 0.02 0"/>
<feBlend mode="normal" in2="effect2_dropShadow" result="effect3_dropShadow"/>
<feBlend mode="normal" in="SourceGraphic" in2="effect3_dropShadow" result="shape"/>
</filter>
<filter id="filter3_ddd" x="1350" y="81" width="244" height="157" filterUnits="userSpaceOnUse" color-interpolation-filters="sRGB">
<feFlood flood-opacity="0" result="BackgroundImageFix"/>
<feColorMatrix in="SourceAlpha" type="matrix" values="0 0 0 0 0 0 0 0 0 0 0 0 0 0 0 0 0 0 127 0"/>
<feOffset dx="7"/>
<feGaussianBlur stdDeviation="25"/>
<feColorMatrix type="matrix" values="0 0 0 0 0.121569 0 0 0 0 0.247059 0 0 0 0 0.682353 0 0 0 0.02 0"/>
<feBlend mode="normal" in2="BackgroundImageFix" result="effect1_dropShadow"/>
<feColorMatrix in="SourceAlpha" type="matrix" values="0 0 0 0 0 0 0 0 0 0 0 0 0 0 0 0 0 0 127 0"/>
<feOffset dx="13" dy="2"/>
<feGaussianBlur stdDeviation="3"/>
<feColorMatrix type="matrix" values="0 0 0 0 0.121569 0 0 0 0 0.247059 0 0 0 0 0.682353 0 0 0 0.02 0"/>
<feBlend mode="normal" in2="effect1_dropShadow" result="effect2_dropShadow"/>
<feColorMatrix in="SourceAlpha" type="matrix" values="0 0 0 0 0 0 0 0 0 0 0 0 0 0 0 0 0 0 127 0"/>
<feOffset dx="10" dy="10"/>
<feGaussianBlur stdDeviation="10"/>
<feColorMatrix type="matrix" values="0 0 0 0 0.121569 0 0 0 0 0.247059 0 0 0 0 0.682353 0 0 0 0.02 0"/>
<feBlend mode="normal" in2="effect2_dropShadow" result="effect3_dropShadow"/>
<feBlend mode="normal" in="SourceGraphic" in2="effect3_dropShadow" result="shape"/>
</filter>
<linearGradient id="paint0_linear" x1="1854" y1="47.8183" x2="881.058" y2="142.396" gradientUnits="userSpaceOnUse">
<stop stop-color="#9ED1FF"/>
<stop offset="1" stop-color="#BDE3FB" stop-opacity="0"/>
</linearGradient>
<linearGradient id="paint1_linear" x1="1848.43" y1="82.2395" x2="2059.86" y2="-12.2682" gradientUnits="userSpaceOnUse">
<stop stop-color="white"/>
<stop offset="1" stop-color="white" stop-opacity="0"/>
</linearGradient>
<linearGradient id="paint2_linear" x1="815" y1="338" x2="-29.7144" y2="110.171" gradientUnits="userSpaceOnUse">
<stop stop-color="#D7EDFD"/>
<stop offset="0.770833" stop-color="white" stop-opacity="0"/>
</linearGradient>
<linearGradient id="paint3_linear" x1="815" y1="338" x2="-29.7144" y2="110.171" gradientUnits="userSpaceOnUse">
<stop stop-color="#CFEAFC"/>
<stop offset="0.515625" stop-color="white" stop-opacity="0"/>
</linearGradient>
<linearGradient id="paint4_linear" x1="903.699" y1="271.5" x2="-10.2255" y2="41.66" gradientUnits="userSpaceOnUse">
<stop stop-color="#D3EBFD"/>
<stop offset="1" stop-color="white" stop-opacity="0"/>
</linearGradient>
<linearGradient id="paint5_linear" x1="990.919" y1="305" x2="-10.9698" y2="42.9385" gradientUnits="userSpaceOnUse">
<stop stop-color="#D4ECFD"/>
<stop offset="1" stop-color="white" stop-opacity="0"/>
</linearGradient>
<linearGradient id="paint6_linear" x1="957" y1="319" x2="1643.06" y2="162.873" gradientUnits="userSpaceOnUse">
<stop stop-color="#D4ECFD"/>
<stop offset="0.770833" stop-color="white" stop-opacity="0"/>
</linearGradient>
<linearGradient id="paint7_linear" x1="957" y1="319" x2="1643.06" y2="162.873" gradientUnits="userSpaceOnUse">
<stop stop-color="#D0EAFC"/>
<stop offset="0.515625" stop-color="white" stop-opacity="0"/>
</linearGradient>
<clipPath id="clip0">
<rect width="1600" height="905" fill="white"/>
</clipPath>
</defs>
</svg>
