<svg width="1600" height="1381" viewBox="0 0 1600 1381" fill="none" xmlns="http://www.w3.org/2000/svg">
<g clip-path="url(#clip0)">
<path fill-rule="evenodd" clip-rule="evenodd" d="M-1099 315.908V318.908V321.908V2538H-899H-699H-499H-299H-99H101H301H501H701H901H1101H1301H1501H1701H1901H2101V321.908V318.908V315.908C2077.23 315.908 2042.37 306.317 2007.86 279.143C1972.57 251.367 1941.43 236 1901 236C1860.57 236 1829.43 251.367 1794.14 279.143C1759.63 306.317 1724.77 315.908 1701 315.908C1677.23 315.908 1642.37 306.317 1607.86 279.143C1572.57 251.367 1541.43 236 1501 236C1460.57 236 1429.43 251.367 1394.14 279.143C1359.63 306.317 1324.77 315.908 1301 315.908C1277.23 315.908 1242.37 306.317 1207.86 279.143C1172.57 251.367 1141.43 236 1101 236C1060.57 236 1029.43 251.367 994.144 279.143C959.626 306.317 924.769 315.908 901 315.908C877.231 315.908 842.374 306.317 807.856 279.143C772.573 251.367 741.431 236 701 236C660.569 236 629.427 251.367 594.144 279.143C559.626 306.317 524.769 315.908 501 315.908C477.231 315.908 442.374 306.317 407.856 279.143C372.573 251.367 341.431 236 301 236C260.569 236 229.427 251.367 194.144 279.143C159.626 306.317 124.769 315.908 101 315.908C77.2313 315.908 42.3743 306.317 7.85571 279.143C-27.4269 251.367 -58.5691 236 -99 236C-139.431 236 -170.573 251.367 -205.856 279.143C-240.374 306.317 -275.231 315.908 -299 315.908C-322.769 315.908 -357.626 306.317 -392.144 279.143C-427.427 251.367 -458.569 236 -499 236C-539.431 236 -570.573 251.367 -605.856 279.143C-640.374 306.317 -675.231 315.908 -699 315.908C-722.769 315.908 -757.626 306.317 -792.144 279.143C-827.427 251.367 -858.569 236 -899 236C-939.431 236 -970.573 251.367 -1005.86 279.143C-1040.37 306.317 -1075.23 315.908 -1099 315.908Z" fill="#7490E2"/>
<path fill-rule="evenodd" clip-rule="evenodd" d="M-1102 312.908H-1099C-1075.96 312.908 -1041.75 303.581 -1007.71 276.786C-972.146 248.788 -940.362 233 -899 233C-857.638 233 -825.854 248.788 -790.289 276.786C-756.251 303.581 -722.037 312.908 -699 312.908C-675.963 312.908 -641.749 303.581 -607.711 276.786C-572.146 248.788 -540.362 233 -499 233C-457.638 233 -425.854 248.788 -390.289 276.786C-356.251 303.581 -322.037 312.908 -299 312.908C-275.963 312.908 -241.749 303.581 -207.711 276.786C-172.146 248.788 -140.362 233 -99 233C-57.6381 233 -25.8536 248.788 9.71143 276.786C43.7485 303.581 77.9625 312.908 101 312.908C124.037 312.908 158.251 303.581 192.289 276.786C227.854 248.788 259.638 233 301 233C342.362 233 374.146 248.788 409.711 276.786C443.749 303.581 477.963 312.908 501 312.908C524.037 312.908 558.251 303.581 592.289 276.786C627.854 248.788 659.638 233 701 233C742.362 233 774.146 248.788 809.711 276.786C843.749 303.581 877.963 312.908 901 312.908C924.037 312.908 958.251 303.581 992.289 276.786C1027.85 248.788 1059.64 233 1101 233C1142.36 233 1174.15 248.788 1209.71 276.786C1243.75 303.581 1277.96 312.908 1301 312.908C1324.04 312.908 1358.25 303.581 1392.29 276.786C1427.85 248.788 1459.64 233 1501 233C1542.36 233 1574.15 248.788 1609.71 276.786C1643.75 303.581 1677.96 312.908 1701 312.908C1724.04 312.908 1758.25 303.581 1792.29 276.786C1827.85 248.788 1859.64 233 1901 233C1942.36 233 1974.15 248.788 2009.71 276.786C2043.75 303.581 2077.96 312.908 2101 312.908H2104V2541H-1102V312.908ZM-1099 315.908C-1075.23 315.908 -1040.37 306.317 -1005.86 279.143C-970.573 251.367 -939.431 236 -899 236C-858.569 236 -827.427 251.367 -792.144 279.143C-757.626 306.317 -722.769 315.908 -699 315.908C-675.231 315.908 -640.374 306.317 -605.856 279.143C-570.573 251.367 -539.431 236 -499 236C-458.569 236 -427.427 251.367 -392.144 279.143C-357.626 306.317 -322.769 315.908 -299 315.908C-275.231 315.908 -240.374 306.317 -205.856 279.143C-170.573 251.367 -139.431 236 -99 236C-58.5691 236 -27.4269 251.367 7.85571 279.143C42.3743 306.317 77.2313 315.908 101 315.908C124.769 315.908 159.626 306.317 194.144 279.143C229.427 251.367 260.569 236 301 236C341.431 236 372.573 251.367 407.856 279.143C442.374 306.317 477.231 315.908 501 315.908C524.769 315.908 559.626 306.317 594.144 279.143C629.427 251.367 660.569 236 701 236C741.431 236 772.573 251.367 807.856 279.143C842.374 306.317 877.231 315.908 901 315.908C924.769 315.908 959.626 306.317 994.144 279.143C1029.43 251.367 1060.57 236 1101 236C1141.43 236 1172.57 251.367 1207.86 279.143C1242.37 306.317 1277.23 315.908 1301 315.908C1324.77 315.908 1359.63 306.317 1394.14 279.143C1429.43 251.367 1460.57 236 1501 236C1541.43 236 1572.57 251.367 1607.86 279.143C1642.37 306.317 1677.23 315.908 1701 315.908C1724.77 315.908 1759.63 306.317 1794.14 279.143C1829.43 251.367 1860.57 236 1901 236C1941.43 236 1972.57 251.367 2007.86 279.143C2042.37 306.317 2077.23 315.908 2101 315.908V2538H-1099V315.908Z" fill="#84ADFE" fill-opacity="0.5"/>
<path fill-rule="evenodd" clip-rule="evenodd" d="M-99 315.908V318.908V321.908V2538H101H301H501H701H901H1101H1301H1501H1701H1901V321.908V318.908V315.908C1877.23 315.908 1842.37 306.317 1807.86 279.143C1772.57 251.367 1741.43 236 1701 236C1660.57 236 1629.43 251.367 1594.14 279.143C1559.63 306.317 1524.77 315.908 1501 315.908C1477.23 315.908 1442.37 306.317 1407.86 279.143C1372.57 251.367 1341.43 236 1301 236C1260.57 236 1229.43 251.367 1194.14 279.143C1159.63 306.317 1124.77 315.908 1101 315.908C1077.23 315.908 1042.37 306.317 1007.86 279.143C972.573 251.367 941.431 236 901 236C860.569 236 829.427 251.367 794.144 279.143C759.626 306.317 724.769 315.908 701 315.908C677.231 315.908 642.374 306.317 607.856 279.143C572.573 251.367 541.431 236 501 236C460.569 236 429.427 251.367 394.144 279.143C359.626 306.317 324.769 315.908 301 315.908C277.231 315.908 242.374 306.317 207.856 279.143C172.573 251.367 141.431 236 101 236C60.569 236 29.4269 251.367 -5.85568 279.143C-40.3743 306.317 -75.2313 315.908 -99 315.908Z" fill="url(#paint0_linear)"/>
<path fill-rule="evenodd" clip-rule="evenodd" d="M-102 312.908H-99C-75.9625 312.908 -41.7486 303.581 -7.71136 276.786C27.8537 248.788 59.638 233 101 233C142.362 233 174.146 248.788 209.711 276.786C243.749 303.581 277.963 312.908 301 312.908C324.037 312.908 358.251 303.581 392.289 276.786C427.854 248.788 459.638 233 501 233C542.362 233 574.146 248.788 609.711 276.786C643.749 303.581 677.963 312.908 701 312.908C724.037 312.908 758.251 303.581 792.289 276.786C827.854 248.788 859.638 233 901 233C942.362 233 974.146 248.788 1009.71 276.786C1043.75 303.581 1077.96 312.908 1101 312.908C1124.04 312.908 1158.25 303.581 1192.29 276.786C1227.85 248.788 1259.64 233 1301 233C1342.36 233 1374.15 248.788 1409.71 276.786C1443.75 303.581 1477.96 312.908 1501 312.908C1524.04 312.908 1558.25 303.581 1592.29 276.786C1627.85 248.788 1659.64 233 1701 233C1742.36 233 1774.15 248.788 1809.71 276.786C1843.75 303.581 1877.96 312.908 1901 312.908H1904V2541H-102V312.908ZM-99 315.908C-75.2313 315.908 -40.3743 306.317 -5.85568 279.143C29.4269 251.367 60.569 236 101 236C141.431 236 172.573 251.367 207.856 279.143C242.374 306.317 277.231 315.908 301 315.908C324.769 315.908 359.626 306.317 394.144 279.143C429.427 251.367 460.569 236 501 236C541.431 236 572.573 251.367 607.856 279.143C642.374 306.317 677.231 315.908 701 315.908C724.769 315.908 759.626 306.317 794.144 279.143C829.427 251.367 860.569 236 901 236C941.431 236 972.573 251.367 1007.86 279.143C1042.37 306.317 1077.23 315.908 1101 315.908C1124.77 315.908 1159.63 306.317 1194.14 279.143C1229.43 251.367 1260.57 236 1301 236C1341.43 236 1372.57 251.367 1407.86 279.143C1442.37 306.317 1477.23 315.908 1501 315.908C1524.77 315.908 1559.63 306.317 1594.14 279.143C1629.43 251.367 1660.57 236 1701 236C1741.43 236 1772.57 251.367 1807.86 279.143C1842.37 306.317 1877.23 315.908 1901 315.908V2538H-99V315.908Z" fill="#84ADFE" fill-opacity="0.57"/>
<path opacity="0.6" d="M462.635 0L602.02 63.6334L449 67.8057L462.635 0Z" fill="url(#paint1_linear)"/>
<path opacity="0.6" d="M749.267 130.217L609.881 66.5838L762.901 62.4116L749.267 130.217Z" fill="url(#paint2_linear)"/>
<path d="M604.363 67.8058L586.947 118.183L591.822 120.004L605.982 68.3377L604.363 67.8058Z" fill="#ED2D18"/>
<path d="M604.104 68.0341L586.106 117.7L589.525 120.085L605.432 68.4743L604.104 68.0341Z" fill="#ED2D18"/>
<path d="M607.431 67.943C609.12 67.066 609.775 64.9879 608.893 63.3014C608.011 61.615 605.927 60.9588 604.238 61.8358C602.549 62.7129 601.894 64.791 602.776 66.4774C603.658 68.1638 605.742 68.82 607.431 67.943Z" fill="#C6881A"/>
<path opacity="0.2" d="M605.983 64.4119C605.743 65.1724 604.939 65.59 604.176 65.3499C603.414 65.1098 602.994 64.3067 603.233 63.5462C603.473 62.7857 604.277 62.368 605.04 62.6082C605.792 62.8451 606.222 63.6514 605.983 64.4119Z" fill="#F9BE58"/>
<path d="M595.317 115.418L585.402 112.296L571.49 156.485L581.404 159.606L595.317 115.418Z" fill="#ED2D18"/>
<path d="M590.23 113.816C588.202 119.524 586.338 125.338 584.283 131.026C581.463 138.827 578.518 146.951 574.555 154.216C574.058 155.127 573.569 156.051 573.076 156.984L581.406 159.607L595.318 115.418L590.23 113.816Z" fill="#ED2D18"/>
<path d="M584.059 193.251L588.589 163.552L574.426 159.489L560.49 154.706L547.179 181.64L564.406 190.825L565.781 186.947L564.687 190.914L584.059 193.251Z" fill="#ED2D18"/>
<path d="M585.22 190.899L589.75 161.2L575.587 157.137L561.651 152.353L548.34 179.287L565.567 188.473L566.939 184.604L565.848 188.561L585.22 190.899Z" fill="#353535"/>
<path d="M578.138 286.819C577.086 290.161 561.079 288.135 541.524 282.352C540.163 281.946 538.781 281.533 537.386 281.094C516.011 274.364 499.591 266.015 500.716 262.443C500.741 262.363 500.779 262.276 500.824 262.203L500.764 262.184L512.134 226.07C512.213 225.82 512.305 225.596 512.428 225.382C513.362 224.411 516.222 224.157 520.453 224.521L583.555 244.388C587.4 246.611 589.626 248.543 589.66 249.874C589.636 250.053 589.596 250.217 589.542 250.387C589.536 250.407 589.53 250.427 589.526 250.437C589.526 250.437 578.176 286.699 578.138 286.819Z" fill="#ED2D18"/>
<path d="M566.481 276.683C571.669 278.317 577.428 274.704 579.346 268.614C581.263 262.524 578.612 256.263 573.425 254.629C568.237 252.996 562.477 256.609 560.56 262.699C558.642 268.789 561.293 275.05 566.481 276.683Z" fill="white"/>
<path d="M576.347 263.01C575.995 262.129 575.376 261.591 574.489 261.395C573.968 261.28 573.475 261.317 573.011 261.507C572.555 261.693 572.16 261.98 571.827 262.367L572.136 260.968L572.124 260.965L569.435 260.37L569.434 260.369L568.249 265.725C568.122 266.295 567.909 266.717 567.608 266.993C567.307 267.269 566.96 267.363 566.567 267.276C566.184 267.191 565.911 266.96 565.75 266.581C565.589 266.203 565.571 265.73 565.698 265.16L566.883 259.805L564.209 259.212L562.925 265.013C562.633 266.33 562.661 267.428 563.008 268.308C563.355 269.187 563.977 269.726 564.873 269.924C565.394 270.04 565.887 270.002 566.351 269.813C566.815 269.624 567.211 269.329 567.539 268.928L567.224 270.352H567.225L569.913 270.947L569.926 270.95L571.182 265.278C571.311 264.864 571.497 264.546 571.74 264.323C572.04 264.048 572.392 263.954 572.794 264.043C573.178 264.128 573.448 264.36 573.605 264.736C573.761 265.114 573.776 265.586 573.65 266.156L572.464 271.512L575.153 272.107L576.441 266.289C576.73 264.984 576.698 263.891 576.347 263.01Z" fill="#ED2D18"/>
<path d="M578.138 286.818C577.014 290.391 558.772 287.826 537.397 281.096C516.022 274.366 499.591 266.015 500.716 262.443C500.741 262.362 500.779 262.276 500.825 262.202L500.765 262.183L502.8 255.719L502.86 255.738C502.815 255.811 502.776 255.898 502.751 255.978C501.626 259.551 518.047 267.899 539.422 274.629C560.506 281.267 578.532 283.852 580.106 280.498C578.951 284.237 578.148 286.788 578.138 286.818Z" fill="#353535"/>
<g opacity="0.4">
<path opacity="0.4" d="M555.481 235.955L555.625 235.989C555.574 235.973 555.524 235.957 555.481 235.955Z" fill="#AA958C"/>
<path opacity="0.4" d="M578.141 286.819C577.089 290.161 561.082 288.135 541.527 282.352C547.347 277.773 552.285 272.179 555.734 266.094C558.69 260.876 560.594 254.547 559.796 248.499C559.45 245.883 557.672 236.711 555.617 235.987L563.531 238.072L583.551 244.375C587.396 246.598 589.622 248.531 589.656 249.861C589.632 250.04 589.592 250.204 589.538 250.374C589.532 250.394 589.526 250.414 589.523 250.424C589.53 250.437 578.179 286.699 578.141 286.819Z" fill="#A01000"/>
</g>
<path d="M589.606 250.22C589.587 250.28 589.571 250.33 589.532 250.383C587.931 253.542 569.969 250.823 548.925 244.198C528.213 237.676 512.119 229.761 512.092 226.167C512.097 226.047 512.108 225.941 512.143 225.831C512.197 225.661 512.287 225.513 512.418 225.379C513.352 224.408 516.212 224.153 520.443 224.518C527.962 225.158 539.794 227.762 552.81 231.86C565.826 235.958 577.015 240.602 583.545 244.385C587.39 246.607 589.616 248.54 589.649 249.87C589.658 249.983 589.64 250.109 589.606 250.22Z" fill="#F95F53"/>
<path d="M546.174 240.538C548.28 241.201 550.134 241.273 550.315 240.698C550.496 240.123 548.935 239.12 546.829 238.456C544.723 237.793 542.869 237.722 542.688 238.297C542.507 238.871 544.068 239.875 546.174 240.538Z" fill="#353535"/>
<path d="M592.608 160.353L590.705 162.404L590.361 164.826L575.428 161.004L576.645 156.471L592.608 160.353Z" fill="#A01000"/>
<path d="M566.235 240.684C565.835 241.955 559.757 241.185 552.341 238.993C551.826 238.842 551.304 238.678 550.772 238.51C542.663 235.957 536.427 232.784 536.852 231.433C536.861 231.403 536.871 231.373 536.894 231.336L536.873 231.33L541.19 217.621C541.218 217.531 541.256 217.444 541.305 217.36C541.661 217 542.744 216.89 544.353 217.033L568.297 224.572C569.752 225.415 570.603 226.145 570.609 226.653C570.6 226.716 570.588 226.789 570.569 226.849C570.566 226.859 570.566 226.859 570.563 226.869C570.56 226.879 566.251 240.634 566.235 240.684Z" fill="#ED2D18"/>
<path d="M566.237 240.684C565.811 242.035 558.892 241.066 550.773 238.51C542.664 235.957 536.428 232.784 536.853 231.433C536.863 231.403 536.872 231.373 536.895 231.336L536.875 231.33L537.646 228.878L537.667 228.885C537.647 228.912 537.638 228.942 537.625 228.982C537.2 230.333 543.426 233.503 551.545 236.059C559.543 238.577 566.383 239.554 566.979 238.29C566.545 239.704 566.24 240.674 566.237 240.684Z" fill="#353535"/>
<g opacity="0.4">
<path opacity="0.4" d="M566.237 240.686C565.837 241.957 559.759 241.187 552.342 238.995C554.553 237.26 556.425 235.133 557.735 232.829C558.855 230.85 559.578 228.449 559.275 226.154C559.147 225.157 558.467 221.676 557.691 221.41L560.695 222.202L568.292 224.593C569.747 225.436 570.598 226.166 570.604 226.674C570.595 226.737 570.583 226.81 570.564 226.871C570.561 226.881 570.561 226.881 570.558 226.891C570.561 226.881 566.252 240.636 566.237 240.686Z" fill="#A01000"/>
</g>
<path d="M570.585 226.799C570.579 226.819 570.573 226.839 570.556 226.856C569.949 228.051 563.134 227.027 555.146 224.512C547.289 222.038 541.175 219.036 541.174 217.672C541.177 217.628 541.179 217.585 541.192 217.545C541.211 217.485 541.253 217.421 541.302 217.371C541.658 217.01 542.741 216.9 544.35 217.044C547.208 217.284 551.693 218.278 556.631 219.832C561.568 221.387 565.811 223.152 568.294 224.582C569.749 225.425 570.601 226.155 570.606 226.663C570.604 226.706 570.601 226.749 570.585 226.799Z" fill="#F95F53"/>
<path d="M546.506 239.345L548.207 234.15L549.929 228.962L551.671 223.781L553.422 218.602L556.973 208.271C558.157 204.827 559.37 201.392 560.564 197.952L562.363 192.799L564.181 187.653L567.832 177.353C568.438 175.641 569.056 173.922 569.671 172.213L571.52 167.076L575.218 156.802L575.133 157.072L575.804 154.38C576.041 153.486 576.258 152.587 576.496 151.694C576.733 150.8 576.97 149.907 577.217 149.017C577.464 148.127 577.721 147.24 577.978 146.353L578.374 145.026L578.78 143.702C579.047 142.819 579.334 141.941 579.615 141.051C580.193 139.286 580.787 137.537 581.465 135.804L584.372 136.521C584.165 138.37 583.875 140.203 583.574 142.033C583.42 142.942 583.254 143.857 583.09 144.762L582.828 146.12L582.556 147.476C582.369 148.385 582.185 149.284 581.988 150.189C581.801 151.098 581.587 151.988 581.39 152.894C581.183 153.796 580.966 154.696 580.762 155.589L580.101 158.284L580.067 158.427L580.016 158.554L576.158 168.778L574.228 173.889C573.583 175.589 572.944 177.302 572.289 178.998L568.383 189.196L566.424 194.298L564.445 199.394C563.124 202.783 561.82 206.189 560.479 209.572L556.473 219.738L554.447 224.808L552.41 229.875L550.363 234.939L548.287 239.994L546.506 239.345Z" fill="#ED2D18"/>
<path d="M545.07 238.893L546.772 233.698L548.493 228.51L550.235 223.328L551.987 218.15L555.538 207.818C556.721 204.375 557.935 200.94 559.128 197.5L560.927 192.347L562.746 187.2L566.397 176.901C567.002 175.189 567.621 173.469 568.236 171.761L570.085 166.624L573.783 156.35L573.698 156.62L574.359 153.924C574.596 153.031 574.813 152.132 575.05 151.238C575.287 150.345 575.524 149.452 575.771 148.562C576.019 147.672 576.276 146.785 576.533 145.898L576.929 144.571L577.334 143.247C577.602 142.363 577.889 141.486 578.169 140.595C578.747 138.83 579.342 137.082 580.02 135.349L582.926 136.066C582.719 137.914 582.429 139.748 582.129 141.578C581.975 142.486 581.808 143.402 581.644 144.307L581.382 145.665L581.11 147.02C580.923 147.929 580.739 148.828 580.542 149.734C580.345 150.64 580.142 151.533 579.945 152.438C579.738 153.341 579.521 154.241 579.317 155.133L578.656 157.829L578.622 157.972L578.571 158.099L574.712 168.322L572.783 173.434C572.137 175.134 571.499 176.846 570.843 178.543L566.938 188.74L564.979 193.842L562.999 198.938C561.678 202.328 560.374 205.734 559.033 209.117L555.027 219.283L553.001 224.353L550.965 229.42L548.918 234.484L546.841 239.538L545.07 238.893Z" fill="#ED2D18"/>
<path d="M531.128 229.432C530.945 230.012 529.094 229.935 526.987 229.272C524.879 228.608 523.321 227.601 523.501 227.03C523.681 226.46 525.535 226.527 527.642 227.19C529.749 227.854 531.307 228.861 531.128 229.432Z" fill="#353535"/>
<path d="M566.48 129.975L573.72 156.55L574.813 153.253L569.819 131.84L566.48 129.975Z" fill="#ED2D18"/>
<path d="M600.859 140.38L579.71 158.017L580.703 154.689L597.054 139.996L600.859 140.38Z" fill="#ED2D18"/>
<path d="M526.73 228.157L528.336 228.663L565.801 153.88L566.007 153.471L566.009 153.043L566.538 129.783L563.544 129.622L561.649 152.352L526.73 228.157Z" fill="#ED2D18"/>
<path d="M525.205 227.681L526.811 228.186L564.276 153.403L564.481 152.995L564.484 152.567L565.013 129.307L562.019 129.145L560.124 151.876L525.205 227.681Z" fill="#ED2D18"/>
<path d="M575.573 243.535L577.108 244.018L590.146 162.424L603.601 142.112L601.142 140.392L586.173 160.293L585.851 160.72L585.778 161.269L575.573 243.535Z" fill="#ED2D18"/>
<path d="M576.717 243.895L578.253 244.378L591.29 162.784L604.735 142.469L602.286 140.752L587.318 160.654L586.996 161.08L586.922 161.629L576.717 243.895Z" fill="#ED2D18"/>
<path d="M607.339 137.46C606.2 136.628 604.526 135.673 602.359 134.638C599.189 133.112 595.175 131.497 590.743 129.947L589.965 132.419C599.267 135.667 604.572 138.47 606.24 139.864C604.068 140.038 598.11 139.306 588.636 136.642C587.014 136.186 585.289 135.676 583.472 135.104C581.787 134.573 580.207 134.054 578.725 133.543C569.196 130.246 563.78 127.375 562.082 125.972C564.28 125.784 570.362 126.544 580.06 129.301L580.839 126.829C576.181 125.506 571.822 124.496 568.246 123.909C565.877 123.515 563.958 123.34 562.548 123.369C561.727 123.385 559.539 123.433 559.041 125.014C558.543 126.595 560.309 127.888 560.973 128.372C562.112 129.204 563.788 130.149 565.952 131.194C569.22 132.761 573.364 134.418 577.946 136.015C579.489 136.545 581.075 137.077 582.691 137.586C584.437 138.135 586.173 138.649 587.854 139.123C592.374 140.392 596.59 141.368 600.063 141.933C602.431 142.327 604.35 142.502 605.76 142.473C606.582 142.457 608.77 142.409 609.268 140.828C609.765 139.247 608.003 137.944 607.339 137.46Z" fill="#ED2D18"/>
<path d="M561.87 150.432L562.255 153.203L561.149 155.385L575.579 160.808L577.178 156.395L561.87 150.432Z" fill="#ED2D18"/>
<path d="M515.726 261.714C520.913 263.348 526.673 259.735 528.591 253.645C530.508 247.555 527.857 241.294 522.669 239.66C517.482 238.027 511.722 241.64 509.804 247.73C507.887 253.82 510.538 260.081 515.726 261.714Z" fill="white"/>
<path d="M525.946 249.224C525.751 248.296 525.233 247.659 524.393 247.314C523.9 247.111 523.407 247.063 522.918 247.17C522.437 247.276 521.999 247.491 521.604 247.815L522.149 246.489L522.137 246.484L519.59 245.437H519.589L517.503 250.51C517.281 251.05 516.998 251.429 516.655 251.649C516.311 251.869 515.953 251.903 515.581 251.749C515.217 251.6 514.988 251.325 514.895 250.925C514.801 250.525 514.865 250.056 515.087 249.516L517.173 244.443L514.64 243.401L512.38 248.896C511.867 250.143 511.706 251.23 511.897 252.156C512.089 253.081 512.609 253.719 513.457 254.068C513.951 254.271 514.443 254.319 514.933 254.212C515.422 254.105 515.863 253.882 516.255 253.544L515.701 254.892L515.702 254.893L518.248 255.94L518.26 255.945L520.47 250.572C520.668 250.187 520.905 249.905 521.183 249.728C521.526 249.508 521.889 249.476 522.27 249.633C522.633 249.782 522.86 250.057 522.95 250.454C523.039 250.853 522.973 251.321 522.751 251.861L520.664 256.934L523.211 257.981L525.477 252.47C525.986 251.234 526.142 250.152 525.946 249.224Z" fill="#ED2D18"/>
<path opacity="0.7" d="M574.892 296.139C573.84 299.481 557.833 297.455 538.278 291.672C536.917 291.266 535.535 290.853 534.141 290.414C512.765 283.684 496.345 275.336 497.47 271.763C497.495 271.683 497.533 271.596 497.578 271.523L497.518 271.504C501.462 258.978 505.407 245.716 507 242C507.934 241.029 518.5 243.5 523.008 244.338C523.008 244.338 547.427 245.4 579.809 262.918C582.548 264.502 584.586 265.572 584.586 265.572C584.586 265.572 578.714 284.001 574.892 296.139Z" fill="#954979"/>
<path opacity="0.7" d="M566.374 276.78C571.562 278.414 577.322 274.801 579.239 268.711C581.157 262.621 578.506 256.36 573.318 254.726C568.13 253.093 562.371 256.706 560.453 262.796C558.536 268.886 561.187 275.147 566.374 276.78Z" fill="white"/>
<path opacity="0.7" d="M576.241 263.107C575.889 262.227 575.27 261.689 574.383 261.492C573.862 261.377 573.369 261.414 572.905 261.604C572.449 261.79 572.054 262.077 571.721 262.465L572.03 261.065L572.018 261.062L569.329 260.467L569.328 260.466L568.143 265.822C568.016 266.392 567.803 266.814 567.502 267.09C567.201 267.366 566.854 267.46 566.461 267.373C566.078 267.288 565.805 267.057 565.644 266.679C565.483 266.3 565.465 265.827 565.592 265.257L566.777 259.902L564.103 259.31L562.819 265.111C562.527 266.427 562.555 267.525 562.902 268.405C563.249 269.284 563.871 269.823 564.767 270.022C565.288 270.137 565.781 270.1 566.245 269.91C566.709 269.721 567.105 269.426 567.433 269.025L567.118 270.449H567.119L569.807 271.044L569.82 271.047L571.076 265.375C571.205 264.961 571.391 264.643 571.634 264.421C571.934 264.145 572.286 264.052 572.688 264.141C573.072 264.226 573.342 264.457 573.499 264.834C573.655 265.211 573.67 265.683 573.544 266.253L572.358 271.609L575.047 272.204L576.335 266.386C576.624 265.081 576.592 263.988 576.241 263.107Z" fill="#E12814"/>
<path opacity="0.7" d="M574.892 296.139C573.767 299.711 555.526 297.146 534.151 290.417C512.775 283.687 496.345 275.335 497.47 271.763C497.495 271.683 497.533 271.596 497.578 271.522L497.518 271.503L499.553 265.039L499.614 265.058C499.568 265.132 499.53 265.219 499.505 265.299C498.38 268.871 514.801 277.219 536.176 283.949C557.26 290.587 575.286 293.172 576.86 289.818C575.705 293.557 574.901 296.109 574.892 296.139Z" fill="#353535"/>
<path opacity="0.7" d="M515.413 261.918C520.601 263.551 526.361 259.938 528.278 253.848C530.196 247.758 527.544 241.497 522.357 239.864C517.169 238.23 511.409 241.843 509.492 247.933C507.575 254.023 510.226 260.284 515.413 261.918Z" fill="white"/>
<path opacity="0.7" d="M525.636 249.426C525.44 248.498 524.922 247.862 524.082 247.517C523.589 247.313 523.097 247.266 522.607 247.373C522.126 247.478 521.688 247.693 521.293 248.018L521.838 246.692L521.826 246.687L519.28 245.64L519.279 245.639L517.192 250.712C516.97 251.252 516.687 251.631 516.344 251.852C516 252.072 515.642 252.105 515.27 251.952C514.906 251.803 514.677 251.528 514.584 251.128C514.49 250.728 514.554 250.258 514.776 249.719L516.862 244.646L514.329 243.604L512.069 249.099C511.556 250.345 511.396 251.432 511.586 252.358C511.778 253.284 512.298 253.922 513.146 254.271C513.64 254.474 514.132 254.522 514.622 254.414C515.111 254.307 515.552 254.085 515.944 253.747L515.39 255.095H515.391L517.937 256.143L517.949 256.148L520.159 250.775C520.357 250.389 520.595 250.108 520.872 249.93C521.215 249.711 521.578 249.678 521.959 249.835C522.323 249.985 522.549 250.259 522.639 250.657C522.728 251.055 522.662 251.524 522.44 252.063L520.353 257.136L522.9 258.184L525.166 252.672C525.675 251.436 525.831 250.354 525.636 249.426Z" fill="#E12814"/>
<path opacity="0.7" fill-rule="evenodd" clip-rule="evenodd" d="M396.371 215.478C396.847 215.693 397.058 216.252 396.842 216.728C396.782 216.861 396.695 216.973 396.59 217.061L396.597 217.059L401.723 229.236L402.278 229.027L404.434 234.739C406.93 233.708 408.34 232.856 408.779 232.45C408.183 232.432 406.563 232.726 404.005 233.603L403.754 232.937C404.973 232.52 406.113 232.188 407.056 231.98C407.699 231.836 408.222 231.759 408.609 231.745C408.834 231.737 409.435 231.719 409.596 232.145C409.757 232.57 409.293 232.952 409.118 233.094C409.05 233.15 408.975 233.208 408.892 233.268L408.896 233.267L409.44 239.931L420.114 259.126C420.653 259.009 421.148 258.918 421.589 258.855L421.604 258.85C422.771 258.683 423.565 258.715 423.826 258.972C423.832 258.977 423.838 258.983 423.843 258.989C423.847 258.993 423.85 258.997 423.853 259.001L423.862 259.015C423.878 259.036 423.891 259.06 423.9 259.085C423.905 259.097 423.909 259.108 423.911 259.121L423.915 259.131L423.92 259.145L424.342 260.256C425.314 262.816 427.623 268.901 427.632 268.926C427.659 268.998 427.66 269.078 427.636 269.165C427.929 269.945 428.218 270.713 428.481 271.408L428.511 271.489C428.874 272.45 424.503 274.99 418.749 277.161C417.984 277.45 417.233 277.718 416.505 277.963C411.756 279.561 407.985 280.189 407.671 279.355C407.662 279.334 407.656 279.308 407.653 279.285L407.637 279.291C407.251 278.269 406.865 277.264 406.506 276.331V276.33C405.681 274.185 405 272.415 404.801 271.668C404.802 271.65 404.81 271.63 404.824 271.607L403.101 267.044L403.095 267.036C403.076 267.01 403.06 266.985 403.049 266.955C403.032 266.91 403.026 266.862 403.032 266.811C403.069 266.443 403.643 265.904 404.618 265.265C405.018 265.002 405.486 264.722 406.012 264.432L400.864 242.861L397.419 237.634L397.447 237.615C397.307 237.631 397.178 237.641 397.062 237.645C396.837 237.653 396.237 237.674 396.076 237.248C395.915 236.822 396.38 236.441 396.554 236.298C396.853 236.053 397.297 235.765 397.875 235.449C398.746 234.969 399.857 234.449 401.085 233.945L399.609 230.034L400.252 229.791L396.14 217.312L396.184 217.296L396.173 217.264C395.983 217.304 395.78 217.286 395.589 217.201C395.113 216.986 394.902 216.427 395.118 215.951C395.334 215.476 395.895 215.264 396.371 215.478ZM401.336 234.61L401.767 235.752C399.153 236.655 397.499 236.954 396.895 236.939C397.337 236.526 398.777 235.659 401.336 234.61ZM403.342 239.926L402.018 236.417C401.245 236.683 400.504 236.915 399.823 237.105L403.342 239.926ZM398.907 237.342C398.863 237.353 398.82 237.363 398.777 237.373L402.169 241.898L403.89 241.376L403.715 240.914L398.907 237.342ZM404.686 235.407L405.981 238.838L406.74 234.489C406.118 234.792 405.424 235.102 404.686 235.407ZM406.354 239.825L407.581 234.061C407.648 234.025 407.715 233.989 407.78 233.953L407.904 239.824L406.581 240.426L406.354 239.825ZM409.153 250.095L412.521 248.049L419.311 259.312C418.557 259.496 417.734 259.722 416.861 259.988L415.834 257.28L415.832 257.275V257.273C415.83 257.269 415.829 257.266 415.827 257.262C415.827 257.26 415.826 257.258 415.825 257.256C415.82 257.243 415.814 257.234 415.808 257.225L415.805 257.22C415.718 257.111 415.41 257.098 414.953 257.163L414.941 257.168C414.162 257.282 412.954 257.619 411.632 258.118L411.586 258.136L411.582 258.124L410.723 255.251C410.535 254.617 410.341 253.983 410.148 253.349L410.147 253.348C410.049 253.026 409.951 252.704 409.853 252.382L409.416 250.947L409.153 250.095ZM408.95 262.973C408.194 263.316 407.491 263.655 406.852 263.984L404.256 251.276L407.634 250.675L407.899 251.458L408.385 252.875C408.515 253.253 408.645 253.632 408.774 254.01C408.968 254.577 409.162 255.145 409.36 255.711L410.345 258.542L410.376 258.63C409.604 258.969 408.958 259.305 408.52 259.591L408.508 259.596C408.136 259.838 407.921 260.045 407.906 260.183L407.907 260.189C407.905 260.208 407.907 260.227 407.913 260.242C407.917 260.253 407.923 260.262 407.93 260.272L408.95 262.973Z" fill="#3F63D4" fill-opacity="0.18"/>
<path opacity="0.7" fill-rule="evenodd" clip-rule="evenodd" d="M932.84 191.104C933.073 191.572 932.883 192.139 932.414 192.37C932.284 192.435 932.145 192.467 932.008 192.469L932.015 192.471L928.275 205.143L928.837 205.332L926.89 211.119C929.476 211.901 931.106 212.134 931.703 212.097C931.253 211.706 929.812 210.909 927.278 209.968L927.504 209.294C928.712 209.743 929.805 210.207 930.666 210.643C931.255 210.938 931.71 211.21 932.018 211.444C932.197 211.58 932.674 211.947 932.529 212.378C932.384 212.809 931.783 212.811 931.558 212.811C931.47 212.811 931.375 212.808 931.273 212.802L931.277 212.805L927.479 218.307L923.592 239.924C924.083 240.174 924.524 240.417 924.905 240.648L924.92 240.653C925.929 241.262 926.524 241.79 926.564 242.154C926.565 242.162 926.565 242.17 926.566 242.178C926.566 242.184 926.566 242.189 926.566 242.194L926.564 242.21C926.563 242.236 926.558 242.264 926.55 242.289C926.545 242.301 926.541 242.313 926.535 242.324L926.531 242.334L926.527 242.348L926.15 243.475C925.282 246.072 923.218 252.244 923.209 252.27C923.185 252.342 923.135 252.404 923.061 252.457C922.794 253.246 922.531 254.024 922.294 254.728L922.267 254.81C921.939 255.784 916.948 254.983 911.119 253.022C910.344 252.761 909.593 252.493 908.874 252.222C904.187 250.453 900.87 248.552 901.154 247.708C901.161 247.686 901.172 247.662 901.185 247.642L901.169 247.637C901.517 246.601 901.854 245.579 902.167 244.629V244.628C902.886 242.445 903.48 240.644 903.798 239.94C903.811 239.927 903.83 239.917 903.854 239.908L905.41 235.284V235.275C905.412 235.242 905.415 235.213 905.425 235.183C905.441 235.136 905.467 235.096 905.503 235.06C905.765 234.799 906.551 234.744 907.71 234.867C908.186 234.917 908.725 234.997 909.317 235.105L918.986 215.147L919.627 208.92L919.661 208.923C919.542 208.846 919.437 208.773 919.344 208.703C919.165 208.566 918.687 208.202 918.832 207.771C918.977 207.34 919.578 207.338 919.803 207.338C920.19 207.338 920.716 207.396 921.364 207.517C922.341 207.697 923.531 207.997 924.8 208.384L926.133 204.423L926.785 204.642L931.501 192.378L931.545 192.393L931.557 192.362C931.385 192.272 931.238 192.13 931.145 191.943C930.912 191.476 931.103 190.909 931.571 190.677C932.039 190.446 932.607 190.637 932.84 191.104ZM924.574 209.058L924.184 210.215C921.589 209.26 920.119 208.444 919.661 208.05C920.265 208.01 921.929 208.251 924.574 209.058ZM922.762 214.444L923.958 210.889C923.192 210.605 922.471 210.316 921.823 210.032L922.762 214.444ZM920.963 209.636C920.923 209.616 920.883 209.597 920.844 209.577L920.605 215.227L922.268 215.912L922.425 215.445L920.963 209.636ZM926.663 211.796H926.662L925.493 215.272L928.834 212.386C928.16 212.226 927.427 212.027 926.663 211.796ZM925.157 216.271L929.755 212.586C929.831 212.601 929.905 212.615 929.978 212.629L926.358 217.252L924.952 216.881L925.157 216.271ZM920.824 225.994L924.726 226.543L922.853 239.559C922.153 239.224 921.372 238.879 920.528 238.532L921.448 235.786L921.449 235.78L921.45 235.778C921.451 235.775 921.452 235.771 921.453 235.768C921.454 235.765 921.455 235.763 921.456 235.761C921.46 235.748 921.461 235.737 921.462 235.726L921.463 235.721C921.464 235.581 921.234 235.376 920.84 235.137L920.827 235.133C920.152 234.729 919.003 234.225 917.664 233.775L917.617 233.759L917.621 233.748L918.775 230.98C919.031 230.369 919.282 229.756 919.534 229.143V229.142C919.662 228.83 919.789 228.519 919.917 228.208L920.488 226.821L920.824 225.994ZM912.514 235.835C911.713 235.622 910.953 235.44 910.25 235.29L916.285 223.809L919.281 225.482L918.99 226.256L918.469 227.66C918.33 228.035 918.191 228.41 918.052 228.785C917.843 229.347 917.634 229.909 917.428 230.472L916.399 233.288L916.368 233.375C915.555 233.149 914.843 233 914.322 232.945L914.31 232.941C913.869 232.893 913.572 232.917 913.472 233.014L913.469 233.02C913.456 233.033 913.445 233.049 913.44 233.064C913.437 233.075 913.436 233.087 913.435 233.098L912.514 235.835Z" fill="#3F63D4" fill-opacity="0.18"/>
<path opacity="0.7" fill-rule="evenodd" clip-rule="evenodd" d="M1246.62 195.432C1247 195.671 1247.11 196.17 1246.87 196.546C1246.8 196.652 1246.72 196.737 1246.62 196.799V196.797L1249.48 207.728L1249.98 207.618L1251.11 212.715C1253.35 212.145 1254.65 211.595 1255.07 211.304C1254.57 211.217 1253.16 211.27 1250.89 211.701L1250.75 211.107C1251.84 210.902 1252.84 210.76 1253.67 210.698C1254.23 210.654 1254.68 210.652 1255.01 210.687C1255.2 210.707 1255.71 210.765 1255.8 211.145C1255.88 211.525 1255.44 211.791 1255.28 211.891C1255.21 211.93 1255.14 211.97 1255.06 212.01L1255.07 212.011L1254.72 217.718L1261.43 235.263C1261.9 235.229 1262.33 235.212 1262.71 235.213L1262.72 235.21C1263.67 235.211 1264.32 235.319 1264.55 235.539C1264.57 235.562 1264.59 235.586 1264.61 235.611V235.624C1264.62 235.643 1264.63 235.666 1264.64 235.687C1264.64 235.699 1264.64 235.709 1264.64 235.72V235.729L1264.65 235.741L1265.09 237.702C1265.66 240.271 1266.6 244.452 1266.6 244.472C1266.62 244.535 1266.61 244.603 1266.58 244.674C1266.74 245.396 1266.89 246.108 1267.04 246.747C1267.04 246.753 1267.04 246.76 1267.04 246.766C1267.04 246.777 1267.04 246.789 1267.04 246.8C1267.07 247.67 1263.12 249.248 1258.08 250.366C1252.95 251.506 1248.63 251.737 1248.44 250.879C1248.44 250.869 1248.44 250.859 1248.43 250.849C1248.43 250.838 1248.43 250.827 1248.43 250.817L1248.42 250.82L1248.38 250.669C1248.19 249.809 1248 248.966 1247.82 248.178V248.177V248.176C1247.38 246.26 1247.02 244.679 1246.94 244.022C1246.95 244.008 1246.95 243.992 1246.97 243.974L1246.06 239.902V239.895C1246.05 239.87 1246.04 239.847 1246.03 239.821C1246.02 239.78 1246.02 239.739 1246.03 239.696C1246.11 239.389 1246.66 239.002 1247.56 238.58C1247.93 238.406 1248.36 238.226 1248.85 238.044L1247.1 219.158L1244.82 214.316L1244.85 214.302C1244.73 214.298 1244.62 214.291 1244.52 214.281C1244.33 214.26 1243.82 214.205 1243.73 213.825C1243.65 213.445 1244.09 213.179 1244.25 213.079C1244.54 212.908 1244.95 212.718 1245.47 212.52C1246.27 212.22 1247.27 211.914 1248.37 211.637L1247.6 208.147L1248.17 208.019L1246.21 196.956L1246.24 196.948V196.919C1246.07 196.93 1245.9 196.89 1245.75 196.795C1245.38 196.556 1245.26 196.056 1245.5 195.68C1245.75 195.303 1246.25 195.192 1246.62 195.432ZM1248.5 212.23L1248.73 213.249C1246.41 213.697 1244.97 213.749 1244.46 213.663C1244.89 213.367 1246.21 212.808 1248.5 212.23ZM1249.56 216.974L1248.86 213.843C1248.18 213.974 1247.52 214.08 1246.92 214.158L1249.56 216.974ZM1246.12 214.248C1246.08 214.252 1246.04 214.255 1246 214.258L1248.33 218.501L1249.85 218.268L1249.75 217.855L1246.12 214.248ZM1251.24 213.311V213.312L1251.92 216.374L1253.09 212.784C1252.53 212.964 1251.91 213.143 1251.24 213.311ZM1252.12 217.254L1253.86 212.523C1253.92 212.501 1253.98 212.478 1254.04 212.456L1253.43 217.44L1252.24 217.79L1252.12 217.254ZM1253.24 226.287L1256.34 224.964L1260.73 235.323C1260.06 235.387 1259.34 235.479 1258.57 235.598L1258.03 233.181V233.176C1258.03 233.169 1258.02 233.163 1258.02 233.156C1258.02 233.152 1258.02 233.149 1258.02 233.146C1258.02 233.143 1258.02 233.141 1258.02 233.138L1258.01 233.131V233.128V233.126C1257.95 233.024 1257.69 232.975 1257.3 232.975L1257.29 232.977C1256.61 232.979 1255.55 233.119 1254.37 233.38L1254.33 233.39V233.38L1253.95 230.843C1253.86 230.283 1253.78 229.722 1253.69 229.162C1253.65 228.878 1253.6 228.593 1253.56 228.309L1253.36 227.041L1253.24 226.287ZM1251.51 237.165C1250.83 237.363 1250.19 237.566 1249.61 237.767L1248.96 226.693L1251.89 226.594L1252.02 227.29L1252.26 228.548C1252.32 228.884 1252.38 229.22 1252.45 229.556C1252.54 230.06 1252.64 230.563 1252.74 231.067L1253.23 233.583L1253.24 233.661C1252.55 233.855 1251.96 234.06 1251.56 234.25L1251.54 234.252C1251.2 234.412 1250.99 234.561 1250.96 234.677V234.682C1250.96 234.698 1250.96 234.714 1250.96 234.727C1250.96 234.737 1250.97 234.745 1250.97 234.754L1251.51 237.165Z" fill="#3F63D4" fill-opacity="0.18"/>
<g opacity="0.2">
<path opacity="0.2" d="M460.335 537.374C460.335 537.374 453.618 542.585 453.406 545.754C449.425 545.845 433.134 550.68 431.943 559.842C438.879 564.589 452.451 553.175 455.027 549.678C457.18 551.208 464.421 548.778 464.421 548.778C464.421 548.778 460.971 546.183 458.437 545.405C460.351 541.91 460.335 537.374 460.335 537.374Z" fill="#407BFF"/>
<path opacity="0.2" d="M416.72 561.706C416.72 561.706 407.083 566.155 405.39 569.906C401.045 568.916 381.225 570.271 375.782 581.014C381.114 588.663 400.986 578.603 405.359 575.108C406.992 577.544 415.935 576.601 415.935 576.601C415.935 576.601 413.39 572.501 411.029 570.902C414.666 567.191 416.72 561.706 416.72 561.706Z" fill="#407BFF"/>
<path opacity="0.6" d="M416.72 561.706C416.72 561.706 407.083 566.155 405.39 569.906C401.045 568.916 381.225 570.271 375.782 581.014C381.114 588.663 400.986 578.603 405.359 575.108C406.992 577.544 415.935 576.601 415.935 576.601C415.935 576.601 413.39 572.501 411.029 570.902C414.666 567.191 416.72 561.706 416.72 561.706Z" fill="white"/>
<path opacity="0.2" d="M385.601 554.635C385.601 554.635 374.743 554.657 371.673 557.41C367.959 554.706 348.676 547.72 339.263 555.263C341.271 564.45 364.079 563.499 369.582 562.142C370.16 565.041 378.986 567.887 378.986 567.887C378.986 567.887 378.206 563.099 376.597 560.637C379.888 559.242 382.955 557.197 385.601 554.635Z" fill="#407BFF"/>
<path opacity="0.2" d="M417.151 509.933C417.151 509.933 413.164 513.028 413.038 514.903C410.668 514.958 401 517.833 400.297 523.272C404.41 526.088 412.468 519.31 414 517.239C415.277 518.148 419.577 516.704 419.577 516.704C418.501 515.883 417.313 515.211 416.037 514.702C416.753 513.166 417.134 511.534 417.151 509.933Z" fill="#407BFF"/>
<path opacity="0.2" d="M404.333 505.982C404.333 505.982 399.27 508.29 398.632 510.056C396.14 509.757 385.201 511.043 382.958 516.058C386.491 519.309 396.826 514.113 399.001 512.396C400.083 513.421 404.997 512.7 404.997 512.7C404.071 511.751 403.009 510.946 401.838 510.306C402.978 509.043 403.835 507.559 404.333 505.982Z" fill="#407BFF"/>
<path opacity="0.6" d="M404.333 505.982C404.333 505.982 399.27 508.29 398.632 510.056C396.14 509.757 385.201 511.043 382.958 516.058C386.491 519.309 396.826 514.113 399.001 512.396C400.083 513.421 404.997 512.7 404.997 512.7C404.071 511.751 403.009 510.946 401.838 510.306C402.978 509.043 403.835 507.559 404.333 505.982Z" fill="white"/>
<path opacity="0.2" d="M353.58 532.983C353.58 532.983 347.311 532.098 345.324 533.483C343.399 531.541 332.883 525.71 326.85 529.439C327.28 535.043 340.457 536.477 343.748 536.118C343.838 537.908 348.692 540.364 348.692 540.364C348.664 538.781 348.401 537.246 347.914 535.809C349.918 535.253 351.848 534.29 353.58 532.983Z" fill="#407BFF"/>
<path opacity="0.6" d="M353.58 532.983C353.58 532.983 347.311 532.098 345.324 533.483C343.399 531.541 332.883 525.71 326.85 529.439C327.28 535.043 340.457 536.477 343.748 536.118C343.838 537.908 348.692 540.364 348.692 540.364C348.664 538.781 348.401 537.246 347.914 535.809C349.918 535.253 351.848 534.29 353.58 532.983Z" fill="white"/>
<path opacity="0.2" d="M405.774 586.612C405.774 586.612 401.604 589.857 401.482 591.806C399.011 591.863 388.921 594.862 388.187 600.539C392.483 603.473 400.886 596.399 402.493 594.243C403.82 595.186 408.337 593.656 408.337 593.656C407.21 592.802 405.967 592.101 404.635 591.567C405.37 589.969 405.759 588.275 405.774 586.612Z" fill="#407BFF"/>
<path opacity="0.3" d="M405.774 586.612C405.774 586.612 401.604 589.857 401.482 591.806C399.011 591.863 388.921 594.862 388.187 600.539C392.483 603.473 400.886 596.399 402.493 594.243C403.82 595.186 408.337 593.656 408.337 593.656C407.21 592.802 405.967 592.101 404.635 591.567C405.37 589.969 405.759 588.275 405.774 586.612Z" fill="white"/>
<path opacity="0.2" d="M377.289 591.913C377.289 591.913 372.025 594.345 371.341 596.173C368.741 595.86 357.326 597.198 354.966 602.456C358.655 605.846 369.429 600.427 371.707 598.628C372.84 599.71 377.964 598.955 377.964 598.955C376.998 597.964 375.891 597.123 374.67 596.453C375.867 595.127 376.766 593.569 377.289 591.913Z" fill="#407BFF"/>
<path opacity="0.2" d="M378.169 609.587C378.169 609.587 372.083 611.922 370.893 614.193C368.285 613.373 356.112 613.3 352.299 619.759C355.205 624.797 367.82 619.454 370.616 617.444C371.507 619.043 377.01 618.871 377.01 618.871C376.292 617.453 375.367 616.172 374.262 615.066C375.886 613.48 377.216 611.614 378.169 609.587Z" fill="#407BFF"/>
<path opacity="0.6" d="M378.169 609.587C378.169 609.587 372.083 611.922 370.893 614.193C368.285 613.373 356.112 613.3 352.299 619.759C355.205 624.797 367.82 619.454 370.616 617.444C371.507 619.043 377.01 618.871 377.01 618.871C376.292 617.453 375.367 616.172 374.262 615.066C375.886 613.48 377.216 611.614 378.169 609.587Z" fill="white"/>
<path opacity="0.2" d="M346.957 594.333C346.957 594.333 344.288 595.899 344.045 597.065C342.624 596.887 336.565 597.793 335.631 601.165C337.851 603.313 343.287 599.804 344.388 598.65C345.071 599.341 347.776 598.831 347.776 598.831C347.204 598.217 346.552 597.685 345.834 597.246C346.414 596.343 346.798 595.346 346.957 594.333Z" fill="#407BFF"/>
<path opacity="0.2" d="M434.394 529.828C434.394 529.828 425.898 533.74 424.802 536.7C420.6 536.199 402.173 538.357 398.395 546.8C404.345 552.281 421.75 543.526 425.423 540.625C427.255 542.379 435.53 541.153 435.53 541.153C435.53 541.153 432.636 538.194 430.209 537.105C432.123 534.979 433.56 532.48 434.394 529.828Z" fill="#407BFF"/>
<path opacity="0.3" d="M434.394 529.828C434.394 529.828 425.898 533.74 424.802 536.7C420.6 536.199 402.173 538.357 398.395 546.8C404.345 552.281 421.75 543.526 425.423 540.625C427.255 542.379 435.53 541.153 435.53 541.153C435.53 541.153 432.636 538.194 430.209 537.105C432.123 534.979 433.56 532.48 434.394 529.828Z" fill="black"/>
<path opacity="0.2" d="M388.563 530.76C388.563 530.76 382.728 532.994 381.606 535.187C379.106 534.405 367.441 534.333 363.791 540.52C366.583 545.339 378.651 540.205 381.367 538.297C382.214 539.833 387.49 539.668 387.49 539.668C386.803 538.309 385.917 537.083 384.858 536.025C386.403 534.498 387.665 532.705 388.563 530.76Z" fill="#407BFF"/>
<path opacity="0.3" d="M388.563 530.76C388.563 530.76 382.728 532.994 381.606 535.187C379.106 534.405 367.441 534.333 363.791 540.52C366.583 545.339 378.651 540.205 381.367 538.297C382.214 539.833 387.49 539.668 387.49 539.668C386.803 538.309 385.917 537.083 384.858 536.025C386.403 534.498 387.665 532.705 388.563 530.76Z" fill="black"/>
<path opacity="0.2" d="M349.612 610.873C349.612 610.873 342.805 611.866 341.136 613.756C338.577 612.457 325.913 609.946 320.651 615.296C322.709 620.622 336.882 618.09 340.225 616.777C340.826 618.477 346.602 619.409 346.602 619.409C346.134 617.885 345.433 616.475 344.522 615.226C346.449 614.11 348.183 612.628 349.612 610.873Z" fill="#407BFF"/>
<path opacity="0.3" d="M349.612 610.873C349.612 610.873 342.805 611.866 341.136 613.756C338.577 612.457 325.913 609.946 320.651 615.296C322.709 620.622 336.882 618.09 340.225 616.777C340.826 618.477 346.602 619.409 346.602 619.409C346.134 617.885 345.433 616.475 344.522 615.226C346.449 614.11 348.183 612.628 349.612 610.873Z" fill="black"/>
<path opacity="0.2" d="M354.248 574.654C354.248 574.654 350.585 575.587 349.913 576.73C348.296 576.167 340.87 575.526 338.695 578.742C340.592 581.531 348.162 579.337 349.83 578.422C350.418 579.308 353.767 579.489 353.767 579.489C353.282 578.69 352.69 577.973 352.004 577.355C352.931 576.622 353.701 575.695 354.248 574.654Z" fill="#407BFF"/>
<path opacity="0.3" d="M354.248 574.654C354.248 574.654 350.585 575.587 349.913 576.73C348.296 576.167 340.87 575.526 338.695 578.742C340.592 581.531 348.162 579.337 349.83 578.422C350.418 579.308 353.767 579.489 353.767 579.489C353.282 578.69 352.69 577.973 352.004 577.355C352.931 576.622 353.701 575.695 354.248 574.654Z" fill="black"/>
<path opacity="0.2" d="M316.207 546.312C316.207 546.312 313.139 545.639 312.188 546.334C311.203 545.198 305.962 541.676 303.112 543.556C303.431 546.711 309.875 547.858 311.471 547.75C311.571 548.758 313.973 550.243 313.973 550.243C313.92 549.364 313.758 548.513 313.49 547.707C314.462 547.461 315.395 546.982 316.207 546.312Z" fill="#407BFF"/>
<path opacity="0.3" d="M316.207 546.312C316.207 546.312 313.139 545.639 312.188 546.334C311.203 545.198 305.962 541.676 303.112 543.556C303.431 546.711 309.875 547.858 311.471 547.75C311.571 548.758 313.973 550.243 313.973 550.243C313.92 549.364 313.758 548.513 313.49 547.707C314.462 547.461 315.395 546.982 316.207 546.312Z" fill="black"/>
<path opacity="0.2" d="M328.846 588.441C328.846 588.441 325.156 589.303 324.279 590.564C322.845 589.841 315.863 588.725 313.146 592.235C314.39 595.508 322.094 593.411 323.875 592.469C324.251 593.503 327.426 593.889 327.426 593.889C327.135 592.974 326.713 592.125 326.174 591.363C327.227 590.558 328.137 589.563 328.846 588.441Z" fill="#407BFF"/>
<path opacity="0.6" d="M328.846 588.441C328.846 588.441 325.156 589.303 324.279 590.564C322.845 589.841 315.863 588.725 313.146 592.235C314.39 595.508 322.094 593.411 323.875 592.469C324.251 593.503 327.426 593.889 327.426 593.889C327.135 592.974 326.713 592.125 326.174 591.363C327.227 590.558 328.137 589.563 328.846 588.441Z" fill="white"/>
<path opacity="0.2" d="M326.93 567.785C326.93 567.785 321.963 567.75 320.588 569.008C318.91 567.764 310.171 564.52 305.884 567.928C306.76 572.105 317.105 571.763 319.597 571.179C319.815 572.535 323.854 573.822 323.854 573.822C323.667 572.657 323.307 571.552 322.786 570.542C324.302 569.906 325.714 568.966 326.93 567.785Z" fill="#407BFF"/>
</g>
<g opacity="0.2">
<path opacity="0.2" d="M1186.72 433C1186.72 433 1187.97 439.846 1186.37 441.897C1188.75 444.124 1196.06 455.965 1191.79 462.208C1184.96 461.321 1182.91 446.948 1183.24 443.408C1181.09 443.166 1178 437.732 1178 437.732C1178 437.732 1181.52 438.03 1183.49 438.938C1184.23 435.76 1186.72 433 1186.72 433Z" fill="#407BFF"/>
<path opacity="0.2" d="M1200.06 471.651C1200.06 471.651 1203.52 479.625 1202.51 482.839C1205.7 484.605 1217.06 496.247 1214.52 505.775C1207.09 507.534 1200.45 490.55 1199.69 486.031C1197.36 486.627 1192.42 481.172 1192.42 481.172C1192.42 481.172 1196.21 480.058 1198.52 480.37C1198.33 476.12 1200.06 471.651 1200.06 471.651Z" fill="#407BFF"/>
<path opacity="0.6" d="M1200.06 471.651C1200.06 471.651 1203.52 479.625 1202.51 482.839C1205.7 484.605 1217.06 496.247 1214.52 505.775C1207.09 507.534 1200.45 490.55 1199.69 486.031C1197.36 486.627 1192.42 481.172 1192.42 481.172C1192.42 481.172 1196.21 480.058 1198.52 480.37C1198.33 476.12 1200.06 471.651 1200.06 471.651Z" fill="white"/>
<path opacity="0.2" d="M1222.92 484.314C1222.92 484.314 1229.53 490.252 1229.91 493.608C1233.65 493.984 1249.23 500.241 1250.86 509.981C1244.62 514.493 1231.22 501.468 1228.6 497.637C1226.67 499.092 1219.73 496.013 1219.73 496.013C1219.73 496.013 1222.81 493.516 1225.14 492.891C1223.89 490.244 1223.14 487.322 1222.92 484.314Z" fill="#407BFF"/>
<path opacity="0.2" d="M1228.05 439.812C1228.05 439.812 1228.8 443.877 1227.85 445.09C1229.27 446.417 1233.6 453.447 1231.06 457.15C1227.01 456.625 1225.79 448.091 1225.99 445.991C1224.71 445.849 1222.87 442.621 1222.87 442.621C1223.98 442.707 1225.07 442.945 1226.13 443.331C1226.53 442.003 1227.19 440.799 1228.05 439.812Z" fill="#407BFF"/>
<path opacity="0.2" d="M1238.03 444.394C1238.03 444.394 1239.86 448.566 1239.29 449.992C1240.97 451.17 1246.95 457.923 1245.58 462.208C1241.65 462.265 1238.18 453.454 1237.79 451.219C1236.57 451.255 1233.96 448.133 1233.96 448.133C1235.04 448.059 1236.13 448.147 1237.19 448.396C1237.19 447.002 1237.47 445.629 1238.03 444.394Z" fill="#407BFF"/>
<path opacity="0.6" d="M1238.03 444.394C1238.03 444.394 1239.86 448.566 1239.29 449.992C1240.97 451.17 1246.95 457.923 1245.58 462.208C1241.65 462.265 1238.18 453.454 1237.79 451.219C1236.57 451.255 1233.96 448.133 1233.96 448.133C1235.04 448.059 1236.13 448.147 1237.19 448.396C1237.19 447.002 1237.47 445.629 1238.03 444.394Z" fill="white"/>
<path opacity="0.2" d="M1254.28 488.569C1254.28 488.569 1258.59 491.45 1259.05 493.379C1261.28 493.244 1270.88 495.422 1272.53 500.991C1269.21 504.177 1260.38 497.863 1258.57 495.848C1257.54 496.891 1253.24 495.742 1253.24 495.742C1254.12 494.791 1255.11 493.997 1256.2 493.386C1255.28 491.953 1254.62 490.312 1254.28 488.569Z" fill="#407BFF"/>
<path opacity="0.6" d="M1254.28 488.569C1254.28 488.569 1258.59 491.45 1259.05 493.379C1261.28 493.244 1270.88 495.422 1272.53 500.991C1269.21 504.177 1260.38 497.863 1258.57 495.848C1257.54 496.891 1253.24 495.742 1253.24 495.742C1254.12 494.791 1255.11 493.997 1256.2 493.386C1255.28 491.953 1254.62 490.312 1254.28 488.569Z" fill="white"/>
<path opacity="0.2" d="M1193.16 492.827C1193.16 492.827 1193.93 497.084 1192.94 498.34C1194.42 499.723 1198.94 507.058 1196.29 510.925C1192.07 510.371 1190.8 501.468 1191 499.276C1189.67 499.127 1187.75 495.729 1187.75 495.729C1188.9 495.822 1190.04 496.072 1191.15 496.474C1191.57 495.097 1192.26 493.851 1193.16 492.827Z" fill="#407BFF"/>
<path opacity="0.3" d="M1193.16 492.827C1193.16 492.827 1193.93 497.084 1192.94 498.34C1194.42 499.723 1198.94 507.058 1196.29 510.925C1192.07 510.371 1190.8 501.468 1191 499.276C1189.67 499.127 1187.75 495.729 1187.75 495.729C1188.9 495.822 1190.04 496.072 1191.15 496.474C1191.57 495.097 1192.26 493.851 1193.16 492.827Z" fill="white"/>
<path opacity="0.2" d="M1207.65 511.606C1207.65 511.606 1209.54 515.962 1208.96 517.452C1210.72 518.679 1216.95 525.724 1215.53 530.221C1211.42 530.278 1207.8 521.091 1207.4 518.75C1206.11 518.793 1203.4 515.536 1203.4 515.536C1204.53 515.458 1205.66 515.549 1206.77 515.806C1206.77 514.343 1207.07 512.901 1207.65 511.606Z" fill="#407BFF"/>
<path opacity="0.2" d="M1197.47 521.914C1197.47 521.914 1199.91 526.66 1199.4 528.696C1201.44 529.618 1208.91 536.216 1207.71 542.239C1203.19 543.728 1198.4 533.584 1197.79 530.831C1196.38 531.321 1193.11 528.213 1193.11 528.213C1194.33 527.739 1195.59 527.463 1196.87 527.39C1196.74 525.536 1196.95 523.671 1197.47 521.914Z" fill="#407BFF"/>
<path opacity="0.6" d="M1197.47 521.914C1197.47 521.914 1199.91 526.66 1199.4 528.696C1201.44 529.618 1208.91 536.216 1207.71 542.239C1203.19 543.728 1198.4 533.584 1197.79 530.831C1196.38 531.321 1193.11 528.213 1193.11 528.213C1194.33 527.739 1195.59 527.463 1196.87 527.39C1196.74 525.536 1196.95 523.671 1197.47 521.914Z" fill="white"/>
<path opacity="0.2" d="M1224.85 529.633C1224.85 529.633 1225.62 532.045 1225.13 532.889C1226.1 533.556 1229.3 537.415 1228.03 539.983C1225.51 540.083 1224.1 534.975 1224.06 533.67C1223.27 533.719 1221.89 531.931 1221.89 531.931C1222.58 531.869 1223.27 531.9 1223.94 532.024C1224.08 531.156 1224.39 530.338 1224.85 529.633Z" fill="#407BFF"/>
<path opacity="0.2" d="M1206.67 442.549C1206.67 442.549 1209.72 449.572 1208.77 451.977C1211.61 453.964 1221.68 465.336 1219.38 472.551C1212.76 472.65 1206.91 457.809 1206.25 454.035C1204.18 454.106 1199.8 448.842 1199.8 448.842C1199.8 448.842 1203.18 448.615 1205.25 449.274C1205.24 446.932 1205.73 444.622 1206.67 442.549Z" fill="#407BFF"/>
<path opacity="0.3" d="M1206.67 442.549C1206.67 442.549 1209.72 449.572 1208.77 451.977C1211.61 453.964 1221.68 465.336 1219.38 472.551C1212.76 472.65 1206.91 457.809 1206.25 454.035C1204.18 454.106 1199.8 448.842 1199.8 448.842C1199.8 448.842 1203.18 448.615 1205.25 449.274C1205.24 446.932 1205.73 444.622 1206.67 442.549Z" fill="black"/>
<path opacity="0.2" d="M1234.14 468.124C1234.14 468.124 1236.48 472.672 1235.97 474.623C1237.92 475.509 1245.08 481.83 1243.93 487.598C1239.6 489.017 1235.03 479.298 1234.42 476.652C1233.06 477.127 1229.93 474.147 1229.93 474.147C1231.09 473.693 1232.3 473.428 1233.53 473.36C1233.42 471.584 1233.62 469.802 1234.14 468.124Z" fill="#407BFF"/>
<path opacity="0.3" d="M1234.14 468.124C1234.14 468.124 1236.48 472.672 1235.97 474.623C1237.92 475.509 1245.08 481.83 1243.93 487.598C1239.6 489.017 1235.03 479.298 1234.42 476.652C1233.06 477.127 1229.93 474.147 1229.93 474.147C1231.09 473.693 1232.3 473.428 1233.53 473.36C1233.42 471.584 1233.62 469.802 1234.14 468.124Z" fill="black"/>
<path opacity="0.2" d="M1214.2 538.281C1214.2 538.281 1217.81 542.601 1217.8 544.666C1220.07 545.269 1229.17 550.646 1229.47 556.783C1225.3 558.911 1218.03 549.632 1216.71 547.007C1215.42 547.716 1211.38 545.134 1211.38 545.134C1212.5 544.459 1213.7 543.981 1214.93 543.715C1214.37 541.983 1214.12 540.132 1214.2 538.281Z" fill="#407BFF"/>
<path opacity="0.3" d="M1214.2 538.281C1214.2 538.281 1217.81 542.601 1217.8 544.666C1220.07 545.269 1229.17 550.646 1229.47 556.783C1225.3 558.911 1218.03 549.632 1216.71 547.007C1215.42 547.716 1211.38 545.134 1211.38 545.134C1212.5 544.459 1213.7 543.981 1214.93 543.715C1214.37 541.983 1214.12 540.132 1214.2 538.281Z" fill="black"/>
<path opacity="0.2" d="M1231.13 513.642C1231.13 513.642 1232.86 516.21 1232.65 517.274C1233.94 517.814 1238.82 521.474 1238.4 524.624C1235.72 525.291 1232.29 519.821 1231.77 518.353C1230.93 518.573 1228.79 516.856 1228.79 516.856C1229.52 516.633 1230.27 516.518 1231.03 516.515C1230.86 515.562 1230.9 514.576 1231.13 513.642Z" fill="#407BFF"/>
<path opacity="0.3" d="M1231.13 513.642C1231.13 513.642 1232.86 516.21 1232.65 517.274C1233.94 517.814 1238.82 521.474 1238.4 524.624C1235.72 525.291 1232.29 519.821 1231.77 518.353C1230.93 518.573 1228.79 516.856 1228.79 516.856C1229.52 516.633 1230.27 516.518 1231.03 516.515C1230.86 515.562 1230.9 514.576 1231.13 513.642Z" fill="black"/>
<path opacity="0.2" d="M1269.82 517.098C1269.82 517.098 1272.06 518.361 1272.26 519.304C1273.48 519.148 1278.6 519.858 1279.32 522.561C1277.4 524.313 1272.84 521.496 1271.93 520.56C1271.32 521.12 1269.04 520.716 1269.04 520.716C1269.55 520.209 1270.11 519.777 1270.72 519.432C1270.26 518.751 1269.95 517.95 1269.82 517.098Z" fill="#407BFF"/>
<path opacity="0.3" d="M1269.82 517.098C1269.82 517.098 1272.06 518.361 1272.26 519.304C1273.48 519.148 1278.6 519.858 1279.32 522.561C1277.4 524.313 1272.84 521.496 1271.93 520.56C1271.32 521.12 1269.04 520.716 1269.04 520.716C1269.55 520.209 1270.11 519.777 1270.72 519.432C1270.26 518.751 1269.95 517.95 1269.82 517.098Z" fill="black"/>
<path opacity="0.2" d="M1239.12 535.918C1239.12 535.918 1240.9 538.457 1240.75 539.706C1242.02 540.047 1246.89 543.175 1246.63 546.8C1244.09 548.12 1240.53 542.636 1239.95 541.089C1239.16 541.515 1237.01 540.018 1237.01 540.018C1237.69 539.619 1238.41 539.33 1239.15 539.16C1238.95 538.093 1238.94 536.99 1239.12 535.918Z" fill="#407BFF"/>
<path opacity="0.6" d="M1239.12 535.918C1239.12 535.918 1240.9 538.457 1240.75 539.706C1242.02 540.047 1246.89 543.175 1246.63 546.8C1244.09 548.12 1240.53 542.636 1239.95 541.089C1239.16 541.515 1237.01 540.018 1237.01 540.018C1237.69 539.619 1238.41 539.33 1239.15 539.16C1238.95 538.093 1238.94 536.99 1239.12 535.918Z" fill="white"/>
<path opacity="0.2" d="M1251.56 524.355C1251.56 524.355 1254.61 527.044 1254.76 528.562C1256.46 528.718 1263.57 531.506 1264.33 535.926C1261.51 537.997 1255.38 532.144 1254.18 530.428C1253.31 531.137 1250.14 529.718 1250.14 529.718C1250.89 529.11 1251.71 528.632 1252.58 528.299C1252 527.084 1251.65 525.739 1251.56 524.355Z" fill="#407BFF"/>
</g>
<path d="M580 473.987V442.126L652.653 337.772H696.567V439.817H715.42V473.987H696.567V504H657.251V473.987H580ZM660.01 381.176L621.385 439.817H660.01V381.176Z" fill="url(#paint3_linear)"/>
<path d="M734.677 417.423C734.677 390.949 739.735 370.094 749.851 354.856C760.121 339.619 776.598 332 799.283 332C821.968 332 838.369 339.619 848.485 354.856C858.754 370.094 863.889 390.949 863.889 417.423C863.889 444.204 858.754 465.213 848.485 480.451C838.369 495.689 821.968 503.307 799.283 503.307C776.598 503.307 760.121 495.689 749.851 480.451C739.735 465.213 734.677 444.204 734.677 417.423ZM825.263 417.423C825.263 401.877 823.577 389.949 820.205 381.638C816.833 373.172 809.859 368.94 799.283 368.94C788.707 368.94 781.733 373.172 778.361 381.638C774.989 389.949 773.303 401.877 773.303 417.423C773.303 427.889 773.916 436.585 775.142 443.511C776.368 450.284 778.821 455.825 782.499 460.134C786.331 464.29 791.926 466.368 799.283 466.368C806.64 466.368 812.158 464.29 815.837 460.134C819.669 455.825 822.198 450.284 823.424 443.511C824.65 436.585 825.263 427.889 825.263 417.423Z" fill="url(#paint4_linear)"/>
<path d="M885.58 473.987V442.126L958.233 337.772H1002.15V439.817H1021V473.987H1002.15V504H962.832V473.987H885.58ZM965.591 381.176L926.965 439.817H965.591V381.176Z" fill="url(#paint5_linear)"/>
</g>
<defs>
<linearGradient id="paint0_linear" x1="901" y1="236" x2="901" y2="2538" gradientUnits="userSpaceOnUse">
<stop stop-color="#4065D8"/>
<stop offset="0.784396" stop-color="#011044"/>
</linearGradient>
<linearGradient id="paint1_linear" x1="600.384" y1="63.0833" x2="465.03" y2="35.8658" gradientUnits="userSpaceOnUse">
<stop stop-color="#FED68E"/>
<stop offset="1" stop-color="#FED68E" stop-opacity="0"/>
</linearGradient>
<linearGradient id="paint2_linear" x1="611.518" y1="67.134" x2="746.872" y2="94.3515" gradientUnits="userSpaceOnUse">
<stop stop-color="#FED68E"/>
<stop offset="1" stop-color="#FED68E" stop-opacity="0"/>
</linearGradient>
<linearGradient id="paint3_linear" x1="830.581" y1="250.681" x2="830.581" y2="520.032" gradientUnits="userSpaceOnUse">
<stop stop-color="white" stop-opacity="0.33"/>
<stop offset="1" stop-color="white" stop-opacity="0"/>
</linearGradient>
<linearGradient id="paint4_linear" x1="830.581" y1="250.681" x2="830.581" y2="520.032" gradientUnits="userSpaceOnUse">
<stop stop-color="white" stop-opacity="0.33"/>
<stop offset="1" stop-color="white" stop-opacity="0"/>
</linearGradient>
<linearGradient id="paint5_linear" x1="830.581" y1="250.681" x2="830.581" y2="520.032" gradientUnits="userSpaceOnUse">
<stop stop-color="white" stop-opacity="0.33"/>
<stop offset="1" stop-color="white" stop-opacity="0"/>
</linearGradient>
<clipPath id="clip0">
<rect width="1600" height="1381" fill="white"/>
</clipPath>
</defs>
</svg>
