<svg width="268" height="159" viewBox="0 0 268 159" fill="none" xmlns="http://www.w3.org/2000/svg">
<path opacity="0.3" d="M252.07 17.9585C241.45 5.98248 227.112 0 209.044 0C198.425 0 189.01 2.18657 180.812 6.54866C172.759 10.834 166.333 16.4124 161.517 23.299V1.39362H161.254H106.484H106.461V85.2049C106.461 94.1218 104.131 101.124 99.4803 106.234C94.8185 111.344 88.4848 113.893 80.4799 113.893C72.6573 113.893 66.3694 111.344 61.6167 106.234C56.8639 101.124 54.4873 94.1218 54.4873 85.2049V1.39362H0V92.173C0 112.772 5.26463 129.065 15.7823 141.042C26.3116 153.006 40.7064 159 58.9557 159C69.5759 159 78.9905 156.813 87.1888 152.451C95.3756 148.1 101.811 142.39 106.461 135.331V157.606H106.484H161.254H161.517V68.8491C162.243 62.2482 164.485 56.8899 168.247 52.7656C172.898 47.6671 179.322 45.1061 187.52 45.1061C195.343 45.1061 201.585 47.6671 206.248 52.7656C210.898 57.876 213.229 64.8782 213.229 73.7951V157.606H268V66.5551C268 46.1373 262.69 29.9349 252.07 17.9585Z" fill="url(#paint0_linear)"/>
<defs>
<linearGradient id="paint0_linear" x1="152" y1="-55" x2="152" y2="131" gradientUnits="userSpaceOnUse">
<stop stop-color="#4382FF"/>
<stop offset="1" stop-color="#0433BF"/>
</linearGradient>
</defs>
</svg>
