<svg width="369" height="403" viewBox="0 0 369 403" fill="none" xmlns="http://www.w3.org/2000/svg">
<path opacity="0.2" d="M69.5461 154.344C82.0051 142.467 125.552 77.6434 157.38 52.6128C189.208 27.5822 232.987 17.4288 254.434 18.0313C276.348 18.7093 306.91 25.1029 325.91 34.8932C344.834 45.1503 350.545 54.2233 352.587 59.3467C354.628 64.4701 354.477 65.404 359.469 70.0474C364.462 74.6909 376.464 83.3461 360.224 83.1091C344.526 82.4801 323.13 75.6564 307.596 76.9713C292.062 78.2862 266.541 88.0451 252.419 92.4651C238.296 96.8841 195.211 105.712 175.957 109.299C156.237 112.811 142.442 121.117 118.344 136.858C94.2467 152.599 78.2949 165.348 77.3105 171.418C76.2504 177.955 86.7138 190.195 90.3432 203.244C93.9726 216.292 95.0667 236.118 88.0446 229.229C81.0226 222.339 68.9865 187.321 33.5683 190.203C-1.84977 193.086 -9.9954 196.079 16.2831 181.65C42.7131 166.287 50.3531 172.318 69.5461 154.344Z" fill="url(#paint0_linear)"/>
<path opacity="0.2" d="M254.434 18.0308C246.352 17.6787 234.626 19.1318 221.664 22.3015C229.001 30.2005 249.794 23.0291 268.984 22.7863C283.9 22.3297 307.704 29.0651 322.33 33.3536C303.721 24.106 274.949 18.4819 254.434 18.0308Z" fill="url(#paint1_linear)"/>
<path opacity="0.2" fill-rule="evenodd" clip-rule="evenodd" d="M284.794 31.5805C262.716 28.9589 230.197 37.5835 185.749 54.8168C153.558 67.3284 114.781 102.734 96.5205 120.859C114.681 97.446 138.175 67.7094 157.38 52.6128C157.635 52.4089 157.89 52.2061 158.147 52.0042C162.778 43.3964 165.751 28.0104 158.003 16.2919C153.082 8.49463 143.895 6.50813 138.712 5.38733C134.667 4.51283 133.061 4.16543 137.819 1.99653C148.676 -2.95227 186.324 6.98653 204.996 12.8897C215.065 16.0729 220.819 19.2531 223.983 21.508C235.793 18.7087 246.343 17.4402 254.043 17.4886C266.942 17.6633 283.27 20.311 297.971 24.1326C314.084 31.0585 329.188 38.3 338.921 43.233C340.636 44.4695 341.884 45.6303 343.132 46.7912C329.515 42.187 301.197 33.7612 284.794 31.5805Z" fill="url(#paint2_linear)"/>
<path opacity="0.2" d="M318.998 53.9003C315.254 50.4177 262.081 62.4024 250.77 70.1529C238.993 77.8278 195.277 84.6371 168.193 92.2261C141.726 98.9561 93.4529 148.636 84.1836 161.51C90.9933 154.947 102.923 146.338 118.42 136.391C142.518 120.65 156.703 112.886 176.033 108.832C195.753 105.321 238.372 96.4171 252.494 91.9981C263.59 88.5261 280.89 82.2261 295.794 78.8916C302.377 73.729 302.138 72.2525 310.12 67.3168C319.262 61.1315 322.667 57.8498 318.998 53.9003Z" fill="url(#paint3_linear)"/>
<path opacity="0.2" d="M256.19 83.9711C256.19 83.9711 258.937 90.6461 245.457 99.9621C231.977 109.278 221.575 111.425 242.631 111.485C263.688 111.544 292.956 87.5371 297.018 74.2975C300.613 60.9828 255.95 82.4941 255.95 82.4941L256.19 83.9711Z" fill="url(#paint4_linear)"/>
<path opacity="0.1" d="M143.764 368.193C147.001 359.572 152.889 318.21 162.395 298.745C171.9 279.279 190.625 264.198 201.096 259.496C211.81 254.722 228.02 250.688 239.451 250.982C250.954 251.518 255.817 254.559 257.993 256.552C260.169 258.545 260.314 259.03 263.799 260.104C267.285 261.179 275.081 262.555 267.203 266.221C259.495 269.572 247.6 271.265 240.424 275.514C233.247 279.763 223.225 290.404 217.451 295.82C211.676 301.236 192.977 315.517 184.537 321.727C175.855 328.008 171.144 335.22 163.2 348.412C155.256 361.603 150.539 371.457 151.478 374.61C152.489 378.006 160.378 381.467 165.164 386.907C169.949 392.348 175.091 401.644 170.105 399.959C165.119 398.275 151.17 384.208 134.78 393.841C118.39 403.473 115.163 406.811 124.463 393.744C133.618 380.192 138.702 381.319 143.764 368.193Z" fill="url(#paint5_linear)"/>
<path opacity="0.1" d="M201.096 259.496C197.121 261.208 191.811 264.637 186.305 269.181C191.678 271.278 200.024 262.984 209.212 258.4C216.291 254.708 229.325 252.412 237.368 251.074C226.252 250.95 211.083 254.938 201.096 259.496Z" fill="url(#paint6_linear)"/>
<path opacity="0.1" fill-rule="evenodd" clip-rule="evenodd" d="M218.873 258.956C207.628 262.832 193.971 274.556 176.572 293.203C163.977 306.723 153.54 332.803 148.963 345.785C152.261 330.28 156.656 310.487 162.394 298.745C162.469 298.587 162.545 298.43 162.621 298.273C162.848 293.049 160.699 284.945 154.24 281.104C150.054 278.493 145.166 279.675 142.408 280.341C140.257 280.861 139.402 281.068 141.189 278.916C145.267 274.005 165.716 270.029 176.084 268.527C181.675 267.717 185.187 267.909 187.236 268.259C192.274 264.161 197.06 261.095 200.781 259.326C207.035 256.408 215.516 253.883 223.487 252.302C232.861 251.887 241.822 251.86 247.659 251.971C248.772 252.167 249.644 252.436 250.515 252.705C242.884 253.656 227.282 256.189 218.873 258.956Z" fill="url(#paint7_linear)"/>
<path opacity="0.1" d="M240.545 261.746C237.93 260.94 215.107 279.09 211.462 285.456C207.575 291.895 188.103 305.35 176.822 315.309C165.64 324.712 153.95 359.879 152.482 368.238C154.234 363.491 157.977 356.568 163.127 348.169C171.07 334.978 176.097 327.936 184.464 321.484C193.146 315.202 211.603 300.994 217.377 295.578C221.914 291.322 228.781 284.261 235.184 279.186C237.154 275.167 236.695 274.511 239.391 270.276C242.355 265.168 243.231 262.795 240.545 261.746Z" fill="url(#paint8_linear)"/>
<path opacity="0.1" d="M217.29 290.851C217.29 290.851 220.167 293.427 215.842 301.052C211.517 308.677 207.006 312.133 217.163 307.26C227.32 302.388 235.83 284.011 234.706 276.688C233.338 269.437 216.831 290.195 216.831 290.195L217.29 290.851Z" fill="url(#paint9_linear)"/>
<defs>
<linearGradient id="paint0_linear" x1="205.286" y1="8.65752" x2="167.268" y2="243.105" gradientUnits="userSpaceOnUse">
<stop stop-color="#3A72F4"/>
<stop offset="1" stop-color="#050B5B"/>
</linearGradient>
<linearGradient id="paint1_linear" x1="273.339" y1="19.5478" x2="271.234" y2="32.5288" gradientUnits="userSpaceOnUse">
<stop stop-color="#3A72F4"/>
<stop offset="1" stop-color="#050B5B"/>
</linearGradient>
<linearGradient id="paint2_linear" x1="231.422" y1="12.3164" x2="210.816" y2="139.393" gradientUnits="userSpaceOnUse">
<stop stop-color="#3A72F4"/>
<stop offset="1" stop-color="#050B5B"/>
</linearGradient>
<linearGradient id="paint3_linear" x1="214.115" y1="36.6202" x2="191.053" y2="178.84" gradientUnits="userSpaceOnUse">
<stop stop-color="#3A72F4"/>
<stop offset="1" stop-color="#050B5B"/>
</linearGradient>
<linearGradient id="paint4_linear" x1="268.114" y1="65.8164" x2="260.061" y2="115.479" gradientUnits="userSpaceOnUse">
<stop stop-color="#3A72F4"/>
<stop offset="1" stop-color="#050B5B"/>
</linearGradient>
<linearGradient id="paint5_linear" x1="175.24" y1="266.421" x2="211.497" y2="388.204" gradientUnits="userSpaceOnUse">
<stop stop-color="#3A72F4"/>
<stop offset="1" stop-color="#050B5B"/>
</linearGradient>
<linearGradient id="paint6_linear" x1="210.556" y1="255.826" x2="212.564" y2="262.569" gradientUnits="userSpaceOnUse">
<stop stop-color="#3A72F4"/>
<stop offset="1" stop-color="#050B5B"/>
</linearGradient>
<linearGradient id="paint7_linear" x1="188.68" y1="262.1" x2="208.332" y2="328.109" gradientUnits="userSpaceOnUse">
<stop stop-color="#3A72F4"/>
<stop offset="1" stop-color="#050B5B"/>
</linearGradient>
<linearGradient id="paint8_linear" x1="186" y1="277.835" x2="207.994" y2="351.711" gradientUnits="userSpaceOnUse">
<stop stop-color="#3A72F4"/>
<stop offset="1" stop-color="#050B5B"/>
</linearGradient>
<linearGradient id="paint9_linear" x1="218.808" y1="279.33" x2="226.489" y2="305.127" gradientUnits="userSpaceOnUse">
<stop stop-color="#3A72F4"/>
<stop offset="1" stop-color="#050B5B"/>
</linearGradient>
</defs>
</svg>
