<svg width="95" height="95" viewBox="0 0 95 95" fill="none" xmlns="http://www.w3.org/2000/svg">
<path d="M81.0877 13.9123C72.1161 4.94093 60.1877 0 47.5 0C37.9868 0 28.8073 2.8025 20.9538 8.10487C13.2911 13.2781 7.34061 20.4977 3.74526 28.9828C3.44542 29.6903 3.77588 30.5071 4.48355 30.8071C5.19104 31.1069 6.00782 30.7763 6.30767 30.0688C13.331 13.4933 29.4999 2.7832 47.5 2.7832C59.4444 2.7832 70.6737 7.43449 79.1196 15.8804C87.5655 24.3263 92.2168 35.5556 92.2168 47.5C92.2168 59.4444 87.5655 70.6737 79.1196 79.1196C70.6737 87.5655 59.4444 92.2168 47.5 92.2168C35.5556 92.2168 24.3263 87.5655 15.8804 79.1196C7.43449 70.6737 2.7832 59.4444 2.7832 47.5C2.7832 43.4024 3.33687 39.3432 4.42938 35.4354C4.63607 34.6952 4.20375 33.9274 3.4636 33.7205C2.72309 33.5133 1.95566 33.946 1.74878 34.6861C0.588369 38.8379 0 43.1491 0 47.5C0 60.1877 4.94093 72.1159 13.9123 81.0877C22.8839 90.0591 34.8123 95 47.5 95C60.1877 95 72.1161 90.0591 81.0877 81.0877C90.0591 72.1159 95 60.1877 95 47.5C95 34.8123 90.0591 22.8841 81.0877 13.9123Z" fill="#85AEFF"/>
<path d="M75.4647 76.3422C76.0183 76.8753 76.8993 76.8584 77.4322 76.3047C84.9185 68.5273 89.0411 58.2976 89.0411 47.4997C89.0411 36.4036 84.7201 25.9718 76.8741 18.1255C69.028 10.2795 58.5962 5.9585 47.5001 5.9585C36.4041 5.9585 25.9723 10.2795 18.126 18.1255C10.28 25.9718 5.95898 36.4036 5.95898 47.4997C5.95898 58.5957 10.28 69.0275 18.126 76.8738C25.9721 84.7198 36.4041 89.0408 47.5001 89.0408C56.7959 89.0408 65.5847 86.0392 72.9164 80.3606C73.5238 79.8898 73.635 79.0157 73.1644 78.4082C72.6935 77.8006 71.8192 77.6896 71.2121 78.1602C64.3727 83.4575 56.1732 86.2576 47.5001 86.2576C26.1289 86.2576 8.74219 68.8708 8.74219 47.4997C8.74219 26.1286 26.1289 8.7417 47.5001 8.7417C68.8714 8.7417 86.2581 26.1286 86.2581 47.4997C86.2581 57.5741 82.4117 67.1185 75.4272 74.3746C74.8941 74.9283 74.9108 75.8093 75.4647 76.3422Z" fill="#85AEFF"/>
<path d="M68.8955 37.307C66.92 35.1362 64.2861 34.1025 60.8838 34.1025C58.9083 34.1025 57.1524 34.516 55.6159 35.2396C54.0794 35.9632 52.8721 36.9969 51.9941 38.2373V34.3093H41.7875V49.0909C41.7875 50.6415 41.3485 51.8819 40.4705 52.8122C39.5925 53.7425 38.3852 54.156 36.9585 54.156C35.5318 54.156 34.3245 53.7425 33.4465 52.8122C32.5685 51.8819 32.1295 50.6415 32.1295 49.0909V34.3093H21.9229V50.3314C21.9229 53.9493 22.9106 56.8436 24.8861 58.9109C26.8616 60.9783 29.4955 62.1154 32.8978 62.1154C34.8733 62.1154 36.6292 61.7019 38.1657 60.9783C39.7022 60.2547 40.9095 59.221 41.7875 57.9806V61.9086H51.9941V46.1966C52.1039 45.0596 52.5429 44.1293 53.2014 43.4057C54.0794 42.4754 55.2866 42.0619 56.8231 42.0619C58.2498 42.0619 59.4571 42.4754 60.3351 43.4057C61.2131 44.336 61.6521 45.5764 61.6521 47.127V61.9086H71.8587V45.7832C71.8587 42.2686 70.871 39.3743 68.8955 37.307Z" fill="white"/>
</svg>
