<svg width="14" height="14" viewBox="0 0 14 14" fill="none" xmlns="http://www.w3.org/2000/svg">
<path fill-rule="evenodd" clip-rule="evenodd" d="M13.7889 6.62021C13.7364 6.49746 13.6576 6.38531 13.557 6.29021L8.03558 1.29021C7.75546 1.03655 7.34719 0.937485 6.96455 1.03033C6.5819 1.12318 6.28303 1.39383 6.1805 1.74033C6.07797 2.08683 6.18737 2.45655 6.46748 2.71021L10.1116 6.00021H1.73006C1.12017 6.00021 0.625763 6.44793 0.625763 7.00021C0.625763 7.5525 1.12017 8.00021 1.73006 8.00021H10.1116L6.46748 11.2902C6.25842 11.478 6.14083 11.7336 6.14083 12.0002C6.14083 12.2668 6.25842 12.5224 6.46748 12.7102C6.67483 12.8995 6.95708 13.006 7.25153 13.006C7.54597 13.006 7.82823 12.8995 8.03558 12.7102L13.557 7.71021C13.6576 7.61511 13.7364 7.50296 13.7889 7.38021C13.8994 7.13675 13.8994 6.86367 13.7889 6.62021Z" fill="#3357CF"/>
</svg>
