<svg width="414" height="539" viewBox="0 0 414 539" fill="none" xmlns="http://www.w3.org/2000/svg">
<g clip-path="url(#clip0)">
<g filter="url(#filter0_f)">
<path d="M206.907 409.138C303.047 409.138 380.984 331.201 380.984 235.061C380.984 138.921 303.047 60.984 206.907 60.984C110.767 60.984 32.83 138.921 32.83 235.061C32.83 331.201 110.767 409.138 206.907 409.138Z" fill="#152673"/>
</g>
<path d="M337.61 227.726V229.43H340.358V231.014H337.61V232.862H340.718V234.506H335.558V226.082H340.718V227.726H337.61ZM341.762 231.146C341.762 230.458 341.89 229.854 342.146 229.334C342.41 228.814 342.766 228.414 343.214 228.134C343.662 227.854 344.162 227.714 344.714 227.714C345.186 227.714 345.598 227.81 345.95 228.002C346.31 228.194 346.586 228.446 346.778 228.758V227.81H348.83V234.506H346.778V233.558C346.578 233.87 346.298 234.122 345.938 234.314C345.586 234.506 345.174 234.602 344.702 234.602C344.158 234.602 343.662 234.462 343.214 234.182C342.766 233.894 342.41 233.49 342.146 232.97C341.89 232.442 341.762 231.834 341.762 231.146ZM346.778 231.158C346.778 230.646 346.634 230.242 346.346 229.946C346.066 229.65 345.722 229.502 345.314 229.502C344.906 229.502 344.558 229.65 344.27 229.946C343.99 230.234 343.85 230.634 343.85 231.146C343.85 231.658 343.99 232.066 344.27 232.37C344.558 232.666 344.906 232.814 345.314 232.814C345.722 232.814 346.066 232.666 346.346 232.37C346.634 232.074 346.778 231.67 346.778 231.158ZM352.487 228.926C352.727 228.558 353.027 228.27 353.387 228.062C353.747 227.846 354.147 227.738 354.587 227.738V229.91H354.023C353.511 229.91 353.127 230.022 352.871 230.246C352.615 230.462 352.487 230.846 352.487 231.398V234.506H350.435V227.81H352.487V228.926ZM357.74 225.626V234.506H355.688V225.626H357.74ZM366.187 227.81L361.987 237.686H359.779L361.315 234.278L358.591 227.81H360.883L362.431 231.998L363.967 227.81H366.187ZM331.101 249.018H327.957L327.453 250.506H325.305L328.353 242.082H330.729L333.777 250.506H331.605L331.101 249.018ZM330.573 247.434L329.529 244.35L328.497 247.434H330.573ZM336.876 244.926C337.116 244.558 337.416 244.27 337.776 244.062C338.136 243.846 338.536 243.738 338.976 243.738V245.91H338.412C337.9 245.91 337.516 246.022 337.26 246.246C337.004 246.462 336.876 246.846 336.876 247.398V250.506H334.824V243.81H336.876V244.926ZM342.129 244.926C342.369 244.558 342.669 244.27 343.029 244.062C343.389 243.846 343.789 243.738 344.229 243.738V245.91H343.665C343.153 245.91 342.769 246.022 342.513 246.246C342.257 246.462 342.129 246.846 342.129 247.398V250.506H340.077V243.81H342.129V244.926ZM346.362 243.114C346.002 243.114 345.706 243.01 345.474 242.802C345.25 242.586 345.138 242.322 345.138 242.01C345.138 241.69 345.25 241.426 345.474 241.218C345.706 241.002 346.002 240.894 346.362 240.894C346.714 240.894 347.002 241.002 347.226 241.218C347.458 241.426 347.574 241.69 347.574 242.01C347.574 242.322 347.458 242.586 347.226 242.802C347.002 243.01 346.714 243.114 346.362 243.114ZM347.382 243.81V250.506H345.33V243.81H347.382ZM352.001 248.586L353.453 243.81H355.637L353.261 250.506H350.729L348.353 243.81H350.549L352.001 248.586ZM357.653 243.114C357.293 243.114 356.997 243.01 356.765 242.802C356.541 242.586 356.429 242.322 356.429 242.01C356.429 241.69 356.541 241.426 356.765 241.218C356.997 241.002 357.293 240.894 357.653 240.894C358.005 240.894 358.293 241.002 358.517 241.218C358.749 241.426 358.865 241.69 358.865 242.01C358.865 242.322 358.749 242.586 358.517 242.802C358.293 243.01 358.005 243.114 357.653 243.114ZM358.673 243.81V250.506H356.621V243.81H358.673ZM364.36 243.738C365.144 243.738 365.768 243.994 366.232 244.506C366.704 245.01 366.94 245.706 366.94 246.594V250.506H364.9V246.87C364.9 246.422 364.784 246.074 364.552 245.826C364.32 245.578 364.008 245.454 363.616 245.454C363.224 245.454 362.912 245.578 362.68 245.826C362.448 246.074 362.332 246.422 362.332 246.87V250.506H360.28V243.81H362.332V244.698C362.54 244.402 362.82 244.17 363.172 244.002C363.524 243.826 363.92 243.738 364.36 243.738ZM371.03 243.714C371.502 243.714 371.914 243.81 372.266 244.002C372.626 244.194 372.902 244.446 373.094 244.758V243.81H375.146V250.494C375.146 251.11 375.022 251.666 374.774 252.162C374.534 252.666 374.162 253.066 373.658 253.362C373.162 253.658 372.542 253.806 371.798 253.806C370.806 253.806 370.002 253.57 369.386 253.098C368.77 252.634 368.418 252.002 368.33 251.202H370.358C370.422 251.458 370.574 251.658 370.814 251.802C371.054 251.954 371.35 252.03 371.702 252.03C372.126 252.03 372.462 251.906 372.71 251.658C372.966 251.418 373.094 251.03 373.094 250.494V249.546C372.894 249.858 372.618 250.114 372.266 250.314C371.914 250.506 371.502 250.602 371.03 250.602C370.478 250.602 369.978 250.462 369.53 250.182C369.082 249.894 368.726 249.49 368.462 248.97C368.206 248.442 368.078 247.834 368.078 247.146C368.078 246.458 368.206 245.854 368.462 245.334C368.726 244.814 369.082 244.414 369.53 244.134C369.978 243.854 370.478 243.714 371.03 243.714ZM373.094 247.158C373.094 246.646 372.95 246.242 372.662 245.946C372.382 245.65 372.038 245.502 371.63 245.502C371.222 245.502 370.874 245.65 370.586 245.946C370.306 246.234 370.166 246.634 370.166 247.146C370.166 247.658 370.306 248.066 370.586 248.37C370.874 248.666 371.222 248.814 371.63 248.814C372.038 248.814 372.382 248.666 372.662 248.37C372.95 248.074 373.094 247.67 373.094 247.158ZM348.372 258.082L346.176 266.506H343.692L342.348 260.962L340.956 266.506H338.472L336.336 258.082H338.532L339.744 264.214L341.244 258.082H343.5L344.94 264.214L346.164 258.082H348.372ZM350.553 259.114C350.193 259.114 349.897 259.01 349.665 258.802C349.441 258.586 349.329 258.322 349.329 258.01C349.329 257.69 349.441 257.426 349.665 257.218C349.897 257.002 350.193 256.894 350.553 256.894C350.905 256.894 351.193 257.002 351.417 257.218C351.649 257.426 351.765 257.69 351.765 258.01C351.765 258.322 351.649 258.586 351.417 258.802C351.193 259.01 350.905 259.114 350.553 259.114ZM351.573 259.81V266.506H349.521V259.81H351.573ZM355.232 260.926C355.472 260.558 355.772 260.27 356.132 260.062C356.492 259.846 356.892 259.738 357.332 259.738V261.91H356.768C356.256 261.91 355.872 262.022 355.616 262.246C355.36 262.462 355.232 262.846 355.232 263.398V266.506H353.18V259.81H355.232V260.926ZM364.745 263.05C364.745 263.242 364.733 263.442 364.709 263.65H360.065C360.097 264.066 360.229 264.386 360.461 264.61C360.701 264.826 360.993 264.934 361.337 264.934C361.849 264.934 362.205 264.718 362.405 264.286H364.589C364.477 264.726 364.273 265.122 363.977 265.474C363.689 265.826 363.325 266.102 362.885 266.302C362.445 266.502 361.953 266.602 361.409 266.602C360.753 266.602 360.169 266.462 359.657 266.182C359.145 265.902 358.745 265.502 358.457 264.982C358.169 264.462 358.025 263.854 358.025 263.158C358.025 262.462 358.165 261.854 358.445 261.334C358.733 260.814 359.133 260.414 359.645 260.134C360.157 259.854 360.745 259.714 361.409 259.714C362.057 259.714 362.633 259.85 363.137 260.122C363.641 260.394 364.033 260.782 364.313 261.286C364.601 261.79 364.745 262.378 364.745 263.05ZM362.645 262.51C362.645 262.158 362.525 261.878 362.285 261.67C362.045 261.462 361.745 261.358 361.385 261.358C361.041 261.358 360.749 261.458 360.509 261.658C360.277 261.858 360.133 262.142 360.077 262.51H362.645Z" fill="white"/>
<path opacity="0.2" d="M350.839 206.037C350.583 205.768 350.158 205.757 349.889 206.012L345.507 210.172C345.238 210.427 345.227 210.852 345.482 211.121C345.738 211.39 346.163 211.401 346.432 211.145L350.327 207.448L354.024 211.344C354.279 211.613 354.704 211.624 354.973 211.368C355.242 211.113 355.253 210.688 354.998 210.419L350.839 206.037ZM350.671 219.987L351.023 206.517L349.681 206.482L349.329 219.952L350.671 219.987Z" fill="white"/>
<path d="M214.822 191.291C224.111 191.291 232.694 196.246 237.339 204.291L244.606 216.878C249.25 224.922 249.25 234.833 244.606 242.878L237.339 255.465C232.694 263.509 224.111 268.465 214.822 268.465H200.288C190.999 268.465 182.416 263.509 177.771 255.465L170.504 242.878C165.859 234.833 165.859 224.922 170.504 216.878L177.771 204.291C182.416 196.246 190.999 191.291 200.288 191.291H214.822Z" fill="white"/>
<path d="M214.822 191.291C224.111 191.291 232.694 196.246 237.339 204.291L244.606 216.878C249.25 224.922 249.25 234.833 244.606 242.878L237.339 255.465C232.694 263.509 224.111 268.465 214.822 268.465H200.288C190.999 268.465 182.416 263.509 177.771 255.465L170.504 242.878C165.859 234.833 165.859 224.922 170.504 216.878L177.771 204.291C182.416 196.246 190.999 191.291 200.288 191.291H214.822Z" fill="url(#paint0_linear)"/>
<path d="M191.611 228.977C192.485 229.163 193.187 229.6 193.717 230.288C194.247 230.961 194.512 231.734 194.512 232.608C194.512 233.868 194.068 234.87 193.18 235.615C192.306 236.346 191.082 236.711 189.506 236.711H182.482V221.631H189.27C190.802 221.631 191.998 221.981 192.857 222.683C193.731 223.385 194.168 224.337 194.168 225.54C194.168 226.428 193.932 227.166 193.459 227.753C193.001 228.34 192.385 228.748 191.611 228.977ZM186.155 227.731H188.561C189.163 227.731 189.621 227.602 189.936 227.345C190.265 227.073 190.43 226.679 190.43 226.163C190.43 225.648 190.265 225.254 189.936 224.982C189.621 224.71 189.163 224.574 188.561 224.574H186.155V227.731ZM188.862 233.746C189.478 233.746 189.95 233.61 190.28 233.338C190.623 233.052 190.795 232.643 190.795 232.114C190.795 231.584 190.616 231.168 190.258 230.868C189.914 230.567 189.435 230.417 188.819 230.417H186.155V233.746H188.862ZM196.126 230.696C196.126 229.464 196.356 228.383 196.814 227.452C197.287 226.521 197.924 225.805 198.726 225.304C199.528 224.803 200.423 224.552 201.411 224.552C202.256 224.552 202.993 224.724 203.624 225.068C204.268 225.411 204.762 225.862 205.106 226.421V224.724H208.779V236.711H205.106V235.014C204.748 235.572 204.247 236.023 203.602 236.367C202.972 236.711 202.234 236.883 201.39 236.883C200.416 236.883 199.528 236.632 198.726 236.131C197.924 235.615 197.287 234.892 196.814 233.961C196.356 233.016 196.126 231.927 196.126 230.696ZM205.106 230.717C205.106 229.801 204.848 229.078 204.333 228.548C203.831 228.018 203.215 227.753 202.485 227.753C201.755 227.753 201.132 228.018 200.616 228.548C200.115 229.063 199.864 229.779 199.864 230.696C199.864 231.612 200.115 232.343 200.616 232.887C201.132 233.417 201.755 233.682 202.485 233.682C203.215 233.682 203.831 233.417 204.333 232.887C204.848 232.357 205.106 231.634 205.106 230.717ZM218.955 224.595C220.359 224.595 221.476 225.053 222.307 225.97C223.151 226.872 223.574 228.118 223.574 229.708V236.711H219.922V230.202C219.922 229.4 219.714 228.777 219.299 228.333C218.884 227.889 218.325 227.667 217.623 227.667C216.922 227.667 216.363 227.889 215.948 228.333C215.533 228.777 215.325 229.4 215.325 230.202V236.711H211.652V224.724H215.325V226.314C215.697 225.784 216.199 225.368 216.829 225.068C217.459 224.753 218.168 224.595 218.955 224.595ZM233.667 236.711L230.015 231.684V236.711H226.341V220.814H230.015V229.6L233.645 224.724H238.178L233.194 230.739L238.221 236.711H233.667Z" fill="white"/>
<path d="M214.822 49.278C224.111 49.278 232.694 54.234 237.339 62.278L244.606 74.865C249.25 82.91 249.25 92.821 244.606 100.865L237.339 113.453C232.694 121.497 224.111 126.453 214.822 126.453H200.288C190.999 126.453 182.416 121.497 177.771 113.453L170.504 100.865C165.859 92.821 165.859 82.91 170.504 74.865L177.771 62.278C182.416 54.234 190.999 49.278 200.288 49.278H214.822Z" fill="white"/>
<path d="M214.822 49.278C224.111 49.278 232.694 54.234 237.339 62.278L244.606 74.865C249.25 82.91 249.25 92.821 244.606 100.865L237.339 113.453C232.694 121.497 224.111 126.453 214.822 126.453H200.288C190.999 126.453 182.416 121.497 177.771 113.453L170.504 100.865C165.859 92.821 165.859 82.91 170.504 74.865L177.771 62.278C182.416 54.234 190.999 49.278 200.288 49.278H214.822Z" fill="url(#paint1_linear)"/>
<path d="M217.22 87.53H221.204V97.068H217.22V87.53Z" fill="white"/>
<path d="M209.676 87.53H213.66V97.068H209.676V87.53Z" fill="white"/>
<path d="M202.132 87.53H206.116V97.068H202.132V87.53Z" fill="white"/>
<path d="M194.588 87.53H198.572V97.068H194.588V87.53Z" fill="white"/>
<path d="M222.531 84.542V83.546H193.26V84.542C193.26 85.092 193.706 85.538 194.256 85.538H221.535C222.085 85.538 222.531 85.092 222.531 84.542Z" fill="white"/>
<path d="M223.897 99.06H191.895C191.345 99.06 190.899 99.506 190.899 100.056V102.712C190.899 103.262 191.345 103.708 191.895 103.708H223.897C224.447 103.708 224.893 103.262 224.893 102.712V100.056C224.893 99.506 224.447 99.06 223.897 99.06Z" fill="white"/>
<path d="M191.894 81.554H223.898C224.343 81.554 224.735 81.258 224.856 80.829C224.977 80.4 224.799 79.943 224.42 79.71L208.418 69.86C208.098 69.663 207.694 69.663 207.374 69.86L191.372 79.71C190.993 79.943 190.815 80.4 190.936 80.829C191.058 81.258 191.449 81.554 191.894 81.554ZM207.219 75.57H208.573C209.123 75.57 209.569 76.016 209.569 76.566C209.569 77.116 209.123 77.562 208.573 77.562H207.219C206.669 77.562 206.223 77.116 206.223 76.566C206.223 76.016 206.669 75.57 207.219 75.57Z" fill="white"/>
<g filter="url(#filter1_ddd)">
<path d="M305.161 338.275C300.634 330.31 300.634 320.549 305.161 312.583L312.663 299.381C317.284 291.25 325.916 286.227 335.268 286.227H349.566C358.918 286.227 367.55 291.25 372.171 299.381L379.673 312.583C384.2 320.549 384.2 330.31 379.673 338.275L372.171 351.477C367.55 359.608 358.918 364.631 349.566 364.631H335.268C325.916 364.631 317.284 359.608 312.663 351.477L305.161 338.275Z" fill="white"/>
</g>
<path d="M351.594 323.417H355.515V332.955H351.594V323.417Z" fill="url(#paint2_linear)"/>
<path d="M344.169 323.417H348.09V332.955H344.169V323.417Z" fill="url(#paint3_linear)"/>
<path d="M336.743 323.417H340.664V332.955H336.743V323.417Z" fill="url(#paint4_linear)"/>
<path d="M329.318 323.417H333.239V332.955H329.318V323.417Z" fill="url(#paint5_linear)"/>
<path d="M356.822 320.429V319.433H328.01V320.429C328.01 320.979 328.449 321.425 328.991 321.425H355.842C356.383 321.425 356.822 320.979 356.822 320.429Z" fill="url(#paint6_linear)"/>
<path d="M358.166 334.947H326.667C326.125 334.947 325.686 335.393 325.686 335.943V338.599C325.686 339.149 326.125 339.595 326.667 339.595H358.166C358.708 339.595 359.147 339.149 359.147 338.599V335.943C359.147 335.393 358.708 334.947 358.166 334.947Z" fill="url(#paint7_linear)"/>
<path d="M326.666 317.441H358.167C358.606 317.441 358.991 317.145 359.11 316.716C359.23 316.288 359.055 315.83 358.681 315.597L342.93 305.747C342.615 305.55 342.218 305.55 341.903 305.747L326.152 315.597C325.778 315.831 325.603 316.288 325.723 316.716C325.842 317.145 326.227 317.441 326.666 317.441ZM341.75 311.458H343.083C343.625 311.458 344.063 311.903 344.063 312.454C344.063 313.004 343.625 313.449 343.083 313.449H341.75C341.209 313.449 340.77 313.004 340.77 312.454C340.77 311.903 341.209 311.458 341.75 311.458Z" fill="url(#paint8_linear)"/>
<g filter="url(#filter2_ddd)">
<path d="M38.5875 338.275C34.0606 330.31 34.0606 320.549 38.5875 312.583L46.0902 299.381C50.711 291.25 59.3427 286.227 68.6949 286.227H82.9925C92.3448 286.227 100.976 291.25 105.597 299.381L113.1 312.583C117.627 320.549 117.627 330.31 113.1 338.275L105.597 351.477C100.976 359.608 92.3448 364.631 82.9925 364.631H68.6949C59.3427 364.631 50.711 359.608 46.0902 351.477L38.5875 338.275Z" fill="white"/>
</g>
<path d="M85.021 323.417H88.9421V332.955H85.021V323.417Z" fill="url(#paint9_linear)"/>
<path d="M77.5957 323.417H81.517V332.955H77.5957V323.417Z" fill="url(#paint10_linear)"/>
<path d="M70.1696 323.417H74.091V332.955H70.1696V323.417Z" fill="url(#paint11_linear)"/>
<path d="M62.7443 323.417H66.6654V332.955H62.7443V323.417Z" fill="url(#paint12_linear)"/>
<path d="M90.249 320.429V319.433H61.4372V320.429C61.4372 320.979 61.876 321.425 62.4175 321.425H89.2687C89.8099 321.425 90.249 320.979 90.249 320.429Z" fill="url(#paint13_linear)"/>
<path d="M91.5932 334.947H60.0933C59.5518 334.947 59.113 335.393 59.113 335.943V338.599C59.113 339.149 59.5518 339.595 60.0933 339.595H91.5932C92.1346 339.595 92.5735 339.149 92.5735 338.599V335.943C92.5735 335.393 92.1346 334.947 91.5932 334.947Z" fill="url(#paint14_linear)"/>
<path d="M60.0925 317.441H91.5939C92.0325 317.441 92.4177 317.145 92.5372 316.716C92.6564 316.288 92.4813 315.83 92.1078 315.597L76.3571 305.747C76.0421 305.55 75.6446 305.55 75.3293 305.747L59.5786 315.597C59.2051 315.831 59.03 316.288 59.1495 316.716C59.269 317.145 59.6542 317.441 60.0925 317.441ZM75.1769 311.458H76.5098C77.0513 311.458 77.4901 311.903 77.4901 312.454C77.4901 313.004 77.0513 313.449 76.5098 313.449H75.1769C74.6354 313.449 74.1966 313.004 74.1966 312.454C74.1966 311.903 74.6354 311.458 75.1769 311.458Z" fill="url(#paint15_linear)"/>
<g filter="url(#filter3_ddd)">
<path d="M387.586 146.419C392.113 154.385 392.113 164.145 387.586 172.111L380.084 185.313C375.463 193.444 366.831 198.467 357.479 198.467H343.181C333.829 198.467 325.197 193.444 320.577 185.313L313.074 172.111C308.547 164.145 308.547 154.385 313.074 146.419L320.577 133.217C325.197 125.086 333.829 120.063 343.181 120.063H357.479C366.831 120.063 375.463 125.086 380.084 133.217L387.586 146.419Z" fill="white"/>
</g>
<path d="M359.508 157.252H363.429V166.791H359.508V157.252Z" fill="url(#paint16_linear)"/>
<path d="M352.083 157.252H356.004V166.791H352.083V157.252Z" fill="url(#paint17_linear)"/>
<path d="M344.657 157.252H348.578V166.791H344.657V157.252Z" fill="url(#paint18_linear)"/>
<path d="M337.232 157.252H341.153V166.791H337.232V157.252Z" fill="url(#paint19_linear)"/>
<path d="M364.736 154.264V153.268H335.924V154.264C335.924 154.814 336.363 155.26 336.905 155.26H363.756C364.297 155.26 364.736 154.814 364.736 154.264Z" fill="url(#paint20_linear)"/>
<path d="M366.08 168.782H334.581C334.039 168.782 333.6 169.228 333.6 169.778V172.434C333.6 172.984 334.039 173.43 334.581 173.43H366.08C366.622 173.43 367.061 172.984 367.061 172.434V169.778C367.061 169.228 366.622 168.782 366.08 168.782Z" fill="url(#paint21_linear)"/>
<path d="M334.58 151.277H366.081C366.52 151.277 366.905 150.981 367.025 150.552C367.144 150.123 366.969 149.666 366.595 149.432L350.844 139.583C350.529 139.386 350.132 139.386 349.817 139.583L334.066 149.432C333.692 149.666 333.517 150.123 333.637 150.552C333.756 150.981 334.142 151.277 334.58 151.277ZM349.664 145.293H350.997C351.539 145.293 351.977 145.739 351.977 146.289C351.977 146.839 351.539 147.285 350.997 147.285H349.664C349.123 147.285 348.684 146.839 348.684 146.289C348.684 145.739 349.123 145.293 349.664 145.293Z" fill="url(#paint22_linear)"/>
<g filter="url(#filter4_ddd)">
<path d="M102.813 146.419C107.34 154.384 107.34 164.145 102.813 172.111L95.3102 185.313C90.6894 193.444 82.0577 198.467 72.7055 198.467H58.4079C49.0556 198.467 40.4239 193.444 35.8031 185.313L28.3005 172.111C23.7735 164.145 23.7735 154.384 28.3005 146.419L35.8031 133.217C40.4239 125.086 49.0556 120.063 58.4079 120.063H72.7055C82.0577 120.063 90.6894 125.086 95.3102 133.217L102.813 146.419Z" fill="white"/>
</g>
<path d="M74.7349 157.252H78.656V166.79H74.7349V157.252Z" fill="url(#paint23_linear)"/>
<path d="M67.3095 157.252H71.2309V166.79H67.3095V157.252Z" fill="url(#paint24_linear)"/>
<path d="M59.8835 157.252H63.8048V166.79H59.8835V157.252Z" fill="url(#paint25_linear)"/>
<path d="M52.4582 157.252H56.3792V166.79H52.4582V157.252Z" fill="url(#paint26_linear)"/>
<path d="M79.9629 154.264V153.268H51.1511V154.264C51.1511 154.814 51.5899 155.26 52.1314 155.26H78.9826C79.5238 155.26 79.9629 154.814 79.9629 154.264Z" fill="url(#paint27_linear)"/>
<path d="M81.307 168.782H49.8072C49.2657 168.782 48.8269 169.228 48.8269 169.778V172.434C48.8269 172.984 49.2657 173.43 49.8072 173.43H81.307C81.8485 173.43 82.2874 172.984 82.2874 172.434V169.778C82.2874 169.228 81.8485 168.782 81.307 168.782Z" fill="url(#paint28_linear)"/>
<path d="M49.8064 151.276H81.3078C81.7464 151.276 82.1316 150.98 82.2511 150.552C82.3703 150.123 82.1952 149.666 81.8217 149.432L66.071 139.583C65.756 139.386 65.3585 139.386 65.0432 139.583L49.2925 149.432C48.919 149.666 48.7439 150.123 48.8634 150.552C48.9828 150.98 49.3681 151.276 49.8064 151.276ZM64.8908 145.293H66.2237C66.7652 145.293 67.204 145.739 67.204 146.289C67.204 146.839 66.7652 147.285 66.2237 147.285H64.8908C64.3493 147.285 63.9104 146.839 63.9104 146.289C63.9104 145.739 64.3493 145.293 64.8908 145.293Z" fill="url(#paint29_linear)"/>
<g filter="url(#filter5_ddd)">
<path d="M169.896 397.58C165.369 389.614 165.369 379.853 169.896 371.887L177.399 358.685C182.02 350.554 190.651 345.531 200.004 345.531H214.301C223.653 345.531 232.285 350.554 236.906 358.685L244.408 371.887C248.935 379.853 248.935 389.614 244.409 397.58L236.906 410.782C232.285 418.913 223.653 423.935 214.301 423.935H200.004C190.651 423.935 182.02 418.913 177.399 410.782L169.896 397.58Z" fill="white"/>
</g>
<path d="M216.33 382.72H220.251V392.258H216.33V382.72Z" fill="url(#paint30_linear)"/>
<path d="M208.904 382.72H212.826V392.258H208.904V382.72Z" fill="url(#paint31_linear)"/>
<path d="M201.478 382.72H205.4V392.258H201.478V382.72Z" fill="url(#paint32_linear)"/>
<path d="M194.053 382.72H197.974V392.258H194.053V382.72Z" fill="url(#paint33_linear)"/>
<path d="M221.558 379.732V378.736H192.746V379.732C192.746 380.282 193.185 380.728 193.726 380.728H220.577C221.119 380.728 221.558 380.282 221.558 379.732Z" fill="url(#paint34_linear)"/>
<path d="M222.902 394.25H191.402C190.86 394.25 190.422 394.696 190.422 395.246V397.902C190.422 398.452 190.86 398.898 191.402 398.898H222.902C223.443 398.898 223.882 398.452 223.882 397.902V395.246C223.882 394.696 223.443 394.25 222.902 394.25Z" fill="url(#paint35_linear)"/>
<path d="M191.401 376.744H222.903C223.341 376.744 223.726 376.448 223.846 376.019C223.965 375.59 223.79 375.133 223.416 374.9L207.666 365.05C207.351 364.853 206.953 364.853 206.638 365.05L190.887 374.9C190.514 375.133 190.339 375.59 190.458 376.019C190.578 376.448 190.963 376.744 191.401 376.744ZM206.486 370.76H207.818C208.36 370.76 208.799 371.206 208.799 371.756C208.799 372.306 208.36 372.752 207.818 372.752H206.486C205.944 372.752 205.505 372.306 205.505 371.756C205.505 371.206 205.944 370.76 206.486 370.76Z" fill="url(#paint36_linear)"/>
<path d="M67.9021 45.789H70.5901V47.373H65.8501V38.949H67.9021V45.789ZM71.2808 44.013C71.2808 43.325 71.4088 42.721 71.6648 42.201C71.9288 41.681 72.2848 41.281 72.7328 41.001C73.1808 40.721 73.6808 40.581 74.2328 40.581C74.7048 40.581 75.1168 40.677 75.4688 40.869C75.8288 41.061 76.1048 41.313 76.2968 41.625V40.677H78.3488V47.373H76.2968V46.425C76.0968 46.737 75.8168 46.989 75.4568 47.181C75.1048 47.373 74.6928 47.469 74.2208 47.469C73.6768 47.469 73.1808 47.329 72.7328 47.049C72.2848 46.761 71.9288 46.357 71.6648 45.837C71.4088 45.309 71.2808 44.701 71.2808 44.013ZM76.2968 44.025C76.2968 43.513 76.1528 43.109 75.8648 42.813C75.5848 42.517 75.2408 42.369 74.8328 42.369C74.4248 42.369 74.0768 42.517 73.7888 42.813C73.5088 43.101 73.3688 43.501 73.3688 44.013C73.3688 44.525 73.5088 44.933 73.7888 45.237C74.0768 45.533 74.4248 45.681 74.8328 45.681C75.2408 45.681 75.5848 45.533 75.8648 45.237C76.1528 44.941 76.2968 44.537 76.2968 44.025ZM83.6854 45.633V47.373H82.6414C81.8974 47.373 81.3174 47.193 80.9014 46.833C80.4854 46.465 80.2774 45.869 80.2774 45.045V42.381H79.4614V40.677H80.2774V39.045H82.3294V40.677H83.6734V42.381H82.3294V45.069C82.3294 45.269 82.3774 45.413 82.4734 45.501C82.5694 45.589 82.7294 45.633 82.9534 45.633H83.6854ZM91.2604 43.917C91.2604 44.109 91.2484 44.309 91.2244 44.517H86.5804C86.6124 44.933 86.7444 45.253 86.9764 45.477C87.2164 45.693 87.5084 45.801 87.8524 45.801C88.3644 45.801 88.7204 45.585 88.9204 45.153H91.1044C90.9924 45.593 90.7884 45.989 90.4924 46.341C90.2044 46.693 89.8404 46.969 89.4004 47.169C88.9604 47.369 88.4684 47.469 87.9244 47.469C87.2684 47.469 86.6844 47.329 86.1724 47.049C85.6604 46.769 85.2604 46.369 84.9724 45.849C84.6844 45.329 84.5404 44.721 84.5404 44.025C84.5404 43.329 84.6804 42.721 84.9604 42.201C85.2484 41.681 85.6484 41.281 86.1604 41.001C86.6724 40.721 87.2604 40.581 87.9244 40.581C88.5724 40.581 89.1484 40.717 89.6524 40.989C90.1564 41.261 90.5484 41.649 90.8284 42.153C91.1164 42.657 91.2604 43.245 91.2604 43.917ZM89.1604 43.377C89.1604 43.025 89.0404 42.745 88.8004 42.537C88.5604 42.329 88.2604 42.225 87.9004 42.225C87.5564 42.225 87.2644 42.325 87.0244 42.525C86.7924 42.725 86.6484 43.009 86.5924 43.377H89.1604ZM100.37 45.885H97.2259L96.7219 47.373H94.5739L97.6219 38.949H99.9979L103.046 47.373H100.874L100.37 45.885ZM99.8419 44.301L98.7979 41.217L97.7659 44.301H99.8419ZM106.146 41.793C106.386 41.425 106.686 41.137 107.046 40.929C107.406 40.713 107.806 40.605 108.246 40.605V42.777H107.682C107.17 42.777 106.786 42.889 106.53 43.113C106.274 43.329 106.146 43.713 106.146 44.265V47.373H104.094V40.677H106.146V41.793ZM111.398 41.793C111.638 41.425 111.938 41.137 112.298 40.929C112.658 40.713 113.058 40.605 113.498 40.605V42.777H112.934C112.422 42.777 112.038 42.889 111.782 43.113C111.526 43.329 111.398 43.713 111.398 44.265V47.373H109.346V40.677H111.398V41.793ZM115.631 39.981C115.271 39.981 114.975 39.877 114.743 39.669C114.519 39.453 114.407 39.189 114.407 38.877C114.407 38.557 114.519 38.293 114.743 38.085C114.975 37.869 115.271 37.761 115.631 37.761C115.983 37.761 116.271 37.869 116.495 38.085C116.727 38.293 116.843 38.557 116.843 38.877C116.843 39.189 116.727 39.453 116.495 39.669C116.271 39.877 115.983 39.981 115.631 39.981ZM116.651 40.677V47.373H114.599V40.677H116.651ZM121.27 45.453L122.722 40.677H124.906L122.53 47.373H119.998L117.622 40.677H119.818L121.27 45.453ZM126.922 39.981C126.562 39.981 126.266 39.877 126.034 39.669C125.81 39.453 125.698 39.189 125.698 38.877C125.698 38.557 125.81 38.293 126.034 38.085C126.266 37.869 126.562 37.761 126.922 37.761C127.274 37.761 127.562 37.869 127.786 38.085C128.018 38.293 128.134 38.557 128.134 38.877C128.134 39.189 128.018 39.453 127.786 39.669C127.562 39.877 127.274 39.981 126.922 39.981ZM127.942 40.677V47.373H125.89V40.677H127.942ZM133.629 40.605C134.413 40.605 135.037 40.861 135.501 41.373C135.973 41.877 136.209 42.573 136.209 43.461V47.373H134.169V43.737C134.169 43.289 134.053 42.941 133.821 42.693C133.589 42.445 133.277 42.321 132.885 42.321C132.493 42.321 132.181 42.445 131.949 42.693C131.717 42.941 131.601 43.289 131.601 43.737V47.373H129.549V40.677H131.601V41.565C131.809 41.269 132.089 41.037 132.441 40.869C132.793 40.693 133.189 40.605 133.629 40.605ZM140.299 40.581C140.771 40.581 141.183 40.677 141.535 40.869C141.895 41.061 142.171 41.313 142.363 41.625V40.677H144.415V47.361C144.415 47.977 144.291 48.533 144.043 49.029C143.803 49.533 143.431 49.933 142.927 50.229C142.431 50.525 141.811 50.673 141.067 50.673C140.075 50.673 139.271 50.437 138.655 49.965C138.039 49.501 137.687 48.869 137.599 48.069H139.627C139.691 48.325 139.843 48.525 140.083 48.669C140.323 48.821 140.619 48.897 140.971 48.897C141.395 48.897 141.731 48.773 141.979 48.525C142.235 48.285 142.363 47.897 142.363 47.361V46.413C142.163 46.725 141.887 46.981 141.535 47.181C141.183 47.373 140.771 47.469 140.299 47.469C139.747 47.469 139.247 47.329 138.799 47.049C138.351 46.761 137.995 46.357 137.731 45.837C137.475 45.309 137.347 44.701 137.347 44.013C137.347 43.325 137.475 42.721 137.731 42.201C137.995 41.681 138.351 41.281 138.799 41.001C139.247 40.721 139.747 40.581 140.299 40.581ZM142.363 44.025C142.363 43.513 142.219 43.109 141.931 42.813C141.651 42.517 141.307 42.369 140.899 42.369C140.491 42.369 140.143 42.517 139.855 42.813C139.575 43.101 139.435 43.501 139.435 44.013C139.435 44.525 139.575 44.933 139.855 45.237C140.143 45.533 140.491 45.681 140.899 45.681C141.307 45.681 141.651 45.533 141.931 45.237C142.219 44.941 142.363 44.537 142.363 44.025ZM103.003 54.949L100.807 63.373H98.323L96.979 57.829L95.587 63.373H93.103L90.967 54.949H93.163L94.375 61.081L95.875 54.949H98.131L99.571 61.081L100.795 54.949H103.003ZM105.184 55.981C104.824 55.981 104.528 55.877 104.296 55.669C104.072 55.453 103.96 55.189 103.96 54.877C103.96 54.557 104.072 54.293 104.296 54.085C104.528 53.869 104.824 53.761 105.184 53.761C105.536 53.761 105.824 53.869 106.048 54.085C106.28 54.293 106.396 54.557 106.396 54.877C106.396 55.189 106.28 55.453 106.048 55.669C105.824 55.877 105.536 55.981 105.184 55.981ZM106.204 56.677V63.373H104.152V56.677H106.204ZM109.863 57.793C110.103 57.425 110.403 57.137 110.763 56.929C111.123 56.713 111.523 56.605 111.963 56.605V58.777H111.399C110.887 58.777 110.503 58.889 110.247 59.113C109.991 59.329 109.863 59.713 109.863 60.265V63.373H107.811V56.677H109.863V57.793ZM119.376 59.917C119.376 60.109 119.364 60.309 119.34 60.517H114.696C114.728 60.933 114.86 61.253 115.092 61.477C115.332 61.693 115.624 61.801 115.968 61.801C116.48 61.801 116.836 61.585 117.036 61.153H119.22C119.108 61.593 118.904 61.989 118.608 62.341C118.32 62.693 117.956 62.969 117.516 63.169C117.076 63.369 116.584 63.469 116.04 63.469C115.384 63.469 114.8 63.329 114.288 63.049C113.776 62.769 113.376 62.369 113.088 61.849C112.8 61.329 112.656 60.721 112.656 60.025C112.656 59.329 112.796 58.721 113.076 58.201C113.364 57.681 113.764 57.281 114.276 57.001C114.788 56.721 115.376 56.581 116.04 56.581C116.688 56.581 117.264 56.717 117.768 56.989C118.272 57.261 118.664 57.649 118.944 58.153C119.232 58.657 119.376 59.245 119.376 59.917ZM117.276 59.377C117.276 59.025 117.156 58.745 116.916 58.537C116.676 58.329 116.376 58.225 116.016 58.225C115.672 58.225 115.38 58.325 115.14 58.525C114.908 58.725 114.764 59.009 114.708 59.377H117.276Z" fill="white"/>
<path opacity="0.2" d="M148.828 83.614C149.09 83.352 149.09 82.927 148.828 82.664L144.556 78.392C144.294 78.13 143.869 78.13 143.607 78.392C143.344 78.654 143.344 79.079 143.607 79.342L147.404 83.139L143.607 86.936C143.344 87.199 143.344 87.624 143.607 87.886C143.869 88.148 144.294 88.148 144.556 87.886L148.828 83.614ZM59.7324 83.81H148.353V82.468H59.7324V83.81Z" fill="white"/>
<path opacity="0.2" d="M260.727 96.299C260.364 96.37 260.126 96.723 260.198 97.087L261.359 103.016C261.43 103.38 261.783 103.617 262.147 103.546C262.511 103.475 262.748 103.122 262.677 102.758L261.644 97.488L266.915 96.455C267.278 96.384 267.516 96.031 267.444 95.668C267.373 95.304 267.02 95.067 266.656 95.138L260.727 96.299ZM309.29 130.097C309.654 130.026 309.891 129.673 309.82 129.31L308.658 123.38C308.587 123.017 308.234 122.779 307.87 122.851C307.507 122.922 307.269 123.275 307.341 123.639L308.373 128.909L303.103 129.941C302.739 130.012 302.502 130.365 302.573 130.729C302.644 131.093 302.997 131.33 303.361 131.259L309.29 130.097ZM260.482 97.515L308.786 129.996L309.535 128.881L261.231 96.401L260.482 97.515Z" fill="white"/>
<path d="M282.034 53.084C281.418 53.084 280.866 52.984 280.378 52.784C279.89 52.584 279.498 52.288 279.202 51.896C278.914 51.504 278.762 51.032 278.746 50.48H280.93C280.962 50.792 281.07 51.032 281.254 51.2C281.438 51.36 281.678 51.44 281.974 51.44C282.278 51.44 282.518 51.372 282.694 51.236C282.87 51.092 282.958 50.896 282.958 50.648C282.958 50.44 282.886 50.268 282.742 50.132C282.606 49.996 282.434 49.884 282.226 49.796C282.026 49.708 281.738 49.608 281.362 49.496C280.818 49.328 280.374 49.16 280.03 48.992C279.686 48.824 279.39 48.576 279.142 48.248C278.894 47.92 278.77 47.492 278.77 46.964C278.77 46.18 279.054 45.568 279.622 45.128C280.19 44.68 280.93 44.456 281.842 44.456C282.77 44.456 283.518 44.68 284.086 45.128C284.654 45.568 284.958 46.184 284.998 46.976H282.778C282.762 46.704 282.662 46.492 282.478 46.34C282.294 46.18 282.058 46.1 281.77 46.1C281.522 46.1 281.322 46.168 281.17 46.304C281.018 46.432 280.942 46.62 280.942 46.868C280.942 47.14 281.07 47.352 281.326 47.504C281.582 47.656 281.982 47.82 282.526 47.996C283.07 48.18 283.51 48.356 283.846 48.524C284.19 48.692 284.486 48.936 284.734 49.256C284.982 49.576 285.106 49.988 285.106 50.492C285.106 50.972 284.982 51.408 284.734 51.8C284.494 52.192 284.142 52.504 283.678 52.736C283.214 52.968 282.666 53.084 282.034 53.084ZM290.605 46.232C291.373 46.232 291.989 46.488 292.453 47C292.917 47.504 293.149 48.2 293.149 49.088V53H291.109V49.364C291.109 48.916 290.993 48.568 290.761 48.32C290.529 48.072 290.217 47.948 289.825 47.948C289.433 47.948 289.121 48.072 288.889 48.32C288.657 48.568 288.541 48.916 288.541 49.364V53H286.489V44.12H288.541V47.204C288.749 46.908 289.033 46.672 289.393 46.496C289.753 46.32 290.157 46.232 290.605 46.232ZM297.743 53.096C297.087 53.096 296.495 52.956 295.967 52.676C295.447 52.396 295.035 51.996 294.731 51.476C294.435 50.956 294.287 50.348 294.287 49.652C294.287 48.964 294.439 48.36 294.743 47.84C295.047 47.312 295.463 46.908 295.991 46.628C296.519 46.348 297.111 46.208 297.767 46.208C298.423 46.208 299.015 46.348 299.543 46.628C300.071 46.908 300.487 47.312 300.791 47.84C301.095 48.36 301.247 48.964 301.247 49.652C301.247 50.34 301.091 50.948 300.779 51.476C300.475 51.996 300.055 52.396 299.519 52.676C298.991 52.956 298.399 53.096 297.743 53.096ZM297.743 51.32C298.135 51.32 298.467 51.176 298.739 50.888C299.019 50.6 299.159 50.188 299.159 49.652C299.159 49.116 299.023 48.704 298.751 48.416C298.487 48.128 298.159 47.984 297.767 47.984C297.367 47.984 297.035 48.128 296.771 48.416C296.507 48.696 296.375 49.108 296.375 49.652C296.375 50.188 296.503 50.6 296.759 50.888C297.023 51.176 297.351 51.32 297.743 51.32ZM304.508 47.42C304.748 47.052 305.048 46.764 305.408 46.556C305.768 46.34 306.168 46.232 306.608 46.232V48.404H306.044C305.532 48.404 305.148 48.516 304.892 48.74C304.636 48.956 304.508 49.34 304.508 49.892V53H302.456V46.304H304.508V47.42ZM311.44 51.26V53H310.396C309.652 53 309.072 52.82 308.656 52.46C308.24 52.092 308.032 51.496 308.032 50.672V48.008H307.216V46.304H308.032V44.672H310.084V46.304H311.428V48.008H310.084V50.696C310.084 50.896 310.132 51.04 310.228 51.128C310.324 51.216 310.484 51.26 310.708 51.26H311.44ZM319.015 49.544C319.015 49.736 319.003 49.936 318.979 50.144H314.335C314.367 50.56 314.499 50.88 314.731 51.104C314.971 51.32 315.263 51.428 315.607 51.428C316.119 51.428 316.475 51.212 316.675 50.78H318.859C318.747 51.22 318.543 51.616 318.247 51.968C317.959 52.32 317.595 52.596 317.155 52.796C316.715 52.996 316.223 53.096 315.679 53.096C315.023 53.096 314.439 52.956 313.927 52.676C313.415 52.396 313.015 51.996 312.727 51.476C312.439 50.956 312.295 50.348 312.295 49.652C312.295 48.956 312.435 48.348 312.715 47.828C313.003 47.308 313.403 46.908 313.915 46.628C314.427 46.348 315.015 46.208 315.679 46.208C316.327 46.208 316.903 46.344 317.407 46.616C317.911 46.888 318.303 47.276 318.583 47.78C318.871 48.284 319.015 48.872 319.015 49.544ZM316.915 49.004C316.915 48.652 316.795 48.372 316.555 48.164C316.315 47.956 316.015 47.852 315.655 47.852C315.311 47.852 315.019 47.952 314.779 48.152C314.547 48.352 314.403 48.636 314.347 49.004H316.915ZM322.27 47.42C322.51 47.052 322.81 46.764 323.17 46.556C323.53 46.34 323.93 46.232 324.37 46.232V48.404H323.806C323.294 48.404 322.91 48.516 322.654 48.74C322.398 48.956 322.27 49.34 322.27 49.892V53H320.218V46.304H322.27V47.42ZM331.866 51.26V53H330.822C330.078 53 329.498 52.82 329.082 52.46C328.666 52.092 328.458 51.496 328.458 50.672V48.008H327.642V46.304H328.458V44.672H330.51V46.304H331.854V48.008H330.51V50.696C330.51 50.896 330.558 51.04 330.654 51.128C330.75 51.216 330.91 51.26 331.134 51.26H331.866ZM339.441 49.544C339.441 49.736 339.429 49.936 339.405 50.144H334.761C334.793 50.56 334.925 50.88 335.157 51.104C335.397 51.32 335.689 51.428 336.033 51.428C336.545 51.428 336.901 51.212 337.101 50.78H339.285C339.173 51.22 338.969 51.616 338.673 51.968C338.385 52.32 338.021 52.596 337.581 52.796C337.141 52.996 336.649 53.096 336.105 53.096C335.449 53.096 334.865 52.956 334.353 52.676C333.841 52.396 333.441 51.996 333.153 51.476C332.865 50.956 332.721 50.348 332.721 49.652C332.721 48.956 332.861 48.348 333.141 47.828C333.429 47.308 333.829 46.908 334.341 46.628C334.853 46.348 335.441 46.208 336.105 46.208C336.753 46.208 337.329 46.344 337.833 46.616C338.337 46.888 338.729 47.276 339.009 47.78C339.297 48.284 339.441 48.872 339.441 49.544ZM337.341 49.004C337.341 48.652 337.221 48.372 336.981 48.164C336.741 47.956 336.441 47.852 336.081 47.852C335.737 47.852 335.445 47.952 335.205 48.152C334.973 48.352 334.829 48.636 334.773 49.004H337.341ZM342.695 47.42C342.935 47.052 343.235 46.764 343.595 46.556C343.955 46.34 344.355 46.232 344.795 46.232V48.404H344.231C343.719 48.404 343.335 48.516 343.079 48.74C342.823 48.956 342.695 49.34 342.695 49.892V53H340.643V46.304H342.695V47.42ZM354.44 46.232C355.272 46.232 355.932 46.484 356.42 46.988C356.916 47.492 357.164 48.192 357.164 49.088V53H355.124V49.364C355.124 48.932 355.008 48.6 354.776 48.368C354.552 48.128 354.24 48.008 353.84 48.008C353.44 48.008 353.124 48.128 352.892 48.368C352.668 48.6 352.556 48.932 352.556 49.364V53H350.516V49.364C350.516 48.932 350.4 48.6 350.168 48.368C349.944 48.128 349.632 48.008 349.232 48.008C348.832 48.008 348.516 48.128 348.284 48.368C348.06 48.6 347.948 48.932 347.948 49.364V53H345.896V46.304H347.948V47.144C348.156 46.864 348.428 46.644 348.764 46.484C349.1 46.316 349.48 46.232 349.904 46.232C350.408 46.232 350.856 46.34 351.248 46.556C351.648 46.772 351.96 47.08 352.184 47.48C352.416 47.112 352.732 46.812 353.132 46.58C353.532 46.348 353.968 46.232 354.44 46.232ZM363.434 47.252C363.626 46.94 363.902 46.688 364.262 46.496C364.622 46.304 365.034 46.208 365.498 46.208C366.05 46.208 366.55 46.348 366.998 46.628C367.446 46.908 367.798 47.308 368.054 47.828C368.318 48.348 368.45 48.952 368.45 49.64C368.45 50.328 368.318 50.936 368.054 51.464C367.798 51.984 367.446 52.388 366.998 52.676C366.55 52.956 366.05 53.096 365.498 53.096C365.026 53.096 364.614 53.004 364.262 52.82C363.91 52.628 363.634 52.376 363.434 52.064V53H361.382V44.12H363.434V47.252ZM366.362 49.64C366.362 49.128 366.218 48.728 365.93 48.44C365.65 48.144 365.302 47.996 364.886 47.996C364.478 47.996 364.13 48.144 363.842 48.44C363.562 48.736 363.422 49.14 363.422 49.652C363.422 50.164 363.562 50.568 363.842 50.864C364.13 51.16 364.478 51.308 364.886 51.308C365.294 51.308 365.642 51.16 365.93 50.864C366.218 50.56 366.362 50.152 366.362 49.64ZM369.239 49.64C369.239 48.952 369.367 48.348 369.623 47.828C369.887 47.308 370.243 46.908 370.691 46.628C371.139 46.348 371.639 46.208 372.191 46.208C372.663 46.208 373.075 46.304 373.427 46.496C373.787 46.688 374.063 46.94 374.255 47.252V46.304H376.307V53H374.255V52.052C374.055 52.364 373.775 52.616 373.415 52.808C373.063 53 372.651 53.096 372.179 53.096C371.635 53.096 371.139 52.956 370.691 52.676C370.243 52.388 369.887 51.984 369.623 51.464C369.367 50.936 369.239 50.328 369.239 49.64ZM374.255 49.652C374.255 49.14 374.111 48.736 373.823 48.44C373.543 48.144 373.199 47.996 372.791 47.996C372.383 47.996 372.035 48.144 371.747 48.44C371.467 48.728 371.327 49.128 371.327 49.64C371.327 50.152 371.467 50.56 371.747 50.864C372.035 51.16 372.383 51.308 372.791 51.308C373.199 51.308 373.543 51.16 373.823 50.864C374.111 50.568 374.255 50.164 374.255 49.652ZM380.635 53.096C380.051 53.096 379.531 52.996 379.075 52.796C378.619 52.596 378.259 52.324 377.995 51.98C377.731 51.628 377.583 51.236 377.551 50.804H379.579C379.603 51.036 379.711 51.224 379.903 51.368C380.095 51.512 380.331 51.584 380.611 51.584C380.867 51.584 381.063 51.536 381.199 51.44C381.343 51.336 381.415 51.204 381.415 51.044C381.415 50.852 381.315 50.712 381.115 50.624C380.915 50.528 380.591 50.424 380.143 50.312C379.663 50.2 379.263 50.084 378.943 49.964C378.623 49.836 378.347 49.64 378.115 49.376C377.883 49.104 377.767 48.74 377.767 48.284C377.767 47.9 377.871 47.552 378.079 47.24C378.295 46.92 378.607 46.668 379.015 46.484C379.431 46.3 379.923 46.208 380.491 46.208C381.331 46.208 381.991 46.416 382.471 46.832C382.959 47.248 383.239 47.8 383.311 48.488H381.415C381.383 48.256 381.279 48.072 381.103 47.936C380.935 47.8 380.711 47.732 380.431 47.732C380.191 47.732 380.007 47.78 379.879 47.876C379.751 47.964 379.687 48.088 379.687 48.248C379.687 48.44 379.787 48.584 379.987 48.68C380.195 48.776 380.515 48.872 380.947 48.968C381.443 49.096 381.847 49.224 382.159 49.352C382.471 49.472 382.743 49.672 382.975 49.952C383.215 50.224 383.339 50.592 383.347 51.056C383.347 51.448 383.235 51.8 383.011 52.112C382.795 52.416 382.479 52.656 382.063 52.832C381.655 53.008 381.179 53.096 380.635 53.096ZM391.035 49.544C391.035 49.736 391.023 49.936 390.999 50.144H386.355C386.387 50.56 386.519 50.88 386.751 51.104C386.991 51.32 387.283 51.428 387.627 51.428C388.139 51.428 388.495 51.212 388.695 50.78H390.879C390.767 51.22 390.563 51.616 390.267 51.968C389.979 52.32 389.615 52.596 389.175 52.796C388.735 52.996 388.243 53.096 387.699 53.096C387.043 53.096 386.459 52.956 385.947 52.676C385.435 52.396 385.035 51.996 384.747 51.476C384.459 50.956 384.315 50.348 384.315 49.652C384.315 48.956 384.455 48.348 384.735 47.828C385.023 47.308 385.423 46.908 385.935 46.628C386.447 46.348 387.035 46.208 387.699 46.208C388.347 46.208 388.923 46.344 389.427 46.616C389.931 46.888 390.323 47.276 390.603 47.78C390.891 48.284 391.035 48.872 391.035 49.544ZM388.935 49.004C388.935 48.652 388.815 48.372 388.575 48.164C388.335 47.956 388.035 47.852 387.675 47.852C387.331 47.852 387.039 47.952 386.799 48.152C386.567 48.352 386.423 48.636 386.367 49.004H388.935ZM391.829 49.64C391.829 48.952 391.957 48.348 392.213 47.828C392.477 47.308 392.833 46.908 393.281 46.628C393.729 46.348 394.229 46.208 394.781 46.208C395.221 46.208 395.621 46.3 395.981 46.484C396.349 46.668 396.637 46.916 396.845 47.228V44.12H398.897V53H396.845V52.04C396.653 52.36 396.377 52.616 396.017 52.808C395.665 53 395.253 53.096 394.781 53.096C394.229 53.096 393.729 52.956 393.281 52.676C392.833 52.388 392.477 51.984 392.213 51.464C391.957 50.936 391.829 50.328 391.829 49.64ZM396.845 49.652C396.845 49.14 396.701 48.736 396.413 48.44C396.133 48.144 395.789 47.996 395.381 47.996C394.973 47.996 394.625 48.144 394.337 48.44C394.057 48.728 393.917 49.128 393.917 49.64C393.917 50.152 394.057 50.56 394.337 50.864C394.625 51.16 394.973 51.308 395.381 51.308C395.789 51.308 396.133 51.16 396.413 50.864C396.701 50.568 396.845 50.164 396.845 49.652ZM296.229 63.42C296.469 63.052 296.769 62.764 297.129 62.556C297.489 62.34 297.889 62.232 298.329 62.232V64.404H297.765C297.253 64.404 296.869 64.516 296.613 64.74C296.357 64.956 296.229 65.34 296.229 65.892V69H294.177V62.304H296.229V63.42ZM299.021 65.64C299.021 64.952 299.149 64.348 299.405 63.828C299.669 63.308 300.025 62.908 300.473 62.628C300.921 62.348 301.421 62.208 301.973 62.208C302.445 62.208 302.857 62.304 303.209 62.496C303.569 62.688 303.845 62.94 304.037 63.252V62.304H306.089V69H304.037V68.052C303.837 68.364 303.557 68.616 303.197 68.808C302.845 69 302.433 69.096 301.961 69.096C301.417 69.096 300.921 68.956 300.473 68.676C300.025 68.388 299.669 67.984 299.405 67.464C299.149 66.936 299.021 66.328 299.021 65.64ZM304.037 65.652C304.037 65.14 303.893 64.736 303.605 64.44C303.325 64.144 302.981 63.996 302.573 63.996C302.165 63.996 301.817 64.144 301.529 64.44C301.249 64.728 301.109 65.128 301.109 65.64C301.109 66.152 301.249 66.56 301.529 66.864C301.817 67.16 302.165 67.308 302.573 67.308C302.981 67.308 303.325 67.16 303.605 66.864C303.893 66.568 304.037 66.164 304.037 65.652ZM311.426 67.26V69H310.382C309.638 69 309.058 68.82 308.642 68.46C308.226 68.092 308.018 67.496 308.018 66.672V64.008H307.202V62.304H308.018V60.672H310.07V62.304H311.414V64.008H310.07V66.696C310.07 66.896 310.118 67.04 310.214 67.128C310.31 67.216 310.47 67.26 310.694 67.26H311.426ZM319.001 65.544C319.001 65.736 318.989 65.936 318.965 66.144H314.321C314.353 66.56 314.485 66.88 314.717 67.104C314.957 67.32 315.249 67.428 315.593 67.428C316.105 67.428 316.461 67.212 316.661 66.78H318.845C318.733 67.22 318.529 67.616 318.233 67.968C317.945 68.32 317.581 68.596 317.141 68.796C316.701 68.996 316.209 69.096 315.665 69.096C315.009 69.096 314.425 68.956 313.913 68.676C313.401 68.396 313.001 67.996 312.713 67.476C312.425 66.956 312.281 66.348 312.281 65.652C312.281 64.956 312.421 64.348 312.701 63.828C312.989 63.308 313.389 62.908 313.901 62.628C314.413 62.348 315.001 62.208 315.665 62.208C316.313 62.208 316.889 62.344 317.393 62.616C317.897 62.888 318.289 63.276 318.569 63.78C318.857 64.284 319.001 64.872 319.001 65.544ZM316.901 65.004C316.901 64.652 316.781 64.372 316.541 64.164C316.301 63.956 316.001 63.852 315.641 63.852C315.297 63.852 315.005 63.952 314.765 64.152C314.533 64.352 314.389 64.636 314.333 65.004H316.901ZM322.927 69.096C322.343 69.096 321.823 68.996 321.367 68.796C320.911 68.596 320.551 68.324 320.287 67.98C320.023 67.628 319.875 67.236 319.843 66.804H321.871C321.895 67.036 322.003 67.224 322.195 67.368C322.387 67.512 322.623 67.584 322.903 67.584C323.159 67.584 323.355 67.536 323.491 67.44C323.635 67.336 323.707 67.204 323.707 67.044C323.707 66.852 323.607 66.712 323.407 66.624C323.207 66.528 322.883 66.424 322.435 66.312C321.955 66.2 321.555 66.084 321.235 65.964C320.915 65.836 320.639 65.64 320.407 65.376C320.175 65.104 320.059 64.74 320.059 64.284C320.059 63.9 320.163 63.552 320.371 63.24C320.587 62.92 320.899 62.668 321.307 62.484C321.723 62.3 322.215 62.208 322.783 62.208C323.623 62.208 324.283 62.416 324.763 62.832C325.251 63.248 325.531 63.8 325.603 64.488H323.707C323.675 64.256 323.571 64.072 323.395 63.936C323.227 63.8 323.003 63.732 322.723 63.732C322.483 63.732 322.299 63.78 322.171 63.876C322.043 63.964 321.979 64.088 321.979 64.248C321.979 64.44 322.079 64.584 322.279 64.68C322.487 64.776 322.807 64.872 323.239 64.968C323.735 65.096 324.139 65.224 324.451 65.352C324.763 65.472 325.035 65.672 325.267 65.952C325.507 66.224 325.631 66.592 325.639 67.056C325.639 67.448 325.527 67.8 325.303 68.112C325.087 68.416 324.771 68.656 324.355 68.832C323.947 69.008 323.471 69.096 322.927 69.096ZM329.223 67.104L327.891 70.548H326.583L327.279 67.104H329.223ZM335.295 60.12V69H333.243V60.12H335.295ZM337.934 61.608C337.574 61.608 337.278 61.504 337.046 61.296C336.822 61.08 336.71 60.816 336.71 60.504C336.71 60.184 336.822 59.92 337.046 59.712C337.278 59.496 337.574 59.388 337.934 59.388C338.286 59.388 338.574 59.496 338.798 59.712C339.03 59.92 339.146 60.184 339.146 60.504C339.146 60.816 339.03 61.08 338.798 61.296C338.574 61.504 338.286 61.608 337.934 61.608ZM338.954 62.304V69H336.902V62.304H338.954ZM340.153 65.664C340.153 65 340.289 64.408 340.561 63.888C340.841 63.368 341.213 62.964 341.677 62.676C342.149 62.38 342.661 62.232 343.213 62.232C343.637 62.232 344.017 62.308 344.353 62.46C344.689 62.604 344.961 62.808 345.169 63.072V62.304H347.221V72.192H345.169V68.16C344.937 68.44 344.653 68.664 344.317 68.832C343.989 69 343.613 69.084 343.189 69.084C342.645 69.084 342.141 68.94 341.677 68.652C341.213 68.364 340.841 67.96 340.561 67.44C340.289 66.92 340.153 66.328 340.153 65.664ZM345.169 65.652C345.169 65.292 345.097 64.992 344.953 64.752C344.817 64.504 344.637 64.32 344.413 64.2C344.189 64.072 343.953 64.008 343.705 64.008C343.465 64.008 343.233 64.072 343.009 64.2C342.785 64.32 342.601 64.504 342.457 64.752C342.313 65 342.241 65.304 342.241 65.664C342.241 66.024 342.313 66.328 342.457 66.576C342.601 66.816 342.785 67 343.009 67.128C343.233 67.248 343.465 67.308 343.705 67.308C343.945 67.308 344.177 67.248 344.401 67.128C344.633 67 344.817 66.812 344.953 66.564C345.097 66.316 345.169 66.012 345.169 65.652ZM355.438 62.304V69H353.386V68.088C353.178 68.384 352.894 68.624 352.534 68.808C352.182 68.984 351.79 69.072 351.358 69.072C350.846 69.072 350.394 68.96 350.002 68.736C349.61 68.504 349.306 68.172 349.09 67.74C348.874 67.308 348.766 66.8 348.766 66.216V62.304H350.806V65.94C350.806 66.388 350.922 66.736 351.154 66.984C351.386 67.232 351.698 67.356 352.09 67.356C352.49 67.356 352.806 67.232 353.038 66.984C353.27 66.736 353.386 66.388 353.386 65.94V62.304H355.438ZM358.064 61.608C357.704 61.608 357.408 61.504 357.176 61.296C356.952 61.08 356.84 60.816 356.84 60.504C356.84 60.184 356.952 59.92 357.176 59.712C357.408 59.496 357.704 59.388 358.064 59.388C358.416 59.388 358.704 59.496 358.928 59.712C359.16 59.92 359.276 60.184 359.276 60.504C359.276 60.816 359.16 61.08 358.928 61.296C358.704 61.504 358.416 61.608 358.064 61.608ZM359.084 62.304V69H357.032V62.304H359.084ZM360.283 65.64C360.283 64.952 360.411 64.348 360.667 63.828C360.931 63.308 361.287 62.908 361.735 62.628C362.183 62.348 362.683 62.208 363.235 62.208C363.675 62.208 364.075 62.3 364.435 62.484C364.803 62.668 365.091 62.916 365.299 63.228V60.12H367.351V69H365.299V68.04C365.107 68.36 364.831 68.616 364.471 68.808C364.119 69 363.707 69.096 363.235 69.096C362.683 69.096 362.183 68.956 361.735 68.676C361.287 68.388 360.931 67.984 360.667 67.464C360.411 66.936 360.283 66.328 360.283 65.64ZM365.299 65.652C365.299 65.14 365.155 64.736 364.867 64.44C364.587 64.144 364.243 63.996 363.835 63.996C363.427 63.996 363.079 64.144 362.791 64.44C362.511 64.728 362.371 65.128 362.371 65.64C362.371 66.152 362.511 66.56 362.791 66.864C363.079 67.16 363.427 67.308 363.835 67.308C364.243 67.308 364.587 67.16 364.867 66.864C365.155 66.568 365.299 66.164 365.299 65.652ZM369.987 61.608C369.627 61.608 369.331 61.504 369.099 61.296C368.875 61.08 368.763 60.816 368.763 60.504C368.763 60.184 368.875 59.92 369.099 59.712C369.331 59.496 369.627 59.388 369.987 59.388C370.339 59.388 370.627 59.496 370.851 59.712C371.083 59.92 371.199 60.184 371.199 60.504C371.199 60.816 371.083 61.08 370.851 61.296C370.627 61.504 370.339 61.608 369.987 61.608ZM371.007 62.304V69H368.955V62.304H371.007ZM376.346 67.26V69H375.302C374.558 69 373.978 68.82 373.562 68.46C373.146 68.092 372.938 67.496 372.938 66.672V64.008H372.122V62.304H372.938V60.672H374.99V62.304H376.334V64.008H374.99V66.696C374.99 66.896 375.038 67.04 375.134 67.128C375.23 67.216 375.39 67.26 375.614 67.26H376.346ZM384.449 62.304L380.249 72.18H378.041L379.577 68.772L376.853 62.304H379.145L380.693 66.492L382.229 62.304H384.449ZM299.426 81.544C299.426 81.736 299.414 81.936 299.39 82.144H294.746C294.778 82.56 294.91 82.88 295.142 83.104C295.382 83.32 295.674 83.428 296.018 83.428C296.53 83.428 296.886 83.212 297.086 82.78H299.27C299.158 83.22 298.954 83.616 298.658 83.968C298.37 84.32 298.006 84.596 297.566 84.796C297.126 84.996 296.634 85.096 296.09 85.096C295.434 85.096 294.85 84.956 294.338 84.676C293.826 84.396 293.426 83.996 293.138 83.476C292.85 82.956 292.706 82.348 292.706 81.652C292.706 80.956 292.846 80.348 293.126 79.828C293.414 79.308 293.814 78.908 294.326 78.628C294.838 78.348 295.426 78.208 296.09 78.208C296.738 78.208 297.314 78.344 297.818 78.616C298.322 78.888 298.714 79.276 298.994 79.78C299.282 80.284 299.426 80.872 299.426 81.544ZM297.326 81.004C297.326 80.652 297.206 80.372 296.966 80.164C296.726 79.956 296.426 79.852 296.066 79.852C295.722 79.852 295.43 79.952 295.19 80.152C294.958 80.352 294.814 80.636 294.758 81.004H297.326ZM304.589 85L303.305 83.14L302.225 85H300.005L302.213 81.58L299.945 78.304H302.249L303.533 80.152L304.613 78.304H306.833L304.589 81.676L306.893 85H304.589ZM309.856 79.252C310.056 78.94 310.332 78.688 310.684 78.496C311.036 78.304 311.448 78.208 311.92 78.208C312.472 78.208 312.972 78.348 313.42 78.628C313.868 78.908 314.22 79.308 314.476 79.828C314.74 80.348 314.872 80.952 314.872 81.64C314.872 82.328 314.74 82.936 314.476 83.464C314.22 83.984 313.868 84.388 313.42 84.676C312.972 84.956 312.472 85.096 311.92 85.096C311.456 85.096 311.044 85 310.684 84.808C310.332 84.616 310.056 84.368 309.856 84.064V88.192H307.804V78.304H309.856V79.252ZM312.784 81.64C312.784 81.128 312.64 80.728 312.352 80.44C312.072 80.144 311.724 79.996 311.308 79.996C310.9 79.996 310.552 80.144 310.264 80.44C309.984 80.736 309.844 81.14 309.844 81.652C309.844 82.164 309.984 82.568 310.264 82.864C310.552 83.16 310.9 83.308 311.308 83.308C311.716 83.308 312.064 83.16 312.352 82.864C312.64 82.56 312.784 82.152 312.784 81.64ZM315.66 81.64C315.66 80.952 315.788 80.348 316.044 79.828C316.308 79.308 316.664 78.908 317.112 78.628C317.56 78.348 318.06 78.208 318.612 78.208C319.084 78.208 319.496 78.304 319.848 78.496C320.208 78.688 320.484 78.94 320.676 79.252V78.304H322.728V85H320.676V84.052C320.476 84.364 320.196 84.616 319.836 84.808C319.484 85 319.072 85.096 318.6 85.096C318.056 85.096 317.56 84.956 317.112 84.676C316.664 84.388 316.308 83.984 316.044 83.464C315.788 82.936 315.66 82.328 315.66 81.64ZM320.676 81.652C320.676 81.14 320.532 80.736 320.244 80.44C319.964 80.144 319.62 79.996 319.212 79.996C318.804 79.996 318.456 80.144 318.168 80.44C317.888 80.728 317.748 81.128 317.748 81.64C317.748 82.152 317.888 82.56 318.168 82.864C318.456 83.16 318.804 83.308 319.212 83.308C319.62 83.308 319.964 83.16 320.244 82.864C320.532 82.568 320.676 82.164 320.676 81.652ZM328.413 78.232C329.197 78.232 329.821 78.488 330.285 79C330.757 79.504 330.993 80.2 330.993 81.088V85H328.953V81.364C328.953 80.916 328.837 80.568 328.605 80.32C328.373 80.072 328.061 79.948 327.669 79.948C327.277 79.948 326.965 80.072 326.733 80.32C326.501 80.568 326.385 80.916 326.385 81.364V85H324.333V78.304H326.385V79.192C326.593 78.896 326.873 78.664 327.225 78.496C327.577 78.32 327.973 78.232 328.413 78.232ZM335.263 85.096C334.679 85.096 334.159 84.996 333.703 84.796C333.247 84.596 332.887 84.324 332.623 83.98C332.359 83.628 332.211 83.236 332.179 82.804H334.207C334.231 83.036 334.339 83.224 334.531 83.368C334.723 83.512 334.959 83.584 335.239 83.584C335.495 83.584 335.691 83.536 335.827 83.44C335.971 83.336 336.043 83.204 336.043 83.044C336.043 82.852 335.943 82.712 335.743 82.624C335.543 82.528 335.219 82.424 334.771 82.312C334.291 82.2 333.891 82.084 333.571 81.964C333.251 81.836 332.975 81.64 332.743 81.376C332.511 81.104 332.395 80.74 332.395 80.284C332.395 79.9 332.499 79.552 332.707 79.24C332.923 78.92 333.235 78.668 333.643 78.484C334.059 78.3 334.551 78.208 335.119 78.208C335.959 78.208 336.619 78.416 337.099 78.832C337.587 79.248 337.867 79.8 337.939 80.488H336.043C336.011 80.256 335.907 80.072 335.731 79.936C335.563 79.8 335.339 79.732 335.059 79.732C334.819 79.732 334.635 79.78 334.507 79.876C334.379 79.964 334.315 80.088 334.315 80.248C334.315 80.44 334.415 80.584 334.615 80.68C334.823 80.776 335.143 80.872 335.575 80.968C336.071 81.096 336.475 81.224 336.787 81.352C337.099 81.472 337.371 81.672 337.603 81.952C337.843 82.224 337.967 82.592 337.975 83.056C337.975 83.448 337.863 83.8 337.639 84.112C337.423 84.416 337.107 84.656 336.691 84.832C336.283 85.008 335.807 85.096 335.263 85.096ZM340.382 77.608C340.022 77.608 339.726 77.504 339.494 77.296C339.27 77.08 339.158 76.816 339.158 76.504C339.158 76.184 339.27 75.92 339.494 75.712C339.726 75.496 340.022 75.388 340.382 75.388C340.734 75.388 341.022 75.496 341.246 75.712C341.478 75.92 341.594 76.184 341.594 76.504C341.594 76.816 341.478 77.08 341.246 77.296C341.022 77.504 340.734 77.608 340.382 77.608ZM341.402 78.304V85H339.35V78.304H341.402ZM346.057 85.096C345.401 85.096 344.809 84.956 344.281 84.676C343.761 84.396 343.349 83.996 343.045 83.476C342.749 82.956 342.601 82.348 342.601 81.652C342.601 80.964 342.753 80.36 343.057 79.84C343.361 79.312 343.777 78.908 344.305 78.628C344.833 78.348 345.425 78.208 346.081 78.208C346.737 78.208 347.329 78.348 347.857 78.628C348.385 78.908 348.801 79.312 349.105 79.84C349.409 80.36 349.561 80.964 349.561 81.652C349.561 82.34 349.405 82.948 349.093 83.476C348.789 83.996 348.369 84.396 347.833 84.676C347.305 84.956 346.713 85.096 346.057 85.096ZM346.057 83.32C346.449 83.32 346.781 83.176 347.053 82.888C347.333 82.6 347.473 82.188 347.473 81.652C347.473 81.116 347.337 80.704 347.065 80.416C346.801 80.128 346.473 79.984 346.081 79.984C345.681 79.984 345.349 80.128 345.085 80.416C344.821 80.696 344.689 81.108 344.689 81.652C344.689 82.188 344.817 82.6 345.073 82.888C345.337 83.176 345.665 83.32 346.057 83.32ZM354.85 78.232C355.634 78.232 356.258 78.488 356.722 79C357.194 79.504 357.43 80.2 357.43 81.088V85H355.39V81.364C355.39 80.916 355.274 80.568 355.042 80.32C354.81 80.072 354.498 79.948 354.106 79.948C353.714 79.948 353.402 80.072 353.17 80.32C352.938 80.568 352.822 80.916 352.822 81.364V85H350.77V78.304H352.822V79.192C353.03 78.896 353.31 78.664 353.662 78.496C354.014 78.32 354.41 78.232 354.85 78.232ZM361.231 81.64C361.231 80.952 361.359 80.348 361.615 79.828C361.879 79.308 362.235 78.908 362.683 78.628C363.131 78.348 363.631 78.208 364.183 78.208C364.655 78.208 365.067 78.304 365.419 78.496C365.779 78.688 366.055 78.94 366.247 79.252V78.304H368.299V85H366.247V84.052C366.047 84.364 365.767 84.616 365.407 84.808C365.055 85 364.643 85.096 364.171 85.096C363.627 85.096 363.131 84.956 362.683 84.676C362.235 84.388 361.879 83.984 361.615 83.464C361.359 82.936 361.231 82.328 361.231 81.64ZM366.247 81.652C366.247 81.14 366.103 80.736 365.815 80.44C365.535 80.144 365.191 79.996 364.783 79.996C364.375 79.996 364.027 80.144 363.739 80.44C363.459 80.728 363.319 81.128 363.319 81.64C363.319 82.152 363.459 82.56 363.739 82.864C364.027 83.16 364.375 83.308 364.783 83.308C365.191 83.308 365.535 83.16 365.815 82.864C366.103 82.568 366.247 82.164 366.247 81.652ZM373.983 78.232C374.767 78.232 375.391 78.488 375.855 79C376.327 79.504 376.563 80.2 376.563 81.088V85H374.523V81.364C374.523 80.916 374.407 80.568 374.175 80.32C373.943 80.072 373.631 79.948 373.239 79.948C372.847 79.948 372.535 80.072 372.303 80.32C372.071 80.568 371.955 80.916 371.955 81.364V85H369.903V78.304H371.955V79.192C372.163 78.896 372.443 78.664 372.795 78.496C373.147 78.32 373.543 78.232 373.983 78.232ZM377.701 81.64C377.701 80.952 377.829 80.348 378.085 79.828C378.349 79.308 378.705 78.908 379.153 78.628C379.601 78.348 380.101 78.208 380.653 78.208C381.093 78.208 381.493 78.3 381.853 78.484C382.221 78.668 382.509 78.916 382.717 79.228V76.12H384.769V85H382.717V84.04C382.525 84.36 382.249 84.616 381.889 84.808C381.537 85 381.125 85.096 380.653 85.096C380.101 85.096 379.601 84.956 379.153 84.676C378.705 84.388 378.349 83.984 378.085 83.464C377.829 82.936 377.701 82.328 377.701 81.64ZM382.717 81.652C382.717 81.14 382.573 80.736 382.285 80.44C382.005 80.144 381.661 79.996 381.253 79.996C380.845 79.996 380.497 80.144 380.209 80.44C379.929 80.728 379.789 81.128 379.789 81.64C379.789 82.152 379.929 82.56 380.209 82.864C380.497 83.16 380.845 83.308 381.253 83.308C381.661 83.308 382.005 83.16 382.285 82.864C382.573 82.568 382.717 82.164 382.717 81.652ZM291.356 93.608C290.996 93.608 290.7 93.504 290.468 93.296C290.244 93.08 290.132 92.816 290.132 92.504C290.132 92.184 290.244 91.92 290.468 91.712C290.7 91.496 290.996 91.388 291.356 91.388C291.708 91.388 291.996 91.496 292.22 91.712C292.452 91.92 292.568 92.184 292.568 92.504C292.568 92.816 292.452 93.08 292.22 93.296C291.996 93.504 291.708 93.608 291.356 93.608ZM292.376 94.304V101H290.324V94.304H292.376ZM298.063 94.232C298.847 94.232 299.471 94.488 299.935 95C300.407 95.504 300.643 96.2 300.643 97.088V101H298.603V97.364C298.603 96.916 298.487 96.568 298.255 96.32C298.023 96.072 297.711 95.948 297.319 95.948C296.927 95.948 296.615 96.072 296.383 96.32C296.151 96.568 296.035 96.916 296.035 97.364V101H293.983V94.304H296.035V95.192C296.243 94.896 296.523 94.664 296.875 94.496C297.227 94.32 297.623 94.232 298.063 94.232ZM305.921 99.26V101H304.877C304.133 101 303.553 100.82 303.137 100.46C302.721 100.092 302.513 99.496 302.513 98.672V96.008H301.697V94.304H302.513V92.672H304.565V94.304H305.909V96.008H304.565V98.696C304.565 98.896 304.613 99.04 304.709 99.128C304.805 99.216 304.965 99.26 305.189 99.26H305.921ZM313.496 97.544C313.496 97.736 313.484 97.936 313.46 98.144H308.816C308.848 98.56 308.98 98.88 309.212 99.104C309.452 99.32 309.744 99.428 310.088 99.428C310.6 99.428 310.956 99.212 311.156 98.78H313.34C313.228 99.22 313.024 99.616 312.728 99.968C312.44 100.32 312.076 100.596 311.636 100.796C311.196 100.996 310.704 101.096 310.16 101.096C309.504 101.096 308.92 100.956 308.408 100.676C307.896 100.396 307.496 99.996 307.208 99.476C306.92 98.956 306.776 98.348 306.776 97.652C306.776 96.956 306.916 96.348 307.196 95.828C307.484 95.308 307.884 94.908 308.396 94.628C308.908 94.348 309.496 94.208 310.16 94.208C310.808 94.208 311.384 94.344 311.888 94.616C312.392 94.888 312.784 95.276 313.064 95.78C313.352 96.284 313.496 96.872 313.496 97.544ZM311.396 97.004C311.396 96.652 311.276 96.372 311.036 96.164C310.796 95.956 310.496 95.852 310.136 95.852C309.792 95.852 309.5 95.952 309.26 96.152C309.028 96.352 308.884 96.636 308.828 97.004H311.396ZM316.75 95.42C316.99 95.052 317.29 94.764 317.65 94.556C318.01 94.34 318.41 94.232 318.85 94.232V96.404H318.286C317.774 96.404 317.39 96.516 317.134 96.74C316.878 96.956 316.75 97.34 316.75 97.892V101H314.698V94.304H316.75V95.42ZM326.263 97.544C326.263 97.736 326.251 97.936 326.227 98.144H321.583C321.615 98.56 321.747 98.88 321.979 99.104C322.219 99.32 322.511 99.428 322.855 99.428C323.367 99.428 323.723 99.212 323.923 98.78H326.107C325.995 99.22 325.791 99.616 325.495 99.968C325.207 100.32 324.843 100.596 324.403 100.796C323.963 100.996 323.471 101.096 322.927 101.096C322.271 101.096 321.687 100.956 321.175 100.676C320.663 100.396 320.263 99.996 319.975 99.476C319.687 98.956 319.543 98.348 319.543 97.652C319.543 96.956 319.683 96.348 319.963 95.828C320.251 95.308 320.651 94.908 321.163 94.628C321.675 94.348 322.263 94.208 322.927 94.208C323.575 94.208 324.151 94.344 324.655 94.616C325.159 94.888 325.551 95.276 325.831 95.78C326.119 96.284 326.263 96.872 326.263 97.544ZM324.163 97.004C324.163 96.652 324.043 96.372 323.803 96.164C323.563 95.956 323.263 95.852 322.903 95.852C322.559 95.852 322.267 95.952 322.027 96.152C321.795 96.352 321.651 96.636 321.595 97.004H324.163ZM330.19 101.096C329.606 101.096 329.086 100.996 328.63 100.796C328.174 100.596 327.814 100.324 327.55 99.98C327.286 99.628 327.138 99.236 327.106 98.804H329.134C329.158 99.036 329.266 99.224 329.458 99.368C329.65 99.512 329.886 99.584 330.166 99.584C330.422 99.584 330.618 99.536 330.754 99.44C330.898 99.336 330.97 99.204 330.97 99.044C330.97 98.852 330.87 98.712 330.67 98.624C330.47 98.528 330.146 98.424 329.698 98.312C329.218 98.2 328.818 98.084 328.498 97.964C328.178 97.836 327.902 97.64 327.67 97.376C327.438 97.104 327.322 96.74 327.322 96.284C327.322 95.9 327.426 95.552 327.634 95.24C327.85 94.92 328.162 94.668 328.57 94.484C328.986 94.3 329.478 94.208 330.046 94.208C330.886 94.208 331.546 94.416 332.026 94.832C332.514 95.248 332.794 95.8 332.866 96.488H330.97C330.938 96.256 330.834 96.072 330.658 95.936C330.49 95.8 330.266 95.732 329.986 95.732C329.746 95.732 329.562 95.78 329.434 95.876C329.306 95.964 329.242 96.088 329.242 96.248C329.242 96.44 329.342 96.584 329.542 96.68C329.75 96.776 330.07 96.872 330.502 96.968C330.998 97.096 331.402 97.224 331.714 97.352C332.026 97.472 332.298 97.672 332.53 97.952C332.77 98.224 332.894 98.592 332.902 99.056C332.902 99.448 332.79 99.8 332.566 100.112C332.35 100.416 332.034 100.656 331.618 100.832C331.21 101.008 330.734 101.096 330.19 101.096ZM338.009 99.26V101H336.965C336.221 101 335.641 100.82 335.225 100.46C334.809 100.092 334.601 99.496 334.601 98.672V96.008H333.785V94.304H334.601V92.672H336.653V94.304H337.997V96.008H336.653V98.696C336.653 98.896 336.701 99.04 336.797 99.128C336.893 99.216 337.053 99.26 337.277 99.26H338.009ZM342.967 93.608C342.607 93.608 342.311 93.504 342.079 93.296C341.855 93.08 341.743 92.816 341.743 92.504C341.743 92.184 341.855 91.92 342.079 91.712C342.311 91.496 342.607 91.388 342.967 91.388C343.319 91.388 343.607 91.496 343.831 91.712C344.063 91.92 344.179 92.184 344.179 92.504C344.179 92.816 344.063 93.08 343.831 93.296C343.607 93.504 343.319 93.608 342.967 93.608ZM343.987 94.304V101H341.935V94.304H343.987ZM349.674 94.232C350.458 94.232 351.082 94.488 351.546 95C352.018 95.504 352.254 96.2 352.254 97.088V101H350.214V97.364C350.214 96.916 350.098 96.568 349.866 96.32C349.634 96.072 349.322 95.948 348.93 95.948C348.538 95.948 348.226 96.072 347.994 96.32C347.762 96.568 347.646 96.916 347.646 97.364V101H345.594V94.304H347.646V95.192C347.854 94.896 348.134 94.664 348.486 94.496C348.838 94.32 349.234 94.232 349.674 94.232ZM353.392 97.652C353.392 96.956 353.532 96.348 353.812 95.828C354.1 95.308 354.496 94.908 355 94.628C355.512 94.348 356.096 94.208 356.752 94.208C357.592 94.208 358.292 94.428 358.852 94.868C359.42 95.308 359.792 95.928 359.968 96.728H357.784C357.6 96.216 357.244 95.96 356.716 95.96C356.34 95.96 356.04 96.108 355.816 96.404C355.592 96.692 355.48 97.108 355.48 97.652C355.48 98.196 355.592 98.616 355.816 98.912C356.04 99.2 356.34 99.344 356.716 99.344C357.244 99.344 357.6 99.088 357.784 98.576H359.968C359.792 99.36 359.42 99.976 358.852 100.424C358.284 100.872 357.584 101.096 356.752 101.096C356.096 101.096 355.512 100.956 355 100.676C354.496 100.396 354.1 99.996 353.812 99.476C353.532 98.956 353.392 98.348 353.392 97.652ZM364.234 101.096C363.578 101.096 362.986 100.956 362.458 100.676C361.938 100.396 361.526 99.996 361.222 99.476C360.926 98.956 360.778 98.348 360.778 97.652C360.778 96.964 360.93 96.36 361.234 95.84C361.538 95.312 361.954 94.908 362.482 94.628C363.01 94.348 363.602 94.208 364.258 94.208C364.914 94.208 365.506 94.348 366.034 94.628C366.562 94.908 366.978 95.312 367.282 95.84C367.586 96.36 367.738 96.964 367.738 97.652C367.738 98.34 367.582 98.948 367.27 99.476C366.966 99.996 366.546 100.396 366.01 100.676C365.482 100.956 364.89 101.096 364.234 101.096ZM364.234 99.32C364.626 99.32 364.958 99.176 365.23 98.888C365.51 98.6 365.65 98.188 365.65 97.652C365.65 97.116 365.514 96.704 365.242 96.416C364.978 96.128 364.65 95.984 364.258 95.984C363.858 95.984 363.526 96.128 363.262 96.416C362.998 96.696 362.866 97.108 362.866 97.652C362.866 98.188 362.994 98.6 363.25 98.888C363.514 99.176 363.842 99.32 364.234 99.32ZM377.49 94.232C378.322 94.232 378.982 94.484 379.47 94.988C379.966 95.492 380.214 96.192 380.214 97.088V101H378.174V97.364C378.174 96.932 378.058 96.6 377.826 96.368C377.602 96.128 377.29 96.008 376.89 96.008C376.49 96.008 376.174 96.128 375.942 96.368C375.718 96.6 375.606 96.932 375.606 97.364V101H373.566V97.364C373.566 96.932 373.45 96.6 373.218 96.368C372.994 96.128 372.682 96.008 372.282 96.008C371.882 96.008 371.566 96.128 371.334 96.368C371.11 96.6 370.998 96.932 370.998 97.364V101H368.946V94.304H370.998V95.144C371.206 94.864 371.478 94.644 371.814 94.484C372.15 94.316 372.53 94.232 372.954 94.232C373.458 94.232 373.906 94.34 374.298 94.556C374.698 94.772 375.01 95.08 375.234 95.48C375.466 95.112 375.782 94.812 376.182 94.58C376.582 94.348 377.018 94.232 377.49 94.232ZM388.082 97.544C388.082 97.736 388.07 97.936 388.046 98.144H383.402C383.434 98.56 383.566 98.88 383.798 99.104C384.038 99.32 384.33 99.428 384.674 99.428C385.186 99.428 385.542 99.212 385.742 98.78H387.926C387.814 99.22 387.61 99.616 387.314 99.968C387.026 100.32 386.662 100.596 386.222 100.796C385.782 100.996 385.29 101.096 384.746 101.096C384.09 101.096 383.506 100.956 382.994 100.676C382.482 100.396 382.082 99.996 381.794 99.476C381.506 98.956 381.362 98.348 381.362 97.652C381.362 96.956 381.502 96.348 381.782 95.828C382.07 95.308 382.47 94.908 382.982 94.628C383.494 94.348 384.082 94.208 384.746 94.208C385.394 94.208 385.97 94.344 386.474 94.616C386.978 94.888 387.37 95.276 387.65 95.78C387.938 96.284 388.082 96.872 388.082 97.544ZM385.982 97.004C385.982 96.652 385.862 96.372 385.622 96.164C385.382 95.956 385.082 95.852 384.722 95.852C384.378 95.852 384.086 95.952 383.846 96.152C383.614 96.352 383.47 96.636 383.414 97.004H385.982Z" fill="white"/>
<path d="M207 420V493H116" stroke="#41F9CD" stroke-width="1.37106" stroke-dasharray="6.86 6.86"/>
<path d="M93.6378 519.276C108.349 519.276 120.276 507.35 120.276 492.638C120.276 477.926 108.349 466 93.6378 466C78.9262 466 67 477.926 67 492.638C67 507.35 78.9262 519.276 93.6378 519.276Z" fill="url(#paint37_linear)"/>
<path d="M81.7383 491.033L90.904 501.784" stroke="white" stroke-width="5" stroke-linecap="round" stroke-linejoin="round"/>
<path d="M106.568 481.409L90.9471 501.701" stroke="white" stroke-width="5" stroke-linecap="round" stroke-linejoin="round"/>
</g>
<defs>
<filter id="filter0_f" x="-167.17" y="-139.016" width="748.154" height="748.154" filterUnits="userSpaceOnUse" color-interpolation-filters="sRGB">
<feFlood flood-opacity="0" result="BackgroundImageFix"/>
<feBlend mode="normal" in="SourceGraphic" in2="BackgroundImageFix" result="shape"/>
<feGaussianBlur stdDeviation="100" result="effect1_foregroundBlur"/>
</filter>
<filter id="filter1_ddd" x="274.914" y="279.961" width="135.007" height="153.59" filterUnits="userSpaceOnUse" color-interpolation-filters="sRGB">
<feFlood flood-opacity="0" result="BackgroundImageFix"/>
<feColorMatrix in="SourceAlpha" type="matrix" values="0 0 0 0 0 0 0 0 0 0 0 0 0 0 0 0 0 0 127 0"/>
<feOffset dy="20.5866"/>
<feGaussianBlur stdDeviation="13.4261"/>
<feColorMatrix type="matrix" values="0 0 0 0 0 0 0 0 0 0.0876457 0 0 0 0 0.391667 0 0 0 0.05 0"/>
<feBlend mode="normal" in2="BackgroundImageFix" result="effect1_dropShadow"/>
<feColorMatrix in="SourceAlpha" type="matrix" values="0 0 0 0 0 0 0 0 0 0 0 0 0 0 0 0 0 0 127 0"/>
<feOffset dy="42.0684"/>
<feGaussianBlur stdDeviation="2.68521"/>
<feColorMatrix type="matrix" values="0 0 0 0 0.121569 0 0 0 0 0.247059 0 0 0 0 0.682353 0 0 0 0.02 0"/>
<feBlend mode="normal" in2="effect1_dropShadow" result="effect2_dropShadow"/>
<feColorMatrix in="SourceAlpha" type="matrix" values="0 0 0 0 0 0 0 0 0 0 0 0 0 0 0 0 0 0 127 0"/>
<feOffset dy="51.0191"/>
<feGaussianBlur stdDeviation="8.95072"/>
<feColorMatrix type="matrix" values="0 0 0 0 0.121569 0 0 0 0 0.247059 0 0 0 0 0.682353 0 0 0 0.02 0"/>
<feBlend mode="normal" in2="effect2_dropShadow" result="effect3_dropShadow"/>
<feBlend mode="normal" in="SourceGraphic" in2="effect3_dropShadow" result="shape"/>
</filter>
<filter id="filter2_ddd" x="8.34013" y="279.961" width="135.007" height="153.59" filterUnits="userSpaceOnUse" color-interpolation-filters="sRGB">
<feFlood flood-opacity="0" result="BackgroundImageFix"/>
<feColorMatrix in="SourceAlpha" type="matrix" values="0 0 0 0 0 0 0 0 0 0 0 0 0 0 0 0 0 0 127 0"/>
<feOffset dy="20.5866"/>
<feGaussianBlur stdDeviation="13.4261"/>
<feColorMatrix type="matrix" values="0 0 0 0 0 0 0 0 0 0.0876457 0 0 0 0 0.391667 0 0 0 0.05 0"/>
<feBlend mode="normal" in2="BackgroundImageFix" result="effect1_dropShadow"/>
<feColorMatrix in="SourceAlpha" type="matrix" values="0 0 0 0 0 0 0 0 0 0 0 0 0 0 0 0 0 0 127 0"/>
<feOffset dy="42.0684"/>
<feGaussianBlur stdDeviation="2.68521"/>
<feColorMatrix type="matrix" values="0 0 0 0 0.121569 0 0 0 0 0.247059 0 0 0 0 0.682353 0 0 0 0.02 0"/>
<feBlend mode="normal" in2="effect1_dropShadow" result="effect2_dropShadow"/>
<feColorMatrix in="SourceAlpha" type="matrix" values="0 0 0 0 0 0 0 0 0 0 0 0 0 0 0 0 0 0 127 0"/>
<feOffset dy="51.0191"/>
<feGaussianBlur stdDeviation="8.95072"/>
<feColorMatrix type="matrix" values="0 0 0 0 0.121569 0 0 0 0 0.247059 0 0 0 0 0.682353 0 0 0 0.02 0"/>
<feBlend mode="normal" in2="effect2_dropShadow" result="effect3_dropShadow"/>
<feBlend mode="normal" in="SourceGraphic" in2="effect3_dropShadow" result="shape"/>
</filter>
<filter id="filter3_ddd" x="282.827" y="113.797" width="135.007" height="153.59" filterUnits="userSpaceOnUse" color-interpolation-filters="sRGB">
<feFlood flood-opacity="0" result="BackgroundImageFix"/>
<feColorMatrix in="SourceAlpha" type="matrix" values="0 0 0 0 0 0 0 0 0 0 0 0 0 0 0 0 0 0 127 0"/>
<feOffset dy="20.5866"/>
<feGaussianBlur stdDeviation="13.4261"/>
<feColorMatrix type="matrix" values="0 0 0 0 0 0 0 0 0 0.0876457 0 0 0 0 0.391667 0 0 0 0.05 0"/>
<feBlend mode="normal" in2="BackgroundImageFix" result="effect1_dropShadow"/>
<feColorMatrix in="SourceAlpha" type="matrix" values="0 0 0 0 0 0 0 0 0 0 0 0 0 0 0 0 0 0 127 0"/>
<feOffset dy="42.0684"/>
<feGaussianBlur stdDeviation="2.68521"/>
<feColorMatrix type="matrix" values="0 0 0 0 0.121569 0 0 0 0 0.247059 0 0 0 0 0.682353 0 0 0 0.02 0"/>
<feBlend mode="normal" in2="effect1_dropShadow" result="effect2_dropShadow"/>
<feColorMatrix in="SourceAlpha" type="matrix" values="0 0 0 0 0 0 0 0 0 0 0 0 0 0 0 0 0 0 127 0"/>
<feOffset dy="51.0191"/>
<feGaussianBlur stdDeviation="8.95072"/>
<feColorMatrix type="matrix" values="0 0 0 0 0.121569 0 0 0 0 0.247059 0 0 0 0 0.682353 0 0 0 0.02 0"/>
<feBlend mode="normal" in2="effect2_dropShadow" result="effect3_dropShadow"/>
<feBlend mode="normal" in="SourceGraphic" in2="effect3_dropShadow" result="shape"/>
</filter>
<filter id="filter4_ddd" x="-1.94695" y="113.797" width="135.007" height="153.59" filterUnits="userSpaceOnUse" color-interpolation-filters="sRGB">
<feFlood flood-opacity="0" result="BackgroundImageFix"/>
<feColorMatrix in="SourceAlpha" type="matrix" values="0 0 0 0 0 0 0 0 0 0 0 0 0 0 0 0 0 0 127 0"/>
<feOffset dy="20.5866"/>
<feGaussianBlur stdDeviation="13.4261"/>
<feColorMatrix type="matrix" values="0 0 0 0 0 0 0 0 0 0.0876457 0 0 0 0 0.391667 0 0 0 0.05 0"/>
<feBlend mode="normal" in2="BackgroundImageFix" result="effect1_dropShadow"/>
<feColorMatrix in="SourceAlpha" type="matrix" values="0 0 0 0 0 0 0 0 0 0 0 0 0 0 0 0 0 0 127 0"/>
<feOffset dy="42.0684"/>
<feGaussianBlur stdDeviation="2.68521"/>
<feColorMatrix type="matrix" values="0 0 0 0 0.121569 0 0 0 0 0.247059 0 0 0 0 0.682353 0 0 0 0.02 0"/>
<feBlend mode="normal" in2="effect1_dropShadow" result="effect2_dropShadow"/>
<feColorMatrix in="SourceAlpha" type="matrix" values="0 0 0 0 0 0 0 0 0 0 0 0 0 0 0 0 0 0 127 0"/>
<feOffset dy="51.0191"/>
<feGaussianBlur stdDeviation="8.95072"/>
<feColorMatrix type="matrix" values="0 0 0 0 0.121569 0 0 0 0 0.247059 0 0 0 0 0.682353 0 0 0 0.02 0"/>
<feBlend mode="normal" in2="effect2_dropShadow" result="effect3_dropShadow"/>
<feBlend mode="normal" in="SourceGraphic" in2="effect3_dropShadow" result="shape"/>
</filter>
<filter id="filter5_ddd" x="139.649" y="339.265" width="135.007" height="153.59" filterUnits="userSpaceOnUse" color-interpolation-filters="sRGB">
<feFlood flood-opacity="0" result="BackgroundImageFix"/>
<feColorMatrix in="SourceAlpha" type="matrix" values="0 0 0 0 0 0 0 0 0 0 0 0 0 0 0 0 0 0 127 0"/>
<feOffset dy="20.5866"/>
<feGaussianBlur stdDeviation="13.4261"/>
<feColorMatrix type="matrix" values="0 0 0 0 0 0 0 0 0 0.0876457 0 0 0 0 0.391667 0 0 0 0.05 0"/>
<feBlend mode="normal" in2="BackgroundImageFix" result="effect1_dropShadow"/>
<feColorMatrix in="SourceAlpha" type="matrix" values="0 0 0 0 0 0 0 0 0 0 0 0 0 0 0 0 0 0 127 0"/>
<feOffset dy="42.0684"/>
<feGaussianBlur stdDeviation="2.68521"/>
<feColorMatrix type="matrix" values="0 0 0 0 0.121569 0 0 0 0 0.247059 0 0 0 0 0.682353 0 0 0 0.02 0"/>
<feBlend mode="normal" in2="effect1_dropShadow" result="effect2_dropShadow"/>
<feColorMatrix in="SourceAlpha" type="matrix" values="0 0 0 0 0 0 0 0 0 0 0 0 0 0 0 0 0 0 127 0"/>
<feOffset dy="51.0191"/>
<feGaussianBlur stdDeviation="8.95072"/>
<feColorMatrix type="matrix" values="0 0 0 0 0.121569 0 0 0 0 0.247059 0 0 0 0 0.682353 0 0 0 0.02 0"/>
<feBlend mode="normal" in2="effect2_dropShadow" result="effect3_dropShadow"/>
<feBlend mode="normal" in="SourceGraphic" in2="effect3_dropShadow" result="shape"/>
</filter>
<linearGradient id="paint0_linear" x1="207.44" y1="192.378" x2="207.44" y2="267.926" gradientUnits="userSpaceOnUse">
<stop stop-color="#5CEFFF"/>
<stop offset="0.90625" stop-color="#0A88E3"/>
</linearGradient>
<linearGradient id="paint1_linear" x1="207.44" y1="51.144" x2="207.44" y2="125.914" gradientUnits="userSpaceOnUse">
<stop stop-color="#5CEFFF"/>
<stop offset="0.90625" stop-color="#0A88E3"/>
</linearGradient>
<linearGradient id="paint2_linear" x1="342.254" y1="305.483" x2="342.254" y2="371.158" gradientUnits="userSpaceOnUse">
<stop stop-color="#E0C3FC"/>
<stop offset="1" stop-color="#8EC5FC"/>
</linearGradient>
<linearGradient id="paint3_linear" x1="342.254" y1="305.483" x2="342.254" y2="371.158" gradientUnits="userSpaceOnUse">
<stop stop-color="#E0C3FC"/>
<stop offset="1" stop-color="#8EC5FC"/>
</linearGradient>
<linearGradient id="paint4_linear" x1="342.254" y1="305.483" x2="342.254" y2="371.158" gradientUnits="userSpaceOnUse">
<stop stop-color="#E0C3FC"/>
<stop offset="1" stop-color="#8EC5FC"/>
</linearGradient>
<linearGradient id="paint5_linear" x1="342.254" y1="305.483" x2="342.254" y2="371.158" gradientUnits="userSpaceOnUse">
<stop stop-color="#E0C3FC"/>
<stop offset="1" stop-color="#8EC5FC"/>
</linearGradient>
<linearGradient id="paint6_linear" x1="342.254" y1="305.483" x2="342.254" y2="371.157" gradientUnits="userSpaceOnUse">
<stop stop-color="#E0C3FC"/>
<stop offset="1" stop-color="#8EC5FC"/>
</linearGradient>
<linearGradient id="paint7_linear" x1="342.254" y1="305.483" x2="342.254" y2="371.158" gradientUnits="userSpaceOnUse">
<stop stop-color="#E0C3FC"/>
<stop offset="1" stop-color="#8EC5FC"/>
</linearGradient>
<linearGradient id="paint8_linear" x1="342.254" y1="305.483" x2="342.254" y2="371.158" gradientUnits="userSpaceOnUse">
<stop stop-color="#E0C3FC"/>
<stop offset="1" stop-color="#8EC5FC"/>
</linearGradient>
<linearGradient id="paint9_linear" x1="75.6807" y1="305.483" x2="75.6807" y2="371.158" gradientUnits="userSpaceOnUse">
<stop stop-color="#E0C3FC"/>
<stop offset="1" stop-color="#8EC5FC"/>
</linearGradient>
<linearGradient id="paint10_linear" x1="75.6807" y1="305.483" x2="75.6807" y2="371.158" gradientUnits="userSpaceOnUse">
<stop stop-color="#E0C3FC"/>
<stop offset="1" stop-color="#8EC5FC"/>
</linearGradient>
<linearGradient id="paint11_linear" x1="75.6807" y1="305.483" x2="75.6807" y2="371.158" gradientUnits="userSpaceOnUse">
<stop stop-color="#E0C3FC"/>
<stop offset="1" stop-color="#8EC5FC"/>
</linearGradient>
<linearGradient id="paint12_linear" x1="75.6807" y1="305.483" x2="75.6807" y2="371.158" gradientUnits="userSpaceOnUse">
<stop stop-color="#E0C3FC"/>
<stop offset="1" stop-color="#8EC5FC"/>
</linearGradient>
<linearGradient id="paint13_linear" x1="75.6807" y1="305.483" x2="75.6807" y2="371.157" gradientUnits="userSpaceOnUse">
<stop stop-color="#E0C3FC"/>
<stop offset="1" stop-color="#8EC5FC"/>
</linearGradient>
<linearGradient id="paint14_linear" x1="75.6807" y1="305.483" x2="75.6807" y2="371.158" gradientUnits="userSpaceOnUse">
<stop stop-color="#E0C3FC"/>
<stop offset="1" stop-color="#8EC5FC"/>
</linearGradient>
<linearGradient id="paint15_linear" x1="75.6807" y1="305.483" x2="75.6807" y2="371.158" gradientUnits="userSpaceOnUse">
<stop stop-color="#E0C3FC"/>
<stop offset="1" stop-color="#8EC5FC"/>
</linearGradient>
<linearGradient id="paint16_linear" x1="350.168" y1="139.319" x2="350.168" y2="204.993" gradientUnits="userSpaceOnUse">
<stop stop-color="#E0C3FC"/>
<stop offset="1" stop-color="#8EC5FC"/>
</linearGradient>
<linearGradient id="paint17_linear" x1="350.168" y1="139.319" x2="350.168" y2="204.993" gradientUnits="userSpaceOnUse">
<stop stop-color="#E0C3FC"/>
<stop offset="1" stop-color="#8EC5FC"/>
</linearGradient>
<linearGradient id="paint18_linear" x1="350.168" y1="139.319" x2="350.168" y2="204.993" gradientUnits="userSpaceOnUse">
<stop stop-color="#E0C3FC"/>
<stop offset="1" stop-color="#8EC5FC"/>
</linearGradient>
<linearGradient id="paint19_linear" x1="350.168" y1="139.319" x2="350.168" y2="204.993" gradientUnits="userSpaceOnUse">
<stop stop-color="#E0C3FC"/>
<stop offset="1" stop-color="#8EC5FC"/>
</linearGradient>
<linearGradient id="paint20_linear" x1="350.168" y1="139.319" x2="350.168" y2="204.993" gradientUnits="userSpaceOnUse">
<stop stop-color="#E0C3FC"/>
<stop offset="1" stop-color="#8EC5FC"/>
</linearGradient>
<linearGradient id="paint21_linear" x1="350.168" y1="139.319" x2="350.168" y2="204.993" gradientUnits="userSpaceOnUse">
<stop stop-color="#E0C3FC"/>
<stop offset="1" stop-color="#8EC5FC"/>
</linearGradient>
<linearGradient id="paint22_linear" x1="350.168" y1="139.319" x2="350.168" y2="204.993" gradientUnits="userSpaceOnUse">
<stop stop-color="#E0C3FC"/>
<stop offset="1" stop-color="#8EC5FC"/>
</linearGradient>
<linearGradient id="paint23_linear" x1="65.3946" y1="139.319" x2="65.3946" y2="204.993" gradientUnits="userSpaceOnUse">
<stop stop-color="#E0C3FC"/>
<stop offset="1" stop-color="#8EC5FC"/>
</linearGradient>
<linearGradient id="paint24_linear" x1="65.3946" y1="139.319" x2="65.3946" y2="204.993" gradientUnits="userSpaceOnUse">
<stop stop-color="#E0C3FC"/>
<stop offset="1" stop-color="#8EC5FC"/>
</linearGradient>
<linearGradient id="paint25_linear" x1="65.3946" y1="139.319" x2="65.3946" y2="204.993" gradientUnits="userSpaceOnUse">
<stop stop-color="#E0C3FC"/>
<stop offset="1" stop-color="#8EC5FC"/>
</linearGradient>
<linearGradient id="paint26_linear" x1="65.3946" y1="139.319" x2="65.3946" y2="204.993" gradientUnits="userSpaceOnUse">
<stop stop-color="#E0C3FC"/>
<stop offset="1" stop-color="#8EC5FC"/>
</linearGradient>
<linearGradient id="paint27_linear" x1="65.3946" y1="139.319" x2="65.3946" y2="204.993" gradientUnits="userSpaceOnUse">
<stop stop-color="#E0C3FC"/>
<stop offset="1" stop-color="#8EC5FC"/>
</linearGradient>
<linearGradient id="paint28_linear" x1="65.3946" y1="139.319" x2="65.3946" y2="204.993" gradientUnits="userSpaceOnUse">
<stop stop-color="#E0C3FC"/>
<stop offset="1" stop-color="#8EC5FC"/>
</linearGradient>
<linearGradient id="paint29_linear" x1="65.3946" y1="139.319" x2="65.3946" y2="204.993" gradientUnits="userSpaceOnUse">
<stop stop-color="#E0C3FC"/>
<stop offset="1" stop-color="#8EC5FC"/>
</linearGradient>
<linearGradient id="paint30_linear" x1="206.989" y1="364.786" x2="206.989" y2="430.461" gradientUnits="userSpaceOnUse">
<stop stop-color="#E0C3FC"/>
<stop offset="1" stop-color="#8EC5FC"/>
</linearGradient>
<linearGradient id="paint31_linear" x1="206.989" y1="364.786" x2="206.989" y2="430.461" gradientUnits="userSpaceOnUse">
<stop stop-color="#E0C3FC"/>
<stop offset="1" stop-color="#8EC5FC"/>
</linearGradient>
<linearGradient id="paint32_linear" x1="206.989" y1="364.786" x2="206.989" y2="430.461" gradientUnits="userSpaceOnUse">
<stop stop-color="#E0C3FC"/>
<stop offset="1" stop-color="#8EC5FC"/>
</linearGradient>
<linearGradient id="paint33_linear" x1="206.989" y1="364.786" x2="206.989" y2="430.461" gradientUnits="userSpaceOnUse">
<stop stop-color="#E0C3FC"/>
<stop offset="1" stop-color="#8EC5FC"/>
</linearGradient>
<linearGradient id="paint34_linear" x1="206.989" y1="364.786" x2="206.989" y2="430.461" gradientUnits="userSpaceOnUse">
<stop stop-color="#E0C3FC"/>
<stop offset="1" stop-color="#8EC5FC"/>
</linearGradient>
<linearGradient id="paint35_linear" x1="206.989" y1="364.786" x2="206.989" y2="430.461" gradientUnits="userSpaceOnUse">
<stop stop-color="#E0C3FC"/>
<stop offset="1" stop-color="#8EC5FC"/>
</linearGradient>
<linearGradient id="paint36_linear" x1="206.989" y1="364.786" x2="206.989" y2="430.461" gradientUnits="userSpaceOnUse">
<stop stop-color="#E0C3FC"/>
<stop offset="1" stop-color="#8EC5FC"/>
</linearGradient>
<linearGradient id="paint37_linear" x1="93.1682" y1="466" x2="93.6378" y2="519.276" gradientUnits="userSpaceOnUse">
<stop stop-color="#46FFD2"/>
<stop offset="1" stop-color="#0BB289"/>
</linearGradient>
<clipPath id="clip0">
<rect width="414" height="539" fill="white"/>
</clipPath>
</defs>
</svg>
