<svg width="781" height="654" viewBox="0 0 781 654" fill="none" xmlns="http://www.w3.org/2000/svg">
<g filter="url(#filter0_ddd)">
<path d="M384.032 507.725C383.35 506.543 383.35 505.088 384.032 503.906L401.496 473.657C402.178 472.476 403.439 471.748 404.803 471.748H439.732C441.096 471.748 442.357 472.476 443.039 473.657L460.503 503.906C461.185 505.088 461.185 506.543 460.503 507.725L443.039 537.974C442.357 539.155 441.096 539.883 439.732 539.883H404.803C403.439 539.883 402.178 539.155 401.496 537.974L384.032 507.725Z" fill="#5D78CF"/>
</g>
<path d="M195.783 185.705H199.701V187.956H192.844V175.807H195.783V185.705ZM200.947 175.669C200.947 175.222 201.108 174.856 201.428 174.569C201.749 174.271 202.173 174.122 202.7 174.122C203.227 174.122 203.651 174.271 203.972 174.569C204.292 174.856 204.453 175.222 204.453 175.669C204.453 176.104 204.292 176.471 203.972 176.769C203.651 177.055 203.227 177.198 202.7 177.198C202.173 177.198 201.749 177.055 201.428 176.769C201.108 176.471 200.947 176.104 200.947 175.669ZM204.161 178.367V187.956H201.222V178.367H204.161ZM212.445 178.264C213.545 178.264 214.415 178.631 215.057 179.364C215.71 180.097 216.036 181.105 216.036 182.388V187.956H213.098V182.732C213.098 182.09 212.926 181.592 212.582 181.237C212.25 180.87 211.803 180.687 211.242 180.687C210.646 180.687 210.171 180.876 209.816 181.254C209.472 181.632 209.3 182.171 209.3 182.869V187.956H206.361V178.367H209.3V180.12C209.575 179.547 209.982 179.095 210.52 178.762C211.07 178.43 211.712 178.264 212.445 178.264ZM227.254 182.904C227.254 183.144 227.225 183.408 227.168 183.694H220.518C220.552 184.416 220.735 184.937 221.068 185.258C221.4 185.567 221.824 185.722 222.339 185.722C222.775 185.722 223.136 185.613 223.422 185.396C223.708 185.178 223.897 184.897 223.989 184.554H227.099C226.973 185.229 226.698 185.837 226.275 186.375C225.851 186.902 225.312 187.32 224.659 187.63C224.006 187.927 223.279 188.076 222.477 188.076C221.537 188.076 220.701 187.882 219.968 187.492C219.246 187.091 218.679 186.518 218.267 185.774C217.854 185.029 217.648 184.158 217.648 183.162C217.648 182.153 217.848 181.283 218.249 180.549C218.662 179.805 219.235 179.238 219.968 178.848C220.701 178.447 221.537 178.247 222.477 178.247C223.428 178.247 224.264 178.442 224.986 178.831C225.707 179.221 226.263 179.77 226.653 180.481C227.054 181.18 227.254 181.987 227.254 182.904ZM224.281 182.457C224.293 181.827 224.121 181.357 223.766 181.048C223.422 180.727 222.992 180.567 222.477 180.567C221.938 180.567 221.492 180.727 221.136 181.048C220.781 181.369 220.581 181.838 220.535 182.457H224.281ZM237.055 178.247C238.006 178.247 238.854 178.447 239.598 178.848C240.355 179.238 240.945 179.805 241.368 180.549C241.804 181.294 242.021 182.165 242.021 183.162C242.021 184.158 241.804 185.029 241.368 185.774C240.945 186.518 240.355 187.091 239.598 187.492C238.854 187.882 238.006 188.076 237.055 188.076C236.104 188.076 235.251 187.882 234.495 187.492C233.738 187.091 233.143 186.518 232.707 185.774C232.284 185.029 232.072 184.158 232.072 183.162C232.072 182.165 232.284 181.294 232.707 180.549C233.143 179.805 233.738 179.238 234.495 178.848C235.251 178.447 236.104 178.247 237.055 178.247ZM237.055 180.79C236.494 180.79 236.018 180.996 235.629 181.409C235.251 181.81 235.062 182.394 235.062 183.162C235.062 183.929 235.251 184.513 235.629 184.914C236.018 185.315 236.494 185.516 237.055 185.516C237.616 185.516 238.086 185.315 238.464 184.914C238.842 184.513 239.031 183.929 239.031 183.162C239.031 182.394 238.842 181.81 238.464 181.409C238.086 180.996 237.616 180.79 237.055 180.79ZM248.426 177.061C247.944 177.061 247.595 177.164 247.377 177.37C247.16 177.577 247.039 177.909 247.017 178.367H248.752V180.842H247.017V187.956H244.078V180.842H242.927V178.367H244.078V178.264C244.078 177.072 244.422 176.156 245.109 175.514C245.808 174.861 246.816 174.535 248.134 174.535C248.408 174.535 248.615 174.541 248.752 174.552V177.078L248.426 177.061ZM197.174 200.247C198.412 200.247 199.449 200.59 200.285 201.278C201.121 201.954 201.648 202.887 201.866 204.079H198.755C198.664 203.666 198.475 203.346 198.188 203.117C197.902 202.887 197.541 202.773 197.106 202.773C196.59 202.773 196.166 202.979 195.834 203.392C195.502 203.793 195.336 204.383 195.336 205.162C195.336 205.941 195.502 206.536 195.834 206.949C196.166 207.35 196.59 207.55 197.106 207.55C197.541 207.55 197.902 207.436 198.188 207.207C198.475 206.977 198.664 206.657 198.755 206.244H201.866C201.648 207.436 201.121 208.375 200.285 209.062C199.449 209.738 198.412 210.076 197.174 210.076C196.235 210.076 195.399 209.882 194.666 209.492C193.944 209.091 193.377 208.518 192.964 207.774C192.552 207.029 192.346 206.158 192.346 205.162C192.346 204.153 192.546 203.283 192.947 202.549C193.36 201.805 193.932 201.238 194.666 200.848C195.399 200.447 196.235 200.247 197.174 200.247ZM206.51 202.171C206.877 201.587 207.346 201.123 207.919 200.779C208.504 200.436 209.134 200.264 209.81 200.264V203.409H208.968C208.189 203.409 207.581 203.575 207.146 203.907C206.722 204.239 206.51 204.801 206.51 205.591V209.956H203.572V200.367H206.51V202.171ZM220.319 204.904C220.319 205.144 220.291 205.408 220.233 205.694H213.583C213.617 206.416 213.8 206.937 214.133 207.258C214.465 207.567 214.889 207.722 215.404 207.722C215.84 207.722 216.201 207.613 216.487 207.396C216.773 207.178 216.962 206.897 217.054 206.554H220.165C220.039 207.229 219.764 207.837 219.34 208.375C218.916 208.902 218.377 209.32 217.724 209.63C217.071 209.927 216.344 210.076 215.542 210.076C214.602 210.076 213.766 209.882 213.033 209.492C212.311 209.091 211.744 208.518 211.332 207.774C210.919 207.029 210.713 206.158 210.713 205.162C210.713 204.153 210.913 203.283 211.314 202.549C211.727 201.805 212.3 201.238 213.033 200.848C213.766 200.447 214.602 200.247 215.542 200.247C216.493 200.247 217.329 200.442 218.051 200.831C218.773 201.221 219.328 201.77 219.718 202.481C220.119 203.18 220.319 203.987 220.319 204.904ZM217.346 204.457C217.358 203.827 217.186 203.357 216.831 203.048C216.487 202.727 216.057 202.567 215.542 202.567C215.003 202.567 214.557 202.727 214.201 203.048C213.846 203.369 213.646 203.838 213.6 204.457H217.346ZM225.666 200.247C226.399 200.247 227.029 200.413 227.556 200.745C228.083 201.077 228.467 201.53 228.708 202.103V197.239H231.646V209.956H228.708V208.22C228.467 208.793 228.083 209.246 227.556 209.578C227.029 209.91 226.399 210.076 225.666 210.076C224.876 210.076 224.165 209.882 223.535 209.492C222.916 209.091 222.424 208.518 222.057 207.774C221.702 207.029 221.525 206.158 221.525 205.162C221.525 204.153 221.702 203.283 222.057 202.549C222.424 201.805 222.916 201.238 223.535 200.848C224.165 200.447 224.876 200.247 225.666 200.247ZM226.611 202.824C225.981 202.824 225.471 203.031 225.082 203.443C224.704 203.856 224.515 204.428 224.515 205.162C224.515 205.895 224.704 206.468 225.082 206.88C225.471 207.292 225.981 207.499 226.611 207.499C227.23 207.499 227.734 207.287 228.123 206.863C228.524 206.439 228.725 205.872 228.725 205.162C228.725 204.44 228.524 203.873 228.123 203.46C227.734 203.036 227.23 202.824 226.611 202.824ZM233.566 197.669C233.566 197.222 233.727 196.856 234.048 196.569C234.368 196.271 234.792 196.122 235.319 196.122C235.846 196.122 236.27 196.271 236.591 196.569C236.912 196.856 237.072 197.222 237.072 197.669C237.072 198.104 236.912 198.471 236.591 198.769C236.27 199.055 235.846 199.198 235.319 199.198C234.792 199.198 234.368 199.055 234.048 198.769C233.727 198.471 233.566 198.104 233.566 197.669ZM236.78 200.367V209.956H233.841V200.367H236.78ZM244.411 207.43V209.956H243.088C241.965 209.956 241.089 209.681 240.458 209.131C239.84 208.57 239.53 207.648 239.53 206.364V202.842H238.242V200.367H239.53V198.013H242.469V200.367H244.394V202.842H242.469V206.416C242.469 206.794 242.544 207.058 242.692 207.207C242.853 207.355 243.116 207.43 243.483 207.43H244.411ZM249.723 200.247C250.937 200.247 251.905 200.55 252.627 201.158C253.36 201.765 253.818 202.567 254.002 203.563H251.252C251.172 203.174 250.989 202.87 250.702 202.653C250.427 202.423 250.078 202.309 249.654 202.309C249.322 202.309 249.07 202.383 248.898 202.532C248.726 202.67 248.64 202.87 248.64 203.134C248.64 203.432 248.795 203.655 249.104 203.804C249.425 203.953 249.923 204.102 250.599 204.251C251.332 204.423 251.934 204.6 252.404 204.783C252.873 204.955 253.28 205.242 253.624 205.643C253.967 206.044 254.139 206.582 254.139 207.258C254.139 207.808 253.99 208.295 253.692 208.719C253.395 209.143 252.965 209.475 252.404 209.715C251.842 209.956 251.178 210.076 250.41 210.076C249.116 210.076 248.079 209.79 247.3 209.217C246.521 208.644 246.045 207.825 245.873 206.76H248.709C248.755 207.172 248.927 207.487 249.224 207.705C249.534 207.923 249.929 208.031 250.41 208.031C250.742 208.031 250.994 207.957 251.166 207.808C251.338 207.648 251.424 207.441 251.424 207.189C251.424 206.857 251.264 206.622 250.943 206.485C250.634 206.336 250.124 206.181 249.414 206.021C248.703 205.872 248.119 205.711 247.661 205.54C247.202 205.368 246.807 205.093 246.475 204.715C246.143 204.325 245.977 203.798 245.977 203.134C245.977 202.275 246.303 201.581 246.956 201.054C247.609 200.516 248.531 200.247 249.723 200.247ZM196.487 222.247C197.22 222.247 197.85 222.413 198.377 222.745C198.904 223.077 199.294 223.53 199.546 224.103V222.367H202.467V231.956H199.546V230.22C199.294 230.793 198.904 231.246 198.377 231.578C197.85 231.91 197.22 232.076 196.487 232.076C195.697 232.076 194.986 231.882 194.356 231.492C193.738 231.091 193.245 230.518 192.878 229.774C192.523 229.029 192.346 228.158 192.346 227.162C192.346 226.153 192.523 225.283 192.878 224.549C193.245 223.805 193.738 223.238 194.356 222.848C194.986 222.447 195.697 222.247 196.487 222.247ZM197.432 224.824C196.802 224.824 196.292 225.031 195.903 225.443C195.525 225.856 195.336 226.428 195.336 227.162C195.336 227.895 195.525 228.468 195.903 228.88C196.292 229.292 196.802 229.499 197.432 229.499C198.051 229.499 198.555 229.287 198.945 228.863C199.345 228.439 199.546 227.872 199.546 227.162C199.546 226.44 199.345 225.873 198.945 225.46C198.555 225.036 198.051 224.824 197.432 224.824ZM210.746 222.264C211.846 222.264 212.716 222.631 213.358 223.364C214.011 224.097 214.337 225.105 214.337 226.388V231.956H211.399V226.732C211.399 226.09 211.227 225.592 210.883 225.237C210.551 224.87 210.104 224.687 209.543 224.687C208.947 224.687 208.472 224.876 208.117 225.254C207.773 225.632 207.601 226.171 207.601 226.869V231.956H204.662V222.367H207.601V224.12C207.876 223.547 208.283 223.095 208.821 222.762C209.371 222.43 210.013 222.264 210.746 222.264ZM220.09 222.247C220.824 222.247 221.454 222.413 221.981 222.745C222.508 223.077 222.892 223.53 223.132 224.103V219.239H226.071V231.956H223.132V230.22C222.892 230.793 222.508 231.246 221.981 231.578C221.454 231.91 220.824 232.076 220.09 232.076C219.3 232.076 218.59 231.882 217.96 231.492C217.341 231.091 216.848 230.518 216.482 229.774C216.127 229.029 215.949 228.158 215.949 227.162C215.949 226.153 216.127 225.283 216.482 224.549C216.848 223.805 217.341 223.238 217.96 222.848C218.59 222.447 219.3 222.247 220.09 222.247ZM221.036 224.824C220.405 224.824 219.896 225.031 219.506 225.443C219.128 225.856 218.939 226.428 218.939 227.162C218.939 227.895 219.128 228.468 219.506 228.88C219.896 229.292 220.405 229.499 221.036 229.499C221.654 229.499 222.158 229.287 222.548 228.863C222.949 228.439 223.149 227.872 223.149 227.162C223.149 226.44 222.949 225.873 222.548 225.46C222.158 225.036 221.654 224.824 221.036 224.824ZM236.586 221.061C236.105 221.061 235.756 221.164 235.538 221.37C235.32 221.577 235.2 221.909 235.177 222.367H236.913V224.842H235.177V231.956H232.239V224.842H231.087V222.367H232.239V222.264C232.239 221.072 232.582 220.156 233.27 219.514C233.969 218.861 234.977 218.535 236.294 218.535C236.569 218.535 236.775 218.541 236.913 218.552V221.078L236.586 221.061ZM247.484 226.904C247.484 227.144 247.456 227.408 247.398 227.694H240.748C240.782 228.416 240.966 228.937 241.298 229.258C241.63 229.567 242.054 229.722 242.569 229.722C243.005 229.722 243.366 229.613 243.652 229.396C243.939 229.178 244.128 228.897 244.219 228.554H247.33C247.204 229.229 246.929 229.837 246.505 230.375C246.081 230.902 245.542 231.32 244.889 231.63C244.236 231.927 243.509 232.076 242.707 232.076C241.768 232.076 240.931 231.882 240.198 231.492C239.476 231.091 238.909 230.518 238.497 229.774C238.084 229.029 237.878 228.158 237.878 227.162C237.878 226.153 238.079 225.283 238.48 224.549C238.892 223.805 239.465 223.238 240.198 222.848C240.931 222.447 241.768 222.247 242.707 222.247C243.658 222.247 244.494 222.442 245.216 222.831C245.938 223.221 246.493 223.77 246.883 224.481C247.284 225.18 247.484 225.987 247.484 226.904ZM244.511 226.457C244.523 225.827 244.351 225.357 243.996 225.048C243.652 224.727 243.222 224.567 242.707 224.567C242.169 224.567 241.722 224.727 241.367 225.048C241.011 225.369 240.811 225.838 240.765 226.457H244.511ZM258.296 226.904C258.296 227.144 258.267 227.408 258.21 227.694H251.559C251.594 228.416 251.777 228.937 252.109 229.258C252.442 229.567 252.865 229.722 253.381 229.722C253.816 229.722 254.177 229.613 254.464 229.396C254.75 229.178 254.939 228.897 255.031 228.554H258.141C258.015 229.229 257.74 229.837 257.316 230.375C256.892 230.902 256.354 231.32 255.701 231.63C255.048 231.927 254.32 232.076 253.518 232.076C252.579 232.076 251.743 231.882 251.01 231.492C250.288 231.091 249.721 230.518 249.308 229.774C248.896 229.029 248.69 228.158 248.69 227.162C248.69 226.153 248.89 225.283 249.291 224.549C249.704 223.805 250.276 223.238 251.01 222.848C251.743 222.447 252.579 222.247 253.518 222.247C254.469 222.247 255.306 222.442 256.027 222.831C256.749 223.221 257.305 223.77 257.694 224.481C258.095 225.18 258.296 225.987 258.296 226.904ZM255.323 226.457C255.334 225.827 255.162 225.357 254.807 225.048C254.464 224.727 254.034 224.567 253.518 224.567C252.98 224.567 252.533 224.727 252.178 225.048C251.823 225.369 251.622 225.838 251.577 226.457H255.323ZM263.488 222.247C264.702 222.247 265.67 222.55 266.392 223.158C267.125 223.765 267.584 224.567 267.767 225.563H265.017C264.937 225.174 264.754 224.87 264.467 224.653C264.193 224.423 263.843 224.309 263.419 224.309C263.087 224.309 262.835 224.383 262.663 224.532C262.491 224.67 262.405 224.87 262.405 225.134C262.405 225.432 262.56 225.655 262.869 225.804C263.19 225.953 263.688 226.102 264.364 226.251C265.098 226.423 265.699 226.6 266.169 226.783C266.638 226.955 267.045 227.242 267.389 227.643C267.733 228.044 267.904 228.582 267.904 229.258C267.904 229.808 267.755 230.295 267.458 230.719C267.16 231.143 266.73 231.475 266.169 231.715C265.607 231.956 264.943 232.076 264.175 232.076C262.881 232.076 261.844 231.79 261.065 231.217C260.286 230.644 259.81 229.825 259.639 228.76H262.474C262.52 229.172 262.692 229.487 262.99 229.705C263.299 229.923 263.694 230.031 264.175 230.031C264.508 230.031 264.76 229.957 264.931 229.808C265.103 229.648 265.189 229.441 265.189 229.189C265.189 228.857 265.029 228.622 264.708 228.485C264.399 228.336 263.889 228.181 263.179 228.021C262.468 227.872 261.884 227.711 261.426 227.54C260.968 227.368 260.572 227.093 260.24 226.715C259.908 226.325 259.742 225.798 259.742 225.134C259.742 224.275 260.068 223.581 260.721 223.054C261.374 222.516 262.297 222.247 263.488 222.247Z" fill="white"/>
<path d="M577.632 184.661V187.102H581.567V189.37H577.632V192.016H582.083V194.371H574.693V182.307H582.083V184.661H577.632ZM583.578 189.559C583.578 188.574 583.761 187.709 584.128 186.964C584.506 186.219 585.016 185.647 585.657 185.246C586.299 184.845 587.015 184.644 587.805 184.644C588.481 184.644 589.071 184.782 589.576 185.057C590.091 185.332 590.486 185.692 590.761 186.139V184.782H593.7V194.371H590.761V193.013C590.475 193.46 590.074 193.821 589.558 194.096C589.054 194.371 588.464 194.508 587.788 194.508C587.009 194.508 586.299 194.308 585.657 193.907C585.016 193.494 584.506 192.916 584.128 192.171C583.761 191.415 583.578 190.544 583.578 189.559ZM590.761 189.576C590.761 188.843 590.555 188.264 590.143 187.84C589.742 187.417 589.249 187.205 588.665 187.205C588.08 187.205 587.582 187.417 587.17 187.84C586.769 188.253 586.568 188.826 586.568 189.559C586.568 190.292 586.769 190.876 587.17 191.312C587.582 191.736 588.08 191.948 588.665 191.948C589.249 191.948 589.742 191.736 590.143 191.312C590.555 190.888 590.761 190.309 590.761 189.576ZM598.936 186.38C599.28 185.853 599.709 185.44 600.225 185.142C600.741 184.833 601.313 184.678 601.943 184.678V187.789H601.136C600.403 187.789 599.853 187.949 599.486 188.27C599.119 188.579 598.936 189.129 598.936 189.92V194.371H595.998V184.782H598.936V186.38ZM606.458 181.654V194.371H603.52V181.654H606.458ZM618.555 184.782L612.54 198.925H609.378L611.578 194.044L607.677 184.782H610.959L613.176 190.779L615.376 184.782H618.555ZM631.113 192.24H626.61L625.889 194.371H622.813L627.177 182.307H630.58L634.945 194.371H631.834L631.113 192.24ZM630.357 189.971L628.862 185.555L627.384 189.971H630.357ZM639.384 186.38C639.727 185.853 640.157 185.44 640.673 185.142C641.188 184.833 641.761 184.678 642.391 184.678V187.789H641.583C640.85 187.789 640.3 187.949 639.934 188.27C639.567 188.579 639.384 189.129 639.384 189.92V194.371H636.445V184.782H639.384V186.38ZM646.906 186.38C647.25 185.853 647.679 185.44 648.195 185.142C648.71 184.833 649.283 184.678 649.913 184.678V187.789H649.106C648.372 187.789 647.823 187.949 647.456 188.27C647.089 188.579 646.906 189.129 646.906 189.92V194.371H643.967V184.782H646.906V186.38ZM652.968 183.785C652.452 183.785 652.028 183.636 651.696 183.338C651.375 183.029 651.215 182.651 651.215 182.204C651.215 181.746 651.375 181.368 651.696 181.07C652.028 180.76 652.452 180.606 652.968 180.606C653.472 180.606 653.884 180.76 654.205 181.07C654.537 181.368 654.703 181.746 654.703 182.204C654.703 182.651 654.537 183.029 654.205 183.338C653.884 183.636 653.472 183.785 652.968 183.785ZM654.428 184.782V194.371H651.49V184.782H654.428ZM661.043 191.621L663.122 184.782H666.25L662.847 194.371H659.221L655.819 184.782H658.964L661.043 191.621ZM669.137 183.785C668.621 183.785 668.197 183.636 667.865 183.338C667.544 183.029 667.384 182.651 667.384 182.204C667.384 181.746 667.544 181.368 667.865 181.07C668.197 180.76 668.621 180.606 669.137 180.606C669.641 180.606 670.053 180.76 670.374 181.07C670.706 181.368 670.872 181.746 670.872 182.204C670.872 182.651 670.706 183.029 670.374 183.338C670.053 183.636 669.641 183.785 669.137 183.785ZM670.597 184.782V194.371H667.659V184.782H670.597ZM678.741 184.678C679.864 184.678 680.758 185.045 681.422 185.778C682.098 186.5 682.436 187.497 682.436 188.768V194.371H679.515V189.164C679.515 188.522 679.349 188.024 679.016 187.669C678.684 187.313 678.237 187.136 677.676 187.136C677.115 187.136 676.668 187.313 676.336 187.669C676.003 188.024 675.837 188.522 675.837 189.164V194.371H672.899V184.782H675.837V186.053C676.135 185.629 676.536 185.297 677.04 185.057C677.544 184.805 678.111 184.678 678.741 184.678ZM688.293 184.644C688.969 184.644 689.559 184.782 690.063 185.057C690.579 185.332 690.974 185.692 691.249 186.139V184.782H694.187V194.353C694.187 195.236 694.01 196.032 693.655 196.742C693.311 197.464 692.778 198.037 692.057 198.461C691.346 198.884 690.458 199.096 689.393 199.096C687.972 199.096 686.821 198.758 685.939 198.082C685.057 197.418 684.553 196.513 684.427 195.367H687.331C687.422 195.734 687.64 196.02 687.984 196.227C688.327 196.444 688.751 196.553 689.255 196.553C689.863 196.553 690.344 196.375 690.699 196.02C691.066 195.677 691.249 195.121 691.249 194.353V192.996C690.962 193.443 690.567 193.809 690.063 194.096C689.559 194.371 688.969 194.508 688.293 194.508C687.503 194.508 686.787 194.308 686.145 193.907C685.503 193.494 684.994 192.916 684.616 192.171C684.249 191.415 684.066 190.544 684.066 189.559C684.066 188.574 684.249 187.709 684.616 186.964C684.994 186.219 685.503 185.647 686.145 185.246C686.787 184.845 687.503 184.644 688.293 184.644ZM691.249 189.576C691.249 188.843 691.043 188.264 690.63 187.84C690.229 187.417 689.737 187.205 689.152 187.205C688.568 187.205 688.07 187.417 687.657 187.84C687.256 188.253 687.056 188.826 687.056 189.559C687.056 190.292 687.256 190.876 687.657 191.312C688.07 191.736 688.568 191.948 689.152 191.948C689.737 191.948 690.229 191.736 690.63 191.312C691.043 190.888 691.249 190.309 691.249 189.576ZM716.899 182.307L713.754 194.371H710.197L708.272 186.431L706.279 194.371H702.722L699.663 182.307H702.808L704.543 191.088L706.691 182.307H709.922L711.984 191.088L713.737 182.307H716.899ZM720.022 183.785C719.507 183.785 719.083 183.636 718.751 183.338C718.43 183.029 718.27 182.651 718.27 182.204C718.27 181.746 718.43 181.368 718.751 181.07C719.083 180.76 719.507 180.606 720.022 180.606C720.527 180.606 720.939 180.76 721.26 181.07C721.592 181.368 721.758 181.746 721.758 182.204C721.758 182.651 721.592 183.029 721.26 183.338C720.939 183.636 720.527 183.785 720.022 183.785ZM721.483 184.782V194.371H718.545V184.782H721.483ZM726.723 186.38C727.067 185.853 727.496 185.44 728.012 185.142C728.527 184.833 729.1 184.678 729.73 184.678V187.789H728.923C728.19 187.789 727.64 187.949 727.273 188.27C726.906 188.579 726.723 189.129 726.723 189.92V194.371H723.785V184.782H726.723V186.38ZM740.346 189.421C740.346 189.696 740.329 189.983 740.294 190.281H733.644C733.69 190.876 733.879 191.335 734.211 191.655C734.555 191.965 734.973 192.119 735.465 192.119C736.199 192.119 736.709 191.81 736.995 191.191H740.123C739.962 191.822 739.67 192.389 739.246 192.893C738.834 193.397 738.312 193.792 737.682 194.078C737.052 194.365 736.348 194.508 735.569 194.508C734.629 194.508 733.793 194.308 733.06 193.907C732.326 193.506 731.754 192.933 731.341 192.188C730.929 191.443 730.723 190.573 730.723 189.576C730.723 188.579 730.923 187.709 731.324 186.964C731.736 186.219 732.309 185.647 733.042 185.246C733.776 184.845 734.618 184.644 735.569 184.644C736.497 184.644 737.321 184.839 738.043 185.228C738.765 185.618 739.326 186.174 739.727 186.895C740.14 187.617 740.346 188.459 740.346 189.421ZM737.339 188.648C737.339 188.144 737.167 187.743 736.823 187.445C736.479 187.147 736.05 186.998 735.534 186.998C735.042 186.998 734.623 187.142 734.28 187.428C733.948 187.714 733.741 188.121 733.661 188.648H737.339Z" fill="white"/>
<g filter="url(#filter1_ddd)">
<path d="M321.435 40.6757C324.163 40.6757 326.685 42.1314 328.049 44.4945L354.149 89.7013C355.514 92.0644 355.514 94.9758 354.149 97.3389L328.049 142.546C326.685 144.909 324.163 146.364 321.435 146.364L269.235 146.364C266.506 146.364 263.984 144.909 262.62 142.546L236.52 97.3389C235.156 94.9758 235.156 92.0643 236.52 89.7013L262.62 44.4945C263.984 42.1314 266.506 40.6757 269.235 40.6757L321.435 40.6757Z" fill="url(#paint0_linear)"/>
</g>
<g filter="url(#filter2_ddd)">
<path d="M321.435 260.813C324.163 260.813 326.685 262.269 328.049 264.632L354.149 309.839C355.514 312.202 355.514 315.113 354.149 317.477L328.049 362.683C326.685 365.046 324.163 366.502 321.435 366.502L269.235 366.502C266.506 366.502 263.984 365.046 262.62 362.683L236.52 317.477C235.156 315.113 235.156 312.202 236.52 309.839L262.62 264.632C263.984 262.269 266.506 260.813 269.235 260.813L321.435 260.813Z" fill="url(#paint1_linear)"/>
</g>
<g filter="url(#filter3_ddd)">
<path d="M37.5415 462.75C36.3477 460.682 36.3477 458.135 37.5415 456.067L64.1928 409.905C65.3866 407.838 67.5928 406.564 69.9804 406.564H123.283C125.671 406.564 127.877 407.838 129.071 409.905L155.722 456.067C156.916 458.135 156.916 460.682 155.722 462.75L129.071 508.911C127.877 510.979 125.671 512.253 123.283 512.253H69.9804C67.5928 512.253 65.3866 510.979 64.1928 508.911L37.5415 462.75Z" fill="white"/>
</g>
<g filter="url(#filter4_ddd)">
<path d="M236.246 530.237C235.052 528.169 235.052 525.621 236.246 523.554L262.897 477.392C264.091 475.325 266.297 474.051 268.684 474.051H321.987C324.375 474.051 326.581 475.325 327.775 477.392L354.426 523.554C355.62 525.621 355.62 528.169 354.426 530.237L327.775 576.398C326.581 578.466 324.375 579.74 321.987 579.74H268.684C266.297 579.74 264.091 578.466 262.897 576.398L236.246 530.237Z" fill="white"/>
</g>
<g filter="url(#filter5_ddd)">
<path d="M37.5434 213.168C36.3497 211.101 36.3497 208.553 37.5434 206.485L64.1948 160.324C65.3886 158.256 67.5948 156.982 69.9823 156.982H123.285C125.673 156.982 127.879 158.256 129.073 160.324L155.724 206.485C156.918 208.553 156.918 211.101 155.724 213.168L129.073 259.33C127.879 261.397 125.673 262.671 123.285 262.671H69.9823C67.5948 262.671 65.3886 261.397 64.1948 259.33L37.5434 213.168Z" fill="white"/>
</g>
<g filter="url(#filter6_ddd)">
<path d="M390.582 99.5191C391.946 99.5191 393.207 100.247 393.889 101.428L411.353 131.677C412.035 132.859 412.035 134.315 411.353 135.496L393.889 165.745C393.207 166.927 391.946 167.654 390.582 167.654L355.653 167.654C354.289 167.654 353.028 166.927 352.346 165.745L334.882 135.496C334.2 134.315 334.2 132.859 334.882 131.677L352.346 101.428C353.028 100.247 354.289 99.5191 355.653 99.5191L390.582 99.5191Z" fill="#5D78CF"/>
</g>
<g filter="url(#filter7_ddd)">
<path d="M58.3983 374.771C57.7161 373.589 57.7161 372.133 58.3983 370.952L75.8625 340.703C76.5446 339.521 77.8053 338.794 79.1697 338.794H114.098C115.462 338.794 116.723 339.521 117.405 340.703L134.869 370.952C135.552 372.133 135.552 373.589 134.869 374.771L117.405 405.02C116.723 406.201 115.462 406.929 114.098 406.929H79.1697C77.8053 406.929 76.5446 406.201 75.8625 405.02L58.3983 374.771Z" fill="#5D78CF"/>
</g>
<g filter="url(#filter8_ddd)">
<path d="M197.533 453.365C198.215 452.183 199.476 451.456 200.84 451.456L235.768 451.456C237.133 451.456 238.393 452.183 239.075 453.365L256.54 483.614C257.222 484.795 257.222 486.251 256.54 487.433L239.075 517.681C238.393 518.863 237.133 519.591 235.768 519.591L200.84 519.591C199.476 519.591 198.215 518.863 197.533 517.681L180.068 487.433C179.386 486.251 179.386 484.795 180.068 483.614L197.533 453.365Z" fill="#5D78CF"/>
</g>
<g filter="url(#filter9_ddd)">
<path d="M532.272 295.227C532.954 296.408 532.954 297.864 532.272 299.046L514.807 329.295C514.125 330.476 512.865 331.204 511.5 331.204H476.572C475.208 331.204 473.947 330.476 473.265 329.295L455.8 299.046C455.118 297.864 455.118 296.408 455.8 295.227L473.265 264.978C473.947 263.796 475.208 263.069 476.572 263.069H511.5C512.865 263.069 514.125 263.796 514.807 264.978L532.272 295.227Z" fill="#5D78CF"/>
</g>
<path d="M47.6319 66.1022H51.4813V68.3706H44.6934V56.307H47.6319V66.1022ZM52.4705 63.5589C52.4705 62.5737 52.6538 61.7087 53.0204 60.964C53.3984 60.2194 53.9083 59.6466 54.5498 59.2456C55.1914 58.8446 55.9074 58.6441 56.6979 58.6441C57.3738 58.6441 57.9638 58.7816 58.4679 59.0566C58.9834 59.3315 59.3787 59.6924 59.6536 60.1392V58.7816H62.5922V68.3706H59.6536V67.013C59.3672 67.4598 58.9663 67.8207 58.4507 68.0957C57.9466 68.3706 57.3566 68.5081 56.6807 68.5081C55.9017 68.5081 55.1914 68.3076 54.5498 67.9066C53.9083 67.4942 53.3984 66.9156 53.0204 66.171C52.6538 65.4149 52.4705 64.5442 52.4705 63.5589ZM59.6536 63.5761C59.6536 62.8429 59.4474 62.2643 59.035 61.8405C58.634 61.4166 58.1414 61.2046 57.5571 61.2046C56.9728 61.2046 56.4745 61.4166 56.0621 61.8405C55.6611 62.2529 55.4606 62.8257 55.4606 63.5589C55.4606 64.2921 55.6611 64.8764 56.0621 65.3117C56.4745 65.7356 56.9728 65.9476 57.5571 65.9476C58.1414 65.9476 58.634 65.7356 59.035 65.3117C59.4474 64.8879 59.6536 64.3093 59.6536 63.5761ZM70.2344 65.8788V68.3706H68.7393C67.6739 68.3706 66.8433 68.1128 66.2476 67.5973C65.6518 67.0703 65.354 66.2168 65.354 65.0368V61.2218H64.1854V58.7816H65.354V56.4445H68.2925V58.7816H70.2172V61.2218H68.2925V65.0712C68.2925 65.3576 68.3613 65.5638 68.4987 65.6898C68.6362 65.8158 68.8653 65.8788 69.1861 65.8788H70.2344ZM81.0822 63.4214C81.0822 63.6964 81.065 63.9828 81.0306 64.2807H74.3802C74.426 64.8764 74.615 65.3347 74.9473 65.6554C75.291 65.9648 75.7091 66.1194 76.2017 66.1194C76.9349 66.1194 77.4448 65.8101 77.7312 65.1915H80.8588C80.6984 65.8216 80.4062 66.3886 79.9823 66.8927C79.5699 67.3968 79.0487 67.7921 78.4186 68.0785C77.7884 68.3649 77.0839 68.5081 76.3048 68.5081C75.3654 68.5081 74.5291 68.3076 73.7959 67.9066C73.0627 67.5056 72.4899 66.9328 72.0774 66.1882C71.665 65.4435 71.4588 64.5728 71.4588 63.5761C71.4588 62.5794 71.6593 61.7087 72.0602 60.964C72.4727 60.2194 73.0455 59.6466 73.7787 59.2456C74.5119 58.8446 75.354 58.6441 76.3048 58.6441C77.2328 58.6441 78.0577 58.8389 78.7794 59.2284C79.5012 59.6179 80.0625 60.1736 80.4635 60.8953C80.8759 61.6171 81.0822 62.4591 81.0822 63.4214ZM78.0749 62.6481C78.0749 62.1441 77.903 61.7431 77.5593 61.4452C77.2156 61.1473 76.786 60.9984 76.2705 60.9984C75.7779 60.9984 75.3597 61.1416 75.016 61.428C74.6838 61.7144 74.4775 62.1211 74.3974 62.6481H78.0749ZM94.1274 66.2397H89.6251L88.9033 68.3706H85.8273L90.1921 56.307H93.5947L97.9596 68.3706H94.8492L94.1274 66.2397ZM93.3713 63.9713L91.8762 59.5549L90.3984 63.9713H93.3713ZM102.398 60.3798C102.742 59.8528 103.172 59.4403 103.687 59.1425C104.203 58.8332 104.776 58.6785 105.406 58.6785V61.7889H104.598C103.865 61.7889 103.315 61.9493 102.948 62.2701C102.582 62.5794 102.398 63.1293 102.398 63.9198V68.3706H99.4599V58.7816H102.398V60.3798ZM109.921 60.3798C110.264 59.8528 110.694 59.4403 111.21 59.1425C111.725 58.8332 112.298 58.6785 112.928 58.6785V61.7889H112.12C111.387 61.7889 110.837 61.9493 110.471 62.2701C110.104 62.5794 109.921 63.1293 109.921 63.9198V68.3706H106.982V58.7816H109.921V60.3798ZM115.982 57.7849C115.467 57.7849 115.043 57.636 114.711 57.3381C114.39 57.0288 114.23 56.6507 114.23 56.2039C114.23 55.7457 114.39 55.3676 114.711 55.0697C115.043 54.7604 115.467 54.6057 115.982 54.6057C116.486 54.6057 116.899 54.7604 117.22 55.0697C117.552 55.3676 117.718 55.7457 117.718 56.2039C117.718 56.6507 117.552 57.0288 117.22 57.3381C116.899 57.636 116.486 57.7849 115.982 57.7849ZM117.443 58.7816V68.3706H114.504V58.7816H117.443ZM124.058 65.6211L126.137 58.7816H129.265L125.862 68.3706H122.236L118.834 58.7816H121.978L124.058 65.6211ZM132.151 57.7849C131.636 57.7849 131.212 57.636 130.88 57.3381C130.559 57.0288 130.398 56.6507 130.398 56.2039C130.398 55.7457 130.559 55.3676 130.88 55.0697C131.212 54.7604 131.636 54.6057 132.151 54.6057C132.655 54.6057 133.068 54.7604 133.389 55.0697C133.721 55.3676 133.887 55.7457 133.887 56.2039C133.887 56.6507 133.721 57.0288 133.389 57.3381C133.068 57.636 132.655 57.7849 132.151 57.7849ZM133.612 58.7816V68.3706H130.673V58.7816H133.612ZM141.756 58.6785C142.879 58.6785 143.772 59.0451 144.437 59.7783C145.113 60.5001 145.451 61.4968 145.451 62.7684V68.3706H142.529V63.1637C142.529 62.5221 142.363 62.0238 142.031 61.6686C141.699 61.3135 141.252 61.1359 140.691 61.1359C140.129 61.1359 139.683 61.3135 139.35 61.6686C139.018 62.0238 138.852 62.5221 138.852 63.1637V68.3706H135.913V58.7816H138.852V60.0533C139.15 59.6294 139.551 59.2971 140.055 59.0566C140.559 58.8045 141.126 58.6785 141.756 58.6785ZM151.308 58.6441C151.984 58.6441 152.574 58.7816 153.078 59.0566C153.593 59.3315 153.989 59.6924 154.264 60.1392V58.7816H157.202V68.3534C157.202 69.2356 157.025 70.0318 156.669 70.7421C156.326 71.4638 155.793 72.0367 155.071 72.4605C154.361 72.8844 153.473 73.0964 152.408 73.0964C150.987 73.0964 149.836 72.7584 148.954 72.0825C148.071 71.418 147.567 70.513 147.441 69.3673H150.345C150.437 69.7339 150.655 70.0203 150.999 70.2265C151.342 70.4442 151.766 70.553 152.27 70.553C152.877 70.553 153.359 70.3755 153.714 70.0203C154.08 69.6766 154.264 69.121 154.264 68.3534V66.9958C153.977 67.4426 153.582 67.8092 153.078 68.0957C152.574 68.3706 151.984 68.5081 151.308 68.5081C150.517 68.5081 149.801 68.3076 149.16 67.9066C148.518 67.4942 148.008 66.9156 147.63 66.171C147.264 65.4149 147.08 64.5442 147.08 63.5589C147.08 62.5737 147.264 61.7087 147.63 60.964C148.008 60.2194 148.518 59.6466 149.16 59.2456C149.801 58.8446 150.517 58.6441 151.308 58.6441ZM154.264 63.5761C154.264 62.8429 154.057 62.2643 153.645 61.8405C153.244 61.4166 152.751 61.2046 152.167 61.2046C151.583 61.2046 151.084 61.4166 150.672 61.8405C150.271 62.2529 150.071 62.8257 150.071 63.5589C150.071 64.2921 150.271 64.8764 150.672 65.3117C151.084 65.7356 151.583 65.9476 152.167 65.9476C152.751 65.9476 153.244 65.7356 153.645 65.3117C154.057 64.8879 154.264 64.3093 154.264 63.5761ZM179.914 56.307L176.769 68.3706H173.212L171.287 60.4313L169.294 68.3706H165.736L162.678 56.307H165.822L167.558 65.0883L169.706 56.307H172.937L174.999 65.0883L176.752 56.307H179.914ZM183.037 57.7849C182.522 57.7849 182.098 57.636 181.766 57.3381C181.445 57.0288 181.284 56.6507 181.284 56.2039C181.284 55.7457 181.445 55.3676 181.766 55.0697C182.098 54.7604 182.522 54.6057 183.037 54.6057C183.541 54.6057 183.954 54.7604 184.274 55.0697C184.607 55.3676 184.773 55.7457 184.773 56.2039C184.773 56.6507 184.607 57.0288 184.274 57.3381C183.954 57.636 183.541 57.7849 183.037 57.7849ZM184.498 58.7816V68.3706H181.559V58.7816H184.498ZM189.738 60.3798C190.082 59.8528 190.511 59.4403 191.027 59.1425C191.542 58.8332 192.115 58.6785 192.745 58.6785V61.7889H191.937C191.204 61.7889 190.654 61.9493 190.288 62.2701C189.921 62.5794 189.738 63.1293 189.738 63.9198V68.3706H186.799V58.7816H189.738V60.3798ZM203.361 63.4214C203.361 63.6964 203.343 63.9828 203.309 64.2807H196.659C196.704 64.8764 196.894 65.3347 197.226 65.6554C197.569 65.9648 197.988 66.1194 198.48 66.1194C199.213 66.1194 199.723 65.8101 200.01 65.1915H203.137C202.977 65.8216 202.685 66.3886 202.261 66.8927C201.848 67.3968 201.327 67.7921 200.697 68.0785C200.067 68.3649 199.362 68.5081 198.583 68.5081C197.644 68.5081 196.808 68.3076 196.074 67.9066C195.341 67.5056 194.768 66.9328 194.356 66.1882C193.943 65.4435 193.737 64.5728 193.737 63.5761C193.737 62.5794 193.938 61.7087 194.339 60.964C194.751 60.2194 195.324 59.6466 196.057 59.2456C196.79 58.8446 197.632 58.6441 198.583 58.6441C199.511 58.6441 200.336 58.8389 201.058 59.2284C201.78 59.6179 202.341 60.1736 202.742 60.8953C203.154 61.6171 203.361 62.4591 203.361 63.4214ZM200.353 62.6481C200.353 62.1441 200.181 61.7431 199.838 61.4452C199.494 61.1473 199.064 60.9984 198.549 60.9984C198.056 60.9984 197.638 61.1416 197.294 61.428C196.962 61.7144 196.756 62.1211 196.676 62.6481H200.353Z" fill="white"/>
<path d="M208.432 79.9057C208.711 79.6261 208.711 79.1727 208.432 78.8931L203.875 74.3364C203.595 74.0567 203.142 74.0567 202.862 74.3364C202.583 74.616 202.583 75.0693 202.862 75.349L206.913 79.3994L202.862 83.4499C202.583 83.7295 202.583 84.1828 202.862 84.4625C203.142 84.7421 203.595 84.7421 203.875 84.4625L208.432 79.9057ZM124.839 80.1154H207.925V78.6834H124.839V80.1154Z" fill="white"/>
<path d="M571.122 205.864C570.842 206.144 570.842 206.597 571.122 206.877L575.678 211.434C575.958 211.713 576.411 211.713 576.691 211.434C576.971 211.154 576.971 210.701 576.691 210.421L572.641 206.371L576.691 202.32C576.971 202.041 576.971 201.587 576.691 201.308C576.411 201.028 575.958 201.028 575.678 201.308L571.122 205.864ZM675.628 205.655L571.628 205.655L571.628 207.087L675.628 207.087L675.628 205.655Z" fill="white"/>
<path d="M292.899 235.66C293.179 235.94 293.632 235.94 293.912 235.66L298.468 231.103C298.748 230.824 298.748 230.37 298.468 230.091C298.189 229.811 297.735 229.811 297.456 230.091L293.405 234.141L289.355 230.091C289.075 229.811 288.622 229.811 288.342 230.091C288.063 230.37 288.063 230.824 288.342 231.103L292.899 235.66ZM293.912 170.45C293.632 170.17 293.179 170.17 292.899 170.45L288.342 175.006C288.063 175.286 288.063 175.739 288.342 176.019C288.622 176.299 289.075 176.299 289.355 176.019L293.405 171.969L297.456 176.019C297.735 176.299 298.189 176.299 298.468 176.019C298.748 175.739 298.748 175.286 298.468 175.006L293.912 170.45ZM294.121 235.154V170.956H292.689V235.154H294.121Z" fill="white"/>
<path d="M371.977 297.071C371.812 297.431 371.969 297.856 372.329 298.021L378.183 300.714C378.542 300.879 378.968 300.722 379.133 300.363C379.298 300.004 379.141 299.578 378.782 299.413L373.578 297.019L375.972 291.815C376.137 291.456 375.979 291.031 375.62 290.866C375.261 290.7 374.836 290.858 374.671 291.217L371.977 297.071ZM446.278 270.67C446.444 270.311 446.286 269.885 445.927 269.72L440.073 267.027C439.713 266.862 439.288 267.019 439.123 267.378C438.958 267.738 439.115 268.163 439.474 268.328L444.678 270.722L442.284 275.926C442.119 276.285 442.276 276.71 442.636 276.876C442.995 277.041 443.42 276.884 443.585 276.524L446.278 270.67ZM372.876 298.042L445.876 271.042L445.38 269.699L372.38 296.699L372.876 298.042Z" fill="white"/>
<g filter="url(#filter10_ddd)">
<path d="M553.126 206.485C554.32 208.552 554.32 211.1 553.126 213.167L526.475 259.329C525.281 261.397 523.075 262.67 520.688 262.67H467.385C464.997 262.67 462.791 261.397 461.597 259.329L434.946 213.167C433.752 211.1 433.752 208.552 434.946 206.485L461.597 160.323C462.791 158.255 464.997 156.982 467.385 156.982L520.688 156.982C523.075 156.982 525.281 158.255 526.475 160.323L553.126 206.485Z" fill="white"/>
</g>
<g filter="url(#filter11_ddd)">
<path d="M437.809 462.748C436.615 460.681 436.615 458.133 437.809 456.065L464.46 409.904C465.654 407.836 467.86 406.563 470.248 406.563H523.551C525.938 406.563 528.144 407.836 529.338 409.904L555.989 456.065C557.183 458.133 557.183 460.681 555.989 462.748L529.338 508.91C528.144 510.977 525.938 512.251 523.551 512.251H470.248C467.86 512.251 465.654 510.977 464.46 508.91L437.809 462.748Z" fill="white"/>
</g>
<path d="M275.477 312.571C276.455 312.8 277.226 313.274 277.791 313.992C278.372 314.71 278.662 315.542 278.662 316.489C278.662 317.879 278.196 318.964 277.264 319.743C276.348 320.522 275.026 320.912 273.3 320.912H265.762V304.712H273.117C274.767 304.712 276.042 305.071 276.943 305.789C277.845 306.507 278.295 307.531 278.295 308.859C278.295 309.837 278.036 310.654 277.516 311.311C276.997 311.953 276.317 312.373 275.477 312.571ZM269.68 311.334H272.246C273.606 311.334 274.286 310.754 274.286 309.593C274.286 308.432 273.591 307.851 272.201 307.851H269.68V311.334ZM272.475 317.727C273.927 317.727 274.652 317.131 274.652 315.94C274.652 315.359 274.461 314.908 274.079 314.588C273.697 314.252 273.155 314.084 272.453 314.084H269.68V317.727H272.475ZM285.818 307.966C286.796 307.966 287.636 308.187 288.338 308.63C289.041 309.073 289.56 309.677 289.897 310.44V308.126H293.792V320.912H289.897V318.597C289.56 319.361 289.041 319.965 288.338 320.408C287.636 320.851 286.796 321.072 285.818 321.072C284.764 321.072 283.817 320.812 282.977 320.293C282.152 319.758 281.495 318.995 281.006 318.002C280.533 317.009 280.296 315.848 280.296 314.519C280.296 313.175 280.533 312.014 281.006 311.036C281.495 310.043 282.152 309.287 282.977 308.768C283.817 308.233 284.764 307.966 285.818 307.966ZM287.078 311.403C286.238 311.403 285.558 311.678 285.039 312.228C284.535 312.778 284.283 313.541 284.283 314.519C284.283 315.497 284.535 316.26 285.039 316.81C285.558 317.36 286.238 317.635 287.078 317.635C287.903 317.635 288.575 317.352 289.095 316.787C289.629 316.222 289.897 315.466 289.897 314.519C289.897 313.557 289.629 312.8 289.095 312.251C288.575 311.685 287.903 311.403 287.078 311.403ZM304.83 307.989C306.296 307.989 307.457 308.478 308.312 309.455C309.183 310.433 309.618 311.777 309.618 313.488V320.912H305.7V313.946C305.7 313.091 305.471 312.426 305.013 311.953C304.57 311.464 303.974 311.22 303.226 311.22C302.431 311.22 301.797 311.472 301.324 311.976C300.866 312.48 300.637 313.198 300.637 314.129V320.912H296.718V308.126H300.637V310.463C301.003 309.7 301.545 309.096 302.263 308.653C302.997 308.21 303.852 307.989 304.83 307.989ZM320.176 320.912L316.35 315.481V320.912H312.432V303.956H316.35V313.259L320.176 308.126H324.782L319.626 314.519L324.896 320.912H320.176Z" fill="white"/>
<path d="M509.468 456.694H514.838V469.552H509.468V456.694Z" fill="url(#paint2_linear)"/>
<path d="M499.299 456.694H504.669V469.552H499.299V456.694Z" fill="url(#paint3_linear)"/>
<path d="M489.129 456.694H494.499V469.552H489.129V456.694Z" fill="url(#paint4_linear)"/>
<path d="M478.96 456.694H484.33V469.552H478.96V456.694Z" fill="url(#paint5_linear)"/>
<path d="M516.627 452.666V451.324H477.17V452.666C477.17 453.408 477.771 454.009 478.513 454.009H515.285C516.026 454.009 516.627 453.408 516.627 452.666Z" fill="url(#paint6_linear)"/>
<path d="M518.468 472.237H475.33C474.588 472.237 473.987 472.838 473.987 473.579V477.159C473.987 477.901 474.588 478.502 475.33 478.502H518.468C519.21 478.502 519.811 477.901 519.811 477.159V473.579C519.811 472.838 519.21 472.237 518.468 472.237Z" fill="url(#paint7_linear)"/>
<path d="M475.329 448.639H518.469C519.07 448.639 519.597 448.24 519.761 447.662C519.924 447.084 519.685 446.467 519.173 446.153L497.603 432.876C497.171 432.61 496.627 432.61 496.195 432.876L474.625 446.153C474.113 446.468 473.874 447.084 474.037 447.662C474.201 448.24 474.728 448.639 475.329 448.639ZM495.986 440.573H497.812C498.553 440.573 499.154 441.174 499.154 441.915C499.154 442.657 498.553 443.258 497.812 443.258H495.986C495.245 443.258 494.644 442.657 494.644 441.915C494.644 441.174 495.245 440.573 495.986 440.573Z" fill="url(#paint8_linear)"/>
<path d="M109.202 207.113H114.572V219.97H109.202V207.113Z" fill="url(#paint9_linear)"/>
<path d="M99.0333 207.113H104.403V219.97H99.0333V207.113Z" fill="url(#paint10_linear)"/>
<path d="M88.8635 207.113H94.2337V219.97H88.8635V207.113Z" fill="url(#paint11_linear)"/>
<path d="M78.6947 207.113H84.0645V219.97H78.6947V207.113Z" fill="url(#paint12_linear)"/>
<path d="M116.362 203.085V201.743H76.9046V203.085C76.9046 203.827 77.5056 204.428 78.2471 204.428H115.019C115.76 204.428 116.362 203.827 116.362 203.085Z" fill="url(#paint13_linear)"/>
<path d="M118.203 222.656H75.0642C74.3226 222.656 73.7216 223.257 73.7216 223.998V227.578C73.7216 228.32 74.3226 228.921 75.0642 228.921H118.203C118.944 228.921 119.545 228.32 119.545 227.578V223.998C119.545 223.257 118.944 222.656 118.203 222.656Z" fill="url(#paint14_linear)"/>
<path d="M75.0631 199.058H118.204C118.804 199.058 119.332 198.659 119.495 198.081C119.659 197.503 119.419 196.886 118.907 196.572L97.3372 183.294C96.9057 183.029 96.3614 183.029 95.9296 183.294L74.3593 196.572C73.8478 196.887 73.608 197.503 73.7716 198.081C73.9353 198.659 74.4628 199.058 75.0631 199.058ZM95.7209 190.992H97.5462C98.2878 190.992 98.8888 191.593 98.8888 192.334C98.8888 193.076 98.2878 193.677 97.5462 193.677H95.7209C94.9793 193.677 94.3783 193.076 94.3783 192.334C94.3783 191.593 94.9793 190.992 95.7209 190.992Z" fill="url(#paint15_linear)"/>
<path d="M305.903 91.7603H311.273V104.618H305.903V91.7603Z" fill="white"/>
<path d="M295.734 91.7603H301.105V104.618H295.734V91.7603Z" fill="white"/>
<path d="M285.565 91.7603H290.935V104.618H285.565V91.7603Z" fill="white"/>
<path d="M275.396 91.7603H280.766V104.618H275.396V91.7603Z" fill="white"/>
<path d="M313.063 87.7326V86.3901H273.606V87.7326C273.606 88.4742 274.207 89.0752 274.948 89.0752H311.72C312.462 89.0752 313.063 88.4742 313.063 87.7326Z" fill="white"/>
<path d="M314.904 107.303H271.765C271.024 107.303 270.423 107.904 270.423 108.646V112.226C270.423 112.967 271.024 113.568 271.765 113.568H314.904C315.645 113.568 316.246 112.967 316.246 112.226V108.646C316.246 107.904 315.645 107.303 314.904 107.303Z" fill="white"/>
<path d="M271.764 83.705H314.905C315.505 83.705 316.033 83.3061 316.197 82.7282C316.36 82.1502 316.12 81.5338 315.609 81.2192L294.038 67.942C293.607 67.6762 293.063 67.6762 292.631 67.942L271.061 81.2192C270.549 81.5342 270.309 82.1502 270.473 82.7282C270.636 83.3061 271.164 83.705 271.764 83.705ZM292.422 75.6392H294.247C294.989 75.6392 295.59 76.2402 295.59 76.9818C295.59 77.7233 294.989 78.3243 294.247 78.3243H292.422C291.68 78.3243 291.079 77.7233 291.079 76.9818C291.079 76.2402 291.68 75.6392 292.422 75.6392Z" fill="white"/>
<path d="M506.605 207.113H511.975V219.97H506.605V207.113Z" fill="url(#paint16_linear)"/>
<path d="M496.437 207.113H501.807V219.97H496.437V207.113Z" fill="url(#paint17_linear)"/>
<path d="M486.267 207.113H491.637V219.97H486.267V207.113Z" fill="url(#paint18_linear)"/>
<path d="M476.098 207.113H481.468V219.97H476.098V207.113Z" fill="url(#paint19_linear)"/>
<path d="M513.765 203.085V201.743H474.308V203.085C474.308 203.827 474.909 204.428 475.65 204.428H512.423C513.164 204.428 513.765 203.827 513.765 203.085Z" fill="url(#paint20_linear)"/>
<path d="M515.606 222.656H472.468C471.726 222.656 471.125 223.257 471.125 223.998V227.578C471.125 228.32 471.726 228.921 472.468 228.921H515.606C516.347 228.921 516.948 228.32 516.948 227.578V223.998C516.948 223.257 516.347 222.656 515.606 222.656Z" fill="url(#paint21_linear)"/>
<path d="M472.466 199.058H515.607C516.208 199.058 516.735 198.659 516.899 198.081C517.062 197.503 516.822 196.886 516.311 196.572L494.74 183.294C494.309 183.029 493.765 183.029 493.333 183.294L471.763 196.572C471.251 196.887 471.011 197.503 471.175 198.081C471.339 198.659 471.866 199.058 472.466 199.058ZM493.124 190.992H494.95C495.691 190.992 496.292 191.593 496.292 192.334C496.292 193.076 495.691 193.677 494.95 193.677H493.124C492.383 193.677 491.782 193.076 491.782 192.334C491.782 191.593 492.383 190.992 493.124 190.992Z" fill="url(#paint22_linear)"/>
<path d="M109.201 456.694H114.571V469.552H109.201V456.694Z" fill="url(#paint23_linear)"/>
<path d="M99.0323 456.694H104.403V469.552H99.0323V456.694Z" fill="url(#paint24_linear)"/>
<path d="M88.8625 456.694H94.2327V469.552H88.8625V456.694Z" fill="url(#paint25_linear)"/>
<path d="M78.6937 456.694H84.0635V469.552H78.6937V456.694Z" fill="url(#paint26_linear)"/>
<path d="M116.361 452.666V451.324H76.9036V452.666C76.9036 453.408 77.5046 454.009 78.2462 454.009H115.018C115.759 454.009 116.361 453.408 116.361 452.666Z" fill="url(#paint27_linear)"/>
<path d="M118.202 472.237H75.0632C74.3217 472.237 73.7207 472.838 73.7207 473.579V477.159C73.7207 477.901 74.3217 478.502 75.0632 478.502H118.202C118.943 478.502 119.544 477.901 119.544 477.159V473.579C119.544 472.838 118.943 472.237 118.202 472.237Z" fill="url(#paint28_linear)"/>
<path d="M75.0622 448.639H118.203C118.803 448.639 119.331 448.24 119.494 447.662C119.658 447.084 119.418 446.467 118.906 446.153L97.3362 432.876C96.9048 432.61 96.3604 432.61 95.9286 432.876L74.3584 446.153C73.8469 446.468 73.607 447.084 73.7707 447.662C73.9343 448.24 74.4619 448.639 75.0622 448.639ZM95.7199 440.573H97.5453C98.2868 440.573 98.8878 441.174 98.8878 441.915C98.8878 442.657 98.2868 443.258 97.5453 443.258H95.7199C94.9783 443.258 94.3773 442.657 94.3773 441.915C94.3773 441.174 94.9783 440.573 95.7199 440.573Z" fill="url(#paint29_linear)"/>
<path d="M307.903 524.181H313.273V537.038H307.903V524.181Z" fill="url(#paint30_linear)"/>
<path d="M297.734 524.181H303.105V537.038H297.734V524.181Z" fill="url(#paint31_linear)"/>
<path d="M287.565 524.181H292.935V537.038H287.565V524.181Z" fill="url(#paint32_linear)"/>
<path d="M277.396 524.181H282.766V537.038H277.396V524.181Z" fill="url(#paint33_linear)"/>
<path d="M315.063 520.153V518.81H275.606V520.153C275.606 520.895 276.207 521.496 276.948 521.496H313.72C314.462 521.496 315.063 520.895 315.063 520.153Z" fill="url(#paint34_linear)"/>
<path d="M316.904 539.723H273.765C273.024 539.723 272.423 540.324 272.423 541.066V544.646C272.423 545.388 273.024 545.989 273.765 545.989H316.904C317.645 545.989 318.246 545.388 318.246 544.646V541.066C318.246 540.324 317.645 539.723 316.904 539.723Z" fill="url(#paint35_linear)"/>
<path d="M273.764 516.125H316.905C317.505 516.125 318.033 515.726 318.197 515.149C318.36 514.571 318.12 513.954 317.609 513.64L296.038 500.362C295.607 500.097 295.063 500.097 294.631 500.362L273.061 513.64C272.549 513.955 272.309 514.571 272.473 515.149C272.636 515.726 273.164 516.125 273.764 516.125ZM294.422 508.06H296.247C296.989 508.06 297.59 508.661 297.59 509.402C297.59 510.144 296.989 510.745 296.247 510.745H294.422C293.68 510.745 293.079 510.144 293.079 509.402C293.079 508.661 293.68 508.06 294.422 508.06Z" fill="url(#paint36_linear)"/>
<path d="M494.372 303.951C494.372 304.592 494.205 305.182 493.873 305.721C493.552 306.259 493.071 306.689 492.43 307.01C491.8 307.331 491.032 307.491 490.127 307.491C488.764 307.491 487.641 307.159 486.759 306.494C485.877 305.83 485.396 304.902 485.315 303.71H488.443C488.489 304.169 488.649 304.529 488.924 304.793C489.21 305.056 489.571 305.188 490.007 305.188C490.385 305.188 490.683 305.085 490.9 304.879C491.118 304.673 491.227 304.398 491.227 304.054C491.227 303.745 491.124 303.487 490.917 303.281C490.723 303.074 490.476 302.908 490.179 302.782C489.881 302.645 489.468 302.484 488.941 302.301C488.174 302.038 487.544 301.786 487.051 301.545C486.57 301.293 486.152 300.926 485.796 300.445C485.453 299.953 485.281 299.317 485.281 298.538C485.281 297.816 485.464 297.192 485.831 296.665C486.197 296.138 486.702 295.737 487.343 295.462C487.996 295.175 488.741 295.032 489.577 295.032C490.929 295.032 492 295.353 492.791 295.994C493.593 296.636 494.045 297.518 494.148 298.641H490.969C490.912 298.24 490.763 297.925 490.522 297.696C490.293 297.455 489.978 297.335 489.577 297.335C489.233 297.335 488.953 297.426 488.735 297.61C488.529 297.793 488.426 298.062 488.426 298.417C488.426 298.704 488.517 298.95 488.701 299.156C488.895 299.351 489.136 299.512 489.422 299.638C489.709 299.764 490.121 299.924 490.66 300.119C491.439 300.382 492.075 300.646 492.567 300.909C493.06 301.161 493.484 301.534 493.839 302.026C494.194 302.519 494.372 303.16 494.372 303.951ZM510.191 297.782L507.733 307.371H504.451L502.715 300.944L500.963 307.371H497.68L495.223 297.782H498.161L499.433 304.69L501.22 297.782H504.348L506.187 304.707L507.458 297.782H510.191ZM520.535 302.318C520.535 302.559 520.506 302.822 520.449 303.109H513.798C513.833 303.831 514.016 304.352 514.348 304.673C514.68 304.982 515.104 305.137 515.62 305.137C516.055 305.137 516.416 305.028 516.702 304.81C516.989 304.592 517.178 304.312 517.27 303.968H520.38C520.254 304.644 519.979 305.251 519.555 305.79C519.131 306.317 518.593 306.735 517.94 307.044C517.287 307.342 516.559 307.491 515.757 307.491C514.818 307.491 513.982 307.296 513.248 306.907C512.527 306.506 511.959 305.933 511.547 305.188C511.135 304.443 510.928 303.573 510.928 302.576C510.928 301.568 511.129 300.697 511.53 299.964C511.942 299.219 512.515 298.652 513.248 298.263C513.982 297.862 514.818 297.661 515.757 297.661C516.708 297.661 517.544 297.856 518.266 298.246C518.988 298.635 519.544 299.185 519.933 299.895C520.334 300.594 520.535 301.402 520.535 302.318ZM517.562 301.872C517.573 301.241 517.401 300.772 517.046 300.462C516.702 300.142 516.273 299.981 515.757 299.981C515.219 299.981 514.772 300.142 514.417 300.462C514.062 300.783 513.861 301.253 513.815 301.872H517.562ZM531.346 302.318C531.346 302.559 531.317 302.822 531.26 303.109H524.61C524.644 303.831 524.827 304.352 525.16 304.673C525.492 304.982 525.916 305.137 526.431 305.137C526.867 305.137 527.228 305.028 527.514 304.81C527.8 304.592 527.989 304.312 528.081 303.968H531.191C531.065 304.644 530.79 305.251 530.367 305.79C529.943 306.317 529.404 306.735 528.751 307.044C528.098 307.342 527.371 307.491 526.569 307.491C525.629 307.491 524.793 307.296 524.06 306.907C523.338 306.506 522.771 305.933 522.359 305.188C521.946 304.443 521.74 303.573 521.74 302.576C521.74 301.568 521.94 300.697 522.341 299.964C522.754 299.219 523.327 298.652 524.06 298.263C524.793 297.862 525.629 297.661 526.569 297.661C527.52 297.661 528.356 297.856 529.078 298.246C529.8 298.635 530.355 299.185 530.745 299.895C531.146 300.594 531.346 301.402 531.346 302.318ZM528.373 301.872C528.385 301.241 528.213 300.772 527.858 300.462C527.514 300.142 527.084 299.981 526.569 299.981C526.03 299.981 525.584 300.142 525.228 300.462C524.873 300.783 524.673 301.253 524.627 301.872H528.373ZM539.03 297.661C539.821 297.661 540.525 297.862 541.144 298.263C541.774 298.652 542.267 299.219 542.622 299.964C542.988 300.697 543.172 301.568 543.172 302.576C543.172 303.573 542.988 304.443 542.622 305.188C542.267 305.933 541.774 306.506 541.144 306.907C540.525 307.296 539.821 307.491 539.03 307.491C538.297 307.491 537.667 307.325 537.14 306.993C536.613 306.66 536.229 306.208 535.988 305.635V311.942H533.05V297.782H535.988V299.517C536.229 298.944 536.613 298.492 537.14 298.16C537.667 297.827 538.297 297.661 539.03 297.661ZM538.085 300.239C537.466 300.239 536.956 300.451 536.555 300.875C536.166 301.287 535.971 301.854 535.971 302.576C535.971 303.286 536.166 303.853 536.555 304.277C536.956 304.701 537.466 304.913 538.085 304.913C538.715 304.913 539.219 304.707 539.597 304.295C539.987 303.882 540.181 303.309 540.181 302.576C540.181 301.843 539.987 301.27 539.597 300.858C539.219 300.445 538.715 300.239 538.085 300.239ZM552.124 297.661C552.857 297.661 553.487 297.827 554.014 298.16C554.541 298.492 554.93 298.944 555.182 299.517V297.782H558.104V307.371H555.182V305.635C554.93 306.208 554.541 306.66 554.014 306.993C553.487 307.325 552.857 307.491 552.124 307.491C551.333 307.491 550.623 307.296 549.993 306.907C549.374 306.506 548.881 305.933 548.515 305.188C548.16 304.443 547.982 303.573 547.982 302.576C547.982 301.568 548.16 300.697 548.515 299.964C548.881 299.219 549.374 298.652 549.993 298.263C550.623 297.862 551.333 297.661 552.124 297.661ZM553.069 300.239C552.439 300.239 551.929 300.445 551.539 300.858C551.161 301.27 550.972 301.843 550.972 302.576C550.972 303.309 551.161 303.882 551.539 304.295C551.929 304.707 552.439 304.913 553.069 304.913C553.687 304.913 554.191 304.701 554.581 304.277C554.982 303.853 555.182 303.286 555.182 302.576C555.182 301.854 554.982 301.287 554.581 300.875C554.191 300.451 553.687 300.239 553.069 300.239ZM564.629 297.661C565.867 297.661 566.903 298.005 567.74 298.692C568.576 299.368 569.103 300.302 569.321 301.493H566.21C566.119 301.081 565.93 300.76 565.643 300.531C565.357 300.302 564.996 300.187 564.561 300.187C564.045 300.187 563.621 300.394 563.289 300.806C562.957 301.207 562.791 301.797 562.791 302.576C562.791 303.355 562.957 303.951 563.289 304.363C563.621 304.764 564.045 304.965 564.561 304.965C564.996 304.965 565.357 304.85 565.643 304.621C565.93 304.392 566.119 304.071 566.21 303.659H569.321C569.103 304.85 568.576 305.79 567.74 306.477C566.903 307.153 565.867 307.491 564.629 307.491C563.69 307.491 562.854 307.296 562.12 306.907C561.399 306.506 560.832 305.933 560.419 305.188C560.007 304.443 559.8 303.573 559.8 302.576C559.8 301.568 560.001 300.697 560.402 299.964C560.814 299.219 561.387 298.652 562.12 298.263C562.854 297.862 563.69 297.661 564.629 297.661ZM575.357 297.661C576.594 297.661 577.631 298.005 578.467 298.692C579.304 299.368 579.831 300.302 580.048 301.493H576.938C576.846 301.081 576.657 300.76 576.371 300.531C576.084 300.302 575.724 300.187 575.288 300.187C574.773 300.187 574.349 300.394 574.017 300.806C573.684 301.207 573.518 301.797 573.518 302.576C573.518 303.355 573.684 303.951 574.017 304.363C574.349 304.764 574.773 304.965 575.288 304.965C575.724 304.965 576.084 304.85 576.371 304.621C576.657 304.392 576.846 304.071 576.938 303.659H580.048C579.831 304.85 579.304 305.79 578.467 306.477C577.631 307.153 576.594 307.491 575.357 307.491C574.418 307.491 573.581 307.296 572.848 306.907C572.126 306.506 571.559 305.933 571.147 305.188C570.734 304.443 570.528 303.573 570.528 302.576C570.528 301.568 570.729 300.697 571.13 299.964C571.542 299.219 572.115 298.652 572.848 298.263C573.581 297.862 574.418 297.661 575.357 297.661ZM586.239 297.661C587.19 297.661 588.038 297.862 588.783 298.263C589.539 298.652 590.129 299.219 590.553 299.964C590.988 300.709 591.206 301.579 591.206 302.576C591.206 303.573 590.988 304.443 590.553 305.188C590.129 305.933 589.539 306.506 588.783 306.907C588.038 307.296 587.19 307.491 586.239 307.491C585.288 307.491 584.435 307.296 583.679 306.907C582.923 306.506 582.327 305.933 581.892 305.188C581.468 304.443 581.256 303.573 581.256 302.576C581.256 301.579 581.468 300.709 581.892 299.964C582.327 299.219 582.923 298.652 583.679 298.263C584.435 297.862 585.288 297.661 586.239 297.661ZM586.239 300.205C585.678 300.205 585.202 300.411 584.813 300.823C584.435 301.224 584.246 301.809 584.246 302.576C584.246 303.344 584.435 303.928 584.813 304.329C585.202 304.73 585.678 304.93 586.239 304.93C586.801 304.93 587.27 304.73 587.648 304.329C588.026 303.928 588.215 303.344 588.215 302.576C588.215 301.809 588.026 301.224 587.648 300.823C587.27 300.411 586.801 300.205 586.239 300.205ZM602.439 297.782V307.371H599.483V305.635C599.208 306.196 598.796 306.643 598.246 306.975C597.707 307.308 597.077 307.474 596.355 307.474C595.256 307.474 594.379 307.107 593.726 306.374C593.085 305.641 592.764 304.633 592.764 303.349V297.782H595.685V302.989C595.685 303.642 595.851 304.151 596.183 304.518C596.527 304.873 596.985 305.051 597.558 305.051C598.154 305.051 598.624 304.862 598.967 304.484C599.311 304.106 599.483 303.567 599.483 302.868V297.782H602.439ZM610.719 297.678C611.819 297.678 612.69 298.045 613.331 298.778C613.984 299.512 614.311 300.52 614.311 301.803V307.371H611.372V302.146C611.372 301.505 611.2 301.007 610.857 300.651C610.524 300.285 610.078 300.102 609.516 300.102C608.92 300.102 608.445 300.291 608.09 300.669C607.746 301.047 607.574 301.585 607.574 302.284V307.371H604.636V297.782H607.574V299.534C607.849 298.962 608.256 298.509 608.794 298.177C609.344 297.845 609.986 297.678 610.719 297.678ZM621.851 304.844V307.371H620.528C619.405 307.371 618.529 307.096 617.899 306.546C617.28 305.984 616.971 305.062 616.971 303.779V300.256H615.682V297.782H616.971V295.427H619.909V297.782H621.834V300.256H619.909V303.831C619.909 304.209 619.984 304.472 620.133 304.621C620.293 304.77 620.556 304.844 620.923 304.844H621.851ZM627.163 297.661C628.377 297.661 629.345 297.965 630.067 298.572C630.8 299.179 631.259 299.981 631.442 300.978H628.692C628.612 300.588 628.429 300.285 628.142 300.067C627.867 299.838 627.518 299.723 627.094 299.723C626.762 299.723 626.51 299.798 626.338 299.947C626.166 300.084 626.08 300.285 626.08 300.548C626.08 300.846 626.235 301.07 626.544 301.219C626.865 301.367 627.363 301.516 628.039 301.665C628.773 301.837 629.374 302.015 629.844 302.198C630.313 302.37 630.72 302.656 631.064 303.057C631.407 303.458 631.579 303.997 631.579 304.673C631.579 305.223 631.43 305.709 631.133 306.133C630.835 306.557 630.405 306.889 629.844 307.13C629.282 307.371 628.618 307.491 627.85 307.491C626.556 307.491 625.519 307.204 624.74 306.632C623.961 306.059 623.485 305.24 623.314 304.174H626.149C626.195 304.587 626.367 304.902 626.665 305.119C626.974 305.337 627.369 305.446 627.85 305.446C628.183 305.446 628.435 305.371 628.606 305.223C628.778 305.062 628.864 304.856 628.864 304.604C628.864 304.272 628.704 304.037 628.383 303.899C628.074 303.75 627.564 303.596 626.854 303.435C626.143 303.286 625.559 303.126 625.101 302.954C624.642 302.782 624.247 302.507 623.915 302.129C623.583 301.74 623.417 301.213 623.417 300.548C623.417 299.689 623.743 298.996 624.396 298.469C625.049 297.931 625.971 297.661 627.163 297.661ZM494.75 323.318C494.75 323.559 494.721 323.822 494.664 324.109H488.013C488.048 324.831 488.231 325.352 488.563 325.673C488.895 325.982 489.319 326.137 489.835 326.137C490.27 326.137 490.631 326.028 490.917 325.81C491.204 325.592 491.393 325.312 491.485 324.968H494.595C494.469 325.644 494.194 326.251 493.77 326.79C493.346 327.317 492.808 327.735 492.155 328.044C491.502 328.342 490.774 328.491 489.972 328.491C489.033 328.491 488.197 328.296 487.463 327.907C486.742 327.506 486.175 326.933 485.762 326.188C485.35 325.443 485.143 324.573 485.143 323.576C485.143 322.568 485.344 321.697 485.745 320.964C486.157 320.219 486.73 319.652 487.463 319.263C488.197 318.862 489.033 318.661 489.972 318.661C490.923 318.661 491.76 318.856 492.481 319.246C493.203 319.635 493.759 320.185 494.148 320.895C494.549 321.594 494.75 322.402 494.75 323.318ZM491.777 322.872C491.788 322.241 491.616 321.772 491.261 321.462C490.917 321.142 490.488 320.981 489.972 320.981C489.434 320.981 488.987 321.142 488.632 321.462C488.277 321.783 488.076 322.253 488.03 322.872H491.777ZM500.096 318.661C500.83 318.661 501.46 318.827 501.987 319.16C502.514 319.492 502.903 319.944 503.155 320.517V318.782H506.077V328.371H503.155V326.635C502.903 327.208 502.514 327.66 501.987 327.993C501.46 328.325 500.83 328.491 500.096 328.491C499.306 328.491 498.596 328.296 497.966 327.907C497.347 327.506 496.854 326.933 496.488 326.188C496.133 325.443 495.955 324.573 495.955 323.576C495.955 322.568 496.133 321.697 496.488 320.964C496.854 320.219 497.347 319.652 497.966 319.263C498.596 318.862 499.306 318.661 500.096 318.661ZM501.042 321.239C500.412 321.239 499.902 321.445 499.512 321.858C499.134 322.27 498.945 322.843 498.945 323.576C498.945 324.309 499.134 324.882 499.512 325.295C499.902 325.707 500.412 325.913 501.042 325.913C501.66 325.913 502.164 325.701 502.554 325.277C502.955 324.853 503.155 324.286 503.155 323.576C503.155 322.854 502.955 322.287 502.554 321.875C502.164 321.451 501.66 321.239 501.042 321.239ZM511.21 320.586C511.577 320.002 512.047 319.538 512.619 319.194C513.204 318.85 513.834 318.678 514.51 318.678V321.823H513.668C512.889 321.823 512.282 321.989 511.846 322.322C511.422 322.654 511.21 323.215 511.21 324.006V328.371H508.272V318.782H511.21V320.586ZM521.995 318.678C523.095 318.678 523.965 319.045 524.607 319.778C525.26 320.512 525.586 321.52 525.586 322.803V328.371H522.648V323.146C522.648 322.505 522.476 322.007 522.132 321.651C521.8 321.285 521.353 321.102 520.792 321.102C520.196 321.102 519.721 321.291 519.366 321.669C519.022 322.047 518.85 322.585 518.85 323.284V328.371H515.912V318.782H518.85V320.534C519.125 319.962 519.532 319.509 520.07 319.177C520.62 318.845 521.262 318.678 521.995 318.678ZM537.392 318.678C538.492 318.678 539.362 319.045 540.004 319.778C540.657 320.512 540.983 321.52 540.983 322.803V328.371H538.045V323.146C538.045 322.505 537.873 322.007 537.529 321.651C537.197 321.285 536.75 321.102 536.189 321.102C535.593 321.102 535.118 321.291 534.763 321.669C534.419 322.047 534.247 322.585 534.247 323.284V328.371H531.309V318.782H534.247V320.534C534.522 319.962 534.929 319.509 535.467 319.177C536.017 318.845 536.659 318.678 537.392 318.678ZM552.201 323.318C552.201 323.559 552.173 323.822 552.115 324.109H545.465C545.499 324.831 545.683 325.352 546.015 325.673C546.347 325.982 546.771 326.137 547.286 326.137C547.722 326.137 548.083 326.028 548.369 325.81C548.656 325.592 548.845 325.312 548.936 324.968H552.047C551.921 325.644 551.646 326.251 551.222 326.79C550.798 327.317 550.259 327.735 549.606 328.044C548.953 328.342 548.226 328.491 547.424 328.491C546.485 328.491 545.648 328.296 544.915 327.907C544.193 327.506 543.626 326.933 543.214 326.188C542.801 325.443 542.595 324.573 542.595 323.576C542.595 322.568 542.796 321.697 543.197 320.964C543.609 320.219 544.182 319.652 544.915 319.263C545.648 318.862 546.485 318.661 547.424 318.661C548.375 318.661 549.211 318.856 549.933 319.246C550.655 319.635 551.21 320.185 551.6 320.895C552.001 321.594 552.201 322.402 552.201 323.318ZM549.228 322.872C549.24 322.241 549.068 321.772 548.713 321.462C548.369 321.142 547.939 320.981 547.424 320.981C546.885 320.981 546.439 321.142 546.084 321.462C545.728 321.783 545.528 322.253 545.482 322.872H549.228ZM557.548 318.661C558.281 318.661 558.911 318.827 559.438 319.16C559.965 319.492 560.355 319.944 560.607 320.517V318.782H563.528V328.371H560.607V326.635C560.355 327.208 559.965 327.66 559.438 327.993C558.911 328.325 558.281 328.491 557.548 328.491C556.758 328.491 556.047 328.296 555.417 327.907C554.799 327.506 554.306 326.933 553.939 326.188C553.584 325.443 553.407 324.573 553.407 323.576C553.407 322.568 553.584 321.697 553.939 320.964C554.306 320.219 554.799 319.652 555.417 319.263C556.047 318.862 556.758 318.661 557.548 318.661ZM558.493 321.239C557.863 321.239 557.353 321.445 556.964 321.858C556.586 322.27 556.397 322.843 556.397 323.576C556.397 324.309 556.586 324.882 556.964 325.295C557.353 325.707 557.863 325.913 558.493 325.913C559.112 325.913 559.616 325.701 560.005 325.277C560.406 324.853 560.607 324.286 560.607 323.576C560.607 322.854 560.406 322.287 560.005 321.875C559.616 321.451 559.112 321.239 558.493 321.239ZM568.662 320.586C569.029 320.002 569.498 319.538 570.071 319.194C570.655 318.85 571.285 318.678 571.961 318.678V321.823H571.119C570.34 321.823 569.733 321.989 569.298 322.322C568.874 322.654 568.662 323.215 568.662 324.006V328.371H565.723V318.782H568.662V320.586ZM579.57 325.913H584.004V328.371H576.357V326.051L580.481 321.222H576.425V318.782H583.832V321.102L579.57 325.913ZM594.679 323.318C594.679 323.559 594.651 323.822 594.594 324.109H587.943C587.977 324.831 588.161 325.352 588.493 325.673C588.825 325.982 589.249 326.137 589.765 326.137C590.2 326.137 590.561 326.028 590.847 325.81C591.134 325.592 591.323 325.312 591.414 324.968H594.525C594.399 325.644 594.124 326.251 593.7 326.79C593.276 327.317 592.738 327.735 592.085 328.044C591.432 328.342 590.704 328.491 589.902 328.491C588.963 328.491 588.126 328.296 587.393 327.907C586.671 327.506 586.104 326.933 585.692 326.188C585.279 325.443 585.073 324.573 585.073 323.576C585.073 322.568 585.274 321.697 585.675 320.964C586.087 320.219 586.66 319.652 587.393 319.263C588.126 318.862 588.963 318.661 589.902 318.661C590.853 318.661 591.689 318.856 592.411 319.246C593.133 319.635 593.688 320.185 594.078 320.895C594.479 321.594 594.679 322.402 594.679 323.318ZM591.706 322.872C591.718 322.241 591.546 321.772 591.191 321.462C590.847 321.142 590.418 320.981 589.902 320.981C589.364 320.981 588.917 321.142 588.562 321.462C588.207 321.783 588.006 322.253 587.96 322.872H591.706ZM599.322 320.586C599.688 320.002 600.158 319.538 600.731 319.194C601.315 318.85 601.945 318.678 602.621 318.678V321.823H601.779C601 321.823 600.393 321.989 599.958 322.322C599.534 322.654 599.322 323.215 599.322 324.006V328.371H596.383V318.782H599.322V320.586ZM608.508 318.661C609.459 318.661 610.307 318.862 611.051 319.263C611.808 319.652 612.398 320.219 612.821 320.964C613.257 321.709 613.474 322.579 613.474 323.576C613.474 324.573 613.257 325.443 612.821 326.188C612.398 326.933 611.808 327.506 611.051 327.907C610.307 328.296 609.459 328.491 608.508 328.491C607.557 328.491 606.704 328.296 605.948 327.907C605.191 327.506 604.596 326.933 604.16 326.188C603.736 325.443 603.525 324.573 603.525 323.576C603.525 322.579 603.736 321.709 604.16 320.964C604.596 320.219 605.191 319.652 605.948 319.263C606.704 318.862 607.557 318.661 608.508 318.661ZM608.508 321.205C607.947 321.205 607.471 321.411 607.082 321.823C606.704 322.224 606.515 322.809 606.515 323.576C606.515 324.344 606.704 324.928 607.082 325.329C607.471 325.73 607.947 325.93 608.508 325.93C609.069 325.93 609.539 325.73 609.917 325.329C610.295 324.928 610.484 324.344 610.484 323.576C610.484 322.809 610.295 322.224 609.917 321.823C609.539 321.411 609.069 321.205 608.508 321.205Z" fill="white"/>
<defs>
<filter id="filter0_ddd" x="347.242" y="457.427" width="150.052" height="155.968" filterUnits="userSpaceOnUse" color-interpolation-filters="sRGB">
<feFlood flood-opacity="0" result="BackgroundImageFix"/>
<feColorMatrix in="SourceAlpha" type="matrix" values="0 0 0 0 0 0 0 0 0 0 0 0 0 0 0 0 0 0 127 0"/>
<feMorphology radius="7.6376" operator="dilate" in="SourceAlpha" result="effect1_dropShadow"/>
<feOffset dy="21.9581"/>
<feGaussianBlur stdDeviation="14.3205"/>
<feColorMatrix type="matrix" values="0 0 0 0 0 0 0 0 0 0.0876457 0 0 0 0 0.391667 0 0 0 0.05 0"/>
<feBlend mode="normal" in2="BackgroundImageFix" result="effect1_dropShadow"/>
<feColorMatrix in="SourceAlpha" type="matrix" values="0 0 0 0 0 0 0 0 0 0 0 0 0 0 0 0 0 0 127 0"/>
<feOffset dy="44.8709"/>
<feGaussianBlur stdDeviation="2.8641"/>
<feColorMatrix type="matrix" values="0 0 0 0 0.121569 0 0 0 0 0.247059 0 0 0 0 0.682353 0 0 0 0.02 0"/>
<feBlend mode="normal" in2="effect1_dropShadow" result="effect2_dropShadow"/>
<feColorMatrix in="SourceAlpha" type="matrix" values="0 0 0 0 0 0 0 0 0 0 0 0 0 0 0 0 0 0 127 0"/>
<feOffset dy="54.4179"/>
<feGaussianBlur stdDeviation="9.547"/>
<feColorMatrix type="matrix" values="0 0 0 0 0.121569 0 0 0 0 0.247059 0 0 0 0 0.682353 0 0 0 0.02 0"/>
<feBlend mode="normal" in2="effect2_dropShadow" result="effect3_dropShadow"/>
<feBlend mode="normal" in="SourceGraphic" in2="effect3_dropShadow" result="shape"/>
</filter>
<filter id="filter1_ddd" x="183.373" y="0.956357" width="223.924" height="244.319" filterUnits="userSpaceOnUse" color-interpolation-filters="sRGB">
<feFlood flood-opacity="0" result="BackgroundImageFix"/>
<feColorMatrix in="SourceAlpha" type="matrix" values="0 0 0 0 0 0 0 0 0 0 0 0 0 0 0 0 0 0 127 0"/>
<feMorphology radius="7.6376" operator="dilate" in="SourceAlpha" result="effect1_dropShadow"/>
<feOffset dy="21.9581"/>
<feGaussianBlur stdDeviation="14.3205"/>
<feColorMatrix type="matrix" values="0 0 0 0 0 0 0 0 0 0.0876457 0 0 0 0 0.391667 0 0 0 0.05 0"/>
<feBlend mode="normal" in2="BackgroundImageFix" result="effect1_dropShadow"/>
<feColorMatrix in="SourceAlpha" type="matrix" values="0 0 0 0 0 0 0 0 0 0 0 0 0 0 0 0 0 0 127 0"/>
<feOffset dy="44.8709"/>
<feGaussianBlur stdDeviation="2.8641"/>
<feColorMatrix type="matrix" values="0 0 0 0 0.121569 0 0 0 0 0.247059 0 0 0 0 0.682353 0 0 0 0.02 0"/>
<feBlend mode="normal" in2="effect1_dropShadow" result="effect2_dropShadow"/>
<feColorMatrix in="SourceAlpha" type="matrix" values="0 0 0 0 0 0 0 0 0 0 0 0 0 0 0 0 0 0 127 0"/>
<feOffset dy="54.4179"/>
<feGaussianBlur stdDeviation="9.547"/>
<feColorMatrix type="matrix" values="0 0 0 0 0.121569 0 0 0 0 0.247059 0 0 0 0 0.682353 0 0 0 0.02 0"/>
<feBlend mode="normal" in2="effect2_dropShadow" result="effect3_dropShadow"/>
<feBlend mode="normal" in="SourceGraphic" in2="effect3_dropShadow" result="shape"/>
</filter>
<filter id="filter2_ddd" x="183.373" y="221.094" width="223.924" height="244.319" filterUnits="userSpaceOnUse" color-interpolation-filters="sRGB">
<feFlood flood-opacity="0" result="BackgroundImageFix"/>
<feColorMatrix in="SourceAlpha" type="matrix" values="0 0 0 0 0 0 0 0 0 0 0 0 0 0 0 0 0 0 127 0"/>
<feMorphology radius="7.6376" operator="dilate" in="SourceAlpha" result="effect1_dropShadow"/>
<feOffset dy="21.9581"/>
<feGaussianBlur stdDeviation="14.3205"/>
<feColorMatrix type="matrix" values="0 0 0 0 0 0 0 0 0 0.0876457 0 0 0 0 0.391667 0 0 0 0.05 0"/>
<feBlend mode="normal" in2="BackgroundImageFix" result="effect1_dropShadow"/>
<feColorMatrix in="SourceAlpha" type="matrix" values="0 0 0 0 0 0 0 0 0 0 0 0 0 0 0 0 0 0 127 0"/>
<feOffset dy="44.8709"/>
<feGaussianBlur stdDeviation="2.8641"/>
<feColorMatrix type="matrix" values="0 0 0 0 0.121569 0 0 0 0 0.247059 0 0 0 0 0.682353 0 0 0 0.02 0"/>
<feBlend mode="normal" in2="effect1_dropShadow" result="effect2_dropShadow"/>
<feColorMatrix in="SourceAlpha" type="matrix" values="0 0 0 0 0 0 0 0 0 0 0 0 0 0 0 0 0 0 127 0"/>
<feOffset dy="54.4179"/>
<feGaussianBlur stdDeviation="9.547"/>
<feColorMatrix type="matrix" values="0 0 0 0 0.121569 0 0 0 0 0.247059 0 0 0 0 0.682353 0 0 0 0.02 0"/>
<feBlend mode="normal" in2="effect2_dropShadow" result="effect3_dropShadow"/>
<feBlend mode="normal" in="SourceGraphic" in2="effect3_dropShadow" result="shape"/>
</filter>
<filter id="filter3_ddd" x="0.367888" y="392.243" width="192.528" height="193.521" filterUnits="userSpaceOnUse" color-interpolation-filters="sRGB">
<feFlood flood-opacity="0" result="BackgroundImageFix"/>
<feColorMatrix in="SourceAlpha" type="matrix" values="0 0 0 0 0 0 0 0 0 0 0 0 0 0 0 0 0 0 127 0"/>
<feMorphology radius="7.6376" operator="dilate" in="SourceAlpha" result="effect1_dropShadow"/>
<feOffset dy="21.9581"/>
<feGaussianBlur stdDeviation="14.3205"/>
<feColorMatrix type="matrix" values="0 0 0 0 0 0 0 0 0 0.0876457 0 0 0 0 0.391667 0 0 0 0.05 0"/>
<feBlend mode="normal" in2="BackgroundImageFix" result="effect1_dropShadow"/>
<feColorMatrix in="SourceAlpha" type="matrix" values="0 0 0 0 0 0 0 0 0 0 0 0 0 0 0 0 0 0 127 0"/>
<feOffset dy="44.8709"/>
<feGaussianBlur stdDeviation="2.8641"/>
<feColorMatrix type="matrix" values="0 0 0 0 0.121569 0 0 0 0 0.247059 0 0 0 0 0.682353 0 0 0 0.02 0"/>
<feBlend mode="normal" in2="effect1_dropShadow" result="effect2_dropShadow"/>
<feColorMatrix in="SourceAlpha" type="matrix" values="0 0 0 0 0 0 0 0 0 0 0 0 0 0 0 0 0 0 127 0"/>
<feOffset dy="54.4179"/>
<feGaussianBlur stdDeviation="9.547"/>
<feColorMatrix type="matrix" values="0 0 0 0 0.121569 0 0 0 0 0.247059 0 0 0 0 0.682353 0 0 0 0.02 0"/>
<feBlend mode="normal" in2="effect2_dropShadow" result="effect3_dropShadow"/>
<feBlend mode="normal" in="SourceGraphic" in2="effect3_dropShadow" result="shape"/>
</filter>
<filter id="filter4_ddd" x="199.072" y="459.73" width="192.528" height="193.521" filterUnits="userSpaceOnUse" color-interpolation-filters="sRGB">
<feFlood flood-opacity="0" result="BackgroundImageFix"/>
<feColorMatrix in="SourceAlpha" type="matrix" values="0 0 0 0 0 0 0 0 0 0 0 0 0 0 0 0 0 0 127 0"/>
<feMorphology radius="7.6376" operator="dilate" in="SourceAlpha" result="effect1_dropShadow"/>
<feOffset dy="21.9581"/>
<feGaussianBlur stdDeviation="14.3205"/>
<feColorMatrix type="matrix" values="0 0 0 0 0 0 0 0 0 0.0876457 0 0 0 0 0.391667 0 0 0 0.05 0"/>
<feBlend mode="normal" in2="BackgroundImageFix" result="effect1_dropShadow"/>
<feColorMatrix in="SourceAlpha" type="matrix" values="0 0 0 0 0 0 0 0 0 0 0 0 0 0 0 0 0 0 127 0"/>
<feOffset dy="44.8709"/>
<feGaussianBlur stdDeviation="2.8641"/>
<feColorMatrix type="matrix" values="0 0 0 0 0.121569 0 0 0 0 0.247059 0 0 0 0 0.682353 0 0 0 0.02 0"/>
<feBlend mode="normal" in2="effect1_dropShadow" result="effect2_dropShadow"/>
<feColorMatrix in="SourceAlpha" type="matrix" values="0 0 0 0 0 0 0 0 0 0 0 0 0 0 0 0 0 0 127 0"/>
<feOffset dy="54.4179"/>
<feGaussianBlur stdDeviation="9.547"/>
<feColorMatrix type="matrix" values="0 0 0 0 0.121569 0 0 0 0 0.247059 0 0 0 0 0.682353 0 0 0 0.02 0"/>
<feBlend mode="normal" in2="effect2_dropShadow" result="effect3_dropShadow"/>
<feBlend mode="normal" in="SourceGraphic" in2="effect3_dropShadow" result="shape"/>
</filter>
<filter id="filter5_ddd" x="0.369842" y="142.662" width="192.528" height="193.521" filterUnits="userSpaceOnUse" color-interpolation-filters="sRGB">
<feFlood flood-opacity="0" result="BackgroundImageFix"/>
<feColorMatrix in="SourceAlpha" type="matrix" values="0 0 0 0 0 0 0 0 0 0 0 0 0 0 0 0 0 0 127 0"/>
<feMorphology radius="7.6376" operator="dilate" in="SourceAlpha" result="effect1_dropShadow"/>
<feOffset dy="21.9581"/>
<feGaussianBlur stdDeviation="14.3205"/>
<feColorMatrix type="matrix" values="0 0 0 0 0 0 0 0 0 0.0876457 0 0 0 0 0.391667 0 0 0 0.05 0"/>
<feBlend mode="normal" in2="BackgroundImageFix" result="effect1_dropShadow"/>
<feColorMatrix in="SourceAlpha" type="matrix" values="0 0 0 0 0 0 0 0 0 0 0 0 0 0 0 0 0 0 127 0"/>
<feOffset dy="44.8709"/>
<feGaussianBlur stdDeviation="2.8641"/>
<feColorMatrix type="matrix" values="0 0 0 0 0.121569 0 0 0 0 0.247059 0 0 0 0 0.682353 0 0 0 0.02 0"/>
<feBlend mode="normal" in2="effect1_dropShadow" result="effect2_dropShadow"/>
<feColorMatrix in="SourceAlpha" type="matrix" values="0 0 0 0 0 0 0 0 0 0 0 0 0 0 0 0 0 0 127 0"/>
<feOffset dy="54.4179"/>
<feGaussianBlur stdDeviation="9.547"/>
<feColorMatrix type="matrix" values="0 0 0 0 0.121569 0 0 0 0 0.247059 0 0 0 0 0.682353 0 0 0 0.02 0"/>
<feBlend mode="normal" in2="effect2_dropShadow" result="effect3_dropShadow"/>
<feBlend mode="normal" in="SourceGraphic" in2="effect3_dropShadow" result="shape"/>
</filter>
<filter id="filter6_ddd" x="287.962" y="68.6766" width="170.311" height="189.012" filterUnits="userSpaceOnUse" color-interpolation-filters="sRGB">
<feFlood flood-opacity="0" result="BackgroundImageFix"/>
<feColorMatrix in="SourceAlpha" type="matrix" values="0 0 0 0 0 0 0 0 0 0 0 0 0 0 0 0 0 0 127 0"/>
<feMorphology radius="7.6376" operator="dilate" in="SourceAlpha" result="effect1_dropShadow"/>
<feOffset dy="21.9581"/>
<feGaussianBlur stdDeviation="14.3205"/>
<feColorMatrix type="matrix" values="0 0 0 0 0 0 0 0 0 0.0876457 0 0 0 0 0.391667 0 0 0 0.05 0"/>
<feBlend mode="normal" in2="BackgroundImageFix" result="effect1_dropShadow"/>
<feColorMatrix in="SourceAlpha" type="matrix" values="0 0 0 0 0 0 0 0 0 0 0 0 0 0 0 0 0 0 127 0"/>
<feOffset dy="44.8709"/>
<feGaussianBlur stdDeviation="2.8641"/>
<feColorMatrix type="matrix" values="0 0 0 0 0.121569 0 0 0 0 0.247059 0 0 0 0 0.682353 0 0 0 0.02 0"/>
<feBlend mode="normal" in2="effect1_dropShadow" result="effect2_dropShadow"/>
<feColorMatrix in="SourceAlpha" type="matrix" values="0 0 0 0 0 0 0 0 0 0 0 0 0 0 0 0 0 0 127 0"/>
<feOffset dy="54.4179"/>
<feGaussianBlur stdDeviation="9.547"/>
<feColorMatrix type="matrix" values="0 0 0 0 0.121569 0 0 0 0 0.247059 0 0 0 0 0.682353 0 0 0 0.02 0"/>
<feBlend mode="normal" in2="effect2_dropShadow" result="effect3_dropShadow"/>
<feBlend mode="normal" in="SourceGraphic" in2="effect3_dropShadow" result="shape"/>
</filter>
<filter id="filter7_ddd" x="21.6081" y="324.473" width="150.052" height="155.968" filterUnits="userSpaceOnUse" color-interpolation-filters="sRGB">
<feFlood flood-opacity="0" result="BackgroundImageFix"/>
<feColorMatrix in="SourceAlpha" type="matrix" values="0 0 0 0 0 0 0 0 0 0 0 0 0 0 0 0 0 0 127 0"/>
<feMorphology radius="7.6376" operator="dilate" in="SourceAlpha" result="effect1_dropShadow"/>
<feOffset dy="21.9581"/>
<feGaussianBlur stdDeviation="14.3205"/>
<feColorMatrix type="matrix" values="0 0 0 0 0 0 0 0 0 0.0876457 0 0 0 0 0.391667 0 0 0 0.05 0"/>
<feBlend mode="normal" in2="BackgroundImageFix" result="effect1_dropShadow"/>
<feColorMatrix in="SourceAlpha" type="matrix" values="0 0 0 0 0 0 0 0 0 0 0 0 0 0 0 0 0 0 127 0"/>
<feOffset dy="44.8709"/>
<feGaussianBlur stdDeviation="2.8641"/>
<feColorMatrix type="matrix" values="0 0 0 0 0.121569 0 0 0 0 0.247059 0 0 0 0 0.682353 0 0 0 0.02 0"/>
<feBlend mode="normal" in2="effect1_dropShadow" result="effect2_dropShadow"/>
<feColorMatrix in="SourceAlpha" type="matrix" values="0 0 0 0 0 0 0 0 0 0 0 0 0 0 0 0 0 0 127 0"/>
<feOffset dy="54.4179"/>
<feGaussianBlur stdDeviation="9.547"/>
<feColorMatrix type="matrix" values="0 0 0 0 0.121569 0 0 0 0 0.247059 0 0 0 0 0.682353 0 0 0 0.02 0"/>
<feBlend mode="normal" in2="effect2_dropShadow" result="effect3_dropShadow"/>
<feBlend mode="normal" in="SourceGraphic" in2="effect3_dropShadow" result="shape"/>
</filter>
<filter id="filter8_ddd" x="133.148" y="420.613" width="170.311" height="189.012" filterUnits="userSpaceOnUse" color-interpolation-filters="sRGB">
<feFlood flood-opacity="0" result="BackgroundImageFix"/>
<feColorMatrix in="SourceAlpha" type="matrix" values="0 0 0 0 0 0 0 0 0 0 0 0 0 0 0 0 0 0 127 0"/>
<feMorphology radius="7.6376" operator="dilate" in="SourceAlpha" result="effect1_dropShadow"/>
<feOffset dy="21.9581"/>
<feGaussianBlur stdDeviation="14.3205"/>
<feColorMatrix type="matrix" values="0 0 0 0 0 0 0 0 0 0.0876457 0 0 0 0 0.391667 0 0 0 0.05 0"/>
<feBlend mode="normal" in2="BackgroundImageFix" result="effect1_dropShadow"/>
<feColorMatrix in="SourceAlpha" type="matrix" values="0 0 0 0 0 0 0 0 0 0 0 0 0 0 0 0 0 0 127 0"/>
<feOffset dy="44.8709"/>
<feGaussianBlur stdDeviation="2.8641"/>
<feColorMatrix type="matrix" values="0 0 0 0 0.121569 0 0 0 0 0.247059 0 0 0 0 0.682353 0 0 0 0.02 0"/>
<feBlend mode="normal" in2="effect1_dropShadow" result="effect2_dropShadow"/>
<feColorMatrix in="SourceAlpha" type="matrix" values="0 0 0 0 0 0 0 0 0 0 0 0 0 0 0 0 0 0 127 0"/>
<feOffset dy="54.4179"/>
<feGaussianBlur stdDeviation="9.547"/>
<feColorMatrix type="matrix" values="0 0 0 0 0.121569 0 0 0 0 0.247059 0 0 0 0 0.682353 0 0 0 0.02 0"/>
<feBlend mode="normal" in2="effect2_dropShadow" result="effect3_dropShadow"/>
<feBlend mode="normal" in="SourceGraphic" in2="effect3_dropShadow" result="shape"/>
</filter>
<filter id="filter9_ddd" x="419.01" y="248.748" width="150.052" height="155.968" filterUnits="userSpaceOnUse" color-interpolation-filters="sRGB">
<feFlood flood-opacity="0" result="BackgroundImageFix"/>
<feColorMatrix in="SourceAlpha" type="matrix" values="0 0 0 0 0 0 0 0 0 0 0 0 0 0 0 0 0 0 127 0"/>
<feMorphology radius="7.6376" operator="dilate" in="SourceAlpha" result="effect1_dropShadow"/>
<feOffset dy="21.9581"/>
<feGaussianBlur stdDeviation="14.3205"/>
<feColorMatrix type="matrix" values="0 0 0 0 0 0 0 0 0 0.0876457 0 0 0 0 0.391667 0 0 0 0.05 0"/>
<feBlend mode="normal" in2="BackgroundImageFix" result="effect1_dropShadow"/>
<feColorMatrix in="SourceAlpha" type="matrix" values="0 0 0 0 0 0 0 0 0 0 0 0 0 0 0 0 0 0 127 0"/>
<feOffset dy="44.8709"/>
<feGaussianBlur stdDeviation="2.8641"/>
<feColorMatrix type="matrix" values="0 0 0 0 0.121569 0 0 0 0 0.247059 0 0 0 0 0.682353 0 0 0 0.02 0"/>
<feBlend mode="normal" in2="effect1_dropShadow" result="effect2_dropShadow"/>
<feColorMatrix in="SourceAlpha" type="matrix" values="0 0 0 0 0 0 0 0 0 0 0 0 0 0 0 0 0 0 127 0"/>
<feOffset dy="54.4179"/>
<feGaussianBlur stdDeviation="9.547"/>
<feColorMatrix type="matrix" values="0 0 0 0 0.121569 0 0 0 0 0.247059 0 0 0 0 0.682353 0 0 0 0.02 0"/>
<feBlend mode="normal" in2="effect2_dropShadow" result="effect3_dropShadow"/>
<feBlend mode="normal" in="SourceGraphic" in2="effect3_dropShadow" result="shape"/>
</filter>
<filter id="filter10_ddd" x="397.772" y="142.661" width="192.528" height="193.521" filterUnits="userSpaceOnUse" color-interpolation-filters="sRGB">
<feFlood flood-opacity="0" result="BackgroundImageFix"/>
<feColorMatrix in="SourceAlpha" type="matrix" values="0 0 0 0 0 0 0 0 0 0 0 0 0 0 0 0 0 0 127 0"/>
<feMorphology radius="7.6376" operator="dilate" in="SourceAlpha" result="effect1_dropShadow"/>
<feOffset dy="21.9581"/>
<feGaussianBlur stdDeviation="14.3205"/>
<feColorMatrix type="matrix" values="0 0 0 0 0 0 0 0 0 0.0876457 0 0 0 0 0.391667 0 0 0 0.05 0"/>
<feBlend mode="normal" in2="BackgroundImageFix" result="effect1_dropShadow"/>
<feColorMatrix in="SourceAlpha" type="matrix" values="0 0 0 0 0 0 0 0 0 0 0 0 0 0 0 0 0 0 127 0"/>
<feOffset dy="44.8709"/>
<feGaussianBlur stdDeviation="2.8641"/>
<feColorMatrix type="matrix" values="0 0 0 0 0.121569 0 0 0 0 0.247059 0 0 0 0 0.682353 0 0 0 0.02 0"/>
<feBlend mode="normal" in2="effect1_dropShadow" result="effect2_dropShadow"/>
<feColorMatrix in="SourceAlpha" type="matrix" values="0 0 0 0 0 0 0 0 0 0 0 0 0 0 0 0 0 0 127 0"/>
<feOffset dy="54.4179"/>
<feGaussianBlur stdDeviation="9.547"/>
<feColorMatrix type="matrix" values="0 0 0 0 0.121569 0 0 0 0 0.247059 0 0 0 0 0.682353 0 0 0 0.02 0"/>
<feBlend mode="normal" in2="effect2_dropShadow" result="effect3_dropShadow"/>
<feBlend mode="normal" in="SourceGraphic" in2="effect3_dropShadow" result="shape"/>
</filter>
<filter id="filter11_ddd" x="400.635" y="392.242" width="192.528" height="193.521" filterUnits="userSpaceOnUse" color-interpolation-filters="sRGB">
<feFlood flood-opacity="0" result="BackgroundImageFix"/>
<feColorMatrix in="SourceAlpha" type="matrix" values="0 0 0 0 0 0 0 0 0 0 0 0 0 0 0 0 0 0 127 0"/>
<feMorphology radius="7.6376" operator="dilate" in="SourceAlpha" result="effect1_dropShadow"/>
<feOffset dy="21.9581"/>
<feGaussianBlur stdDeviation="14.3205"/>
<feColorMatrix type="matrix" values="0 0 0 0 0 0 0 0 0 0.0876457 0 0 0 0 0.391667 0 0 0 0.05 0"/>
<feBlend mode="normal" in2="BackgroundImageFix" result="effect1_dropShadow"/>
<feColorMatrix in="SourceAlpha" type="matrix" values="0 0 0 0 0 0 0 0 0 0 0 0 0 0 0 0 0 0 127 0"/>
<feOffset dy="44.8709"/>
<feGaussianBlur stdDeviation="2.8641"/>
<feColorMatrix type="matrix" values="0 0 0 0 0.121569 0 0 0 0 0.247059 0 0 0 0 0.682353 0 0 0 0.02 0"/>
<feBlend mode="normal" in2="effect1_dropShadow" result="effect2_dropShadow"/>
<feColorMatrix in="SourceAlpha" type="matrix" values="0 0 0 0 0 0 0 0 0 0 0 0 0 0 0 0 0 0 127 0"/>
<feOffset dy="54.4179"/>
<feGaussianBlur stdDeviation="9.547"/>
<feColorMatrix type="matrix" values="0 0 0 0 0.121569 0 0 0 0 0.247059 0 0 0 0 0.682353 0 0 0 0.02 0"/>
<feBlend mode="normal" in2="effect2_dropShadow" result="effect3_dropShadow"/>
<feBlend mode="normal" in="SourceGraphic" in2="effect3_dropShadow" result="shape"/>
</filter>
<linearGradient id="paint0_linear" x1="348.179" y1="124.03" x2="265.682" y2="144.881" gradientUnits="userSpaceOnUse">
<stop stop-color="#0B53DE"/>
<stop offset="1" stop-color="#3DD7D9"/>
</linearGradient>
<linearGradient id="paint1_linear" x1="348.179" y1="344.167" x2="265.682" y2="365.019" gradientUnits="userSpaceOnUse">
<stop stop-color="#0B53DE"/>
<stop offset="1" stop-color="#3DD7D9"/>
</linearGradient>
<linearGradient id="paint2_linear" x1="473.986" y1="455.589" x2="519.812" y2="455.589" gradientUnits="userSpaceOnUse">
<stop stop-color="#16D9E3"/>
<stop offset="0.47" stop-color="#30C7EC"/>
<stop offset="1" stop-color="#46AEF7"/>
</linearGradient>
<linearGradient id="paint3_linear" x1="473.986" y1="455.589" x2="519.812" y2="455.589" gradientUnits="userSpaceOnUse">
<stop stop-color="#16D9E3"/>
<stop offset="0.47" stop-color="#30C7EC"/>
<stop offset="1" stop-color="#46AEF7"/>
</linearGradient>
<linearGradient id="paint4_linear" x1="473.986" y1="455.589" x2="519.812" y2="455.589" gradientUnits="userSpaceOnUse">
<stop stop-color="#16D9E3"/>
<stop offset="0.47" stop-color="#30C7EC"/>
<stop offset="1" stop-color="#46AEF7"/>
</linearGradient>
<linearGradient id="paint5_linear" x1="473.986" y1="455.589" x2="519.812" y2="455.589" gradientUnits="userSpaceOnUse">
<stop stop-color="#16D9E3"/>
<stop offset="0.47" stop-color="#30C7EC"/>
<stop offset="1" stop-color="#46AEF7"/>
</linearGradient>
<linearGradient id="paint6_linear" x1="473.986" y1="455.589" x2="519.812" y2="455.589" gradientUnits="userSpaceOnUse">
<stop stop-color="#16D9E3"/>
<stop offset="0.47" stop-color="#30C7EC"/>
<stop offset="1" stop-color="#46AEF7"/>
</linearGradient>
<linearGradient id="paint7_linear" x1="473.986" y1="455.589" x2="519.812" y2="455.589" gradientUnits="userSpaceOnUse">
<stop stop-color="#16D9E3"/>
<stop offset="0.47" stop-color="#30C7EC"/>
<stop offset="1" stop-color="#46AEF7"/>
</linearGradient>
<linearGradient id="paint8_linear" x1="473.986" y1="455.589" x2="519.812" y2="455.589" gradientUnits="userSpaceOnUse">
<stop stop-color="#16D9E3"/>
<stop offset="0.47" stop-color="#30C7EC"/>
<stop offset="1" stop-color="#46AEF7"/>
</linearGradient>
<linearGradient id="paint9_linear" x1="73.7207" y1="206.008" x2="119.546" y2="206.008" gradientUnits="userSpaceOnUse">
<stop stop-color="#89F7FE"/>
<stop offset="1" stop-color="#66A6FF"/>
</linearGradient>
<linearGradient id="paint10_linear" x1="73.7207" y1="206.008" x2="119.546" y2="206.008" gradientUnits="userSpaceOnUse">
<stop stop-color="#89F7FE"/>
<stop offset="1" stop-color="#66A6FF"/>
</linearGradient>
<linearGradient id="paint11_linear" x1="73.7207" y1="206.008" x2="119.546" y2="206.008" gradientUnits="userSpaceOnUse">
<stop stop-color="#89F7FE"/>
<stop offset="1" stop-color="#66A6FF"/>
</linearGradient>
<linearGradient id="paint12_linear" x1="73.7207" y1="206.008" x2="119.546" y2="206.008" gradientUnits="userSpaceOnUse">
<stop stop-color="#89F7FE"/>
<stop offset="1" stop-color="#66A6FF"/>
</linearGradient>
<linearGradient id="paint13_linear" x1="73.7207" y1="206.008" x2="119.546" y2="206.008" gradientUnits="userSpaceOnUse">
<stop stop-color="#89F7FE"/>
<stop offset="1" stop-color="#66A6FF"/>
</linearGradient>
<linearGradient id="paint14_linear" x1="73.7207" y1="206.008" x2="119.546" y2="206.008" gradientUnits="userSpaceOnUse">
<stop stop-color="#89F7FE"/>
<stop offset="1" stop-color="#66A6FF"/>
</linearGradient>
<linearGradient id="paint15_linear" x1="73.7207" y1="206.008" x2="119.546" y2="206.008" gradientUnits="userSpaceOnUse">
<stop stop-color="#89F7FE"/>
<stop offset="1" stop-color="#66A6FF"/>
</linearGradient>
<linearGradient id="paint16_linear" x1="471.124" y1="206.008" x2="516.95" y2="206.008" gradientUnits="userSpaceOnUse">
<stop stop-color="#E0C3FC"/>
<stop offset="1" stop-color="#8EC5FC"/>
</linearGradient>
<linearGradient id="paint17_linear" x1="471.124" y1="206.008" x2="516.95" y2="206.008" gradientUnits="userSpaceOnUse">
<stop stop-color="#E0C3FC"/>
<stop offset="1" stop-color="#8EC5FC"/>
</linearGradient>
<linearGradient id="paint18_linear" x1="471.124" y1="206.008" x2="516.95" y2="206.008" gradientUnits="userSpaceOnUse">
<stop stop-color="#E0C3FC"/>
<stop offset="1" stop-color="#8EC5FC"/>
</linearGradient>
<linearGradient id="paint19_linear" x1="471.124" y1="206.008" x2="516.95" y2="206.008" gradientUnits="userSpaceOnUse">
<stop stop-color="#E0C3FC"/>
<stop offset="1" stop-color="#8EC5FC"/>
</linearGradient>
<linearGradient id="paint20_linear" x1="471.124" y1="206.008" x2="516.95" y2="206.008" gradientUnits="userSpaceOnUse">
<stop stop-color="#E0C3FC"/>
<stop offset="1" stop-color="#8EC5FC"/>
</linearGradient>
<linearGradient id="paint21_linear" x1="471.124" y1="206.008" x2="516.95" y2="206.008" gradientUnits="userSpaceOnUse">
<stop stop-color="#E0C3FC"/>
<stop offset="1" stop-color="#8EC5FC"/>
</linearGradient>
<linearGradient id="paint22_linear" x1="471.124" y1="206.008" x2="516.95" y2="206.008" gradientUnits="userSpaceOnUse">
<stop stop-color="#E0C3FC"/>
<stop offset="1" stop-color="#8EC5FC"/>
</linearGradient>
<linearGradient id="paint23_linear" x1="73.7197" y1="455.589" x2="119.545" y2="455.589" gradientUnits="userSpaceOnUse">
<stop stop-color="#2AF598"/>
<stop offset="1" stop-color="#009EFD"/>
</linearGradient>
<linearGradient id="paint24_linear" x1="73.7197" y1="455.589" x2="119.545" y2="455.589" gradientUnits="userSpaceOnUse">
<stop stop-color="#2AF598"/>
<stop offset="1" stop-color="#009EFD"/>
</linearGradient>
<linearGradient id="paint25_linear" x1="73.7197" y1="455.589" x2="119.545" y2="455.589" gradientUnits="userSpaceOnUse">
<stop stop-color="#2AF598"/>
<stop offset="1" stop-color="#009EFD"/>
</linearGradient>
<linearGradient id="paint26_linear" x1="73.7197" y1="455.589" x2="119.545" y2="455.589" gradientUnits="userSpaceOnUse">
<stop stop-color="#2AF598"/>
<stop offset="1" stop-color="#009EFD"/>
</linearGradient>
<linearGradient id="paint27_linear" x1="73.7197" y1="455.589" x2="119.545" y2="455.589" gradientUnits="userSpaceOnUse">
<stop stop-color="#2AF598"/>
<stop offset="1" stop-color="#009EFD"/>
</linearGradient>
<linearGradient id="paint28_linear" x1="73.7197" y1="455.589" x2="119.545" y2="455.589" gradientUnits="userSpaceOnUse">
<stop stop-color="#2AF598"/>
<stop offset="1" stop-color="#009EFD"/>
</linearGradient>
<linearGradient id="paint29_linear" x1="73.7197" y1="455.589" x2="119.545" y2="455.589" gradientUnits="userSpaceOnUse">
<stop stop-color="#2AF598"/>
<stop offset="1" stop-color="#009EFD"/>
</linearGradient>
<linearGradient id="paint30_linear" x1="272.422" y1="523.076" x2="318.247" y2="523.076" gradientUnits="userSpaceOnUse">
<stop stop-color="#48C6EF"/>
<stop offset="1" stop-color="#6F86D6"/>
</linearGradient>
<linearGradient id="paint31_linear" x1="272.422" y1="523.076" x2="318.247" y2="523.076" gradientUnits="userSpaceOnUse">
<stop stop-color="#48C6EF"/>
<stop offset="1" stop-color="#6F86D6"/>
</linearGradient>
<linearGradient id="paint32_linear" x1="272.422" y1="523.076" x2="318.247" y2="523.076" gradientUnits="userSpaceOnUse">
<stop stop-color="#48C6EF"/>
<stop offset="1" stop-color="#6F86D6"/>
</linearGradient>
<linearGradient id="paint33_linear" x1="272.422" y1="523.076" x2="318.247" y2="523.076" gradientUnits="userSpaceOnUse">
<stop stop-color="#48C6EF"/>
<stop offset="1" stop-color="#6F86D6"/>
</linearGradient>
<linearGradient id="paint34_linear" x1="272.422" y1="523.076" x2="318.247" y2="523.076" gradientUnits="userSpaceOnUse">
<stop stop-color="#48C6EF"/>
<stop offset="1" stop-color="#6F86D6"/>
</linearGradient>
<linearGradient id="paint35_linear" x1="272.422" y1="523.076" x2="318.247" y2="523.076" gradientUnits="userSpaceOnUse">
<stop stop-color="#48C6EF"/>
<stop offset="1" stop-color="#6F86D6"/>
</linearGradient>
<linearGradient id="paint36_linear" x1="272.422" y1="523.076" x2="318.247" y2="523.076" gradientUnits="userSpaceOnUse">
<stop stop-color="#48C6EF"/>
<stop offset="1" stop-color="#6F86D6"/>
</linearGradient>
</defs>
</svg>
