<svg width="692" height="653" viewBox="0 0 692 653" fill="none" xmlns="http://www.w3.org/2000/svg">
<g filter="url(#filter0_ddd)">
<path d="M384.048 507.384C383.366 506.202 383.366 504.747 384.048 503.565L401.512 473.316C402.194 472.135 403.455 471.407 404.819 471.407H439.747C441.112 471.407 442.372 472.135 443.055 473.316L460.519 503.565C461.201 504.747 461.201 506.202 460.519 507.384L443.055 537.633C442.372 538.814 441.112 539.542 439.747 539.542H404.819C403.455 539.542 402.194 538.814 401.512 537.633L384.048 507.384Z" fill="#5D78CF"/>
</g>
<path d="M573.58 156.558V159.101H577.688V161.318H573.58V164.016H578.203V166.37H570.642V154.221H578.203V156.558H573.58ZM583.687 156.661C584.42 156.661 585.05 156.827 585.577 157.159C586.104 157.491 586.494 157.944 586.746 158.517V156.781H589.667V166.37H586.746V164.634C586.494 165.207 586.104 165.66 585.577 165.992C585.05 166.324 584.42 166.49 583.687 166.49C582.896 166.49 582.186 166.296 581.556 165.906C580.937 165.505 580.445 164.932 580.078 164.188C579.723 163.443 579.545 162.572 579.545 161.576C579.545 160.567 579.723 159.697 580.078 158.964C580.445 158.219 580.937 157.652 581.556 157.262C582.186 156.861 582.896 156.661 583.687 156.661ZM584.632 159.239C584.002 159.239 583.492 159.445 583.103 159.857C582.724 160.27 582.535 160.842 582.535 161.576C582.535 162.309 582.724 162.882 583.103 163.294C583.492 163.707 584.002 163.913 584.632 163.913C585.251 163.913 585.755 163.701 586.144 163.277C586.545 162.853 586.746 162.286 586.746 161.576C586.746 160.854 586.545 160.287 586.144 159.874C585.755 159.45 585.251 159.239 584.632 159.239ZM594.801 158.585C595.167 158.001 595.637 157.537 596.21 157.194C596.794 156.85 597.424 156.678 598.1 156.678V159.823H597.258C596.479 159.823 595.872 159.989 595.437 160.321C595.013 160.653 594.801 161.215 594.801 162.005V166.37H591.862V156.781H594.801V158.585ZM602.44 153.654V166.37H599.502V153.654H602.44ZM606.858 156.781L609.161 162.658L611.309 156.781H614.557L608.576 170.941H605.346L607.597 166.009L603.576 156.781H606.858ZM626.843 164.153H622.289L621.533 166.37H618.44L622.891 154.307H626.276L630.727 166.37H627.599L626.843 164.153ZM626.087 161.919L624.575 157.451L623.046 161.919H626.087ZM634.98 158.585C635.346 158.001 635.816 157.537 636.389 157.194C636.973 156.85 637.603 156.678 638.279 156.678V159.823H637.437C636.658 159.823 636.051 159.989 635.616 160.321C635.192 160.653 634.98 161.215 634.98 162.005V166.37H632.041V156.781H634.98V158.585ZM642.62 158.585C642.986 158.001 643.456 157.537 644.029 157.194C644.613 156.85 645.243 156.678 645.919 156.678V159.823H645.077C644.298 159.823 643.691 159.989 643.255 160.321C642.831 160.653 642.62 161.215 642.62 162.005V166.37H639.681V156.781H642.62V158.585ZM647.046 154.083C647.046 153.636 647.206 153.27 647.527 152.983C647.848 152.685 648.272 152.537 648.799 152.537C649.326 152.537 649.749 152.685 650.07 152.983C650.391 153.27 650.551 153.636 650.551 154.083C650.551 154.518 650.391 154.885 650.07 155.183C649.749 155.469 649.326 155.613 648.799 155.613C648.272 155.613 647.848 155.469 647.527 155.183C647.206 154.885 647.046 154.518 647.046 154.083ZM650.259 156.781V166.37H647.321V156.781H650.259ZM656.894 163.5L658.973 156.781H662.101L658.698 166.37H655.055L651.652 156.781H654.78L656.894 163.5ZM663.215 154.083C663.215 153.636 663.375 153.27 663.696 152.983C664.017 152.685 664.441 152.537 664.968 152.537C665.495 152.537 665.918 152.685 666.239 152.983C666.56 153.27 666.72 153.636 666.72 154.083C666.72 154.518 666.56 154.885 666.239 155.183C665.918 155.469 665.495 155.613 664.968 155.613C664.441 155.613 664.017 155.469 663.696 155.183C663.375 154.885 663.215 154.518 663.215 154.083ZM666.428 156.781V166.37H663.49V156.781H666.428ZM674.712 156.678C675.812 156.678 676.683 157.045 677.324 157.778C677.977 158.511 678.304 159.519 678.304 160.802V166.37H675.365V161.146C675.365 160.504 675.193 160.006 674.85 159.651C674.518 159.284 674.071 159.101 673.509 159.101C672.914 159.101 672.438 159.29 672.083 159.668C671.739 160.046 671.567 160.585 671.567 161.283V166.37H668.629V156.781H671.567V158.534C671.842 157.961 672.249 157.509 672.788 157.176C673.338 156.844 673.979 156.678 674.712 156.678ZM684.057 156.661C684.79 156.661 685.42 156.827 685.947 157.159C686.474 157.491 686.864 157.944 687.116 158.517V156.781H690.037V166.319C690.037 167.212 689.865 168.014 689.522 168.724C689.178 169.446 688.651 170.019 687.941 170.443C687.23 170.867 686.348 171.079 685.294 171.079C683.851 171.079 682.694 170.735 681.823 170.048C680.964 169.372 680.448 168.449 680.276 167.281H683.181C683.272 167.67 683.478 167.974 683.799 168.192C684.131 168.409 684.561 168.518 685.088 168.518C685.695 168.518 686.182 168.341 686.549 167.985C686.927 167.642 687.116 167.086 687.116 166.319V164.634C686.864 165.207 686.474 165.66 685.947 165.992C685.42 166.324 684.79 166.49 684.057 166.49C683.266 166.49 682.556 166.296 681.926 165.906C681.307 165.505 680.815 164.932 680.448 164.188C680.093 163.443 679.915 162.572 679.915 161.576C679.915 160.567 680.093 159.697 680.448 158.964C680.815 158.219 681.307 157.652 681.926 157.262C682.556 156.861 683.266 156.661 684.057 156.661ZM685.002 159.239C684.372 159.239 683.862 159.445 683.473 159.857C683.095 160.27 682.906 160.842 682.906 161.576C682.906 162.309 683.095 162.882 683.473 163.294C683.862 163.707 684.372 163.913 685.002 163.913C685.621 163.913 686.125 163.701 686.514 163.277C686.915 162.853 687.116 162.286 687.116 161.576C687.116 160.854 686.915 160.287 686.514 159.874C686.125 159.45 685.621 159.239 685.002 159.239ZM587.156 176.221L584.252 188.37H580.609L578.667 180.242L576.708 188.37H573.065L570.161 176.221H573.357L574.921 185.019L577.052 176.221H580.265L582.396 185.019L583.977 176.221H587.156ZM588.596 176.083C588.596 175.636 588.756 175.27 589.077 174.983C589.398 174.685 589.822 174.537 590.349 174.537C590.876 174.537 591.3 174.685 591.62 174.983C591.941 175.27 592.102 175.636 592.102 176.083C592.102 176.518 591.941 176.885 591.62 177.183C591.3 177.469 590.876 177.613 590.349 177.613C589.822 177.613 589.398 177.469 589.077 177.183C588.756 176.885 588.596 176.518 588.596 176.083ZM591.809 178.781V188.37H588.871V178.781H591.809ZM596.949 180.585C597.315 180.001 597.785 179.537 598.358 179.194C598.942 178.85 599.572 178.678 600.248 178.678V181.823H599.406C598.627 181.823 598.02 181.989 597.585 182.321C597.161 182.653 596.949 183.215 596.949 184.005V188.37H594.01V178.781H596.949V180.585ZM610.758 183.318C610.758 183.558 610.729 183.822 610.672 184.108H604.021C604.056 184.83 604.239 185.351 604.571 185.672C604.904 185.981 605.327 186.136 605.843 186.136C606.278 186.136 606.639 186.027 606.926 185.81C607.212 185.592 607.401 185.311 607.493 184.968H610.603C610.477 185.643 610.202 186.251 609.778 186.789C609.354 187.316 608.816 187.734 608.163 188.044C607.51 188.341 606.782 188.49 605.98 188.49C605.041 188.49 604.205 188.296 603.472 187.906C602.75 187.505 602.183 186.932 601.77 186.188C601.358 185.443 601.152 184.572 601.152 183.576C601.152 182.567 601.352 181.697 601.753 180.964C602.165 180.219 602.738 179.652 603.472 179.262C604.205 178.861 605.041 178.661 605.98 178.661C606.931 178.661 607.768 178.856 608.489 179.245C609.211 179.635 609.767 180.185 610.156 180.895C610.557 181.594 610.758 182.401 610.758 183.318ZM607.785 182.871C607.796 182.241 607.624 181.771 607.269 181.462C606.926 181.141 606.496 180.981 605.98 180.981C605.442 180.981 604.995 181.141 604.64 181.462C604.285 181.783 604.084 182.252 604.039 182.871H607.785Z" fill="white"/>
<g filter="url(#filter1_ddd)">
<path d="M321.45 40.3349C324.179 40.3349 326.7 41.7906 328.065 44.1537L354.165 89.3604C355.529 91.7235 355.529 94.635 354.165 96.998L328.065 142.205C326.7 144.568 324.179 146.024 321.45 146.024L269.25 146.024C266.521 146.024 264 144.568 262.636 142.205L236.536 96.998C235.171 94.635 235.171 91.7235 236.536 89.3604L262.636 44.1537C264 41.7906 266.521 40.3349 269.25 40.3349L321.45 40.3349Z" fill="url(#paint0_linear)"/>
</g>
<g filter="url(#filter2_ddd)">
<path d="M321.45 260.473C324.179 260.473 326.7 261.928 328.065 264.291L354.165 309.498C355.529 311.861 355.529 314.773 354.165 317.136L328.065 362.342C326.7 364.706 324.179 366.161 321.45 366.161L269.25 366.161C266.521 366.161 264 364.706 262.636 362.342L236.536 317.136C235.171 314.773 235.171 311.861 236.536 309.498L262.636 264.291C264 261.928 266.521 260.473 269.25 260.473L321.45 260.473Z" fill="url(#paint1_linear)"/>
</g>
<g filter="url(#filter3_ddd)">
<path d="M37.5571 462.409C36.3633 460.341 36.3633 457.794 37.5571 455.726L64.2084 409.565C65.4022 407.497 67.6084 406.223 69.996 406.223H123.299C125.686 406.223 127.892 407.497 129.086 409.565L155.738 455.726C156.931 457.794 156.931 460.341 155.738 462.409L129.086 508.57C127.892 510.638 125.686 511.912 123.299 511.912H69.996C67.6084 511.912 65.4022 510.638 64.2084 508.57L37.5571 462.409Z" fill="white"/>
</g>
<g filter="url(#filter4_ddd)">
<path d="M236.261 529.896C235.067 527.828 235.067 525.281 236.261 523.213L262.913 477.051C264.106 474.984 266.313 473.71 268.7 473.71H322.003C324.39 473.71 326.597 474.984 327.79 477.051L354.442 523.213C355.635 525.281 355.635 527.828 354.442 529.896L327.79 576.057C326.597 578.125 324.39 579.399 322.003 579.399H268.7C266.313 579.399 264.106 578.125 262.913 576.057L236.261 529.896Z" fill="white"/>
</g>
<g filter="url(#filter5_ddd)">
<path d="M37.5591 212.827C36.3653 210.76 36.3653 208.212 37.5591 206.145L64.2104 159.983C65.4042 157.915 67.6104 156.642 69.998 156.642H123.301C125.688 156.642 127.894 157.915 129.088 159.983L155.739 206.145C156.933 208.212 156.933 210.76 155.74 212.827L129.088 258.989C127.894 261.057 125.688 262.33 123.301 262.33H69.998C67.6104 262.33 65.4042 261.057 64.2104 258.989L37.5591 212.827Z" fill="white"/>
</g>
<g filter="url(#filter6_ddd)">
<path d="M390.597 99.1783C391.962 99.1783 393.222 99.9061 393.904 101.088L411.369 131.337C412.051 132.518 412.051 133.974 411.369 135.155L393.904 165.404C393.222 166.586 391.962 167.314 390.597 167.314L355.669 167.314C354.305 167.314 353.044 166.586 352.362 165.404L334.897 135.155C334.215 133.974 334.215 132.518 334.897 131.337L352.362 101.088C353.044 99.9061 354.305 99.1783 355.669 99.1783L390.597 99.1783Z" fill="#5D78CF"/>
</g>
<g filter="url(#filter7_ddd)">
<path d="M58.4139 374.43C57.7318 373.248 57.7318 371.793 58.4139 370.611L75.8781 340.362C76.5603 339.181 77.821 338.453 79.1853 338.453H114.114C115.478 338.453 116.739 339.181 117.421 340.362L134.885 370.611C135.567 371.793 135.567 373.248 134.885 374.43L117.421 404.679C116.739 405.86 115.478 406.588 114.114 406.588H79.1853C77.821 406.588 76.5603 405.86 75.8781 404.679L58.4139 374.43Z" fill="#5D78CF"/>
</g>
<g filter="url(#filter8_ddd)">
<path d="M197.548 453.024C198.23 451.843 199.491 451.115 200.855 451.115L235.784 451.115C237.148 451.115 238.409 451.843 239.091 453.024L256.555 483.273C257.237 484.455 257.237 485.91 256.555 487.092L239.091 517.341C238.409 518.522 237.148 519.25 235.784 519.25L200.855 519.25C199.491 519.25 198.23 518.522 197.548 517.341L180.084 487.092C179.402 485.91 179.402 484.455 180.084 483.273L197.548 453.024Z" fill="#5D78CF"/>
</g>
<g filter="url(#filter9_ddd)">
<path d="M532.287 294.886C532.969 296.068 532.969 297.523 532.287 298.705L514.823 328.954C514.141 330.135 512.88 330.863 511.516 330.863H476.587C475.223 330.863 473.962 330.135 473.28 328.954L455.816 298.705C455.134 297.523 455.134 296.068 455.816 294.886L473.28 264.637C473.962 263.456 475.223 262.728 476.587 262.728H511.516C512.88 262.728 514.141 263.456 514.823 264.637L532.287 294.886Z" fill="#5D78CF"/>
</g>
<path d="M131.247 76.3001H135.165V78.5513H128.309V66.4018H131.247V76.3001ZM140.33 68.842C141.063 68.842 141.693 69.0081 142.22 69.3403C142.747 69.6726 143.137 70.1251 143.389 70.6979V68.9623H146.31V78.5513H143.389V76.8156C143.137 77.3884 142.747 77.841 142.22 78.1732C141.693 78.5054 141.063 78.6716 140.33 78.6716C139.54 78.6716 138.829 78.4768 138.199 78.0873C137.581 77.6863 137.088 77.1135 136.721 76.3688C136.366 75.6242 136.189 74.7535 136.189 73.7568C136.189 72.7486 136.366 71.8779 136.721 71.1447C137.088 70.4 137.581 69.833 138.199 69.4434C138.829 69.0425 139.54 68.842 140.33 68.842ZM141.275 71.4197C140.645 71.4197 140.135 71.6259 139.746 72.0383C139.368 72.4507 139.179 73.0236 139.179 73.7568C139.179 74.49 139.368 75.0628 139.746 75.4752C140.135 75.8877 140.645 76.0939 141.275 76.0939C141.894 76.0939 142.398 75.8819 142.788 75.458C143.188 75.0342 143.389 74.4671 143.389 73.7568C143.389 73.035 143.188 72.4679 142.788 72.0555C142.398 71.6316 141.894 71.4197 141.275 71.4197ZM153.936 76.0251V78.5513H152.613C151.49 78.5513 150.613 78.2763 149.983 77.7264C149.365 77.165 149.055 76.2428 149.055 74.9597V71.4368H147.766V68.9623H149.055V66.608H151.994V68.9623H153.919V71.4368H151.994V75.0112C151.994 75.3893 152.068 75.6528 152.217 75.8017C152.378 75.9507 152.641 76.0251 153.008 76.0251H153.936ZM164.867 73.499C164.867 73.7396 164.838 74.0031 164.781 74.2895H158.131C158.165 75.0112 158.348 75.5325 158.681 75.8533C159.013 76.1626 159.437 76.3173 159.952 76.3173C160.388 76.3173 160.748 76.2084 161.035 75.9908C161.321 75.7731 161.51 75.4924 161.602 75.1487H164.712C164.586 75.8246 164.311 76.4318 163.888 76.9703C163.464 77.4973 162.925 77.9154 162.272 78.2248C161.619 78.5226 160.892 78.6716 160.09 78.6716C159.15 78.6716 158.314 78.4768 157.581 78.0873C156.859 77.6863 156.292 77.1135 155.879 76.3688C155.467 75.6242 155.261 74.7535 155.261 73.7568C155.261 72.7486 155.461 71.8779 155.862 71.1447C156.275 70.4 156.848 69.833 157.581 69.4434C158.314 69.0425 159.15 68.842 160.09 68.842C161.041 68.842 161.877 69.0367 162.599 69.4262C163.32 69.8158 163.876 70.3657 164.266 71.076C164.667 71.7748 164.867 72.5825 164.867 73.499ZM161.894 73.0522C161.906 72.4221 161.734 71.9524 161.379 71.6431C161.035 71.3223 160.605 71.1619 160.09 71.1619C159.551 71.1619 159.104 71.3223 158.749 71.6431C158.394 71.9638 158.194 72.4336 158.148 73.0522H161.894ZM186.697 66.4018L183.793 78.5513H180.15L178.208 70.423L176.249 78.5513H172.606L169.702 66.4018H172.898L174.462 75.2003L176.593 66.4018H179.806L181.937 75.2003L183.518 66.4018H186.697ZM188.137 66.2643C188.137 65.8175 188.297 65.4509 188.618 65.1645C188.939 64.8666 189.363 64.7177 189.89 64.7177C190.417 64.7177 190.841 64.8666 191.161 65.1645C191.482 65.4509 191.643 65.8175 191.643 66.2643C191.643 66.6996 191.482 67.0662 191.161 67.3641C190.841 67.6505 190.417 67.7937 189.89 67.7937C189.363 67.7937 188.939 67.6505 188.618 67.3641C188.297 67.0662 188.137 66.6996 188.137 66.2643ZM191.351 68.9623V78.5513H188.412V68.9623H191.351ZM196.49 70.7666C196.856 70.1824 197.326 69.7184 197.899 69.3747C198.483 69.031 199.113 68.8592 199.789 68.8592V72.0039H198.947C198.168 72.0039 197.561 72.1701 197.126 72.5023C196.702 72.8345 196.49 73.3959 196.49 74.1864V78.5513H193.551V68.9623H196.49V70.7666ZM210.299 73.499C210.299 73.7396 210.27 74.0031 210.213 74.2895H203.562C203.597 75.0112 203.78 75.5325 204.112 75.8533C204.445 76.1626 204.868 76.3173 205.384 76.3173C205.819 76.3173 206.18 76.2084 206.467 75.9908C206.753 75.7731 206.942 75.4924 207.034 75.1487H210.144C210.018 75.8246 209.743 76.4318 209.319 76.9703C208.895 77.4973 208.357 77.9154 207.704 78.2248C207.051 78.5226 206.323 78.6716 205.521 78.6716C204.582 78.6716 203.746 78.4768 203.013 78.0873C202.291 77.6863 201.724 77.1135 201.311 76.3688C200.899 75.6242 200.693 74.7535 200.693 73.7568C200.693 72.7486 200.893 71.8779 201.294 71.1447C201.707 70.4 202.279 69.833 203.013 69.4434C203.746 69.0425 204.582 68.842 205.521 68.842C206.472 68.842 207.309 69.0367 208.03 69.4262C208.752 69.8158 209.308 70.3657 209.697 71.076C210.098 71.7748 210.299 72.5825 210.299 73.499ZM207.326 73.0522C207.337 72.4221 207.165 71.9524 206.81 71.6431C206.467 71.3223 206.037 71.1619 205.521 71.1619C204.983 71.1619 204.536 71.3223 204.181 71.6431C203.826 71.9638 203.625 72.4336 203.58 73.0522H207.326Z" fill="white"/>
<path d="M210.447 90.5649C210.727 90.2853 210.727 89.8319 210.447 89.5523L205.891 84.9955C205.611 84.7159 205.158 84.7159 204.878 84.9955C204.598 85.2752 204.598 85.7285 204.878 86.0081L208.929 90.0586L204.878 94.109C204.598 94.3887 204.598 94.842 204.878 95.1217C205.158 95.4013 205.611 95.4013 205.891 95.1217L210.447 90.5649ZM126.854 90.7746H209.941V89.3426H126.854V90.7746Z" fill="white"/>
<path d="M356.395 132.693C356.021 132.822 355.822 133.229 355.951 133.603L358.045 139.697C358.174 140.071 358.581 140.27 358.955 140.142C359.329 140.013 359.528 139.606 359.4 139.232L357.538 133.815L362.955 131.953C363.329 131.824 363.528 131.417 363.399 131.043C363.271 130.669 362.863 130.47 362.49 130.598L356.395 132.693ZM435.429 172.422C435.803 172.294 436.002 171.886 435.874 171.512L433.779 165.418C433.651 165.044 433.243 164.845 432.869 164.974C432.495 165.102 432.296 165.51 432.425 165.884L434.287 171.301L428.87 173.163C428.496 173.291 428.297 173.699 428.425 174.073C428.554 174.447 428.961 174.645 429.335 174.517L435.429 172.422ZM356.314 134.013L434.882 172.389L435.511 171.102L356.942 132.727L356.314 134.013Z" fill="white"/>
<g filter="url(#filter10_ddd)">
<path d="M553.142 206.144C554.336 208.211 554.336 210.759 553.142 212.827L526.491 258.988C525.297 261.056 523.091 262.33 520.703 262.33H467.401C465.013 262.33 462.807 261.056 461.613 258.988L434.962 212.827C433.768 210.759 433.768 208.211 434.962 206.144L461.613 159.982C462.807 157.915 465.013 156.641 467.401 156.641L520.703 156.641C523.091 156.641 525.297 157.915 526.491 159.982L553.142 206.144Z" fill="white"/>
</g>
<g filter="url(#filter11_ddd)">
<path d="M437.825 462.407C436.631 460.34 436.631 457.792 437.825 455.725L464.476 409.563C465.67 407.495 467.876 406.222 470.264 406.222H523.566C525.954 406.222 528.16 407.495 529.354 409.563L556.005 455.725C557.199 457.792 557.199 460.34 556.005 462.407L529.354 508.569C528.16 510.637 525.954 511.91 523.566 511.91H470.264C467.876 511.91 465.67 510.637 464.476 508.569L437.825 462.407Z" fill="white"/>
</g>
<path d="M275.493 312.231C276.47 312.46 277.242 312.933 277.807 313.651C278.387 314.369 278.678 315.202 278.678 316.149C278.678 317.539 278.212 318.623 277.28 319.402C276.363 320.181 275.042 320.571 273.316 320.571H265.778V304.371H273.133C274.782 304.371 276.058 304.73 276.959 305.448C277.86 306.166 278.311 307.19 278.311 308.519C278.311 309.496 278.051 310.314 277.532 310.97C277.013 311.612 276.333 312.032 275.493 312.231ZM269.696 310.993H272.262C273.621 310.993 274.301 310.413 274.301 309.252C274.301 308.091 273.606 307.511 272.216 307.511H269.696V310.993ZM272.491 317.386C273.942 317.386 274.668 316.79 274.668 315.599C274.668 315.018 274.477 314.568 274.095 314.247C273.713 313.911 273.171 313.743 272.468 313.743H269.696V317.386H272.491ZM285.834 307.625C286.811 307.625 287.651 307.847 288.354 308.29C289.057 308.733 289.576 309.336 289.912 310.1V307.785H293.807V320.571H289.912V318.257C289.576 319.02 289.057 319.624 288.354 320.067C287.651 320.51 286.811 320.731 285.834 320.731C284.78 320.731 283.833 320.472 282.992 319.952C282.168 319.418 281.511 318.654 281.022 317.661C280.548 316.668 280.312 315.507 280.312 314.178C280.312 312.834 280.548 311.673 281.022 310.695C281.511 309.702 282.168 308.946 282.992 308.427C283.833 307.892 284.78 307.625 285.834 307.625ZM287.094 311.062C286.254 311.062 285.574 311.337 285.055 311.887C284.551 312.437 284.299 313.201 284.299 314.178C284.299 315.156 284.551 315.92 285.055 316.469C285.574 317.019 286.254 317.294 287.094 317.294C287.919 317.294 288.591 317.012 289.11 316.446C289.645 315.881 289.912 315.125 289.912 314.178C289.912 313.216 289.645 312.46 289.11 311.91C288.591 311.345 287.919 311.062 287.094 311.062ZM304.845 307.648C306.312 307.648 307.473 308.137 308.328 309.114C309.199 310.092 309.634 311.436 309.634 313.147V320.571H305.716V313.605C305.716 312.75 305.487 312.085 305.029 311.612C304.586 311.123 303.99 310.879 303.241 310.879C302.447 310.879 301.813 311.131 301.34 311.635C300.881 312.139 300.652 312.857 300.652 313.789V320.571H296.734V307.785H300.652V310.123C301.019 309.359 301.561 308.755 302.279 308.312C303.012 307.869 303.868 307.648 304.845 307.648ZM320.192 320.571L316.365 315.14V320.571H312.447V303.615H316.365V312.918L320.192 307.785H324.797L319.642 314.178L324.912 320.571H320.192Z" fill="white"/>
<path d="M509.483 456.353H514.853V469.211H509.483V456.353Z" fill="url(#paint2_linear)"/>
<path d="M499.315 456.353H504.685V469.211H499.315V456.353Z" fill="url(#paint3_linear)"/>
<path d="M489.145 456.353H494.515V469.211H489.145V456.353Z" fill="url(#paint4_linear)"/>
<path d="M478.976 456.353H484.346V469.211H478.976V456.353Z" fill="url(#paint5_linear)"/>
<path d="M516.643 452.325V450.983H477.186V452.325C477.186 453.067 477.787 453.668 478.528 453.668H515.301C516.042 453.668 516.643 453.067 516.643 452.325Z" fill="url(#paint6_linear)"/>
<path d="M518.484 471.896H475.345C474.604 471.896 474.003 472.497 474.003 473.238V476.818C474.003 477.56 474.604 478.161 475.345 478.161H518.484C519.225 478.161 519.826 477.56 519.826 476.818V473.238C519.826 472.497 519.225 471.896 518.484 471.896Z" fill="url(#paint7_linear)"/>
<path d="M475.344 448.298H518.485C519.086 448.298 519.613 447.899 519.777 447.321C519.94 446.743 519.7 446.127 519.189 445.812L497.618 432.535C497.187 432.269 496.643 432.269 496.211 432.535L474.641 445.812C474.129 446.127 473.889 446.743 474.053 447.321C474.217 447.899 474.744 448.298 475.344 448.298ZM496.002 440.232H497.827C498.569 440.232 499.17 440.833 499.17 441.575C499.17 442.316 498.569 442.917 497.827 442.917H496.002C495.261 442.917 494.66 442.316 494.66 441.575C494.66 440.833 495.261 440.232 496.002 440.232Z" fill="url(#paint8_linear)"/>
<path d="M109.218 206.772H114.588V219.63H109.218V206.772Z" fill="url(#paint9_linear)"/>
<path d="M99.0489 206.772H104.419V219.63H99.0489V206.772Z" fill="url(#paint10_linear)"/>
<path d="M88.8791 206.772H94.2493V219.63H88.8791V206.772Z" fill="url(#paint11_linear)"/>
<path d="M78.7103 206.772H84.0801V219.63H78.7103V206.772Z" fill="url(#paint12_linear)"/>
<path d="M116.377 202.744V201.402H76.9202V202.744C76.9202 203.486 77.5212 204.087 78.2628 204.087H115.035C115.776 204.087 116.377 203.486 116.377 202.744Z" fill="url(#paint13_linear)"/>
<path d="M118.218 222.315H75.0798C74.3383 222.315 73.7373 222.916 73.7373 223.657V227.237C73.7373 227.979 74.3383 228.58 75.0798 228.58H118.218C118.96 228.58 119.561 227.979 119.561 227.237V223.657C119.561 222.916 118.96 222.315 118.218 222.315Z" fill="url(#paint14_linear)"/>
<path d="M75.0788 198.717H118.219C118.82 198.717 119.347 198.318 119.511 197.74C119.674 197.162 119.435 196.546 118.923 196.231L97.3528 182.954C96.9214 182.688 96.377 182.688 95.9452 182.954L74.375 196.231C73.8635 196.546 73.6236 197.162 73.7873 197.74C73.9509 198.318 74.4785 198.717 75.0788 198.717ZM95.7365 190.651H97.5619C98.3034 190.651 98.9044 191.252 98.9044 191.993C98.9044 192.735 98.3034 193.336 97.5619 193.336H95.7365C94.9949 193.336 94.3939 192.735 94.3939 191.993C94.3939 191.252 94.9949 190.651 95.7365 190.651Z" fill="url(#paint15_linear)"/>
<path d="M307.919 87.4195H313.289V100.277H307.919V87.4195Z" fill="white"/>
<path d="M297.75 87.4195H303.12V100.277H297.75V87.4195Z" fill="white"/>
<path d="M287.58 87.4195H292.95V100.277H287.58V87.4195Z" fill="white"/>
<path d="M277.411 87.4195H282.781V100.277H277.411V87.4195Z" fill="white"/>
<path d="M315.079 83.3918V82.0493H275.621V83.3918C275.621 84.1334 276.222 84.7344 276.964 84.7344H313.736C314.477 84.7344 315.079 84.1334 315.079 83.3918Z" fill="white"/>
<path d="M316.919 102.962H273.781C273.039 102.962 272.438 103.563 272.438 104.305V107.885C272.438 108.626 273.039 109.227 273.781 109.227H316.919C317.661 109.227 318.262 108.626 318.262 107.885V104.305C318.262 103.563 317.661 102.962 316.919 102.962Z" fill="white"/>
<path d="M273.78 79.3642H316.92C317.521 79.3642 318.049 78.9653 318.212 78.3873C318.376 77.8094 318.136 77.193 317.624 76.8784L296.054 63.6011C295.623 63.3354 295.078 63.3354 294.646 63.6011L273.076 76.8784C272.565 77.1934 272.325 77.8094 272.488 78.3873C272.652 78.9653 273.18 79.3642 273.78 79.3642ZM294.438 71.2984H296.263C297.005 71.2984 297.606 71.8994 297.606 72.641C297.606 73.3825 297.005 73.9835 296.263 73.9835H294.438C293.696 73.9835 293.095 73.3825 293.095 72.641C293.095 71.8994 293.696 71.2984 294.438 71.2984Z" fill="white"/>
<path d="M506.621 206.772H511.991V219.63H506.621V206.772Z" fill="url(#paint16_linear)"/>
<path d="M496.452 206.772H501.822V219.63H496.452V206.772Z" fill="url(#paint17_linear)"/>
<path d="M486.282 206.772H491.653V219.63H486.282V206.772Z" fill="url(#paint18_linear)"/>
<path d="M476.114 206.772H481.483V219.63H476.114V206.772Z" fill="url(#paint19_linear)"/>
<path d="M513.781 202.744V201.402H474.324V202.744C474.324 203.486 474.925 204.087 475.666 204.087H512.438C513.179 204.087 513.781 203.486 513.781 202.744Z" fill="url(#paint20_linear)"/>
<path d="M515.622 222.315H472.483C471.742 222.315 471.141 222.916 471.141 223.657V227.237C471.141 227.979 471.742 228.58 472.483 228.58H515.622C516.363 228.58 516.964 227.979 516.964 227.237V223.657C516.964 222.916 516.363 222.315 515.622 222.315Z" fill="url(#paint21_linear)"/>
<path d="M472.482 198.717H515.623C516.223 198.717 516.751 198.318 516.914 197.74C517.078 197.162 516.838 196.546 516.326 196.231L494.756 182.954C494.325 182.688 493.78 182.688 493.349 182.954L471.778 196.231C471.267 196.546 471.027 197.162 471.191 197.74C471.354 198.318 471.882 198.717 472.482 198.717ZM493.14 190.651H494.965C495.707 190.651 496.308 191.252 496.308 191.993C496.308 192.735 495.707 193.336 494.965 193.336H493.14C492.398 193.336 491.797 192.735 491.797 191.993C491.797 191.252 492.398 190.651 493.14 190.651Z" fill="url(#paint22_linear)"/>
<path d="M109.217 456.353H114.587V469.211H109.217V456.353Z" fill="url(#paint23_linear)"/>
<path d="M99.0479 456.353H104.418V469.211H99.0479V456.353Z" fill="url(#paint24_linear)"/>
<path d="M88.8782 456.353H94.2483V469.211H88.8782V456.353Z" fill="url(#paint25_linear)"/>
<path d="M78.7093 456.353H84.0791V469.211H78.7093V456.353Z" fill="url(#paint26_linear)"/>
<path d="M116.376 452.325V450.983H76.9192V452.325C76.9192 453.067 77.5202 453.668 78.2618 453.668H115.034C115.775 453.668 116.376 453.067 116.376 452.325Z" fill="url(#paint27_linear)"/>
<path d="M118.217 471.896H75.0788C74.3373 471.896 73.7363 472.497 73.7363 473.238V476.818C73.7363 477.56 74.3373 478.161 75.0788 478.161H118.217C118.959 478.161 119.56 477.56 119.56 476.818V473.238C119.56 472.497 118.959 471.896 118.217 471.896Z" fill="url(#paint28_linear)"/>
<path d="M75.0778 448.298H118.218C118.819 448.298 119.346 447.899 119.51 447.321C119.673 446.743 119.434 446.127 118.922 445.812L97.3518 432.535C96.9204 432.269 96.376 432.269 95.9442 432.535L74.374 445.812C73.8625 446.127 73.6227 446.743 73.7863 447.321C73.9499 447.899 74.4775 448.298 75.0778 448.298ZM95.7355 440.232H97.5609C98.3024 440.232 98.9034 440.833 98.9034 441.575C98.9034 442.316 98.3024 442.917 97.5609 442.917H95.7355C94.994 442.917 94.393 442.316 94.393 441.575C94.393 440.833 94.994 440.232 95.7355 440.232Z" fill="url(#paint29_linear)"/>
<path d="M307.919 523.84H313.289V536.698H307.919V523.84Z" fill="url(#paint30_linear)"/>
<path d="M297.75 523.84H303.12V536.698H297.75V523.84Z" fill="url(#paint31_linear)"/>
<path d="M287.58 523.84H292.95V536.698H287.58V523.84Z" fill="url(#paint32_linear)"/>
<path d="M277.411 523.84H282.781V536.698H277.411V523.84Z" fill="url(#paint33_linear)"/>
<path d="M315.079 519.812V518.47H275.621V519.812C275.621 520.554 276.222 521.155 276.964 521.155H313.736C314.477 521.155 315.079 520.554 315.079 519.812Z" fill="url(#paint34_linear)"/>
<path d="M316.919 539.383H273.781C273.039 539.383 272.438 539.984 272.438 540.725V544.305C272.438 545.047 273.039 545.648 273.781 545.648H316.919C317.661 545.648 318.262 545.047 318.262 544.305V540.725C318.262 539.984 317.661 539.383 316.919 539.383Z" fill="url(#paint35_linear)"/>
<path d="M273.78 515.785H316.92C317.521 515.785 318.049 515.386 318.212 514.808C318.376 514.23 318.136 513.613 317.624 513.299L296.054 500.022C295.623 499.756 295.078 499.756 294.646 500.022L273.076 513.299C272.565 513.614 272.325 514.23 272.488 514.808C272.652 515.386 273.18 515.785 273.78 515.785ZM294.438 507.719H296.263C297.005 507.719 297.606 508.32 297.606 509.061C297.606 509.803 297.005 510.404 296.263 510.404H294.438C293.696 510.404 293.095 509.803 293.095 509.061C293.095 508.32 293.696 507.719 294.438 507.719Z" fill="url(#paint36_linear)"/>
<path d="M571.122 208.864C570.842 209.144 570.842 209.597 571.122 209.877L575.678 214.434C575.958 214.713 576.411 214.713 576.691 214.434C576.971 214.154 576.971 213.701 576.691 213.421L572.641 209.371L576.691 205.32C576.971 205.041 576.971 204.587 576.691 204.308C576.411 204.028 575.958 204.028 575.678 204.308L571.122 208.864ZM675.628 208.655L571.628 208.655L571.628 210.087L675.628 210.087L675.628 208.655Z" fill="white"/>
<path d="M401.058 80.4904C400.176 80.4904 399.386 80.3472 398.687 80.0608C397.988 79.7744 397.427 79.3505 397.003 78.7891C396.59 78.2278 396.373 77.5518 396.35 76.7614H399.477C399.523 77.2082 399.678 77.5518 399.941 77.7924C400.205 78.0216 400.548 78.1361 400.972 78.1361C401.408 78.1361 401.751 78.0387 402.003 77.844C402.255 77.6378 402.381 77.3571 402.381 77.0019C402.381 76.7041 402.278 76.4578 402.072 76.263C401.877 76.0682 401.631 75.9078 401.333 75.7818C401.047 75.6558 400.634 75.5126 400.096 75.3522C399.317 75.1116 398.681 74.871 398.188 74.6305C397.696 74.3899 397.272 74.0347 396.917 73.565C396.562 73.0953 396.384 72.4824 396.384 71.7263C396.384 70.6035 396.791 69.7271 397.604 69.097C398.418 68.4555 399.477 68.1347 400.783 68.1347C402.112 68.1347 403.183 68.4555 403.997 69.097C404.81 69.7271 405.246 70.6093 405.303 71.7434H402.124C402.101 71.3539 401.958 71.0503 401.694 70.8327C401.431 70.6035 401.093 70.489 400.68 70.489C400.325 70.489 400.039 70.5864 399.821 70.7811C399.603 70.9644 399.494 71.2336 399.494 71.5888C399.494 71.9783 399.678 72.2819 400.044 72.4996C400.411 72.7172 400.984 72.9521 401.763 73.2041C402.542 73.4676 403.172 73.7197 403.653 73.9603C404.146 74.2008 404.57 74.5503 404.925 75.0085C405.28 75.4668 405.458 76.0568 405.458 76.7785C405.458 77.4659 405.28 78.0903 404.925 78.6517C404.581 79.213 404.077 79.6598 403.413 79.9921C402.748 80.3243 401.963 80.4904 401.058 80.4904ZM413.332 70.678C414.432 70.678 415.314 71.0446 415.979 71.7778C416.643 72.4996 416.975 73.4963 416.975 74.7679V80.3701H414.054V75.1632C414.054 74.5216 413.888 74.0233 413.555 73.6681C413.223 73.313 412.776 73.1354 412.215 73.1354C411.654 73.1354 411.207 73.313 410.875 73.6681C410.542 74.0233 410.376 74.5216 410.376 75.1632V80.3701H407.438V67.6535H410.376V72.07C410.674 71.6461 411.081 71.3081 411.596 71.0561C412.112 70.804 412.691 70.678 413.332 70.678ZM423.554 80.5076C422.615 80.5076 421.767 80.3071 421.011 79.9061C420.266 79.5052 419.676 78.9323 419.241 78.1877C418.817 77.443 418.605 76.5723 418.605 75.5756C418.605 74.5904 418.822 73.7254 419.258 72.9807C419.693 72.2246 420.289 71.6461 421.045 71.2451C421.801 70.8441 422.649 70.6436 423.588 70.6436C424.528 70.6436 425.376 70.8441 426.132 71.2451C426.888 71.6461 427.484 72.2246 427.919 72.9807C428.354 73.7254 428.572 74.5904 428.572 75.5756C428.572 76.5609 428.348 77.4316 427.902 78.1877C427.466 78.9323 426.865 79.5052 426.097 79.9061C425.341 80.3071 424.493 80.5076 423.554 80.5076ZM423.554 77.9643C424.115 77.9643 424.591 77.7581 424.98 77.3456C425.381 76.9332 425.582 76.3432 425.582 75.5756C425.582 74.808 425.387 74.218 424.997 73.8056C424.619 73.3932 424.15 73.187 423.588 73.187C423.016 73.187 422.54 73.3932 422.162 73.8056C421.784 74.2066 421.595 74.7966 421.595 75.5756C421.595 76.3432 421.778 76.9332 422.145 77.3456C422.523 77.7581 422.993 77.9643 423.554 77.9643ZM433.241 72.3793C433.585 71.8523 434.015 71.4399 434.53 71.142C435.046 70.8327 435.618 70.678 436.249 70.678V73.7884H435.441C434.708 73.7884 434.158 73.9488 433.791 74.2696C433.425 74.5789 433.241 75.1288 433.241 75.9193V80.3701H430.303V70.7811H433.241V72.3793ZM443.169 77.8784V80.3701H441.674C440.609 80.3701 439.778 80.1123 439.183 79.5968C438.587 79.0698 438.289 78.2163 438.289 77.0363V73.2213H437.12V70.7811H438.289V68.444H441.228V70.7811H443.152V73.2213H441.228V77.0707C441.228 77.3571 441.296 77.5633 441.434 77.6893C441.571 77.8153 441.8 77.8784 442.121 77.8784H443.169ZM454.017 75.421C454.017 75.6959 454 75.9823 453.966 76.2802H447.315C447.361 76.8759 447.55 77.3342 447.882 77.655C448.226 77.9643 448.644 78.1189 449.137 78.1189C449.87 78.1189 450.38 77.8096 450.666 77.191H453.794C453.633 77.8211 453.341 78.3882 452.917 78.8922C452.505 79.3963 451.984 79.7916 451.354 80.078C450.723 80.3644 450.019 80.5076 449.24 80.5076C448.3 80.5076 447.464 80.3071 446.731 79.9061C445.998 79.5052 445.425 78.9323 445.012 78.1877C444.6 77.443 444.394 76.5723 444.394 75.5756C444.394 74.5789 444.594 73.7082 444.995 72.9636C445.408 72.2189 445.981 71.6461 446.714 71.2451C447.447 70.8441 448.289 70.6436 449.24 70.6436C450.168 70.6436 450.993 70.8384 451.714 71.2279C452.436 71.6174 452.998 72.1731 453.399 72.8948C453.811 73.6166 454.017 74.4586 454.017 75.421ZM451.01 74.6476C451.01 74.1436 450.838 73.7426 450.494 73.4447C450.151 73.1469 449.721 72.9979 449.205 72.9979C448.713 72.9979 448.295 73.1411 447.951 73.4275C447.619 73.7139 447.413 74.1207 447.332 74.6476H451.01ZM458.678 72.3793C459.022 71.8523 459.451 71.4399 459.967 71.142C460.482 70.8327 461.055 70.678 461.685 70.678V73.7884H460.877C460.144 73.7884 459.594 73.9488 459.228 74.2696C458.861 74.5789 458.678 75.1288 458.678 75.9193V80.3701H455.739V70.7811H458.678V72.3793ZM472.419 77.8784V80.3701H470.924C469.859 80.3701 469.028 80.1123 468.433 79.5968C467.837 79.0698 467.539 78.2163 467.539 77.0363V73.2213H466.37V70.7811H467.539V68.444H470.478V70.7811H472.402V73.2213H470.478V77.0707C470.478 77.3571 470.546 77.5633 470.684 77.6893C470.821 77.8153 471.05 77.8784 471.371 77.8784H472.419ZM483.267 75.421C483.267 75.6959 483.25 75.9823 483.216 76.2802H476.565C476.611 76.8759 476.8 77.3342 477.132 77.655C477.476 77.9643 477.894 78.1189 478.387 78.1189C479.12 78.1189 479.63 77.8096 479.916 77.191H483.044C482.883 77.8211 482.591 78.3882 482.167 78.8922C481.755 79.3963 481.234 79.7916 480.604 80.078C479.974 80.3644 479.269 80.5076 478.49 80.5076C477.55 80.5076 476.714 80.3071 475.981 79.9061C475.248 79.5052 474.675 78.9323 474.262 78.1877C473.85 77.443 473.644 76.5723 473.644 75.5756C473.644 74.5789 473.844 73.7082 474.245 72.9636C474.658 72.2189 475.231 71.6461 475.964 71.2451C476.697 70.8441 477.539 70.6436 478.49 70.6436C479.418 70.6436 480.243 70.8384 480.964 71.2279C481.686 71.6174 482.248 72.1731 482.649 72.8948C483.061 73.6166 483.267 74.4586 483.267 75.421ZM480.26 74.6476C480.26 74.1436 480.088 73.7426 479.744 73.4447C479.401 73.1469 478.971 72.9979 478.456 72.9979C477.963 72.9979 477.545 73.1411 477.201 73.4275C476.869 73.7139 476.663 74.1207 476.582 74.6476H480.26ZM487.928 72.3793C488.272 71.8523 488.701 71.4399 489.217 71.142C489.732 70.8327 490.305 70.678 490.935 70.678V73.7884H490.128C489.394 73.7884 488.844 73.9488 488.478 74.2696C488.111 74.5789 487.928 75.1288 487.928 75.9193V80.3701H484.989V70.7811H487.928V72.3793ZM504.747 70.678C505.938 70.678 506.884 71.0389 507.582 71.7606C508.293 72.4824 508.648 73.4848 508.648 74.7679V80.3701H505.727V75.1632C505.727 74.5445 505.56 74.0691 505.228 73.7369C504.907 73.3932 504.461 73.2213 503.888 73.2213C503.315 73.2213 502.862 73.3932 502.53 73.7369C502.209 74.0691 502.049 74.5445 502.049 75.1632V80.3701H499.128V75.1632C499.128 74.5445 498.962 74.0691 498.629 73.7369C498.309 73.3932 497.862 73.2213 497.289 73.2213C496.716 73.2213 496.264 73.3932 495.931 73.7369C495.611 74.0691 495.45 74.5445 495.45 75.1632V80.3701H492.512V70.7811H495.45V71.984C495.748 71.5831 496.138 71.268 496.619 71.0389C497.1 70.7983 497.644 70.678 498.251 70.678C498.973 70.678 499.615 70.8327 500.176 71.142C500.749 71.4513 501.196 71.8924 501.516 72.4652C501.849 71.9382 502.301 71.5086 502.874 71.1764C503.447 70.8441 504.071 70.678 504.747 70.678ZM517.627 72.1387C517.902 71.6919 518.297 71.331 518.813 71.0561C519.328 70.7811 519.918 70.6436 520.583 70.6436C521.373 70.6436 522.089 70.8441 522.731 71.2451C523.372 71.6461 523.876 72.2189 524.243 72.9636C524.621 73.7082 524.81 74.5732 524.81 75.5584C524.81 76.5437 524.621 77.4144 524.243 78.1705C523.876 78.9152 523.372 79.4937 522.731 79.9061C522.089 80.3071 521.373 80.5076 520.583 80.5076C519.907 80.5076 519.317 80.3758 518.813 80.1123C518.309 79.8374 517.913 79.4765 517.627 79.0297V80.3701H514.688V67.6535H517.627V72.1387ZM521.82 75.5584C521.82 74.8252 521.614 74.2524 521.201 73.84C520.8 73.4161 520.302 73.2041 519.706 73.2041C519.122 73.2041 518.624 73.4161 518.211 73.84C517.81 74.2639 517.61 74.8424 517.61 75.5756C517.61 76.3088 517.81 76.8874 518.211 77.3113C518.624 77.7351 519.122 77.9471 519.706 77.9471C520.291 77.9471 520.789 77.7351 521.201 77.3113C521.614 76.8759 521.82 76.2916 521.82 75.5584ZM525.939 75.5584C525.939 74.5732 526.123 73.7082 526.489 72.9636C526.867 72.2189 527.377 71.6461 528.019 71.2451C528.66 70.8441 529.376 70.6436 530.167 70.6436C530.843 70.6436 531.433 70.7811 531.937 71.0561C532.452 71.331 532.848 71.6919 533.123 72.1387V70.7811H536.061V80.3701H533.123V79.0125C532.836 79.4593 532.435 79.8202 531.92 80.0952C531.416 80.3701 530.826 80.5076 530.15 80.5076C529.371 80.5076 528.66 80.3071 528.019 79.9061C527.377 79.4937 526.867 78.9152 526.489 78.1705C526.123 77.4144 525.939 76.5437 525.939 75.5584ZM533.123 75.5756C533.123 74.8424 532.916 74.2639 532.504 73.84C532.103 73.4161 531.61 73.2041 531.026 73.2041C530.442 73.2041 529.943 73.4161 529.531 73.84C529.13 74.2524 528.93 74.8252 528.93 75.5584C528.93 76.2916 529.13 76.8759 529.531 77.3113C529.943 77.7351 530.442 77.9471 531.026 77.9471C531.61 77.9471 532.103 77.7351 532.504 77.3113C532.916 76.8874 533.123 76.3088 533.123 75.5756ZM542.26 80.5076C541.423 80.5076 540.679 80.3644 540.026 80.078C539.373 79.7916 538.857 79.4021 538.479 78.9094C538.101 78.4053 537.889 77.844 537.843 77.2253H540.748C540.782 77.5576 540.937 77.8268 541.212 78.033C541.486 78.2392 541.824 78.3423 542.225 78.3423C542.592 78.3423 542.873 78.2736 543.067 78.1361C543.274 77.9872 543.377 77.7982 543.377 77.569C543.377 77.2941 543.234 77.0936 542.947 76.9676C542.661 76.8301 542.197 76.6812 541.555 76.5208C540.868 76.3604 540.295 76.1943 539.837 76.0224C539.379 75.8391 538.983 75.5584 538.651 75.1804C538.319 74.7909 538.153 74.2696 538.153 73.6166C538.153 73.0667 538.302 72.5683 538.599 72.1215C538.909 71.6633 539.356 71.3024 539.94 71.0389C540.536 70.7754 541.24 70.6436 542.054 70.6436C543.257 70.6436 544.202 70.9415 544.889 71.5372C545.588 72.133 545.989 72.9235 546.092 73.9087H543.377C543.331 73.5765 543.182 73.313 542.93 73.1182C542.689 72.9235 542.369 72.8261 541.968 72.8261C541.624 72.8261 541.36 72.8948 541.177 73.0323C540.994 73.1583 540.902 73.3359 540.902 73.565C540.902 73.84 541.045 74.0462 541.332 74.1837C541.63 74.3211 542.088 74.4586 542.707 74.5961C543.417 74.7794 543.995 74.9627 544.442 75.146C544.889 75.3178 545.279 75.6043 545.611 76.0052C545.954 76.3947 546.132 76.9217 546.144 77.5862C546.144 78.1476 545.983 78.6517 545.662 79.0985C545.353 79.5338 544.901 79.8775 544.305 80.1295C543.72 80.3816 543.039 80.5076 542.26 80.5076ZM557.152 75.421C557.152 75.6959 557.135 75.9823 557.101 76.2802H550.45C550.496 76.8759 550.685 77.3342 551.017 77.655C551.361 77.9643 551.779 78.1189 552.272 78.1189C553.005 78.1189 553.515 77.8096 553.801 77.191H556.929C556.768 77.8211 556.476 78.3882 556.052 78.8922C555.64 79.3963 555.119 79.7916 554.489 80.078C553.859 80.3644 553.154 80.5076 552.375 80.5076C551.436 80.5076 550.599 80.3071 549.866 79.9061C549.133 79.5052 548.56 78.9323 548.148 78.1877C547.735 77.443 547.529 76.5723 547.529 75.5756C547.529 74.5789 547.729 73.7082 548.13 72.9636C548.543 72.2189 549.116 71.6461 549.849 71.2451C550.582 70.8441 551.424 70.6436 552.375 70.6436C553.303 70.6436 554.128 70.8384 554.85 71.2279C555.571 71.6174 556.133 72.1731 556.534 72.8948C556.946 73.6166 557.152 74.4586 557.152 75.421ZM554.145 74.6476C554.145 74.1436 553.973 73.7426 553.629 73.4447C553.286 73.1469 552.856 72.9979 552.341 72.9979C551.848 72.9979 551.43 73.1411 551.086 73.4275C550.754 73.7139 550.548 74.1207 550.467 74.6476H554.145ZM558.29 75.5584C558.29 74.5732 558.473 73.7082 558.84 72.9636C559.218 72.2189 559.728 71.6461 560.369 71.2451C561.011 70.8441 561.727 70.6436 562.517 70.6436C563.148 70.6436 563.72 70.7754 564.236 71.0389C564.763 71.3024 565.175 71.6575 565.473 72.1043V67.6535H568.412V80.3701H565.473V78.9953C565.198 79.4536 564.803 79.8202 564.288 80.0952C563.783 80.3701 563.193 80.5076 562.517 80.5076C561.727 80.5076 561.011 80.3071 560.369 79.9061C559.728 79.4937 559.218 78.9152 558.84 78.1705C558.473 77.4144 558.29 76.5437 558.29 75.5584ZM565.473 75.5756C565.473 74.8424 565.267 74.2639 564.855 73.84C564.454 73.4161 563.961 73.2041 563.377 73.2041C562.792 73.2041 562.294 73.4161 561.882 73.84C561.481 74.2524 561.28 74.8252 561.28 75.5584C561.28 76.2916 561.481 76.8759 561.882 77.3113C562.294 77.7351 562.792 77.9471 563.377 77.9471C563.961 77.9471 564.454 77.7351 564.855 77.3113C565.267 76.8874 565.473 76.3088 565.473 75.5756ZM577.462 72.3793C577.805 71.8523 578.235 71.4399 578.75 71.142C579.266 70.8327 579.839 70.678 580.469 70.678V73.7884H579.661C578.928 73.7884 578.378 73.9488 578.012 74.2696C577.645 74.5789 577.462 75.1288 577.462 75.9193V80.3701H574.523V70.7811H577.462V72.3793ZM581.461 75.5584C581.461 74.5732 581.644 73.7082 582.011 72.9636C582.389 72.2189 582.899 71.6461 583.54 71.2451C584.182 70.8441 584.898 70.6436 585.688 70.6436C586.364 70.6436 586.954 70.7811 587.459 71.0561C587.974 71.331 588.369 71.6919 588.644 72.1387V70.7811H591.583V80.3701H588.644V79.0125C588.358 79.4593 587.957 79.8202 587.441 80.0952C586.937 80.3701 586.347 80.5076 585.671 80.5076C584.892 80.5076 584.182 80.3071 583.54 79.9061C582.899 79.4937 582.389 78.9152 582.011 78.1705C581.644 77.4144 581.461 76.5437 581.461 75.5584ZM588.644 75.5756C588.644 74.8424 588.438 74.2639 588.026 73.84C587.625 73.4161 587.132 73.2041 586.548 73.2041C585.963 73.2041 585.465 73.4161 585.053 73.84C584.652 74.2524 584.451 74.8252 584.451 75.5584C584.451 76.2916 584.652 76.8759 585.053 77.3113C585.465 77.7351 585.963 77.9471 586.548 77.9471C587.132 77.9471 587.625 77.7351 588.026 77.3113C588.438 76.8874 588.644 76.3088 588.644 75.5756ZM599.225 77.8784V80.3701H597.73C596.664 80.3701 595.834 80.1123 595.238 79.5968C594.642 79.0698 594.345 78.2163 594.345 77.0363V73.2213H593.176V70.7811H594.345V68.444H597.283V70.7811H599.208V73.2213H597.283V77.0707C597.283 77.3571 597.352 77.5633 597.489 77.6893C597.627 77.8153 597.856 77.8784 598.177 77.8784H599.225ZM610.073 75.421C610.073 75.6959 610.056 75.9823 610.021 76.2802H603.371C603.417 76.8759 603.606 77.3342 603.938 77.655C604.282 77.9643 604.7 78.1189 605.192 78.1189C605.926 78.1189 606.435 77.8096 606.722 77.191H609.849C609.689 77.8211 609.397 78.3882 608.973 78.8922C608.561 79.3963 608.039 79.7916 607.409 80.078C606.779 80.3644 606.074 80.5076 605.295 80.5076C604.356 80.5076 603.52 80.3071 602.787 79.9061C602.053 79.5052 601.48 78.9323 601.068 78.1877C600.656 77.443 600.449 76.5723 600.449 75.5756C600.449 74.5789 600.65 73.7082 601.051 72.9636C601.463 72.2189 602.036 71.6461 602.769 71.2451C603.503 70.8441 604.345 70.6436 605.295 70.6436C606.223 70.6436 607.048 70.8384 607.77 71.2279C608.492 71.6174 609.053 72.1731 609.454 72.8948C609.867 73.6166 610.073 74.4586 610.073 75.421ZM607.065 74.6476C607.065 74.1436 606.894 73.7426 606.55 73.4447C606.206 73.1469 605.777 72.9979 605.261 72.9979C604.768 72.9979 604.35 73.1411 604.007 73.4275C603.674 73.7139 603.468 74.1207 603.388 74.6476H607.065ZM615.696 80.5076C614.859 80.5076 614.115 80.3644 613.462 80.078C612.809 79.7916 612.293 79.4021 611.915 78.9094C611.537 78.4053 611.325 77.844 611.279 77.2253H614.184C614.218 77.5576 614.373 77.8268 614.648 78.033C614.922 78.2392 615.26 78.3423 615.661 78.3423C616.028 78.3423 616.309 78.2736 616.503 78.1361C616.71 77.9872 616.813 77.7982 616.813 77.569C616.813 77.2941 616.67 77.0936 616.383 76.9676C616.097 76.8301 615.633 76.6812 614.991 76.5208C614.304 76.3604 613.731 76.1943 613.273 76.0224C612.814 75.8391 612.419 75.5584 612.087 75.1804C611.755 74.7909 611.589 74.2696 611.589 73.6166C611.589 73.0667 611.738 72.5683 612.035 72.1215C612.345 71.6633 612.792 71.3024 613.376 71.0389C613.972 70.7754 614.676 70.6436 615.49 70.6436C616.692 70.6436 617.638 70.9415 618.325 71.5372C619.024 72.133 619.425 72.9235 619.528 73.9087H616.813C616.767 73.5765 616.618 73.313 616.366 73.1182C616.125 72.9235 615.805 72.8261 615.404 72.8261C615.06 72.8261 614.796 72.8948 614.613 73.0323C614.43 73.1583 614.338 73.3359 614.338 73.565C614.338 73.84 614.481 74.0462 614.768 74.1837C615.066 74.3211 615.524 74.4586 616.143 74.5961C616.853 74.7794 617.431 74.9627 617.878 75.146C618.325 75.3178 618.715 75.6043 619.047 76.0052C619.39 76.3947 619.568 76.9217 619.579 77.5862C619.579 78.1476 619.419 78.6517 619.098 79.0985C618.789 79.5338 618.336 79.8775 617.741 80.1295C617.156 80.3816 616.475 80.5076 615.696 80.5076ZM624.711 77.655L622.804 82.5869H620.93L621.927 77.655H624.711ZM399.632 89.6535V102.37H396.693V89.6535H399.632ZM403.411 91.7844C402.896 91.7844 402.472 91.6355 402.14 91.3376C401.819 91.0283 401.658 90.6502 401.658 90.2034C401.658 89.7452 401.819 89.3671 402.14 89.0692C402.472 88.7599 402.896 88.6053 403.411 88.6053C403.915 88.6053 404.328 88.7599 404.649 89.0692C404.981 89.3671 405.147 89.7452 405.147 90.2034C405.147 90.6502 404.981 91.0283 404.649 91.3376C404.328 91.6355 403.915 91.7844 403.411 91.7844ZM404.872 92.7811V102.37H401.933V92.7811H404.872ZM406.589 97.5928C406.589 96.6419 406.784 95.7941 407.173 95.0495C407.574 94.3048 408.107 93.7263 408.771 93.3138C409.447 92.8899 410.181 92.678 410.971 92.678C411.578 92.678 412.122 92.7868 412.604 93.0045C413.085 93.2107 413.474 93.5029 413.772 93.8809V92.7811H416.711V106.941H413.772V101.167C413.44 101.568 413.033 101.889 412.552 102.13C412.082 102.37 411.544 102.49 410.937 102.49C410.158 102.49 409.436 102.284 408.771 101.872C408.107 101.459 407.574 100.881 407.173 100.136C406.784 99.3915 406.589 98.5437 406.589 97.5928ZM413.772 97.5756C413.772 97.0601 413.669 96.6305 413.463 96.2868C413.268 95.9316 413.01 95.6681 412.69 95.4963C412.369 95.313 412.031 95.2213 411.676 95.2213C411.332 95.2213 411 95.313 410.679 95.4963C410.358 95.6681 410.095 95.9316 409.888 96.2868C409.682 96.6419 409.579 97.0773 409.579 97.5928C409.579 98.1083 409.682 98.5437 409.888 98.8988C410.095 99.2425 410.358 99.506 410.679 99.6893C411 99.8612 411.332 99.9471 411.676 99.9471C412.019 99.9471 412.352 99.8612 412.672 99.6893C413.005 99.506 413.268 99.2368 413.463 98.8816C413.669 98.5265 413.772 98.0912 413.772 97.5756ZM428.477 92.7811V102.37H425.539V101.064C425.241 101.488 424.834 101.832 424.319 102.095C423.814 102.347 423.253 102.473 422.634 102.473C421.901 102.473 421.254 102.313 420.693 101.992C420.131 101.66 419.696 101.184 419.387 100.566C419.077 99.9471 418.923 99.2196 418.923 98.3833V92.7811H421.844V97.988C421.844 98.6296 422.01 99.128 422.342 99.4831C422.675 99.8383 423.121 100.016 423.683 100.016C424.256 100.016 424.708 99.8383 425.04 99.4831C425.373 99.128 425.539 98.6296 425.539 97.988V92.7811H428.477ZM432.238 91.7844C431.722 91.7844 431.298 91.6355 430.966 91.3376C430.645 91.0283 430.485 90.6502 430.485 90.2034C430.485 89.7452 430.645 89.3671 430.966 89.0692C431.298 88.7599 431.722 88.6053 432.238 88.6053C432.742 88.6053 433.154 88.7599 433.475 89.0692C433.807 89.3671 433.973 89.7452 433.973 90.2034C433.973 90.6502 433.807 91.0283 433.475 91.3376C433.154 91.6355 432.742 91.7844 432.238 91.7844ZM433.698 92.7811V102.37H430.76V92.7811H433.698ZM435.416 97.5584C435.416 96.5732 435.599 95.7082 435.965 94.9636C436.343 94.2189 436.853 93.6461 437.495 93.2451C438.136 92.8441 438.852 92.6436 439.643 92.6436C440.273 92.6436 440.846 92.7754 441.361 93.0389C441.888 93.3024 442.301 93.6575 442.599 94.1043V89.6535H445.537V102.37H442.599V100.995C442.324 101.454 441.928 101.82 441.413 102.095C440.909 102.37 440.319 102.508 439.643 102.508C438.852 102.508 438.136 102.307 437.495 101.906C436.853 101.494 436.343 100.915 435.965 100.17C435.599 99.4144 435.416 98.5437 435.416 97.5584ZM442.599 97.5756C442.599 96.8424 442.392 96.2639 441.98 95.84C441.579 95.4161 441.086 95.2041 440.502 95.2041C439.918 95.2041 439.42 95.4161 439.007 95.84C438.606 96.2524 438.406 96.8252 438.406 97.5584C438.406 98.2916 438.606 98.8759 439.007 99.3113C439.42 99.7351 439.918 99.9471 440.502 99.9471C441.086 99.9471 441.579 99.7351 441.98 99.3113C442.392 98.8874 442.599 98.3088 442.599 97.5756ZM449.313 91.7844C448.797 91.7844 448.373 91.6355 448.041 91.3376C447.72 91.0283 447.56 90.6502 447.56 90.2034C447.56 89.7452 447.72 89.3671 448.041 89.0692C448.373 88.7599 448.797 88.6053 449.313 88.6053C449.817 88.6053 450.229 88.7599 450.55 89.0692C450.882 89.3671 451.049 89.7452 451.049 90.2034C451.049 90.6502 450.882 91.0283 450.55 91.3376C450.229 91.6355 449.817 91.7844 449.313 91.7844ZM450.774 92.7811V102.37H447.835V92.7811H450.774ZM458.419 99.8784V102.37H456.924C455.859 102.37 455.028 102.112 454.433 101.597C453.837 101.07 453.539 100.216 453.539 99.0363V95.2213H452.37V92.7811H453.539V90.444H456.478V92.7811H458.402V95.2213H456.478V99.0707C456.478 99.3571 456.546 99.5633 456.684 99.6893C456.821 99.8153 457.05 99.8784 457.371 99.8784H458.419ZM470.023 92.7811L464.009 106.924H460.847L463.046 102.044L459.145 92.7811H462.428L464.644 98.7785L466.844 92.7811H470.023ZM484.11 97.421C484.11 97.6959 484.093 97.9823 484.059 98.2802H477.408C477.454 98.8759 477.643 99.3342 477.975 99.655C478.319 99.9643 478.737 100.119 479.23 100.119C479.963 100.119 480.473 99.8096 480.759 99.191H483.887C483.727 99.8211 483.434 100.388 483.011 100.892C482.598 101.396 482.077 101.792 481.447 102.078C480.817 102.364 480.112 102.508 479.333 102.508C478.394 102.508 477.557 102.307 476.824 101.906C476.091 101.505 475.518 100.932 475.106 100.188C474.693 99.443 474.487 98.5723 474.487 97.5756C474.487 96.5789 474.687 95.7082 475.088 94.9636C475.501 94.2189 476.074 93.6461 476.807 93.2451C477.54 92.8441 478.382 92.6436 479.333 92.6436C480.261 92.6436 481.086 92.8384 481.808 93.2279C482.529 93.6174 483.091 94.1731 483.492 94.8948C483.904 95.6166 484.11 96.4586 484.11 97.421ZM481.103 96.6476C481.103 96.1436 480.931 95.7426 480.588 95.4447C480.244 95.1469 479.814 94.9979 479.299 94.9979C478.806 94.9979 478.388 95.1411 478.044 95.4275C477.712 95.7139 477.506 96.1207 477.426 96.6476H481.103ZM491.503 102.37L489.665 99.7065L488.118 102.37H484.939L488.101 97.4725L484.853 92.7811H488.152L489.991 95.4275L491.538 92.7811H494.717L491.503 97.61L494.803 102.37H491.503ZM499.046 94.1387C499.332 93.6919 499.727 93.331 500.231 93.0561C500.735 92.7811 501.325 92.6436 502.001 92.6436C502.792 92.6436 503.508 92.8441 504.149 93.2451C504.791 93.6461 505.295 94.2189 505.662 94.9636C506.04 95.7082 506.229 96.5732 506.229 97.5584C506.229 98.5437 506.04 99.4144 505.662 100.17C505.295 100.915 504.791 101.494 504.149 101.906C503.508 102.307 502.792 102.508 502.001 102.508C501.337 102.508 500.747 102.37 500.231 102.095C499.727 101.82 499.332 101.465 499.046 101.03V106.941H496.107V92.7811H499.046V94.1387ZM503.239 97.5584C503.239 96.8252 503.032 96.2524 502.62 95.84C502.219 95.4161 501.721 95.2041 501.125 95.2041C500.541 95.2041 500.042 95.4161 499.63 95.84C499.229 96.2639 499.028 96.8424 499.028 97.5756C499.028 98.3088 499.229 98.8874 499.63 99.3113C500.042 99.7351 500.541 99.9471 501.125 99.9471C501.709 99.9471 502.207 99.7351 502.62 99.3113C503.032 98.8759 503.239 98.2916 503.239 97.5584ZM507.358 97.5584C507.358 96.5732 507.541 95.7082 507.908 94.9636C508.286 94.2189 508.796 93.6461 509.437 93.2451C510.079 92.8441 510.795 92.6436 511.585 92.6436C512.261 92.6436 512.851 92.7811 513.355 93.0561C513.871 93.331 514.266 93.6919 514.541 94.1387V92.7811H517.48V102.37H514.541V101.013C514.255 101.459 513.854 101.82 513.338 102.095C512.834 102.37 512.244 102.508 511.568 102.508C510.789 102.508 510.079 102.307 509.437 101.906C508.796 101.494 508.286 100.915 507.908 100.17C507.541 99.4144 507.358 98.5437 507.358 97.5584ZM514.541 97.5756C514.541 96.8424 514.335 96.2639 513.922 95.84C513.521 95.4161 513.029 95.2041 512.445 95.2041C511.86 95.2041 511.362 95.4161 510.949 95.84C510.548 96.2524 510.348 96.8252 510.348 97.5584C510.348 98.2916 510.548 98.8759 510.949 99.3113C511.362 99.7351 511.86 99.9471 512.445 99.9471C513.029 99.9471 513.521 99.7351 513.922 99.3113C514.335 98.8874 514.541 98.3088 514.541 97.5756ZM525.62 92.678C526.743 92.678 527.636 93.0446 528.301 93.7778C528.977 94.4996 529.315 95.4963 529.315 96.7679V102.37H526.393V97.1632C526.393 96.5216 526.227 96.0233 525.895 95.6681C525.563 95.313 525.116 95.1354 524.555 95.1354C523.993 95.1354 523.547 95.313 523.214 95.6681C522.882 96.0233 522.716 96.5216 522.716 97.1632V102.37H519.777V92.7811H522.716V94.0528C523.014 93.6289 523.415 93.2966 523.919 93.0561C524.423 92.804 524.99 92.678 525.62 92.678ZM535.43 102.508C534.593 102.508 533.849 102.364 533.196 102.078C532.543 101.792 532.027 101.402 531.649 100.909C531.271 100.405 531.059 99.844 531.013 99.2253H533.917C533.952 99.5576 534.106 99.8268 534.381 100.033C534.656 100.239 534.994 100.342 535.395 100.342C535.762 100.342 536.043 100.274 536.237 100.136C536.443 99.9872 536.547 99.7982 536.547 99.569C536.547 99.2941 536.403 99.0936 536.117 98.9676C535.831 98.8301 535.367 98.6812 534.725 98.5208C534.038 98.3604 533.465 98.1943 533.007 98.0224C532.548 97.8391 532.153 97.5584 531.821 97.1804C531.489 96.7909 531.322 96.2696 531.322 95.6166C531.322 95.0667 531.471 94.5683 531.769 94.1215C532.079 93.6633 532.525 93.3024 533.11 93.0389C533.705 92.7754 534.41 92.6436 535.223 92.6436C536.426 92.6436 537.371 92.9415 538.059 93.5372C538.758 94.133 539.159 94.9235 539.262 95.9087H536.547C536.501 95.5765 536.352 95.313 536.1 95.1182C535.859 94.9235 535.538 94.8261 535.137 94.8261C534.794 94.8261 534.53 94.8948 534.347 95.0323C534.164 95.1583 534.072 95.3359 534.072 95.565C534.072 95.84 534.215 96.0462 534.502 96.1837C534.799 96.3211 535.258 96.4586 535.876 96.5961C536.587 96.7794 537.165 96.9627 537.612 97.146C538.059 97.3178 538.448 97.6043 538.781 98.0052C539.124 98.3947 539.302 98.9217 539.313 99.5862C539.313 100.148 539.153 100.652 538.832 101.098C538.523 101.534 538.07 101.877 537.475 102.13C536.89 102.382 536.209 102.508 535.43 102.508ZM542.761 91.7844C542.245 91.7844 541.821 91.6355 541.489 91.3376C541.168 91.0283 541.008 90.6502 541.008 90.2034C541.008 89.7452 541.168 89.3671 541.489 89.0692C541.821 88.7599 542.245 88.6053 542.761 88.6053C543.265 88.6053 543.677 88.7599 543.998 89.0692C544.33 89.3671 544.496 89.7452 544.496 90.2034C544.496 90.6502 544.33 91.0283 543.998 91.3376C543.677 91.6355 543.265 91.7844 542.761 91.7844ZM544.222 92.7811V102.37H541.283V92.7811H544.222ZM550.888 102.508C549.948 102.508 549.101 102.307 548.344 101.906C547.6 101.505 547.01 100.932 546.574 100.188C546.151 99.443 545.939 98.5723 545.939 97.5756C545.939 96.5904 546.156 95.7254 546.592 94.9807C547.027 94.2246 547.623 93.6461 548.379 93.2451C549.135 92.8441 549.983 92.6436 550.922 92.6436C551.862 92.6436 552.709 92.8441 553.465 93.2451C554.222 93.6461 554.817 94.2246 555.253 94.9807C555.688 95.7254 555.906 96.5904 555.906 97.5756C555.906 98.5609 555.682 99.4316 555.236 100.188C554.8 100.932 554.199 101.505 553.431 101.906C552.675 102.307 551.827 102.508 550.888 102.508ZM550.888 99.9643C551.449 99.9643 551.925 99.7581 552.314 99.3456C552.715 98.9332 552.916 98.3432 552.916 97.5756C552.916 96.808 552.721 96.218 552.331 95.8056C551.953 95.3932 551.484 95.187 550.922 95.187C550.349 95.187 549.874 95.3932 549.496 95.8056C549.118 96.2066 548.929 96.7966 548.929 97.5756C548.929 98.3432 549.112 98.9332 549.479 99.3456C549.857 99.7581 550.326 99.9643 550.888 99.9643ZM563.479 92.678C564.602 92.678 565.496 93.0446 566.16 93.7778C566.836 94.4996 567.174 95.4963 567.174 96.7679V102.37H564.253V97.1632C564.253 96.5216 564.086 96.0233 563.754 95.6681C563.422 95.313 562.975 95.1354 562.414 95.1354C561.852 95.1354 561.406 95.313 561.073 95.6681C560.741 96.0233 560.575 96.5216 560.575 97.1632V102.37H557.637V92.7811H560.575V94.0528C560.873 93.6289 561.274 93.2966 561.778 93.0561C562.282 92.804 562.849 92.678 563.479 92.678ZM572.617 97.5584C572.617 96.5732 572.8 95.7082 573.167 94.9636C573.545 94.2189 574.055 93.6461 574.696 93.2451C575.338 92.8441 576.054 92.6436 576.844 92.6436C577.52 92.6436 578.11 92.7811 578.614 93.0561C579.13 93.331 579.525 93.6919 579.8 94.1387V92.7811H582.739V102.37H579.8V101.013C579.514 101.459 579.113 101.82 578.597 102.095C578.093 102.37 577.503 102.508 576.827 102.508C576.048 102.508 575.338 102.307 574.696 101.906C574.055 101.494 573.545 100.915 573.167 100.17C572.8 99.4144 572.617 98.5437 572.617 97.5584ZM579.8 97.5756C579.8 96.8424 579.594 96.2639 579.182 95.84C578.781 95.4161 578.288 95.2041 577.704 95.2041C577.119 95.2041 576.621 95.4161 576.209 95.84C575.808 96.2524 575.607 96.8252 575.607 97.5584C575.607 98.2916 575.808 98.8759 576.209 99.3113C576.621 99.7351 577.119 99.9471 577.704 99.9471C578.288 99.9471 578.781 99.7351 579.182 99.3113C579.594 98.8874 579.8 98.3088 579.8 97.5756ZM590.879 92.678C592.002 92.678 592.896 93.0446 593.56 93.7778C594.236 94.4996 594.574 95.4963 594.574 96.7679V102.37H591.653V97.1632C591.653 96.5216 591.487 96.0233 591.154 95.6681C590.822 95.313 590.375 95.1354 589.814 95.1354C589.253 95.1354 588.806 95.313 588.473 95.6681C588.141 96.0233 587.975 96.5216 587.975 97.1632V102.37H585.037V92.7811H587.975V94.0528C588.273 93.6289 588.674 93.2966 589.178 93.0561C589.682 92.804 590.249 92.678 590.879 92.678ZM596.204 97.5584C596.204 96.5732 596.387 95.7082 596.754 94.9636C597.132 94.2189 597.641 93.6461 598.283 93.2451C598.924 92.8441 599.641 92.6436 600.431 92.6436C601.061 92.6436 601.634 92.7754 602.149 93.0389C602.676 93.3024 603.089 93.6575 603.387 94.1043V89.6535H606.325V102.37H603.387V100.995C603.112 101.454 602.717 101.82 602.201 102.095C601.697 102.37 601.107 102.508 600.431 102.508C599.641 102.508 598.924 102.307 598.283 101.906C597.641 101.494 597.132 100.915 596.754 100.17C596.387 99.4144 596.204 98.5437 596.204 97.5584ZM603.387 97.5756C603.387 96.8424 603.181 96.2639 602.768 95.84C602.367 95.4161 601.875 95.2041 601.29 95.2041C600.706 95.2041 600.208 95.4161 599.795 95.84C599.394 96.2524 599.194 96.8252 599.194 97.5584C599.194 98.2916 599.394 98.8759 599.795 99.3113C600.208 99.7351 600.706 99.9471 601.29 99.9471C601.875 99.9471 602.367 99.7351 602.768 99.3113C603.181 98.8874 603.387 98.3088 603.387 97.5756ZM398.171 113.784C397.656 113.784 397.232 113.635 396.9 113.338C396.579 113.028 396.418 112.65 396.418 112.203C396.418 111.745 396.579 111.367 396.9 111.069C397.232 110.76 397.656 110.605 398.171 110.605C398.675 110.605 399.088 110.76 399.409 111.069C399.741 111.367 399.907 111.745 399.907 112.203C399.907 112.65 399.741 113.028 399.409 113.338C399.088 113.635 398.675 113.784 398.171 113.784ZM399.632 114.781V124.37H396.693V114.781H399.632ZM407.776 114.678C408.899 114.678 409.792 115.045 410.457 115.778C411.133 116.5 411.471 117.496 411.471 118.768V124.37H408.549V119.163C408.549 118.522 408.383 118.023 408.051 117.668C407.719 117.313 407.272 117.135 406.711 117.135C406.149 117.135 405.702 117.313 405.37 117.668C405.038 118.023 404.872 118.522 404.872 119.163V124.37H401.933V114.781H404.872V116.053C405.17 115.629 405.571 115.297 406.075 115.056C406.579 114.804 407.146 114.678 407.776 114.678ZM419.029 121.878V124.37H417.534C416.469 124.37 415.638 124.112 415.042 123.597C414.446 123.07 414.149 122.216 414.149 121.036V117.221H412.98V114.781H414.149V112.444H417.087V114.781H419.012V117.221H417.087V121.071C417.087 121.357 417.156 121.563 417.293 121.689C417.431 121.815 417.66 121.878 417.981 121.878H419.029ZM429.877 119.421C429.877 119.696 429.86 119.982 429.825 120.28H423.175C423.221 120.876 423.41 121.334 423.742 121.655C424.086 121.964 424.504 122.119 424.996 122.119C425.73 122.119 426.239 121.81 426.526 121.191H429.653C429.493 121.821 429.201 122.388 428.777 122.892C428.365 123.396 427.843 123.792 427.213 124.078C426.583 124.364 425.879 124.508 425.1 124.508C424.16 124.508 423.324 124.307 422.591 123.906C421.857 123.505 421.285 122.932 420.872 122.188C420.46 121.443 420.253 120.572 420.253 119.576C420.253 118.579 420.454 117.708 420.855 116.964C421.267 116.219 421.84 115.646 422.573 115.245C423.307 114.844 424.149 114.644 425.1 114.644C426.027 114.644 426.852 114.838 427.574 115.228C428.296 115.617 428.857 116.173 429.258 116.895C429.671 117.617 429.877 118.459 429.877 119.421ZM426.87 118.648C426.87 118.144 426.698 117.743 426.354 117.445C426.01 117.147 425.581 116.998 425.065 116.998C424.573 116.998 424.154 117.141 423.811 117.428C423.478 117.714 423.272 118.121 423.192 118.648H426.87ZM434.537 116.379C434.881 115.852 435.311 115.44 435.826 115.142C436.342 114.833 436.915 114.678 437.545 114.678V117.788H436.737C436.004 117.788 435.454 117.949 435.087 118.27C434.721 118.579 434.537 119.129 434.537 119.919V124.37H431.599V114.781H434.537V116.379ZM448.16 119.421C448.16 119.696 448.143 119.982 448.109 120.28H441.458C441.504 120.876 441.693 121.334 442.025 121.655C442.369 121.964 442.787 122.119 443.28 122.119C444.013 122.119 444.523 121.81 444.809 121.191H447.937C447.777 121.821 447.484 122.388 447.06 122.892C446.648 123.396 446.127 123.792 445.497 124.078C444.867 124.364 444.162 124.508 443.383 124.508C442.444 124.508 441.607 124.307 440.874 123.906C440.141 123.505 439.568 122.932 439.156 122.188C438.743 121.443 438.537 120.572 438.537 119.576C438.537 118.579 438.737 117.708 439.138 116.964C439.551 116.219 440.124 115.646 440.857 115.245C441.59 114.844 442.432 114.644 443.383 114.644C444.311 114.644 445.136 114.838 445.858 115.228C446.579 115.617 447.141 116.173 447.542 116.895C447.954 117.617 448.16 118.459 448.16 119.421ZM445.153 118.648C445.153 118.144 444.981 117.743 444.637 117.445C444.294 117.147 443.864 116.998 443.349 116.998C442.856 116.998 442.438 117.141 442.094 117.428C441.762 117.714 441.556 118.121 441.475 118.648H445.153ZM453.783 124.508C452.947 124.508 452.202 124.364 451.549 124.078C450.896 123.792 450.381 123.402 450.003 122.909C449.625 122.405 449.413 121.844 449.367 121.225H452.271C452.305 121.558 452.46 121.827 452.735 122.033C453.01 122.239 453.348 122.342 453.749 122.342C454.116 122.342 454.396 122.274 454.591 122.136C454.797 121.987 454.9 121.798 454.9 121.569C454.9 121.294 454.757 121.094 454.471 120.968C454.184 120.83 453.72 120.681 453.079 120.521C452.391 120.36 451.819 120.194 451.36 120.022C450.902 119.839 450.507 119.558 450.175 119.18C449.842 118.791 449.676 118.27 449.676 117.617C449.676 117.067 449.825 116.568 450.123 116.122C450.432 115.663 450.879 115.302 451.463 115.039C452.059 114.775 452.764 114.644 453.577 114.644C454.78 114.644 455.725 114.942 456.413 115.537C457.111 116.133 457.512 116.923 457.615 117.909H454.9C454.854 117.576 454.706 117.313 454.453 117.118C454.213 116.923 453.892 116.826 453.491 116.826C453.147 116.826 452.884 116.895 452.701 117.032C452.517 117.158 452.426 117.336 452.426 117.565C452.426 117.84 452.569 118.046 452.855 118.184C453.153 118.321 453.611 118.459 454.23 118.596C454.94 118.779 455.519 118.963 455.966 119.146C456.413 119.318 456.802 119.604 457.134 120.005C457.478 120.395 457.656 120.922 457.667 121.586C457.667 122.148 457.507 122.652 457.186 123.098C456.877 123.534 456.424 123.877 455.828 124.13C455.244 124.382 454.562 124.508 453.783 124.508ZM464.981 121.878V124.37H463.486C462.421 124.37 461.59 124.112 460.994 123.597C460.399 123.07 460.101 122.216 460.101 121.036V117.221H458.932V114.781H460.101V112.444H463.039V114.781H464.964V117.221H463.039V121.071C463.039 121.357 463.108 121.563 463.245 121.689C463.383 121.815 463.612 121.878 463.933 121.878H464.981ZM472.081 113.784C471.566 113.784 471.142 113.635 470.809 113.338C470.489 113.028 470.328 112.65 470.328 112.203C470.328 111.745 470.489 111.367 470.809 111.069C471.142 110.76 471.566 110.605 472.081 110.605C472.585 110.605 472.998 110.76 473.318 111.069C473.651 111.367 473.817 111.745 473.817 112.203C473.817 112.65 473.651 113.028 473.318 113.338C472.998 113.635 472.585 113.784 472.081 113.784ZM473.542 114.781V124.37H470.603V114.781H473.542ZM481.686 114.678C482.809 114.678 483.702 115.045 484.367 115.778C485.043 116.5 485.381 117.496 485.381 118.768V124.37H482.459V119.163C482.459 118.522 482.293 118.023 481.961 117.668C481.629 117.313 481.182 117.135 480.621 117.135C480.059 117.135 479.612 117.313 479.28 117.668C478.948 118.023 478.782 118.522 478.782 119.163V124.37H475.843V114.781H478.782V116.053C479.08 115.629 479.481 115.297 479.985 115.056C480.489 114.804 481.056 114.678 481.686 114.678ZM487.01 119.576C487.01 118.579 487.211 117.708 487.612 116.964C488.024 116.219 488.591 115.646 489.313 115.245C490.046 114.844 490.883 114.644 491.822 114.644C493.025 114.644 494.027 114.959 494.829 115.589C495.643 116.219 496.175 117.107 496.427 118.252H493.3C493.036 117.519 492.527 117.153 491.77 117.153C491.232 117.153 490.802 117.365 490.482 117.788C490.161 118.201 490 118.797 490 119.576C490 120.355 490.161 120.956 490.482 121.38C490.802 121.792 491.232 121.999 491.77 121.999C492.527 121.999 493.036 121.632 493.3 120.899H496.427C496.175 122.022 495.643 122.904 494.829 123.545C494.016 124.187 493.013 124.508 491.822 124.508C490.883 124.508 490.046 124.307 489.313 123.906C488.591 123.505 488.024 122.932 487.612 122.188C487.211 121.443 487.01 120.572 487.01 119.576ZM502.536 124.508C501.597 124.508 500.749 124.307 499.993 123.906C499.248 123.505 498.658 122.932 498.223 122.188C497.799 121.443 497.587 120.572 497.587 119.576C497.587 118.59 497.804 117.725 498.24 116.981C498.675 116.225 499.271 115.646 500.027 115.245C500.783 114.844 501.631 114.644 502.57 114.644C503.51 114.644 504.358 114.844 505.114 115.245C505.87 115.646 506.466 116.225 506.901 116.981C507.336 117.725 507.554 118.59 507.554 119.576C507.554 120.561 507.33 121.432 506.884 122.188C506.448 122.932 505.847 123.505 505.079 123.906C504.323 124.307 503.475 124.508 502.536 124.508ZM502.536 121.964C503.097 121.964 503.573 121.758 503.962 121.346C504.363 120.933 504.564 120.343 504.564 119.576C504.564 118.808 504.369 118.218 503.979 117.806C503.601 117.393 503.132 117.187 502.57 117.187C501.998 117.187 501.522 117.393 501.144 117.806C500.766 118.207 500.577 118.797 500.577 119.576C500.577 120.343 500.76 120.933 501.127 121.346C501.505 121.758 501.975 121.964 502.536 121.964ZM521.52 114.678C522.712 114.678 523.657 115.039 524.356 115.761C525.066 116.482 525.421 117.485 525.421 118.768V124.37H522.5V119.163C522.5 118.545 522.334 118.069 522.001 117.737C521.681 117.393 521.234 117.221 520.661 117.221C520.088 117.221 519.636 117.393 519.303 117.737C518.983 118.069 518.822 118.545 518.822 119.163V124.37H515.901V119.163C515.901 118.545 515.735 118.069 515.402 117.737C515.082 117.393 514.635 117.221 514.062 117.221C513.489 117.221 513.037 117.393 512.704 117.737C512.384 118.069 512.223 118.545 512.223 119.163V124.37H509.285V114.781H512.223V115.984C512.521 115.583 512.911 115.268 513.392 115.039C513.873 114.798 514.417 114.678 515.024 114.678C515.746 114.678 516.388 114.833 516.949 115.142C517.522 115.451 517.969 115.892 518.289 116.465C518.622 115.938 519.074 115.509 519.647 115.176C520.22 114.844 520.844 114.678 521.52 114.678ZM536.687 119.421C536.687 119.696 536.67 119.982 536.636 120.28H529.985C530.031 120.876 530.22 121.334 530.552 121.655C530.896 121.964 531.314 122.119 531.807 122.119C532.54 122.119 533.05 121.81 533.336 121.191H536.464C536.303 121.821 536.011 122.388 535.587 122.892C535.175 123.396 534.654 123.792 534.024 124.078C533.393 124.364 532.689 124.508 531.91 124.508C530.97 124.508 530.134 124.307 529.401 123.906C528.668 123.505 528.095 122.932 527.682 122.188C527.27 121.443 527.064 120.572 527.064 119.576C527.064 118.579 527.264 117.708 527.665 116.964C528.078 116.219 528.65 115.646 529.384 115.245C530.117 114.844 530.959 114.644 531.91 114.644C532.838 114.644 533.663 114.838 534.384 115.228C535.106 115.617 535.668 116.173 536.069 116.895C536.481 117.617 536.687 118.459 536.687 119.421ZM533.68 118.648C533.68 118.144 533.508 117.743 533.164 117.445C532.821 117.147 532.391 116.998 531.875 116.998C531.383 116.998 530.965 117.141 530.621 117.428C530.289 117.714 530.083 118.121 530.002 118.648H533.68Z" fill="white"/>
<defs>
<filter id="filter0_ddd" x="347.258" y="457.086" width="150.052" height="155.968" filterUnits="userSpaceOnUse" color-interpolation-filters="sRGB">
<feFlood flood-opacity="0" result="BackgroundImageFix"/>
<feColorMatrix in="SourceAlpha" type="matrix" values="0 0 0 0 0 0 0 0 0 0 0 0 0 0 0 0 0 0 127 0"/>
<feMorphology radius="7.6376" operator="dilate" in="SourceAlpha" result="effect1_dropShadow"/>
<feOffset dy="21.9581"/>
<feGaussianBlur stdDeviation="14.3205"/>
<feColorMatrix type="matrix" values="0 0 0 0 0 0 0 0 0 0.0876457 0 0 0 0 0.391667 0 0 0 0.05 0"/>
<feBlend mode="normal" in2="BackgroundImageFix" result="effect1_dropShadow"/>
<feColorMatrix in="SourceAlpha" type="matrix" values="0 0 0 0 0 0 0 0 0 0 0 0 0 0 0 0 0 0 127 0"/>
<feOffset dy="44.8709"/>
<feGaussianBlur stdDeviation="2.8641"/>
<feColorMatrix type="matrix" values="0 0 0 0 0.121569 0 0 0 0 0.247059 0 0 0 0 0.682353 0 0 0 0.02 0"/>
<feBlend mode="normal" in2="effect1_dropShadow" result="effect2_dropShadow"/>
<feColorMatrix in="SourceAlpha" type="matrix" values="0 0 0 0 0 0 0 0 0 0 0 0 0 0 0 0 0 0 127 0"/>
<feOffset dy="54.4179"/>
<feGaussianBlur stdDeviation="9.547"/>
<feColorMatrix type="matrix" values="0 0 0 0 0.121569 0 0 0 0 0.247059 0 0 0 0 0.682353 0 0 0 0.02 0"/>
<feBlend mode="normal" in2="effect2_dropShadow" result="effect3_dropShadow"/>
<feBlend mode="normal" in="SourceGraphic" in2="effect3_dropShadow" result="shape"/>
</filter>
<filter id="filter1_ddd" x="183.388" y="0.615537" width="223.924" height="244.319" filterUnits="userSpaceOnUse" color-interpolation-filters="sRGB">
<feFlood flood-opacity="0" result="BackgroundImageFix"/>
<feColorMatrix in="SourceAlpha" type="matrix" values="0 0 0 0 0 0 0 0 0 0 0 0 0 0 0 0 0 0 127 0"/>
<feMorphology radius="7.6376" operator="dilate" in="SourceAlpha" result="effect1_dropShadow"/>
<feOffset dy="21.9581"/>
<feGaussianBlur stdDeviation="14.3205"/>
<feColorMatrix type="matrix" values="0 0 0 0 0 0 0 0 0 0.0876457 0 0 0 0 0.391667 0 0 0 0.05 0"/>
<feBlend mode="normal" in2="BackgroundImageFix" result="effect1_dropShadow"/>
<feColorMatrix in="SourceAlpha" type="matrix" values="0 0 0 0 0 0 0 0 0 0 0 0 0 0 0 0 0 0 127 0"/>
<feOffset dy="44.8709"/>
<feGaussianBlur stdDeviation="2.8641"/>
<feColorMatrix type="matrix" values="0 0 0 0 0.121569 0 0 0 0 0.247059 0 0 0 0 0.682353 0 0 0 0.02 0"/>
<feBlend mode="normal" in2="effect1_dropShadow" result="effect2_dropShadow"/>
<feColorMatrix in="SourceAlpha" type="matrix" values="0 0 0 0 0 0 0 0 0 0 0 0 0 0 0 0 0 0 127 0"/>
<feOffset dy="54.4179"/>
<feGaussianBlur stdDeviation="9.547"/>
<feColorMatrix type="matrix" values="0 0 0 0 0.121569 0 0 0 0 0.247059 0 0 0 0 0.682353 0 0 0 0.02 0"/>
<feBlend mode="normal" in2="effect2_dropShadow" result="effect3_dropShadow"/>
<feBlend mode="normal" in="SourceGraphic" in2="effect3_dropShadow" result="shape"/>
</filter>
<filter id="filter2_ddd" x="183.388" y="220.753" width="223.924" height="244.319" filterUnits="userSpaceOnUse" color-interpolation-filters="sRGB">
<feFlood flood-opacity="0" result="BackgroundImageFix"/>
<feColorMatrix in="SourceAlpha" type="matrix" values="0 0 0 0 0 0 0 0 0 0 0 0 0 0 0 0 0 0 127 0"/>
<feMorphology radius="7.6376" operator="dilate" in="SourceAlpha" result="effect1_dropShadow"/>
<feOffset dy="21.9581"/>
<feGaussianBlur stdDeviation="14.3205"/>
<feColorMatrix type="matrix" values="0 0 0 0 0 0 0 0 0 0.0876457 0 0 0 0 0.391667 0 0 0 0.05 0"/>
<feBlend mode="normal" in2="BackgroundImageFix" result="effect1_dropShadow"/>
<feColorMatrix in="SourceAlpha" type="matrix" values="0 0 0 0 0 0 0 0 0 0 0 0 0 0 0 0 0 0 127 0"/>
<feOffset dy="44.8709"/>
<feGaussianBlur stdDeviation="2.8641"/>
<feColorMatrix type="matrix" values="0 0 0 0 0.121569 0 0 0 0 0.247059 0 0 0 0 0.682353 0 0 0 0.02 0"/>
<feBlend mode="normal" in2="effect1_dropShadow" result="effect2_dropShadow"/>
<feColorMatrix in="SourceAlpha" type="matrix" values="0 0 0 0 0 0 0 0 0 0 0 0 0 0 0 0 0 0 127 0"/>
<feOffset dy="54.4179"/>
<feGaussianBlur stdDeviation="9.547"/>
<feColorMatrix type="matrix" values="0 0 0 0 0.121569 0 0 0 0 0.247059 0 0 0 0 0.682353 0 0 0 0.02 0"/>
<feBlend mode="normal" in2="effect2_dropShadow" result="effect3_dropShadow"/>
<feBlend mode="normal" in="SourceGraphic" in2="effect3_dropShadow" result="shape"/>
</filter>
<filter id="filter3_ddd" x="0.383513" y="391.903" width="192.528" height="193.521" filterUnits="userSpaceOnUse" color-interpolation-filters="sRGB">
<feFlood flood-opacity="0" result="BackgroundImageFix"/>
<feColorMatrix in="SourceAlpha" type="matrix" values="0 0 0 0 0 0 0 0 0 0 0 0 0 0 0 0 0 0 127 0"/>
<feMorphology radius="7.6376" operator="dilate" in="SourceAlpha" result="effect1_dropShadow"/>
<feOffset dy="21.9581"/>
<feGaussianBlur stdDeviation="14.3205"/>
<feColorMatrix type="matrix" values="0 0 0 0 0 0 0 0 0 0.0876457 0 0 0 0 0.391667 0 0 0 0.05 0"/>
<feBlend mode="normal" in2="BackgroundImageFix" result="effect1_dropShadow"/>
<feColorMatrix in="SourceAlpha" type="matrix" values="0 0 0 0 0 0 0 0 0 0 0 0 0 0 0 0 0 0 127 0"/>
<feOffset dy="44.8709"/>
<feGaussianBlur stdDeviation="2.8641"/>
<feColorMatrix type="matrix" values="0 0 0 0 0.121569 0 0 0 0 0.247059 0 0 0 0 0.682353 0 0 0 0.02 0"/>
<feBlend mode="normal" in2="effect1_dropShadow" result="effect2_dropShadow"/>
<feColorMatrix in="SourceAlpha" type="matrix" values="0 0 0 0 0 0 0 0 0 0 0 0 0 0 0 0 0 0 127 0"/>
<feOffset dy="54.4179"/>
<feGaussianBlur stdDeviation="9.547"/>
<feColorMatrix type="matrix" values="0 0 0 0 0.121569 0 0 0 0 0.247059 0 0 0 0 0.682353 0 0 0 0.02 0"/>
<feBlend mode="normal" in2="effect2_dropShadow" result="effect3_dropShadow"/>
<feBlend mode="normal" in="SourceGraphic" in2="effect3_dropShadow" result="shape"/>
</filter>
<filter id="filter4_ddd" x="199.088" y="459.389" width="192.528" height="193.521" filterUnits="userSpaceOnUse" color-interpolation-filters="sRGB">
<feFlood flood-opacity="0" result="BackgroundImageFix"/>
<feColorMatrix in="SourceAlpha" type="matrix" values="0 0 0 0 0 0 0 0 0 0 0 0 0 0 0 0 0 0 127 0"/>
<feMorphology radius="7.6376" operator="dilate" in="SourceAlpha" result="effect1_dropShadow"/>
<feOffset dy="21.9581"/>
<feGaussianBlur stdDeviation="14.3205"/>
<feColorMatrix type="matrix" values="0 0 0 0 0 0 0 0 0 0.0876457 0 0 0 0 0.391667 0 0 0 0.05 0"/>
<feBlend mode="normal" in2="BackgroundImageFix" result="effect1_dropShadow"/>
<feColorMatrix in="SourceAlpha" type="matrix" values="0 0 0 0 0 0 0 0 0 0 0 0 0 0 0 0 0 0 127 0"/>
<feOffset dy="44.8709"/>
<feGaussianBlur stdDeviation="2.8641"/>
<feColorMatrix type="matrix" values="0 0 0 0 0.121569 0 0 0 0 0.247059 0 0 0 0 0.682353 0 0 0 0.02 0"/>
<feBlend mode="normal" in2="effect1_dropShadow" result="effect2_dropShadow"/>
<feColorMatrix in="SourceAlpha" type="matrix" values="0 0 0 0 0 0 0 0 0 0 0 0 0 0 0 0 0 0 127 0"/>
<feOffset dy="54.4179"/>
<feGaussianBlur stdDeviation="9.547"/>
<feColorMatrix type="matrix" values="0 0 0 0 0.121569 0 0 0 0 0.247059 0 0 0 0 0.682353 0 0 0 0.02 0"/>
<feBlend mode="normal" in2="effect2_dropShadow" result="effect3_dropShadow"/>
<feBlend mode="normal" in="SourceGraphic" in2="effect3_dropShadow" result="shape"/>
</filter>
<filter id="filter5_ddd" x="0.385467" y="142.321" width="192.528" height="193.521" filterUnits="userSpaceOnUse" color-interpolation-filters="sRGB">
<feFlood flood-opacity="0" result="BackgroundImageFix"/>
<feColorMatrix in="SourceAlpha" type="matrix" values="0 0 0 0 0 0 0 0 0 0 0 0 0 0 0 0 0 0 127 0"/>
<feMorphology radius="7.6376" operator="dilate" in="SourceAlpha" result="effect1_dropShadow"/>
<feOffset dy="21.9581"/>
<feGaussianBlur stdDeviation="14.3205"/>
<feColorMatrix type="matrix" values="0 0 0 0 0 0 0 0 0 0.0876457 0 0 0 0 0.391667 0 0 0 0.05 0"/>
<feBlend mode="normal" in2="BackgroundImageFix" result="effect1_dropShadow"/>
<feColorMatrix in="SourceAlpha" type="matrix" values="0 0 0 0 0 0 0 0 0 0 0 0 0 0 0 0 0 0 127 0"/>
<feOffset dy="44.8709"/>
<feGaussianBlur stdDeviation="2.8641"/>
<feColorMatrix type="matrix" values="0 0 0 0 0.121569 0 0 0 0 0.247059 0 0 0 0 0.682353 0 0 0 0.02 0"/>
<feBlend mode="normal" in2="effect1_dropShadow" result="effect2_dropShadow"/>
<feColorMatrix in="SourceAlpha" type="matrix" values="0 0 0 0 0 0 0 0 0 0 0 0 0 0 0 0 0 0 127 0"/>
<feOffset dy="54.4179"/>
<feGaussianBlur stdDeviation="9.547"/>
<feColorMatrix type="matrix" values="0 0 0 0 0.121569 0 0 0 0 0.247059 0 0 0 0 0.682353 0 0 0 0.02 0"/>
<feBlend mode="normal" in2="effect2_dropShadow" result="effect3_dropShadow"/>
<feBlend mode="normal" in="SourceGraphic" in2="effect3_dropShadow" result="shape"/>
</filter>
<filter id="filter6_ddd" x="287.977" y="68.3358" width="170.311" height="189.012" filterUnits="userSpaceOnUse" color-interpolation-filters="sRGB">
<feFlood flood-opacity="0" result="BackgroundImageFix"/>
<feColorMatrix in="SourceAlpha" type="matrix" values="0 0 0 0 0 0 0 0 0 0 0 0 0 0 0 0 0 0 127 0"/>
<feMorphology radius="7.6376" operator="dilate" in="SourceAlpha" result="effect1_dropShadow"/>
<feOffset dy="21.9581"/>
<feGaussianBlur stdDeviation="14.3205"/>
<feColorMatrix type="matrix" values="0 0 0 0 0 0 0 0 0 0.0876457 0 0 0 0 0.391667 0 0 0 0.05 0"/>
<feBlend mode="normal" in2="BackgroundImageFix" result="effect1_dropShadow"/>
<feColorMatrix in="SourceAlpha" type="matrix" values="0 0 0 0 0 0 0 0 0 0 0 0 0 0 0 0 0 0 127 0"/>
<feOffset dy="44.8709"/>
<feGaussianBlur stdDeviation="2.8641"/>
<feColorMatrix type="matrix" values="0 0 0 0 0.121569 0 0 0 0 0.247059 0 0 0 0 0.682353 0 0 0 0.02 0"/>
<feBlend mode="normal" in2="effect1_dropShadow" result="effect2_dropShadow"/>
<feColorMatrix in="SourceAlpha" type="matrix" values="0 0 0 0 0 0 0 0 0 0 0 0 0 0 0 0 0 0 127 0"/>
<feOffset dy="54.4179"/>
<feGaussianBlur stdDeviation="9.547"/>
<feColorMatrix type="matrix" values="0 0 0 0 0.121569 0 0 0 0 0.247059 0 0 0 0 0.682353 0 0 0 0.02 0"/>
<feBlend mode="normal" in2="effect2_dropShadow" result="effect3_dropShadow"/>
<feBlend mode="normal" in="SourceGraphic" in2="effect3_dropShadow" result="shape"/>
</filter>
<filter id="filter7_ddd" x="21.6237" y="324.132" width="150.052" height="155.968" filterUnits="userSpaceOnUse" color-interpolation-filters="sRGB">
<feFlood flood-opacity="0" result="BackgroundImageFix"/>
<feColorMatrix in="SourceAlpha" type="matrix" values="0 0 0 0 0 0 0 0 0 0 0 0 0 0 0 0 0 0 127 0"/>
<feMorphology radius="7.6376" operator="dilate" in="SourceAlpha" result="effect1_dropShadow"/>
<feOffset dy="21.9581"/>
<feGaussianBlur stdDeviation="14.3205"/>
<feColorMatrix type="matrix" values="0 0 0 0 0 0 0 0 0 0.0876457 0 0 0 0 0.391667 0 0 0 0.05 0"/>
<feBlend mode="normal" in2="BackgroundImageFix" result="effect1_dropShadow"/>
<feColorMatrix in="SourceAlpha" type="matrix" values="0 0 0 0 0 0 0 0 0 0 0 0 0 0 0 0 0 0 127 0"/>
<feOffset dy="44.8709"/>
<feGaussianBlur stdDeviation="2.8641"/>
<feColorMatrix type="matrix" values="0 0 0 0 0.121569 0 0 0 0 0.247059 0 0 0 0 0.682353 0 0 0 0.02 0"/>
<feBlend mode="normal" in2="effect1_dropShadow" result="effect2_dropShadow"/>
<feColorMatrix in="SourceAlpha" type="matrix" values="0 0 0 0 0 0 0 0 0 0 0 0 0 0 0 0 0 0 127 0"/>
<feOffset dy="54.4179"/>
<feGaussianBlur stdDeviation="9.547"/>
<feColorMatrix type="matrix" values="0 0 0 0 0.121569 0 0 0 0 0.247059 0 0 0 0 0.682353 0 0 0 0.02 0"/>
<feBlend mode="normal" in2="effect2_dropShadow" result="effect3_dropShadow"/>
<feBlend mode="normal" in="SourceGraphic" in2="effect3_dropShadow" result="shape"/>
</filter>
<filter id="filter8_ddd" x="133.164" y="420.272" width="170.311" height="189.012" filterUnits="userSpaceOnUse" color-interpolation-filters="sRGB">
<feFlood flood-opacity="0" result="BackgroundImageFix"/>
<feColorMatrix in="SourceAlpha" type="matrix" values="0 0 0 0 0 0 0 0 0 0 0 0 0 0 0 0 0 0 127 0"/>
<feMorphology radius="7.6376" operator="dilate" in="SourceAlpha" result="effect1_dropShadow"/>
<feOffset dy="21.9581"/>
<feGaussianBlur stdDeviation="14.3205"/>
<feColorMatrix type="matrix" values="0 0 0 0 0 0 0 0 0 0.0876457 0 0 0 0 0.391667 0 0 0 0.05 0"/>
<feBlend mode="normal" in2="BackgroundImageFix" result="effect1_dropShadow"/>
<feColorMatrix in="SourceAlpha" type="matrix" values="0 0 0 0 0 0 0 0 0 0 0 0 0 0 0 0 0 0 127 0"/>
<feOffset dy="44.8709"/>
<feGaussianBlur stdDeviation="2.8641"/>
<feColorMatrix type="matrix" values="0 0 0 0 0.121569 0 0 0 0 0.247059 0 0 0 0 0.682353 0 0 0 0.02 0"/>
<feBlend mode="normal" in2="effect1_dropShadow" result="effect2_dropShadow"/>
<feColorMatrix in="SourceAlpha" type="matrix" values="0 0 0 0 0 0 0 0 0 0 0 0 0 0 0 0 0 0 127 0"/>
<feOffset dy="54.4179"/>
<feGaussianBlur stdDeviation="9.547"/>
<feColorMatrix type="matrix" values="0 0 0 0 0.121569 0 0 0 0 0.247059 0 0 0 0 0.682353 0 0 0 0.02 0"/>
<feBlend mode="normal" in2="effect2_dropShadow" result="effect3_dropShadow"/>
<feBlend mode="normal" in="SourceGraphic" in2="effect3_dropShadow" result="shape"/>
</filter>
<filter id="filter9_ddd" x="419.026" y="248.408" width="150.052" height="155.968" filterUnits="userSpaceOnUse" color-interpolation-filters="sRGB">
<feFlood flood-opacity="0" result="BackgroundImageFix"/>
<feColorMatrix in="SourceAlpha" type="matrix" values="0 0 0 0 0 0 0 0 0 0 0 0 0 0 0 0 0 0 127 0"/>
<feMorphology radius="7.6376" operator="dilate" in="SourceAlpha" result="effect1_dropShadow"/>
<feOffset dy="21.9581"/>
<feGaussianBlur stdDeviation="14.3205"/>
<feColorMatrix type="matrix" values="0 0 0 0 0 0 0 0 0 0.0876457 0 0 0 0 0.391667 0 0 0 0.05 0"/>
<feBlend mode="normal" in2="BackgroundImageFix" result="effect1_dropShadow"/>
<feColorMatrix in="SourceAlpha" type="matrix" values="0 0 0 0 0 0 0 0 0 0 0 0 0 0 0 0 0 0 127 0"/>
<feOffset dy="44.8709"/>
<feGaussianBlur stdDeviation="2.8641"/>
<feColorMatrix type="matrix" values="0 0 0 0 0.121569 0 0 0 0 0.247059 0 0 0 0 0.682353 0 0 0 0.02 0"/>
<feBlend mode="normal" in2="effect1_dropShadow" result="effect2_dropShadow"/>
<feColorMatrix in="SourceAlpha" type="matrix" values="0 0 0 0 0 0 0 0 0 0 0 0 0 0 0 0 0 0 127 0"/>
<feOffset dy="54.4179"/>
<feGaussianBlur stdDeviation="9.547"/>
<feColorMatrix type="matrix" values="0 0 0 0 0.121569 0 0 0 0 0.247059 0 0 0 0 0.682353 0 0 0 0.02 0"/>
<feBlend mode="normal" in2="effect2_dropShadow" result="effect3_dropShadow"/>
<feBlend mode="normal" in="SourceGraphic" in2="effect3_dropShadow" result="shape"/>
</filter>
<filter id="filter10_ddd" x="397.788" y="142.32" width="192.528" height="193.521" filterUnits="userSpaceOnUse" color-interpolation-filters="sRGB">
<feFlood flood-opacity="0" result="BackgroundImageFix"/>
<feColorMatrix in="SourceAlpha" type="matrix" values="0 0 0 0 0 0 0 0 0 0 0 0 0 0 0 0 0 0 127 0"/>
<feMorphology radius="7.6376" operator="dilate" in="SourceAlpha" result="effect1_dropShadow"/>
<feOffset dy="21.9581"/>
<feGaussianBlur stdDeviation="14.3205"/>
<feColorMatrix type="matrix" values="0 0 0 0 0 0 0 0 0 0.0876457 0 0 0 0 0.391667 0 0 0 0.05 0"/>
<feBlend mode="normal" in2="BackgroundImageFix" result="effect1_dropShadow"/>
<feColorMatrix in="SourceAlpha" type="matrix" values="0 0 0 0 0 0 0 0 0 0 0 0 0 0 0 0 0 0 127 0"/>
<feOffset dy="44.8709"/>
<feGaussianBlur stdDeviation="2.8641"/>
<feColorMatrix type="matrix" values="0 0 0 0 0.121569 0 0 0 0 0.247059 0 0 0 0 0.682353 0 0 0 0.02 0"/>
<feBlend mode="normal" in2="effect1_dropShadow" result="effect2_dropShadow"/>
<feColorMatrix in="SourceAlpha" type="matrix" values="0 0 0 0 0 0 0 0 0 0 0 0 0 0 0 0 0 0 127 0"/>
<feOffset dy="54.4179"/>
<feGaussianBlur stdDeviation="9.547"/>
<feColorMatrix type="matrix" values="0 0 0 0 0.121569 0 0 0 0 0.247059 0 0 0 0 0.682353 0 0 0 0.02 0"/>
<feBlend mode="normal" in2="effect2_dropShadow" result="effect3_dropShadow"/>
<feBlend mode="normal" in="SourceGraphic" in2="effect3_dropShadow" result="shape"/>
</filter>
<filter id="filter11_ddd" x="400.651" y="391.901" width="192.528" height="193.521" filterUnits="userSpaceOnUse" color-interpolation-filters="sRGB">
<feFlood flood-opacity="0" result="BackgroundImageFix"/>
<feColorMatrix in="SourceAlpha" type="matrix" values="0 0 0 0 0 0 0 0 0 0 0 0 0 0 0 0 0 0 127 0"/>
<feMorphology radius="7.6376" operator="dilate" in="SourceAlpha" result="effect1_dropShadow"/>
<feOffset dy="21.9581"/>
<feGaussianBlur stdDeviation="14.3205"/>
<feColorMatrix type="matrix" values="0 0 0 0 0 0 0 0 0 0.0876457 0 0 0 0 0.391667 0 0 0 0.05 0"/>
<feBlend mode="normal" in2="BackgroundImageFix" result="effect1_dropShadow"/>
<feColorMatrix in="SourceAlpha" type="matrix" values="0 0 0 0 0 0 0 0 0 0 0 0 0 0 0 0 0 0 127 0"/>
<feOffset dy="44.8709"/>
<feGaussianBlur stdDeviation="2.8641"/>
<feColorMatrix type="matrix" values="0 0 0 0 0.121569 0 0 0 0 0.247059 0 0 0 0 0.682353 0 0 0 0.02 0"/>
<feBlend mode="normal" in2="effect1_dropShadow" result="effect2_dropShadow"/>
<feColorMatrix in="SourceAlpha" type="matrix" values="0 0 0 0 0 0 0 0 0 0 0 0 0 0 0 0 0 0 127 0"/>
<feOffset dy="54.4179"/>
<feGaussianBlur stdDeviation="9.547"/>
<feColorMatrix type="matrix" values="0 0 0 0 0.121569 0 0 0 0 0.247059 0 0 0 0 0.682353 0 0 0 0.02 0"/>
<feBlend mode="normal" in2="effect2_dropShadow" result="effect3_dropShadow"/>
<feBlend mode="normal" in="SourceGraphic" in2="effect3_dropShadow" result="shape"/>
</filter>
<linearGradient id="paint0_linear" x1="348.195" y1="123.689" x2="265.697" y2="144.54" gradientUnits="userSpaceOnUse">
<stop stop-color="#0B53DE"/>
<stop offset="1" stop-color="#3DD7D9"/>
</linearGradient>
<linearGradient id="paint1_linear" x1="348.195" y1="343.827" x2="265.697" y2="364.678" gradientUnits="userSpaceOnUse">
<stop stop-color="#0B53DE"/>
<stop offset="1" stop-color="#3DD7D9"/>
</linearGradient>
<linearGradient id="paint2_linear" x1="474.002" y1="455.248" x2="519.827" y2="455.248" gradientUnits="userSpaceOnUse">
<stop stop-color="#16D9E3"/>
<stop offset="0.47" stop-color="#30C7EC"/>
<stop offset="1" stop-color="#46AEF7"/>
</linearGradient>
<linearGradient id="paint3_linear" x1="474.002" y1="455.248" x2="519.827" y2="455.248" gradientUnits="userSpaceOnUse">
<stop stop-color="#16D9E3"/>
<stop offset="0.47" stop-color="#30C7EC"/>
<stop offset="1" stop-color="#46AEF7"/>
</linearGradient>
<linearGradient id="paint4_linear" x1="474.002" y1="455.248" x2="519.827" y2="455.248" gradientUnits="userSpaceOnUse">
<stop stop-color="#16D9E3"/>
<stop offset="0.47" stop-color="#30C7EC"/>
<stop offset="1" stop-color="#46AEF7"/>
</linearGradient>
<linearGradient id="paint5_linear" x1="474.002" y1="455.248" x2="519.827" y2="455.248" gradientUnits="userSpaceOnUse">
<stop stop-color="#16D9E3"/>
<stop offset="0.47" stop-color="#30C7EC"/>
<stop offset="1" stop-color="#46AEF7"/>
</linearGradient>
<linearGradient id="paint6_linear" x1="474.002" y1="455.248" x2="519.827" y2="455.248" gradientUnits="userSpaceOnUse">
<stop stop-color="#16D9E3"/>
<stop offset="0.47" stop-color="#30C7EC"/>
<stop offset="1" stop-color="#46AEF7"/>
</linearGradient>
<linearGradient id="paint7_linear" x1="474.002" y1="455.248" x2="519.827" y2="455.248" gradientUnits="userSpaceOnUse">
<stop stop-color="#16D9E3"/>
<stop offset="0.47" stop-color="#30C7EC"/>
<stop offset="1" stop-color="#46AEF7"/>
</linearGradient>
<linearGradient id="paint8_linear" x1="474.002" y1="455.248" x2="519.827" y2="455.248" gradientUnits="userSpaceOnUse">
<stop stop-color="#16D9E3"/>
<stop offset="0.47" stop-color="#30C7EC"/>
<stop offset="1" stop-color="#46AEF7"/>
</linearGradient>
<linearGradient id="paint9_linear" x1="73.7363" y1="205.667" x2="119.562" y2="205.667" gradientUnits="userSpaceOnUse">
<stop stop-color="#89F7FE"/>
<stop offset="1" stop-color="#66A6FF"/>
</linearGradient>
<linearGradient id="paint10_linear" x1="73.7363" y1="205.667" x2="119.562" y2="205.667" gradientUnits="userSpaceOnUse">
<stop stop-color="#89F7FE"/>
<stop offset="1" stop-color="#66A6FF"/>
</linearGradient>
<linearGradient id="paint11_linear" x1="73.7363" y1="205.667" x2="119.562" y2="205.667" gradientUnits="userSpaceOnUse">
<stop stop-color="#89F7FE"/>
<stop offset="1" stop-color="#66A6FF"/>
</linearGradient>
<linearGradient id="paint12_linear" x1="73.7363" y1="205.667" x2="119.562" y2="205.667" gradientUnits="userSpaceOnUse">
<stop stop-color="#89F7FE"/>
<stop offset="1" stop-color="#66A6FF"/>
</linearGradient>
<linearGradient id="paint13_linear" x1="73.7363" y1="205.667" x2="119.562" y2="205.667" gradientUnits="userSpaceOnUse">
<stop stop-color="#89F7FE"/>
<stop offset="1" stop-color="#66A6FF"/>
</linearGradient>
<linearGradient id="paint14_linear" x1="73.7363" y1="205.667" x2="119.562" y2="205.667" gradientUnits="userSpaceOnUse">
<stop stop-color="#89F7FE"/>
<stop offset="1" stop-color="#66A6FF"/>
</linearGradient>
<linearGradient id="paint15_linear" x1="73.7363" y1="205.667" x2="119.562" y2="205.667" gradientUnits="userSpaceOnUse">
<stop stop-color="#89F7FE"/>
<stop offset="1" stop-color="#66A6FF"/>
</linearGradient>
<linearGradient id="paint16_linear" x1="471.14" y1="205.667" x2="516.965" y2="205.667" gradientUnits="userSpaceOnUse">
<stop stop-color="#E0C3FC"/>
<stop offset="1" stop-color="#8EC5FC"/>
</linearGradient>
<linearGradient id="paint17_linear" x1="471.14" y1="205.667" x2="516.965" y2="205.667" gradientUnits="userSpaceOnUse">
<stop stop-color="#E0C3FC"/>
<stop offset="1" stop-color="#8EC5FC"/>
</linearGradient>
<linearGradient id="paint18_linear" x1="471.14" y1="205.667" x2="516.965" y2="205.667" gradientUnits="userSpaceOnUse">
<stop stop-color="#E0C3FC"/>
<stop offset="1" stop-color="#8EC5FC"/>
</linearGradient>
<linearGradient id="paint19_linear" x1="471.14" y1="205.667" x2="516.965" y2="205.667" gradientUnits="userSpaceOnUse">
<stop stop-color="#E0C3FC"/>
<stop offset="1" stop-color="#8EC5FC"/>
</linearGradient>
<linearGradient id="paint20_linear" x1="471.14" y1="205.667" x2="516.965" y2="205.667" gradientUnits="userSpaceOnUse">
<stop stop-color="#E0C3FC"/>
<stop offset="1" stop-color="#8EC5FC"/>
</linearGradient>
<linearGradient id="paint21_linear" x1="471.14" y1="205.667" x2="516.965" y2="205.667" gradientUnits="userSpaceOnUse">
<stop stop-color="#E0C3FC"/>
<stop offset="1" stop-color="#8EC5FC"/>
</linearGradient>
<linearGradient id="paint22_linear" x1="471.14" y1="205.667" x2="516.965" y2="205.667" gradientUnits="userSpaceOnUse">
<stop stop-color="#E0C3FC"/>
<stop offset="1" stop-color="#8EC5FC"/>
</linearGradient>
<linearGradient id="paint23_linear" x1="73.7354" y1="455.248" x2="119.561" y2="455.248" gradientUnits="userSpaceOnUse">
<stop stop-color="#2AF598"/>
<stop offset="1" stop-color="#009EFD"/>
</linearGradient>
<linearGradient id="paint24_linear" x1="73.7354" y1="455.248" x2="119.561" y2="455.248" gradientUnits="userSpaceOnUse">
<stop stop-color="#2AF598"/>
<stop offset="1" stop-color="#009EFD"/>
</linearGradient>
<linearGradient id="paint25_linear" x1="73.7354" y1="455.248" x2="119.561" y2="455.248" gradientUnits="userSpaceOnUse">
<stop stop-color="#2AF598"/>
<stop offset="1" stop-color="#009EFD"/>
</linearGradient>
<linearGradient id="paint26_linear" x1="73.7354" y1="455.248" x2="119.561" y2="455.248" gradientUnits="userSpaceOnUse">
<stop stop-color="#2AF598"/>
<stop offset="1" stop-color="#009EFD"/>
</linearGradient>
<linearGradient id="paint27_linear" x1="73.7354" y1="455.248" x2="119.561" y2="455.248" gradientUnits="userSpaceOnUse">
<stop stop-color="#2AF598"/>
<stop offset="1" stop-color="#009EFD"/>
</linearGradient>
<linearGradient id="paint28_linear" x1="73.7354" y1="455.248" x2="119.561" y2="455.248" gradientUnits="userSpaceOnUse">
<stop stop-color="#2AF598"/>
<stop offset="1" stop-color="#009EFD"/>
</linearGradient>
<linearGradient id="paint29_linear" x1="73.7354" y1="455.248" x2="119.561" y2="455.248" gradientUnits="userSpaceOnUse">
<stop stop-color="#2AF598"/>
<stop offset="1" stop-color="#009EFD"/>
</linearGradient>
<linearGradient id="paint30_linear" x1="272.438" y1="522.735" x2="318.263" y2="522.735" gradientUnits="userSpaceOnUse">
<stop stop-color="#48C6EF"/>
<stop offset="1" stop-color="#6F86D6"/>
</linearGradient>
<linearGradient id="paint31_linear" x1="272.438" y1="522.735" x2="318.263" y2="522.735" gradientUnits="userSpaceOnUse">
<stop stop-color="#48C6EF"/>
<stop offset="1" stop-color="#6F86D6"/>
</linearGradient>
<linearGradient id="paint32_linear" x1="272.438" y1="522.735" x2="318.263" y2="522.735" gradientUnits="userSpaceOnUse">
<stop stop-color="#48C6EF"/>
<stop offset="1" stop-color="#6F86D6"/>
</linearGradient>
<linearGradient id="paint33_linear" x1="272.438" y1="522.735" x2="318.263" y2="522.735" gradientUnits="userSpaceOnUse">
<stop stop-color="#48C6EF"/>
<stop offset="1" stop-color="#6F86D6"/>
</linearGradient>
<linearGradient id="paint34_linear" x1="272.438" y1="522.735" x2="318.263" y2="522.735" gradientUnits="userSpaceOnUse">
<stop stop-color="#48C6EF"/>
<stop offset="1" stop-color="#6F86D6"/>
</linearGradient>
<linearGradient id="paint35_linear" x1="272.438" y1="522.735" x2="318.263" y2="522.735" gradientUnits="userSpaceOnUse">
<stop stop-color="#48C6EF"/>
<stop offset="1" stop-color="#6F86D6"/>
</linearGradient>
<linearGradient id="paint36_linear" x1="272.438" y1="522.735" x2="318.263" y2="522.735" gradientUnits="userSpaceOnUse">
<stop stop-color="#48C6EF"/>
<stop offset="1" stop-color="#6F86D6"/>
</linearGradient>
</defs>
</svg>
