<svg width="414" height="493" viewBox="0 0 414 493" fill="none" xmlns="http://www.w3.org/2000/svg">
<g clip-path="url(#clip0)">
<path d="M206.907 382.138C303.047 382.138 380.984 304.201 380.984 208.061C380.984 111.921 303.047 33.9839 206.907 33.9839C110.767 33.9839 32.8301 111.921 32.8301 208.061C32.8301 304.201 110.767 382.138 206.907 382.138Z" fill="#152673"/>
<path d="M337.61 200.726V202.43H340.358V204.014H337.61V205.862H340.718V207.506H335.558V199.082H340.718V200.726H337.61ZM341.762 204.146C341.762 203.458 341.89 202.854 342.146 202.334C342.41 201.814 342.766 201.414 343.214 201.134C343.662 200.854 344.162 200.714 344.714 200.714C345.186 200.714 345.598 200.81 345.95 201.002C346.31 201.194 346.586 201.446 346.778 201.758V200.81H348.83V207.506H346.778V206.558C346.578 206.87 346.298 207.122 345.938 207.314C345.586 207.506 345.174 207.602 344.702 207.602C344.158 207.602 343.662 207.462 343.214 207.182C342.766 206.894 342.41 206.49 342.146 205.97C341.89 205.442 341.762 204.834 341.762 204.146ZM346.778 204.158C346.778 203.646 346.634 203.242 346.346 202.946C346.066 202.65 345.722 202.502 345.314 202.502C344.906 202.502 344.558 202.65 344.27 202.946C343.99 203.234 343.85 203.634 343.85 204.146C343.85 204.658 343.99 205.066 344.27 205.37C344.558 205.666 344.906 205.814 345.314 205.814C345.722 205.814 346.066 205.666 346.346 205.37C346.634 205.074 346.778 204.67 346.778 204.158ZM352.487 201.926C352.727 201.558 353.027 201.27 353.387 201.062C353.747 200.846 354.147 200.738 354.587 200.738V202.91H354.023C353.511 202.91 353.127 203.022 352.871 203.246C352.615 203.462 352.487 203.846 352.487 204.398V207.506H350.435V200.81H352.487V201.926ZM357.74 198.626V207.506H355.688V198.626H357.74ZM366.187 200.81L361.987 210.686H359.779L361.315 207.278L358.591 200.81H360.883L362.431 204.998L363.967 200.81H366.187ZM331.101 222.018H327.957L327.453 223.506H325.305L328.353 215.082H330.729L333.777 223.506H331.605L331.101 222.018ZM330.573 220.434L329.529 217.35L328.497 220.434H330.573ZM336.876 217.926C337.116 217.558 337.416 217.27 337.776 217.062C338.136 216.846 338.536 216.738 338.976 216.738V218.91H338.412C337.9 218.91 337.516 219.022 337.26 219.246C337.004 219.462 336.876 219.846 336.876 220.398V223.506H334.824V216.81H336.876V217.926ZM342.129 217.926C342.369 217.558 342.669 217.27 343.029 217.062C343.389 216.846 343.789 216.738 344.229 216.738V218.91H343.665C343.153 218.91 342.769 219.022 342.513 219.246C342.257 219.462 342.129 219.846 342.129 220.398V223.506H340.077V216.81H342.129V217.926ZM346.362 216.114C346.002 216.114 345.706 216.01 345.474 215.802C345.25 215.586 345.138 215.322 345.138 215.01C345.138 214.69 345.25 214.426 345.474 214.218C345.706 214.002 346.002 213.894 346.362 213.894C346.714 213.894 347.002 214.002 347.226 214.218C347.458 214.426 347.574 214.69 347.574 215.01C347.574 215.322 347.458 215.586 347.226 215.802C347.002 216.01 346.714 216.114 346.362 216.114ZM347.382 216.81V223.506H345.33V216.81H347.382ZM352.001 221.586L353.453 216.81H355.637L353.261 223.506H350.729L348.353 216.81H350.549L352.001 221.586ZM357.653 216.114C357.293 216.114 356.997 216.01 356.765 215.802C356.541 215.586 356.429 215.322 356.429 215.01C356.429 214.69 356.541 214.426 356.765 214.218C356.997 214.002 357.293 213.894 357.653 213.894C358.005 213.894 358.293 214.002 358.517 214.218C358.749 214.426 358.865 214.69 358.865 215.01C358.865 215.322 358.749 215.586 358.517 215.802C358.293 216.01 358.005 216.114 357.653 216.114ZM358.673 216.81V223.506H356.621V216.81H358.673ZM364.36 216.738C365.144 216.738 365.768 216.994 366.232 217.506C366.704 218.01 366.94 218.706 366.94 219.594V223.506H364.9V219.87C364.9 219.422 364.784 219.074 364.552 218.826C364.32 218.578 364.008 218.454 363.616 218.454C363.224 218.454 362.912 218.578 362.68 218.826C362.448 219.074 362.332 219.422 362.332 219.87V223.506H360.28V216.81H362.332V217.698C362.54 217.402 362.82 217.17 363.172 217.002C363.524 216.826 363.92 216.738 364.36 216.738ZM371.03 216.714C371.502 216.714 371.914 216.81 372.266 217.002C372.626 217.194 372.902 217.446 373.094 217.758V216.81H375.146V223.494C375.146 224.11 375.022 224.666 374.774 225.162C374.534 225.666 374.162 226.066 373.658 226.362C373.162 226.658 372.542 226.806 371.798 226.806C370.806 226.806 370.002 226.57 369.386 226.098C368.77 225.634 368.418 225.002 368.33 224.202H370.358C370.422 224.458 370.574 224.658 370.814 224.802C371.054 224.954 371.35 225.03 371.702 225.03C372.126 225.03 372.462 224.906 372.71 224.658C372.966 224.418 373.094 224.03 373.094 223.494V222.546C372.894 222.858 372.618 223.114 372.266 223.314C371.914 223.506 371.502 223.602 371.03 223.602C370.478 223.602 369.978 223.462 369.53 223.182C369.082 222.894 368.726 222.49 368.462 221.97C368.206 221.442 368.078 220.834 368.078 220.146C368.078 219.458 368.206 218.854 368.462 218.334C368.726 217.814 369.082 217.414 369.53 217.134C369.978 216.854 370.478 216.714 371.03 216.714ZM373.094 220.158C373.094 219.646 372.95 219.242 372.662 218.946C372.382 218.65 372.038 218.502 371.63 218.502C371.222 218.502 370.874 218.65 370.586 218.946C370.306 219.234 370.166 219.634 370.166 220.146C370.166 220.658 370.306 221.066 370.586 221.37C370.874 221.666 371.222 221.814 371.63 221.814C372.038 221.814 372.382 221.666 372.662 221.37C372.95 221.074 373.094 220.67 373.094 220.158ZM348.372 231.082L346.176 239.506H343.692L342.348 233.962L340.956 239.506H338.472L336.336 231.082H338.532L339.744 237.214L341.244 231.082H343.5L344.94 237.214L346.164 231.082H348.372ZM350.553 232.114C350.193 232.114 349.897 232.01 349.665 231.802C349.441 231.586 349.329 231.322 349.329 231.01C349.329 230.69 349.441 230.426 349.665 230.218C349.897 230.002 350.193 229.894 350.553 229.894C350.905 229.894 351.193 230.002 351.417 230.218C351.649 230.426 351.765 230.69 351.765 231.01C351.765 231.322 351.649 231.586 351.417 231.802C351.193 232.01 350.905 232.114 350.553 232.114ZM351.573 232.81V239.506H349.521V232.81H351.573ZM355.232 233.926C355.472 233.558 355.772 233.27 356.132 233.062C356.492 232.846 356.892 232.738 357.332 232.738V234.91H356.768C356.256 234.91 355.872 235.022 355.616 235.246C355.36 235.462 355.232 235.846 355.232 236.398V239.506H353.18V232.81H355.232V233.926ZM364.745 236.05C364.745 236.242 364.733 236.442 364.709 236.65H360.065C360.097 237.066 360.229 237.386 360.461 237.61C360.701 237.826 360.993 237.934 361.337 237.934C361.849 237.934 362.205 237.718 362.405 237.286H364.589C364.477 237.726 364.273 238.122 363.977 238.474C363.689 238.826 363.325 239.102 362.885 239.302C362.445 239.502 361.953 239.602 361.409 239.602C360.753 239.602 360.169 239.462 359.657 239.182C359.145 238.902 358.745 238.502 358.457 237.982C358.169 237.462 358.025 236.854 358.025 236.158C358.025 235.462 358.165 234.854 358.445 234.334C358.733 233.814 359.133 233.414 359.645 233.134C360.157 232.854 360.745 232.714 361.409 232.714C362.057 232.714 362.633 232.85 363.137 233.122C363.641 233.394 364.033 233.782 364.313 234.286C364.601 234.79 364.745 235.378 364.745 236.05ZM362.645 235.51C362.645 235.158 362.525 234.878 362.285 234.67C362.045 234.462 361.745 234.358 361.385 234.358C361.041 234.358 360.749 234.458 360.509 234.658C360.277 234.858 360.133 235.142 360.077 235.51H362.645Z" fill="white"/>
<path opacity="0.2" d="M350.839 179.037C350.583 178.768 350.158 178.757 349.889 179.012L345.507 183.172C345.238 183.427 345.227 183.852 345.482 184.121C345.738 184.39 346.163 184.401 346.432 184.145L350.327 180.448L354.024 184.344C354.279 184.613 354.704 184.624 354.973 184.368C355.242 184.113 355.253 183.688 354.998 183.419L350.839 179.037ZM350.671 192.987L351.023 179.517L349.681 179.482L349.329 192.952L350.671 192.987Z" fill="white"/>
<path d="M214.822 164.291C224.111 164.291 232.694 169.246 237.339 177.291L244.606 189.878C249.25 197.922 249.25 207.833 244.606 215.878L237.339 228.465C232.694 236.509 224.111 241.465 214.822 241.465H200.288C190.999 241.465 182.416 236.509 177.771 228.465L170.504 215.878C165.859 207.833 165.859 197.922 170.504 189.878L177.771 177.291C182.416 169.246 190.999 164.291 200.288 164.291H214.822Z" fill="white"/>
<path d="M214.822 164.291C224.111 164.291 232.694 169.246 237.339 177.291L244.606 189.878C249.25 197.922 249.25 207.833 244.606 215.878L237.339 228.465C232.694 236.509 224.111 241.465 214.822 241.465H200.288C190.999 241.465 182.416 236.509 177.771 228.465L170.504 215.878C165.859 207.833 165.859 197.922 170.504 189.878L177.771 177.291C182.416 169.246 190.999 164.291 200.288 164.291H214.822Z" fill="url(#paint0_linear)"/>
<path d="M191.611 201.977C192.485 202.163 193.187 202.6 193.717 203.288C194.247 203.961 194.512 204.734 194.512 205.608C194.512 206.868 194.068 207.87 193.18 208.615C192.306 209.346 191.082 209.711 189.506 209.711H182.482V194.631H189.27C190.802 194.631 191.998 194.981 192.857 195.683C193.731 196.385 194.168 197.337 194.168 198.54C194.168 199.428 193.932 200.166 193.459 200.753C193.001 201.34 192.385 201.748 191.611 201.977ZM186.155 200.731H188.561C189.163 200.731 189.621 200.602 189.936 200.345C190.265 200.073 190.43 199.679 190.43 199.163C190.43 198.648 190.265 198.254 189.936 197.982C189.621 197.71 189.163 197.574 188.561 197.574H186.155V200.731ZM188.862 206.746C189.478 206.746 189.95 206.61 190.28 206.338C190.623 206.052 190.795 205.643 190.795 205.114C190.795 204.584 190.616 204.168 190.258 203.868C189.914 203.567 189.435 203.417 188.819 203.417H186.155V206.746H188.862ZM196.126 203.696C196.126 202.464 196.356 201.383 196.814 200.452C197.287 199.521 197.924 198.805 198.726 198.304C199.528 197.803 200.423 197.552 201.411 197.552C202.256 197.552 202.993 197.724 203.624 198.068C204.268 198.411 204.762 198.862 205.106 199.421V197.724H208.779V209.711H205.106V208.014C204.748 208.572 204.247 209.023 203.602 209.367C202.972 209.711 202.234 209.883 201.39 209.883C200.416 209.883 199.528 209.632 198.726 209.131C197.924 208.615 197.287 207.892 196.814 206.961C196.356 206.016 196.126 204.927 196.126 203.696ZM205.106 203.717C205.106 202.801 204.848 202.078 204.333 201.548C203.831 201.018 203.215 200.753 202.485 200.753C201.755 200.753 201.132 201.018 200.616 201.548C200.115 202.063 199.864 202.779 199.864 203.696C199.864 204.612 200.115 205.343 200.616 205.887C201.132 206.417 201.755 206.682 202.485 206.682C203.215 206.682 203.831 206.417 204.333 205.887C204.848 205.357 205.106 204.634 205.106 203.717ZM218.955 197.595C220.359 197.595 221.476 198.053 222.307 198.97C223.151 199.872 223.574 201.118 223.574 202.708V209.711H219.922V203.202C219.922 202.4 219.714 201.777 219.299 201.333C218.884 200.889 218.325 200.667 217.623 200.667C216.922 200.667 216.363 200.889 215.948 201.333C215.533 201.777 215.325 202.4 215.325 203.202V209.711H211.652V197.724H215.325V199.314C215.697 198.784 216.199 198.368 216.829 198.068C217.459 197.753 218.168 197.595 218.955 197.595ZM233.667 209.711L230.015 204.684V209.711H226.341V193.814H230.015V202.6L233.645 197.724H238.178L233.194 203.739L238.221 209.711H233.667Z" fill="white"/>
<path d="M214.822 22.2783C224.111 22.2783 232.694 27.2339 237.339 35.2783L244.606 47.8654C249.25 55.9099 249.25 65.821 244.606 73.8654L237.339 86.4526C232.694 94.497 224.111 99.4526 214.822 99.4526H200.288C190.999 99.4526 182.416 94.497 177.771 86.4526L170.504 73.8654C165.859 65.821 165.859 55.9099 170.504 47.8655L177.771 35.2783C182.416 27.2339 190.999 22.2783 200.288 22.2783H214.822Z" fill="white"/>
<path d="M214.822 22.2783C224.111 22.2783 232.694 27.2339 237.339 35.2783L244.606 47.8654C249.25 55.9099 249.25 65.821 244.606 73.8654L237.339 86.4526C232.694 94.497 224.111 99.4526 214.822 99.4526H200.288C190.999 99.4526 182.416 94.497 177.771 86.4526L170.504 73.8654C165.859 65.821 165.859 55.9099 170.504 47.8655L177.771 35.2783C182.416 27.2339 190.999 22.2783 200.288 22.2783H214.822Z" fill="url(#paint1_linear)"/>
<path d="M217.22 60.5295H221.204V70.0678H217.22V60.5295Z" fill="white"/>
<path d="M209.676 60.5295H213.66V70.0678H209.676V60.5295Z" fill="white"/>
<path d="M202.132 60.5295H206.116V70.0678H202.132V60.5295Z" fill="white"/>
<path d="M194.588 60.5295H198.572V70.0678H194.588V60.5295Z" fill="white"/>
<path d="M222.531 57.5418V56.5459H193.26V57.5418C193.26 58.0919 193.706 58.5378 194.256 58.5378H221.535C222.085 58.5378 222.531 58.0919 222.531 57.5418Z" fill="white"/>
<path d="M223.897 72.0598H191.895C191.345 72.0598 190.899 72.5057 190.899 73.0558V75.7117C190.899 76.2618 191.345 76.7076 191.895 76.7076H223.897C224.447 76.7076 224.893 76.2618 224.893 75.7117V73.0558C224.893 72.5057 224.447 72.0598 223.897 72.0598Z" fill="white"/>
<path d="M191.894 54.5539H223.898C224.343 54.5539 224.735 54.2579 224.856 53.8292C224.977 53.4005 224.799 52.9432 224.42 52.7098L208.418 42.8602C208.098 42.6631 207.694 42.6631 207.374 42.8602L191.372 52.7098C190.993 52.9435 190.815 53.4005 190.936 53.8292C191.058 54.2579 191.449 54.5539 191.894 54.5539ZM207.219 48.5704H208.573C209.123 48.5704 209.569 49.0162 209.569 49.5663C209.569 50.1164 209.123 50.5623 208.573 50.5623H207.219C206.669 50.5623 206.223 50.1164 206.223 49.5663C206.223 49.0162 206.669 48.5704 207.219 48.5704Z" fill="white"/>
<g filter="url(#filter0_ddd)">
<path d="M305.161 311.275C300.634 303.31 300.634 293.549 305.161 285.583L312.663 272.381C317.284 264.25 325.916 259.227 335.268 259.227H349.566C358.918 259.227 367.55 264.25 372.171 272.381L379.673 285.583C384.2 293.549 384.2 303.31 379.673 311.275L372.171 324.477C367.55 332.608 358.918 337.631 349.566 337.631H335.268C325.916 337.631 317.284 332.608 312.663 324.477L305.161 311.275Z" fill="white"/>
</g>
<path d="M351.594 296.417H355.515V305.955H351.594V296.417Z" fill="url(#paint2_linear)"/>
<path d="M344.169 296.417H348.09V305.955H344.169V296.417Z" fill="url(#paint3_linear)"/>
<path d="M336.743 296.417H340.664V305.955H336.743V296.417Z" fill="url(#paint4_linear)"/>
<path d="M329.318 296.417H333.239V305.955H329.318V296.417Z" fill="url(#paint5_linear)"/>
<path d="M356.822 293.429V292.433H328.01V293.429C328.01 293.979 328.449 294.425 328.991 294.425H355.842C356.383 294.425 356.822 293.979 356.822 293.429Z" fill="url(#paint6_linear)"/>
<path d="M358.166 307.947H326.667C326.125 307.947 325.686 308.393 325.686 308.943V311.599C325.686 312.149 326.125 312.595 326.667 312.595H358.166C358.708 312.595 359.147 312.149 359.147 311.599V308.943C359.147 308.393 358.708 307.947 358.166 307.947Z" fill="url(#paint7_linear)"/>
<path d="M326.666 290.441H358.167C358.606 290.441 358.991 290.145 359.11 289.716C359.23 289.288 359.055 288.83 358.681 288.597L342.93 278.747C342.615 278.55 342.218 278.55 341.903 278.747L326.152 288.597C325.778 288.831 325.603 289.288 325.723 289.716C325.842 290.145 326.227 290.441 326.666 290.441ZM341.75 284.458H343.083C343.625 284.458 344.063 284.903 344.063 285.454C344.063 286.004 343.625 286.449 343.083 286.449H341.75C341.209 286.449 340.77 286.004 340.77 285.454C340.77 284.903 341.209 284.458 341.75 284.458Z" fill="url(#paint8_linear)"/>
<g filter="url(#filter1_ddd)">
<path d="M38.5876 311.275C34.0607 303.31 34.0607 293.549 38.5876 285.583L46.0903 272.381C50.7111 264.25 59.3428 259.227 68.695 259.227H82.9926C92.3449 259.227 100.976 264.25 105.597 272.381L113.1 285.583C117.627 293.549 117.627 303.31 113.1 311.275L105.597 324.477C100.976 332.608 92.3449 337.631 82.9926 337.631H68.695C59.3428 337.631 50.7111 332.608 46.0903 324.477L38.5876 311.275Z" fill="white"/>
</g>
<path d="M85.0215 296.417H88.9426V305.955H85.0215V296.417Z" fill="url(#paint9_linear)"/>
<path d="M77.5957 296.417H81.517V305.955H77.5957V296.417Z" fill="url(#paint10_linear)"/>
<path d="M70.1699 296.417H74.0913V305.955H70.1699V296.417Z" fill="url(#paint11_linear)"/>
<path d="M62.7441 296.417H66.6652V305.955H62.7441V296.417Z" fill="url(#paint12_linear)"/>
<path d="M90.2493 293.429V292.433H61.4375V293.429C61.4375 293.979 61.8763 294.425 62.4178 294.425H89.269C89.8102 294.425 90.2493 293.979 90.2493 293.429Z" fill="url(#paint13_linear)"/>
<path d="M91.5935 307.947H60.0936C59.5521 307.947 59.1133 308.393 59.1133 308.943V311.599C59.1133 312.149 59.5521 312.595 60.0936 312.595H91.5935C92.1349 312.595 92.5738 312.149 92.5738 311.599V308.943C92.5738 308.393 92.1349 307.947 91.5935 307.947Z" fill="url(#paint14_linear)"/>
<path d="M60.0925 290.441H91.5939C92.0325 290.441 92.4177 290.145 92.5372 289.716C92.6564 289.288 92.4813 288.83 92.1078 288.597L76.3571 278.747C76.0421 278.55 75.6446 278.55 75.3293 278.747L59.5786 288.597C59.2051 288.831 59.03 289.288 59.1495 289.716C59.269 290.145 59.6542 290.441 60.0925 290.441ZM75.1769 284.458H76.5098C77.0513 284.458 77.4901 284.903 77.4901 285.454C77.4901 286.004 77.0513 286.449 76.5098 286.449H75.1769C74.6354 286.449 74.1966 286.004 74.1966 285.454C74.1966 284.903 74.6354 284.458 75.1769 284.458Z" fill="url(#paint15_linear)"/>
<g filter="url(#filter2_ddd)">
<path d="M387.586 119.419C392.113 127.385 392.113 137.145 387.586 145.111L380.084 158.313C375.463 166.444 366.831 171.467 357.479 171.467H343.181C333.829 171.467 325.197 166.444 320.577 158.313L313.074 145.111C308.547 137.145 308.547 127.385 313.074 119.419L320.577 106.217C325.197 98.0858 333.829 93.063 343.181 93.063H357.479C366.831 93.063 375.463 98.0858 380.084 106.217L387.586 119.419Z" fill="white"/>
</g>
<path d="M359.508 130.252H363.429V139.791H359.508V130.252Z" fill="url(#paint16_linear)"/>
<path d="M352.083 130.252H356.004V139.791H352.083V130.252Z" fill="url(#paint17_linear)"/>
<path d="M344.657 130.252H348.578V139.791H344.657V130.252Z" fill="url(#paint18_linear)"/>
<path d="M337.232 130.252H341.153V139.791H337.232V130.252Z" fill="url(#paint19_linear)"/>
<path d="M364.736 127.264V126.268H335.924V127.264C335.924 127.814 336.363 128.26 336.905 128.26H363.756C364.297 128.26 364.736 127.814 364.736 127.264Z" fill="url(#paint20_linear)"/>
<path d="M366.08 141.782H334.581C334.039 141.782 333.6 142.228 333.6 142.778V145.434C333.6 145.984 334.039 146.43 334.581 146.43H366.08C366.622 146.43 367.061 145.984 367.061 145.434V142.778C367.061 142.228 366.622 141.782 366.08 141.782Z" fill="url(#paint21_linear)"/>
<path d="M334.58 124.277H366.081C366.52 124.277 366.905 123.981 367.025 123.552C367.144 123.123 366.969 122.666 366.595 122.432L350.844 112.583C350.529 112.386 350.132 112.386 349.817 112.583L334.066 122.432C333.692 122.666 333.517 123.123 333.637 123.552C333.756 123.981 334.142 124.277 334.58 124.277ZM349.664 118.293H350.997C351.539 118.293 351.977 118.739 351.977 119.289C351.977 119.839 351.539 120.285 350.997 120.285H349.664C349.123 120.285 348.684 119.839 348.684 119.289C348.684 118.739 349.123 118.293 349.664 118.293Z" fill="url(#paint22_linear)"/>
<g filter="url(#filter3_ddd)">
<path d="M102.813 119.419C107.34 127.384 107.34 137.145 102.813 145.111L95.3102 158.313C90.6894 166.444 82.0577 171.467 72.7055 171.467H58.4079C49.0556 171.467 40.4239 166.444 35.8031 158.313L28.3005 145.111C23.7735 137.145 23.7735 127.384 28.3005 119.419L35.8031 106.217C40.4239 98.0856 49.0556 93.0627 58.4079 93.0627H72.7055C82.0577 93.0627 90.6894 98.0856 95.3102 106.217L102.813 119.419Z" fill="white"/>
</g>
<path d="M74.7354 130.252H78.6564V139.79H74.7354V130.252Z" fill="url(#paint23_linear)"/>
<path d="M67.3096 130.252H71.231V139.79H67.3096V130.252Z" fill="url(#paint24_linear)"/>
<path d="M59.8838 130.252H63.8051V139.79H59.8838V130.252Z" fill="url(#paint25_linear)"/>
<path d="M52.458 130.252H56.379V139.79H52.458V130.252Z" fill="url(#paint26_linear)"/>
<path d="M79.9632 127.264V126.268H51.1514V127.264C51.1514 127.814 51.5902 128.26 52.1317 128.26H78.9829C79.5241 128.26 79.9632 127.814 79.9632 127.264Z" fill="url(#paint27_linear)"/>
<path d="M81.3072 141.782H49.8074C49.2659 141.782 48.8271 142.228 48.8271 142.778V145.434C48.8271 145.984 49.2659 146.43 49.8074 146.43H81.3072C81.8487 146.43 82.2876 145.984 82.2876 145.434V142.778C82.2876 142.228 81.8487 141.782 81.3072 141.782Z" fill="url(#paint28_linear)"/>
<path d="M49.8064 124.276H81.3078C81.7464 124.276 82.1316 123.98 82.2511 123.552C82.3703 123.123 82.1952 122.666 81.8217 122.432L66.071 112.583C65.756 112.386 65.3585 112.386 65.0432 112.583L49.2925 122.432C48.919 122.666 48.7439 123.123 48.8634 123.552C48.9828 123.98 49.3681 124.276 49.8064 124.276ZM64.8908 118.293H66.2237C66.7652 118.293 67.204 118.739 67.204 119.289C67.204 119.839 66.7652 120.285 66.2237 120.285H64.8908C64.3493 120.285 63.9104 119.839 63.9104 119.289C63.9104 118.739 64.3493 118.293 64.8908 118.293Z" fill="url(#paint29_linear)"/>
<g filter="url(#filter4_ddd)">
<path d="M169.896 370.58C165.369 362.614 165.369 352.853 169.896 344.887L177.399 331.685C182.02 323.554 190.651 318.531 200.004 318.531H214.301C223.653 318.531 232.285 323.554 236.906 331.685L244.408 344.887C248.935 352.853 248.935 362.614 244.409 370.58L236.906 383.782C232.285 391.913 223.653 396.935 214.301 396.935H200.004C190.651 396.935 182.02 391.913 177.399 383.782L169.896 370.58Z" fill="white"/>
</g>
<path d="M216.33 355.72H220.251V365.258H216.33V355.72Z" fill="url(#paint30_linear)"/>
<path d="M208.904 355.72H212.826V365.258H208.904V355.72Z" fill="url(#paint31_linear)"/>
<path d="M201.478 355.72H205.4V365.258H201.478V355.72Z" fill="url(#paint32_linear)"/>
<path d="M194.053 355.72H197.974V365.258H194.053V355.72Z" fill="url(#paint33_linear)"/>
<path d="M221.558 352.732V351.736H192.746V352.732C192.746 353.282 193.185 353.728 193.726 353.728H220.577C221.119 353.728 221.558 353.282 221.558 352.732Z" fill="url(#paint34_linear)"/>
<path d="M222.902 367.25H191.402C190.86 367.25 190.422 367.696 190.422 368.246V370.902C190.422 371.452 190.86 371.898 191.402 371.898H222.902C223.443 371.898 223.882 371.452 223.882 370.902V368.246C223.882 367.696 223.443 367.25 222.902 367.25Z" fill="url(#paint35_linear)"/>
<path d="M191.401 349.744H222.903C223.341 349.744 223.726 349.448 223.846 349.019C223.965 348.59 223.79 348.133 223.416 347.9L207.666 338.05C207.351 337.853 206.953 337.853 206.638 338.05L190.887 347.9C190.514 348.133 190.339 348.59 190.458 349.019C190.578 349.448 190.963 349.744 191.401 349.744ZM206.486 343.76H207.818C208.36 343.76 208.799 344.206 208.799 344.756C208.799 345.306 208.36 345.752 207.818 345.752H206.486C205.944 345.752 205.505 345.306 205.505 344.756C205.505 344.206 205.944 343.76 206.486 343.76Z" fill="url(#paint36_linear)"/>
<path d="M67.9016 18.7887H70.5896V20.3727H65.8496V11.9487H67.9016V18.7887ZM71.2803 17.0127C71.2803 16.3247 71.4083 15.7207 71.6643 15.2007C71.9283 14.6807 72.2843 14.2807 72.7323 14.0007C73.1803 13.7207 73.6803 13.5807 74.2323 13.5807C74.7043 13.5807 75.1163 13.6767 75.4683 13.8687C75.8283 14.0607 76.1043 14.3127 76.2963 14.6247V13.6767H78.3483V20.3727H76.2963V19.4247C76.0963 19.7367 75.8163 19.9887 75.4563 20.1807C75.1043 20.3727 74.6923 20.4687 74.2203 20.4687C73.6763 20.4687 73.1803 20.3287 72.7323 20.0487C72.2843 19.7607 71.9283 19.3567 71.6643 18.8367C71.4083 18.3087 71.2803 17.7007 71.2803 17.0127ZM76.2963 17.0247C76.2963 16.5127 76.1523 16.1087 75.8643 15.8127C75.5843 15.5167 75.2403 15.3687 74.8323 15.3687C74.4243 15.3687 74.0763 15.5167 73.7883 15.8127C73.5083 16.1007 73.3683 16.5007 73.3683 17.0127C73.3683 17.5247 73.5083 17.9327 73.7883 18.2367C74.0763 18.5327 74.4243 18.6807 74.8323 18.6807C75.2403 18.6807 75.5843 18.5327 75.8643 18.2367C76.1523 17.9407 76.2963 17.5367 76.2963 17.0247ZM83.6849 18.6327V20.3727H82.6409C81.8969 20.3727 81.3169 20.1927 80.9009 19.8327C80.4849 19.4647 80.2769 18.8687 80.2769 18.0447V15.3807H79.4609V13.6767H80.2769V12.0447H82.3289V13.6767H83.6729V15.3807H82.3289V18.0687C82.3289 18.2687 82.3769 18.4127 82.4729 18.5007C82.5689 18.5887 82.7289 18.6327 82.9529 18.6327H83.6849ZM91.2599 16.9167C91.2599 17.1087 91.2479 17.3087 91.2239 17.5167H86.5799C86.6119 17.9327 86.7439 18.2527 86.9759 18.4767C87.2159 18.6927 87.5079 18.8007 87.8519 18.8007C88.3639 18.8007 88.7199 18.5847 88.9199 18.1527H91.1039C90.9919 18.5927 90.7879 18.9887 90.4919 19.3407C90.2039 19.6927 89.8399 19.9687 89.3999 20.1687C88.9599 20.3687 88.4679 20.4687 87.9239 20.4687C87.2679 20.4687 86.6839 20.3287 86.1719 20.0487C85.6599 19.7687 85.2599 19.3687 84.9719 18.8487C84.6839 18.3287 84.5399 17.7207 84.5399 17.0247C84.5399 16.3287 84.6799 15.7207 84.9599 15.2007C85.2479 14.6807 85.6479 14.2807 86.1599 14.0007C86.6719 13.7207 87.2599 13.5807 87.9239 13.5807C88.5719 13.5807 89.1479 13.7167 89.6519 13.9887C90.1559 14.2607 90.5479 14.6487 90.8279 15.1527C91.1159 15.6567 91.2599 16.2447 91.2599 16.9167ZM89.1599 16.3767C89.1599 16.0247 89.0399 15.7447 88.7999 15.5367C88.5599 15.3287 88.2599 15.2247 87.8999 15.2247C87.5559 15.2247 87.2639 15.3247 87.0239 15.5247C86.7919 15.7247 86.6479 16.0087 86.5919 16.3767H89.1599ZM100.37 18.8847H97.2254L96.7214 20.3727H94.5734L97.6214 11.9487H99.9974L103.046 20.3727H100.874L100.37 18.8847ZM99.8414 17.3007L98.7974 14.2167L97.7654 17.3007H99.8414ZM106.146 14.7927C106.386 14.4247 106.686 14.1367 107.046 13.9287C107.406 13.7127 107.806 13.6047 108.246 13.6047V15.7767H107.682C107.17 15.7767 106.786 15.8887 106.53 16.1127C106.274 16.3287 106.146 16.7127 106.146 17.2647V20.3727H104.094V13.6767H106.146V14.7927ZM111.398 14.7927C111.638 14.4247 111.938 14.1367 112.298 13.9287C112.658 13.7127 113.058 13.6047 113.498 13.6047V15.7767H112.934C112.422 15.7767 112.038 15.8887 111.782 16.1127C111.526 16.3287 111.398 16.7127 111.398 17.2647V20.3727H109.346V13.6767H111.398V14.7927ZM115.631 12.9807C115.271 12.9807 114.975 12.8767 114.743 12.6687C114.519 12.4527 114.407 12.1887 114.407 11.8767C114.407 11.5567 114.519 11.2927 114.743 11.0847C114.975 10.8687 115.271 10.7607 115.631 10.7607C115.983 10.7607 116.271 10.8687 116.495 11.0847C116.727 11.2927 116.843 11.5567 116.843 11.8767C116.843 12.1887 116.727 12.4527 116.495 12.6687C116.271 12.8767 115.983 12.9807 115.631 12.9807ZM116.651 13.6767V20.3727H114.599V13.6767H116.651ZM121.27 18.4527L122.722 13.6767H124.906L122.53 20.3727H119.998L117.622 13.6767H119.818L121.27 18.4527ZM126.922 12.9807C126.562 12.9807 126.266 12.8767 126.034 12.6687C125.81 12.4527 125.698 12.1887 125.698 11.8767C125.698 11.5567 125.81 11.2927 126.034 11.0847C126.266 10.8687 126.562 10.7607 126.922 10.7607C127.274 10.7607 127.562 10.8687 127.786 11.0847C128.018 11.2927 128.134 11.5567 128.134 11.8767C128.134 12.1887 128.018 12.4527 127.786 12.6687C127.562 12.8767 127.274 12.9807 126.922 12.9807ZM127.942 13.6767V20.3727H125.89V13.6767H127.942ZM133.629 13.6047C134.413 13.6047 135.037 13.8607 135.501 14.3727C135.973 14.8767 136.209 15.5727 136.209 16.4607V20.3727H134.169V16.7367C134.169 16.2887 134.053 15.9407 133.821 15.6927C133.589 15.4447 133.277 15.3207 132.885 15.3207C132.493 15.3207 132.181 15.4447 131.949 15.6927C131.717 15.9407 131.601 16.2887 131.601 16.7367V20.3727H129.549V13.6767H131.601V14.5647C131.809 14.2687 132.089 14.0367 132.441 13.8687C132.793 13.6927 133.189 13.6047 133.629 13.6047ZM140.299 13.5807C140.771 13.5807 141.183 13.6767 141.535 13.8687C141.895 14.0607 142.171 14.3127 142.363 14.6247V13.6767H144.415V20.3607C144.415 20.9767 144.291 21.5327 144.043 22.0287C143.803 22.5327 143.431 22.9327 142.927 23.2287C142.431 23.5247 141.811 23.6727 141.067 23.6727C140.075 23.6727 139.271 23.4367 138.655 22.9647C138.039 22.5007 137.687 21.8687 137.599 21.0687H139.627C139.691 21.3247 139.843 21.5247 140.083 21.6687C140.323 21.8207 140.619 21.8967 140.971 21.8967C141.395 21.8967 141.731 21.7727 141.979 21.5247C142.235 21.2847 142.363 20.8967 142.363 20.3607V19.4127C142.163 19.7247 141.887 19.9807 141.535 20.1807C141.183 20.3727 140.771 20.4687 140.299 20.4687C139.747 20.4687 139.247 20.3287 138.799 20.0487C138.351 19.7607 137.995 19.3567 137.731 18.8367C137.475 18.3087 137.347 17.7007 137.347 17.0127C137.347 16.3247 137.475 15.7207 137.731 15.2007C137.995 14.6807 138.351 14.2807 138.799 14.0007C139.247 13.7207 139.747 13.5807 140.299 13.5807ZM142.363 17.0247C142.363 16.5127 142.219 16.1087 141.931 15.8127C141.651 15.5167 141.307 15.3687 140.899 15.3687C140.491 15.3687 140.143 15.5167 139.855 15.8127C139.575 16.1007 139.435 16.5007 139.435 17.0127C139.435 17.5247 139.575 17.9327 139.855 18.2367C140.143 18.5327 140.491 18.6807 140.899 18.6807C141.307 18.6807 141.651 18.5327 141.931 18.2367C142.219 17.9407 142.363 17.5367 142.363 17.0247ZM103.003 27.9487L100.807 36.3727H98.3225L96.9785 30.8287L95.5865 36.3727H93.1025L90.9665 27.9487H93.1625L94.3745 34.0807L95.8745 27.9487H98.1305L99.5705 34.0807L100.795 27.9487H103.003ZM105.184 28.9807C104.824 28.9807 104.528 28.8767 104.296 28.6687C104.072 28.4527 103.96 28.1887 103.96 27.8767C103.96 27.5567 104.072 27.2927 104.296 27.0847C104.528 26.8687 104.824 26.7607 105.184 26.7607C105.536 26.7607 105.824 26.8687 106.048 27.0847C106.28 27.2927 106.396 27.5567 106.396 27.8767C106.396 28.1887 106.28 28.4527 106.048 28.6687C105.824 28.8767 105.536 28.9807 105.184 28.9807ZM106.204 29.6767V36.3727H104.152V29.6767H106.204ZM109.863 30.7927C110.103 30.4247 110.403 30.1367 110.763 29.9287C111.123 29.7127 111.523 29.6047 111.963 29.6047V31.7767H111.399C110.887 31.7767 110.503 31.8887 110.247 32.1127C109.991 32.3287 109.863 32.7127 109.863 33.2647V36.3727H107.811V29.6767H109.863V30.7927ZM119.376 32.9167C119.376 33.1087 119.364 33.3087 119.34 33.5167H114.696C114.728 33.9327 114.86 34.2527 115.092 34.4767C115.332 34.6927 115.624 34.8007 115.968 34.8007C116.48 34.8007 116.836 34.5847 117.036 34.1527H119.22C119.108 34.5927 118.904 34.9887 118.608 35.3407C118.32 35.6927 117.956 35.9687 117.516 36.1687C117.076 36.3687 116.584 36.4687 116.04 36.4687C115.384 36.4687 114.8 36.3287 114.288 36.0487C113.776 35.7687 113.376 35.3687 113.088 34.8487C112.8 34.3287 112.656 33.7207 112.656 33.0247C112.656 32.3287 112.796 31.7207 113.076 31.2007C113.364 30.6807 113.764 30.2807 114.276 30.0007C114.788 29.7207 115.376 29.5807 116.04 29.5807C116.688 29.5807 117.264 29.7167 117.768 29.9887C118.272 30.2607 118.664 30.6487 118.944 31.1527C119.232 31.6567 119.376 32.2447 119.376 32.9167ZM117.276 32.3767C117.276 32.0247 117.156 31.7447 116.916 31.5367C116.676 31.3287 116.376 31.2247 116.016 31.2247C115.672 31.2247 115.38 31.3247 115.14 31.5247C114.908 31.7247 114.764 32.0087 114.708 32.3767H117.276Z" fill="white"/>
<path opacity="0.2" d="M148.828 56.6137C149.09 56.3516 149.09 55.9265 148.828 55.6643L144.556 51.3922C144.294 51.13 143.869 51.13 143.607 51.3922C143.344 51.6544 143.344 52.0794 143.607 52.3416L147.404 56.139L143.607 59.9365C143.344 60.1987 143.344 60.6237 143.607 60.8859C143.869 61.148 144.294 61.148 144.556 60.8859L148.828 56.6137ZM59.7324 56.8103H148.353V55.4677H59.7324V56.8103Z" fill="white"/>
<path opacity="0.2" d="M260.727 69.2992C260.364 69.3705 260.126 69.7232 260.198 70.087L261.359 76.0161C261.43 76.38 261.783 76.6171 262.147 76.5459C262.511 76.4746 262.748 76.1219 262.677 75.758L261.644 70.4878L266.915 69.4554C267.278 69.3842 267.516 69.0314 267.444 68.6676C267.373 68.3038 267.02 68.0666 266.656 68.1379L260.727 69.2992ZM309.29 103.097C309.654 103.026 309.891 102.673 309.82 102.31L308.658 96.3804C308.587 96.0166 308.234 95.7794 307.87 95.8507C307.507 95.922 307.269 96.2747 307.341 96.6385L308.373 101.909L303.103 102.941C302.739 103.012 302.502 103.365 302.573 103.729C302.644 104.093 302.997 104.33 303.361 104.259L309.29 103.097ZM260.482 70.5151L308.786 102.996L309.535 101.881L261.231 69.4009L260.482 70.5151Z" fill="white"/>
<path d="M282.034 26.0841C281.418 26.0841 280.866 25.9841 280.378 25.7841C279.89 25.5841 279.498 25.2881 279.202 24.8961C278.914 24.5041 278.762 24.0321 278.746 23.4801H280.93C280.962 23.7921 281.07 24.0321 281.254 24.2001C281.438 24.3601 281.678 24.4401 281.974 24.4401C282.278 24.4401 282.518 24.3721 282.694 24.2361C282.87 24.0921 282.958 23.8961 282.958 23.6481C282.958 23.4401 282.886 23.2681 282.742 23.1321C282.606 22.9961 282.434 22.8841 282.226 22.7961C282.026 22.7081 281.738 22.6081 281.362 22.4961C280.818 22.3281 280.374 22.1601 280.03 21.9921C279.686 21.8241 279.39 21.5761 279.142 21.2481C278.894 20.9201 278.77 20.4921 278.77 19.9641C278.77 19.1801 279.054 18.5681 279.622 18.1281C280.19 17.6801 280.93 17.4561 281.842 17.4561C282.77 17.4561 283.518 17.6801 284.086 18.1281C284.654 18.5681 284.958 19.1841 284.998 19.9761H282.778C282.762 19.7041 282.662 19.4921 282.478 19.3401C282.294 19.1801 282.058 19.1001 281.77 19.1001C281.522 19.1001 281.322 19.1681 281.17 19.3041C281.018 19.4321 280.942 19.6201 280.942 19.8681C280.942 20.1401 281.07 20.3521 281.326 20.5041C281.582 20.6561 281.982 20.8201 282.526 20.9961C283.07 21.1801 283.51 21.3561 283.846 21.5241C284.19 21.6921 284.486 21.9361 284.734 22.2561C284.982 22.5761 285.106 22.9881 285.106 23.4921C285.106 23.9721 284.982 24.4081 284.734 24.8001C284.494 25.1921 284.142 25.5041 283.678 25.7361C283.214 25.9681 282.666 26.0841 282.034 26.0841ZM290.605 19.2321C291.373 19.2321 291.989 19.4881 292.453 20.0001C292.917 20.5041 293.149 21.2001 293.149 22.0881V26.0001H291.109V22.3641C291.109 21.9161 290.993 21.5681 290.761 21.3201C290.529 21.0721 290.217 20.9481 289.825 20.9481C289.433 20.9481 289.121 21.0721 288.889 21.3201C288.657 21.5681 288.541 21.9161 288.541 22.3641V26.0001H286.489V17.1201H288.541V20.2041C288.749 19.9081 289.033 19.6721 289.393 19.4961C289.753 19.3201 290.157 19.2321 290.605 19.2321ZM297.743 26.0961C297.087 26.0961 296.495 25.9561 295.967 25.6761C295.447 25.3961 295.035 24.9961 294.731 24.4761C294.435 23.9561 294.287 23.3481 294.287 22.6521C294.287 21.9641 294.439 21.3601 294.743 20.8401C295.047 20.3121 295.463 19.9081 295.991 19.6281C296.519 19.3481 297.111 19.2081 297.767 19.2081C298.423 19.2081 299.015 19.3481 299.543 19.6281C300.071 19.9081 300.487 20.3121 300.791 20.8401C301.095 21.3601 301.247 21.9641 301.247 22.6521C301.247 23.3401 301.091 23.9481 300.779 24.4761C300.475 24.9961 300.055 25.3961 299.519 25.6761C298.991 25.9561 298.399 26.0961 297.743 26.0961ZM297.743 24.3201C298.135 24.3201 298.467 24.1761 298.739 23.8881C299.019 23.6001 299.159 23.1881 299.159 22.6521C299.159 22.1161 299.023 21.7041 298.751 21.4161C298.487 21.1281 298.159 20.9841 297.767 20.9841C297.367 20.9841 297.035 21.1281 296.771 21.4161C296.507 21.6961 296.375 22.1081 296.375 22.6521C296.375 23.1881 296.503 23.6001 296.759 23.8881C297.023 24.1761 297.351 24.3201 297.743 24.3201ZM304.508 20.4201C304.748 20.0521 305.048 19.7641 305.408 19.5561C305.768 19.3401 306.168 19.2321 306.608 19.2321V21.4041H306.044C305.532 21.4041 305.148 21.5161 304.892 21.7401C304.636 21.9561 304.508 22.3401 304.508 22.8921V26.0001H302.456V19.3041H304.508V20.4201ZM311.44 24.2601V26.0001H310.396C309.652 26.0001 309.072 25.8201 308.656 25.4601C308.24 25.0921 308.032 24.4961 308.032 23.6721V21.0081H307.216V19.3041H308.032V17.6721H310.084V19.3041H311.428V21.0081H310.084V23.6961C310.084 23.8961 310.132 24.0401 310.228 24.1281C310.324 24.2161 310.484 24.2601 310.708 24.2601H311.44ZM319.015 22.5441C319.015 22.7361 319.003 22.9361 318.979 23.1441H314.335C314.367 23.5601 314.499 23.8801 314.731 24.1041C314.971 24.3201 315.263 24.4281 315.607 24.4281C316.119 24.4281 316.475 24.2121 316.675 23.7801H318.859C318.747 24.2201 318.543 24.6161 318.247 24.9681C317.959 25.3201 317.595 25.5961 317.155 25.7961C316.715 25.9961 316.223 26.0961 315.679 26.0961C315.023 26.0961 314.439 25.9561 313.927 25.6761C313.415 25.3961 313.015 24.9961 312.727 24.4761C312.439 23.9561 312.295 23.3481 312.295 22.6521C312.295 21.9561 312.435 21.3481 312.715 20.8281C313.003 20.3081 313.403 19.9081 313.915 19.6281C314.427 19.3481 315.015 19.2081 315.679 19.2081C316.327 19.2081 316.903 19.3441 317.407 19.6161C317.911 19.8881 318.303 20.2761 318.583 20.7801C318.871 21.2841 319.015 21.8721 319.015 22.5441ZM316.915 22.0041C316.915 21.6521 316.795 21.3721 316.555 21.1641C316.315 20.9561 316.015 20.8521 315.655 20.8521C315.311 20.8521 315.019 20.9521 314.779 21.1521C314.547 21.3521 314.403 21.6361 314.347 22.0041H316.915ZM322.27 20.4201C322.51 20.0521 322.81 19.7641 323.17 19.5561C323.53 19.3401 323.93 19.2321 324.37 19.2321V21.4041H323.806C323.294 21.4041 322.91 21.5161 322.654 21.7401C322.398 21.9561 322.27 22.3401 322.27 22.8921V26.0001H320.218V19.3041H322.27V20.4201ZM331.866 24.2601V26.0001H330.822C330.078 26.0001 329.498 25.8201 329.082 25.4601C328.666 25.0921 328.458 24.4961 328.458 23.6721V21.0081H327.642V19.3041H328.458V17.6721H330.51V19.3041H331.854V21.0081H330.51V23.6961C330.51 23.8961 330.558 24.0401 330.654 24.1281C330.75 24.2161 330.91 24.2601 331.134 24.2601H331.866ZM339.441 22.5441C339.441 22.7361 339.429 22.9361 339.405 23.1441H334.761C334.793 23.5601 334.925 23.8801 335.157 24.1041C335.397 24.3201 335.689 24.4281 336.033 24.4281C336.545 24.4281 336.901 24.2121 337.101 23.7801H339.285C339.173 24.2201 338.969 24.6161 338.673 24.9681C338.385 25.3201 338.021 25.5961 337.581 25.7961C337.141 25.9961 336.649 26.0961 336.105 26.0961C335.449 26.0961 334.865 25.9561 334.353 25.6761C333.841 25.3961 333.441 24.9961 333.153 24.4761C332.865 23.9561 332.721 23.3481 332.721 22.6521C332.721 21.9561 332.861 21.3481 333.141 20.8281C333.429 20.3081 333.829 19.9081 334.341 19.6281C334.853 19.3481 335.441 19.2081 336.105 19.2081C336.753 19.2081 337.329 19.3441 337.833 19.6161C338.337 19.8881 338.729 20.2761 339.009 20.7801C339.297 21.2841 339.441 21.8721 339.441 22.5441ZM337.341 22.0041C337.341 21.6521 337.221 21.3721 336.981 21.1641C336.741 20.9561 336.441 20.8521 336.081 20.8521C335.737 20.8521 335.445 20.9521 335.205 21.1521C334.973 21.3521 334.829 21.6361 334.773 22.0041H337.341ZM342.695 20.4201C342.935 20.0521 343.235 19.7641 343.595 19.5561C343.955 19.3401 344.355 19.2321 344.795 19.2321V21.4041H344.231C343.719 21.4041 343.335 21.5161 343.079 21.7401C342.823 21.9561 342.695 22.3401 342.695 22.8921V26.0001H340.643V19.3041H342.695V20.4201ZM354.44 19.2321C355.272 19.2321 355.932 19.4841 356.42 19.9881C356.916 20.4921 357.164 21.1921 357.164 22.0881V26.0001H355.124V22.3641C355.124 21.9321 355.008 21.6001 354.776 21.3681C354.552 21.1281 354.24 21.0081 353.84 21.0081C353.44 21.0081 353.124 21.1281 352.892 21.3681C352.668 21.6001 352.556 21.9321 352.556 22.3641V26.0001H350.516V22.3641C350.516 21.9321 350.4 21.6001 350.168 21.3681C349.944 21.1281 349.632 21.0081 349.232 21.0081C348.832 21.0081 348.516 21.1281 348.284 21.3681C348.06 21.6001 347.948 21.9321 347.948 22.3641V26.0001H345.896V19.3041H347.948V20.1441C348.156 19.8641 348.428 19.6441 348.764 19.4841C349.1 19.3161 349.48 19.2321 349.904 19.2321C350.408 19.2321 350.856 19.3401 351.248 19.5561C351.648 19.7721 351.96 20.0801 352.184 20.4801C352.416 20.1121 352.732 19.8121 353.132 19.5801C353.532 19.3481 353.968 19.2321 354.44 19.2321ZM363.434 20.2521C363.626 19.9401 363.902 19.6881 364.262 19.4961C364.622 19.3041 365.034 19.2081 365.498 19.2081C366.05 19.2081 366.55 19.3481 366.998 19.6281C367.446 19.9081 367.798 20.3081 368.054 20.8281C368.318 21.3481 368.45 21.9521 368.45 22.6401C368.45 23.3281 368.318 23.9361 368.054 24.4641C367.798 24.9841 367.446 25.3881 366.998 25.6761C366.55 25.9561 366.05 26.0961 365.498 26.0961C365.026 26.0961 364.614 26.0041 364.262 25.8201C363.91 25.6281 363.634 25.3761 363.434 25.0641V26.0001H361.382V17.1201H363.434V20.2521ZM366.362 22.6401C366.362 22.1281 366.218 21.7281 365.93 21.4401C365.65 21.1441 365.302 20.9961 364.886 20.9961C364.478 20.9961 364.13 21.1441 363.842 21.4401C363.562 21.7361 363.422 22.1401 363.422 22.6521C363.422 23.1641 363.562 23.5681 363.842 23.8641C364.13 24.1601 364.478 24.3081 364.886 24.3081C365.294 24.3081 365.642 24.1601 365.93 23.8641C366.218 23.5601 366.362 23.1521 366.362 22.6401ZM369.239 22.6401C369.239 21.9521 369.367 21.3481 369.623 20.8281C369.887 20.3081 370.243 19.9081 370.691 19.6281C371.139 19.3481 371.639 19.2081 372.191 19.2081C372.663 19.2081 373.075 19.3041 373.427 19.4961C373.787 19.6881 374.063 19.9401 374.255 20.2521V19.3041H376.307V26.0001H374.255V25.0521C374.055 25.3641 373.775 25.6161 373.415 25.8081C373.063 26.0001 372.651 26.0961 372.179 26.0961C371.635 26.0961 371.139 25.9561 370.691 25.6761C370.243 25.3881 369.887 24.9841 369.623 24.4641C369.367 23.9361 369.239 23.3281 369.239 22.6401ZM374.255 22.6521C374.255 22.1401 374.111 21.7361 373.823 21.4401C373.543 21.1441 373.199 20.9961 372.791 20.9961C372.383 20.9961 372.035 21.1441 371.747 21.4401C371.467 21.7281 371.327 22.1281 371.327 22.6401C371.327 23.1521 371.467 23.5601 371.747 23.8641C372.035 24.1601 372.383 24.3081 372.791 24.3081C373.199 24.3081 373.543 24.1601 373.823 23.8641C374.111 23.5681 374.255 23.1641 374.255 22.6521ZM380.635 26.0961C380.051 26.0961 379.531 25.9961 379.075 25.7961C378.619 25.5961 378.259 25.3241 377.995 24.9801C377.731 24.6281 377.583 24.2361 377.551 23.8041H379.579C379.603 24.0361 379.711 24.2241 379.903 24.3681C380.095 24.5121 380.331 24.5841 380.611 24.5841C380.867 24.5841 381.063 24.5361 381.199 24.4401C381.343 24.3361 381.415 24.2041 381.415 24.0441C381.415 23.8521 381.315 23.7121 381.115 23.6241C380.915 23.5281 380.591 23.4241 380.143 23.3121C379.663 23.2001 379.263 23.0841 378.943 22.9641C378.623 22.8361 378.347 22.6401 378.115 22.3761C377.883 22.1041 377.767 21.7401 377.767 21.2841C377.767 20.9001 377.871 20.5521 378.079 20.2401C378.295 19.9201 378.607 19.6681 379.015 19.4841C379.431 19.3001 379.923 19.2081 380.491 19.2081C381.331 19.2081 381.991 19.4161 382.471 19.8321C382.959 20.2481 383.239 20.8001 383.311 21.4881H381.415C381.383 21.2561 381.279 21.0721 381.103 20.9361C380.935 20.8001 380.711 20.7321 380.431 20.7321C380.191 20.7321 380.007 20.7801 379.879 20.8761C379.751 20.9641 379.687 21.0881 379.687 21.2481C379.687 21.4401 379.787 21.5841 379.987 21.6801C380.195 21.7761 380.515 21.8721 380.947 21.9681C381.443 22.0961 381.847 22.2241 382.159 22.3521C382.471 22.4721 382.743 22.6721 382.975 22.9521C383.215 23.2241 383.339 23.5921 383.347 24.0561C383.347 24.4481 383.235 24.8001 383.011 25.1121C382.795 25.4161 382.479 25.6561 382.063 25.8321C381.655 26.0081 381.179 26.0961 380.635 26.0961ZM391.035 22.5441C391.035 22.7361 391.023 22.9361 390.999 23.1441H386.355C386.387 23.5601 386.519 23.8801 386.751 24.1041C386.991 24.3201 387.283 24.4281 387.627 24.4281C388.139 24.4281 388.495 24.2121 388.695 23.7801H390.879C390.767 24.2201 390.563 24.6161 390.267 24.9681C389.979 25.3201 389.615 25.5961 389.175 25.7961C388.735 25.9961 388.243 26.0961 387.699 26.0961C387.043 26.0961 386.459 25.9561 385.947 25.6761C385.435 25.3961 385.035 24.9961 384.747 24.4761C384.459 23.9561 384.315 23.3481 384.315 22.6521C384.315 21.9561 384.455 21.3481 384.735 20.8281C385.023 20.3081 385.423 19.9081 385.935 19.6281C386.447 19.3481 387.035 19.2081 387.699 19.2081C388.347 19.2081 388.923 19.3441 389.427 19.6161C389.931 19.8881 390.323 20.2761 390.603 20.7801C390.891 21.2841 391.035 21.8721 391.035 22.5441ZM388.935 22.0041C388.935 21.6521 388.815 21.3721 388.575 21.1641C388.335 20.9561 388.035 20.8521 387.675 20.8521C387.331 20.8521 387.039 20.9521 386.799 21.1521C386.567 21.3521 386.423 21.6361 386.367 22.0041H388.935ZM391.829 22.6401C391.829 21.9521 391.957 21.3481 392.213 20.8281C392.477 20.3081 392.833 19.9081 393.281 19.6281C393.729 19.3481 394.229 19.2081 394.781 19.2081C395.221 19.2081 395.621 19.3001 395.981 19.4841C396.349 19.6681 396.637 19.9161 396.845 20.2281V17.1201H398.897V26.0001H396.845V25.0401C396.653 25.3601 396.377 25.6161 396.017 25.8081C395.665 26.0001 395.253 26.0961 394.781 26.0961C394.229 26.0961 393.729 25.9561 393.281 25.6761C392.833 25.3881 392.477 24.9841 392.213 24.4641C391.957 23.9361 391.829 23.3281 391.829 22.6401ZM396.845 22.6521C396.845 22.1401 396.701 21.7361 396.413 21.4401C396.133 21.1441 395.789 20.9961 395.381 20.9961C394.973 20.9961 394.625 21.1441 394.337 21.4401C394.057 21.7281 393.917 22.1281 393.917 22.6401C393.917 23.1521 394.057 23.5601 394.337 23.8641C394.625 24.1601 394.973 24.3081 395.381 24.3081C395.789 24.3081 396.133 24.1601 396.413 23.8641C396.701 23.5681 396.845 23.1641 396.845 22.6521ZM296.229 36.4201C296.469 36.0521 296.769 35.7641 297.129 35.5561C297.489 35.3401 297.889 35.2321 298.329 35.2321V37.4041H297.765C297.253 37.4041 296.869 37.5161 296.613 37.7401C296.357 37.9561 296.229 38.3401 296.229 38.8921V42.0001H294.177V35.3041H296.229V36.4201ZM299.021 38.6401C299.021 37.9521 299.149 37.3481 299.405 36.8281C299.669 36.3081 300.025 35.9081 300.473 35.6281C300.921 35.3481 301.421 35.2081 301.973 35.2081C302.445 35.2081 302.857 35.3041 303.209 35.4961C303.569 35.6881 303.845 35.9401 304.037 36.2521V35.3041H306.089V42.0001H304.037V41.0521C303.837 41.3641 303.557 41.6161 303.197 41.8081C302.845 42.0001 302.433 42.0961 301.961 42.0961C301.417 42.0961 300.921 41.9561 300.473 41.6761C300.025 41.3881 299.669 40.9841 299.405 40.4641C299.149 39.9361 299.021 39.3281 299.021 38.6401ZM304.037 38.6521C304.037 38.1401 303.893 37.7361 303.605 37.4401C303.325 37.1441 302.981 36.9961 302.573 36.9961C302.165 36.9961 301.817 37.1441 301.529 37.4401C301.249 37.7281 301.109 38.1281 301.109 38.6401C301.109 39.1521 301.249 39.5601 301.529 39.8641C301.817 40.1601 302.165 40.3081 302.573 40.3081C302.981 40.3081 303.325 40.1601 303.605 39.8641C303.893 39.5681 304.037 39.1641 304.037 38.6521ZM311.426 40.2601V42.0001H310.382C309.638 42.0001 309.058 41.8201 308.642 41.4601C308.226 41.0921 308.018 40.4961 308.018 39.6721V37.0081H307.202V35.3041H308.018V33.6721H310.07V35.3041H311.414V37.0081H310.07V39.6961C310.07 39.8961 310.118 40.0401 310.214 40.1281C310.31 40.2161 310.47 40.2601 310.694 40.2601H311.426ZM319.001 38.5441C319.001 38.7361 318.989 38.9361 318.965 39.1441H314.321C314.353 39.5601 314.485 39.8801 314.717 40.1041C314.957 40.3201 315.249 40.4281 315.593 40.4281C316.105 40.4281 316.461 40.2121 316.661 39.7801H318.845C318.733 40.2201 318.529 40.6161 318.233 40.9681C317.945 41.3201 317.581 41.5961 317.141 41.7961C316.701 41.9961 316.209 42.0961 315.665 42.0961C315.009 42.0961 314.425 41.9561 313.913 41.6761C313.401 41.3961 313.001 40.9961 312.713 40.4761C312.425 39.9561 312.281 39.3481 312.281 38.6521C312.281 37.9561 312.421 37.3481 312.701 36.8281C312.989 36.3081 313.389 35.9081 313.901 35.6281C314.413 35.3481 315.001 35.2081 315.665 35.2081C316.313 35.2081 316.889 35.3441 317.393 35.6161C317.897 35.8881 318.289 36.2761 318.569 36.7801C318.857 37.2841 319.001 37.8721 319.001 38.5441ZM316.901 38.0041C316.901 37.6521 316.781 37.3721 316.541 37.1641C316.301 36.9561 316.001 36.8521 315.641 36.8521C315.297 36.8521 315.005 36.9521 314.765 37.1521C314.533 37.3521 314.389 37.6361 314.333 38.0041H316.901ZM322.927 42.0961C322.343 42.0961 321.823 41.9961 321.367 41.7961C320.911 41.5961 320.551 41.3241 320.287 40.9801C320.023 40.6281 319.875 40.2361 319.843 39.8041H321.871C321.895 40.0361 322.003 40.2241 322.195 40.3681C322.387 40.5121 322.623 40.5841 322.903 40.5841C323.159 40.5841 323.355 40.5361 323.491 40.4401C323.635 40.3361 323.707 40.2041 323.707 40.0441C323.707 39.8521 323.607 39.7121 323.407 39.6241C323.207 39.5281 322.883 39.4241 322.435 39.3121C321.955 39.2001 321.555 39.0841 321.235 38.9641C320.915 38.8361 320.639 38.6401 320.407 38.3761C320.175 38.1041 320.059 37.7401 320.059 37.2841C320.059 36.9001 320.163 36.5521 320.371 36.2401C320.587 35.9201 320.899 35.6681 321.307 35.4841C321.723 35.3001 322.215 35.2081 322.783 35.2081C323.623 35.2081 324.283 35.4161 324.763 35.8321C325.251 36.2481 325.531 36.8001 325.603 37.4881H323.707C323.675 37.2561 323.571 37.0721 323.395 36.9361C323.227 36.8001 323.003 36.7321 322.723 36.7321C322.483 36.7321 322.299 36.7801 322.171 36.8761C322.043 36.9641 321.979 37.0881 321.979 37.2481C321.979 37.4401 322.079 37.5841 322.279 37.6801C322.487 37.7761 322.807 37.8721 323.239 37.9681C323.735 38.0961 324.139 38.2241 324.451 38.3521C324.763 38.4721 325.035 38.6721 325.267 38.9521C325.507 39.2241 325.631 39.5921 325.639 40.0561C325.639 40.4481 325.527 40.8001 325.303 41.1121C325.087 41.4161 324.771 41.6561 324.355 41.8321C323.947 42.0081 323.471 42.0961 322.927 42.0961ZM329.223 40.1041L327.891 43.5481H326.583L327.279 40.1041H329.223ZM335.295 33.1201V42.0001H333.243V33.1201H335.295ZM337.934 34.6081C337.574 34.6081 337.278 34.5041 337.046 34.2961C336.822 34.0801 336.71 33.8161 336.71 33.5041C336.71 33.1841 336.822 32.9201 337.046 32.7121C337.278 32.4961 337.574 32.3881 337.934 32.3881C338.286 32.3881 338.574 32.4961 338.798 32.7121C339.03 32.9201 339.146 33.1841 339.146 33.5041C339.146 33.8161 339.03 34.0801 338.798 34.2961C338.574 34.5041 338.286 34.6081 337.934 34.6081ZM338.954 35.3041V42.0001H336.902V35.3041H338.954ZM340.153 38.6641C340.153 38.0001 340.289 37.4081 340.561 36.8881C340.841 36.3681 341.213 35.9641 341.677 35.6761C342.149 35.3801 342.661 35.2321 343.213 35.2321C343.637 35.2321 344.017 35.3081 344.353 35.4601C344.689 35.6041 344.961 35.8081 345.169 36.0721V35.3041H347.221V45.1921H345.169V41.1601C344.937 41.4401 344.653 41.6641 344.317 41.8321C343.989 42.0001 343.613 42.0841 343.189 42.0841C342.645 42.0841 342.141 41.9401 341.677 41.6521C341.213 41.3641 340.841 40.9601 340.561 40.4401C340.289 39.9201 340.153 39.3281 340.153 38.6641ZM345.169 38.6521C345.169 38.2921 345.097 37.9921 344.953 37.7521C344.817 37.5041 344.637 37.3201 344.413 37.2001C344.189 37.0721 343.953 37.0081 343.705 37.0081C343.465 37.0081 343.233 37.0721 343.009 37.2001C342.785 37.3201 342.601 37.5041 342.457 37.7521C342.313 38.0001 342.241 38.3041 342.241 38.6641C342.241 39.0241 342.313 39.3281 342.457 39.5761C342.601 39.8161 342.785 40.0001 343.009 40.1281C343.233 40.2481 343.465 40.3081 343.705 40.3081C343.945 40.3081 344.177 40.2481 344.401 40.1281C344.633 40.0001 344.817 39.8121 344.953 39.5641C345.097 39.3161 345.169 39.0121 345.169 38.6521ZM355.438 35.3041V42.0001H353.386V41.0881C353.178 41.3841 352.894 41.6241 352.534 41.8081C352.182 41.9841 351.79 42.0721 351.358 42.0721C350.846 42.0721 350.394 41.9601 350.002 41.7361C349.61 41.5041 349.306 41.1721 349.09 40.7401C348.874 40.3081 348.766 39.8001 348.766 39.2161V35.3041H350.806V38.9401C350.806 39.3881 350.922 39.7361 351.154 39.9841C351.386 40.2321 351.698 40.3561 352.09 40.3561C352.49 40.3561 352.806 40.2321 353.038 39.9841C353.27 39.7361 353.386 39.3881 353.386 38.9401V35.3041H355.438ZM358.064 34.6081C357.704 34.6081 357.408 34.5041 357.176 34.2961C356.952 34.0801 356.84 33.8161 356.84 33.5041C356.84 33.1841 356.952 32.9201 357.176 32.7121C357.408 32.4961 357.704 32.3881 358.064 32.3881C358.416 32.3881 358.704 32.4961 358.928 32.7121C359.16 32.9201 359.276 33.1841 359.276 33.5041C359.276 33.8161 359.16 34.0801 358.928 34.2961C358.704 34.5041 358.416 34.6081 358.064 34.6081ZM359.084 35.3041V42.0001H357.032V35.3041H359.084ZM360.283 38.6401C360.283 37.9521 360.411 37.3481 360.667 36.8281C360.931 36.3081 361.287 35.9081 361.735 35.6281C362.183 35.3481 362.683 35.2081 363.235 35.2081C363.675 35.2081 364.075 35.3001 364.435 35.4841C364.803 35.6681 365.091 35.9161 365.299 36.2281V33.1201H367.351V42.0001H365.299V41.0401C365.107 41.3601 364.831 41.6161 364.471 41.8081C364.119 42.0001 363.707 42.0961 363.235 42.0961C362.683 42.0961 362.183 41.9561 361.735 41.6761C361.287 41.3881 360.931 40.9841 360.667 40.4641C360.411 39.9361 360.283 39.3281 360.283 38.6401ZM365.299 38.6521C365.299 38.1401 365.155 37.7361 364.867 37.4401C364.587 37.1441 364.243 36.9961 363.835 36.9961C363.427 36.9961 363.079 37.1441 362.791 37.4401C362.511 37.7281 362.371 38.1281 362.371 38.6401C362.371 39.1521 362.511 39.5601 362.791 39.8641C363.079 40.1601 363.427 40.3081 363.835 40.3081C364.243 40.3081 364.587 40.1601 364.867 39.8641C365.155 39.5681 365.299 39.1641 365.299 38.6521ZM369.987 34.6081C369.627 34.6081 369.331 34.5041 369.099 34.2961C368.875 34.0801 368.763 33.8161 368.763 33.5041C368.763 33.1841 368.875 32.9201 369.099 32.7121C369.331 32.4961 369.627 32.3881 369.987 32.3881C370.339 32.3881 370.627 32.4961 370.851 32.7121C371.083 32.9201 371.199 33.1841 371.199 33.5041C371.199 33.8161 371.083 34.0801 370.851 34.2961C370.627 34.5041 370.339 34.6081 369.987 34.6081ZM371.007 35.3041V42.0001H368.955V35.3041H371.007ZM376.346 40.2601V42.0001H375.302C374.558 42.0001 373.978 41.8201 373.562 41.4601C373.146 41.0921 372.938 40.4961 372.938 39.6721V37.0081H372.122V35.3041H372.938V33.6721H374.99V35.3041H376.334V37.0081H374.99V39.6961C374.99 39.8961 375.038 40.0401 375.134 40.1281C375.23 40.2161 375.39 40.2601 375.614 40.2601H376.346ZM384.449 35.3041L380.249 45.1801H378.041L379.577 41.7721L376.853 35.3041H379.145L380.693 39.4921L382.229 35.3041H384.449ZM299.426 54.5441C299.426 54.7361 299.414 54.9361 299.39 55.1441H294.746C294.778 55.5601 294.91 55.8801 295.142 56.1041C295.382 56.3201 295.674 56.4281 296.018 56.4281C296.53 56.4281 296.886 56.2121 297.086 55.7801H299.27C299.158 56.2201 298.954 56.6161 298.658 56.9681C298.37 57.3201 298.006 57.5961 297.566 57.7961C297.126 57.9961 296.634 58.0961 296.09 58.0961C295.434 58.0961 294.85 57.9561 294.338 57.6761C293.826 57.3961 293.426 56.9961 293.138 56.4761C292.85 55.9561 292.706 55.3481 292.706 54.6521C292.706 53.9561 292.846 53.3481 293.126 52.8281C293.414 52.3081 293.814 51.9081 294.326 51.6281C294.838 51.3481 295.426 51.2081 296.09 51.2081C296.738 51.2081 297.314 51.3441 297.818 51.6161C298.322 51.8881 298.714 52.2761 298.994 52.7801C299.282 53.2841 299.426 53.8721 299.426 54.5441ZM297.326 54.0041C297.326 53.6521 297.206 53.3721 296.966 53.1641C296.726 52.9561 296.426 52.8521 296.066 52.8521C295.722 52.8521 295.43 52.9521 295.19 53.1521C294.958 53.3521 294.814 53.6361 294.758 54.0041H297.326ZM304.589 58.0001L303.305 56.1401L302.225 58.0001H300.005L302.213 54.5801L299.945 51.3041H302.249L303.533 53.1521L304.613 51.3041H306.833L304.589 54.6761L306.893 58.0001H304.589ZM309.856 52.2521C310.056 51.9401 310.332 51.6881 310.684 51.4961C311.036 51.3041 311.448 51.2081 311.92 51.2081C312.472 51.2081 312.972 51.3481 313.42 51.6281C313.868 51.9081 314.22 52.3081 314.476 52.8281C314.74 53.3481 314.872 53.9521 314.872 54.6401C314.872 55.3281 314.74 55.9361 314.476 56.4641C314.22 56.9841 313.868 57.3881 313.42 57.6761C312.972 57.9561 312.472 58.0961 311.92 58.0961C311.456 58.0961 311.044 58.0001 310.684 57.8081C310.332 57.6161 310.056 57.3681 309.856 57.0641V61.1921H307.804V51.3041H309.856V52.2521ZM312.784 54.6401C312.784 54.1281 312.64 53.7281 312.352 53.4401C312.072 53.1441 311.724 52.9961 311.308 52.9961C310.9 52.9961 310.552 53.1441 310.264 53.4401C309.984 53.7361 309.844 54.1401 309.844 54.6521C309.844 55.1641 309.984 55.5681 310.264 55.8641C310.552 56.1601 310.9 56.3081 311.308 56.3081C311.716 56.3081 312.064 56.1601 312.352 55.8641C312.64 55.5601 312.784 55.1521 312.784 54.6401ZM315.66 54.6401C315.66 53.9521 315.788 53.3481 316.044 52.8281C316.308 52.3081 316.664 51.9081 317.112 51.6281C317.56 51.3481 318.06 51.2081 318.612 51.2081C319.084 51.2081 319.496 51.3041 319.848 51.4961C320.208 51.6881 320.484 51.9401 320.676 52.2521V51.3041H322.728V58.0001H320.676V57.0521C320.476 57.3641 320.196 57.6161 319.836 57.8081C319.484 58.0001 319.072 58.0961 318.6 58.0961C318.056 58.0961 317.56 57.9561 317.112 57.6761C316.664 57.3881 316.308 56.9841 316.044 56.4641C315.788 55.9361 315.66 55.3281 315.66 54.6401ZM320.676 54.6521C320.676 54.1401 320.532 53.7361 320.244 53.4401C319.964 53.1441 319.62 52.9961 319.212 52.9961C318.804 52.9961 318.456 53.1441 318.168 53.4401C317.888 53.7281 317.748 54.1281 317.748 54.6401C317.748 55.1521 317.888 55.5601 318.168 55.8641C318.456 56.1601 318.804 56.3081 319.212 56.3081C319.62 56.3081 319.964 56.1601 320.244 55.8641C320.532 55.5681 320.676 55.1641 320.676 54.6521ZM328.413 51.2321C329.197 51.2321 329.821 51.4881 330.285 52.0001C330.757 52.5041 330.993 53.2001 330.993 54.0881V58.0001H328.953V54.3641C328.953 53.9161 328.837 53.5681 328.605 53.3201C328.373 53.0721 328.061 52.9481 327.669 52.9481C327.277 52.9481 326.965 53.0721 326.733 53.3201C326.501 53.5681 326.385 53.9161 326.385 54.3641V58.0001H324.333V51.3041H326.385V52.1921C326.593 51.8961 326.873 51.6641 327.225 51.4961C327.577 51.3201 327.973 51.2321 328.413 51.2321ZM335.263 58.0961C334.679 58.0961 334.159 57.9961 333.703 57.7961C333.247 57.5961 332.887 57.3241 332.623 56.9801C332.359 56.6281 332.211 56.2361 332.179 55.8041H334.207C334.231 56.0361 334.339 56.2241 334.531 56.3681C334.723 56.5121 334.959 56.5841 335.239 56.5841C335.495 56.5841 335.691 56.5361 335.827 56.4401C335.971 56.3361 336.043 56.2041 336.043 56.0441C336.043 55.8521 335.943 55.7121 335.743 55.6241C335.543 55.5281 335.219 55.4241 334.771 55.3121C334.291 55.2001 333.891 55.0841 333.571 54.9641C333.251 54.8361 332.975 54.6401 332.743 54.3761C332.511 54.1041 332.395 53.7401 332.395 53.2841C332.395 52.9001 332.499 52.5521 332.707 52.2401C332.923 51.9201 333.235 51.6681 333.643 51.4841C334.059 51.3001 334.551 51.2081 335.119 51.2081C335.959 51.2081 336.619 51.4161 337.099 51.8321C337.587 52.2481 337.867 52.8001 337.939 53.4881H336.043C336.011 53.2561 335.907 53.0721 335.731 52.9361C335.563 52.8001 335.339 52.7321 335.059 52.7321C334.819 52.7321 334.635 52.7801 334.507 52.8761C334.379 52.9641 334.315 53.0881 334.315 53.2481C334.315 53.4401 334.415 53.5841 334.615 53.6801C334.823 53.7761 335.143 53.8721 335.575 53.9681C336.071 54.0961 336.475 54.2241 336.787 54.3521C337.099 54.4721 337.371 54.6721 337.603 54.9521C337.843 55.2241 337.967 55.5921 337.975 56.0561C337.975 56.4481 337.863 56.8001 337.639 57.1121C337.423 57.4161 337.107 57.6561 336.691 57.8321C336.283 58.0081 335.807 58.0961 335.263 58.0961ZM340.382 50.6081C340.022 50.6081 339.726 50.5041 339.494 50.2961C339.27 50.0801 339.158 49.8161 339.158 49.5041C339.158 49.1841 339.27 48.9201 339.494 48.7121C339.726 48.4961 340.022 48.3881 340.382 48.3881C340.734 48.3881 341.022 48.4961 341.246 48.7121C341.478 48.9201 341.594 49.1841 341.594 49.5041C341.594 49.8161 341.478 50.0801 341.246 50.2961C341.022 50.5041 340.734 50.6081 340.382 50.6081ZM341.402 51.3041V58.0001H339.35V51.3041H341.402ZM346.057 58.0961C345.401 58.0961 344.809 57.9561 344.281 57.6761C343.761 57.3961 343.349 56.9961 343.045 56.4761C342.749 55.9561 342.601 55.3481 342.601 54.6521C342.601 53.9641 342.753 53.3601 343.057 52.8401C343.361 52.3121 343.777 51.9081 344.305 51.6281C344.833 51.3481 345.425 51.2081 346.081 51.2081C346.737 51.2081 347.329 51.3481 347.857 51.6281C348.385 51.9081 348.801 52.3121 349.105 52.8401C349.409 53.3601 349.561 53.9641 349.561 54.6521C349.561 55.3401 349.405 55.9481 349.093 56.4761C348.789 56.9961 348.369 57.3961 347.833 57.6761C347.305 57.9561 346.713 58.0961 346.057 58.0961ZM346.057 56.3201C346.449 56.3201 346.781 56.1761 347.053 55.8881C347.333 55.6001 347.473 55.1881 347.473 54.6521C347.473 54.1161 347.337 53.7041 347.065 53.4161C346.801 53.1281 346.473 52.9841 346.081 52.9841C345.681 52.9841 345.349 53.1281 345.085 53.4161C344.821 53.6961 344.689 54.1081 344.689 54.6521C344.689 55.1881 344.817 55.6001 345.073 55.8881C345.337 56.1761 345.665 56.3201 346.057 56.3201ZM354.85 51.2321C355.634 51.2321 356.258 51.4881 356.722 52.0001C357.194 52.5041 357.43 53.2001 357.43 54.0881V58.0001H355.39V54.3641C355.39 53.9161 355.274 53.5681 355.042 53.3201C354.81 53.0721 354.498 52.9481 354.106 52.9481C353.714 52.9481 353.402 53.0721 353.17 53.3201C352.938 53.5681 352.822 53.9161 352.822 54.3641V58.0001H350.77V51.3041H352.822V52.1921C353.03 51.8961 353.31 51.6641 353.662 51.4961C354.014 51.3201 354.41 51.2321 354.85 51.2321ZM361.231 54.6401C361.231 53.9521 361.359 53.3481 361.615 52.8281C361.879 52.3081 362.235 51.9081 362.683 51.6281C363.131 51.3481 363.631 51.2081 364.183 51.2081C364.655 51.2081 365.067 51.3041 365.419 51.4961C365.779 51.6881 366.055 51.9401 366.247 52.2521V51.3041H368.299V58.0001H366.247V57.0521C366.047 57.3641 365.767 57.6161 365.407 57.8081C365.055 58.0001 364.643 58.0961 364.171 58.0961C363.627 58.0961 363.131 57.9561 362.683 57.6761C362.235 57.3881 361.879 56.9841 361.615 56.4641C361.359 55.9361 361.231 55.3281 361.231 54.6401ZM366.247 54.6521C366.247 54.1401 366.103 53.7361 365.815 53.4401C365.535 53.1441 365.191 52.9961 364.783 52.9961C364.375 52.9961 364.027 53.1441 363.739 53.4401C363.459 53.7281 363.319 54.1281 363.319 54.6401C363.319 55.1521 363.459 55.5601 363.739 55.8641C364.027 56.1601 364.375 56.3081 364.783 56.3081C365.191 56.3081 365.535 56.1601 365.815 55.8641C366.103 55.5681 366.247 55.1641 366.247 54.6521ZM373.983 51.2321C374.767 51.2321 375.391 51.4881 375.855 52.0001C376.327 52.5041 376.563 53.2001 376.563 54.0881V58.0001H374.523V54.3641C374.523 53.9161 374.407 53.5681 374.175 53.3201C373.943 53.0721 373.631 52.9481 373.239 52.9481C372.847 52.9481 372.535 53.0721 372.303 53.3201C372.071 53.5681 371.955 53.9161 371.955 54.3641V58.0001H369.903V51.3041H371.955V52.1921C372.163 51.8961 372.443 51.6641 372.795 51.4961C373.147 51.3201 373.543 51.2321 373.983 51.2321ZM377.701 54.6401C377.701 53.9521 377.829 53.3481 378.085 52.8281C378.349 52.3081 378.705 51.9081 379.153 51.6281C379.601 51.3481 380.101 51.2081 380.653 51.2081C381.093 51.2081 381.493 51.3001 381.853 51.4841C382.221 51.6681 382.509 51.9161 382.717 52.2281V49.1201H384.769V58.0001H382.717V57.0401C382.525 57.3601 382.249 57.6161 381.889 57.8081C381.537 58.0001 381.125 58.0961 380.653 58.0961C380.101 58.0961 379.601 57.9561 379.153 57.6761C378.705 57.3881 378.349 56.9841 378.085 56.4641C377.829 55.9361 377.701 55.3281 377.701 54.6401ZM382.717 54.6521C382.717 54.1401 382.573 53.7361 382.285 53.4401C382.005 53.1441 381.661 52.9961 381.253 52.9961C380.845 52.9961 380.497 53.1441 380.209 53.4401C379.929 53.7281 379.789 54.1281 379.789 54.6401C379.789 55.1521 379.929 55.5601 380.209 55.8641C380.497 56.1601 380.845 56.3081 381.253 56.3081C381.661 56.3081 382.005 56.1601 382.285 55.8641C382.573 55.5681 382.717 55.1641 382.717 54.6521ZM291.356 66.6081C290.996 66.6081 290.7 66.5041 290.468 66.2961C290.244 66.0801 290.132 65.8161 290.132 65.5041C290.132 65.1841 290.244 64.9201 290.468 64.7121C290.7 64.4961 290.996 64.3881 291.356 64.3881C291.708 64.3881 291.996 64.4961 292.22 64.7121C292.452 64.9201 292.568 65.1841 292.568 65.5041C292.568 65.8161 292.452 66.0801 292.22 66.2961C291.996 66.5041 291.708 66.6081 291.356 66.6081ZM292.376 67.3041V74.0001H290.324V67.3041H292.376ZM298.063 67.2321C298.847 67.2321 299.471 67.4881 299.935 68.0001C300.407 68.5041 300.643 69.2001 300.643 70.0881V74.0001H298.603V70.3641C298.603 69.9161 298.487 69.5681 298.255 69.3201C298.023 69.0721 297.711 68.9481 297.319 68.9481C296.927 68.9481 296.615 69.0721 296.383 69.3201C296.151 69.5681 296.035 69.9161 296.035 70.3641V74.0001H293.983V67.3041H296.035V68.1921C296.243 67.8961 296.523 67.6641 296.875 67.4961C297.227 67.3201 297.623 67.2321 298.063 67.2321ZM305.921 72.2601V74.0001H304.877C304.133 74.0001 303.553 73.8201 303.137 73.4601C302.721 73.0921 302.513 72.4961 302.513 71.6721V69.0081H301.697V67.3041H302.513V65.6721H304.565V67.3041H305.909V69.0081H304.565V71.6961C304.565 71.8961 304.613 72.0401 304.709 72.1281C304.805 72.2161 304.965 72.2601 305.189 72.2601H305.921ZM313.496 70.5441C313.496 70.7361 313.484 70.9361 313.46 71.1441H308.816C308.848 71.5601 308.98 71.8801 309.212 72.1041C309.452 72.3201 309.744 72.4281 310.088 72.4281C310.6 72.4281 310.956 72.2121 311.156 71.7801H313.34C313.228 72.2201 313.024 72.6161 312.728 72.9681C312.44 73.3201 312.076 73.5961 311.636 73.7961C311.196 73.9961 310.704 74.0961 310.16 74.0961C309.504 74.0961 308.92 73.9561 308.408 73.6761C307.896 73.3961 307.496 72.9961 307.208 72.4761C306.92 71.9561 306.776 71.3481 306.776 70.6521C306.776 69.9561 306.916 69.3481 307.196 68.8281C307.484 68.3081 307.884 67.9081 308.396 67.6281C308.908 67.3481 309.496 67.2081 310.16 67.2081C310.808 67.2081 311.384 67.3441 311.888 67.6161C312.392 67.8881 312.784 68.2761 313.064 68.7801C313.352 69.2841 313.496 69.8721 313.496 70.5441ZM311.396 70.0041C311.396 69.6521 311.276 69.3721 311.036 69.1641C310.796 68.9561 310.496 68.8521 310.136 68.8521C309.792 68.8521 309.5 68.9521 309.26 69.1521C309.028 69.3521 308.884 69.6361 308.828 70.0041H311.396ZM316.75 68.4201C316.99 68.0521 317.29 67.7641 317.65 67.5561C318.01 67.3401 318.41 67.2321 318.85 67.2321V69.4041H318.286C317.774 69.4041 317.39 69.5161 317.134 69.7401C316.878 69.9561 316.75 70.3401 316.75 70.8921V74.0001H314.698V67.3041H316.75V68.4201ZM326.263 70.5441C326.263 70.7361 326.251 70.9361 326.227 71.1441H321.583C321.615 71.5601 321.747 71.8801 321.979 72.1041C322.219 72.3201 322.511 72.4281 322.855 72.4281C323.367 72.4281 323.723 72.2121 323.923 71.7801H326.107C325.995 72.2201 325.791 72.6161 325.495 72.9681C325.207 73.3201 324.843 73.5961 324.403 73.7961C323.963 73.9961 323.471 74.0961 322.927 74.0961C322.271 74.0961 321.687 73.9561 321.175 73.6761C320.663 73.3961 320.263 72.9961 319.975 72.4761C319.687 71.9561 319.543 71.3481 319.543 70.6521C319.543 69.9561 319.683 69.3481 319.963 68.8281C320.251 68.3081 320.651 67.9081 321.163 67.6281C321.675 67.3481 322.263 67.2081 322.927 67.2081C323.575 67.2081 324.151 67.3441 324.655 67.6161C325.159 67.8881 325.551 68.2761 325.831 68.7801C326.119 69.2841 326.263 69.8721 326.263 70.5441ZM324.163 70.0041C324.163 69.6521 324.043 69.3721 323.803 69.1641C323.563 68.9561 323.263 68.8521 322.903 68.8521C322.559 68.8521 322.267 68.9521 322.027 69.1521C321.795 69.3521 321.651 69.6361 321.595 70.0041H324.163ZM330.19 74.0961C329.606 74.0961 329.086 73.9961 328.63 73.7961C328.174 73.5961 327.814 73.3241 327.55 72.9801C327.286 72.6281 327.138 72.2361 327.106 71.8041H329.134C329.158 72.0361 329.266 72.2241 329.458 72.3681C329.65 72.5121 329.886 72.5841 330.166 72.5841C330.422 72.5841 330.618 72.5361 330.754 72.4401C330.898 72.3361 330.97 72.2041 330.97 72.0441C330.97 71.8521 330.87 71.7121 330.67 71.6241C330.47 71.5281 330.146 71.4241 329.698 71.3121C329.218 71.2001 328.818 71.0841 328.498 70.9641C328.178 70.8361 327.902 70.6401 327.67 70.3761C327.438 70.1041 327.322 69.7401 327.322 69.2841C327.322 68.9001 327.426 68.5521 327.634 68.2401C327.85 67.9201 328.162 67.6681 328.57 67.4841C328.986 67.3001 329.478 67.2081 330.046 67.2081C330.886 67.2081 331.546 67.4161 332.026 67.8321C332.514 68.2481 332.794 68.8001 332.866 69.4881H330.97C330.938 69.2561 330.834 69.0721 330.658 68.9361C330.49 68.8001 330.266 68.7321 329.986 68.7321C329.746 68.7321 329.562 68.7801 329.434 68.8761C329.306 68.9641 329.242 69.0881 329.242 69.2481C329.242 69.4401 329.342 69.5841 329.542 69.6801C329.75 69.7761 330.07 69.8721 330.502 69.9681C330.998 70.0961 331.402 70.2241 331.714 70.3521C332.026 70.4721 332.298 70.6721 332.53 70.9521C332.77 71.2241 332.894 71.5921 332.902 72.0561C332.902 72.4481 332.79 72.8001 332.566 73.1121C332.35 73.4161 332.034 73.6561 331.618 73.8321C331.21 74.0081 330.734 74.0961 330.19 74.0961ZM338.009 72.2601V74.0001H336.965C336.221 74.0001 335.641 73.8201 335.225 73.4601C334.809 73.0921 334.601 72.4961 334.601 71.6721V69.0081H333.785V67.3041H334.601V65.6721H336.653V67.3041H337.997V69.0081H336.653V71.6961C336.653 71.8961 336.701 72.0401 336.797 72.1281C336.893 72.2161 337.053 72.2601 337.277 72.2601H338.009ZM342.967 66.6081C342.607 66.6081 342.311 66.5041 342.079 66.2961C341.855 66.0801 341.743 65.8161 341.743 65.5041C341.743 65.1841 341.855 64.9201 342.079 64.7121C342.311 64.4961 342.607 64.3881 342.967 64.3881C343.319 64.3881 343.607 64.4961 343.831 64.7121C344.063 64.9201 344.179 65.1841 344.179 65.5041C344.179 65.8161 344.063 66.0801 343.831 66.2961C343.607 66.5041 343.319 66.6081 342.967 66.6081ZM343.987 67.3041V74.0001H341.935V67.3041H343.987ZM349.674 67.2321C350.458 67.2321 351.082 67.4881 351.546 68.0001C352.018 68.5041 352.254 69.2001 352.254 70.0881V74.0001H350.214V70.3641C350.214 69.9161 350.098 69.5681 349.866 69.3201C349.634 69.0721 349.322 68.9481 348.93 68.9481C348.538 68.9481 348.226 69.0721 347.994 69.3201C347.762 69.5681 347.646 69.9161 347.646 70.3641V74.0001H345.594V67.3041H347.646V68.1921C347.854 67.8961 348.134 67.6641 348.486 67.4961C348.838 67.3201 349.234 67.2321 349.674 67.2321ZM353.392 70.6521C353.392 69.9561 353.532 69.3481 353.812 68.8281C354.1 68.3081 354.496 67.9081 355 67.6281C355.512 67.3481 356.096 67.2081 356.752 67.2081C357.592 67.2081 358.292 67.4281 358.852 67.8681C359.42 68.3081 359.792 68.9281 359.968 69.7281H357.784C357.6 69.2161 357.244 68.9601 356.716 68.9601C356.34 68.9601 356.04 69.1081 355.816 69.4041C355.592 69.6921 355.48 70.1081 355.48 70.6521C355.48 71.1961 355.592 71.6161 355.816 71.9121C356.04 72.2001 356.34 72.3441 356.716 72.3441C357.244 72.3441 357.6 72.0881 357.784 71.5761H359.968C359.792 72.3601 359.42 72.9761 358.852 73.4241C358.284 73.8721 357.584 74.0961 356.752 74.0961C356.096 74.0961 355.512 73.9561 355 73.6761C354.496 73.3961 354.1 72.9961 353.812 72.4761C353.532 71.9561 353.392 71.3481 353.392 70.6521ZM364.234 74.0961C363.578 74.0961 362.986 73.9561 362.458 73.6761C361.938 73.3961 361.526 72.9961 361.222 72.4761C360.926 71.9561 360.778 71.3481 360.778 70.6521C360.778 69.9641 360.93 69.3601 361.234 68.8401C361.538 68.3121 361.954 67.9081 362.482 67.6281C363.01 67.3481 363.602 67.2081 364.258 67.2081C364.914 67.2081 365.506 67.3481 366.034 67.6281C366.562 67.9081 366.978 68.3121 367.282 68.8401C367.586 69.3601 367.738 69.9641 367.738 70.6521C367.738 71.3401 367.582 71.9481 367.27 72.4761C366.966 72.9961 366.546 73.3961 366.01 73.6761C365.482 73.9561 364.89 74.0961 364.234 74.0961ZM364.234 72.3201C364.626 72.3201 364.958 72.1761 365.23 71.8881C365.51 71.6001 365.65 71.1881 365.65 70.6521C365.65 70.1161 365.514 69.7041 365.242 69.4161C364.978 69.1281 364.65 68.9841 364.258 68.9841C363.858 68.9841 363.526 69.1281 363.262 69.4161C362.998 69.6961 362.866 70.1081 362.866 70.6521C362.866 71.1881 362.994 71.6001 363.25 71.8881C363.514 72.1761 363.842 72.3201 364.234 72.3201ZM377.49 67.2321C378.322 67.2321 378.982 67.4841 379.47 67.9881C379.966 68.4921 380.214 69.1921 380.214 70.0881V74.0001H378.174V70.3641C378.174 69.9321 378.058 69.6001 377.826 69.3681C377.602 69.1281 377.29 69.0081 376.89 69.0081C376.49 69.0081 376.174 69.1281 375.942 69.3681C375.718 69.6001 375.606 69.9321 375.606 70.3641V74.0001H373.566V70.3641C373.566 69.9321 373.45 69.6001 373.218 69.3681C372.994 69.1281 372.682 69.0081 372.282 69.0081C371.882 69.0081 371.566 69.1281 371.334 69.3681C371.11 69.6001 370.998 69.9321 370.998 70.3641V74.0001H368.946V67.3041H370.998V68.1441C371.206 67.8641 371.478 67.6441 371.814 67.4841C372.15 67.3161 372.53 67.2321 372.954 67.2321C373.458 67.2321 373.906 67.3401 374.298 67.5561C374.698 67.7721 375.01 68.0801 375.234 68.4801C375.466 68.1121 375.782 67.8121 376.182 67.5801C376.582 67.3481 377.018 67.2321 377.49 67.2321ZM388.082 70.5441C388.082 70.7361 388.07 70.9361 388.046 71.1441H383.402C383.434 71.5601 383.566 71.8801 383.798 72.1041C384.038 72.3201 384.33 72.4281 384.674 72.4281C385.186 72.4281 385.542 72.2121 385.742 71.7801H387.926C387.814 72.2201 387.61 72.6161 387.314 72.9681C387.026 73.3201 386.662 73.5961 386.222 73.7961C385.782 73.9961 385.29 74.0961 384.746 74.0961C384.09 74.0961 383.506 73.9561 382.994 73.6761C382.482 73.3961 382.082 72.9961 381.794 72.4761C381.506 71.9561 381.362 71.3481 381.362 70.6521C381.362 69.9561 381.502 69.3481 381.782 68.8281C382.07 68.3081 382.47 67.9081 382.982 67.6281C383.494 67.3481 384.082 67.2081 384.746 67.2081C385.394 67.2081 385.97 67.3441 386.474 67.6161C386.978 67.8881 387.37 68.2761 387.65 68.7801C387.938 69.2841 388.082 69.8721 388.082 70.5441ZM385.982 70.0041C385.982 69.6521 385.862 69.3721 385.622 69.1641C385.382 68.9561 385.082 68.8521 384.722 68.8521C384.378 68.8521 384.086 68.9521 383.846 69.1521C383.614 69.3521 383.47 69.6361 383.414 70.0041H385.982Z" fill="white"/>
<path d="M207 393V466H116" stroke="#41F9CD" stroke-width="1.37106" stroke-dasharray="6.86 6.86"/>
<path d="M93.6378 492.276C108.349 492.276 120.276 480.35 120.276 465.638C120.276 450.926 108.349 439 93.6378 439C78.9262 439 67 450.926 67 465.638C67 480.35 78.9262 492.276 93.6378 492.276Z" fill="url(#paint37_linear)"/>
<path d="M81.7383 464.033L90.904 474.784" stroke="white" stroke-width="5" stroke-linecap="round" stroke-linejoin="round"/>
<path d="M106.568 454.409L90.9475 474.701" stroke="white" stroke-width="5" stroke-linecap="round" stroke-linejoin="round"/>
</g>
<defs>
<filter id="filter0_ddd" x="274.913" y="252.961" width="135.007" height="153.59" filterUnits="userSpaceOnUse" color-interpolation-filters="sRGB">
<feFlood flood-opacity="0" result="BackgroundImageFix"/>
<feColorMatrix in="SourceAlpha" type="matrix" values="0 0 0 0 0 0 0 0 0 0 0 0 0 0 0 0 0 0 127 0"/>
<feOffset dy="20.5866"/>
<feGaussianBlur stdDeviation="13.4261"/>
<feColorMatrix type="matrix" values="0 0 0 0 0 0 0 0 0 0.0876457 0 0 0 0 0.391667 0 0 0 0.05 0"/>
<feBlend mode="normal" in2="BackgroundImageFix" result="effect1_dropShadow"/>
<feColorMatrix in="SourceAlpha" type="matrix" values="0 0 0 0 0 0 0 0 0 0 0 0 0 0 0 0 0 0 127 0"/>
<feOffset dy="42.0684"/>
<feGaussianBlur stdDeviation="2.68521"/>
<feColorMatrix type="matrix" values="0 0 0 0 0.121569 0 0 0 0 0.247059 0 0 0 0 0.682353 0 0 0 0.02 0"/>
<feBlend mode="normal" in2="effect1_dropShadow" result="effect2_dropShadow"/>
<feColorMatrix in="SourceAlpha" type="matrix" values="0 0 0 0 0 0 0 0 0 0 0 0 0 0 0 0 0 0 127 0"/>
<feOffset dy="51.0191"/>
<feGaussianBlur stdDeviation="8.95072"/>
<feColorMatrix type="matrix" values="0 0 0 0 0.121569 0 0 0 0 0.247059 0 0 0 0 0.682353 0 0 0 0.02 0"/>
<feBlend mode="normal" in2="effect2_dropShadow" result="effect3_dropShadow"/>
<feBlend mode="normal" in="SourceGraphic" in2="effect3_dropShadow" result="shape"/>
</filter>
<filter id="filter1_ddd" x="8.34018" y="252.961" width="135.007" height="153.59" filterUnits="userSpaceOnUse" color-interpolation-filters="sRGB">
<feFlood flood-opacity="0" result="BackgroundImageFix"/>
<feColorMatrix in="SourceAlpha" type="matrix" values="0 0 0 0 0 0 0 0 0 0 0 0 0 0 0 0 0 0 127 0"/>
<feOffset dy="20.5866"/>
<feGaussianBlur stdDeviation="13.4261"/>
<feColorMatrix type="matrix" values="0 0 0 0 0 0 0 0 0 0.0876457 0 0 0 0 0.391667 0 0 0 0.05 0"/>
<feBlend mode="normal" in2="BackgroundImageFix" result="effect1_dropShadow"/>
<feColorMatrix in="SourceAlpha" type="matrix" values="0 0 0 0 0 0 0 0 0 0 0 0 0 0 0 0 0 0 127 0"/>
<feOffset dy="42.0684"/>
<feGaussianBlur stdDeviation="2.68521"/>
<feColorMatrix type="matrix" values="0 0 0 0 0.121569 0 0 0 0 0.247059 0 0 0 0 0.682353 0 0 0 0.02 0"/>
<feBlend mode="normal" in2="effect1_dropShadow" result="effect2_dropShadow"/>
<feColorMatrix in="SourceAlpha" type="matrix" values="0 0 0 0 0 0 0 0 0 0 0 0 0 0 0 0 0 0 127 0"/>
<feOffset dy="51.0191"/>
<feGaussianBlur stdDeviation="8.95072"/>
<feColorMatrix type="matrix" values="0 0 0 0 0.121569 0 0 0 0 0.247059 0 0 0 0 0.682353 0 0 0 0.02 0"/>
<feBlend mode="normal" in2="effect2_dropShadow" result="effect3_dropShadow"/>
<feBlend mode="normal" in="SourceGraphic" in2="effect3_dropShadow" result="shape"/>
</filter>
<filter id="filter2_ddd" x="282.827" y="86.7974" width="135.007" height="153.59" filterUnits="userSpaceOnUse" color-interpolation-filters="sRGB">
<feFlood flood-opacity="0" result="BackgroundImageFix"/>
<feColorMatrix in="SourceAlpha" type="matrix" values="0 0 0 0 0 0 0 0 0 0 0 0 0 0 0 0 0 0 127 0"/>
<feOffset dy="20.5866"/>
<feGaussianBlur stdDeviation="13.4261"/>
<feColorMatrix type="matrix" values="0 0 0 0 0 0 0 0 0 0.0876457 0 0 0 0 0.391667 0 0 0 0.05 0"/>
<feBlend mode="normal" in2="BackgroundImageFix" result="effect1_dropShadow"/>
<feColorMatrix in="SourceAlpha" type="matrix" values="0 0 0 0 0 0 0 0 0 0 0 0 0 0 0 0 0 0 127 0"/>
<feOffset dy="42.0684"/>
<feGaussianBlur stdDeviation="2.68521"/>
<feColorMatrix type="matrix" values="0 0 0 0 0.121569 0 0 0 0 0.247059 0 0 0 0 0.682353 0 0 0 0.02 0"/>
<feBlend mode="normal" in2="effect1_dropShadow" result="effect2_dropShadow"/>
<feColorMatrix in="SourceAlpha" type="matrix" values="0 0 0 0 0 0 0 0 0 0 0 0 0 0 0 0 0 0 127 0"/>
<feOffset dy="51.0191"/>
<feGaussianBlur stdDeviation="8.95072"/>
<feColorMatrix type="matrix" values="0 0 0 0 0.121569 0 0 0 0 0.247059 0 0 0 0 0.682353 0 0 0 0.02 0"/>
<feBlend mode="normal" in2="effect2_dropShadow" result="effect3_dropShadow"/>
<feBlend mode="normal" in="SourceGraphic" in2="effect3_dropShadow" result="shape"/>
</filter>
<filter id="filter3_ddd" x="-1.94693" y="86.7971" width="135.007" height="153.59" filterUnits="userSpaceOnUse" color-interpolation-filters="sRGB">
<feFlood flood-opacity="0" result="BackgroundImageFix"/>
<feColorMatrix in="SourceAlpha" type="matrix" values="0 0 0 0 0 0 0 0 0 0 0 0 0 0 0 0 0 0 127 0"/>
<feOffset dy="20.5866"/>
<feGaussianBlur stdDeviation="13.4261"/>
<feColorMatrix type="matrix" values="0 0 0 0 0 0 0 0 0 0.0876457 0 0 0 0 0.391667 0 0 0 0.05 0"/>
<feBlend mode="normal" in2="BackgroundImageFix" result="effect1_dropShadow"/>
<feColorMatrix in="SourceAlpha" type="matrix" values="0 0 0 0 0 0 0 0 0 0 0 0 0 0 0 0 0 0 127 0"/>
<feOffset dy="42.0684"/>
<feGaussianBlur stdDeviation="2.68521"/>
<feColorMatrix type="matrix" values="0 0 0 0 0.121569 0 0 0 0 0.247059 0 0 0 0 0.682353 0 0 0 0.02 0"/>
<feBlend mode="normal" in2="effect1_dropShadow" result="effect2_dropShadow"/>
<feColorMatrix in="SourceAlpha" type="matrix" values="0 0 0 0 0 0 0 0 0 0 0 0 0 0 0 0 0 0 127 0"/>
<feOffset dy="51.0191"/>
<feGaussianBlur stdDeviation="8.95072"/>
<feColorMatrix type="matrix" values="0 0 0 0 0.121569 0 0 0 0 0.247059 0 0 0 0 0.682353 0 0 0 0.02 0"/>
<feBlend mode="normal" in2="effect2_dropShadow" result="effect3_dropShadow"/>
<feBlend mode="normal" in="SourceGraphic" in2="effect3_dropShadow" result="shape"/>
</filter>
<filter id="filter4_ddd" x="139.649" y="312.265" width="135.007" height="153.59" filterUnits="userSpaceOnUse" color-interpolation-filters="sRGB">
<feFlood flood-opacity="0" result="BackgroundImageFix"/>
<feColorMatrix in="SourceAlpha" type="matrix" values="0 0 0 0 0 0 0 0 0 0 0 0 0 0 0 0 0 0 127 0"/>
<feOffset dy="20.5866"/>
<feGaussianBlur stdDeviation="13.4261"/>
<feColorMatrix type="matrix" values="0 0 0 0 0 0 0 0 0 0.0876457 0 0 0 0 0.391667 0 0 0 0.05 0"/>
<feBlend mode="normal" in2="BackgroundImageFix" result="effect1_dropShadow"/>
<feColorMatrix in="SourceAlpha" type="matrix" values="0 0 0 0 0 0 0 0 0 0 0 0 0 0 0 0 0 0 127 0"/>
<feOffset dy="42.0684"/>
<feGaussianBlur stdDeviation="2.68521"/>
<feColorMatrix type="matrix" values="0 0 0 0 0.121569 0 0 0 0 0.247059 0 0 0 0 0.682353 0 0 0 0.02 0"/>
<feBlend mode="normal" in2="effect1_dropShadow" result="effect2_dropShadow"/>
<feColorMatrix in="SourceAlpha" type="matrix" values="0 0 0 0 0 0 0 0 0 0 0 0 0 0 0 0 0 0 127 0"/>
<feOffset dy="51.0191"/>
<feGaussianBlur stdDeviation="8.95072"/>
<feColorMatrix type="matrix" values="0 0 0 0 0.121569 0 0 0 0 0.247059 0 0 0 0 0.682353 0 0 0 0.02 0"/>
<feBlend mode="normal" in2="effect2_dropShadow" result="effect3_dropShadow"/>
<feBlend mode="normal" in="SourceGraphic" in2="effect3_dropShadow" result="shape"/>
</filter>
<linearGradient id="paint0_linear" x1="207.44" y1="165.378" x2="207.44" y2="240.926" gradientUnits="userSpaceOnUse">
<stop stop-color="#5CEFFF"/>
<stop offset="0.90625" stop-color="#0A88E3"/>
</linearGradient>
<linearGradient id="paint1_linear" x1="207.44" y1="24.1443" x2="207.44" y2="98.9138" gradientUnits="userSpaceOnUse">
<stop stop-color="#5CEFFF"/>
<stop offset="0.90625" stop-color="#0A88E3"/>
</linearGradient>
<linearGradient id="paint2_linear" x1="342.254" y1="278.483" x2="342.254" y2="344.158" gradientUnits="userSpaceOnUse">
<stop stop-color="#E0C3FC"/>
<stop offset="1" stop-color="#8EC5FC"/>
</linearGradient>
<linearGradient id="paint3_linear" x1="342.254" y1="278.483" x2="342.254" y2="344.158" gradientUnits="userSpaceOnUse">
<stop stop-color="#E0C3FC"/>
<stop offset="1" stop-color="#8EC5FC"/>
</linearGradient>
<linearGradient id="paint4_linear" x1="342.254" y1="278.483" x2="342.254" y2="344.158" gradientUnits="userSpaceOnUse">
<stop stop-color="#E0C3FC"/>
<stop offset="1" stop-color="#8EC5FC"/>
</linearGradient>
<linearGradient id="paint5_linear" x1="342.254" y1="278.483" x2="342.254" y2="344.158" gradientUnits="userSpaceOnUse">
<stop stop-color="#E0C3FC"/>
<stop offset="1" stop-color="#8EC5FC"/>
</linearGradient>
<linearGradient id="paint6_linear" x1="342.254" y1="278.483" x2="342.254" y2="344.157" gradientUnits="userSpaceOnUse">
<stop stop-color="#E0C3FC"/>
<stop offset="1" stop-color="#8EC5FC"/>
</linearGradient>
<linearGradient id="paint7_linear" x1="342.254" y1="278.483" x2="342.254" y2="344.158" gradientUnits="userSpaceOnUse">
<stop stop-color="#E0C3FC"/>
<stop offset="1" stop-color="#8EC5FC"/>
</linearGradient>
<linearGradient id="paint8_linear" x1="342.254" y1="278.483" x2="342.254" y2="344.158" gradientUnits="userSpaceOnUse">
<stop stop-color="#E0C3FC"/>
<stop offset="1" stop-color="#8EC5FC"/>
</linearGradient>
<linearGradient id="paint9_linear" x1="75.6812" y1="278.483" x2="75.6812" y2="344.158" gradientUnits="userSpaceOnUse">
<stop stop-color="#E0C3FC"/>
<stop offset="1" stop-color="#8EC5FC"/>
</linearGradient>
<linearGradient id="paint10_linear" x1="75.6807" y1="278.483" x2="75.6807" y2="344.158" gradientUnits="userSpaceOnUse">
<stop stop-color="#E0C3FC"/>
<stop offset="1" stop-color="#8EC5FC"/>
</linearGradient>
<linearGradient id="paint11_linear" x1="75.681" y1="278.483" x2="75.681" y2="344.158" gradientUnits="userSpaceOnUse">
<stop stop-color="#E0C3FC"/>
<stop offset="1" stop-color="#8EC5FC"/>
</linearGradient>
<linearGradient id="paint12_linear" x1="75.6805" y1="278.483" x2="75.6805" y2="344.158" gradientUnits="userSpaceOnUse">
<stop stop-color="#E0C3FC"/>
<stop offset="1" stop-color="#8EC5FC"/>
</linearGradient>
<linearGradient id="paint13_linear" x1="75.681" y1="278.483" x2="75.681" y2="344.157" gradientUnits="userSpaceOnUse">
<stop stop-color="#E0C3FC"/>
<stop offset="1" stop-color="#8EC5FC"/>
</linearGradient>
<linearGradient id="paint14_linear" x1="75.681" y1="278.483" x2="75.681" y2="344.158" gradientUnits="userSpaceOnUse">
<stop stop-color="#E0C3FC"/>
<stop offset="1" stop-color="#8EC5FC"/>
</linearGradient>
<linearGradient id="paint15_linear" x1="75.6807" y1="278.483" x2="75.6807" y2="344.158" gradientUnits="userSpaceOnUse">
<stop stop-color="#E0C3FC"/>
<stop offset="1" stop-color="#8EC5FC"/>
</linearGradient>
<linearGradient id="paint16_linear" x1="350.168" y1="112.319" x2="350.168" y2="177.993" gradientUnits="userSpaceOnUse">
<stop stop-color="#E0C3FC"/>
<stop offset="1" stop-color="#8EC5FC"/>
</linearGradient>
<linearGradient id="paint17_linear" x1="350.168" y1="112.319" x2="350.168" y2="177.993" gradientUnits="userSpaceOnUse">
<stop stop-color="#E0C3FC"/>
<stop offset="1" stop-color="#8EC5FC"/>
</linearGradient>
<linearGradient id="paint18_linear" x1="350.168" y1="112.319" x2="350.168" y2="177.993" gradientUnits="userSpaceOnUse">
<stop stop-color="#E0C3FC"/>
<stop offset="1" stop-color="#8EC5FC"/>
</linearGradient>
<linearGradient id="paint19_linear" x1="350.168" y1="112.319" x2="350.168" y2="177.993" gradientUnits="userSpaceOnUse">
<stop stop-color="#E0C3FC"/>
<stop offset="1" stop-color="#8EC5FC"/>
</linearGradient>
<linearGradient id="paint20_linear" x1="350.168" y1="112.319" x2="350.168" y2="177.993" gradientUnits="userSpaceOnUse">
<stop stop-color="#E0C3FC"/>
<stop offset="1" stop-color="#8EC5FC"/>
</linearGradient>
<linearGradient id="paint21_linear" x1="350.168" y1="112.319" x2="350.168" y2="177.993" gradientUnits="userSpaceOnUse">
<stop stop-color="#E0C3FC"/>
<stop offset="1" stop-color="#8EC5FC"/>
</linearGradient>
<linearGradient id="paint22_linear" x1="350.168" y1="112.319" x2="350.168" y2="177.993" gradientUnits="userSpaceOnUse">
<stop stop-color="#E0C3FC"/>
<stop offset="1" stop-color="#8EC5FC"/>
</linearGradient>
<linearGradient id="paint23_linear" x1="65.3951" y1="112.319" x2="65.3951" y2="177.993" gradientUnits="userSpaceOnUse">
<stop stop-color="#E0C3FC"/>
<stop offset="1" stop-color="#8EC5FC"/>
</linearGradient>
<linearGradient id="paint24_linear" x1="65.3947" y1="112.319" x2="65.3947" y2="177.993" gradientUnits="userSpaceOnUse">
<stop stop-color="#E0C3FC"/>
<stop offset="1" stop-color="#8EC5FC"/>
</linearGradient>
<linearGradient id="paint25_linear" x1="65.3949" y1="112.319" x2="65.3949" y2="177.993" gradientUnits="userSpaceOnUse">
<stop stop-color="#E0C3FC"/>
<stop offset="1" stop-color="#8EC5FC"/>
</linearGradient>
<linearGradient id="paint26_linear" x1="65.3944" y1="112.319" x2="65.3944" y2="177.993" gradientUnits="userSpaceOnUse">
<stop stop-color="#E0C3FC"/>
<stop offset="1" stop-color="#8EC5FC"/>
</linearGradient>
<linearGradient id="paint27_linear" x1="65.3949" y1="112.319" x2="65.3949" y2="177.993" gradientUnits="userSpaceOnUse">
<stop stop-color="#E0C3FC"/>
<stop offset="1" stop-color="#8EC5FC"/>
</linearGradient>
<linearGradient id="paint28_linear" x1="65.3948" y1="112.319" x2="65.3948" y2="177.993" gradientUnits="userSpaceOnUse">
<stop stop-color="#E0C3FC"/>
<stop offset="1" stop-color="#8EC5FC"/>
</linearGradient>
<linearGradient id="paint29_linear" x1="65.3946" y1="112.319" x2="65.3946" y2="177.993" gradientUnits="userSpaceOnUse">
<stop stop-color="#E0C3FC"/>
<stop offset="1" stop-color="#8EC5FC"/>
</linearGradient>
<linearGradient id="paint30_linear" x1="206.989" y1="337.786" x2="206.989" y2="403.461" gradientUnits="userSpaceOnUse">
<stop stop-color="#E0C3FC"/>
<stop offset="1" stop-color="#8EC5FC"/>
</linearGradient>
<linearGradient id="paint31_linear" x1="206.989" y1="337.786" x2="206.989" y2="403.461" gradientUnits="userSpaceOnUse">
<stop stop-color="#E0C3FC"/>
<stop offset="1" stop-color="#8EC5FC"/>
</linearGradient>
<linearGradient id="paint32_linear" x1="206.989" y1="337.786" x2="206.989" y2="403.461" gradientUnits="userSpaceOnUse">
<stop stop-color="#E0C3FC"/>
<stop offset="1" stop-color="#8EC5FC"/>
</linearGradient>
<linearGradient id="paint33_linear" x1="206.989" y1="337.786" x2="206.989" y2="403.461" gradientUnits="userSpaceOnUse">
<stop stop-color="#E0C3FC"/>
<stop offset="1" stop-color="#8EC5FC"/>
</linearGradient>
<linearGradient id="paint34_linear" x1="206.989" y1="337.786" x2="206.989" y2="403.461" gradientUnits="userSpaceOnUse">
<stop stop-color="#E0C3FC"/>
<stop offset="1" stop-color="#8EC5FC"/>
</linearGradient>
<linearGradient id="paint35_linear" x1="206.989" y1="337.786" x2="206.989" y2="403.461" gradientUnits="userSpaceOnUse">
<stop stop-color="#E0C3FC"/>
<stop offset="1" stop-color="#8EC5FC"/>
</linearGradient>
<linearGradient id="paint36_linear" x1="206.989" y1="337.786" x2="206.989" y2="403.461" gradientUnits="userSpaceOnUse">
<stop stop-color="#E0C3FC"/>
<stop offset="1" stop-color="#8EC5FC"/>
</linearGradient>
<linearGradient id="paint37_linear" x1="93.1682" y1="439" x2="93.6378" y2="492.276" gradientUnits="userSpaceOnUse">
<stop stop-color="#46FFD2"/>
<stop offset="1" stop-color="#0BB289"/>
</linearGradient>
<clipPath id="clip0">
<rect width="414" height="493" fill="white"/>
</clipPath>
</defs>
</svg>
