<svg width="414" height="543" viewBox="0 0 414 543" fill="none" xmlns="http://www.w3.org/2000/svg">
<circle cx="202.083" cy="215.42" r="168.12" fill="#1E3289"/>
<path d="M297.814 400.755V402.459H300.562V404.043H297.814V405.891H300.922V407.535H295.762V399.111H300.922V400.755H297.814ZM301.967 404.175C301.967 403.487 302.095 402.883 302.351 402.363C302.615 401.843 302.971 401.443 303.419 401.163C303.867 400.883 304.367 400.743 304.919 400.743C305.391 400.743 305.803 400.839 306.155 401.031C306.515 401.223 306.791 401.475 306.983 401.787V400.839H309.035V407.535H306.983V406.587C306.783 406.899 306.503 407.151 306.143 407.343C305.791 407.535 305.379 407.631 304.907 407.631C304.363 407.631 303.867 407.491 303.419 407.211C302.971 406.923 302.615 406.519 302.351 405.999C302.095 405.471 301.967 404.863 301.967 404.175ZM306.983 404.187C306.983 403.675 306.839 403.271 306.551 402.975C306.271 402.679 305.927 402.531 305.519 402.531C305.111 402.531 304.763 402.679 304.475 402.975C304.195 403.263 304.055 403.663 304.055 404.175C304.055 404.687 304.195 405.095 304.475 405.399C304.763 405.695 305.111 405.843 305.519 405.843C305.927 405.843 306.271 405.695 306.551 405.399C306.839 405.103 306.983 404.699 306.983 404.187ZM312.691 401.955C312.931 401.587 313.231 401.299 313.591 401.091C313.951 400.875 314.351 400.767 314.791 400.767V402.939H314.227C313.715 402.939 313.331 403.051 313.075 403.275C312.819 403.491 312.691 403.875 312.691 404.427V407.535H310.639V400.839H312.691V401.955ZM317.944 398.655V407.535H315.892V398.655H317.944ZM326.391 400.839L322.191 410.715H319.983L321.519 407.307L318.795 400.839H321.087L322.635 405.027L324.171 400.839H326.391ZM335.16 406.047H332.016L331.512 407.535H329.364L332.412 399.111H334.788L337.836 407.535H335.664L335.16 406.047ZM334.632 404.463L333.588 401.379L332.556 404.463H334.632ZM340.936 401.955C341.176 401.587 341.476 401.299 341.836 401.091C342.196 400.875 342.596 400.767 343.036 400.767V402.939H342.472C341.96 402.939 341.576 403.051 341.32 403.275C341.064 403.491 340.936 403.875 340.936 404.427V407.535H338.884V400.839H340.936V401.955ZM346.188 401.955C346.428 401.587 346.728 401.299 347.088 401.091C347.448 400.875 347.848 400.767 348.288 400.767V402.939H347.724C347.212 402.939 346.828 403.051 346.572 403.275C346.316 403.491 346.188 403.875 346.188 404.427V407.535H344.136V400.839H346.188V401.955ZM350.421 400.143C350.061 400.143 349.765 400.039 349.533 399.831C349.309 399.615 349.197 399.351 349.197 399.039C349.197 398.719 349.309 398.455 349.533 398.247C349.765 398.031 350.061 397.923 350.421 397.923C350.773 397.923 351.061 398.031 351.285 398.247C351.517 398.455 351.633 398.719 351.633 399.039C351.633 399.351 351.517 399.615 351.285 399.831C351.061 400.039 350.773 400.143 350.421 400.143ZM351.441 400.839V407.535H349.389V400.839H351.441ZM356.06 405.615L357.512 400.839H359.696L357.32 407.535H354.788L352.412 400.839H354.608L356.06 405.615ZM361.712 400.143C361.352 400.143 361.056 400.039 360.824 399.831C360.6 399.615 360.488 399.351 360.488 399.039C360.488 398.719 360.6 398.455 360.824 398.247C361.056 398.031 361.352 397.923 361.712 397.923C362.064 397.923 362.352 398.031 362.576 398.247C362.808 398.455 362.924 398.719 362.924 399.039C362.924 399.351 362.808 399.615 362.576 399.831C362.352 400.039 362.064 400.143 361.712 400.143ZM362.732 400.839V407.535H360.68V400.839H362.732ZM368.419 400.767C369.203 400.767 369.827 401.023 370.291 401.535C370.763 402.039 370.999 402.735 370.999 403.623V407.535H368.959V403.899C368.959 403.451 368.843 403.103 368.611 402.855C368.379 402.607 368.067 402.483 367.675 402.483C367.283 402.483 366.971 402.607 366.739 402.855C366.507 403.103 366.391 403.451 366.391 403.899V407.535H364.339V400.839H366.391V401.727C366.599 401.431 366.879 401.199 367.231 401.031C367.583 400.855 367.979 400.767 368.419 400.767ZM375.089 400.743C375.561 400.743 375.973 400.839 376.325 401.031C376.685 401.223 376.961 401.475 377.153 401.787V400.839H379.205V407.523C379.205 408.139 379.081 408.695 378.833 409.191C378.593 409.695 378.221 410.095 377.717 410.391C377.221 410.687 376.601 410.835 375.857 410.835C374.865 410.835 374.061 410.599 373.445 410.127C372.829 409.663 372.477 409.031 372.389 408.231H374.417C374.481 408.487 374.633 408.687 374.873 408.831C375.113 408.983 375.409 409.059 375.761 409.059C376.185 409.059 376.521 408.935 376.769 408.687C377.025 408.447 377.153 408.059 377.153 407.523V406.575C376.953 406.887 376.677 407.143 376.325 407.343C375.973 407.535 375.561 407.631 375.089 407.631C374.537 407.631 374.037 407.491 373.589 407.211C373.141 406.923 372.785 406.519 372.521 405.999C372.265 405.471 372.137 404.863 372.137 404.175C372.137 403.487 372.265 402.883 372.521 402.363C372.785 401.843 373.141 401.443 373.589 401.163C374.037 400.883 374.537 400.743 375.089 400.743ZM377.153 404.187C377.153 403.675 377.009 403.271 376.721 402.975C376.441 402.679 376.097 402.531 375.689 402.531C375.281 402.531 374.933 402.679 374.645 402.975C374.365 403.263 374.225 403.663 374.225 404.175C374.225 404.687 374.365 405.095 374.645 405.399C374.933 405.695 375.281 405.843 375.689 405.843C376.097 405.843 376.441 405.695 376.721 405.399C377.009 405.103 377.153 404.699 377.153 404.187ZM335.354 415.111L333.158 423.535H330.674L329.33 417.991L327.938 423.535H325.454L323.318 415.111H325.514L326.726 421.243L328.226 415.111H330.482L331.922 421.243L333.146 415.111H335.354ZM337.535 416.143C337.175 416.143 336.879 416.039 336.647 415.831C336.423 415.615 336.311 415.351 336.311 415.039C336.311 414.719 336.423 414.455 336.647 414.247C336.879 414.031 337.175 413.923 337.535 413.923C337.887 413.923 338.175 414.031 338.399 414.247C338.631 414.455 338.747 414.719 338.747 415.039C338.747 415.351 338.631 415.615 338.399 415.831C338.175 416.039 337.887 416.143 337.535 416.143ZM338.555 416.839V423.535H336.503V416.839H338.555ZM342.214 417.955C342.454 417.587 342.754 417.299 343.114 417.091C343.474 416.875 343.874 416.767 344.314 416.767V418.939H343.75C343.238 418.939 342.854 419.051 342.598 419.275C342.342 419.491 342.214 419.875 342.214 420.427V423.535H340.162V416.839H342.214V417.955ZM351.727 420.079C351.727 420.271 351.715 420.471 351.691 420.679H347.047C347.079 421.095 347.211 421.415 347.443 421.639C347.683 421.855 347.975 421.963 348.319 421.963C348.831 421.963 349.187 421.747 349.387 421.315H351.571C351.459 421.755 351.255 422.151 350.959 422.503C350.671 422.855 350.307 423.131 349.867 423.331C349.427 423.531 348.935 423.631 348.391 423.631C347.735 423.631 347.151 423.491 346.639 423.211C346.127 422.931 345.727 422.531 345.439 422.011C345.151 421.491 345.007 420.883 345.007 420.187C345.007 419.491 345.147 418.883 345.427 418.363C345.715 417.843 346.115 417.443 346.627 417.163C347.139 416.883 347.727 416.743 348.391 416.743C349.039 416.743 349.615 416.879 350.119 417.151C350.623 417.423 351.015 417.811 351.295 418.315C351.583 418.819 351.727 419.407 351.727 420.079ZM349.627 419.539C349.627 419.187 349.507 418.907 349.267 418.699C349.027 418.491 348.727 418.387 348.367 418.387C348.023 418.387 347.731 418.487 347.491 418.687C347.259 418.887 347.115 419.171 347.059 419.539H349.627Z" fill="white"/>
<path opacity="0.2" d="M339.496 352.288C339.234 352.026 338.809 352.026 338.547 352.288L334.275 356.56C334.012 356.822 334.012 357.247 334.275 357.509C334.537 357.772 334.962 357.772 335.224 357.509L339.021 353.712L342.819 357.509C343.081 357.772 343.506 357.772 343.768 357.509C344.03 357.247 344.03 356.822 343.768 356.56L339.496 352.288ZM339.693 387.387L339.693 352.763L338.35 352.763L338.35 387.387L339.693 387.387Z" fill="white"/>
<path d="M213.112 184.661C222.401 184.661 230.985 189.616 235.629 197.661L242.889 210.235C247.534 218.28 247.534 228.191 242.889 236.235L235.629 248.81C230.985 256.855 222.401 261.81 213.112 261.81L198.592 261.81C189.303 261.81 180.72 256.855 176.076 248.81L168.816 236.235C164.171 228.191 164.171 218.28 168.816 210.235L176.076 197.661C180.72 189.616 189.303 184.661 198.592 184.661L213.112 184.661Z" fill="white"/>
<path d="M213.112 184.661C222.401 184.661 230.985 189.616 235.629 197.661L242.889 210.235C247.534 218.28 247.534 228.191 242.889 236.235L235.629 248.81C230.985 256.855 222.401 261.81 213.112 261.81L198.592 261.81C189.303 261.81 180.72 256.855 176.076 248.81L168.816 236.235C164.171 228.191 164.171 218.28 168.816 210.235L176.076 197.661C180.72 189.616 189.303 184.661 198.592 184.661L213.112 184.661Z" fill="url(#paint0_linear)"/>
<path d="M193.814 225.426C194.688 225.612 195.389 226.049 195.919 226.737C196.449 227.41 196.714 228.183 196.714 229.057C196.714 230.317 196.27 231.319 195.382 232.064C194.509 232.794 193.284 233.16 191.709 233.16H184.684V218.079H191.473C193.005 218.079 194.201 218.43 195.06 219.132C195.934 219.834 196.37 220.786 196.37 221.989C196.37 222.877 196.134 223.615 195.662 224.202C195.203 224.789 194.587 225.197 193.814 225.426ZM188.358 224.18H190.764C191.365 224.18 191.823 224.051 192.139 223.794C192.468 223.521 192.633 223.128 192.633 222.612C192.633 222.096 192.468 221.703 192.139 221.431C191.823 221.158 191.365 221.022 190.764 221.022H188.358V224.18ZM191.064 230.195C191.68 230.195 192.153 230.059 192.482 229.787C192.826 229.5 192.998 229.092 192.998 228.562C192.998 228.033 192.819 227.617 192.461 227.317C192.117 227.016 191.637 226.865 191.022 226.865H188.358V230.195H191.064ZM198.329 227.145C198.329 225.913 198.558 224.832 199.017 223.901C199.489 222.97 200.126 222.254 200.928 221.753C201.73 221.252 202.626 221.001 203.614 221.001C204.459 221.001 205.196 221.173 205.826 221.516C206.471 221.86 206.965 222.311 207.309 222.87V221.173H210.982V233.16H207.309V231.462C206.95 232.021 206.449 232.472 205.805 232.816C205.175 233.16 204.437 233.331 203.592 233.331C202.618 233.331 201.73 233.081 200.928 232.58C200.126 232.064 199.489 231.341 199.017 230.41C198.558 229.465 198.329 228.376 198.329 227.145ZM207.309 227.166C207.309 226.25 207.051 225.526 206.535 224.996C206.034 224.467 205.418 224.202 204.688 224.202C203.957 224.202 203.334 224.467 202.819 224.996C202.318 225.512 202.067 226.228 202.067 227.145C202.067 228.061 202.318 228.792 202.819 229.336C203.334 229.866 203.957 230.131 204.688 230.131C205.418 230.131 206.034 229.866 206.535 229.336C207.051 228.806 207.309 228.083 207.309 227.166ZM221.158 221.044C222.561 221.044 223.679 221.502 224.509 222.419C225.354 223.321 225.777 224.567 225.777 226.157V233.16H222.125V226.651C222.125 225.849 221.917 225.226 221.502 224.782C221.086 224.338 220.528 224.116 219.826 224.116C219.124 224.116 218.566 224.338 218.151 224.782C217.735 225.226 217.528 225.849 217.528 226.651V233.16H213.854V221.173H217.528V222.762C217.9 222.233 218.401 221.817 219.031 221.516C219.661 221.201 220.37 221.044 221.158 221.044ZM235.869 233.16L232.217 228.133V233.16H228.544V217.263H232.217V226.049L235.848 221.173H240.38L235.397 227.188L240.423 233.16H235.869Z" fill="white"/>
<path d="M213.112 22.2711C222.401 22.2711 230.985 27.2267 235.629 35.2711L242.889 47.8459C247.534 55.8903 247.534 65.8014 242.889 73.8459L235.629 86.4206C230.985 94.465 222.401 99.4206 213.112 99.4206L198.592 99.4206C189.303 99.4206 180.72 94.465 176.076 86.4206L168.816 73.8459C164.171 65.8015 164.171 55.8903 168.816 47.8459L176.076 35.2711C180.72 27.2267 189.303 22.2711 198.592 22.2711L213.112 22.2711Z" fill="white"/>
<path d="M213.112 22.2711C222.401 22.2711 230.985 27.2267 235.629 35.2711L242.889 47.8459C247.534 55.8903 247.534 65.8014 242.889 73.8459L235.629 86.4206C230.985 94.465 222.401 99.4206 213.112 99.4206L198.592 99.4206C189.303 99.4206 180.72 94.465 176.076 86.4206L168.816 73.8459C164.171 65.8015 164.171 55.8903 168.816 47.8459L176.076 35.2711C180.72 27.2267 189.303 22.2711 198.592 22.2711L213.112 22.2711Z" fill="url(#paint1_linear)"/>
<path d="M215.066 58.8595H218.94V68.1347H215.066V58.8595Z" fill="white"/>
<path d="M207.73 58.8595H211.604V68.1347H207.73V58.8595Z" fill="white"/>
<path d="M200.394 58.8595H204.268V68.1347H200.394V58.8595Z" fill="white"/>
<path d="M193.059 58.8595H196.932V68.1347H193.059V58.8595Z" fill="white"/>
<path d="M220.231 55.9541V54.9856H191.767V55.9541C191.767 56.489 192.201 56.9226 192.736 56.9226H219.262C219.797 56.9226 220.231 56.489 220.231 55.9541Z" fill="white"/>
<path d="M221.559 70.0716H190.44C189.905 70.0716 189.471 70.5051 189.471 71.0401V73.6227C189.471 74.1576 189.905 74.5911 190.44 74.5911H221.559C222.094 74.5911 222.527 74.1576 222.527 73.6227V71.0401C222.527 70.5051 222.094 70.0716 221.559 70.0716Z" fill="white"/>
<path d="M190.439 53.0487H221.559C221.993 53.0487 222.373 52.7609 222.491 52.344C222.609 51.9271 222.436 51.4825 222.067 51.2555L206.507 41.6777C206.196 41.486 205.803 41.486 205.492 41.6777L189.931 51.2555C189.562 51.4827 189.389 51.9271 189.507 52.344C189.625 52.7609 190.006 53.0487 190.439 53.0487ZM205.341 47.2303H206.658C207.193 47.2303 207.626 47.6638 207.626 48.1987C207.626 48.7337 207.193 49.1672 206.658 49.1672H205.341C204.806 49.1672 204.372 48.7337 204.372 48.1987C204.372 47.6638 204.806 47.2303 205.341 47.2303Z" fill="white"/>
<g filter="url(#filter0_ddd)">
<path d="M300.726 311.818C296.082 303.774 296.082 293.863 300.726 285.818L307.986 273.244C312.631 265.199 321.214 260.244 330.503 260.244H345.023C354.312 260.244 362.895 265.199 367.54 273.244L374.8 285.818C379.444 293.863 379.444 303.774 374.8 311.818L367.54 324.393C362.895 332.438 354.312 337.393 345.023 337.393H330.503C321.214 337.393 312.631 332.438 307.986 324.393L300.726 311.818Z" fill="white"/>
</g>
<path d="M347.829 298.798C347.829 297.715 348.707 296.838 349.789 296.838C350.871 296.838 351.749 297.715 351.749 298.798V304.264C351.749 305.346 350.871 306.224 349.789 306.224C348.707 306.224 347.829 305.346 347.829 304.264V298.798Z" fill="white"/>
<path d="M347.829 298.798C347.829 297.715 348.707 296.838 349.789 296.838C350.871 296.838 351.749 297.715 351.749 298.798V304.264C351.749 305.346 350.871 306.224 349.789 306.224C348.707 306.224 347.829 305.346 347.829 304.264V298.798Z" fill="url(#paint2_linear)"/>
<path d="M340.406 298.798C340.406 297.715 341.284 296.838 342.366 296.838C343.449 296.838 344.326 297.715 344.326 298.798V304.264C344.326 305.346 343.449 306.224 342.366 306.224C341.284 306.224 340.406 305.346 340.406 304.264V298.798Z" fill="white"/>
<path d="M340.406 298.798C340.406 297.715 341.284 296.838 342.366 296.838C343.449 296.838 344.326 297.715 344.326 298.798V304.264C344.326 305.346 343.449 306.224 342.366 306.224C341.284 306.224 340.406 305.346 340.406 304.264V298.798Z" fill="url(#paint3_linear)"/>
<path d="M332.982 298.798C332.982 297.715 333.86 296.838 334.943 296.838C336.025 296.838 336.903 297.715 336.903 298.798V304.264C336.903 305.346 336.025 306.224 334.943 306.224C333.86 306.224 332.982 305.346 332.982 304.264V298.798Z" fill="white"/>
<path d="M332.982 298.798C332.982 297.715 333.86 296.838 334.943 296.838C336.025 296.838 336.903 297.715 336.903 298.798V304.264C336.903 305.346 336.025 306.224 334.943 306.224C333.86 306.224 332.982 305.346 332.982 304.264V298.798Z" fill="url(#paint4_linear)"/>
<path d="M325.56 298.798C325.56 297.715 326.437 296.838 327.519 296.838C328.602 296.838 329.479 297.715 329.479 298.798V304.264C329.479 305.346 328.602 306.224 327.519 306.224C326.437 306.224 325.56 305.346 325.56 304.264V298.798Z" fill="white"/>
<path d="M325.56 298.798C325.56 297.715 326.437 296.838 327.519 296.838C328.602 296.838 329.479 297.715 329.479 298.798V304.264C329.479 305.346 328.602 306.224 327.519 306.224C326.437 306.224 325.56 305.346 325.56 304.264V298.798Z" fill="url(#paint5_linear)"/>
<path d="M353.055 293.898C353.055 293.357 352.617 292.918 352.075 292.918H325.233C324.692 292.918 324.253 293.357 324.253 293.898C324.253 294.439 324.692 294.878 325.233 294.878H352.075C352.616 294.878 353.055 294.439 353.055 293.898Z" fill="white"/>
<path d="M353.055 293.898C353.055 293.357 352.617 292.918 352.075 292.918H325.233C324.692 292.918 324.253 293.357 324.253 293.898C324.253 294.439 324.692 294.878 325.233 294.878H352.075C352.616 294.878 353.055 294.439 353.055 293.898Z" fill="url(#paint6_linear)"/>
<path d="M354.399 308.184H322.909C322.368 308.184 321.929 308.622 321.929 309.164V311.777C321.929 312.318 322.368 312.757 322.909 312.757H354.399C354.94 312.757 355.379 312.318 355.379 311.777V309.164C355.379 308.622 354.94 308.184 354.399 308.184Z" fill="white"/>
<path d="M354.399 308.184H322.909C322.368 308.184 321.929 308.622 321.929 309.164V311.777C321.929 312.318 322.368 312.757 322.909 312.757H354.399C354.94 312.757 355.379 312.318 355.379 311.777V309.164C355.379 308.622 354.94 308.184 354.399 308.184Z" fill="url(#paint7_linear)"/>
<path d="M322.909 290.958H354.4C354.838 290.958 355.223 290.667 355.343 290.245C355.462 289.823 355.287 289.373 354.914 289.143L339.168 279.451C338.853 279.257 338.456 279.257 338.141 279.451L322.395 289.143C322.022 289.373 321.846 289.823 321.966 290.245C322.085 290.667 322.47 290.958 322.909 290.958ZM337.988 285.07H339.321C339.862 285.07 340.301 285.509 340.301 286.05C340.301 286.591 339.862 287.03 339.321 287.03H337.988C337.447 287.03 337.008 286.591 337.008 286.05C337.008 285.509 337.447 285.07 337.988 285.07Z" fill="white"/>
<path d="M322.909 290.958H354.4C354.838 290.958 355.223 290.667 355.343 290.245C355.462 289.823 355.287 289.373 354.914 289.143L339.168 279.451C338.853 279.257 338.456 279.257 338.141 279.451L322.395 289.143C322.022 289.373 321.846 289.823 321.966 290.245C322.085 290.667 322.47 290.958 322.909 290.958ZM337.988 285.07H339.321C339.862 285.07 340.301 285.509 340.301 286.05C340.301 286.591 339.862 287.03 339.321 287.03H337.988C337.447 287.03 337.008 286.591 337.008 286.05C337.008 285.509 337.447 285.07 337.988 285.07Z" fill="url(#paint8_linear)"/>
<g filter="url(#filter1_ddd)">
<path d="M41.5085 311.818C36.864 303.774 36.864 293.863 41.5085 285.818L48.7685 273.244C53.413 265.199 61.9963 260.244 71.2852 260.244H85.8052C95.0941 260.244 103.677 265.199 108.322 273.244L115.582 285.818C120.226 293.863 120.226 303.774 115.582 311.818L108.322 324.393C103.677 332.438 95.0941 337.393 85.8052 337.393H71.2852C61.9963 337.393 53.413 332.438 48.7685 324.393L41.5085 311.818Z" fill="white"/>
</g>
<path d="M87.7207 296.838H91.6405V306.224H87.7207V296.838Z" fill="url(#paint9_linear)"/>
<path d="M80.2977 296.838H84.2178V306.224H80.2977V296.838Z" fill="url(#paint10_linear)"/>
<path d="M72.8741 296.838H76.7942V306.224H72.8741V296.838Z" fill="url(#paint11_linear)"/>
<path d="M65.4511 296.838H69.371V306.224H65.4511V296.838Z" fill="url(#paint12_linear)"/>
<path d="M92.947 293.898V292.918H64.1445V293.898C64.1445 294.439 64.5832 294.878 65.1245 294.878H91.967C92.508 294.878 92.947 294.439 92.947 293.898Z" fill="url(#paint13_linear)"/>
<path d="M94.2907 308.184H62.801C62.2597 308.184 61.821 308.622 61.821 309.164V311.777C61.821 312.318 62.2597 312.757 62.801 312.757H94.2907C94.832 312.757 95.2707 312.318 95.2707 311.777V309.164C95.2707 308.622 94.832 308.184 94.2907 308.184Z" fill="url(#paint14_linear)"/>
<path d="M62.8002 290.958H94.2915C94.7299 290.958 95.115 290.667 95.2345 290.245C95.3537 289.823 95.1786 289.373 94.8052 289.143L79.0596 279.451C78.7447 279.257 78.3473 279.257 78.0321 279.451L62.2865 289.143C61.9131 289.373 61.738 289.823 61.8575 290.245C61.9769 290.667 62.362 290.958 62.8002 290.958ZM77.8797 285.07H79.2122C79.7535 285.07 80.1922 285.509 80.1922 286.05C80.1922 286.591 79.7535 287.03 79.2122 287.03H77.8797C77.3384 287.03 76.8997 286.591 76.8997 286.05C76.8997 285.509 77.3384 285.07 77.8797 285.07Z" fill="url(#paint15_linear)"/>
<g filter="url(#filter2_ddd)">
<path d="M382.495 124.238C387.14 132.283 387.14 142.194 382.495 150.238L375.235 162.813C370.591 170.858 362.008 175.813 352.719 175.813H338.199C328.91 175.813 320.326 170.858 315.682 162.813L308.422 150.239C303.778 142.194 303.778 132.283 308.422 124.238L315.682 111.664C320.326 103.619 328.91 98.6638 338.199 98.6638H352.719C362.008 98.6638 370.591 103.619 375.235 111.664L382.495 124.238Z" fill="white"/>
</g>
<path d="M354.633 135.258H358.553V144.644H354.633V135.258Z" fill="url(#paint16_linear)"/>
<path d="M347.21 135.258H351.13V144.644H347.21V135.258Z" fill="url(#paint17_linear)"/>
<path d="M339.786 135.258H343.706V144.644H339.786V135.258Z" fill="url(#paint18_linear)"/>
<path d="M332.363 135.258H336.283V144.644H332.363V135.258Z" fill="url(#paint19_linear)"/>
<path d="M359.859 132.318V131.338H331.057V132.318C331.057 132.859 331.495 133.298 332.037 133.298H358.879C359.42 133.298 359.859 132.859 359.859 132.318Z" fill="url(#paint20_linear)"/>
<path d="M361.203 146.604H329.713C329.172 146.604 328.733 147.043 328.733 147.584V150.197C328.733 150.739 329.172 151.177 329.713 151.177H361.203C361.744 151.177 362.183 150.739 362.183 150.197V147.584C362.183 147.043 361.744 146.604 361.203 146.604Z" fill="url(#paint21_linear)"/>
<path d="M329.712 129.378H361.204C361.642 129.378 362.027 129.087 362.147 128.665C362.266 128.243 362.091 127.793 361.717 127.564L345.972 117.872C345.657 117.678 345.259 117.678 344.944 117.872L329.199 127.564C328.825 127.793 328.65 128.243 328.77 128.665C328.889 129.087 329.274 129.378 329.712 129.378ZM344.792 123.49H346.124C346.666 123.49 347.104 123.929 347.104 124.47C347.104 125.012 346.666 125.45 346.124 125.45H344.792C344.251 125.45 343.812 125.012 343.812 124.47C343.812 123.929 344.251 123.49 344.792 123.49Z" fill="url(#paint22_linear)"/>
<g filter="url(#filter3_ddd)">
<path d="M105.579 124.239C110.224 132.283 110.224 142.194 105.579 150.239L98.3194 162.813C93.6749 170.858 85.0916 175.813 75.8027 175.813H61.2827C51.9938 175.813 43.4105 170.858 38.766 162.813L31.506 150.239C26.8615 142.194 26.8615 132.283 31.506 124.239L38.766 111.664C43.4104 103.619 51.9938 98.6638 61.2827 98.6638H75.8027C85.0916 98.6638 93.6749 103.619 98.3194 111.664L105.579 124.239Z" fill="white"/>
</g>
<path d="M77.7168 135.258H81.6366V144.644H77.7168V135.258Z" fill="url(#paint23_linear)"/>
<path d="M70.2938 135.258H74.2139V144.644H70.2938V135.258Z" fill="url(#paint24_linear)"/>
<path d="M62.8702 135.258H66.7903V144.644H62.8702V135.258Z" fill="url(#paint25_linear)"/>
<path d="M55.4472 135.258H59.367V144.644H55.4472V135.258Z" fill="url(#paint26_linear)"/>
<path d="M82.9431 132.318V131.338H54.1405V132.318C54.1405 132.859 54.5793 133.298 55.1206 133.298H81.9631C82.5041 133.298 82.9431 132.859 82.9431 132.318Z" fill="url(#paint27_linear)"/>
<path d="M84.2868 146.604H52.7971C52.2558 146.604 51.8171 147.043 51.8171 147.584V150.197C51.8171 150.739 52.2558 151.177 52.7971 151.177H84.2868C84.8281 151.177 85.2668 150.739 85.2668 150.197V147.584C85.2668 147.043 84.8281 146.604 84.2868 146.604Z" fill="url(#paint28_linear)"/>
<path d="M52.7963 129.378H84.2876C84.726 129.378 85.1111 129.087 85.2306 128.665C85.3498 128.243 85.1747 127.793 84.8013 127.564L69.0557 117.872C68.7408 117.678 68.3434 117.678 68.0282 117.872L52.2826 127.564C51.9092 127.793 51.7341 128.243 51.8536 128.665C51.973 129.087 52.3581 129.378 52.7963 129.378ZM67.8758 123.49H69.2083C69.7496 123.49 70.1883 123.929 70.1883 124.47C70.1883 125.012 69.7496 125.45 69.2083 125.45H67.8758C67.3345 125.45 66.8958 125.012 66.8958 124.47C66.8958 123.929 67.3345 123.49 67.8758 123.49Z" fill="url(#paint29_linear)"/>
<g filter="url(#filter4_ddd)">
<path d="M169.194 377.585C164.55 369.54 164.55 359.629 169.194 351.585L176.454 339.01C181.099 330.965 189.682 326.01 198.971 326.01H213.491C222.78 326.01 231.363 330.965 236.007 339.01L243.267 351.585C247.912 359.629 247.912 369.54 243.267 377.585L236.007 390.159C231.363 398.204 222.78 403.159 213.491 403.159H198.971C189.682 403.159 181.099 398.204 176.454 390.159L169.194 377.585Z" fill="white"/>
</g>
<path d="M215.406 362.603H219.326V371.989H215.406V362.603Z" fill="url(#paint30_linear)"/>
<path d="M207.983 362.603H211.903V371.989H207.983V362.603Z" fill="url(#paint31_linear)"/>
<path d="M200.56 362.603H204.48V371.989H200.56V362.603Z" fill="url(#paint32_linear)"/>
<path d="M193.137 362.603H197.057V371.989H193.137V362.603Z" fill="url(#paint33_linear)"/>
<path d="M220.633 359.663V358.683H191.83V359.663C191.83 360.204 192.269 360.643 192.81 360.643H219.653C220.194 360.643 220.633 360.204 220.633 359.663Z" fill="url(#paint34_linear)"/>
<path d="M221.976 373.949H190.487C189.945 373.949 189.507 374.387 189.507 374.929V377.542C189.507 378.083 189.945 378.522 190.487 378.522H221.976C222.518 378.522 222.956 378.083 222.956 377.542V374.929C222.956 374.387 222.518 373.949 221.976 373.949Z" fill="url(#paint35_linear)"/>
<path d="M190.486 356.723H221.977C222.415 356.723 222.801 356.432 222.92 356.01C223.039 355.588 222.864 355.138 222.491 354.908L206.745 345.216C206.43 345.022 206.033 345.022 205.718 345.216L189.972 354.908C189.599 355.138 189.424 355.588 189.543 356.01C189.662 356.432 190.048 356.723 190.486 356.723ZM205.565 350.835H206.898C207.439 350.835 207.878 351.274 207.878 351.815C207.878 352.356 207.439 352.795 206.898 352.795H205.565C205.024 352.795 204.585 352.356 204.585 351.815C204.585 351.274 205.024 350.835 205.565 350.835Z" fill="url(#paint36_linear)"/>
<path d="M71.1555 26.416H73.8435V28H69.1035V19.576H71.1555V26.416ZM74.5342 24.64C74.5342 23.952 74.6622 23.348 74.9182 22.828C75.1822 22.308 75.5382 21.908 75.9862 21.628C76.4342 21.348 76.9342 21.208 77.4862 21.208C77.9582 21.208 78.3702 21.304 78.7222 21.496C79.0822 21.688 79.3582 21.94 79.5502 22.252V21.304H81.6022V28H79.5502V27.052C79.3502 27.364 79.0702 27.616 78.7102 27.808C78.3582 28 77.9462 28.096 77.4742 28.096C76.9302 28.096 76.4342 27.956 75.9862 27.676C75.5382 27.388 75.1822 26.984 74.9182 26.464C74.6622 25.936 74.5342 25.328 74.5342 24.64ZM79.5502 24.652C79.5502 24.14 79.4062 23.736 79.1182 23.44C78.8382 23.144 78.4942 22.996 78.0862 22.996C77.6782 22.996 77.3302 23.144 77.0422 23.44C76.7622 23.728 76.6222 24.128 76.6222 24.64C76.6222 25.152 76.7622 25.56 77.0422 25.864C77.3302 26.16 77.6782 26.308 78.0862 26.308C78.4942 26.308 78.8382 26.16 79.1182 25.864C79.4062 25.568 79.5502 25.164 79.5502 24.652ZM86.9387 26.26V28H85.8947C85.1507 28 84.5707 27.82 84.1547 27.46C83.7387 27.092 83.5307 26.496 83.5307 25.672V23.008H82.7147V21.304H83.5307V19.672H85.5827V21.304H86.9267V23.008H85.5827V25.696C85.5827 25.896 85.6307 26.04 85.7267 26.128C85.8227 26.216 85.9827 26.26 86.2067 26.26H86.9387ZM94.5137 24.544C94.5137 24.736 94.5017 24.936 94.4777 25.144H89.8337C89.8657 25.56 89.9977 25.88 90.2297 26.104C90.4697 26.32 90.7617 26.428 91.1057 26.428C91.6177 26.428 91.9737 26.212 92.1737 25.78H94.3577C94.2457 26.22 94.0417 26.616 93.7457 26.968C93.4577 27.32 93.0937 27.596 92.6537 27.796C92.2137 27.996 91.7217 28.096 91.1777 28.096C90.5217 28.096 89.9377 27.956 89.4257 27.676C88.9137 27.396 88.5137 26.996 88.2257 26.476C87.9377 25.956 87.7937 25.348 87.7937 24.652C87.7937 23.956 87.9337 23.348 88.2137 22.828C88.5017 22.308 88.9017 21.908 89.4137 21.628C89.9257 21.348 90.5137 21.208 91.1777 21.208C91.8257 21.208 92.4017 21.344 92.9057 21.616C93.4097 21.888 93.8017 22.276 94.0817 22.78C94.3697 23.284 94.5137 23.872 94.5137 24.544ZM92.4137 24.004C92.4137 23.652 92.2937 23.372 92.0537 23.164C91.8137 22.956 91.5137 22.852 91.1537 22.852C90.8097 22.852 90.5177 22.952 90.2777 23.152C90.0457 23.352 89.9017 23.636 89.8457 24.004H92.4137ZM103.623 26.512H100.479L99.9752 28H97.8272L100.875 19.576H103.251L106.299 28H104.127L103.623 26.512ZM103.095 24.928L102.051 21.844L101.019 24.928H103.095ZM109.399 22.42C109.639 22.052 109.939 21.764 110.299 21.556C110.659 21.34 111.059 21.232 111.499 21.232V23.404H110.935C110.423 23.404 110.039 23.516 109.783 23.74C109.527 23.956 109.399 24.34 109.399 24.892V28H107.347V21.304H109.399V22.42ZM114.652 22.42C114.892 22.052 115.192 21.764 115.552 21.556C115.912 21.34 116.312 21.232 116.752 21.232V23.404H116.188C115.676 23.404 115.292 23.516 115.036 23.74C114.78 23.956 114.652 24.34 114.652 24.892V28H112.6V21.304H114.652V22.42ZM118.885 20.608C118.525 20.608 118.229 20.504 117.997 20.296C117.773 20.08 117.661 19.816 117.661 19.504C117.661 19.184 117.773 18.92 117.997 18.712C118.229 18.496 118.525 18.388 118.885 18.388C119.237 18.388 119.525 18.496 119.749 18.712C119.981 18.92 120.097 19.184 120.097 19.504C120.097 19.816 119.981 20.08 119.749 20.296C119.525 20.504 119.237 20.608 118.885 20.608ZM119.905 21.304V28H117.853V21.304H119.905ZM124.524 26.08L125.976 21.304H128.16L125.784 28H123.252L120.876 21.304H123.072L124.524 26.08ZM130.175 20.608C129.815 20.608 129.519 20.504 129.287 20.296C129.063 20.08 128.951 19.816 128.951 19.504C128.951 19.184 129.063 18.92 129.287 18.712C129.519 18.496 129.815 18.388 130.175 18.388C130.527 18.388 130.815 18.496 131.039 18.712C131.271 18.92 131.387 19.184 131.387 19.504C131.387 19.816 131.271 20.08 131.039 20.296C130.815 20.504 130.527 20.608 130.175 20.608ZM131.195 21.304V28H129.143V21.304H131.195ZM136.882 21.232C137.666 21.232 138.29 21.488 138.754 22C139.226 22.504 139.462 23.2 139.462 24.088V28H137.422V24.364C137.422 23.916 137.306 23.568 137.074 23.32C136.842 23.072 136.53 22.948 136.138 22.948C135.746 22.948 135.434 23.072 135.202 23.32C134.97 23.568 134.854 23.916 134.854 24.364V28H132.802V21.304H134.854V22.192C135.062 21.896 135.342 21.664 135.694 21.496C136.046 21.32 136.442 21.232 136.882 21.232ZM143.552 21.208C144.024 21.208 144.436 21.304 144.788 21.496C145.148 21.688 145.424 21.94 145.616 22.252V21.304H147.668V27.988C147.668 28.604 147.544 29.16 147.296 29.656C147.056 30.16 146.684 30.56 146.18 30.856C145.684 31.152 145.064 31.3 144.32 31.3C143.328 31.3 142.524 31.064 141.908 30.592C141.292 30.128 140.94 29.496 140.852 28.696H142.88C142.944 28.952 143.096 29.152 143.336 29.296C143.576 29.448 143.872 29.524 144.224 29.524C144.648 29.524 144.984 29.4 145.232 29.152C145.488 28.912 145.616 28.524 145.616 27.988V27.04C145.416 27.352 145.14 27.608 144.788 27.808C144.436 28 144.024 28.096 143.552 28.096C143 28.096 142.5 27.956 142.052 27.676C141.604 27.388 141.248 26.984 140.984 26.464C140.728 25.936 140.6 25.328 140.6 24.64C140.6 23.952 140.728 23.348 140.984 22.828C141.248 22.308 141.604 21.908 142.052 21.628C142.5 21.348 143 21.208 143.552 21.208ZM145.616 24.652C145.616 24.14 145.472 23.736 145.184 23.44C144.904 23.144 144.56 22.996 144.152 22.996C143.744 22.996 143.396 23.144 143.108 23.44C142.828 23.728 142.688 24.128 142.688 24.64C142.688 25.152 142.828 25.56 143.108 25.864C143.396 26.16 143.744 26.308 144.152 26.308C144.56 26.308 144.904 26.16 145.184 25.864C145.472 25.568 145.616 25.164 145.616 24.652ZM106.256 35.576L104.06 44H101.576L100.232 38.456L98.8404 44H96.3564L94.2204 35.576H96.4164L97.6284 41.708L99.1284 35.576H101.384L102.824 41.708L104.048 35.576H106.256ZM108.437 36.608C108.077 36.608 107.781 36.504 107.549 36.296C107.325 36.08 107.213 35.816 107.213 35.504C107.213 35.184 107.325 34.92 107.549 34.712C107.781 34.496 108.077 34.388 108.437 34.388C108.789 34.388 109.077 34.496 109.301 34.712C109.533 34.92 109.649 35.184 109.649 35.504C109.649 35.816 109.533 36.08 109.301 36.296C109.077 36.504 108.789 36.608 108.437 36.608ZM109.457 37.304V44H107.405V37.304H109.457ZM113.117 38.42C113.357 38.052 113.657 37.764 114.017 37.556C114.377 37.34 114.777 37.232 115.217 37.232V39.404H114.653C114.141 39.404 113.757 39.516 113.501 39.74C113.245 39.956 113.117 40.34 113.117 40.892V44H111.065V37.304H113.117V38.42ZM122.629 40.544C122.629 40.736 122.617 40.936 122.593 41.144H117.949C117.981 41.56 118.113 41.88 118.345 42.104C118.585 42.32 118.877 42.428 119.221 42.428C119.733 42.428 120.089 42.212 120.289 41.78H122.473C122.361 42.22 122.157 42.616 121.861 42.968C121.573 43.32 121.209 43.596 120.769 43.796C120.329 43.996 119.837 44.096 119.293 44.096C118.637 44.096 118.053 43.956 117.541 43.676C117.029 43.396 116.629 42.996 116.341 42.476C116.053 41.956 115.909 41.348 115.909 40.652C115.909 39.956 116.049 39.348 116.329 38.828C116.617 38.308 117.017 37.908 117.529 37.628C118.041 37.348 118.629 37.208 119.293 37.208C119.941 37.208 120.517 37.344 121.021 37.616C121.525 37.888 121.917 38.276 122.197 38.78C122.485 39.284 122.629 39.872 122.629 40.544ZM120.529 40.004C120.529 39.652 120.409 39.372 120.169 39.164C119.929 38.956 119.629 38.852 119.269 38.852C118.925 38.852 118.633 38.952 118.393 39.152C118.161 39.352 118.017 39.636 117.961 40.004H120.529Z" fill="white"/>
<path opacity="0.2" d="M148.313 63.1633C148.575 62.9011 148.575 62.4761 148.313 62.2139L144.04 57.9418C143.778 57.6796 143.353 57.6796 143.091 57.9418C142.829 58.2039 142.829 58.629 143.091 58.8911L146.889 62.6886L143.091 66.4861C142.829 66.7482 142.829 67.1733 143.091 67.4354C143.353 67.6976 143.778 67.6976 144.04 67.4354L148.313 63.1633ZM61.6621 63.3599L147.838 63.3599L147.838 62.0173L61.6621 62.0173L61.6621 63.3599Z" fill="white"/>
<path d="M136.181 120.04H138.869V121.624H134.129V113.2H136.181V120.04ZM140.999 114.232C140.639 114.232 140.343 114.128 140.111 113.92C139.887 113.704 139.775 113.44 139.775 113.128C139.775 112.808 139.887 112.544 140.111 112.336C140.343 112.12 140.639 112.012 140.999 112.012C141.351 112.012 141.639 112.12 141.863 112.336C142.095 112.544 142.211 112.808 142.211 113.128C142.211 113.44 142.095 113.704 141.863 113.92C141.639 114.128 141.351 114.232 140.999 114.232ZM142.019 114.928V121.624H139.967V114.928H142.019ZM147.706 114.856C148.49 114.856 149.114 115.112 149.578 115.624C150.05 116.128 150.286 116.824 150.286 117.712V121.624H148.246V117.988C148.246 117.54 148.13 117.192 147.898 116.944C147.666 116.696 147.354 116.572 146.962 116.572C146.57 116.572 146.258 116.696 146.026 116.944C145.794 117.192 145.678 117.54 145.678 117.988V121.624H143.626V114.928H145.678V115.816C145.886 115.52 146.166 115.288 146.518 115.12C146.87 114.944 147.266 114.856 147.706 114.856ZM158.144 118.168C158.144 118.36 158.132 118.56 158.108 118.768H153.464C153.496 119.184 153.628 119.504 153.86 119.728C154.1 119.944 154.392 120.052 154.736 120.052C155.248 120.052 155.604 119.836 155.804 119.404H157.988C157.876 119.844 157.672 120.24 157.376 120.592C157.088 120.944 156.724 121.22 156.284 121.42C155.844 121.62 155.352 121.72 154.808 121.72C154.152 121.72 153.568 121.58 153.056 121.3C152.544 121.02 152.144 120.62 151.856 120.1C151.568 119.58 151.424 118.972 151.424 118.276C151.424 117.58 151.564 116.972 151.844 116.452C152.132 115.932 152.532 115.532 153.044 115.252C153.556 114.972 154.144 114.832 154.808 114.832C155.456 114.832 156.032 114.968 156.536 115.24C157.04 115.512 157.432 115.9 157.712 116.404C158 116.908 158.144 117.496 158.144 118.168ZM156.044 117.628C156.044 117.276 155.924 116.996 155.684 116.788C155.444 116.58 155.144 116.476 154.784 116.476C154.44 116.476 154.148 116.576 153.908 116.776C153.676 116.976 153.532 117.26 153.476 117.628H156.044ZM165.058 121.72C164.402 121.72 163.81 121.58 163.282 121.3C162.762 121.02 162.35 120.62 162.046 120.1C161.75 119.58 161.602 118.972 161.602 118.276C161.602 117.588 161.754 116.984 162.058 116.464C162.362 115.936 162.778 115.532 163.306 115.252C163.834 114.972 164.426 114.832 165.082 114.832C165.738 114.832 166.33 114.972 166.858 115.252C167.386 115.532 167.802 115.936 168.106 116.464C168.41 116.984 168.562 117.588 168.562 118.276C168.562 118.964 168.406 119.572 168.094 120.1C167.79 120.62 167.37 121.02 166.834 121.3C166.306 121.58 165.714 121.72 165.058 121.72ZM165.058 119.944C165.45 119.944 165.782 119.8 166.054 119.512C166.334 119.224 166.474 118.812 166.474 118.276C166.474 117.74 166.338 117.328 166.066 117.04C165.802 116.752 165.474 116.608 165.082 116.608C164.682 116.608 164.35 116.752 164.086 117.04C163.822 117.32 163.69 117.732 163.69 118.276C163.69 118.812 163.818 119.224 164.074 119.512C164.338 119.8 164.666 119.944 165.058 119.944ZM173.131 116.632H172.027V121.624H169.975V116.632H169.231V114.928H169.975V114.736C169.975 113.912 170.211 113.288 170.683 112.864C171.155 112.432 171.847 112.216 172.759 112.216C172.911 112.216 173.023 112.22 173.095 112.228V113.968C172.703 113.944 172.427 114 172.267 114.136C172.107 114.272 172.027 114.516 172.027 114.868V114.928H173.131V116.632ZM118.123 134.276C118.123 133.58 118.263 132.972 118.543 132.452C118.831 131.932 119.227 131.532 119.731 131.252C120.243 130.972 120.827 130.832 121.483 130.832C122.323 130.832 123.023 131.052 123.583 131.492C124.151 131.932 124.523 132.552 124.699 133.352H122.515C122.331 132.84 121.975 132.584 121.447 132.584C121.071 132.584 120.771 132.732 120.547 133.028C120.323 133.316 120.211 133.732 120.211 134.276C120.211 134.82 120.323 135.24 120.547 135.536C120.771 135.824 121.071 135.968 121.447 135.968C121.975 135.968 122.331 135.712 122.515 135.2H124.699C124.523 135.984 124.151 136.6 123.583 137.048C123.015 137.496 122.315 137.72 121.483 137.72C120.827 137.72 120.243 137.58 119.731 137.3C119.227 137.02 118.831 136.62 118.543 136.1C118.263 135.58 118.123 134.972 118.123 134.276ZM127.969 132.044C128.209 131.676 128.509 131.388 128.869 131.18C129.229 130.964 129.629 130.856 130.069 130.856V133.028H129.505C128.993 133.028 128.609 133.14 128.353 133.364C128.097 133.58 127.969 133.964 127.969 134.516V137.624H125.917V130.928H127.969V132.044ZM137.482 134.168C137.482 134.36 137.47 134.56 137.446 134.768H132.802C132.834 135.184 132.966 135.504 133.198 135.728C133.438 135.944 133.73 136.052 134.074 136.052C134.586 136.052 134.942 135.836 135.142 135.404H137.326C137.214 135.844 137.01 136.24 136.714 136.592C136.426 136.944 136.062 137.22 135.622 137.42C135.182 137.62 134.69 137.72 134.146 137.72C133.49 137.72 132.906 137.58 132.394 137.3C131.882 137.02 131.482 136.62 131.194 136.1C130.906 135.58 130.762 134.972 130.762 134.276C130.762 133.58 130.902 132.972 131.182 132.452C131.47 131.932 131.87 131.532 132.382 131.252C132.894 130.972 133.482 130.832 134.146 130.832C134.794 130.832 135.37 130.968 135.874 131.24C136.378 131.512 136.77 131.9 137.05 132.404C137.338 132.908 137.482 133.496 137.482 134.168ZM135.382 133.628C135.382 133.276 135.262 132.996 135.022 132.788C134.782 132.58 134.482 132.476 134.122 132.476C133.778 132.476 133.486 132.576 133.246 132.776C133.014 132.976 132.87 133.26 132.814 133.628H135.382ZM138.276 134.264C138.276 133.576 138.404 132.972 138.66 132.452C138.924 131.932 139.28 131.532 139.728 131.252C140.176 130.972 140.676 130.832 141.228 130.832C141.668 130.832 142.068 130.924 142.428 131.108C142.796 131.292 143.084 131.54 143.292 131.852V128.744H145.344V137.624H143.292V136.664C143.1 136.984 142.824 137.24 142.464 137.432C142.112 137.624 141.7 137.72 141.228 137.72C140.676 137.72 140.176 137.58 139.728 137.3C139.28 137.012 138.924 136.608 138.66 136.088C138.404 135.56 138.276 134.952 138.276 134.264ZM143.292 134.276C143.292 133.764 143.148 133.36 142.86 133.064C142.58 132.768 142.236 132.62 141.828 132.62C141.42 132.62 141.072 132.768 140.784 133.064C140.504 133.352 140.364 133.752 140.364 134.264C140.364 134.776 140.504 135.184 140.784 135.488C141.072 135.784 141.42 135.932 141.828 135.932C142.236 135.932 142.58 135.784 142.86 135.488C143.148 135.192 143.292 134.788 143.292 134.276ZM147.981 130.232C147.621 130.232 147.325 130.128 147.093 129.92C146.869 129.704 146.757 129.44 146.757 129.128C146.757 128.808 146.869 128.544 147.093 128.336C147.325 128.12 147.621 128.012 147.981 128.012C148.333 128.012 148.621 128.12 148.845 128.336C149.077 128.544 149.193 128.808 149.193 129.128C149.193 129.44 149.077 129.704 148.845 129.92C148.621 130.128 148.333 130.232 147.981 130.232ZM149.001 130.928V137.624H146.949V130.928H149.001ZM154.34 135.884V137.624H153.296C152.552 137.624 151.972 137.444 151.556 137.084C151.14 136.716 150.932 136.12 150.932 135.296V132.632H150.116V130.928H150.932V129.296H152.984V130.928H154.328V132.632H152.984V135.32C152.984 135.52 153.032 135.664 153.128 135.752C153.224 135.84 153.384 135.884 153.608 135.884H154.34ZM158.327 137.72C157.743 137.72 157.223 137.62 156.767 137.42C156.311 137.22 155.951 136.948 155.687 136.604C155.423 136.252 155.275 135.86 155.243 135.428H157.271C157.295 135.66 157.403 135.848 157.595 135.992C157.787 136.136 158.023 136.208 158.303 136.208C158.559 136.208 158.755 136.16 158.891 136.064C159.035 135.96 159.107 135.828 159.107 135.668C159.107 135.476 159.007 135.336 158.807 135.248C158.607 135.152 158.283 135.048 157.835 134.936C157.355 134.824 156.955 134.708 156.635 134.588C156.315 134.46 156.039 134.264 155.807 134C155.575 133.728 155.459 133.364 155.459 132.908C155.459 132.524 155.563 132.176 155.771 131.864C155.987 131.544 156.299 131.292 156.707 131.108C157.123 130.924 157.615 130.832 158.183 130.832C159.023 130.832 159.683 131.04 160.163 131.456C160.651 131.872 160.931 132.424 161.003 133.112H159.107C159.075 132.88 158.971 132.696 158.795 132.56C158.627 132.424 158.403 132.356 158.123 132.356C157.883 132.356 157.699 132.404 157.571 132.5C157.443 132.588 157.379 132.712 157.379 132.872C157.379 133.064 157.479 133.208 157.679 133.304C157.887 133.4 158.207 133.496 158.639 133.592C159.135 133.72 159.539 133.848 159.851 133.976C160.163 134.096 160.435 134.296 160.667 134.576C160.907 134.848 161.031 135.216 161.039 135.68C161.039 136.072 160.927 136.424 160.703 136.736C160.487 137.04 160.171 137.28 159.755 137.456C159.347 137.632 158.871 137.72 158.327 137.72ZM164.669 134.264C164.669 133.576 164.797 132.972 165.053 132.452C165.317 131.932 165.673 131.532 166.121 131.252C166.569 130.972 167.069 130.832 167.621 130.832C168.093 130.832 168.505 130.928 168.857 131.12C169.217 131.312 169.493 131.564 169.685 131.876V130.928H171.737V137.624H169.685V136.676C169.485 136.988 169.205 137.24 168.845 137.432C168.493 137.624 168.081 137.72 167.609 137.72C167.065 137.72 166.569 137.58 166.121 137.3C165.673 137.012 165.317 136.608 165.053 136.088C164.797 135.56 164.669 134.952 164.669 134.264ZM169.685 134.276C169.685 133.764 169.541 133.36 169.253 133.064C168.973 132.768 168.629 132.62 168.221 132.62C167.813 132.62 167.465 132.768 167.177 133.064C166.897 133.352 166.757 133.752 166.757 134.264C166.757 134.776 166.897 135.184 167.177 135.488C167.465 135.784 167.813 135.932 168.221 135.932C168.629 135.932 168.973 135.784 169.253 135.488C169.541 135.192 169.685 134.788 169.685 134.276ZM177.422 130.856C178.206 130.856 178.83 131.112 179.294 131.624C179.766 132.128 180.002 132.824 180.002 133.712V137.624H177.962V133.988C177.962 133.54 177.846 133.192 177.614 132.944C177.382 132.696 177.07 132.572 176.678 132.572C176.286 132.572 175.974 132.696 175.742 132.944C175.51 133.192 175.394 133.54 175.394 133.988V137.624H173.342V130.928H175.394V131.816C175.602 131.52 175.882 131.288 176.234 131.12C176.586 130.944 176.982 130.856 177.422 130.856ZM181.14 134.264C181.14 133.576 181.268 132.972 181.524 132.452C181.788 131.932 182.144 131.532 182.592 131.252C183.04 130.972 183.54 130.832 184.092 130.832C184.532 130.832 184.932 130.924 185.292 131.108C185.66 131.292 185.948 131.54 186.156 131.852V128.744H188.208V137.624H186.156V136.664C185.964 136.984 185.688 137.24 185.328 137.432C184.976 137.624 184.564 137.72 184.092 137.72C183.54 137.72 183.04 137.58 182.592 137.3C182.144 137.012 181.788 136.608 181.524 136.088C181.268 135.56 181.14 134.952 181.14 134.264ZM186.156 134.276C186.156 133.764 186.012 133.36 185.724 133.064C185.444 132.768 185.1 132.62 184.692 132.62C184.284 132.62 183.936 132.768 183.648 133.064C183.368 133.352 183.228 133.752 183.228 134.264C183.228 134.776 183.368 135.184 183.648 135.488C183.936 135.784 184.284 135.932 184.692 135.932C185.1 135.932 185.444 135.784 185.724 135.488C186.012 135.192 186.156 134.788 186.156 134.276ZM144.449 148.632H143.345V153.624H141.293V148.632H140.549V146.928H141.293V146.736C141.293 145.912 141.529 145.288 142.001 144.864C142.473 144.432 143.165 144.216 144.077 144.216C144.229 144.216 144.341 144.22 144.413 144.228V145.968C144.021 145.944 143.745 146 143.585 146.136C143.425 146.272 143.345 146.516 143.345 146.868V146.928H144.449V148.632ZM151.846 150.168C151.846 150.36 151.834 150.56 151.81 150.768H147.166C147.198 151.184 147.33 151.504 147.562 151.728C147.802 151.944 148.094 152.052 148.438 152.052C148.95 152.052 149.306 151.836 149.506 151.404H151.69C151.578 151.844 151.374 152.24 151.078 152.592C150.79 152.944 150.426 153.22 149.986 153.42C149.546 153.62 149.054 153.72 148.51 153.72C147.854 153.72 147.27 153.58 146.758 153.3C146.246 153.02 145.846 152.62 145.558 152.1C145.27 151.58 145.126 150.972 145.126 150.276C145.126 149.58 145.266 148.972 145.546 148.452C145.834 147.932 146.234 147.532 146.746 147.252C147.258 146.972 147.846 146.832 148.51 146.832C149.158 146.832 149.734 146.968 150.238 147.24C150.742 147.512 151.134 147.9 151.414 148.404C151.702 148.908 151.846 149.496 151.846 150.168ZM149.746 149.628C149.746 149.276 149.626 148.996 149.386 148.788C149.146 148.58 148.846 148.476 148.486 148.476C148.142 148.476 147.85 148.576 147.61 148.776C147.378 148.976 147.234 149.26 147.178 149.628H149.746ZM159.36 150.168C159.36 150.36 159.348 150.56 159.324 150.768H154.68C154.712 151.184 154.844 151.504 155.076 151.728C155.316 151.944 155.608 152.052 155.952 152.052C156.464 152.052 156.82 151.836 157.02 151.404H159.204C159.092 151.844 158.888 152.24 158.592 152.592C158.304 152.944 157.94 153.22 157.5 153.42C157.06 153.62 156.568 153.72 156.024 153.72C155.368 153.72 154.784 153.58 154.272 153.3C153.76 153.02 153.36 152.62 153.072 152.1C152.784 151.58 152.64 150.972 152.64 150.276C152.64 149.58 152.78 148.972 153.06 148.452C153.348 147.932 153.748 147.532 154.26 147.252C154.772 146.972 155.36 146.832 156.024 146.832C156.672 146.832 157.248 146.968 157.752 147.24C158.256 147.512 158.648 147.9 158.928 148.404C159.216 148.908 159.36 149.496 159.36 150.168ZM157.26 149.628C157.26 149.276 157.14 148.996 156.9 148.788C156.66 148.58 156.36 148.476 156 148.476C155.656 148.476 155.364 148.576 155.124 148.776C154.892 148.976 154.748 149.26 154.692 149.628H157.26ZM163.287 153.72C162.703 153.72 162.183 153.62 161.727 153.42C161.271 153.22 160.911 152.948 160.647 152.604C160.383 152.252 160.235 151.86 160.203 151.428H162.231C162.255 151.66 162.363 151.848 162.555 151.992C162.747 152.136 162.983 152.208 163.263 152.208C163.519 152.208 163.715 152.16 163.851 152.064C163.995 151.96 164.067 151.828 164.067 151.668C164.067 151.476 163.967 151.336 163.767 151.248C163.567 151.152 163.243 151.048 162.795 150.936C162.315 150.824 161.915 150.708 161.595 150.588C161.275 150.46 160.999 150.264 160.767 150C160.535 149.728 160.419 149.364 160.419 148.908C160.419 148.524 160.523 148.176 160.731 147.864C160.947 147.544 161.259 147.292 161.667 147.108C162.083 146.924 162.575 146.832 163.143 146.832C163.983 146.832 164.643 147.04 165.123 147.456C165.611 147.872 165.891 148.424 165.963 149.112H164.067C164.035 148.88 163.931 148.696 163.755 148.56C163.587 148.424 163.363 148.356 163.083 148.356C162.843 148.356 162.659 148.404 162.531 148.5C162.403 148.588 162.339 148.712 162.339 148.872C162.339 149.064 162.439 149.208 162.639 149.304C162.847 149.4 163.167 149.496 163.599 149.592C164.095 149.72 164.499 149.848 164.811 149.976C165.123 150.096 165.395 150.296 165.627 150.576C165.867 150.848 165.991 151.216 165.999 151.68C165.999 152.072 165.887 152.424 165.663 152.736C165.447 153.04 165.131 153.28 164.715 153.456C164.307 153.632 163.831 153.72 163.287 153.72Z" fill="white"/>
<path opacity="0.2" d="M204.919 156.264C205.181 156.526 205.606 156.526 205.868 156.264L210.14 151.992C210.403 151.73 210.403 151.305 210.14 151.043C209.878 150.78 209.453 150.78 209.191 151.043L205.394 154.84L201.596 151.043C201.334 150.78 200.909 150.78 200.647 151.043C200.385 151.305 200.385 151.73 200.647 151.992L204.919 156.264ZM205.868 109.004C205.606 108.742 205.181 108.742 204.919 109.004L200.647 113.276C200.385 113.539 200.385 113.964 200.647 114.226C200.909 114.488 201.334 114.488 201.596 114.226L205.394 110.428L209.191 114.226C209.453 114.488 209.878 114.488 210.14 114.226C210.403 113.964 210.403 113.539 210.14 113.276L205.868 109.004ZM206.065 155.789L206.065 109.479H204.722L204.722 155.789H206.065Z" fill="white"/>
<path opacity="0.2" d="M254.707 247.962C254.34 248.018 254.089 248.361 254.145 248.727L255.064 254.699C255.12 255.065 255.463 255.317 255.829 255.26C256.196 255.204 256.447 254.861 256.391 254.495L255.574 249.187L260.882 248.37C261.249 248.314 261.5 247.971 261.444 247.604C261.387 247.238 261.044 246.987 260.678 247.043L254.707 247.962ZM291.354 276.014C291.721 275.957 291.972 275.615 291.916 275.248L290.997 269.277C290.94 268.91 290.598 268.659 290.231 268.715C289.865 268.772 289.613 269.115 289.67 269.481L290.486 274.789L285.178 275.606C284.812 275.662 284.561 276.005 284.617 276.371C284.673 276.738 285.016 276.989 285.383 276.933L291.354 276.014ZM254.412 249.167L290.855 275.892L291.649 274.809L255.206 248.084L254.412 249.167Z" fill="white"/>
<path d="M296.798 208.084C296.182 208.084 295.63 207.984 295.142 207.784C294.654 207.584 294.262 207.288 293.966 206.896C293.678 206.504 293.526 206.032 293.51 205.48H295.694C295.726 205.792 295.834 206.032 296.018 206.2C296.202 206.36 296.442 206.44 296.738 206.44C297.042 206.44 297.282 206.372 297.458 206.236C297.634 206.092 297.722 205.896 297.722 205.648C297.722 205.44 297.65 205.268 297.506 205.132C297.37 204.996 297.198 204.884 296.99 204.796C296.79 204.708 296.502 204.608 296.126 204.496C295.582 204.328 295.138 204.16 294.794 203.992C294.45 203.824 294.154 203.576 293.906 203.248C293.658 202.92 293.534 202.492 293.534 201.964C293.534 201.18 293.818 200.568 294.386 200.128C294.954 199.68 295.694 199.456 296.606 199.456C297.534 199.456 298.282 199.68 298.85 200.128C299.418 200.568 299.722 201.184 299.762 201.976H297.542C297.526 201.704 297.426 201.492 297.242 201.34C297.058 201.18 296.822 201.1 296.534 201.1C296.286 201.1 296.086 201.168 295.934 201.304C295.782 201.432 295.706 201.62 295.706 201.868C295.706 202.14 295.834 202.352 296.09 202.504C296.346 202.656 296.746 202.82 297.29 202.996C297.834 203.18 298.274 203.356 298.61 203.524C298.954 203.692 299.25 203.936 299.498 204.256C299.746 204.576 299.87 204.988 299.87 205.492C299.87 205.972 299.746 206.408 299.498 206.8C299.258 207.192 298.906 207.504 298.442 207.736C297.978 207.968 297.43 208.084 296.798 208.084ZM310.865 201.304L309.053 208H306.785L305.729 203.656L304.637 208H302.381L300.557 201.304H302.609L303.557 206.092L304.685 201.304H306.857L307.997 206.068L308.933 201.304H310.865ZM318.079 204.544C318.079 204.736 318.067 204.936 318.043 205.144H313.399C313.431 205.56 313.563 205.88 313.795 206.104C314.035 206.32 314.327 206.428 314.671 206.428C315.183 206.428 315.539 206.212 315.739 205.78H317.923C317.811 206.22 317.607 206.616 317.311 206.968C317.023 207.32 316.659 207.596 316.219 207.796C315.779 207.996 315.287 208.096 314.743 208.096C314.087 208.096 313.503 207.956 312.991 207.676C312.479 207.396 312.079 206.996 311.791 206.476C311.503 205.956 311.359 205.348 311.359 204.652C311.359 203.956 311.499 203.348 311.779 202.828C312.067 202.308 312.467 201.908 312.979 201.628C313.491 201.348 314.079 201.208 314.743 201.208C315.391 201.208 315.967 201.344 316.471 201.616C316.975 201.888 317.367 202.276 317.647 202.78C317.935 203.284 318.079 203.872 318.079 204.544ZM315.979 204.004C315.979 203.652 315.859 203.372 315.619 203.164C315.379 202.956 315.079 202.852 314.719 202.852C314.375 202.852 314.083 202.952 313.843 203.152C313.611 203.352 313.467 203.636 313.411 204.004H315.979ZM325.594 204.544C325.594 204.736 325.582 204.936 325.558 205.144H320.914C320.946 205.56 321.078 205.88 321.31 206.104C321.55 206.32 321.842 206.428 322.186 206.428C322.698 206.428 323.054 206.212 323.254 205.78H325.438C325.326 206.22 325.122 206.616 324.826 206.968C324.538 207.32 324.174 207.596 323.734 207.796C323.294 207.996 322.802 208.096 322.258 208.096C321.602 208.096 321.018 207.956 320.506 207.676C319.994 207.396 319.594 206.996 319.306 206.476C319.018 205.956 318.874 205.348 318.874 204.652C318.874 203.956 319.014 203.348 319.294 202.828C319.582 202.308 319.982 201.908 320.494 201.628C321.006 201.348 321.594 201.208 322.258 201.208C322.906 201.208 323.482 201.344 323.986 201.616C324.49 201.888 324.882 202.276 325.162 202.78C325.45 203.284 325.594 203.872 325.594 204.544ZM323.494 204.004C323.494 203.652 323.374 203.372 323.134 203.164C322.894 202.956 322.594 202.852 322.234 202.852C321.89 202.852 321.598 202.952 321.358 203.152C321.126 203.352 320.982 203.636 320.926 204.004H323.494ZM328.848 202.252C329.048 201.94 329.324 201.688 329.676 201.496C330.028 201.304 330.44 201.208 330.912 201.208C331.464 201.208 331.964 201.348 332.412 201.628C332.86 201.908 333.212 202.308 333.468 202.828C333.732 203.348 333.864 203.952 333.864 204.64C333.864 205.328 333.732 205.936 333.468 206.464C333.212 206.984 332.86 207.388 332.412 207.676C331.964 207.956 331.464 208.096 330.912 208.096C330.448 208.096 330.036 208 329.676 207.808C329.324 207.616 329.048 207.368 328.848 207.064V211.192H326.796V201.304H328.848V202.252ZM331.776 204.64C331.776 204.128 331.632 203.728 331.344 203.44C331.064 203.144 330.716 202.996 330.3 202.996C329.892 202.996 329.544 203.144 329.256 203.44C328.976 203.736 328.836 204.14 328.836 204.652C328.836 205.164 328.976 205.568 329.256 205.864C329.544 206.16 329.892 206.308 330.3 206.308C330.708 206.308 331.056 206.16 331.344 205.864C331.632 205.56 331.776 205.152 331.776 204.64ZM337.316 204.64C337.316 203.952 337.444 203.348 337.7 202.828C337.964 202.308 338.32 201.908 338.768 201.628C339.216 201.348 339.716 201.208 340.268 201.208C340.74 201.208 341.152 201.304 341.504 201.496C341.864 201.688 342.14 201.94 342.332 202.252V201.304H344.384V208H342.332V207.052C342.132 207.364 341.852 207.616 341.492 207.808C341.14 208 340.728 208.096 340.256 208.096C339.712 208.096 339.216 207.956 338.768 207.676C338.32 207.388 337.964 206.984 337.7 206.464C337.444 205.936 337.316 205.328 337.316 204.64ZM342.332 204.652C342.332 204.14 342.188 203.736 341.9 203.44C341.62 203.144 341.276 202.996 340.868 202.996C340.46 202.996 340.112 203.144 339.824 203.44C339.544 203.728 339.404 204.128 339.404 204.64C339.404 205.152 339.544 205.56 339.824 205.864C340.112 206.16 340.46 206.308 340.868 206.308C341.276 206.308 341.62 206.16 341.9 205.864C342.188 205.568 342.332 205.164 342.332 204.652ZM345.58 204.652C345.58 203.956 345.72 203.348 346 202.828C346.288 202.308 346.684 201.908 347.188 201.628C347.7 201.348 348.284 201.208 348.94 201.208C349.78 201.208 350.48 201.428 351.04 201.868C351.608 202.308 351.98 202.928 352.156 203.728H349.972C349.788 203.216 349.432 202.96 348.904 202.96C348.528 202.96 348.228 203.108 348.004 203.404C347.78 203.692 347.668 204.108 347.668 204.652C347.668 205.196 347.78 205.616 348.004 205.912C348.228 206.2 348.528 206.344 348.904 206.344C349.432 206.344 349.788 206.088 349.972 205.576H352.156C351.98 206.36 351.608 206.976 351.04 207.424C350.472 207.872 349.772 208.096 348.94 208.096C348.284 208.096 347.7 207.956 347.188 207.676C346.684 207.396 346.288 206.996 346 206.476C345.72 205.956 345.58 205.348 345.58 204.652ZM352.966 204.652C352.966 203.956 353.106 203.348 353.386 202.828C353.674 202.308 354.07 201.908 354.574 201.628C355.086 201.348 355.67 201.208 356.326 201.208C357.166 201.208 357.866 201.428 358.426 201.868C358.994 202.308 359.366 202.928 359.542 203.728H357.358C357.174 203.216 356.818 202.96 356.29 202.96C355.914 202.96 355.614 203.108 355.39 203.404C355.166 203.692 355.054 204.108 355.054 204.652C355.054 205.196 355.166 205.616 355.39 205.912C355.614 206.2 355.914 206.344 356.29 206.344C356.818 206.344 357.174 206.088 357.358 205.576H359.542C359.366 206.36 358.994 206.976 358.426 207.424C357.858 207.872 357.158 208.096 356.326 208.096C355.67 208.096 355.086 207.956 354.574 207.676C354.07 207.396 353.674 206.996 353.386 206.476C353.106 205.956 352.966 205.348 352.966 204.652ZM363.807 208.096C363.151 208.096 362.559 207.956 362.031 207.676C361.511 207.396 361.099 206.996 360.795 206.476C360.499 205.956 360.351 205.348 360.351 204.652C360.351 203.964 360.503 203.36 360.807 202.84C361.111 202.312 361.527 201.908 362.055 201.628C362.583 201.348 363.175 201.208 363.831 201.208C364.487 201.208 365.079 201.348 365.607 201.628C366.135 201.908 366.551 202.312 366.855 202.84C367.159 203.36 367.311 203.964 367.311 204.652C367.311 205.34 367.155 205.948 366.843 206.476C366.539 206.996 366.119 207.396 365.583 207.676C365.055 207.956 364.463 208.096 363.807 208.096ZM363.807 206.32C364.199 206.32 364.531 206.176 364.803 205.888C365.083 205.6 365.223 205.188 365.223 204.652C365.223 204.116 365.087 203.704 364.815 203.416C364.551 203.128 364.223 202.984 363.831 202.984C363.431 202.984 363.099 203.128 362.835 203.416C362.571 203.696 362.439 204.108 362.439 204.652C362.439 205.188 362.567 205.6 362.823 205.888C363.087 206.176 363.415 206.32 363.807 206.32ZM375.132 201.304V208H373.08V207.088C372.872 207.384 372.588 207.624 372.228 207.808C371.876 207.984 371.484 208.072 371.052 208.072C370.54 208.072 370.088 207.96 369.696 207.736C369.304 207.504 369 207.172 368.784 206.74C368.568 206.308 368.46 205.8 368.46 205.216V201.304H370.5V204.94C370.5 205.388 370.616 205.736 370.848 205.984C371.08 206.232 371.392 206.356 371.784 206.356C372.184 206.356 372.5 206.232 372.732 205.984C372.964 205.736 373.08 205.388 373.08 204.94V201.304H375.132ZM380.806 201.232C381.59 201.232 382.214 201.488 382.678 202C383.15 202.504 383.386 203.2 383.386 204.088V208H381.346V204.364C381.346 203.916 381.23 203.568 380.998 203.32C380.766 203.072 380.454 202.948 380.062 202.948C379.67 202.948 379.358 203.072 379.126 203.32C378.894 203.568 378.778 203.916 378.778 204.364V208H376.726V201.304H378.778V202.192C378.986 201.896 379.266 201.664 379.618 201.496C379.97 201.32 380.366 201.232 380.806 201.232ZM388.664 206.26V208H387.62C386.876 208 386.296 207.82 385.88 207.46C385.464 207.092 385.256 206.496 385.256 205.672V203.008H384.44V201.304H385.256V199.672H387.308V201.304H388.652V203.008H387.308V205.696C387.308 205.896 387.356 206.04 387.452 206.128C387.548 206.216 387.708 206.26 387.932 206.26H388.664ZM392.651 208.096C392.067 208.096 391.547 207.996 391.091 207.796C390.635 207.596 390.275 207.324 390.011 206.98C389.747 206.628 389.599 206.236 389.567 205.804H391.595C391.619 206.036 391.727 206.224 391.919 206.368C392.111 206.512 392.347 206.584 392.627 206.584C392.883 206.584 393.079 206.536 393.215 206.44C393.359 206.336 393.431 206.204 393.431 206.044C393.431 205.852 393.331 205.712 393.131 205.624C392.931 205.528 392.607 205.424 392.159 205.312C391.679 205.2 391.279 205.084 390.959 204.964C390.639 204.836 390.363 204.64 390.131 204.376C389.899 204.104 389.783 203.74 389.783 203.284C389.783 202.9 389.887 202.552 390.095 202.24C390.311 201.92 390.623 201.668 391.031 201.484C391.447 201.3 391.939 201.208 392.507 201.208C393.347 201.208 394.007 201.416 394.487 201.832C394.975 202.248 395.255 202.8 395.327 203.488H393.431C393.399 203.256 393.295 203.072 393.119 202.936C392.951 202.8 392.727 202.732 392.447 202.732C392.207 202.732 392.023 202.78 391.895 202.876C391.767 202.964 391.703 203.088 391.703 203.248C391.703 203.44 391.803 203.584 392.003 203.68C392.211 203.776 392.531 203.872 392.963 203.968C393.459 204.096 393.863 204.224 394.175 204.352C394.487 204.472 394.759 204.672 394.991 204.952C395.231 205.224 395.355 205.592 395.363 206.056C395.363 206.448 395.251 206.8 395.027 207.112C394.811 207.416 394.495 207.656 394.079 207.832C393.671 208.008 393.195 208.096 392.651 208.096ZM306.415 219.544C306.415 219.736 306.403 219.936 306.379 220.144H301.735C301.767 220.56 301.899 220.88 302.131 221.104C302.371 221.32 302.663 221.428 303.007 221.428C303.519 221.428 303.875 221.212 304.075 220.78H306.259C306.147 221.22 305.943 221.616 305.647 221.968C305.359 222.32 304.995 222.596 304.555 222.796C304.115 222.996 303.623 223.096 303.079 223.096C302.423 223.096 301.839 222.956 301.327 222.676C300.815 222.396 300.415 221.996 300.127 221.476C299.839 220.956 299.695 220.348 299.695 219.652C299.695 218.956 299.835 218.348 300.115 217.828C300.403 217.308 300.803 216.908 301.315 216.628C301.827 216.348 302.415 216.208 303.079 216.208C303.727 216.208 304.303 216.344 304.807 216.616C305.311 216.888 305.703 217.276 305.983 217.78C306.271 218.284 306.415 218.872 306.415 219.544ZM304.315 219.004C304.315 218.652 304.195 218.372 303.955 218.164C303.715 217.956 303.415 217.852 303.055 217.852C302.711 217.852 302.419 217.952 302.179 218.152C301.947 218.352 301.803 218.636 301.747 219.004H304.315ZM307.209 219.64C307.209 218.952 307.337 218.348 307.593 217.828C307.857 217.308 308.213 216.908 308.661 216.628C309.109 216.348 309.609 216.208 310.161 216.208C310.633 216.208 311.045 216.304 311.397 216.496C311.757 216.688 312.033 216.94 312.225 217.252V216.304H314.277V223H312.225V222.052C312.025 222.364 311.745 222.616 311.385 222.808C311.033 223 310.621 223.096 310.149 223.096C309.605 223.096 309.109 222.956 308.661 222.676C308.213 222.388 307.857 221.984 307.593 221.464C307.337 220.936 307.209 220.328 307.209 219.64ZM312.225 219.652C312.225 219.14 312.081 218.736 311.793 218.44C311.513 218.144 311.169 217.996 310.761 217.996C310.353 217.996 310.005 218.144 309.717 218.44C309.437 218.728 309.297 219.128 309.297 219.64C309.297 220.152 309.437 220.56 309.717 220.864C310.005 221.16 310.353 221.308 310.761 221.308C311.169 221.308 311.513 221.16 311.793 220.864C312.081 220.568 312.225 220.164 312.225 219.652ZM317.934 217.42C318.174 217.052 318.474 216.764 318.834 216.556C319.194 216.34 319.594 216.232 320.034 216.232V218.404H319.47C318.958 218.404 318.574 218.516 318.318 218.74C318.062 218.956 317.934 219.34 317.934 219.892V223H315.882V216.304H317.934V217.42ZM325.215 216.232C325.999 216.232 326.623 216.488 327.087 217C327.559 217.504 327.795 218.2 327.795 219.088V223H325.755V219.364C325.755 218.916 325.639 218.568 325.407 218.32C325.175 218.072 324.863 217.948 324.471 217.948C324.079 217.948 323.767 218.072 323.535 218.32C323.303 218.568 323.187 218.916 323.187 219.364V223H321.135V216.304H323.187V217.192C323.395 216.896 323.675 216.664 324.027 216.496C324.379 216.32 324.775 216.232 325.215 216.232ZM336.083 216.232C336.867 216.232 337.491 216.488 337.955 217C338.427 217.504 338.663 218.2 338.663 219.088V223H336.623V219.364C336.623 218.916 336.507 218.568 336.275 218.32C336.043 218.072 335.731 217.948 335.339 217.948C334.947 217.948 334.635 218.072 334.403 218.32C334.171 218.568 334.055 218.916 334.055 219.364V223H332.003V216.304H334.055V217.192C334.263 216.896 334.543 216.664 334.895 216.496C335.247 216.32 335.643 216.232 336.083 216.232ZM346.521 219.544C346.521 219.736 346.509 219.936 346.485 220.144H341.841C341.873 220.56 342.005 220.88 342.237 221.104C342.477 221.32 342.769 221.428 343.113 221.428C343.625 221.428 343.981 221.212 344.181 220.78H346.365C346.253 221.22 346.049 221.616 345.753 221.968C345.465 222.32 345.101 222.596 344.661 222.796C344.221 222.996 343.729 223.096 343.185 223.096C342.529 223.096 341.945 222.956 341.433 222.676C340.921 222.396 340.521 221.996 340.233 221.476C339.945 220.956 339.801 220.348 339.801 219.652C339.801 218.956 339.941 218.348 340.221 217.828C340.509 217.308 340.909 216.908 341.421 216.628C341.933 216.348 342.521 216.208 343.185 216.208C343.833 216.208 344.409 216.344 344.913 216.616C345.417 216.888 345.809 217.276 346.089 217.78C346.377 218.284 346.521 218.872 346.521 219.544ZM344.421 219.004C344.421 218.652 344.301 218.372 344.061 218.164C343.821 217.956 343.521 217.852 343.161 217.852C342.817 217.852 342.525 217.952 342.285 218.152C342.053 218.352 341.909 218.636 341.853 219.004H344.421ZM347.316 219.64C347.316 218.952 347.444 218.348 347.7 217.828C347.964 217.308 348.32 216.908 348.768 216.628C349.216 216.348 349.716 216.208 350.268 216.208C350.74 216.208 351.152 216.304 351.504 216.496C351.864 216.688 352.14 216.94 352.332 217.252V216.304H354.384V223H352.332V222.052C352.132 222.364 351.852 222.616 351.492 222.808C351.14 223 350.728 223.096 350.256 223.096C349.712 223.096 349.216 222.956 348.768 222.676C348.32 222.388 347.964 221.984 347.7 221.464C347.444 220.936 347.316 220.328 347.316 219.64ZM352.332 219.652C352.332 219.14 352.188 218.736 351.9 218.44C351.62 218.144 351.276 217.996 350.868 217.996C350.46 217.996 350.112 218.144 349.824 218.44C349.544 218.728 349.404 219.128 349.404 219.64C349.404 220.152 349.544 220.56 349.824 220.864C350.112 221.16 350.46 221.308 350.868 221.308C351.276 221.308 351.62 221.16 351.9 220.864C352.188 220.568 352.332 220.164 352.332 219.652ZM358.04 217.42C358.28 217.052 358.58 216.764 358.94 216.556C359.3 216.34 359.7 216.232 360.14 216.232V218.404H359.576C359.064 218.404 358.68 218.516 358.424 218.74C358.168 218.956 358.04 219.34 358.04 219.892V223H355.988V216.304H358.04V217.42ZM365.824 221.308H368.728V223H363.532V221.368L366.316 217.996H363.556V216.304H368.668V217.936L365.824 221.308ZM376.289 219.544C376.289 219.736 376.277 219.936 376.253 220.144H371.609C371.641 220.56 371.773 220.88 372.005 221.104C372.245 221.32 372.537 221.428 372.881 221.428C373.393 221.428 373.749 221.212 373.949 220.78H376.133C376.021 221.22 375.817 221.616 375.521 221.968C375.233 222.32 374.869 222.596 374.429 222.796C373.989 222.996 373.497 223.096 372.953 223.096C372.297 223.096 371.713 222.956 371.201 222.676C370.689 222.396 370.289 221.996 370.001 221.476C369.713 220.956 369.569 220.348 369.569 219.652C369.569 218.956 369.709 218.348 369.989 217.828C370.277 217.308 370.677 216.908 371.189 216.628C371.701 216.348 372.289 216.208 372.953 216.208C373.601 216.208 374.177 216.344 374.681 216.616C375.185 216.888 375.577 217.276 375.857 217.78C376.145 218.284 376.289 218.872 376.289 219.544ZM374.189 219.004C374.189 218.652 374.069 218.372 373.829 218.164C373.589 217.956 373.289 217.852 372.929 217.852C372.585 217.852 372.293 217.952 372.053 218.152C371.821 218.352 371.677 218.636 371.621 219.004H374.189ZM379.544 217.42C379.784 217.052 380.084 216.764 380.444 216.556C380.804 216.34 381.204 216.232 381.644 216.232V218.404H381.08C380.568 218.404 380.184 218.516 379.928 218.74C379.672 218.956 379.544 219.34 379.544 219.892V223H377.492V216.304H379.544V217.42ZM385.793 223.096C385.137 223.096 384.545 222.956 384.017 222.676C383.497 222.396 383.085 221.996 382.781 221.476C382.485 220.956 382.337 220.348 382.337 219.652C382.337 218.964 382.489 218.36 382.793 217.84C383.097 217.312 383.513 216.908 384.041 216.628C384.569 216.348 385.161 216.208 385.817 216.208C386.473 216.208 387.065 216.348 387.593 216.628C388.121 216.908 388.537 217.312 388.841 217.84C389.145 218.36 389.297 218.964 389.297 219.652C389.297 220.34 389.141 220.948 388.829 221.476C388.525 221.996 388.105 222.396 387.569 222.676C387.041 222.956 386.449 223.096 385.793 223.096ZM385.793 221.32C386.185 221.32 386.517 221.176 386.789 220.888C387.069 220.6 387.209 220.188 387.209 219.652C387.209 219.116 387.073 218.704 386.801 218.416C386.537 218.128 386.209 217.984 385.817 217.984C385.417 217.984 385.085 218.128 384.821 218.416C384.557 218.696 384.425 219.108 384.425 219.652C384.425 220.188 384.553 220.6 384.809 220.888C385.073 221.176 385.401 221.32 385.793 221.32Z" fill="white"/>
<path d="M204 406L204 517H301" stroke="#FF0000" stroke-width="1.37106" stroke-dasharray="6.86 6.86"/>
<circle cx="313.911" cy="516.911" r="25.9111" fill="#B71C22"/>
<line x1="305.354" y1="506.547" x2="322.871" y2="524.064" stroke="white" stroke-width="5" stroke-linecap="round" stroke-linejoin="round"/>
<line x1="2.5" y1="-2.5" x2="27.2731" y2="-2.5" transform="matrix(-0.707107 0.707107 0.707107 0.707107 325.355 506.547)" stroke="white" stroke-width="5" stroke-linecap="round" stroke-linejoin="round"/>
<defs>
<filter id="filter0_ddd" x="263.23" y="246.818" width="149.066" height="159.496" filterUnits="userSpaceOnUse" color-interpolation-filters="sRGB">
<feFlood flood-opacity="0" result="BackgroundImageFix"/>
<feColorMatrix in="SourceAlpha" type="matrix" values="0 0 0 0 0 0 0 0 0 0 0 0 0 0 0 0 0 0 127 0"/>
<feMorphology radius="7.16057" operator="dilate" in="SourceAlpha" result="effect1_dropShadow"/>
<feOffset dy="20.5866"/>
<feGaussianBlur stdDeviation="13.4261"/>
<feColorMatrix type="matrix" values="0 0 0 0 0 0 0 0 0 0.0876457 0 0 0 0 0.391667 0 0 0 0.05 0"/>
<feBlend mode="normal" in2="BackgroundImageFix" result="effect1_dropShadow"/>
<feColorMatrix in="SourceAlpha" type="matrix" values="0 0 0 0 0 0 0 0 0 0 0 0 0 0 0 0 0 0 127 0"/>
<feOffset dy="42.0684"/>
<feGaussianBlur stdDeviation="2.68521"/>
<feColorMatrix type="matrix" values="0 0 0 0 0.121569 0 0 0 0 0.247059 0 0 0 0 0.682353 0 0 0 0.02 0"/>
<feBlend mode="normal" in2="effect1_dropShadow" result="effect2_dropShadow"/>
<feColorMatrix in="SourceAlpha" type="matrix" values="0 0 0 0 0 0 0 0 0 0 0 0 0 0 0 0 0 0 127 0"/>
<feOffset dy="51.0191"/>
<feGaussianBlur stdDeviation="8.95072"/>
<feColorMatrix type="matrix" values="0 0 0 0 0.121569 0 0 0 0 0.247059 0 0 0 0 0.682353 0 0 0 0.02 0"/>
<feBlend mode="normal" in2="effect2_dropShadow" result="effect3_dropShadow"/>
<feBlend mode="normal" in="SourceGraphic" in2="effect3_dropShadow" result="shape"/>
</filter>
<filter id="filter1_ddd" x="4.01267" y="246.818" width="149.066" height="159.496" filterUnits="userSpaceOnUse" color-interpolation-filters="sRGB">
<feFlood flood-opacity="0" result="BackgroundImageFix"/>
<feColorMatrix in="SourceAlpha" type="matrix" values="0 0 0 0 0 0 0 0 0 0 0 0 0 0 0 0 0 0 127 0"/>
<feMorphology radius="7.16057" operator="dilate" in="SourceAlpha" result="effect1_dropShadow"/>
<feOffset dy="20.5866"/>
<feGaussianBlur stdDeviation="13.4261"/>
<feColorMatrix type="matrix" values="0 0 0 0 0 0 0 0 0 0.0876457 0 0 0 0 0.391667 0 0 0 0.05 0"/>
<feBlend mode="normal" in2="BackgroundImageFix" result="effect1_dropShadow"/>
<feColorMatrix in="SourceAlpha" type="matrix" values="0 0 0 0 0 0 0 0 0 0 0 0 0 0 0 0 0 0 127 0"/>
<feOffset dy="42.0684"/>
<feGaussianBlur stdDeviation="2.68521"/>
<feColorMatrix type="matrix" values="0 0 0 0 0.121569 0 0 0 0 0.247059 0 0 0 0 0.682353 0 0 0 0.02 0"/>
<feBlend mode="normal" in2="effect1_dropShadow" result="effect2_dropShadow"/>
<feColorMatrix in="SourceAlpha" type="matrix" values="0 0 0 0 0 0 0 0 0 0 0 0 0 0 0 0 0 0 127 0"/>
<feOffset dy="51.0191"/>
<feGaussianBlur stdDeviation="8.95072"/>
<feColorMatrix type="matrix" values="0 0 0 0 0.121569 0 0 0 0 0.247059 0 0 0 0 0.682353 0 0 0 0.02 0"/>
<feBlend mode="normal" in2="effect2_dropShadow" result="effect3_dropShadow"/>
<feBlend mode="normal" in="SourceGraphic" in2="effect3_dropShadow" result="shape"/>
</filter>
<filter id="filter2_ddd" x="270.926" y="85.2377" width="149.066" height="159.496" filterUnits="userSpaceOnUse" color-interpolation-filters="sRGB">
<feFlood flood-opacity="0" result="BackgroundImageFix"/>
<feColorMatrix in="SourceAlpha" type="matrix" values="0 0 0 0 0 0 0 0 0 0 0 0 0 0 0 0 0 0 127 0"/>
<feMorphology radius="7.16057" operator="dilate" in="SourceAlpha" result="effect1_dropShadow"/>
<feOffset dy="20.5866"/>
<feGaussianBlur stdDeviation="13.4261"/>
<feColorMatrix type="matrix" values="0 0 0 0 0 0 0 0 0 0.0876457 0 0 0 0 0.391667 0 0 0 0.05 0"/>
<feBlend mode="normal" in2="BackgroundImageFix" result="effect1_dropShadow"/>
<feColorMatrix in="SourceAlpha" type="matrix" values="0 0 0 0 0 0 0 0 0 0 0 0 0 0 0 0 0 0 127 0"/>
<feOffset dy="42.0684"/>
<feGaussianBlur stdDeviation="2.68521"/>
<feColorMatrix type="matrix" values="0 0 0 0 0.121569 0 0 0 0 0.247059 0 0 0 0 0.682353 0 0 0 0.02 0"/>
<feBlend mode="normal" in2="effect1_dropShadow" result="effect2_dropShadow"/>
<feColorMatrix in="SourceAlpha" type="matrix" values="0 0 0 0 0 0 0 0 0 0 0 0 0 0 0 0 0 0 127 0"/>
<feOffset dy="51.0191"/>
<feGaussianBlur stdDeviation="8.95072"/>
<feColorMatrix type="matrix" values="0 0 0 0 0.121569 0 0 0 0 0.247059 0 0 0 0 0.682353 0 0 0 0.02 0"/>
<feBlend mode="normal" in2="effect2_dropShadow" result="effect3_dropShadow"/>
<feBlend mode="normal" in="SourceGraphic" in2="effect3_dropShadow" result="shape"/>
</filter>
<filter id="filter3_ddd" x="-5.99026" y="85.2377" width="149.066" height="159.496" filterUnits="userSpaceOnUse" color-interpolation-filters="sRGB">
<feFlood flood-opacity="0" result="BackgroundImageFix"/>
<feColorMatrix in="SourceAlpha" type="matrix" values="0 0 0 0 0 0 0 0 0 0 0 0 0 0 0 0 0 0 127 0"/>
<feMorphology radius="7.16057" operator="dilate" in="SourceAlpha" result="effect1_dropShadow"/>
<feOffset dy="20.5866"/>
<feGaussianBlur stdDeviation="13.4261"/>
<feColorMatrix type="matrix" values="0 0 0 0 0 0 0 0 0 0.0876457 0 0 0 0 0.391667 0 0 0 0.05 0"/>
<feBlend mode="normal" in2="BackgroundImageFix" result="effect1_dropShadow"/>
<feColorMatrix in="SourceAlpha" type="matrix" values="0 0 0 0 0 0 0 0 0 0 0 0 0 0 0 0 0 0 127 0"/>
<feOffset dy="42.0684"/>
<feGaussianBlur stdDeviation="2.68521"/>
<feColorMatrix type="matrix" values="0 0 0 0 0.121569 0 0 0 0 0.247059 0 0 0 0 0.682353 0 0 0 0.02 0"/>
<feBlend mode="normal" in2="effect1_dropShadow" result="effect2_dropShadow"/>
<feColorMatrix in="SourceAlpha" type="matrix" values="0 0 0 0 0 0 0 0 0 0 0 0 0 0 0 0 0 0 127 0"/>
<feOffset dy="51.0191"/>
<feGaussianBlur stdDeviation="8.95072"/>
<feColorMatrix type="matrix" values="0 0 0 0 0.121569 0 0 0 0 0.247059 0 0 0 0 0.682353 0 0 0 0.02 0"/>
<feBlend mode="normal" in2="effect2_dropShadow" result="effect3_dropShadow"/>
<feBlend mode="normal" in="SourceGraphic" in2="effect3_dropShadow" result="shape"/>
</filter>
<filter id="filter4_ddd" x="131.698" y="312.584" width="149.066" height="159.496" filterUnits="userSpaceOnUse" color-interpolation-filters="sRGB">
<feFlood flood-opacity="0" result="BackgroundImageFix"/>
<feColorMatrix in="SourceAlpha" type="matrix" values="0 0 0 0 0 0 0 0 0 0 0 0 0 0 0 0 0 0 127 0"/>
<feMorphology radius="7.16057" operator="dilate" in="SourceAlpha" result="effect1_dropShadow"/>
<feOffset dy="20.5866"/>
<feGaussianBlur stdDeviation="13.4261"/>
<feColorMatrix type="matrix" values="0 0 0 0 0 0 0 0 0 0.0876457 0 0 0 0 0.391667 0 0 0 0.05 0"/>
<feBlend mode="normal" in2="BackgroundImageFix" result="effect1_dropShadow"/>
<feColorMatrix in="SourceAlpha" type="matrix" values="0 0 0 0 0 0 0 0 0 0 0 0 0 0 0 0 0 0 127 0"/>
<feOffset dy="42.0684"/>
<feGaussianBlur stdDeviation="2.68521"/>
<feColorMatrix type="matrix" values="0 0 0 0 0.121569 0 0 0 0 0.247059 0 0 0 0 0.682353 0 0 0 0.02 0"/>
<feBlend mode="normal" in2="effect1_dropShadow" result="effect2_dropShadow"/>
<feColorMatrix in="SourceAlpha" type="matrix" values="0 0 0 0 0 0 0 0 0 0 0 0 0 0 0 0 0 0 127 0"/>
<feOffset dy="51.0191"/>
<feGaussianBlur stdDeviation="8.95072"/>
<feColorMatrix type="matrix" values="0 0 0 0 0.121569 0 0 0 0 0.247059 0 0 0 0 0.682353 0 0 0 0.02 0"/>
<feBlend mode="normal" in2="effect2_dropShadow" result="effect3_dropShadow"/>
<feBlend mode="normal" in="SourceGraphic" in2="effect3_dropShadow" result="shape"/>
</filter>
<linearGradient id="paint0_linear" x1="205.737" y1="185.747" x2="205.737" y2="261.272" gradientUnits="userSpaceOnUse">
<stop stop-color="#FF4950"/>
<stop offset="0.90625" stop-color="#B71C22"/>
</linearGradient>
<linearGradient id="paint1_linear" x1="205.737" y1="23.3579" x2="205.737" y2="98.882" gradientUnits="userSpaceOnUse">
<stop stop-color="#FF4950"/>
<stop offset="0.90625" stop-color="#B71C22"/>
</linearGradient>
<linearGradient id="paint2_linear" x1="331.579" y1="283.862" x2="345.758" y2="308.422" gradientUnits="userSpaceOnUse">
<stop stop-color="#FF4950"/>
<stop offset="0.90625" stop-color="#B71C22"/>
</linearGradient>
<linearGradient id="paint3_linear" x1="331.579" y1="283.862" x2="345.758" y2="308.422" gradientUnits="userSpaceOnUse">
<stop stop-color="#FF4950"/>
<stop offset="0.90625" stop-color="#B71C22"/>
</linearGradient>
<linearGradient id="paint4_linear" x1="331.579" y1="283.862" x2="345.758" y2="308.422" gradientUnits="userSpaceOnUse">
<stop stop-color="#FF4950"/>
<stop offset="0.90625" stop-color="#B71C22"/>
</linearGradient>
<linearGradient id="paint5_linear" x1="331.579" y1="283.862" x2="345.758" y2="308.422" gradientUnits="userSpaceOnUse">
<stop stop-color="#FF4950"/>
<stop offset="0.90625" stop-color="#B71C22"/>
</linearGradient>
<linearGradient id="paint6_linear" x1="331.579" y1="283.862" x2="345.758" y2="308.422" gradientUnits="userSpaceOnUse">
<stop stop-color="#FF4950"/>
<stop offset="0.90625" stop-color="#B71C22"/>
</linearGradient>
<linearGradient id="paint7_linear" x1="331.579" y1="283.862" x2="345.758" y2="308.422" gradientUnits="userSpaceOnUse">
<stop stop-color="#FF4950"/>
<stop offset="0.90625" stop-color="#B71C22"/>
</linearGradient>
<linearGradient id="paint8_linear" x1="331.579" y1="283.862" x2="345.758" y2="308.422" gradientUnits="userSpaceOnUse">
<stop stop-color="#FF4950"/>
<stop offset="0.90625" stop-color="#B71C22"/>
</linearGradient>
<linearGradient id="paint9_linear" x1="78.3834" y1="279.191" x2="78.3834" y2="343.815" gradientUnits="userSpaceOnUse">
<stop stop-color="#E0C3FC"/>
<stop offset="1" stop-color="#8EC5FC"/>
</linearGradient>
<linearGradient id="paint10_linear" x1="78.3834" y1="279.191" x2="78.3834" y2="343.815" gradientUnits="userSpaceOnUse">
<stop stop-color="#E0C3FC"/>
<stop offset="1" stop-color="#8EC5FC"/>
</linearGradient>
<linearGradient id="paint11_linear" x1="78.3834" y1="279.191" x2="78.3834" y2="343.815" gradientUnits="userSpaceOnUse">
<stop stop-color="#E0C3FC"/>
<stop offset="1" stop-color="#8EC5FC"/>
</linearGradient>
<linearGradient id="paint12_linear" x1="78.3834" y1="279.191" x2="78.3834" y2="343.815" gradientUnits="userSpaceOnUse">
<stop stop-color="#E0C3FC"/>
<stop offset="1" stop-color="#8EC5FC"/>
</linearGradient>
<linearGradient id="paint13_linear" x1="78.3834" y1="279.191" x2="78.3834" y2="343.815" gradientUnits="userSpaceOnUse">
<stop stop-color="#E0C3FC"/>
<stop offset="1" stop-color="#8EC5FC"/>
</linearGradient>
<linearGradient id="paint14_linear" x1="78.3834" y1="279.191" x2="78.3834" y2="343.815" gradientUnits="userSpaceOnUse">
<stop stop-color="#E0C3FC"/>
<stop offset="1" stop-color="#8EC5FC"/>
</linearGradient>
<linearGradient id="paint15_linear" x1="78.3834" y1="279.191" x2="78.3834" y2="343.815" gradientUnits="userSpaceOnUse">
<stop stop-color="#E0C3FC"/>
<stop offset="1" stop-color="#8EC5FC"/>
</linearGradient>
<linearGradient id="paint16_linear" x1="345.296" y1="117.612" x2="345.296" y2="182.235" gradientUnits="userSpaceOnUse">
<stop stop-color="#E0C3FC"/>
<stop offset="1" stop-color="#8EC5FC"/>
</linearGradient>
<linearGradient id="paint17_linear" x1="345.296" y1="117.612" x2="345.296" y2="182.235" gradientUnits="userSpaceOnUse">
<stop stop-color="#E0C3FC"/>
<stop offset="1" stop-color="#8EC5FC"/>
</linearGradient>
<linearGradient id="paint18_linear" x1="345.296" y1="117.612" x2="345.296" y2="182.235" gradientUnits="userSpaceOnUse">
<stop stop-color="#E0C3FC"/>
<stop offset="1" stop-color="#8EC5FC"/>
</linearGradient>
<linearGradient id="paint19_linear" x1="345.296" y1="117.612" x2="345.296" y2="182.235" gradientUnits="userSpaceOnUse">
<stop stop-color="#E0C3FC"/>
<stop offset="1" stop-color="#8EC5FC"/>
</linearGradient>
<linearGradient id="paint20_linear" x1="345.296" y1="117.612" x2="345.296" y2="182.235" gradientUnits="userSpaceOnUse">
<stop stop-color="#E0C3FC"/>
<stop offset="1" stop-color="#8EC5FC"/>
</linearGradient>
<linearGradient id="paint21_linear" x1="345.296" y1="117.612" x2="345.296" y2="182.235" gradientUnits="userSpaceOnUse">
<stop stop-color="#E0C3FC"/>
<stop offset="1" stop-color="#8EC5FC"/>
</linearGradient>
<linearGradient id="paint22_linear" x1="345.296" y1="117.612" x2="345.296" y2="182.235" gradientUnits="userSpaceOnUse">
<stop stop-color="#E0C3FC"/>
<stop offset="1" stop-color="#8EC5FC"/>
</linearGradient>
<linearGradient id="paint23_linear" x1="68.3795" y1="117.612" x2="68.3795" y2="182.235" gradientUnits="userSpaceOnUse">
<stop stop-color="#E0C3FC"/>
<stop offset="1" stop-color="#8EC5FC"/>
</linearGradient>
<linearGradient id="paint24_linear" x1="68.3795" y1="117.612" x2="68.3795" y2="182.235" gradientUnits="userSpaceOnUse">
<stop stop-color="#E0C3FC"/>
<stop offset="1" stop-color="#8EC5FC"/>
</linearGradient>
<linearGradient id="paint25_linear" x1="68.3795" y1="117.612" x2="68.3795" y2="182.235" gradientUnits="userSpaceOnUse">
<stop stop-color="#E0C3FC"/>
<stop offset="1" stop-color="#8EC5FC"/>
</linearGradient>
<linearGradient id="paint26_linear" x1="68.3795" y1="117.612" x2="68.3795" y2="182.235" gradientUnits="userSpaceOnUse">
<stop stop-color="#E0C3FC"/>
<stop offset="1" stop-color="#8EC5FC"/>
</linearGradient>
<linearGradient id="paint27_linear" x1="68.3795" y1="117.612" x2="68.3795" y2="182.235" gradientUnits="userSpaceOnUse">
<stop stop-color="#E0C3FC"/>
<stop offset="1" stop-color="#8EC5FC"/>
</linearGradient>
<linearGradient id="paint28_linear" x1="68.3795" y1="117.612" x2="68.3795" y2="182.235" gradientUnits="userSpaceOnUse">
<stop stop-color="#E0C3FC"/>
<stop offset="1" stop-color="#8EC5FC"/>
</linearGradient>
<linearGradient id="paint29_linear" x1="68.3795" y1="117.612" x2="68.3795" y2="182.235" gradientUnits="userSpaceOnUse">
<stop stop-color="#E0C3FC"/>
<stop offset="1" stop-color="#8EC5FC"/>
</linearGradient>
<linearGradient id="paint30_linear" x1="206.069" y1="344.956" x2="206.069" y2="409.58" gradientUnits="userSpaceOnUse">
<stop stop-color="#E0C3FC"/>
<stop offset="1" stop-color="#8EC5FC"/>
</linearGradient>
<linearGradient id="paint31_linear" x1="206.069" y1="344.956" x2="206.069" y2="409.58" gradientUnits="userSpaceOnUse">
<stop stop-color="#E0C3FC"/>
<stop offset="1" stop-color="#8EC5FC"/>
</linearGradient>
<linearGradient id="paint32_linear" x1="206.069" y1="344.956" x2="206.069" y2="409.58" gradientUnits="userSpaceOnUse">
<stop stop-color="#E0C3FC"/>
<stop offset="1" stop-color="#8EC5FC"/>
</linearGradient>
<linearGradient id="paint33_linear" x1="206.069" y1="344.956" x2="206.069" y2="409.58" gradientUnits="userSpaceOnUse">
<stop stop-color="#E0C3FC"/>
<stop offset="1" stop-color="#8EC5FC"/>
</linearGradient>
<linearGradient id="paint34_linear" x1="206.069" y1="344.956" x2="206.069" y2="409.58" gradientUnits="userSpaceOnUse">
<stop stop-color="#E0C3FC"/>
<stop offset="1" stop-color="#8EC5FC"/>
</linearGradient>
<linearGradient id="paint35_linear" x1="206.069" y1="344.956" x2="206.069" y2="409.58" gradientUnits="userSpaceOnUse">
<stop stop-color="#E0C3FC"/>
<stop offset="1" stop-color="#8EC5FC"/>
</linearGradient>
<linearGradient id="paint36_linear" x1="206.069" y1="344.956" x2="206.069" y2="409.58" gradientUnits="userSpaceOnUse">
<stop stop-color="#E0C3FC"/>
<stop offset="1" stop-color="#8EC5FC"/>
</linearGradient>
</defs>
</svg>
