<svg width="1000" height="766" viewBox="0 0 1000 766" fill="none" xmlns="http://www.w3.org/2000/svg">
<g opacity="0.8">
<g opacity="0.25">
<circle cx="500" cy="266" r="498.5" stroke="#4382FF" stroke-width="3"/>
<circle cx="499.5" cy="265.5" r="378" stroke="#4382FF" stroke-width="3"/>
<circle cx="499.5" cy="265.5" r="267" stroke="#4382FF" stroke-width="3"/>
<circle cx="500" cy="266" r="187.5" stroke="#4382FF" stroke-width="3"/>
<circle cx="559" cy="88" r="20" fill="#4382FF"/>
<circle cx="51.5" cy="484.5" r="10.5" fill="#4382FF"/>
<circle cx="878.5" cy="594.5" r="10.5" fill="#4382FF"/>
<circle cx="124" cy="225" r="20" fill="#4382FF"/>
<circle cx="123.5" cy="224.5" r="10.5" fill="#4382FF"/>
<circle cx="558.5" cy="87.5" r="10.5" fill="#4382FF"/>
<circle cx="380.5" cy="505.5" r="10.5" fill="#4382FF"/>
</g>
<path d="M627.07 206.958C616.45 194.982 602.112 189 584.044 189C573.425 189 564.01 191.187 555.812 195.549C547.759 199.834 541.333 205.412 536.517 212.299V190.394H536.254H481.484H481.461V274.205C481.461 283.122 479.131 290.124 474.48 295.234C469.818 300.344 463.485 302.893 455.48 302.893C447.657 302.893 441.369 300.344 436.617 295.234C431.864 290.124 429.487 283.122 429.487 274.205V190.394H375V281.173C375 301.772 380.265 318.065 390.782 330.042C401.312 342.006 415.706 348 433.956 348C444.576 348 453.99 345.813 462.189 341.451C470.376 337.1 476.811 331.39 481.461 324.331V346.606H481.484H536.254H536.517V257.849C537.243 251.248 539.485 245.89 543.247 241.766C547.898 236.667 554.322 234.106 562.52 234.106C570.343 234.106 576.585 236.667 581.248 241.766C585.898 246.876 588.229 253.878 588.229 262.795V346.606H643V255.555C643 235.137 637.69 218.935 627.07 206.958Z" fill="#3761DA"/>
</g>
</svg>
