<svg width="15" height="14" viewBox="0 0 15 14" fill="none" xmlns="http://www.w3.org/2000/svg">
<path fill-rule="evenodd" clip-rule="evenodd" d="M14.1388 6.62033C14.0862 6.49758 14.0074 6.38544 13.9069 6.29033L8.3854 1.29033C8.10529 1.03667 7.69701 0.937607 7.31437 1.03045C6.93173 1.1233 6.63285 1.39395 6.53032 1.74045C6.42779 2.08696 6.53719 2.45667 6.8173 2.71033L10.4615 6.00033H2.07988C1.47 6.00033 0.975586 6.44805 0.975586 7.00033C0.975586 7.55262 1.47 8.00033 2.07988 8.00033H10.4615L6.8173 11.2903C6.60824 11.4781 6.49065 11.7337 6.49065 12.0003C6.49065 12.267 6.60824 12.5226 6.8173 12.7103C7.02465 12.8996 7.3069 13.0061 7.60135 13.0061C7.8958 13.0061 8.17805 12.8996 8.3854 12.7103L13.9069 7.71033C14.0074 7.61523 14.0862 7.50308 14.1388 7.38033C14.2492 7.13687 14.2492 6.86379 14.1388 6.62033Z" fill="#FFC74E"/>
</svg>
