<svg width="51" height="51" viewBox="0 0 51 51" fill="none" xmlns="http://www.w3.org/2000/svg">
<rect x="2.74255" y="2.61133" width="46" height="46" rx="23" stroke="url(#paint0_linear)" stroke-width="4"/>
<g opacity="0.8">
<path d="M23.3503 11.9305C17.4105 11.2886 12.8959 16.0007 12.3828 21.0277C12.1372 23.4344 14.9125 23.4669 16.1853 21.4096C17.8869 18.6593 19.9719 16.5503 23.1304 15.2425C24.8839 14.5164 25.2372 12.1345 23.3503 11.9305Z" fill="white" fill-opacity="0.6"/>
<path d="M23.3503 11.9305C17.4105 11.2886 12.8959 16.0007 12.3828 21.0277C12.1372 23.4344 14.9125 23.4669 16.1853 21.4096C17.8869 18.6593 19.9719 16.5503 23.1304 15.2425C24.8839 14.5164 25.2372 12.1345 23.3503 11.9305Z" fill="url(#paint1_radial)"/>
</g>
<g opacity="0.9">
<path d="M32.8656 38.8584C35.6985 38.2373 37.7914 35.8906 38.205 33.4623C38.4757 31.8724 36.6727 31.9569 35.8549 33.347C35.0794 34.6653 34.0865 35.7824 32.7387 36.6148C31.4619 37.4034 31.3997 39.1798 32.8656 38.8584Z" fill="white" fill-opacity="0.6"/>
<path d="M32.8656 38.8584C35.6985 38.2373 37.7914 35.8906 38.205 33.4623C38.4757 31.8724 36.6727 31.9569 35.8549 33.347C35.0794 34.6653 34.0865 35.7824 32.7387 36.6148C31.4619 37.4034 31.3997 39.1798 32.8656 38.8584Z" fill="url(#paint2_radial)"/>
</g>
<defs>
<linearGradient id="paint0_linear" x1="25.7426" y1="0.611328" x2="25.7426" y2="50.6113" gradientUnits="userSpaceOnUse">
<stop stop-color="#FDFEFF"/>
<stop offset="1" stop-color="#C8D5FF"/>
</linearGradient>
<radialGradient id="paint1_radial" cx="0" cy="0" r="1" gradientUnits="userSpaceOnUse" gradientTransform="translate(20.6484 13.3123) rotate(94.4565) scale(8.74534 9.69347)">
<stop stop-color="white"/>
<stop offset="1" stop-color="white" stop-opacity="0"/>
</radialGradient>
<radialGradient id="paint2_radial" cx="0" cy="0" r="1" gradientUnits="userSpaceOnUse" gradientTransform="translate(33.9272 38.1444) rotate(-91.1017) scale(5.2472 5.81608)">
<stop stop-color="white"/>
<stop offset="1" stop-color="white" stop-opacity="0"/>
</radialGradient>
</defs>
</svg>
