<svg width="12" height="7" viewBox="0 0 12 7" fill="none" xmlns="http://www.w3.org/2000/svg">
<path fill-rule="evenodd" clip-rule="evenodd" d="M6.7103 6.63161L10.9503 2.38628C11.1396 2.19828 11.2461 1.94236 11.2461 1.67539C11.2461 1.40842 11.1396 1.1525 10.9503 0.964498C10.5603 0.576287 9.93033 0.576287 9.5403 0.964498L6.0003 4.50895L2.4603 0.964498C2.07026 0.576287 1.44033 0.576287 1.0503 0.964497C0.86311 1.15345 0.758759 1.40925 0.760296 1.67539C0.758759 1.94153 0.86311 2.19733 1.0503 2.38628L5.2903 6.63161C5.47806 6.82116 5.73366 6.92778 6.0003 6.92778C6.26693 6.92778 6.52253 6.82116 6.7103 6.63161Z" fill="white"/>
</svg>
