<svg width="12" height="7" viewBox="0 0 12 7" fill="none" xmlns="http://www.w3.org/2000/svg">
<path fill-rule="evenodd" clip-rule="evenodd" d="M6.0003 2.90564L9.5403 6.45007C9.93033 6.83828 10.5603 6.83828 10.9503 6.45007C11.1396 6.26207 11.2461 6.00615 11.2461 5.73918C11.2461 5.47221 11.1396 5.21629 10.9503 5.02829L6.7103 0.782985C6.52253 0.593435 6.26693 0.486816 6.0003 0.486816C5.73366 0.486816 5.47806 0.593435 5.2903 0.782985L1.0003 5.02829C0.813109 5.21725 0.708759 5.47304 0.710295 5.73918C0.708759 6.00532 0.813109 6.26111 1.0003 6.45007C1.39033 6.83828 2.02026 6.83828 2.4103 6.45007L6.0003 2.90564Z" fill="white"/>
</svg>
