<svg width="421" height="224" viewBox="0 0 421 224" fill="none" xmlns="http://www.w3.org/2000/svg">
<path fill-rule="evenodd" clip-rule="evenodd" d="M178.328 68.5732L191.24 150.51L278.026 192.024L273.177 97.8287L178.328 68.5732Z" fill="#BD8041"/>
<path fill-rule="evenodd" clip-rule="evenodd" d="M362.741 91.5654L344.163 180.53L278.025 192.026L273.177 97.8306L362.741 91.5654Z" fill="#945D29"/>
<path fill-rule="evenodd" clip-rule="evenodd" d="M362.741 91.5639L249.969 65.5771L178.328 68.5735L273.177 97.829L362.741 91.5639Z" fill="#EDAD60"/>
<path fill-rule="evenodd" clip-rule="evenodd" d="M362.741 91.5637L249.969 65.577L275.574 0.583008L387.584 9.46315L362.741 91.5637Z" fill="#EDAD60"/>
<path fill-rule="evenodd" clip-rule="evenodd" d="M362.741 91.5625C395.32 89.2199 417.82 44.4922 387.584 9.46191L362.741 91.5625Z" fill="#945D29"/>
<path fill-rule="evenodd" clip-rule="evenodd" d="M188.734 81.5957L263.371 103.769L267.021 176.989L198.432 146.154L188.734 81.5957Z" fill="#945D29"/>
<path fill-rule="evenodd" clip-rule="evenodd" d="M188.734 81.5957L190.805 82.195L199.848 145.772L266.967 175.791L267.021 176.989L198.432 146.154L188.734 81.5957Z" fill="#59320D"/>
<path fill-rule="evenodd" clip-rule="evenodd" d="M283.092 106.165L353.098 99.8994L338.77 172.521L286.905 183.199L283.092 106.165Z" fill="#59320D"/>
<path fill-rule="evenodd" clip-rule="evenodd" d="M338.172 171.976L352.01 100.008L353.1 99.8994L338.771 172.521L286.907 183.199L286.853 182.381L338.172 171.976Z" fill="#3D2106"/>
<path fill-rule="evenodd" clip-rule="evenodd" d="M280.531 7.12109L259.339 61.764L357.184 82.9565L378.159 15.184L280.531 7.12109Z" fill="#59320D"/>
<path fill-rule="evenodd" clip-rule="evenodd" d="M259.339 61.764C286.252 60.6199 298.292 22.5388 280.531 7.12109L259.339 61.764Z" fill="#945D29"/>
<path fill-rule="evenodd" clip-rule="evenodd" d="M231.556 68.9549C231.556 72.1692 225.236 74.7843 217.391 74.7843C209.546 74.7843 203.227 72.1692 203.227 68.9549C203.227 67.484 203.227 66.5034 203.227 65.0324C203.227 61.8181 209.546 59.2031 217.391 59.2031C225.291 59.2031 231.556 61.8181 231.556 65.0324C231.556 66.5034 231.556 67.484 231.556 68.9549Z" fill="#C7993E"/>
<path fill-rule="evenodd" clip-rule="evenodd" d="M217.825 70.8617C225.67 70.8617 232.044 68.2467 232.044 65.0324C232.044 61.8181 225.615 59.2031 217.825 59.2031C210.034 59.2031 203.605 61.8181 203.605 65.0324C203.605 68.2467 209.98 70.8617 217.825 70.8617Z" fill="#FFFF99"/>
<path fill-rule="evenodd" clip-rule="evenodd" d="M227.36 69.391C226.869 69.5545 226.324 69.7724 225.78 69.8814L210.798 59.9116C211.343 59.8027 211.996 59.6392 212.596 59.5303L227.36 69.391ZM224.309 70.2082C223.11 70.4806 221.748 70.6441 220.386 70.753L206.439 61.4915C207.257 61.0557 208.292 60.6199 209.381 60.293L224.309 70.2082Z" fill="white"/>
<path fill-rule="evenodd" clip-rule="evenodd" d="M218.315 70.2632C226.16 70.2632 231.662 67.8117 232.044 65.0332C232.044 68.2475 225.67 70.8625 217.825 70.8625C209.98 70.8625 203.605 68.2475 203.605 65.0332C204.532 68.6288 210.47 70.2632 218.315 70.2632Z" fill="white"/>
<path fill-rule="evenodd" clip-rule="evenodd" d="M253.456 70.3178C252.42 73.3687 245.556 73.8045 238.092 71.3529C230.629 68.8469 225.453 64.3251 226.488 61.2742C226.924 59.8578 227.251 58.9316 227.741 57.5151C228.776 54.4643 235.641 54.0285 243.104 56.5345C250.514 59.0406 255.744 63.5624 254.709 66.6132C254.218 67.9752 253.891 68.9013 253.456 70.3178Z" fill="#C7993E"/>
<path fill-rule="evenodd" clip-rule="evenodd" d="M243.104 56.479C250.514 58.985 255.744 63.5068 254.708 66.5577C253.673 69.6085 246.809 70.0443 239.345 67.5383C231.882 65.0322 226.706 60.5104 227.741 57.4596C228.776 54.4632 235.641 53.9729 243.104 56.479Z" fill="#FFFF99"/>
<path fill-rule="evenodd" clip-rule="evenodd" d="M248.825 69.1733C248.28 69.1733 247.735 69.1733 247.136 69.1733L236.131 54.9542C236.73 55.0087 237.33 55.0631 237.983 55.1721L248.825 69.1733ZM245.719 69.0644C244.466 68.9009 243.159 68.683 241.851 68.3561L231.555 55.0631C232.481 54.8997 233.57 54.7907 234.714 54.8452L245.719 69.0644Z" fill="white"/>
<path fill-rule="evenodd" clip-rule="evenodd" d="M239.999 67.1575C247.462 69.6636 253.455 69.1188 254.654 66.6127C253.619 69.6636 246.754 70.0994 239.291 67.5933C231.827 65.0873 226.651 60.5655 227.686 57.5146C227.469 61.2193 232.59 64.6515 239.999 67.1575Z" fill="white"/>
<path fill-rule="evenodd" clip-rule="evenodd" d="M257.161 74.5116C257.161 77.7259 250.842 80.3409 242.997 80.3409C235.152 80.3409 228.832 77.7259 228.832 74.5116C228.832 73.0407 228.832 72.06 228.832 70.5891C228.832 67.3748 235.152 64.7598 242.997 64.7598C250.842 64.7598 257.161 67.3748 257.161 70.5891C257.161 72.06 257.161 73.0407 257.161 74.5116Z" fill="#C7993E"/>
<path fill-rule="evenodd" clip-rule="evenodd" d="M243.051 76.4184C250.896 76.4184 257.27 73.8034 257.27 70.5891C257.27 67.3748 250.896 64.7598 243.051 64.7598C235.206 64.7598 228.832 67.3748 228.832 70.5891C228.832 73.8034 235.206 76.4184 243.051 76.4184Z" fill="#FFFF99"/>
<path fill-rule="evenodd" clip-rule="evenodd" d="M252.583 74.894C252.093 75.0574 251.548 75.2753 251.003 75.3843L236.021 65.4146C236.566 65.3056 237.22 65.1422 237.819 65.0332L252.583 74.894ZM249.532 75.7657C248.334 76.0381 247.026 76.2015 245.61 76.3105L231.663 67.0489C232.48 66.6131 233.515 66.1773 234.605 65.8504L249.532 75.7657Z" fill="white"/>
<path fill-rule="evenodd" clip-rule="evenodd" d="M243.541 75.7652C251.387 75.7652 256.889 73.3136 257.27 70.5352C257.27 73.7494 250.896 76.3645 243.051 76.3645C235.206 76.3645 228.832 73.7494 228.832 70.5352C229.758 74.1853 235.696 75.7652 243.541 75.7652Z" fill="white"/>
<path fill-rule="evenodd" clip-rule="evenodd" d="M278.679 75.8208C277.644 78.8716 270.78 79.3619 263.316 76.8559C255.907 74.3498 250.677 69.828 251.712 66.7772C252.148 65.3607 252.474 64.4345 252.965 63.0181C254 59.9672 260.864 59.5314 268.328 62.0374C275.737 64.5435 280.967 69.0653 279.932 72.1161C279.442 73.5326 279.169 74.4588 278.679 75.8208Z" fill="#C7993E"/>
<path fill-rule="evenodd" clip-rule="evenodd" d="M268.328 62.0374C275.737 64.5435 280.967 69.0653 279.932 72.1161C278.897 75.167 272.033 75.6028 264.569 73.0968C257.105 70.5907 251.93 66.0689 252.965 63.0181C254 59.9672 260.864 59.5314 268.328 62.0374Z" fill="#FFFF99"/>
<path fill-rule="evenodd" clip-rule="evenodd" d="M274.103 74.73C273.558 74.73 273.013 74.73 272.414 74.73L261.409 60.5108C262.008 60.5653 262.608 60.6198 263.261 60.7287L274.103 74.73ZM270.943 74.5665C269.69 74.4031 268.382 74.1852 267.075 73.8583L256.778 60.6198C257.704 60.4564 258.794 60.3474 259.938 60.4019L270.943 74.5665Z" fill="white"/>
<path fill-rule="evenodd" clip-rule="evenodd" d="M265.277 72.7141C272.686 75.2202 278.734 74.6754 279.932 72.1693C278.897 75.2202 272.033 75.656 264.569 73.15C257.105 70.6439 251.93 66.1221 252.965 63.0713C252.692 66.7759 257.813 70.2081 265.277 72.7141Z" fill="white"/>
<path fill-rule="evenodd" clip-rule="evenodd" d="M274.049 82.1376C274.049 85.3519 267.729 87.9669 259.884 87.9669C252.039 87.9669 245.72 85.3519 245.72 82.1376C245.72 80.6666 245.72 79.686 245.72 78.2151C245.72 75.0008 252.039 72.3857 259.884 72.3857C267.729 72.3857 274.049 75.0008 274.049 78.2151C274.049 79.686 274.049 80.6666 274.049 82.1376Z" fill="#C7993E"/>
<path fill-rule="evenodd" clip-rule="evenodd" d="M260.156 84.099C268.001 84.099 274.375 81.484 274.375 78.2697C274.375 75.0555 268.001 72.4404 260.156 72.4404C252.311 72.4404 245.937 75.0555 245.937 78.2697C245.937 81.4295 252.311 84.099 260.156 84.099Z" fill="#FFFF99"/>
<path fill-rule="evenodd" clip-rule="evenodd" d="M269.636 82.5747C269.146 82.7381 268.601 82.956 268.056 83.065L253.074 73.0952C253.674 72.9863 254.273 72.8228 254.927 72.7139L269.636 82.5747ZM266.64 83.4463C265.441 83.7187 264.079 83.8822 262.717 83.9911L248.771 74.7296C249.588 74.2938 250.568 73.8579 251.712 73.5311L266.64 83.4463Z" fill="white"/>
<path fill-rule="evenodd" clip-rule="evenodd" d="M260.646 83.4459C268.545 83.4459 274.048 81.0488 274.375 78.2158C274.375 81.4301 268.001 84.0451 260.156 84.0451C252.311 84.0451 245.937 81.4301 245.937 78.2158C246.863 81.8115 252.801 83.4459 260.646 83.4459Z" fill="white"/>
<path fill-rule="evenodd" clip-rule="evenodd" d="M295.786 83.4995C294.751 86.5503 287.887 87.0406 280.423 84.5346C273.014 82.0285 267.784 77.5067 268.819 74.4559C269.309 73.0394 269.636 72.1133 270.072 70.6968C271.107 67.6459 277.972 67.2101 285.435 69.7162C292.899 72.2222 298.075 76.744 297.039 79.7949C296.549 81.1568 296.222 82.1375 295.786 83.4995Z" fill="#C7993E"/>
<path fill-rule="evenodd" clip-rule="evenodd" d="M285.434 69.7162C292.898 72.2222 298.074 76.744 297.038 79.7949C296.003 82.8457 289.139 83.2815 281.675 80.7755C274.266 78.2694 269.036 73.7476 270.071 70.6968C271.106 67.6459 277.971 67.2101 285.434 69.7162Z" fill="#FFFF99"/>
<path fill-rule="evenodd" clip-rule="evenodd" d="M291.21 82.4106C290.665 82.4106 290.121 82.4106 289.521 82.4106L278.516 68.1915C279.116 68.246 279.715 68.3005 280.369 68.4639L291.21 82.4106ZM287.996 82.2472C286.743 82.0838 285.435 81.8658 284.128 81.539L273.886 68.3004C274.812 68.137 275.901 68.0281 277.046 68.0825L287.996 82.2472Z" fill="white"/>
<path fill-rule="evenodd" clip-rule="evenodd" d="M282.383 80.3401C289.793 82.8462 295.84 82.3014 297.038 79.7953C296.003 82.8462 289.139 83.282 281.675 80.776C274.266 78.2699 269.036 73.7481 270.071 70.6973C269.799 74.4019 274.92 77.8341 282.383 80.3401Z" fill="white"/>
<path fill-rule="evenodd" clip-rule="evenodd" d="M295.84 86.8221C295.84 90.0364 289.52 92.6514 281.675 92.6514C273.83 92.6514 267.511 90.0364 267.511 86.8221C267.511 85.3512 267.511 84.3706 267.511 82.8996C267.511 79.6853 273.83 77.0703 281.675 77.0703C289.52 77.0703 295.84 79.6853 295.84 82.8996C295.84 84.3706 295.84 85.3512 295.84 86.8221Z" fill="#C7993E"/>
<path fill-rule="evenodd" clip-rule="evenodd" d="M281.73 88.7289C289.575 88.7289 295.949 86.1139 295.949 82.8996C295.949 79.6853 289.575 77.0703 281.73 77.0703C273.885 77.0703 267.511 79.6853 267.511 82.8996C267.511 86.1139 273.885 88.7289 281.73 88.7289Z" fill="#FFFF99"/>
<path fill-rule="evenodd" clip-rule="evenodd" d="M291.262 87.2047C290.772 87.3682 290.227 87.5861 289.682 87.6951L274.7 77.7798C275.299 77.6164 275.899 77.5074 276.552 77.3984L291.262 87.2047ZM288.211 88.0764C287.013 88.3488 285.651 88.5122 284.289 88.6212L270.342 79.3597C271.159 78.9239 272.14 78.488 273.284 78.1611L288.211 88.0764Z" fill="white"/>
<path fill-rule="evenodd" clip-rule="evenodd" d="M282.22 88.0767C290.12 88.0767 295.622 85.6796 295.949 82.8467C295.949 86.061 289.575 88.676 281.73 88.676C273.885 88.676 267.511 86.1155 267.511 82.9012C268.437 86.4968 274.375 88.0767 282.22 88.0767Z" fill="white"/>
<path fill-rule="evenodd" clip-rule="evenodd" d="M317.359 88.187C316.324 91.2379 309.459 91.6737 301.996 89.1677C294.586 86.6616 289.356 82.1398 290.391 79.089C290.882 77.727 291.209 76.7463 291.644 75.3843C292.68 72.3335 299.544 71.8977 307.008 74.3492C314.471 76.8553 319.647 81.3771 318.612 84.4279C318.121 85.8444 317.795 86.7706 317.359 88.187Z" fill="#C7993E"/>
<path fill-rule="evenodd" clip-rule="evenodd" d="M307.009 74.3484C314.472 76.8544 319.648 81.3762 318.613 84.4271C317.578 87.4779 310.713 87.9138 303.249 85.4622C295.84 82.9561 290.61 78.4343 291.645 75.3835C292.68 72.2782 299.545 71.8423 307.009 74.3484Z" fill="#FFFF99"/>
<path fill-rule="evenodd" clip-rule="evenodd" d="M312.783 87.0966C312.238 87.0966 311.693 87.0966 311.094 87.0421L300.089 72.823C300.688 72.8774 301.288 72.9319 301.941 73.0954L312.783 87.0966ZM309.623 86.8787C308.37 86.7697 307.062 86.4973 305.755 86.1704L295.513 72.9319C296.439 72.7685 297.528 72.714 298.672 72.7685L309.623 86.8787Z" fill="white"/>
<path fill-rule="evenodd" clip-rule="evenodd" d="M303.958 85.0278C311.367 87.5339 317.414 86.9891 318.613 84.483C317.578 87.5339 310.713 87.9697 303.249 85.5182C295.84 83.0121 290.61 78.4903 291.645 75.4395C291.373 79.0896 296.494 82.5218 303.958 85.0278Z" fill="white"/>
<path fill-rule="evenodd" clip-rule="evenodd" d="M315.997 88.2391C315.997 91.4534 309.405 94.0684 301.56 94.0684C293.715 94.0684 287.123 91.4534 287.123 88.2391C287.123 86.7682 287.123 85.7876 287.123 84.3166C287.123 81.1023 293.715 78.4873 301.56 78.4873C309.405 78.4873 315.997 81.1023 315.997 84.3166C315.997 85.7876 315.997 86.7682 315.997 88.2391Z" fill="#C7993E"/>
<path fill-rule="evenodd" clip-rule="evenodd" d="M301.397 90.1459C309.242 90.1459 315.616 87.5309 315.616 84.3166C315.616 81.1023 309.187 78.4873 301.397 78.4873C293.552 78.4873 287.178 81.1023 287.178 84.3166C287.178 87.5309 293.552 90.1459 301.397 90.1459Z" fill="#FFFF99"/>
<path fill-rule="evenodd" clip-rule="evenodd" d="M310.932 88.6764C310.441 88.8399 309.897 89.0578 309.352 89.1667L294.37 79.197C294.969 79.088 295.569 78.9246 296.222 78.8701L310.932 88.6764ZM307.881 89.4936C306.682 89.766 305.32 89.9294 303.958 90.0384L290.012 80.7769C290.829 80.3411 291.864 79.9052 292.954 79.5783L307.881 89.4936Z" fill="white"/>
<path fill-rule="evenodd" clip-rule="evenodd" d="M301.887 89.5484C309.732 89.5484 315.235 87.1513 315.616 84.3184C315.616 87.5326 309.242 90.1477 301.397 90.1477C293.552 90.1477 287.178 87.5326 287.178 84.3184C288.104 87.914 294.042 89.5484 301.887 89.5484Z" fill="white"/>
<path fill-rule="evenodd" clip-rule="evenodd" d="M337.027 89.6024C335.992 92.6532 329.127 93.0891 321.664 90.583C314.2 88.0769 309.024 83.5552 310.059 80.5043C310.495 79.0878 310.822 78.1617 311.313 76.7997C312.348 73.7488 319.212 73.2585 326.676 75.7646C334.085 78.2706 339.315 82.7924 338.28 85.8433C337.79 87.2597 337.463 88.2404 337.027 89.6024Z" fill="#C7993E"/>
<path fill-rule="evenodd" clip-rule="evenodd" d="M326.677 75.7646C334.086 78.2706 339.316 82.7924 338.281 85.8433C337.246 88.8941 330.381 89.33 322.917 86.8784C315.454 84.3723 310.278 79.8505 311.313 76.7997C312.349 73.7488 319.213 73.2585 326.677 75.7646Z" fill="#FFFF99"/>
<path fill-rule="evenodd" clip-rule="evenodd" d="M332.45 88.4582C331.905 88.4582 331.361 88.4582 330.761 88.4582L319.757 74.2391C320.356 74.2935 320.955 74.348 321.609 74.5115L332.45 88.4582ZM329.236 88.3492C328.037 88.2403 326.675 87.9679 325.368 87.641L315.071 74.4025C315.997 74.239 317.087 74.1846 318.231 74.1846L329.236 88.3492Z" fill="white"/>
<path fill-rule="evenodd" clip-rule="evenodd" d="M323.626 86.4419C331.089 88.948 337.082 88.4032 338.281 85.8971C337.246 88.948 330.381 89.3838 322.917 86.9322C315.454 84.4262 310.278 79.9044 311.313 76.8535C311.041 80.5036 316.162 83.9358 323.626 86.4419Z" fill="white"/>
<path fill-rule="evenodd" clip-rule="evenodd" d="M320.574 72.7686C320.792 75.9829 314.581 79.0337 306.791 79.524C298.946 80.0143 292.408 77.8352 292.19 74.6209C292.081 73.1499 292.027 72.1693 291.918 70.6984C291.7 67.4841 297.91 64.4332 305.701 63.9429C313.546 63.4526 320.084 65.6318 320.301 68.846C320.41 70.317 320.465 71.2976 320.574 72.7686Z" fill="#C7993E"/>
<path fill-rule="evenodd" clip-rule="evenodd" d="M305.755 63.9429C313.6 63.4526 320.137 65.6318 320.355 68.846C320.573 72.0603 314.363 75.1112 306.518 75.6015C298.672 76.0918 292.135 73.9126 291.972 70.6984C291.699 67.4841 297.91 64.4332 305.755 63.9429Z" fill="#FFFF99"/>
<path fill-rule="evenodd" clip-rule="evenodd" d="M315.889 73.4761C315.399 73.694 314.854 73.9119 314.309 74.0753L298.728 65.1407C299.273 64.9773 299.872 64.8138 300.526 64.6504L315.889 73.4761ZM312.947 74.5112C311.749 74.8381 310.441 75.1105 309.079 75.3284L294.533 66.993C295.35 66.5027 296.277 66.0124 297.366 65.5765L312.947 74.5112Z" fill="white"/>
<path fill-rule="evenodd" clip-rule="evenodd" d="M306.953 74.9474C314.798 74.4571 320.137 71.6242 320.301 68.8457C320.519 72.06 314.308 75.1109 306.463 75.6012C298.618 76.0915 292.08 73.9123 291.917 70.698C293.116 74.2392 299.108 75.4377 306.953 74.9474Z" fill="white"/>
<path fill-rule="evenodd" clip-rule="evenodd" d="M299.218 63.7256C299.436 66.9399 293.226 69.9907 285.381 70.481C277.536 70.9713 270.998 68.7922 270.835 65.5779C270.726 64.1069 270.671 63.1263 270.562 61.6554C270.344 58.4411 276.555 55.3902 284.4 54.8999C292.245 54.4096 298.783 56.5888 298.946 59.8031C299.055 61.2195 299.164 62.2546 299.218 63.7256Z" fill="#C7993E"/>
<path fill-rule="evenodd" clip-rule="evenodd" d="M284.4 54.8999C292.245 54.4096 298.783 56.5888 298.946 59.8031C299.164 63.0174 292.953 66.0682 285.163 66.5585C277.318 67.0488 270.78 64.8697 270.562 61.6554C270.344 58.3866 276.555 55.3902 284.4 54.8999Z" fill="#FFFF99"/>
<path fill-rule="evenodd" clip-rule="evenodd" d="M294.586 64.4321C294.096 64.65 293.551 64.8679 293.007 65.0314L277.425 56.0968C277.97 55.9333 278.624 55.7699 279.223 55.6064L294.586 64.4321ZM291.59 65.4672C290.392 65.7941 289.084 66.0665 287.722 66.2844L273.23 57.9491C274.048 57.4587 274.974 56.9684 276.063 56.5326L291.59 65.4672Z" fill="white"/>
<path fill-rule="evenodd" clip-rule="evenodd" d="M285.598 65.9025C293.443 65.4122 298.782 62.6337 298.945 59.8008C299.163 63.0151 292.953 66.0659 285.162 66.5562C277.317 67.0465 270.779 64.8674 270.562 61.6531C271.76 65.1942 277.807 66.3928 285.598 65.9025Z" fill="white"/>
<path fill-rule="evenodd" clip-rule="evenodd" d="M245.884 71.079C246.974 74.1299 241.907 78.7606 234.498 81.4301C227.143 84.0996 220.224 83.7727 219.135 80.7219C218.644 79.3054 218.317 78.3793 217.827 77.0173C216.737 73.9664 221.804 69.3901 229.213 66.7207C236.568 64.0512 243.487 64.378 244.577 67.4289C245.067 68.7364 245.394 69.717 245.884 71.079Z" fill="#C7993E"/>
<path fill-rule="evenodd" clip-rule="evenodd" d="M229.213 66.7207C236.568 64.0512 243.486 64.378 244.576 67.4289C245.666 70.4797 240.545 75.1105 233.135 77.7255C225.781 80.395 218.862 80.0681 217.772 77.0173C216.683 73.9664 221.804 69.3901 229.213 66.7207Z" fill="#FFFF99"/>
<path fill-rule="evenodd" clip-rule="evenodd" d="M241.632 73.0406C241.196 73.3675 240.761 73.7489 240.325 74.0757L222.837 69.7719C223.327 69.445 223.872 69.1181 224.417 68.8457L241.632 73.0406ZM239.017 74.8929C237.928 75.5467 236.784 76.1459 235.531 76.7452L219.241 72.7682C219.895 72.06 220.658 71.3518 221.584 70.6435L239.017 74.8929Z" fill="white"/>
<path fill-rule="evenodd" clip-rule="evenodd" d="M233.406 76.9079C240.815 74.2384 245.174 70.098 244.574 67.374C245.664 70.4249 240.543 75.0556 233.134 77.6706C225.779 80.3401 218.86 80.0133 217.771 76.9624C219.895 80.1222 225.997 79.5774 233.406 76.9079Z" fill="white"/>
<path fill-rule="evenodd" clip-rule="evenodd" d="M275.684 86.7687C275.684 89.9829 269.255 92.5435 261.41 92.489C253.565 92.38 247.191 89.7106 247.245 86.4963C247.245 85.0253 247.3 84.0447 247.3 82.5737C247.354 79.3594 253.729 76.7989 261.574 76.8534C269.419 76.9079 275.738 79.6318 275.738 82.8461C275.738 84.3171 275.684 85.2977 275.684 86.7687Z" fill="#C7993E"/>
<path fill-rule="evenodd" clip-rule="evenodd" d="M261.573 76.8559C269.418 76.9104 275.738 79.6343 275.738 82.8486C275.684 86.0629 269.31 88.6235 261.464 88.569C253.619 88.46 247.3 85.7905 247.3 82.5762C247.3 79.3075 253.728 76.7469 261.573 76.8559Z" fill="#FFFF99"/>
<path fill-rule="evenodd" clip-rule="evenodd" d="M270.998 87.1506C270.507 87.314 269.963 87.4775 269.418 87.6409L254.545 77.5622C255.144 77.4533 255.743 77.2898 256.397 77.2354L270.998 87.1506ZM267.947 87.9678C266.748 88.1857 265.386 88.3491 264.024 88.4581L250.187 79.0332C251.004 78.5973 252.039 78.216 253.128 77.8891L267.947 87.9678Z" fill="white"/>
<path fill-rule="evenodd" clip-rule="evenodd" d="M261.955 87.9142C269.8 87.9687 275.357 85.626 275.738 82.8476C275.684 86.0619 269.31 88.6224 261.464 88.5679C253.619 88.459 247.3 85.7895 247.3 82.5752C248.171 86.1708 254.11 87.8597 261.955 87.9142Z" fill="white"/>
<path fill-rule="evenodd" clip-rule="evenodd" d="M193.745 155.849C193.745 159.064 187.317 161.624 179.472 161.515C171.627 161.461 165.253 158.737 165.307 155.523C165.307 154.052 165.361 153.071 165.361 151.6C165.361 148.386 171.79 145.825 179.635 145.88C187.48 145.989 193.854 148.658 193.8 151.872C193.745 153.343 193.745 154.379 193.745 155.849Z" fill="#C7993E"/>
<path fill-rule="evenodd" clip-rule="evenodd" d="M179.637 145.88C187.482 145.989 193.856 148.658 193.802 151.873C193.747 155.087 187.373 157.647 179.528 157.593C171.683 157.484 165.363 154.814 165.363 151.6C165.363 148.331 171.737 145.825 179.637 145.88Z" fill="#FFFF99"/>
<path fill-rule="evenodd" clip-rule="evenodd" d="M189.005 156.176C188.515 156.339 187.97 156.503 187.426 156.666L172.553 146.588C173.097 146.479 173.751 146.37 174.405 146.261L189.005 156.176ZM185.955 156.993C184.756 157.266 183.394 157.429 182.032 157.483L168.194 148.113C169.012 147.677 170.047 147.241 171.136 146.914L185.955 156.993Z" fill="white"/>
<path fill-rule="evenodd" clip-rule="evenodd" d="M180.018 156.939C187.863 157.048 193.42 154.65 193.802 151.872C193.747 155.086 187.373 157.647 179.528 157.592C171.683 157.483 165.363 154.814 165.363 151.6C166.235 155.195 172.119 156.884 180.018 156.939Z" fill="white"/>
<path fill-rule="evenodd" clip-rule="evenodd" d="M134.255 159.772C135.671 162.714 131.041 167.781 123.958 171.213C116.876 174.591 110.012 174.972 108.595 172.085C107.941 170.777 107.56 169.851 106.906 168.544C105.49 165.602 110.121 160.535 117.203 157.157C124.285 153.78 131.15 153.398 132.566 156.286C133.22 157.539 133.656 158.41 134.255 159.772Z" fill="#C7993E"/>
<path fill-rule="evenodd" clip-rule="evenodd" d="M117.203 157.103C124.285 153.725 131.15 153.344 132.566 156.231C133.983 159.118 129.352 164.239 122.27 167.617C115.187 170.995 108.323 171.376 106.906 168.489C105.49 165.547 110.121 160.48 117.203 157.103Z" fill="#FFFF99"/>
<path fill-rule="evenodd" clip-rule="evenodd" d="M130.167 162.168C129.786 162.55 129.404 162.931 128.969 163.312L111.154 160.806C111.59 160.425 112.08 160.043 112.625 159.662L130.167 162.168ZM127.824 164.238C126.844 165.001 125.754 165.764 124.501 166.418L107.939 164.075C108.484 163.312 109.192 162.495 110.064 161.732L127.824 164.238Z" fill="white"/>
<path fill-rule="evenodd" clip-rule="evenodd" d="M122.431 166.853C129.513 163.475 133.436 158.899 132.564 156.229C133.981 159.117 129.35 164.238 122.268 167.616C115.185 170.993 108.321 171.375 106.904 168.487C109.301 171.32 115.349 170.231 122.431 166.853Z" fill="white"/>
<path fill-rule="evenodd" clip-rule="evenodd" d="M158.934 162.55C159.479 165.71 153.704 169.415 145.968 170.777C138.232 172.193 131.476 170.722 130.931 167.562C130.659 166.091 130.495 165.111 130.223 163.694C129.678 160.535 135.453 156.83 143.189 155.413C150.925 153.997 157.681 155.468 158.226 158.682C158.498 160.099 158.661 161.079 158.934 162.55Z" fill="#C7993E"/>
<path fill-rule="evenodd" clip-rule="evenodd" d="M143.189 155.413C150.925 153.997 157.681 155.468 158.226 158.682C158.77 161.842 152.995 165.547 145.259 166.909C137.523 168.325 130.822 166.854 130.223 163.694C129.678 160.535 135.453 156.83 143.189 155.413Z" fill="#FFFF99"/>
<path fill-rule="evenodd" clip-rule="evenodd" d="M154.358 163.804C153.922 164.076 153.431 164.349 152.887 164.567L136.379 157.43C136.924 157.158 137.523 156.994 138.123 156.722L154.358 163.804ZM151.525 165.166C150.381 165.656 149.128 166.038 147.766 166.419L132.402 159.718C133.111 159.119 134.037 158.574 135.072 158.029L151.525 165.166Z" fill="white"/>
<path fill-rule="evenodd" clip-rule="evenodd" d="M145.641 166.256C153.377 164.84 158.335 161.517 158.226 158.684C158.771 161.843 152.996 165.548 145.26 166.91C137.524 168.326 130.823 166.856 130.224 163.696C131.804 167.073 137.905 167.618 145.641 166.256Z" fill="white"/>
<path fill-rule="evenodd" clip-rule="evenodd" d="M208.238 164.129C208.293 167.344 201.973 170.068 194.128 170.231C186.283 170.34 179.854 167.834 179.8 164.62C179.8 163.149 179.745 162.168 179.745 160.697C179.691 157.483 186.011 154.759 193.856 154.65C201.701 154.541 208.129 157.047 208.184 160.261C208.184 161.678 208.184 162.713 208.238 164.129Z" fill="#C7993E"/>
<path fill-rule="evenodd" clip-rule="evenodd" d="M193.855 154.595C201.7 154.486 208.128 156.992 208.183 160.207C208.237 163.421 201.918 166.145 194.018 166.254C186.173 166.363 179.745 163.857 179.745 160.642C179.636 157.428 186.01 154.704 193.855 154.595Z" fill="#FFFF99"/>
<path fill-rule="evenodd" clip-rule="evenodd" d="M203.497 164.675C203.007 164.838 202.462 165.056 201.917 165.219L186.772 155.522C187.316 155.359 187.97 155.25 188.569 155.141L203.497 164.675ZM200.5 165.546C199.302 165.819 197.94 166.037 196.578 166.145L182.468 157.102C183.285 156.612 184.266 156.23 185.41 155.849L200.5 165.546Z" fill="white"/>
<path fill-rule="evenodd" clip-rule="evenodd" d="M194.509 165.655C202.354 165.546 207.856 163.04 208.183 160.207C208.238 163.421 201.918 166.145 194.019 166.254C186.174 166.363 179.745 163.857 179.745 160.643C180.671 164.239 186.664 165.764 194.509 165.655Z" fill="white"/>
<path fill-rule="evenodd" clip-rule="evenodd" d="M91.4863 180.965C91.5408 184.179 85.2211 186.903 77.3761 187.012C69.5311 187.121 63.1025 184.615 63.048 181.401C63.048 179.93 62.9935 178.949 62.9935 177.478C62.939 174.264 69.2587 171.54 77.1037 171.431C84.9487 171.322 91.3773 173.828 91.4318 177.043C91.4318 178.514 91.4318 179.494 91.4863 180.965Z" fill="#C7993E"/>
<path fill-rule="evenodd" clip-rule="evenodd" d="M77.1037 171.376C84.9487 171.268 91.3773 173.774 91.4318 176.988C91.4863 180.202 85.1667 182.926 77.2671 183.09C69.4221 183.199 62.9935 180.692 62.9935 177.424C62.939 174.264 69.2587 171.485 77.1037 171.376Z" fill="#FFFF99"/>
<path fill-rule="evenodd" clip-rule="evenodd" d="M86.7478 181.455C86.2575 181.618 85.7127 181.836 85.1679 182L70.0226 172.302C70.5674 172.139 71.2212 172.03 71.8205 171.921L86.7478 181.455ZM83.7515 182.381C82.5529 182.653 81.1909 182.871 79.8289 182.98L65.7188 173.937C66.5359 173.501 67.5166 173.065 68.6607 172.684L83.7515 182.381Z" fill="white"/>
<path fill-rule="evenodd" clip-rule="evenodd" d="M77.76 182.436C85.6051 182.327 91.1075 179.821 91.4344 176.988C91.4889 180.203 85.1692 182.927 77.2697 183.09C69.4247 183.199 62.9961 180.693 62.9961 177.424C63.9222 181.074 69.915 182.6 77.76 182.436Z" fill="white"/>
<path fill-rule="evenodd" clip-rule="evenodd" d="M294.641 194.639C294.695 197.853 288.375 200.577 280.53 200.686C272.685 200.795 266.257 198.289 266.202 195.075C266.202 193.604 266.148 192.623 266.148 191.152C266.093 187.938 272.413 185.214 280.258 185.105C288.103 184.996 294.532 187.502 294.586 190.716C294.586 192.133 294.641 193.168 294.641 194.639Z" fill="#C7993E"/>
<path fill-rule="evenodd" clip-rule="evenodd" d="M280.258 185.05C288.103 184.941 294.532 187.447 294.586 190.662C294.641 193.876 288.321 196.6 280.476 196.763C272.631 196.872 266.202 194.366 266.148 191.098C266.093 187.883 272.413 185.159 280.258 185.05Z" fill="#FFFF99"/>
<path fill-rule="evenodd" clip-rule="evenodd" d="M289.957 195.127C289.466 195.29 288.921 195.508 288.377 195.671L273.231 185.974C273.776 185.811 274.43 185.702 275.029 185.593L289.957 195.127ZM286.906 195.998C285.707 196.271 284.345 196.489 282.983 196.598L268.873 187.554C269.69 187.118 270.671 186.682 271.815 186.301L286.906 195.998Z" fill="white"/>
<path fill-rule="evenodd" clip-rule="evenodd" d="M280.967 196.11C288.812 196.001 294.314 193.495 294.587 190.662C294.641 193.876 288.322 196.6 280.477 196.764C272.631 196.873 266.203 194.367 266.148 191.098C267.129 194.748 273.067 196.273 280.967 196.11Z" fill="white"/>
<path fill-rule="evenodd" clip-rule="evenodd" d="M347.215 183.361C347.269 186.575 340.95 189.299 333.105 189.462C325.26 189.571 318.831 187.065 318.776 183.796C318.776 182.325 318.722 181.345 318.722 179.874C318.668 176.66 324.987 173.936 332.832 173.827C340.677 173.718 347.106 176.224 347.16 179.438C347.16 180.909 347.16 181.944 347.215 183.361Z" fill="#C7993E"/>
<path fill-rule="evenodd" clip-rule="evenodd" d="M332.832 173.827C340.677 173.718 347.106 176.224 347.16 179.438C347.215 182.652 340.895 185.376 333.05 185.485C325.205 185.594 318.777 183.088 318.722 179.874C318.668 176.66 324.987 173.936 332.832 173.827Z" fill="#FFFF99"/>
<path fill-rule="evenodd" clip-rule="evenodd" d="M342.53 183.905C342.039 184.068 341.495 184.286 340.95 184.45L325.805 174.752C326.404 174.589 327.003 174.48 327.657 174.371L342.53 183.905ZM339.479 184.777C338.28 185.049 336.973 185.267 335.556 185.376L321.446 176.332C322.263 175.842 323.244 175.461 324.388 175.079L339.479 184.777Z" fill="white"/>
<path fill-rule="evenodd" clip-rule="evenodd" d="M333.484 184.887C341.329 184.778 346.832 182.272 347.104 179.439C347.159 182.654 340.839 185.378 332.994 185.487C325.149 185.596 318.72 183.09 318.666 179.875C319.701 183.471 325.639 184.996 333.484 184.887Z" fill="white"/>
<path fill-rule="evenodd" clip-rule="evenodd" d="M362.196 195.238C361.433 198.398 354.624 199.433 346.996 197.581C339.369 195.729 333.758 191.697 334.521 188.592C334.847 187.175 335.12 186.195 335.447 184.778C336.209 181.619 343.019 180.583 350.646 182.436C358.274 184.288 363.885 188.319 363.122 191.425C362.741 192.841 362.523 193.822 362.196 195.238Z" fill="#C7993E"/>
<path fill-rule="evenodd" clip-rule="evenodd" d="M350.647 182.436C358.274 184.288 363.886 188.319 363.123 191.425C362.36 194.585 355.55 195.62 347.923 193.767C340.296 191.915 334.685 187.884 335.447 184.778C336.21 181.619 343.02 180.583 350.647 182.436Z" fill="#FFFF99"/>
<path fill-rule="evenodd" clip-rule="evenodd" d="M357.511 194.53C356.967 194.585 356.422 194.639 355.823 194.639L343.619 181.455C344.218 181.455 344.818 181.455 345.472 181.51L357.511 194.53ZM354.352 194.694C353.099 194.639 351.791 194.53 350.429 194.312L339.043 182.054C339.969 181.782 341.004 181.673 342.203 181.564L354.352 194.694Z" fill="white"/>
<path fill-rule="evenodd" clip-rule="evenodd" d="M348.577 193.277C356.204 195.129 362.142 194.04 363.123 191.425C362.36 194.585 355.55 195.62 347.923 193.767C340.296 191.915 334.685 187.884 335.447 184.778C335.502 188.483 340.895 191.479 348.577 193.277Z" fill="white"/>
<path fill-rule="evenodd" clip-rule="evenodd" d="M313.056 193.711C312.294 196.871 305.484 197.906 297.857 196.054C290.23 194.201 284.618 190.17 285.381 187.065C285.708 185.648 285.926 184.667 286.307 183.251C287.07 180.091 293.88 179.056 301.507 180.908C309.134 182.761 314.745 186.792 313.983 189.897C313.656 191.314 313.438 192.295 313.056 193.711Z" fill="#C7993E"/>
<path fill-rule="evenodd" clip-rule="evenodd" d="M301.506 180.855C309.133 182.708 314.744 186.739 313.981 189.845C313.219 192.95 306.409 194.039 298.782 192.187C291.154 190.335 285.543 186.303 286.306 183.198C287.068 180.093 293.878 179.058 301.506 180.855Z" fill="#FFFF99"/>
<path fill-rule="evenodd" clip-rule="evenodd" d="M308.427 193.003C307.882 193.057 307.337 193.112 306.738 193.112L294.48 179.928C295.079 179.928 295.678 179.928 296.332 179.982L308.427 193.003ZM305.267 193.166C304.014 193.112 302.706 193.003 301.344 192.785L289.958 180.527C290.884 180.255 291.919 180.091 293.063 180.037L305.267 193.166Z" fill="white"/>
<path fill-rule="evenodd" clip-rule="evenodd" d="M299.435 191.752C307.062 193.604 313.001 192.514 313.981 189.899C313.219 193.059 306.409 194.094 298.782 192.242C291.154 190.39 285.543 186.358 286.306 183.253C286.415 186.958 291.808 189.899 299.435 191.752Z" fill="white"/>
<path fill-rule="evenodd" clip-rule="evenodd" d="M225.18 165.655C224.417 168.815 217.607 169.85 209.98 167.998C202.353 166.146 196.741 162.114 197.504 159.009C197.831 157.592 198.103 156.612 198.43 155.195C199.193 152.035 206.003 151 213.63 152.853C221.257 154.705 226.868 158.736 226.106 161.842C225.779 163.258 225.506 164.184 225.18 165.655Z" fill="#C7993E"/>
<path fill-rule="evenodd" clip-rule="evenodd" d="M213.63 152.799C221.258 154.651 226.869 158.682 226.106 161.788C225.344 164.947 218.534 165.983 210.907 164.13C203.279 162.278 197.668 158.247 198.431 155.141C199.193 152.036 206.003 150.946 213.63 152.799Z" fill="#FFFF99"/>
<path fill-rule="evenodd" clip-rule="evenodd" d="M220.495 164.947C219.95 165.002 219.405 165.056 218.806 165.056L206.603 151.872C207.202 151.872 207.801 151.872 208.455 151.927L220.495 164.947ZM217.335 165.056C216.082 165.002 214.775 164.893 213.413 164.675L202.026 152.417C202.953 152.144 203.988 151.981 205.186 151.927L217.335 165.056Z" fill="white"/>
<path fill-rule="evenodd" clip-rule="evenodd" d="M211.507 163.694C219.134 165.546 225.072 164.457 226.053 161.842C225.29 165.002 218.48 166.037 210.853 164.184C203.226 162.332 197.614 158.301 198.377 155.195C198.486 158.9 203.879 161.842 211.507 163.694Z" fill="white"/>
<path fill-rule="evenodd" clip-rule="evenodd" d="M28.511 195.948C29.6005 198.999 24.4795 203.63 17.1248 206.299C9.71554 208.969 2.85114 208.642 1.76155 205.591C1.27124 204.229 0.944349 203.248 0.454034 201.886C-0.635555 198.836 4.43105 194.205 11.8403 191.59C19.2495 188.92 26.1139 189.247 27.2035 192.298C27.6393 193.606 27.9662 194.532 28.511 195.948Z" fill="#C7993E"/>
<path fill-rule="evenodd" clip-rule="evenodd" d="M11.7843 191.535C19.1935 188.866 26.0579 189.192 27.1475 192.243C28.2371 195.294 23.1705 199.925 15.7613 202.54C8.35213 205.209 1.48773 204.883 0.398136 201.832C-0.745933 198.835 4.37513 194.205 11.7843 191.535Z" fill="#FFFF99"/>
<path fill-rule="evenodd" clip-rule="evenodd" d="M24.2049 197.905C23.7691 198.232 23.3333 198.613 22.8974 198.94L5.46402 194.636C5.95433 194.309 6.49912 193.982 7.04392 193.71L24.2049 197.905ZM21.6444 199.757C20.6093 200.411 19.4107 201.01 18.1577 201.609L1.92285 197.632C2.52213 196.924 3.33931 196.216 4.26546 195.508L21.6444 199.757Z" fill="white"/>
<path fill-rule="evenodd" clip-rule="evenodd" d="M16.0331 201.775C23.3878 199.106 27.8006 194.965 27.1469 192.241C28.2365 195.292 23.1699 199.923 15.7607 202.538C8.35145 205.207 1.48705 204.88 0.397461 201.83C2.46768 204.935 8.62385 204.445 16.0331 201.775Z" fill="white"/>
<path fill-rule="evenodd" clip-rule="evenodd" d="M420.217 218.391C420.053 221.605 413.57 223.948 405.725 223.621C397.88 223.294 391.615 220.407 391.779 217.138C391.833 215.667 391.888 214.686 391.942 213.216C392.051 210.001 398.534 207.659 406.434 207.986C414.279 208.312 420.544 211.2 420.38 214.469C420.271 215.94 420.271 216.92 420.217 218.391Z" fill="#C7993E"/>
<path fill-rule="evenodd" clip-rule="evenodd" d="M406.433 207.986C414.278 208.312 420.543 211.2 420.38 214.469C420.216 217.683 413.733 220.025 405.888 219.699C398.043 219.372 391.778 216.484 391.942 213.216C392.105 210.001 398.588 207.659 406.433 207.986Z" fill="#FFFF99"/>
<path fill-rule="evenodd" clip-rule="evenodd" d="M415.477 218.611C414.987 218.774 414.442 218.938 413.843 219.047L399.297 208.477C399.896 208.369 400.496 208.26 401.149 208.205L415.477 218.611ZM412.427 219.319C411.174 219.537 409.866 219.646 408.504 219.7L394.993 209.839C395.865 209.404 396.845 209.077 397.99 208.75L412.427 219.319Z" fill="white"/>
<path fill-rule="evenodd" clip-rule="evenodd" d="M406.433 219.099C414.278 219.425 419.89 217.246 420.38 214.468C420.216 217.682 413.733 220.025 405.888 219.698C398.043 219.371 391.778 216.484 391.942 213.215C392.704 216.865 398.588 218.717 406.433 219.099Z" fill="white"/>
</svg>
