<svg width="403" height="151" viewBox="0 0 403 151" fill="none" xmlns="http://www.w3.org/2000/svg">
<path d="M372.63 54.8522C389.744 86.1488 385.195 118.89 364.26 130.339C343.325 141.787 313.931 127.606 296.817 96.3095C279.703 65.0129 285.542 32.7086 306.477 21.2605C327.413 9.81239 355.516 23.5556 372.63 54.8522Z" fill="#D1383E"/>
<ellipse cx="331.037" cy="78.829" rx="36.9493" ry="58.6855" transform="rotate(-28.6714 331.037 78.829)" fill="#B71C22"/>
<path d="M344.484 63.4313L332.139 70.5778L318.106 48.2285L311.739 52.6463L323.953 74.4757L310.57 82.4019L318.106 94.8759L330.71 86.43L344.484 109.429L351.5 105.271L338.637 82.4019L351.5 74.4757L344.484 63.4313Z" fill="white"/>
<path d="M1.18066 0.935547L1.18119 94.4861L286.628 89.3702" stroke="white" stroke-width="1.37106" stroke-dasharray="6.86 6.86"/>
</svg>
