<svg width="568" height="151" viewBox="0 0 568 151" fill="none" xmlns="http://www.w3.org/2000/svg">
<path d="M1.20853 21.614L1.20801 88.4848L450.999 88.4848" stroke="white" stroke-width="1.37106" stroke-dasharray="6.86 6.86"/>
<path d="M538.128 53.966C555.242 85.2626 550.693 118.004 529.758 129.452C508.823 140.9 479.429 126.72 462.315 95.4234C445.201 64.1267 451.04 31.8225 471.975 20.3743C492.911 8.92622 521.014 22.6694 538.128 53.966Z" fill="#D1383E"/>
<ellipse cx="496.535" cy="77.943" rx="36.9493" ry="58.6855" transform="rotate(-28.6714 496.535 77.943)" fill="#B71C22"/>
<path d="M509.982 62.5453L497.637 69.6918L483.604 47.3425L477.237 51.7603L489.451 73.5898L476.068 81.5159L483.604 93.9899L496.208 85.544L509.982 108.543L516.998 104.385L504.135 81.5159L516.998 73.5898L509.982 62.5453Z" fill="white"/>
</svg>
