<svg width="463" height="214" viewBox="0 0 463 214" fill="none" xmlns="http://www.w3.org/2000/svg">
<path opacity="0.9" d="M50.4362 88.1208C60.3169 88.1208 69.5687 90.7281 77.5103 95.2688C88.5041 70.9611 113.495 53.9833 142.569 53.9833C144.055 53.9833 145.528 54.0334 146.991 54.1207C165.423 21.8453 200.848 0 241.525 0C285.75 0 323.762 25.8238 340.484 62.7985C352.564 55.8923 366.637 51.9254 381.667 51.9254C426.586 51.9254 463 87.3117 463 130.964C463 140.307 461.327 140.518 458.264 148.838C458.264 148.838 471.922 215.111 230.482 213.986C-10.9584 212.86 0.0774231 148.838 0.0774231 148.838C0.0774231 142.824 0.0774231 145.459 0.0774231 139.316C0.0774231 110.618 20.9048 88.1208 50.4362 88.1208Z" fill="url(#paint0_linear)"/>
<defs>
<linearGradient id="paint0_linear" x1="229.982" y1="0" x2="229.982" y2="213.485" gradientUnits="userSpaceOnUse">
<stop stop-color="white"/>
<stop offset="0.71875" stop-color="white" stop-opacity="0.77"/>
<stop offset="1" stop-color="white" stop-opacity="0"/>
</linearGradient>
</defs>
</svg>
