<svg width="493" height="204" viewBox="0 0 493 204" fill="none" xmlns="http://www.w3.org/2000/svg">
<path d="M492.066 201.648C489.314 199.248 491.821 193.467 481.056 188.666C470.341 183.864 451.171 177.936 442.471 179.161C433.771 180.386 416.47 191.213 398.676 189.106C380.883 187 380.785 182.003 375.575 176.173C370.365 170.294 364.221 170.735 361.566 174.556C358.912 178.377 359.109 183.13 353.014 182.983C346.919 182.787 337.727 179.161 322.982 174.311C308.236 169.51 306.27 173.086 292.851 173.331C281.398 173.527 280.121 168.187 276.68 161.426C279.531 161.867 281.939 162.161 284.053 162.651C290.59 164.317 296.046 165.199 298.651 163.239C301.256 161.23 305.778 158.781 309.907 155.694C314.036 152.608 327.16 145.161 336.941 139.576C346.722 133.991 350.507 131.297 359.158 131.885C367.809 132.472 370.954 138.204 376.066 142.467C381.178 146.729 391.156 162.259 401.183 170.098C411.21 177.936 411.751 180.974 416.519 180.141C421.287 179.308 428.61 180.729 430.134 178.475C431.658 176.222 433.083 172.939 430.085 167.648C427.038 162.308 430.97 158.536 420.992 152.902C411.014 147.268 397.89 141.144 385.7 134.383C373.56 127.573 374.149 119.539 369.529 114.934C364.909 110.279 362.943 110.083 355.668 117.285C348.393 124.487 343.822 123.311 329.568 127.426C315.265 131.542 310.644 132.227 302.878 139.821C295.063 147.415 292.654 146.729 287.297 143.447C281.939 140.213 261.885 133.06 260.509 130.464C259.821 129.141 257.56 126.495 255.544 124.193C255.544 122.625 257.658 122.87 262.18 123.948C269.602 125.761 281.89 105.135 282.136 101.265C282.382 97.3946 267.832 88.0863 267.832 88.0863L267.046 89.507L209.243 37.8211C209.243 37.8211 205.36 32.971 197.839 26.7981C193.71 23.4177 188.156 21.801 182.848 22.0949C180.39 22.2419 178.375 23.2217 176.015 23.6626C174.59 23.9566 170.756 22.3889 172.28 20.4292C171.444 19.9393 170.756 19.5474 169.921 19.7433C170.904 19.1064 171.493 18.9595 172.132 17.8817C172.821 16.8038 173.312 16.6079 174.295 15.922C176.015 14.6482 175.18 13.8644 174.836 12.0517C174.541 10.239 175.229 8.86724 173.656 7.59347C171.641 5.92776 168.004 5.58482 165.743 6.71162C164.956 7.10356 163.727 7.59347 163.482 8.62229C163.285 9.55312 163.924 9.79808 164.317 10.5819C164.661 11.2678 165.054 12.5906 164.415 13.2275C164.022 13.5704 163.383 13.0805 162.99 13.6194C162.548 14.2073 163.187 14.3543 162.99 14.7462C162.646 15.5791 162.253 15.3341 161.614 15.971C160.876 16.7549 161.319 16.3139 161.221 17.0488C161.171 17.1958 161.761 17.3917 161.712 17.6367C161.663 17.9796 161.073 17.9796 161.024 18.1756C160.778 19.2044 159.943 20.8211 160.287 21.8989C160.778 23.3197 162.499 22.4868 163.727 23.0257C163.138 24.3485 165.546 24.4465 165.054 26.0632C164.809 26.8961 162.302 29.0517 164.858 29.1987C166.234 29.2966 167.709 27.386 168.544 26.5041C169.38 27.5819 170.363 27.7779 170.215 29.1987C170.019 30.9134 168.593 32.726 168.102 34.3917C167.168 37.3802 167.905 40.1727 168.741 43.1122C170.56 49.5301 176.015 54.6742 180.292 59.5733C180.537 59.8183 184.224 64.0805 184.273 64.0315C184.273 64.0315 182.651 65.3053 181.078 64.8154C179.505 64.3255 179.358 73.1929 174.787 62.0718C170.215 50.9508 161.368 48.1583 161.368 48.1583C149.915 42.9652 148.588 41.5935 151.341 39.3889C154.093 37.1353 160.532 25.7693 159.648 18.8125C158.763 11.8557 155.814 7.49549 141.314 1.61652C126.814 -4.26244 122.685 8.47531 122.685 8.47531C122.685 8.47531 120.473 8.08338 118.507 8.27935C116.541 8.47531 115.558 13.8154 115.558 13.8154L111.429 13.4724C111.429 13.4724 108.48 9.1122 104.548 14.7462C100.967 19.8763 94.4912 23.2918 98.6002 31.3156C98.6002 31.3156 93.584 39.5836 94.7172 45.7087C95.946 52.6165 103.073 49.824 104.597 50.9508C106.17 52.0776 112.265 54.3802 112.56 55.2131C113.641 58.1525 118.9 60.8471 119.097 63.5906C118.31 63.8845 117.573 64.1295 116.836 64.1785C112.658 64.6194 109.954 66.775 98.6002 64.9134C92.0629 63.8355 88.0324 61.6309 79.0375 60.5531C70.0426 59.4753 63.1612 60.2102 59.2782 57.5157C55.346 54.8211 49.6443 55.85 44.729 54.2822C39.8138 52.6655 36.7663 55.605 31.8019 56.4378C26.8375 57.2707 30.229 59.3283 33.3748 58.9364C36.4714 58.5445 38.9782 60.0632 43.5494 60.0142C48.1205 59.9652 47.9731 62.1698 46.5477 63.2966C45.1222 64.4234 42.6155 64.4724 42.9104 65.8442C43.2053 67.2159 46.007 65.8442 51.0697 65.6482C56.1324 65.4523 58.1968 64.7174 58.1968 64.7174C64.1934 63.8355 74.1222 69.5185 79.2833 71.0863C82.9697 72.2131 89.2612 73.6338 97.8138 75.2015C89.1138 76.3773 91.6206 79.6598 79.7748 75.4465C67.4375 71.0863 55.346 73.4868 42.5172 71.5272C29.6883 69.5675 27.6239 66.4321 20.6443 62.2678C13.6646 58.1036 7.66801 59.0834 2.85106 57.8586C-1.96589 56.6338 -0.147248 61.5819 5.21038 64.4234C10.5189 67.2649 11.8951 69.1266 11.8951 69.1266C11.8951 69.1266 7.61885 70.1554 8.65106 71.8211C9.73241 73.4868 14.0087 72.0171 14.0087 72.0171C14.0087 72.0171 17.5968 75.4955 21.6273 76.7693C25.6578 78.043 28.4104 76.1814 37.6511 79.7577C46.8917 83.3341 69.0595 89.8989 74.6138 91.9566C80.168 94.0142 81.2494 94.1612 86.1155 93.8672C90.9816 93.5733 103.663 93.6713 115.115 93.1324C116.737 93.0344 118.31 92.9364 119.834 92.7894C120.031 93.0834 120.276 93.3773 120.473 93.6713C121.554 95.288 122.734 96.8067 123.914 98.3745C124.454 99.0603 125.241 99.7952 125.487 100.579C125.388 100.285 125.536 102.735 125.929 102.098C125.388 103.029 125.732 103.029 125.978 103.812C127.06 107.928 122.095 104.988 121.554 107.977C121.112 110.328 123.766 109.789 124.995 110.23C124.995 111.112 124.012 111.161 123.619 111.896C122.685 113.513 124.454 114.346 124.946 115.619C125.536 117.04 124.995 118.216 126.715 119.196C128.043 119.931 129.96 120.959 131.434 120.959C133.597 120.959 134.776 119.049 136.349 118.02C137.922 116.991 138.954 117.285 140.38 118.02C141.904 118.755 145.246 118.657 144.902 120.568C144.656 121.743 140.724 126.3 143.427 127.034C143.526 126.936 143.526 126.789 143.624 126.74C145.541 127.622 147.605 129.386 149.817 129.484C151.783 129.582 151.243 128.063 152.619 127.328C153.897 126.642 157.288 128.455 158.271 127.622C156.797 129.582 155.568 131.493 155.076 134.04C156.551 134.775 158.222 137.421 159.943 136.882C161.86 136.294 161.958 133.011 163.875 132.081C163.973 132.178 164.219 132.325 164.268 132.423C164.612 131.689 164.317 130.807 164.76 130.121C165.202 130.317 165.743 130.415 166.185 130.415C166.185 130.072 166.431 129.631 166.431 129.337C168.299 130.366 170.805 130.023 172.034 132.081C173.066 133.844 171.395 133.648 170.658 135.02C170.166 135.951 170.805 137.225 171.346 138.008C172.722 139.87 173.656 139.037 175.524 139.576C176.654 139.87 177.048 140.752 178.276 140.703C179.702 140.654 180.095 139.968 180.882 139.037C182.11 137.519 182.897 135.853 185.01 136.441C188.254 137.323 191.351 138.743 194.644 139.282C196.315 139.527 198.036 139.478 199.707 139.576C201.132 139.674 202.509 140.213 203.934 140.066C207.129 139.674 210.029 138.841 213.076 140.605C219.909 144.573 231.017 158.536 241.241 167.697C251.465 176.859 270.831 188.764 276.827 192.585C282.824 196.406 284.151 192.781 289.754 193.32C295.358 193.859 309.366 190.821 323.178 192.83C336.99 194.838 349.966 194.3 360.337 195.23C370.709 196.112 385.553 197.876 407.917 201.844C430.282 205.812 457.119 202.53 474.814 203.608C492.312 204.539 494.77 204 492.066 201.648Z" fill="#0F1C7B"/>
</svg>
