<svg width="88" height="78" viewBox="0 0 88 78" fill="none" xmlns="http://www.w3.org/2000/svg">
<g clip-path="url(#clip0)">
<path d="M66.5773 11.4227C59.2111 4.05676 49.4173 0 39 0C31.1892 0 23.6523 2.301 17.2042 6.65453C10.9127 10.902 6.02702 16.8297 3.07506 23.7964C2.82887 24.3773 3.1002 25.0479 3.68123 25.2942C4.26212 25.5404 4.93274 25.269 5.17893 24.6881C10.9454 11.0787 24.221 2.28516 39 2.28516C48.807 2.28516 58.0268 6.10411 64.9614 13.0386C71.8959 19.9732 75.7148 29.193 75.7148 39C75.7148 48.807 71.8959 58.0268 64.9614 64.9614C58.0268 71.8959 48.807 75.7148 39 75.7148C29.193 75.7148 19.9732 71.8959 13.0386 64.9614C6.10411 58.0268 2.28516 48.807 2.28516 39C2.28516 35.6356 2.73975 32.3028 3.63675 29.0943C3.80646 28.4866 3.4515 27.8562 2.8438 27.6863C2.2358 27.5162 1.6057 27.8714 1.43584 28.4791C0.483082 31.888 0 35.4277 0 39C0 49.4173 4.05676 59.211 11.4227 66.5773C18.7889 73.9432 28.5827 78 39 78C49.4173 78 59.2111 73.9432 66.5773 66.5773C73.9432 59.211 78 49.4173 78 39C78 28.5827 73.9432 18.789 66.5773 11.4227Z" fill="#4665CB"/>
<path d="M61.9603 62.6813C62.4149 63.119 63.1383 63.1051 63.5758 62.6505C69.7224 56.2649 73.1073 47.8657 73.1073 39.0001C73.1073 29.8896 69.5595 21.3245 63.1175 14.8824C56.6755 8.44036 48.1105 4.89258 39 4.89258C29.8895 4.89258 21.3245 8.44036 14.8823 14.8824C8.4403 21.3245 4.89252 29.8896 4.89252 39.0001C4.89252 48.1105 8.4403 56.6756 14.8823 63.1177C21.3243 69.5598 29.8895 73.1075 39 73.1075C46.6323 73.1075 53.8483 70.6431 59.868 65.9806C60.3668 65.5941 60.4581 64.8764 60.0717 64.3776C59.6851 63.8787 58.9672 63.7876 58.4688 64.1739C52.8532 68.5234 46.121 70.8224 39 70.8224C21.453 70.8224 7.17767 56.5469 7.17767 39.0001C7.17767 21.4533 21.453 7.17773 39 7.17773C56.547 7.17773 70.8223 21.4533 70.8223 39.0001C70.8223 47.2717 67.6642 55.1081 61.9296 61.0658C61.4919 61.5204 61.5056 62.2438 61.9603 62.6813Z" fill="#4665CB"/>
<g clip-path="url(#clip1)">
<path d="M38.184 58.4146C38.184 59.0579 38.2752 59.7013 38.184 60.2987C38.0016 61.4016 37.3176 62.0909 36.1777 61.999C35.1745 61.9071 34.4906 61.2637 34.445 60.2068C34.3994 58.8741 34.3538 57.5415 34.445 56.2547C34.4906 55.2897 34.1258 54.8761 33.2594 54.4625C26.6022 51.4296 23 46.2368 23 38.9301C23 31.7153 26.6478 26.5225 33.1682 23.5355C34.0802 23.1219 34.445 22.6164 34.3994 21.6054C34.3082 20.4106 34.3538 19.2158 34.3994 17.975C34.3994 16.7802 35.0377 15.999 36.2233 15.999C37.4088 15.999 38.0928 16.7802 38.1384 17.975C38.184 18.9401 38.2296 19.951 38.1384 20.9161C38.0016 22.2487 38.7767 22.1568 39.6887 22.2028C40.7374 22.2947 41.1022 21.9271 41.011 20.8701C40.9198 19.9051 40.9654 18.8941 41.011 17.9291C41.1478 16.7343 41.8318 15.953 43.0629 15.999C44.2028 16.0449 44.8412 16.7802 44.8868 17.8831C44.978 19.5375 44.4308 21.5135 45.1604 22.7542C45.8899 23.995 47.8962 24.4545 49.2642 25.2817C49.9025 25.6493 50.4497 26.2008 50.9969 26.7063C51.9544 27.5794 52.4104 28.6364 51.4528 29.6933C50.4953 30.7502 49.4465 30.5205 48.489 29.6014C46.3915 27.6254 43.9292 26.4306 41.011 26.1089C35.1745 25.4655 29.6572 28.8661 27.6053 34.3806C25.5535 39.8951 27.423 46.0989 32.2107 49.5454C36.9528 52.946 43.4277 52.6703 47.8962 48.8561C48.1698 48.6264 48.3978 48.3966 48.6714 48.1668C49.5833 47.3856 50.5409 47.2937 51.4072 48.1668C52.2736 49.0859 52.1368 50.0509 51.316 50.9241C49.8113 52.4406 48.0786 53.6354 46.0723 54.4166C45.1604 54.7842 44.8412 55.2438 44.8868 56.1628C44.978 57.3117 44.8868 58.4605 44.8868 59.6094C44.8868 60.9421 44.3396 61.953 42.9261 61.9071C41.5126 61.8611 41.011 60.8501 41.011 59.5175C41.011 58.8282 41.011 58.1389 41.011 57.4495C41.011 55.7952 40.327 55.2897 38.7311 55.7033C38.3208 55.7952 38.184 56.025 38.184 56.3926C38.184 57.1279 38.184 57.7712 38.184 58.4146Z" fill="#4665CB"/>
</g>
</g>
<circle cx="73" cy="63" r="15" transform="rotate(-180 73 63)" fill="#4665CB"/>
<path fill-rule="evenodd" clip-rule="evenodd" d="M73 70.4165C72.4477 70.4165 72 69.9688 72 69.4165L72 56.5832C72 56.0309 72.4477 55.5832 73 55.5832C73.5523 55.5832 74 56.0309 74 56.5832L74 69.4165C74 69.9688 73.5523 70.4165 73 70.4165Z" fill="#2542A5"/>
<path fill-rule="evenodd" clip-rule="evenodd" d="M80.1239 63.7071C79.7333 64.0976 79.1002 64.0976 78.7096 63.7071L73.0001 57.9975L67.2905 63.7071C66.9 64.0976 66.2668 64.0976 65.8763 63.7071C65.4858 63.3166 65.4858 62.6834 65.8763 62.2929L72.293 55.8762C72.4805 55.6887 72.7349 55.5833 73.0001 55.5833C73.2653 55.5833 73.5197 55.6887 73.7072 55.8762L80.1239 62.2929C80.5144 62.6834 80.5144 63.3166 80.1239 63.7071Z" fill="#2542A5"/>
<defs>
<clipPath id="clip0">
<rect width="78" height="78" fill="white"/>
</clipPath>
<clipPath id="clip1">
<rect width="29" height="46" fill="white" transform="translate(23 16)"/>
</clipPath>
</defs>
</svg>
