<svg width="32" height="32" viewBox="0 0 32 32" fill="none" xmlns="http://www.w3.org/2000/svg">
<path fill-rule="evenodd" clip-rule="evenodd" d="M6.66699 9.33317C6.31337 9.33317 5.97423 9.47365 5.72418 9.72369C5.47413 9.97374 5.33366 10.3129 5.33366 10.6665V25.3332C5.33366 25.6868 5.47413 26.0259 5.72418 26.276C5.97423 26.526 6.31337 26.6665 6.66699 26.6665H21.3337C21.6873 26.6665 22.0264 26.526 22.2765 26.276C22.5265 26.0259 22.667 25.6868 22.667 25.3332V17.3332C22.667 16.5968 23.2639 15.9998 24.0003 15.9998C24.7367 15.9998 25.3337 16.5968 25.3337 17.3332V25.3332C25.3337 26.394 24.9122 27.4115 24.1621 28.1616C23.4119 28.9117 22.3945 29.3332 21.3337 29.3332H6.66699C5.60613 29.3332 4.58871 28.9117 3.83856 28.1616C3.08842 27.4115 2.66699 26.394 2.66699 25.3332V10.6665C2.66699 9.60564 3.08842 8.58822 3.83856 7.83808C4.58871 7.08793 5.60613 6.6665 6.66699 6.6665H14.667C15.4034 6.6665 16.0003 7.26346 16.0003 7.99984C16.0003 8.73622 15.4034 9.33317 14.667 9.33317H6.66699Z" fill="white"/>
<path fill-rule="evenodd" clip-rule="evenodd" d="M18.667 3.99984C18.667 3.26346 19.2639 2.6665 20.0003 2.6665H28.0003C28.7367 2.6665 29.3337 3.26346 29.3337 3.99984V11.9998C29.3337 12.7362 28.7367 13.3332 28.0003 13.3332C27.2639 13.3332 26.667 12.7362 26.667 11.9998V5.33317H20.0003C19.2639 5.33317 18.667 4.73622 18.667 3.99984Z" fill="white"/>
<path fill-rule="evenodd" clip-rule="evenodd" d="M28.9428 3.05703C29.4635 3.57773 29.4635 4.42195 28.9428 4.94265L14.2761 19.6093C13.7554 20.13 12.9112 20.13 12.3905 19.6093C11.8698 19.0886 11.8698 18.2444 12.3905 17.7237L27.0572 3.05703C27.5779 2.53633 28.4221 2.53633 28.9428 3.05703Z" fill="white"/>
</svg>
