<svg width="1781" height="1964" viewBox="0 0 1781 1964" fill="none" xmlns="http://www.w3.org/2000/svg">
<g opacity="0.54">
<path opacity="0.54" d="M495.818 1943.52C547.418 1982.66 627.134 1958.7 667.679 1908.23C708.224 1857.77 718.562 1789.79 722.237 1725.14C725.942 1660.48 724.806 1594 747.604 1533.41C794.812 1408.01 928.966 1341.44 1052.78 1290.2C1176.6 1238.96 1312.37 1181.95 1373.14 1062.52C1420.8 968.884 1410.91 857.467 1431.52 754.446C1467.5 574.608 1605.83 418.911 1780.23 362.082" stroke="url(#paint0_linear)" stroke-width="0.8669" stroke-miterlimit="10"/>
<path opacity="0.54" d="M479.862 1936.38C531.373 1975.52 610.909 1952.09 651.903 1902.17C655.578 1897.72 658.984 1893.08 662.211 1888.36C694.838 1840.14 704.369 1778.86 708.373 1720.21C709.15 1708.88 709.777 1697.5 710.405 1686.12C713.333 1632.66 716.38 1578.85 735.413 1529.07C741.598 1512.94 749.187 1497.76 758.031 1483.48C817.638 1387.09 933.268 1331.28 1041.31 1287.57C1049.17 1284.4 1057.05 1281.2 1064.97 1277.98C1182.19 1230.2 1303.67 1174.45 1363.97 1066.23C1381.21 1035.27 1393.04 1002.38 1400.39 967.27C1409.08 925.828 1411.5 882.236 1414.34 839.48C1416.28 810.288 1418.46 781.336 1422.98 752.862C1425.1 739.476 1427.79 726.18 1431.07 713.004C1451.96 629.105 1497.19 550.614 1557.94 487.69C1618.83 424.617 1694.99 376.841 1778.59 350.429" stroke="url(#paint1_linear)" stroke-width="0.8669" stroke-miterlimit="10"/>
<path opacity="0.54" d="M463.907 1929.27C515.358 1968.44 594.685 1945.55 636.127 1896.16C639.831 1891.74 643.297 1887.17 646.554 1882.48C679.6 1834.7 689.818 1773.75 694.509 1715.28C695.405 1703.98 696.152 1692.66 696.899 1681.31C700.395 1628.03 703.921 1574.34 723.192 1524.74C729.437 1508.67 737.086 1493.52 745.99 1479.27C805.986 1383.09 921.585 1327.72 1029.81 1284.91C1037.66 1281.8 1045.58 1278.66 1053.5 1275.53C1170.86 1228.86 1291.27 1174.48 1354.73 1069.84C1373.29 1039.28 1387.42 1006.89 1395.76 971.064C1405.62 928.727 1407.35 883.52 1408.87 839.778C1409.92 809.93 1410.94 780.41 1414.4 751.278C1416.04 737.564 1418.26 723.969 1421.15 710.405C1439.56 624.086 1485.72 542.219 1548.59 477.741C1611.57 413.114 1690.72 365.249 1776.98 338.836" stroke="url(#paint2_linear)" stroke-width="0.8669" stroke-miterlimit="10"/>
<path opacity="0.54" d="M447.922 1922.13C499.283 1961.3 578.431 1938.98 620.291 1890.1C624.026 1885.73 627.552 1881.22 630.838 1876.56C664.332 1829.2 675.238 1768.61 680.586 1710.32C681.602 1699.08 682.498 1687.76 683.365 1676.46C687.428 1623.37 691.432 1569.83 710.943 1520.38C717.247 1504.36 724.956 1489.28 733.889 1475.05C794.244 1379.11 909.814 1324.17 1018.24 1282.25C1026.13 1279.2 1034.05 1276.15 1041.97 1273.08C1159.51 1227.51 1278.93 1174.48 1345.47 1073.49C1365.37 1043.28 1381.74 1011.43 1391.07 974.859C1402.12 931.625 1403.14 884.805 1403.32 840.077C1403.47 809.541 1403.29 779.483 1405.74 749.694C1406.87 735.681 1408.63 721.728 1411.14 707.805C1427.07 619.066 1474.13 533.823 1539.11 467.791C1604.22 401.61 1686.33 353.655 1775.24 327.213" stroke="url(#paint3_linear)" stroke-width="0.8669" stroke-miterlimit="10"/>
<path opacity="0.54" d="M431.967 1914.99C483.268 1954.16 562.207 1932.37 604.515 1884.06C608.31 1879.73 611.835 1875.28 615.182 1870.68C649.124 1823.77 660.687 1763.5 666.692 1705.39C667.858 1694.18 668.844 1682.92 669.83 1671.65C674.461 1618.74 678.972 1565.32 698.692 1516.02C705.086 1500.06 712.825 1485 721.818 1470.84C782.531 1375.11 898.101 1320.64 1006.71 1279.56C1014.6 1276.57 1022.54 1273.58 1030.49 1270.6C1148.18 1226.14 1266.83 1174.48 1336.24 1077.1C1357.51 1047.28 1376.13 1015.91 1386.41 978.624C1398.66 934.463 1398.95 886.06 1397.82 840.346C1397.04 809.153 1395.73 778.528 1397.13 748.051C1397.79 733.74 1399.1 719.428 1401.19 705.116C1414.61 613.957 1462.62 525.337 1529.7 457.752C1596.9 390.018 1681.99 341.973 1773.57 315.501" stroke="url(#paint4_linear)" stroke-width="0.8669" stroke-miterlimit="10"/>
<path opacity="0.54" d="M416.012 1907.84C467.223 1947.04 546.013 1925.8 588.739 1878.03C592.563 1873.75 596.149 1869.33 599.525 1864.76C633.915 1818.3 646.136 1758.36 652.828 1700.43C654.113 1689.25 655.219 1678.02 656.324 1666.78C661.523 1614.05 666.513 1560.75 686.472 1511.63C692.925 1495.73 700.753 1480.73 709.777 1466.57C770.878 1371.05 886.388 1317.03 995.206 1276.84C1003.12 1273.91 1011.04 1271.01 1019.02 1268.09C1136.86 1224.73 1254.88 1174.48 1327.04 1080.69C1349.71 1051.2 1370.51 1020.39 1381.8 982.388C1395.22 937.332 1394.83 887.315 1392.38 840.585C1390.71 808.705 1388.23 777.512 1388.59 746.408C1388.76 731.768 1389.6 717.157 1391.3 702.457C1402.24 608.878 1451.15 516.882 1520.35 447.743C1589.67 378.485 1677.72 330.321 1771.96 303.818" stroke="url(#paint5_linear)" stroke-width="0.8669" stroke-miterlimit="10"/>
<path opacity="0.54" d="M400.057 1900.73C451.209 1939.93 529.789 1919.26 572.964 1871.99C576.818 1867.78 580.463 1863.38 583.869 1858.87C618.678 1812.83 631.615 1753.25 638.935 1695.53C640.34 1684.38 641.595 1673.21 642.82 1662C648.556 1609.45 654.054 1556.29 674.252 1507.32C680.795 1491.49 688.653 1476.52 697.736 1462.42C759.196 1367.1 874.706 1313.53 983.703 1274.24C991.621 1271.37 999.568 1268.53 1007.55 1265.7C1125.54 1223.45 1243.08 1174.6 1317.8 1084.39C1341.92 1055.26 1364.89 1025 1377.14 986.243C1391.75 940.29 1390.65 888.66 1386.85 840.944C1384.28 808.406 1380.64 776.645 1379.95 744.884C1379.62 729.945 1380.01 714.976 1381.33 699.887C1389.78 603.888 1439.62 508.516 1510.91 437.824C1582.32 367.012 1673.36 318.758 1770.25 292.226" stroke="url(#paint6_linear)" stroke-width="0.8669" stroke-miterlimit="10"/>
<path opacity="0.54" d="M384.072 1893.59C435.134 1932.82 513.535 1912.65 557.128 1865.95C561.012 1861.77 564.687 1857.44 568.153 1852.96C603.41 1807.36 617.004 1748.11 625.012 1690.57C626.536 1679.48 627.91 1668.31 629.254 1657.16C635.559 1604.76 641.564 1551.75 661.971 1502.96C668.575 1487.18 676.492 1472.25 685.635 1458.2C747.454 1363.1 862.934 1309.98 972.14 1271.58C980.088 1268.8 988.035 1266.02 996.013 1263.25C1114.15 1222.1 1231.37 1174.75 1308.54 1088.04C1334.15 1059.27 1359.22 1029.54 1372.48 990.037C1388.29 943.188 1386.46 889.944 1381.36 841.242C1377.89 808.017 1373.08 775.719 1371.35 743.271C1370.54 728.003 1370.45 712.735 1371.38 697.258C1377.32 598.838 1428.09 500.09 1501.5 427.844C1575.03 355.478 1669.03 307.135 1768.58 280.603" stroke="url(#paint7_linear)" stroke-width="0.8669" stroke-miterlimit="10"/>
<path opacity="0.54" d="M368.117 1886.45C419.09 1925.68 497.312 1906.08 541.352 1859.89C545.296 1855.77 549.001 1851.46 552.497 1847.04C588.202 1801.86 602.484 1743 611.149 1685.61C612.822 1674.55 614.316 1663.44 615.78 1652.32C622.652 1600.1 629.135 1547.21 649.781 1498.6C656.444 1482.85 664.422 1468 673.595 1453.96C735.802 1359.1 851.252 1306.39 960.637 1268.89C968.585 1266.17 976.562 1263.45 984.57 1260.77C1102.86 1220.76 1219.83 1174.89 1299.34 1091.65C1326.47 1063.24 1353.63 1034.02 1367.85 993.831C1384.82 946.085 1382.31 891.229 1375.89 841.541C1371.53 807.658 1365.52 774.792 1362.74 741.687C1361.46 726.12 1360.89 710.494 1361.43 694.658C1364.89 593.818 1416.58 491.723 1492.09 417.894C1567.71 343.974 1664.72 295.542 1766.91 268.98" stroke="url(#paint8_linear)" stroke-width="0.8669" stroke-miterlimit="10"/>
<path opacity="0.54" d="M352.162 1879.31C403.075 1918.57 481.087 1899.48 525.576 1853.85C529.55 1849.76 533.315 1845.52 536.841 1841.16C572.964 1796.43 587.933 1737.9 597.255 1680.68C599.048 1669.65 600.661 1658.57 602.245 1647.48C609.684 1595.44 616.646 1542.7 637.531 1494.24C644.284 1478.55 652.291 1463.73 661.523 1449.75C724.089 1355.09 839.509 1302.84 949.104 1266.2C957.051 1263.55 965.059 1260.92 973.066 1258.29C1091.5 1219.38 1208.39 1175.1 1290.08 1095.27C1318.76 1067.24 1347.98 1038.53 1363.19 997.597C1381.36 948.955 1378.16 892.484 1370.39 841.781C1365.1 807.211 1357.96 773.807 1354.14 740.014C1352.34 724.149 1351.33 708.164 1351.48 691.94C1352.43 588.68 1405.05 483.209 1482.67 407.826C1560.39 332.353 1660.39 283.8 1765.23 257.238" stroke="url(#paint9_linear)" stroke-width="0.8669" stroke-miterlimit="10"/>
<path opacity="0.54" d="M336.206 1872.2C387.03 1911.46 464.863 1892.93 509.77 1847.85C513.774 1843.81 517.569 1839.63 521.154 1835.27C557.725 1790.96 573.382 1732.79 583.361 1675.75C585.273 1664.78 587.006 1653.73 588.709 1642.67C596.687 1590.8 604.186 1538.19 625.281 1489.9C632.093 1474.28 640.16 1459.52 649.452 1445.56C712.376 1351.12 827.767 1299.31 937.57 1263.58C945.548 1260.98 953.555 1258.41 961.563 1255.87C1080.15 1218.07 1197.06 1175.43 1280.84 1098.94C1311.11 1071.31 1342.33 1043.1 1358.53 1001.42C1377.89 951.883 1373.98 893.799 1364.86 842.109C1358.68 806.853 1350.37 772.911 1345.5 738.461C1343.23 722.267 1341.74 705.983 1341.5 689.371C1339.97 583.69 1393.52 474.843 1473.26 397.906C1553.1 320.879 1656.06 272.237 1763.56 245.646" stroke="url(#paint10_linear)" stroke-width="0.8669" stroke-miterlimit="10"/>
<path opacity="0.54" d="M320.222 1865.06C370.985 1904.35 448.639 1886.36 493.965 1841.78C498.029 1837.81 501.853 1833.66 505.468 1829.35C542.488 1785.49 558.801 1727.65 569.438 1670.82C571.47 1659.88 573.352 1648.86 575.175 1637.86C583.72 1586.17 591.698 1533.68 613.031 1485.54C619.933 1469.97 628.03 1455.24 637.382 1441.32C700.694 1347.08 816.055 1295.75 926.038 1260.89C934.015 1258.35 942.053 1255.87 950.09 1253.39C1068.83 1216.7 1185.83 1175.79 1271.61 1102.56C1303.49 1075.34 1336.72 1047.61 1353.9 1005.22C1374.42 954.78 1369.82 895.083 1359.39 842.408C1352.31 806.494 1342.84 771.984 1336.93 736.877C1334.15 720.384 1332.21 703.742 1331.58 686.741C1327.57 578.64 1382.04 466.417 1463.88 387.926C1545.81 309.346 1651.76 260.614 1761.92 233.992" stroke="url(#paint11_linear)" stroke-width="0.8669" stroke-miterlimit="10"/>
<path opacity="0.54" d="M304.266 1857.92C354.94 1897.21 432.415 1879.76 478.189 1835.75C482.282 1831.8 486.167 1827.71 489.842 1823.44C527.309 1780.02 544.31 1722.51 555.604 1665.86C557.785 1654.95 559.757 1643.99 561.699 1633.02C570.812 1581.51 579.268 1529.16 600.84 1481.18C607.802 1465.67 615.989 1450.97 625.37 1437.11C689.041 1343.08 804.372 1292.2 914.564 1258.23C922.571 1255.75 930.609 1253.33 938.646 1250.94C1057.56 1215.35 1174.75 1176.27 1262.44 1106.2C1295.96 1079.4 1331.13 1052.12 1349.3 1009.01C1371.02 957.679 1365.7 896.368 1353.96 842.677C1345.98 806.076 1335.31 770.998 1328.38 735.234C1325.12 718.412 1322.7 701.441 1321.69 684.082C1315.17 573.561 1370.57 457.962 1454.53 377.917C1538.58 297.783 1647.48 248.962 1760.3 222.34" stroke="url(#paint12_linear)" stroke-width="0.8669" stroke-miterlimit="10"/>
<path opacity="0.54" d="M288.311 1850.78C338.925 1890.1 416.191 1873.18 462.413 1829.68C466.536 1825.8 470.45 1821.73 474.185 1817.52C512.071 1774.53 529.759 1717.37 541.71 1660.9C544.011 1650.02 546.132 1639.12 548.164 1628.18C557.845 1576.85 566.808 1524.62 588.59 1476.82C595.611 1461.37 603.858 1446.73 613.299 1432.9C677.329 1339.11 792.66 1288.64 903.031 1255.57C911.038 1253.18 919.105 1250.82 927.143 1248.49C1046.21 1214.01 1163.63 1176.81 1253.18 1109.82C1288.37 1083.5 1325.48 1056.64 1344.63 1012.77C1367.55 960.547 1361.52 897.622 1348.43 842.945C1339.53 805.686 1327.72 770.041 1319.75 733.62C1316.01 716.499 1313.11 699.2 1311.71 681.452C1302.72 568.511 1359.04 449.535 1445.09 367.937C1531.23 286.249 1643.12 237.338 1758.6 210.687" stroke="url(#paint13_linear)" stroke-width="0.8669" stroke-miterlimit="10"/>
<path opacity="0.54" d="M272.356 1843.67C322.881 1882.99 399.967 1866.64 446.608 1823.68C450.761 1819.85 454.735 1815.82 458.499 1811.67C496.833 1769.12 515.209 1712.29 527.817 1656C530.238 1645.18 532.478 1634.28 534.66 1623.37C544.878 1572.19 554.349 1520.11 576.37 1472.49C583.481 1457.1 591.757 1442.49 601.229 1428.68C665.617 1335.1 780.918 1285.09 891.498 1252.88C899.535 1250.55 907.603 1248.25 915.64 1246.01C1034.86 1212.63 1152.61 1177.38 1243.94 1113.44C1280.84 1087.59 1319.84 1061.15 1339.97 1016.57C1364.06 963.446 1357.33 898.938 1342.93 843.245C1333.13 805.299 1320.16 769.116 1311.14 732.007C1306.9 714.558 1303.58 696.93 1301.76 678.793C1290.29 563.433 1347.5 441.08 1435.67 357.929C1523.94 274.687 1638.79 225.686 1756.93 199.005" stroke="url(#paint14_linear)" stroke-width="0.8669" stroke-miterlimit="10"/>
<path opacity="0.54" d="M256.401 1836.52C306.866 1875.87 383.743 1860.04 430.832 1817.64C435.044 1813.85 439.048 1809.87 442.843 1805.75C481.625 1763.62 500.658 1707.15 513.953 1651.07C516.493 1640.28 518.854 1629.44 521.154 1618.56C531.94 1567.56 541.89 1515.63 564.149 1468.15C571.32 1452.82 579.656 1438.27 589.188 1424.5C653.964 1331.13 769.235 1281.56 879.995 1250.25C888.032 1247.98 896.099 1245.77 904.196 1243.59C1023.56 1211.32 1141.7 1178.12 1234.74 1117.11C1273.34 1091.8 1314.25 1065.72 1335.37 1020.39C1360.65 966.373 1353.21 900.252 1337.49 843.572C1326.8 804.969 1312.66 768.219 1302.6 730.452C1297.87 712.705 1294.08 694.748 1291.87 676.223C1277.89 558.442 1336.06 432.713 1426.32 348.008C1516.67 263.213 1634.52 214.123 1755.31 187.411" stroke="url(#paint15_linear)" stroke-width="0.8669" stroke-miterlimit="10"/>
<path opacity="0.54" d="M240.416 1829.38C290.791 1868.73 367.519 1853.46 415.026 1811.58C419.268 1807.84 423.302 1803.93 427.156 1799.83C466.387 1758.15 486.077 1702.01 500.03 1646.11C502.719 1635.35 505.199 1624.54 507.619 1613.72C518.973 1562.9 529.43 1511.09 551.899 1463.79C559.159 1448.52 567.525 1434 577.116 1420.29C642.251 1327.13 757.493 1278.01 868.461 1247.59C876.528 1245.38 884.596 1243.23 892.693 1241.14C1012.21 1209.97 1130.73 1178.87 1225.51 1120.75C1265.84 1096.02 1308.6 1070.23 1330.71 1024.19C1357.18 969.271 1349.03 901.537 1332 843.841C1320.4 804.551 1305.08 767.263 1293.99 728.839C1288.76 710.793 1284.52 692.477 1281.92 673.594C1265.46 553.393 1324.53 424.288 1416.91 338.029C1509.38 251.68 1630.18 202.5 1753.64 175.759" stroke="url(#paint16_linear)" stroke-width="0.8669" stroke-miterlimit="10"/>
<path opacity="0.54" d="M224.461 1822.27C274.777 1861.62 351.295 1846.92 399.22 1805.57C403.493 1801.87 407.586 1798.01 411.471 1793.95C451.119 1752.71 471.526 1696.9 486.137 1641.18C488.945 1630.45 491.545 1619.7 494.085 1608.91C506.006 1558.27 516.942 1506.58 539.649 1459.43C546.969 1444.22 555.395 1429.73 565.046 1416.04C630.539 1323.09 745.751 1274.42 856.929 1244.9C864.996 1242.75 873.093 1240.66 881.19 1238.66C1000.85 1208.6 1119.83 1179.71 1216.25 1124.37C1258.35 1100.23 1302.95 1074.74 1326.02 1027.98C1353.66 972.17 1344.81 902.822 1326.44 844.141C1313.95 804.193 1297.46 766.337 1285.33 727.226C1279.62 708.851 1274.9 690.207 1271.91 670.935C1252.94 548.314 1312.96 415.833 1407.44 328.02C1502 240.117 1625.79 190.848 1751.91 164.107" stroke="url(#paint17_linear)" stroke-width="0.8669" stroke-miterlimit="10"/>
<path opacity="0.54" d="M208.506 1815.13C258.732 1854.51 335.071 1840.32 383.444 1799.5C387.777 1795.86 391.9 1792.03 395.814 1788.03C435.911 1747.22 456.975 1691.76 472.243 1636.22C475.171 1625.55 477.92 1614.8 480.549 1604.07C493.038 1553.6 504.452 1502.06 527.399 1455.07C534.779 1439.92 543.294 1425.49 552.975 1411.83C618.857 1319.12 734.038 1270.86 845.395 1242.24C853.492 1240.15 861.589 1238.15 869.686 1236.21C989.499 1207.25 1108.92 1180.6 1207.01 1128.02C1250.88 1104.5 1297.31 1079.28 1321.39 1031.78C1350.22 975.068 1340.69 904.106 1320.97 844.439C1307.56 803.804 1289.93 765.38 1276.75 725.642C1270.57 706.968 1265.37 687.995 1261.99 668.335C1240.54 543.264 1301.46 407.436 1398.09 318.07C1494.74 228.614 1621.52 179.255 1750.29 152.483" stroke="url(#paint18_linear)" stroke-width="0.8669" stroke-miterlimit="10"/>
<path opacity="0.54" d="M192.551 1807.99C242.717 1847.37 318.847 1833.75 367.669 1793.47C372.031 1789.88 376.184 1786.09 380.158 1782.15C420.703 1741.78 442.455 1686.65 458.38 1631.29C461.428 1620.65 464.296 1609.96 467.075 1599.23C480.102 1548.94 492.053 1497.52 515.239 1450.7C522.708 1435.61 531.254 1421.21 540.964 1407.62C607.205 1315.11 722.356 1267.34 833.922 1239.55C842.019 1237.55 850.146 1235.58 858.273 1233.7C978.235 1205.85 1098.11 1181.53 1197.84 1131.6C1243.47 1108.74 1291.75 1083.77 1316.79 1035.51C1346.82 977.907 1336.57 905.332 1315.53 844.678C1301.22 803.357 1282.43 764.395 1268.18 723.999C1261.48 704.997 1255.84 685.695 1252.07 665.647C1228.14 538.155 1289.99 398.952 1388.71 308.031C1487.48 217.022 1617.22 167.543 1748.65 140.772" stroke="url(#paint19_linear)" stroke-width="0.8669" stroke-miterlimit="10"/>
<path opacity="0.54" d="M176.566 1800.85C226.642 1840.26 302.593 1827.17 351.863 1787.43C356.255 1783.88 360.468 1780.14 364.472 1776.23C405.435 1736.28 427.874 1681.51 444.486 1626.36C447.683 1615.75 450.641 1605.09 453.539 1594.42C467.134 1544.31 479.564 1493.01 502.988 1446.37C510.518 1431.34 519.123 1417 528.893 1403.44C595.492 1311.14 710.644 1263.81 822.389 1236.92C830.516 1234.98 838.643 1233.1 846.77 1231.28C966.881 1204.56 1087.2 1182.6 1188.58 1135.28C1235.97 1113.14 1286.07 1088.31 1312.13 1039.37C1343.32 980.864 1332.38 906.676 1310.01 845.007C1294.8 803.028 1274.84 763.498 1259.54 722.416C1252.37 703.114 1246.24 683.454 1242.09 663.047C1215.65 533.135 1278.42 390.555 1379.26 298.081C1480.13 205.518 1612.88 155.949 1746.95 129.149" stroke="url(#paint20_linear)" stroke-width="0.8669" stroke-miterlimit="10"/>
<path opacity="0.54" d="M160.611 1793.74C210.627 1833.15 286.399 1820.6 336.057 1781.4C340.479 1777.9 344.752 1774.2 348.785 1770.34C390.197 1730.84 413.323 1676.41 430.562 1621.43C433.879 1610.85 436.986 1600.25 440.004 1589.61C454.166 1539.65 467.074 1488.53 490.738 1442.04C498.357 1427.07 506.992 1412.76 516.822 1399.22C583.809 1307.14 698.901 1260.26 810.856 1234.26C818.983 1232.38 827.139 1230.56 835.266 1228.83C955.557 1203.22 1076.33 1183.71 1179.35 1138.92C1228.53 1117.53 1280.46 1092.85 1307.47 1043.16C1339.85 983.763 1328.2 907.961 1304.51 845.306C1288.4 802.64 1267.25 762.573 1250.94 720.832C1243.29 701.232 1236.68 681.243 1232.14 660.448C1203.22 528.116 1266.92 382.19 1369.85 288.132C1472.84 194.015 1608.55 144.357 1745.27 117.526" stroke="url(#paint21_linear)" stroke-width="0.8669" stroke-miterlimit="10"/>
<path opacity="0.54" d="M144.656 1786.6C194.583 1826.04 270.175 1814.03 320.282 1775.36C324.763 1771.9 329.036 1768.25 333.129 1764.43C374.989 1725.38 398.772 1671.27 416.699 1616.47C420.135 1605.95 423.362 1595.35 426.499 1584.77C441.23 1534.99 454.615 1483.99 478.518 1437.68C486.197 1422.77 494.891 1408.49 504.781 1395.01C572.127 1303.13 687.219 1256.7 799.353 1231.61C807.51 1229.78 815.667 1228.05 823.793 1226.38C944.234 1201.88 1065.45 1184.91 1170.11 1142.57C1221.06 1121.95 1274.81 1097.39 1302.83 1046.96C1336.42 986.632 1324.05 909.246 1299.04 845.605C1282.01 802.281 1259.72 761.647 1242.36 719.219C1234.2 699.29 1227.15 678.973 1222.22 657.789C1190.82 523.037 1255.42 373.735 1360.47 278.124C1465.55 182.453 1604.25 132.705 1743.63 105.874" stroke="url(#paint22_linear)" stroke-width="0.8669" stroke-miterlimit="10"/>
<path opacity="0.54" d="M128.701 1779.46C178.568 1818.9 253.951 1807.45 304.506 1769.3C309.017 1765.89 313.35 1762.31 317.473 1758.51C359.781 1719.88 384.251 1666.13 402.806 1611.51C406.361 1601.02 409.737 1590.48 412.964 1579.93C428.232 1530.33 442.156 1479.45 466.268 1433.31C474.036 1418.46 482.76 1404.24 492.71 1390.8C560.415 1299.16 675.477 1253.15 787.82 1228.95C795.976 1227.18 804.163 1225.51 812.32 1223.93C932.909 1200.53 1054.54 1186.1 1160.91 1146.21C1213.65 1126.43 1269.22 1101.9 1298.2 1050.78C1332.95 989.559 1319.9 910.561 1293.57 845.904C1275.65 801.893 1252.19 760.72 1233.79 717.635C1225.15 697.408 1217.65 676.762 1212.3 655.19C1178.39 518.017 1243.94 365.338 1351.09 268.174C1458.29 170.979 1599.95 121.112 1741.99 94.2511" stroke="url(#paint23_linear)" stroke-width="0.8669" stroke-miterlimit="10"/>
<path opacity="0.54" d="M112.715 1772.32C162.493 1811.78 237.697 1800.85 288.67 1763.26C293.211 1759.92 297.603 1756.36 301.756 1752.62C344.483 1714.44 369.64 1661.02 388.882 1606.61C392.557 1596.15 396.053 1585.63 399.429 1575.12C415.265 1525.7 429.666 1474.96 454.017 1428.95C461.845 1414.16 470.629 1399.97 480.639 1386.55C548.732 1295.13 663.734 1249.56 776.286 1226.26C784.473 1224.55 792.66 1222.97 800.816 1221.45C921.555 1199.16 1043.61 1187.35 1151.65 1149.8C1206.15 1130.85 1263.57 1106.38 1293.54 1054.51C1329.49 992.397 1315.71 911.785 1288.04 846.142C1269.22 801.474 1244.6 759.734 1225.15 715.992C1216.01 695.435 1208.06 674.461 1202.32 652.5C1165.93 512.908 1232.38 356.852 1341.65 258.134C1450.94 159.386 1595.58 109.429 1740.29 82.5382" stroke="url(#paint24_linear)" stroke-width="0.8669" stroke-miterlimit="10"/>
<path opacity="0.54" d="M96.7606 1765.2C146.478 1804.67 221.473 1794.31 272.894 1757.23C277.495 1753.91 281.888 1750.41 286.13 1746.71C329.305 1708.94 355.15 1655.88 375.049 1601.65C378.873 1591.25 382.459 1580.76 385.954 1570.28C402.358 1521.04 417.237 1470.42 441.827 1424.59C449.715 1409.86 458.589 1395.73 468.598 1382.34C537.05 1291.12 652.052 1246.01 764.783 1223.57C772.97 1221.92 781.157 1220.4 789.344 1218.97C910.232 1197.78 1032.67 1188.64 1142.45 1153.41C1198.74 1135.37 1257.96 1110.9 1288.91 1058.28C1326.05 995.266 1311.56 913.041 1282.58 846.412C1262.86 801.056 1237.04 758.748 1216.58 714.349C1206.95 693.494 1198.53 672.16 1192.4 649.841C1153.5 507.829 1220.91 348.397 1332.3 248.095C1443.68 147.793 1591.31 97.7467 1738.67 70.8262" stroke="url(#paint25_linear)" stroke-width="0.8669" stroke-miterlimit="10"/>
<path opacity="0.54" d="M80.8053 1758.06C130.433 1797.56 205.279 1787.7 257.118 1751.19C261.749 1747.93 266.201 1744.47 270.474 1740.82C314.096 1703.5 340.599 1650.77 361.155 1596.72C365.099 1586.35 368.834 1575.89 372.419 1565.47C389.39 1516.41 404.777 1465.91 429.577 1420.26C437.554 1405.59 446.458 1391.48 456.527 1378.16C525.337 1287.15 640.309 1242.48 753.25 1220.94C761.467 1219.38 769.653 1217.92 777.87 1216.55C898.908 1196.47 1021.71 1190.01 1133.21 1157.09C1191.27 1139.94 1252.34 1115.47 1284.28 1062.13C1322.58 998.223 1307.41 914.385 1277.11 846.77C1256.49 800.757 1229.51 757.881 1208 712.824C1197.9 691.67 1189 670.009 1182.48 647.301C1141.1 502.868 1209.43 340.06 1322.91 238.205C1436.42 136.349 1587.01 86.2131 1737.03 59.2628" stroke="url(#paint26_linear)" stroke-width="0.8669" stroke-miterlimit="10"/>
<path opacity="0.54" d="M64.8507 1750.92C114.419 1790.42 189.055 1781.13 241.343 1745.16C246.004 1741.93 250.515 1738.52 254.818 1734.94C298.859 1698.04 326.048 1645.66 347.292 1591.79C351.355 1581.45 355.21 1571.05 358.944 1560.66C376.483 1511.78 392.349 1461.43 417.387 1415.93C425.424 1401.31 434.388 1387.24 444.516 1373.95C513.685 1283.15 628.657 1238.96 741.777 1218.28C749.994 1216.79 758.21 1215.38 766.427 1214.1C887.614 1195.12 1010.74 1191.42 1124.04 1160.73C1183.86 1144.54 1246.75 1119.98 1279.68 1065.93C1319.18 1001.12 1303.31 915.67 1271.64 847.039C1250.1 800.339 1221.98 756.926 1199.43 711.212C1188.82 689.729 1179.47 667.739 1172.57 644.643C1128.7 497.79 1197.93 331.606 1313.53 228.196C1429.13 124.787 1582.71 74.5614 1735.39 47.5811" stroke="url(#paint27_linear)" stroke-width="0.8669" stroke-miterlimit="10"/>
<path opacity="0.54" d="M48.8654 1743.78C98.3441 1783.31 172.801 1774.56 225.507 1739.09C230.198 1735.92 234.739 1732.55 239.102 1728.99C283.591 1692.54 311.467 1640.49 333.338 1586.8C337.521 1576.49 341.525 1566.12 345.349 1555.79C363.426 1507.05 379.799 1456.86 405.076 1411.53C413.203 1396.98 422.197 1382.97 432.385 1369.7C501.942 1279.14 616.855 1235.37 730.184 1215.59C738.431 1214.16 746.647 1212.84 754.864 1211.62C876.2 1193.75 999.628 1192.82 1114.72 1164.35C1176.3 1149.11 1241.05 1124.49 1274.96 1069.69C1315.65 1003.99 1299.07 916.924 1266.08 847.307C1243.65 799.92 1214.36 755.969 1190.76 709.568C1179.68 687.786 1169.85 665.437 1162.56 641.983C1116.18 492.71 1186.37 323.15 1304.06 218.186C1421.78 113.223 1578.31 62.9081 1733.65 35.9278" stroke="url(#paint28_linear)" stroke-width="0.8669" stroke-miterlimit="10"/>
<path opacity="0.54" d="M32.91 1736.67C82.329 1776.2 156.577 1767.98 209.731 1733.09C214.481 1729.98 219.053 1726.63 223.445 1723.14C268.382 1687.13 296.916 1635.41 319.474 1581.93C323.807 1571.68 327.9 1561.34 331.874 1551.01C350.518 1502.45 367.399 1452.38 392.886 1407.23C401.072 1392.74 410.126 1378.76 420.374 1365.55C490.29 1275.2 605.202 1231.87 718.71 1212.99C726.957 1211.62 735.203 1210.36 743.42 1209.23C864.906 1192.46 988.603 1194.35 1105.55 1168.05C1168.86 1153.83 1235.46 1129.09 1270.36 1073.58C1312.22 1006.98 1294.95 918.3 1260.65 847.697C1237.31 799.652 1206.86 755.133 1182.19 708.075C1170.62 685.965 1160.31 663.317 1152.64 639.474C1103.78 487.781 1174.87 314.844 1294.68 208.327C1414.49 101.811 1574.01 51.4057 1732.01 24.3956" stroke="url(#paint29_linear)" stroke-width="0.8669" stroke-miterlimit="10"/>
<path opacity="0.54" d="M16.9553 1729.53C66.2847 1769.06 140.353 1761.41 193.955 1727.02C198.736 1723.94 203.367 1720.69 207.789 1717.19C253.175 1681.6 282.396 1630.24 305.581 1576.94C310.033 1566.72 314.246 1556.41 318.339 1546.14C337.551 1497.76 354.911 1447.84 380.636 1402.84C388.883 1388.38 397.995 1374.48 408.274 1361.28C478.548 1271.13 593.431 1228.26 707.148 1210.24C715.424 1208.93 723.671 1207.76 731.917 1206.69C853.582 1191.03 977.488 1195.72 1096.29 1171.61C1161.33 1158.4 1229.81 1133.54 1265.7 1077.28C1308.75 1009.79 1290.76 919.494 1255.15 847.906C1230.92 799.174 1199.28 754.117 1173.58 706.371C1161.51 683.962 1150.75 660.956 1142.69 636.724C1091.36 482.611 1163.36 306.299 1285.27 198.228C1407.2 90.1578 1569.68 39.6333 1730.34 12.6231" stroke="url(#paint30_linear)" stroke-width="0.8669" stroke-miterlimit="10"/>
<path opacity="0.54" d="M1.00002 1722.39C54.6617 1765.47 137.515 1753.19 192.133 1711.3C246.721 1669.41 278.72 1605 304.834 1541.32C330.948 1477.65 353.745 1411.17 396.232 1357.06C472.034 1260.62 598.659 1218.79 720.444 1204.27C842.258 1189.71 966.373 1197.27 1087.05 1175.28C1153.83 1163.12 1224.16 1138.09 1261.03 1081.11C1305.28 1012.71 1286.58 920.809 1249.62 848.204C1212.66 775.599 1159.21 711.151 1132.71 634.125C1078.87 477.591 1151.8 297.902 1275.82 188.278C1399.85 78.6543 1565.32 28.0401 1728.63 1.00008" stroke="url(#paint31_linear)" stroke-width="0.8669" stroke-miterlimit="10"/>
</g>
<defs>
<linearGradient id="paint0_linear" x1="2224.53" y1="1270.07" x2="722.004" y2="1270.07" gradientUnits="userSpaceOnUse">
<stop offset="0.3125" stop-color="#4382FF" stop-opacity="0"/>
<stop offset="0.526042" stop-color="#4382FF"/>
<stop offset="1" stop-color="#2450DB"/>
<stop offset="1" stop-color="#0433BF"/>
</linearGradient>
<linearGradient id="paint1_linear" x1="2227.84" y1="1261.07" x2="708.569" y2="1261.07" gradientUnits="userSpaceOnUse">
<stop offset="0.3125" stop-color="#4382FF" stop-opacity="0"/>
<stop offset="0.526042" stop-color="#4382FF"/>
<stop offset="1" stop-color="#2450DB"/>
<stop offset="1" stop-color="#0433BF"/>
</linearGradient>
<linearGradient id="paint2_linear" x1="2231.18" y1="1252.13" x2="695.139" y2="1252.13" gradientUnits="userSpaceOnUse">
<stop offset="0.3125" stop-color="#4382FF" stop-opacity="0"/>
<stop offset="0.526042" stop-color="#4382FF"/>
<stop offset="1" stop-color="#2450DB"/>
<stop offset="1" stop-color="#0433BF"/>
</linearGradient>
<linearGradient id="paint3_linear" x1="2234.38" y1="1243.15" x2="681.664" y2="1243.15" gradientUnits="userSpaceOnUse">
<stop offset="0.3125" stop-color="#4382FF" stop-opacity="0"/>
<stop offset="0.526042" stop-color="#4382FF"/>
<stop offset="1" stop-color="#2450DB"/>
<stop offset="1" stop-color="#0433BF"/>
</linearGradient>
<linearGradient id="paint4_linear" x1="2237.65" y1="1234.14" x2="668.224" y2="1234.14" gradientUnits="userSpaceOnUse">
<stop offset="0.3125" stop-color="#4382FF" stop-opacity="0"/>
<stop offset="0.526042" stop-color="#4382FF"/>
<stop offset="1" stop-color="#2450DB"/>
<stop offset="1" stop-color="#0433BF"/>
</linearGradient>
<linearGradient id="paint5_linear" x1="2240.99" y1="1225.14" x2="654.794" y2="1225.14" gradientUnits="userSpaceOnUse">
<stop offset="0.3125" stop-color="#4382FF" stop-opacity="0"/>
<stop offset="0.526042" stop-color="#4382FF"/>
<stop offset="1" stop-color="#2450DB"/>
<stop offset="1" stop-color="#0433BF"/>
</linearGradient>
<linearGradient id="paint6_linear" x1="2244.22" y1="1216.2" x2="641.35" y2="1216.2" gradientUnits="userSpaceOnUse">
<stop offset="0.3125" stop-color="#4382FF" stop-opacity="0"/>
<stop offset="0.526042" stop-color="#4382FF"/>
<stop offset="1" stop-color="#2450DB"/>
<stop offset="1" stop-color="#0433BF"/>
</linearGradient>
<linearGradient id="paint7_linear" x1="2247.5" y1="1207.24" x2="627.885" y2="1207.24" gradientUnits="userSpaceOnUse">
<stop offset="0.3125" stop-color="#4382FF" stop-opacity="0"/>
<stop offset="0.526042" stop-color="#4382FF"/>
<stop offset="1" stop-color="#2450DB"/>
<stop offset="1" stop-color="#0433BF"/>
</linearGradient>
<linearGradient id="paint8_linear" x1="2250.77" y1="1198.27" x2="614.445" y2="1198.27" gradientUnits="userSpaceOnUse">
<stop offset="0.3125" stop-color="#4382FF" stop-opacity="0"/>
<stop offset="0.526042" stop-color="#4382FF"/>
<stop offset="1" stop-color="#2450DB"/>
<stop offset="1" stop-color="#0433BF"/>
</linearGradient>
<linearGradient id="paint9_linear" x1="2254.03" y1="1189.26" x2="601.005" y2="1189.26" gradientUnits="userSpaceOnUse">
<stop offset="0.3125" stop-color="#4382FF" stop-opacity="0"/>
<stop offset="0.526042" stop-color="#4382FF"/>
<stop offset="1" stop-color="#2450DB"/>
<stop offset="1" stop-color="#0433BF"/>
</linearGradient>
<linearGradient id="paint10_linear" x1="2257.3" y1="1180.33" x2="587.564" y2="1180.33" gradientUnits="userSpaceOnUse">
<stop offset="0.3125" stop-color="#4382FF" stop-opacity="0"/>
<stop offset="0.526042" stop-color="#4382FF"/>
<stop offset="1" stop-color="#2450DB"/>
<stop offset="1" stop-color="#0433BF"/>
</linearGradient>
<linearGradient id="paint11_linear" x1="2260.62" y1="1171.36" x2="574.105" y2="1171.36" gradientUnits="userSpaceOnUse">
<stop offset="0.3125" stop-color="#4382FF" stop-opacity="0"/>
<stop offset="0.526042" stop-color="#4382FF"/>
<stop offset="1" stop-color="#2450DB"/>
<stop offset="1" stop-color="#0433BF"/>
</linearGradient>
<linearGradient id="paint12_linear" x1="2263.96" y1="1162.39" x2="560.676" y2="1162.39" gradientUnits="userSpaceOnUse">
<stop offset="0.3125" stop-color="#4382FF" stop-opacity="0"/>
<stop offset="0.526042" stop-color="#4382FF"/>
<stop offset="1" stop-color="#2450DB"/>
<stop offset="1" stop-color="#0433BF"/>
</linearGradient>
<linearGradient id="paint13_linear" x1="2267.19" y1="1153.42" x2="547.23" y2="1153.42" gradientUnits="userSpaceOnUse">
<stop offset="0.3125" stop-color="#4382FF" stop-opacity="0"/>
<stop offset="0.526042" stop-color="#4382FF"/>
<stop offset="1" stop-color="#2450DB"/>
<stop offset="1" stop-color="#0433BF"/>
</linearGradient>
<linearGradient id="paint14_linear" x1="2270.46" y1="1144.46" x2="533.79" y2="1144.46" gradientUnits="userSpaceOnUse">
<stop offset="0.3125" stop-color="#4382FF" stop-opacity="0"/>
<stop offset="0.526042" stop-color="#4382FF"/>
<stop offset="1" stop-color="#2450DB"/>
<stop offset="1" stop-color="#0433BF"/>
</linearGradient>
<linearGradient id="paint15_linear" x1="2273.81" y1="1135.53" x2="520.361" y2="1135.53" gradientUnits="userSpaceOnUse">
<stop offset="0.3125" stop-color="#4382FF" stop-opacity="0"/>
<stop offset="0.526042" stop-color="#4382FF"/>
<stop offset="1" stop-color="#2450DB"/>
<stop offset="1" stop-color="#0433BF"/>
</linearGradient>
<linearGradient id="paint16_linear" x1="2277.08" y1="1126.56" x2="506.896" y2="1126.56" gradientUnits="userSpaceOnUse">
<stop offset="0.3125" stop-color="#4382FF" stop-opacity="0"/>
<stop offset="0.526042" stop-color="#4382FF"/>
<stop offset="1" stop-color="#2450DB"/>
<stop offset="1" stop-color="#0433BF"/>
</linearGradient>
<linearGradient id="paint17_linear" x1="2280.27" y1="1117.62" x2="493.446" y2="1117.62" gradientUnits="userSpaceOnUse">
<stop offset="0.3125" stop-color="#4382FF" stop-opacity="0"/>
<stop offset="0.526042" stop-color="#4382FF"/>
<stop offset="1" stop-color="#2450DB"/>
<stop offset="1" stop-color="#0433BF"/>
</linearGradient>
<linearGradient id="paint18_linear" x1="2283.62" y1="1108.68" x2="480.016" y2="1108.68" gradientUnits="userSpaceOnUse">
<stop offset="0.3125" stop-color="#4382FF" stop-opacity="0"/>
<stop offset="0.526042" stop-color="#4382FF"/>
<stop offset="1" stop-color="#2450DB"/>
<stop offset="1" stop-color="#0433BF"/>
</linearGradient>
<linearGradient id="paint19_linear" x1="2286.93" y1="1099.7" x2="466.581" y2="1099.7" gradientUnits="userSpaceOnUse">
<stop offset="0.3125" stop-color="#4382FF" stop-opacity="0"/>
<stop offset="0.526042" stop-color="#4382FF"/>
<stop offset="1" stop-color="#2450DB"/>
<stop offset="1" stop-color="#0433BF"/>
</linearGradient>
<linearGradient id="paint20_linear" x1="2290.16" y1="1090.77" x2="453.111" y2="1090.77" gradientUnits="userSpaceOnUse">
<stop offset="0.3125" stop-color="#4382FF" stop-opacity="0"/>
<stop offset="0.526042" stop-color="#4382FF"/>
<stop offset="1" stop-color="#2450DB"/>
<stop offset="1" stop-color="#0433BF"/>
</linearGradient>
<linearGradient id="paint21_linear" x1="2293.43" y1="1081.85" x2="439.671" y2="1081.85" gradientUnits="userSpaceOnUse">
<stop offset="0.3125" stop-color="#4382FF" stop-opacity="0"/>
<stop offset="0.526042" stop-color="#4382FF"/>
<stop offset="1" stop-color="#2450DB"/>
<stop offset="1" stop-color="#0433BF"/>
</linearGradient>
<linearGradient id="paint22_linear" x1="2296.74" y1="1072.91" x2="426.237" y2="1072.91" gradientUnits="userSpaceOnUse">
<stop offset="0.3125" stop-color="#4382FF" stop-opacity="0"/>
<stop offset="0.526042" stop-color="#4382FF"/>
<stop offset="1" stop-color="#2450DB"/>
<stop offset="1" stop-color="#0433BF"/>
</linearGradient>
<linearGradient id="paint23_linear" x1="2300.04" y1="1063.98" x2="412.802" y2="1063.98" gradientUnits="userSpaceOnUse">
<stop offset="0.3125" stop-color="#4382FF" stop-opacity="0"/>
<stop offset="0.526042" stop-color="#4382FF"/>
<stop offset="1" stop-color="#2450DB"/>
<stop offset="1" stop-color="#0433BF"/>
</linearGradient>
<linearGradient id="paint24_linear" x1="2303.28" y1="1055.01" x2="399.331" y2="1055.01" gradientUnits="userSpaceOnUse">
<stop offset="0.3125" stop-color="#4382FF" stop-opacity="0"/>
<stop offset="0.526042" stop-color="#4382FF"/>
<stop offset="1" stop-color="#2450DB"/>
<stop offset="1" stop-color="#0433BF"/>
</linearGradient>
<linearGradient id="paint25_linear" x1="2306.63" y1="1046.07" x2="385.902" y2="1046.07" gradientUnits="userSpaceOnUse">
<stop offset="0.3125" stop-color="#4382FF" stop-opacity="0"/>
<stop offset="0.526042" stop-color="#4382FF"/>
<stop offset="1" stop-color="#2450DB"/>
<stop offset="1" stop-color="#0433BF"/>
</linearGradient>
<linearGradient id="paint26_linear" x1="2309.94" y1="1037.17" x2="372.467" y2="1037.17" gradientUnits="userSpaceOnUse">
<stop offset="0.3125" stop-color="#4382FF" stop-opacity="0"/>
<stop offset="0.526042" stop-color="#4382FF"/>
<stop offset="1" stop-color="#2450DB"/>
<stop offset="1" stop-color="#0433BF"/>
</linearGradient>
<linearGradient id="paint27_linear" x1="2313.24" y1="1028.23" x2="359.033" y2="1028.23" gradientUnits="userSpaceOnUse">
<stop offset="0.3125" stop-color="#4382FF" stop-opacity="0"/>
<stop offset="0.526042" stop-color="#4382FF"/>
<stop offset="1" stop-color="#2450DB"/>
<stop offset="1" stop-color="#0433BF"/>
</linearGradient>
<linearGradient id="paint28_linear" x1="2316.44" y1="1019.31" x2="345.557" y2="1019.31" gradientUnits="userSpaceOnUse">
<stop offset="0.3125" stop-color="#4382FF" stop-opacity="0"/>
<stop offset="0.526042" stop-color="#4382FF"/>
<stop offset="1" stop-color="#2450DB"/>
<stop offset="1" stop-color="#0433BF"/>
</linearGradient>
<linearGradient id="paint29_linear" x1="2319.75" y1="1010.45" x2="332.122" y2="1010.45" gradientUnits="userSpaceOnUse">
<stop offset="0.3125" stop-color="#4382FF" stop-opacity="0"/>
<stop offset="0.526042" stop-color="#4382FF"/>
<stop offset="1" stop-color="#2450DB"/>
<stop offset="1" stop-color="#0433BF"/>
</linearGradient>
<linearGradient id="paint30_linear" x1="2323.02" y1="1001.47" x2="318.683" y2="1001.47" gradientUnits="userSpaceOnUse">
<stop offset="0.3125" stop-color="#4382FF" stop-opacity="0"/>
<stop offset="0.526042" stop-color="#4382FF"/>
<stop offset="1" stop-color="#2450DB"/>
<stop offset="1" stop-color="#0433BF"/>
</linearGradient>
<linearGradient id="paint31_linear" x1="2326.24" y1="992.576" x2="305.237" y2="992.576" gradientUnits="userSpaceOnUse">
<stop offset="0.3125" stop-color="#4382FF" stop-opacity="0"/>
<stop offset="0.526042" stop-color="#4382FF"/>
<stop offset="1" stop-color="#2450DB"/>
<stop offset="1" stop-color="#0433BF"/>
</linearGradient>
</defs>
</svg>
