<svg width="1972" height="2770" viewBox="0 0 1972 2770" fill="none" xmlns="http://www.w3.org/2000/svg">
<g opacity="0.54">
<path opacity="0.54" d="M539.818 2524.52C591.418 2563.66 671.134 2539.7 711.679 2489.23C752.224 2438.77 762.562 2370.79 766.237 2306.14C769.942 2241.48 768.806 2175 791.604 2114.41C838.812 1989.01 972.966 1922.44 1096.78 1871.2C1220.6 1819.96 1356.37 1762.95 1417.14 1643.52C1464.8 1549.88 1454.91 1438.47 1475.52 1335.45C1511.5 1155.61 1649.83 999.911 1824.23 943.082" stroke="url(#paint0_linear)" stroke-width="0.8669" stroke-miterlimit="10"/>
<path opacity="0.54" d="M523.862 2517.38C575.373 2556.52 654.909 2533.09 695.903 2483.17C699.578 2478.72 702.984 2474.08 706.211 2469.36C738.838 2421.14 748.369 2359.86 752.373 2301.21C753.15 2289.88 753.777 2278.5 754.405 2267.12C757.333 2213.66 760.38 2159.85 779.413 2110.07C785.598 2093.94 793.187 2078.76 802.031 2064.48C861.638 1968.09 977.268 1912.28 1085.31 1868.57C1093.17 1865.4 1101.05 1862.2 1108.97 1858.98C1226.19 1811.2 1347.67 1755.45 1407.97 1647.23C1425.21 1616.27 1437.04 1583.38 1444.39 1548.27C1453.08 1506.83 1455.5 1463.24 1458.34 1420.48C1460.28 1391.29 1462.46 1362.34 1466.98 1333.86C1469.1 1320.48 1471.79 1307.18 1475.07 1294C1495.96 1210.11 1541.19 1131.61 1601.94 1068.69C1662.83 1005.62 1738.99 957.841 1822.59 931.429" stroke="url(#paint1_linear)" stroke-width="0.8669" stroke-miterlimit="10"/>
<path opacity="0.54" d="M507.907 2510.27C559.357 2549.44 638.685 2526.55 680.126 2477.16C683.831 2472.74 687.297 2468.17 690.554 2463.48C723.599 2415.7 733.818 2354.75 738.509 2296.28C739.405 2284.98 740.152 2273.66 740.899 2262.31C744.395 2209.03 747.92 2155.34 767.192 2105.74C773.437 2089.67 781.086 2074.52 789.989 2060.27C849.985 1964.09 965.585 1908.72 1073.8 1865.91C1081.66 1862.8 1089.58 1859.66 1097.5 1856.53C1214.86 1809.86 1335.27 1755.48 1398.73 1650.84C1417.29 1620.28 1431.42 1587.89 1439.76 1552.06C1449.62 1509.73 1451.35 1464.52 1452.87 1420.78C1453.92 1390.93 1454.93 1361.41 1458.4 1332.28C1460.04 1318.56 1462.25 1304.97 1465.15 1291.4C1483.56 1205.09 1529.72 1123.22 1592.58 1058.74C1655.57 994.114 1734.72 946.249 1820.98 919.836" stroke="url(#paint2_linear)" stroke-width="0.8669" stroke-miterlimit="10"/>
<path opacity="0.54" d="M491.922 2503.13C543.283 2542.3 622.431 2519.98 664.291 2471.1C668.026 2466.73 671.552 2462.22 674.838 2457.56C708.332 2410.2 719.238 2349.61 724.586 2291.32C725.602 2280.08 726.498 2268.76 727.365 2257.46C731.428 2204.37 735.432 2150.83 754.942 2101.38C761.247 2085.36 768.955 2070.28 777.889 2056.05C838.244 1960.11 953.813 1905.17 1062.24 1863.25C1070.13 1860.2 1078.05 1857.15 1085.97 1854.08C1203.51 1808.51 1322.93 1755.48 1389.47 1654.49C1409.37 1624.28 1425.74 1592.43 1435.07 1555.86C1446.12 1512.62 1447.14 1465.8 1447.32 1421.08C1447.47 1390.54 1447.29 1360.48 1449.74 1330.69C1450.87 1316.68 1452.63 1302.73 1455.14 1288.8C1471.07 1200.07 1518.13 1114.82 1583.11 1048.79C1648.22 982.61 1730.33 934.655 1819.24 908.213" stroke="url(#paint3_linear)" stroke-width="0.8669" stroke-miterlimit="10"/>
<path opacity="0.54" d="M475.967 2495.99C527.268 2535.16 606.207 2513.37 648.515 2465.06C652.309 2460.73 655.835 2456.28 659.182 2451.68C693.123 2404.77 704.687 2344.5 710.692 2286.39C711.857 2275.18 712.843 2263.92 713.829 2252.65C718.46 2199.74 722.972 2146.32 742.692 2097.02C749.086 2081.06 756.824 2066 765.818 2051.84C826.531 1956.11 942.101 1901.64 1050.71 1860.56C1058.6 1857.57 1066.54 1854.58 1074.49 1851.6C1192.18 1807.14 1310.83 1755.48 1380.24 1658.1C1401.51 1628.28 1420.13 1596.91 1430.4 1559.62C1442.65 1515.46 1442.95 1467.06 1441.82 1421.35C1441.04 1390.15 1439.73 1359.53 1441.13 1329.05C1441.79 1314.74 1443.1 1300.43 1445.19 1286.12C1458.61 1194.96 1506.62 1106.34 1573.7 1038.75C1640.9 971.018 1725.99 922.973 1817.57 896.501" stroke="url(#paint4_linear)" stroke-width="0.8669" stroke-miterlimit="10"/>
<path opacity="0.54" d="M460.012 2488.84C511.223 2528.04 590.013 2506.8 632.739 2459.03C636.564 2454.75 640.149 2450.33 643.525 2445.76C677.915 2399.3 690.136 2339.36 696.828 2281.43C698.113 2270.25 699.219 2259.02 700.324 2247.78C705.523 2195.05 710.513 2141.75 730.472 2092.63C736.925 2076.73 744.753 2061.73 753.777 2047.57C814.878 1952.05 930.389 1898.03 1039.21 1857.84C1047.12 1854.91 1055.04 1852.01 1063.02 1849.09C1180.86 1805.73 1298.88 1755.48 1371.04 1661.69C1393.71 1632.2 1414.51 1601.39 1425.8 1563.39C1439.22 1518.33 1438.83 1468.32 1436.38 1421.59C1434.71 1389.7 1432.23 1358.51 1432.59 1327.41C1432.77 1312.77 1433.6 1298.16 1435.3 1283.46C1446.24 1189.88 1495.15 1097.88 1564.35 1028.74C1633.67 959.485 1721.72 911.321 1815.96 884.818" stroke="url(#paint5_linear)" stroke-width="0.8669" stroke-miterlimit="10"/>
<path opacity="0.54" d="M444.057 2481.73C495.209 2520.93 573.789 2500.26 616.964 2452.99C620.818 2448.78 624.463 2444.38 627.869 2439.87C662.678 2393.83 675.615 2334.25 682.935 2276.53C684.34 2265.38 685.595 2254.21 686.82 2243C692.556 2190.45 698.054 2137.29 718.252 2088.32C724.795 2072.49 732.653 2057.52 741.736 2043.42C803.196 1948.1 918.706 1894.53 1027.7 1855.24C1035.62 1852.37 1043.57 1849.53 1051.55 1846.7C1169.54 1804.45 1287.08 1755.6 1361.8 1665.39C1385.92 1636.26 1408.89 1606 1421.14 1567.24C1435.75 1521.29 1434.65 1469.66 1430.85 1421.94C1428.28 1389.41 1424.64 1357.65 1423.95 1325.88C1423.62 1310.95 1424.01 1295.98 1425.33 1280.89C1433.78 1184.89 1483.62 1089.52 1554.91 1018.82C1626.32 948.012 1717.36 899.758 1814.25 873.226" stroke="url(#paint6_linear)" stroke-width="0.8669" stroke-miterlimit="10"/>
<path opacity="0.54" d="M428.072 2474.59C479.134 2513.82 557.535 2493.65 601.128 2446.95C605.012 2442.77 608.687 2438.44 612.153 2433.96C647.41 2388.36 661.004 2329.11 669.012 2271.57C670.536 2260.48 671.91 2249.31 673.254 2238.16C679.559 2185.76 685.564 2132.75 705.971 2083.96C712.575 2068.18 720.492 2053.25 729.635 2039.2C791.454 1944.1 906.934 1890.98 1016.14 1852.58C1024.09 1849.8 1032.04 1847.02 1040.01 1844.25C1158.15 1803.1 1275.37 1755.75 1352.54 1669.04C1378.15 1640.27 1403.22 1610.54 1416.48 1571.04C1432.29 1524.19 1430.46 1470.94 1425.36 1422.24C1421.89 1389.02 1417.08 1356.72 1415.35 1324.27C1414.54 1309 1414.45 1293.73 1415.38 1278.26C1421.32 1179.84 1472.09 1081.09 1545.5 1008.84C1619.03 936.478 1713.03 888.135 1812.58 861.603" stroke="url(#paint7_linear)" stroke-width="0.8669" stroke-miterlimit="10"/>
<path opacity="0.54" d="M412.117 2467.45C463.09 2506.68 541.312 2487.08 585.353 2440.89C589.296 2436.77 593.001 2432.46 596.497 2428.04C632.202 2382.86 646.484 2324 655.149 2266.61C656.822 2255.55 658.316 2244.44 659.78 2233.32C666.652 2181.1 673.135 2128.21 693.782 2079.6C700.444 2063.85 708.422 2049 717.595 2034.96C779.802 1940.1 895.252 1887.39 1004.64 1849.89C1012.58 1847.17 1020.56 1844.45 1028.57 1841.77C1146.86 1801.76 1263.83 1755.89 1343.34 1672.65C1370.47 1644.24 1397.63 1615.02 1411.85 1574.83C1428.82 1527.09 1426.31 1472.23 1419.89 1422.54C1415.53 1388.66 1409.52 1355.79 1406.74 1322.69C1405.46 1307.12 1404.89 1291.49 1405.43 1275.66C1408.89 1174.82 1460.58 1072.72 1536.09 998.894C1611.71 924.974 1708.72 876.542 1810.91 849.98" stroke="url(#paint8_linear)" stroke-width="0.8669" stroke-miterlimit="10"/>
<path opacity="0.54" d="M396.162 2460.31C447.074 2499.57 525.087 2480.48 569.576 2434.85C573.55 2430.76 577.315 2426.52 580.84 2422.16C616.963 2377.43 631.933 2318.9 641.255 2261.68C643.047 2250.65 644.661 2239.57 646.244 2228.48C653.684 2176.44 660.646 2123.7 681.531 2075.24C688.283 2059.55 696.291 2044.73 705.523 2030.75C768.089 1936.09 883.509 1883.84 993.103 1847.2C1001.05 1844.55 1009.06 1841.92 1017.07 1839.29C1135.5 1800.38 1252.39 1756.1 1334.08 1676.27C1362.76 1648.24 1391.98 1619.53 1407.19 1578.6C1425.36 1529.95 1422.16 1473.48 1414.39 1422.78C1409.1 1388.21 1401.96 1354.81 1398.14 1321.01C1396.34 1305.15 1395.33 1289.16 1395.48 1272.94C1396.43 1169.68 1449.05 1064.21 1526.67 988.826C1604.39 913.353 1704.39 864.8 1809.23 838.238" stroke="url(#paint9_linear)" stroke-width="0.8669" stroke-miterlimit="10"/>
<path opacity="0.54" d="M380.206 2453.2C431.03 2492.46 508.863 2473.93 553.77 2428.85C557.774 2424.81 561.569 2420.63 565.154 2416.27C601.725 2371.96 617.382 2313.79 627.361 2256.75C629.273 2245.78 631.006 2234.73 632.709 2223.67C640.687 2171.8 648.186 2119.19 669.281 2070.9C676.093 2055.28 684.16 2040.52 693.452 2026.56C756.376 1932.12 871.767 1880.31 981.57 1844.58C989.548 1841.98 997.555 1839.41 1005.56 1836.87C1124.15 1799.07 1241.06 1756.43 1324.84 1679.94C1355.11 1652.31 1386.33 1624.1 1402.53 1582.42C1421.89 1532.88 1417.98 1474.8 1408.86 1423.11C1402.68 1387.85 1394.37 1353.91 1389.5 1319.46C1387.23 1303.27 1385.74 1286.98 1385.5 1270.37C1383.97 1164.69 1437.52 1055.84 1517.26 978.906C1597.1 901.879 1700.06 853.237 1807.56 826.646" stroke="url(#paint10_linear)" stroke-width="0.8669" stroke-miterlimit="10"/>
<path opacity="0.54" d="M364.222 2446.06C414.985 2485.35 492.639 2467.36 537.965 2422.78C542.028 2418.81 545.853 2414.66 549.468 2410.35C586.488 2366.49 602.801 2308.65 613.438 2251.82C615.47 2240.88 617.352 2229.86 619.175 2218.86C627.72 2167.17 635.697 2114.68 657.031 2066.54C663.933 2050.97 672.03 2036.24 681.382 2022.32C744.694 1928.08 860.055 1876.75 970.037 1841.89C978.015 1839.35 986.052 1836.87 994.09 1834.39C1112.83 1797.7 1229.83 1756.79 1315.61 1683.56C1347.49 1656.34 1380.72 1628.61 1397.9 1586.22C1418.42 1535.78 1413.82 1476.08 1403.39 1423.41C1396.31 1387.49 1386.84 1352.98 1380.93 1317.88C1378.15 1301.38 1376.21 1284.74 1375.58 1267.74C1371.57 1159.64 1426.04 1047.42 1507.88 968.926C1589.81 890.346 1695.76 841.614 1805.92 814.992" stroke="url(#paint11_linear)" stroke-width="0.8669" stroke-miterlimit="10"/>
<path opacity="0.54" d="M348.267 2438.92C398.94 2478.21 476.415 2460.76 522.189 2416.75C526.282 2412.8 530.167 2408.71 533.842 2404.44C571.309 2361.02 588.31 2303.51 599.604 2246.86C601.785 2235.95 603.757 2224.99 605.699 2214.02C614.812 2162.51 623.268 2110.16 644.84 2062.18C651.802 2046.67 659.989 2031.97 669.37 2018.11C733.041 1924.08 848.372 1873.2 958.564 1839.23C966.572 1836.75 974.609 1834.33 982.646 1831.94C1101.56 1796.35 1218.75 1757.27 1306.44 1687.2C1339.96 1660.4 1375.13 1633.12 1393.3 1590.01C1415.02 1538.68 1409.7 1477.37 1397.96 1423.68C1389.98 1387.08 1379.31 1352 1372.38 1316.23C1369.12 1299.41 1366.7 1282.44 1365.69 1265.08C1359.17 1154.56 1414.57 1038.96 1498.53 958.917C1582.58 878.783 1691.48 829.962 1804.3 803.34" stroke="url(#paint12_linear)" stroke-width="0.8669" stroke-miterlimit="10"/>
<path opacity="0.54" d="M332.311 2431.78C382.925 2471.1 460.191 2454.18 506.413 2410.68C510.536 2406.8 514.45 2402.73 518.185 2398.52C556.071 2355.53 573.759 2298.37 585.71 2241.9C588.011 2231.02 590.132 2220.12 592.164 2209.18C601.845 2157.85 610.808 2105.62 632.59 2057.82C639.611 2042.37 647.857 2027.73 657.299 2013.9C721.329 1920.11 836.66 1869.64 947.031 1836.57C955.038 1834.18 963.105 1831.82 971.143 1829.49C1090.21 1795.01 1207.63 1757.81 1297.18 1690.82C1332.37 1664.5 1369.48 1637.64 1388.63 1593.77C1411.55 1541.55 1405.52 1478.62 1392.43 1423.94C1383.53 1386.69 1371.72 1351.04 1363.75 1314.62C1360.01 1297.5 1357.11 1280.2 1355.71 1262.45C1346.71 1149.51 1403.04 1030.54 1489.09 948.937C1575.23 867.249 1687.12 818.338 1802.6 791.687" stroke="url(#paint13_linear)" stroke-width="0.8669" stroke-miterlimit="10"/>
<path opacity="0.54" d="M316.356 2424.67C366.881 2463.99 443.967 2447.64 490.608 2404.68C494.761 2400.85 498.735 2396.82 502.499 2392.67C540.833 2350.12 559.209 2293.29 571.817 2237C574.237 2226.18 576.478 2215.28 578.659 2204.37C588.878 2153.19 598.349 2101.11 620.37 2053.49C627.481 2038.1 635.757 2023.49 645.229 2009.68C709.617 1916.1 824.918 1866.09 935.498 1833.88C943.535 1831.55 951.603 1829.25 959.64 1827.01C1078.85 1793.63 1196.61 1758.38 1287.94 1694.44C1324.84 1668.59 1363.84 1642.15 1383.97 1597.57C1408.06 1544.45 1401.33 1479.94 1386.93 1424.24C1377.13 1386.3 1364.16 1350.12 1355.14 1313.01C1350.9 1295.56 1347.58 1277.93 1345.76 1259.79C1334.29 1144.43 1391.5 1022.08 1479.67 938.929C1567.94 855.687 1682.79 806.686 1800.93 780.005" stroke="url(#paint14_linear)" stroke-width="0.8669" stroke-miterlimit="10"/>
<path opacity="0.54" d="M300.401 2417.52C350.866 2456.87 427.743 2441.04 474.831 2398.64C479.044 2394.85 483.048 2390.87 486.842 2386.75C525.625 2344.62 544.657 2288.15 557.953 2232.07C560.493 2221.28 562.853 2210.44 565.154 2199.56C575.94 2148.56 585.89 2096.63 608.149 2049.15C615.32 2033.82 623.656 2019.27 633.187 2005.5C697.964 1912.13 813.235 1862.56 923.994 1831.25C932.032 1828.98 940.099 1826.77 948.196 1824.59C1067.56 1792.32 1185.7 1759.12 1278.74 1698.11C1317.34 1672.8 1358.25 1646.72 1379.37 1601.39C1404.65 1547.37 1397.21 1481.25 1381.49 1424.57C1370.8 1385.97 1356.66 1349.22 1346.6 1311.45C1341.87 1293.7 1338.08 1275.75 1335.87 1257.22C1321.89 1139.44 1380.06 1013.71 1470.32 929.008C1560.67 844.213 1678.52 795.123 1799.31 768.411" stroke="url(#paint15_linear)" stroke-width="0.8669" stroke-miterlimit="10"/>
<path opacity="0.54" d="M284.415 2410.38C334.791 2449.73 411.518 2434.46 459.025 2392.58C463.268 2388.84 467.302 2384.93 471.156 2380.83C510.386 2339.15 530.076 2283.01 544.029 2227.11C546.718 2216.35 549.198 2205.54 551.619 2194.72C562.972 2143.9 573.43 2092.09 595.899 2044.79C603.159 2029.52 611.525 2015 621.116 2001.29C686.251 1908.13 801.492 1859.01 912.461 1828.59C920.528 1826.38 928.595 1824.23 936.692 1822.14C1056.21 1790.97 1174.73 1759.87 1269.51 1701.75C1309.84 1677.02 1352.6 1651.23 1374.71 1605.19C1401.18 1550.27 1393.03 1482.54 1376 1424.84C1364.4 1385.55 1349.08 1348.26 1337.99 1309.84C1332.76 1291.79 1328.52 1273.48 1325.92 1254.59C1309.46 1134.39 1368.53 1005.29 1460.91 919.029C1553.38 832.68 1674.18 783.5 1797.64 756.759" stroke="url(#paint16_linear)" stroke-width="0.8669" stroke-miterlimit="10"/>
<path opacity="0.54" d="M268.461 2403.27C318.776 2442.62 395.295 2427.92 443.22 2386.57C447.493 2382.87 451.586 2379.01 455.47 2374.95C495.119 2333.71 515.526 2277.9 530.136 2222.18C532.945 2211.45 535.544 2200.7 538.084 2189.91C550.006 2139.27 560.941 2087.58 583.649 2040.43C590.969 2025.22 599.395 2010.73 609.046 1997.04C674.539 1904.09 789.751 1855.42 900.928 1825.9C908.995 1823.75 917.093 1821.66 925.19 1819.66C1044.85 1789.6 1163.83 1760.71 1260.25 1705.37C1302.35 1681.23 1346.95 1655.74 1370.02 1608.98C1397.66 1553.17 1388.81 1483.82 1370.44 1425.14C1357.95 1385.19 1341.46 1347.34 1329.33 1308.23C1323.62 1289.85 1318.9 1271.21 1315.91 1251.93C1296.94 1129.31 1356.96 996.833 1451.44 909.02C1546 821.117 1669.79 771.848 1795.91 745.107" stroke="url(#paint17_linear)" stroke-width="0.8669" stroke-miterlimit="10"/>
<path opacity="0.54" d="M252.506 2396.13C302.731 2435.51 379.071 2421.32 427.444 2380.5C431.777 2376.86 435.9 2373.03 439.814 2369.03C479.911 2328.22 500.975 2272.76 516.243 2217.22C519.171 2206.55 521.92 2195.8 524.549 2185.07C537.038 2134.6 548.452 2083.06 571.399 2036.07C578.779 2020.92 587.294 2006.49 596.975 1992.83C662.857 1900.12 778.038 1851.86 889.395 1823.24C897.492 1821.15 905.589 1819.15 913.686 1817.21C1033.5 1788.25 1152.92 1761.6 1251.01 1709.02C1294.88 1685.5 1341.31 1660.28 1365.39 1612.78C1394.22 1556.07 1384.69 1485.11 1364.97 1425.44C1351.56 1384.8 1333.93 1346.38 1320.75 1306.64C1314.57 1287.97 1309.37 1269 1305.99 1249.34C1284.54 1124.26 1345.46 988.436 1442.09 899.07C1538.74 809.614 1665.52 760.255 1794.29 733.483" stroke="url(#paint18_linear)" stroke-width="0.8669" stroke-miterlimit="10"/>
<path opacity="0.54" d="M236.551 2388.99C286.717 2428.37 362.847 2414.75 411.669 2374.47C416.031 2370.88 420.184 2367.09 424.158 2363.15C464.703 2322.78 486.455 2267.65 502.38 2212.29C505.428 2201.65 508.296 2190.96 511.075 2180.23C524.102 2129.94 536.053 2078.52 559.239 2031.7C566.708 2016.61 575.254 2002.21 584.964 1988.62C651.205 1896.11 766.356 1848.34 877.922 1820.55C886.019 1818.55 894.146 1816.58 902.273 1814.7C1022.24 1786.85 1142.11 1762.53 1241.84 1712.6C1287.47 1689.74 1335.75 1664.77 1360.79 1616.51C1390.82 1558.91 1380.57 1486.33 1359.53 1425.68C1345.22 1384.36 1326.43 1345.39 1312.18 1305C1305.48 1286 1299.84 1266.7 1296.07 1246.65C1272.14 1119.16 1333.99 979.952 1432.71 889.031C1531.48 798.022 1661.22 748.543 1792.65 721.772" stroke="url(#paint19_linear)" stroke-width="0.8669" stroke-miterlimit="10"/>
<path opacity="0.54" d="M220.566 2381.85C270.642 2421.26 346.593 2408.17 395.863 2368.43C400.255 2364.88 404.468 2361.14 408.471 2357.23C449.435 2317.28 471.874 2262.51 488.486 2207.36C491.683 2196.75 494.641 2186.09 497.539 2175.42C511.134 2125.31 523.563 2074.01 546.988 2027.37C554.518 2012.34 563.122 1998 572.893 1984.44C639.492 1892.14 754.643 1844.81 866.389 1817.92C874.516 1815.98 882.643 1814.1 890.77 1812.28C1010.88 1785.56 1131.2 1763.6 1232.58 1716.28C1279.97 1694.14 1330.07 1669.31 1356.13 1620.37C1387.32 1561.86 1376.38 1487.68 1354.01 1426.01C1338.8 1384.03 1318.84 1344.5 1303.54 1303.42C1296.37 1284.11 1290.24 1264.45 1286.09 1244.05C1259.65 1114.14 1322.42 971.555 1423.26 879.081C1524.13 786.518 1656.88 736.949 1790.95 710.149" stroke="url(#paint20_linear)" stroke-width="0.8669" stroke-miterlimit="10"/>
<path opacity="0.54" d="M204.61 2374.74C254.627 2414.15 330.399 2401.6 380.057 2362.4C384.479 2358.9 388.751 2355.2 392.785 2351.34C434.196 2311.84 457.322 2257.41 474.562 2202.43C477.879 2191.85 480.986 2181.25 484.004 2170.61C498.166 2120.65 511.074 2069.53 534.737 2023.04C542.356 2008.07 550.991 1993.76 560.821 1980.22C627.809 1888.14 742.901 1841.26 854.855 1815.26C862.982 1813.38 871.139 1811.56 879.266 1809.83C999.557 1784.22 1120.33 1764.71 1223.35 1719.92C1272.53 1698.53 1324.46 1673.85 1351.47 1624.16C1383.85 1564.76 1372.2 1488.96 1348.51 1426.31C1332.4 1383.64 1311.25 1343.57 1294.94 1301.83C1287.29 1282.23 1280.68 1262.24 1276.14 1241.45C1247.22 1109.12 1310.92 963.19 1413.85 869.132C1516.84 775.015 1652.55 725.357 1789.27 698.526" stroke="url(#paint21_linear)" stroke-width="0.8669" stroke-miterlimit="10"/>
<path opacity="0.54" d="M188.656 2367.6C238.583 2407.04 314.175 2395.03 364.281 2356.36C368.763 2352.9 373.036 2349.25 377.129 2345.43C418.989 2306.38 442.772 2252.27 460.699 2197.47C464.135 2186.95 467.362 2176.35 470.499 2165.77C485.229 2115.99 498.615 2064.99 522.518 2018.68C530.196 2003.77 538.891 1989.49 548.781 1976.01C616.127 1884.13 731.219 1837.7 843.353 1812.61C851.51 1810.78 859.666 1809.05 867.793 1807.38C988.233 1782.88 1109.45 1765.91 1214.11 1723.57C1265.06 1702.95 1318.81 1678.39 1346.83 1627.96C1380.42 1567.63 1368.05 1490.25 1343.04 1426.61C1326.01 1383.28 1303.72 1342.65 1286.36 1300.22C1278.2 1280.29 1271.15 1259.97 1266.22 1238.79C1234.82 1104.04 1299.42 954.735 1404.47 859.124C1509.55 763.453 1648.25 713.705 1787.63 686.874" stroke="url(#paint22_linear)" stroke-width="0.8669" stroke-miterlimit="10"/>
<path opacity="0.54" d="M172.701 2360.46C222.568 2399.9 297.951 2388.45 348.506 2350.3C353.017 2346.89 357.35 2343.31 361.473 2339.51C403.781 2300.88 428.251 2247.13 446.806 2192.51C450.361 2182.02 453.738 2171.48 456.964 2160.93C472.232 2111.33 486.156 2060.45 510.268 2014.31C518.036 1999.46 526.761 1985.24 536.71 1971.8C604.415 1880.16 719.477 1834.15 831.82 1809.95C839.976 1808.18 848.163 1806.51 856.32 1804.93C976.91 1781.53 1098.54 1767.1 1204.91 1727.21C1257.65 1707.43 1313.22 1682.9 1342.2 1631.78C1376.95 1570.56 1363.9 1491.56 1337.57 1426.9C1319.65 1382.89 1296.19 1341.72 1277.79 1298.64C1269.15 1278.41 1261.65 1257.76 1256.3 1236.19C1222.39 1099.02 1287.94 946.338 1395.09 849.174C1502.29 751.979 1643.95 702.112 1785.99 675.251" stroke="url(#paint23_linear)" stroke-width="0.8669" stroke-miterlimit="10"/>
<path opacity="0.54" d="M156.715 2353.32C206.493 2392.78 281.697 2381.85 332.67 2344.26C337.211 2340.92 341.603 2337.36 345.756 2333.62C388.483 2295.44 413.64 2242.02 432.882 2187.61C436.557 2177.15 440.053 2166.63 443.429 2156.12C459.265 2106.7 473.666 2055.96 498.017 2009.95C505.845 1995.16 514.629 1980.97 524.639 1967.55C592.732 1876.13 707.734 1830.56 820.286 1807.26C828.473 1805.55 836.66 1803.97 844.816 1802.45C965.555 1780.16 1087.61 1768.35 1195.65 1730.8C1250.15 1711.85 1307.57 1687.38 1337.54 1635.51C1373.49 1573.4 1359.71 1492.79 1332.04 1427.14C1313.22 1382.47 1288.6 1340.73 1269.15 1296.99C1260.01 1276.44 1252.06 1255.46 1246.32 1233.5C1209.93 1093.91 1276.38 937.852 1385.65 839.134C1494.94 740.386 1639.58 690.429 1784.29 663.538" stroke="url(#paint24_linear)" stroke-width="0.8669" stroke-miterlimit="10"/>
<path opacity="0.54" d="M140.761 2346.2C190.478 2385.67 265.473 2375.31 316.894 2338.23C321.496 2334.91 325.888 2331.41 330.13 2327.71C373.305 2289.94 399.15 2236.88 419.049 2182.65C422.873 2172.25 426.459 2161.76 429.954 2151.28C446.358 2102.04 461.237 2051.42 485.827 2005.59C493.715 1990.86 502.589 1976.73 512.598 1963.34C581.05 1872.12 696.052 1827.01 808.783 1804.57C816.97 1802.92 825.157 1801.4 833.344 1799.97C954.232 1778.78 1076.67 1769.64 1186.45 1734.41C1242.74 1716.37 1301.96 1691.9 1332.91 1639.28C1370.05 1576.27 1355.56 1494.04 1326.58 1427.41C1306.86 1382.06 1281.04 1339.75 1260.58 1295.35C1250.95 1274.49 1242.53 1253.16 1236.4 1230.84C1197.5 1088.83 1264.91 929.397 1376.3 829.095C1487.68 728.793 1635.31 678.747 1782.67 651.826" stroke="url(#paint25_linear)" stroke-width="0.8669" stroke-miterlimit="10"/>
<path opacity="0.54" d="M124.805 2339.06C174.433 2378.56 249.279 2368.7 301.118 2332.19C305.749 2328.93 310.201 2325.47 314.474 2321.82C358.096 2284.5 384.598 2231.77 405.155 2177.72C409.099 2167.35 412.834 2156.89 416.419 2146.47C433.39 2097.41 448.777 2046.91 473.576 2001.26C481.554 1986.59 490.458 1972.48 500.527 1959.16C569.337 1868.15 684.309 1823.48 797.25 1801.94C805.466 1800.38 813.653 1798.92 821.87 1797.55C942.907 1777.47 1065.71 1771.01 1177.21 1738.09C1235.27 1720.94 1296.34 1696.47 1328.28 1643.13C1366.58 1579.22 1351.41 1495.38 1321.11 1427.77C1300.49 1381.76 1273.51 1338.88 1252 1293.82C1241.9 1272.67 1233 1251.01 1226.48 1228.3C1185.1 1083.87 1253.43 921.06 1366.91 819.205C1480.42 717.349 1631.01 667.213 1781.03 640.263" stroke="url(#paint26_linear)" stroke-width="0.8669" stroke-miterlimit="10"/>
<path opacity="0.54" d="M108.851 2331.92C158.419 2371.42 233.055 2362.13 285.343 2326.16C290.004 2322.93 294.515 2319.52 298.818 2315.94C342.859 2279.04 370.048 2226.66 391.292 2172.79C395.355 2162.45 399.21 2152.05 402.944 2141.66C420.483 2092.78 436.348 2042.43 461.387 1996.93C469.424 1982.31 478.387 1968.24 488.516 1954.95C557.685 1864.15 672.657 1819.96 785.777 1799.28C793.994 1797.79 802.21 1796.38 810.427 1795.1C931.614 1776.12 1054.74 1772.42 1168.04 1741.73C1227.86 1725.54 1290.75 1700.98 1323.68 1646.93C1363.18 1582.12 1347.31 1496.67 1315.64 1428.04C1294.1 1381.34 1265.98 1337.93 1243.43 1292.21C1232.82 1270.73 1223.47 1248.74 1216.56 1225.64C1172.7 1078.79 1241.93 912.606 1357.53 809.196C1473.13 705.787 1626.71 655.561 1779.39 628.581" stroke="url(#paint27_linear)" stroke-width="0.8669" stroke-miterlimit="10"/>
<path opacity="0.54" d="M92.8652 2324.78C142.344 2364.31 216.801 2355.56 269.507 2320.09C274.198 2316.92 278.739 2313.55 283.101 2309.99C327.59 2273.54 355.467 2221.49 377.338 2167.8C381.521 2157.49 385.525 2147.12 389.349 2136.79C407.426 2088.05 423.799 2037.86 449.076 1992.53C457.203 1977.98 466.197 1963.97 476.385 1950.7C545.942 1860.14 660.855 1816.37 774.184 1796.59C782.43 1795.16 790.647 1793.84 798.863 1792.62C920.2 1774.75 1043.63 1773.82 1158.72 1745.35C1220.3 1730.11 1285.05 1705.49 1318.96 1650.69C1359.65 1584.99 1343.07 1497.92 1310.08 1428.31C1287.65 1380.92 1258.36 1336.97 1234.76 1290.57C1223.68 1268.79 1213.85 1246.44 1206.56 1222.98C1160.18 1073.71 1230.37 904.15 1348.06 799.186C1465.78 694.223 1622.31 643.908 1777.65 616.928" stroke="url(#paint28_linear)" stroke-width="0.8669" stroke-miterlimit="10"/>
<path opacity="0.54" d="M76.9101 2317.67C126.329 2357.2 200.577 2348.98 253.731 2314.09C258.482 2310.98 263.053 2307.63 267.445 2304.14C312.382 2268.13 340.916 2216.41 363.474 2162.93C367.807 2152.68 371.9 2142.34 375.874 2132.01C394.518 2083.45 411.4 2033.38 436.886 1988.23C445.073 1973.74 454.126 1959.76 464.374 1946.55C534.29 1856.2 649.202 1812.87 762.711 1793.99C770.957 1792.62 779.204 1791.36 787.42 1790.23C908.906 1773.46 1032.6 1775.35 1149.55 1749.05C1212.86 1734.83 1279.46 1710.09 1314.36 1654.58C1356.22 1587.98 1338.95 1499.3 1304.65 1428.7C1281.31 1380.65 1250.86 1336.13 1226.19 1289.07C1214.62 1266.96 1204.31 1244.32 1196.64 1220.47C1147.78 1068.78 1218.87 895.844 1338.68 789.327C1458.49 682.811 1618.01 632.406 1776.01 605.396" stroke="url(#paint29_linear)" stroke-width="0.8669" stroke-miterlimit="10"/>
<path opacity="0.54" d="M60.955 2310.53C110.284 2350.06 184.353 2342.41 237.955 2308.02C242.736 2304.94 247.367 2301.69 251.789 2298.19C297.174 2262.6 326.395 2211.24 349.581 2157.94C354.033 2147.72 358.246 2137.41 362.339 2127.14C381.551 2078.76 398.91 2028.84 424.636 1983.84C432.882 1969.38 441.995 1955.48 452.273 1942.28C522.547 1852.13 637.43 1809.26 751.148 1791.24C759.424 1789.93 767.67 1788.76 775.917 1787.69C897.582 1772.03 1021.49 1776.72 1140.28 1752.61C1205.33 1739.4 1273.81 1714.54 1309.7 1658.28C1352.75 1590.79 1334.76 1500.49 1299.15 1428.91C1274.92 1380.17 1243.28 1335.12 1217.58 1287.37C1205.51 1264.96 1194.75 1241.96 1186.69 1217.72C1135.35 1063.61 1207.36 887.299 1329.27 779.228C1451.2 671.158 1613.68 620.633 1774.34 593.623" stroke="url(#paint30_linear)" stroke-width="0.8669" stroke-miterlimit="10"/>
<path opacity="0.54" d="M44.9999 2303.39C98.6617 2346.47 181.515 2334.19 236.132 2292.3C290.72 2250.41 322.72 2186 348.834 2122.32C374.948 2058.65 397.745 1992.17 440.232 1938.06C516.034 1841.62 642.659 1799.79 764.444 1785.27C886.258 1770.71 1010.37 1778.27 1131.05 1756.28C1197.83 1744.12 1268.16 1719.09 1305.03 1662.11C1349.28 1593.71 1330.58 1501.81 1293.62 1429.2C1256.66 1356.6 1203.21 1292.15 1176.71 1215.12C1122.87 1058.59 1195.8 878.902 1319.82 769.278C1443.85 659.654 1609.32 609.04 1772.63 582" stroke="url(#paint31_linear)" stroke-width="0.8669" stroke-miterlimit="10"/>
</g>
<circle cx="1710" cy="262" r="262" fill="url(#paint32_linear)"/>
<ellipse cx="364" cy="2406" rx="364" ry="364" transform="rotate(-180 364 2406)" fill="url(#paint33_linear)"/>
<defs>
<linearGradient id="paint0_linear" x1="2268.53" y1="1851.07" x2="766.004" y2="1851.07" gradientUnits="userSpaceOnUse">
<stop stop-color="#4382FF"/>
<stop offset="1" stop-color="#2450DB"/>
<stop offset="1" stop-color="#0433BF"/>
</linearGradient>
<linearGradient id="paint1_linear" x1="2271.84" y1="1842.07" x2="752.569" y2="1842.07" gradientUnits="userSpaceOnUse">
<stop stop-color="#4382FF"/>
<stop offset="1" stop-color="#2450DB"/>
<stop offset="1" stop-color="#0433BF"/>
</linearGradient>
<linearGradient id="paint2_linear" x1="2275.18" y1="1833.13" x2="739.139" y2="1833.13" gradientUnits="userSpaceOnUse">
<stop stop-color="#4382FF"/>
<stop offset="1" stop-color="#2450DB"/>
<stop offset="1" stop-color="#0433BF"/>
</linearGradient>
<linearGradient id="paint3_linear" x1="2278.38" y1="1824.15" x2="725.664" y2="1824.15" gradientUnits="userSpaceOnUse">
<stop stop-color="#4382FF"/>
<stop offset="1" stop-color="#2450DB"/>
<stop offset="1" stop-color="#0433BF"/>
</linearGradient>
<linearGradient id="paint4_linear" x1="2281.65" y1="1815.14" x2="712.224" y2="1815.14" gradientUnits="userSpaceOnUse">
<stop stop-color="#4382FF"/>
<stop offset="1" stop-color="#2450DB"/>
<stop offset="1" stop-color="#0433BF"/>
</linearGradient>
<linearGradient id="paint5_linear" x1="2284.99" y1="1806.14" x2="698.794" y2="1806.14" gradientUnits="userSpaceOnUse">
<stop stop-color="#4382FF"/>
<stop offset="1" stop-color="#2450DB"/>
<stop offset="1" stop-color="#0433BF"/>
</linearGradient>
<linearGradient id="paint6_linear" x1="2288.22" y1="1797.2" x2="685.35" y2="1797.2" gradientUnits="userSpaceOnUse">
<stop stop-color="#4382FF"/>
<stop offset="1" stop-color="#2450DB"/>
<stop offset="1" stop-color="#0433BF"/>
</linearGradient>
<linearGradient id="paint7_linear" x1="2291.5" y1="1788.24" x2="671.885" y2="1788.24" gradientUnits="userSpaceOnUse">
<stop stop-color="#4382FF"/>
<stop offset="1" stop-color="#2450DB"/>
<stop offset="1" stop-color="#0433BF"/>
</linearGradient>
<linearGradient id="paint8_linear" x1="2294.77" y1="1779.27" x2="658.445" y2="1779.27" gradientUnits="userSpaceOnUse">
<stop stop-color="#4382FF"/>
<stop offset="1" stop-color="#2450DB"/>
<stop offset="1" stop-color="#0433BF"/>
</linearGradient>
<linearGradient id="paint9_linear" x1="2298.03" y1="1770.26" x2="645.004" y2="1770.26" gradientUnits="userSpaceOnUse">
<stop stop-color="#4382FF"/>
<stop offset="1" stop-color="#2450DB"/>
<stop offset="1" stop-color="#0433BF"/>
</linearGradient>
<linearGradient id="paint10_linear" x1="2301.3" y1="1761.33" x2="631.564" y2="1761.33" gradientUnits="userSpaceOnUse">
<stop stop-color="#4382FF"/>
<stop offset="1" stop-color="#2450DB"/>
<stop offset="1" stop-color="#0433BF"/>
</linearGradient>
<linearGradient id="paint11_linear" x1="2304.62" y1="1752.36" x2="618.105" y2="1752.36" gradientUnits="userSpaceOnUse">
<stop stop-color="#4382FF"/>
<stop offset="1" stop-color="#2450DB"/>
<stop offset="1" stop-color="#0433BF"/>
</linearGradient>
<linearGradient id="paint12_linear" x1="2307.96" y1="1743.39" x2="604.676" y2="1743.39" gradientUnits="userSpaceOnUse">
<stop stop-color="#4382FF"/>
<stop offset="1" stop-color="#2450DB"/>
<stop offset="1" stop-color="#0433BF"/>
</linearGradient>
<linearGradient id="paint13_linear" x1="2311.19" y1="1734.42" x2="591.23" y2="1734.42" gradientUnits="userSpaceOnUse">
<stop stop-color="#4382FF"/>
<stop offset="1" stop-color="#2450DB"/>
<stop offset="1" stop-color="#0433BF"/>
</linearGradient>
<linearGradient id="paint14_linear" x1="2314.46" y1="1725.46" x2="577.79" y2="1725.46" gradientUnits="userSpaceOnUse">
<stop stop-color="#4382FF"/>
<stop offset="1" stop-color="#2450DB"/>
<stop offset="1" stop-color="#0433BF"/>
</linearGradient>
<linearGradient id="paint15_linear" x1="2317.81" y1="1716.53" x2="564.36" y2="1716.53" gradientUnits="userSpaceOnUse">
<stop stop-color="#4382FF"/>
<stop offset="1" stop-color="#2450DB"/>
<stop offset="1" stop-color="#0433BF"/>
</linearGradient>
<linearGradient id="paint16_linear" x1="2321.08" y1="1707.56" x2="550.895" y2="1707.56" gradientUnits="userSpaceOnUse">
<stop stop-color="#4382FF"/>
<stop offset="1" stop-color="#2450DB"/>
<stop offset="1" stop-color="#0433BF"/>
</linearGradient>
<linearGradient id="paint17_linear" x1="2324.27" y1="1698.62" x2="537.445" y2="1698.62" gradientUnits="userSpaceOnUse">
<stop stop-color="#4382FF"/>
<stop offset="1" stop-color="#2450DB"/>
<stop offset="1" stop-color="#0433BF"/>
</linearGradient>
<linearGradient id="paint18_linear" x1="2327.62" y1="1689.68" x2="524.016" y2="1689.68" gradientUnits="userSpaceOnUse">
<stop stop-color="#4382FF"/>
<stop offset="1" stop-color="#2450DB"/>
<stop offset="1" stop-color="#0433BF"/>
</linearGradient>
<linearGradient id="paint19_linear" x1="2330.93" y1="1680.7" x2="510.581" y2="1680.7" gradientUnits="userSpaceOnUse">
<stop stop-color="#4382FF"/>
<stop offset="1" stop-color="#2450DB"/>
<stop offset="1" stop-color="#0433BF"/>
</linearGradient>
<linearGradient id="paint20_linear" x1="2334.16" y1="1671.77" x2="497.111" y2="1671.77" gradientUnits="userSpaceOnUse">
<stop stop-color="#4382FF"/>
<stop offset="1" stop-color="#2450DB"/>
<stop offset="1" stop-color="#0433BF"/>
</linearGradient>
<linearGradient id="paint21_linear" x1="2337.43" y1="1662.85" x2="483.671" y2="1662.85" gradientUnits="userSpaceOnUse">
<stop stop-color="#4382FF"/>
<stop offset="1" stop-color="#2450DB"/>
<stop offset="1" stop-color="#0433BF"/>
</linearGradient>
<linearGradient id="paint22_linear" x1="2340.74" y1="1653.91" x2="470.236" y2="1653.91" gradientUnits="userSpaceOnUse">
<stop stop-color="#4382FF"/>
<stop offset="1" stop-color="#2450DB"/>
<stop offset="1" stop-color="#0433BF"/>
</linearGradient>
<linearGradient id="paint23_linear" x1="2344.04" y1="1644.98" x2="456.802" y2="1644.98" gradientUnits="userSpaceOnUse">
<stop stop-color="#4382FF"/>
<stop offset="1" stop-color="#2450DB"/>
<stop offset="1" stop-color="#0433BF"/>
</linearGradient>
<linearGradient id="paint24_linear" x1="2347.28" y1="1636.01" x2="443.331" y2="1636.01" gradientUnits="userSpaceOnUse">
<stop stop-color="#4382FF"/>
<stop offset="1" stop-color="#2450DB"/>
<stop offset="1" stop-color="#0433BF"/>
</linearGradient>
<linearGradient id="paint25_linear" x1="2350.63" y1="1627.07" x2="429.902" y2="1627.07" gradientUnits="userSpaceOnUse">
<stop stop-color="#4382FF"/>
<stop offset="1" stop-color="#2450DB"/>
<stop offset="1" stop-color="#0433BF"/>
</linearGradient>
<linearGradient id="paint26_linear" x1="2353.94" y1="1618.17" x2="416.467" y2="1618.17" gradientUnits="userSpaceOnUse">
<stop stop-color="#4382FF"/>
<stop offset="1" stop-color="#2450DB"/>
<stop offset="1" stop-color="#0433BF"/>
</linearGradient>
<linearGradient id="paint27_linear" x1="2357.24" y1="1609.23" x2="403.033" y2="1609.23" gradientUnits="userSpaceOnUse">
<stop stop-color="#4382FF"/>
<stop offset="1" stop-color="#2450DB"/>
<stop offset="1" stop-color="#0433BF"/>
</linearGradient>
<linearGradient id="paint28_linear" x1="2360.44" y1="1600.31" x2="389.557" y2="1600.31" gradientUnits="userSpaceOnUse">
<stop stop-color="#4382FF"/>
<stop offset="1" stop-color="#2450DB"/>
<stop offset="1" stop-color="#0433BF"/>
</linearGradient>
<linearGradient id="paint29_linear" x1="2363.75" y1="1591.45" x2="376.122" y2="1591.45" gradientUnits="userSpaceOnUse">
<stop stop-color="#4382FF"/>
<stop offset="1" stop-color="#2450DB"/>
<stop offset="1" stop-color="#0433BF"/>
</linearGradient>
<linearGradient id="paint30_linear" x1="2367.01" y1="1582.47" x2="362.682" y2="1582.47" gradientUnits="userSpaceOnUse">
<stop stop-color="#4382FF"/>
<stop offset="1" stop-color="#2450DB"/>
<stop offset="1" stop-color="#0433BF"/>
</linearGradient>
<linearGradient id="paint31_linear" x1="2370.24" y1="1573.58" x2="349.237" y2="1573.58" gradientUnits="userSpaceOnUse">
<stop stop-color="#4382FF"/>
<stop offset="1" stop-color="#2450DB"/>
<stop offset="1" stop-color="#0433BF"/>
</linearGradient>
<linearGradient id="paint32_linear" x1="1942" y1="1.61715e-05" x2="1448" y2="236" gradientUnits="userSpaceOnUse">
<stop offset="0.588459" stop-color="#010450"/>
<stop offset="1" stop-color="#050B5B" stop-opacity="0"/>
</linearGradient>
<linearGradient id="paint33_linear" x1="686.321" y1="2042" x2="2.555e-05" y2="2369.88" gradientUnits="userSpaceOnUse">
<stop offset="0.588459" stop-color="#010450"/>
<stop offset="1" stop-color="#050B5B" stop-opacity="0"/>
</linearGradient>
</defs>
</svg>
