<svg width="925" height="549" viewBox="0 0 925 549" fill="none" xmlns="http://www.w3.org/2000/svg">
<path d="M870.019 62.0075C833.364 20.6565 783.876 0 721.515 0C684.861 0 652.367 7.54987 624.072 22.6115C596.277 37.4081 574.098 56.6692 557.474 80.4476V4.81195H556.568H367.527H367.451V294.198C367.451 324.987 359.406 349.166 343.355 366.809C327.265 384.453 305.405 393.255 277.776 393.255C250.776 393.255 229.074 384.453 212.669 366.809C196.265 349.166 188.063 324.987 188.063 294.198V4.81195H0V318.258C0 389.383 18.1708 445.64 54.4726 486.992C90.8141 528.305 140.498 549 203.485 549C240.141 549 272.635 541.45 300.931 526.389C329.188 511.365 351.401 491.649 367.451 467.275V544.188H367.527H556.568H557.474V237.724C559.98 214.932 567.718 196.431 580.705 182.191C596.757 164.586 618.929 155.744 647.224 155.744C674.225 155.744 695.77 164.586 711.862 182.191C727.913 199.836 735.959 224.013 735.959 254.802V544.188H925V229.804C925 159.304 906.673 103.36 870.019 62.0075Z" fill="#030755"/>
</svg>
