<svg width="1600" height="429" viewBox="0 0 1600 429" fill="none" xmlns="http://www.w3.org/2000/svg">
<path d="M1604 3.20887C1486.03 -8.55585 1294.88 15.4379 1157.41 29.3698C993.614 45.9333 704.811 43.7661 396.04 30.9178C177.765 21.9395 46.2914 53.5185 -12 72.8684V429.061H1604V3.20887Z" fill="#26272F"/>
<g opacity="0.25">
<mask id="mask0" mask-type="alpha" maskUnits="userSpaceOnUse" x="-26" y="0" width="1647" height="430">
<path d="M1621 3.66303C1500.77 -8.08915 1305.96 15.8791 1165.86 29.7961C998.926 46.3419 704.594 44.1771 389.91 31.3425C167.455 22.3737 33.4642 53.9191 -25.9434 73.2483V429.061H1621V3.66303Z" fill="#26272F"/>
</mask>
<g mask="url(#mask0)">
<path d="M1267.35 114.152C1242.35 114.315 1064.98 86.8192 1078.25 35.0944C1011.3 31.0151 945.12 38.3119 880.541 38.3119C883.147 39.1278 887.814 48.8839 890.421 49.8629C917.912 60.3057 987.113 73.1962 1002.16 114.152C1036.76 207.974 825.604 242.893 790.767 249.419C699.881 266.552 597.383 273.732 509.104 310.445C452.463 333.941 409.805 363.149 377.93 428.906H558.279C590.036 365.596 690.401 334.431 727.964 319.746C760.55 307.018 792.899 292.659 826.315 284.501C855.82 277.322 886.155 281.401 915.305 273.405C971.235 258.231 1016.5 199.979 1074.68 195.573C1142.34 190.352 1209.88 202.263 1277.54 198.021C1345.32 193.779 1407.06 198.674 1474.72 211.89C1531.48 222.823 1594.4 225.27 1649.86 244.361V151.681C1593.93 134.222 1537.17 119.373 1479.93 106.809C1409.07 107.951 1337.03 113.825 1267.35 114.152Z" fill="#363744"/>
<path d="M258.937 427.061H317.292C325.66 395.084 332.559 360.455 342.963 336.928C366.939 282.583 413.08 247.955 453.227 224.759C502.422 196.427 554.896 189.137 606.013 171.905C663.124 152.686 725.777 126.508 760.269 51.2865C761.853 47.8071 767.191 37.8718 769 34.0611C724.781 35.2209 678.833 37.9899 636.763 40.6409C633.145 54.5584 625.465 74.3167 615.06 88.2343C585.657 127.833 542.569 137.774 504.344 146.224C461.257 155.834 418.847 166.769 374.516 166.769C266.74 166.769 162.131 171.905 58.2001 223.765C37.0521 234.369 16.6957 244.641 -4 253.92V333.614C35.5819 325.661 75.503 309.59 109.317 294.016C134.989 282.086 160.095 259.719 186.445 252.263C207.028 246.464 303.608 207.859 318.423 242.819C332.559 276.287 284.382 358.136 272.281 390.113C269.907 396.741 265.157 410.824 258.937 427.061Z" fill="#363744"/>
</g>
</g>
</svg>
