<?xml version="1.0" encoding="UTF-8"?>
<svg width="1606px" height="316px" viewBox="0 0 1606 316" version="1.1" xmlns="http://www.w3.org/2000/svg" xmlns:xlink="http://www.w3.org/1999/xlink">
    <!-- Generator: Sketch 60.1 (88133) - https://sketch.com -->
    <title>Slice</title>
    <desc>Created with Sketch.</desc>
    <defs>
        <path d="M1606.61,2.42364 C1489.4,-6.25356 1299.47,11.4433 1162.88,21.7189 C1000.139,33.9355 713.191,32.3371 406.402,22.8607 C189.529,16.2386 58.8996,39.5301 0.9824,53.8018 L0.9824,316.515 L1606.61,316.515 L1606.61,2.42364 Z" id="path-1"></path>
    </defs>
    <g id="Page-1" stroke="none" stroke-width="1" fill="none" fill-rule="evenodd">
        <g id="footer-bg" transform="translate(-15.000000, -1.000000)">
            <path d="M1620.61,2.42364 C1503.4,-6.25356 1313.47,11.4433 1176.88,21.7189 C1014.14,33.9355 727.191,32.3371 420.402,22.8607 C203.529,16.2386 72.8996,39.5301 14.982422,53.8018 L14.982422,316.515 L1620.61,316.515 L1620.61,2.42364 Z" id="Path" fill="#26272F" fill-rule="nonzero"></path>
            <g id="Clipped">
                <mask id="mask-2" fill="white">
                    <use xlink:href="#path-1"></use>
                </mask>
                <g id="Path"></g>
                <g id="Group" mask="url(#mask-2)" fill="#363744" fill-rule="nonzero">
                    <g transform="translate(22.000000, 24.000000)" id="Path">
                        <path d="M1239.83,60.0028 C1215.46,60.1233 1042.53,39.8218 1055.47,1.6309 C990.202,-1.381 925.684,4.0066 862.725,4.0066 C865.266,4.609 869.816,11.8124 872.357,12.5352 C899.158,20.2457 966.623,29.7633 981.294,60.0028 C1015.03,129.277 809.166,155.058 775.203,159.877 C686.597,172.527 586.671,177.828 500.607,204.935 C445.387,222.284 403.799,243.849 372.724,292.401 L548.548,292.401 C579.508,245.656 677.356,222.645 713.976,211.803 C745.745,202.405 777.282,191.804 809.86,185.78 C838.625,180.479 868.198,183.491 896.617,177.587 C951.143,166.383 995.27,123.373 1051.99,120.12 C1117.96,116.265 1183.8,125.06 1249.77,121.927 C1315.85,118.795 1376.03,122.409 1442,132.168 C1497.33,140.24 1558.67,142.047 1612.74,156.143 L1612.74,87.712 C1558.21,74.8213 1502.88,63.858 1447.08,54.5814 C1378,55.4247 1307.76,59.7618 1239.83,60.0028 Z"></path>
                        <path d="M256.561,281.011 L313.462,281.011 C321.623,258.201 328.349,233.501 338.495,216.719 C361.873,177.954 406.864,153.253 446.011,136.707 C493.98,116.498 545.148,111.298 594.991,99.006 C650.68,85.297 711.771,66.6237 745.405,12.9677 C746.948,10.4858 752.153,3.3989 753.918,0.6807 C710.801,1.508 665.997,3.4832 624.975,5.3741 C621.447,15.3017 613.958,29.3954 603.813,39.3229 C575.142,67.5691 533.128,74.6602 495.855,80.688 C453.841,87.542 412.488,95.343 369.261,95.343 C264.17,95.343 162.167,99.006 60.8254,135.998 C40.2042,143.562 20.3549,150.89 0.1748,157.508 L0.1748,214.355 C38.7706,208.682 77.6972,197.218 110.669,186.109 C135.701,177.599 160.182,161.644 185.876,156.326 C205.946,152.19 300.119,124.652 314.565,149.589 C328.349,173.463 281.373,231.846 269.574,254.656 C267.258,259.383 262.626,269.429 256.561,281.011 Z"></path>
                    </g>
                </g>
            </g>
        </g>
    </g>
</svg>