<svg width="703" height="131" viewBox="0 0 703 131" fill="none" xmlns="http://www.w3.org/2000/svg">
<path d="M195.368 168.762C212.643 148.899 222.99 125.412 238.393 104.517C253.796 83.6213 275.886 64.6167 307.8 59.3172C364.504 49.8904 436.063 85.698 488.741 69.7643C513.791 62.1888 528.768 44.3253 545.453 28.8337C562.137 13.3421 584.51 -1.13101 613.653 1.09202C638.071 2.95169 662.17 16.8148 676.978 33.6725C691.796 50.5235 698.465 69.9399 701.257 88.586C711.429 156.371 672.954 217.885 610.894 256.475C548.834 295.065 465.382 312.555 379.165 316.684C292.958 320.814 203.369 312.303 114.34 302.796C94.6204 300.691 74.5943 298.469 55.3151 292.355C36.0359 286.241 17.2701 275.631 7.26819 261.385C0.185322 251.305 -4.81883 232.908 9.53376 228.521C21.0028 225.02 41.9049 229.306 54.9417 228.523C92.2642 226.3 126.918 216.682 154.996 200.927C170.778 192.072 184.496 181.258 195.368 168.762Z" fill="url(#paint0_linear)"/>
<defs>
<linearGradient id="paint0_linear" x1="703.535" y1="201.761" x2="0.0863819" y2="206.718" gradientUnits="userSpaceOnUse">
<stop stop-color="#7ED4EF"/>
<stop offset="0.2294" stop-color="#66BFE6"/>
<stop offset="0.711" stop-color="#298BD0"/>
<stop offset="1" stop-color="#0169C2"/>
</linearGradient>
</defs>
</svg>
