<svg width="1024" height="909" viewBox="0 0 1024 909" fill="none" xmlns="http://www.w3.org/2000/svg">
<rect x="-718" y="-11" width="2560" height="905.638" fill="#EFF6FF"/>
<g opacity="0.9">
<path d="M431.218 704.321C745.37 498.863 768.324 558.367 967.774 609.318V861.16L-229.344 877.99C-232.407 880.522 -235.403 883.05 -238.328 885.568C-238.328 885.568 -249.992 882.9 -270.029 878.562L-1438 894.982V871.723C-1438 871.723 -1367.5 780.561 -1200 729.252C-1032.5 677.942 -911.5 818.78 -759.5 809.952C-634.519 802.693 -362.711 858.494 -270.029 878.562L-229.344 877.99C-134.706 799.765 25.0842 716.854 173.258 750.644C340.148 788.701 357.176 752.744 431.218 704.321Z" fill="url(#paint0_linear)"/>
<path d="M-503.862 841.411C-443.422 851.289 -384.6 862.549 -337.885 872.015L-1430.5 887.376V874.398C-1430.08 873.899 -1429.58 873.307 -1428.98 872.627C-1426.83 870.148 -1423.53 866.502 -1419.03 861.946C-1410.03 852.832 -1396.26 840.075 -1377.28 825.707C-1339.35 796.979 -1280.63 761.794 -1197.8 736.423C-1116.66 711.566 -1046.63 733.052 -976.69 760.648C-967.64 764.219 -958.575 767.902 -949.48 771.598C-888.891 796.217 -826.958 821.383 -759.065 817.439C-697.509 813.864 -599.077 825.851 -503.862 841.411ZM898.184 597.528C917.005 603.177 937.475 609.191 960.274 615.129V853.764L-207.508 870.182C-162.984 835.978 -106.773 802.247 -45.4923 779.337C23.9241 753.384 99.3688 741.487 171.591 757.956C255.371 777.061 302.921 777.954 339.206 767.098C357.357 761.667 372.325 753.404 387.257 743.611C394.174 739.074 401.152 734.162 408.405 729.057L410.036 727.909C417.911 722.368 426.184 716.574 435.323 710.597C592.414 607.858 675.212 572.451 742.984 568.151C776.773 566.007 807.249 571.575 842.007 581.013C856.074 584.833 870.733 589.254 886.598 594.039C890.388 595.182 894.248 596.346 898.184 597.528Z" stroke="#A5BBF5" stroke-opacity="0.15" stroke-width="15"/>
</g>
<path d="M1001.51 167.805C807.009 165.862 753.738 51.8542 734.008 -11.1328H1842.01V564.494C1566.11 610.156 1413.48 521.747 1373.86 347.845C1283.85 375.047 1227.1 325.986 1211.45 275.466C1127.7 307.721 1022.51 237.904 1001.51 167.805Z" fill="url(#paint1_linear)"/>
<path opacity="0.9" d="M1062.67 818.232C1233.67 903.309 1361.67 698.786 1361.67 612.546V891.632H372.538C352.838 894.574 332.726 894.194 312.494 891.632H-238.327C-238.327 891.632 -89.8271 803.085 91.1729 830.295C155.77 840.005 235.01 881.819 312.494 891.632H372.538C400.161 887.506 426.974 876.847 452.173 856.51C564.173 766.119 759.173 667.233 1062.67 818.232Z" fill="#4166DB"/>
<path opacity="0.2" d="M1493.51 100.934C1200.86 203.507 1021.01 100.934 953.508 -10.2104L1842.22 -10.2104V387.06C1819.35 216.027 1693.51 30.8346 1493.51 100.934Z" fill="url(#paint2_linear)"/>
<path d="M963.27 349.184L1086.61 467.239C1090.7 471.158 1092.94 476.629 1092.77 482.294L1091.07 538.179L934.203 443.682L919.108 341.667L963.27 349.184Z" fill="#D6EEFD"/>
<path d="M973.855 321.486C984.901 321.486 993.855 330.441 993.855 341.486V349.185H963.271C950.207 349.185 939.615 359.735 939.615 372.75V517.272H801.684V372.75C801.684 359.735 791.092 349.185 778.027 349.185H745.753V341.486C745.753 330.441 754.708 321.486 765.753 321.486H973.855Z" fill="white"/>
<path d="M909.035 365.904H920.353C923.728 365.904 926.464 368.64 926.464 372.015C926.464 375.39 923.728 378.126 920.353 378.126H909.035C905.66 378.126 902.924 375.39 902.924 372.015C902.924 368.64 905.66 365.904 909.035 365.904Z" fill="#021859"/>
<path d="M877.84 365.904H889.159C892.534 365.904 895.27 368.64 895.27 372.015C895.27 375.39 892.534 378.126 889.159 378.126H877.84C874.465 378.126 871.729 375.39 871.729 372.015C871.729 368.64 874.465 365.904 877.84 365.904Z" fill="#021859"/>
<path d="M846.647 365.904H857.965C861.34 365.904 864.076 368.64 864.076 372.015C864.076 375.39 861.34 378.126 857.965 378.126H846.647C843.272 378.126 840.536 375.39 840.536 372.015C840.536 368.64 843.272 365.904 846.647 365.904Z" fill="#021859"/>
<path d="M815.453 365.904H826.771C830.146 365.904 832.882 368.64 832.882 372.015C832.882 375.39 830.146 378.126 826.771 378.126H815.453C812.078 378.126 809.342 375.39 809.342 372.015C809.342 368.64 812.078 365.904 815.453 365.904Z" fill="#021859"/>
<path d="M909.035 390.568H920.353C923.728 390.568 926.464 393.304 926.464 396.679C926.464 400.054 923.728 402.79 920.353 402.79H909.035C905.66 402.79 902.924 400.054 902.924 396.679C902.924 393.304 905.66 390.568 909.035 390.568Z" fill="#021859"/>
<path d="M877.84 390.568H889.159C892.534 390.568 895.27 393.304 895.27 396.679C895.27 400.054 892.534 402.79 889.159 402.79H877.84C874.465 402.79 871.729 400.054 871.729 396.679C871.729 393.304 874.465 390.568 877.84 390.568Z" fill="#021859"/>
<path d="M846.647 390.568H857.965C861.34 390.568 864.076 393.304 864.076 396.679C864.076 400.054 861.34 402.79 857.965 402.79H846.647C843.272 402.79 840.536 400.054 840.536 396.679C840.536 393.304 843.272 390.568 846.647 390.568Z" fill="#021859"/>
<path d="M815.453 390.568H826.771C830.146 390.568 832.882 393.304 832.882 396.679C832.882 400.054 830.146 402.79 826.771 402.79H815.453C812.078 402.79 809.342 400.054 809.342 396.679C809.342 393.304 812.078 390.568 815.453 390.568Z" fill="#021859"/>
<path d="M812.496 310.672H933.818C939.79 310.672 944.631 315.514 944.631 321.486H801.682C801.682 315.514 806.524 310.672 812.496 310.672Z" fill="white"/>
<path d="M809.648 292.658H937.312V310.672H809.648V292.658Z" fill="#021859"/>
<path d="M906.592 292.658H931.626V310.672H906.592V292.658Z" fill="#DBE7FF"/>
<path d="M876.099 292.658H901.133V310.672H876.099V292.658Z" fill="#DBE7FF"/>
<path d="M845.606 292.658H870.641V310.672H845.606V292.658Z" fill="#DBE7FF"/>
<path d="M815.113 292.658H840.147V310.672H815.113V292.658Z" fill="#DBE7FF"/>
<path d="M814.472 280.916H932.528C936.655 280.916 940 284.261 940 288.388C940 292.515 936.655 295.861 932.528 295.861H814.472C810.345 295.861 807 292.515 807 288.388C807 284.261 810.345 280.916 814.472 280.916Z" fill="#021859"/>
<path d="M809.45 277.861H937.601C941.687 277.861 945 281.173 945 285.26C945 289.346 941.687 292.658 937.601 292.658H809.45C805.364 292.658 802.052 289.346 802.052 285.26C802.052 281.173 805.364 277.861 809.45 277.861Z" fill="white"/>
<path d="M689.543 396.784C688.962 374.637 688.482 352.497 687.466 330.224C687.287 328.273 687.109 326.256 686.882 324.223C700.788 328.884 927.891 406.159 1109.09 541.392C1114.09 545.126 1117 551.021 1117 557.264V579.959C1060.22 543.126 1000.82 510.049 938.92 479.654C859.054 440.581 775.471 414.932 689.543 396.784Z" fill="url(#paint3_linear)"/>
<path d="M689.06 378.067L688.846 369.991C702.955 374.72 934.57 424.228 1117 563.151V569.732C968.167 457.868 774.988 396.215 689.06 378.067Z" fill="url(#paint4_linear)"/>
<path d="M691.791 456.186C690.657 436.312 690.06 416.545 689.541 396.784C775.47 414.932 859.053 440.581 938.918 479.654C1000.82 510.049 1060.22 543.126 1117 579.959V609.325H686.205C686.205 609.325 686.019 608.096 685.629 605.809C687.058 598.768 688.206 591.687 688.906 584.543C692.272 541.438 694.195 499.291 691.791 456.186Z" fill="url(#paint5_linear)"/>
<path d="M689.061 378.126C689.222 384.312 689.377 390.495 689.539 396.679C666.631 406.458 648.194 422.806 632.923 442.11C630.29 436.967 627.538 431.878 624.672 426.87C641.276 405.388 664.004 389.003 689.061 378.126Z" fill="#002490"/>
<path d="M622.725 423.553C619.126 417.578 618.312 410.289 621.269 403.971C629.081 387.278 648.46 352.985 686.207 323.997C686.207 323.997 686.437 324.073 686.882 324.222C687.108 326.256 687.287 328.273 687.465 330.223C688.082 343.749 688.498 357.223 688.862 370.681C661.759 380.296 641.546 401.718 622.725 423.553Z" fill="#002490"/>
<path d="M688.846 369.991C688.914 372.473 688.997 375.645 689.062 378.126C664.004 389.003 643.223 408.704 626.619 430.186C625.344 427.958 624.045 425.747 622.724 423.553C640.115 400.387 661.022 379.874 688.846 369.991Z" fill="url(#paint6_linear)"/>
<path d="M689.54 396.679C690.059 416.475 690.657 436.277 691.792 456.186C694.196 499.291 692.273 541.438 688.907 584.543C688.208 591.687 687.059 598.768 685.63 605.809C682.679 588.533 668.006 510.639 632.924 442.11C648.195 422.806 666.632 406.458 689.54 396.679Z" fill="url(#paint7_linear)"/>
<path d="M1022.75 554.759C1020.53 554.759 1018.73 552.968 1018.73 550.758C1018.73 548.548 1020.53 546.756 1022.75 546.756C1024.96 546.756 1026.76 548.548 1026.76 550.758C1026.76 552.968 1024.96 554.759 1022.75 554.759Z" fill="white" stroke="#002490" stroke-width="2.7273" stroke-miterlimit="10"/>
<path d="M993.548 542.993C991.047 542.993 989.018 540.973 989.018 538.481C989.018 535.989 991.047 533.968 993.548 533.968C996.05 533.968 998.078 535.989 998.078 538.481C998.078 540.973 996.05 542.993 993.548 542.993Z" fill="white" stroke="#002490" stroke-width="2.9091" stroke-miterlimit="10"/>
<path d="M961.121 530.87C958.336 530.87 956.078 528.621 956.078 525.847C956.078 523.073 958.336 520.824 961.121 520.824C963.906 520.824 966.163 523.073 966.163 525.847C966.163 528.621 963.906 530.87 961.121 530.87Z" fill="white" stroke="#002490" stroke-width="3.0909" stroke-miterlimit="10"/>
<path d="M926.174 518.85C923.106 518.85 920.619 516.373 920.619 513.317C920.619 510.26 923.106 507.783 926.174 507.783C929.242 507.783 931.729 510.26 931.729 513.317C931.729 516.373 929.242 518.85 926.174 518.85Z" fill="white" stroke="#002490" stroke-width="3.2727" stroke-miterlimit="10"/>
<path d="M889.415 507.391C886.064 507.391 883.347 504.685 883.347 501.347C883.347 498.009 886.064 495.303 889.415 495.303C892.766 495.303 895.482 498.009 895.482 501.347C895.482 504.685 892.766 507.391 889.415 507.391Z" fill="white" stroke="#002490" stroke-width="3.4545" stroke-miterlimit="10"/>
<path d="M851.553 496.952C847.919 496.952 844.973 494.017 844.973 490.397C844.973 486.777 847.919 483.842 851.553 483.842C855.188 483.842 858.134 486.777 858.134 490.397C858.134 494.017 855.188 496.952 851.553 496.952Z" fill="white" stroke="#002490" stroke-width="3.6364" stroke-miterlimit="10"/>
<path d="M813.301 487.993C809.384 487.993 806.208 484.83 806.208 480.927C806.208 477.025 809.384 473.861 813.301 473.861C817.219 473.861 820.395 477.025 820.395 480.927C820.395 484.83 817.219 487.993 813.301 487.993Z" fill="white" stroke="#002490" stroke-width="3.8182" stroke-miterlimit="10"/>
<path d="M775.368 480.971C771.167 480.971 767.762 477.579 767.762 473.394C767.762 469.21 771.167 465.817 775.368 465.817C779.568 465.817 782.974 469.21 782.974 473.394C782.974 477.579 779.568 480.971 775.368 480.971Z" fill="white" stroke="#002490" stroke-width="4" stroke-miterlimit="10"/>
<path d="M1086.8 497.005C1086.8 498.784 1084.8 499.822 1083.35 498.794L960.703 411.938C959.091 410.796 958.133 408.944 958.133 406.968C958.133 401.882 964.001 399.037 967.994 402.188L1085.97 495.284C1086.5 495.7 1086.8 496.334 1086.8 497.005Z" fill="#021859"/>
<path d="M1085.99 480.954C1086.51 481.411 1086.8 482.069 1086.8 482.759C1086.8 484.79 1084.44 485.909 1082.87 484.624L960.139 384.316C958.869 383.279 958.133 381.727 958.133 380.088C958.133 375.383 963.685 372.88 967.211 375.995L1085.99 480.954Z" fill="#021859"/>
<path d="M1014.69 452.436L1022.47 458.569V421.831L1014.69 415.699V452.436Z" fill="#D6EEFD"/>
<path d="M981.749 430.201L992.033 438.309V389.736L981.749 381.628V430.201Z" fill="#D6EEFD"/>
<path d="M901.682 268.374V199.346C901.682 197.625 903.077 196.23 904.798 196.23C906.518 196.23 907.913 197.625 907.913 199.346V268.374C907.913 270.095 906.518 271.49 904.798 271.49C903.077 271.49 901.682 270.095 901.682 268.374Z" fill="#021859"/>
<path d="M884.125 268.374V225.725C884.125 224.004 885.52 222.609 887.24 222.609C888.961 222.609 890.355 224.004 890.355 225.725V268.374C890.355 270.094 888.961 271.489 887.24 271.489C885.52 271.489 884.125 270.094 884.125 268.374Z" fill="#021859"/>
<path d="M838 268.374V244.864C838 243.143 839.394 241.748 841.115 241.748C842.836 241.748 844.23 243.143 844.23 244.864V268.374C844.23 270.095 842.836 271.49 841.115 271.49C839.394 271.49 838 270.095 838 268.374Z" fill="#021859"/>
<path d="M865.335 271.49C859.313 271.49 854.431 266.627 854.431 260.628C854.431 254.629 859.313 249.766 865.335 249.766C871.357 249.766 876.239 254.629 876.239 260.628C876.239 266.627 871.357 271.49 865.335 271.49Z" fill="#021859"/>
<path d="M679.473 578.694C683.136 579.061 689.031 586.423 691.232 590.184L682.348 592.176L679.473 578.694Z" fill="#EAEAEA"/>
<path opacity="0.8" d="M679 576.818C682.664 577.185 688.736 584.439 690.937 588.2L682.053 590.192L679 576.818Z" fill="#EAEAEA"/>
<path opacity="0.9" d="M830.522 589.241C833.012 588.97 835.962 590.068 835.962 590.068L837.808 589.456C843.616 587.21 846.789 590.821 846.789 590.821L849.853 589.442C858.313 587.025 861.605 592.996 861.605 592.996C864.947 592.536 868.04 594.759 869.734 596.286C874.541 597.076 884.576 600.52 884.576 600.52L870.921 598.446L868.273 598.043L825.236 591.506C825.236 591.506 828.033 589.513 830.522 589.241Z" fill="white"/>
<path opacity="0.9" d="M700.322 579.39C700.322 579.39 711.507 564.143 722.326 568.376C722.326 568.376 731.121 550.548 749.082 561.802L755.456 567.493C755.456 567.493 763.372 557.2 775.55 566.81L779.447 569.535C779.447 569.535 786.217 567.223 791.617 569.121C797.018 571.02 802.645 578.577 802.645 578.577L700.428 582.049L700.322 579.39Z" fill="white"/>
<path d="M810.632 583.312C813.122 583.041 816.071 584.138 816.071 584.138L817.917 583.527C823.725 581.281 826.898 584.891 826.898 584.891L829.962 583.513C838.422 581.096 841.714 587.066 841.714 587.066C845.057 586.607 848.15 588.83 849.843 590.356C854.65 591.147 864.685 594.59 864.685 594.59L851.03 592.516L848.382 592.114L805.345 585.577C805.345 585.577 808.142 583.584 810.632 583.312Z" fill="white"/>
<path d="M688.8 585.371C688.8 585.371 699.985 570.124 710.804 574.357C710.804 574.357 719.598 556.529 737.56 567.782L743.934 573.474C743.934 573.474 751.85 563.181 764.028 572.791L767.925 575.516C767.925 575.516 774.694 573.204 780.095 575.102C785.496 577.001 791.123 584.558 791.123 584.558L688.906 588.03L688.8 585.371Z" fill="white"/>
<path d="M914.125 585.839C1189.21 651.484 1307.73 550.753 1357.1 445.804C1380.09 396.933 1568 222.551 1784 354.643C2000 486.735 2148.5 537.861 2261.5 445.804C2374.5 353.748 2562 398.978 2562 398.978V908.867H-1438V844.624L-1438 694.382C-1191.5 585.839 -1173 783.088 -926 774.069C-679 765.05 -687 844.624 -546 844.624C-391.5 844.624 -250.564 783.088 -250.564 783.088C-250.564 783.088 -122.228 740.864 43.7717 774.069C126.646 790.646 187.62 793 282.647 774.069C377.512 755.171 621.415 515.987 914.125 585.839Z" fill="url(#paint8_linear)"/>
<path opacity="0.95" fill-rule="evenodd" clip-rule="evenodd" d="M564.367 768.935C535.192 775.05 541.367 800.188 541.367 800.188C560.247 792.611 602.452 769.905 652.349 744.16C652.349 744.16 644.469 739.724 637.817 740.035C631.165 740.346 625.19 745.685 625.19 745.685L619.708 744.481C602.026 739.564 598.861 753.81 598.861 753.81L589.273 750.539C564.663 746.366 564.367 768.935 564.367 768.935Z" fill="white"/>
<path opacity="0.5" fill-rule="evenodd" clip-rule="evenodd" d="M572.801 764.836C543.626 770.951 549.802 796.089 549.802 796.089C568.681 788.512 610.886 765.806 660.784 740.061C660.784 740.061 652.904 735.624 646.252 735.936C639.6 736.247 633.625 741.586 633.625 741.586L628.143 740.382C610.461 735.464 607.296 749.711 607.296 749.711L597.707 746.44C573.098 742.266 572.801 764.836 572.801 764.836Z" fill="white"/>
<path d="M282.647 774.069C377.512 755.171 621.415 515.987 914.125 585.839C1189.21 651.484 1307.73 550.753 1357.1 445.804C1380.09 396.933 1568 222.551 1784 354.643C2000 486.735 2148.5 537.861 2261.5 445.804C2374.5 353.748 2562 398.978 2562 398.978V418.687L2542 413.923C2542 413.923 2379 369.191 2266 461.247C2153 553.303 2000 501.679 1784 369.587C1568 237.496 1380.09 411.877 1357.1 460.749C1307.73 565.698 1189.21 666.429 914.125 600.783C621.415 530.931 377.512 770.115 282.647 789.014C187.62 807.944 126.646 805.591 43.7717 789.014C-122.228 755.809 -250.564 798.032 -250.564 798.032C-250.564 798.032 -391.5 859.568 -546 859.568C-687 859.568 -679 779.995 -926 789.014C-1173 798.032 -1204 597.74 -1426 703.348L-1438 709.607L-1438 694.382C-1191.5 585.839 -1173 783.088 -926 774.069C-679 765.05 -687 844.624 -546 844.624C-391.5 844.624 -250.564 783.088 -250.564 783.088C-250.564 783.088 -122.228 740.864 43.7717 774.069C126.646 790.646 187.62 793 282.647 774.069Z" fill="#A5BBF5" fill-opacity="0.15"/>
<path d="M282.647 774.069C377.512 755.171 621.415 515.987 914.125 585.839C1189.21 651.484 1307.73 550.753 1357.1 445.804C1380.09 396.933 1568 222.551 1784 354.643C2000 486.735 2148.5 537.861 2261.5 445.804C2374.5 353.748 2562 398.978 2562 398.978V418.687L2542 413.923C2542 413.923 2379 369.191 2266 461.247C2153 553.303 2000 501.679 1784 369.587C1568 237.496 1380.09 411.877 1357.1 460.749C1307.73 565.698 1189.21 666.429 914.125 600.783C621.415 530.931 377.512 770.115 282.647 789.014C187.62 807.944 126.646 805.591 43.7717 789.014C-122.228 755.809 -250.564 798.032 -250.564 798.032C-250.564 798.032 -391.5 859.568 -546 859.568C-687 859.568 -679 779.995 -926 789.014C-1173 798.032 -1204 597.74 -1426 703.348L-1438 709.607L-1438 694.382C-1191.5 585.839 -1173 783.088 -926 774.069C-679 765.05 -687 844.624 -546 844.624C-391.5 844.624 -250.564 783.088 -250.564 783.088C-250.564 783.088 -122.228 740.864 43.7717 774.069C126.646 790.646 187.62 793 282.647 774.069Z" fill="url(#paint9_radial)" fill-opacity="0.6"/>
<path opacity="0.95" fill-rule="evenodd" clip-rule="evenodd" d="M759.083 691.287C729.676 679.782 699.276 721.222 699.276 721.222L699.564 725.836C741.39 708.264 850.653 671.048 974.532 714.961C974.532 714.961 962.095 698.474 947.415 693.313C932.736 688.152 914.337 694.437 914.337 694.437L903.744 687.031C870.646 660.911 849.13 688.886 849.13 688.886L831.805 673.417C782.986 642.83 759.083 691.287 759.083 691.287Z" fill="white"/>
<path opacity="0.3" fill-rule="evenodd" clip-rule="evenodd" d="M779.173 688.505C750.558 675.905 718.28 719.804 718.28 719.804C761.159 705.256 865.945 669.757 991.905 723.022C991.905 723.022 981.362 706.375 967.04 700.642C952.719 694.909 933.948 699.926 933.948 699.926L923.851 692.267C892.49 665.482 869.214 691.084 869.214 691.084L852.914 675.346C806.148 643.436 779.173 688.505 779.173 688.505Z" fill="white"/>
<path d="M1407.67 511.343C1407.67 511.343 1194.97 818.503 1024.24 734.242C791.569 619.41 655.621 755.503 376.635 871.846C368.849 875.093 365.893 884.72 370.68 891.666C654.378 774.71 790.644 635.397 1025.24 751.179C1195.97 835.441 1408.67 528.28 1408.67 528.28C1408.67 528.28 1521.5 396.487 1622.5 396.487C1723.5 396.487 1777 428.507 1926.5 559.383C2076 690.26 2129.5 557.889 2286.5 603.361C2443.5 648.832 2546 539.955 2546 539.955L2562 525.089V502.095C2562 502.095 2442.5 631.895 2285.5 586.423C2128.5 540.952 2075 673.322 1925.5 542.446C1776 411.57 1722.5 379.55 1621.5 379.55C1520.5 379.55 1407.67 511.343 1407.67 511.343Z" fill="#5073DF"/>
<path d="M1407.67 511.343C1407.67 511.343 1194.97 818.503 1024.24 734.242C791.569 619.41 655.621 755.503 376.635 871.846C368.849 875.093 365.893 884.72 370.68 891.666C654.378 774.71 790.644 635.397 1025.24 751.179C1195.97 835.441 1408.67 528.28 1408.67 528.28C1408.67 528.28 1521.5 396.487 1622.5 396.487C1723.5 396.487 1777 428.507 1926.5 559.383C2076 690.26 2129.5 557.889 2286.5 603.361C2443.5 648.832 2546 539.955 2546 539.955L2562 525.089V502.095C2562 502.095 2442.5 631.895 2285.5 586.423C2128.5 540.952 2075 673.322 1925.5 542.446C1776 411.57 1722.5 379.55 1621.5 379.55C1520.5 379.55 1407.67 511.343 1407.67 511.343Z" fill="url(#paint10_linear)"/>
<ellipse opacity="0.34" cy="-0.497711" rx="405" ry="403.502" fill="white"/>
<ellipse opacity="0.5" cx="0.5" cy="0.000823975" rx="292.5" ry="291.418" fill="white"/>
<ellipse cy="-0.497574" rx="143" ry="142.471" fill="#FFF5DE"/>
<defs>
<linearGradient id="paint0_linear" x1="572.146" y1="737.478" x2="572.146" y2="984.65" gradientUnits="userSpaceOnUse">
<stop stop-color="#8CA8FF"/>
<stop offset="0.807292" stop-color="#345BD8"/>
</linearGradient>
<linearGradient id="paint1_linear" x1="1616" y1="37.8183" x2="643.058" y2="132.396" gradientUnits="userSpaceOnUse">
<stop stop-color="#9ED1FF"/>
<stop offset="1" stop-color="#BDE3FB" stop-opacity="0"/>
</linearGradient>
<linearGradient id="paint2_linear" x1="1610.43" y1="72.2395" x2="1821.86" y2="-22.2682" gradientUnits="userSpaceOnUse">
<stop stop-color="white"/>
<stop offset="1" stop-color="white" stop-opacity="0"/>
</linearGradient>
<linearGradient id="paint3_linear" x1="670.47" y1="328.252" x2="740.113" y2="362.426" gradientUnits="userSpaceOnUse">
<stop stop-color="#002490"/>
<stop offset="1" stop-color="#021859"/>
</linearGradient>
<linearGradient id="paint4_linear" x1="729.947" y1="333.158" x2="1019.04" y2="600.922" gradientUnits="userSpaceOnUse">
<stop stop-color="#FFC74E"/>
<stop offset="0.962919" stop-color="#B71C22"/>
</linearGradient>
<linearGradient id="paint5_linear" x1="727.038" y1="357.59" x2="1032.92" y2="625.845" gradientUnits="userSpaceOnUse">
<stop stop-color="#8C0002"/>
<stop offset="0.962919" stop-color="#B71C22"/>
</linearGradient>
<linearGradient id="paint6_linear" x1="637" y1="413" x2="679" y2="364" gradientUnits="userSpaceOnUse">
<stop stop-color="#B71C22"/>
<stop offset="1" stop-color="#FFC74E"/>
</linearGradient>
<linearGradient id="paint7_linear" x1="638.678" y1="358.114" x2="712.738" y2="367.286" gradientUnits="userSpaceOnUse">
<stop stop-color="#8C0002"/>
<stop offset="0.962919" stop-color="#B71C22"/>
</linearGradient>
<linearGradient id="paint8_linear" x1="580.158" y1="312.82" x2="580.158" y2="1030.41" gradientUnits="userSpaceOnUse">
<stop stop-color="#4166DB"/>
<stop offset="1" stop-color="#2F53CB"/>
</linearGradient>
<radialGradient id="paint9_radial" cx="0" cy="0" r="1" gradientUnits="userSpaceOnUse" gradientTransform="translate(921.796 588.063) rotate(159.473) scale(448.85 614.228)">
<stop stop-color="white" stop-opacity="0.8"/>
<stop offset="1" stop-color="white" stop-opacity="0"/>
</radialGradient>
<linearGradient id="paint10_linear" x1="375.803" y1="879.627" x2="596.577" y2="783.381" gradientUnits="userSpaceOnUse">
<stop stop-color="#3256CE"/>
<stop offset="1" stop-color="#5073DF"/>
</linearGradient>
</defs>
</svg>
