<svg width="2560" height="1001" viewBox="0 0 2560 1001" fill="none" xmlns="http://www.w3.org/2000/svg">
<g clip-path="url(#clip0)">
<path d="M2560 0H0V987H2560V0Z" fill="#EFF6FF"/>
<path d="M1894.87 496.204L2004.2 600.844C2008.29 604.763 2010.53 610.234 2010.36 615.899L2008.87 664.788L1868.95 580.496L1855.48 489.499L1894.87 496.204Z" fill="#D6EEFD"/>
<path d="M1902.15 471.497C1913.2 471.497 1922.15 480.451 1922.15 491.497V496.204H1894.87C1883.22 496.204 1873.77 505.615 1873.77 517.224V646.138H1750.74V517.224C1750.74 505.615 1741.29 496.204 1729.64 496.204H1700.85V491.497C1700.85 480.451 1709.8 471.497 1720.85 471.497H1902.15Z" fill="white"/>
<path d="M1846.49 511.118H1856.59C1859.6 511.118 1862.04 513.558 1862.04 516.569C1862.04 519.579 1859.6 522.02 1856.59 522.02H1846.49C1843.48 522.02 1841.04 519.579 1841.04 516.569C1841.04 513.558 1843.48 511.118 1846.49 511.118Z" fill="#021859"/>
<path d="M1818.67 511.118H1828.77C1831.78 511.118 1834.22 513.558 1834.22 516.569C1834.22 519.579 1831.78 522.02 1828.77 522.02H1818.67C1815.66 522.02 1813.22 519.579 1813.22 516.569C1813.22 513.558 1815.66 511.118 1818.67 511.118Z" fill="#021859"/>
<path d="M1790.85 511.118H1800.94C1803.95 511.118 1806.39 513.558 1806.39 516.569C1806.39 519.579 1803.95 522.02 1800.94 522.02H1790.85C1787.83 522.02 1785.39 519.579 1785.39 516.569C1785.39 513.558 1787.83 511.118 1790.85 511.118Z" fill="#021859"/>
<path d="M1763.02 511.118H1773.12C1776.13 511.118 1778.57 513.558 1778.57 516.569C1778.57 519.579 1776.13 522.02 1773.12 522.02H1763.02C1760.01 522.02 1757.57 519.579 1757.57 516.569C1757.57 513.558 1760.01 511.118 1763.02 511.118Z" fill="#021859"/>
<path d="M1846.49 533.119H1856.59C1859.6 533.119 1862.04 535.559 1862.04 538.57C1862.04 541.58 1859.6 544.021 1856.59 544.021H1846.49C1843.48 544.021 1841.04 541.58 1841.04 538.57C1841.04 535.559 1843.48 533.119 1846.49 533.119Z" fill="#021859"/>
<path d="M1818.67 533.119H1828.77C1831.78 533.119 1834.22 535.559 1834.22 538.57C1834.22 541.58 1831.78 544.021 1828.77 544.021H1818.67C1815.66 544.021 1813.22 541.58 1813.22 538.57C1813.22 535.559 1815.66 533.119 1818.67 533.119Z" fill="#021859"/>
<path d="M1790.85 533.119H1800.94C1803.95 533.119 1806.39 535.559 1806.39 538.57C1806.39 541.58 1803.95 544.021 1800.94 544.021H1790.85C1787.83 544.021 1785.39 541.58 1785.39 538.57C1785.39 535.559 1787.83 533.119 1790.85 533.119Z" fill="#021859"/>
<path d="M1763.02 533.119H1773.12C1776.13 533.119 1778.57 535.559 1778.57 538.57C1778.57 541.58 1776.13 544.021 1773.12 544.021H1763.02C1760.01 544.021 1757.57 541.58 1757.57 538.57C1757.57 535.559 1760.01 533.119 1763.02 533.119Z" fill="#021859"/>
<path d="M1760.38 461.851H1868.6C1873.93 461.851 1878.25 466.17 1878.25 471.497H1750.74C1750.74 466.17 1755.05 461.851 1760.38 461.851Z" fill="white"/>
<path d="M1757.84 445.783H1871.72V461.851H1757.84V445.783Z" fill="#021859"/>
<path d="M1844.32 445.783H1866.65V461.851H1844.32V445.783Z" fill="#DBE7FF"/>
<path d="M1817.12 445.783H1839.45V461.851H1817.12V445.783Z" fill="#DBE7FF"/>
<path d="M1789.92 445.783H1812.25V461.851H1789.92V445.783Z" fill="#DBE7FF"/>
<path d="M1762.72 445.783H1785.05V461.851H1762.72V445.783Z" fill="#DBE7FF"/>
<path d="M1762.14 435.309H1867.45C1871.13 435.309 1874.12 438.293 1874.12 441.974C1874.12 445.655 1871.13 448.639 1867.45 448.639H1762.14C1758.46 448.639 1755.48 445.655 1755.48 441.974C1755.48 438.293 1758.46 435.309 1762.14 435.309Z" fill="#021859"/>
<path d="M1757.67 432.583H1871.98C1875.62 432.583 1878.58 435.538 1878.58 439.183C1878.58 442.828 1875.62 445.783 1871.98 445.783H1757.67C1754.02 445.783 1751.07 442.828 1751.07 439.183C1751.07 435.538 1754.02 432.583 1757.67 432.583Z" fill="white"/>
<path d="M1650.71 538.663C1650.19 518.908 1649.76 499.159 1648.85 479.291C1648.7 477.551 1648.54 475.752 1648.33 473.938C1660.72 478.088 1862.6 546.782 2024.09 667.014C2029.09 670.742 2032 676.638 2032 682.881V702.055C1981.35 669.2 1928.37 639.695 1873.15 612.583C1801.91 577.73 1727.36 554.851 1650.71 538.663Z" fill="url(#paint0_linear)"/>
<path d="M1650.28 521.967L1650.09 514.764C1662.67 518.982 1869.27 563.143 2032 687.063V692.932C1899.24 593.15 1726.93 538.155 1650.28 521.967Z" fill="url(#paint1_linear)"/>
<path d="M1652.71 591.649C1651.7 573.922 1651.17 556.29 1650.71 538.663C1727.35 554.851 1801.91 577.73 1873.15 612.583C1928.37 639.695 1981.35 669.2 2032 702.055V728.249H1647.73C1647.73 728.249 1647.56 727.154 1647.22 725.114C1648.49 718.833 1649.52 712.517 1650.14 706.144C1653.14 667.694 1654.86 630.099 1652.71 591.649Z" fill="url(#paint2_linear)"/>
<path d="M1650.28 522.02C1650.42 527.538 1650.56 533.053 1650.7 538.569C1630.27 547.292 1613.83 561.875 1600.2 579.094C1597.85 574.506 1595.4 569.967 1592.84 565.499C1607.65 546.338 1627.93 531.723 1650.28 522.02Z" fill="#002490"/>
<path d="M1591.11 562.541C1587.9 557.211 1587.17 550.709 1589.81 545.074C1596.78 530.184 1614.06 499.595 1647.73 473.737C1647.73 473.737 1647.94 473.805 1648.33 473.938C1648.54 475.752 1648.7 477.551 1648.85 479.291C1649.41 491.356 1649.78 503.375 1650.1 515.38C1625.92 523.956 1607.89 543.064 1591.11 562.541Z" fill="#002490"/>
<path d="M1650.09 514.764C1650.15 516.977 1650.22 519.807 1650.28 522.02C1627.93 531.723 1609.39 549.296 1594.58 568.457C1593.44 566.47 1592.28 564.498 1591.11 562.541C1606.62 541.877 1625.27 523.579 1650.09 514.764Z" fill="url(#paint3_linear)"/>
<path d="M1650.71 538.569C1651.17 556.227 1651.7 573.891 1652.71 591.65C1654.86 630.099 1653.14 667.695 1650.14 706.144C1649.52 712.517 1648.49 718.833 1647.22 725.114C1644.59 709.703 1631.5 640.222 1600.2 579.094C1613.83 561.875 1630.27 547.292 1650.71 538.569Z" fill="url(#paint4_linear)"/>
<path d="M2010.63 710.192C2009.66 710.192 2008.87 709.41 2008.87 708.445C2008.87 707.48 2009.66 706.698 2010.63 706.698C2011.6 706.698 2012.38 707.48 2012.38 708.445C2012.38 709.41 2011.6 710.192 2010.63 710.192Z" fill="white" stroke="#002490" stroke-width="2" stroke-miterlimit="10"/>
<path d="M2002.44 705.062C2001.22 705.062 2000.23 704.076 2000.23 702.859C2000.23 701.643 2001.22 700.657 2002.44 700.657C2003.66 700.657 2004.65 701.643 2004.65 702.859C2004.65 704.076 2003.66 705.062 2002.44 705.062Z" fill="white" stroke="#002490" stroke-width="2.1818" stroke-miterlimit="10"/>
<path d="M1988.84 697.977C1987.36 697.977 1986.17 696.787 1986.17 695.318C1986.17 693.85 1987.36 692.66 1988.84 692.66C1990.31 692.66 1991.5 693.85 1991.5 695.318C1991.5 696.787 1990.31 697.977 1988.84 697.977Z" fill="white" stroke="#002490" stroke-width="2.3636" stroke-miterlimit="10"/>
<path d="M1970.45 689.345C1968.73 689.345 1967.33 687.951 1967.33 686.231C1967.33 684.511 1968.73 683.117 1970.45 683.117C1972.18 683.117 1973.58 684.511 1973.58 686.231C1973.58 687.951 1972.18 689.345 1970.45 689.345Z" fill="white" stroke="#002490" stroke-width="2.5455" stroke-miterlimit="10"/>
<path d="M1947.92 679.578C1945.95 679.578 1944.34 677.979 1944.34 676.008C1944.34 674.037 1945.95 672.438 1947.92 672.438C1949.9 672.438 1951.51 674.037 1951.51 676.008C1951.51 677.979 1949.9 679.578 1947.92 679.578Z" fill="white" stroke="#002490" stroke-width="2.7273" stroke-miterlimit="10"/>
<path d="M1921.88 669.082C1919.65 669.082 1917.84 667.28 1917.84 665.057C1917.84 662.834 1919.65 661.032 1921.88 661.032C1924.11 661.032 1925.92 662.834 1925.92 665.057C1925.92 667.28 1924.11 669.082 1921.88 669.082Z" fill="white" stroke="#002490" stroke-width="2.9091" stroke-miterlimit="10"/>
<path d="M1892.96 658.269C1890.47 658.269 1888.46 656.263 1888.46 653.788C1888.46 651.314 1890.47 649.308 1892.96 649.308C1895.44 649.308 1897.45 651.314 1897.45 653.788C1897.45 656.263 1895.44 658.269 1892.96 658.269Z" fill="white" stroke="#002490" stroke-width="3.0909" stroke-miterlimit="10"/>
<path d="M1861.78 647.547C1859.05 647.547 1856.83 645.337 1856.83 642.611C1856.83 639.884 1859.05 637.674 1861.78 637.674C1864.52 637.674 1866.74 639.884 1866.74 642.611C1866.74 645.337 1864.52 647.547 1861.78 647.547Z" fill="white" stroke="#002490" stroke-width="3.2727" stroke-miterlimit="10"/>
<path d="M1828.99 637.326C1826 637.326 1823.58 634.912 1823.58 631.934C1823.58 628.956 1826 626.542 1828.99 626.542C1831.98 626.542 1834.41 628.956 1834.41 631.934C1834.41 634.912 1831.98 637.326 1828.99 637.326Z" fill="white" stroke="#002490" stroke-width="3.4545" stroke-miterlimit="10"/>
<path d="M1795.22 628.014C1791.98 628.014 1789.35 625.396 1789.35 622.167C1789.35 618.937 1791.98 616.319 1795.22 616.319C1798.46 616.319 1801.09 618.937 1801.09 622.167C1801.09 625.396 1798.46 628.014 1795.22 628.014Z" fill="white" stroke="#002490" stroke-width="3.6364" stroke-miterlimit="10"/>
<path d="M1761.1 620.022C1757.61 620.022 1754.77 617.2 1754.77 613.719C1754.77 610.238 1757.61 607.417 1761.1 607.417C1764.6 607.417 1767.43 610.238 1767.43 613.719C1767.43 617.2 1764.6 620.022 1761.1 620.022Z" fill="white" stroke="#002490" stroke-width="3.8182" stroke-miterlimit="10"/>
<path d="M1727.26 613.758C1723.52 613.758 1720.48 610.732 1720.48 607C1720.48 603.267 1723.52 600.241 1727.26 600.241C1731.01 600.241 1734.05 603.267 1734.05 607C1734.05 610.732 1731.01 613.758 1727.26 613.758Z" fill="white" stroke="#002490" stroke-width="4" stroke-miterlimit="10"/>
<path d="M2005.06 628.061C2005.06 629.647 2003.27 630.573 2001.98 629.656L1892.58 552.181C1891.15 551.162 1890.29 549.51 1890.29 547.748C1890.29 543.211 1895.52 540.673 1899.09 543.484L2004.32 626.526C2004.79 626.897 2005.06 627.462 2005.06 628.061Z" fill="#021859"/>
<path d="M2004.34 613.743C2004.8 614.151 2005.06 614.737 2005.06 615.353C2005.06 617.165 2002.96 618.163 2001.56 617.016L1892.08 527.542C1890.95 526.617 1890.29 525.232 1890.29 523.77C1890.29 519.573 1895.24 517.341 1898.39 520.12L2004.34 613.743Z" fill="#021859"/>
<path d="M2000.12 606.018H2001.75V638.788H2000.12V606.018Z" fill="#D6EEFD"/>
<path d="M1991.37 630.554L1994.81 631.841V599.071L1991.37 597.784V630.554Z" fill="#D6EEFD"/>
<path d="M1979.8 620.233L1984.15 623.047V590.277L1979.8 587.463V620.233Z" fill="#D6EEFD"/>
<path d="M1962.44 604.382L1969.38 609.852V577.082L1962.44 571.612V604.382Z" fill="#D6EEFD"/>
<path d="M1940.74 588.305L1947.68 593.775V561.005L1940.74 555.535V588.305Z" fill="#D6EEFD"/>
<path d="M1911.36 568.472L1920.53 575.704V532.376L1911.36 525.145V568.472Z" fill="#D6EEFD"/>
<path d="M1839.94 424.121V362.548C1839.94 361.013 1841.18 359.769 1842.72 359.769C1844.25 359.769 1845.49 361.013 1845.49 362.548V424.121C1845.49 425.656 1844.25 426.9 1842.72 426.9C1841.18 426.9 1839.94 425.656 1839.94 424.121Z" fill="#021859"/>
<path d="M1824.27 424.121V386.078C1824.27 384.543 1825.52 383.299 1827.05 383.299C1828.59 383.299 1829.83 384.543 1829.83 386.078V424.121C1829.83 425.656 1828.59 426.9 1827.05 426.9C1825.52 426.9 1824.27 425.656 1824.27 424.121Z" fill="#021859"/>
<path d="M1783.13 424.121V403.15C1783.13 401.615 1784.38 400.371 1785.91 400.371C1787.45 400.371 1788.69 401.615 1788.69 403.15V424.121C1788.69 425.656 1787.45 426.9 1785.91 426.9C1784.38 426.9 1783.13 425.656 1783.13 424.121Z" fill="#021859"/>
<path d="M1807.51 426.9C1802.14 426.9 1797.79 422.562 1797.79 417.211C1797.79 411.86 1802.14 407.522 1807.51 407.522C1812.89 407.522 1817.24 411.86 1817.24 417.211C1817.24 422.562 1812.89 426.9 1807.51 426.9Z" fill="#021859"/>
<path d="M1641.72 700.927C1644.99 701.254 1650.25 707.821 1652.21 711.175L1644.29 712.953L1641.72 700.927Z" fill="#EAEAEA"/>
<path opacity="0.8" d="M1641.3 699.253C1644.57 699.58 1649.99 706.051 1651.95 709.405L1644.03 711.183L1641.3 699.253Z" fill="#EAEAEA"/>
<path opacity="0.9" d="M1776.46 710.335C1778.68 710.093 1781.31 711.072 1781.31 711.072L1782.96 710.527C1788.14 708.524 1790.97 711.744 1790.97 711.744L1793.7 710.515C1801.25 708.358 1804.19 713.684 1804.19 713.684C1807.17 713.274 1809.93 715.257 1811.44 716.619C1815.72 717.324 1824.68 720.396 1824.68 720.396L1812.5 718.545L1810.13 718.187L1771.74 712.356C1771.74 712.356 1774.24 710.578 1776.46 710.335Z" fill="white"/>
<path opacity="0.9" d="M1660.32 701.547C1660.32 701.547 1670.3 687.947 1679.95 691.723C1679.95 691.723 1687.79 675.82 1703.82 685.859L1709.5 690.935C1709.5 690.935 1716.56 681.754 1727.43 690.326L1730.9 692.757C1730.9 692.757 1736.94 690.694 1741.76 692.388C1746.58 694.082 1751.59 700.822 1751.59 700.822L1660.42 703.92L1660.32 701.547Z" fill="white"/>
<path d="M1758.72 705.046C1760.94 704.804 1763.57 705.783 1763.57 705.783L1765.22 705.238C1770.4 703.235 1773.23 706.455 1773.23 706.455L1775.96 705.226C1783.51 703.069 1786.44 708.395 1786.44 708.395C1789.43 707.985 1792.18 709.968 1793.7 711.33C1797.98 712.035 1806.93 715.106 1806.93 715.106L1794.75 713.256L1792.39 712.898L1754 707.066C1754 707.066 1756.5 705.289 1758.72 705.046Z" fill="white"/>
<path d="M1650.04 706.882C1650.04 706.882 1660.02 693.282 1669.67 697.058C1669.67 697.058 1677.52 681.155 1693.54 691.194L1699.22 696.27C1699.22 696.27 1706.29 687.089 1717.15 695.661L1720.62 698.092C1720.62 698.092 1726.66 696.029 1731.48 697.723C1736.3 699.417 1741.32 706.157 1741.32 706.157L1650.14 709.255L1650.04 706.882Z" fill="white"/>
<g opacity="0.9">
<path opacity="0.9" d="M1149.22 796.321C1463.37 590.863 1486.32 650.367 1685.77 701.318V953.16L488.656 969.99C485.593 972.522 482.597 975.05 479.672 977.568C479.672 977.568 468.008 974.9 447.971 970.562L-720 986.98V963.723C-720 963.723 -649.5 872.561 -482 821.252C-314.5 769.942 -193.5 910.78 -41.5 901.952C83.481 894.693 355.289 950.494 447.971 970.562L488.656 969.99C583.294 891.765 743.084 808.854 891.258 842.644C1058.15 880.701 1075.18 844.744 1149.22 796.321Z" fill="url(#paint5_linear)"/>
<path opacity="0.9" d="M214.138 933.411C274.578 943.289 333.4 954.549 380.115 964.015L-712.5 979.376V966.398C-712.08 965.899 -711.575 965.307 -710.984 964.627C-708.828 962.148 -705.527 958.502 -701.029 953.946C-692.034 944.832 -678.256 932.075 -659.285 917.707C-621.35 888.979 -562.629 853.794 -479.803 828.423C-398.658 803.566 -328.633 825.052 -258.69 852.648C-249.64 856.219 -240.575 859.902 -231.48 863.598C-170.891 888.217 -108.958 913.383 -41.0651 909.439C20.4911 905.864 118.923 917.851 214.138 933.411ZM1616.18 689.528C1635.01 695.177 1655.47 701.191 1678.27 707.129V945.764L510.492 962.182C555.016 927.978 611.227 894.247 672.508 871.337C741.924 845.384 817.369 833.487 889.591 849.956C973.371 869.061 1020.92 869.954 1057.21 859.098C1075.36 853.667 1090.32 845.404 1105.26 835.611C1112.17 831.074 1119.15 826.162 1126.41 821.057L1128.04 819.909C1135.91 814.368 1144.18 808.574 1153.32 802.597C1310.41 699.858 1393.21 664.451 1460.98 660.151C1494.77 658.007 1525.25 663.575 1560.01 673.013C1574.07 676.833 1588.73 681.254 1604.6 686.039C1608.39 687.182 1612.25 688.346 1616.18 689.528Z" stroke="#A5BBF5" stroke-opacity="0.15" stroke-width="15"/>
</g>
<path d="M1918.5 162.938C1724 160.995 1670.73 46.9871 1651 -16H2759V559.627C2483.1 605.289 2330.48 516.88 2290.85 342.978C2200.84 370.18 2144.1 321.118 2128.44 270.599C2044.69 302.854 1939.5 233.037 1918.5 162.938Z" fill="url(#paint6_linear)"/>
<path opacity="0.9" d="M1780.67 910.232C1951.67 995.31 2079.67 790.786 2079.67 704.546V983.632H1090.54C1070.84 986.57 1050.73 986.19 1030.49 983.632H479.673C479.673 983.632 628.173 895.085 809.173 922.295C873.77 932.005 953.01 973.819 1030.49 983.632H1090.54C1118.16 979.506 1144.97 968.847 1170.17 948.51C1282.17 858.119 1477.17 759.233 1780.67 910.232Z" fill="#4166DB"/>
<path opacity="0.2" d="M2410.5 111.934C2117.85 214.507 1938 111.934 1870.5 0.789612H2759.22V398.06C2736.34 227.027 2610.5 41.8346 2410.5 111.934Z" fill="url(#paint7_linear)"/>
<path d="M1632.13 677.839C1907.21 743.484 2025.73 642.753 2075.1 537.804C2098.09 488.933 2286 314.551 2502 446.643C2718 578.735 2866.5 629.861 2979.5 537.804C3092.5 445.748 3280 490.978 3280 490.978V1000.87H-720V936.624V786.382C-473.5 677.839 -455 875.088 -208 866.069C39.0001 857.05 31 936.624 172 936.624C326.5 936.624 467.436 875.088 467.436 875.088C467.436 875.088 595.772 832.864 761.772 866.069C844.646 882.646 905.62 885 1000.65 866.069C1095.51 847.171 1339.42 607.987 1632.13 677.839Z" fill="url(#paint8_linear)"/>
<path opacity="0.95" fill-rule="evenodd" clip-rule="evenodd" d="M1282.37 860.936C1253.19 867.051 1259.37 892.189 1259.37 892.189C1278.25 884.612 1320.45 861.905 1370.35 836.161C1370.35 836.161 1362.47 831.724 1355.82 832.036C1349.17 832.347 1343.19 837.686 1343.19 837.686L1337.71 836.482C1320.03 831.564 1316.86 845.81 1316.86 845.81L1307.27 842.539C1282.66 838.366 1282.37 860.936 1282.37 860.936Z" fill="white"/>
<path opacity="0.5" fill-rule="evenodd" clip-rule="evenodd" d="M1290.8 856.837C1261.63 862.951 1267.8 888.09 1267.8 888.09C1286.68 880.513 1328.89 857.806 1378.78 832.062C1378.78 832.062 1370.9 827.625 1364.25 827.936C1357.6 828.248 1351.62 833.586 1351.62 833.586L1346.14 832.383C1328.46 827.465 1325.3 841.711 1325.3 841.711L1315.71 838.44C1291.1 834.267 1290.8 856.837 1290.8 856.837Z" fill="white"/>
<path d="M1000.65 866.069C1095.51 847.171 1339.42 607.987 1632.13 677.839C1907.21 743.484 2025.73 642.753 2075.1 537.804C2098.09 488.933 2286 314.551 2502 446.643C2718 578.735 2866.5 629.861 2979.5 537.804C3092.5 445.748 3280 490.978 3280 490.978V510.687L3260 505.923C3260 505.923 3097 461.191 2984 553.247C2871 645.303 2718 593.679 2502 461.587C2286 329.496 2098.09 503.877 2075.1 552.749C2025.73 657.698 1907.21 758.429 1632.13 692.783C1339.42 622.931 1095.51 862.115 1000.65 881.014C905.62 899.944 844.646 897.591 761.772 881.014C595.772 847.809 467.436 890.032 467.436 890.032C467.436 890.032 326.5 951.568 172 951.568C31 951.568 39.0001 871.995 -208 881.014C-455 890.032 -486 689.74 -708 795.348L-720 801.607V786.382C-473.5 677.839 -455 875.088 -208 866.069C39.0001 857.05 31 936.624 172 936.624C326.5 936.624 467.436 875.088 467.436 875.088C467.436 875.088 595.772 832.864 761.772 866.069C844.646 882.646 905.62 885 1000.65 866.069Z" fill="#A5BBF5" fill-opacity="0.15"/>
<path d="M1000.65 866.069C1095.51 847.171 1339.42 607.987 1632.13 677.839C1907.21 743.484 2025.73 642.753 2075.1 537.804C2098.09 488.933 2286 314.551 2502 446.643C2718 578.735 2866.5 629.861 2979.5 537.804C3092.5 445.748 3280 490.978 3280 490.978V510.687L3260 505.923C3260 505.923 3097 461.191 2984 553.247C2871 645.303 2718 593.679 2502 461.587C2286 329.496 2098.09 503.877 2075.1 552.749C2025.73 657.698 1907.21 758.429 1632.13 692.783C1339.42 622.931 1095.51 862.115 1000.65 881.014C905.62 899.944 844.646 897.591 761.772 881.014C595.772 847.809 467.436 890.032 467.436 890.032C467.436 890.032 326.5 951.568 172 951.568C31 951.568 39.0001 871.995 -208 881.014C-455 890.032 -486 689.74 -708 795.348L-720 801.607V786.382C-473.5 677.839 -455 875.088 -208 866.069C39.0001 857.05 31 936.624 172 936.624C326.5 936.624 467.436 875.088 467.436 875.088C467.436 875.088 595.772 832.864 761.772 866.069C844.646 882.646 905.62 885 1000.65 866.069Z" fill="url(#paint9_radial)" fill-opacity="0.6"/>
<path opacity="0.95" fill-rule="evenodd" clip-rule="evenodd" d="M1477.08 783.287C1447.68 771.782 1417.28 813.222 1417.28 813.222L1417.56 817.836C1459.39 800.264 1568.65 763.048 1692.53 806.961C1692.53 806.961 1680.09 790.474 1665.42 785.313C1650.74 780.152 1632.34 786.437 1632.34 786.437L1621.74 779.031C1588.65 752.911 1567.13 780.886 1567.13 780.886L1549.8 765.417C1500.99 734.83 1477.08 783.287 1477.08 783.287Z" fill="white"/>
<path opacity="0.3" fill-rule="evenodd" clip-rule="evenodd" d="M1497.17 780.505C1468.56 767.905 1436.28 811.804 1436.28 811.804C1479.16 797.256 1583.94 761.757 1709.91 815.022C1709.91 815.022 1699.36 798.375 1685.04 792.642C1670.72 786.909 1651.95 791.926 1651.95 791.926L1641.85 784.267C1610.49 757.482 1587.21 783.084 1587.21 783.084L1570.91 767.346C1524.15 735.436 1497.17 780.505 1497.17 780.505Z" fill="white"/>
<path d="M2125.67 603.343C2125.67 603.343 1912.97 910.503 1742.24 826.242C1509.57 711.41 1373.62 847.503 1094.63 963.846C1086.85 967.093 1083.89 976.72 1088.68 983.666C1372.38 866.71 1508.64 727.397 1743.24 843.179C1913.97 927.441 2126.67 620.28 2126.67 620.28C2126.67 620.28 2239.5 488.487 2340.5 488.487C2441.5 488.487 2495 520.507 2644.5 651.383C2794 782.26 2847.5 649.889 3004.5 695.361C3161.5 740.832 3264 631.955 3264 631.955L3280 617.089V594.095C3280 594.095 3160.5 723.895 3003.5 678.423C2846.5 632.952 2793 765.322 2643.5 634.446C2494 503.57 2440.5 471.55 2339.5 471.55C2238.5 471.55 2125.67 603.343 2125.67 603.343Z" fill="#5073DF"/>
<path d="M2125.67 603.343C2125.67 603.343 1912.97 910.503 1742.24 826.242C1509.57 711.41 1373.62 847.503 1094.63 963.846C1086.85 967.093 1083.89 976.72 1088.68 983.666C1372.38 866.71 1508.64 727.397 1743.24 843.179C1913.97 927.441 2126.67 620.28 2126.67 620.28C2126.67 620.28 2239.5 488.487 2340.5 488.487C2441.5 488.487 2495 520.507 2644.5 651.383C2794 782.26 2847.5 649.889 3004.5 695.361C3161.5 740.832 3264 631.955 3264 631.955L3280 617.089V594.095C3280 594.095 3160.5 723.895 3003.5 678.423C2846.5 632.952 2793 765.322 2643.5 634.446C2494 503.57 2440.5 471.55 2339.5 471.55C2238.5 471.55 2125.67 603.343 2125.67 603.343Z" fill="url(#paint10_linear)"/>
<path opacity="0.34" d="M477 849.004C700.675 849.004 882 668.35 882 445.502C882 222.654 700.675 42 477 42C253.325 42 72 222.654 72 445.502C72 668.35 253.325 849.004 477 849.004Z" fill="white"/>
<path opacity="0.5" d="M477.5 737.419C639.043 737.419 770 606.947 770 446.001C770 285.055 639.043 154.583 477.5 154.583C315.957 154.583 185 285.055 185 446.001C185 606.947 315.957 737.419 477.5 737.419Z" fill="white"/>
<path d="M477 587.973C555.977 587.973 620 524.187 620 445.502C620 366.817 555.977 303.031 477 303.031C398.023 303.031 334 366.817 334 445.502C334 524.187 398.023 587.973 477 587.973Z" fill="#FFF5DE"/>
<g filter="url(#filter0_ddd)">
<path d="M114.559 582.004C118.234 582.004 121.675 582.997 124.629 584.727C128.718 575.467 138.012 568.999 148.826 568.999C149.378 568.999 149.926 569.018 150.471 569.051C157.326 556.756 170.501 548.434 185.631 548.434C202.079 548.434 216.217 558.271 222.436 572.357C226.929 569.726 232.163 568.215 237.753 568.215C254.459 568.215 268.003 581.695 268.003 598.325C268.003 601.884 267.38 605.298 266.241 608.467H193.093H118.299H95.8298C95.0809 606.384 94.6719 604.139 94.6719 601.799C94.6717 590.867 103.576 582.004 114.559 582.004Z" fill="url(#paint11_linear)"/>
</g>
</g>
<defs>
<filter id="filter0_ddd" x="51.6719" y="498.434" width="273.331" height="160.033" filterUnits="userSpaceOnUse" color-interpolation-filters="sRGB">
<feFlood flood-opacity="0" result="BackgroundImageFix"/>
<feColorMatrix in="SourceAlpha" type="matrix" values="0 0 0 0 0 0 0 0 0 0 0 0 0 0 0 0 0 0 127 0" result="hardAlpha"/>
<feOffset dx="7"/>
<feGaussianBlur stdDeviation="25"/>
<feColorMatrix type="matrix" values="0 0 0 0 0.121569 0 0 0 0 0.247059 0 0 0 0 0.682353 0 0 0 0.02 0"/>
<feBlend mode="normal" in2="BackgroundImageFix" result="effect1_dropShadow"/>
<feColorMatrix in="SourceAlpha" type="matrix" values="0 0 0 0 0 0 0 0 0 0 0 0 0 0 0 0 0 0 127 0" result="hardAlpha"/>
<feOffset dx="13" dy="2"/>
<feGaussianBlur stdDeviation="3"/>
<feColorMatrix type="matrix" values="0 0 0 0 0.121569 0 0 0 0 0.247059 0 0 0 0 0.682353 0 0 0 0.02 0"/>
<feBlend mode="normal" in2="effect1_dropShadow" result="effect2_dropShadow"/>
<feColorMatrix in="SourceAlpha" type="matrix" values="0 0 0 0 0 0 0 0 0 0 0 0 0 0 0 0 0 0 127 0" result="hardAlpha"/>
<feOffset dx="10" dy="10"/>
<feGaussianBlur stdDeviation="10"/>
<feColorMatrix type="matrix" values="0 0 0 0 0.121569 0 0 0 0 0.247059 0 0 0 0 0.682353 0 0 0 0.02 0"/>
<feBlend mode="normal" in2="effect2_dropShadow" result="effect3_dropShadow"/>
<feBlend mode="normal" in="SourceGraphic" in2="effect3_dropShadow" result="shape"/>
</filter>
<linearGradient id="paint0_linear" x1="1633.69" y1="477.532" x2="1695.82" y2="508.016" gradientUnits="userSpaceOnUse">
<stop stop-color="#002490"/>
<stop offset="1" stop-color="#021859"/>
</linearGradient>
<linearGradient id="paint1_linear" x1="1686.75" y1="481.908" x2="1944.62" y2="720.754" gradientUnits="userSpaceOnUse">
<stop stop-color="#FFC74E"/>
<stop offset="0.962919" stop-color="#B71C22"/>
</linearGradient>
<linearGradient id="paint2_linear" x1="1684.15" y1="503.702" x2="1957" y2="742.985" gradientUnits="userSpaceOnUse">
<stop stop-color="#8C0002"/>
<stop offset="0.962919" stop-color="#B71C22"/>
</linearGradient>
<linearGradient id="paint3_linear" x1="1603.84" y1="553.128" x2="1641.3" y2="509.419" gradientUnits="userSpaceOnUse">
<stop stop-color="#B71C22"/>
<stop offset="1" stop-color="#FFC74E"/>
</linearGradient>
<linearGradient id="paint4_linear" x1="1605.34" y1="504.169" x2="1671.4" y2="512.351" gradientUnits="userSpaceOnUse">
<stop stop-color="#8C0002"/>
<stop offset="0.962919" stop-color="#B71C22"/>
</linearGradient>
<linearGradient id="paint5_linear" x1="1290.15" y1="829.478" x2="1290.15" y2="1076.65" gradientUnits="userSpaceOnUse">
<stop stop-color="#8CA8FF"/>
<stop offset="0.807292" stop-color="#345BD8"/>
</linearGradient>
<linearGradient id="paint6_linear" x1="2532.99" y1="32.9511" x2="1560.05" y2="127.529" gradientUnits="userSpaceOnUse">
<stop stop-color="#9ED1FF"/>
<stop offset="1" stop-color="#BDE3FB" stop-opacity="0"/>
</linearGradient>
<linearGradient id="paint7_linear" x1="2527.42" y1="83.2395" x2="2738.85" y2="-11.2682" gradientUnits="userSpaceOnUse">
<stop stop-color="white"/>
<stop offset="1" stop-color="white" stop-opacity="0"/>
</linearGradient>
<linearGradient id="paint8_linear" x1="1298.16" y1="404.82" x2="1298.16" y2="1001" gradientUnits="userSpaceOnUse">
<stop stop-color="#4166DB"/>
<stop offset="1" stop-color="#3053CB"/>
</linearGradient>
<radialGradient id="paint9_radial" cx="0" cy="0" r="1" gradientUnits="userSpaceOnUse" gradientTransform="translate(1639.8 680.063) rotate(159.473) scale(448.85 614.228)">
<stop stop-color="white" stop-opacity="0.8"/>
<stop offset="1" stop-color="white" stop-opacity="0"/>
</radialGradient>
<linearGradient id="paint10_linear" x1="1093.8" y1="971.627" x2="1314.58" y2="875.381" gradientUnits="userSpaceOnUse">
<stop stop-color="#3256CE"/>
<stop offset="1" stop-color="#5073DF"/>
</linearGradient>
<linearGradient id="paint11_linear" x1="181.337" y1="602.672" x2="76.036" y2="603.777" gradientUnits="userSpaceOnUse">
<stop stop-color="#FBFBFD"/>
<stop offset="1" stop-color="#EDF5FF"/>
</linearGradient>
<clipPath id="clip0">
<rect width="2560" height="1001" fill="white"/>
</clipPath>
</defs>
</svg>
