<?xml version="1.0" encoding="UTF-8"?>
<svg width="1602px" height="1131px" viewBox="0 0 1602 1131" version="1.1" xmlns="http://www.w3.org/2000/svg" xmlns:xlink="http://www.w3.org/1999/xlink">
    <!-- Generator: Sketch 60.1 (88133) - https://sketch.com -->
    <title>Slice</title>
    <desc>Created with Sketch.</desc>
    <defs>
        <linearGradient x1="50.6387547%" y1="61.4520326%" x2="50.6387547%" y2="100%" id="linearGradient-1">
            <stop stop-color="#8CA8FF" offset="0%"></stop>
            <stop stop-color="#345BD8" offset="80.7292%"></stop>
        </linearGradient>
        <linearGradient x1="92.96749%" y1="42.8140435%" x2="5.30254143%" y2="46.2640388%" id="linearGradient-2">
            <stop stop-color="#BDE3FB" offset="0%"></stop>
            <stop stop-color="#BDE3FB" stop-opacity="0" offset="100%"></stop>
        </linearGradient>
        <linearGradient x1="73.3020619%" y1="43.1898893%" x2="97.4958777%" y2="38.381586%" id="linearGradient-3">
            <stop stop-color="#FFFFFF" offset="0%"></stop>
            <stop stop-color="#FFFFFF" stop-opacity="0" offset="100%"></stop>
        </linearGradient>
        <linearGradient x1="51.0873253%" y1="0%" x2="51.0873253%" y2="100%" id="linearGradient-4">
            <stop stop-color="#4166DB" offset="0%"></stop>
            <stop stop-color="#345BD8" offset="100%"></stop>
        </linearGradient>
        <radialGradient cx="59.5301791%" cy="29.7455717%" fx="59.5301791%" fy="29.7455717%" r="35.2929431%" gradientTransform="translate(0.595302,0.297456),scale(0.415944,1.000000),rotate(136.259000),translate(-0.595302,-0.297456)" id="radialGradient-5">
            <stop stop-color="#FFFFFF" stop-opacity="0.8" offset="0%"></stop>
            <stop stop-color="#FFFFFF" stop-opacity="0" offset="100%"></stop>
        </radialGradient>
        <linearGradient x1="73.8096793%" y1="44.428287%" x2="71.9953544%" y2="55.2123165%" id="linearGradient-6">
            <stop stop-color="#6494F4" offset="0%"></stop>
            <stop stop-color="#C0C1C2" stop-opacity="0" offset="100%"></stop>
        </linearGradient>
        <linearGradient x1="99.0789454%" y1="45.0993221%" x2="91.0075615%" y2="49.4389172%" id="linearGradient-7">
            <stop stop-color="#FFFFFF" offset="0%"></stop>
            <stop stop-color="#FFFFFF" stop-opacity="0" offset="100%"></stop>
        </linearGradient>
        <path d="M8.45,8.035 C12.46,6.877 17.63,8.035 17.63,8.035 L20.48,6.447 C29.37,0.874 35.64,6.447 35.64,6.447 L40.27,3.162 C53.46,-3.433 60.62,6.312 60.62,6.312 C65.98,4.589 71.71,7.712 74.94,9.973 C83.07,10.081 100.57,13.5 100.57,13.5 L77.53,13.5 L73.06,13.5 L0.43,13.5 C0.43,13.5 4.44,9.193 8.45,8.035 Z" id="path-8"></path>
        <linearGradient x1="50.0000075%" y1="0%" x2="50.0000075%" y2="100.001738%" id="linearGradient-10">
            <stop stop-color="#355CD8" offset="0%"></stop>
            <stop stop-color="#2F54CA" offset="100%"></stop>
        </linearGradient>
        <linearGradient x1="98.7397966%" y1="47.0015544%" x2="19.9248595%" y2="51.6658031%" id="linearGradient-11">
            <stop stop-color="#3C62DA" offset="0%"></stop>
            <stop stop-color="#355CD8" offset="100%"></stop>
        </linearGradient>
        <linearGradient x1="50%" y1="54.8759049%" x2="-10.7519313%" y2="55.0968723%" id="linearGradient-12">
            <stop stop-color="#FBFBFD" offset="0%"></stop>
            <stop stop-color="#EDF5FF" offset="100%"></stop>
        </linearGradient>
    </defs>
    <g id="Page-1" stroke="none" stroke-width="1" fill="none" fill-rule="evenodd">
        <g id="hero-section" transform="translate(-406.000000, -2.000000)">
            <rect id="Rectangle" fill="#EFF6FF" fill-rule="nonzero" x="404.5" y="1.5" width="1600" height="1013.46"></rect>
            <g id="Group" opacity="0.9" transform="translate(384.000000, 383.000000)">
                <path d="M1222.17,289 C1384.67,333.431 1578.58,190.739 1621.67,0.739 L1621.67,531.739 L1621.67,695.93 L0.4609,695.93 L0.4609,591 C132.51,494.5 186.22,493.92 341.171,531.739 C510.22,573 603.671,444.5 678.671,392 C996.888,169.247 1020.14,233.76 1222.17,289 Z" id="Path" fill="url(#linearGradient-1)" fill-rule="nonzero"></path>
                <path d="M1220.19,296.234 C1304.21,319.207 1395.63,293.663 1471.1,238.85 C1533.51,193.532 1585.56,127.845 1614.17,51.719 L1614.17,531.739 L1614.17,688.43 L7.9609,688.43 L7.9609,594.815 C72.0556,548.276 116.6225,525.505 163.353,518.415 C211.018,511.183 261.847,520.099 339.392,539.025 C426.353,560.25 494.038,537.703 549.152,503.397 C576.592,486.318 600.942,466.314 622.945,447.483 C627.092,443.933 631.145,440.436 635.114,437.011 C652.377,422.114 668.045,408.593 682.971,398.144 C842.13,286.733 925.956,248.39 994.499,243.736 C1028.66,241.416 1059.48,247.438 1094.67,257.667 C1108.92,261.807 1123.76,266.599 1139.83,271.787 C1143.67,273.027 1147.58,274.289 1151.57,275.57 C1172.2,282.196 1194.78,289.286 1220.19,296.234 Z" id="Path" stroke-opacity="0.15" stroke="#A5BBF5" stroke-width="15"></path>
            </g>
            <path d="M1167.673,194.902 C973.174,192.796 919.903,69.1915 900.173,0.9023438 L2008.17,0.9023438 L2008.17,624.984 C1732.27,674.489 1579.65,578.639 1540.02,390.098 C1450.01,419.59 1393.27,366.398 1377.616,311.627 C1293.867,346.596 1188.673,270.902 1167.673,194.902 Z" id="Path" fill="url(#linearGradient-2)" fill-rule="nonzero"></path>
            <polygon id="Path" fill="#D6EEFD" fill-rule="nonzero" points="1676.02 316.897 1843.48 490.678 1840.94 581.316 1638.51 449.106 1619.03 306.38"></polygon>
            <path d="M1715.49,278.145 L1715.49,316.897 L1676.02,316.897 C1659.16,316.897 1645.49,331.658 1645.49,349.867 L1645.49,552.064 L1467.5,552.064 L1467.5,349.867 C1467.5,331.658 1453.83,316.897 1436.97,316.897 L1395.323,316.897 L1395.323,278.145 C1395.323,278.145 1715.49,278.145 1715.49,278.145 Z" id="Path" fill="#FFFFFF" fill-rule="nonzero"></path>
            <polygon id="Path" fill="#073C4E" fill-rule="nonzero" points="1598.14 340.289 1628.52 340.289 1628.52 357.389 1598.14 357.389"></polygon>
            <polygon id="Path" fill="#073C4E" fill-rule="nonzero" points="1557.89 340.289 1588.27 340.289 1588.27 357.389 1557.89 357.389"></polygon>
            <polygon id="Path" fill="#073C4E" fill-rule="nonzero" points="1517.64 340.289 1548.01 340.289 1548.01 357.389 1517.64 357.389"></polygon>
            <polygon id="Path" fill="#073C4E" fill-rule="nonzero" points="1477.38 340.289 1507.76 340.289 1507.76 357.389 1477.38 357.389"></polygon>
            <polygon id="Path" fill="#073C4E" fill-rule="nonzero" points="1598.14 374.796 1628.52 374.796 1628.52 391.896 1598.14 391.896"></polygon>
            <polygon id="Path" fill="#073C4E" fill-rule="nonzero" points="1557.89 374.796 1588.27 374.796 1588.27 391.896 1557.89 391.896"></polygon>
            <polygon id="Path" fill="#073C4E" fill-rule="nonzero" points="1517.64 374.796 1548.01 374.796 1548.01 391.896 1517.64 391.896"></polygon>
            <polygon id="Path" fill="#073C4E" fill-rule="nonzero" points="1477.38 374.796 1507.76 374.796 1507.76 391.896 1477.38 391.896"></polygon>
            <polygon id="Path" fill="#D6EEFD" fill-rule="nonzero" points="1385.597 278.145 1730.18 278.145 1730.18 316.897 1385.597 316.897"></polygon>
            <polygon id="Path" fill="#FFFFFF" fill-rule="nonzero" points="1385.595 278.145 1657.12 278.145 1657.12 316.897 1385.595 316.897"></polygon>
            <polygon id="Path" fill="#FFFFFF" fill-rule="nonzero" points="1467.5 217.111 1651.96 217.111 1651.96 237.813 1467.5 237.813"></polygon>
            <polygon id="Path" fill="#FFFFFF" fill-rule="nonzero" points="1467.5 263.017 1651.96 263.017 1651.96 278.145 1467.5 278.145"></polygon>
            <polygon id="Path" fill="#073C4E" fill-rule="nonzero" points="1477.78 237.813 1642.52 237.813 1642.52 263.016 1477.78 263.016"></polygon>
            <polygon id="Path" fill="#C8ECE8" fill-rule="nonzero" points="1602.88 237.813 1635.18 237.813 1635.18 263.016 1602.88 263.016"></polygon>
            <polygon id="Path" fill="#C8ECE8" fill-rule="nonzero" points="1563.53 237.813 1595.83 237.813 1595.83 263.016 1563.53 263.016"></polygon>
            <polygon id="Path" fill="#C8ECE8" fill-rule="nonzero" points="1524.18 237.813 1556.48 237.813 1556.48 263.016 1524.18 263.016"></polygon>
            <polygon id="Path" fill="#C8ECE8" fill-rule="nonzero" points="1484.83 237.813 1517.13 237.813 1517.13 263.016 1484.83 263.016"></polygon>
            <path d="M1322.786,383.494 C1322.036,352.508 1321.417,321.532 1320.105,290.37 C1319.875,287.641 1319.645,284.819 1319.352,281.974 C1337.559,288.591 1638.98,399.79 1874.4,594.155 L1874.4,639.769 C1801.12,588.237 1724.48,541.959 1644.6,499.435 C1541.53,444.769 1433.67,408.884 1322.786,383.494 Z" id="Path" fill="#062431" fill-rule="nonzero"></path>
            <path d="M1322.163,357.307 L1321.887,346.008 C1340.094,352.625 1638.98,421.89 1874.4,616.254 L1874.4,625.46 C1682.34,468.955 1433.05,382.697 1322.163,357.307 Z" id="Path" fill="#B71C22" fill-rule="nonzero"></path>
            <path d="M1325.687,466.601 C1324.224,438.796 1323.453,411.14 1322.784,383.493 C1433.67,408.884 1541.53,444.769 1644.59,499.435 C1724.48,541.96 1801.12,588.237 1874.4,639.77 L1874.4,680.854 L1318.479,680.854 C1318.479,680.854 1318.239,679.135 1317.735,675.936 C1319.579,666.085 1321.061,656.178 1321.964,646.182 C1326.308,585.875 1328.79,526.908 1325.687,466.601 Z" id="Path" fill="#6D1415" fill-rule="nonzero"></path>
            <path d="M1322.165,357.389 C1322.372,366.043 1322.572,374.695 1322.781,383.346 C1293.219,397.028 1269.428,419.901 1249.721,446.908 C1246.323,439.712 1242.772,432.593 1239.073,425.585 C1260.5,395.531 1289.829,372.608 1322.165,357.389 Z" id="Path" fill="#073C4E" fill-rule="nonzero"></path>
            <path d="M1236.56,420.946 C1234.963,418.07 1230.826,410.576 1229.173,407.751 C1229.173,407.751 1251.249,337.637 1318.481,281.659 C1318.481,281.659 1318.777,281.766 1319.351,281.975 C1319.644,284.82 1319.874,287.641 1320.104,290.371 C1320.901,309.293 1321.437,328.146 1321.907,346.975 C1286.931,360.426 1260.848,390.397 1236.56,420.946 Z" id="Path" fill="#073C4E" fill-rule="nonzero"></path>
            <path d="M1321.887,346.008 C1321.974,349.48 1322.082,353.918 1322.165,357.389 C1289.829,372.607 1263.013,400.17 1241.586,430.224 C1239.941,427.107 1238.265,424.014 1236.56,420.945 C1259.002,388.533 1285.981,359.835 1321.887,346.008 Z" id="Path" fill="#B71C22" fill-rule="nonzero"></path>
            <path d="M1322.782,383.346 C1323.451,411.042 1324.223,438.747 1325.688,466.601 C1328.79,526.908 1326.309,585.875 1321.966,646.182 C1321.063,656.178 1319.58,666.085 1317.736,675.936 C1313.928,651.765 1294.993,542.786 1249.722,446.908 C1269.428,419.9 1293.22,397.028 1322.782,383.346 Z" id="Path" fill="#B71C22" fill-rule="nonzero"></path>
            <path d="M1843.48,652.532 C1842.08,652.532 1840.94,651.305 1840.94,649.791 C1840.94,648.278 1842.08,647.051 1843.48,647.051 C1844.88,647.051 1846.02,648.278 1846.02,649.791 C1846.02,651.305 1844.88,652.532 1843.48,652.532 Z" id="Path" stroke="#305FC4" stroke-width="2" fill="#FFFFFF" fill-rule="nonzero"></path>
            <path d="M1831.63,644.485 C1829.87,644.485 1828.43,642.939 1828.43,641.031 C1828.43,639.123 1829.87,637.576 1831.63,637.576 C1833.4,637.576 1834.83,639.123 1834.83,641.031 C1834.83,642.939 1833.4,644.485 1831.63,644.485 Z" id="Path" stroke="#305FC4" stroke-width="2.1818" fill="#FFFFFF" fill-rule="nonzero"></path>
            <path d="M1811.95,633.372 C1809.82,633.372 1808.09,631.506 1808.09,629.203 C1808.09,626.9 1809.82,625.033 1811.95,625.033 C1814.09,625.033 1815.81,626.9 1815.81,629.203 C1815.81,631.506 1814.09,633.372 1811.95,633.372 Z" id="Path" stroke="#305FC4" stroke-width="2.3636" fill="#FFFFFF" fill-rule="nonzero"></path>
            <path d="M1785.36,619.834 C1782.86,619.834 1780.84,617.647 1780.84,614.95 C1780.84,612.252 1782.86,610.066 1785.36,610.066 C1787.86,610.066 1789.88,612.252 1789.88,614.95 C1789.88,617.647 1787.86,619.834 1785.36,619.834 Z" id="Path" stroke="#305FC4" stroke-width="2.5455" fill="#FFFFFF" fill-rule="nonzero"></path>
            <path d="M1752.77,604.513 C1749.9,604.513 1747.58,602.007 1747.58,598.915 C1747.58,595.822 1749.9,593.316 1752.77,593.316 C1755.63,593.316 1757.95,595.822 1757.95,598.915 C1757.95,602.007 1755.63,604.513 1752.77,604.513 Z" id="Path" stroke="#305FC4" stroke-width="2.7273" fill="#FFFFFF" fill-rule="nonzero"></path>
            <path d="M1715.09,588.051 C1711.86,588.051 1709.25,585.225 1709.25,581.738 C1709.25,578.252 1711.86,575.425 1715.09,575.425 C1718.32,575.425 1720.94,578.252 1720.94,581.738 C1720.94,585.225 1718.32,588.051 1715.09,588.051 Z" id="Path" stroke="#305FC4" stroke-width="2.9091" fill="#FFFFFF" fill-rule="nonzero"></path>
            <path d="M1673.24,571.091 C1669.65,571.091 1666.74,567.945 1666.74,564.063 C1666.74,560.182 1669.65,557.036 1673.24,557.036 C1676.84,557.036 1679.75,560.182 1679.75,564.063 C1679.75,567.945 1676.84,571.091 1673.24,571.091 Z" id="Path" stroke="#305FC4" stroke-width="3.0909" fill="#FFFFFF" fill-rule="nonzero"></path>
            <path d="M1628.15,554.274 C1624.19,554.274 1620.98,550.808 1620.98,546.532 C1620.98,542.256 1624.19,538.789 1628.15,538.789 C1632.11,538.789 1635.32,542.256 1635.32,546.532 C1635.32,550.808 1632.11,554.274 1628.15,554.274 Z" id="Path" stroke="#305FC4" stroke-width="3.2727" fill="#FFFFFF" fill-rule="nonzero"></path>
            <path d="M1580.71,538.242 C1576.39,538.242 1572.88,534.456 1572.88,529.785 C1572.88,525.115 1576.39,521.329 1580.71,521.329 C1585.04,521.329 1588.54,525.115 1588.54,529.785 C1588.54,534.456 1585.04,538.242 1580.71,538.242 Z" id="Path" stroke="#305FC4" stroke-width="3.4545" fill="#FFFFFF" fill-rule="nonzero"></path>
            <path d="M1531.85,523.637 C1527.16,523.637 1523.36,519.531 1523.36,514.466 C1523.36,509.401 1527.16,505.295 1531.85,505.295 C1536.54,505.295 1540.34,509.401 1540.34,514.466 C1540.34,519.531 1536.54,523.637 1531.85,523.637 Z" id="Path" stroke="#305FC4" stroke-width="3.6364" fill="#FFFFFF" fill-rule="nonzero"></path>
            <path d="M1482.49,511.102 C1477.43,511.102 1473.34,506.676 1473.34,501.216 C1473.34,495.757 1477.43,491.331 1482.49,491.331 C1487.55,491.331 1491.64,495.757 1491.64,501.216 C1491.64,506.676 1487.55,511.102 1482.49,511.102 Z" id="Path" stroke="#305FC4" stroke-width="3.8182" fill="#FFFFFF" fill-rule="nonzero"></path>
            <path d="M1433.54,501.278 C1428.12,501.278 1423.72,496.532 1423.72,490.678 C1423.72,484.823 1428.12,480.077 1433.54,480.077 C1438.96,480.077 1443.35,484.823 1443.35,490.678 C1443.35,496.532 1438.96,501.278 1433.54,501.278 Z" id="Path" stroke="#305FC4" stroke-width="4" fill="#FFFFFF" fill-rule="nonzero"></path>
            <polygon id="Path" fill="#073C4E" fill-rule="nonzero" points="1835.43 529.641 1669.39 402.149 1669.39 380.168 1835.43 522.224"></polygon>
            <polygon id="Path" fill="#073C4E" fill-rule="nonzero" points="1835.43 502.26 1835.43 510.885 1669.39 363.758 1669.39 343.186"></polygon>
            <polygon id="Path" fill="#D6EEFD" fill-rule="nonzero" points="1828.29 489.137 1830.63 489.137 1830.63 540.537 1828.29 540.537"></polygon>
            <polygon id="Path" fill="#D6EEFD" fill-rule="nonzero" points="1815.62 527.622 1820.59 529.64 1820.59 478.241 1815.62 476.223"></polygon>
            <polygon id="Path" fill="#D6EEFD" fill-rule="nonzero" points="1798.88 511.433 1805.18 515.846 1805.18 464.447 1798.88 460.035"></polygon>
            <polygon id="Path" fill="#D6EEFD" fill-rule="nonzero" points="1773.77 486.571 1783.81 495.151 1783.81 443.751 1773.77 435.172"></polygon>
            <polygon id="Path" fill="#D6EEFD" fill-rule="nonzero" points="1742.37 461.356 1752.41 469.936 1752.41 418.537 1742.37 409.957"></polygon>
            <polygon id="Path" fill="#D6EEFD" fill-rule="nonzero" points="1699.86 430.247 1713.13 441.59 1713.13 373.633 1699.86 362.29"></polygon>
            <path d="M2005.17,675.5 C2005.17,769 1877.17,990.738 1706.17,898.5 C1402.673,734.79 1207.673,842 1095.673,940 C983.673,1038 839.786,1069.13 734.673,1052 C553.673,1022.5 405.17285,1118.5 405.17285,1118.5 L2005.17,1118.5 L2005.17,675.5 Z" id="Path" fill="#4166DB" fill-rule="nonzero" opacity="0.9"></path>
            <path d="M1658.67,122.402 C1366.02,233.61 1186.172,122.402 1118.672,1.902344 L2003.17,1.902344 L2008.48,329.743 C2016.11,363.82 2017.15,399.208 2010.17,433.902 L2008.48,329.743 C1975.68,183.097 1820.96,60.7328 1658.67,122.402 Z" id="Path" fill="url(#linearGradient-3)" fill-rule="nonzero" opacity="0.2"></path>
            <polygon id="Path" fill="#073C4E" fill-rule="nonzero" points="1598.32 102.902 1606.36 102.902 1606.36 208.196 1598.32 208.196"></polygon>
            <polygon id="Path" fill="#073C4E" fill-rule="nonzero" points="1575.66 139.809 1583.7 139.809 1583.7 208.196 1575.66 208.196"></polygon>
            <polygon id="Path" fill="#073C4E" fill-rule="nonzero" points="1516.14 166.585 1524.18 166.585 1524.18 208.195 1516.14 208.195"></polygon>
            <path d="M1551.41,208.196 C1543.64,208.196 1537.34,201.392 1537.34,192.999 C1537.34,184.606 1543.64,177.802 1551.41,177.802 C1559.19,177.802 1565.49,184.606 1565.49,192.999 C1565.49,201.392 1559.19,208.196 1551.41,208.196 Z" id="Path" fill="#073C4E" fill-rule="nonzero"></path>
            <path d="M1310.673,637.4 C1314.56,637.822 1320.815,646.292 1323.15,650.618 L1313.724,652.91 L1310.673,637.4 Z" id="Path" fill="#EAEAEA" fill-rule="nonzero"></path>
            <path d="M1310.172,635.242 C1314.059,635.664 1320.502,644.009 1322.838,648.335 L1313.412,650.628 L1310.172,635.242 Z" id="Path" fill="#EAEAEA" fill-rule="nonzero" opacity="0.8"></path>
            <path d="M1561.22,653.551 C1565.36,653.061 1570.27,655.043 1570.27,655.043 L1573.35,653.94 C1583.02,649.885 1588.3,656.402 1588.3,656.402 L1593.41,653.914 C1607.49,649.55 1612.98,660.329 1612.98,660.329 C1618.54,659.5 1623.69,663.513 1626.51,666.269 C1634.52,667.696 1651.23,673.914 1651.23,673.914 L1628.49,670.169 L1624.08,669.443 L1552.41,657.64 C1552.41,657.64 1557.07,654.042 1561.22,653.551 Z" id="Path" fill="#FFFFFF" fill-rule="nonzero" opacity="0.9"></path>
            <path d="M1344.398,648.354 C1344.398,648.354 1363.024,620.827 1381.041,628.47 C1381.041,628.47 1395.686,596.281 1425.6,616.6 L1436.21,626.875 C1436.21,626.875 1449.39,608.292 1469.67,625.642 L1476.16,630.562 C1476.16,630.562 1487.44,626.387 1496.43,629.815 C1505.42,633.244 1514.79,646.887 1514.79,646.887 L1344.575,653.156 L1344.398,648.354 Z" id="Path" fill="#FFFFFF" fill-rule="nonzero" opacity="0.9"></path>
            <path d="M1528.09,646.444 C1532.24,645.954 1537.15,647.936 1537.15,647.936 L1540.23,646.832 C1549.9,642.777 1555.18,649.295 1555.18,649.295 L1560.28,646.807 C1574.37,642.442 1579.85,653.222 1579.85,653.222 C1585.42,652.392 1590.57,656.405 1593.39,659.162 C1601.4,660.589 1618.11,666.806 1618.11,666.806 L1595.37,663.061 L1590.96,662.335 L1519.29,650.533 C1519.29,650.533 1523.95,646.934 1528.09,646.444 Z" id="Path" fill="#FFFFFF" fill-rule="nonzero"></path>
            <path d="M1321.275,648.246 C1321.275,648.246 1339.901,620.72 1357.918,628.362 C1357.918,628.362 1372.563,596.174 1402.473,616.492 L1413.09,626.767 C1413.09,626.767 1426.27,608.184 1446.55,625.535 L1453.04,630.454 C1453.04,630.454 1464.31,626.28 1473.31,629.708 C1482.3,633.136 1491.67,646.779 1491.67,646.779 L1321.452,653.048 L1321.275,648.246 Z" id="Path" fill="#FFFFFF" fill-rule="nonzero"></path>
            <path d="M1538.04,650.5 C1941.22,754.814 2008.08,471.634 2013.82,354.5 L2013.82,1132.5 L373.3495,1132.5 L373.3495,1079.5 C373.3495,1079.5 492.8725,936 658.873,972 C741.746,989.972 872.397,957.5 924.823,894.5 C977.25,831.5 1245.33,574.768 1538.04,650.5 Z" id="Path" fill="url(#linearGradient-4)" fill-rule="nonzero"></path>
            <path d="M1536.16,657.761 C1739.6,710.395 1860.23,665.616 1930.44,590.671 C1970.3,548.132 1993.35,496.441 2006.32,448.896 L2006.32,1125 L380.8495,1125 L380.8495,1082.3 C381.6969,1081.35 382.8489,1080.07 384.2954,1078.52 C387.7833,1074.78 392.9787,1069.44 399.73858,1063.12 C413.2688,1050.48 433.0081,1034 457.8116,1018.62 C507.461,987.858 576.836,961.883 657.283,979.329 C700.211,988.639 754.863,984.819 805.27,970.842 C855.575,956.893 903,932.449 930.588,899.297 C956.3,868.4 1035.75,789.087 1145.03,726.996 C1254.318,664.902 1392.442,620.577 1536.16,657.761 Z" id="Path" stroke-opacity="0.15" stroke="#A5BBF5" stroke-width="15"></path>
            <path d="M1536.16,657.761 C1739.6,710.395 1860.23,665.616 1930.44,590.671 C1970.3,548.132 1993.35,496.441 2006.32,448.896 L2006.32,1125 L380.8495,1125 L380.8495,1082.3 C381.6969,1081.35 382.8489,1080.07 384.2954,1078.52 C387.7833,1074.78 392.9787,1069.44 399.73858,1063.12 C413.2688,1050.48 433.0081,1034 457.8116,1018.62 C507.461,987.858 576.836,961.883 657.283,979.329 C700.211,988.639 754.863,984.819 805.27,970.842 C855.575,956.893 903,932.449 930.588,899.297 C956.3,868.4 1035.75,789.087 1145.03,726.996 C1254.318,664.902 1392.442,620.577 1536.16,657.761 Z" id="Path" stroke="url(#radialGradient-5)" stroke-width="15"></path>
            <path d="M1402.584,756.549 C1373.177,744.076 1342.777,789.003 1342.777,789.003 L1343.065,794.006 C1384.89,774.955 1494.15,734.606 1618.03,782.216 C1618.03,782.216 1605.6,764.341 1590.92,758.745 C1576.24,753.15 1557.84,759.964 1557.84,759.964 L1547.25,751.935 C1514.15,723.615 1492.63,753.946 1492.63,753.946 L1475.31,737.175 C1426.49,704.013 1402.584,756.549 1402.584,756.549 Z" id="Path" fill="#FFFFFF" opacity="0.95"></path>
            <path d="M1422.67,751.373 C1394.059,737.712 1361.781,785.306 1361.781,785.306 C1404.66,769.534 1509.45,731.047 1635.41,788.795 C1635.41,788.795 1624.86,770.746 1610.54,764.531 C1596.22,758.316 1577.45,763.755 1577.45,763.755 L1567.35,755.45 C1535.99,726.412 1512.72,754.169 1512.72,754.169 L1496.41,737.105 C1449.65,702.509 1422.67,751.373 1422.67,751.373 Z" id="Path" fill="#FFFFFF" opacity="0.3"></path>
            <path d="M818.664,1024.1 C779.042,1026.49 781.251,1063.5 781.251,1063.5 C807.737,1056.81 868.294,1033.69 939.631,1007.9 C939.631,1007.9 930.352,999.909 921.571,998.917 C912.79,997.925 903.721,1004.21 903.721,1004.21 L896.826,1001.32 C874.828,990.532 867.355,1010.07 867.355,1010.07 L855.568,1003.36 C824.327,992.131 818.664,1024.1 818.664,1024.1 Z" id="Path" fill="#FFFFFF" opacity="0.95"></path>
            <path d="M830.664,1020.1 C791.042,1022.49 793.251,1059.5 793.251,1059.5 C819.737,1052.81 880.294,1029.69 951.631,1003.9 C951.631,1003.9 942.352,995.909 933.571,994.917 C924.79,993.925 915.721,1000.214 915.721,1000.214 L908.826,997.323 C886.828,986.532 879.355,1006.07 879.355,1006.07 L867.568,999.36 C836.327,988.131 830.664,1020.1 830.664,1020.1 Z" id="Path" fill="#FFFFFF" opacity="0.5"></path>
            <g id="Group" opacity="0.4" transform="translate(574.000000, 613.000000)">
                <path d="M1090.2,201.052 C1179.5,248.83 1271.29,214.797 1339.56,151.964 C1384.75,110.376 1420.63,55.362 1439.67,0.957 L1439.67,503.41 L0.016,503.41 C284.673,463.56 466.125,357.936 611.948,273.016 C698.823,222.424 772.045,179.841 846.91,162.118 C921.17,144.54 997.39,151.391 1090.2,201.052 Z" id="Path" fill="url(#linearGradient-6)" fill-rule="nonzero"></path>
                <path d="M1090.2,201.052 C1179.5,248.83 1271.29,214.797 1339.56,151.964 C1384.75,110.376 1420.63,55.362 1439.67,0.957 L1439.67,503.41 L0.016,503.41 C284.673,463.56 466.125,357.936 611.948,273.016 C698.823,222.424 772.045,179.841 846.91,162.118 C921.17,144.54 997.39,151.391 1090.2,201.052 Z" id="Path" stroke-opacity="0.15" stroke="#A5BBF5" stroke-width="15"></path>
                <path d="M1090.2,201.052 C1179.5,248.83 1271.29,214.797 1339.56,151.964 C1384.75,110.376 1420.63,55.362 1439.67,0.957 L1439.67,503.41 L0.016,503.41 C284.673,463.56 466.125,357.936 611.948,273.016 C698.823,222.424 772.045,179.841 846.91,162.118 C921.17,144.54 997.39,151.391 1090.2,201.052 Z" id="Path" stroke="url(#linearGradient-7)" stroke-width="15"></path>
            </g>
            <path d="M1828.2,262.798 C1828.63,262.734 1828.96,262.403 1829.02,261.99 C1830.11,255.342 1834.75,249.505 1841.59,247.216 L1841.59,247.214 C1841.89,247.113 1842.14,246.876 1842.22,246.57 C1842.38,246.009 1842.04,245.474 1841.52,245.347 C1839.34,244.82 1837,244.879 1834.72,245.642 C1830.44,247.075 1827.47,250.628 1826.59,254.739 C1826.53,255.011 1826.38,255.259 1826.14,255.405 C1825.77,255.635 1825.31,255.587 1824.99,255.312 C1821.81,252.543 1817.28,251.484 1812.99,252.921 C1810.73,253.681 1808.83,255.037 1807.41,256.756 C1807.15,257.067 1807.09,257.505 1807.29,257.859 C1807.51,258.278 1808.01,258.466 1808.45,258.317 C1808.45,258.316 1808.46,258.315 1808.46,258.314 C1815.28,256.029 1822.49,257.882 1827.37,262.516 C1827.59,262.729 1827.9,262.844 1828.2,262.798 Z" id="Path" fill="#000000" fill-rule="nonzero" opacity="0.3"></path>
            <path d="M1864.12,283.004 C1862.76,282.201 1861.16,281.759 1859.47,281.806 C1856.27,281.895 1853.53,283.695 1852.09,286.304 C1851.97,286.517 1851.75,286.653 1851.51,286.659 C1851.26,286.666 1851.04,286.543 1850.91,286.336 C1849.33,283.812 1846.49,282.167 1843.3,282.256 C1841.6,282.303 1840.03,282.833 1838.72,283.71 C1838.46,283.88 1838.35,284.197 1838.45,284.488 C1838.54,284.779 1838.81,284.975 1839.12,284.966 C1839.12,284.966 1839.12,284.966 1839.13,284.966 C1844.21,284.824 1848.7,287.567 1851.04,291.709 C1851.17,291.931 1851.4,292.066 1851.66,292.059 C1851.91,292.052 1852.14,291.905 1852.26,291.676 C1854.36,287.41 1858.69,284.422 1863.78,284.28 C1863.78,284.28 1863.78,284.28 1863.79,284.28 C1864.09,284.272 1864.36,284.062 1864.43,283.766 C1864.51,283.47 1864.38,283.159 1864.12,283.004 Z" id="Path" fill="#000000" fill-rule="nonzero" opacity="0.1"></path>
            <path d="M563.434,218.743 C560.806,217.192 557.725,216.338 554.45,216.429 C548.283,216.6 542.986,220.078 540.209,225.116 C539.982,225.529 539.553,225.79 539.082,225.803 C538.611,225.816 538.169,225.578 537.919,225.179 C534.867,220.303 529.385,217.126 523.219,217.298 C519.944,217.389 516.915,218.413 514.378,220.107 C513.887,220.435 513.673,221.048 513.852,221.61 C514.031,222.172 514.56,222.549 515.15,222.532 C515.155,222.532 515.161,222.532 515.167,222.532 C524.986,222.259 533.667,227.556 538.178,235.556 C538.42,235.985 538.88,236.245 539.372,236.232 C539.865,236.219 540.31,235.934 540.528,235.492 C544.587,227.253 552.961,221.481 562.78,221.208 C562.786,221.208 562.792,221.208 562.797,221.207 C563.387,221.191 563.896,220.787 564.043,220.215 C564.191,219.643 563.942,219.043 563.434,218.743 Z" id="Path" fill="#000000" fill-rule="nonzero" opacity="0.4"></path>
            <path d="M687.238,841.443 C689.051,840.373 691.176,839.784 693.436,839.846 C697.689,839.965 701.343,842.363 703.258,845.839 C703.415,846.123 703.711,846.304 704.036,846.313 C704.361,846.322 704.666,846.158 704.838,845.882 C706.944,842.519 710.725,840.327 714.979,840.446 C717.238,840.508 719.327,841.215 721.077,842.384 C721.416,842.61 721.564,843.032 721.44,843.42 C721.317,843.808 720.952,844.068 720.545,844.057 C720.541,844.056 720.537,844.056 720.533,844.056 C713.76,843.868 707.772,847.522 704.66,853.04 C704.493,853.336 704.176,853.516 703.836,853.507 C703.496,853.497 703.189,853.301 703.039,852.996 C700.239,847.313 694.463,843.331 687.689,843.143 C687.685,843.143 687.681,843.143 687.677,843.143 C687.27,843.132 686.92,842.852 686.818,842.458 C686.716,842.064 686.888,841.65 687.238,841.443 Z" id="Path" fill="#000000" fill-rule="nonzero" opacity="0.2"></path>
            <g id="Clipped" transform="translate(1656.000000, 662.000000)">
                <mask id="mask-9" fill="white">
                    <use xlink:href="#path-8"></use>
                </mask>
                <g id="Path"></g>
                <path d="M116.300009,4.58 C116.27,8.402 83.95,11.288 44.09,11.028 C4.24,10.767 -27.69,5.909 -27.6700094,2.087 C-27.64,-1.735 4.32999061,-3.074 44.18,-2.813 C84.04,-2.552 116.32,0.758 116.300009,4.58 Z" id="Path" fill="#FFFFFF" fill-rule="nonzero" mask="url(#mask-9)"></path>
            </g>
            <rect id="Rectangle" fill="url(#linearGradient-10)" fill-rule="nonzero" x="405.17188" y="1108.19" width="1600" height="230.136"></rect>
            <polygon id="Path" fill="url(#linearGradient-11)" fill-rule="nonzero" points="694.697 1086.98 697.688 1102.04 584.351 1124.54 578.977 1102.04"></polygon>
            <circle id="Oval" fill="#FFFFFF" fill-rule="nonzero" opacity="0.34" cx="405.17188" cy="438.902" r="405"></circle>
            <circle id="Oval" fill="#FFFFFF" fill-rule="nonzero" opacity="0.5" cx="405.67188" cy="439.402" r="292.5"></circle>
            <circle id="Oval" fill="#FFFFFF" fill-rule="nonzero" cx="405.17188" cy="438.902" r="143"></circle>
            <path d="M1019.905,171.197 C1024.845,171.197 1029.471,172.537 1033.442,174.871 C1038.938,162.376 1051.432,153.65 1065.969,153.65 C1066.711,153.65 1067.448,153.676 1068.18,153.72 C1077.395,137.131 1095.106,125.902 1115.443,125.902 C1137.554,125.902 1156.559,139.176 1164.919,158.18 C1170.958,154.63 1177.994,152.592 1185.508,152.592 C1207.966,152.592 1226.172,170.781 1226.172,193.217 C1226.172,198.02 1225.335,202.626 1223.804,206.902 L1125.474,206.902 L1024.933,206.902 L994.728,206.902 C993.722,204.091 993.172,201.062 993.172,197.905 C993.172,183.155 1005.141,171.197 1019.905,171.197 Z" id="Path" fill="url(#linearGradient-12)" fill-rule="nonzero"></path>
            <path d="M1920.13,342.297 C1926.77,342.297 1932.99,344.084 1938.33,347.196 C1945.73,330.537 1962.53,318.902 1982.08,318.902 C2007.69,318.902 2028.59,338.861 2029.79,363.929 C2031.98,363.324 2034.28,362.993 2036.66,362.993 C2050.75,362.993 2062.17,374.303 2062.17,388.255 C2062.17,388.809 2062.15,389.357 2062.11,389.902 L1886.27,389.902 C1884.91,386.154 1884.17,382.116 1884.17,377.907 C1884.17,358.24 1900.27,342.297 1920.13,342.297 Z" id="Path" fill="#FFFFFF" fill-rule="nonzero"></path>
            <g id="Group" opacity="0.9" transform="translate(1719.000000, 152.000000)" fill="#FFFFFF" fill-rule="nonzero">
                <path d="M16.12,27.184 C19.07,27.184 21.83,27.961 24.2,29.316 C27.47,22.066 34.93,17.003 43.6,17.003 C44.04,17.003 44.48,17.017 44.92,17.044 C50.42,7.418 60.98,0.902 73.11,0.902 C86.31,0.902 97.64,8.604 102.63,19.632 C106.23,17.572 110.43,16.389 114.91,16.389 C128.31,16.389 139.17,26.943 139.17,39.961 C139.17,42.748 138.67,45.421 137.76,47.902 L79.1,47.902 L19.12,47.902 L1.1,47.902 C0.5,46.271 0.17,44.514 0.17,42.682 C0.17,34.123 7.31,27.184 16.12,27.184 Z" id="Path"></path>
            </g>
        </g>
    </g>
</svg>