<svg width="2560" height="1045" viewBox="0 0 2560 1045" fill="none" xmlns="http://www.w3.org/2000/svg">
<rect y="-1" width="2560" height="940" fill="#EFF6FF"/>
<g opacity="0.9">
<path d="M1149.22 716.976C1463.37 510.756 1486.32 570.481 1685.77 621.621V964.397L-720 998.345V885C-720 885 -649.5 793.5 -482 742C-314.5 690.5 -193.5 831.861 -41.5 823C110.5 814.139 479.672 898.897 479.672 898.897C572.936 818.286 738.287 728.458 891.258 763.471C1058.15 801.67 1075.18 765.58 1149.22 716.976Z" fill="url(#paint0_linear)"/>
<path d="M478.101 905.734L477.994 906.207L481.7 907.057L484.577 904.571C530.66 864.74 594.592 822.615 665.803 794.812C737.039 766.999 815.029 753.717 889.585 770.782C973.366 789.958 1020.92 790.856 1057.21 779.957C1075.37 774.506 1090.34 766.211 1105.27 756.382C1112.19 751.828 1119.16 746.897 1126.42 741.772L1128.05 740.621C1135.92 735.06 1144.19 729.245 1153.33 723.246C1310.43 620.125 1393.22 584.589 1460.99 580.273C1494.77 578.122 1525.24 583.709 1560 593.182C1574.07 597.016 1588.73 601.454 1604.59 606.257C1608.38 607.404 1612.24 608.573 1616.18 609.758C1635 615.429 1655.47 621.465 1678.27 627.426V957.003L-712.5 990.739V887.667C-712.078 887.163 -711.57 886.566 -710.975 885.879C-708.819 883.39 -705.517 879.731 -701.02 875.157C-692.024 866.009 -678.245 853.204 -659.274 838.783C-621.339 809.948 -562.619 774.634 -479.796 749.169C-398.66 724.222 -328.642 745.785 -258.699 773.483C-249.649 777.067 -240.584 780.764 -231.489 784.473C-170.902 809.184 -108.962 834.445 -41.0635 830.487C33.8994 826.117 163.316 844.898 274.754 865.006C330.309 875.03 381.13 885.333 418.065 893.13C436.531 897.028 451.521 900.299 461.892 902.595C467.077 903.743 471.107 904.646 473.838 905.263C475.204 905.571 476.245 905.808 476.944 905.967C477.293 906.046 477.557 906.106 477.733 906.147L477.93 906.192L477.979 906.203L477.991 906.206C477.992 906.206 477.993 906.206 478.101 905.734Z" stroke="#A5BBF5" stroke-opacity="0.15" stroke-width="15"/>
</g>
<path d="M1719.51 178.469C1525.01 176.519 1471.74 62.088 1452.01 -1.13281H2560.01V576.631C2284.11 622.462 2131.48 533.725 2091.86 359.177C2001.85 386.481 1945.1 337.237 1929.45 286.53C1845.7 318.904 1740.51 248.828 1719.51 178.469Z" fill="url(#paint1_linear)"/>
<path d="M1750.51 292.874L1917.98 453.756L1915.44 537.668L1713.01 415.27L1693.53 283.137L1750.51 292.874Z" fill="#D6EEFD"/>
<path d="M1789.98 256.998V292.874H1750.52C1733.66 292.874 1719.99 306.539 1719.99 323.396V510.587H1542V323.396C1542 306.539 1528.33 292.874 1511.47 292.874H1469.82V256.998C1469.82 256.998 1789.98 256.998 1789.98 256.998Z" fill="white"/>
<path d="M1672.64 314.529H1703.02V330.36H1672.64V314.529Z" fill="#073C4E"/>
<path d="M1632.39 314.529H1662.76V330.36H1632.39V314.529Z" fill="#073C4E"/>
<path d="M1592.13 314.529H1622.51V330.36H1592.13V314.529Z" fill="#073C4E"/>
<path d="M1551.88 314.529H1582.26V330.36H1551.88V314.529Z" fill="#073C4E"/>
<path d="M1672.64 346.476H1703.02V362.306H1672.64V346.476Z" fill="#073C4E"/>
<path d="M1632.39 346.476H1662.76V362.306H1632.39V346.476Z" fill="#073C4E"/>
<path d="M1592.13 346.476H1622.51V362.306H1592.13V346.476Z" fill="#073C4E"/>
<path d="M1551.88 346.476H1582.26V362.306H1551.88V346.476Z" fill="#073C4E"/>
<path d="M1460.09 256.998H1804.68V292.874H1460.09V256.998Z" fill="#D6EEFD"/>
<path d="M1460.09 256.998H1731.62V292.874H1460.09V256.998Z" fill="white"/>
<path d="M1541.99 200.493H1726.46V219.659H1541.99V200.493Z" fill="white"/>
<path d="M1541.99 242.991H1726.46V256.997H1541.99V242.991Z" fill="white"/>
<path d="M1552.27 219.659H1717.02V242.992H1552.27V219.659Z" fill="#073C4E"/>
<path d="M1677.37 219.659H1709.68V242.992H1677.37V219.659Z" fill="#C8ECE8"/>
<path d="M1638.02 219.659H1670.33V242.992H1638.02V219.659Z" fill="#C8ECE8"/>
<path d="M1598.68 219.659H1630.98V242.992H1598.68V219.659Z" fill="#C8ECE8"/>
<path d="M1559.33 219.659H1591.63V242.992H1559.33V219.659Z" fill="#C8ECE8"/>
<path d="M1397.28 354.527C1396.53 325.841 1395.91 297.164 1394.6 268.315C1394.37 265.788 1394.14 263.176 1393.85 260.542C1412.06 266.667 1713.48 369.614 1948.9 549.553V591.783C1875.62 544.075 1798.98 501.232 1719.09 461.863C1616.03 411.254 1508.17 378.033 1397.28 354.527Z" fill="#062431"/>
<path d="M1396.66 330.284L1396.38 319.824C1414.59 325.949 1713.48 390.074 1948.89 570.013V578.536C1756.84 433.646 1507.55 353.79 1396.66 330.284Z" fill="#B71C22"/>
<path d="M1400.19 431.466C1398.72 405.725 1397.95 380.122 1397.28 354.527C1508.17 378.033 1616.03 411.254 1719.09 461.863C1798.98 501.232 1875.62 544.075 1948.89 591.783V629.818H1392.98C1392.98 629.818 1392.74 628.227 1392.23 625.265C1394.08 616.145 1395.56 606.974 1396.46 597.72C1400.81 541.888 1403.29 487.298 1400.19 431.466Z" fill="#6D1415"/>
<path d="M1396.66 330.36C1396.87 338.372 1397.07 346.381 1397.28 354.391C1367.72 367.057 1343.93 388.232 1324.22 413.235C1320.82 406.573 1317.27 399.982 1313.57 393.495C1335 365.671 1364.33 344.449 1396.66 330.36Z" fill="#073C4E"/>
<path d="M1311.06 389.199C1309.46 386.537 1305.32 379.6 1303.67 376.984C1303.67 376.984 1325.75 312.073 1392.98 260.25C1392.98 260.25 1393.28 260.349 1393.85 260.542C1394.14 263.176 1394.37 265.788 1394.6 268.315C1395.4 285.834 1395.94 303.287 1396.41 320.718C1361.43 333.171 1335.35 360.917 1311.06 389.199Z" fill="#073C4E"/>
<path d="M1396.39 319.823C1396.47 323.038 1396.58 327.147 1396.66 330.36C1364.33 344.449 1337.51 369.966 1316.08 397.789C1314.44 394.904 1312.76 392.04 1311.06 389.199C1333.5 359.193 1360.48 332.624 1396.39 319.823Z" fill="#B71C22"/>
<path d="M1397.28 354.391C1397.95 380.031 1398.72 405.68 1400.19 431.467C1403.29 487.298 1400.81 541.889 1396.46 597.72C1395.56 606.974 1394.08 616.145 1392.23 625.265C1388.43 602.888 1369.49 501.997 1324.22 413.235C1343.93 388.232 1367.72 367.057 1397.28 354.391Z" fill="#B71C22"/>
<path d="M1917.98 603.598C1916.58 603.598 1915.44 602.462 1915.44 601.061C1915.44 599.66 1916.58 598.524 1917.98 598.524C1919.38 598.524 1920.52 599.66 1920.52 601.061C1920.52 602.462 1919.38 603.598 1917.98 603.598Z" fill="white" stroke="#305FC4" stroke-width="2" stroke-miterlimit="10"/>
<path d="M1906.13 596.149C1904.36 596.149 1902.93 594.717 1902.93 592.95C1902.93 591.184 1904.36 589.752 1906.13 589.752C1907.9 589.752 1909.33 591.184 1909.33 592.95C1909.33 594.717 1907.9 596.149 1906.13 596.149Z" fill="white" stroke="#305FC4" stroke-width="2.1818" stroke-miterlimit="10"/>
<path d="M1886.45 585.86C1884.32 585.86 1882.59 584.132 1882.59 582C1882.59 579.868 1884.32 578.14 1886.45 578.14C1888.58 578.14 1890.31 579.868 1890.31 582C1890.31 584.132 1888.58 585.86 1886.45 585.86Z" fill="white" stroke="#305FC4" stroke-width="2.3636" stroke-miterlimit="10"/>
<path d="M1859.86 573.327C1857.36 573.327 1855.34 571.302 1855.34 568.805C1855.34 566.308 1857.36 564.283 1859.86 564.283C1862.36 564.283 1864.38 566.308 1864.38 568.805C1864.38 571.302 1862.36 573.327 1859.86 573.327Z" fill="white" stroke="#305FC4" stroke-width="2.5455" stroke-miterlimit="10"/>
<path d="M1827.26 559.143C1824.4 559.143 1822.08 556.823 1822.08 553.96C1822.08 551.097 1824.4 548.777 1827.26 548.777C1830.13 548.777 1832.45 551.097 1832.45 553.96C1832.45 556.823 1830.13 559.143 1827.26 559.143Z" fill="white" stroke="#305FC4" stroke-width="2.7273" stroke-miterlimit="10"/>
<path d="M1789.59 543.903C1786.36 543.903 1783.74 541.287 1783.74 538.059C1783.74 534.831 1786.36 532.214 1789.59 532.214C1792.82 532.214 1795.43 534.831 1795.43 538.059C1795.43 541.287 1792.82 543.903 1789.59 543.903Z" fill="white" stroke="#305FC4" stroke-width="2.9091" stroke-miterlimit="10"/>
<path d="M1747.74 528.202C1744.15 528.202 1741.23 525.289 1741.23 521.696C1741.23 518.102 1744.15 515.189 1747.74 515.189C1751.34 515.189 1754.25 518.102 1754.25 521.696C1754.25 525.289 1751.34 528.202 1747.74 528.202Z" fill="white" stroke="#305FC4" stroke-width="3.0909" stroke-miterlimit="10"/>
<path d="M1702.64 512.633C1698.68 512.633 1695.48 509.424 1695.48 505.465C1695.48 501.506 1698.68 498.297 1702.64 498.297C1706.6 498.297 1709.81 501.506 1709.81 505.465C1709.81 509.424 1706.6 512.633 1702.64 512.633Z" fill="white" stroke="#305FC4" stroke-width="3.2727" stroke-miterlimit="10"/>
<path d="M1655.21 497.791C1650.88 497.791 1647.38 494.286 1647.38 489.962C1647.38 485.638 1650.88 482.133 1655.21 482.133C1659.53 482.133 1663.04 485.638 1663.04 489.962C1663.04 494.286 1659.53 497.791 1655.21 497.791Z" fill="white" stroke="#305FC4" stroke-width="3.4545" stroke-miterlimit="10"/>
<path d="M1606.35 484.27C1601.66 484.27 1597.86 480.468 1597.86 475.779C1597.86 471.09 1601.66 467.289 1606.35 467.289C1611.04 467.289 1614.84 471.09 1614.84 475.779C1614.84 480.468 1611.04 484.27 1606.35 484.27Z" fill="white" stroke="#305FC4" stroke-width="3.6364" stroke-miterlimit="10"/>
<path d="M1556.99 472.665C1551.93 472.665 1547.83 468.568 1547.83 463.513C1547.83 458.458 1551.93 454.361 1556.99 454.361C1562.04 454.361 1566.14 458.458 1566.14 463.513C1566.14 468.568 1562.04 472.665 1556.99 472.665Z" fill="white" stroke="#305FC4" stroke-width="3.8182" stroke-miterlimit="10"/>
<path d="M1508.04 463.57C1502.61 463.57 1498.22 459.176 1498.22 453.756C1498.22 448.336 1502.61 443.942 1508.04 443.942C1513.46 443.942 1517.85 448.336 1517.85 453.756C1517.85 459.176 1513.46 463.57 1508.04 463.57Z" fill="white" stroke="#305FC4" stroke-width="4" stroke-miterlimit="10"/>
<path d="M1909.93 489.827L1743.89 371.798V351.448L1909.93 482.962V489.827Z" fill="#073C4E"/>
<path d="M1909.93 464.479V472.464L1743.89 336.256V317.211L1909.93 464.479Z" fill="#073C4E"/>
<path d="M1902.78 452.33H1905.13V499.915H1902.78V452.33Z" fill="#D6EEFD"/>
<path d="M1890.12 487.959L1895.09 489.827V442.243L1890.12 440.374V487.959Z" fill="#D6EEFD"/>
<path d="M1873.38 472.972L1879.67 477.057V429.473L1873.38 425.388V472.972Z" fill="#D6EEFD"/>
<path d="M1848.27 449.955L1858.31 457.897V410.313L1848.27 402.37V449.955Z" fill="#D6EEFD"/>
<path d="M1816.87 426.61L1826.91 434.553V386.969L1816.87 379.026V426.61Z" fill="#D6EEFD"/>
<path d="M1774.36 397.811L1787.63 408.312V345.398L1774.36 334.897V397.811Z" fill="#D6EEFD"/>
<path opacity="0.9" d="M2079.67 624.861C2079.67 711.421 1951.67 916.703 1780.67 831.31C1477.17 679.751 1282.17 779.004 1170.17 869.73C1058.17 960.457 914.286 989.278 809.173 973.418C628.173 946.107 479.673 1034.98 479.673 1034.98H2079.67V624.861Z" fill="#4166DB"/>
<path opacity="0.2" d="M2211.51 111.35C1918.86 214.304 1739.01 111.35 1671.51 -0.206985L2560.22 -0.207031V398.538C2537.35 226.87 2411.51 40.9903 2211.51 111.35Z" fill="url(#paint2_linear)"/>
<path d="M1672.82 94.7612H1680.86V192.24H1672.82V94.7612Z" fill="#073C4E"/>
<path d="M1650.16 128.929H1658.2V192.24H1650.16V128.929Z" fill="#073C4E"/>
<path d="M1590.64 153.717H1598.68V192.24H1590.64V153.717Z" fill="#073C4E"/>
<path d="M1625.91 192.24C1618.14 192.24 1611.84 185.941 1611.84 178.171C1611.84 170.401 1618.14 164.102 1625.91 164.102C1633.68 164.102 1639.98 170.401 1639.98 178.171C1639.98 185.941 1633.68 192.24 1625.91 192.24Z" fill="#073C4E"/>
<path d="M1385.17 589.588C1389.06 589.979 1395.31 597.82 1397.65 601.825L1388.22 603.947L1385.17 589.588Z" fill="#EAEAEA"/>
<path opacity="0.8" d="M1384.67 587.59C1388.56 587.981 1395 595.707 1397.34 599.712L1387.91 601.835L1384.67 587.59Z" fill="#EAEAEA"/>
<path opacity="0.9" d="M1635.71 604.541C1639.86 604.087 1644.77 605.922 1644.77 605.922L1647.85 604.901C1657.52 601.147 1662.8 607.181 1662.8 607.181L1667.9 604.877C1681.99 600.837 1687.48 610.816 1687.48 610.816C1693.04 610.048 1698.19 613.764 1701.01 616.315C1709.02 617.637 1725.73 623.392 1725.73 623.392L1702.99 619.926L1698.58 619.253L1626.91 608.327C1626.91 608.327 1631.57 604.995 1635.71 604.541Z" fill="white"/>
<path opacity="0.9" d="M1418.9 599.73C1418.9 599.73 1437.52 574.246 1455.54 581.321C1455.54 581.321 1470.19 551.522 1500.1 570.332L1510.71 579.845C1510.71 579.845 1523.89 562.641 1544.17 578.704L1550.66 583.258C1550.66 583.258 1561.93 579.393 1570.93 582.567C1579.92 585.741 1589.29 598.372 1589.29 598.372L1419.07 604.175L1418.9 599.73Z" fill="white"/>
<path d="M1602.59 597.961C1606.74 597.507 1611.65 599.342 1611.65 599.342L1614.72 598.321C1624.4 594.567 1629.68 600.601 1629.68 600.601L1634.78 598.297C1648.87 594.257 1654.35 604.236 1654.35 604.236C1659.92 603.468 1665.07 607.183 1667.89 609.735C1675.89 611.057 1692.61 616.812 1692.61 616.812L1669.87 613.346L1665.46 612.673L1593.79 601.747C1593.79 601.747 1598.45 598.415 1602.59 597.961Z" fill="white"/>
<path d="M1395.77 599.63C1395.77 599.63 1414.4 574.147 1432.42 581.222C1432.42 581.222 1447.06 551.422 1476.97 570.233L1487.59 579.745C1487.59 579.745 1500.77 562.541 1521.05 578.604L1527.54 583.159C1527.54 583.159 1538.81 579.294 1547.81 582.467C1556.8 585.641 1566.17 598.272 1566.17 598.272L1395.95 604.076L1395.77 599.63Z" fill="white"/>
<path d="M1632.13 598.054C1907.21 663.944 2025.73 562.839 2075.1 457.501C2098.09 408.448 2286 233.419 2502 366.001C2718 498.583 2866.5 549.898 2979.5 457.501C3092.5 365.103 3280 410.501 3280 410.501V1044.28H-720V857.8L-720 707C-473.5 598.054 -455 796.036 -208 786.984C39.0001 777.931 31 857.8 172 857.8C326.5 857.8 467.436 796.036 467.436 796.036C467.436 796.036 595.772 753.655 761.772 786.984C844.645 803.622 905.62 805.984 1000.65 786.984C1095.51 768.015 1339.42 527.943 1632.13 598.054Z" fill="url(#paint3_linear)"/>
<path opacity="0.95" fill-rule="evenodd" clip-rule="evenodd" d="M1282.37 781.831C1253.19 787.969 1259.37 813.201 1259.37 813.201C1278.25 805.595 1320.45 782.805 1370.35 756.965C1370.35 756.965 1362.47 752.511 1355.82 752.824C1349.16 753.137 1343.19 758.495 1343.19 758.495L1337.71 757.287C1320.03 752.351 1316.86 766.65 1316.86 766.65L1307.27 763.367C1282.66 759.178 1282.37 781.831 1282.37 781.831Z" fill="white"/>
<path opacity="0.5" fill-rule="evenodd" clip-rule="evenodd" d="M1290.8 777.717C1261.63 783.854 1267.8 809.086 1267.8 809.086C1286.68 801.481 1328.89 778.69 1378.78 752.85C1378.78 752.85 1370.9 748.397 1364.25 748.709C1357.6 749.022 1351.62 754.38 1351.62 754.38L1346.14 753.172C1328.46 748.236 1325.3 762.535 1325.3 762.535L1315.71 759.252C1291.1 755.063 1290.8 777.717 1290.8 777.717Z" fill="white"/>
<path d="M1000.65 786.984C1095.51 768.015 1339.42 527.943 1632.13 598.054C1907.21 663.944 2025.73 562.839 2075.1 457.501C2098.09 408.448 2286 233.419 2502 366.001C2718 498.583 2866.5 549.898 2979.5 457.501C3092.5 365.103 3280 410.501 3280 410.501V430.282L3260 425.501C3260 425.501 3097 380.603 2984 473C2871 565.398 2718 513.583 2502 381.001C2286 248.419 2098.09 423.448 2075.1 472.501C2025.73 577.839 1907.21 678.944 1632.13 613.054C1339.42 542.943 1095.51 783.015 1000.65 801.984C905.62 820.984 844.646 818.622 761.772 801.984C595.772 768.655 467.436 811.036 467.436 811.036C467.436 811.036 326.5 872.8 172 872.8C31 872.8 39.0001 792.931 -208 801.984C-455 811.036 -486 610 -708 716L-720 722.282L-720 707C-473.5 598.054 -455 796.036 -208 786.984C39.0001 777.931 31 857.8 172 857.8C326.5 857.8 467.436 796.036 467.436 796.036C467.436 796.036 595.772 753.655 761.772 786.984C844.646 803.622 905.62 805.984 1000.65 786.984Z" fill="#A5BBF5" fill-opacity="0.15"/>
<path d="M1000.65 786.984C1095.51 768.015 1339.42 527.943 1632.13 598.054C1907.21 663.944 2025.73 562.839 2075.1 457.501C2098.09 408.448 2286 233.419 2502 366.001C2718 498.583 2866.5 549.898 2979.5 457.501C3092.5 365.103 3280 410.501 3280 410.501V430.282L3260 425.501C3260 425.501 3097 380.603 2984 473C2871 565.398 2718 513.583 2502 381.001C2286 248.419 2098.09 423.448 2075.1 472.501C2025.73 577.839 1907.21 678.944 1632.13 613.054C1339.42 542.943 1095.51 783.015 1000.65 801.984C905.62 820.984 844.646 818.622 761.772 801.984C595.772 768.655 467.436 811.036 467.436 811.036C467.436 811.036 326.5 872.8 172 872.8C31 872.8 39.0001 792.931 -208 801.984C-455 811.036 -486 610 -708 716L-720 722.282L-720 707C-473.5 598.054 -455 796.036 -208 786.984C39.0001 777.931 31 857.8 172 857.8C326.5 857.8 467.436 796.036 467.436 796.036C467.436 796.036 595.772 753.655 761.772 786.984C844.646 803.622 905.62 805.984 1000.65 786.984Z" fill="url(#paint4_radial)" fill-opacity="0.6"/>
<path opacity="0.95" fill-rule="evenodd" clip-rule="evenodd" d="M1477.08 703.895C1447.68 692.347 1417.28 733.94 1417.28 733.94L1417.56 738.572C1459.39 720.935 1568.65 683.58 1692.53 727.656C1692.53 727.656 1680.09 711.108 1665.42 705.928C1650.74 700.748 1632.34 707.056 1632.34 707.056L1621.74 699.623C1588.65 673.405 1567.13 701.485 1567.13 701.485L1549.8 685.959C1500.99 655.257 1477.08 703.895 1477.08 703.895Z" fill="white"/>
<path opacity="0.3" fill-rule="evenodd" clip-rule="evenodd" d="M1497.17 701.102C1468.56 688.455 1436.28 732.518 1436.28 732.518C1479.16 717.915 1583.94 682.285 1709.91 735.747C1709.91 735.747 1699.36 719.038 1685.04 713.284C1670.72 707.53 1651.95 712.565 1651.95 712.565L1641.85 704.877C1610.49 677.994 1587.21 703.691 1587.21 703.691L1570.91 687.894C1524.15 655.865 1497.17 701.102 1497.17 701.102Z" fill="white"/>
<path d="M2125.67 523.283C2125.67 523.283 1912.97 831.583 1742.24 747.009C1505.36 629.666 1368.73 773.373 1079.35 891.438L1088.68 905.017C1372.38 787.627 1508.64 647.797 1743.24 764.009C1913.97 848.583 2126.67 540.283 2126.67 540.283C2126.67 540.283 2239.5 408.001 2340.5 408C2441.5 408 2495 440.139 2644.5 571.501C2794 702.863 2847.5 570.001 3004.5 615.641C3161.5 661.282 3264 552 3264 552L3280 537.079V514C3280 514 3160.5 644.282 3003.5 598.641C2846.5 553.001 2793 685.863 2643.5 554.501C2494 423.139 2440.5 391 2339.5 391C2238.5 391.001 2125.67 523.283 2125.67 523.283Z" fill="#5073DF"/>
<path d="M2125.67 523.283C2125.67 523.283 1912.97 831.583 1742.24 747.009C1505.36 629.666 1368.73 773.373 1079.35 891.438L1088.68 905.017C1372.38 787.627 1508.64 647.797 1743.24 764.009C1913.97 848.583 2126.67 540.283 2126.67 540.283C2126.67 540.283 2239.5 408.001 2340.5 408C2441.5 408 2495 440.139 2644.5 571.501C2794 702.863 2847.5 570.001 3004.5 615.641C3161.5 661.282 3264 552 3264 552L3280 537.079V514C3280 514 3160.5 644.282 3003.5 598.641C2846.5 553.001 2793 685.863 2643.5 554.501C2494 423.139 2440.5 391 2339.5 391C2238.5 391.001 2125.67 523.283 2125.67 523.283Z" fill="url(#paint5_linear)"/>
<path opacity="0.3" d="M1902.7 242.79C1903.13 242.73 1903.46 242.424 1903.52 242.042C1904.61 235.888 1909.25 230.483 1916.09 228.365L1916.09 228.362C1916.39 228.269 1916.64 228.049 1916.72 227.767C1916.88 227.247 1916.54 226.752 1916.02 226.635C1913.84 226.146 1911.5 226.201 1909.22 226.907C1904.94 228.234 1901.97 231.523 1901.09 235.329C1901.03 235.581 1900.88 235.811 1900.64 235.946C1900.27 236.159 1899.81 236.114 1899.49 235.859C1896.31 233.296 1891.78 232.316 1887.49 233.646C1885.23 234.349 1883.33 235.605 1881.91 237.196C1881.65 237.484 1881.59 237.89 1881.79 238.218C1882.01 238.605 1882.51 238.78 1882.95 238.642C1882.95 238.641 1882.96 238.639 1882.96 238.638C1889.78 236.523 1896.99 238.239 1901.87 242.529C1902.09 242.726 1902.4 242.832 1902.7 242.79Z" fill="black"/>
<path opacity="0.1" d="M1938.62 261.496C1937.26 260.753 1935.66 260.343 1933.97 260.387C1930.77 260.469 1928.03 262.136 1926.59 264.551C1926.47 264.749 1926.25 264.874 1926.01 264.88C1925.76 264.887 1925.54 264.772 1925.41 264.581C1923.83 262.244 1920.99 260.721 1917.8 260.803C1916.1 260.847 1914.53 261.338 1913.22 262.15C1912.96 262.307 1912.85 262.601 1912.95 262.87C1913.04 263.14 1913.31 263.321 1913.62 263.313C1913.62 263.313 1913.62 263.312 1913.63 263.312C1918.71 263.181 1923.2 265.721 1925.54 269.555C1925.67 269.761 1925.9 269.886 1926.16 269.879C1926.41 269.873 1926.64 269.736 1926.76 269.524C1928.86 265.575 1933.19 262.809 1938.28 262.678C1938.28 262.678 1938.28 262.678 1938.29 262.677C1938.59 262.67 1938.86 262.476 1938.93 262.202C1939.01 261.928 1938.88 261.64 1938.62 261.496Z" fill="black"/>
<path opacity="0.4" d="M637.934 202.004C635.306 200.568 632.225 199.778 628.95 199.862C622.783 200.021 617.486 203.24 614.709 207.904C614.482 208.286 614.053 208.529 613.582 208.541C613.111 208.552 612.669 208.332 612.419 207.963C609.367 203.449 603.885 200.507 597.719 200.666C594.444 200.751 591.415 201.699 588.878 203.267C588.387 203.571 588.173 204.138 588.352 204.659C588.531 205.179 589.06 205.528 589.65 205.513C589.655 205.512 589.661 205.512 589.667 205.512C599.486 205.259 608.167 210.163 612.678 217.57C612.92 217.967 613.38 218.208 613.872 218.195C614.365 218.183 614.81 217.919 615.028 217.51C619.087 209.883 627.461 204.539 637.28 204.286C637.286 204.286 637.292 204.286 637.297 204.286C637.887 204.271 638.396 203.896 638.543 203.367C638.691 202.838 638.442 202.282 637.934 202.004Z" fill="black"/>
<circle opacity="0.34" cx="479.672" cy="349.398" r="405" fill="white"/>
<circle opacity="0.5" cx="480.172" cy="349.898" r="292.5" fill="white"/>
<circle cx="479.672" cy="349.398" r="143" fill="white"/>
<g filter="url(#filter0_ddd)">
<path d="M1094.41 170.692C1099.35 170.692 1103.97 172.033 1107.94 174.366C1113.44 161.872 1125.93 153.146 1140.47 153.146C1141.21 153.146 1141.95 153.171 1142.68 153.216C1151.89 136.626 1169.61 125.398 1189.94 125.398C1212.05 125.398 1231.06 138.671 1239.42 157.676C1245.46 154.126 1252.49 152.087 1260.01 152.087C1282.47 152.087 1300.67 170.276 1300.67 192.713C1300.67 197.515 1299.84 202.122 1298.3 206.398H1199.97H1099.43H1069.23C1068.22 203.586 1067.67 200.558 1067.67 197.401C1067.67 182.65 1079.64 170.692 1094.41 170.692Z" fill="url(#paint6_linear)"/>
</g>
<g filter="url(#filter1_ddd)">
<path d="M114.559 501.864C118.234 501.864 121.675 502.861 124.629 504.597C128.718 495.302 138.012 488.811 148.826 488.811C149.379 488.811 149.927 488.83 150.471 488.863C157.326 476.522 170.502 468.169 185.631 468.169C202.079 468.169 216.217 478.043 222.436 492.181C226.929 489.54 232.163 488.023 237.753 488.023C254.459 488.023 268.003 501.554 268.003 518.245C268.003 521.818 267.38 525.244 266.242 528.426H193.093H118.299H95.8299C95.081 526.334 94.6719 524.081 94.6719 521.733C94.6717 510.759 103.576 501.864 114.559 501.864Z" fill="url(#paint7_linear)"/>
</g>
<g filter="url(#filter2_ddd)">
<path d="M1994.63 341.793C2001.27 341.793 2007.49 343.58 2012.83 346.691C2020.22 330.033 2037.03 318.398 2056.58 318.398C2082.19 318.398 2103.09 338.357 2104.29 363.425C2106.48 362.82 2108.78 362.489 2111.16 362.489C2125.25 362.489 2136.67 373.799 2136.67 387.751C2136.67 388.305 2136.65 388.853 2136.61 389.398H1960.76C1959.41 385.65 1958.67 381.612 1958.67 377.402C1958.67 357.736 1974.77 341.793 1994.63 341.793Z" fill="white"/>
</g>
<g opacity="0.9" filter="url(#filter3_ddd)">
<path d="M1809.62 178.679C1812.57 178.679 1815.33 179.457 1817.7 180.811C1820.97 173.562 1828.43 168.498 1837.1 168.498C1837.54 168.498 1837.98 168.513 1838.42 168.539C1843.92 158.913 1854.48 152.398 1866.61 152.398C1879.81 152.398 1891.14 160.1 1896.13 171.127C1899.73 169.067 1903.93 167.884 1908.41 167.884C1921.81 167.884 1932.67 178.438 1932.67 191.457C1932.67 194.244 1932.17 196.917 1931.26 199.398H1872.6H1812.62H1794.6C1794 197.767 1793.67 196.009 1793.67 194.177C1793.67 185.618 1800.81 178.679 1809.62 178.679Z" fill="white"/>
</g>
<rect x="1301" y="882.496" width="46" height="46" rx="23" stroke="url(#paint8_linear)" stroke-width="4"/>
<g opacity="0.8">
<path d="M1321.61 891.815C1315.67 891.173 1311.15 895.885 1310.64 900.912C1310.39 903.319 1313.17 903.351 1314.44 901.294C1316.14 898.544 1318.23 896.435 1321.39 895.127C1323.14 894.401 1323.49 892.019 1321.61 891.815Z" fill="white" fill-opacity="0.6"/>
<path d="M1321.61 891.815C1315.67 891.173 1311.15 895.885 1310.64 900.912C1310.39 903.319 1313.17 903.351 1314.44 901.294C1316.14 898.544 1318.23 896.435 1321.39 895.127C1323.14 894.401 1323.49 892.019 1321.61 891.815Z" fill="url(#paint9_radial)"/>
</g>
<g opacity="0.9">
<path d="M1331.12 918.743C1333.95 918.122 1336.05 915.775 1336.46 913.347C1336.73 911.757 1334.93 911.841 1334.11 913.231C1333.34 914.55 1332.34 915.667 1331 916.499C1329.72 917.288 1329.66 919.064 1331.12 918.743Z" fill="white" fill-opacity="0.6"/>
<path d="M1331.12 918.743C1333.95 918.122 1336.05 915.775 1336.46 913.347C1336.73 911.757 1334.93 911.841 1334.11 913.231C1333.34 914.55 1332.34 915.667 1331 916.499C1329.72 917.288 1329.66 919.064 1331.12 918.743Z" fill="url(#paint10_radial)"/>
</g>
<defs>
<filter id="filter0_ddd" x="1024.67" y="75.3979" width="333" height="181" filterUnits="userSpaceOnUse" color-interpolation-filters="sRGB">
<feFlood flood-opacity="0" result="BackgroundImageFix"/>
<feColorMatrix in="SourceAlpha" type="matrix" values="0 0 0 0 0 0 0 0 0 0 0 0 0 0 0 0 0 0 127 0"/>
<feOffset dx="7"/>
<feGaussianBlur stdDeviation="25"/>
<feColorMatrix type="matrix" values="0 0 0 0 0.121569 0 0 0 0 0.247059 0 0 0 0 0.682353 0 0 0 0.02 0"/>
<feBlend mode="normal" in2="BackgroundImageFix" result="effect1_dropShadow"/>
<feColorMatrix in="SourceAlpha" type="matrix" values="0 0 0 0 0 0 0 0 0 0 0 0 0 0 0 0 0 0 127 0"/>
<feOffset dx="13" dy="2"/>
<feGaussianBlur stdDeviation="3"/>
<feColorMatrix type="matrix" values="0 0 0 0 0.121569 0 0 0 0 0.247059 0 0 0 0 0.682353 0 0 0 0.02 0"/>
<feBlend mode="normal" in2="effect1_dropShadow" result="effect2_dropShadow"/>
<feColorMatrix in="SourceAlpha" type="matrix" values="0 0 0 0 0 0 0 0 0 0 0 0 0 0 0 0 0 0 127 0"/>
<feOffset dx="10" dy="10"/>
<feGaussianBlur stdDeviation="10"/>
<feColorMatrix type="matrix" values="0 0 0 0 0.121569 0 0 0 0 0.247059 0 0 0 0 0.682353 0 0 0 0.02 0"/>
<feBlend mode="normal" in2="effect2_dropShadow" result="effect3_dropShadow"/>
<feBlend mode="normal" in="SourceGraphic" in2="effect3_dropShadow" result="shape"/>
</filter>
<filter id="filter1_ddd" x="51.672" y="418.169" width="273.331" height="160.257" filterUnits="userSpaceOnUse" color-interpolation-filters="sRGB">
<feFlood flood-opacity="0" result="BackgroundImageFix"/>
<feColorMatrix in="SourceAlpha" type="matrix" values="0 0 0 0 0 0 0 0 0 0 0 0 0 0 0 0 0 0 127 0"/>
<feOffset dx="7"/>
<feGaussianBlur stdDeviation="25"/>
<feColorMatrix type="matrix" values="0 0 0 0 0.121569 0 0 0 0 0.247059 0 0 0 0 0.682353 0 0 0 0.02 0"/>
<feBlend mode="normal" in2="BackgroundImageFix" result="effect1_dropShadow"/>
<feColorMatrix in="SourceAlpha" type="matrix" values="0 0 0 0 0 0 0 0 0 0 0 0 0 0 0 0 0 0 127 0"/>
<feOffset dx="13" dy="2"/>
<feGaussianBlur stdDeviation="3"/>
<feColorMatrix type="matrix" values="0 0 0 0 0.121569 0 0 0 0 0.247059 0 0 0 0 0.682353 0 0 0 0.02 0"/>
<feBlend mode="normal" in2="effect1_dropShadow" result="effect2_dropShadow"/>
<feColorMatrix in="SourceAlpha" type="matrix" values="0 0 0 0 0 0 0 0 0 0 0 0 0 0 0 0 0 0 127 0"/>
<feOffset dx="10" dy="10"/>
<feGaussianBlur stdDeviation="10"/>
<feColorMatrix type="matrix" values="0 0 0 0 0.121569 0 0 0 0 0.247059 0 0 0 0 0.682353 0 0 0 0.02 0"/>
<feBlend mode="normal" in2="effect2_dropShadow" result="effect3_dropShadow"/>
<feBlend mode="normal" in="SourceGraphic" in2="effect3_dropShadow" result="shape"/>
</filter>
<filter id="filter2_ddd" x="1915.67" y="268.398" width="278" height="171" filterUnits="userSpaceOnUse" color-interpolation-filters="sRGB">
<feFlood flood-opacity="0" result="BackgroundImageFix"/>
<feColorMatrix in="SourceAlpha" type="matrix" values="0 0 0 0 0 0 0 0 0 0 0 0 0 0 0 0 0 0 127 0"/>
<feOffset dx="7"/>
<feGaussianBlur stdDeviation="25"/>
<feColorMatrix type="matrix" values="0 0 0 0 0.121569 0 0 0 0 0.247059 0 0 0 0 0.682353 0 0 0 0.02 0"/>
<feBlend mode="normal" in2="BackgroundImageFix" result="effect1_dropShadow"/>
<feColorMatrix in="SourceAlpha" type="matrix" values="0 0 0 0 0 0 0 0 0 0 0 0 0 0 0 0 0 0 127 0"/>
<feOffset dx="13" dy="2"/>
<feGaussianBlur stdDeviation="3"/>
<feColorMatrix type="matrix" values="0 0 0 0 0.121569 0 0 0 0 0.247059 0 0 0 0 0.682353 0 0 0 0.02 0"/>
<feBlend mode="normal" in2="effect1_dropShadow" result="effect2_dropShadow"/>
<feColorMatrix in="SourceAlpha" type="matrix" values="0 0 0 0 0 0 0 0 0 0 0 0 0 0 0 0 0 0 127 0"/>
<feOffset dx="10" dy="10"/>
<feGaussianBlur stdDeviation="10"/>
<feColorMatrix type="matrix" values="0 0 0 0 0.121569 0 0 0 0 0.247059 0 0 0 0 0.682353 0 0 0 0.02 0"/>
<feBlend mode="normal" in2="effect2_dropShadow" result="effect3_dropShadow"/>
<feBlend mode="normal" in="SourceGraphic" in2="effect3_dropShadow" result="shape"/>
</filter>
<filter id="filter3_ddd" x="1750.67" y="102.398" width="239" height="147" filterUnits="userSpaceOnUse" color-interpolation-filters="sRGB">
<feFlood flood-opacity="0" result="BackgroundImageFix"/>
<feColorMatrix in="SourceAlpha" type="matrix" values="0 0 0 0 0 0 0 0 0 0 0 0 0 0 0 0 0 0 127 0"/>
<feOffset dx="7"/>
<feGaussianBlur stdDeviation="25"/>
<feColorMatrix type="matrix" values="0 0 0 0 0.121569 0 0 0 0 0.247059 0 0 0 0 0.682353 0 0 0 0.02 0"/>
<feBlend mode="normal" in2="BackgroundImageFix" result="effect1_dropShadow"/>
<feColorMatrix in="SourceAlpha" type="matrix" values="0 0 0 0 0 0 0 0 0 0 0 0 0 0 0 0 0 0 127 0"/>
<feOffset dx="13" dy="2"/>
<feGaussianBlur stdDeviation="3"/>
<feColorMatrix type="matrix" values="0 0 0 0 0.121569 0 0 0 0 0.247059 0 0 0 0 0.682353 0 0 0 0.02 0"/>
<feBlend mode="normal" in2="effect1_dropShadow" result="effect2_dropShadow"/>
<feColorMatrix in="SourceAlpha" type="matrix" values="0 0 0 0 0 0 0 0 0 0 0 0 0 0 0 0 0 0 127 0"/>
<feOffset dx="10" dy="10"/>
<feGaussianBlur stdDeviation="10"/>
<feColorMatrix type="matrix" values="0 0 0 0 0.121569 0 0 0 0 0.247059 0 0 0 0 0.682353 0 0 0 0.02 0"/>
<feBlend mode="normal" in2="effect2_dropShadow" result="effect3_dropShadow"/>
<feBlend mode="normal" in="SourceGraphic" in2="effect3_dropShadow" result="shape"/>
</filter>
<linearGradient id="paint0_linear" x1="1290.15" y1="750.257" x2="1290.15" y2="998.346" gradientUnits="userSpaceOnUse">
<stop stop-color="#8CA8FF"/>
<stop offset="0.807292" stop-color="#345BD8"/>
</linearGradient>
<linearGradient id="paint1_linear" x1="2482.09" y1="165.516" x2="1511.52" y2="237.28" gradientUnits="userSpaceOnUse">
<stop stop-color="#BDE3FB"/>
<stop offset="1" stop-color="#BDE3FB" stop-opacity="0"/>
</linearGradient>
<linearGradient id="paint2_linear" x1="2328.43" y1="82.549" x2="2540.12" y2="-11.7252" gradientUnits="userSpaceOnUse">
<stop stop-color="white"/>
<stop offset="1" stop-color="white" stop-opacity="0"/>
</linearGradient>
<linearGradient id="paint3_linear" x1="1298.16" y1="324.023" x2="1298.16" y2="1044.28" gradientUnits="userSpaceOnUse">
<stop stop-color="#4166DB"/>
<stop offset="1" stop-color="#2F53CB"/>
</linearGradient>
<radialGradient id="paint4_radial" cx="0" cy="0" r="1" gradientUnits="userSpaceOnUse" gradientTransform="translate(1639.8 600.288) rotate(159.404) scale(449.055 616.226)">
<stop stop-color="white" stop-opacity="0.8"/>
<stop offset="1" stop-color="white" stop-opacity="0"/>
</radialGradient>
<linearGradient id="paint5_linear" x1="1093.8" y1="892.934" x2="1314.84" y2="796.93" gradientUnits="userSpaceOnUse">
<stop stop-color="#3256CE"/>
<stop offset="1" stop-color="#5073DF"/>
</linearGradient>
<linearGradient id="paint6_linear" x1="1184.17" y1="198.578" x2="1042.62" y2="200.058" gradientUnits="userSpaceOnUse">
<stop stop-color="#FBFBFD"/>
<stop offset="1" stop-color="#EDF5FF"/>
</linearGradient>
<linearGradient id="paint7_linear" x1="181.337" y1="522.608" x2="76.036" y2="523.709" gradientUnits="userSpaceOnUse">
<stop stop-color="#FBFBFD"/>
<stop offset="1" stop-color="#EDF5FF"/>
</linearGradient>
<linearGradient id="paint8_linear" x1="1324" y1="880.496" x2="1324" y2="930.496" gradientUnits="userSpaceOnUse">
<stop stop-color="#FDFEFF"/>
<stop offset="1" stop-color="#C8D5FF"/>
</linearGradient>
<radialGradient id="paint9_radial" cx="0" cy="0" r="1" gradientUnits="userSpaceOnUse" gradientTransform="translate(1318.9 893.197) rotate(94.4565) scale(8.74534 9.69347)">
<stop stop-color="white"/>
<stop offset="1" stop-color="white" stop-opacity="0"/>
</radialGradient>
<radialGradient id="paint10_radial" cx="0" cy="0" r="1" gradientUnits="userSpaceOnUse" gradientTransform="translate(1332.18 918.029) rotate(-91.1017) scale(5.2472 5.81608)">
<stop stop-color="white"/>
<stop offset="1" stop-color="white" stop-opacity="0"/>
</radialGradient>
</defs>
</svg>
