<svg width="1600" height="1044" viewBox="0 0 1600 1044" fill="none" xmlns="http://www.w3.org/2000/svg">
<rect x="-0.499939" y="-1" width="1600" height="939.669" fill="#EFF6FF"/>
<g opacity="0.9">
<path d="M1206.27 621.125C1366.7 662.259 1558.13 530.157 1600.67 354.259V845.849V997.85H0.172808L0.172791 898.401C93.4363 817.791 258.788 727.963 411.759 762.976C578.648 801.174 595.676 765.084 669.718 716.481C983.87 510.261 1006.82 569.985 1206.27 621.125Z" fill="url(#paint0_linear)"/>
<path d="M1204.41 628.39C1287.21 649.62 1377.37 626.037 1451.9 575.278C1513.42 533.383 1564.84 472.626 1593.17 402.118V845.849V990.35H7.67281L7.67279 901.846C53.546 862.679 116.419 821.601 186.303 794.316C257.539 766.504 335.53 753.222 410.085 770.287C493.866 789.463 541.423 790.361 577.713 779.462C595.867 774.01 610.836 765.716 625.768 755.886C632.686 751.332 639.666 746.401 646.921 741.275C647.461 740.893 648.003 740.51 648.547 740.126C656.422 734.565 664.695 728.75 673.834 722.751C830.927 619.629 913.721 584.093 981.486 579.778C1015.27 577.626 1045.74 583.214 1080.5 592.686C1094.57 596.52 1109.23 600.958 1125.09 605.761C1128.88 606.909 1132.74 608.077 1136.68 609.263C1157.04 615.397 1179.33 621.959 1204.41 628.39Z" stroke="#A5BBF5" stroke-opacity="0.15" stroke-width="15"/>
</g>
<path d="M762.673 179.437C568.174 177.487 514.904 63.0563 495.173 -0.164551H1603.17V577.599C1327.27 623.43 1174.65 534.694 1135.02 360.146C1045.02 387.449 988.27 338.205 972.616 287.498C888.868 319.873 783.673 249.797 762.673 179.437Z" fill="url(#paint1_linear)"/>
<path d="M1271.02 292.378L1438.48 453.261L1435.94 537.172L1233.51 414.775L1214.03 282.641L1271.02 292.378Z" fill="#D6EEFD"/>
<path d="M1310.49 256.502V292.378H1271.02C1254.16 292.378 1240.49 306.043 1240.49 322.9V510.091H1062.5V322.9C1062.5 306.043 1048.83 292.378 1031.97 292.378H990.323V256.502C990.323 256.502 1310.49 256.502 1310.49 256.502Z" fill="white"/>
<path d="M1193.14 314.034H1223.52V329.864H1193.14V314.034Z" fill="#073C4E"/>
<path d="M1152.89 314.034H1183.27V329.864H1152.89V314.034Z" fill="#073C4E"/>
<path d="M1112.64 314.034H1143.01V329.864H1112.64V314.034Z" fill="#073C4E"/>
<path d="M1072.38 314.034H1102.76V329.864H1072.38V314.034Z" fill="#073C4E"/>
<path d="M1193.14 345.98H1223.52V361.81H1193.14V345.98Z" fill="#073C4E"/>
<path d="M1152.89 345.98H1183.27V361.81H1152.89V345.98Z" fill="#073C4E"/>
<path d="M1112.64 345.98H1143.01V361.81H1112.64V345.98Z" fill="#073C4E"/>
<path d="M1072.38 345.98H1102.76V361.81H1072.38V345.98Z" fill="#073C4E"/>
<path d="M980.597 256.502H1325.18V292.378H980.597V256.502Z" fill="#D6EEFD"/>
<path d="M980.596 256.502H1252.12V292.378H980.596V256.502Z" fill="white"/>
<path d="M1062.5 199.997H1246.96V219.164H1062.5V199.997Z" fill="white"/>
<path d="M1062.5 242.496H1246.96V256.502H1062.5V242.496Z" fill="white"/>
<path d="M1072.78 219.163H1237.52V242.496H1072.78V219.163Z" fill="#073C4E"/>
<path d="M1197.88 219.163H1230.18V242.496H1197.88V219.163Z" fill="#C8ECE8"/>
<path d="M1158.53 219.163H1190.83V242.496H1158.53V219.163Z" fill="#C8ECE8"/>
<path d="M1119.18 219.163H1151.48V242.496H1119.18V219.163Z" fill="#C8ECE8"/>
<path d="M1079.83 219.163H1112.13V242.496H1079.83V219.163Z" fill="#C8ECE8"/>
<path d="M917.786 354.031C917.036 325.345 916.417 296.669 915.105 267.819C914.875 265.292 914.645 262.68 914.352 260.046C932.559 266.172 1233.98 369.118 1469.4 549.058V591.287C1396.12 543.579 1319.48 500.736 1239.6 461.367C1136.53 410.759 1028.67 377.537 917.786 354.031Z" fill="#062431"/>
<path d="M917.164 329.788L916.887 319.328C935.094 325.454 1233.98 389.578 1469.4 569.517V578.04C1277.34 433.15 1028.05 353.294 917.164 329.788Z" fill="#B71C22"/>
<path d="M920.688 430.971C919.225 405.23 918.453 379.626 917.784 354.031C1028.67 377.537 1136.53 410.759 1239.59 461.368C1319.48 500.737 1396.12 543.579 1469.4 591.287V629.323H913.479C913.479 629.323 913.239 627.731 912.735 624.769C914.579 615.65 916.062 606.478 916.965 597.224C921.308 541.392 923.79 486.802 920.688 430.971Z" fill="#6D1415"/>
<path d="M917.165 329.865C917.372 337.877 917.572 345.886 917.781 353.895C888.219 366.562 864.428 387.737 844.721 412.74C841.324 406.077 837.772 399.487 834.073 392.999C855.5 365.176 884.829 343.954 917.165 329.865Z" fill="#073C4E"/>
<path d="M831.561 388.703C829.963 386.041 825.826 379.104 824.173 376.488C824.173 376.488 846.249 311.578 913.481 259.755C913.481 259.755 913.777 259.853 914.351 260.047C914.644 262.681 914.874 265.293 915.104 267.82C915.901 285.338 916.437 302.791 916.907 320.222C881.931 332.676 855.848 360.422 831.561 388.703Z" fill="#073C4E"/>
<path d="M916.887 319.328C916.974 322.542 917.082 326.651 917.165 329.864C884.829 343.953 858.013 369.47 836.586 397.294C834.94 394.408 833.265 391.544 831.56 388.703C854.002 358.697 880.981 332.129 916.887 319.328Z" fill="#B71C22"/>
<path d="M917.782 353.895C918.452 379.536 919.223 405.184 920.688 430.971C923.791 486.802 921.309 541.393 916.966 597.224C916.063 606.478 914.58 615.649 912.737 624.769C908.928 602.392 889.993 501.501 844.722 412.74C864.429 387.736 888.22 366.561 917.782 353.895Z" fill="#B71C22"/>
<path d="M1438.48 603.103C1437.08 603.103 1435.94 601.967 1435.94 600.566C1435.94 599.164 1437.08 598.028 1438.48 598.028C1439.88 598.028 1441.02 599.164 1441.02 600.566C1441.02 601.967 1439.88 603.103 1438.48 603.103Z" fill="white" stroke="#305FC4" stroke-width="2" stroke-miterlimit="10"/>
<path d="M1426.63 595.653C1424.86 595.653 1423.43 594.221 1423.43 592.455C1423.43 590.688 1424.86 589.256 1426.63 589.256C1428.4 589.256 1429.83 590.688 1429.83 592.455C1429.83 594.221 1428.4 595.653 1426.63 595.653Z" fill="white" stroke="#305FC4" stroke-width="2.1818" stroke-miterlimit="10"/>
<path d="M1406.95 585.365C1404.82 585.365 1403.09 583.636 1403.09 581.505C1403.09 579.373 1404.82 577.645 1406.95 577.645C1409.09 577.645 1410.81 579.373 1410.81 581.505C1410.81 583.636 1409.09 585.365 1406.95 585.365Z" fill="white" stroke="#305FC4" stroke-width="2.3636" stroke-miterlimit="10"/>
<path d="M1380.36 572.831C1377.86 572.831 1375.84 570.807 1375.84 568.309C1375.84 565.812 1377.86 563.788 1380.36 563.788C1382.86 563.788 1384.88 565.812 1384.88 568.309C1384.88 570.807 1382.86 572.831 1380.36 572.831Z" fill="white" stroke="#305FC4" stroke-width="2.5455" stroke-miterlimit="10"/>
<path d="M1347.77 558.648C1344.9 558.648 1342.58 556.327 1342.58 553.465C1342.58 550.602 1344.9 548.281 1347.77 548.281C1350.63 548.281 1352.95 550.602 1352.95 553.465C1352.95 556.327 1350.63 558.648 1347.77 558.648Z" fill="white" stroke="#305FC4" stroke-width="2.7273" stroke-miterlimit="10"/>
<path d="M1310.09 543.408C1306.86 543.408 1304.24 540.791 1304.24 537.563C1304.24 534.335 1306.86 531.719 1310.09 531.719C1313.32 531.719 1315.94 534.335 1315.94 537.563C1315.94 540.791 1313.32 543.408 1310.09 543.408Z" fill="white" stroke="#305FC4" stroke-width="2.9091" stroke-miterlimit="10"/>
<path d="M1268.24 527.706C1264.65 527.706 1261.74 524.793 1261.74 521.2C1261.74 517.607 1264.65 514.694 1268.24 514.694C1271.84 514.694 1274.75 517.607 1274.75 521.2C1274.75 524.793 1271.84 527.706 1268.24 527.706Z" fill="white" stroke="#305FC4" stroke-width="3.0909" stroke-miterlimit="10"/>
<path d="M1223.15 512.137C1219.19 512.137 1215.98 508.928 1215.98 504.969C1215.98 501.011 1219.19 497.802 1223.15 497.802C1227.11 497.802 1230.31 501.011 1230.31 504.969C1230.31 508.928 1227.11 512.137 1223.15 512.137Z" fill="white" stroke="#305FC4" stroke-width="3.2727" stroke-miterlimit="10"/>
<path d="M1175.71 497.295C1171.39 497.295 1167.88 493.79 1167.88 489.466C1167.88 485.142 1171.39 481.637 1175.71 481.637C1180.04 481.637 1183.54 485.142 1183.54 489.466C1183.54 493.79 1180.04 497.295 1175.71 497.295Z" fill="white" stroke="#305FC4" stroke-width="3.4545" stroke-miterlimit="10"/>
<path d="M1126.85 483.774C1122.16 483.774 1118.36 479.973 1118.36 475.283C1118.36 470.594 1122.16 466.793 1126.85 466.793C1131.54 466.793 1135.34 470.594 1135.34 475.283C1135.34 479.973 1131.54 483.774 1126.85 483.774Z" fill="white" stroke="#305FC4" stroke-width="3.6364" stroke-miterlimit="10"/>
<path d="M1077.49 472.169C1072.43 472.169 1068.34 468.072 1068.34 463.017C1068.34 457.963 1072.43 453.865 1077.49 453.865C1082.55 453.865 1086.64 457.963 1086.64 463.017C1086.64 468.072 1082.55 472.169 1077.49 472.169Z" fill="white" stroke="#305FC4" stroke-width="3.8182" stroke-miterlimit="10"/>
<path d="M1028.54 463.074C1023.12 463.074 1018.72 458.681 1018.72 453.261C1018.72 447.841 1023.12 443.447 1028.54 443.447C1033.96 443.447 1038.35 447.841 1038.35 453.261C1038.35 458.681 1033.96 463.074 1028.54 463.074Z" fill="white" stroke="#305FC4" stroke-width="4" stroke-miterlimit="10"/>
<path d="M1430.43 489.331L1264.39 371.302V350.952L1430.43 482.466V489.331Z" fill="#073C4E"/>
<path d="M1430.43 463.983V471.967L1264.39 335.76V316.715L1430.43 463.983Z" fill="#073C4E"/>
<path d="M1423.29 451.834H1425.63V499.419H1423.29V451.834Z" fill="#D6EEFD"/>
<path d="M1410.62 487.463L1415.59 489.331V441.747L1410.62 439.878V487.463Z" fill="#D6EEFD"/>
<path d="M1393.88 472.476L1400.18 476.562V428.977L1393.88 424.892V472.476Z" fill="#D6EEFD"/>
<path d="M1368.77 449.459L1378.81 457.401V409.817L1368.77 401.875V449.459Z" fill="#D6EEFD"/>
<path d="M1337.37 426.115L1347.41 434.058V386.473L1337.37 378.531V426.115Z" fill="#D6EEFD"/>
<path d="M1294.86 397.315L1308.14 407.816V344.903L1294.86 334.401V397.315Z" fill="#D6EEFD"/>
<path opacity="0.9" d="M1600.17 624.366C1600.17 710.926 1472.17 916.208 1301.17 830.815C997.673 679.256 802.673 778.508 690.673 869.235C578.673 959.962 434.786 988.783 329.673 972.923C148.673 945.612 0.172791 1034.49 0.172791 1034.49H1600.17V624.366Z" fill="#4166DB"/>
<path opacity="0.2" d="M1253.67 112.318C961.02 215.272 781.172 112.318 713.672 0.76123H1598.17L1603.48 304.27C1611.11 335.818 1612.15 368.579 1605.17 400.699L1603.48 304.27C1570.68 168.508 1415.96 55.2254 1253.67 112.318Z" fill="url(#paint2_linear)"/>
<path d="M1193.32 94.2651H1201.36V191.744H1193.32V94.2651Z" fill="#073C4E"/>
<path d="M1170.66 128.433H1178.7V191.744H1170.66V128.433Z" fill="#073C4E"/>
<path d="M1111.14 153.221H1119.18V191.744H1111.14V153.221Z" fill="#073C4E"/>
<path d="M1146.41 191.744C1138.64 191.744 1132.34 185.445 1132.34 177.675C1132.34 169.904 1138.64 163.605 1146.41 163.605C1154.19 163.605 1160.49 169.904 1160.49 177.675C1160.49 185.445 1154.19 191.744 1146.41 191.744Z" fill="#073C4E"/>
<path d="M905.673 589.094C909.56 589.484 915.815 597.326 918.15 601.33L908.724 603.453L905.673 589.094Z" fill="#EAEAEA"/>
<path opacity="0.8" d="M905.172 587.096C909.059 587.486 915.502 595.213 917.838 599.218L908.412 601.34L905.172 587.096Z" fill="#EAEAEA"/>
<path opacity="0.9" d="M1156.22 604.046C1160.36 603.592 1165.27 605.427 1165.27 605.427L1168.35 604.406C1178.02 600.652 1183.3 606.686 1183.3 606.686L1188.41 604.382C1202.49 600.342 1207.98 610.321 1207.98 610.321C1213.54 609.553 1218.69 613.268 1221.51 615.82C1229.52 617.142 1246.23 622.897 1246.23 622.897L1223.49 619.43L1219.08 618.758L1147.41 607.832C1147.41 607.832 1152.07 604.5 1156.22 604.046Z" fill="white"/>
<path opacity="0.9" d="M939.398 599.235C939.398 599.235 958.024 573.751 976.041 580.826C976.041 580.826 990.686 551.027 1020.6 569.837L1031.21 579.35C1031.21 579.35 1044.39 562.146 1064.67 578.209L1071.16 582.763C1071.16 582.763 1082.44 578.898 1091.43 582.072C1100.42 585.246 1109.79 597.876 1109.79 597.876L939.575 603.68L939.398 599.235Z" fill="white"/>
<path d="M1123.09 597.466C1127.24 597.012 1132.15 598.847 1132.15 598.847L1135.23 597.826C1144.9 594.072 1150.18 600.106 1150.18 600.106L1155.28 597.802C1169.37 593.762 1174.85 603.741 1174.85 603.741C1180.42 602.973 1185.57 606.688 1188.39 609.24C1196.4 610.561 1213.11 616.317 1213.11 616.317L1190.37 612.85L1185.96 612.178L1114.29 601.252C1114.29 601.252 1118.95 597.92 1123.09 597.466Z" fill="white"/>
<path d="M916.275 599.135C916.275 599.135 934.901 573.652 952.918 580.726C952.918 580.726 967.563 550.927 997.473 569.737L1008.09 579.25C1008.09 579.25 1021.27 562.046 1041.55 578.109L1048.04 582.663C1048.04 582.663 1059.31 578.799 1068.31 581.972C1077.3 585.146 1086.67 597.777 1086.67 597.777L916.452 603.581L916.275 599.135Z" fill="white"/>
<path d="M1152.63 597.558C1555.81 694.131 1622.67 431.968 1628.41 323.527V1043.79H-12.064L-12.064 795.54C-12.064 795.54 116.272 753.159 282.272 786.487C365.146 803.126 426.12 805.488 521.147 786.487C616.012 767.519 859.916 527.447 1152.63 597.558Z" fill="url(#paint3_linear)"/>
<path d="M1550.1 548.092C1477.47 619.864 1354.02 661.222 1149.13 612.146C1007.71 578.273 877.393 619.112 769.296 672.087C721.993 695.269 679.386 720.545 641.999 742.724L641.993 742.727C636.655 745.894 631.424 748.997 626.301 752.022C605.917 764.058 587.083 774.947 570.275 783.437C553.633 791.842 537.984 798.418 524.088 801.196C426.969 820.615 363.986 818.192 279.319 801.194C198.231 784.914 126.302 787.122 74.6659 793.406C48.8635 796.545 28.1823 800.696 14.0284 804.037C9.70679 805.057 5.99593 806.001 2.93597 806.818L-0.32666 807.96V792.164C34.9223 782.828 145.885 759.104 282.272 786.487C365.146 803.126 426.12 805.488 521.147 786.487C547.825 781.153 586.288 758.334 634.309 729.844C757.05 657.026 942.23 547.163 1152.63 597.558C1436.61 665.579 1553.74 555.629 1600.18 446.776V481.154C1587.37 504.585 1570.99 527.455 1550.1 548.092Z" fill="#A5BBF5" fill-opacity="0.15"/>
<path d="M1550.1 548.092C1477.47 619.864 1354.02 661.222 1149.13 612.146C1007.71 578.273 877.393 619.112 769.296 672.087C721.993 695.269 679.386 720.545 641.999 742.724L641.993 742.727C636.655 745.894 631.424 748.997 626.301 752.022C605.917 764.058 587.083 774.947 570.275 783.437C553.633 791.842 537.984 798.418 524.088 801.196C426.969 820.615 363.986 818.192 279.319 801.194C198.231 784.914 126.302 787.122 74.6659 793.406C48.8635 796.545 28.1823 800.696 14.0284 804.037C9.70679 805.057 5.99593 806.001 2.93597 806.818L-0.32666 807.96V792.164C34.9223 782.828 145.885 759.104 282.272 786.487C365.146 803.126 426.12 805.488 521.147 786.487C547.825 781.153 586.288 758.334 634.309 729.844C757.05 657.026 942.23 547.163 1152.63 597.558C1436.61 665.579 1553.74 555.629 1600.18 446.776V481.154C1587.37 504.585 1570.99 527.455 1550.1 548.092Z" fill="url(#paint4_radial)" fill-opacity="0.6"/>
<path opacity="0.95" fill-rule="evenodd" clip-rule="evenodd" d="M997.584 699.399C968.178 687.852 937.777 729.445 937.777 729.445L938.066 734.077C979.891 716.44 1089.15 679.085 1213.03 723.161C1213.03 723.161 1200.6 706.613 1185.92 701.433C1171.24 696.253 1152.84 702.561 1152.84 702.561L1142.25 695.128C1109.15 668.91 1087.63 696.99 1087.63 696.99L1070.31 681.464C1021.49 650.762 997.584 699.399 997.584 699.399Z" fill="white"/>
<path opacity="0.3" fill-rule="evenodd" clip-rule="evenodd" d="M1017.67 694.607C989.059 681.961 956.781 726.023 956.781 726.023C999.66 711.421 1104.45 675.79 1230.41 729.252C1230.41 729.252 1219.86 712.544 1205.54 706.789C1191.22 701.035 1172.45 706.071 1172.45 706.071L1162.35 698.383C1130.99 671.499 1107.72 697.196 1107.72 697.196L1091.41 681.399C1044.65 649.371 1017.67 694.607 1017.67 694.607Z" fill="white"/>
<path opacity="0.95" fill-rule="evenodd" clip-rule="evenodd" d="M802.867 779.336C773.691 785.474 779.867 810.706 779.867 810.706C798.747 803.1 840.951 780.31 890.849 754.469C890.849 754.469 882.969 750.016 876.317 750.329C869.665 750.641 863.69 756 863.69 756L858.208 754.792C840.526 749.856 837.361 764.155 837.361 764.155L827.773 760.872C803.163 756.683 802.867 779.336 802.867 779.336Z" fill="white"/>
<path opacity="0.5" fill-rule="evenodd" clip-rule="evenodd" d="M811.301 775.222C782.126 781.359 788.302 806.591 788.302 806.591C807.182 798.986 849.386 776.195 899.284 750.355C899.284 750.355 891.404 745.901 884.752 746.214C878.1 746.527 872.125 751.885 872.125 751.885L866.643 750.677C848.961 745.741 845.796 760.04 845.796 760.04L836.207 756.757C811.598 752.568 811.301 775.222 811.301 775.222Z" fill="white"/>
<path opacity="0.4" d="M1616.17 492.787C1616.17 628.03 1433.47 831.087 1262.74 746.513C904.872 569.236 775.825 987.776 3.18805 1013.58H1616.17V492.787Z" fill="url(#paint5_linear)"/>
<g opacity="0.4">
<path d="M1262.74 746.513C1404.33 816.652 1554.15 688.968 1601.17 566.198C1610.85 540.93 1616.17 515.871 1616.17 492.787V1013.58L1601.17 998.584V602.784C1580.22 643.496 1549.54 682.545 1513.21 713.499C1443.55 772.846 1348.78 805.871 1256.08 759.954C1169.46 717.046 1097.65 710.493 1026.52 724.541C954.364 738.79 882.432 774.243 795.143 817.342C668.202 880.018 512.843 956.605 287.168 998.584C207.175 1008.58 38.3892 1025.58 3.18805 1013.58C70.3999 1011.34 132.742 1006.12 190.787 998.584C466.776 962.742 645.646 874.426 789.128 803.583C962.37 718.046 1084.02 657.981 1262.74 746.513Z" fill="#A5BBF5" fill-opacity="0.15"/>
<path d="M1262.74 746.513C1404.33 816.652 1554.15 688.968 1601.17 566.198C1610.85 540.93 1616.17 515.871 1616.17 492.787V1013.58L1601.17 998.584V602.784C1580.22 643.496 1549.54 682.545 1513.21 713.499C1443.55 772.846 1348.78 805.871 1256.08 759.954C1169.46 717.046 1097.65 710.493 1026.52 724.541C954.364 738.79 882.432 774.243 795.143 817.342C668.202 880.018 512.843 956.605 287.168 998.584C207.175 1008.58 38.3892 1025.58 3.18805 1013.58C70.3999 1011.34 132.742 1006.12 190.787 998.584C466.776 962.742 645.646 874.426 789.128 803.583C962.37 718.046 1084.02 657.981 1262.74 746.513Z" fill="url(#paint6_radial)" fill-opacity="0.6"/>
<path d="M1262.74 746.513C1404.33 816.652 1554.15 688.968 1601.17 566.198C1610.85 540.93 1616.17 515.871 1616.17 492.787V1013.58L1601.17 998.584V602.784C1580.22 643.496 1549.54 682.545 1513.21 713.499C1443.55 772.846 1348.78 805.871 1256.08 759.954C1169.46 717.046 1097.65 710.493 1026.52 724.541C954.364 738.79 882.432 774.243 795.143 817.342C668.202 880.018 512.843 956.605 287.168 998.584C207.175 1008.58 38.3892 1025.58 3.18805 1013.58C70.3999 1011.34 132.742 1006.12 190.787 998.584C466.776 962.742 645.646 874.426 789.128 803.583C962.37 718.046 1084.02 657.981 1262.74 746.513Z" fill="url(#paint7_linear)"/>
</g>
<path opacity="0.3" d="M1423.2 242.294C1423.63 242.234 1423.96 241.928 1424.02 241.546C1425.11 235.392 1429.75 229.987 1436.59 227.869L1436.59 227.866C1436.89 227.773 1437.14 227.553 1437.22 227.271C1437.38 226.751 1437.04 226.256 1436.52 226.138C1434.34 225.65 1432 225.705 1429.72 226.411C1425.44 227.738 1422.47 231.027 1421.59 234.833C1421.53 235.085 1421.38 235.315 1421.15 235.45C1420.77 235.663 1420.31 235.618 1419.99 235.363C1416.81 232.8 1412.28 231.82 1407.99 233.15C1405.73 233.853 1403.83 235.108 1402.41 236.7C1402.15 236.988 1402.09 237.394 1402.29 237.722C1402.51 238.109 1403.01 238.283 1403.45 238.146C1403.45 238.145 1403.46 238.143 1403.46 238.142C1410.28 236.027 1417.49 237.743 1422.37 242.033C1422.59 242.23 1422.9 242.336 1423.2 242.294Z" fill="black"/>
<path opacity="0.1" d="M1459.12 261C1457.76 260.257 1456.16 259.847 1454.47 259.891C1451.27 259.973 1448.53 261.64 1447.09 264.055C1446.97 264.253 1446.75 264.378 1446.51 264.384C1446.27 264.39 1446.04 264.276 1445.91 264.085C1444.33 261.748 1441.49 260.225 1438.3 260.307C1436.6 260.351 1435.03 260.842 1433.72 261.654C1433.46 261.811 1433.35 262.105 1433.45 262.374C1433.54 262.644 1433.81 262.824 1434.12 262.816C1434.12 262.816 1434.12 262.816 1434.13 262.816C1439.21 262.685 1443.71 265.224 1446.04 269.059C1446.17 269.265 1446.4 269.39 1446.66 269.383C1446.91 269.377 1447.14 269.24 1447.26 269.028C1449.36 265.079 1453.69 262.313 1458.78 262.182C1458.78 262.181 1458.78 262.181 1458.79 262.181C1459.09 262.174 1459.36 261.98 1459.43 261.706C1459.51 261.432 1459.38 261.144 1459.12 261Z" fill="black"/>
<path opacity="0.4" d="M158.434 201.508C155.806 200.072 152.725 199.282 149.45 199.366C143.283 199.525 137.986 202.744 135.21 207.408C134.982 207.79 134.553 208.032 134.082 208.044C133.611 208.056 133.169 207.836 132.919 207.466C129.867 202.953 124.385 200.011 118.219 200.17C114.944 200.255 111.915 201.202 109.378 202.771C108.887 203.075 108.673 203.642 108.852 204.163C109.031 204.683 109.56 205.032 110.15 205.017C110.156 205.016 110.161 205.016 110.167 205.016C119.986 204.763 128.667 209.667 133.178 217.074C133.42 217.471 133.88 217.712 134.372 217.699C134.865 217.687 135.31 217.423 135.528 217.014C139.587 209.386 147.961 204.043 157.781 203.79C157.786 203.79 157.792 203.79 157.797 203.79C158.388 203.775 158.896 203.4 159.043 202.871C159.191 202.342 158.942 201.786 158.434 201.508Z" fill="black"/>
<path opacity="0.2" d="M282.239 777.993C284.051 777.002 286.176 776.457 288.436 776.515C292.689 776.624 296.343 778.845 298.259 782.063C298.415 782.326 298.711 782.493 299.036 782.501C299.361 782.51 299.666 782.358 299.838 782.103C301.944 778.989 305.725 776.96 309.979 777.07C312.238 777.128 314.327 777.782 316.077 778.864C316.416 779.073 316.564 779.465 316.44 779.824C316.317 780.183 315.952 780.423 315.545 780.413C315.541 780.413 315.537 780.413 315.533 780.412C308.76 780.238 302.772 783.621 299.66 788.73C299.493 789.004 299.176 789.17 298.836 789.161C298.496 789.153 298.189 788.971 298.039 788.689C295.239 783.427 289.463 779.741 282.689 779.567C282.685 779.567 282.681 779.567 282.677 779.567C282.27 779.556 281.92 779.298 281.818 778.933C281.716 778.568 281.888 778.184 282.239 777.993Z" fill="black"/>
<mask id="mask0" mask-type="alpha" maskUnits="userSpaceOnUse" x="1251" y="612" width="101" height="13">
<path d="M1259.45 619.307C1263.46 618.235 1268.63 619.307 1268.63 619.307L1271.48 617.836C1280.37 612.677 1286.64 617.836 1286.64 617.836L1291.27 614.795C1304.46 608.689 1311.62 617.711 1311.62 617.711C1316.98 616.116 1322.71 619.007 1325.94 621.101C1334.07 621.201 1351.57 624.366 1351.57 624.366H1328.53H1324.06H1251.43C1251.43 624.366 1255.44 620.378 1259.45 619.307Z" fill="white"/>
</mask>
<g mask="url(#mask0)">
<path d="M1367.3 616.107C1367.27 619.646 1334.95 622.318 1295.09 622.077C1255.24 621.835 1223.31 617.338 1223.33 613.8C1223.36 610.261 1255.33 609.022 1295.18 609.263C1335.04 609.505 1367.32 612.569 1367.3 616.107Z" fill="white"/>
</g>
<circle opacity="0.34" cx="0.171875" cy="348.902" r="405" fill="white"/>
<circle opacity="0.5" cx="0.671875" cy="349.402" r="292.5" fill="white"/>
<circle cx="0.171875" cy="348.902" r="143" fill="white"/>
<g filter="url(#filter0_ddd)">
<path d="M614.905 170.197C619.845 170.197 624.471 171.537 628.442 173.871C633.938 161.376 646.432 152.65 660.969 152.65C661.711 152.65 662.448 152.676 663.18 152.72C672.395 136.131 690.106 124.902 710.443 124.902C732.554 124.902 751.559 138.176 759.919 157.18C765.958 153.63 772.994 151.592 780.508 151.592C802.966 151.592 821.172 169.781 821.172 192.217C821.172 197.02 820.335 201.626 818.804 205.902H720.474H619.933H589.728C588.722 203.091 588.172 200.062 588.172 196.905C588.172 182.155 600.141 170.197 614.905 170.197Z" fill="url(#paint8_linear)"/>
</g>
<g filter="url(#filter1_ddd)">
<path d="M1515.13 341.297C1521.77 341.297 1527.99 343.084 1533.33 346.196C1540.73 329.537 1557.53 317.902 1577.08 317.902C1602.69 317.902 1623.59 337.861 1624.79 362.929C1626.98 362.324 1629.28 361.993 1631.66 361.993C1645.75 361.993 1657.17 373.303 1657.17 387.255C1657.17 387.809 1657.15 388.357 1657.11 388.902H1481.27C1479.91 385.154 1479.17 381.116 1479.17 376.907C1479.17 357.24 1495.27 341.297 1515.13 341.297Z" fill="white"/>
</g>
<g opacity="0.9" filter="url(#filter2_ddd)">
<path d="M1330.12 178.184C1333.07 178.184 1335.83 178.961 1338.2 180.316C1341.47 173.066 1348.93 168.003 1357.6 168.003C1358.04 168.003 1358.48 168.017 1358.92 168.044C1364.42 158.418 1374.98 151.902 1387.11 151.902C1400.31 151.902 1411.64 159.604 1416.63 170.632C1420.23 168.572 1424.43 167.389 1428.91 167.389C1442.31 167.389 1453.17 177.943 1453.17 190.961C1453.17 193.748 1452.67 196.421 1451.76 198.902H1393.1H1333.12H1315.1C1314.5 197.271 1314.17 195.514 1314.17 193.682C1314.17 185.123 1321.31 178.184 1330.12 178.184Z" fill="white"/>
</g>
<defs>
<filter id="filter0_ddd" x="545.172" y="74.9023" width="333" height="181" filterUnits="userSpaceOnUse" color-interpolation-filters="sRGB">
<feFlood flood-opacity="0" result="BackgroundImageFix"/>
<feColorMatrix in="SourceAlpha" type="matrix" values="0 0 0 0 0 0 0 0 0 0 0 0 0 0 0 0 0 0 127 0"/>
<feOffset dx="7"/>
<feGaussianBlur stdDeviation="25"/>
<feColorMatrix type="matrix" values="0 0 0 0 0.121569 0 0 0 0 0.247059 0 0 0 0 0.682353 0 0 0 0.02 0"/>
<feBlend mode="normal" in2="BackgroundImageFix" result="effect1_dropShadow"/>
<feColorMatrix in="SourceAlpha" type="matrix" values="0 0 0 0 0 0 0 0 0 0 0 0 0 0 0 0 0 0 127 0"/>
<feOffset dx="13" dy="2"/>
<feGaussianBlur stdDeviation="3"/>
<feColorMatrix type="matrix" values="0 0 0 0 0.121569 0 0 0 0 0.247059 0 0 0 0 0.682353 0 0 0 0.02 0"/>
<feBlend mode="normal" in2="effect1_dropShadow" result="effect2_dropShadow"/>
<feColorMatrix in="SourceAlpha" type="matrix" values="0 0 0 0 0 0 0 0 0 0 0 0 0 0 0 0 0 0 127 0"/>
<feOffset dx="10" dy="10"/>
<feGaussianBlur stdDeviation="10"/>
<feColorMatrix type="matrix" values="0 0 0 0 0.121569 0 0 0 0 0.247059 0 0 0 0 0.682353 0 0 0 0.02 0"/>
<feBlend mode="normal" in2="effect2_dropShadow" result="effect3_dropShadow"/>
<feBlend mode="normal" in="SourceGraphic" in2="effect3_dropShadow" result="shape"/>
</filter>
<filter id="filter1_ddd" x="1436.17" y="267.902" width="278" height="171" filterUnits="userSpaceOnUse" color-interpolation-filters="sRGB">
<feFlood flood-opacity="0" result="BackgroundImageFix"/>
<feColorMatrix in="SourceAlpha" type="matrix" values="0 0 0 0 0 0 0 0 0 0 0 0 0 0 0 0 0 0 127 0"/>
<feOffset dx="7"/>
<feGaussianBlur stdDeviation="25"/>
<feColorMatrix type="matrix" values="0 0 0 0 0.121569 0 0 0 0 0.247059 0 0 0 0 0.682353 0 0 0 0.02 0"/>
<feBlend mode="normal" in2="BackgroundImageFix" result="effect1_dropShadow"/>
<feColorMatrix in="SourceAlpha" type="matrix" values="0 0 0 0 0 0 0 0 0 0 0 0 0 0 0 0 0 0 127 0"/>
<feOffset dx="13" dy="2"/>
<feGaussianBlur stdDeviation="3"/>
<feColorMatrix type="matrix" values="0 0 0 0 0.121569 0 0 0 0 0.247059 0 0 0 0 0.682353 0 0 0 0.02 0"/>
<feBlend mode="normal" in2="effect1_dropShadow" result="effect2_dropShadow"/>
<feColorMatrix in="SourceAlpha" type="matrix" values="0 0 0 0 0 0 0 0 0 0 0 0 0 0 0 0 0 0 127 0"/>
<feOffset dx="10" dy="10"/>
<feGaussianBlur stdDeviation="10"/>
<feColorMatrix type="matrix" values="0 0 0 0 0.121569 0 0 0 0 0.247059 0 0 0 0 0.682353 0 0 0 0.02 0"/>
<feBlend mode="normal" in2="effect2_dropShadow" result="effect3_dropShadow"/>
<feBlend mode="normal" in="SourceGraphic" in2="effect3_dropShadow" result="shape"/>
</filter>
<filter id="filter2_ddd" x="1271.17" y="101.902" width="239" height="147" filterUnits="userSpaceOnUse" color-interpolation-filters="sRGB">
<feFlood flood-opacity="0" result="BackgroundImageFix"/>
<feColorMatrix in="SourceAlpha" type="matrix" values="0 0 0 0 0 0 0 0 0 0 0 0 0 0 0 0 0 0 127 0"/>
<feOffset dx="7"/>
<feGaussianBlur stdDeviation="25"/>
<feColorMatrix type="matrix" values="0 0 0 0 0.121569 0 0 0 0 0.247059 0 0 0 0 0.682353 0 0 0 0.02 0"/>
<feBlend mode="normal" in2="BackgroundImageFix" result="effect1_dropShadow"/>
<feColorMatrix in="SourceAlpha" type="matrix" values="0 0 0 0 0 0 0 0 0 0 0 0 0 0 0 0 0 0 127 0"/>
<feOffset dx="13" dy="2"/>
<feGaussianBlur stdDeviation="3"/>
<feColorMatrix type="matrix" values="0 0 0 0 0.121569 0 0 0 0 0.247059 0 0 0 0 0.682353 0 0 0 0.02 0"/>
<feBlend mode="normal" in2="effect1_dropShadow" result="effect2_dropShadow"/>
<feColorMatrix in="SourceAlpha" type="matrix" values="0 0 0 0 0 0 0 0 0 0 0 0 0 0 0 0 0 0 127 0"/>
<feOffset dx="10" dy="10"/>
<feGaussianBlur stdDeviation="10"/>
<feColorMatrix type="matrix" values="0 0 0 0 0.121569 0 0 0 0 0.247059 0 0 0 0 0.682353 0 0 0 0.02 0"/>
<feBlend mode="normal" in2="effect2_dropShadow" result="effect3_dropShadow"/>
<feBlend mode="normal" in="SourceGraphic" in2="effect3_dropShadow" result="shape"/>
</filter>
<linearGradient id="paint0_linear" x1="810.644" y1="749.761" x2="810.644" y2="997.85" gradientUnits="userSpaceOnUse">
<stop stop-color="#8CA8FF"/>
<stop offset="0.807292" stop-color="#345BD8"/>
</linearGradient>
<linearGradient id="paint1_linear" x1="1525.26" y1="166.484" x2="554.68" y2="238.249" gradientUnits="userSpaceOnUse">
<stop stop-color="#BDE3FB"/>
<stop offset="1" stop-color="#BDE3FB" stop-opacity="0"/>
</linearGradient>
<linearGradient id="paint2_linear" x1="1370.59" y1="83.5187" x2="1582.28" y2="-10.7554" gradientUnits="userSpaceOnUse">
<stop stop-color="white"/>
<stop offset="1" stop-color="white" stop-opacity="0"/>
</linearGradient>
<linearGradient id="paint3_linear" x1="818.659" y1="323.527" x2="818.659" y2="1043.79" gradientUnits="userSpaceOnUse">
<stop stop-color="#4166DB"/>
<stop offset="1" stop-color="#2F53CB"/>
</linearGradient>
<radialGradient id="paint4_radial" cx="0" cy="0" r="1" gradientUnits="userSpaceOnUse" gradientTransform="translate(943.889 586.588) rotate(155.105) scale(185.424 295.054)">
<stop stop-color="white" stop-opacity="0.8"/>
<stop offset="1" stop-color="white" stop-opacity="0"/>
</radialGradient>
<linearGradient id="paint5_linear" x1="1231.62" y1="587.198" x2="1209.22" y2="999.221" gradientUnits="userSpaceOnUse">
<stop stop-color="#6494F4"/>
<stop offset="1" stop-color="#C0C1C2" stop-opacity="0"/>
</linearGradient>
<radialGradient id="paint6_radial" cx="0" cy="0" r="1" gradientUnits="userSpaceOnUse" gradientTransform="translate(954.767 692.168) rotate(146.707) scale(202.787 387.74)">
<stop stop-color="white" stop-opacity="0.8"/>
<stop offset="1" stop-color="white" stop-opacity="0"/>
</radialGradient>
<linearGradient id="paint7_linear" x1="654.036" y1="915.68" x2="1395.52" y2="723.793" gradientUnits="userSpaceOnUse">
<stop stop-color="#2F53CB"/>
<stop offset="0.927083" stop-color="white" stop-opacity="0"/>
</linearGradient>
<linearGradient id="paint8_linear" x1="704.672" y1="198.082" x2="563.12" y2="199.563" gradientUnits="userSpaceOnUse">
<stop stop-color="#FBFBFD"/>
<stop offset="1" stop-color="#EDF5FF"/>
</linearGradient>
</defs>
</svg>
