<svg width="2560" height="948" viewBox="0 0 2560 948" fill="none" xmlns="http://www.w3.org/2000/svg">
<rect y="-53" width="2560" height="987" fill="#EFF6FF"/>
<path d="M1804.69 385.038L1950.16 524.276C1954.25 528.194 1956.49 533.666 1956.32 539.331L1954.29 606.264L1770.66 495.651L1752.99 376.239L1804.69 385.038Z" fill="#D6EEFD"/>
<path d="M1820.49 352.617C1831.53 352.617 1840.49 361.571 1840.49 372.617V385.038H1804.69C1789.39 385.038 1777 397.388 1777 412.622V581.79H1615.54V412.622C1615.54 397.388 1603.15 385.038 1587.85 385.038H1550.07V372.617C1550.07 361.571 1559.03 352.617 1570.07 352.617H1820.49Z" fill="white"/>
<path d="M1741.2 404.609H1754.45C1758.4 404.609 1761.6 407.812 1761.6 411.762C1761.6 415.713 1758.4 418.915 1754.45 418.915H1741.2C1737.25 418.915 1734.05 415.713 1734.05 411.762C1734.05 407.812 1737.25 404.609 1741.2 404.609Z" fill="#021859"/>
<path d="M1704.69 404.609H1717.94C1721.89 404.609 1725.09 407.812 1725.09 411.762C1725.09 415.713 1721.89 418.915 1717.94 418.915H1704.69C1700.74 418.915 1697.54 415.713 1697.54 411.762C1697.54 407.812 1700.74 404.609 1704.69 404.609Z" fill="#021859"/>
<path d="M1668.18 404.609H1681.43C1685.38 404.609 1688.58 407.812 1688.58 411.762C1688.58 415.713 1685.38 418.915 1681.43 418.915H1668.18C1664.23 418.915 1661.02 415.713 1661.02 411.762C1661.02 407.812 1664.23 404.609 1668.18 404.609Z" fill="#021859"/>
<path d="M1631.66 404.609H1644.91C1648.86 404.609 1652.06 407.812 1652.06 411.762C1652.06 415.713 1648.86 418.915 1644.91 418.915H1631.66C1627.71 418.915 1624.51 415.713 1624.51 411.762C1624.51 407.812 1627.71 404.609 1631.66 404.609Z" fill="#021859"/>
<path d="M1741.2 433.48H1754.45C1758.4 433.48 1761.6 436.682 1761.6 440.633C1761.6 444.584 1758.4 447.786 1754.45 447.786H1741.2C1737.25 447.786 1734.05 444.584 1734.05 440.633C1734.05 436.682 1737.25 433.48 1741.2 433.48Z" fill="#021859"/>
<path d="M1704.69 433.48H1717.94C1721.89 433.48 1725.09 436.682 1725.09 440.633C1725.09 444.583 1721.89 447.786 1717.94 447.786H1704.69C1700.74 447.786 1697.54 444.583 1697.54 440.633C1697.54 436.682 1700.74 433.48 1704.69 433.48Z" fill="#021859"/>
<path d="M1668.18 433.48H1681.43C1685.38 433.48 1688.58 436.682 1688.58 440.633C1688.58 444.583 1685.38 447.786 1681.43 447.786H1668.18C1664.23 447.786 1661.02 444.583 1661.02 440.633C1661.02 436.682 1664.23 433.48 1668.18 433.48Z" fill="#021859"/>
<path d="M1631.66 433.48H1644.91C1648.86 433.48 1652.06 436.682 1652.06 440.633C1652.06 444.583 1648.86 447.786 1644.91 447.786H1631.66C1627.71 447.786 1624.51 444.583 1624.51 440.633C1624.51 436.682 1627.71 433.48 1631.66 433.48Z" fill="#021859"/>
<path d="M1628.2 339.958H1770.21C1777.2 339.958 1782.87 345.625 1782.87 352.616H1615.54C1615.54 345.625 1621.21 339.958 1628.2 339.958Z" fill="white"/>
<path d="M1624.87 318.872H1774.3V339.959H1624.87V318.872Z" fill="#021859"/>
<path d="M1738.34 318.872H1767.65V339.959H1738.34V318.872Z" fill="#DBE7FF"/>
<path d="M1702.65 318.873H1731.95V339.959H1702.65V318.873Z" fill="#DBE7FF"/>
<path d="M1666.96 318.873H1696.26V339.959H1666.96V318.873Z" fill="#DBE7FF"/>
<path d="M1631.26 318.873H1660.57V339.959H1631.26V318.873Z" fill="#DBE7FF"/>
<path d="M1630.51 305.128H1768.7C1773.53 305.128 1777.45 309.044 1777.45 313.874C1777.45 318.705 1773.53 322.621 1768.7 322.621H1630.51C1625.68 322.621 1621.77 318.705 1621.77 313.874C1621.77 309.044 1625.68 305.128 1630.51 305.128Z" fill="#021859"/>
<path d="M1624.64 301.552H1774.64C1779.42 301.552 1783.3 305.429 1783.3 310.212C1783.3 314.995 1779.42 318.873 1774.64 318.873H1624.64C1619.85 318.873 1615.98 314.995 1615.98 310.212C1615.98 305.429 1619.85 301.552 1624.64 301.552Z" fill="white"/>
<path d="M1484.28 440.756C1483.6 414.832 1483.04 388.916 1481.85 362.844C1481.64 360.561 1481.43 358.2 1481.16 355.82C1497.48 361.287 1764.41 452.115 1976.73 611.036C1981.73 614.777 1984.63 620.67 1984.63 626.913V655.169C1918.17 612.054 1848.65 573.336 1776.19 537.758C1682.7 492.022 1584.86 461.999 1484.28 440.756Z" fill="url(#paint0_linear)"/>
<path d="M1483.71 418.846L1483.46 409.394C1499.98 414.929 1771.09 472.88 1984.63 635.495V643.197C1810.42 512.257 1584.3 440.089 1483.71 418.846Z" fill="url(#paint1_linear)"/>
<path d="M1486.91 510.287C1485.58 487.025 1484.88 463.887 1484.28 440.756C1584.86 461.999 1682.7 492.022 1776.18 537.758C1848.64 573.336 1918.17 612.054 1984.63 655.169V689.542H1480.37C1480.37 689.542 1480.15 688.104 1479.7 685.427C1481.37 677.186 1482.71 668.897 1483.53 660.534C1487.47 610.078 1489.72 560.743 1486.91 510.287Z" fill="url(#paint2_linear)"/>
<path d="M1483.72 418.916C1483.9 426.156 1484.09 433.394 1484.28 440.632C1457.46 452.079 1435.88 471.215 1418.01 493.811C1414.92 487.791 1411.7 481.834 1408.35 475.972C1427.78 450.827 1454.39 431.648 1483.72 418.916Z" fill="#002490"/>
<path d="M1406.07 472.089C1401.85 465.096 1400.9 456.563 1404.36 449.169C1413.51 429.628 1436.19 389.488 1480.37 355.556C1480.37 355.556 1480.64 355.645 1481.16 355.819C1481.43 358.2 1481.64 360.56 1481.85 362.844C1482.57 378.676 1483.06 394.448 1483.48 410.202C1451.76 421.456 1428.1 446.531 1406.07 472.089Z" fill="#002490"/>
<path d="M1483.46 409.394C1483.54 412.298 1483.64 416.012 1483.71 418.916C1454.38 431.648 1430.06 454.709 1410.62 479.853C1409.13 477.245 1407.61 474.657 1406.06 472.09C1426.42 444.973 1450.89 420.962 1483.46 409.394Z" fill="url(#paint3_linear)"/>
<path d="M1484.28 440.632C1484.88 463.804 1485.58 486.983 1486.91 510.288C1489.73 560.743 1487.48 610.078 1483.54 660.534C1482.72 668.897 1481.37 677.185 1479.7 685.427C1476.25 665.204 1459.07 574.027 1418.01 493.811C1435.88 471.215 1457.46 452.079 1484.28 440.632Z" fill="url(#paint4_linear)"/>
<path d="M1956.59 665.846C1955.32 665.846 1954.29 664.82 1954.29 663.553C1954.29 662.287 1955.32 661.26 1956.59 661.26C1957.86 661.26 1958.89 662.287 1958.89 663.553C1958.89 664.82 1957.86 665.846 1956.59 665.846Z" fill="white" stroke="#002490" stroke-width="2" stroke-miterlimit="10"/>
<path d="M1945.84 659.114C1944.24 659.114 1942.94 657.82 1942.94 656.224C1942.94 654.627 1944.24 653.333 1945.84 653.333C1947.44 653.333 1948.74 654.627 1948.74 656.224C1948.74 657.82 1947.44 659.114 1945.84 659.114Z" fill="white" stroke="#002490" stroke-width="2.1818" stroke-miterlimit="10"/>
<path d="M1927.99 649.816C1926.06 649.816 1924.49 648.254 1924.49 646.328C1924.49 644.401 1926.06 642.839 1927.99 642.839C1929.93 642.839 1931.5 644.401 1931.5 646.328C1931.5 648.254 1929.93 649.816 1927.99 649.816Z" fill="white" stroke="#002490" stroke-width="2.3636" stroke-miterlimit="10"/>
<path d="M1903.87 638.489C1901.61 638.489 1899.77 636.66 1899.77 634.403C1899.77 632.146 1901.61 630.317 1903.87 630.317C1906.14 630.317 1907.97 632.146 1907.97 634.403C1907.97 636.66 1906.14 638.489 1903.87 638.489Z" fill="white" stroke="#002490" stroke-width="2.5455" stroke-miterlimit="10"/>
<path d="M1874.31 625.672C1871.71 625.672 1869.6 623.574 1869.6 620.987C1869.6 618.4 1871.71 616.303 1874.31 616.303C1876.9 616.303 1879.01 618.4 1879.01 620.987C1879.01 623.574 1876.9 625.672 1874.31 625.672Z" fill="white" stroke="#002490" stroke-width="2.7273" stroke-miterlimit="10"/>
<path d="M1840.13 611.899C1837.2 611.899 1834.83 609.534 1834.83 606.617C1834.83 603.7 1837.2 601.335 1840.13 601.335C1843.06 601.335 1845.43 603.7 1845.43 606.617C1845.43 609.534 1843.06 611.899 1840.13 611.899Z" fill="white" stroke="#002490" stroke-width="2.9091" stroke-miterlimit="10"/>
<path d="M1802.17 597.709C1798.91 597.709 1796.27 595.076 1796.27 591.829C1796.27 588.582 1798.91 585.949 1802.17 585.949C1805.43 585.949 1808.08 588.582 1808.08 591.829C1808.08 595.076 1805.43 597.709 1802.17 597.709Z" fill="white" stroke="#002490" stroke-width="3.0909" stroke-miterlimit="10"/>
<path d="M1761.27 583.639C1757.67 583.639 1754.76 580.739 1754.76 577.161C1754.76 573.584 1757.67 570.684 1761.27 570.684C1764.86 570.684 1767.77 573.584 1767.77 577.161C1767.77 580.739 1764.86 583.639 1761.27 583.639Z" fill="white" stroke="#002490" stroke-width="3.2727" stroke-miterlimit="10"/>
<path d="M1718.24 570.226C1714.32 570.226 1711.14 567.058 1711.14 563.151C1711.14 559.243 1714.32 556.076 1718.24 556.076C1722.16 556.076 1725.34 559.243 1725.34 563.151C1725.34 567.058 1722.16 570.226 1718.24 570.226Z" fill="white" stroke="#002490" stroke-width="3.4545" stroke-miterlimit="10"/>
<path d="M1673.92 558.006C1669.67 558.006 1666.22 554.571 1666.22 550.333C1666.22 546.095 1669.67 542.66 1673.92 542.66C1678.17 542.66 1681.62 546.095 1681.62 550.333C1681.62 554.571 1678.17 558.006 1673.92 558.006Z" fill="white" stroke="#002490" stroke-width="3.6364" stroke-miterlimit="10"/>
<path d="M1629.14 547.519C1624.56 547.519 1620.84 543.816 1620.84 539.248C1620.84 534.681 1624.56 530.978 1629.14 530.978C1633.73 530.978 1637.45 534.681 1637.45 539.248C1637.45 543.816 1633.73 547.519 1629.14 547.519Z" fill="white" stroke="#002490" stroke-width="3.8182" stroke-miterlimit="10"/>
<path d="M1584.74 539.3C1579.82 539.3 1575.84 535.329 1575.84 530.431C1575.84 525.533 1579.82 521.562 1584.74 521.562C1589.66 521.562 1593.64 525.533 1593.64 530.431C1593.64 535.329 1589.66 539.3 1584.74 539.3Z" fill="white" stroke="#002490" stroke-width="4" stroke-miterlimit="10"/>
<path d="M1949.29 558.068C1949.29 560.15 1946.94 561.365 1945.24 560.162L1801.68 458.494C1799.8 457.158 1798.67 454.989 1798.67 452.677C1798.67 446.723 1805.54 443.393 1810.22 447.082L1948.31 556.054C1948.93 556.541 1949.29 557.283 1949.29 558.068Z" fill="#021859"/>
<path d="M1948.33 539.28C1948.94 539.815 1949.29 540.584 1949.29 541.393C1949.29 543.77 1946.52 545.08 1944.68 543.575L1801.02 426.162C1799.53 424.948 1798.67 423.131 1798.67 421.212C1798.67 415.705 1805.17 412.775 1809.3 416.422L1948.33 539.28Z" fill="#021859"/>
<path d="M1942.81 529.142H1944.94V572.145H1942.81V529.142Z" fill="#D6EEFD"/>
<path d="M1931.32 561.341L1935.83 563.029V520.026L1931.32 518.338V561.341Z" fill="#D6EEFD"/>
<path d="M1916.14 547.797L1921.84 551.489V508.486L1916.14 504.794V547.797Z" fill="#D6EEFD"/>
<path d="M1893.36 526.996L1902.46 534.173V491.17L1893.36 483.993V526.996Z" fill="#D6EEFD"/>
<path d="M1864.88 505.899L1873.98 513.077V470.074L1864.88 462.896V505.899Z" fill="#D6EEFD"/>
<path d="M1826.32 479.872L1838.36 489.362V432.506L1826.32 423.016V479.872Z" fill="#D6EEFD"/>
<path d="M1732.6 290.447V209.647C1732.6 207.633 1734.23 206 1736.24 206C1738.26 206 1739.89 207.633 1739.89 209.647V290.447C1739.89 292.461 1738.26 294.094 1736.24 294.094C1734.23 294.094 1732.6 292.461 1732.6 290.447Z" fill="#021859"/>
<path d="M1712.04 290.446V240.524C1712.04 238.51 1713.68 236.878 1715.69 236.878C1717.71 236.878 1719.34 238.51 1719.34 240.524V290.446C1719.34 292.46 1717.71 294.093 1715.69 294.093C1713.68 294.093 1712.04 292.46 1712.04 290.446Z" fill="#021859"/>
<path d="M1658.06 290.447V262.927C1658.06 260.913 1659.69 259.28 1661.7 259.28C1663.72 259.28 1665.35 260.913 1665.35 262.927V290.447C1665.35 292.461 1663.72 294.094 1661.7 294.094C1659.69 294.094 1658.06 292.461 1658.06 290.447Z" fill="#021859"/>
<path d="M1690.05 294.094C1683 294.094 1677.29 288.401 1677.29 281.379C1677.29 274.357 1683 268.665 1690.05 268.665C1697.1 268.665 1702.82 274.357 1702.82 281.379C1702.82 288.401 1697.1 294.094 1690.05 294.094Z" fill="#021859"/>
<path d="M1472.49 653.688C1476.78 654.117 1483.68 662.735 1486.25 667.136L1475.86 669.469L1472.49 653.688Z" fill="#EAEAEA"/>
<path opacity="0.8" d="M1471.94 651.491C1476.23 651.921 1483.33 660.412 1485.91 664.814L1475.51 667.147L1471.94 651.491Z" fill="#EAEAEA"/>
<path opacity="0.9" d="M1649.3 666.034C1652.21 665.716 1655.67 667.001 1655.67 667.001L1657.83 666.286C1664.62 663.657 1668.34 667.882 1668.34 667.882L1671.93 666.269C1681.83 663.439 1685.68 670.428 1685.68 670.428C1689.59 669.89 1693.21 672.492 1695.2 674.279C1700.82 675.205 1712.57 679.235 1712.57 679.235L1696.59 676.808L1693.49 676.337L1643.11 668.685C1643.11 668.685 1646.38 666.352 1649.3 666.034Z" fill="white"/>
<path opacity="0.9" d="M1496.89 654.502C1496.89 654.502 1509.99 636.656 1522.65 641.61C1522.65 641.61 1532.95 620.741 1553.97 633.914L1561.43 640.576C1561.43 640.576 1570.7 628.528 1584.95 639.777L1589.51 642.967C1589.51 642.967 1597.44 640.26 1603.76 642.483C1610.08 644.705 1616.67 653.551 1616.67 653.551L1497.02 657.615L1496.89 654.502Z" fill="white"/>
<path d="M1626.02 659.094C1628.93 658.776 1632.38 660.061 1632.38 660.061L1634.54 659.345C1641.34 656.716 1645.06 660.942 1645.06 660.942L1648.64 659.329C1658.55 656.499 1662.4 663.488 1662.4 663.488C1666.31 662.95 1669.93 665.552 1671.91 667.339C1677.54 668.264 1689.29 672.295 1689.29 672.295L1673.3 669.867L1670.21 669.397L1619.83 661.745C1619.83 661.745 1623.1 659.412 1626.02 659.094Z" fill="white"/>
<path d="M1483.41 661.503C1483.41 661.503 1496.5 643.656 1509.17 648.611C1509.17 648.611 1519.46 627.742 1540.48 640.915L1547.95 647.577C1547.95 647.577 1557.21 635.529 1571.47 646.778L1576.03 649.967C1576.03 649.967 1583.95 647.261 1590.27 649.483C1596.6 651.706 1603.18 660.551 1603.18 660.551L1483.53 664.616L1483.41 661.503Z" fill="white"/>
<path d="M1822.22 308.04L1815.82 312.544C1813.8 313.961 1813.34 316.793 1814.8 318.858C1816.25 320.924 1819.07 321.451 1821.08 320.034L1827.49 315.53C1829.5 314.113 1829.96 311.281 1828.51 309.216C1827.03 307.163 1824.23 306.623 1822.22 308.04Z" fill="#FBBB36"/>
<path d="M1814.88 290.841L1814.78 290.907C1812.77 292.324 1812.31 295.156 1813.76 297.222C1815.22 299.287 1818.04 299.815 1820.05 298.397L1820.15 298.331C1822.16 296.914 1822.62 294.082 1821.16 292.016C1819.71 289.951 1816.89 289.424 1814.88 290.841Z" fill="#FBBB36"/>
<path d="M1849.48 333.591L1845.71 336.24C1843.7 337.658 1843.24 340.49 1844.69 342.555C1846.14 344.621 1848.96 345.148 1850.98 343.731L1854.74 341.082C1856.76 339.664 1857.22 336.833 1855.76 334.767C1854.31 332.701 1851.49 332.174 1849.48 333.591Z" fill="#FBBB36"/>
<path d="M1901.7 268.93C1905.23 273.949 1907.17 279.627 1907.56 285.299C1908.32 295.955 1903.77 306.604 1894.56 313.081L1866.31 332.949C1864.29 334.366 1861.47 333.839 1860.02 331.773C1858.57 329.708 1859.03 326.876 1861.04 325.459L1861.19 325.353C1863.21 323.935 1863.66 321.104 1862.21 319.038C1860.76 316.973 1857.94 316.445 1855.92 317.863L1845.28 325.346C1843.27 326.763 1840.45 326.236 1839 324.171C1837.54 322.105 1838 319.273 1840.02 317.856L1847.79 312.386C1849.81 310.968 1850.27 308.137 1848.81 306.071C1847.36 304.005 1844.54 303.478 1842.53 304.896L1839.04 307.346C1837.03 308.763 1834.21 308.236 1832.75 306.17C1831.3 304.105 1831.76 301.273 1833.77 299.856L1842.81 293.498C1844.83 292.081 1845.29 289.249 1843.83 287.183C1842.38 285.118 1839.56 284.591 1837.54 286.008L1831.69 290.127C1829.67 291.544 1826.85 291.017 1825.4 288.952C1823.95 286.886 1824.4 284.054 1826.42 282.637L1857.79 260.571C1858.25 260.253 1858.71 259.954 1859.18 259.655C1863.37 257.053 1868 255.587 1872.69 255.173C1877.14 254.782 1881.64 255.371 1885.89 256.853C1887.98 257.579 1889.97 258.539 1891.9 259.669C1895.66 262.016 1899 265.089 1901.7 268.93Z" fill="#FBBB36"/>
<path d="M1892.47 310.076C1880 318.844 1862.53 315.578 1853.55 302.798C1844.56 290.019 1847.39 272.475 1859.86 263.706C1872.32 254.938 1889.79 258.204 1898.78 270.983C1907.77 283.763 1904.94 301.307 1892.47 310.076Z" fill="white"/>
<path opacity="0.08" d="M1872.71 255.244C1886.95 280.607 1883.97 311.437 1866.59 332.75L1866.33 332.936C1864.31 334.353 1861.49 333.826 1860.04 331.76C1858.59 329.695 1859.04 326.863 1861.06 325.445L1861.21 325.339C1863.23 323.922 1863.68 321.09 1862.23 319.025C1860.78 316.959 1857.96 316.432 1855.94 317.849L1845.28 325.346C1843.27 326.763 1840.45 326.236 1839 324.171C1837.54 322.105 1838 319.273 1840.02 317.856L1847.79 312.386C1849.81 310.968 1850.27 308.137 1848.81 306.071C1847.36 304.005 1844.54 303.478 1842.53 304.896L1839.04 307.346C1837.03 308.763 1834.21 308.236 1832.75 306.17C1831.3 304.105 1831.76 301.273 1833.77 299.856L1842.81 293.498C1844.83 292.081 1845.29 289.249 1843.83 287.183C1842.38 285.118 1839.56 284.591 1837.54 286.008L1831.69 290.127C1829.67 291.544 1826.85 291.017 1825.4 288.952C1823.95 286.886 1824.4 284.054 1826.42 282.637L1852.49 264.39L1857.84 260.628C1858.29 260.311 1858.75 260.012 1859.22 259.713C1863.41 257.111 1868.04 255.645 1872.71 255.244Z" fill="white"/>
<path opacity="0.08" d="M1852.49 264.39C1866.02 285.547 1870.42 309.976 1866.59 332.75L1866.33 332.936C1864.31 334.353 1861.49 333.826 1860.04 331.76C1858.59 329.695 1859.04 326.863 1861.06 325.445L1861.21 325.339C1863.23 323.922 1863.68 321.09 1862.23 319.025C1860.78 316.959 1857.96 316.432 1855.94 317.849L1845.28 325.346C1843.27 326.763 1840.45 326.236 1839 324.171C1837.54 322.105 1838 319.273 1840.02 317.856L1847.79 312.386C1849.81 310.968 1850.27 308.137 1848.81 306.071C1847.36 304.005 1844.54 303.478 1842.53 304.896L1839.04 307.346C1837.03 308.763 1834.21 308.236 1832.75 306.17C1831.3 304.105 1831.76 301.273 1833.77 299.856L1842.81 293.498C1844.83 292.081 1845.29 289.249 1843.83 287.183C1842.38 285.118 1839.56 284.591 1837.54 286.008L1831.69 290.127C1829.67 291.544 1826.85 291.017 1825.4 288.952C1823.95 286.886 1824.4 284.054 1826.42 282.637L1852.49 264.39Z" fill="white"/>
<g filter="url(#filter0_i)">
<path d="M1922.3 277.12C1924.23 298.718 1908.25 317.799 1886.6 319.739C1864.96 321.678 1845.84 305.741 1843.91 284.143C1841.97 262.545 1857.95 243.464 1879.6 241.524C1901.24 239.585 1920.36 255.521 1922.3 277.12Z" fill="#FBBB36"/>
</g>
<path d="M1904.75 276.199L1900.57 275.959C1898.63 269.482 1892.69 264.776 1884.53 264.308L1871.11 263.537L1870.5 274.232L1865.84 273.965L1865.62 277.802L1870.28 278.07L1870.05 282.093L1865.39 281.826L1865.17 285.663L1869.83 285.931L1869.22 296.498L1882.64 297.269C1890.71 297.732 1897.09 293.769 1899.81 287.653L1904.07 287.898L1904.29 284.061L1900.97 283.87C1901.09 283.198 1901.18 282.501 1901.22 281.801L1901.23 281.708C1901.26 281.078 1901.26 280.458 1901.24 279.848L1904.54 280.037L1904.76 276.2L1904.75 276.199ZM1874.68 267.17L1884.34 267.725C1890.32 268.069 1894.61 271.252 1896.41 275.709L1874.26 274.436L1874.68 267.17ZM1882.84 293.816L1873.18 293.261L1873.59 286.135L1895.72 287.406C1893.4 291.556 1888.8 294.159 1882.84 293.816ZM1897.33 281.66C1897.29 282.336 1897.21 282.998 1897.07 283.634L1873.81 282.298L1874.04 278.274L1897.32 279.611C1897.36 280.246 1897.37 280.901 1897.33 281.566L1897.33 281.66Z" fill="white"/>
<path fill-rule="evenodd" clip-rule="evenodd" d="M1886.46 318.173C1906.93 316.339 1922.07 298.18 1920.22 277.574C1918.38 256.968 1900.25 241.788 1879.78 243.622C1859.32 245.456 1844.18 263.615 1846.03 284.221C1847.87 304.827 1866 320.006 1886.46 318.173ZM1886.89 322.931C1910.01 320.86 1927.06 300.362 1924.98 277.147C1922.9 253.933 1902.47 236.793 1879.36 238.864C1856.24 240.935 1839.19 261.433 1841.27 284.647C1843.35 307.862 1863.77 325.002 1886.89 322.931Z" fill="url(#paint5_linear)"/>
<path d="M1919.98 428.595L1913.55 429.397C1911.53 429.649 1910.09 431.542 1910.35 433.617C1910.61 435.693 1912.46 437.175 1914.49 436.923L1920.92 436.122C1922.95 435.87 1924.38 433.977 1924.12 431.901C1923.85 429.828 1922.01 428.343 1919.98 428.595Z" fill="#2573C6"/>
<path d="M1921.31 413.163L1921.22 413.175C1919.19 413.427 1917.75 415.32 1918.01 417.396C1918.27 419.471 1920.13 420.954 1922.15 420.702L1922.25 420.69C1924.27 420.438 1925.71 418.545 1925.45 416.469C1925.19 414.394 1923.33 412.911 1921.31 413.163Z" fill="#2573C6"/>
<path d="M1929.97 457.884L1926.19 458.355C1924.16 458.608 1922.73 460.5 1922.99 462.576C1923.25 464.651 1925.1 466.134 1927.13 465.882L1930.91 465.41C1932.94 465.158 1934.37 463.265 1934.11 461.19C1933.86 459.114 1932 457.632 1929.97 457.884Z" fill="#2573C6"/>
<path d="M1993.32 430.926C1993.95 435.97 1993.16 440.875 1991.23 445.173C1987.65 453.262 1980.17 459.276 1970.92 460.428L1942.53 463.963C1940.51 464.216 1938.65 462.733 1938.39 460.658C1938.13 458.582 1939.57 456.689 1941.59 456.437L1941.75 456.418C1943.77 456.166 1945.21 454.273 1944.95 452.198C1944.69 450.122 1942.83 448.64 1940.81 448.892L1930.12 450.224C1928.09 450.476 1926.23 448.993 1925.98 446.918C1925.72 444.842 1927.15 442.949 1929.18 442.697L1936.99 441.724C1939.02 441.472 1940.45 439.579 1940.2 437.503C1939.94 435.428 1938.08 433.945 1936.06 434.197L1932.56 434.634C1930.53 434.886 1928.67 433.403 1928.42 431.328C1928.16 429.252 1929.59 427.359 1931.62 427.107L1940.7 425.976C1942.73 425.724 1944.16 423.831 1943.9 421.755C1943.65 419.68 1941.79 418.197 1939.76 418.449L1933.88 419.182C1931.85 419.435 1930 417.952 1929.74 415.877C1929.48 413.801 1930.92 411.908 1932.94 411.656L1964.47 407.729C1964.92 407.673 1965.38 407.636 1965.84 407.599C1969.91 407.327 1973.87 408.056 1977.46 409.579C1980.87 411.025 1983.92 413.205 1986.46 415.943C1987.7 417.286 1988.79 418.765 1989.75 420.339C1991.59 423.518 1992.84 427.066 1993.32 430.926Z" fill="#2573C6"/>
<path d="M1970.56 457.419C1958.03 458.979 1946.53 449.794 1944.93 436.953C1943.33 424.111 1952.23 412.386 1964.76 410.825C1977.28 409.265 1988.79 418.45 1990.39 431.291C1991.99 444.133 1983.09 455.859 1970.56 457.419Z" fill="white"/>
<path opacity="0.08" d="M1977.45 409.639C1977.99 433.722 1963.82 455.107 1942.82 463.928L1942.55 463.961C1940.53 464.213 1938.67 462.731 1938.41 460.655C1938.15 458.58 1939.59 456.687 1941.61 456.435L1941.76 456.416C1943.79 456.164 1945.23 454.271 1944.97 452.196C1944.71 450.12 1942.85 448.637 1940.83 448.89L1930.12 450.224C1928.09 450.476 1926.23 448.993 1925.98 446.918C1925.72 444.842 1927.15 442.949 1929.18 442.697L1936.99 441.724C1939.02 441.472 1940.45 439.579 1940.2 437.503C1939.94 435.428 1938.08 433.945 1936.06 434.197L1932.56 434.634C1930.53 434.886 1928.67 433.403 1928.42 431.328C1928.16 429.252 1929.59 427.359 1931.62 427.107L1940.7 425.976C1942.73 425.724 1944.16 423.831 1943.9 421.755C1943.65 419.68 1941.79 418.197 1939.76 418.449L1933.88 419.182C1931.85 419.435 1930 417.952 1929.74 415.877C1929.48 413.801 1930.92 411.908 1932.94 411.656L1959.1 408.457L1964.48 407.788C1964.93 407.731 1965.39 407.694 1965.84 407.657C1969.92 407.385 1973.87 408.114 1977.45 409.639Z" fill="white"/>
<path opacity="0.08" d="M1959.1 408.457C1960.76 429.19 1954.47 448.766 1942.82 463.928L1942.55 463.961C1940.53 464.213 1938.67 462.731 1938.41 460.655C1938.15 458.58 1939.59 456.687 1941.61 456.435L1941.76 456.416C1943.79 456.164 1945.23 454.271 1944.97 452.196C1944.71 450.12 1942.85 448.637 1940.83 448.89L1930.12 450.224C1928.09 450.476 1926.23 448.993 1925.98 446.918C1925.72 444.842 1927.15 442.949 1929.18 442.697L1936.99 441.724C1939.02 441.472 1940.45 439.579 1940.2 437.503C1939.94 435.428 1938.08 433.945 1936.06 434.197L1932.56 434.634C1930.53 434.886 1928.67 433.403 1928.42 431.328C1928.16 429.252 1929.59 427.359 1931.62 427.107L1940.7 425.976C1942.73 425.724 1944.16 423.831 1943.9 421.755C1943.65 419.68 1941.79 418.197 1939.76 418.449L1933.88 419.182C1931.85 419.435 1930 417.952 1929.74 415.877C1929.48 413.801 1930.92 411.908 1932.94 411.656L1959.1 408.457Z" fill="white"/>
<g filter="url(#filter1_i)">
<path d="M2001 454.41C1989.72 468.901 1968.81 471.482 1954.28 460.176C1939.76 448.869 1937.13 427.956 1948.41 413.465C1959.69 398.974 1980.61 396.393 1995.13 407.7C2009.66 419.006 2012.29 439.919 2001 454.41Z" fill="#2775C9"/>
</g>
<path fill-rule="evenodd" clip-rule="evenodd" d="M1961.27 442.333C1959.56 439.609 1958.72 436.433 1958.87 433.233C1959.02 430.033 1960.15 426.965 1962.12 424.444C1964.08 421.924 1966.78 420.072 1969.84 419.141C1972.91 418.21 1976.19 418.244 1979.25 419.238C1979.46 419.29 1979.67 419.284 1979.87 419.221C1980.07 419.157 1980.25 419.039 1980.39 418.878L1981.28 417.731C1981.37 417.637 1981.43 417.521 1981.46 417.395C1981.49 417.269 1981.49 417.137 1981.45 417.013C1981.41 416.888 1981.34 416.775 1981.25 416.685C1981.15 416.596 1981.04 416.532 1980.91 416.502C1977.16 415.111 1973.08 414.942 1969.25 416.019C1965.42 417.096 1962.05 419.363 1959.61 422.492C1957.17 425.622 1955.8 429.452 1955.7 433.428C1955.59 437.404 1956.76 441.321 1959.03 444.612C1959.09 444.728 1959.18 444.825 1959.29 444.895C1959.4 444.965 1959.52 445.004 1959.65 445.01C1959.78 445.016 1959.91 444.988 1960.03 444.928C1960.14 444.868 1960.24 444.779 1960.31 444.67L1961.2 443.522C1961.32 443.352 1961.4 443.149 1961.41 442.939C1961.42 442.729 1961.37 442.519 1961.27 442.333ZM1977.79 441.288C1980 438.451 1978.97 436.109 1975.88 432.972C1973.61 430.635 1973.58 429.675 1974.47 428.523C1975.37 427.372 1976.79 427.324 1978.43 428.605C1979.93 429.773 1980.4 430.952 1979.85 432.4C1979.78 432.558 1979.78 432.733 1979.82 432.899C1979.87 433.065 1979.97 433.213 1980.1 433.322L1981.42 434.346C1981.5 434.415 1981.6 434.464 1981.71 434.492C1981.81 434.519 1981.92 434.523 1982.02 434.504C1982.13 434.484 1982.23 434.442 1982.31 434.38C1982.4 434.318 1982.47 434.237 1982.52 434.144C1983.55 431.966 1983.13 429.85 1981.38 427.931L1982.9 425.977C1983.03 425.815 1983.08 425.609 1983.05 425.404C1983.02 425.198 1982.92 425.01 1982.75 424.881L1981.5 423.905C1981.33 423.776 1981.12 423.716 1980.91 423.739C1980.71 423.761 1980.52 423.865 1980.4 424.026L1978.93 425.911C1976.16 424.301 1973.33 424.674 1971.72 426.733C1969.65 429.396 1970.51 431.731 1973.65 434.907C1975.73 437.134 1976.02 438.159 1975 439.469C1973.98 440.778 1972.15 440.764 1970.53 439.502C1968.34 437.802 1968.33 436.298 1969.02 434.902C1969.1 434.741 1969.12 434.557 1969.08 434.38C1969.03 434.203 1968.93 434.044 1968.79 433.929L1967.36 432.817C1967.28 432.751 1967.18 432.702 1967.07 432.677C1966.97 432.651 1966.86 432.647 1966.76 432.667C1966.65 432.687 1966.55 432.73 1966.47 432.792C1966.39 432.854 1966.32 432.934 1966.27 433.026C1965.05 435.336 1965.24 437.863 1967.69 440.347L1966.19 442.268C1966.07 442.429 1966.01 442.635 1966.04 442.841C1966.07 443.046 1966.18 443.235 1966.35 443.364L1967.6 444.339C1967.77 444.469 1967.98 444.529 1968.18 444.506C1968.39 444.484 1968.58 444.38 1968.7 444.219L1970.2 442.297C1973.1 443.916 1976.1 443.465 1977.79 441.288ZM1989.61 423.191C1989.72 423.261 1989.81 423.358 1989.87 423.473C1992.13 426.765 1993.3 430.681 1993.19 434.658C1993.09 438.634 1991.72 442.464 1989.28 445.593C1986.85 448.723 1983.47 450.99 1979.64 452.067C1975.81 453.144 1971.73 452.975 1967.98 451.584C1967.86 451.553 1967.74 451.49 1967.64 451.4C1967.55 451.311 1967.48 451.198 1967.44 451.073C1967.41 450.949 1967.4 450.817 1967.43 450.691C1967.46 450.564 1967.52 450.449 1967.61 450.355L1968.51 449.207C1968.63 449.038 1968.81 448.913 1969.02 448.849C1969.22 448.785 1969.44 448.784 1969.64 448.848C1972.7 449.842 1975.99 449.876 1979.05 448.945C1982.12 448.013 1984.81 446.162 1986.78 443.641C1988.74 441.121 1989.87 438.053 1990.02 434.853C1990.17 431.653 1989.34 428.476 1987.62 425.753C1987.52 425.567 1987.47 425.357 1987.48 425.147C1987.5 424.936 1987.57 424.734 1987.69 424.563L1988.58 423.416C1988.65 423.307 1988.75 423.218 1988.86 423.158C1988.98 423.098 1989.11 423.07 1989.24 423.075C1989.37 423.081 1989.49 423.121 1989.61 423.191Z" fill="white"/>
<path fill-rule="evenodd" clip-rule="evenodd" d="M1955.1 459.125C1968.83 469.816 1988.7 467.317 1999.46 453.492C2010.22 439.667 2007.77 419.798 1994.04 409.107C1980.3 398.416 1960.44 400.915 1949.68 414.74C1938.92 428.565 1941.37 448.434 1955.1 459.125ZM1952.61 462.317C1968.12 474.391 1990.53 471.553 2002.65 455.978C2014.78 440.403 2012.03 417.989 1996.52 405.915C1981.01 393.841 1958.61 396.679 1946.49 412.254C1934.36 427.829 1937.1 450.244 1952.61 462.317Z" fill="url(#paint6_linear)"/>
<path d="M1531.15 323.356L1535.96 328.159C1537.47 329.67 1539.96 329.639 1541.51 328.09C1543.05 326.541 1543.09 324.052 1541.57 322.541L1536.77 317.739C1535.26 316.227 1532.77 316.258 1531.22 317.807C1529.69 319.371 1529.64 321.845 1531.15 323.356Z" fill="#22A079"/>
<path d="M1517.55 332.191L1517.62 332.262C1519.13 333.773 1521.62 333.742 1523.17 332.193C1524.72 330.644 1524.75 328.155 1523.24 326.644L1523.17 326.573C1521.65 325.062 1519.17 325.093 1517.62 326.642C1516.07 328.191 1516.04 330.68 1517.55 332.191Z" fill="#22A079"/>
<path d="M1548.94 296.254L1551.76 299.079C1553.27 300.591 1555.76 300.56 1557.31 299.011C1558.86 297.461 1558.89 294.973 1557.38 293.462L1554.55 290.637C1553.04 289.125 1550.55 289.156 1549 290.705C1547.46 292.255 1547.42 294.743 1548.94 296.254Z" fill="#22A079"/>
<path d="M1485.89 261.243C1489.66 257.479 1494.22 254.977 1499.01 253.802C1508.01 251.56 1517.79 253.87 1524.69 260.777L1545.88 281.964C1547.39 283.475 1547.36 285.963 1545.81 287.513C1544.26 289.062 1541.77 289.093 1540.26 287.581L1540.15 287.468C1538.64 285.957 1536.15 285.988 1534.6 287.537C1533.05 289.086 1533.02 291.575 1534.53 293.086L1542.51 301.066C1544.02 302.577 1543.99 305.066 1542.44 306.615C1540.89 308.164 1538.41 308.195 1536.89 306.684L1531.06 300.85C1529.55 299.339 1527.06 299.37 1525.51 300.919C1523.96 302.468 1523.93 304.957 1525.44 306.468L1528.06 309.081C1529.57 310.592 1529.54 313.081 1527.99 314.63C1526.44 316.179 1523.95 316.21 1522.44 314.699L1515.66 307.919C1514.15 306.408 1511.66 306.439 1510.11 307.988C1508.56 309.537 1508.53 312.025 1510.04 313.537L1514.43 317.929C1515.95 319.441 1515.91 321.929 1514.37 323.478C1512.82 325.028 1510.33 325.058 1508.82 323.547L1485.29 300.016C1484.95 299.677 1484.62 299.323 1484.3 298.97C1481.45 295.774 1479.51 292.037 1478.45 288.089C1477.46 284.341 1477.29 280.41 1477.93 276.556C1478.24 274.665 1478.76 272.814 1479.44 271.004C1480.88 267.439 1483.01 264.124 1485.89 261.243Z" fill="#22A079"/>
<path d="M1522.44 263.007C1531.79 272.357 1531.6 287.774 1522.01 297.359C1512.43 306.944 1497.01 307.135 1487.66 297.784C1478.31 288.434 1478.5 273.017 1488.08 263.432C1497.67 253.848 1513.09 253.657 1522.44 263.007Z" fill="white"/>
<path opacity="0.08" d="M1478.51 288.06C1498.07 272.117 1524.86 270.069 1545.67 281.752L1545.87 281.949C1547.38 283.461 1547.35 285.949 1545.8 287.498C1544.25 289.048 1541.76 289.078 1540.25 287.567L1540.14 287.454C1538.62 285.943 1536.14 285.974 1534.59 287.523C1533.04 289.072 1533.01 291.56 1534.52 293.072L1542.51 301.066C1544.02 302.577 1543.99 305.066 1542.44 306.615C1540.89 308.164 1538.41 308.195 1536.89 306.684L1531.06 300.85C1529.55 299.339 1527.06 299.37 1525.51 300.919C1523.96 302.468 1523.93 304.957 1525.44 306.468L1528.06 309.081C1529.57 310.592 1529.54 313.081 1527.99 314.63C1526.44 316.179 1523.95 316.21 1522.44 314.699L1515.66 307.919C1514.15 306.408 1511.66 306.439 1510.11 307.988C1508.56 309.537 1508.53 312.025 1510.04 313.537L1514.43 317.929C1515.95 319.441 1515.91 321.929 1514.37 323.478C1512.82 325.028 1510.33 325.058 1508.82 323.547L1489.34 303.984L1485.33 299.972C1484.99 299.633 1484.67 299.28 1484.34 298.926C1481.49 295.73 1479.55 291.993 1478.51 288.06Z" fill="white"/>
<path opacity="0.08" d="M1489.34 303.984C1505.41 289.271 1525.63 281.871 1545.67 281.752L1545.87 281.949C1547.38 283.461 1547.35 285.949 1545.8 287.498C1544.25 289.048 1541.76 289.078 1540.25 287.567L1540.14 287.454C1538.62 285.943 1536.14 285.974 1534.59 287.523C1533.04 289.072 1533.01 291.56 1534.52 293.072L1542.51 301.066C1544.02 302.577 1543.99 305.066 1542.44 306.615C1540.89 308.164 1538.41 308.195 1536.89 306.684L1531.06 300.85C1529.55 299.339 1527.06 299.37 1525.51 300.919C1523.96 302.468 1523.93 304.957 1525.44 306.468L1528.06 309.081C1529.57 310.592 1529.54 313.081 1527.99 314.63C1526.44 316.179 1523.95 316.21 1522.44 314.699L1515.66 307.919C1514.15 306.408 1511.66 306.439 1510.11 307.988C1508.56 309.537 1508.53 312.025 1510.04 313.537L1514.43 317.929C1515.95 319.441 1515.91 321.929 1514.37 323.478C1512.82 325.028 1510.33 325.058 1508.82 323.547L1489.34 303.984Z" fill="white"/>
<g filter="url(#filter2_i)">
<path d="M1534.84 251.901C1541.23 275.747 1527.04 300.27 1503.14 306.674C1479.24 313.078 1454.68 298.938 1448.29 275.092C1441.9 251.246 1456.1 226.724 1480 220.32C1503.9 213.916 1528.45 228.055 1534.84 251.901Z" fill="#22A079"/>
</g>
<path d="M1496.59 264.58L1496.59 264.575C1496.36 264.654 1495.16 265.051 1492.46 265.775C1490.3 266.354 1488.77 266.7 1488.22 266.816L1488.23 266.821C1479.82 268.68 1473.23 268.89 1472.77 267.148C1472.3 265.412 1478.11 262.295 1486.32 259.702L1487.84 265.376C1488.39 265.27 1489.98 264.946 1492.12 264.37C1494.71 263.678 1495.97 263.222 1496.2 263.135L1494.68 257.466C1503.08 255.618 1509.65 255.412 1510.11 257.148C1510.58 258.884 1504.78 261.992 1496.59 264.586L1496.59 264.58ZM1494.53 256.878L1493.17 251.802L1504.74 248.702L1502.66 240.961L1471.16 249.401L1473.24 257.142L1484.81 254.042L1486.17 259.118C1476.88 262.071 1470.31 265.833 1470.92 268.074C1471.52 270.316 1479.09 270.288 1488.6 268.21L1492.96 284.482L1501.33 282.241L1496.97 265.969C1506.24 263.02 1512.79 259.261 1512.19 257.02C1511.59 254.784 1504.04 254.801 1494.53 256.882" fill="white"/>
<path fill-rule="evenodd" clip-rule="evenodd" d="M1502.67 304.945C1525.27 298.889 1538.7 275.566 1532.6 252.816C1526.51 230.065 1503.22 216.581 1480.62 222.636C1458.02 228.692 1444.59 252.015 1450.69 274.765C1456.79 297.516 1480.08 311 1502.67 304.945ZM1504.08 310.198C1529.6 303.36 1544.73 277.038 1537.86 251.408C1530.99 225.778 1504.73 210.544 1479.21 217.383C1453.69 224.221 1438.57 250.543 1445.43 276.173C1452.3 301.803 1478.56 317.037 1504.08 310.198Z" fill="url(#paint7_linear)"/>
<g opacity="0.9">
<path d="M1149.22 743.321C1463.37 537.863 1486.32 597.367 1685.77 648.318V900.16L488.656 916.99C485.593 919.522 482.597 922.05 479.672 924.568C479.672 924.568 468.008 921.9 447.971 917.562L-720 933.982V910.723C-720 910.723 -649.5 819.561 -482 768.252C-314.5 716.942 -193.5 857.78 -41.5 848.952C83.481 841.693 355.289 897.494 447.971 917.562L488.656 916.99C583.294 838.765 743.084 755.854 891.258 789.644C1058.15 827.701 1075.18 791.744 1149.22 743.321Z" fill="url(#paint8_linear)"/>
<path d="M214.138 880.411C274.578 890.289 333.4 901.549 380.115 911.015L-712.5 926.376V913.398C-712.08 912.899 -711.575 912.307 -710.984 911.627C-708.828 909.148 -705.527 905.502 -701.029 900.946C-692.034 891.832 -678.256 879.075 -659.285 864.707C-621.35 835.979 -562.629 800.794 -479.803 775.423C-398.658 750.566 -328.633 772.052 -258.69 799.648C-249.64 803.219 -240.575 806.902 -231.48 810.598C-170.891 835.217 -108.958 860.383 -41.0651 856.439C20.4911 852.864 118.923 864.851 214.138 880.411ZM1616.18 636.528C1635.01 642.177 1655.47 648.191 1678.27 654.129V892.764L510.492 909.182C555.016 874.978 611.227 841.247 672.508 818.337C741.924 792.384 817.369 780.487 889.591 796.956C973.371 816.061 1020.92 816.954 1057.21 806.098C1075.36 800.667 1090.32 792.404 1105.26 782.611C1112.17 778.074 1119.15 773.162 1126.41 768.057L1128.04 766.909C1135.91 761.368 1144.18 755.574 1153.32 749.597C1310.41 646.858 1393.21 611.451 1460.98 607.151C1494.77 605.007 1525.25 610.575 1560.01 620.013C1574.07 623.833 1588.73 628.254 1604.6 633.039C1608.39 634.182 1612.25 635.346 1616.18 636.528Z" stroke="#A5BBF5" stroke-opacity="0.15" stroke-width="15"/>
</g>
<path d="M1918.5 109.938C1724 107.995 1670.73 -6.01294 1651 -69H2759V506.627C2483.1 552.289 2330.48 463.88 2290.85 289.978C2200.84 317.18 2144.1 268.118 2128.44 217.599C2044.69 249.854 1939.5 180.037 1918.5 109.938Z" fill="url(#paint9_linear)"/>
<path opacity="0.9" d="M1780.67 857.232C1951.67 942.309 2079.67 737.786 2079.67 651.546V930.632H1090.54C1070.84 933.574 1050.73 933.194 1030.49 930.632H479.673C479.673 930.632 628.173 842.085 809.173 869.295C873.77 879.005 953.01 920.819 1030.49 930.632H1090.54C1118.16 926.506 1144.97 915.847 1170.17 895.51C1282.17 805.119 1477.17 706.233 1780.67 857.232Z" fill="#4166DB"/>
<path opacity="0.2" d="M2410.5 58.9338C2117.85 161.507 1938 58.9338 1870.5 -52.2104L2759.22 -52.2104V345.06C2736.34 174.027 2610.5 -11.1654 2410.5 58.9338Z" fill="url(#paint10_linear)"/>
<path d="M1632.13 624.839C1907.21 690.484 2032.5 721.5 2089.5 624.839C2112.49 575.967 2300.4 401.585 2516.4 533.677C2732.4 665.769 2866.5 576.861 2979.5 484.804C3092.5 392.748 3280 437.978 3280 437.978V947.867H-720V883.624L-720 733.382C-473.5 624.839 -455 822.088 -208 813.069C39.0001 804.05 31 883.624 172 883.624C326.5 883.624 467.436 822.088 467.436 822.088C467.436 822.088 595.772 779.864 761.772 813.069C844.646 829.646 905.62 832 1000.65 813.069C1095.51 794.171 1339.42 554.987 1632.13 624.839Z" fill="url(#paint11_linear)"/>
<path opacity="0.95" fill-rule="evenodd" clip-rule="evenodd" d="M1281.83 808.019C1252.33 812.333 1256.96 837.803 1256.96 837.803C1276.26 831.398 1319.78 811.322 1371.16 788.685C1371.16 788.685 1363.57 783.774 1356.91 783.676C1350.25 783.579 1343.96 788.542 1343.96 788.542L1338.56 787.004C1321.22 781.011 1317.19 795.037 1317.19 795.037L1307.82 791.184C1283.51 785.51 1281.83 808.019 1281.83 808.019Z" fill="white"/>
<path opacity="0.5" fill-rule="evenodd" clip-rule="evenodd" d="M1290.5 804.444C1261 808.759 1265.63 834.229 1265.63 834.229C1284.93 827.823 1328.45 807.747 1379.83 785.11C1379.83 785.11 1372.24 780.199 1365.58 780.102C1358.92 780.005 1352.63 784.967 1352.63 784.967L1347.23 783.429C1329.89 777.437 1325.86 791.462 1325.86 791.462L1316.49 787.61C1292.18 781.935 1290.5 804.444 1290.5 804.444Z" fill="white"/>
<path d="M1000.65 813.069C1095.51 794.171 1339.42 554.987 1632.13 624.839C1907.21 690.484 2030.13 710.949 2079.5 606C2102.49 557.128 2321.5 403.408 2537.5 535.5C2753.5 667.592 2866.5 576.861 2979.5 484.804C3092.5 392.748 3280 437.978 3280 437.978V457.687L3260 452.923C3260 452.923 3097 408.191 2984 500.247C2871 592.303 2753.5 682.536 2537.5 550.445C2321.5 418.353 2113.49 575.967 2090.5 624.839C2041.13 729.788 1907.21 705.429 1632.13 639.783C1339.42 569.931 1095.51 809.115 1000.65 828.013C905.62 846.944 844.646 844.591 761.772 828.013C595.772 794.809 467.436 837.032 467.436 837.032C467.436 837.032 326.5 898.568 172 898.568C31 898.568 39.0001 818.995 -208 828.013C-455 837.032 -486 636.74 -708 742.348L-720 748.607L-720 733.382C-473.5 624.838 -455 822.088 -208 813.069C39.0001 804.05 31 883.624 172 883.624C326.5 883.624 467.436 822.088 467.436 822.088C467.436 822.088 595.772 779.864 761.772 813.069C844.646 829.646 905.62 832 1000.65 813.069Z" fill="#A5BBF5" fill-opacity="0.15"/>
<path d="M1000.65 813.069C1095.51 794.171 1339.42 554.987 1632.13 624.839C1907.21 690.484 2030.13 710.949 2079.5 606C2102.49 557.128 2321.5 403.408 2537.5 535.5C2753.5 667.592 2866.5 576.861 2979.5 484.804C3092.5 392.748 3280 437.978 3280 437.978V457.687L3260 452.923C3260 452.923 3097 408.191 2984 500.247C2871 592.303 2753.5 682.536 2537.5 550.445C2321.5 418.353 2113.49 575.967 2090.5 624.839C2041.13 729.788 1907.21 705.429 1632.13 639.783C1339.42 569.931 1095.51 809.115 1000.65 828.013C905.62 846.944 844.646 844.591 761.772 828.013C595.772 794.809 467.436 837.032 467.436 837.032C467.436 837.032 326.5 898.568 172 898.568C31 898.568 39.0001 818.995 -208 828.013C-455 837.032 -486 636.74 -708 742.348L-720 748.607L-720 733.382C-473.5 624.838 -455 822.088 -208 813.069C39.0001 804.05 31 883.624 172 883.624C326.5 883.624 467.436 822.088 467.436 822.088C467.436 822.088 595.772 779.864 761.772 813.069C844.646 829.646 905.62 832 1000.65 813.069Z" fill="url(#paint12_radial)" fill-opacity="0.6"/>
<path opacity="0.95" fill-rule="evenodd" clip-rule="evenodd" d="M1465.36 747.839C1440.04 736.334 1413.87 777.773 1413.87 777.773L1414.12 782.388C1450.13 764.816 1544.19 727.6 1650.83 771.513C1650.83 771.513 1640.12 755.026 1627.49 749.865C1614.85 744.704 1599.01 750.988 1599.01 750.988L1589.89 743.583C1561.4 717.462 1542.88 745.438 1542.88 745.438L1527.96 729.969C1485.93 699.381 1465.36 747.839 1465.36 747.839Z" fill="white"/>
<path opacity="0.3" fill-rule="evenodd" clip-rule="evenodd" d="M1482.65 745.057C1458.02 732.457 1430.23 776.356 1430.23 776.356C1467.15 761.808 1557.35 726.309 1665.79 779.573C1665.79 779.573 1656.71 762.927 1644.38 757.194C1632.05 751.461 1615.89 756.478 1615.89 756.478L1607.2 748.818C1580.2 722.034 1560.17 747.636 1560.17 747.636L1546.13 731.897C1505.87 699.987 1482.65 745.057 1482.65 745.057Z" fill="white"/>
<path d="M2107 599C2107 599 1890.39 866.425 1716.84 792.055C1480.09 690.603 1489.78 752.09 1210.58 852.862C1203.56 855.397 1200.86 864.151 1205.5 870C1493.88 766.773 1479.38 704.813 1717.85 807.004C1891.41 881.374 2109 613.5 2109 613.5C2109 613.5 2222.31 493.949 2324.98 493.949C2427.65 493.949 2482.03 522.21 2634 637.723C2785.97 753.236 2840.36 636.404 2999.95 676.538C3159.54 716.672 3263.74 620.575 3263.74 620.575L3280 607.454V587.16C3280 587.16 3158.53 701.723 2998.93 661.589C2839.34 621.455 2784.95 738.287 2632.98 622.774C2481.02 507.261 2426.63 479 2323.96 479C2221.29 479 2107 599 2107 599Z" fill="#5073DF"/>
<path d="M2107 599C2107 599 1890.39 866.425 1716.84 792.055C1480.09 690.603 1489.78 752.09 1210.58 852.862C1203.56 855.397 1200.86 864.151 1205.5 870C1493.88 766.773 1479.38 704.813 1717.85 807.004C1891.41 881.374 2109 613.5 2109 613.5C2109 613.5 2222.31 493.949 2324.98 493.949C2427.65 493.949 2482.03 522.21 2634 637.723C2785.97 753.236 2840.36 636.404 2999.95 676.538C3159.54 716.672 3263.74 620.575 3263.74 620.575L3280 607.454V587.16C3280 587.16 3158.53 701.723 2998.93 661.589C2839.34 621.455 2784.95 738.287 2632.98 622.774C2481.02 507.261 2426.63 479 2323.96 479C2221.29 479 2107 599 2107 599Z" fill="url(#paint13_linear)"/>
<g filter="url(#filter3_ddd)">
<path d="M114.559 529.004C118.234 529.004 121.676 529.997 124.629 531.727C128.718 522.467 138.013 515.999 148.826 515.999C149.379 515.999 149.927 516.018 150.471 516.051C157.326 503.756 170.502 495.434 185.631 495.434C202.079 495.434 216.217 505.271 222.436 519.357C226.929 516.726 232.163 515.215 237.753 515.215C254.46 515.215 268.003 528.695 268.003 545.325C268.003 548.884 267.381 552.298 266.242 555.467H193.093H118.299H95.8301C95.0813 553.384 94.6722 551.139 94.6722 548.799C94.672 537.867 103.576 529.004 114.559 529.004Z" fill="url(#paint14_linear)"/>
</g>
<defs>
<filter id="filter0_i" x="1843.75" y="241.364" width="81.7093" height="83.5341" filterUnits="userSpaceOnUse" color-interpolation-filters="sRGB">
<feFlood flood-opacity="0" result="BackgroundImageFix"/>
<feBlend mode="normal" in="SourceGraphic" in2="BackgroundImageFix" result="shape"/>
<feColorMatrix in="SourceAlpha" type="matrix" values="0 0 0 0 0 0 0 0 0 0 0 0 0 0 0 0 0 0 127 0" result="hardAlpha"/>
<feOffset dx="3" dy="5"/>
<feGaussianBlur stdDeviation="7.5"/>
<feComposite in2="hardAlpha" operator="arithmetic" k2="-1" k3="1"/>
<feColorMatrix type="matrix" values="0 0 0 0 0.829167 0 0 0 0 0.608056 0 0 0 0 0.148559 0 0 0 1 0"/>
<feBlend mode="normal" in2="shape" result="effect1_innerShadow"/>
</filter>
<filter id="filter1_i" x="1941.41" y="400.656" width="71.5998" height="71.5627" filterUnits="userSpaceOnUse" color-interpolation-filters="sRGB">
<feFlood flood-opacity="0" result="BackgroundImageFix"/>
<feBlend mode="normal" in="SourceGraphic" in2="BackgroundImageFix" result="shape"/>
<feColorMatrix in="SourceAlpha" type="matrix" values="0 0 0 0 0 0 0 0 0 0 0 0 0 0 0 0 0 0 127 0" result="hardAlpha"/>
<feOffset dx="5" dy="5"/>
<feGaussianBlur stdDeviation="8"/>
<feComposite in2="hardAlpha" operator="arithmetic" k2="-1" k3="1"/>
<feColorMatrix type="matrix" values="0 0 0 0 0.112413 0 0 0 0 0.405371 0 0 0 0 0.729167 0 0 0 1 0"/>
<feBlend mode="normal" in2="shape" result="effect1_innerShadow"/>
</filter>
<filter id="filter2_i" x="1446.76" y="218.779" width="95.6117" height="94.4361" filterUnits="userSpaceOnUse" color-interpolation-filters="sRGB">
<feFlood flood-opacity="0" result="BackgroundImageFix"/>
<feBlend mode="normal" in="SourceGraphic" in2="BackgroundImageFix" result="shape"/>
<feColorMatrix in="SourceAlpha" type="matrix" values="0 0 0 0 0 0 0 0 0 0 0 0 0 0 0 0 0 0 127 0" result="hardAlpha"/>
<feOffset dx="7" dy="5"/>
<feGaussianBlur stdDeviation="3"/>
<feComposite in2="hardAlpha" operator="arithmetic" k2="-1" k3="1"/>
<feColorMatrix type="matrix" values="0 0 0 0 0.0946701 0 0 0 0 0.554167 0 0 0 0 0.411942 0 0 0 1 0"/>
<feBlend mode="normal" in2="shape" result="effect1_innerShadow"/>
</filter>
<filter id="filter3_ddd" x="51.6719" y="445.434" width="273.331" height="160.034" filterUnits="userSpaceOnUse" color-interpolation-filters="sRGB">
<feFlood flood-opacity="0" result="BackgroundImageFix"/>
<feColorMatrix in="SourceAlpha" type="matrix" values="0 0 0 0 0 0 0 0 0 0 0 0 0 0 0 0 0 0 127 0" result="hardAlpha"/>
<feOffset dx="7"/>
<feGaussianBlur stdDeviation="25"/>
<feColorMatrix type="matrix" values="0 0 0 0 0.121569 0 0 0 0 0.247059 0 0 0 0 0.682353 0 0 0 0.02 0"/>
<feBlend mode="normal" in2="BackgroundImageFix" result="effect1_dropShadow"/>
<feColorMatrix in="SourceAlpha" type="matrix" values="0 0 0 0 0 0 0 0 0 0 0 0 0 0 0 0 0 0 127 0" result="hardAlpha"/>
<feOffset dx="13" dy="2"/>
<feGaussianBlur stdDeviation="3"/>
<feColorMatrix type="matrix" values="0 0 0 0 0.121569 0 0 0 0 0.247059 0 0 0 0 0.682353 0 0 0 0.02 0"/>
<feBlend mode="normal" in2="effect1_dropShadow" result="effect2_dropShadow"/>
<feColorMatrix in="SourceAlpha" type="matrix" values="0 0 0 0 0 0 0 0 0 0 0 0 0 0 0 0 0 0 127 0" result="hardAlpha"/>
<feOffset dx="10" dy="10"/>
<feGaussianBlur stdDeviation="10"/>
<feColorMatrix type="matrix" values="0 0 0 0 0.121569 0 0 0 0 0.247059 0 0 0 0 0.682353 0 0 0 0.02 0"/>
<feBlend mode="normal" in2="effect2_dropShadow" result="effect3_dropShadow"/>
<feBlend mode="normal" in="SourceGraphic" in2="effect3_dropShadow" result="shape"/>
</filter>
<linearGradient id="paint0_linear" x1="1461.95" y1="360.536" x2="1543.47" y2="400.538" gradientUnits="userSpaceOnUse">
<stop stop-color="#002490"/>
<stop offset="1" stop-color="#021859"/>
</linearGradient>
<linearGradient id="paint1_linear" x1="1531.57" y1="366.279" x2="1869.97" y2="679.707" gradientUnits="userSpaceOnUse">
<stop stop-color="#FFC74E"/>
<stop offset="0.962919" stop-color="#B71C22"/>
</linearGradient>
<linearGradient id="paint2_linear" x1="1528.17" y1="394.878" x2="1886.22" y2="708.88" gradientUnits="userSpaceOnUse">
<stop stop-color="#8C0002"/>
<stop offset="0.962919" stop-color="#B71C22"/>
</linearGradient>
<linearGradient id="paint3_linear" x1="1422.77" y1="459.737" x2="1471.94" y2="402.381" gradientUnits="userSpaceOnUse">
<stop stop-color="#B71C22"/>
<stop offset="1" stop-color="#FFC74E"/>
</linearGradient>
<linearGradient id="paint4_linear" x1="1424.74" y1="395.49" x2="1511.43" y2="406.227" gradientUnits="userSpaceOnUse">
<stop stop-color="#8C0002"/>
<stop offset="0.962919" stop-color="#B71C22"/>
</linearGradient>
<linearGradient id="paint5_linear" x1="1879.36" y1="238.864" x2="1886.89" y2="322.931" gradientUnits="userSpaceOnUse">
<stop stop-color="#FFD274"/>
<stop offset="1" stop-color="#E9AC2D"/>
</linearGradient>
<linearGradient id="paint6_linear" x1="1986.78" y1="400.626" x2="1966.67" y2="471.635" gradientUnits="userSpaceOnUse">
<stop stop-color="#3284DD"/>
<stop offset="1" stop-color="#1A62AF"/>
</linearGradient>
<linearGradient id="paint7_linear" x1="1479.21" y1="217.383" x2="1504.08" y2="310.198" gradientUnits="userSpaceOnUse">
<stop stop-color="#2AB489"/>
<stop offset="1" stop-color="#0D7E5B"/>
</linearGradient>
<linearGradient id="paint8_linear" x1="1290.15" y1="776.478" x2="1290.15" y2="1023.65" gradientUnits="userSpaceOnUse">
<stop stop-color="#8CA8FF"/>
<stop offset="0.807292" stop-color="#345BD8"/>
</linearGradient>
<linearGradient id="paint9_linear" x1="2532.99" y1="-20.0489" x2="1560.05" y2="74.5292" gradientUnits="userSpaceOnUse">
<stop stop-color="#9ED1FF"/>
<stop offset="1" stop-color="#BDE3FB" stop-opacity="0"/>
</linearGradient>
<linearGradient id="paint10_linear" x1="2527.42" y1="30.2395" x2="2738.85" y2="-64.2682" gradientUnits="userSpaceOnUse">
<stop stop-color="white"/>
<stop offset="1" stop-color="white" stop-opacity="0"/>
</linearGradient>
<linearGradient id="paint11_linear" x1="1298.16" y1="351.82" x2="1298.16" y2="948" gradientUnits="userSpaceOnUse">
<stop stop-color="#2550D9"/>
<stop offset="1" stop-color="#16319B"/>
</linearGradient>
<radialGradient id="paint12_radial" cx="0" cy="0" r="1" gradientUnits="userSpaceOnUse" gradientTransform="translate(1639.8 627.064) rotate(159.473) scale(448.85 614.228)">
<stop stop-color="white" stop-opacity="0.8"/>
<stop offset="1" stop-color="white" stop-opacity="0"/>
</radialGradient>
<linearGradient id="paint13_linear" x1="1057.69" y1="920.374" x2="1270.99" y2="813.277" gradientUnits="userSpaceOnUse">
<stop stop-color="#3256CE"/>
<stop offset="1" stop-color="#5073DF"/>
</linearGradient>
<linearGradient id="paint14_linear" x1="181.338" y1="549.672" x2="76.0363" y2="550.777" gradientUnits="userSpaceOnUse">
<stop stop-color="#FBFBFD"/>
<stop offset="1" stop-color="#EDF5FF"/>
</linearGradient>
</defs>
</svg>
