<svg width="2560" height="919" viewBox="0 0 2560 919" fill="none" xmlns="http://www.w3.org/2000/svg">
<rect y="-1" width="2560" height="905.638" fill="#EFF6FF"/>
<g opacity="0.9">
<path d="M1149.22 714.321C1463.37 508.863 1486.32 568.367 1685.77 619.318V871.16L488.656 887.99C485.593 890.522 482.597 893.05 479.672 895.568C479.672 895.568 468.008 892.9 447.971 888.562L-720 904.982V881.723C-720 881.723 -649.5 790.561 -482 739.252C-314.5 687.942 -193.5 828.78 -41.5 819.952C83.481 812.693 355.289 868.494 447.971 888.562L488.656 887.99C583.294 809.765 743.084 726.854 891.258 760.644C1058.15 798.701 1075.18 762.744 1149.22 714.321Z" fill="url(#paint0_linear)"/>
<path d="M214.138 851.411C274.578 861.289 333.4 872.549 380.115 882.015L-712.5 897.376V884.398C-712.08 883.899 -711.575 883.307 -710.984 882.627C-708.828 880.148 -705.527 876.502 -701.029 871.946C-692.034 862.832 -678.256 850.075 -659.285 835.707C-621.35 806.979 -562.629 771.794 -479.803 746.423C-398.658 721.566 -328.633 743.052 -258.69 770.648C-249.64 774.219 -240.575 777.902 -231.48 781.598C-170.891 806.217 -108.958 831.383 -41.0651 827.439C20.4911 823.864 118.923 835.851 214.138 851.411ZM1616.18 607.528C1635.01 613.177 1655.47 619.191 1678.27 625.129V863.764L510.492 880.182C555.016 845.978 611.227 812.247 672.508 789.337C741.924 763.384 817.369 751.487 889.591 767.956C973.371 787.061 1020.92 787.954 1057.21 777.098C1075.36 771.667 1090.32 763.404 1105.26 753.611C1112.17 749.074 1119.15 744.162 1126.41 739.057L1128.04 737.909C1135.91 732.368 1144.18 726.574 1153.32 720.597C1310.41 617.858 1393.21 582.451 1460.98 578.151C1494.77 576.007 1525.25 581.575 1560.01 591.013C1574.07 594.833 1588.73 599.254 1604.6 604.039C1608.39 605.182 1612.25 606.346 1616.18 607.528Z" stroke="#A5BBF5" stroke-opacity="0.15" stroke-width="15"/>
</g>
<path d="M1719.51 177.805C1525.01 175.862 1471.74 61.8542 1452.01 -1.13281H2560.01V574.494C2284.11 620.156 2131.48 531.747 2091.86 357.845C2001.85 385.047 1945.1 335.986 1929.45 285.466C1845.7 317.721 1740.51 247.904 1719.51 177.805Z" fill="url(#paint1_linear)"/>
<path opacity="0.9" d="M1780.67 828.232C1951.67 913.309 2079.67 708.786 2079.67 622.546V901.632H1090.54C1070.84 904.574 1050.73 904.194 1030.49 901.632H479.673C479.673 901.632 628.173 813.085 809.173 840.295C873.77 850.005 953.01 891.819 1030.49 901.632H1090.54C1118.16 897.506 1144.97 886.847 1170.17 866.51C1282.17 776.119 1477.17 677.233 1780.67 828.232Z" fill="#4166DB"/>
<path opacity="0.2" d="M2211.51 110.934C1918.86 213.507 1739.01 110.934 1671.51 -0.210404L2560.22 -0.210449V397.06C2537.35 226.027 2411.51 40.8346 2211.51 110.934Z" fill="url(#paint2_linear)"/>
<path d="M1681.27 359.184L1804.61 477.239C1808.7 481.158 1810.94 486.629 1810.77 492.294L1809.07 548.179L1652.2 453.682L1637.11 351.667L1681.27 359.184Z" fill="#D6EEFD"/>
<path d="M1691.85 331.486C1702.9 331.486 1711.85 340.441 1711.85 351.486V359.185H1681.27C1668.21 359.185 1657.61 369.735 1657.61 382.75V527.272H1519.68V382.75C1519.68 369.735 1509.09 359.185 1496.03 359.185H1463.75V351.486C1463.75 340.441 1472.71 331.486 1483.75 331.486H1691.85Z" fill="white"/>
<path d="M1627.03 375.904H1638.35C1641.73 375.904 1644.46 378.64 1644.46 382.015C1644.46 385.39 1641.73 388.126 1638.35 388.126H1627.03C1623.66 388.126 1620.92 385.39 1620.92 382.015C1620.92 378.64 1623.66 375.904 1627.03 375.904Z" fill="#021859"/>
<path d="M1595.84 375.904H1607.16C1610.53 375.904 1613.27 378.64 1613.27 382.015C1613.27 385.39 1610.53 388.126 1607.16 388.126H1595.84C1592.47 388.126 1589.73 385.39 1589.73 382.015C1589.73 378.64 1592.47 375.904 1595.84 375.904Z" fill="#021859"/>
<path d="M1564.65 375.904H1575.97C1579.34 375.904 1582.08 378.64 1582.08 382.015C1582.08 385.39 1579.34 388.126 1575.97 388.126H1564.65C1561.27 388.126 1558.54 385.39 1558.54 382.015C1558.54 378.64 1561.27 375.904 1564.65 375.904Z" fill="#021859"/>
<path d="M1533.45 375.904H1544.77C1548.15 375.904 1550.88 378.64 1550.88 382.015C1550.88 385.39 1548.15 388.126 1544.77 388.126H1533.45C1530.08 388.126 1527.34 385.39 1527.34 382.015C1527.34 378.64 1530.08 375.904 1533.45 375.904Z" fill="#021859"/>
<path d="M1627.03 400.568H1638.35C1641.73 400.568 1644.46 403.304 1644.46 406.679C1644.46 410.054 1641.73 412.79 1638.35 412.79H1627.03C1623.66 412.79 1620.92 410.054 1620.92 406.679C1620.92 403.304 1623.66 400.568 1627.03 400.568Z" fill="#021859"/>
<path d="M1595.84 400.568H1607.16C1610.53 400.568 1613.27 403.304 1613.27 406.679C1613.27 410.054 1610.53 412.79 1607.16 412.79H1595.84C1592.47 412.79 1589.73 410.054 1589.73 406.679C1589.73 403.304 1592.47 400.568 1595.84 400.568Z" fill="#021859"/>
<path d="M1564.65 400.568H1575.97C1579.34 400.568 1582.08 403.304 1582.08 406.679C1582.08 410.054 1579.34 412.79 1575.97 412.79H1564.65C1561.27 412.79 1558.54 410.054 1558.54 406.679C1558.54 403.304 1561.27 400.568 1564.65 400.568Z" fill="#021859"/>
<path d="M1533.45 400.568H1544.77C1548.15 400.568 1550.88 403.304 1550.88 406.679C1550.88 410.054 1548.15 412.79 1544.77 412.79H1533.45C1530.08 412.79 1527.34 410.054 1527.34 406.679C1527.34 403.304 1530.08 400.568 1533.45 400.568Z" fill="#021859"/>
<path d="M1530.5 320.672H1651.82C1657.79 320.672 1662.63 325.514 1662.63 331.486H1519.68C1519.68 325.514 1524.52 320.672 1530.5 320.672Z" fill="white"/>
<path d="M1527.65 302.658H1655.31V320.672H1527.65V302.658Z" fill="#021859"/>
<path d="M1624.59 302.658H1649.63V320.672H1624.59V302.658Z" fill="#DBE7FF"/>
<path d="M1594.1 302.658H1619.13V320.672H1594.1V302.658Z" fill="#DBE7FF"/>
<path d="M1563.61 302.658H1588.64V320.672H1563.61V302.658Z" fill="#DBE7FF"/>
<path d="M1533.11 302.658H1558.15V320.672H1533.11V302.658Z" fill="#DBE7FF"/>
<path d="M1532.47 290.916H1650.53C1654.65 290.916 1658 294.261 1658 298.388C1658 302.515 1654.65 305.861 1650.53 305.861H1532.47C1528.35 305.861 1525 302.515 1525 298.388C1525 294.261 1528.35 290.916 1532.47 290.916Z" fill="#021859"/>
<path d="M1527.45 287.861H1655.6C1659.69 287.861 1663 291.173 1663 295.26C1663 299.346 1659.69 302.658 1655.6 302.658H1527.45C1523.36 302.658 1520.05 299.346 1520.05 295.26C1520.05 291.173 1523.36 287.861 1527.45 287.861Z" fill="white"/>
<path d="M1407.54 406.784C1406.96 384.637 1406.48 362.497 1405.47 340.224C1405.29 338.273 1405.11 336.256 1404.88 334.223C1418.79 338.884 1645.89 416.159 1827.09 551.392C1832.09 555.126 1835 561.021 1835 567.264V589.959C1778.22 553.126 1718.82 520.049 1656.92 489.654C1577.05 450.581 1493.47 424.932 1407.54 406.784Z" fill="url(#paint3_linear)"/>
<path d="M1407.06 388.067L1406.85 379.991C1420.96 384.72 1652.57 434.228 1835 573.151V579.732C1686.17 467.868 1492.99 406.215 1407.06 388.067Z" fill="url(#paint4_linear)"/>
<path d="M1409.79 466.186C1408.66 446.312 1408.06 426.545 1407.54 406.784C1493.47 424.932 1577.05 450.581 1656.92 489.654C1718.82 520.049 1778.22 553.126 1835 589.959V619.325H1404.21C1404.21 619.325 1404.02 618.096 1403.63 615.809C1405.06 608.768 1406.21 601.687 1406.91 594.543C1410.27 551.438 1412.2 509.291 1409.79 466.186Z" fill="url(#paint5_linear)"/>
<path d="M1407.06 388.126C1407.22 394.312 1407.38 400.495 1407.54 406.679C1384.63 416.458 1366.19 432.806 1350.92 452.11C1348.29 446.967 1345.54 441.878 1342.67 436.87C1359.28 415.388 1382 399.003 1407.06 388.126Z" fill="#002490"/>
<path d="M1340.73 433.553C1337.13 427.578 1336.31 420.289 1339.27 413.971C1347.08 397.278 1366.46 362.985 1404.21 333.997C1404.21 333.997 1404.44 334.073 1404.88 334.222C1405.11 336.256 1405.29 338.273 1405.47 340.223C1406.08 353.749 1406.5 367.223 1406.86 380.681C1379.76 390.296 1359.55 411.718 1340.73 433.553Z" fill="#002490"/>
<path d="M1406.85 379.991C1406.91 382.473 1407 385.645 1407.06 388.126C1382 399.003 1361.22 418.704 1344.62 440.186C1343.34 437.958 1342.05 435.747 1340.72 433.553C1358.12 410.387 1379.02 389.874 1406.85 379.991Z" fill="url(#paint6_linear)"/>
<path d="M1407.54 406.679C1408.06 426.475 1408.66 446.277 1409.79 466.186C1412.2 509.291 1410.27 551.438 1406.91 594.543C1406.21 601.687 1405.06 608.768 1403.63 615.809C1400.68 598.533 1386.01 520.639 1350.92 452.11C1366.2 432.806 1384.63 416.458 1407.54 406.679Z" fill="url(#paint7_linear)"/>
<path d="M1811.04 599.081C1809.95 599.081 1809.07 598.204 1809.07 597.122C1809.07 596.04 1809.95 595.163 1811.04 595.163C1812.13 595.163 1813.01 596.04 1813.01 597.122C1813.01 598.204 1812.13 599.081 1811.04 599.081Z" fill="white" stroke="#002490" stroke-width="2" stroke-miterlimit="10"/>
<path d="M1801.86 593.33C1800.49 593.33 1799.38 592.224 1799.38 590.86C1799.38 589.497 1800.49 588.391 1801.86 588.391C1803.23 588.391 1804.34 589.497 1804.34 590.86C1804.34 592.224 1803.23 593.33 1801.86 593.33Z" fill="white" stroke="#002490" stroke-width="2.1818" stroke-miterlimit="10"/>
<path d="M1786.61 585.386C1784.96 585.386 1783.62 584.052 1783.62 582.406C1783.62 580.76 1784.96 579.426 1786.61 579.426C1788.26 579.426 1789.6 580.76 1789.6 582.406C1789.6 584.052 1788.26 585.386 1786.61 585.386Z" fill="white" stroke="#002490" stroke-width="2.3636" stroke-miterlimit="10"/>
<path d="M1766 575.71C1764.07 575.71 1762.5 574.147 1762.5 572.219C1762.5 570.291 1764.07 568.728 1766 568.728C1767.94 568.728 1769.51 570.291 1769.51 572.219C1769.51 574.147 1767.94 575.71 1766 575.71Z" fill="white" stroke="#002490" stroke-width="2.5455" stroke-miterlimit="10"/>
<path d="M1740.74 564.759C1738.53 564.759 1736.73 562.968 1736.73 560.758C1736.73 558.548 1738.53 556.756 1740.74 556.756C1742.96 556.756 1744.76 558.548 1744.76 560.758C1744.76 562.968 1742.96 564.759 1740.74 564.759Z" fill="white" stroke="#002490" stroke-width="2.7273" stroke-miterlimit="10"/>
<path d="M1711.55 552.993C1709.05 552.993 1707.02 550.973 1707.02 548.481C1707.02 545.989 1709.05 543.968 1711.55 543.968C1714.05 543.968 1716.08 545.989 1716.08 548.481C1716.08 550.973 1714.05 552.993 1711.55 552.993Z" fill="white" stroke="#002490" stroke-width="2.9091" stroke-miterlimit="10"/>
<path d="M1679.12 540.87C1676.34 540.87 1674.08 538.621 1674.08 535.847C1674.08 533.073 1676.34 530.824 1679.12 530.824C1681.91 530.824 1684.16 533.073 1684.16 535.847C1684.16 538.621 1681.91 540.87 1679.12 540.87Z" fill="white" stroke="#002490" stroke-width="3.0909" stroke-miterlimit="10"/>
<path d="M1644.17 528.85C1641.11 528.85 1638.62 526.373 1638.62 523.317C1638.62 520.26 1641.11 517.783 1644.17 517.783C1647.24 517.783 1649.73 520.26 1649.73 523.317C1649.73 526.373 1647.24 528.85 1644.17 528.85Z" fill="white" stroke="#002490" stroke-width="3.2727" stroke-miterlimit="10"/>
<path d="M1607.41 517.391C1604.06 517.391 1601.35 514.685 1601.35 511.347C1601.35 508.009 1604.06 505.303 1607.41 505.303C1610.77 505.303 1613.48 508.009 1613.48 511.347C1613.48 514.685 1610.77 517.391 1607.41 517.391Z" fill="white" stroke="#002490" stroke-width="3.4545" stroke-miterlimit="10"/>
<path d="M1569.55 506.952C1565.92 506.952 1562.97 504.017 1562.97 500.397C1562.97 496.777 1565.92 493.842 1569.55 493.842C1573.19 493.842 1576.13 496.777 1576.13 500.397C1576.13 504.017 1573.19 506.952 1569.55 506.952Z" fill="white" stroke="#002490" stroke-width="3.6364" stroke-miterlimit="10"/>
<path d="M1531.3 497.993C1527.38 497.993 1524.21 494.83 1524.21 490.927C1524.21 487.025 1527.38 483.861 1531.3 483.861C1535.22 483.861 1538.39 487.025 1538.39 490.927C1538.39 494.83 1535.22 497.993 1531.3 497.993Z" fill="white" stroke="#002490" stroke-width="3.8182" stroke-miterlimit="10"/>
<path d="M1493.37 490.971C1489.17 490.971 1485.76 487.579 1485.76 483.394C1485.76 479.21 1489.17 475.817 1493.37 475.817C1497.57 475.817 1500.97 479.21 1500.97 483.394C1500.97 487.579 1497.57 490.971 1493.37 490.971Z" fill="white" stroke="#002490" stroke-width="4" stroke-miterlimit="10"/>
<path d="M1804.8 507.005C1804.8 508.784 1802.8 509.822 1801.35 508.794L1678.7 421.938C1677.09 420.796 1676.13 418.944 1676.13 416.968C1676.13 411.882 1682 409.037 1685.99 412.188L1803.97 505.284C1804.5 505.7 1804.8 506.334 1804.8 507.005Z" fill="#021859"/>
<path d="M1803.99 490.954C1804.51 491.411 1804.8 492.069 1804.8 492.759C1804.8 494.79 1802.44 495.909 1800.87 494.624L1678.14 394.316C1676.87 393.279 1676.13 391.727 1676.13 390.088C1676.13 385.383 1681.69 382.88 1685.21 385.995L1803.99 490.954Z" fill="#021859"/>
<path d="M1799.27 482.293H1801.09V519.031H1799.27V482.293Z" fill="#D6EEFD"/>
<path d="M1789.45 509.801L1793.31 511.243V474.506L1789.45 473.063V509.801Z" fill="#D6EEFD"/>
<path d="M1776.48 498.23L1781.36 501.384V464.647L1776.48 461.493V498.23Z" fill="#D6EEFD"/>
<path d="M1757.02 480.46L1764.8 486.592V449.854L1757.02 443.722V480.46Z" fill="#D6EEFD"/>
<path d="M1732.69 462.436L1740.47 468.569V431.831L1732.69 425.699V462.436Z" fill="#D6EEFD"/>
<path d="M1699.75 440.201L1710.03 448.309V399.736L1699.75 391.628V440.201Z" fill="#D6EEFD"/>
<path d="M1619.68 278.374V209.346C1619.68 207.625 1621.08 206.23 1622.8 206.23C1624.52 206.23 1625.91 207.625 1625.91 209.346V278.374C1625.91 280.095 1624.52 281.49 1622.8 281.49C1621.08 281.49 1619.68 280.095 1619.68 278.374Z" fill="#021859"/>
<path d="M1602.13 278.374V235.725C1602.13 234.004 1603.52 232.609 1605.24 232.609C1606.96 232.609 1608.36 234.004 1608.36 235.725V278.374C1608.36 280.094 1606.96 281.489 1605.24 281.489C1603.52 281.489 1602.13 280.094 1602.13 278.374Z" fill="#021859"/>
<path d="M1556 278.374V254.864C1556 253.143 1557.39 251.748 1559.12 251.748C1560.84 251.748 1562.23 253.143 1562.23 254.864V278.374C1562.23 280.095 1560.84 281.49 1559.12 281.49C1557.39 281.49 1556 280.095 1556 278.374Z" fill="#021859"/>
<path d="M1583.34 281.49C1577.31 281.49 1572.43 276.627 1572.43 270.628C1572.43 264.629 1577.31 259.766 1583.34 259.766C1589.36 259.766 1594.24 264.629 1594.24 270.628C1594.24 276.627 1589.36 281.49 1583.34 281.49Z" fill="#021859"/>
<path d="M1397.47 588.694C1401.14 589.061 1407.03 596.423 1409.23 600.184L1400.35 602.176L1397.47 588.694Z" fill="#EAEAEA"/>
<path opacity="0.8" d="M1397 586.818C1400.66 587.185 1406.74 594.439 1408.94 598.2L1400.05 600.192L1397 586.818Z" fill="#EAEAEA"/>
<path opacity="0.9" d="M1548.52 599.241C1551.01 598.97 1553.96 600.068 1553.96 600.068L1555.81 599.456C1561.62 597.21 1564.79 600.821 1564.79 600.821L1567.85 599.442C1576.31 597.025 1579.6 602.996 1579.6 602.996C1582.95 602.536 1586.04 604.759 1587.73 606.286C1592.54 607.076 1602.58 610.52 1602.58 610.52L1588.92 608.446L1586.27 608.043L1543.24 601.506C1543.24 601.506 1546.03 599.513 1548.52 599.241Z" fill="white"/>
<path opacity="0.9" d="M1418.32 589.39C1418.32 589.39 1429.51 574.143 1440.33 578.376C1440.33 578.376 1449.12 560.548 1467.08 571.802L1473.46 577.493C1473.46 577.493 1481.37 567.2 1493.55 576.81L1497.45 579.535C1497.45 579.535 1504.22 577.223 1509.62 579.121C1515.02 581.02 1520.65 588.577 1520.65 588.577L1418.43 592.049L1418.32 589.39Z" fill="white"/>
<path d="M1528.63 593.312C1531.12 593.041 1534.07 594.138 1534.07 594.138L1535.92 593.527C1541.73 591.281 1544.9 594.891 1544.9 594.891L1547.96 593.513C1556.42 591.096 1559.71 597.066 1559.71 597.066C1563.06 596.607 1566.15 598.83 1567.84 600.356C1572.65 601.147 1582.69 604.59 1582.69 604.59L1569.03 602.516L1566.38 602.114L1523.35 595.577C1523.35 595.577 1526.14 593.584 1528.63 593.312Z" fill="white"/>
<path d="M1406.8 595.371C1406.8 595.371 1417.98 580.124 1428.8 584.357C1428.8 584.357 1437.6 566.529 1455.56 577.782L1461.93 583.474C1461.93 583.474 1469.85 573.181 1482.03 582.791L1485.92 585.516C1485.92 585.516 1492.69 583.204 1498.09 585.102C1503.5 587.001 1509.12 594.558 1509.12 594.558L1406.91 598.03L1406.8 595.371Z" fill="white"/>
<path d="M1632.13 595.839C1907.21 661.484 2025.73 560.753 2075.1 455.804C2098.09 406.933 2286 232.551 2502 364.643C2718 496.735 2866.5 547.861 2979.5 455.804C3092.5 363.748 3280 408.978 3280 408.978V918.867H-720V854.624L-720 704.382C-473.5 595.839 -455 793.088 -208 784.069C39.0001 775.05 31 854.624 172 854.624C326.5 854.624 467.436 793.088 467.436 793.088C467.436 793.088 595.772 750.864 761.772 784.069C844.646 800.646 905.62 803 1000.65 784.069C1095.51 765.171 1339.42 525.987 1632.13 595.839Z" fill="url(#paint8_linear)"/>
<path opacity="0.95" fill-rule="evenodd" clip-rule="evenodd" d="M1282.37 778.936C1253.19 785.051 1259.37 810.189 1259.37 810.189C1278.25 802.612 1320.45 779.905 1370.35 754.161C1370.35 754.161 1362.47 749.724 1355.82 750.036C1349.17 750.347 1343.19 755.686 1343.19 755.686L1337.71 754.482C1320.03 749.564 1316.86 763.81 1316.86 763.81L1307.27 760.539C1282.66 756.366 1282.37 778.936 1282.37 778.936Z" fill="white"/>
<path opacity="0.5" fill-rule="evenodd" clip-rule="evenodd" d="M1290.8 774.837C1261.63 780.951 1267.8 806.09 1267.8 806.09C1286.68 798.513 1328.89 775.806 1378.78 750.062C1378.78 750.062 1370.9 745.625 1364.25 745.936C1357.6 746.248 1351.62 751.586 1351.62 751.586L1346.14 750.383C1328.46 745.465 1325.3 759.711 1325.3 759.711L1315.71 756.44C1291.1 752.267 1290.8 774.837 1290.8 774.837Z" fill="white"/>
<path d="M1000.65 784.069C1095.51 765.171 1339.42 525.987 1632.13 595.839C1907.21 661.484 2025.73 560.753 2075.1 455.804C2098.09 406.933 2286 232.551 2502 364.643C2718 496.735 2866.5 547.861 2979.5 455.804C3092.5 363.748 3280 408.978 3280 408.978V428.687L3260 423.923C3260 423.923 3097 379.191 2984 471.247C2871 563.303 2718 511.679 2502 379.587C2286 247.496 2098.09 421.877 2075.1 470.749C2025.73 575.698 1907.21 676.429 1632.13 610.783C1339.42 540.931 1095.51 780.115 1000.65 799.014C905.62 817.944 844.646 815.591 761.772 799.014C595.772 765.809 467.436 808.032 467.436 808.032C467.436 808.032 326.5 869.568 172 869.568C31 869.568 39.0001 789.995 -208 799.014C-455 808.032 -486 607.74 -708 713.348L-720 719.607L-720 704.382C-473.5 595.839 -455 793.088 -208 784.069C39.0001 775.05 31 854.624 172 854.624C326.5 854.624 467.436 793.088 467.436 793.088C467.436 793.088 595.772 750.864 761.772 784.069C844.646 800.646 905.62 803 1000.65 784.069Z" fill="#A5BBF5" fill-opacity="0.15"/>
<path d="M1000.65 784.069C1095.51 765.171 1339.42 525.987 1632.13 595.839C1907.21 661.484 2025.73 560.753 2075.1 455.804C2098.09 406.933 2286 232.551 2502 364.643C2718 496.735 2866.5 547.861 2979.5 455.804C3092.5 363.748 3280 408.978 3280 408.978V428.687L3260 423.923C3260 423.923 3097 379.191 2984 471.247C2871 563.303 2718 511.679 2502 379.587C2286 247.496 2098.09 421.877 2075.1 470.749C2025.73 575.698 1907.21 676.429 1632.13 610.783C1339.42 540.931 1095.51 780.115 1000.65 799.014C905.62 817.944 844.646 815.591 761.772 799.014C595.772 765.809 467.436 808.032 467.436 808.032C467.436 808.032 326.5 869.568 172 869.568C31 869.568 39.0001 789.995 -208 799.014C-455 808.032 -486 607.74 -708 713.348L-720 719.607L-720 704.382C-473.5 595.839 -455 793.088 -208 784.069C39.0001 775.05 31 854.624 172 854.624C326.5 854.624 467.436 793.088 467.436 793.088C467.436 793.088 595.772 750.864 761.772 784.069C844.646 800.646 905.62 803 1000.65 784.069Z" fill="url(#paint9_radial)" fill-opacity="0.6"/>
<path opacity="0.95" fill-rule="evenodd" clip-rule="evenodd" d="M1477.08 701.287C1447.68 689.782 1417.28 731.222 1417.28 731.222L1417.56 735.836C1459.39 718.264 1568.65 681.048 1692.53 724.961C1692.53 724.961 1680.09 708.474 1665.42 703.313C1650.74 698.152 1632.34 704.437 1632.34 704.437L1621.74 697.031C1588.65 670.911 1567.13 698.886 1567.13 698.886L1549.8 683.417C1500.99 652.83 1477.08 701.287 1477.08 701.287Z" fill="white"/>
<path opacity="0.3" fill-rule="evenodd" clip-rule="evenodd" d="M1497.17 698.505C1468.56 685.905 1436.28 729.804 1436.28 729.804C1479.16 715.256 1583.94 679.757 1709.91 733.022C1709.91 733.022 1699.36 716.375 1685.04 710.642C1670.72 704.909 1651.95 709.926 1651.95 709.926L1641.85 702.267C1610.49 675.482 1587.21 701.084 1587.21 701.084L1570.91 685.346C1524.15 653.436 1497.17 698.505 1497.17 698.505Z" fill="white"/>
<path d="M2125.67 521.343C2125.67 521.343 1912.97 828.503 1742.24 744.242C1509.57 629.41 1373.62 765.503 1094.63 881.846C1086.85 885.093 1083.89 894.72 1088.68 901.666C1372.38 784.71 1508.64 645.397 1743.24 761.179C1913.97 845.441 2126.67 538.28 2126.67 538.28C2126.67 538.28 2239.5 406.487 2340.5 406.487C2441.5 406.487 2495 438.507 2644.5 569.383C2794 700.26 2847.5 567.889 3004.5 613.361C3161.5 658.832 3264 549.955 3264 549.955L3280 535.089V512.095C3280 512.095 3160.5 641.895 3003.5 596.423C2846.5 550.952 2793 683.322 2643.5 552.446C2494 421.57 2440.5 389.55 2339.5 389.55C2238.5 389.55 2125.67 521.343 2125.67 521.343Z" fill="#5073DF"/>
<path d="M2125.67 521.343C2125.67 521.343 1912.97 828.503 1742.24 744.242C1509.57 629.41 1373.62 765.503 1094.63 881.846C1086.85 885.093 1083.89 894.72 1088.68 901.666C1372.38 784.71 1508.64 645.397 1743.24 761.179C1913.97 845.441 2126.67 538.28 2126.67 538.28C2126.67 538.28 2239.5 406.487 2340.5 406.487C2441.5 406.487 2495 438.507 2644.5 569.383C2794 700.26 2847.5 567.889 3004.5 613.361C3161.5 658.832 3264 549.955 3264 549.955L3280 535.089V512.095C3280 512.095 3160.5 641.895 3003.5 596.423C2846.5 550.952 2793 683.322 2643.5 552.446C2494 421.57 2440.5 389.55 2339.5 389.55C2238.5 389.55 2125.67 521.343 2125.67 521.343Z" fill="url(#paint10_linear)"/>
<ellipse opacity="0.34" cx="477" cy="363.502" rx="405" ry="403.502" fill="white"/>
<ellipse opacity="0.5" cx="477.5" cy="364.001" rx="292.5" ry="291.418" fill="white"/>
<ellipse cx="477" cy="363.502" rx="143" ry="142.471" fill="#FFF5DE"/>
<g filter="url(#filter0_ddd)">
<path d="M114.559 500.004C118.234 500.004 121.675 500.997 124.629 502.727C128.717 493.467 138.012 486.999 148.826 486.999C149.378 486.999 149.926 487.018 150.471 487.051C157.326 474.756 170.501 466.434 185.63 466.434C202.079 466.434 216.217 476.271 222.436 490.357C226.928 487.726 232.163 486.215 237.752 486.215C254.459 486.215 268.002 499.695 268.002 516.325C268.002 519.884 267.38 523.298 266.241 526.467H193.092H118.299H95.8297C95.0808 524.384 94.6717 522.139 94.6717 519.799C94.6715 508.867 103.576 500.004 114.559 500.004Z" fill="url(#paint11_linear)"/>
</g>
<g filter="url(#filter1_ddd)">
<path d="M1884.96 355.072C1891.6 355.072 1897.82 356.853 1903.16 359.953C1910.55 343.356 1927.36 331.764 1946.91 331.764C1972.52 331.764 1993.42 351.649 1994.62 376.624C1996.81 376.021 1999.11 375.692 2001.49 375.692C2015.58 375.692 2027 386.96 2027 400.86C2027 401.412 2026.98 401.959 2026.94 402.502H1851.09C1849.74 398.767 1849 394.744 1849 390.55C1849 370.956 1865.1 355.072 1884.96 355.072Z" fill="white"/>
</g>
<g opacity="0.9" filter="url(#filter2_ddd)">
<path d="M1809.62 178.014C1812.57 178.014 1815.33 178.789 1817.7 180.138C1820.97 172.915 1828.43 167.871 1837.1 167.871C1837.54 167.871 1837.98 167.886 1838.42 167.912C1843.92 158.321 1854.48 151.83 1866.61 151.83C1879.81 151.83 1891.14 159.503 1896.13 170.49C1899.73 168.438 1903.93 167.259 1908.41 167.259C1921.81 167.259 1932.67 177.774 1932.67 190.745C1932.67 193.521 1932.17 196.184 1931.26 198.656H1872.6H1812.62H1794.6C1794 197.031 1793.67 195.28 1793.67 193.455C1793.67 184.927 1800.81 178.014 1809.62 178.014Z" fill="white"/>
</g>
<defs>
<filter id="filter0_ddd" x="51.6719" y="416.434" width="273.331" height="160.034" filterUnits="userSpaceOnUse" color-interpolation-filters="sRGB">
<feFlood flood-opacity="0" result="BackgroundImageFix"/>
<feColorMatrix in="SourceAlpha" type="matrix" values="0 0 0 0 0 0 0 0 0 0 0 0 0 0 0 0 0 0 127 0"/>
<feOffset dx="7"/>
<feGaussianBlur stdDeviation="25"/>
<feColorMatrix type="matrix" values="0 0 0 0 0.121569 0 0 0 0 0.247059 0 0 0 0 0.682353 0 0 0 0.02 0"/>
<feBlend mode="normal" in2="BackgroundImageFix" result="effect1_dropShadow"/>
<feColorMatrix in="SourceAlpha" type="matrix" values="0 0 0 0 0 0 0 0 0 0 0 0 0 0 0 0 0 0 127 0"/>
<feOffset dx="13" dy="2"/>
<feGaussianBlur stdDeviation="3"/>
<feColorMatrix type="matrix" values="0 0 0 0 0.121569 0 0 0 0 0.247059 0 0 0 0 0.682353 0 0 0 0.02 0"/>
<feBlend mode="normal" in2="effect1_dropShadow" result="effect2_dropShadow"/>
<feColorMatrix in="SourceAlpha" type="matrix" values="0 0 0 0 0 0 0 0 0 0 0 0 0 0 0 0 0 0 127 0"/>
<feOffset dx="10" dy="10"/>
<feGaussianBlur stdDeviation="10"/>
<feColorMatrix type="matrix" values="0 0 0 0 0.121569 0 0 0 0 0.247059 0 0 0 0 0.682353 0 0 0 0.02 0"/>
<feBlend mode="normal" in2="effect2_dropShadow" result="effect3_dropShadow"/>
<feBlend mode="normal" in="SourceGraphic" in2="effect3_dropShadow" result="shape"/>
</filter>
<filter id="filter1_ddd" x="1806" y="281.764" width="278" height="170.737" filterUnits="userSpaceOnUse" color-interpolation-filters="sRGB">
<feFlood flood-opacity="0" result="BackgroundImageFix"/>
<feColorMatrix in="SourceAlpha" type="matrix" values="0 0 0 0 0 0 0 0 0 0 0 0 0 0 0 0 0 0 127 0"/>
<feOffset dx="7"/>
<feGaussianBlur stdDeviation="25"/>
<feColorMatrix type="matrix" values="0 0 0 0 0.121569 0 0 0 0 0.247059 0 0 0 0 0.682353 0 0 0 0.02 0"/>
<feBlend mode="normal" in2="BackgroundImageFix" result="effect1_dropShadow"/>
<feColorMatrix in="SourceAlpha" type="matrix" values="0 0 0 0 0 0 0 0 0 0 0 0 0 0 0 0 0 0 127 0"/>
<feOffset dx="13" dy="2"/>
<feGaussianBlur stdDeviation="3"/>
<feColorMatrix type="matrix" values="0 0 0 0 0.121569 0 0 0 0 0.247059 0 0 0 0 0.682353 0 0 0 0.02 0"/>
<feBlend mode="normal" in2="effect1_dropShadow" result="effect2_dropShadow"/>
<feColorMatrix in="SourceAlpha" type="matrix" values="0 0 0 0 0 0 0 0 0 0 0 0 0 0 0 0 0 0 127 0"/>
<feOffset dx="10" dy="10"/>
<feGaussianBlur stdDeviation="10"/>
<feColorMatrix type="matrix" values="0 0 0 0 0.121569 0 0 0 0 0.247059 0 0 0 0 0.682353 0 0 0 0.02 0"/>
<feBlend mode="normal" in2="effect2_dropShadow" result="effect3_dropShadow"/>
<feBlend mode="normal" in="SourceGraphic" in2="effect3_dropShadow" result="shape"/>
</filter>
<filter id="filter2_ddd" x="1750.67" y="101.83" width="239" height="146.826" filterUnits="userSpaceOnUse" color-interpolation-filters="sRGB">
<feFlood flood-opacity="0" result="BackgroundImageFix"/>
<feColorMatrix in="SourceAlpha" type="matrix" values="0 0 0 0 0 0 0 0 0 0 0 0 0 0 0 0 0 0 127 0"/>
<feOffset dx="7"/>
<feGaussianBlur stdDeviation="25"/>
<feColorMatrix type="matrix" values="0 0 0 0 0.121569 0 0 0 0 0.247059 0 0 0 0 0.682353 0 0 0 0.02 0"/>
<feBlend mode="normal" in2="BackgroundImageFix" result="effect1_dropShadow"/>
<feColorMatrix in="SourceAlpha" type="matrix" values="0 0 0 0 0 0 0 0 0 0 0 0 0 0 0 0 0 0 127 0"/>
<feOffset dx="13" dy="2"/>
<feGaussianBlur stdDeviation="3"/>
<feColorMatrix type="matrix" values="0 0 0 0 0.121569 0 0 0 0 0.247059 0 0 0 0 0.682353 0 0 0 0.02 0"/>
<feBlend mode="normal" in2="effect1_dropShadow" result="effect2_dropShadow"/>
<feColorMatrix in="SourceAlpha" type="matrix" values="0 0 0 0 0 0 0 0 0 0 0 0 0 0 0 0 0 0 127 0"/>
<feOffset dx="10" dy="10"/>
<feGaussianBlur stdDeviation="10"/>
<feColorMatrix type="matrix" values="0 0 0 0 0.121569 0 0 0 0 0.247059 0 0 0 0 0.682353 0 0 0 0.02 0"/>
<feBlend mode="normal" in2="effect2_dropShadow" result="effect3_dropShadow"/>
<feBlend mode="normal" in="SourceGraphic" in2="effect3_dropShadow" result="shape"/>
</filter>
<linearGradient id="paint0_linear" x1="1290.15" y1="747.478" x2="1290.15" y2="994.65" gradientUnits="userSpaceOnUse">
<stop stop-color="#8CA8FF"/>
<stop offset="0.807292" stop-color="#345BD8"/>
</linearGradient>
<linearGradient id="paint1_linear" x1="2334" y1="47.8183" x2="1361.06" y2="142.396" gradientUnits="userSpaceOnUse">
<stop stop-color="#9ED1FF"/>
<stop offset="1" stop-color="#BDE3FB" stop-opacity="0"/>
</linearGradient>
<linearGradient id="paint2_linear" x1="2328.43" y1="82.2395" x2="2539.86" y2="-12.2682" gradientUnits="userSpaceOnUse">
<stop stop-color="white"/>
<stop offset="1" stop-color="white" stop-opacity="0"/>
</linearGradient>
<linearGradient id="paint3_linear" x1="1388.47" y1="338.252" x2="1458.11" y2="372.426" gradientUnits="userSpaceOnUse">
<stop stop-color="#002490"/>
<stop offset="1" stop-color="#021859"/>
</linearGradient>
<linearGradient id="paint4_linear" x1="1447.95" y1="343.158" x2="1737.04" y2="610.922" gradientUnits="userSpaceOnUse">
<stop stop-color="#FFC74E"/>
<stop offset="0.962919" stop-color="#B71C22"/>
</linearGradient>
<linearGradient id="paint5_linear" x1="1445.04" y1="367.59" x2="1750.92" y2="635.845" gradientUnits="userSpaceOnUse">
<stop stop-color="#8C0002"/>
<stop offset="0.962919" stop-color="#B71C22"/>
</linearGradient>
<linearGradient id="paint6_linear" x1="1355" y1="423" x2="1397" y2="374" gradientUnits="userSpaceOnUse">
<stop stop-color="#B71C22"/>
<stop offset="1" stop-color="#FFC74E"/>
</linearGradient>
<linearGradient id="paint7_linear" x1="1356.68" y1="368.114" x2="1430.74" y2="377.286" gradientUnits="userSpaceOnUse">
<stop stop-color="#8C0002"/>
<stop offset="0.962919" stop-color="#B71C22"/>
</linearGradient>
<linearGradient id="paint8_linear" x1="1298.16" y1="322.82" x2="1298.16" y2="1040.41" gradientUnits="userSpaceOnUse">
<stop stop-color="#4166DB"/>
<stop offset="1" stop-color="#2F53CB"/>
</linearGradient>
<radialGradient id="paint9_radial" cx="0" cy="0" r="1" gradientUnits="userSpaceOnUse" gradientTransform="translate(1639.8 598.063) rotate(159.473) scale(448.85 614.228)">
<stop stop-color="white" stop-opacity="0.8"/>
<stop offset="1" stop-color="white" stop-opacity="0"/>
</radialGradient>
<linearGradient id="paint10_linear" x1="1093.8" y1="889.627" x2="1314.58" y2="793.381" gradientUnits="userSpaceOnUse">
<stop stop-color="#3256CE"/>
<stop offset="1" stop-color="#5073DF"/>
</linearGradient>
<linearGradient id="paint11_linear" x1="181.337" y1="520.672" x2="76.0358" y2="521.777" gradientUnits="userSpaceOnUse">
<stop stop-color="#FBFBFD"/>
<stop offset="1" stop-color="#EDF5FF"/>
</linearGradient>
</defs>
</svg>
