<svg width="414" height="1002" viewBox="0 0 414 1002" fill="none" xmlns="http://www.w3.org/2000/svg">
<g clip-path="url(#clip0)">
<path d="M973 0H-643V992H973V0Z" fill="#EFF6FF"/>
<g opacity="0.9">
<path opacity="0.9" d="M81.9435 872.211C280.252 742.516 294.742 780.078 420.645 812.241V971.216L-335.036 981.84C-336.97 983.439 -338.861 985.034 -340.707 986.624C-340.707 986.624 -348.07 984.94 -360.718 982.201L-1098 992.566V977.884C-1098 977.884 -1053.5 920.338 -947.763 887.949C-842.028 855.56 -765.647 944.464 -669.697 938.891C-590.803 934.309 -419.224 969.533 -360.718 982.201L-335.036 981.84C-275.296 932.461 -174.428 880.123 -80.8932 901.453C24.4558 925.476 35.2046 902.779 81.9435 872.211Z" fill="url(#paint0_linear)"/>
<path opacity="0.9" d="M-508.771 961.479C-481.075 966.006 -453.915 970.993 -429.831 975.672L-1090.5 984.96V980.591C-1090.41 980.488 -1090.32 980.381 -1090.22 980.27C-1088.9 978.746 -1086.85 976.488 -1084.06 973.655C-1078.46 967.988 -1069.87 960.024 -1058 951.041C-1034.29 933.082 -997.509 911.032 -945.566 895.12C-895.303 879.723 -851.874 892.956 -807.813 910.341C-802.145 912.577 -796.451 914.892 -790.722 917.222C-752.523 932.752 -712.792 948.907 -669.262 946.379C-630.749 944.142 -568.897 951.653 -508.771 961.479ZM375.921 807.447C387.242 810.845 399.531 814.459 413.145 818.044V963.821L-312.811 974.027C-286.056 954.355 -253.368 935.374 -218.011 922.156C-174.517 905.895 -127.463 898.526 -82.5607 908.765C-29.5511 920.853 1.04469 921.553 24.6538 914.489C36.4672 910.954 46.1678 905.584 55.7101 899.326C60.1166 896.436 64.5581 893.309 69.1281 890.092L70.1644 889.363C75.1339 885.866 80.3226 882.233 86.0486 878.488C185.218 813.63 236.939 791.678 278.921 789.014C299.815 787.689 318.718 791.119 340.529 797.042C349.369 799.442 358.576 802.219 368.587 805.239C370.984 805.962 373.426 806.699 375.921 807.447Z" stroke="#A5BBF5" stroke-opacity="0.15" stroke-width="15"/>
</g>
<path d="M441.939 112.954C319.162 111.728 285.535 39.7606 273.08 0H972.505V363.365C798.344 392.189 701.999 336.381 676.986 226.605C620.168 243.776 584.347 212.806 574.466 180.916C521.6 201.276 455.196 157.205 441.939 112.954Z" fill="url(#paint1_linear)"/>
<path opacity="0.9" d="M480.549 944.118C588.493 997.822 669.293 868.718 669.293 814.278V990.451H44.9016C32.4657 992.309 19.77 992.068 6.99869 990.451H-340.707C-340.707 990.451 -246.966 934.556 -132.71 951.732C-91.9335 957.862 -41.9131 984.257 6.99869 990.451H44.9016C62.3383 987.847 79.2642 981.118 95.1711 968.281C165.871 911.221 288.965 848.8 480.549 944.118Z" fill="#4166DB"/>
<path opacity="0.2" d="M752.515 491.323C567.778 556.073 454.249 491.323 411.64 421.164H972.642V671.94C958.203 563.976 878.765 447.073 752.515 491.323Z" fill="url(#paint2_linear)"/>
<path d="M417.801 648.032L493.287 720.284C497.381 724.203 499.621 729.674 499.449 735.339L498.478 767.335L399.453 707.683L389.924 643.287L417.801 648.032Z" fill="#D6EEFD"/>
<path d="M419.624 630.547C429.28 630.547 437.108 638.375 437.108 648.032H417.802C409.555 648.032 402.869 654.692 402.869 662.907V754.137H315.8V662.907C315.8 654.692 309.114 648.032 300.867 648.032H280.494C280.494 638.375 288.322 630.547 297.979 630.547H419.624Z" fill="white"/>
<path d="M383.565 658.586H390.71C392.84 658.586 394.567 660.314 394.567 662.444C394.567 664.574 392.84 666.302 390.71 666.302H383.565C381.435 666.302 379.708 664.574 379.708 662.444C379.708 660.314 381.435 658.586 383.565 658.586Z" fill="#021859"/>
<path d="M363.874 658.586H371.018C373.149 658.586 374.876 660.313 374.876 662.443C374.876 664.574 373.149 666.301 371.018 666.301H363.874C361.743 666.301 360.016 664.574 360.016 662.443C360.016 660.313 361.743 658.586 363.874 658.586Z" fill="#021859"/>
<path d="M344.183 658.586H351.328C353.458 658.586 355.186 660.313 355.186 662.443C355.186 664.574 353.458 666.301 351.328 666.301H344.183C342.053 666.301 340.326 664.574 340.326 662.443C340.326 660.313 342.053 658.586 344.183 658.586Z" fill="#021859"/>
<path d="M324.492 658.586H331.637C333.767 658.586 335.494 660.313 335.494 662.443C335.494 664.574 333.767 666.301 331.637 666.301H324.492C322.361 666.301 320.634 664.574 320.634 662.443C320.634 660.313 322.362 658.586 324.492 658.586Z" fill="#021859"/>
<path d="M383.565 674.156H390.71C392.84 674.156 394.567 675.883 394.567 678.014C394.567 680.144 392.84 681.871 390.71 681.871H383.565C381.435 681.871 379.708 680.144 379.708 678.014C379.708 675.883 381.435 674.156 383.565 674.156Z" fill="#021859"/>
<path d="M363.874 674.155H371.018C373.149 674.155 374.876 675.882 374.876 678.013C374.876 680.143 373.149 681.87 371.018 681.87H363.874C361.743 681.87 360.016 680.143 360.016 678.013C360.016 675.882 361.743 674.155 363.874 674.155Z" fill="#021859"/>
<path d="M344.183 674.155H351.328C353.458 674.155 355.186 675.882 355.186 678.013C355.186 680.143 353.458 681.87 351.328 681.87H344.183C342.053 681.87 340.326 680.143 340.326 678.013C340.326 675.882 342.053 674.155 344.183 674.155Z" fill="#021859"/>
<path d="M324.492 674.155H331.637C333.767 674.155 335.494 675.882 335.494 678.013C335.494 680.143 333.767 681.87 331.637 681.87H324.492C322.361 681.87 320.634 680.143 320.634 678.013C320.634 675.882 322.362 674.155 324.492 674.155Z" fill="#021859"/>
<path d="M322.626 623.721H399.21C402.98 623.721 406.036 626.777 406.036 630.547H315.8C315.8 626.777 318.856 623.721 322.626 623.721Z" fill="white"/>
<path d="M320.828 612.35H401.415V623.721H320.828V612.35Z" fill="#021859"/>
<path d="M382.023 612.35H397.826V623.721H382.023V612.35Z" fill="#DBE7FF"/>
<path d="M362.774 612.35H378.577V623.721H362.774V612.35Z" fill="#DBE7FF"/>
<path d="M343.526 612.35H359.329V623.721H343.526V612.35Z" fill="#DBE7FF"/>
<path d="M324.278 612.35H340.081V623.721H324.278V612.35Z" fill="#DBE7FF"/>
<path d="M323.873 604.938H398.395C401 604.938 403.112 607.049 403.112 609.654C403.112 612.259 401 614.371 398.395 614.371H323.873C321.268 614.371 319.156 612.259 319.156 609.654C319.156 607.049 321.268 604.938 323.873 604.938Z" fill="#021859"/>
<path d="M320.703 603.009H401.598C404.178 603.009 406.269 605.1 406.269 607.679C406.269 610.259 404.178 612.35 401.598 612.35H320.703C318.123 612.35 316.032 610.259 316.032 607.679C316.032 605.1 318.123 603.009 320.703 603.009Z" fill="white"/>
<path d="M245.012 678.079C244.645 664.099 244.342 650.123 243.7 636.063C243.588 634.831 243.475 633.558 243.332 632.274C252.035 635.192 393.032 683.168 506.915 767.185C511.94 770.892 514.844 776.792 514.844 783.036V793.708C479 770.457 441.508 749.577 402.431 730.39C352.015 705.726 299.253 689.535 245.012 678.079Z" fill="url(#paint3_linear)"/>
<path d="M244.707 666.264L244.572 661.166C253.478 664.151 399.685 695.403 514.843 783.098V787.252C420.893 716.638 298.949 677.72 244.707 666.264Z" fill="url(#paint4_linear)"/>
<path d="M246.431 715.576C245.715 703.031 245.338 690.553 245.011 678.079C299.253 689.535 352.015 705.726 402.43 730.391C441.507 749.578 478.999 770.457 514.843 793.708V812.245H242.905C242.905 812.245 242.787 811.47 242.541 810.026C243.443 805.582 244.168 801.112 244.61 796.602C246.734 769.392 247.949 742.786 246.431 715.576Z" fill="url(#paint5_linear)"/>
<path d="M244.707 666.301C244.808 670.206 244.907 674.109 245.009 678.013C230.548 684.186 218.91 694.506 209.27 706.691C207.608 703.444 205.871 700.232 204.061 697.071C214.543 683.51 228.89 673.168 244.707 666.301Z" fill="#002490"/>
<path d="M202.833 694.977C200.561 691.205 200.047 686.604 201.914 682.616C206.845 672.078 219.078 650.431 242.906 632.132C242.906 632.132 243.051 632.18 243.332 632.274C243.475 633.558 243.588 634.831 243.7 636.063C244.09 644.601 244.352 653.106 244.582 661.602C227.473 667.671 214.714 681.193 202.833 694.977Z" fill="#002490"/>
<path d="M244.572 661.166C244.615 662.733 244.668 664.735 244.708 666.301C228.89 673.167 215.773 685.604 205.291 699.164C204.486 697.757 203.667 696.362 202.833 694.977C213.811 680.353 227.008 667.405 244.572 661.166Z" fill="url(#paint6_linear)"/>
<path d="M245.01 678.013C245.337 690.509 245.715 703.009 246.431 715.577C247.949 742.786 246.735 769.392 244.61 796.602C244.169 801.112 243.443 805.581 242.542 810.026C240.679 799.121 231.416 749.95 209.271 706.691C218.911 694.505 230.549 684.186 245.01 678.013Z" fill="url(#paint7_linear)"/>
<path d="M416.444 762.721C414.686 762.721 413.261 761.301 413.261 759.55C413.261 757.799 414.686 756.379 416.444 756.379C418.202 756.379 419.627 757.799 419.627 759.55C419.627 761.301 418.202 762.721 416.444 762.721Z" fill="white" stroke="#002490" stroke-width="3.0909" stroke-miterlimit="10"/>
<path d="M394.384 755.134C392.447 755.134 390.877 753.57 390.877 751.64C390.877 749.711 392.447 748.147 394.384 748.147C396.321 748.147 397.891 749.711 397.891 751.64C397.891 753.57 396.321 755.134 394.384 755.134Z" fill="white" stroke="#002490" stroke-width="3.2727" stroke-miterlimit="10"/>
<path d="M371.18 747.9C369.064 747.9 367.349 746.192 367.349 744.085C367.349 741.977 369.064 740.269 371.18 740.269C373.295 740.269 375.01 741.977 375.01 744.085C375.01 746.192 373.295 747.9 371.18 747.9Z" fill="white" stroke="#002490" stroke-width="3.4545" stroke-miterlimit="10"/>
<path d="M347.28 741.31C344.985 741.31 343.126 739.457 343.126 737.172C343.126 734.887 344.985 733.034 347.28 733.034C349.574 733.034 351.434 734.887 351.434 737.172C351.434 739.457 349.574 741.31 347.28 741.31Z" fill="white" stroke="#002490" stroke-width="3.6364" stroke-miterlimit="10"/>
<path d="M323.134 735.655C320.661 735.655 318.656 733.658 318.656 731.194C318.656 728.731 320.661 726.734 323.134 726.734C325.607 726.734 327.611 728.731 327.611 731.194C327.611 733.658 325.607 735.655 323.134 735.655Z" fill="white" stroke="#002490" stroke-width="3.8182" stroke-miterlimit="10"/>
<path d="M299.188 731.222C296.536 731.222 294.387 729.081 294.387 726.439C294.387 723.798 296.536 721.656 299.188 721.656C301.84 721.656 303.989 723.798 303.989 726.439C303.989 729.081 301.84 731.222 299.188 731.222Z" fill="white" stroke="#002490" stroke-width="4" stroke-miterlimit="10"/>
<path d="M378.925 597.02V553.446C378.925 552.359 379.806 551.479 380.892 551.479C381.978 551.479 382.858 552.359 382.858 553.446V597.02C382.858 598.106 381.978 598.986 380.892 598.986C379.806 598.986 378.925 598.106 378.925 597.02Z" fill="#021859"/>
<path d="M367.842 597.02V570.097C367.842 569.011 368.723 568.131 369.809 568.131C370.895 568.131 371.775 569.011 371.775 570.097V597.02C371.775 598.106 370.895 598.986 369.809 598.986C368.723 598.986 367.842 598.106 367.842 597.02Z" fill="#021859"/>
<path d="M338.726 597.02V582.179C338.726 581.092 339.606 580.212 340.693 580.212C341.779 580.212 342.659 581.092 342.659 582.179V597.02C342.659 598.106 341.779 598.986 340.693 598.986C339.606 598.986 338.726 598.106 338.726 597.02Z" fill="#021859"/>
<path d="M355.981 598.986C352.179 598.986 349.098 595.917 349.098 592.13C349.098 588.343 352.179 585.273 355.981 585.273C359.783 585.273 362.864 588.343 362.864 592.13C362.864 595.917 359.783 598.986 355.981 598.986Z" fill="#021859"/>
<path d="M238.654 792.909C240.967 793.141 244.688 797.788 246.077 800.162L240.47 801.42L238.654 792.909Z" fill="#EAEAEA"/>
<path opacity="0.8" d="M238.356 791.725C240.669 791.956 244.502 796.536 245.891 798.909L240.284 800.167L238.356 791.725Z" fill="#EAEAEA"/>
<path opacity="0.9" d="M334.005 799.567C335.576 799.396 337.438 800.089 337.438 800.089L338.604 799.703C342.27 798.285 344.273 800.564 344.273 800.564L346.207 799.694C351.547 798.168 353.626 801.937 353.626 801.937C355.735 801.647 357.688 803.05 358.757 804.014C361.791 804.513 368.126 806.687 368.126 806.687L359.506 805.377L357.835 805.123L330.667 800.997C330.667 800.997 332.433 799.739 334.005 799.567Z" fill="white"/>
<path opacity="0.9" d="M251.816 793.348C251.816 793.348 258.877 783.724 265.706 786.396C265.706 786.396 271.258 775.142 282.596 782.246L286.62 785.838C286.62 785.838 291.617 779.341 299.304 785.407L301.764 787.127C301.764 787.127 306.037 785.668 309.446 786.866C312.856 788.065 316.408 792.835 316.408 792.835L251.883 795.027L251.816 793.348Z" fill="white"/>
<path d="M321.449 795.825C323.021 795.653 324.883 796.346 324.883 796.346L326.048 795.96C329.714 794.542 331.717 796.821 331.717 796.821L333.651 795.951C338.992 794.425 341.07 798.194 341.07 798.194C343.18 797.904 345.132 799.307 346.201 800.271C349.236 800.77 355.57 802.944 355.57 802.944L346.951 801.635L345.279 801.381L318.112 797.254C318.112 797.254 319.877 795.996 321.449 795.825Z" fill="white"/>
<path d="M244.543 797.124C244.543 797.124 251.603 787.499 258.433 790.171C258.433 790.171 263.985 778.917 275.323 786.021L279.346 789.614C279.346 789.614 284.343 783.116 292.03 789.183L294.49 790.903C294.49 790.903 298.764 789.443 302.173 790.642C305.582 791.84 309.134 796.611 309.134 796.611L244.61 798.803L244.543 797.124Z" fill="white"/>
<path d="M386.779 797.419C560.426 838.858 635.243 775.272 666.407 709.023C680.919 678.173 799.537 568.094 935.887 651.477C1072.24 734.86 1165.98 767.133 1237.31 709.023C1308.64 650.912 1427 679.464 1427 679.464V1001.33H-1098V960.778V865.937C-942.397 797.419 -930.719 921.933 -774.8 916.24C-618.881 910.547 -623.931 960.778 -534.925 960.778C-437.397 960.778 -348.431 921.933 -348.431 921.933C-348.431 921.933 -267.419 895.279 -162.632 916.24C-110.318 926.704 -71.8274 928.19 -11.8417 916.24C48.0417 904.31 202.006 753.325 386.779 797.419Z" fill="url(#paint8_linear)"/>
<path d="M-11.8417 916.24C48.0417 904.31 202.006 753.325 386.779 797.419C560.426 838.858 635.243 775.272 666.407 709.023C680.919 678.173 799.537 568.094 935.887 651.477C1072.24 734.86 1165.98 767.133 1237.31 709.023C1308.64 650.912 1427 679.464 1427 679.464V691.905L1414.37 688.898C1414.37 688.898 1311.48 660.661 1240.15 718.771C1168.82 776.882 1072.24 744.294 935.887 660.911C799.537 577.528 680.919 687.607 666.407 718.457C635.243 784.706 560.426 848.292 386.779 806.853C202.006 762.759 48.0417 913.744 -11.8417 925.674C-71.8274 937.624 -110.318 936.138 -162.632 925.674C-267.419 904.713 -348.431 931.367 -348.431 931.367C-348.431 931.367 -437.397 970.211 -534.925 970.211C-623.931 970.211 -618.881 919.98 -774.8 925.674C-930.719 931.367 -950.288 804.933 -1090.43 871.598L-1098 875.548V865.937C-942.397 797.419 -930.719 921.933 -774.8 916.24C-618.881 910.547 -623.931 960.778 -534.925 960.778C-437.397 960.778 -348.431 921.933 -348.431 921.933C-348.431 921.933 -267.419 895.279 -162.632 916.24C-110.318 926.704 -71.8274 928.19 -11.8417 916.24Z" fill="#A5BBF5" fill-opacity="0.15"/>
<path d="M-11.8417 916.24C48.0417 904.31 202.006 753.325 386.779 797.419C560.426 838.858 635.243 775.272 666.407 709.023C680.919 678.173 799.537 568.094 935.887 651.477C1072.24 734.86 1165.98 767.133 1237.31 709.023C1308.64 650.912 1427 679.464 1427 679.464V691.905L1414.37 688.898C1414.37 688.898 1311.48 660.661 1240.15 718.771C1168.82 776.882 1072.24 744.294 935.887 660.911C799.537 577.528 680.919 687.607 666.407 718.457C635.243 784.706 560.426 848.292 386.779 806.853C202.006 762.759 48.0417 913.744 -11.8417 925.674C-71.8274 937.624 -110.318 936.138 -162.632 925.674C-267.419 904.713 -348.431 931.367 -348.431 931.367C-348.431 931.367 -437.397 970.211 -534.925 970.211C-623.931 970.211 -618.881 919.98 -774.8 925.674C-930.719 931.367 -950.288 804.933 -1090.43 871.598L-1098 875.548V865.937C-942.397 797.419 -930.719 921.933 -774.8 916.24C-618.881 910.547 -623.931 960.778 -534.925 960.778C-437.397 960.778 -348.431 921.933 -348.431 921.933C-348.431 921.933 -267.419 895.279 -162.632 916.24C-110.318 926.704 -71.8274 928.19 -11.8417 916.24Z" fill="url(#paint9_radial)" fill-opacity="0.6"/>
<path opacity="0.34" d="M45 256.084C188.042 256.084 304 140.555 304 -1.95776C304 -144.47 188.042 -260 45 -260C-98.0417 -260 -214 -144.47 -214 -1.95776C-214 140.555 -98.0417 256.084 45 256.084Z" fill="white"/>
<path opacity="0.5" d="M45.3202 184.725C148.628 184.725 232.376 101.287 232.376 -1.63911C232.376 -104.565 148.628 -188.003 45.3202 -188.003C-57.988 -188.003 -141.736 -104.565 -141.736 -1.63911C-141.736 101.287 -57.988 184.725 45.3202 184.725Z" fill="white"/>
<path d="M45.0002 89.1535C95.5063 89.1535 136.45 48.3617 136.45 -1.95765C136.45 -52.277 95.5063 -93.0688 45.0002 -93.0688C-5.50591 -93.0688 -46.4492 -52.277 -46.4492 -1.95765C-46.4492 48.3617 -5.50591 89.1535 45.0002 89.1535Z" fill="#FFF5DE"/>
</g>
<defs>
<linearGradient id="paint0_linear" x1="170.905" y1="893.142" x2="170.905" y2="1049.17" gradientUnits="userSpaceOnUse">
<stop stop-color="#8CA8FF"/>
<stop offset="0.807292" stop-color="#345BD8"/>
</linearGradient>
<linearGradient id="paint1_linear" x1="829.837" y1="30.9004" x2="215.668" y2="90.6028" gradientUnits="userSpaceOnUse">
<stop stop-color="#9ED1FF"/>
<stop offset="1" stop-color="#BDE3FB" stop-opacity="0"/>
</linearGradient>
<linearGradient id="paint2_linear" x1="826.322" y1="473.21" x2="959.784" y2="413.552" gradientUnits="userSpaceOnUse">
<stop stop-color="white"/>
<stop offset="1" stop-color="white" stop-opacity="0"/>
</linearGradient>
<linearGradient id="paint3_linear" x1="232.971" y1="634.818" x2="276.934" y2="656.39" gradientUnits="userSpaceOnUse">
<stop stop-color="#002490"/>
<stop offset="1" stop-color="#021859"/>
</linearGradient>
<linearGradient id="paint4_linear" x1="270.517" y1="637.915" x2="453.007" y2="806.941" gradientUnits="userSpaceOnUse">
<stop stop-color="#FFC74E"/>
<stop offset="0.962919" stop-color="#B71C22"/>
</linearGradient>
<linearGradient id="paint5_linear" x1="268.681" y1="653.338" x2="461.77" y2="822.674" gradientUnits="userSpaceOnUse">
<stop stop-color="#8C0002"/>
<stop offset="0.962919" stop-color="#B71C22"/>
</linearGradient>
<linearGradient id="paint6_linear" x1="211.844" y1="688.315" x2="238.357" y2="657.384" gradientUnits="userSpaceOnUse">
<stop stop-color="#B71C22"/>
<stop offset="1" stop-color="#FFC74E"/>
</linearGradient>
<linearGradient id="paint7_linear" x1="212.903" y1="653.668" x2="259.653" y2="659.458" gradientUnits="userSpaceOnUse">
<stop stop-color="#8C0002"/>
<stop offset="0.962919" stop-color="#B71C22"/>
</linearGradient>
<linearGradient id="paint8_linear" x1="175.962" y1="625.077" x2="175.962" y2="1078.06" gradientUnits="userSpaceOnUse">
<stop stop-color="#4166DB"/>
<stop offset="1" stop-color="#2F53CB"/>
</linearGradient>
<radialGradient id="paint9_radial" cx="0" cy="0" r="1" gradientUnits="userSpaceOnUse" gradientTransform="translate(391.621 798.824) rotate(159.473) scale(283.337 387.731)">
<stop stop-color="white" stop-opacity="0.8"/>
<stop offset="1" stop-color="white" stop-opacity="0"/>
</radialGradient>
<clipPath id="clip0">
<rect width="414" height="1002" fill="white"/>
</clipPath>
</defs>
</svg>
