<svg width="375" height="649" viewBox="0 0 375 649" fill="none" xmlns="http://www.w3.org/2000/svg">
<rect x="-613" width="1558" height="602" fill="#EFF6FF"/>
<g opacity="0.9">
<path d="M128.043 537.694C219.337 477.766 226.008 495.122 283.968 509.983V609.595L-415.158 619.461V586.522C-415.158 586.522 -394.671 559.932 -345.995 544.966C-297.318 530 -262.155 571.08 -217.984 568.505C-173.812 565.93 -66.5291 590.561 -66.5291 590.561C-39.4264 567.135 8.62527 541.031 53.0792 551.206C101.578 562.306 106.526 551.818 128.043 537.694Z" fill="url(#paint0_linear)"/>
<path d="M-66.5291 590.561L-67.0168 592.685L-65.9398 592.932L-65.1039 592.21C-51.712 580.635 -33.1332 568.393 -12.439 560.313C8.26248 552.231 30.9268 548.371 52.5929 553.33C76.9399 558.903 90.7601 559.164 101.306 555.996C106.582 554.412 110.932 552.002 115.271 549.145C117.281 547.822 119.31 546.389 121.418 544.899L121.891 544.565C124.179 542.949 126.583 541.259 129.239 539.516C174.891 509.548 198.951 499.222 218.644 497.968C228.462 497.342 237.317 498.966 247.418 501.719C251.506 502.833 255.765 504.122 260.375 505.518C261.477 505.852 262.599 506.191 263.743 506.536C269.213 508.184 275.162 509.938 281.789 511.67V607.446L-412.979 617.25V587.297C-412.856 587.151 -412.709 586.977 -412.536 586.778C-411.909 586.054 -410.949 584.991 -409.642 583.662C-407.028 581.003 -403.024 577.282 -397.511 573.091C-386.487 564.712 -369.423 554.449 -345.354 547.049C-321.776 539.8 -301.428 546.066 -281.102 554.115C-278.473 555.157 -275.838 556.231 -273.195 557.309C-255.588 564.49 -237.588 571.831 -217.857 570.681C-196.072 569.411 -158.464 574.868 -126.079 580.712C-109.935 583.625 -95.1658 586.619 -84.4324 588.885C-79.0662 590.018 -74.7099 590.968 -71.6962 591.635C-70.1894 591.969 -69.0183 592.232 -68.2245 592.411C-67.8276 592.5 -67.5251 592.569 -67.3221 592.615L-67.0928 592.668L-67.0354 592.681L-67.0212 592.684L-67.0178 592.685C-67.0171 592.685 -67.0168 592.685 -66.5291 590.561Z" stroke="#A5BBF5" stroke-opacity="0.15" stroke-width="4.35905"/>
</g>
<path d="M305.568 426.189L355.225 473.895L354.472 498.776L294.446 462.483L288.669 423.302L305.568 426.189Z" fill="#D6EEFD"/>
<path d="M317.272 415.551V426.189H305.569C300.57 426.189 296.517 430.241 296.517 435.239V490.746H243.738V435.239C243.738 430.241 239.685 426.189 234.686 426.189H222.336V415.551C222.336 415.551 317.272 415.551 317.272 415.551Z" fill="white"/>
<path d="M282.478 432.61H291.485V437.304H282.478V432.61Z" fill="#073C4E"/>
<path d="M270.541 432.61H279.549V437.304H270.541V432.61Z" fill="#073C4E"/>
<path d="M258.605 432.61H267.612V437.304H258.605V432.61Z" fill="#073C4E"/>
<path d="M246.667 432.61H255.675V437.304H246.667V432.61Z" fill="#073C4E"/>
<path d="M282.478 442.083H291.485V446.777H282.478V442.083Z" fill="#073C4E"/>
<path d="M270.541 442.083H279.549V446.777H270.541V442.083Z" fill="#073C4E"/>
<path d="M258.605 442.083H267.612V446.777H258.605V442.083Z" fill="#073C4E"/>
<path d="M246.667 442.083H255.675V446.777H246.667V442.083Z" fill="#073C4E"/>
<path d="M219.452 415.551H321.63V426.189H219.452V415.551Z" fill="#D6EEFD"/>
<path d="M219.453 415.551H299.967V426.189H219.453V415.551Z" fill="white"/>
<path d="M243.737 398.796H298.437V404.479H243.737V398.796Z" fill="white"/>
<path d="M243.737 411.398H298.437V415.551H243.737V411.398Z" fill="white"/>
<path d="M246.784 404.479H295.635V411.398H246.784V404.479Z" fill="#073C4E"/>
<path d="M283.881 404.479H293.46V411.398H283.881V404.479Z" fill="#C8ECE8"/>
<path d="M272.212 404.479H281.791V411.398H272.212V404.479Z" fill="#C8ECE8"/>
<path d="M260.545 404.479H270.124V411.398H260.545V404.479Z" fill="#C8ECE8"/>
<path d="M248.877 404.479H258.456V411.398H248.877V404.479Z" fill="#C8ECE8"/>
<path d="M200.827 444.471C200.604 435.964 200.421 427.461 200.032 418.907C199.964 418.157 199.895 417.383 199.809 416.602C205.207 418.418 294.587 448.944 364.394 502.301V514.823C342.666 500.676 319.939 487.972 296.251 476.298C265.69 461.292 233.707 451.441 200.827 444.471Z" fill="#062431"/>
<path d="M200.642 437.282L200.56 434.18C205.959 435.997 294.586 455.011 364.393 508.367V510.895C307.442 467.931 233.522 444.252 200.642 437.282Z" fill="#B71C22"/>
<path d="M201.687 467.285C201.253 459.652 201.024 452.06 200.826 444.471C233.706 451.441 265.69 461.292 296.25 476.298C319.938 487.972 342.665 500.676 364.393 514.823V526.101H199.549C199.549 526.101 199.478 525.629 199.329 524.751C199.875 522.047 200.315 519.327 200.583 516.583C201.871 500.028 202.607 483.84 201.687 467.285Z" fill="#6D1415"/>
<path d="M200.642 437.305C200.704 439.68 200.763 442.055 200.825 444.43C192.059 448.186 185.005 454.465 179.161 461.879C178.154 459.903 177.101 457.949 176.004 456.026C182.357 447.775 191.054 441.482 200.642 437.305Z" fill="#073C4E"/>
<path d="M175.26 454.752C174.786 453.962 173.56 451.905 173.069 451.13C173.069 451.13 179.615 431.882 199.551 416.515C199.551 416.515 199.639 416.545 199.81 416.602C199.896 417.383 199.965 418.157 200.033 418.907C200.269 424.101 200.428 429.277 200.567 434.446C190.196 438.138 182.462 446.366 175.26 454.752Z" fill="#073C4E"/>
<path d="M200.56 434.18C200.586 435.133 200.618 436.352 200.643 437.304C191.054 441.482 183.103 449.049 176.749 457.299C176.261 456.443 175.764 455.594 175.259 454.752C181.913 445.854 189.913 437.976 200.56 434.18Z" fill="#B71C22"/>
<path d="M200.826 444.43C201.024 452.033 201.253 459.639 201.688 467.285C202.607 483.84 201.872 500.028 200.584 516.583C200.316 519.327 199.876 522.047 199.33 524.751C198.2 518.116 192.586 488.199 179.162 461.879C185.005 454.465 192.06 448.186 200.826 444.43Z" fill="#B71C22"/>
<path d="M355.227 518.326C354.812 518.326 354.475 517.99 354.475 517.574C354.475 517.159 354.812 516.822 355.227 516.822C355.643 516.822 355.979 517.159 355.979 517.574C355.979 517.99 355.643 518.326 355.227 518.326Z" fill="white" stroke="#305FC4" stroke-width="0.593049" stroke-miterlimit="10"/>
<path d="M351.714 516.117C351.191 516.117 350.766 515.693 350.766 515.169C350.766 514.645 351.191 514.221 351.714 514.221C352.238 514.221 352.663 514.645 352.663 515.169C352.663 515.693 352.238 516.117 351.714 516.117Z" fill="white" stroke="#305FC4" stroke-width="0.646957" stroke-miterlimit="10"/>
<path d="M345.879 513.067C345.246 513.067 344.734 512.554 344.734 511.922C344.734 511.29 345.246 510.777 345.879 510.777C346.511 510.777 347.023 511.29 347.023 511.922C347.023 512.554 346.511 513.067 345.879 513.067Z" fill="white" stroke="#305FC4" stroke-width="0.700866" stroke-miterlimit="10"/>
<path d="M337.994 509.35C337.253 509.35 336.653 508.75 336.653 508.009C336.653 507.269 337.253 506.669 337.994 506.669C338.735 506.669 339.335 507.269 339.335 508.009C339.335 508.75 338.735 509.35 337.994 509.35Z" fill="white" stroke="#305FC4" stroke-width="0.754803" stroke-miterlimit="10"/>
<path d="M328.328 505.145C327.479 505.145 326.791 504.456 326.791 503.608C326.791 502.759 327.479 502.071 328.328 502.071C329.177 502.071 329.865 502.759 329.865 503.608C329.865 504.456 329.177 505.145 328.328 505.145Z" fill="white" stroke="#305FC4" stroke-width="0.808712" stroke-miterlimit="10"/>
<path d="M317.156 500.625C316.199 500.625 315.423 499.849 315.423 498.892C315.423 497.935 316.199 497.159 317.156 497.159C318.114 497.159 318.89 497.935 318.89 498.892C318.89 499.849 318.114 500.625 317.156 500.625Z" fill="white" stroke="#305FC4" stroke-width="0.86262" stroke-miterlimit="10"/>
<path d="M304.747 495.969C303.682 495.969 302.818 495.106 302.818 494.04C302.818 492.975 303.682 492.111 304.747 492.111C305.813 492.111 306.677 492.975 306.677 494.04C306.677 495.106 305.813 495.969 304.747 495.969Z" fill="white" stroke="#305FC4" stroke-width="0.916528" stroke-miterlimit="10"/>
<path d="M291.375 491.353C290.201 491.353 289.25 490.401 289.25 489.228C289.25 488.054 290.201 487.102 291.375 487.102C292.549 487.102 293.501 488.054 293.501 489.228C293.501 490.401 292.549 491.353 291.375 491.353Z" fill="white" stroke="#305FC4" stroke-width="0.970436" stroke-miterlimit="10"/>
<path d="M277.31 486.952C276.028 486.952 274.988 485.913 274.988 484.63C274.988 483.348 276.028 482.309 277.31 482.309C278.592 482.309 279.632 483.348 279.632 484.63C279.632 485.913 278.592 486.952 277.31 486.952Z" fill="white" stroke="#305FC4" stroke-width="1.02434" stroke-miterlimit="10"/>
<path d="M262.822 482.943C261.431 482.943 260.304 481.815 260.304 480.425C260.304 479.034 261.431 477.907 262.822 477.907C264.212 477.907 265.34 479.034 265.34 480.425C265.34 481.815 264.212 482.943 262.822 482.943Z" fill="white" stroke="#305FC4" stroke-width="1.07828" stroke-miterlimit="10"/>
<path d="M248.184 479.502C246.685 479.502 245.47 478.286 245.47 476.788C245.47 475.289 246.685 474.074 248.184 474.074C249.683 474.074 250.898 475.289 250.898 476.788C250.898 478.286 249.683 479.502 248.184 479.502Z" fill="white" stroke="#305FC4" stroke-width="1.13219" stroke-miterlimit="10"/>
<path d="M233.669 476.805C232.061 476.805 230.758 475.502 230.758 473.895C230.758 472.287 232.061 470.985 233.669 470.985C235.276 470.985 236.579 472.287 236.579 473.895C236.579 475.502 235.276 476.805 233.669 476.805Z" fill="white" stroke="#305FC4" stroke-width="1.1861" stroke-miterlimit="10"/>
<path d="M352.839 484.591L303.603 449.592V443.558L352.839 482.555V484.591Z" fill="#073C4E"/>
<path d="M352.839 477.074V479.442L303.603 439.053V433.405L352.839 477.074Z" fill="#073C4E"/>
<path d="M350.72 473.472H351.417V487.582H350.72V473.472Z" fill="#D6EEFD"/>
<path d="M346.964 484.036L348.438 484.59V470.481L346.964 469.926V484.036Z" fill="#D6EEFD"/>
<path d="M342.001 479.592L343.867 480.804V466.694L342.001 465.483V479.592Z" fill="#D6EEFD"/>
<path d="M334.555 472.767L337.531 475.122V461.012L334.555 458.657V472.767Z" fill="#D6EEFD"/>
<path d="M325.244 465.845L328.221 468.2V454.09L325.244 451.735V465.845Z" fill="#D6EEFD"/>
<path d="M312.64 457.305L316.575 460.419V441.764L312.64 438.65V457.305Z" fill="#D6EEFD"/>
<path opacity="0.9" d="M403.172 524.631C403.172 550.299 365.217 611.17 314.511 585.849C224.516 540.908 166.693 570.338 133.483 597.241C100.272 624.144 57.6059 632.69 26.4373 627.987C-27.2337 619.889 -71.2676 646.243 -71.2676 646.243H403.172V524.631Z" fill="#4166DB"/>
<path d="M282.529 367.444H284.913V396.349H282.529V367.444Z" fill="#073C4E"/>
<path d="M275.809 377.575H278.193V396.348H275.809V377.575Z" fill="#073C4E"/>
<path d="M258.16 384.925H260.544V396.348H258.16V384.925Z" fill="#073C4E"/>
<path d="M268.62 396.349C266.316 396.349 264.448 394.481 264.448 392.177C264.448 389.873 266.316 388.005 268.62 388.005C270.925 388.005 272.793 389.873 272.793 392.177C272.793 394.481 270.925 396.349 268.62 396.349Z" fill="#073C4E"/>
<path d="M197.235 514.172C198.388 514.288 200.243 516.613 200.935 517.801L198.14 518.43L197.235 514.172Z" fill="#EAEAEA"/>
<path opacity="0.8" d="M197.087 513.58C198.24 513.696 200.15 515.987 200.843 517.174L198.048 517.804L197.087 513.58Z" fill="#EAEAEA"/>
<path opacity="0.9" d="M271.528 518.606C272.757 518.471 274.214 519.016 274.214 519.016L275.125 518.713C277.993 517.599 279.56 519.389 279.56 519.389L281.073 518.706C285.25 517.507 286.876 520.467 286.876 520.467C288.526 520.239 290.054 521.341 290.89 522.097C293.263 522.489 298.219 524.196 298.219 524.196L291.476 523.168L290.169 522.968L268.917 519.728C268.917 519.728 270.298 518.741 271.528 518.606Z" fill="white"/>
<path opacity="0.9" d="M207.236 517.179C207.236 517.179 212.759 509.623 218.101 511.721C218.101 511.721 222.444 502.884 231.313 508.462L234.461 511.283C234.461 511.283 238.369 506.181 244.383 510.945L246.307 512.295C246.307 512.295 249.65 511.149 252.317 512.09C254.984 513.031 257.762 516.776 257.762 516.776L207.288 518.497L207.236 517.179Z" fill="white"/>
<path d="M261.705 516.655C262.935 516.52 264.391 517.064 264.391 517.064L265.303 516.762C268.171 515.648 269.737 517.438 269.737 517.438L271.25 516.755C275.428 515.556 277.054 518.516 277.054 518.516C278.704 518.288 280.231 519.39 281.068 520.146C283.441 520.538 288.396 522.245 288.396 522.245L281.654 521.217L280.346 521.017L259.095 517.777C259.095 517.777 260.476 516.79 261.705 516.655Z" fill="white"/>
<path d="M200.379 517.15C200.379 517.15 205.902 509.593 211.245 511.691C211.245 511.691 215.587 502.855 224.457 508.433L227.604 511.253C227.604 511.253 231.513 506.152 237.526 510.915L239.451 512.265C239.451 512.265 242.793 511.119 245.46 512.061C248.127 513.002 250.906 516.747 250.906 516.747L200.432 518.468L200.379 517.15Z" fill="white"/>
<path d="M270.463 516.683C352.032 536.22 387.177 506.24 401.816 475.005C408.633 460.459 464.353 408.559 528.403 447.873C592.452 487.187 636.486 502.403 669.993 475.005C703.5 447.607 759.098 461.068 759.098 461.068V649H-427V593.704L-427 548.988C-353.907 516.683 -348.421 575.389 -275.179 572.705C-201.938 570.02 -204.31 593.704 -162.5 593.704C-116.687 593.704 -74.896 575.389 -74.896 575.389C-74.896 575.389 -36.8412 562.822 12.3819 572.705C36.956 577.638 55.0365 578.339 83.2143 572.705C111.344 567.08 183.667 495.893 270.463 516.683Z" fill="url(#paint1_linear)"/>
<path opacity="0.95" fill-rule="evenodd" clip-rule="evenodd" d="M166.751 571.177C158.1 572.997 159.931 580.479 159.931 580.479C165.529 578.224 178.044 571.466 192.84 563.803C192.84 563.803 190.503 562.483 188.531 562.576C186.558 562.668 184.787 564.257 184.787 564.257L183.161 563.899C177.918 562.435 176.979 566.675 176.979 566.675L174.136 565.702C166.839 564.46 166.751 571.177 166.751 571.177Z" fill="white"/>
<path opacity="0.5" fill-rule="evenodd" clip-rule="evenodd" d="M169.251 569.957C160.6 571.777 162.431 579.259 162.431 579.259C168.029 577.003 180.544 570.245 195.34 562.583C195.34 562.583 193.003 561.263 191.031 561.355C189.058 561.448 187.287 563.037 187.287 563.037L185.661 562.679C180.418 561.215 179.479 565.455 179.479 565.455L176.636 564.482C169.339 563.24 169.251 569.957 169.251 569.957Z" fill="white"/>
<path d="M83.2143 572.705C111.344 567.08 183.667 495.893 270.463 516.683C352.032 536.22 387.177 506.24 401.816 475.005C408.633 460.459 464.353 408.559 528.403 447.873C592.452 487.187 636.486 502.403 669.993 475.005C703.5 447.607 759.098 461.068 759.098 461.068V466.934L753.168 465.516C753.168 465.516 704.835 452.203 671.327 479.601C637.82 506.999 592.452 491.635 528.403 452.321C464.353 413.007 408.633 464.907 401.816 479.453C387.177 510.688 352.032 540.668 270.463 521.13C183.667 500.341 111.344 571.528 83.2143 577.153C55.0365 582.787 36.956 582.086 12.3819 577.153C-36.8412 567.27 -74.896 579.837 -74.896 579.837C-74.896 579.837 -116.687 598.151 -162.5 598.151C-204.31 598.151 -201.938 574.468 -275.179 577.153C-348.421 579.837 -357.613 520.225 -423.442 551.656L-427 553.519L-427 548.988C-353.907 516.683 -348.421 575.389 -275.179 572.705C-201.938 570.02 -204.31 593.704 -162.5 593.704C-116.687 593.704 -74.896 575.389 -74.896 575.389C-74.896 575.389 -36.8412 562.822 12.3819 572.705C36.956 577.638 55.0365 578.339 83.2143 572.705Z" fill="#A5BBF5" fill-opacity="0.15"/>
<path d="M83.2143 572.705C111.344 567.08 183.667 495.893 270.463 516.683C352.032 536.22 387.177 506.24 401.816 475.005C408.633 460.459 464.353 408.559 528.403 447.873C592.452 487.187 636.486 502.403 669.993 475.005C703.5 447.607 759.098 461.068 759.098 461.068V466.934L753.168 465.516C753.168 465.516 704.835 452.203 671.327 479.601C637.82 506.999 592.452 491.635 528.403 452.321C464.353 413.007 408.633 464.907 401.816 479.453C387.177 510.688 352.032 540.668 270.463 521.13C183.667 500.341 111.344 571.528 83.2143 577.153C55.0365 582.787 36.956 582.086 12.3819 577.153C-36.8412 567.27 -74.896 579.837 -74.896 579.837C-74.896 579.837 -116.687 598.151 -162.5 598.151C-204.31 598.151 -201.938 574.468 -275.179 577.153C-348.421 579.837 -357.613 520.225 -423.442 551.656L-427 553.519L-427 548.988C-353.907 516.683 -348.421 575.389 -275.179 572.705C-201.938 570.02 -204.31 593.704 -162.5 593.704C-116.687 593.704 -74.896 575.389 -74.896 575.389C-74.896 575.389 -36.8412 562.822 12.3819 572.705C36.956 577.638 55.0365 578.339 83.2143 572.705Z" fill="url(#paint2_radial)" fill-opacity="0.6"/>
<path opacity="0.95" fill-rule="evenodd" clip-rule="evenodd" d="M224.489 548.067C215.769 544.643 206.755 556.976 206.755 556.976L206.84 558.35C219.243 553.12 251.642 542.043 288.375 555.113C288.375 555.113 284.687 550.206 280.334 548.67C275.981 547.134 270.526 549.004 270.526 549.004L267.385 546.8C257.57 539.026 251.19 547.352 251.19 547.352L246.053 542.748C231.577 533.645 224.489 548.067 224.489 548.067Z" fill="white"/>
<path opacity="0.3" fill-rule="evenodd" clip-rule="evenodd" d="M230.447 547.239C221.962 543.489 212.39 556.554 212.39 556.554C225.105 552.224 256.176 541.659 293.527 557.512C293.527 557.512 290.401 552.557 286.154 550.851C281.907 549.145 276.341 550.638 276.341 550.638L273.347 548.358C264.048 540.386 257.146 548.006 257.146 548.006L252.312 543.322C238.445 533.825 230.447 547.239 230.447 547.239Z" fill="white"/>
<path d="M416.81 494.511C416.81 494.511 353.739 585.93 303.114 560.851C232.873 526.056 192.36 568.669 106.552 603.678L109.317 607.705C193.44 572.895 233.846 531.432 303.41 565.892C354.036 590.97 417.107 499.552 417.107 499.552C417.107 499.552 450.563 460.327 480.512 460.327C510.461 460.327 526.326 469.857 570.656 508.809C614.986 547.761 630.85 508.364 677.405 521.898C723.959 535.431 754.353 503.026 754.353 503.026L759.097 498.602V491.758C759.097 491.758 723.663 530.39 677.108 516.857C630.554 503.323 614.69 542.72 570.359 503.768C526.029 464.816 510.165 455.286 480.216 455.286C450.267 455.286 416.81 494.511 416.81 494.511Z" fill="#5073DF"/>
<path d="M416.81 494.511C416.81 494.511 353.739 585.93 303.114 560.851C232.873 526.056 192.36 568.669 106.552 603.678L109.317 607.705C193.44 572.895 233.846 531.432 303.41 565.892C354.036 590.97 417.107 499.552 417.107 499.552C417.107 499.552 450.563 460.327 480.512 460.327C510.461 460.327 526.326 469.857 570.656 508.809C614.986 547.761 630.85 508.364 677.405 521.898C723.959 535.431 754.353 503.026 754.353 503.026L759.097 498.602V491.758C759.097 491.758 723.663 530.39 677.108 516.857C630.554 503.323 614.69 542.72 570.359 503.768C526.029 464.816 510.165 455.286 480.216 455.286C450.267 455.286 416.81 494.511 416.81 494.511Z" fill="url(#paint3_linear)"/>
<path opacity="0.3" d="M325.684 401.268C325.808 401.251 325.902 401.162 325.922 401.051C326.238 399.262 327.588 397.692 329.573 397.076L329.575 397.075C329.662 397.048 329.732 396.984 329.758 396.902C329.804 396.751 329.705 396.607 329.553 396.573C328.921 396.431 328.24 396.447 327.578 396.653C326.335 397.038 325.472 397.994 325.216 399.1C325.199 399.173 325.154 399.24 325.086 399.279C324.977 399.341 324.842 399.328 324.75 399.254C323.825 398.509 322.51 398.224 321.263 398.611C320.605 398.815 320.053 399.18 319.641 399.643C319.567 399.726 319.549 399.844 319.605 399.939C319.672 400.052 319.814 400.103 319.943 400.063C319.944 400.062 319.945 400.062 319.946 400.062C321.929 399.447 324.024 399.946 325.44 401.192C325.505 401.25 325.595 401.28 325.684 401.268Z" fill="black"/>
<path opacity="0.1" d="M336.12 406.704C335.725 406.488 335.261 406.369 334.768 406.382C333.84 406.406 333.044 406.89 332.626 407.592C332.591 407.649 332.527 407.686 332.456 407.688C332.385 407.689 332.319 407.656 332.281 407.601C331.822 406.921 330.997 406.479 330.069 406.503C329.576 406.515 329.121 406.658 328.739 406.894C328.665 406.94 328.633 407.025 328.66 407.103C328.687 407.182 328.766 407.234 328.855 407.232C328.856 407.232 328.857 407.232 328.858 407.232C330.335 407.194 331.641 407.932 332.32 409.046C332.356 409.106 332.426 409.142 332.5 409.14C332.574 409.138 332.641 409.099 332.674 409.037C333.284 407.889 334.544 407.086 336.022 407.047C336.023 407.047 336.023 407.047 336.024 407.047C336.113 407.045 336.19 406.989 336.212 406.909C336.234 406.83 336.197 406.746 336.12 406.704Z" fill="black"/>
<circle opacity="0.34" cx="-66.5292" cy="430.874" r="117.694" fill="white"/>
<circle opacity="0.5" cx="-66.3837" cy="431.02" r="85.0016" fill="white"/>
<rect x="172.152" y="585.794" width="13.3678" height="13.3678" rx="6.68388" stroke="url(#paint4_linear)" stroke-width="1.16241"/>
<g opacity="0.8">
<path d="M178.14 588.503C176.414 588.316 175.102 589.685 174.953 591.146C174.881 591.846 175.688 591.855 176.058 591.257C176.552 590.458 177.158 589.845 178.076 589.465C178.585 589.254 178.688 588.562 178.14 588.503Z" fill="white" fill-opacity="0.6"/>
<path d="M178.14 588.503C176.414 588.316 175.102 589.685 174.953 591.146C174.881 591.846 175.688 591.855 176.058 591.257C176.552 590.458 177.158 589.845 178.076 589.465C178.585 589.254 178.688 588.562 178.14 588.503Z" fill="url(#paint5_radial)"/>
</g>
<g opacity="0.9">
<path d="M180.906 596.328C181.729 596.148 182.338 595.466 182.458 594.76C182.536 594.298 182.013 594.322 181.775 594.726C181.549 595.109 181.261 595.434 180.869 595.676C180.498 595.905 180.48 596.421 180.906 596.328Z" fill="white" fill-opacity="0.6"/>
<path d="M180.906 596.328C181.729 596.148 182.338 595.466 182.458 594.76C182.536 594.298 182.013 594.322 181.775 594.726C181.549 595.109 181.261 595.434 180.869 595.676C180.498 595.905 180.48 596.421 180.906 596.328Z" fill="url(#paint6_radial)"/>
</g>
<path d="M126.32 53.2564C68.6465 52.6781 52.8505 18.7465 47 0H375.549V171.321C293.738 184.911 248.481 158.599 236.732 106.841C210.042 114.937 193.215 100.335 188.574 85.2992C163.74 94.8989 132.547 74.1197 126.32 53.2564Z" fill="url(#paint7_linear)"/>
<g filter="url(#filter0_ddd)">
<path d="M314.186 135.324C316.653 135.324 318.964 135.987 320.946 137.143C323.691 130.957 329.931 126.637 337.19 126.637C346.699 126.637 354.459 134.048 354.905 143.356C355.718 143.131 356.573 143.008 357.458 143.008C362.688 143.008 366.929 147.208 366.929 152.388C366.929 152.594 366.92 152.798 366.906 153H301.613C301.111 151.608 300.836 150.109 300.836 148.546C300.836 141.244 306.813 135.324 314.186 135.324Z" fill="white"/>
</g>
<g opacity="0.9" filter="url(#filter1_ddd)">
<path d="M245.492 74.7585C246.586 74.7585 247.611 75.0473 248.49 75.5501C249.708 72.8582 252.475 70.9781 255.695 70.9781C255.86 70.9781 256.023 70.9837 256.185 70.9933C258.226 67.4191 262.149 65 266.654 65C271.552 65 275.762 67.8597 277.613 71.9543C278.951 71.1895 280.51 70.7502 282.174 70.7502C287.149 70.7502 291.182 74.6689 291.182 79.503C291.182 80.5376 290.996 81.5301 290.657 82.4515H268.876H246.605H239.915C239.692 81.8457 239.57 81.1933 239.57 80.513C239.57 77.3349 242.221 74.7585 245.492 74.7585Z" fill="white"/>
</g>
<path opacity="0.2" d="M271.211 63.3539C184.433 93.8824 131.103 63.3539 111.088 30.2745L374.614 30.2745V148.512C367.832 97.6085 330.516 42.4906 271.211 63.3539Z" fill="url(#paint8_linear)"/>
<g filter="url(#filter2_ddd)">
<path d="M322.819 379.269C323.709 379.269 324.543 379.485 325.259 379.859C326.25 377.854 328.502 376.453 331.122 376.453C331.256 376.453 331.389 376.457 331.521 376.465C333.182 373.802 336.374 372 340.04 372C344.026 372 347.452 374.13 348.959 377.18C350.047 376.611 351.316 376.283 352.67 376.283C356.718 376.283 360 379.203 360 382.804C360 383.574 359.849 384.314 359.573 385H341.848H323.725H318.281C318.099 384.549 318 384.063 318 383.556C318 381.189 320.158 379.269 322.819 379.269Z" fill="url(#paint9_linear)"/>
</g>
<g filter="url(#filter3_ddd)">
<path d="M-24.9527 163.69C-22.7266 163.69 -20.6419 164.302 -18.8527 165.368C-16.3759 159.661 -10.7453 155.675 -4.1946 155.675C-3.85995 155.675 -3.52796 155.687 -3.19827 155.707C0.95462 148.129 8.93591 143 18.1008 143C28.0649 143 36.6293 149.063 40.3967 157.744C43.1182 156.123 46.2891 155.191 49.6752 155.191C59.7957 155.191 68 163.5 68 173.749C68 175.942 67.6231 178.047 66.9331 180H22.6211H-22.6872H-36.2985C-36.7522 178.716 -37 177.332 -37 175.89C-37.0001 169.152 -31.6062 163.69 -24.9527 163.69Z" fill="url(#paint10_linear)"/>
</g>
<defs>
<filter id="filter0_ddd" x="288.34" y="112.107" width="95.1532" height="55.4232" filterUnits="userSpaceOnUse" color-interpolation-filters="sRGB">
<feFlood flood-opacity="0" result="BackgroundImageFix"/>
<feColorMatrix in="SourceAlpha" type="matrix" values="0 0 0 0 0 0 0 0 0 0 0 0 0 0 0 0 0 0 127 0"/>
<feOffset dx="2.03422"/>
<feGaussianBlur stdDeviation="7.26509"/>
<feColorMatrix type="matrix" values="0 0 0 0 0.121569 0 0 0 0 0.247059 0 0 0 0 0.682353 0 0 0 0.02 0"/>
<feBlend mode="normal" in2="BackgroundImageFix" result="effect1_dropShadow"/>
<feColorMatrix in="SourceAlpha" type="matrix" values="0 0 0 0 0 0 0 0 0 0 0 0 0 0 0 0 0 0 127 0"/>
<feOffset dx="3.77785" dy="0.581207"/>
<feGaussianBlur stdDeviation="0.871811"/>
<feColorMatrix type="matrix" values="0 0 0 0 0.121569 0 0 0 0 0.247059 0 0 0 0 0.682353 0 0 0 0.02 0"/>
<feBlend mode="normal" in2="effect1_dropShadow" result="effect2_dropShadow"/>
<feColorMatrix in="SourceAlpha" type="matrix" values="0 0 0 0 0 0 0 0 0 0 0 0 0 0 0 0 0 0 127 0"/>
<feOffset dx="2.90604" dy="2.90604"/>
<feGaussianBlur stdDeviation="2.90604"/>
<feColorMatrix type="matrix" values="0 0 0 0 0.121569 0 0 0 0 0.247059 0 0 0 0 0.682353 0 0 0 0.02 0"/>
<feBlend mode="normal" in2="effect2_dropShadow" result="effect3_dropShadow"/>
<feBlend mode="normal" in="SourceGraphic" in2="effect3_dropShadow" result="shape"/>
</filter>
<filter id="filter1_ddd" x="227.074" y="50.4698" width="80.6722" height="46.5118" filterUnits="userSpaceOnUse" color-interpolation-filters="sRGB">
<feFlood flood-opacity="0" result="BackgroundImageFix"/>
<feColorMatrix in="SourceAlpha" type="matrix" values="0 0 0 0 0 0 0 0 0 0 0 0 0 0 0 0 0 0 127 0"/>
<feOffset dx="2.03422"/>
<feGaussianBlur stdDeviation="7.26509"/>
<feColorMatrix type="matrix" values="0 0 0 0 0.121569 0 0 0 0 0.247059 0 0 0 0 0.682353 0 0 0 0.02 0"/>
<feBlend mode="normal" in2="BackgroundImageFix" result="effect1_dropShadow"/>
<feColorMatrix in="SourceAlpha" type="matrix" values="0 0 0 0 0 0 0 0 0 0 0 0 0 0 0 0 0 0 127 0"/>
<feOffset dx="3.77785" dy="0.581207"/>
<feGaussianBlur stdDeviation="0.871811"/>
<feColorMatrix type="matrix" values="0 0 0 0 0.121569 0 0 0 0 0.247059 0 0 0 0 0.682353 0 0 0 0.02 0"/>
<feBlend mode="normal" in2="effect1_dropShadow" result="effect2_dropShadow"/>
<feColorMatrix in="SourceAlpha" type="matrix" values="0 0 0 0 0 0 0 0 0 0 0 0 0 0 0 0 0 0 127 0"/>
<feOffset dx="2.90604" dy="2.90604"/>
<feGaussianBlur stdDeviation="2.90604"/>
<feColorMatrix type="matrix" values="0 0 0 0 0.121569 0 0 0 0 0.247059 0 0 0 0 0.682353 0 0 0 0.02 0"/>
<feBlend mode="normal" in2="effect2_dropShadow" result="effect3_dropShadow"/>
<feBlend mode="normal" in="SourceGraphic" in2="effect3_dropShadow" result="shape"/>
</filter>
<filter id="filter2_ddd" x="305.504" y="357.47" width="71.0604" height="42.0604" filterUnits="userSpaceOnUse" color-interpolation-filters="sRGB">
<feFlood flood-opacity="0" result="BackgroundImageFix"/>
<feColorMatrix in="SourceAlpha" type="matrix" values="0 0 0 0 0 0 0 0 0 0 0 0 0 0 0 0 0 0 127 0"/>
<feOffset dx="2.03422"/>
<feGaussianBlur stdDeviation="7.26509"/>
<feColorMatrix type="matrix" values="0 0 0 0 0.121569 0 0 0 0 0.247059 0 0 0 0 0.682353 0 0 0 0.02 0"/>
<feBlend mode="normal" in2="BackgroundImageFix" result="effect1_dropShadow"/>
<feColorMatrix in="SourceAlpha" type="matrix" values="0 0 0 0 0 0 0 0 0 0 0 0 0 0 0 0 0 0 127 0"/>
<feOffset dx="3.77785" dy="0.581207"/>
<feGaussianBlur stdDeviation="0.871811"/>
<feColorMatrix type="matrix" values="0 0 0 0 0.121569 0 0 0 0 0.247059 0 0 0 0 0.682353 0 0 0 0.02 0"/>
<feBlend mode="normal" in2="effect1_dropShadow" result="effect2_dropShadow"/>
<feColorMatrix in="SourceAlpha" type="matrix" values="0 0 0 0 0 0 0 0 0 0 0 0 0 0 0 0 0 0 127 0"/>
<feOffset dx="2.90604" dy="2.90604"/>
<feGaussianBlur stdDeviation="2.90604"/>
<feColorMatrix type="matrix" values="0 0 0 0 0.121569 0 0 0 0 0.247059 0 0 0 0 0.682353 0 0 0 0.02 0"/>
<feBlend mode="normal" in2="effect2_dropShadow" result="effect3_dropShadow"/>
<feBlend mode="normal" in="SourceGraphic" in2="effect3_dropShadow" result="shape"/>
</filter>
<filter id="filter3_ddd" x="-49.496" y="128.47" width="134.06" height="66.0604" filterUnits="userSpaceOnUse" color-interpolation-filters="sRGB">
<feFlood flood-opacity="0" result="BackgroundImageFix"/>
<feColorMatrix in="SourceAlpha" type="matrix" values="0 0 0 0 0 0 0 0 0 0 0 0 0 0 0 0 0 0 127 0"/>
<feOffset dx="2.03422"/>
<feGaussianBlur stdDeviation="7.26509"/>
<feColorMatrix type="matrix" values="0 0 0 0 0.121569 0 0 0 0 0.247059 0 0 0 0 0.682353 0 0 0 0.02 0"/>
<feBlend mode="normal" in2="BackgroundImageFix" result="effect1_dropShadow"/>
<feColorMatrix in="SourceAlpha" type="matrix" values="0 0 0 0 0 0 0 0 0 0 0 0 0 0 0 0 0 0 127 0"/>
<feOffset dx="3.77785" dy="0.581207"/>
<feGaussianBlur stdDeviation="0.871811"/>
<feColorMatrix type="matrix" values="0 0 0 0 0.121569 0 0 0 0 0.247059 0 0 0 0 0.682353 0 0 0 0.02 0"/>
<feBlend mode="normal" in2="effect1_dropShadow" result="effect2_dropShadow"/>
<feColorMatrix in="SourceAlpha" type="matrix" values="0 0 0 0 0 0 0 0 0 0 0 0 0 0 0 0 0 0 127 0"/>
<feOffset dx="2.90604" dy="2.90604"/>
<feGaussianBlur stdDeviation="2.90604"/>
<feColorMatrix type="matrix" values="0 0 0 0 0.121569 0 0 0 0 0.247059 0 0 0 0 0.682353 0 0 0 0.02 0"/>
<feBlend mode="normal" in2="effect2_dropShadow" result="effect3_dropShadow"/>
<feBlend mode="normal" in="SourceGraphic" in2="effect3_dropShadow" result="shape"/>
</filter>
<linearGradient id="paint0_linear" x1="168.998" y1="547.365" x2="168.998" y2="619.461" gradientUnits="userSpaceOnUse">
<stop stop-color="#8CA8FF"/>
<stop offset="0.807292" stop-color="#345BD8"/>
</linearGradient>
<linearGradient id="paint1_linear" x1="171.434" y1="435.425" x2="171.434" y2="649" gradientUnits="userSpaceOnUse">
<stop stop-color="#4166DB"/>
<stop offset="1" stop-color="#2F53CB"/>
</linearGradient>
<radialGradient id="paint2_radial" cx="0" cy="0" r="1" gradientUnits="userSpaceOnUse" gradientTransform="translate(272.738 517.345) rotate(159.404) scale(133.156 182.726)">
<stop stop-color="white" stop-opacity="0.8"/>
<stop offset="1" stop-color="white" stop-opacity="0"/>
</radialGradient>
<linearGradient id="paint3_linear" x1="110.836" y1="604.121" x2="176.378" y2="575.654" gradientUnits="userSpaceOnUse">
<stop stop-color="#3256CE"/>
<stop offset="1" stop-color="#5073DF"/>
</linearGradient>
<linearGradient id="paint4_linear" x1="178.835" y1="585.213" x2="178.835" y2="599.743" gradientUnits="userSpaceOnUse">
<stop stop-color="#FDFEFF"/>
<stop offset="1" stop-color="#C8D5FF"/>
</linearGradient>
<radialGradient id="paint5_radial" cx="0" cy="0" r="1" gradientUnits="userSpaceOnUse" gradientTransform="translate(177.355 588.904) rotate(94.4565) scale(2.54143 2.81696)">
<stop stop-color="white"/>
<stop offset="1" stop-color="white" stop-opacity="0"/>
</radialGradient>
<radialGradient id="paint6_radial" cx="0" cy="0" r="1" gradientUnits="userSpaceOnUse" gradientTransform="translate(181.215 596.121) rotate(-91.1017) scale(1.52486 1.69017)">
<stop stop-color="white"/>
<stop offset="1" stop-color="white" stop-opacity="0"/>
</radialGradient>
<linearGradient id="paint7_linear" x1="352.445" y1="49.4155" x2="64.6453" y2="70.6954" gradientUnits="userSpaceOnUse">
<stop stop-color="#BDE3FB"/>
<stop offset="1" stop-color="#BDE3FB" stop-opacity="0"/>
</linearGradient>
<linearGradient id="paint8_linear" x1="305.881" y1="54.8137" x2="368.652" y2="26.8591" gradientUnits="userSpaceOnUse">
<stop stop-color="white"/>
<stop offset="1" stop-color="white" stop-opacity="0"/>
</linearGradient>
<linearGradient id="paint9_linear" x1="339" y1="383.745" x2="313.485" y2="384.045" gradientUnits="userSpaceOnUse">
<stop stop-color="#FBFBFD"/>
<stop offset="1" stop-color="#EDF5FF"/>
</linearGradient>
<linearGradient id="paint10_linear" x1="15.5" y1="176.428" x2="-48.2894" y2="177.086" gradientUnits="userSpaceOnUse">
<stop stop-color="#FBFBFD"/>
<stop offset="1" stop-color="#EDF5FF"/>
</linearGradient>
</defs>
</svg>
