<svg width="51" height="51" viewBox="0 0 51 51" fill="none" xmlns="http://www.w3.org/2000/svg">
<rect x="2.45117" y="2.47168" width="46" height="46" rx="23" stroke="url(#paint0_linear)" stroke-width="4"/>
<g opacity="0.8">
<path d="M23.0589 11.7909C17.1192 11.149 12.6046 15.8611 12.0915 20.8881C11.8458 23.2947 14.6211 23.3273 15.8939 21.27C17.5955 18.5197 19.6805 16.4106 22.839 15.1028C24.5926 14.3768 24.9459 11.9948 23.0589 11.7909Z" fill="white" fill-opacity="0.6"/>
<path d="M23.0589 11.7909C17.1192 11.149 12.6046 15.8611 12.0915 20.8881C11.8458 23.2947 14.6211 23.3273 15.8939 21.27C17.5955 18.5197 19.6805 16.4106 22.839 15.1028C24.5926 14.3768 24.9459 11.9948 23.0589 11.7909Z" fill="url(#paint1_radial)"/>
</g>
<g opacity="0.9">
<path d="M32.5742 38.7188C35.4071 38.0977 37.5001 35.7509 37.9136 33.3227C38.1843 31.7328 36.3813 31.8173 35.5635 33.2073C34.788 34.5256 33.7951 35.6427 32.4473 36.4752C31.1705 37.2637 31.1083 39.0402 32.5742 38.7188Z" fill="white" fill-opacity="0.6"/>
<path d="M32.5742 38.7188C35.4071 38.0977 37.5001 35.7509 37.9136 33.3227C38.1843 31.7328 36.3813 31.8173 35.5635 33.2073C34.788 34.5256 33.7951 35.6427 32.4473 36.4752C31.1705 37.2637 31.1083 39.0402 32.5742 38.7188Z" fill="url(#paint2_radial)"/>
</g>
<defs>
<linearGradient id="paint0_linear" x1="25.4512" y1="0.47168" x2="25.4512" y2="50.4717" gradientUnits="userSpaceOnUse">
<stop stop-color="#FDFEFF"/>
<stop offset="1" stop-color="#C8D5FF"/>
</linearGradient>
<radialGradient id="paint1_radial" cx="0" cy="0" r="1" gradientUnits="userSpaceOnUse" gradientTransform="translate(20.357 13.1726) rotate(94.4565) scale(8.74534 9.69347)">
<stop stop-color="white"/>
<stop offset="1" stop-color="white" stop-opacity="0"/>
</radialGradient>
<radialGradient id="paint2_radial" cx="0" cy="0" r="1" gradientUnits="userSpaceOnUse" gradientTransform="translate(33.6358 38.0048) rotate(-91.1017) scale(5.2472 5.81608)">
<stop stop-color="white"/>
<stop offset="1" stop-color="white" stop-opacity="0"/>
</radialGradient>
</defs>
</svg>
