<svg width="1000" height="1000" viewBox="0 0 1000 1000" fill="none" xmlns="http://www.w3.org/2000/svg">
<path opacity="0.25" d="M500 998.5C775.314 998.5 998.5 775.314 998.5 500C998.5 224.686 775.314 1.5 500 1.5C224.686 1.5 1.5 224.686 1.5 500C1.5 775.314 224.686 998.5 500 998.5Z" stroke="#4382FF" stroke-width="3"/>
<path opacity="0.25" d="M499.5 877.5C708.264 877.5 877.5 708.264 877.5 499.5C877.5 290.736 708.264 121.5 499.5 121.5C290.736 121.5 121.5 290.736 121.5 499.5C121.5 708.264 290.736 877.5 499.5 877.5Z" stroke="#4382FF" stroke-width="3"/>
<path opacity="0.25" d="M499.5 766.5C646.96 766.5 766.5 646.96 766.5 499.5C766.5 352.04 646.96 232.5 499.5 232.5C352.04 232.5 232.5 352.04 232.5 499.5C232.5 646.96 352.04 766.5 499.5 766.5Z" stroke="#4382FF" stroke-width="3"/>
<path opacity="0.25" d="M500 687.5C603.553 687.5 687.5 603.553 687.5 500C687.5 396.447 603.553 312.5 500 312.5C396.447 312.5 312.5 396.447 312.5 500C312.5 603.553 396.447 687.5 500 687.5Z" stroke="#4382FF" stroke-width="3"/>
<path opacity="0.25" d="M559 342C570.046 342 579 333.046 579 322C579 310.954 570.046 302 559 302C547.954 302 539 310.954 539 322C539 333.046 547.954 342 559 342Z" fill="#4382FF"/>
<path opacity="0.25" d="M669.5 41C675.299 41 680 36.299 680 30.5C680 24.701 675.299 20 669.5 20C663.701 20 659 24.701 659 30.5C659 36.299 663.701 41 669.5 41Z" fill="#4382FF"/>
<path opacity="0.25" d="M51.5 729C57.299 729 62 724.299 62 718.5C62 712.701 57.299 708 51.5 708C45.701 708 41 712.701 41 718.5C41 724.299 45.701 729 51.5 729Z" fill="#4382FF"/>
<path opacity="0.25" d="M878.5 839C884.299 839 889 834.299 889 828.5C889 822.701 884.299 818 878.5 818C872.701 818 868 822.701 868 828.5C868 834.299 872.701 839 878.5 839Z" fill="#4382FF"/>
<path opacity="0.25" d="M124 479C135.046 479 144 470.046 144 459C144 447.954 135.046 439 124 439C112.954 439 104 447.954 104 459C104 470.046 112.954 479 124 479Z" fill="#4382FF"/>
<path opacity="0.25" d="M123.5 469C129.299 469 134 464.299 134 458.5C134 452.701 129.299 448 123.5 448C117.701 448 113 452.701 113 458.5C113 464.299 117.701 469 123.5 469Z" fill="#4382FF"/>
<path opacity="0.25" d="M558.5 332C564.299 332 569 327.299 569 321.5C569 315.701 564.299 311 558.5 311C552.701 311 548 315.701 548 321.5C548 327.299 552.701 332 558.5 332Z" fill="#4382FF"/>
<path opacity="0.25" d="M339.5 168C345.299 168 350 163.299 350 157.5C350 151.701 345.299 147 339.5 147C333.701 147 329 151.701 329 157.5C329 163.299 333.701 168 339.5 168Z" fill="#4382FF"/>
<path opacity="0.25" d="M380.5 750C386.299 750 391 745.299 391 739.5C391 733.701 386.299 729 380.5 729C374.701 729 370 733.701 370 739.5C370 745.299 374.701 750 380.5 750Z" fill="#4382FF"/>
<path opacity="0.25" d="M211.5 103C217.299 103 222 98.299 222 92.5C222 86.701 217.299 82 211.5 82C205.701 82 201 86.701 201 92.5C201 98.299 205.701 103 211.5 103Z" fill="#4382FF"/>
<path d="M627.07 440.958C616.45 428.982 602.112 423 584.044 423C573.425 423 564.01 425.187 555.812 429.549C547.759 433.834 541.333 439.412 536.517 446.299V424.394H536.254H481.484H481.461V508.205C481.461 517.122 479.131 524.124 474.48 529.234C469.818 534.344 463.485 536.893 455.48 536.893C447.657 536.893 441.369 534.344 436.617 529.234C431.864 524.124 429.487 517.122 429.487 508.205V424.394H375V515.173C375 535.772 380.265 552.065 390.782 564.042C401.312 576.006 415.706 582 433.956 582C444.576 582 453.99 579.813 462.189 575.451C470.376 571.1 476.811 565.39 481.461 558.331V580.606H481.484H536.254H536.517V491.849C537.243 485.248 539.485 479.89 543.247 475.766C547.898 470.667 554.322 468.106 562.52 468.106C570.343 468.106 576.585 470.667 581.248 475.766C585.898 480.876 588.229 487.878 588.229 496.795V580.606H643V489.555C643 469.137 637.69 452.935 627.07 440.958Z" fill="url(#paint0_linear)"/>
<defs>
<linearGradient id="paint0_linear" x1="527" y1="368" x2="527" y2="554" gradientUnits="userSpaceOnUse">
<stop stop-color="#4382FF"/>
<stop offset="1" stop-color="#0433BF"/>
</linearGradient>
</defs>
</svg>
