<svg width="1085" height="1815" viewBox="0 0 1085 1815" fill="none" xmlns="http://www.w3.org/2000/svg">
<mask id="mask0" mask-type="alpha" maskUnits="userSpaceOnUse" x="0" y="0" width="1239" height="1815">
<path d="M12.0378 853.022C5.8529 907.549 9.87374 962.784 24.166 1016.19C-12.7555 972.358 0.696574 889.147 12.0378 853.022Z" fill="#C4C4C4"/>
<path d="M98.4738 1183.87C121.241 1212.35 147.921 1229.54 178.528 1249.26C188.452 1255.66 198.789 1262.32 209.54 1269.72C144.322 1255.97 108.322 1212.33 98.4738 1183.87Z" fill="#C4C4C4"/>
<path d="M359.911 1365.88C404.649 1381.81 455.619 1392.04 508.838 1400.29C471.027 1400.29 375.021 1381.69 359.911 1365.88Z" fill="#C4C4C4"/>
<path d="M786.559 260.963C749.133 260.963 604.479 395.172 570.197 398.739C590.492 388.297 666.538 260.963 786.559 260.963Z" fill="#C4C4C4"/>
<path d="M451.387 419.206C391.891 433.873 338.433 454.309 291.043 479.322C302.156 454.193 381.522 419.206 451.387 419.206Z" fill="#C4C4C4"/>
<path fill-rule="evenodd" clip-rule="evenodd" d="M786.559 260.963L677.762 1410.59C606.154 1380.4 531.777 1391.61 508.838 1400.29C455.619 1392.04 404.649 1381.81 359.911 1365.88C322.995 1327.25 242.949 1278.23 209.54 1269.72C198.789 1262.32 188.452 1255.66 178.528 1249.26C147.921 1229.54 121.241 1212.35 98.4738 1183.87C97.2092 1155.25 51.9102 1059.8 24.166 1016.19C9.87374 962.784 5.8529 907.549 12.0378 853.022C14.5921 848.378 18.6421 842.755 23.4604 836.065C43.0398 808.879 65.5037 767.342 71.4485 695.811C81.0046 627.316 136.229 585.099 164.3 569.551C209.512 554.503 270.864 524.954 291.043 479.322C338.433 454.309 391.891 433.873 451.387 419.206C479.429 420.996 542.449 419.408 570.197 398.739C604.479 395.172 749.133 260.963 786.559 260.963Z" fill="#C4C4C4"/>
<path d="M786.559 260.963L677.762 1410.59C718.854 1417.9 756.572 1440.54 786.559 1517.04C816.546 1593.54 894.115 1604.1 924.998 1630.39C975.141 1673.09 957 1764.87 1097 1754C1147.92 1750.05 1121.97 1814.87 1239 1814.87L1239 -0.00012207C1239 46.3932 1200.39 47.0925 1166.01 45.0361C1131.62 42.9797 1010.56 65.6849 963.313 141.278C916.068 216.87 858.346 260.963 786.559 260.963Z" fill="#C4C4C4"/>
</mask>
<g mask="url(#mask0)">
<path d="M-208.197 -157.859L-208.197 1938.22L1226.26 1931.62L1226.26 -157.859H-208.197Z" fill="white"/>
<path d="M-208.197 -157.859L-208.197 1938.22L1226.26 1931.62L1226.26 -157.859H-208.197Z" fill="url(#paint0_linear)"/>
</g>
<mask id="mask1" mask-type="alpha" maskUnits="userSpaceOnUse" x="80" y="50" width="1139" height="1631">
<path d="M90.6679 855.983C85.1868 905.969 88.7501 956.604 101.416 1005.57C68.6961 965.381 80.6173 889.1 90.6679 855.983Z" fill="#C4C4C4"/>
<path d="M167.267 1159.28C187.444 1185.38 211.087 1201.14 238.211 1219.22C247.006 1225.09 256.167 1231.19 265.694 1237.97C207.898 1225.37 175.995 1185.37 167.267 1159.28Z" fill="#C4C4C4"/>
<path d="M398.953 1326.13C438.599 1340.74 483.769 1350.11 530.931 1357.67C497.423 1357.67 412.343 1340.63 398.953 1326.13Z" fill="#C4C4C4"/>
<path d="M777.047 313.232C743.881 313.232 615.689 436.264 585.307 439.535C603.293 429.962 670.685 313.232 777.047 313.232Z" fill="#C4C4C4"/>
<path d="M480.019 458.297C427.293 471.742 379.919 490.476 337.922 513.406C347.77 490.37 418.104 458.297 480.019 458.297Z" fill="#C4C4C4"/>
<path fill-rule="evenodd" clip-rule="evenodd" d="M777.047 313.232L680.632 1367.12C617.173 1339.44 551.26 1349.71 530.931 1357.67C483.769 1350.11 438.599 1340.74 398.953 1326.13C366.237 1290.71 295.301 1245.78 265.694 1237.97C256.167 1231.19 247.006 1225.09 238.211 1219.22C211.087 1201.14 187.444 1185.38 167.267 1159.28C166.147 1133.04 126.003 1045.54 101.416 1005.57C88.7501 956.604 85.1868 905.969 90.6679 855.983C92.9315 851.726 96.5206 846.571 100.791 840.438C118.142 815.517 138.049 777.44 143.318 711.866C151.786 649.075 200.726 610.374 225.603 596.121C265.669 582.326 320.04 555.238 337.922 513.406C379.919 490.476 427.293 471.742 480.019 458.297C504.869 459.938 560.718 458.482 585.307 439.535C615.689 436.264 743.881 313.232 777.047 313.232Z" fill="#C4C4C4"/>
<path d="M777.047 313.232L680.632 1367.12C717.047 1373.82 750.473 1394.57 777.047 1464.7C803.622 1534.83 878.953 1526.15 913.906 1534.83C956.836 1545.48 1041.94 1555.15 1096.8 1564.71C1141.43 1572.48 1114.97 1680.64 1218.69 1680.64L1218.69 50.7201C1218.69 93.2496 1184.47 93.8906 1154 92.0055C1123.53 90.1204 975.554 134.218 933.686 203.515C891.818 272.812 840.665 313.232 777.047 313.232Z" fill="#C4C4C4"/>
</mask>
<g mask="url(#mask1)">
<path d="M-105 -87.9961L-105 1868L1231 1861.85L1231 -87.9961H-105Z" fill="white"/>
<path d="M-105 -87.9961L-105 1868L1231 1861.85L1231 -87.9961H-105Z" fill="url(#paint1_linear)"/>
</g>
<mask id="mask2" mask-type="alpha" maskUnits="userSpaceOnUse" x="125" y="73" width="1106" height="1631">
<path d="M135.746 855.98C130.225 905.966 133.814 956.601 146.572 1005.56C113.614 965.378 125.622 889.097 135.746 855.98Z" fill="#C4C4C4"/>
<path d="M212.903 1159.27C233.227 1185.38 257.042 1201.14 284.364 1219.22C293.223 1225.08 302.45 1231.19 312.047 1237.97C253.83 1225.37 221.694 1185.37 212.903 1159.27Z" fill="#C4C4C4"/>
<path d="M446.277 1326.13C486.212 1340.73 531.71 1350.11 579.217 1357.67C545.465 1357.67 459.765 1340.62 446.277 1326.13Z" fill="#C4C4C4"/>
<path d="M827.126 313.228C793.718 313.228 664.592 436.26 633.989 439.531C652.106 429.958 719.989 313.228 827.126 313.228Z" fill="#C4C4C4"/>
<path d="M527.933 458.293C474.824 471.738 427.104 490.473 384.801 513.403C394.721 490.367 465.567 458.293 527.933 458.293Z" fill="#C4C4C4"/>
<path fill-rule="evenodd" clip-rule="evenodd" d="M827.126 313.228L730.008 1367.12C666.087 1339.44 599.694 1349.71 579.217 1357.67C531.71 1350.11 486.212 1340.73 446.277 1326.13C413.323 1290.71 341.87 1245.78 312.047 1237.97C302.45 1231.19 293.223 1225.08 284.364 1219.22C257.042 1201.14 233.227 1185.38 212.903 1159.27C211.774 1133.04 171.338 1045.54 146.572 1005.56C133.814 956.601 130.225 905.966 135.746 855.98C138.026 851.723 141.641 846.568 145.942 840.435C163.42 815.513 183.472 777.436 188.779 711.862C197.309 649.072 246.606 610.37 271.664 596.118C312.022 582.322 366.789 555.235 384.801 513.403C427.104 490.473 474.824 471.738 527.933 458.293C552.965 459.934 609.22 458.478 633.989 439.531C664.592 436.26 793.718 313.228 827.126 313.228Z" fill="#C4C4C4"/>
<path d="M827.126 313.228L730.008 1367.12C766.689 1373.82 800.358 1394.57 827.126 1464.7C853.894 1534.82 929.774 1526.15 964.982 1534.82C1008.22 1545.48 1052.97 1578.43 1108.22 1587.99C1153.18 1595.76 1126.53 1703.93 1231 1703.93L1231 73.9989C1231 116.529 1196.54 117.17 1165.84 115.284C1135.15 113.399 1027.08 134.214 984.906 203.511C942.733 272.808 891.207 313.228 827.126 313.228Z" fill="#C4C4C4"/>
</mask>
<g mask="url(#mask2)">
<path d="M-60.8589 -88.3149L-60.8589 1868.5L1219.69 1862.34L1219.69 -88.3149H-60.8589Z" fill="white"/>
<path d="M-60.8589 -88.3149L-60.8589 1868.5L1219.69 1862.34L1219.69 -88.3149H-60.8589Z" fill="url(#paint2_linear)"/>
</g>
<mask id="mask3" mask-type="alpha" maskUnits="userSpaceOnUse" x="168" y="139" width="1071" height="1592">
<path d="M310.013 621.167C280.764 630.517 241.602 667.698 245 726.507C248.334 784.205 205.201 823.443 188.278 846.42L188.277 846.421C184.113 852.075 180.613 856.827 178.405 860.752C168.602 891.285 156.975 961.613 188.888 998.663C212.869 1035.52 243.907 1091.82 245 1116.01C253.512 1140.06 266 1219.01 349.116 1212.94C377.993 1220.14 464.091 1277.35 496 1310.01C513.594 1326.61 548.443 1338.38 607.814 1323.3C627.642 1315.96 715.068 1323.15 776.961 1348.66C813.461 1363.71 847.862 1452.41 847.862 1509.56C847.862 1566.71 946.144 1570.96 981 1576.6C1012.95 1581.77 1034.87 1641.63 1027.07 1653.65C999.815 1695.64 1137.77 1730.12 1238.93 1730.12L1238.93 139.79C1238.93 179.001 1238.93 191.007 1175.84 177.854C1115.5 165.275 1037.61 154.007 1000.64 259.196C963.664 364.384 935.5 360.352 847.862 360.352C725.849 342.623 690.043 474.181 672.5 483.007C648.517 500.476 562.738 497.52 538.5 496.007C467.032 490.217 435.983 525.557 419.563 544.906C392.5 621.167 339.262 611.817 310.013 621.167Z" fill="#C4C4C4"/>
</mask>
<g mask="url(#mask3)">
<path d="M-11.9639 -9.85876L-11.9639 1794.27L1224.43 1788.59L1224.43 -9.85876H-11.9639Z" fill="white"/>
</g>
<mask id="mask4" mask-type="alpha" maskUnits="userSpaceOnUse" x="204" y="173" width="1027" height="1594">
<path d="M213.977 864.348C208.851 908.54 212.184 953.306 224.03 996.593C193.428 961.065 204.577 893.626 213.977 864.348Z" fill="#C4C4C4"/>
<path d="M285.619 1132.49C304.489 1155.57 326.602 1169.5 351.97 1185.49C360.196 1190.67 368.764 1196.07 377.674 1202.06C323.62 1190.92 293.781 1155.56 285.619 1132.49Z" fill="#C4C4C4"/>
<path d="M502.308 1280C539.388 1292.91 581.634 1301.2 625.744 1307.89C568.812 1322.35 519.179 1295.92 502.308 1280Z" fill="#C4C4C4"/>
<path d="M855.93 384.507C824.91 384.507 705.015 493.278 676.6 496.17C693.422 487.706 738.93 367.507 855.93 384.507Z" fill="#C4C4C4"/>
<path d="M578.127 512.757C528.814 524.644 484.506 541.207 445.228 561.479C460.972 542.925 509.595 507.205 578.127 512.757Z" fill="#C4C4C4"/>
<path fill-rule="evenodd" clip-rule="evenodd" d="M855.93 384.507L765.754 1316.24C706.404 1291.77 644.757 1300.85 625.744 1307.89C581.634 1301.2 539.388 1292.91 502.308 1280C471.71 1248.69 405.365 1208.97 377.674 1202.06C368.764 1196.07 360.196 1190.67 351.97 1185.49C326.602 1169.5 304.489 1155.57 285.619 1132.49C284.571 1109.29 247.025 1031.94 224.03 996.593C212.184 953.306 208.851 908.54 213.977 864.348C216.095 860.584 219.451 856.027 223.445 850.605C239.673 828.572 266.416 792.263 263.219 736.935C259.961 680.542 316.912 647.207 340.178 634.606C368.226 625.64 428.503 598.462 445.228 561.479C484.506 541.207 528.814 524.644 578.127 512.757C601.369 514.208 653.603 512.921 676.6 496.17C705.015 493.278 824.91 384.507 855.93 384.507Z" fill="#C4C4C4"/>
<path d="M855.93 384.507L765.754 1316.24C799.813 1322.16 855.93 1347.71 855.93 1402.51C855.93 1457.31 859.922 1528.33 919.089 1542.37C959.136 1551.88 1034.43 1558.68 1043.43 1605.68C1043.58 1606.44 1043.74 1607.23 1043.92 1608.04C1048.28 1627.49 1062.53 1658.59 1084.63 1688.15C1115.21 1729.04 1160.84 1766.97 1216.18 1766.97L1230.93 173.007C1230.93 210.607 1198.93 211.173 1170.43 209.507C1111.43 206.056 1031.43 205.007 1002.43 287.507C973.43 370.007 915.43 384.507 855.93 384.507Z" fill="#C4C4C4"/>
<path d="M1084.63 1688.15C1062.53 1658.59 1048.28 1627.49 1043.92 1608.04C1047.7 1626.51 1052.94 1660.52 1047 1665.61L1084.63 1688.15Z" fill="#C4C4C4"/>
</mask>
<g mask="url(#mask4)">
<path d="M41.4297 29.5068L41.4297 1759.51L1224.5 1754.06L1224.5 29.5068H41.4297Z" fill="url(#paint3_linear)"/>
</g>
<path d="M144.339 891.695C145.842 867.895 132.196 799.717 116.093 811.923C70.5496 846.446 289.098 817.416 336.943 811.923" stroke="white" stroke-width="1.51475" stroke-dasharray="3.79 3.79"/>
<path d="M361.028 1156.18C351.043 1224.41 241.907 1272.26 191.395 1214.79C143.421 1160.2 257.849 1098.35 209.14 1029.54" stroke="white" stroke-width="1.51475" stroke-dasharray="3.79 3.79"/>
<path d="M147.047 857.595V864.432H145.503V857.595C145.503 857.379 145.677 857.204 145.892 857.204H146.658C146.873 857.204 147.047 857.379 147.047 857.595Z" fill="#425669"/>
<path d="M144.303 859.95V864.432H142.759V859.95C142.759 859.735 142.933 859.56 143.148 859.56H143.914C144.128 859.56 144.303 859.735 144.303 859.95Z" fill="#425669"/>
<path d="M141.55 861.444V864.432H140.006V861.444C140.006 861.229 140.18 861.054 140.395 861.054H141.161C141.376 861.054 141.55 861.229 141.55 861.444Z" fill="#425669"/>
<path d="M149.448 864.177V869.211C149.448 869.332 149.341 869.439 149.22 869.439H137.725C137.604 869.439 137.497 869.332 137.497 869.211V864.177C137.497 863.733 137.846 863.383 138.289 863.383H148.656C149.099 863.383 149.448 863.733 149.448 864.177Z" fill="#E5E7EB"/>
<path d="M149.448 864.352H137.497V864.984H149.448V864.352Z" fill="#78A0C5"/>
<path d="M147.501 866.344V868.066H145.957V866.357C145.957 866.142 146.132 865.967 146.346 865.967H147.112C147.327 865.953 147.501 866.128 147.501 866.344Z" fill="#B0B3B5"/>
<path d="M144.251 866.344V868.066H142.707V866.357C142.707 866.142 142.882 865.967 143.096 865.967H143.862C144.077 865.953 144.251 866.128 144.251 866.344Z" fill="#B0B3B5"/>
<path d="M140.99 866.344V868.066H139.445V866.357C139.445 866.142 139.62 865.967 139.835 865.967H140.6C140.815 865.953 140.99 866.128 140.99 866.344Z" fill="#B0B3B5"/>
<path d="M131.692 885.846H125.717C125.408 885.846 125.166 885.591 125.166 885.295V882.172C125.166 881.862 125.421 881.62 125.717 881.62H131.692C132.001 881.62 132.243 881.876 132.243 882.172V885.295C132.243 885.591 132.001 885.846 131.692 885.846Z" fill="#EACB30"/>
<path d="M130.628 885.294C130.508 885.294 130.414 885.2 130.414 885.079V882.36C130.414 882.239 130.508 882.145 130.628 882.145C130.749 882.145 130.843 882.239 130.843 882.36V885.079C130.843 885.2 130.749 885.294 130.628 885.294Z" fill="#BCA327"/>
<path d="M129.664 885.294C129.543 885.294 129.449 885.2 129.449 885.079V882.36C129.449 882.239 129.543 882.145 129.664 882.145C129.784 882.145 129.878 882.239 129.878 882.36V885.079C129.878 885.2 129.784 885.294 129.664 885.294Z" fill="#BCA327"/>
<path d="M128.71 885.294C128.59 885.294 128.496 885.2 128.496 885.079V882.36C128.496 882.239 128.59 882.145 128.71 882.145C128.831 882.145 128.925 882.239 128.925 882.36V885.079C128.912 885.2 128.818 885.294 128.71 885.294Z" fill="#BCA327"/>
<path d="M127.744 885.294C127.623 885.294 127.529 885.2 127.529 885.079V882.36C127.529 882.239 127.623 882.145 127.744 882.145C127.865 882.145 127.959 882.239 127.959 882.36V885.079C127.959 885.2 127.865 885.294 127.744 885.294Z" fill="#BCA327"/>
<path d="M126.793 885.294C126.673 885.294 126.579 885.2 126.579 885.079V882.36C126.579 882.239 126.673 882.145 126.793 882.145C126.914 882.145 127.008 882.239 127.008 882.36V885.079C126.995 885.2 126.901 885.294 126.793 885.294Z" fill="#BCA327"/>
<path d="M139.011 885.846H133.035C132.727 885.846 132.485 885.591 132.485 885.295V882.172C132.485 881.862 132.74 881.62 133.035 881.62H139.011C139.32 881.62 139.562 881.876 139.562 882.172V885.295C139.575 885.591 139.32 885.846 139.011 885.846Z" fill="#D25956"/>
<path d="M137.95 885.294C137.829 885.294 137.735 885.2 137.735 885.079V882.36C137.735 882.239 137.829 882.145 137.95 882.145C138.071 882.145 138.165 882.239 138.165 882.36V885.079C138.165 885.2 138.071 885.294 137.95 885.294Z" fill="#B84E4C"/>
<path d="M136.997 885.294C136.876 885.294 136.782 885.2 136.782 885.079V882.36C136.782 882.239 136.876 882.145 136.997 882.145C137.118 882.145 137.212 882.239 137.212 882.36V885.079C137.198 885.2 137.104 885.294 136.997 885.294Z" fill="#B84E4C"/>
<path d="M136.032 885.294C135.911 885.294 135.817 885.2 135.817 885.079V882.36C135.817 882.239 135.911 882.145 136.032 882.145C136.153 882.145 136.247 882.239 136.247 882.36V885.079C136.247 885.2 136.153 885.294 136.032 885.294Z" fill="#B84E4C"/>
<path d="M135.079 885.294C134.958 885.294 134.864 885.2 134.864 885.079V882.36C134.864 882.239 134.958 882.145 135.079 882.145C135.2 882.145 135.294 882.239 135.294 882.36V885.079C135.281 885.2 135.187 885.294 135.079 885.294Z" fill="#B84E4C"/>
<path d="M134.109 885.294C133.989 885.294 133.895 885.2 133.895 885.079V882.36C133.895 882.239 133.989 882.145 134.109 882.145C134.23 882.145 134.324 882.239 134.324 882.36V885.079C134.324 885.2 134.23 885.294 134.109 885.294Z" fill="#B84E4C"/>
<path d="M135.33 881.607H129.355C129.046 881.607 128.804 881.351 128.804 881.055V877.932C128.804 877.623 129.059 877.38 129.355 877.38H135.33C135.639 877.38 135.881 877.636 135.881 877.932V881.055C135.881 881.351 135.626 881.607 135.33 881.607Z" fill="#C9CACE"/>
<path d="M134.259 881.055C134.138 881.055 134.044 880.961 134.044 880.839V878.121C134.044 877.999 134.138 877.905 134.259 877.905C134.38 877.905 134.474 877.999 134.474 878.121V880.839C134.474 880.961 134.38 881.055 134.259 881.055Z" fill="#AFAFB2"/>
<path d="M133.305 881.055C133.184 881.055 133.09 880.961 133.09 880.839V878.121C133.09 877.999 133.184 877.905 133.305 877.905C133.426 877.905 133.52 877.999 133.52 878.121V880.839C133.506 880.961 133.412 881.055 133.305 881.055Z" fill="#AFAFB2"/>
<path d="M132.336 881.055C132.216 881.055 132.122 880.961 132.122 880.839V878.121C132.122 877.999 132.216 877.905 132.336 877.905C132.457 877.905 132.551 877.999 132.551 878.121V880.839C132.551 880.961 132.457 881.055 132.336 881.055Z" fill="#AFAFB2"/>
<path d="M131.383 881.055C131.262 881.055 131.168 880.961 131.168 880.839V878.121C131.168 877.999 131.262 877.905 131.383 877.905C131.504 877.905 131.598 877.999 131.598 878.121V880.839C131.585 880.961 131.491 881.055 131.383 881.055Z" fill="#AFAFB2"/>
<path d="M130.415 881.055C130.294 881.055 130.2 880.961 130.2 880.839V878.121C130.2 877.999 130.294 877.905 130.415 877.905C130.536 877.905 130.63 877.999 130.63 878.121V880.839C130.63 880.961 130.536 881.055 130.415 881.055Z" fill="#AFAFB2"/>
<path d="M139.011 877.367H133.035C132.727 877.367 132.485 877.111 132.485 876.815V873.692C132.485 873.383 132.74 873.14 133.035 873.14H139.011C139.32 873.14 139.562 873.396 139.562 873.692V876.815C139.575 877.111 139.32 877.367 139.011 877.367Z" fill="#78A0C5"/>
<path d="M137.95 876.815C137.829 876.815 137.735 876.721 137.735 876.6V873.881C137.735 873.76 137.829 873.666 137.95 873.666C138.071 873.666 138.165 873.76 138.165 873.881V876.6C138.165 876.721 138.071 876.815 137.95 876.815Z" fill="#6D90B1"/>
<path d="M136.997 876.815C136.876 876.815 136.782 876.721 136.782 876.6V873.881C136.782 873.76 136.876 873.666 136.997 873.666C137.118 873.666 137.212 873.76 137.212 873.881V876.6C137.198 876.721 137.104 876.815 136.997 876.815Z" fill="#6D90B1"/>
<path d="M136.032 876.815C135.911 876.815 135.817 876.721 135.817 876.6V873.881C135.817 873.76 135.911 873.666 136.032 873.666C136.153 873.666 136.247 873.76 136.247 873.881V876.6C136.247 876.721 136.153 876.815 136.032 876.815Z" fill="#6D90B1"/>
<path d="M135.079 876.815C134.958 876.815 134.864 876.721 134.864 876.6V873.881C134.864 873.76 134.958 873.666 135.079 873.666C135.2 873.666 135.294 873.76 135.294 873.881V876.6C135.281 876.721 135.187 876.815 135.079 876.815Z" fill="#6D90B1"/>
<path d="M134.109 876.815C133.989 876.815 133.895 876.721 133.895 876.6V873.881C133.895 873.76 133.989 873.666 134.109 873.666C134.23 873.666 134.324 873.76 134.324 873.881V876.6C134.324 876.721 134.23 876.815 134.109 876.815Z" fill="#6D90B1"/>
<path d="M146.249 877.367H140.273C139.964 877.367 139.723 877.111 139.723 876.815V873.692C139.723 873.383 139.978 873.14 140.273 873.14H146.249C146.558 873.14 146.799 873.396 146.799 873.692V876.815C146.799 877.111 146.558 877.367 146.249 877.367Z" fill="#EDB939"/>
<path d="M145.191 876.815C145.07 876.815 144.976 876.721 144.976 876.6V873.881C144.976 873.76 145.07 873.666 145.191 873.666C145.312 873.666 145.406 873.76 145.406 873.881V876.6C145.392 876.721 145.298 876.815 145.191 876.815Z" fill="#CFA233"/>
<path d="M144.224 876.815C144.103 876.815 144.009 876.721 144.009 876.6V873.881C144.009 873.76 144.103 873.666 144.224 873.666C144.344 873.666 144.438 873.76 144.438 873.881V876.6C144.438 876.721 144.344 876.815 144.224 876.815Z" fill="#CFA233"/>
<path d="M143.268 876.815C143.147 876.815 143.053 876.721 143.053 876.6V873.881C143.053 873.76 143.147 873.666 143.268 873.666C143.388 873.666 143.482 873.76 143.482 873.881V876.6C143.469 876.721 143.375 876.815 143.268 876.815Z" fill="#CFA233"/>
<path d="M142.303 876.815C142.182 876.815 142.088 876.721 142.088 876.6V873.881C142.088 873.76 142.182 873.666 142.303 873.666C142.424 873.666 142.518 873.76 142.518 873.881V876.6C142.518 876.721 142.424 876.815 142.303 876.815Z" fill="#CFA233"/>
<path d="M141.348 876.815C141.227 876.815 141.133 876.721 141.133 876.6V873.881C141.133 873.76 141.227 873.666 141.348 873.666C141.469 873.666 141.563 873.76 141.563 873.881V876.6C141.55 876.721 141.456 876.815 141.348 876.815Z" fill="#CFA233"/>
<path d="M143.04 873.127H137.064C136.755 873.127 136.514 872.871 136.514 872.575V869.452C136.514 869.143 136.769 868.901 137.064 868.901H143.04C143.349 868.901 143.59 869.156 143.59 869.452V872.575C143.59 872.871 143.349 873.127 143.04 873.127Z" fill="#C9CACE"/>
<path d="M141.98 872.575C141.859 872.575 141.765 872.481 141.765 872.36V869.641C141.765 869.52 141.859 869.426 141.98 869.426C142.101 869.426 142.195 869.52 142.195 869.641V872.36C142.181 872.481 142.087 872.575 141.98 872.575Z" fill="#AFAFB2"/>
<path d="M141.009 872.575C140.888 872.575 140.794 872.481 140.794 872.36V869.641C140.794 869.52 140.888 869.426 141.009 869.426C141.13 869.426 141.224 869.52 141.224 869.641V872.36C141.224 872.481 141.13 872.575 141.009 872.575Z" fill="#AFAFB2"/>
<path d="M140.059 872.575C139.938 872.575 139.844 872.481 139.844 872.36V869.641C139.844 869.52 139.938 869.426 140.059 869.426C140.179 869.426 140.273 869.52 140.273 869.641V872.36C140.26 872.481 140.166 872.575 140.059 872.575Z" fill="#AFAFB2"/>
<path d="M139.09 872.575C138.969 872.575 138.875 872.481 138.875 872.36V869.641C138.875 869.52 138.969 869.426 139.09 869.426C139.211 869.426 139.305 869.52 139.305 869.641V872.36C139.305 872.481 139.211 872.575 139.09 872.575Z" fill="#AFAFB2"/>
<path d="M138.141 872.575C138.02 872.575 137.926 872.481 137.926 872.36V869.641C137.926 869.52 138.02 869.426 138.141 869.426C138.261 869.426 138.355 869.52 138.355 869.641V872.36C138.342 872.481 138.248 872.575 138.141 872.575Z" fill="#AFAFB2"/>
<path d="M150.116 873.127H144.141C143.832 873.127 143.59 872.871 143.59 872.575V869.452C143.59 869.143 143.845 868.901 144.141 868.901H150.116C150.425 868.901 150.667 869.156 150.667 869.452V872.575C150.68 872.871 150.425 873.127 150.116 873.127Z" fill="#D25956"/>
<path d="M149.056 872.575C148.935 872.575 148.841 872.481 148.841 872.36V869.641C148.841 869.52 148.935 869.426 149.056 869.426C149.177 869.426 149.271 869.52 149.271 869.641V872.36C149.271 872.481 149.177 872.575 149.056 872.575Z" fill="#B84E4C"/>
<path d="M148.088 872.575C147.967 872.575 147.873 872.481 147.873 872.36V869.641C147.873 869.52 147.967 869.426 148.088 869.426C148.209 869.426 148.303 869.52 148.303 869.641V872.36C148.303 872.481 148.209 872.575 148.088 872.575Z" fill="#B84E4C"/>
<path d="M147.134 872.575C147.013 872.575 146.919 872.481 146.919 872.36V869.641C146.919 869.52 147.013 869.426 147.134 869.426C147.255 869.426 147.349 869.52 147.349 869.641V872.36C147.349 872.481 147.255 872.575 147.134 872.575Z" fill="#B84E4C"/>
<path d="M146.168 872.575C146.047 872.575 145.953 872.481 145.953 872.36V869.641C145.953 869.52 146.047 869.426 146.168 869.426C146.289 869.426 146.383 869.52 146.383 869.641V872.36C146.383 872.481 146.289 872.575 146.168 872.575Z" fill="#B84E4C"/>
<path d="M145.216 872.575C145.095 872.575 145.001 872.481 145.001 872.36V869.641C145.001 869.52 145.095 869.426 145.216 869.426C145.337 869.426 145.431 869.52 145.431 869.641V872.36C145.431 872.481 145.337 872.575 145.216 872.575Z" fill="#B84E4C"/>
<path d="M153.472 877.367H147.497C147.188 877.367 146.946 877.111 146.946 876.815V873.692C146.946 873.383 147.201 873.14 147.497 873.14H153.472C153.781 873.14 154.023 873.396 154.023 873.692V876.815C154.036 877.111 153.781 877.367 153.472 877.367Z" fill="#78A0C5"/>
<path d="M152.41 876.815C152.289 876.815 152.195 876.721 152.195 876.6V873.881C152.195 873.76 152.289 873.666 152.41 873.666C152.531 873.666 152.625 873.76 152.625 873.881V876.6C152.625 876.721 152.531 876.815 152.41 876.815Z" fill="#6D90B1"/>
<path d="M151.458 876.815C151.337 876.815 151.243 876.721 151.243 876.6V873.881C151.243 873.76 151.337 873.666 151.458 873.666C151.578 873.666 151.672 873.76 151.672 873.881V876.6C151.659 876.721 151.565 876.815 151.458 876.815Z" fill="#6D90B1"/>
<path d="M150.49 876.815C150.369 876.815 150.275 876.721 150.275 876.6V873.881C150.275 873.76 150.369 873.666 150.49 873.666C150.611 873.666 150.705 873.76 150.705 873.881V876.6C150.705 876.721 150.611 876.815 150.49 876.815Z" fill="#6D90B1"/>
<path d="M149.538 876.815C149.417 876.815 149.323 876.721 149.323 876.6V873.881C149.323 873.76 149.417 873.666 149.538 873.666C149.659 873.666 149.753 873.76 149.753 873.881V876.6C149.74 876.721 149.646 876.815 149.538 876.815Z" fill="#6D90B1"/>
<path d="M148.573 876.815C148.452 876.815 148.358 876.721 148.358 876.6V873.881C148.358 873.76 148.452 873.666 148.573 873.666C148.694 873.666 148.788 873.76 148.788 873.881V876.6C148.788 876.721 148.694 876.815 148.573 876.815Z" fill="#6D90B1"/>
<path d="M142.556 881.607H136.58C136.271 881.607 136.03 881.351 136.03 881.055V877.932C136.03 877.623 136.285 877.38 136.58 877.38H142.556C142.865 877.38 143.106 877.636 143.106 877.932V881.055C143.106 881.351 142.865 881.607 142.556 881.607Z" fill="#EACB30"/>
<path d="M141.495 881.055C141.374 881.055 141.28 880.961 141.28 880.839V878.121C141.28 877.999 141.374 877.905 141.495 877.905C141.615 877.905 141.709 877.999 141.709 878.121V880.839C141.696 880.961 141.602 881.055 141.495 881.055Z" fill="#BCA327"/>
<path d="M140.527 881.055C140.406 881.055 140.312 880.961 140.312 880.839V878.121C140.312 877.999 140.406 877.905 140.527 877.905C140.648 877.905 140.742 877.999 140.742 878.121V880.839C140.742 880.961 140.648 881.055 140.527 881.055Z" fill="#BCA327"/>
<path d="M139.574 881.055C139.453 881.055 139.359 880.961 139.359 880.839V878.121C139.359 877.999 139.453 877.905 139.574 877.905C139.695 877.905 139.789 877.999 139.789 878.121V880.839C139.776 880.961 139.682 881.055 139.574 881.055Z" fill="#BCA327"/>
<path d="M138.606 881.055C138.486 881.055 138.392 880.961 138.392 880.839V878.121C138.392 877.999 138.486 877.905 138.606 877.905C138.727 877.905 138.821 877.999 138.821 878.121V880.839C138.821 880.961 138.727 881.055 138.606 881.055Z" fill="#BCA327"/>
<path d="M137.654 881.055C137.533 881.055 137.439 880.961 137.439 880.839V878.121C137.439 877.999 137.533 877.905 137.654 877.905C137.775 877.905 137.869 877.999 137.869 878.121V880.839C137.856 880.961 137.762 881.055 137.654 881.055Z" fill="#BCA327"/>
<path d="M149.779 881.607H143.803C143.495 881.607 143.253 881.351 143.253 881.055V877.932C143.253 877.623 143.508 877.38 143.803 877.38H149.779C150.088 877.38 150.33 877.636 150.33 877.932V881.055C150.343 881.351 150.088 881.607 149.779 881.607Z" fill="#D25956"/>
<path d="M148.717 881.055C148.596 881.055 148.502 880.961 148.502 880.839V878.121C148.502 877.999 148.596 877.905 148.717 877.905C148.838 877.905 148.932 877.999 148.932 878.121V880.839C148.932 880.961 148.838 881.055 148.717 881.055Z" fill="#B84E4C"/>
<path d="M147.762 881.055C147.641 881.055 147.547 880.961 147.547 880.839V878.121C147.547 877.999 147.641 877.905 147.762 877.905C147.883 877.905 147.977 877.999 147.977 878.121V880.839C147.963 880.961 147.869 881.055 147.762 881.055Z" fill="#B84E4C"/>
<path d="M146.797 881.055C146.676 881.055 146.582 880.961 146.582 880.839V878.121C146.582 877.999 146.676 877.905 146.797 877.905C146.918 877.905 147.012 877.999 147.012 878.121V880.839C147.012 880.961 146.918 881.055 146.797 881.055Z" fill="#B84E4C"/>
<path d="M145.842 881.055C145.721 881.055 145.627 880.961 145.627 880.839V878.121C145.627 877.999 145.721 877.905 145.842 877.905C145.963 877.905 146.057 877.999 146.057 878.121V880.839C146.043 880.961 145.949 881.055 145.842 881.055Z" fill="#B84E4C"/>
<path d="M144.877 881.055C144.756 881.055 144.662 880.961 144.662 880.839V878.121C144.662 877.999 144.756 877.905 144.877 877.905C144.998 877.905 145.092 877.999 145.092 878.121V880.839C145.092 880.961 144.998 881.055 144.877 881.055Z" fill="#B84E4C"/>
<path d="M157.017 881.607H151.042C150.733 881.607 150.491 881.351 150.491 881.055V877.932C150.491 877.623 150.746 877.38 151.042 877.38H157.017C157.326 877.38 157.568 877.636 157.568 877.932V881.055C157.568 881.351 157.326 881.607 157.017 881.607Z" fill="#C9CACE"/>
<path d="M155.956 881.055C155.835 881.055 155.741 880.961 155.741 880.839V878.121C155.741 877.999 155.835 877.905 155.956 877.905C156.076 877.905 156.17 877.999 156.17 878.121V880.839C156.157 880.961 156.063 881.055 155.956 881.055Z" fill="#AFAFB2"/>
<path d="M154.987 881.055C154.866 881.055 154.772 880.961 154.772 880.839V878.121C154.772 877.999 154.866 877.905 154.987 877.905C155.108 877.905 155.202 877.999 155.202 878.121V880.839C155.202 880.961 155.108 881.055 154.987 881.055Z" fill="#AFAFB2"/>
<path d="M154.035 881.055C153.914 881.055 153.82 880.961 153.82 880.839V878.121C153.82 877.999 153.914 877.905 154.035 877.905C154.156 877.905 154.25 877.999 154.25 878.121V880.839C154.237 880.961 154.143 881.055 154.035 881.055Z" fill="#AFAFB2"/>
<path d="M153.069 881.055C152.948 881.055 152.854 880.961 152.854 880.839V878.121C152.854 877.999 152.948 877.905 153.069 877.905C153.19 877.905 153.284 877.999 153.284 878.121V880.839C153.284 880.961 153.19 881.055 153.069 881.055Z" fill="#AFAFB2"/>
<path d="M152.117 881.055C151.996 881.055 151.902 880.961 151.902 880.839V878.121C151.902 877.999 151.996 877.905 152.117 877.905C152.238 877.905 152.332 877.999 152.332 878.121V880.839C152.319 880.961 152.225 881.055 152.117 881.055Z" fill="#AFAFB2"/>
<path d="M146.341 885.846H140.365C140.056 885.846 139.814 885.591 139.814 885.295V882.172C139.814 881.862 140.07 881.62 140.365 881.62H146.341C146.649 881.62 146.891 881.876 146.891 882.172V885.295C146.891 885.591 146.636 885.846 146.341 885.846Z" fill="#C9CACE"/>
<path d="M145.265 885.294C145.144 885.294 145.05 885.2 145.05 885.079V882.36C145.05 882.239 145.144 882.145 145.265 882.145C145.386 882.145 145.48 882.239 145.48 882.36V885.079C145.48 885.2 145.386 885.294 145.265 885.294Z" fill="#AFAFB2"/>
<path d="M144.315 885.294C144.194 885.294 144.1 885.2 144.1 885.079V882.36C144.1 882.239 144.194 882.145 144.315 882.145C144.436 882.145 144.53 882.239 144.53 882.36V885.079C144.53 885.2 144.436 885.294 144.315 885.294Z" fill="#AFAFB2"/>
<path d="M143.345 885.294C143.224 885.294 143.13 885.2 143.13 885.079V882.36C143.13 882.239 143.224 882.145 143.345 882.145C143.466 882.145 143.56 882.239 143.56 882.36V885.079C143.56 885.2 143.466 885.294 143.345 885.294Z" fill="#AFAFB2"/>
<path d="M142.396 885.294C142.275 885.294 142.181 885.2 142.181 885.079V882.36C142.181 882.239 142.275 882.145 142.396 882.145C142.516 882.145 142.61 882.239 142.61 882.36V885.079C142.597 885.2 142.503 885.294 142.396 885.294Z" fill="#AFAFB2"/>
<path d="M141.427 885.294C141.306 885.294 141.212 885.2 141.212 885.079V882.36C141.212 882.239 141.306 882.145 141.427 882.145C141.548 882.145 141.642 882.239 141.642 882.36V885.079C141.642 885.2 141.548 885.294 141.427 885.294Z" fill="#AFAFB2"/>
<path d="M153.661 885.846H147.686C147.377 885.846 147.135 885.591 147.135 885.295V882.172C147.135 881.862 147.39 881.62 147.686 881.62H153.661C153.97 881.62 154.212 881.876 154.212 882.172V885.295C154.212 885.591 153.97 885.846 153.661 885.846Z" fill="#78A0C5"/>
<path d="M152.601 885.294C152.48 885.294 152.386 885.2 152.386 885.079V882.36C152.386 882.239 152.48 882.145 152.601 882.145C152.721 882.145 152.815 882.239 152.815 882.36V885.079C152.802 885.2 152.708 885.294 152.601 885.294Z" fill="#6D90B1"/>
<path d="M151.636 885.294C151.515 885.294 151.421 885.2 151.421 885.079V882.36C151.421 882.239 151.515 882.145 151.636 882.145C151.757 882.145 151.851 882.239 151.851 882.36V885.079C151.851 885.2 151.757 885.294 151.636 885.294Z" fill="#6D90B1"/>
<path d="M150.682 885.294C150.561 885.294 150.467 885.2 150.467 885.079V882.36C150.467 882.239 150.561 882.145 150.682 882.145C150.803 882.145 150.897 882.239 150.897 882.36V885.079C150.884 885.2 150.79 885.294 150.682 885.294Z" fill="#6D90B1"/>
<path d="M149.715 885.294C149.594 885.294 149.5 885.2 149.5 885.079V882.36C149.5 882.239 149.594 882.145 149.715 882.145C149.836 882.145 149.93 882.239 149.93 882.36V885.079C149.93 885.2 149.836 885.294 149.715 885.294Z" fill="#6D90B1"/>
<path d="M148.761 885.294C148.64 885.294 148.546 885.2 148.546 885.079V882.36C148.546 882.239 148.64 882.145 148.761 882.145C148.882 882.145 148.976 882.239 148.976 882.36V885.079C148.963 885.2 148.869 885.294 148.761 885.294Z" fill="#6D90B1"/>
<path d="M160.98 885.846H155.018C154.709 885.846 154.468 885.591 154.468 885.295V882.172C154.468 881.862 154.723 881.62 155.018 881.62H160.994C161.303 881.62 161.544 881.876 161.544 882.172V885.295C161.544 885.591 161.289 885.846 160.98 885.846Z" fill="#EDB939"/>
<path d="M159.92 885.294C159.799 885.294 159.705 885.2 159.705 885.079V882.36C159.705 882.239 159.799 882.145 159.92 882.145C160.041 882.145 160.135 882.239 160.135 882.36V885.079C160.135 885.2 160.041 885.294 159.92 885.294Z" fill="#CFA233"/>
<path d="M158.949 885.294C158.828 885.294 158.734 885.2 158.734 885.079V882.36C158.734 882.239 158.828 882.145 158.949 882.145C159.07 882.145 159.164 882.239 159.164 882.36V885.079C159.164 885.2 159.07 885.294 158.949 885.294Z" fill="#CFA233"/>
<path d="M157.999 885.294C157.878 885.294 157.784 885.2 157.784 885.079V882.36C157.784 882.239 157.878 882.145 157.999 882.145C158.12 882.145 158.214 882.239 158.214 882.36V885.079C158.214 885.2 158.12 885.294 157.999 885.294Z" fill="#CFA233"/>
<path d="M157.032 885.294C156.911 885.294 156.817 885.2 156.817 885.079V882.36C156.817 882.239 156.911 882.145 157.032 882.145C157.153 882.145 157.247 882.239 157.247 882.36V885.079C157.247 885.2 157.153 885.294 157.032 885.294Z" fill="#CFA233"/>
<path d="M156.079 885.294C155.958 885.294 155.864 885.2 155.864 885.079V882.36C155.864 882.239 155.958 882.145 156.079 882.145C156.2 882.145 156.294 882.239 156.294 882.36V885.079C156.294 885.2 156.187 885.294 156.079 885.294Z" fill="#CFA233"/>
<path d="M163.841 886.641L144.867 879.036C144.384 878.848 143.874 878.74 143.35 878.727C142.84 878.74 142.329 878.834 141.833 879.036L122.872 886.641C121.596 887.153 120.965 888.606 121.449 889.885L125.155 899.603V905.067C125.155 906.292 126.148 907.275 127.357 907.275H143.337H159.316C160.538 907.275 161.518 906.279 161.518 905.067V899.603L165.225 889.885C165.748 888.593 165.117 887.153 163.841 886.641Z" fill="#B71C22"/>
<path d="M143.337 884.352L121.837 890.918L122.478 892.599L143.35 886.655L164.327 892.254L164.836 890.918L143.337 884.352Z" fill="#6D1415"/>
<path d="M144.867 879.015L163.841 886.619C165.117 887.131 165.748 888.571 165.225 889.863L143.35 883.076L121.449 889.863C120.965 888.584 121.596 887.131 122.872 886.619L141.833 879.015C142.329 878.813 142.84 878.719 143.35 878.705C143.874 878.719 144.384 878.826 144.867 879.015Z" fill="#6D1415"/>
<path d="M125.167 902.012V905.067C125.167 906.292 126.161 907.275 127.37 907.275H143.349H159.329C160.551 907.275 161.531 906.279 161.531 905.067V902.012H125.167Z" fill="#6D1415"/>
<path d="M125.607 894.868C125.89 894.868 126.119 894.621 126.119 894.315C126.119 894.009 125.89 893.762 125.607 893.762C125.324 893.762 125.095 894.009 125.095 894.315C125.095 894.621 125.324 894.868 125.607 894.868Z" fill="white"/>
<path d="M132.487 892.679C132.822 892.679 133.094 892.386 133.094 892.024C133.094 891.662 132.822 891.368 132.487 891.368C132.152 891.368 131.88 891.662 131.88 892.024C131.88 892.386 132.152 892.679 132.487 892.679Z" fill="white"/>
<path d="M139.514 891.081C139.902 891.081 140.216 890.742 140.216 890.324C140.216 889.905 139.902 889.566 139.514 889.566C139.127 889.566 138.813 889.905 138.813 890.324C138.813 890.742 139.127 891.081 139.514 891.081Z" fill="white"/>
<path d="M160.706 894.958C160.418 894.958 160.185 894.706 160.185 894.395C160.185 894.085 160.418 893.833 160.706 893.833C160.994 893.833 161.227 894.085 161.227 894.395C161.227 894.706 160.994 894.958 160.706 894.958Z" fill="white"/>
<path d="M153.705 892.732C153.364 892.732 153.087 892.434 153.087 892.065C153.087 891.697 153.364 891.399 153.705 891.399C154.045 891.399 154.322 891.697 154.322 892.065C154.322 892.434 154.045 892.732 153.705 892.732Z" fill="white"/>
<path d="M146.559 891.107C146.165 891.107 145.846 890.762 145.846 890.336C145.846 889.911 146.165 889.566 146.559 889.566C146.953 889.566 147.272 889.911 147.272 890.336C147.272 890.762 146.953 891.107 146.559 891.107Z" fill="white"/>
<path d="M211.87 1039.43V1046.27H210.326V1039.43C210.326 1039.21 210.501 1039.04 210.716 1039.04H211.481C211.696 1039.04 211.87 1039.21 211.87 1039.43Z" fill="#425669"/>
<path d="M209.126 1041.78V1046.27H207.582V1041.78C207.582 1041.57 207.756 1041.39 207.971 1041.39H208.736C208.951 1041.39 209.126 1041.57 209.126 1041.78Z" fill="#425669"/>
<path d="M206.373 1043.28V1046.27H204.829V1043.28C204.829 1043.06 205.003 1042.89 205.218 1042.89H205.983C206.198 1042.89 206.373 1043.06 206.373 1043.28Z" fill="#425669"/>
<path d="M214.271 1046.01V1051.04C214.271 1051.17 214.164 1051.27 214.043 1051.27H202.548C202.427 1051.27 202.32 1051.17 202.32 1051.04V1046.01C202.32 1045.57 202.669 1045.22 203.112 1045.22H213.479C213.922 1045.22 214.271 1045.57 214.271 1046.01Z" fill="#E5E7EB"/>
<path d="M214.271 1046.19H202.32V1046.82H214.271V1046.19Z" fill="#78A0C5"/>
<path d="M212.326 1048.18V1049.9H210.782V1048.19C210.782 1047.98 210.956 1047.8 211.171 1047.8H211.937C212.151 1047.79 212.326 1047.96 212.326 1048.18Z" fill="#B0B3B5"/>
<path d="M209.074 1048.18V1049.9H207.529V1048.19C207.529 1047.98 207.704 1047.8 207.919 1047.8H208.684C208.899 1047.79 209.074 1047.96 209.074 1048.18Z" fill="#B0B3B5"/>
<path d="M205.812 1048.18V1049.9H204.268V1048.19C204.268 1047.98 204.443 1047.8 204.657 1047.8H205.423C205.638 1047.79 205.812 1047.96 205.812 1048.18Z" fill="#B0B3B5"/>
<path d="M196.515 1067.68H190.54C190.231 1067.68 189.989 1067.43 189.989 1067.13V1064.01C189.989 1063.7 190.244 1063.45 190.54 1063.45H196.515C196.824 1063.45 197.066 1063.71 197.066 1064.01V1067.13C197.066 1067.43 196.824 1067.68 196.515 1067.68Z" fill="#EACB30"/>
<path d="M195.449 1067.13C195.328 1067.13 195.234 1067.04 195.234 1066.91V1064.2C195.234 1064.07 195.328 1063.98 195.449 1063.98C195.57 1063.98 195.664 1064.07 195.664 1064.2V1066.91C195.664 1067.04 195.57 1067.13 195.449 1067.13Z" fill="#BCA327"/>
<path d="M194.486 1067.13C194.365 1067.13 194.271 1067.04 194.271 1066.91V1064.2C194.271 1064.07 194.365 1063.98 194.486 1063.98C194.607 1063.98 194.701 1064.07 194.701 1064.2V1066.91C194.701 1067.04 194.607 1067.13 194.486 1067.13Z" fill="#BCA327"/>
<path d="M193.53 1067.13C193.409 1067.13 193.315 1067.04 193.315 1066.91V1064.2C193.315 1064.07 193.409 1063.98 193.53 1063.98C193.651 1063.98 193.745 1064.07 193.745 1064.2V1066.91C193.732 1067.04 193.638 1067.13 193.53 1067.13Z" fill="#BCA327"/>
<path d="M192.564 1067.13C192.444 1067.13 192.35 1067.04 192.35 1066.91V1064.2C192.35 1064.07 192.444 1063.98 192.564 1063.98C192.685 1063.98 192.779 1064.07 192.779 1064.2V1066.91C192.779 1067.04 192.685 1067.13 192.564 1067.13Z" fill="#BCA327"/>
<path d="M191.61 1067.13C191.489 1067.13 191.395 1067.04 191.395 1066.91V1064.2C191.395 1064.07 191.489 1063.98 191.61 1063.98C191.731 1063.98 191.825 1064.07 191.825 1064.2V1066.91C191.811 1067.04 191.717 1067.13 191.61 1067.13Z" fill="#BCA327"/>
<path d="M203.834 1067.68H197.859C197.55 1067.68 197.308 1067.43 197.308 1067.13V1064.01C197.308 1063.7 197.563 1063.45 197.859 1063.45H203.834C204.143 1063.45 204.385 1063.71 204.385 1064.01V1067.13C204.398 1067.43 204.143 1067.68 203.834 1067.68Z" fill="#D25956"/>
<path d="M202.772 1067.13C202.651 1067.13 202.557 1067.04 202.557 1066.91V1064.2C202.557 1064.07 202.651 1063.98 202.772 1063.98C202.893 1063.98 202.987 1064.07 202.987 1064.2V1066.91C202.987 1067.04 202.893 1067.13 202.772 1067.13Z" fill="#B84E4C"/>
<path d="M201.818 1067.13C201.697 1067.13 201.603 1067.04 201.603 1066.91V1064.2C201.603 1064.07 201.697 1063.98 201.818 1063.98C201.939 1063.98 202.033 1064.07 202.033 1064.2V1066.91C202.019 1067.04 201.925 1067.13 201.818 1067.13Z" fill="#B84E4C"/>
<path d="M200.851 1067.13C200.73 1067.13 200.636 1067.04 200.636 1066.91V1064.2C200.636 1064.07 200.73 1063.98 200.851 1063.98C200.971 1063.98 201.065 1064.07 201.065 1064.2V1066.91C201.065 1067.04 200.971 1067.13 200.851 1067.13Z" fill="#B84E4C"/>
<path d="M199.901 1067.13C199.781 1067.13 199.687 1067.04 199.687 1066.91V1064.2C199.687 1064.07 199.781 1063.98 199.901 1063.98C200.022 1063.98 200.116 1064.07 200.116 1064.2V1066.91C200.103 1067.04 200.009 1067.13 199.901 1067.13Z" fill="#B84E4C"/>
<path d="M198.932 1067.13C198.811 1067.13 198.717 1067.04 198.717 1066.91V1064.2C198.717 1064.07 198.811 1063.98 198.932 1063.98C199.053 1063.98 199.147 1064.07 199.147 1064.2V1066.91C199.147 1067.04 199.053 1067.13 198.932 1067.13Z" fill="#B84E4C"/>
<path d="M200.154 1063.44H194.178C193.869 1063.44 193.627 1063.19 193.627 1062.89V1059.77C193.627 1059.46 193.883 1059.22 194.178 1059.22H200.154C200.462 1059.22 200.704 1059.47 200.704 1059.77V1062.89C200.704 1063.19 200.449 1063.44 200.154 1063.44Z" fill="#C9CACE"/>
<path d="M199.08 1062.89C198.959 1062.89 198.865 1062.8 198.865 1062.67V1059.96C198.865 1059.83 198.959 1059.74 199.08 1059.74C199.201 1059.74 199.295 1059.83 199.295 1059.96V1062.67C199.295 1062.8 199.201 1062.89 199.08 1062.89Z" fill="#AFAFB2"/>
<path d="M198.127 1062.89C198.006 1062.89 197.912 1062.8 197.912 1062.67V1059.96C197.912 1059.83 198.006 1059.74 198.127 1059.74C198.248 1059.74 198.342 1059.83 198.342 1059.96V1062.67C198.328 1062.8 198.234 1062.89 198.127 1062.89Z" fill="#AFAFB2"/>
<path d="M197.16 1062.89C197.039 1062.89 196.945 1062.8 196.945 1062.67V1059.96C196.945 1059.83 197.039 1059.74 197.16 1059.74C197.281 1059.74 197.375 1059.83 197.375 1059.96V1062.67C197.375 1062.8 197.281 1062.89 197.16 1062.89Z" fill="#AFAFB2"/>
<path d="M196.206 1062.89C196.085 1062.89 195.991 1062.8 195.991 1062.67V1059.96C195.991 1059.83 196.085 1059.74 196.206 1059.74C196.326 1059.74 196.42 1059.83 196.42 1059.96V1062.67C196.407 1062.8 196.313 1062.89 196.206 1062.89Z" fill="#AFAFB2"/>
<path d="M195.239 1062.89C195.118 1062.89 195.024 1062.8 195.024 1062.67V1059.96C195.024 1059.83 195.118 1059.74 195.239 1059.74C195.36 1059.74 195.454 1059.83 195.454 1059.96V1062.67C195.454 1062.8 195.36 1062.89 195.239 1062.89Z" fill="#AFAFB2"/>
<path d="M203.834 1059.2H197.859C197.55 1059.2 197.308 1058.95 197.308 1058.65V1055.53C197.308 1055.22 197.563 1054.98 197.859 1054.98H203.834C204.143 1054.98 204.385 1055.23 204.385 1055.53V1058.65C204.398 1058.95 204.143 1059.2 203.834 1059.2Z" fill="#78A0C5"/>
<path d="M202.772 1058.65C202.651 1058.65 202.557 1058.56 202.557 1058.43V1055.72C202.557 1055.59 202.651 1055.5 202.772 1055.5C202.893 1055.5 202.987 1055.59 202.987 1055.72V1058.43C202.987 1058.56 202.893 1058.65 202.772 1058.65Z" fill="#6D90B1"/>
<path d="M201.818 1058.65C201.697 1058.65 201.603 1058.56 201.603 1058.43V1055.72C201.603 1055.59 201.697 1055.5 201.818 1055.5C201.939 1055.5 202.033 1055.59 202.033 1055.72V1058.43C202.019 1058.56 201.925 1058.65 201.818 1058.65Z" fill="#6D90B1"/>
<path d="M200.851 1058.65C200.73 1058.65 200.636 1058.56 200.636 1058.43V1055.72C200.636 1055.59 200.73 1055.5 200.851 1055.5C200.971 1055.5 201.065 1055.59 201.065 1055.72V1058.43C201.065 1058.56 200.971 1058.65 200.851 1058.65Z" fill="#6D90B1"/>
<path d="M199.901 1058.65C199.781 1058.65 199.687 1058.56 199.687 1058.43V1055.72C199.687 1055.59 199.781 1055.5 199.901 1055.5C200.022 1055.5 200.116 1055.59 200.116 1055.72V1058.43C200.103 1058.56 200.009 1058.65 199.901 1058.65Z" fill="#6D90B1"/>
<path d="M198.932 1058.65C198.811 1058.65 198.717 1058.56 198.717 1058.43V1055.72C198.717 1055.59 198.811 1055.5 198.932 1055.5C199.053 1055.5 199.147 1055.59 199.147 1055.72V1058.43C199.147 1058.56 199.053 1058.65 198.932 1058.65Z" fill="#6D90B1"/>
<path d="M211.072 1059.2H205.096C204.788 1059.2 204.546 1058.95 204.546 1058.65V1055.53C204.546 1055.22 204.801 1054.98 205.096 1054.98H211.072C211.381 1054.98 211.623 1055.23 211.623 1055.53V1058.65C211.623 1058.95 211.381 1059.2 211.072 1059.2Z" fill="#EDB939"/>
<path d="M210.013 1058.65C209.892 1058.65 209.798 1058.56 209.798 1058.43V1055.72C209.798 1055.59 209.892 1055.5 210.013 1055.5C210.134 1055.5 210.228 1055.59 210.228 1055.72V1058.43C210.214 1058.56 210.12 1058.65 210.013 1058.65Z" fill="#CFA233"/>
<path d="M209.046 1058.65C208.925 1058.65 208.831 1058.56 208.831 1058.43V1055.72C208.831 1055.59 208.925 1055.5 209.046 1055.5C209.167 1055.5 209.261 1055.59 209.261 1055.72V1058.43C209.261 1058.56 209.167 1058.65 209.046 1058.65Z" fill="#CFA233"/>
<path d="M208.09 1058.65C207.969 1058.65 207.875 1058.56 207.875 1058.43V1055.72C207.875 1055.59 207.969 1055.5 208.09 1055.5C208.211 1055.5 208.305 1055.59 208.305 1055.72V1058.43C208.292 1058.56 208.198 1058.65 208.09 1058.65Z" fill="#CFA233"/>
<path d="M207.125 1058.65C207.005 1058.65 206.911 1058.56 206.911 1058.43V1055.72C206.911 1055.59 207.005 1055.5 207.125 1055.5C207.246 1055.5 207.34 1055.59 207.34 1055.72V1058.43C207.34 1058.56 207.246 1058.65 207.125 1058.65Z" fill="#CFA233"/>
<path d="M206.173 1058.65C206.052 1058.65 205.958 1058.56 205.958 1058.43V1055.72C205.958 1055.59 206.052 1055.5 206.173 1055.5C206.294 1055.5 206.388 1055.59 206.388 1055.72V1058.43C206.374 1058.56 206.28 1058.65 206.173 1058.65Z" fill="#CFA233"/>
<path d="M207.863 1054.96H201.887C201.579 1054.96 201.337 1054.71 201.337 1054.41V1051.29C201.337 1050.98 201.592 1050.74 201.887 1050.74H207.863C208.172 1050.74 208.414 1050.99 208.414 1051.29V1054.41C208.414 1054.71 208.172 1054.96 207.863 1054.96Z" fill="#C9CACE"/>
<path d="M206.802 1054.41C206.681 1054.41 206.587 1054.32 206.587 1054.19V1051.48C206.587 1051.35 206.681 1051.26 206.802 1051.26C206.923 1051.26 207.017 1051.35 207.017 1051.48V1054.19C207.004 1054.32 206.91 1054.41 206.802 1054.41Z" fill="#AFAFB2"/>
<path d="M205.832 1054.41C205.711 1054.41 205.617 1054.32 205.617 1054.19V1051.48C205.617 1051.35 205.711 1051.26 205.832 1051.26C205.952 1051.26 206.046 1051.35 206.046 1051.48V1054.19C206.046 1054.32 205.952 1054.41 205.832 1054.41Z" fill="#AFAFB2"/>
<path d="M204.88 1054.41C204.759 1054.41 204.665 1054.32 204.665 1054.19V1051.48C204.665 1051.35 204.759 1051.26 204.88 1051.26C205.001 1051.26 205.095 1051.35 205.095 1051.48V1054.19C205.081 1054.32 204.987 1054.41 204.88 1054.41Z" fill="#AFAFB2"/>
<path d="M203.914 1054.41C203.793 1054.41 203.699 1054.32 203.699 1054.19V1051.48C203.699 1051.35 203.793 1051.26 203.914 1051.26C204.034 1051.26 204.128 1051.35 204.128 1051.48V1054.19C204.128 1054.32 204.034 1054.41 203.914 1054.41Z" fill="#AFAFB2"/>
<path d="M202.961 1054.41C202.84 1054.41 202.746 1054.32 202.746 1054.19V1051.48C202.746 1051.35 202.84 1051.26 202.961 1051.26C203.082 1051.26 203.176 1051.35 203.176 1051.48V1054.19C203.162 1054.32 203.068 1054.41 202.961 1054.41Z" fill="#AFAFB2"/>
<path d="M214.939 1054.96H208.964C208.655 1054.96 208.413 1054.71 208.413 1054.41V1051.29C208.413 1050.98 208.668 1050.74 208.964 1050.74H214.939C215.248 1050.74 215.49 1050.99 215.49 1051.29V1054.41C215.503 1054.71 215.248 1054.96 214.939 1054.96Z" fill="#D25956"/>
<path d="M213.881 1054.41C213.761 1054.41 213.667 1054.32 213.667 1054.19V1051.48C213.667 1051.35 213.761 1051.26 213.881 1051.26C214.002 1051.26 214.096 1051.35 214.096 1051.48V1054.19C214.096 1054.32 214.002 1054.41 213.881 1054.41Z" fill="#B84E4C"/>
<path d="M212.911 1054.41C212.79 1054.41 212.696 1054.32 212.696 1054.19V1051.48C212.696 1051.35 212.79 1051.26 212.911 1051.26C213.032 1051.26 213.126 1051.35 213.126 1051.48V1054.19C213.126 1054.32 213.032 1054.41 212.911 1054.41Z" fill="#B84E4C"/>
<path d="M211.958 1054.41C211.837 1054.41 211.743 1054.32 211.743 1054.19V1051.48C211.743 1051.35 211.837 1051.26 211.958 1051.26C212.079 1051.26 212.173 1051.35 212.173 1051.48V1054.19C212.173 1054.32 212.079 1054.41 211.958 1054.41Z" fill="#B84E4C"/>
<path d="M210.993 1054.41C210.872 1054.41 210.778 1054.32 210.778 1054.19V1051.48C210.778 1051.35 210.872 1051.26 210.993 1051.26C211.114 1051.26 211.208 1051.35 211.208 1051.48V1054.19C211.208 1054.32 211.114 1054.41 210.993 1054.41Z" fill="#B84E4C"/>
<path d="M210.039 1054.41C209.918 1054.41 209.824 1054.32 209.824 1054.19V1051.48C209.824 1051.35 209.918 1051.26 210.039 1051.26C210.159 1051.26 210.253 1051.35 210.253 1051.48V1054.19C210.253 1054.32 210.159 1054.41 210.039 1054.41Z" fill="#B84E4C"/>
<path d="M218.295 1059.2H212.32C212.011 1059.2 211.769 1058.95 211.769 1058.65V1055.53C211.769 1055.22 212.024 1054.98 212.32 1054.98H218.295C218.604 1054.98 218.846 1055.23 218.846 1055.53V1058.65C218.859 1058.95 218.604 1059.2 218.295 1059.2Z" fill="#78A0C5"/>
<path d="M217.231 1058.65C217.111 1058.65 217.017 1058.56 217.017 1058.43V1055.72C217.017 1055.59 217.111 1055.5 217.231 1055.5C217.352 1055.5 217.446 1055.59 217.446 1055.72V1058.43C217.446 1058.56 217.352 1058.65 217.231 1058.65Z" fill="#6D90B1"/>
<path d="M216.279 1058.65C216.158 1058.65 216.064 1058.56 216.064 1058.43V1055.72C216.064 1055.59 216.158 1055.5 216.279 1055.5C216.4 1055.5 216.494 1055.59 216.494 1055.72V1058.43C216.48 1058.56 216.386 1058.65 216.279 1058.65Z" fill="#6D90B1"/>
<path d="M215.311 1058.65C215.19 1058.65 215.096 1058.56 215.096 1058.43V1055.72C215.096 1055.59 215.19 1055.5 215.311 1055.5C215.431 1055.5 215.525 1055.59 215.525 1055.72V1058.43C215.525 1058.56 215.431 1058.65 215.311 1058.65Z" fill="#6D90B1"/>
<path d="M214.361 1058.65C214.24 1058.65 214.146 1058.56 214.146 1058.43V1055.72C214.146 1055.59 214.24 1055.5 214.361 1055.5C214.482 1055.5 214.576 1055.59 214.576 1055.72V1058.43C214.562 1058.56 214.468 1058.65 214.361 1058.65Z" fill="#6D90B1"/>
<path d="M213.393 1058.65C213.272 1058.65 213.178 1058.56 213.178 1058.43V1055.72C213.178 1055.59 213.272 1055.5 213.393 1055.5C213.513 1055.5 213.607 1055.59 213.607 1055.72V1058.43C213.607 1058.56 213.513 1058.65 213.393 1058.65Z" fill="#6D90B1"/>
<path d="M207.379 1063.44H201.403C201.094 1063.44 200.853 1063.19 200.853 1062.89V1059.77C200.853 1059.46 201.108 1059.22 201.403 1059.22H207.379C207.688 1059.22 207.929 1059.47 207.929 1059.77V1062.89C207.929 1063.19 207.688 1063.44 207.379 1063.44Z" fill="#EACB30"/>
<path d="M206.32 1062.89C206.199 1062.89 206.105 1062.8 206.105 1062.67V1059.96C206.105 1059.83 206.199 1059.74 206.32 1059.74C206.441 1059.74 206.535 1059.83 206.535 1059.96V1062.67C206.521 1062.8 206.427 1062.89 206.32 1062.89Z" fill="#BCA327"/>
<path d="M205.351 1062.89C205.23 1062.89 205.136 1062.8 205.136 1062.67V1059.96C205.136 1059.83 205.23 1059.74 205.351 1059.74C205.471 1059.74 205.565 1059.83 205.565 1059.96V1062.67C205.565 1062.8 205.471 1062.89 205.351 1062.89Z" fill="#BCA327"/>
<path d="M204.4 1062.89C204.28 1062.89 204.186 1062.8 204.186 1062.67V1059.96C204.186 1059.83 204.28 1059.74 204.4 1059.74C204.521 1059.74 204.615 1059.83 204.615 1059.96V1062.67C204.602 1062.8 204.508 1062.89 204.4 1062.89Z" fill="#BCA327"/>
<path d="M203.432 1062.89C203.311 1062.89 203.217 1062.8 203.217 1062.67V1059.96C203.217 1059.83 203.311 1059.74 203.432 1059.74C203.553 1059.74 203.646 1059.83 203.646 1059.96V1062.67C203.646 1062.8 203.553 1062.89 203.432 1062.89Z" fill="#BCA327"/>
<path d="M202.479 1062.89C202.358 1062.89 202.264 1062.8 202.264 1062.67V1059.96C202.264 1059.83 202.358 1059.74 202.479 1059.74C202.599 1059.74 202.693 1059.83 202.693 1059.96V1062.67C202.68 1062.8 202.586 1062.89 202.479 1062.89Z" fill="#BCA327"/>
<path d="M214.602 1063.44H208.627C208.318 1063.44 208.076 1063.19 208.076 1062.89V1059.77C208.076 1059.46 208.331 1059.22 208.627 1059.22H214.602C214.911 1059.22 215.153 1059.47 215.153 1059.77V1062.89C215.166 1063.19 214.911 1063.44 214.602 1063.44Z" fill="#D25956"/>
<path d="M213.539 1062.89C213.418 1062.89 213.324 1062.8 213.324 1062.67V1059.96C213.324 1059.83 213.418 1059.74 213.539 1059.74C213.66 1059.74 213.754 1059.83 213.754 1059.96V1062.67C213.754 1062.8 213.66 1062.89 213.539 1062.89Z" fill="#B84E4C"/>
<path d="M212.586 1062.89C212.465 1062.89 212.371 1062.8 212.371 1062.67V1059.96C212.371 1059.83 212.465 1059.74 212.586 1059.74C212.707 1059.74 212.801 1059.83 212.801 1059.96V1062.67C212.787 1062.8 212.693 1062.89 212.586 1062.89Z" fill="#B84E4C"/>
<path d="M211.619 1062.89C211.498 1062.89 211.404 1062.8 211.404 1062.67V1059.96C211.404 1059.83 211.498 1059.74 211.619 1059.74C211.74 1059.74 211.834 1059.83 211.834 1059.96V1062.67C211.834 1062.8 211.74 1062.89 211.619 1062.89Z" fill="#B84E4C"/>
<path d="M210.667 1062.89C210.546 1062.89 210.452 1062.8 210.452 1062.67V1059.96C210.452 1059.83 210.546 1059.74 210.667 1059.74C210.788 1059.74 210.882 1059.83 210.882 1059.96V1062.67C210.868 1062.8 210.774 1062.89 210.667 1062.89Z" fill="#B84E4C"/>
<path d="M209.699 1062.89C209.578 1062.89 209.484 1062.8 209.484 1062.67V1059.96C209.484 1059.83 209.578 1059.74 209.699 1059.74C209.82 1059.74 209.914 1059.83 209.914 1059.96V1062.67C209.914 1062.8 209.82 1062.89 209.699 1062.89Z" fill="#B84E4C"/>
<path d="M221.839 1063.44H215.864C215.555 1063.44 215.313 1063.19 215.313 1062.89V1059.77C215.313 1059.46 215.568 1059.22 215.864 1059.22H221.839C222.148 1059.22 222.39 1059.47 222.39 1059.77V1062.89C222.39 1063.19 222.148 1063.44 221.839 1063.44Z" fill="#C9CACE"/>
<path d="M220.778 1062.89C220.657 1062.89 220.563 1062.8 220.563 1062.67V1059.96C220.563 1059.83 220.657 1059.74 220.778 1059.74C220.899 1059.74 220.993 1059.83 220.993 1059.96V1062.67C220.98 1062.8 220.886 1062.89 220.778 1062.89Z" fill="#AFAFB2"/>
<path d="M219.811 1062.89C219.69 1062.89 219.596 1062.8 219.596 1062.67V1059.96C219.596 1059.83 219.69 1059.74 219.811 1059.74C219.931 1059.74 220.025 1059.83 220.025 1059.96V1062.67C220.025 1062.8 219.931 1062.89 219.811 1062.89Z" fill="#AFAFB2"/>
<path d="M218.858 1062.89C218.737 1062.89 218.643 1062.8 218.643 1062.67V1059.96C218.643 1059.83 218.737 1059.74 218.858 1059.74C218.979 1059.74 219.073 1059.83 219.073 1059.96V1062.67C219.059 1062.8 218.965 1062.89 218.858 1062.89Z" fill="#AFAFB2"/>
<path d="M217.894 1062.89C217.773 1062.89 217.679 1062.8 217.679 1062.67V1059.96C217.679 1059.83 217.773 1059.74 217.894 1059.74C218.015 1059.74 218.109 1059.83 218.109 1059.96V1062.67C218.109 1062.8 218.015 1062.89 217.894 1062.89Z" fill="#AFAFB2"/>
<path d="M216.938 1062.89C216.818 1062.89 216.724 1062.8 216.724 1062.67V1059.96C216.724 1059.83 216.818 1059.74 216.938 1059.74C217.059 1059.74 217.153 1059.83 217.153 1059.96V1062.67C217.14 1062.8 217.046 1062.89 216.938 1062.89Z" fill="#AFAFB2"/>
<path d="M211.164 1067.68H205.188C204.879 1067.68 204.638 1067.43 204.638 1067.13V1064.01C204.638 1063.7 204.893 1063.45 205.188 1063.45H211.164C211.473 1063.45 211.714 1063.71 211.714 1064.01V1067.13C211.714 1067.43 211.459 1067.68 211.164 1067.68Z" fill="#C9CACE"/>
<path d="M210.086 1067.13C209.965 1067.13 209.871 1067.04 209.871 1066.91V1064.2C209.871 1064.07 209.965 1063.98 210.086 1063.98C210.207 1063.98 210.301 1064.07 210.301 1064.2V1066.91C210.301 1067.04 210.207 1067.13 210.086 1067.13Z" fill="#AFAFB2"/>
<path d="M209.134 1067.13C209.013 1067.13 208.919 1067.04 208.919 1066.91V1064.2C208.919 1064.07 209.013 1063.98 209.134 1063.98C209.255 1063.98 209.349 1064.07 209.349 1064.2V1066.91C209.349 1067.04 209.255 1067.13 209.134 1067.13Z" fill="#AFAFB2"/>
<path d="M208.167 1067.13C208.047 1067.13 207.953 1067.04 207.953 1066.91V1064.2C207.953 1064.07 208.047 1063.98 208.167 1063.98C208.288 1063.98 208.382 1064.07 208.382 1064.2V1066.91C208.382 1067.04 208.288 1067.13 208.167 1067.13Z" fill="#AFAFB2"/>
<path d="M207.213 1067.13C207.093 1067.13 206.999 1067.04 206.999 1066.91V1064.2C206.999 1064.07 207.093 1063.98 207.213 1063.98C207.334 1063.98 207.428 1064.07 207.428 1064.2V1066.91C207.415 1067.04 207.321 1067.13 207.213 1067.13Z" fill="#AFAFB2"/>
<path d="M206.248 1067.13C206.127 1067.13 206.033 1067.04 206.033 1066.91V1064.2C206.033 1064.07 206.127 1063.98 206.248 1063.98C206.368 1063.98 206.462 1064.07 206.462 1064.2V1066.91C206.462 1067.04 206.368 1067.13 206.248 1067.13Z" fill="#AFAFB2"/>
<path d="M218.485 1067.68H212.509C212.2 1067.68 211.958 1067.43 211.958 1067.13V1064.01C211.958 1063.7 212.214 1063.45 212.509 1063.45H218.485C218.793 1063.45 219.035 1063.71 219.035 1064.01V1067.13C219.035 1067.43 218.793 1067.68 218.485 1067.68Z" fill="#78A0C5"/>
<path d="M217.421 1067.13C217.301 1067.13 217.207 1067.04 217.207 1066.91V1064.2C217.207 1064.07 217.301 1063.98 217.421 1063.98C217.542 1063.98 217.636 1064.07 217.636 1064.2V1066.91C217.623 1067.04 217.529 1067.13 217.421 1067.13Z" fill="#6D90B1"/>
<path d="M216.458 1067.13C216.337 1067.13 216.243 1067.04 216.243 1066.91V1064.2C216.243 1064.07 216.337 1063.98 216.458 1063.98C216.578 1063.98 216.672 1064.07 216.672 1064.2V1066.91C216.672 1067.04 216.578 1067.13 216.458 1067.13Z" fill="#6D90B1"/>
<path d="M215.502 1067.13C215.381 1067.13 215.287 1067.04 215.287 1066.91V1064.2C215.287 1064.07 215.381 1063.98 215.502 1063.98C215.623 1063.98 215.717 1064.07 215.717 1064.2V1066.91C215.703 1067.04 215.609 1067.13 215.502 1067.13Z" fill="#6D90B1"/>
<path d="M214.535 1067.13C214.414 1067.13 214.32 1067.04 214.32 1066.91V1064.2C214.32 1064.07 214.414 1063.98 214.535 1063.98C214.656 1063.98 214.75 1064.07 214.75 1064.2V1066.91C214.75 1067.04 214.656 1067.13 214.535 1067.13Z" fill="#6D90B1"/>
<path d="M213.583 1067.13C213.462 1067.13 213.368 1067.04 213.368 1066.91V1064.2C213.368 1064.07 213.462 1063.98 213.583 1063.98C213.704 1063.98 213.798 1064.07 213.798 1064.2V1066.91C213.784 1067.04 213.69 1067.13 213.583 1067.13Z" fill="#6D90B1"/>
<path d="M225.804 1067.68H219.842C219.533 1067.68 219.291 1067.43 219.291 1067.13V1064.01C219.291 1063.7 219.546 1063.45 219.842 1063.45H225.817C226.126 1063.45 226.368 1063.71 226.368 1064.01V1067.13C226.368 1067.43 226.113 1067.68 225.804 1067.68Z" fill="#EDB939"/>
<path d="M224.743 1067.13C224.622 1067.13 224.528 1067.04 224.528 1066.91V1064.2C224.528 1064.07 224.622 1063.98 224.743 1063.98C224.864 1063.98 224.958 1064.07 224.958 1064.2V1066.91C224.958 1067.04 224.864 1067.13 224.743 1067.13Z" fill="#CFA233"/>
<path d="M223.776 1067.13C223.655 1067.13 223.561 1067.04 223.561 1066.91V1064.2C223.561 1064.07 223.655 1063.98 223.776 1063.98C223.897 1063.98 223.991 1064.07 223.991 1064.2V1066.91C223.991 1067.04 223.897 1067.13 223.776 1067.13Z" fill="#CFA233"/>
<path d="M222.822 1067.13C222.701 1067.13 222.607 1067.04 222.607 1066.91V1064.2C222.607 1064.07 222.701 1063.98 222.822 1063.98C222.943 1063.98 223.037 1064.07 223.037 1064.2V1066.91C223.037 1067.04 222.943 1067.13 222.822 1067.13Z" fill="#CFA233"/>
<path d="M221.855 1067.13C221.734 1067.13 221.64 1067.04 221.64 1066.91V1064.2C221.64 1064.07 221.734 1063.98 221.855 1063.98C221.975 1063.98 222.069 1064.07 222.069 1064.2V1066.91C222.069 1067.04 221.975 1067.13 221.855 1067.13Z" fill="#CFA233"/>
<path d="M220.903 1067.13C220.782 1067.13 220.688 1067.04 220.688 1066.91V1064.2C220.688 1064.07 220.782 1063.98 220.903 1063.98C221.024 1063.98 221.118 1064.07 221.118 1064.2V1066.91C221.118 1067.04 221.011 1067.13 220.903 1067.13Z" fill="#CFA233"/>
<path d="M228.664 1068.48L209.69 1060.87C209.206 1060.68 208.696 1060.57 208.172 1060.56C207.662 1060.57 207.152 1060.67 206.655 1060.87L187.694 1068.48C186.419 1068.99 185.787 1070.44 186.271 1071.72L189.977 1081.44V1086.9C189.977 1088.13 190.971 1089.11 192.179 1089.11H208.159H224.138C225.36 1089.11 226.341 1088.11 226.341 1086.9V1081.44L230.047 1071.72C230.57 1070.43 229.939 1068.99 228.664 1068.48Z" fill="#B71C22"/>
<path d="M208.159 1066.19L186.659 1072.75L187.301 1074.43L208.172 1068.49L229.149 1074.09L229.658 1072.75L208.159 1066.19Z" fill="#6D1415"/>
<path d="M209.69 1060.85L228.664 1068.45C229.939 1068.97 230.57 1070.41 230.047 1071.7L208.172 1064.91L186.271 1071.7C185.787 1070.42 186.419 1068.97 187.694 1068.45L206.655 1060.85C207.152 1060.65 207.662 1060.55 208.172 1060.54C208.696 1060.55 209.206 1060.66 209.69 1060.85Z" fill="#6D1415"/>
<path d="M189.99 1083.85V1086.9C189.99 1088.13 190.983 1089.11 192.192 1089.11H208.172H224.151C225.373 1089.11 226.353 1088.11 226.353 1086.9V1083.85H189.99Z" fill="#6D1415"/>
<path d="M190.431 1076.7C190.714 1076.7 190.944 1076.46 190.944 1076.15C190.944 1075.84 190.714 1075.6 190.431 1075.6C190.148 1075.6 189.919 1075.84 189.919 1076.15C189.919 1076.46 190.148 1076.7 190.431 1076.7Z" fill="white"/>
<path d="M197.311 1074.51C197.646 1074.51 197.918 1074.22 197.918 1073.86C197.918 1073.5 197.646 1073.2 197.311 1073.2C196.976 1073.2 196.704 1073.5 196.704 1073.86C196.704 1074.22 196.976 1074.51 197.311 1074.51Z" fill="white"/>
<path d="M204.339 1072.92C204.726 1072.92 205.04 1072.58 205.04 1072.16C205.04 1071.74 204.726 1071.4 204.339 1071.4C203.951 1071.4 203.637 1071.74 203.637 1072.16C203.637 1072.58 203.951 1072.92 204.339 1072.92Z" fill="white"/>
<path d="M225.531 1076.79C225.243 1076.79 225.01 1076.54 225.01 1076.23C225.01 1075.92 225.243 1075.67 225.531 1075.67C225.819 1075.67 226.052 1075.92 226.052 1076.23C226.052 1076.54 225.819 1076.79 225.531 1076.79Z" fill="white"/>
<path d="M218.53 1074.57C218.189 1074.57 217.913 1074.27 217.913 1073.9C217.913 1073.53 218.189 1073.23 218.53 1073.23C218.871 1073.23 219.147 1073.53 219.147 1073.9C219.147 1074.27 218.871 1074.57 218.53 1074.57Z" fill="white"/>
<path d="M211.384 1072.94C210.99 1072.94 210.67 1072.6 210.67 1072.17C210.67 1071.75 210.99 1071.4 211.384 1071.4C211.778 1071.4 212.097 1071.75 212.097 1072.17C212.097 1072.6 211.778 1072.94 211.384 1072.94Z" fill="white"/>
<path fill-rule="evenodd" clip-rule="evenodd" d="M237.581 738.199L193.162 661.263C191.028 657.566 185.692 657.566 183.558 661.263L139.139 738.199C137.005 741.895 139.672 746.516 143.941 746.516H173.589V743.051H143.941C142.34 743.051 141.34 741.318 142.14 739.932L186.559 662.996C187.359 661.609 189.36 661.609 190.161 662.996L234.579 739.932C235.38 741.318 234.379 743.051 232.779 743.051H203.184V746.516H232.779C237.047 746.516 239.715 741.895 237.581 738.199Z" fill="#B71C22"/>
<path d="M185.269 683.749V691.787H183.856V683.749C183.856 683.496 184.016 683.29 184.212 683.29H184.913C185.109 683.29 185.269 683.496 185.269 683.749Z" fill="#425669"/>
<path d="M193.718 692.091V696.697C193.718 696.808 193.62 696.907 193.509 696.907H182.99C182.88 696.907 182.781 696.808 182.781 696.697V692.091C182.781 691.684 183.101 691.364 183.506 691.364H192.993C193.399 691.364 193.718 691.684 193.718 692.091Z" fill="#E5E7EB"/>
<path d="M193.718 692.251H182.781V692.83H193.718V692.251Z" fill="#78A0C5"/>
<path d="M191.938 694.074V695.65H190.525V694.086C190.525 693.889 190.685 693.729 190.881 693.729H191.582C191.778 693.717 191.938 693.877 191.938 694.074Z" fill="#B0B3B5"/>
<path d="M188.962 694.074V695.65H187.549V694.086C187.549 693.889 187.709 693.729 187.905 693.729H188.606C188.802 693.717 188.962 693.877 188.962 694.074Z" fill="#B0B3B5"/>
<path d="M185.978 694.074V695.65H184.564V694.086C184.564 693.889 184.724 693.729 184.921 693.729H185.621C185.818 693.717 185.978 693.877 185.978 694.074Z" fill="#B0B3B5"/>
<rect x="168.049" y="704.413" width="5.64953" height="11.9818" fill="#D9AA06" stroke="black" stroke-width="0.207935"/>
<path d="M173.699 704.389C173.699 704.511 173.637 704.638 173.502 704.765C173.366 704.891 173.165 705.01 172.907 705.113C172.392 705.316 171.673 705.445 170.874 705.445C170.075 705.445 169.356 705.316 168.841 705.113C168.584 705.01 168.382 704.891 168.247 704.765C168.111 704.638 168.049 704.511 168.049 704.389C168.049 704.267 168.111 704.14 168.247 704.014C168.382 703.887 168.584 703.768 168.841 703.666C169.356 703.462 170.075 703.333 170.874 703.333C171.673 703.333 172.392 703.462 172.907 703.666C173.165 703.768 173.366 703.887 173.502 704.014C173.637 704.14 173.699 704.267 173.699 704.389Z" fill="#FFC700" stroke="black" stroke-width="0.207935"/>
<rect x="173.66" y="700.098" width="5.64953" height="11.9818" fill="#D9AA06" stroke="black" stroke-width="0.207935"/>
<path d="M179.31 700.074C179.31 700.196 179.248 700.323 179.113 700.45C178.977 700.577 178.776 700.696 178.518 700.798C178.003 701.002 177.284 701.13 176.485 701.13C175.686 701.13 174.968 701.002 174.453 700.798C174.195 700.696 173.993 700.577 173.858 700.45C173.723 700.323 173.661 700.196 173.661 700.074C173.661 699.952 173.723 699.825 173.858 699.699C173.993 699.572 174.195 699.453 174.453 699.351C174.968 699.147 175.686 699.019 176.485 699.019C177.284 699.019 178.003 699.147 178.518 699.351C178.776 699.453 178.977 699.572 179.113 699.699C179.248 699.825 179.31 699.952 179.31 700.074Z" fill="#FFC700" stroke="black" stroke-width="0.207935"/>
<rect x="179.518" y="697.231" width="5.64953" height="11.9818" fill="#D9AA06" stroke="black" stroke-width="0.207935"/>
<path d="M185.168 697.208C185.168 697.329 185.106 697.456 184.97 697.583C184.835 697.71 184.633 697.829 184.375 697.931C183.86 698.135 183.142 698.263 182.343 698.263C181.544 698.263 180.825 698.135 180.31 697.931C180.052 697.829 179.851 697.71 179.715 697.583C179.58 697.456 179.518 697.329 179.518 697.208C179.518 697.086 179.58 696.959 179.715 696.832C179.851 696.705 180.052 696.586 180.31 696.484C180.825 696.28 181.544 696.152 182.343 696.152C183.142 696.152 183.86 696.28 184.375 696.484C184.633 696.586 184.835 696.705 184.97 696.832C185.106 696.959 185.168 697.086 185.168 697.208Z" fill="#FFC700" stroke="black" stroke-width="0.207935"/>
<rect x="185.176" y="694.911" width="5.64953" height="11.9818" fill="#D9AA06" stroke="black" stroke-width="0.207935"/>
<path d="M190.828 694.888C190.828 695.01 190.766 695.137 190.631 695.263C190.496 695.39 190.294 695.509 190.036 695.611C189.521 695.815 188.802 695.943 188.003 695.943C187.204 695.943 186.486 695.815 185.971 695.611C185.713 695.509 185.511 695.39 185.376 695.263C185.241 695.137 185.179 695.01 185.179 694.888C185.179 694.766 185.241 694.639 185.376 694.512C185.511 694.385 185.713 694.266 185.971 694.164C186.486 693.96 187.204 693.832 188.003 693.832C188.802 693.832 189.521 693.96 190.036 694.164C190.294 694.266 190.496 694.385 190.631 694.512C190.766 694.639 190.828 694.766 190.828 694.888Z" fill="#FFC700" stroke="black" stroke-width="0.207935"/>
<rect x="190.894" y="697.231" width="5.64953" height="11.9818" fill="#D9AA06" stroke="black" stroke-width="0.207935"/>
<path d="M196.544 697.208C196.544 697.329 196.482 697.456 196.347 697.583C196.211 697.71 196.01 697.829 195.752 697.931C195.237 698.135 194.518 698.263 193.719 698.263C192.92 698.263 192.202 698.135 191.687 697.931C191.429 697.829 191.227 697.71 191.092 697.583C190.956 697.456 190.894 697.329 190.894 697.208C190.894 697.086 190.956 696.959 191.092 696.832C191.227 696.705 191.429 696.586 191.687 696.484C192.202 696.28 192.92 696.152 193.719 696.152C194.518 696.152 195.237 696.28 195.752 696.484C196.01 696.586 196.211 696.705 196.347 696.832C196.482 696.959 196.544 697.086 196.544 697.208Z" fill="#FFC700" stroke="black" stroke-width="0.207935"/>
<rect x="196.447" y="700.098" width="5.64953" height="11.9818" fill="#D9AA06" stroke="black" stroke-width="0.207935"/>
<path d="M202.098 700.074C202.098 700.196 202.036 700.323 201.9 700.45C201.765 700.577 201.563 700.696 201.306 700.798C200.791 701.002 200.072 701.13 199.273 701.13C198.474 701.13 197.755 701.002 197.24 700.798C196.983 700.696 196.781 700.577 196.645 700.45C196.51 700.323 196.448 700.196 196.448 700.074C196.448 699.952 196.51 699.825 196.645 699.699C196.781 699.572 196.983 699.453 197.24 699.351C197.755 699.147 198.474 699.019 199.273 699.019C200.072 699.019 200.791 699.147 201.306 699.351C201.563 699.453 201.765 699.572 201.9 699.699C202.036 699.825 202.098 699.952 202.098 700.074Z" fill="#FFC700" stroke="black" stroke-width="0.207935"/>
<rect x="202.304" y="704.413" width="5.64953" height="11.9818" fill="#D9AA06" stroke="black" stroke-width="0.207935"/>
<path d="M207.955 704.389C207.955 704.511 207.893 704.638 207.758 704.765C207.622 704.891 207.421 705.01 207.163 705.113C206.648 705.316 205.929 705.445 205.13 705.445C204.331 705.445 203.613 705.316 203.098 705.113C202.84 705.01 202.638 704.891 202.503 704.765C202.368 704.638 202.306 704.511 202.306 704.389C202.306 704.267 202.368 704.14 202.503 704.014C202.638 703.887 202.84 703.768 203.098 703.666C203.613 703.462 204.331 703.333 205.13 703.333C205.929 703.333 206.648 703.462 207.163 703.666C207.421 703.768 207.622 703.887 207.758 704.014C207.893 704.14 207.955 704.267 207.955 704.389Z" fill="#FFC700" stroke="black" stroke-width="0.207935"/>
<path d="M206.889 712.649L189.525 705.69C189.083 705.517 188.616 705.419 188.137 705.406C187.67 705.419 187.203 705.505 186.748 705.69L169.396 712.649C168.229 713.117 167.651 714.447 168.093 715.618L171.485 724.511V729.512C171.485 730.633 172.395 731.532 173.501 731.532H188.124H202.748C203.866 731.532 204.763 730.62 204.763 729.512V724.511L208.155 715.618C208.634 714.435 208.057 713.117 206.889 712.649Z" fill="black"/>
<path d="M188.124 710.554L168.449 716.563L169.036 718.101L188.137 712.662L207.333 717.785L207.799 716.563L188.124 710.554Z" fill="#292D39"/>
<path d="M189.525 705.67L206.889 712.629C208.057 713.097 208.634 714.415 208.155 715.598L188.137 709.386L168.093 715.598C167.651 714.427 168.229 713.097 169.396 712.629L186.748 705.67C187.203 705.485 187.67 705.399 188.137 705.386C188.616 705.399 189.083 705.497 189.525 705.67Z" fill="#292D39"/>
<path d="M171.497 726.716V729.512C171.497 730.633 172.406 731.532 173.512 731.532H188.136H202.76C203.878 731.532 204.775 730.621 204.775 729.512V726.716H171.497Z" fill="#292D39"/>
<path d="M187.191 733.367C185.286 733.367 183.971 732.714 183.185 732.135C182.939 731.951 182.619 731.914 182.337 732.037C177.507 734.106 174.128 732.837 172.641 731.975C172.42 731.84 172.149 731.827 171.903 731.914C169.532 732.813 167.332 732.788 166.14 732.677C165.624 732.628 165.28 732.135 165.39 731.63L165.427 731.47C165.526 731.051 165.919 730.768 166.349 730.805C167.479 730.916 169.728 730.928 172.014 729.832L172.063 729.807C172.37 729.659 172.739 729.709 172.997 729.943L173.034 729.98C173.169 730.103 176.585 732.924 182.595 729.844L182.656 729.82C183.037 729.623 183.492 729.733 183.738 730.078L183.774 730.128C183.86 730.251 186.257 733.269 192.549 729.857L192.586 729.832C192.831 729.696 193.114 729.696 193.36 729.807L193.397 729.82C193.446 729.844 198.103 731.951 203.24 729.807L203.277 729.795C203.535 729.684 203.83 729.709 204.063 729.857L204.1 729.881C204.113 729.893 206.14 731.088 209.987 730.719C210.441 730.67 210.847 731.002 210.908 731.446L210.933 731.593C211.007 732.086 210.65 732.529 210.159 732.579C207.013 732.887 204.887 732.271 203.842 731.827C203.646 731.753 203.437 731.741 203.24 731.815C198.865 733.379 194.982 732.394 193.384 731.827C193.163 731.753 192.93 731.766 192.721 731.864C190.484 732.973 188.653 733.367 187.191 733.367Z" fill="#599DC9"/>
<path d="M171.9 720.179C172.159 720.179 172.369 719.952 172.369 719.672C172.369 719.393 172.159 719.166 171.9 719.166C171.641 719.166 171.431 719.393 171.431 719.672C171.431 719.952 171.641 720.179 171.9 720.179Z" fill="white"/>
<path d="M178.196 718.175C178.503 718.175 178.751 717.907 178.751 717.575C178.751 717.244 178.503 716.976 178.196 716.976C177.889 716.976 177.641 717.244 177.641 717.575C177.641 717.907 177.889 718.175 178.196 718.175Z" fill="white"/>
<path d="M184.627 716.713C184.982 716.713 185.269 716.402 185.269 716.019C185.269 715.637 184.982 715.326 184.627 715.326C184.273 715.326 183.985 715.637 183.985 716.019C183.985 716.402 184.273 716.713 184.627 716.713Z" fill="white"/>
<path d="M204.023 720.261C203.759 720.261 203.546 720.03 203.546 719.746C203.546 719.461 203.759 719.231 204.023 719.231C204.286 719.231 204.5 719.461 204.5 719.746C204.5 720.03 204.286 720.261 204.023 720.261Z" fill="white"/>
<path d="M197.616 718.223C197.304 718.223 197.051 717.95 197.051 717.613C197.051 717.277 197.304 717.003 197.616 717.003C197.928 717.003 198.181 717.277 198.181 717.613C198.181 717.95 197.928 718.223 197.616 718.223Z" fill="white"/>
<path d="M191.076 716.736C190.715 716.736 190.423 716.42 190.423 716.031C190.423 715.642 190.715 715.326 191.076 715.326C191.436 715.326 191.729 715.642 191.729 716.031C191.729 716.42 191.436 716.736 191.076 716.736Z" fill="white"/>
<path d="M181.412 648.975C183.469 647.506 184.498 646.339 184.498 645.472C184.498 644.941 184.268 644.676 183.809 644.676C183.55 644.676 183.359 644.767 183.236 644.948C183.12 645.129 183.055 645.41 183.042 645.792H181.422C181.46 644.957 181.713 644.33 182.179 643.909C182.644 643.489 183.233 643.279 183.945 643.279C184.689 643.279 185.248 643.466 185.623 643.842C186.005 644.217 186.196 644.705 186.196 645.307C186.196 645.973 185.94 646.626 185.429 647.267C184.918 647.901 184.307 648.438 183.595 648.878H186.303V650.217H181.412V648.975ZM191.449 644.598L188.994 650.294H187.277L189.761 644.792H186.85V643.366H191.449V644.598ZM193.592 643.318C194.064 643.318 194.449 643.46 194.746 643.744C195.05 644.029 195.202 644.43 195.202 644.948C195.202 645.465 195.05 645.866 194.746 646.151C194.449 646.436 194.064 646.578 193.592 646.578C193.106 646.578 192.712 646.436 192.408 646.151C192.11 645.866 191.961 645.465 191.961 644.948C191.961 644.43 192.11 644.029 192.408 643.744C192.712 643.46 193.106 643.318 193.592 643.318ZM198.298 643.415L194.552 650.294H192.951L196.697 643.415H198.298ZM193.068 644.948C193.068 645.148 193.113 645.307 193.204 645.423C193.294 645.533 193.417 645.588 193.572 645.588C193.734 645.588 193.863 645.533 193.96 645.423C194.057 645.307 194.106 645.148 194.106 644.948C194.106 644.747 194.057 644.592 193.96 644.482C193.863 644.366 193.734 644.307 193.572 644.307C193.417 644.307 193.294 644.366 193.204 644.482C193.113 644.592 193.068 644.747 193.068 644.948ZM197.667 647.121C198.146 647.121 198.534 647.264 198.832 647.548C199.129 647.833 199.278 648.234 199.278 648.752C199.278 649.269 199.129 649.673 198.832 649.965C198.534 650.249 198.146 650.391 197.667 650.391C197.195 650.391 196.807 650.249 196.503 649.965C196.205 649.673 196.056 649.269 196.056 648.752C196.056 648.234 196.205 647.833 196.503 647.548C196.807 647.264 197.195 647.121 197.667 647.121ZM197.153 648.752C197.153 648.959 197.198 649.12 197.289 649.237C197.379 649.347 197.505 649.402 197.667 649.402C197.822 649.402 197.945 649.347 198.036 649.237C198.133 649.12 198.181 648.959 198.181 648.752C198.181 648.551 198.133 648.396 198.036 648.286C197.945 648.169 197.822 648.111 197.667 648.111C197.505 648.111 197.379 648.169 197.289 648.286C197.198 648.396 197.153 648.551 197.153 648.752Z" fill="white"/>
<path d="M179.877 743.819C180.291 743.916 180.617 744.117 180.857 744.421C181.103 744.725 181.226 745.078 181.226 745.479C181.226 746.067 181.028 746.527 180.634 746.857C180.246 747.187 179.686 747.352 178.955 747.352H175.762V740.491H178.877C179.576 740.491 180.116 740.643 180.498 740.947C180.879 741.251 181.07 741.685 181.07 742.247C181.07 742.661 180.96 743.008 180.74 743.286C180.52 743.557 180.233 743.735 179.877 743.819ZM177.422 743.295H178.509C179.084 743.295 179.372 743.05 179.372 742.558C179.372 742.066 179.078 741.821 178.489 741.821H177.422V743.295ZM178.606 746.003C179.22 746.003 179.527 745.75 179.527 745.246C179.527 745 179.447 744.809 179.285 744.673C179.123 744.531 178.893 744.46 178.596 744.46H177.422V746.003H178.606ZM184.256 741.869C184.67 741.869 185.026 741.963 185.324 742.15C185.621 742.338 185.841 742.594 185.983 742.917V741.937H187.633V747.352H185.983V746.371C185.841 746.695 185.621 746.95 185.324 747.138C185.026 747.326 184.67 747.419 184.256 747.419C183.81 747.419 183.409 747.31 183.053 747.09C182.704 746.863 182.425 746.54 182.218 746.119C182.018 745.699 181.918 745.207 181.918 744.644C181.918 744.075 182.018 743.583 182.218 743.169C182.425 742.749 182.704 742.429 183.053 742.209C183.409 741.982 183.81 741.869 184.256 741.869ZM184.79 743.325C184.434 743.325 184.146 743.441 183.926 743.674C183.713 743.907 183.606 744.23 183.606 744.644C183.606 745.058 183.713 745.382 183.926 745.615C184.146 745.848 184.434 745.964 184.79 745.964C185.139 745.964 185.424 745.844 185.644 745.605C185.87 745.366 185.983 745.045 185.983 744.644C185.983 744.237 185.87 743.916 185.644 743.684C185.424 743.444 185.139 743.325 184.79 743.325ZM192.308 741.879C192.929 741.879 193.42 742.086 193.783 742.5C194.151 742.914 194.336 743.483 194.336 744.208V747.352H192.676V744.402C192.676 744.039 192.579 743.758 192.385 743.557C192.198 743.35 191.945 743.247 191.628 743.247C191.292 743.247 191.024 743.354 190.823 743.567C190.629 743.781 190.532 744.085 190.532 744.479V747.352H188.873V741.937H190.532V742.927C190.687 742.603 190.917 742.348 191.221 742.16C191.531 741.973 191.894 741.879 192.308 741.879ZM198.807 747.352L197.186 745.052V747.352H195.527V740.171H197.186V744.111L198.807 741.937H200.757L198.574 744.644L200.806 747.352H198.807Z" fill="white"/>
<path fill-rule="evenodd" clip-rule="evenodd" d="M182.524 1031.4L138.105 954.463C135.971 950.767 130.635 950.767 128.501 954.463L84.0822 1031.4C81.948 1035.1 84.6158 1039.72 88.8843 1039.72H118.532V1036.25H88.8843C87.2836 1036.25 86.2831 1034.52 87.0835 1033.13L131.502 956.196C132.303 954.81 134.304 954.81 135.104 956.196L179.523 1033.13C180.323 1034.52 179.323 1036.25 177.722 1036.25H148.127V1039.72H177.722C181.991 1039.72 184.658 1035.1 182.524 1031.4Z" fill="#B71C22"/>
<path d="M130.213 976.949V984.988H128.799V976.949C128.799 976.696 128.959 976.49 129.156 976.49H129.856C130.053 976.49 130.213 976.696 130.213 976.949Z" fill="#425669"/>
<path d="M138.662 985.291V989.898C138.662 990.009 138.563 990.107 138.453 990.107H127.934C127.823 990.107 127.725 990.009 127.725 989.898V985.291C127.725 984.885 128.044 984.564 128.45 984.564H137.937C138.342 984.564 138.662 984.885 138.662 985.291Z" fill="#E5E7EB"/>
<path d="M138.662 985.452H127.725V986.031H138.662V985.452Z" fill="#78A0C5"/>
<path d="M136.881 987.274V988.851H135.468V987.287C135.468 987.09 135.628 986.929 135.824 986.929H136.525C136.721 986.917 136.881 987.077 136.881 987.274Z" fill="#B0B3B5"/>
<path d="M133.905 987.274V988.851H132.492V987.287C132.492 987.09 132.652 986.929 132.849 986.929H133.549C133.746 986.917 133.905 987.077 133.905 987.274Z" fill="#B0B3B5"/>
<path d="M130.921 987.274V988.851H129.508V987.287C129.508 987.09 129.668 986.929 129.864 986.929H130.565C130.761 986.917 130.921 987.077 130.921 987.274Z" fill="#B0B3B5"/>
<rect x="112.993" y="997.613" width="5.64953" height="11.9818" fill="#D9AA06" stroke="black" stroke-width="0.207935"/>
<path d="M118.642 997.59C118.642 997.712 118.58 997.839 118.444 997.965C118.309 998.092 118.107 998.211 117.85 998.313C117.335 998.517 116.616 998.646 115.817 998.646C115.018 998.646 114.299 998.517 113.784 998.313C113.526 998.211 113.325 998.092 113.189 997.965C113.054 997.839 112.992 997.712 112.992 997.59C112.992 997.468 113.054 997.341 113.189 997.214C113.325 997.088 113.526 996.969 113.784 996.867C114.299 996.663 115.018 996.534 115.817 996.534C116.616 996.534 117.335 996.663 117.85 996.867C118.107 996.969 118.309 997.088 118.444 997.214C118.58 997.341 118.642 997.468 118.642 997.59Z" fill="#FFC700" stroke="black" stroke-width="0.207935"/>
<rect x="118.603" y="993.298" width="5.64953" height="11.9818" fill="#D9AA06" stroke="black" stroke-width="0.207935"/>
<path d="M124.253 993.275C124.253 993.397 124.192 993.524 124.056 993.65C123.921 993.777 123.719 993.896 123.461 993.998C122.946 994.202 122.228 994.331 121.429 994.331C120.63 994.331 119.911 994.202 119.396 993.998C119.138 993.896 118.937 993.777 118.801 993.65C118.666 993.524 118.604 993.397 118.604 993.275C118.604 993.153 118.666 993.026 118.801 992.899C118.937 992.773 119.138 992.654 119.396 992.552C119.911 992.348 120.63 992.219 121.429 992.219C122.228 992.219 122.946 992.348 123.461 992.552C123.719 992.654 123.921 992.773 124.056 992.899C124.192 993.026 124.253 993.153 124.253 993.275Z" fill="#FFC700" stroke="black" stroke-width="0.207935"/>
<rect x="124.46" y="990.431" width="5.64953" height="11.9818" fill="#D9AA06" stroke="black" stroke-width="0.207935"/>
<path d="M130.11 990.408C130.11 990.53 130.048 990.657 129.913 990.783C129.777 990.91 129.576 991.029 129.318 991.131C128.803 991.335 128.084 991.463 127.285 991.463C126.486 991.463 125.768 991.335 125.253 991.131C124.995 991.029 124.793 990.91 124.658 990.783C124.522 990.657 124.46 990.53 124.46 990.408C124.46 990.286 124.522 990.159 124.658 990.032C124.793 989.905 124.995 989.786 125.253 989.684C125.768 989.48 126.486 989.352 127.285 989.352C128.084 989.352 128.803 989.48 129.318 989.684C129.576 989.786 129.777 989.905 129.913 990.032C130.048 990.159 130.11 990.286 130.11 990.408Z" fill="#FFC700" stroke="black" stroke-width="0.207935"/>
<rect x="130.12" y="988.112" width="5.64953" height="11.9818" fill="#D9AA06" stroke="black" stroke-width="0.207935"/>
<path d="M135.77 988.088C135.77 988.21 135.708 988.337 135.573 988.464C135.437 988.59 135.236 988.709 134.978 988.812C134.463 989.015 133.744 989.144 132.945 989.144C132.146 989.144 131.428 989.015 130.913 988.812C130.655 988.709 130.453 988.59 130.318 988.464C130.183 988.337 130.121 988.21 130.121 988.088C130.121 987.966 130.183 987.839 130.318 987.713C130.453 987.586 130.655 987.467 130.913 987.365C131.428 987.161 132.146 987.032 132.945 987.032C133.744 987.032 134.463 987.161 134.978 987.365C135.236 987.467 135.437 987.586 135.573 987.713C135.708 987.839 135.77 987.966 135.77 988.088Z" fill="#FFC700" stroke="black" stroke-width="0.207935"/>
<rect x="135.836" y="990.431" width="5.64953" height="11.9818" fill="#D9AA06" stroke="black" stroke-width="0.207935"/>
<path d="M141.486 990.408C141.486 990.53 141.424 990.657 141.289 990.783C141.153 990.91 140.952 991.029 140.694 991.131C140.179 991.335 139.46 991.464 138.661 991.464C137.862 991.464 137.144 991.335 136.629 991.131C136.371 991.029 136.169 990.91 136.034 990.783C135.898 990.657 135.836 990.53 135.836 990.408C135.836 990.286 135.898 990.159 136.034 990.032C136.169 989.906 136.371 989.787 136.629 989.685C137.144 989.481 137.862 989.352 138.661 989.352C139.46 989.352 140.179 989.481 140.694 989.685C140.952 989.787 141.153 989.906 141.289 990.032C141.424 990.159 141.486 990.286 141.486 990.408Z" fill="#FFC700" stroke="black" stroke-width="0.207935"/>
<rect x="141.39" y="993.298" width="5.64953" height="11.9818" fill="#D9AA06" stroke="black" stroke-width="0.207935"/>
<path d="M147.041 993.275C147.041 993.397 146.979 993.524 146.844 993.65C146.708 993.777 146.507 993.896 146.249 993.998C145.734 994.202 145.015 994.331 144.216 994.331C143.417 994.331 142.699 994.202 142.184 993.998C141.926 993.896 141.724 993.777 141.589 993.65C141.454 993.524 141.392 993.397 141.392 993.275C141.392 993.153 141.454 993.026 141.589 992.899C141.724 992.773 141.926 992.654 142.184 992.552C142.699 992.348 143.417 992.219 144.216 992.219C145.015 992.219 145.734 992.348 146.249 992.552C146.507 992.654 146.708 992.773 146.844 992.899C146.979 993.026 147.041 993.153 147.041 993.275Z" fill="#FFC700" stroke="black" stroke-width="0.207935"/>
<rect x="147.248" y="997.613" width="5.64953" height="11.9818" fill="#D9AA06" stroke="black" stroke-width="0.207935"/>
<path d="M152.898 997.59C152.898 997.712 152.836 997.839 152.7 997.965C152.565 998.092 152.363 998.211 152.105 998.313C151.59 998.517 150.872 998.646 150.073 998.646C149.274 998.646 148.555 998.517 148.04 998.313C147.782 998.211 147.581 998.092 147.445 997.965C147.31 997.839 147.248 997.712 147.248 997.59C147.248 997.468 147.31 997.341 147.445 997.214C147.581 997.088 147.782 996.969 148.04 996.867C148.555 996.663 149.274 996.534 150.073 996.534C150.872 996.534 151.59 996.663 152.105 996.867C152.363 996.969 152.565 997.088 152.7 997.214C152.836 997.341 152.898 997.468 152.898 997.59Z" fill="#FFC700" stroke="black" stroke-width="0.207935"/>
<path d="M151.833 1005.85L134.469 998.89C134.026 998.718 133.559 998.619 133.08 998.607C132.613 998.619 132.146 998.705 131.691 998.89L114.339 1005.85C113.172 1006.32 112.594 1007.65 113.037 1008.82L116.429 1017.71V1022.71C116.429 1023.83 117.338 1024.73 118.444 1024.73H133.068H147.691C148.81 1024.73 149.707 1023.82 149.707 1022.71V1017.71L153.098 1008.82C153.578 1007.64 153 1006.32 151.833 1005.85Z" fill="black"/>
<path d="M133.068 1003.75L113.392 1009.76L113.979 1011.3L133.08 1005.86L152.277 1010.99L152.743 1009.76L133.068 1003.75Z" fill="#292D39"/>
<path d="M134.469 998.87L151.833 1005.83C153 1006.3 153.578 1007.62 153.098 1008.8L133.08 1002.59L113.037 1008.8C112.594 1007.63 113.172 1006.3 114.339 1005.83L131.691 998.87C132.146 998.685 132.613 998.599 133.08 998.587C133.559 998.599 134.026 998.698 134.469 998.87Z" fill="#292D39"/>
<path d="M116.44 1019.92V1022.71C116.44 1023.83 117.35 1024.73 118.456 1024.73H133.08H147.703C148.822 1024.73 149.719 1023.82 149.719 1022.71V1019.92H116.44Z" fill="#292D39"/>
<path d="M132.134 1026.57C130.229 1026.57 128.914 1025.91 128.128 1025.34C127.882 1025.15 127.563 1025.11 127.28 1025.24C122.451 1027.31 119.071 1026.04 117.584 1025.18C117.363 1025.04 117.093 1025.03 116.847 1025.11C114.475 1026.01 112.275 1025.99 111.083 1025.88C110.567 1025.83 110.223 1025.34 110.334 1024.83L110.371 1024.67C110.469 1024.25 110.862 1023.97 111.292 1024.01C112.423 1024.12 114.672 1024.13 116.957 1023.03L117.007 1023.01C117.314 1022.86 117.682 1022.91 117.941 1023.14L117.977 1023.18C118.113 1023.3 121.529 1026.12 127.538 1023.04L127.6 1023.02C127.981 1022.82 128.435 1022.93 128.681 1023.28L128.718 1023.33C128.804 1023.45 131.2 1026.47 137.492 1023.06L137.529 1023.03C137.775 1022.9 138.057 1022.9 138.303 1023.01L138.34 1023.02C138.389 1023.04 143.047 1025.15 148.183 1023.01L148.22 1023C148.478 1022.88 148.773 1022.91 149.007 1023.06L149.044 1023.08C149.056 1023.09 151.084 1024.29 154.93 1023.92C155.385 1023.87 155.79 1024.2 155.852 1024.65L155.876 1024.79C155.95 1025.29 155.594 1025.73 155.102 1025.78C151.956 1026.09 149.83 1025.47 148.786 1025.03C148.589 1024.95 148.38 1024.94 148.183 1025.02C143.809 1026.58 139.925 1025.59 138.328 1025.03C138.107 1024.95 137.873 1024.97 137.664 1025.07C135.428 1026.17 133.597 1026.57 132.134 1026.57Z" fill="#599DC9"/>
<path d="M116.844 1013.38C117.103 1013.38 117.313 1013.15 117.313 1012.87C117.313 1012.59 117.103 1012.37 116.844 1012.37C116.585 1012.37 116.375 1012.59 116.375 1012.87C116.375 1013.15 116.585 1013.38 116.844 1013.38Z" fill="white"/>
<path d="M123.14 1011.38C123.447 1011.38 123.696 1011.11 123.696 1010.78C123.696 1010.44 123.447 1010.18 123.14 1010.18C122.834 1010.18 122.585 1010.44 122.585 1010.78C122.585 1011.11 122.834 1011.38 123.14 1011.38Z" fill="white"/>
<path d="M129.572 1009.91C129.926 1009.91 130.214 1009.6 130.214 1009.22C130.214 1008.84 129.926 1008.53 129.572 1008.53C129.217 1008.53 128.93 1008.84 128.93 1009.22C128.93 1009.6 129.217 1009.91 129.572 1009.91Z" fill="white"/>
<path d="M148.966 1013.46C148.703 1013.46 148.489 1013.23 148.489 1012.95C148.489 1012.66 148.703 1012.43 148.966 1012.43C149.229 1012.43 149.443 1012.66 149.443 1012.95C149.443 1013.23 149.229 1013.46 148.966 1013.46Z" fill="white"/>
<path d="M142.559 1011.42C142.247 1011.42 141.994 1011.15 141.994 1010.81C141.994 1010.48 142.247 1010.2 142.559 1010.2C142.871 1010.2 143.124 1010.48 143.124 1010.81C143.124 1011.15 142.871 1011.42 142.559 1011.42Z" fill="white"/>
<path d="M136.019 1009.94C135.659 1009.94 135.366 1009.62 135.366 1009.23C135.366 1008.84 135.659 1008.53 136.019 1008.53C136.38 1008.53 136.672 1008.84 136.672 1009.23C136.672 1009.62 136.38 1009.94 136.019 1009.94Z" fill="white"/>
<path d="M125.284 942.233V940.846L128.419 936.547H130.204V940.787H131.029V942.233H130.204V943.495H128.525V942.233H125.284ZM128.661 938.468L126.973 940.787H128.661V938.468ZM131.804 942.175C133.861 940.706 134.89 939.539 134.89 938.672C134.89 938.141 134.66 937.876 134.201 937.876C133.942 937.876 133.751 937.967 133.628 938.148C133.512 938.329 133.447 938.61 133.434 938.992H131.814C131.853 938.158 132.105 937.53 132.571 937.11C133.036 936.689 133.625 936.479 134.337 936.479C135.081 936.479 135.64 936.667 136.015 937.042C136.397 937.417 136.588 937.905 136.588 938.507C136.588 939.173 136.332 939.827 135.821 940.467C135.31 941.101 134.699 941.638 133.987 942.078H136.695V943.417H131.804V942.175ZM138.94 936.518C139.412 936.518 139.797 936.66 140.095 936.945C140.399 937.229 140.551 937.63 140.551 938.148C140.551 938.665 140.399 939.067 140.095 939.351C139.797 939.636 139.412 939.778 138.94 939.778C138.455 939.778 138.06 939.636 137.756 939.351C137.459 939.067 137.31 938.665 137.31 938.148C137.31 937.63 137.459 937.229 137.756 936.945C138.06 936.66 138.455 936.518 138.94 936.518ZM143.646 936.615L139.901 943.495H138.3L142.045 936.615H143.646ZM138.416 938.148C138.416 938.348 138.461 938.507 138.552 938.623C138.643 938.733 138.765 938.788 138.921 938.788C139.082 938.788 139.212 938.733 139.309 938.623C139.406 938.507 139.454 938.348 139.454 938.148C139.454 937.947 139.406 937.792 139.309 937.682C139.212 937.566 139.082 937.507 138.921 937.507C138.765 937.507 138.643 937.566 138.552 937.682C138.461 937.792 138.416 937.947 138.416 938.148ZM143.016 940.322C143.494 940.322 143.882 940.464 144.18 940.749C144.478 941.033 144.626 941.434 144.626 941.952C144.626 942.469 144.478 942.874 144.18 943.165C143.882 943.449 143.494 943.592 143.016 943.592C142.543 943.592 142.155 943.449 141.851 943.165C141.554 942.874 141.405 942.469 141.405 941.952C141.405 941.434 141.554 941.033 141.851 940.749C142.155 940.464 142.543 940.322 143.016 940.322ZM142.501 941.952C142.501 942.159 142.547 942.32 142.637 942.437C142.728 942.547 142.854 942.602 143.016 942.602C143.171 942.602 143.294 942.547 143.384 942.437C143.481 942.32 143.53 942.159 143.53 941.952C143.53 941.751 143.481 941.596 143.384 941.486C143.294 941.37 143.171 941.311 143.016 941.311C142.854 941.311 142.728 941.37 142.637 941.486C142.547 941.596 142.501 941.751 142.501 941.952Z" fill="white"/>
<path d="M124.821 1037.02C125.235 1037.12 125.561 1037.32 125.801 1037.62C126.047 1037.93 126.169 1038.28 126.169 1038.68C126.169 1039.27 125.972 1039.73 125.578 1040.06C125.189 1040.39 124.63 1040.55 123.899 1040.55H120.706V1033.69H123.821C124.52 1033.69 125.06 1033.84 125.442 1034.15C125.823 1034.45 126.014 1034.88 126.014 1035.45C126.014 1035.86 125.904 1036.21 125.684 1036.49C125.464 1036.76 125.176 1036.94 124.821 1037.02ZM122.366 1036.5H123.452C124.028 1036.5 124.316 1036.25 124.316 1035.76C124.316 1035.27 124.022 1035.02 123.433 1035.02H122.366V1036.5ZM123.549 1039.2C124.164 1039.2 124.471 1038.95 124.471 1038.45C124.471 1038.2 124.39 1038.01 124.229 1037.87C124.067 1037.73 123.837 1037.66 123.54 1037.66H122.366V1039.2H123.549ZM129.2 1035.07C129.614 1035.07 129.97 1035.16 130.267 1035.35C130.565 1035.54 130.785 1035.79 130.927 1036.12V1035.14H132.577V1040.55H130.927V1039.57C130.785 1039.9 130.565 1040.15 130.267 1040.34C129.97 1040.53 129.614 1040.62 129.2 1040.62C128.754 1040.62 128.353 1040.51 127.997 1040.29C127.647 1040.06 127.369 1039.74 127.162 1039.32C126.962 1038.9 126.862 1038.41 126.862 1037.84C126.862 1037.28 126.962 1036.78 127.162 1036.37C127.369 1035.95 127.647 1035.63 127.997 1035.41C128.353 1035.18 128.754 1035.07 129.2 1035.07ZM129.734 1036.52C129.378 1036.52 129.09 1036.64 128.87 1036.87C128.657 1037.11 128.55 1037.43 128.55 1037.84C128.55 1038.26 128.657 1038.58 128.87 1038.81C129.09 1039.05 129.378 1039.16 129.734 1039.16C130.083 1039.16 130.368 1039.04 130.588 1038.81C130.814 1038.57 130.927 1038.25 130.927 1037.84C130.927 1037.44 130.814 1037.12 130.588 1036.88C130.368 1036.64 130.083 1036.52 129.734 1036.52ZM137.251 1035.08C137.873 1035.08 138.364 1035.29 138.726 1035.7C139.095 1036.11 139.28 1036.68 139.28 1037.41V1040.55H137.62V1037.6C137.62 1037.24 137.523 1036.96 137.329 1036.76C137.142 1036.55 136.889 1036.45 136.572 1036.45C136.236 1036.45 135.967 1036.55 135.767 1036.77C135.573 1036.98 135.476 1037.28 135.476 1037.68V1040.55H133.816V1035.14H135.476V1036.13C135.631 1035.8 135.861 1035.55 136.165 1035.36C136.475 1035.17 136.837 1035.08 137.251 1035.08ZM143.751 1040.55L142.13 1038.25V1040.55H140.471V1033.37H142.13V1037.31L143.751 1035.14H145.701L143.518 1037.84L145.75 1040.55H143.751Z" fill="white"/>
<path d="M364.299 766.024H376.676L384.928 818.537H356.046L364.299 766.024Z" fill="#3E61C4"/>
<path d="M352.107 818.537H388.866V831.665H352.107V818.537Z" fill="#D3D3D3"/>
<path d="M383.616 823.788H382.303C381.578 823.788 380.99 824.376 380.99 825.101V826.414C380.99 827.139 381.578 827.727 382.303 827.727H383.616C384.341 827.727 384.929 827.139 384.929 826.414V825.101C384.929 824.376 384.341 823.788 383.616 823.788Z" fill="#2747A3"/>
<path d="M375.739 823.788H374.426C373.701 823.788 373.113 824.376 373.113 825.101V826.414C373.113 827.139 373.701 827.727 374.426 827.727H375.739C376.464 827.727 377.052 827.139 377.052 826.414V825.101C377.052 824.376 376.464 823.788 375.739 823.788Z" fill="#2747A3"/>
<path d="M366.549 823.788H365.236C364.511 823.788 363.923 824.376 363.923 825.101V826.414C363.923 827.139 364.511 827.727 365.236 827.727H366.549C367.274 827.727 367.862 827.139 367.862 826.414V825.101C367.862 824.376 367.274 823.788 366.549 823.788Z" fill="#2747A3"/>
<path d="M358.672 823.789H357.359C356.634 823.789 356.046 824.376 356.046 825.101V826.414C356.046 827.139 356.634 827.727 357.359 827.727H358.672C359.397 827.727 359.985 827.139 359.985 826.414V825.101C359.985 824.376 359.397 823.789 358.672 823.789Z" fill="#2747A3"/>
<path d="M358.165 805.057L384.536 816.039L384.034 812.847L360.245 802.941L381.33 795.641L380.623 791.144L363.466 784.356L378.615 778.363L378.002 774.463L363.691 769.934L363.68 769.955L363.259 772.639L375.682 776.571L361.777 782.073L361.101 786.371L379.156 793.513L358.875 800.534L358.165 805.057Z" fill="#2747A3"/>
<path d="M335.041 766.68H337.666V780.465H335.041V766.68Z" fill="#2747A3"/>
<path d="M332.415 779.152H340.292V784.404H332.415V779.152Z" fill="#5D86FA"/>
<path d="M328.477 784.404H344.23V794.906H328.477V784.404Z" fill="#B71C22"/>
<path d="M328.477 784.404V794.906L344.23 784.404H328.477Z" fill="#6D1415"/>
<path d="M336.545 764.711L336.096 762.137L370.43 752.921C370.599 752.885 370.774 752.891 370.939 752.938C371.105 752.986 371.257 753.073 371.38 753.193C371.515 753.325 371.622 753.484 371.694 753.658C371.766 753.833 371.802 754.02 371.799 754.209V763.398H369.51V755.81L336.545 764.711Z" fill="#2747A3"/>
<path d="M335.041 762.086H387.553V767.337H335.041V762.086Z" fill="#AFAFAF"/>
<path d="M388.233 1079.4H400.611L408.863 1131.91H379.981L388.233 1079.4Z" fill="#3E61C4"/>
<path d="M376.042 1131.91H412.801V1145.04H376.042V1131.91Z" fill="#D3D3D3"/>
<path d="M407.55 1137.17H406.238C405.513 1137.17 404.925 1137.75 404.925 1138.48V1139.79C404.925 1140.52 405.513 1141.1 406.238 1141.1H407.55C408.275 1141.1 408.863 1140.52 408.863 1139.79V1138.48C408.863 1137.75 408.275 1137.17 407.55 1137.17Z" fill="#2747A3"/>
<path d="M399.673 1137.17H398.361C397.636 1137.17 397.048 1137.75 397.048 1138.48V1139.79C397.048 1140.52 397.636 1141.1 398.361 1141.1H399.673C400.399 1141.1 400.986 1140.52 400.986 1139.79V1138.48C400.986 1137.75 400.399 1137.17 399.673 1137.17Z" fill="#2747A3"/>
<path d="M390.484 1137.17H389.171C388.446 1137.17 387.858 1137.75 387.858 1138.48V1139.79C387.858 1140.52 388.446 1141.1 389.171 1141.1H390.484C391.209 1141.1 391.796 1140.52 391.796 1139.79V1138.48C391.796 1137.75 391.209 1137.17 390.484 1137.17Z" fill="#2747A3"/>
<path d="M382.607 1137.17H381.294C380.569 1137.17 379.981 1137.75 379.981 1138.48V1139.79C379.981 1140.52 380.569 1141.1 381.294 1141.1H382.607C383.332 1141.1 383.919 1140.52 383.919 1139.79V1138.48C383.919 1137.75 383.332 1137.17 382.607 1137.17Z" fill="#2747A3"/>
<path d="M382.1 1118.43L408.47 1129.42L407.969 1126.22L384.179 1116.32L405.264 1109.02L404.558 1104.52L387.401 1097.73L402.549 1091.74L401.936 1087.84L387.625 1083.31L387.615 1083.33L387.193 1086.02L399.617 1089.95L385.711 1095.45L385.035 1099.75L403.09 1106.89L382.81 1113.91L382.1 1118.43Z" fill="#2747A3"/>
<path d="M358.975 1080.06H361.601V1093.84H358.975V1080.06Z" fill="#2747A3"/>
<path d="M356.35 1092.53H364.227V1097.78H356.35V1092.53Z" fill="#5D86FA"/>
<path d="M352.411 1097.78H368.165V1108.28H352.411V1097.78Z" fill="#B71C22"/>
<path d="M352.411 1097.78V1108.28L368.165 1097.78H352.411Z" fill="#6D1415"/>
<path d="M360.48 1078.09L360.03 1075.51L394.365 1066.3C394.533 1066.26 394.708 1066.27 394.874 1066.32C395.04 1066.36 395.191 1066.45 395.315 1066.57C395.45 1066.7 395.556 1066.86 395.628 1067.03C395.7 1067.21 395.736 1067.4 395.734 1067.59V1076.78H393.445V1069.19L360.48 1078.09Z" fill="#2747A3"/>
<path d="M358.975 1075.46H411.488V1080.71H358.975V1075.46Z" fill="#AFAFAF"/>
<defs>
<linearGradient id="paint0_linear" x1="-352.091" y1="558.302" x2="1073.85" y2="558.302" gradientUnits="userSpaceOnUse">
<stop offset="0.1539" stop-color="#20CBDD"/>
<stop offset="0.7683" stop-color="#2ED4F1"/>
</linearGradient>
<linearGradient id="paint1_linear" x1="-239.018" y1="580.304" x2="1089.05" y2="580.304" gradientUnits="userSpaceOnUse">
<stop offset="0.1539" stop-color="#6EDFEB" stop-opacity="0.7"/>
<stop offset="0.7683" stop-color="#2ED4F1"/>
</linearGradient>
<linearGradient id="paint2_linear" x1="-189.314" y1="580.264" x2="1083.63" y2="580.264" gradientUnits="userSpaceOnUse">
<stop offset="0.1539" stop-color="#6EDFEB"/>
<stop offset="0.7683" stop-color="#25CCE9"/>
</linearGradient>
<linearGradient id="paint3_linear" x1="1216.05" y1="891.784" x2="177.488" y2="894.48" gradientUnits="userSpaceOnUse">
<stop stop-color="#FFEAD4"/>
<stop offset="0.8985" stop-color="#FFDFA8"/>
</linearGradient>
</defs>
</svg>
