<svg width="715" height="988" viewBox="0 0 715 988" fill="none" xmlns="http://www.w3.org/2000/svg">
<mask id="mask0" mask-type="alpha" maskUnits="userSpaceOnUse" x="1" y="0" width="714" height="988">
<path d="M701.711 536.331C708.218 483.934 703.988 430.856 688.952 379.532C727.796 421.656 713.643 501.617 701.711 536.331Z" fill="#C4C4C4"/>
<path d="M610.775 218.404C586.822 191.039 558.754 174.518 526.553 155.566C516.112 149.42 505.237 143.019 493.927 135.91C562.54 149.12 600.414 191.052 610.775 218.404Z" fill="#C4C4C4"/>
<path d="M335.726 43.5011C288.659 28.1903 235.035 18.3656 179.045 10.4351C251.31 -6.71642 314.311 24.6294 335.726 43.5011Z" fill="#C4C4C4"/>
<path d="M1.32623 978.091C40.7009 978.091 78.4243 976.3 114.492 972.872C93.1395 982.907 40.6129 998 1.32623 978.091Z" fill="#C4C4C4"/>
<path d="M239.487 953.205C302.081 939.111 358.323 919.473 408.179 895.436C388.194 917.435 326.477 959.788 239.487 953.205Z" fill="#C4C4C4"/>
<path fill-rule="evenodd" clip-rule="evenodd" d="M1.32623 978.091L1.32623 0.536377C76.6619 29.5485 154.912 18.7792 179.045 10.4351C235.035 18.3656 288.659 28.1903 335.726 43.5011C374.565 80.6281 458.778 127.725 493.927 135.91C505.237 143.019 516.112 149.42 526.553 155.566C558.754 174.518 586.822 191.039 610.775 218.404C612.106 245.903 659.763 337.625 688.952 379.532C703.988 430.856 708.218 483.934 701.711 536.331C699.024 540.794 694.763 546.198 689.694 552.626C669.095 578.75 635.15 621.801 639.208 687.402C643.343 754.266 571.054 793.791 541.521 808.731C505.92 819.362 429.409 851.586 408.179 895.436C358.323 919.473 302.081 939.111 239.487 953.205C209.985 951.485 143.684 953.011 114.492 972.872C78.4243 976.3 40.7009 978.091 1.32623 978.091Z" fill="#C4C4C4"/>
</mask>
<g mask="url(#mask0)">
<path d="M805.623 1187.1L805.623 -139.116L-202 -134.941L-202 1187.1L805.623 1187.1Z" fill="url(#paint0_linear)"/>
</g>
<mask id="mask1" mask-type="alpha" maskUnits="userSpaceOnUse" x="1" y="60" width="587" height="869">
<path d="M576.651 531.25C581.997 485.172 578.522 438.495 566.17 393.361C598.078 430.405 586.453 500.722 576.651 531.25Z" fill="#C4C4C4"/>
<path d="M501.952 251.666C482.277 227.602 459.22 213.073 432.769 196.407C424.192 191.002 415.259 185.373 405.968 179.122C462.33 190.739 493.442 227.614 501.952 251.666Z" fill="#C4C4C4"/>
<path d="M276.015 97.8577C237.352 84.3935 193.303 75.7537 147.311 68.7796C206.672 53.6966 258.424 81.262 276.015 97.8577Z" fill="#C4C4C4"/>
<path d="M1.32465 919.731C33.6688 919.731 64.6563 918.156 94.2838 915.142C76.744 923.967 33.5964 937.239 1.32465 919.731Z" fill="#C4C4C4"/>
<path d="M196.96 897.846C248.378 885.452 294.577 868.182 335.532 847.045C319.115 866.391 268.417 903.635 196.96 897.846Z" fill="#C4C4C4"/>
<path fill-rule="evenodd" clip-rule="evenodd" d="M1.32465 919.731L1.32465 60.0747C63.2086 85.5879 127.486 76.1173 147.311 68.7796C193.303 75.7537 237.352 84.3935 276.015 97.8577C307.919 130.507 377.095 171.923 405.968 179.122C415.259 185.373 424.192 191.002 432.769 196.407C459.22 213.073 482.277 227.602 501.952 251.666C503.045 275.849 542.193 356.509 566.17 393.361C578.522 438.495 581.997 485.172 576.651 531.25C574.444 535.174 570.944 539.926 566.78 545.58C549.859 568.553 521.975 606.411 525.308 664.101C528.705 722.9 469.324 757.659 445.064 770.797C415.82 780.146 352.97 808.484 335.532 847.045C294.577 868.182 248.378 885.452 196.96 897.846C172.726 896.334 118.263 897.676 94.2838 915.142C64.6563 918.156 33.6688 919.731 1.32465 919.731Z" fill="#C4C4C4"/>
</mask>
<g mask="url(#mask1)">
<path d="M756.797 1190.95L756.797 -142.637L-189.658 -138.439L-189.658 1190.95L756.797 1190.95Z" fill="white"/>
</g>
<mask id="mask2" mask-type="alpha" maskUnits="userSpaceOnUse" x="0" y="79" width="563" height="833">
<path d="M552.278 531.013C557.404 486.821 554.071 442.055 542.225 398.768C572.827 434.296 561.678 501.735 552.278 531.013Z" fill="#C4C4C4"/>
<path d="M480.636 262.873C461.766 239.794 439.653 225.86 414.284 209.876C406.059 204.693 397.491 199.294 388.581 193.298C442.635 204.44 472.474 239.805 480.636 262.873Z" fill="#C4C4C4"/>
<path d="M263.947 115.361C226.867 102.448 184.621 94.1614 140.511 87.4728C197.443 73.0073 247.076 99.4443 263.947 115.361Z" fill="#C4C4C4"/>
<path d="M0.500427 903.593C31.5206 903.593 61.2397 902.082 89.6545 899.191C72.8326 907.655 31.4512 920.384 0.500427 903.593Z" fill="#C4C4C4"/>
<path d="M188.128 882.604C237.441 870.717 281.749 854.154 321.027 833.882C305.283 852.436 256.66 888.155 188.128 882.604Z" fill="#C4C4C4"/>
<path fill-rule="evenodd" clip-rule="evenodd" d="M0.500427 903.593L0.500427 79.1243C59.8513 103.593 121.498 94.5102 140.511 87.4728C184.621 94.1614 226.867 102.448 263.947 115.361C294.545 146.674 360.89 186.395 388.581 193.298C397.491 199.294 406.059 204.693 414.284 209.876C439.653 225.86 461.766 239.794 480.636 262.873C481.684 286.066 519.23 363.424 542.225 398.768C554.071 442.055 557.404 486.821 552.278 531.013C550.16 534.777 546.804 539.334 542.81 544.756C526.582 566.789 499.839 603.098 503.036 658.426C506.294 714.819 449.343 748.154 426.077 760.755C398.029 769.721 337.752 796.899 321.027 833.882C281.749 854.154 237.441 870.717 188.128 882.604C164.886 881.153 112.652 882.44 89.6545 899.191C61.2397 902.082 31.5206 903.593 0.500427 903.593Z" fill="#C4C4C4"/>
</mask>
<g mask="url(#mask2)">
<path d="M725.049 1163.71L725.049 -115.29L-182.665 -111.264L-182.665 1163.71L725.049 1163.71Z" fill="url(#paint1_linear)"/>
</g>
<path fill-rule="evenodd" clip-rule="evenodd" d="M649.467 361.987L605.909 286.542C603.816 282.917 598.584 282.918 596.491 286.542L552.933 361.987C550.84 365.612 553.457 370.143 557.642 370.143H586.716V366.744H557.642C556.073 366.744 555.092 365.045 555.876 363.686L599.434 288.242C600.219 286.882 602.181 286.882 602.966 288.242L646.524 363.686C647.308 365.045 646.327 366.744 644.758 366.744H615.737V370.143H644.758C648.943 370.143 651.56 365.612 649.467 361.987Z" fill="#B71C22"/>
<path d="M598.171 308.593V316.475H596.785V308.593C596.785 308.344 596.942 308.143 597.135 308.143H597.822C598.014 308.143 598.171 308.344 598.171 308.593Z" fill="#425669"/>
<path d="M606.457 316.773V321.29C606.457 321.399 606.36 321.496 606.252 321.496H595.937C595.828 321.496 595.732 321.399 595.732 321.29V316.773C595.732 316.374 596.045 316.06 596.443 316.06H605.746C606.143 316.06 606.457 316.374 606.457 316.773Z" fill="#E5E7EB"/>
<path d="M606.457 316.93H595.732V317.498H606.457V316.93Z" fill="#78A0C5"/>
<path d="M604.71 318.717V320.263H603.324V318.729C603.324 318.536 603.481 318.379 603.674 318.379H604.361C604.554 318.367 604.71 318.524 604.71 318.717Z" fill="#B0B3B5"/>
<path d="M601.793 318.717V320.263H600.407V318.729C600.407 318.536 600.564 318.379 600.757 318.379H601.444C601.636 318.367 601.793 318.524 601.793 318.717Z" fill="#B0B3B5"/>
<path d="M598.866 318.717V320.263H597.48V318.729C597.48 318.536 597.637 318.379 597.83 318.379H598.517C598.71 318.367 598.866 318.524 598.866 318.717Z" fill="#B0B3B5"/>
<rect x="581.286" y="328.856" width="5.54" height="11.7495" fill="#D9AA06" stroke="black" stroke-width="0.203903"/>
<path d="M586.826 328.833C586.826 328.952 586.765 329.077 586.633 329.201C586.5 329.325 586.302 329.442 586.049 329.542C585.544 329.742 584.84 329.868 584.056 329.868C583.273 329.868 582.568 329.742 582.063 329.542C581.81 329.442 581.612 329.325 581.479 329.201C581.347 329.077 581.286 328.952 581.286 328.833C581.286 328.713 581.347 328.589 581.479 328.465C581.612 328.34 581.81 328.224 582.063 328.123C582.568 327.923 583.273 327.798 584.056 327.798C584.84 327.798 585.544 327.923 586.049 328.123C586.302 328.224 586.5 328.34 586.633 328.465C586.765 328.589 586.826 328.713 586.826 328.833Z" fill="#FFC700" stroke="black" stroke-width="0.203903"/>
<rect x="586.787" y="324.624" width="5.54" height="11.7495" fill="#D9AA06" stroke="black" stroke-width="0.203903"/>
<path d="M592.327 324.602C592.327 324.721 592.267 324.846 592.134 324.97C592.001 325.094 591.804 325.211 591.551 325.311C591.046 325.511 590.341 325.637 589.557 325.637C588.774 325.637 588.069 325.511 587.564 325.311C587.311 325.211 587.114 325.094 586.981 324.97C586.848 324.846 586.787 324.721 586.787 324.602C586.787 324.482 586.848 324.358 586.981 324.233C587.114 324.109 587.311 323.992 587.564 323.892C588.069 323.692 588.774 323.566 589.557 323.566C590.341 323.566 591.046 323.692 591.551 323.892C591.804 323.992 592.001 324.109 592.134 324.233C592.267 324.358 592.327 324.482 592.327 324.602Z" fill="#FFC700" stroke="black" stroke-width="0.203903"/>
<rect x="592.531" y="321.813" width="5.54" height="11.7495" fill="#D9AA06" stroke="black" stroke-width="0.203903"/>
<path d="M598.073 321.79C598.073 321.91 598.012 322.034 597.879 322.159C597.746 322.283 597.549 322.4 597.296 322.5C596.791 322.7 596.086 322.826 595.303 322.826C594.519 322.826 593.814 322.7 593.309 322.5C593.057 322.4 592.859 322.283 592.726 322.159C592.593 322.034 592.533 321.91 592.533 321.79C592.533 321.671 592.593 321.546 592.726 321.422C592.859 321.298 593.057 321.181 593.309 321.081C593.814 320.881 594.519 320.755 595.303 320.755C596.086 320.755 596.791 320.881 597.296 321.081C597.549 321.181 597.746 321.298 597.879 321.422C598.012 321.546 598.073 321.671 598.073 321.79Z" fill="#FFC700" stroke="black" stroke-width="0.203903"/>
<rect x="598.081" y="319.538" width="5.54" height="11.7495" fill="#D9AA06" stroke="black" stroke-width="0.203903"/>
<path d="M603.621 319.515C603.621 319.635 603.561 319.759 603.428 319.884C603.295 320.008 603.098 320.125 602.845 320.225C602.34 320.425 601.635 320.551 600.851 320.551C600.068 320.551 599.363 320.425 598.858 320.225C598.605 320.125 598.408 320.008 598.275 319.884C598.142 319.759 598.081 319.635 598.081 319.515C598.081 319.396 598.142 319.271 598.275 319.147C598.408 319.023 598.605 318.906 598.858 318.806C599.363 318.606 600.068 318.48 600.851 318.48C601.635 318.48 602.34 318.606 602.845 318.806C603.098 318.906 603.295 319.023 603.428 319.147C603.561 319.271 603.621 319.396 603.621 319.515Z" fill="#FFC700" stroke="black" stroke-width="0.203903"/>
<rect x="603.687" y="321.813" width="5.54" height="11.7495" fill="#D9AA06" stroke="black" stroke-width="0.203903"/>
<path d="M609.227 321.79C609.227 321.91 609.166 322.034 609.034 322.159C608.901 322.283 608.703 322.4 608.45 322.5C607.945 322.7 607.241 322.826 606.457 322.826C605.674 322.826 604.969 322.7 604.464 322.5C604.211 322.4 604.013 322.283 603.881 322.159C603.748 322.034 603.687 321.91 603.687 321.79C603.687 321.671 603.748 321.546 603.881 321.422C604.013 321.298 604.211 321.181 604.464 321.081C604.969 320.881 605.674 320.755 606.457 320.755C607.241 320.755 607.945 320.881 608.45 321.081C608.703 321.181 608.901 321.298 609.034 321.422C609.166 321.546 609.227 321.671 609.227 321.79Z" fill="#FFC700" stroke="black" stroke-width="0.203903"/>
<rect x="609.133" y="324.624" width="5.54" height="11.7495" fill="#D9AA06" stroke="black" stroke-width="0.203903"/>
<path d="M614.675 324.602C614.675 324.721 614.614 324.846 614.481 324.97C614.349 325.094 614.151 325.211 613.898 325.311C613.393 325.511 612.688 325.637 611.905 325.637C611.121 325.637 610.417 325.511 609.912 325.311C609.659 325.211 609.461 325.094 609.328 324.97C609.196 324.846 609.135 324.721 609.135 324.602C609.135 324.482 609.196 324.358 609.328 324.233C609.461 324.109 609.659 323.992 609.912 323.892C610.417 323.692 611.121 323.566 611.905 323.566C612.688 323.566 613.393 323.692 613.898 323.892C614.151 323.992 614.349 324.109 614.481 324.233C614.614 324.358 614.675 324.482 614.675 324.602Z" fill="#FFC700" stroke="black" stroke-width="0.203903"/>
<rect x="614.877" y="328.856" width="5.54" height="11.7495" fill="#D9AA06" stroke="black" stroke-width="0.203903"/>
<path d="M620.417 328.833C620.417 328.952 620.356 329.077 620.224 329.201C620.091 329.325 619.893 329.442 619.64 329.542C619.135 329.742 618.431 329.868 617.647 329.868C616.864 329.868 616.159 329.742 615.654 329.542C615.401 329.442 615.203 329.325 615.071 329.201C614.938 329.077 614.877 328.952 614.877 328.833C614.877 328.713 614.938 328.589 615.071 328.465C615.203 328.34 615.401 328.224 615.654 328.123C616.159 327.923 616.864 327.798 617.647 327.798C618.431 327.798 619.135 327.923 619.64 328.123C619.893 328.224 620.091 328.34 620.224 328.465C620.356 328.589 620.417 328.713 620.417 328.833Z" fill="#FFC700" stroke="black" stroke-width="0.203903"/>
<path d="M619.373 336.932L602.345 330.108C601.911 329.939 601.453 329.842 600.983 329.83C600.525 329.842 600.068 329.927 599.622 330.108L582.606 336.932C581.461 337.391 580.895 338.696 581.329 339.843L584.655 348.564V353.468C584.655 354.568 585.547 355.449 586.631 355.449H600.971H615.312C616.408 355.449 617.288 354.555 617.288 353.468V348.564L620.614 339.843C621.084 338.684 620.517 337.391 619.373 336.932Z" fill="black"/>
<path d="M600.971 334.878L581.678 340.771L582.253 342.279L600.983 336.945L619.808 341.969L620.265 340.771L600.971 334.878Z" fill="#292D39"/>
<path d="M602.345 330.088L619.373 336.913C620.517 337.372 621.084 338.664 620.614 339.824L600.983 333.733L581.329 339.824C580.895 338.676 581.461 337.372 582.606 336.913L599.622 330.088C600.068 329.907 600.525 329.823 600.983 329.811C601.453 329.823 601.911 329.919 602.345 330.088Z" fill="#292D39"/>
<path d="M584.667 350.726V353.468C584.667 354.567 585.559 355.449 586.643 355.449H600.984H615.324C616.42 355.449 617.3 354.555 617.3 353.468V350.726H584.667Z" fill="#292D39"/>
<path d="M600.056 357.249C598.188 357.249 596.899 356.609 596.127 356.041C595.886 355.86 595.573 355.824 595.296 355.944C590.56 357.974 587.246 356.729 585.788 355.884C585.571 355.751 585.306 355.739 585.065 355.824C582.739 356.705 580.582 356.681 579.413 356.572C578.907 356.524 578.57 356.041 578.678 355.546L578.714 355.389C578.811 354.978 579.196 354.7 579.618 354.736C580.727 354.845 582.932 354.857 585.173 353.782L585.222 353.758C585.523 353.613 585.884 353.661 586.137 353.891L586.174 353.927C586.306 354.048 589.656 356.814 595.549 353.794L595.609 353.77C595.983 353.577 596.429 353.686 596.67 354.024L596.706 354.072C596.79 354.193 599.14 357.152 605.31 353.806L605.346 353.782C605.587 353.649 605.864 353.649 606.105 353.758L606.141 353.77C606.19 353.794 610.757 355.86 615.794 353.758L615.83 353.746C616.083 353.637 616.372 353.661 616.601 353.806L616.637 353.83C616.649 353.843 618.638 355.014 622.41 354.652C622.856 354.604 623.253 354.93 623.313 355.365L623.338 355.509C623.41 355.993 623.06 356.427 622.578 356.476C619.493 356.778 617.409 356.174 616.384 355.739C616.192 355.666 615.987 355.654 615.794 355.727C611.504 357.261 607.696 356.295 606.129 355.739C605.912 355.666 605.683 355.679 605.479 355.775C603.285 356.862 601.49 357.249 600.056 357.249Z" fill="#599DC9"/>
<path d="M585.061 344.316C585.315 344.316 585.521 344.094 585.521 343.82C585.521 343.545 585.315 343.323 585.061 343.323C584.807 343.323 584.602 343.545 584.602 343.82C584.602 344.094 584.807 344.316 585.061 344.316Z" fill="white"/>
<path d="M591.236 342.351C591.537 342.351 591.78 342.088 591.78 341.763C591.78 341.438 591.537 341.175 591.236 341.175C590.935 341.175 590.691 341.438 590.691 341.763C590.691 342.088 590.935 342.351 591.236 342.351Z" fill="white"/>
<path d="M597.542 340.917C597.889 340.917 598.171 340.613 598.171 340.237C598.171 339.862 597.889 339.558 597.542 339.558C597.194 339.558 596.912 339.862 596.912 340.237C596.912 340.613 597.194 340.917 597.542 340.917Z" fill="white"/>
<path d="M616.561 344.396C616.303 344.396 616.094 344.17 616.094 343.891C616.094 343.613 616.303 343.386 616.561 343.386C616.819 343.386 617.029 343.613 617.029 343.891C617.029 344.17 616.819 344.396 616.561 344.396Z" fill="white"/>
<path d="M610.279 342.399C609.973 342.399 609.725 342.131 609.725 341.801C609.725 341.47 609.973 341.202 610.279 341.202C610.585 341.202 610.833 341.47 610.833 341.801C610.833 342.131 610.585 342.399 610.279 342.399Z" fill="white"/>
<path d="M603.865 340.94C603.512 340.94 603.225 340.631 603.225 340.249C603.225 339.867 603.512 339.557 603.865 339.557C604.219 339.557 604.506 339.867 604.506 340.249C604.506 340.631 604.219 340.94 603.865 340.94Z" fill="white"/>
<path d="M593.521 274.706C595.538 273.266 596.546 272.121 596.546 271.271C596.546 270.751 596.321 270.491 595.871 270.491C595.617 270.491 595.43 270.579 595.309 270.757C595.195 270.935 595.132 271.211 595.119 271.585H593.53C593.568 270.766 593.816 270.151 594.272 269.739C594.729 269.326 595.306 269.12 596.004 269.12C596.734 269.12 597.282 269.304 597.65 269.672C598.025 270.04 598.212 270.519 598.212 271.109C598.212 271.762 597.961 272.403 597.46 273.031C596.959 273.653 596.359 274.179 595.662 274.611H598.316V275.924H593.521V274.706ZM601.555 268.978C602.025 268.978 602.428 269.06 602.764 269.225C603.1 269.384 603.354 269.606 603.525 269.891C603.703 270.17 603.792 270.487 603.792 270.843C603.792 271.28 603.677 271.632 603.449 271.899C603.227 272.165 602.948 272.333 602.612 272.403V272.451C603.481 272.73 603.915 273.272 603.915 274.078C603.915 274.465 603.827 274.811 603.649 275.115C603.471 275.413 603.211 275.648 602.869 275.819C602.532 275.984 602.126 276.067 601.651 276.067C600.877 276.067 600.261 275.876 599.805 275.496C599.354 275.115 599.11 274.535 599.072 273.754H600.661C600.674 274.052 600.756 274.287 600.908 274.458C601.061 274.63 601.283 274.715 601.575 274.715C601.809 274.715 601.993 274.646 602.126 274.506C602.266 274.367 602.336 274.186 602.336 273.964C602.336 273.412 601.936 273.136 601.137 273.136H600.832V271.813H601.127C601.844 271.826 602.203 271.569 602.203 271.042C602.203 270.814 602.139 270.64 602.012 270.519C601.892 270.392 601.727 270.329 601.517 270.329C601.289 270.329 601.108 270.408 600.975 270.567C600.842 270.719 600.766 270.925 600.747 271.185H599.158C599.189 270.475 599.411 269.929 599.824 269.549C600.236 269.168 600.813 268.978 601.555 268.978ZM606.375 269.158C606.838 269.158 607.215 269.298 607.507 269.577C607.805 269.856 607.954 270.249 607.954 270.757C607.954 271.264 607.805 271.658 607.507 271.937C607.215 272.216 606.838 272.356 606.375 272.356C605.899 272.356 605.512 272.216 605.214 271.937C604.922 271.658 604.776 271.264 604.776 270.757C604.776 270.249 604.922 269.856 605.214 269.577C605.512 269.298 605.899 269.158 606.375 269.158ZM610.99 269.254L607.317 276H605.747L609.42 269.254H610.99ZM605.861 270.757C605.861 270.954 605.905 271.109 605.994 271.223C606.083 271.331 606.203 271.385 606.356 271.385C606.514 271.385 606.641 271.331 606.736 271.223C606.832 271.109 606.879 270.954 606.879 270.757C606.879 270.56 606.832 270.408 606.736 270.3C606.641 270.186 606.514 270.129 606.356 270.129C606.203 270.129 606.083 270.186 605.994 270.3C605.905 270.408 605.861 270.56 605.861 270.757ZM610.371 272.888C610.841 272.888 611.221 273.028 611.513 273.307C611.805 273.586 611.951 273.98 611.951 274.487C611.951 274.995 611.805 275.391 611.513 275.676C611.221 275.956 610.841 276.095 610.371 276.095C609.908 276.095 609.528 275.956 609.229 275.676C608.938 275.391 608.792 274.995 608.792 274.487C608.792 273.98 608.938 273.586 609.229 273.307C609.528 273.028 609.908 272.888 610.371 272.888ZM609.867 274.487C609.867 274.69 609.911 274.849 610 274.963C610.089 275.071 610.213 275.125 610.371 275.125C610.524 275.125 610.644 275.071 610.733 274.963C610.828 274.849 610.876 274.69 610.876 274.487C610.876 274.29 610.828 274.138 610.733 274.03C610.644 273.916 610.524 273.859 610.371 273.859C610.213 273.859 610.089 273.916 610 274.03C609.911 274.138 609.867 274.29 609.867 274.487Z" fill="white"/>
<path d="M592.883 367.712C593.289 367.807 593.609 368.003 593.844 368.302C594.085 368.6 594.206 368.945 594.206 369.339C594.206 369.916 594.012 370.366 593.625 370.69C593.245 371.014 592.696 371.175 591.979 371.175H588.849V364.448H591.903C592.588 364.448 593.118 364.597 593.492 364.895C593.866 365.193 594.053 365.618 594.053 366.17C594.053 366.576 593.946 366.916 593.73 367.188C593.514 367.455 593.232 367.629 592.883 367.712ZM590.476 367.198H591.541C592.106 367.198 592.388 366.957 592.388 366.475C592.388 365.993 592.1 365.751 591.522 365.751H590.476V367.198ZM591.637 369.853C592.239 369.853 592.541 369.605 592.541 369.11C592.541 368.869 592.461 368.682 592.303 368.549C592.144 368.409 591.919 368.34 591.627 368.34H590.476V369.853H591.637ZM597.178 365.799C597.584 365.799 597.933 365.891 598.224 366.075C598.516 366.259 598.732 366.51 598.871 366.827V365.866H600.489V371.175H598.871V370.214C598.732 370.531 598.516 370.782 598.224 370.966C597.933 371.15 597.584 371.242 597.178 371.242C596.74 371.242 596.347 371.134 595.998 370.918C595.655 370.696 595.382 370.379 595.179 369.967C594.983 369.554 594.884 369.072 594.884 368.52C594.884 367.962 594.983 367.48 595.179 367.074C595.382 366.662 595.655 366.348 595.998 366.132C596.347 365.91 596.74 365.799 597.178 365.799ZM597.701 367.226C597.352 367.226 597.07 367.341 596.854 367.569C596.645 367.797 596.54 368.114 596.54 368.52C596.54 368.926 596.645 369.244 596.854 369.472C597.07 369.7 597.352 369.815 597.701 369.815C598.044 369.815 598.323 369.697 598.538 369.463C598.76 369.228 598.871 368.914 598.871 368.52C598.871 368.121 598.76 367.807 598.538 367.578C598.323 367.344 598.044 367.226 597.701 367.226ZM605.073 365.809C605.682 365.809 606.164 366.012 606.519 366.418C606.881 366.824 607.062 367.382 607.062 368.092V371.175H605.435V368.283C605.435 367.927 605.339 367.651 605.149 367.455C604.965 367.252 604.718 367.15 604.407 367.15C604.077 367.15 603.814 367.255 603.617 367.464C603.427 367.674 603.332 367.972 603.332 368.359V371.175H601.704V365.866H603.332V366.836C603.484 366.519 603.709 366.268 604.007 366.085C604.312 365.901 604.667 365.809 605.073 365.809ZM611.446 371.175L609.857 368.92V371.175H608.23V364.134H609.857V367.997L611.446 365.866H613.359L611.218 368.52L613.406 371.175H611.446Z" fill="white"/>
<path fill-rule="evenodd" clip-rule="evenodd" d="M605.649 750.923L562.091 675.479C559.998 671.854 554.766 671.854 552.673 675.479L509.115 750.923C507.023 754.548 509.639 759.079 513.824 759.079H542.898V755.681H513.824C512.255 755.681 511.274 753.982 512.059 752.623L555.616 677.178C556.401 675.819 558.363 675.819 559.148 677.178L602.706 752.623C603.491 753.982 602.51 755.681 600.94 755.681H571.919V759.079H600.94C605.126 759.079 607.742 754.548 605.649 750.923Z" fill="#B71C22"/>
<path d="M554.352 697.529V705.412H552.966V697.529C552.966 697.281 553.123 697.079 553.316 697.079H554.002C554.195 697.079 554.352 697.281 554.352 697.529Z" fill="#425669"/>
<path d="M562.638 705.709V710.227C562.638 710.336 562.541 710.432 562.433 710.432H552.117C552.009 710.432 551.913 710.336 551.913 710.227V705.709C551.913 705.311 552.226 704.997 552.624 704.997H561.927C562.324 704.997 562.638 705.311 562.638 705.709Z" fill="#E5E7EB"/>
<path d="M562.638 705.867H551.913V706.434H562.638V705.867Z" fill="#78A0C5"/>
<path d="M560.891 707.654V709.2H559.505V707.666C559.505 707.473 559.662 707.316 559.855 707.316H560.542C560.735 707.304 560.891 707.461 560.891 707.654Z" fill="#B0B3B5"/>
<path d="M557.974 707.654V709.2H556.588V707.666C556.588 707.473 556.745 707.316 556.938 707.316H557.624C557.817 707.304 557.974 707.461 557.974 707.654Z" fill="#B0B3B5"/>
<path d="M555.047 707.654V709.2H553.661V707.666C553.661 707.473 553.818 707.316 554.011 707.316H554.698C554.891 707.304 555.047 707.461 555.047 707.654Z" fill="#B0B3B5"/>
<rect x="537.466" y="717.792" width="5.54" height="11.7495" fill="#D9AA06" stroke="black" stroke-width="0.203903"/>
<path d="M543.007 717.77C543.007 717.889 542.946 718.014 542.814 718.138C542.681 718.262 542.483 718.379 542.23 718.479C541.725 718.679 541.02 718.805 540.237 718.805C539.453 718.805 538.749 718.679 538.244 718.479C537.991 718.379 537.793 718.262 537.66 718.138C537.528 718.014 537.467 717.889 537.467 717.77C537.467 717.65 537.528 717.525 537.66 717.401C537.793 717.277 537.991 717.16 538.244 717.06C538.749 716.86 539.453 716.734 540.237 716.734C541.02 716.734 541.725 716.86 542.23 717.06C542.483 717.16 542.681 717.277 542.814 717.401C542.946 717.525 543.007 717.65 543.007 717.77Z" fill="#FFC700" stroke="black" stroke-width="0.203903"/>
<rect x="542.968" y="713.561" width="5.54" height="11.7495" fill="#D9AA06" stroke="black" stroke-width="0.203903"/>
<path d="M548.508 713.538C548.508 713.658 548.448 713.782 548.315 713.907C548.182 714.031 547.984 714.148 547.732 714.248C547.227 714.448 546.522 714.574 545.738 714.574C544.955 714.574 544.25 714.448 543.745 714.248C543.492 714.148 543.295 714.031 543.162 713.907C543.029 713.782 542.968 713.658 542.968 713.538C542.968 713.419 543.029 713.294 543.162 713.17C543.295 713.046 543.492 712.929 543.745 712.829C544.25 712.629 544.955 712.503 545.738 712.503C546.522 712.503 547.227 712.629 547.732 712.829C547.984 712.929 548.182 713.046 548.315 713.17C548.448 713.294 548.508 713.419 548.508 713.538Z" fill="#FFC700" stroke="black" stroke-width="0.203903"/>
<rect x="548.712" y="710.75" width="5.54" height="11.7495" fill="#D9AA06" stroke="black" stroke-width="0.203903"/>
<path d="M554.254 710.727C554.254 710.846 554.193 710.971 554.06 711.095C553.927 711.219 553.73 711.336 553.477 711.436C552.972 711.636 552.267 711.762 551.484 711.762C550.7 711.762 549.995 711.636 549.49 711.436C549.237 711.336 549.04 711.219 548.907 711.095C548.774 710.971 548.714 710.846 548.714 710.727C548.714 710.607 548.774 710.483 548.907 710.359C549.04 710.234 549.237 710.118 549.49 710.017C549.995 709.817 550.7 709.692 551.484 709.692C552.267 709.692 552.972 709.817 553.477 710.017C553.73 710.118 553.927 710.234 554.06 710.359C554.193 710.483 554.254 710.607 554.254 710.727Z" fill="#FFC700" stroke="black" stroke-width="0.203903"/>
<rect x="554.262" y="708.475" width="5.54" height="11.7495" fill="#D9AA06" stroke="black" stroke-width="0.203903"/>
<path d="M559.803 708.452C559.803 708.572 559.742 708.696 559.609 708.82C559.476 708.945 559.279 709.061 559.026 709.161C558.521 709.361 557.816 709.487 557.033 709.487C556.249 709.487 555.544 709.361 555.039 709.161C554.787 709.061 554.589 708.945 554.456 708.82C554.323 708.696 554.263 708.572 554.263 708.452C554.263 708.333 554.323 708.208 554.456 708.084C554.589 707.96 554.787 707.843 555.039 707.743C555.544 707.543 556.249 707.417 557.033 707.417C557.816 707.417 558.521 707.543 559.026 707.743C559.279 707.843 559.476 707.96 559.609 708.084C559.742 708.208 559.803 708.333 559.803 708.452Z" fill="#FFC700" stroke="black" stroke-width="0.203903"/>
<rect x="559.868" y="710.75" width="5.54" height="11.7495" fill="#D9AA06" stroke="black" stroke-width="0.203903"/>
<path d="M565.409 710.727C565.409 710.846 565.348 710.971 565.215 711.095C565.082 711.219 564.885 711.336 564.632 711.436C564.127 711.636 563.422 711.762 562.639 711.762C561.855 711.762 561.15 711.636 560.645 711.436C560.392 711.336 560.195 711.219 560.062 711.095C559.929 710.971 559.869 710.846 559.869 710.727C559.869 710.607 559.929 710.483 560.062 710.359C560.195 710.234 560.392 710.118 560.645 710.017C561.15 709.817 561.855 709.692 562.639 709.692C563.422 709.692 564.127 709.817 564.632 710.017C564.885 710.118 565.082 710.234 565.215 710.359C565.348 710.483 565.409 710.607 565.409 710.727Z" fill="#FFC700" stroke="black" stroke-width="0.203903"/>
<rect x="565.313" y="713.561" width="5.54" height="11.7495" fill="#D9AA06" stroke="black" stroke-width="0.203903"/>
<path d="M570.855 713.538C570.855 713.658 570.794 713.782 570.661 713.907C570.529 714.031 570.331 714.148 570.078 714.248C569.573 714.448 568.868 714.574 568.085 714.574C567.301 714.574 566.597 714.448 566.092 714.248C565.839 714.148 565.641 714.031 565.508 713.907C565.376 713.782 565.315 713.658 565.315 713.538C565.315 713.419 565.376 713.294 565.508 713.17C565.641 713.046 565.839 712.929 566.092 712.829C566.597 712.629 567.301 712.503 568.085 712.503C568.868 712.503 569.573 712.629 570.078 712.829C570.331 712.929 570.529 713.046 570.661 713.17C570.794 713.294 570.855 713.419 570.855 713.538Z" fill="#FFC700" stroke="black" stroke-width="0.203903"/>
<rect x="571.058" y="717.792" width="5.54" height="11.7495" fill="#D9AA06" stroke="black" stroke-width="0.203903"/>
<path d="M576.598 717.77C576.598 717.889 576.537 718.014 576.405 718.138C576.272 718.262 576.074 718.379 575.821 718.479C575.316 718.679 574.612 718.805 573.828 718.805C573.044 718.805 572.34 718.679 571.835 718.479C571.582 718.379 571.384 718.262 571.251 718.138C571.119 718.014 571.058 717.889 571.058 717.77C571.058 717.65 571.119 717.525 571.251 717.401C571.384 717.277 571.582 717.16 571.835 717.06C572.34 716.86 573.044 716.734 573.828 716.734C574.612 716.734 575.316 716.86 575.821 717.06C576.074 717.16 576.272 717.277 576.405 717.401C576.537 717.525 576.598 717.65 576.598 717.77Z" fill="#FFC700" stroke="black" stroke-width="0.203903"/>
<path d="M575.554 725.869L558.526 719.045C558.092 718.876 557.635 718.779 557.165 718.767C556.707 718.779 556.249 718.863 555.803 719.045L538.787 725.869C537.643 726.328 537.076 727.633 537.51 728.78L540.836 737.501V742.405C540.836 743.504 541.728 744.386 542.812 744.386H557.152H571.493C572.589 744.386 573.469 743.492 573.469 742.405V737.501L576.795 728.78C577.265 727.621 576.699 726.328 575.554 725.869Z" fill="black"/>
<path d="M557.152 723.815L537.859 729.707L538.434 731.216L557.165 725.882L575.989 730.906L576.446 729.707L557.152 723.815Z" fill="#292D39"/>
<path d="M558.526 719.025L575.554 725.85C576.699 726.309 577.265 727.601 576.795 728.761L557.165 722.67L537.51 728.761C537.076 727.613 537.643 726.309 538.787 725.85L555.803 719.025C556.249 718.844 556.707 718.759 557.165 718.747C557.635 718.759 558.092 718.856 558.526 719.025Z" fill="#292D39"/>
<path d="M540.848 739.663V742.405C540.848 743.504 541.74 744.386 542.824 744.386H557.165H571.505C572.601 744.386 573.481 743.492 573.481 742.405V739.663H540.848Z" fill="#292D39"/>
<path d="M556.237 746.186C554.369 746.186 553.08 745.545 552.308 744.978C552.067 744.797 551.754 744.76 551.477 744.881C546.741 746.91 543.427 745.666 541.969 744.821C541.752 744.688 541.487 744.676 541.246 744.76C538.92 745.642 536.763 745.618 535.594 745.509C535.088 745.461 534.751 744.978 534.859 744.482L534.895 744.325C534.992 743.915 535.377 743.637 535.799 743.673C536.908 743.782 539.113 743.794 541.354 742.719L541.403 742.695C541.704 742.55 542.065 742.598 542.319 742.828L542.355 742.864C542.487 742.985 545.837 745.751 551.73 742.731L551.79 742.707C552.164 742.514 552.61 742.622 552.851 742.961L552.887 743.009C552.971 743.13 555.321 746.089 561.491 742.743L561.527 742.719C561.768 742.586 562.045 742.586 562.286 742.695L562.323 742.707C562.371 742.731 566.938 744.797 571.975 742.695L572.011 742.683C572.264 742.574 572.553 742.598 572.782 742.743L572.819 742.767C572.831 742.779 574.819 743.951 578.591 743.589C579.037 743.54 579.434 743.866 579.495 744.301L579.519 744.446C579.591 744.929 579.242 745.364 578.76 745.413C575.675 745.714 573.59 745.111 572.566 744.676C572.373 744.603 572.168 744.591 571.975 744.664C567.685 746.198 563.877 745.231 562.31 744.676C562.094 744.603 561.865 744.615 561.66 744.712C559.467 745.799 557.671 746.186 556.237 746.186Z" fill="#599DC9"/>
<path d="M541.243 733.253C541.497 733.253 541.703 733.031 541.703 732.756C541.703 732.482 541.497 732.26 541.243 732.26C540.989 732.26 540.783 732.482 540.783 732.756C540.783 733.031 540.989 733.253 541.243 733.253Z" fill="white"/>
<path d="M547.417 731.288C547.718 731.288 547.962 731.025 547.962 730.7C547.962 730.375 547.718 730.112 547.417 730.112C547.117 730.112 546.873 730.375 546.873 730.7C546.873 731.025 547.117 731.288 547.417 731.288Z" fill="white"/>
<path d="M553.723 729.854C554.071 729.854 554.353 729.55 554.353 729.174C554.353 728.799 554.071 728.494 553.723 728.494C553.376 728.494 553.094 728.799 553.094 729.174C553.094 729.55 553.376 729.854 553.723 729.854Z" fill="white"/>
<path d="M572.743 733.333C572.485 733.333 572.275 733.107 572.275 732.828C572.275 732.549 572.485 732.323 572.743 732.323C573.001 732.323 573.21 732.549 573.21 732.828C573.21 733.107 573.001 733.333 572.743 733.333Z" fill="white"/>
<path d="M566.46 731.335C566.154 731.335 565.906 731.068 565.906 730.737C565.906 730.407 566.154 730.139 566.46 730.139C566.766 730.139 567.014 730.407 567.014 730.737C567.014 731.068 566.766 731.335 566.46 731.335Z" fill="white"/>
<path d="M560.047 729.877C559.694 729.877 559.407 729.567 559.407 729.186C559.407 728.804 559.694 728.494 560.047 728.494C560.401 728.494 560.687 728.804 560.687 729.186C560.687 729.567 560.401 729.877 560.047 729.877Z" fill="white"/>
<path d="M551.385 657.914C551.855 657.914 552.257 657.997 552.594 658.162C552.93 658.32 553.184 658.542 553.355 658.828C553.532 659.107 553.621 659.424 553.621 659.779C553.621 660.217 553.507 660.569 553.279 660.836C553.057 661.102 552.778 661.27 552.441 661.34V661.387C553.31 661.667 553.745 662.209 553.745 663.015C553.745 663.402 553.656 663.747 553.479 664.052C553.301 664.35 553.041 664.585 552.698 664.756C552.362 664.921 551.956 665.003 551.48 665.003C550.706 665.003 550.091 664.813 549.634 664.432C549.184 664.052 548.94 663.471 548.902 662.691H550.491C550.503 662.989 550.586 663.224 550.738 663.395C550.89 663.567 551.112 663.652 551.404 663.652C551.639 663.652 551.823 663.582 551.956 663.443C552.096 663.303 552.165 663.122 552.165 662.9C552.165 662.349 551.766 662.073 550.966 662.073H550.662V660.75H550.957C551.674 660.763 552.032 660.506 552.032 659.979C552.032 659.751 551.969 659.576 551.842 659.456C551.721 659.329 551.556 659.266 551.347 659.266C551.119 659.266 550.938 659.345 550.805 659.503C550.671 659.656 550.595 659.862 550.576 660.122H548.987C549.019 659.411 549.241 658.866 549.653 658.485C550.066 658.105 550.643 657.914 551.385 657.914ZM554.787 663.7V662.339L557.86 658.124H559.611V662.282H560.42V663.7H559.611V664.937H557.965V663.7H554.787ZM558.098 660.008L556.442 662.282H558.098V660.008ZM562.693 658.095C563.156 658.095 563.533 658.235 563.825 658.514C564.123 658.793 564.272 659.186 564.272 659.694C564.272 660.201 564.123 660.595 563.825 660.874C563.533 661.153 563.156 661.292 562.693 661.292C562.217 661.292 561.83 661.153 561.532 660.874C561.24 660.595 561.094 660.201 561.094 659.694C561.094 659.186 561.24 658.793 561.532 658.514C561.83 658.235 562.217 658.095 562.693 658.095ZM567.308 658.19L563.635 664.937H562.065L565.738 658.19H567.308ZM562.179 659.694C562.179 659.89 562.223 660.046 562.312 660.16C562.401 660.268 562.522 660.322 562.674 660.322C562.832 660.322 562.959 660.268 563.054 660.16C563.15 660.046 563.197 659.89 563.197 659.694C563.197 659.497 563.15 659.345 563.054 659.237C562.959 659.123 562.832 659.066 562.674 659.066C562.522 659.066 562.401 659.123 562.312 659.237C562.223 659.345 562.179 659.497 562.179 659.694ZM566.689 661.825C567.159 661.825 567.539 661.965 567.831 662.244C568.123 662.523 568.269 662.916 568.269 663.424C568.269 663.931 568.123 664.328 567.831 664.613C567.539 664.892 567.159 665.032 566.689 665.032C566.226 665.032 565.846 664.892 565.547 664.613C565.256 664.328 565.11 663.931 565.11 663.424C565.11 662.916 565.256 662.523 565.547 662.244C565.846 661.965 566.226 661.825 566.689 661.825ZM566.185 663.424C566.185 663.627 566.229 663.785 566.318 663.9C566.407 664.007 566.531 664.061 566.689 664.061C566.842 664.061 566.962 664.007 567.051 663.9C567.146 663.785 567.194 663.627 567.194 663.424C567.194 663.227 567.146 663.075 567.051 662.967C566.962 662.853 566.842 662.796 566.689 662.796C566.531 662.796 566.407 662.853 566.318 662.967C566.229 663.075 566.185 663.227 566.185 663.424Z" fill="white"/>
<path d="M549.064 756.648C549.47 756.744 549.791 756.94 550.026 757.238C550.267 757.537 550.387 757.882 550.387 758.276C550.387 758.853 550.194 759.303 549.807 759.627C549.426 759.95 548.877 760.112 548.161 760.112H545.03V753.385H548.084C548.77 753.385 549.299 753.534 549.673 753.832C550.048 754.13 550.235 754.555 550.235 755.107C550.235 755.513 550.127 755.852 549.911 756.125C549.696 756.392 549.413 756.566 549.064 756.648ZM546.657 756.135H547.723C548.287 756.135 548.57 755.894 548.57 755.411C548.57 754.929 548.281 754.688 547.704 754.688H546.657V756.135ZM547.818 758.789C548.421 758.789 548.722 758.542 548.722 758.047C548.722 757.806 548.643 757.619 548.484 757.486C548.325 757.346 548.1 757.276 547.808 757.276H546.657V758.789H547.818ZM553.359 754.736C553.765 754.736 554.114 754.828 554.406 755.012C554.698 755.196 554.913 755.446 555.053 755.763V754.802H556.67V760.112H555.053V759.151C554.913 759.468 554.698 759.719 554.406 759.903C554.114 760.087 553.765 760.179 553.359 760.179C552.921 760.179 552.528 760.071 552.179 759.855C551.837 759.633 551.564 759.316 551.361 758.904C551.164 758.491 551.066 758.009 551.066 757.457C551.066 756.899 551.164 756.417 551.361 756.011C551.564 755.599 551.837 755.285 552.179 755.069C552.528 754.847 552.921 754.736 553.359 754.736ZM553.882 756.163C553.533 756.163 553.251 756.277 553.035 756.506C552.826 756.734 552.721 757.051 552.721 757.457C552.721 757.863 552.826 758.18 553.035 758.409C553.251 758.637 553.533 758.751 553.882 758.751C554.225 758.751 554.504 758.634 554.72 758.399C554.942 758.165 555.053 757.851 555.053 757.457C555.053 757.058 554.942 756.744 554.72 756.515C554.504 756.28 554.225 756.163 553.882 756.163ZM561.254 754.745C561.863 754.745 562.345 754.948 562.701 755.354C563.062 755.76 563.243 756.319 563.243 757.029V760.112H561.616V757.219C561.616 756.864 561.521 756.588 561.33 756.392C561.146 756.189 560.899 756.087 560.588 756.087C560.258 756.087 559.995 756.192 559.798 756.401C559.608 756.61 559.513 756.909 559.513 757.295V760.112H557.886V754.802H559.513V755.773C559.665 755.456 559.89 755.205 560.189 755.021C560.493 754.837 560.848 754.745 561.254 754.745ZM567.628 760.112L566.039 757.857V760.112H564.411V753.071H566.039V756.934L567.628 754.802H569.54L567.399 757.457L569.588 760.112H567.628Z" fill="white"/>
<path d="M449.018 601.363C475.868 584.073 481.658 681.228 547.233 647.336C565.559 637.865 602.766 610.559 599.532 614.573" stroke="white" stroke-width="1.73434" stroke-dasharray="4.34 4.34"/>
<path d="M470.142 362.555C499.066 365.825 515.945 444.066 535.324 454.691C547.977 461.628 557.494 425.358 596.376 428.428C616.941 430.052 652.868 470.869 649.633 474.883" stroke="white" stroke-width="1.73434" stroke-dasharray="4.34 4.34"/>
<path d="M609.17 571.279V578.866H607.456V571.279C607.456 571.04 607.65 570.846 607.888 570.846H608.737C608.976 570.846 609.17 571.04 609.17 571.279Z" fill="#425669"/>
<path d="M606.129 573.893V578.866H604.416V573.893C604.416 573.654 604.609 573.459 604.848 573.459H605.697C605.936 573.459 606.129 573.654 606.129 573.893Z" fill="#425669"/>
<path d="M603.076 575.55V578.866H601.362V575.55C601.362 575.311 601.556 575.117 601.794 575.117H602.643C602.882 575.117 603.076 575.311 603.076 575.55Z" fill="#425669"/>
<path d="M611.836 578.582V584.168C611.836 584.302 611.717 584.422 611.583 584.422H598.828C598.694 584.422 598.575 584.302 598.575 584.168V578.582C598.575 578.089 598.963 577.701 599.454 577.701H610.957C611.449 577.701 611.836 578.089 611.836 578.582Z" fill="#E5E7EB"/>
<path d="M611.836 578.776H598.575V579.478H611.836V578.776Z" fill="#78A0C5"/>
<path d="M609.676 580.987V582.898H607.962V581.002C607.962 580.763 608.156 580.568 608.395 580.568H609.244C609.482 580.553 609.676 580.748 609.676 580.987Z" fill="#B0B3B5"/>
<path d="M606.071 580.987V582.898H604.357V581.002C604.357 580.763 604.551 580.568 604.79 580.568H605.639C605.877 580.553 606.071 580.748 606.071 580.987Z" fill="#B0B3B5"/>
<path d="M602.449 580.987V582.898H600.736V581.002C600.736 580.763 600.929 580.568 601.168 580.568H602.017C602.255 580.553 602.449 580.748 602.449 580.987Z" fill="#B0B3B5"/>
<path d="M592.14 602.627H585.509C585.166 602.627 584.898 602.344 584.898 602.015V598.55C584.898 598.207 585.181 597.938 585.509 597.938H592.14C592.482 597.938 592.751 598.222 592.751 598.55V602.015C592.751 602.344 592.482 602.627 592.14 602.627Z" fill="#EACB30"/>
<path d="M590.963 602.015C590.829 602.015 590.724 601.911 590.724 601.776V598.759C590.724 598.625 590.829 598.52 590.963 598.52C591.097 598.52 591.201 598.625 591.201 598.759V601.776C591.201 601.911 591.097 602.015 590.963 602.015Z" fill="#BCA327"/>
<path d="M589.89 602.015C589.756 602.015 589.651 601.911 589.651 601.776V598.759C589.651 598.625 589.756 598.52 589.89 598.52C590.024 598.52 590.128 598.625 590.128 598.759V601.776C590.128 601.911 590.024 602.015 589.89 602.015Z" fill="#BCA327"/>
<path d="M588.831 602.015C588.697 602.015 588.593 601.911 588.593 601.776V598.759C588.593 598.625 588.697 598.52 588.831 598.52C588.965 598.52 589.07 598.625 589.07 598.759V601.776C589.055 601.911 588.95 602.015 588.831 602.015Z" fill="#BCA327"/>
<path d="M587.758 602.015C587.624 602.015 587.52 601.911 587.52 601.776V598.759C587.52 598.625 587.624 598.52 587.758 598.52C587.893 598.52 587.997 598.625 587.997 598.759V601.776C587.997 601.911 587.893 602.015 587.758 602.015Z" fill="#BCA327"/>
<path d="M586.702 602.015C586.567 602.015 586.463 601.911 586.463 601.776V598.759C586.463 598.625 586.567 598.52 586.702 598.52C586.836 598.52 586.94 598.625 586.94 598.759V601.776C586.925 601.911 586.821 602.015 586.702 602.015Z" fill="#BCA327"/>
<path d="M600.258 602.628H593.628C593.285 602.628 593.017 602.344 593.017 602.015V598.55C593.017 598.207 593.3 597.938 593.628 597.938H600.258C600.601 597.938 600.869 598.222 600.869 598.55V602.015C600.884 602.344 600.601 602.628 600.258 602.628Z" fill="#D25956"/>
<path d="M599.083 602.015C598.949 602.015 598.844 601.911 598.844 601.776V598.759C598.844 598.625 598.949 598.52 599.083 598.52C599.217 598.52 599.321 598.625 599.321 598.759V601.776C599.321 601.911 599.217 602.015 599.083 602.015Z" fill="#B84E4C"/>
<path d="M598.025 602.015C597.891 602.015 597.787 601.911 597.787 601.776V598.759C597.787 598.625 597.891 598.52 598.025 598.52C598.159 598.52 598.263 598.625 598.263 598.759V601.776C598.249 601.911 598.144 602.015 598.025 602.015Z" fill="#B84E4C"/>
<path d="M596.951 602.015C596.817 602.015 596.713 601.911 596.713 601.776V598.759C596.713 598.625 596.817 598.52 596.951 598.52C597.085 598.52 597.19 598.625 597.19 598.759V601.776C597.19 601.911 597.085 602.015 596.951 602.015Z" fill="#B84E4C"/>
<path d="M595.894 602.015C595.76 602.015 595.656 601.911 595.656 601.776V598.759C595.656 598.625 595.76 598.52 595.894 598.52C596.029 598.52 596.133 598.625 596.133 598.759V601.776C596.118 601.911 596.014 602.015 595.894 602.015Z" fill="#B84E4C"/>
<path d="M594.821 602.015C594.687 602.015 594.583 601.911 594.583 601.776V598.759C594.583 598.625 594.687 598.52 594.821 598.52C594.956 598.52 595.06 598.625 595.06 598.759V601.776C595.06 601.911 594.956 602.015 594.821 602.015Z" fill="#B84E4C"/>
<path d="M596.178 597.923H589.548C589.205 597.923 588.937 597.639 588.937 597.311V593.846C588.937 593.502 589.22 593.233 589.548 593.233H596.178C596.521 593.233 596.789 593.517 596.789 593.846V597.311C596.789 597.639 596.506 597.923 596.178 597.923Z" fill="#C9CACE"/>
<path d="M594.987 597.311C594.853 597.311 594.749 597.206 594.749 597.072V594.055C594.749 593.921 594.853 593.816 594.987 593.816C595.122 593.816 595.226 593.921 595.226 594.055V597.072C595.226 597.206 595.122 597.311 594.987 597.311Z" fill="#AFAFB2"/>
<path d="M593.929 597.311C593.795 597.311 593.69 597.206 593.69 597.072V594.055C593.69 593.921 593.795 593.816 593.929 593.816C594.063 593.816 594.167 593.921 594.167 594.055V597.072C594.152 597.206 594.048 597.311 593.929 597.311Z" fill="#AFAFB2"/>
<path d="M592.856 597.311C592.722 597.311 592.618 597.206 592.618 597.072V594.055C592.618 593.921 592.722 593.816 592.856 593.816C592.99 593.816 593.094 593.921 593.094 594.055V597.072C593.094 597.206 592.99 597.311 592.856 597.311Z" fill="#AFAFB2"/>
<path d="M591.797 597.311C591.663 597.311 591.559 597.206 591.559 597.072V594.055C591.559 593.921 591.663 593.816 591.797 593.816C591.932 593.816 592.036 593.921 592.036 594.055V597.072C592.021 597.206 591.917 597.311 591.797 597.311Z" fill="#AFAFB2"/>
<path d="M590.725 597.311C590.591 597.311 590.487 597.206 590.487 597.072V594.055C590.487 593.921 590.591 593.816 590.725 593.816C590.859 593.816 590.964 593.921 590.964 594.055V597.072C590.964 597.206 590.859 597.311 590.725 597.311Z" fill="#AFAFB2"/>
<path d="M600.258 593.218H593.628C593.285 593.218 593.017 592.934 593.017 592.606V589.141C593.017 588.797 593.3 588.529 593.628 588.529H600.258C600.601 588.529 600.869 588.812 600.869 589.141V592.606C600.884 592.934 600.601 593.218 600.258 593.218Z" fill="#78A0C5"/>
<path d="M599.083 592.606C598.949 592.606 598.844 592.501 598.844 592.367V589.35C598.844 589.216 598.949 589.111 599.083 589.111C599.217 589.111 599.321 589.216 599.321 589.35V592.367C599.321 592.501 599.217 592.606 599.083 592.606Z" fill="#6D90B1"/>
<path d="M598.025 592.606C597.891 592.606 597.787 592.501 597.787 592.367V589.35C597.787 589.216 597.891 589.111 598.025 589.111C598.159 589.111 598.263 589.216 598.263 589.35V592.367C598.249 592.501 598.144 592.606 598.025 592.606Z" fill="#6D90B1"/>
<path d="M596.951 592.606C596.817 592.606 596.713 592.501 596.713 592.367V589.35C596.713 589.216 596.817 589.111 596.951 589.111C597.085 589.111 597.19 589.216 597.19 589.35V592.367C597.19 592.501 597.085 592.606 596.951 592.606Z" fill="#6D90B1"/>
<path d="M595.894 592.606C595.76 592.606 595.656 592.501 595.656 592.367V589.35C595.656 589.216 595.76 589.111 595.894 589.111C596.029 589.111 596.133 589.216 596.133 589.35V592.367C596.118 592.501 596.014 592.606 595.894 592.606Z" fill="#6D90B1"/>
<path d="M594.821 592.606C594.687 592.606 594.583 592.501 594.583 592.367V589.35C594.583 589.216 594.687 589.111 594.821 589.111C594.956 589.111 595.06 589.216 595.06 589.35V592.367C595.06 592.501 594.956 592.606 594.821 592.606Z" fill="#6D90B1"/>
<path d="M608.291 593.218H601.66C601.318 593.218 601.049 592.934 601.049 592.606V589.141C601.049 588.797 601.332 588.529 601.66 588.529H608.291C608.633 588.529 608.902 588.812 608.902 589.141V592.606C608.902 592.934 608.633 593.218 608.291 593.218Z" fill="#EDB939"/>
<path d="M607.114 592.606C606.98 592.606 606.876 592.501 606.876 592.367V589.35C606.876 589.216 606.98 589.111 607.114 589.111C607.248 589.111 607.353 589.216 607.353 589.35V592.367C607.338 592.501 607.234 592.606 607.114 592.606Z" fill="#CFA233"/>
<path d="M606.041 592.606C605.907 592.606 605.803 592.501 605.803 592.367V589.35C605.803 589.216 605.907 589.111 606.041 589.111C606.175 589.111 606.28 589.216 606.28 589.35V592.367C606.28 592.501 606.175 592.606 606.041 592.606Z" fill="#CFA233"/>
<path d="M604.984 592.606C604.85 592.606 604.745 592.501 604.745 592.367V589.35C604.745 589.216 604.85 589.111 604.984 589.111C605.118 589.111 605.222 589.216 605.222 589.35V592.367C605.207 592.501 605.103 592.606 604.984 592.606Z" fill="#CFA233"/>
<path d="M603.91 592.606C603.776 592.606 603.672 592.501 603.672 592.367V589.35C603.672 589.216 603.776 589.111 603.91 589.111C604.044 589.111 604.148 589.216 604.148 589.35V592.367C604.148 592.501 604.044 592.606 603.91 592.606Z" fill="#CFA233"/>
<path d="M602.853 592.606C602.719 592.606 602.615 592.501 602.615 592.367V589.35C602.615 589.216 602.719 589.111 602.853 589.111C602.987 589.111 603.092 589.216 603.092 589.35V592.367C603.077 592.501 602.972 592.606 602.853 592.606Z" fill="#CFA233"/>
<path d="M604.73 588.514H598.1C597.757 588.514 597.489 588.23 597.489 587.901V584.437C597.489 584.093 597.772 583.824 598.1 583.824H604.73C605.073 583.824 605.341 584.108 605.341 584.437V587.901C605.341 588.23 605.073 588.514 604.73 588.514Z" fill="#C9CACE"/>
<path d="M603.554 587.901C603.419 587.901 603.315 587.797 603.315 587.662V584.645C603.315 584.511 603.419 584.406 603.554 584.406C603.688 584.406 603.792 584.511 603.792 584.645V587.662C603.777 587.797 603.673 587.901 603.554 587.901Z" fill="#AFAFB2"/>
<path d="M602.479 587.901C602.345 587.901 602.241 587.797 602.241 587.662V584.645C602.241 584.511 602.345 584.406 602.479 584.406C602.613 584.406 602.718 584.511 602.718 584.645V587.662C602.718 587.797 602.613 587.901 602.479 587.901Z" fill="#AFAFB2"/>
<path d="M601.423 587.901C601.289 587.901 601.185 587.797 601.185 587.662V584.645C601.185 584.511 601.289 584.406 601.423 584.406C601.557 584.406 601.661 584.511 601.661 584.645V587.662C601.646 587.797 601.542 587.901 601.423 587.901Z" fill="#AFAFB2"/>
<path d="M600.349 587.901C600.215 587.901 600.111 587.797 600.111 587.662V584.645C600.111 584.511 600.215 584.406 600.349 584.406C600.483 584.406 600.588 584.511 600.588 584.645V587.662C600.588 587.797 600.483 587.901 600.349 587.901Z" fill="#AFAFB2"/>
<path d="M599.292 587.901C599.158 587.901 599.054 587.797 599.054 587.662V584.645C599.054 584.511 599.158 584.406 599.292 584.406C599.426 584.406 599.531 584.511 599.531 584.645V587.662C599.516 587.797 599.412 587.901 599.292 587.901Z" fill="#AFAFB2"/>
<path d="M612.583 588.514H605.952C605.609 588.514 605.341 588.23 605.341 587.901V584.437C605.341 584.093 605.624 583.824 605.952 583.824H612.583C612.925 583.824 613.193 584.108 613.193 584.437V587.901C613.208 588.23 612.925 588.514 612.583 588.514Z" fill="#D25956"/>
<path d="M611.405 587.901C611.271 587.901 611.167 587.797 611.167 587.662V584.645C611.167 584.511 611.271 584.406 611.405 584.406C611.539 584.406 611.644 584.511 611.644 584.645V587.662C611.644 587.797 611.539 587.901 611.405 587.901Z" fill="#B84E4C"/>
<path d="M610.332 587.901C610.198 587.901 610.094 587.797 610.094 587.662V584.645C610.094 584.511 610.198 584.406 610.332 584.406C610.466 584.406 610.571 584.511 610.571 584.645V587.662C610.571 587.797 610.466 587.901 610.332 587.901Z" fill="#B84E4C"/>
<path d="M609.275 587.901C609.14 587.901 609.036 587.797 609.036 587.662V584.645C609.036 584.511 609.14 584.406 609.275 584.406C609.409 584.406 609.513 584.511 609.513 584.645V587.662C609.513 587.797 609.409 587.901 609.275 587.901Z" fill="#B84E4C"/>
<path d="M608.203 587.901C608.068 587.901 607.964 587.797 607.964 587.662V584.645C607.964 584.511 608.068 584.406 608.203 584.406C608.337 584.406 608.441 584.511 608.441 584.645V587.662C608.441 587.797 608.337 587.901 608.203 587.901Z" fill="#B84E4C"/>
<path d="M607.145 587.901C607.011 587.901 606.906 587.797 606.906 587.662V584.645C606.906 584.511 607.011 584.406 607.145 584.406C607.279 584.406 607.383 584.511 607.383 584.645V587.662C607.383 587.797 607.279 587.901 607.145 587.901Z" fill="#B84E4C"/>
<path d="M616.307 593.218H609.676C609.334 593.218 609.065 592.934 609.065 592.606V589.141C609.065 588.797 609.349 588.529 609.676 588.529H616.307C616.65 588.529 616.918 588.812 616.918 589.141V592.606C616.933 592.934 616.65 593.218 616.307 593.218Z" fill="#78A0C5"/>
<path d="M615.13 592.606C614.996 592.606 614.892 592.501 614.892 592.367V589.35C614.892 589.216 614.996 589.111 615.13 589.111C615.264 589.111 615.369 589.216 615.369 589.35V592.367C615.369 592.501 615.264 592.606 615.13 592.606Z" fill="#6D90B1"/>
<path d="M614.072 592.606C613.938 592.606 613.833 592.501 613.833 592.367V589.35C613.833 589.216 613.938 589.111 614.072 589.111C614.206 589.111 614.31 589.216 614.31 589.35V592.367C614.295 592.501 614.191 592.606 614.072 592.606Z" fill="#6D90B1"/>
<path d="M612.999 592.606C612.865 592.606 612.76 592.501 612.76 592.367V589.35C612.76 589.216 612.865 589.111 612.999 589.111C613.133 589.111 613.237 589.216 613.237 589.35V592.367C613.237 592.501 613.133 592.606 612.999 592.606Z" fill="#6D90B1"/>
<path d="M611.942 592.606C611.808 592.606 611.704 592.501 611.704 592.367V589.35C611.704 589.216 611.808 589.111 611.942 589.111C612.076 589.111 612.18 589.216 612.18 589.35V592.367C612.166 592.501 612.061 592.606 611.942 592.606Z" fill="#6D90B1"/>
<path d="M610.868 592.606C610.734 592.606 610.63 592.501 610.63 592.367V589.35C610.63 589.216 610.734 589.111 610.868 589.111C611.002 589.111 611.106 589.216 611.106 589.35V592.367C611.106 592.501 611.002 592.606 610.868 592.606Z" fill="#6D90B1"/>
<path d="M604.194 597.923H597.563C597.22 597.923 596.952 597.639 596.952 597.311V593.846C596.952 593.502 597.235 593.233 597.563 593.233H604.194C604.536 593.233 604.805 593.517 604.805 593.846V597.311C604.805 597.639 604.536 597.923 604.194 597.923Z" fill="#EACB30"/>
<path d="M603.017 597.311C602.883 597.311 602.779 597.206 602.779 597.072V594.055C602.779 593.921 602.883 593.816 603.017 593.816C603.151 593.816 603.255 593.921 603.255 594.055V597.072C603.24 597.206 603.136 597.311 603.017 597.311Z" fill="#BCA327"/>
<path d="M601.943 597.311C601.809 597.311 601.705 597.206 601.705 597.072V594.055C601.705 593.921 601.809 593.816 601.943 593.816C602.077 593.816 602.182 593.921 602.182 594.055V597.072C602.182 597.206 602.077 597.311 601.943 597.311Z" fill="#BCA327"/>
<path d="M600.886 597.311C600.752 597.311 600.647 597.206 600.647 597.072V594.055C600.647 593.921 600.752 593.816 600.886 593.816C601.02 593.816 601.124 593.921 601.124 594.055V597.072C601.109 597.206 601.005 597.311 600.886 597.311Z" fill="#BCA327"/>
<path d="M599.813 597.311C599.679 597.311 599.574 597.206 599.574 597.072V594.055C599.574 593.921 599.679 593.816 599.813 593.816C599.947 593.816 600.051 593.921 600.051 594.055V597.072C600.051 597.206 599.947 597.311 599.813 597.311Z" fill="#BCA327"/>
<path d="M598.755 597.311C598.621 597.311 598.516 597.206 598.516 597.072V594.055C598.516 593.921 598.621 593.816 598.755 593.816C598.889 593.816 598.993 593.921 598.993 594.055V597.072C598.978 597.206 598.874 597.311 598.755 597.311Z" fill="#BCA327"/>
<path d="M612.21 597.923H605.579C605.237 597.923 604.969 597.639 604.969 597.311V593.846C604.969 593.502 605.252 593.233 605.579 593.233H612.21C612.553 593.233 612.821 593.517 612.821 593.846V597.311C612.836 597.639 612.553 597.923 612.21 597.923Z" fill="#D25956"/>
<path d="M611.033 597.311C610.899 597.311 610.795 597.206 610.795 597.072V594.055C610.795 593.921 610.899 593.816 611.033 593.816C611.167 593.816 611.271 593.921 611.271 594.055V597.072C611.271 597.206 611.167 597.311 611.033 597.311Z" fill="#B84E4C"/>
<path d="M609.974 597.311C609.84 597.311 609.736 597.206 609.736 597.072V594.055C609.736 593.921 609.84 593.816 609.974 593.816C610.109 593.816 610.213 593.921 610.213 594.055V597.072C610.198 597.206 610.094 597.311 609.974 597.311Z" fill="#B84E4C"/>
<path d="M608.901 597.311C608.767 597.311 608.663 597.206 608.663 597.072V594.055C608.663 593.921 608.767 593.816 608.901 593.816C609.036 593.816 609.14 593.921 609.14 594.055V597.072C609.14 597.206 609.036 597.311 608.901 597.311Z" fill="#B84E4C"/>
<path d="M607.844 597.311C607.71 597.311 607.605 597.206 607.605 597.072V594.055C607.605 593.921 607.71 593.816 607.844 593.816C607.978 593.816 608.082 593.921 608.082 594.055V597.072C608.067 597.206 607.963 597.311 607.844 597.311Z" fill="#B84E4C"/>
<path d="M606.771 597.311C606.637 597.311 606.532 597.206 606.532 597.072V594.055C606.532 593.921 606.637 593.816 606.771 593.816C606.905 593.816 607.009 593.921 607.009 594.055V597.072C607.009 597.206 606.905 597.311 606.771 597.311Z" fill="#B84E4C"/>
<path d="M620.241 597.923H613.611C613.268 597.923 613 597.639 613 597.311V593.846C613 593.502 613.283 593.233 613.611 593.233H620.241C620.584 593.233 620.852 593.517 620.852 593.846V597.311C620.852 597.639 620.584 597.923 620.241 597.923Z" fill="#C9CACE"/>
<path d="M619.065 597.311C618.931 597.311 618.826 597.206 618.826 597.072V594.055C618.826 593.921 618.931 593.816 619.065 593.816C619.199 593.816 619.303 593.921 619.303 594.055V597.072C619.288 597.206 619.184 597.311 619.065 597.311Z" fill="#AFAFB2"/>
<path d="M617.991 597.311C617.857 597.311 617.752 597.206 617.752 597.072V594.055C617.752 593.921 617.857 593.816 617.991 593.816C618.125 593.816 618.229 593.921 618.229 594.055V597.072C618.229 597.206 618.125 597.311 617.991 597.311Z" fill="#AFAFB2"/>
<path d="M616.933 597.311C616.799 597.311 616.695 597.206 616.695 597.072V594.055C616.695 593.921 616.799 593.816 616.933 593.816C617.067 593.816 617.172 593.921 617.172 594.055V597.072C617.157 597.206 617.052 597.311 616.933 597.311Z" fill="#AFAFB2"/>
<path d="M615.861 597.311C615.727 597.311 615.623 597.206 615.623 597.072V594.055C615.623 593.921 615.727 593.816 615.861 593.816C615.995 593.816 616.1 593.921 616.1 594.055V597.072C616.1 597.206 615.995 597.311 615.861 597.311Z" fill="#AFAFB2"/>
<path d="M614.803 597.311C614.669 597.311 614.564 597.206 614.564 597.072V594.055C614.564 593.921 614.669 593.816 614.803 593.816C614.937 593.816 615.041 593.921 615.041 594.055V597.072C615.026 597.206 614.922 597.311 614.803 597.311Z" fill="#AFAFB2"/>
<path d="M608.396 602.627H601.765C601.422 602.627 601.154 602.344 601.154 602.015V598.55C601.154 598.207 601.437 597.938 601.765 597.938H608.396C608.738 597.938 609.007 598.222 609.007 598.55V602.015C609.007 602.344 608.724 602.627 608.396 602.627Z" fill="#C9CACE"/>
<path d="M607.202 602.015C607.068 602.015 606.964 601.911 606.964 601.776V598.759C606.964 598.625 607.068 598.52 607.202 598.52C607.336 598.52 607.44 598.625 607.44 598.759V601.776C607.44 601.911 607.336 602.015 607.202 602.015Z" fill="#AFAFB2"/>
<path d="M606.144 602.015C606.01 602.015 605.906 601.911 605.906 601.776V598.759C605.906 598.625 606.01 598.52 606.144 598.52C606.279 598.52 606.383 598.625 606.383 598.759V601.776C606.383 601.911 606.279 602.015 606.144 602.015Z" fill="#AFAFB2"/>
<path d="M605.072 602.015C604.938 602.015 604.834 601.911 604.834 601.776V598.759C604.834 598.625 604.938 598.52 605.072 598.52C605.206 598.52 605.311 598.625 605.311 598.759V601.776C605.311 601.911 605.206 602.015 605.072 602.015Z" fill="#AFAFB2"/>
<path d="M604.015 602.015C603.88 602.015 603.776 601.911 603.776 601.776V598.759C603.776 598.625 603.88 598.52 604.015 598.52C604.149 598.52 604.253 598.625 604.253 598.759V601.776C604.238 601.911 604.134 602.015 604.015 602.015Z" fill="#AFAFB2"/>
<path d="M602.943 602.015C602.808 602.015 602.704 601.911 602.704 601.776V598.759C602.704 598.625 602.808 598.52 602.943 598.52C603.077 598.52 603.181 598.625 603.181 598.759V601.776C603.181 601.911 603.077 602.015 602.943 602.015Z" fill="#AFAFB2"/>
<path d="M616.517 602.627H609.886C609.544 602.627 609.275 602.344 609.275 602.015V598.55C609.275 598.207 609.558 597.938 609.886 597.938H616.517C616.86 597.938 617.128 598.222 617.128 598.55V602.015C617.128 602.344 616.86 602.627 616.517 602.627Z" fill="#78A0C5"/>
<path d="M615.34 602.015C615.206 602.015 615.102 601.911 615.102 601.776V598.759C615.102 598.625 615.206 598.52 615.34 598.52C615.474 598.52 615.579 598.625 615.579 598.759V601.776C615.564 601.911 615.459 602.015 615.34 602.015Z" fill="#6D90B1"/>
<path d="M614.267 602.015C614.133 602.015 614.029 601.911 614.029 601.776V598.759C614.029 598.625 614.133 598.52 614.267 598.52C614.402 598.52 614.506 598.625 614.506 598.759V601.776C614.506 601.911 614.402 602.015 614.267 602.015Z" fill="#6D90B1"/>
<path d="M613.21 602.015C613.075 602.015 612.971 601.911 612.971 601.776V598.759C612.971 598.625 613.075 598.52 613.21 598.52C613.344 598.52 613.448 598.625 613.448 598.759V601.776C613.433 601.911 613.329 602.015 613.21 602.015Z" fill="#6D90B1"/>
<path d="M612.137 602.015C612.002 602.015 611.898 601.911 611.898 601.776V598.759C611.898 598.625 612.002 598.52 612.137 598.52C612.271 598.52 612.375 598.625 612.375 598.759V601.776C612.375 601.911 612.271 602.015 612.137 602.015Z" fill="#6D90B1"/>
<path d="M611.079 602.015C610.945 602.015 610.841 601.911 610.841 601.776V598.759C610.841 598.625 610.945 598.52 611.079 598.52C611.213 598.52 611.317 598.625 611.317 598.759V601.776C611.302 601.911 611.198 602.015 611.079 602.015Z" fill="#6D90B1"/>
<path d="M624.637 602.628H618.021C617.678 602.628 617.41 602.344 617.41 602.015V598.55C617.41 598.207 617.693 597.938 618.021 597.938H624.652C624.994 597.938 625.263 598.222 625.263 598.55V602.015C625.263 602.344 624.979 602.628 624.637 602.628Z" fill="#EDB939"/>
<path d="M623.461 602.015C623.327 602.015 623.222 601.911 623.222 601.776V598.759C623.222 598.625 623.327 598.52 623.461 598.52C623.595 598.52 623.699 598.625 623.699 598.759V601.776C623.699 601.911 623.595 602.015 623.461 602.015Z" fill="#CFA233"/>
<path d="M622.388 602.015C622.254 602.015 622.149 601.911 622.149 601.776V598.759C622.149 598.625 622.254 598.52 622.388 598.52C622.522 598.52 622.626 598.625 622.626 598.759V601.776C622.626 601.911 622.522 602.015 622.388 602.015Z" fill="#CFA233"/>
<path d="M621.329 602.015C621.195 602.015 621.091 601.911 621.091 601.776V598.759C621.091 598.625 621.195 598.52 621.329 598.52C621.463 598.52 621.568 598.625 621.568 598.759V601.776C621.568 601.911 621.463 602.015 621.329 602.015Z" fill="#CFA233"/>
<path d="M620.256 602.015C620.122 602.015 620.018 601.911 620.018 601.776V598.759C620.018 598.625 620.122 598.52 620.256 598.52C620.39 598.52 620.495 598.625 620.495 598.759V601.776C620.495 601.911 620.39 602.015 620.256 602.015Z" fill="#CFA233"/>
<path d="M619.199 602.015C619.065 602.015 618.961 601.911 618.961 601.776V598.759C618.961 598.625 619.065 598.52 619.199 598.52C619.333 598.52 619.438 598.625 619.438 598.759V601.776C619.438 601.911 619.319 602.015 619.199 602.015Z" fill="#CFA233"/>
<path d="M627.811 603.509L606.757 595.071C606.221 594.861 605.654 594.742 605.073 594.727C604.507 594.742 603.941 594.847 603.39 595.071L582.351 603.509C580.935 604.076 580.235 605.689 580.771 607.108L584.884 617.891V623.955C584.884 625.314 585.986 626.404 587.327 626.404H605.058H622.79C624.146 626.404 625.233 625.299 625.233 623.955V617.891L629.346 607.108C629.927 605.674 629.226 604.076 627.811 603.509Z" fill="#B71C22"/>
<path d="M605.058 600.969L581.203 608.255L581.914 610.12L605.073 603.524L628.349 609.737L628.914 608.255L605.058 600.969Z" fill="#6D1415"/>
<path d="M606.757 595.047L627.811 603.485C629.226 604.052 629.927 605.65 629.346 607.084L605.073 599.553L580.771 607.084C580.235 605.665 580.935 604.052 582.351 603.485L603.39 595.047C603.941 594.823 604.507 594.718 605.073 594.703C605.654 594.718 606.221 594.838 606.757 595.047Z" fill="#6D1415"/>
<path d="M584.898 620.565V623.955C584.898 625.314 586.001 626.404 587.342 626.404H605.073H622.804C624.16 626.404 625.248 625.299 625.248 623.955V620.565H584.898Z" fill="#6D1415"/>
<path d="M603.926 628.63C601.616 628.63 600.022 627.838 599.068 627.136C598.77 626.912 598.383 626.867 598.04 627.017C592.185 629.526 588.087 627.987 586.284 626.942C586.016 626.778 585.688 626.763 585.39 626.867C582.514 627.957 579.847 627.928 578.402 627.793C577.776 627.733 577.359 627.136 577.493 626.524L577.538 626.33C577.657 625.822 578.134 625.478 578.655 625.523C580.026 625.657 582.753 625.672 585.524 624.343L585.584 624.313C585.956 624.134 586.403 624.194 586.716 624.478L586.761 624.522C586.925 624.672 591.067 628.092 598.353 624.358L598.428 624.328C598.89 624.089 599.441 624.224 599.739 624.642L599.784 624.702C599.888 624.851 602.794 628.51 610.422 624.373L610.467 624.343C610.765 624.179 611.108 624.179 611.406 624.313L611.45 624.328C611.51 624.358 617.157 626.912 623.385 624.313L623.43 624.298C623.743 624.164 624.101 624.194 624.384 624.373L624.428 624.403C624.443 624.418 626.902 625.867 631.566 625.419C632.117 625.359 632.609 625.762 632.683 626.3L632.713 626.479C632.802 627.076 632.37 627.614 631.774 627.674C627.96 628.047 625.382 627.3 624.116 626.763C623.877 626.673 623.624 626.658 623.385 626.748C618.081 628.645 613.373 627.45 611.436 626.763C611.167 626.673 610.884 626.688 610.631 626.807C607.919 628.152 605.699 628.63 603.926 628.63Z" fill="#284CBA"/>
<path d="M585.384 612.638C585.698 612.638 585.952 612.363 585.952 612.024C585.952 611.685 585.698 611.41 585.384 611.41C585.07 611.41 584.815 611.685 584.815 612.024C584.815 612.363 585.07 612.638 585.384 612.638Z" fill="white"/>
<path d="M593.018 610.209C593.39 610.209 593.691 609.883 593.691 609.482C593.691 609.08 593.39 608.754 593.018 608.754C592.646 608.754 592.344 609.08 592.344 609.482C592.344 609.883 592.646 610.209 593.018 610.209Z" fill="white"/>
<path d="M600.816 608.436C601.246 608.436 601.595 608.059 601.595 607.595C601.595 607.131 601.246 606.755 600.816 606.755C600.387 606.755 600.038 607.131 600.038 607.595C600.038 608.059 600.387 608.436 600.816 608.436Z" fill="white"/>
<path d="M624.329 612.738C624.01 612.738 623.751 612.458 623.751 612.114C623.751 611.769 624.01 611.489 624.329 611.489C624.648 611.489 624.907 611.769 624.907 612.114C624.907 612.458 624.648 612.738 624.329 612.738Z" fill="white"/>
<path d="M616.564 610.268C616.186 610.268 615.879 609.936 615.879 609.528C615.879 609.119 616.186 608.788 616.564 608.788C616.942 608.788 617.249 609.119 617.249 609.528C617.249 609.936 616.942 610.268 616.564 610.268Z" fill="white"/>
<path d="M608.635 608.464C608.198 608.464 607.844 608.082 607.844 607.61C607.844 607.137 608.198 606.755 608.635 606.755C609.072 606.755 609.427 607.137 609.427 607.61C609.427 608.082 609.072 608.464 608.635 608.464Z" fill="white"/>
<path d="M664.427 433.532V441.118H662.713V433.532C662.713 433.293 662.907 433.098 663.145 433.098H663.995C664.233 433.098 664.427 433.293 664.427 433.532Z" fill="#425669"/>
<path d="M661.387 436.145V441.119H659.673V436.145C659.673 435.906 659.867 435.712 660.105 435.712H660.955C661.193 435.712 661.387 435.906 661.387 436.145Z" fill="#425669"/>
<path d="M658.333 437.803V441.119H656.619V437.803C656.619 437.564 656.813 437.37 657.051 437.37H657.901C658.139 437.37 658.333 437.564 658.333 437.803Z" fill="#425669"/>
<path d="M667.094 440.835V446.42C667.094 446.555 666.974 446.674 666.84 446.674H654.086C653.952 446.674 653.833 446.555 653.833 446.42V440.835C653.833 440.342 654.22 439.954 654.712 439.954H666.215C666.706 439.954 667.094 440.342 667.094 440.835Z" fill="#E5E7EB"/>
<path d="M667.094 441.029H653.833V441.731H667.094V441.029Z" fill="#78A0C5"/>
<path d="M664.933 443.239V445.151H663.22V443.254C663.22 443.015 663.413 442.821 663.652 442.821H664.501C664.74 442.806 664.933 443 664.933 443.239Z" fill="#B0B3B5"/>
<path d="M661.328 443.239V445.151H659.615V443.254C659.615 443.015 659.808 442.821 660.047 442.821H660.896C661.135 442.806 661.328 443 661.328 443.239Z" fill="#B0B3B5"/>
<path d="M657.706 443.239V445.151H655.993V443.254C655.993 443.015 656.187 442.821 656.425 442.821H657.274C657.513 442.806 657.706 443 657.706 443.239Z" fill="#B0B3B5"/>
<path d="M647.397 464.88H640.766C640.423 464.88 640.155 464.596 640.155 464.268V460.803C640.155 460.459 640.438 460.19 640.766 460.19H647.397C647.739 460.19 648.008 460.474 648.008 460.803V464.268C648.008 464.596 647.739 464.88 647.397 464.88Z" fill="#EACB30"/>
<path d="M646.219 464.268C646.085 464.268 645.98 464.163 645.98 464.029V461.012C645.98 460.878 646.085 460.773 646.219 460.773C646.353 460.773 646.457 460.878 646.457 461.012V464.029C646.457 464.163 646.353 464.268 646.219 464.268Z" fill="#BCA327"/>
<path d="M645.146 464.268C645.012 464.268 644.907 464.163 644.907 464.029V461.012C644.907 460.878 645.012 460.773 645.146 460.773C645.28 460.773 645.384 460.878 645.384 461.012V464.029C645.384 464.163 645.28 464.268 645.146 464.268Z" fill="#BCA327"/>
<path d="M644.088 464.268C643.954 464.268 643.85 464.163 643.85 464.029V461.012C643.85 460.878 643.954 460.773 644.088 460.773C644.222 460.773 644.326 460.878 644.326 461.012V464.029C644.312 464.163 644.207 464.268 644.088 464.268Z" fill="#BCA327"/>
<path d="M643.015 464.268C642.881 464.268 642.777 464.163 642.777 464.029V461.012C642.777 460.878 642.881 460.773 643.015 460.773C643.149 460.773 643.253 460.878 643.253 461.012V464.029C643.253 464.163 643.149 464.268 643.015 464.268Z" fill="#BCA327"/>
<path d="M641.957 464.268C641.823 464.268 641.719 464.163 641.719 464.029V461.012C641.719 460.878 641.823 460.773 641.957 460.773C642.091 460.773 642.196 460.878 642.196 461.012V464.029C642.181 464.163 642.077 464.268 641.957 464.268Z" fill="#BCA327"/>
<path d="M655.517 464.88H648.887C648.544 464.88 648.276 464.596 648.276 464.268V460.803C648.276 460.459 648.559 460.19 648.887 460.19H655.517C655.86 460.19 656.128 460.474 656.128 460.803V464.268C656.143 464.596 655.86 464.88 655.517 464.88Z" fill="#D25956"/>
<path d="M654.34 464.268C654.206 464.268 654.102 464.163 654.102 464.029V461.012C654.102 460.878 654.206 460.773 654.34 460.773C654.474 460.773 654.579 460.878 654.579 461.012V464.029C654.579 464.163 654.474 464.268 654.34 464.268Z" fill="#B84E4C"/>
<path d="M653.283 464.268C653.148 464.268 653.044 464.163 653.044 464.029V461.012C653.044 460.878 653.148 460.773 653.283 460.773C653.417 460.773 653.521 460.878 653.521 461.012V464.029C653.506 464.163 653.402 464.268 653.283 464.268Z" fill="#B84E4C"/>
<path d="M652.209 464.268C652.075 464.268 651.97 464.163 651.97 464.029V461.012C651.97 460.878 652.075 460.773 652.209 460.773C652.343 460.773 652.447 460.878 652.447 461.012V464.029C652.447 464.163 652.343 464.268 652.209 464.268Z" fill="#B84E4C"/>
<path d="M651.152 464.268C651.018 464.268 650.913 464.163 650.913 464.029V461.012C650.913 460.878 651.018 460.773 651.152 460.773C651.286 460.773 651.39 460.878 651.39 461.012V464.029C651.375 464.163 651.271 464.268 651.152 464.268Z" fill="#B84E4C"/>
<path d="M650.079 464.268C649.945 464.268 649.841 464.163 649.841 464.029V461.012C649.841 460.878 649.945 460.773 650.079 460.773C650.213 460.773 650.317 460.878 650.317 461.012V464.029C650.317 464.163 650.213 464.268 650.079 464.268Z" fill="#B84E4C"/>
<path d="M651.435 460.176H644.805C644.462 460.176 644.194 459.892 644.194 459.563V456.098C644.194 455.755 644.477 455.486 644.805 455.486H651.435C651.778 455.486 652.046 455.77 652.046 456.098V459.563C652.046 459.892 651.763 460.176 651.435 460.176Z" fill="#C9CACE"/>
<path d="M650.244 459.563C650.11 459.563 650.006 459.459 650.006 459.324V456.307C650.006 456.173 650.11 456.068 650.244 456.068C650.378 456.068 650.483 456.173 650.483 456.307V459.324C650.483 459.459 650.378 459.563 650.244 459.563Z" fill="#AFAFB2"/>
<path d="M649.187 459.563C649.053 459.563 648.948 459.459 648.948 459.324V456.307C648.948 456.173 649.053 456.068 649.187 456.068C649.321 456.068 649.425 456.173 649.425 456.307V459.324C649.41 459.459 649.306 459.563 649.187 459.563Z" fill="#AFAFB2"/>
<path d="M648.113 459.563C647.979 459.563 647.874 459.459 647.874 459.324V456.307C647.874 456.173 647.979 456.068 648.113 456.068C648.247 456.068 648.351 456.173 648.351 456.307V459.324C648.351 459.459 648.247 459.563 648.113 459.563Z" fill="#AFAFB2"/>
<path d="M647.054 459.563C646.92 459.563 646.816 459.459 646.816 459.324V456.307C646.816 456.173 646.92 456.068 647.054 456.068C647.188 456.068 647.292 456.173 647.292 456.307V459.324C647.278 459.459 647.173 459.563 647.054 459.563Z" fill="#AFAFB2"/>
<path d="M645.982 459.563C645.848 459.563 645.744 459.459 645.744 459.324V456.307C645.744 456.173 645.848 456.068 645.982 456.068C646.116 456.068 646.22 456.173 646.22 456.307V459.324C646.22 459.459 646.116 459.563 645.982 459.563Z" fill="#AFAFB2"/>
<path d="M655.517 455.471H648.887C648.544 455.471 648.276 455.187 648.276 454.859V451.394C648.276 451.05 648.559 450.781 648.887 450.781H655.517C655.86 450.781 656.128 451.065 656.128 451.394V454.859C656.143 455.187 655.86 455.471 655.517 455.471Z" fill="#78A0C5"/>
<path d="M654.34 454.858C654.206 454.858 654.102 454.754 654.102 454.619V451.602C654.102 451.468 654.206 451.364 654.34 451.364C654.474 451.364 654.579 451.468 654.579 451.602V454.619C654.579 454.754 654.474 454.858 654.34 454.858Z" fill="#6D90B1"/>
<path d="M653.283 454.858C653.148 454.858 653.044 454.754 653.044 454.619V451.602C653.044 451.468 653.148 451.364 653.283 451.364C653.417 451.364 653.521 451.468 653.521 451.602V454.619C653.506 454.754 653.402 454.858 653.283 454.858Z" fill="#6D90B1"/>
<path d="M652.209 454.858C652.075 454.858 651.97 454.754 651.97 454.619V451.602C651.97 451.468 652.075 451.364 652.209 451.364C652.343 451.364 652.447 451.468 652.447 451.602V454.619C652.447 454.754 652.343 454.858 652.209 454.858Z" fill="#6D90B1"/>
<path d="M651.152 454.858C651.018 454.858 650.913 454.754 650.913 454.619V451.602C650.913 451.468 651.018 451.364 651.152 451.364C651.286 451.364 651.39 451.468 651.39 451.602V454.619C651.375 454.754 651.271 454.858 651.152 454.858Z" fill="#6D90B1"/>
<path d="M650.079 454.858C649.945 454.858 649.841 454.754 649.841 454.619V451.602C649.841 451.468 649.945 451.364 650.079 451.364C650.213 451.364 650.317 451.468 650.317 451.602V454.619C650.317 454.754 650.213 454.858 650.079 454.858Z" fill="#6D90B1"/>
<path d="M663.55 455.471H656.919C656.576 455.471 656.308 455.187 656.308 454.859V451.394C656.308 451.05 656.591 450.781 656.919 450.781H663.55C663.892 450.781 664.16 451.065 664.16 451.394V454.859C664.16 455.187 663.892 455.471 663.55 455.471Z" fill="#EDB939"/>
<path d="M662.373 454.858C662.239 454.858 662.134 454.754 662.134 454.619V451.602C662.134 451.468 662.239 451.364 662.373 451.364C662.507 451.364 662.611 451.468 662.611 451.602V454.619C662.596 454.754 662.492 454.858 662.373 454.858Z" fill="#CFA233"/>
<path d="M661.3 454.858C661.166 454.858 661.062 454.754 661.062 454.619V451.602C661.062 451.468 661.166 451.364 661.3 451.364C661.434 451.364 661.538 451.468 661.538 451.602V454.619C661.538 454.754 661.434 454.858 661.3 454.858Z" fill="#CFA233"/>
<path d="M660.242 454.858C660.108 454.858 660.004 454.754 660.004 454.619V451.602C660.004 451.468 660.108 451.364 660.242 451.364C660.376 451.364 660.48 451.468 660.48 451.602V454.619C660.466 454.754 660.361 454.858 660.242 454.858Z" fill="#CFA233"/>
<path d="M659.168 454.858C659.034 454.858 658.93 454.754 658.93 454.619V451.602C658.93 451.468 659.034 451.364 659.168 451.364C659.302 451.364 659.407 451.468 659.407 451.602V454.619C659.407 454.754 659.302 454.858 659.168 454.858Z" fill="#CFA233"/>
<path d="M658.111 454.858C657.977 454.858 657.873 454.754 657.873 454.619V451.602C657.873 451.468 657.977 451.364 658.111 451.364C658.246 451.364 658.35 451.468 658.35 451.602V454.619C658.335 454.754 658.231 454.858 658.111 454.858Z" fill="#CFA233"/>
<path d="M659.988 450.766H653.357C653.014 450.766 652.746 450.483 652.746 450.154V446.689C652.746 446.346 653.029 446.077 653.357 446.077H659.988C660.33 446.077 660.598 446.361 660.598 446.689V450.154C660.598 450.483 660.33 450.766 659.988 450.766Z" fill="#C9CACE"/>
<path d="M658.81 450.154C658.676 450.154 658.572 450.049 658.572 449.915V446.898C658.572 446.764 658.676 446.659 658.81 446.659C658.945 446.659 659.049 446.764 659.049 446.898V449.915C659.034 450.049 658.93 450.154 658.81 450.154Z" fill="#AFAFB2"/>
<path d="M657.737 450.154C657.603 450.154 657.498 450.049 657.498 449.915V446.898C657.498 446.764 657.603 446.659 657.737 446.659C657.871 446.659 657.975 446.764 657.975 446.898V449.915C657.975 450.049 657.871 450.154 657.737 450.154Z" fill="#AFAFB2"/>
<path d="M656.68 450.154C656.546 450.154 656.441 450.049 656.441 449.915V446.898C656.441 446.764 656.546 446.659 656.68 446.659C656.814 446.659 656.918 446.764 656.918 446.898V449.915C656.903 450.049 656.799 450.154 656.68 450.154Z" fill="#AFAFB2"/>
<path d="M655.606 450.154C655.472 450.154 655.368 450.049 655.368 449.915V446.898C655.368 446.764 655.472 446.659 655.606 446.659C655.74 446.659 655.844 446.764 655.844 446.898V449.915C655.844 450.049 655.74 450.154 655.606 450.154Z" fill="#AFAFB2"/>
<path d="M654.549 450.154C654.415 450.154 654.311 450.049 654.311 449.915V446.898C654.311 446.764 654.415 446.659 654.549 446.659C654.683 446.659 654.788 446.764 654.788 446.898V449.915C654.773 450.049 654.668 450.154 654.549 450.154Z" fill="#AFAFB2"/>
<path d="M667.84 450.766H661.209C660.866 450.766 660.598 450.483 660.598 450.154V446.689C660.598 446.346 660.881 446.077 661.209 446.077H667.84C668.182 446.077 668.451 446.361 668.451 446.689V450.154C668.465 450.483 668.182 450.766 667.84 450.766Z" fill="#D25956"/>
<path d="M666.662 450.154C666.528 450.154 666.424 450.049 666.424 449.915V446.898C666.424 446.764 666.528 446.659 666.662 446.659C666.796 446.659 666.9 446.764 666.9 446.898V449.915C666.9 450.049 666.796 450.154 666.662 450.154Z" fill="#B84E4C"/>
<path d="M665.589 450.154C665.455 450.154 665.351 450.049 665.351 449.915V446.898C665.351 446.764 665.455 446.659 665.589 446.659C665.723 446.659 665.827 446.764 665.827 446.898V449.915C665.827 450.049 665.723 450.154 665.589 450.154Z" fill="#B84E4C"/>
<path d="M664.531 450.154C664.397 450.154 664.293 450.049 664.293 449.915V446.898C664.293 446.764 664.397 446.659 664.531 446.659C664.665 446.659 664.77 446.764 664.77 446.898V449.915C664.77 450.049 664.665 450.154 664.531 450.154Z" fill="#B84E4C"/>
<path d="M663.459 450.154C663.325 450.154 663.221 450.049 663.221 449.915V446.898C663.221 446.764 663.325 446.659 663.459 446.659C663.593 446.659 663.698 446.764 663.698 446.898V449.915C663.698 450.049 663.593 450.154 663.459 450.154Z" fill="#B84E4C"/>
<path d="M662.401 450.154C662.267 450.154 662.163 450.049 662.163 449.915V446.898C662.163 446.764 662.267 446.659 662.401 446.659C662.536 446.659 662.64 446.764 662.64 446.898V449.915C662.64 450.049 662.536 450.154 662.401 450.154Z" fill="#B84E4C"/>
<path d="M671.564 455.471H664.933C664.591 455.471 664.323 455.187 664.323 454.859V451.394C664.323 451.05 664.606 450.781 664.933 450.781H671.564C671.907 450.781 672.175 451.065 672.175 451.394V454.859C672.19 455.187 671.907 455.471 671.564 455.471Z" fill="#78A0C5"/>
<path d="M670.387 454.858C670.253 454.858 670.149 454.754 670.149 454.619V451.602C670.149 451.468 670.253 451.364 670.387 451.364C670.521 451.364 670.625 451.468 670.625 451.602V454.619C670.625 454.754 670.521 454.858 670.387 454.858Z" fill="#6D90B1"/>
<path d="M669.329 454.858C669.195 454.858 669.091 454.754 669.091 454.619V451.602C669.091 451.468 669.195 451.364 669.329 451.364C669.464 451.364 669.568 451.468 669.568 451.602V454.619C669.553 454.754 669.449 454.858 669.329 454.858Z" fill="#6D90B1"/>
<path d="M668.255 454.858C668.121 454.858 668.017 454.754 668.017 454.619V451.602C668.017 451.468 668.121 451.364 668.255 451.364C668.39 451.364 668.494 451.468 668.494 451.602V454.619C668.494 454.754 668.39 454.858 668.255 454.858Z" fill="#6D90B1"/>
<path d="M667.199 454.858C667.065 454.858 666.96 454.754 666.96 454.619V451.602C666.96 451.468 667.065 451.364 667.199 451.364C667.333 451.364 667.437 451.468 667.437 451.602V454.619C667.422 454.754 667.318 454.858 667.199 454.858Z" fill="#6D90B1"/>
<path d="M666.125 454.858C665.991 454.858 665.886 454.754 665.886 454.619V451.602C665.886 451.468 665.991 451.364 666.125 451.364C666.259 451.364 666.363 451.468 666.363 451.602V454.619C666.363 454.754 666.259 454.858 666.125 454.858Z" fill="#6D90B1"/>
<path d="M659.451 460.176H652.82C652.477 460.176 652.209 459.892 652.209 459.563V456.098C652.209 455.755 652.492 455.486 652.82 455.486H659.451C659.793 455.486 660.062 455.77 660.062 456.098V459.563C660.062 459.892 659.793 460.176 659.451 460.176Z" fill="#EACB30"/>
<path d="M658.274 459.563C658.14 459.563 658.035 459.459 658.035 459.324V456.307C658.035 456.173 658.14 456.068 658.274 456.068C658.408 456.068 658.512 456.173 658.512 456.307V459.324C658.497 459.459 658.393 459.563 658.274 459.563Z" fill="#BCA327"/>
<path d="M657.201 459.563C657.067 459.563 656.962 459.459 656.962 459.324V456.307C656.962 456.173 657.067 456.068 657.201 456.068C657.335 456.068 657.439 456.173 657.439 456.307V459.324C657.439 459.459 657.335 459.563 657.201 459.563Z" fill="#BCA327"/>
<path d="M656.142 459.563C656.008 459.563 655.904 459.459 655.904 459.324V456.307C655.904 456.173 656.008 456.068 656.142 456.068C656.276 456.068 656.381 456.173 656.381 456.307V459.324C656.366 459.459 656.261 459.563 656.142 459.563Z" fill="#BCA327"/>
<path d="M655.069 459.563C654.935 459.563 654.831 459.459 654.831 459.324V456.307C654.831 456.173 654.935 456.068 655.069 456.068C655.203 456.068 655.308 456.173 655.308 456.307V459.324C655.308 459.459 655.203 459.563 655.069 459.563Z" fill="#BCA327"/>
<path d="M654.013 459.563C653.878 459.563 653.774 459.459 653.774 459.324V456.307C653.774 456.173 653.878 456.068 654.013 456.068C654.147 456.068 654.251 456.173 654.251 456.307V459.324C654.236 459.459 654.132 459.563 654.013 459.563Z" fill="#BCA327"/>
<path d="M667.467 460.176H660.836C660.494 460.176 660.226 459.892 660.226 459.563V456.098C660.226 455.755 660.509 455.486 660.836 455.486H667.467C667.81 455.486 668.078 455.77 668.078 456.098V459.563C668.093 459.892 667.81 460.176 667.467 460.176Z" fill="#D25956"/>
<path d="M666.291 459.563C666.157 459.563 666.052 459.459 666.052 459.324V456.307C666.052 456.173 666.157 456.068 666.291 456.068C666.425 456.068 666.529 456.173 666.529 456.307V459.324C666.529 459.459 666.425 459.563 666.291 459.563Z" fill="#B84E4C"/>
<path d="M665.233 459.563C665.099 459.563 664.995 459.459 664.995 459.324V456.307C664.995 456.173 665.099 456.068 665.233 456.068C665.367 456.068 665.471 456.173 665.471 456.307V459.324C665.457 459.459 665.352 459.563 665.233 459.563Z" fill="#B84E4C"/>
<path d="M664.159 459.563C664.025 459.563 663.921 459.459 663.921 459.324V456.307C663.921 456.173 664.025 456.068 664.159 456.068C664.293 456.068 664.398 456.173 664.398 456.307V459.324C664.398 459.459 664.293 459.563 664.159 459.563Z" fill="#B84E4C"/>
<path d="M663.101 459.563C662.967 459.563 662.863 459.459 662.863 459.324V456.307C662.863 456.173 662.967 456.068 663.101 456.068C663.236 456.068 663.34 456.173 663.34 456.307V459.324C663.325 459.459 663.221 459.563 663.101 459.563Z" fill="#B84E4C"/>
<path d="M662.029 459.563C661.895 459.563 661.79 459.459 661.79 459.324V456.307C661.79 456.173 661.895 456.068 662.029 456.068C662.163 456.068 662.267 456.173 662.267 456.307V459.324C662.267 459.459 662.163 459.563 662.029 459.563Z" fill="#B84E4C"/>
<path d="M675.499 460.176H668.868C668.525 460.176 668.257 459.892 668.257 459.563V456.098C668.257 455.755 668.54 455.486 668.868 455.486H675.499C675.841 455.486 676.109 455.77 676.109 456.098V459.563C676.109 459.892 675.841 460.176 675.499 460.176Z" fill="#C9CACE"/>
<path d="M674.321 459.563C674.187 459.563 674.083 459.459 674.083 459.324V456.307C674.083 456.173 674.187 456.068 674.321 456.068C674.456 456.068 674.56 456.173 674.56 456.307V459.324C674.545 459.459 674.441 459.563 674.321 459.563Z" fill="#AFAFB2"/>
<path d="M673.249 459.563C673.115 459.563 673.01 459.459 673.01 459.324V456.307C673.01 456.173 673.115 456.068 673.249 456.068C673.383 456.068 673.487 456.173 673.487 456.307V459.324C673.487 459.459 673.383 459.563 673.249 459.563Z" fill="#AFAFB2"/>
<path d="M672.19 459.563C672.056 459.563 671.952 459.459 671.952 459.324V456.307C671.952 456.173 672.056 456.068 672.19 456.068C672.324 456.068 672.428 456.173 672.428 456.307V459.324C672.414 459.459 672.309 459.563 672.19 459.563Z" fill="#AFAFB2"/>
<path d="M671.118 459.563C670.984 459.563 670.879 459.459 670.879 459.324V456.307C670.879 456.173 670.984 456.068 671.118 456.068C671.252 456.068 671.356 456.173 671.356 456.307V459.324C671.356 459.459 671.252 459.563 671.118 459.563Z" fill="#AFAFB2"/>
<path d="M670.06 459.563C669.926 459.563 669.822 459.459 669.822 459.324V456.307C669.822 456.173 669.926 456.068 670.06 456.068C670.194 456.068 670.299 456.173 670.299 456.307V459.324C670.284 459.459 670.179 459.563 670.06 459.563Z" fill="#AFAFB2"/>
<path d="M663.653 464.88H657.022C656.68 464.88 656.411 464.596 656.411 464.268V460.803C656.411 460.459 656.694 460.19 657.022 460.19H663.653C663.996 460.19 664.264 460.474 664.264 460.803V464.268C664.264 464.596 663.981 464.88 663.653 464.88Z" fill="#C9CACE"/>
<path d="M662.46 464.268C662.326 464.268 662.221 464.163 662.221 464.029V461.012C662.221 460.878 662.326 460.773 662.46 460.773C662.594 460.773 662.698 460.878 662.698 461.012V464.029C662.698 464.163 662.594 464.268 662.46 464.268Z" fill="#AFAFB2"/>
<path d="M661.401 464.268C661.267 464.268 661.163 464.163 661.163 464.029V461.012C661.163 460.878 661.267 460.773 661.401 460.773C661.535 460.773 661.64 460.878 661.64 461.012V464.029C661.64 464.163 661.535 464.268 661.401 464.268Z" fill="#AFAFB2"/>
<path d="M660.329 464.268C660.195 464.268 660.091 464.163 660.091 464.029V461.012C660.091 460.878 660.195 460.773 660.329 460.773C660.463 460.773 660.567 460.878 660.567 461.012V464.029C660.567 464.163 660.463 464.268 660.329 464.268Z" fill="#AFAFB2"/>
<path d="M659.271 464.268C659.137 464.268 659.033 464.163 659.033 464.029V461.012C659.033 460.878 659.137 460.773 659.271 460.773C659.405 460.773 659.51 460.878 659.51 461.012V464.029C659.495 464.163 659.391 464.268 659.271 464.268Z" fill="#AFAFB2"/>
<path d="M658.199 464.268C658.065 464.268 657.961 464.163 657.961 464.029V461.012C657.961 460.878 658.065 460.773 658.199 460.773C658.333 460.773 658.438 460.878 658.438 461.012V464.029C658.438 464.163 658.333 464.268 658.199 464.268Z" fill="#AFAFB2"/>
<path d="M671.774 464.88H665.143C664.801 464.88 664.532 464.596 664.532 464.268V460.803C664.532 460.459 664.816 460.19 665.143 460.19H671.774C672.117 460.19 672.385 460.474 672.385 460.803V464.268C672.385 464.596 672.117 464.88 671.774 464.88Z" fill="#78A0C5"/>
<path d="M670.597 464.268C670.463 464.268 670.359 464.163 670.359 464.029V461.012C670.359 460.878 670.463 460.773 670.597 460.773C670.731 460.773 670.835 460.878 670.835 461.012V464.029C670.821 464.163 670.716 464.268 670.597 464.268Z" fill="#6D90B1"/>
<path d="M669.524 464.268C669.39 464.268 669.286 464.163 669.286 464.029V461.012C669.286 460.878 669.39 460.773 669.524 460.773C669.658 460.773 669.762 460.878 669.762 461.012V464.029C669.762 464.163 669.658 464.268 669.524 464.268Z" fill="#6D90B1"/>
<path d="M668.466 464.268C668.332 464.268 668.228 464.163 668.228 464.029V461.012C668.228 460.878 668.332 460.773 668.466 460.773C668.601 460.773 668.705 460.878 668.705 461.012V464.029C668.69 464.163 668.586 464.268 668.466 464.268Z" fill="#6D90B1"/>
<path d="M667.393 464.268C667.259 464.268 667.155 464.163 667.155 464.029V461.012C667.155 460.878 667.259 460.773 667.393 460.773C667.528 460.773 667.632 460.878 667.632 461.012V464.029C667.632 464.163 667.528 464.268 667.393 464.268Z" fill="#6D90B1"/>
<path d="M666.337 464.268C666.202 464.268 666.098 464.163 666.098 464.029V461.012C666.098 460.878 666.202 460.773 666.337 460.773C666.471 460.773 666.575 460.878 666.575 461.012V464.029C666.56 464.163 666.456 464.268 666.337 464.268Z" fill="#6D90B1"/>
<path d="M679.895 464.88H673.279C672.936 464.88 672.668 464.596 672.668 464.268V460.803C672.668 460.459 672.951 460.19 673.279 460.19H679.91C680.252 460.19 680.521 460.474 680.521 460.803V464.268C680.521 464.596 680.237 464.88 679.895 464.88Z" fill="#EDB939"/>
<path d="M678.717 464.268C678.583 464.268 678.479 464.163 678.479 464.029V461.012C678.479 460.878 678.583 460.773 678.717 460.773C678.852 460.773 678.956 460.878 678.956 461.012V464.029C678.956 464.163 678.852 464.268 678.717 464.268Z" fill="#CFA233"/>
<path d="M677.644 464.268C677.51 464.268 677.406 464.163 677.406 464.029V461.012C677.406 460.878 677.51 460.773 677.644 460.773C677.778 460.773 677.883 460.878 677.883 461.012V464.029C677.883 464.163 677.778 464.268 677.644 464.268Z" fill="#CFA233"/>
<path d="M676.587 464.268C676.453 464.268 676.348 464.163 676.348 464.029V461.012C676.348 460.878 676.453 460.773 676.587 460.773C676.721 460.773 676.825 460.878 676.825 461.012V464.029C676.825 464.163 676.721 464.268 676.587 464.268Z" fill="#CFA233"/>
<path d="M675.514 464.268C675.38 464.268 675.275 464.163 675.275 464.029V461.012C675.275 460.878 675.38 460.773 675.514 460.773C675.648 460.773 675.752 460.878 675.752 461.012V464.029C675.752 464.163 675.648 464.268 675.514 464.268Z" fill="#CFA233"/>
<path d="M674.456 464.268C674.322 464.268 674.218 464.163 674.218 464.029V461.012C674.218 460.878 674.322 460.773 674.456 460.773C674.59 460.773 674.695 460.878 674.695 461.012V464.029C674.695 464.163 674.575 464.268 674.456 464.268Z" fill="#CFA233"/>
<path d="M683.068 465.762L662.014 457.323C661.477 457.114 660.911 456.995 660.33 456.98C659.764 456.995 659.198 457.099 658.646 457.323L637.607 465.762C636.192 466.329 635.491 467.942 636.028 469.361L640.14 480.144V486.208C640.14 487.567 641.243 488.657 642.584 488.657H660.315H678.046C679.402 488.657 680.49 487.552 680.49 486.208V480.144L684.602 469.361C685.183 467.927 684.483 466.329 683.068 465.762Z" fill="#B71C22"/>
<path d="M660.315 463.221L636.459 470.507L637.17 472.372L660.33 465.777L683.606 471.989L684.171 470.507L660.315 463.221Z" fill="#6D1415"/>
<path d="M662.014 457.299L683.068 465.738C684.483 466.305 685.183 467.903 684.602 469.337L660.33 461.806L636.028 469.337C635.491 467.918 636.192 466.305 637.607 465.738L658.646 457.299C659.198 457.075 659.764 456.971 660.33 456.956C660.911 456.971 661.477 457.09 662.014 457.299Z" fill="#6D1415"/>
<path d="M640.155 482.817V486.208C640.155 487.567 641.257 488.657 642.598 488.657H660.33H678.061C679.417 488.657 680.504 487.552 680.504 486.208V482.817H640.155Z" fill="#6D1415"/>
<path d="M659.183 490.882C656.873 490.882 655.279 490.09 654.325 489.389C654.027 489.164 653.64 489.12 653.297 489.269C647.441 491.778 643.344 490.24 641.541 489.194C641.273 489.03 640.945 489.015 640.647 489.12C637.771 490.21 635.104 490.18 633.659 490.046C633.033 489.986 632.616 489.389 632.75 488.776L632.794 488.582C632.914 488.074 633.39 487.731 633.912 487.776C635.283 487.91 638.009 487.925 640.781 486.596L640.84 486.566C641.213 486.387 641.66 486.446 641.973 486.73L642.018 486.775C642.181 486.924 646.324 490.344 653.61 486.611L653.684 486.581C654.146 486.342 654.698 486.476 654.996 486.894L655.04 486.954C655.145 487.103 658.05 490.763 665.679 486.626L665.724 486.596C666.022 486.431 666.364 486.431 666.662 486.566L666.707 486.581C666.767 486.611 672.414 489.164 678.642 486.566L678.687 486.551C679 486.416 679.357 486.446 679.64 486.626L679.685 486.655C679.7 486.67 682.159 488.119 686.822 487.671C687.374 487.611 687.865 488.014 687.94 488.552L687.97 488.731C688.059 489.329 687.627 489.866 687.031 489.926C683.216 490.3 680.639 489.553 679.372 489.015C679.134 488.926 678.88 488.911 678.642 489C673.338 490.897 668.629 489.702 666.692 489.015C666.424 488.926 666.141 488.94 665.888 489.06C663.176 490.404 660.956 490.882 659.183 490.882Z" fill="#284CBA"/>
<path d="M640.64 474.891C640.954 474.891 641.208 474.616 641.208 474.277C641.208 473.938 640.954 473.663 640.64 473.663C640.326 473.663 640.072 473.938 640.072 474.277C640.072 474.616 640.326 474.891 640.64 474.891Z" fill="white"/>
<path d="M648.274 472.462C648.646 472.462 648.948 472.136 648.948 471.734C648.948 471.333 648.646 471.007 648.274 471.007C647.902 471.007 647.601 471.333 647.601 471.734C647.601 472.136 647.902 472.462 648.274 472.462Z" fill="white"/>
<path d="M656.073 470.689C656.503 470.689 656.851 470.312 656.851 469.848C656.851 469.384 656.503 469.007 656.073 469.007C655.643 469.007 655.294 469.384 655.294 469.848C655.294 470.312 655.643 470.689 656.073 470.689Z" fill="white"/>
<path d="M679.585 474.991C679.266 474.991 679.007 474.711 679.007 474.366C679.007 474.021 679.266 473.742 679.585 473.742C679.905 473.742 680.164 474.021 680.164 474.366C680.164 474.711 679.905 474.991 679.585 474.991Z" fill="white"/>
<path d="M671.821 472.52C671.442 472.52 671.136 472.189 671.136 471.781C671.136 471.372 671.442 471.041 671.821 471.041C672.199 471.041 672.505 471.372 672.505 471.781C672.505 472.189 672.199 472.52 671.821 472.52Z" fill="white"/>
<path d="M663.892 470.717C663.454 470.717 663.1 470.334 663.1 469.862C663.1 469.39 663.454 469.007 663.892 469.007C664.329 469.007 664.683 469.39 664.683 469.862C664.683 470.334 664.329 470.717 663.892 470.717Z" fill="white"/>
<path d="M468.123 318.604H454.024L444.624 378.421H477.523L468.123 318.604Z" fill="#3E61C4"/>
<path d="M482.01 378.421H440.139V393.375H482.01V378.421Z" fill="#D3D3D3"/>
<path d="M446.12 384.403H447.615C448.441 384.403 449.111 385.072 449.111 385.898V387.394C449.111 388.22 448.441 388.889 447.615 388.889H446.12C445.294 388.889 444.624 388.22 444.624 387.394V385.898C444.624 385.072 445.294 384.403 446.12 384.403Z" fill="#2747A3"/>
<path d="M455.091 384.403H456.587C457.413 384.403 458.082 385.072 458.082 385.898V387.394C458.082 388.22 457.413 388.889 456.587 388.889H455.091C454.265 388.889 453.596 388.22 453.596 387.394V385.898C453.596 385.072 454.265 384.403 455.091 384.403Z" fill="#2747A3"/>
<path d="M465.561 384.403H467.056C467.882 384.403 468.552 385.072 468.552 385.898V387.394C468.552 388.22 467.882 388.889 467.056 388.889H465.561C464.735 388.889 464.065 388.22 464.065 387.394V385.898C464.065 385.072 464.735 384.403 465.561 384.403Z" fill="#2747A3"/>
<path d="M474.532 384.403H476.028C476.854 384.403 477.523 385.073 477.523 385.898V387.394C477.523 388.22 476.854 388.889 476.028 388.889H474.532C473.706 388.889 473.037 388.22 473.037 387.394V385.898C473.037 385.073 473.706 384.403 474.532 384.403Z" fill="#2747A3"/>
<path d="M475.11 363.066L445.071 375.576L445.642 371.94L472.741 360.656L448.723 352.341L449.527 347.218L469.071 339.487L451.815 332.66L452.514 328.217L468.815 323.058L468.827 323.082L469.307 326.14L455.156 330.619L470.996 336.886L471.766 341.782L451.199 349.917L474.301 357.915L475.11 363.066Z" fill="#2747A3"/>
<path d="M501.451 319.352H498.46V335.054H501.451V319.352Z" fill="#2747A3"/>
<path d="M504.441 333.559H495.468V339.54H504.441V333.559Z" fill="#5D86FA"/>
<path d="M508.927 339.54H490.982V351.503H508.927V339.54Z" fill="#B71C22"/>
<path d="M508.927 339.54V351.503L490.982 339.54H508.927Z" fill="#6D1415"/>
<path d="M499.737 317.109L500.249 314.176L461.139 303.679C460.947 303.638 460.748 303.644 460.559 303.698C460.37 303.752 460.198 303.852 460.057 303.989C459.903 304.139 459.782 304.319 459.699 304.518C459.617 304.717 459.576 304.93 459.579 305.145V315.613H462.186V306.969L499.737 317.109Z" fill="#2747A3"/>
<path d="M501.451 314.118H441.634V320.1H501.451V314.118Z" fill="#AFAFAF"/>
<path d="M449.104 562.605H435.005L425.605 622.422H458.504L449.104 562.605Z" fill="#3E61C4"/>
<path d="M462.991 622.422H421.12V637.376H462.991V622.422Z" fill="#D3D3D3"/>
<path d="M427.101 628.404H428.596C429.422 628.404 430.092 629.073 430.092 629.899V631.395C430.092 632.221 429.422 632.89 428.596 632.89H427.101C426.275 632.89 425.606 632.221 425.606 631.395V629.899C425.606 629.073 426.275 628.404 427.101 628.404Z" fill="#2747A3"/>
<path d="M436.072 628.404H437.568C438.394 628.404 439.063 629.073 439.063 629.899V631.395C439.063 632.221 438.394 632.89 437.568 632.89H436.072C435.246 632.89 434.577 632.221 434.577 631.395V629.899C434.577 629.073 435.246 628.404 436.072 628.404Z" fill="#2747A3"/>
<path d="M446.542 628.404H448.038C448.863 628.404 449.533 629.073 449.533 629.899V631.395C449.533 632.221 448.863 632.89 448.038 632.89H446.542C445.716 632.89 445.047 632.221 445.047 631.395V629.899C445.047 629.073 445.716 628.404 446.542 628.404Z" fill="#2747A3"/>
<path d="M455.513 628.404H457.009C457.835 628.404 458.504 629.074 458.504 629.899V631.395C458.504 632.221 457.835 632.89 457.009 632.89H455.513C454.687 632.89 454.018 632.221 454.018 631.395V629.899C454.018 629.074 454.687 628.404 455.513 628.404Z" fill="#2747A3"/>
<path d="M456.091 607.067L426.052 619.577L426.623 615.941L453.722 604.657L429.704 596.342L430.508 591.219L450.052 583.488L432.796 576.661L433.495 572.218L449.796 567.059L449.808 567.083L450.288 570.141L436.137 574.62L451.977 580.887L452.747 585.783L432.18 593.918L455.282 601.916L456.091 607.067Z" fill="#2747A3"/>
<path d="M482.432 563.353H479.441V579.055H482.432V563.353Z" fill="#2747A3"/>
<path d="M485.422 577.56H476.449V583.541H485.422V577.56Z" fill="#5D86FA"/>
<path d="M489.908 583.541H471.963V595.504H489.908V583.541Z" fill="#B71C22"/>
<path d="M489.908 583.541V595.504L471.963 583.541H489.908Z" fill="#6D1415"/>
<path d="M480.718 561.11L481.23 558.177L442.12 547.68C441.928 547.639 441.729 547.645 441.54 547.699C441.351 547.753 441.179 547.853 441.038 547.99C440.884 548.14 440.762 548.32 440.68 548.519C440.598 548.718 440.557 548.931 440.56 549.146V559.614H443.167V550.97L480.718 561.11Z" fill="#2747A3"/>
<path d="M482.432 558.119H422.615V564.101H482.432V558.119Z" fill="#AFAFAF"/>
<defs>
<linearGradient id="paint0_linear" x1="906.7" y1="733.975" x2="-94.941" y2="733.975" gradientUnits="userSpaceOnUse">
<stop offset="0.1539" stop-color="#65C4CE"/>
<stop offset="0.7683" stop-color="#3AB7CD"/>
</linearGradient>
<linearGradient id="paint1_linear" x1="-176.181" y1="526.223" x2="21.2359" y2="526.223" gradientUnits="userSpaceOnUse">
<stop offset="0.1891" stop-color="#FFEAD4"/>
<stop offset="0.8985" stop-color="#FFDFA8"/>
</linearGradient>
</defs>
</svg>
