<svg width="694" height="989" viewBox="0 0 694 989" fill="none" xmlns="http://www.w3.org/2000/svg">
<mask id="mask0" mask-type="alpha" maskUnits="userSpaceOnUse" x="0" y="0" width="714" height="989">
<path d="M13.1128 452.229C6.60587 504.627 10.8361 557.705 25.8724 609.029C-12.9713 566.905 1.18108 486.944 13.1128 452.229Z" fill="#C4C4C4"/>
<path d="M104.049 770.157C128.002 797.522 156.07 814.042 188.271 832.995C198.712 839.14 209.587 845.541 220.898 852.651C152.284 839.44 114.41 797.508 104.049 770.157Z" fill="#C4C4C4"/>
<path d="M379.098 945.059C426.165 960.37 479.789 970.195 535.779 978.125C463.514 995.277 400.513 963.931 379.098 945.059Z" fill="#C4C4C4"/>
<path d="M713.498 10.4694C674.123 10.4694 636.4 12.2601 600.332 15.6882C621.685 5.65314 674.211 -9.43964 713.498 10.4694Z" fill="#C4C4C4"/>
<path d="M475.337 35.3557C412.743 49.4495 356.502 69.0878 306.645 93.1241C326.63 71.1252 388.347 28.773 475.337 35.3557Z" fill="#C4C4C4"/>
<path fill-rule="evenodd" clip-rule="evenodd" d="M713.498 10.4694L713.498 988.024C638.162 959.012 559.913 969.781 535.779 978.125C479.789 970.195 426.165 960.37 379.098 945.059C340.26 907.932 256.047 860.836 220.898 852.651C209.587 845.541 198.712 839.14 188.271 832.995C156.07 814.042 128.002 797.522 104.049 770.157C102.719 742.658 55.0612 650.935 25.8724 609.029C10.8361 557.705 6.60587 504.627 13.1128 452.229C15.8001 447.767 20.061 442.363 25.1301 435.934C45.7289 409.81 79.6742 366.76 75.6167 301.159C71.4811 234.295 143.77 194.77 173.303 179.829C208.905 169.198 285.415 136.974 306.645 93.1241C356.502 69.0878 412.743 49.4495 475.337 35.3557C504.839 37.0755 571.141 35.5498 600.332 15.6882C636.4 12.2601 674.123 10.4694 713.498 10.4694Z" fill="#C4C4C4"/>
</mask>
<g mask="url(#mask0)">
<path d="M-90.7988 -198.538L-90.7988 1127.68L916.825 1123.5L916.825 -198.538H-90.7988Z" fill="url(#paint0_linear)"/>
</g>
<mask id="mask1" mask-type="alpha" maskUnits="userSpaceOnUse" x="127" y="60" width="587" height="869">
<path d="M138.173 457.311C132.828 503.389 136.303 550.065 148.654 595.199C116.746 558.156 128.372 487.839 138.173 457.311Z" fill="#C4C4C4"/>
<path d="M212.872 736.894C232.548 760.959 255.604 775.487 282.055 792.154C290.632 797.558 299.565 803.187 308.856 809.439C252.494 797.822 221.383 760.947 212.872 736.894Z" fill="#C4C4C4"/>
<path d="M438.809 890.703C477.472 904.167 521.521 912.807 567.513 919.781C508.152 934.864 456.4 907.299 438.809 890.703Z" fill="#C4C4C4"/>
<path d="M713.5 68.8293C681.155 68.8293 650.168 70.4041 620.54 73.4187C638.08 64.5939 681.228 51.3214 713.5 68.8293Z" fill="#C4C4C4"/>
<path d="M517.864 90.7142C466.447 103.108 420.247 120.378 379.293 141.516C395.709 122.17 446.407 84.9255 517.864 90.7142Z" fill="#C4C4C4"/>
<path fill-rule="evenodd" clip-rule="evenodd" d="M713.5 68.8293L713.5 928.486C651.616 902.973 587.338 912.443 567.513 919.781C521.521 912.807 477.472 904.167 438.809 890.703C406.905 858.054 337.729 816.637 308.856 809.439C299.565 803.187 290.632 797.558 282.055 792.154C255.604 775.487 232.548 760.959 212.872 736.894C211.779 712.712 172.631 632.052 148.654 595.199C136.303 550.065 132.828 503.389 138.173 457.311C140.38 453.386 143.88 448.634 148.044 442.981C164.965 420.008 192.849 382.149 189.516 324.46C186.119 265.66 245.5 230.902 269.76 217.764C299.005 208.415 361.854 180.077 379.293 141.516C420.247 120.378 466.447 103.108 517.864 90.7142C542.098 92.2266 596.561 90.8849 620.54 73.4187C650.168 70.4041 681.155 68.8293 713.5 68.8293Z" fill="#C4C4C4"/>
</mask>
<g mask="url(#mask1)">
<path d="M-41.9727 -202.391L-41.9727 1131.2L904.482 1127L904.482 -202.391H-41.9727Z" fill="white"/>
</g>
<mask id="mask2" mask-type="alpha" maskUnits="userSpaceOnUse" x="152" y="76" width="563" height="834">
<path d="M162.547 457.548C157.42 501.74 160.753 546.506 172.599 589.792C141.997 554.265 153.147 486.826 162.547 457.548Z" fill="#C4C4C4"/>
<path d="M234.188 725.687C253.059 748.767 275.172 762.7 300.54 778.685C308.765 783.868 317.333 789.266 326.244 795.262C272.189 784.121 242.35 748.755 234.188 725.687Z" fill="#C4C4C4"/>
<path d="M450.877 873.2C487.957 886.113 530.203 894.399 574.313 901.088C517.382 915.553 467.748 889.116 450.877 873.2Z" fill="#C4C4C4"/>
<path d="M714.324 84.9678C683.304 84.9678 653.584 86.4781 625.17 89.3694C641.992 80.9059 683.373 68.1766 714.324 84.9678Z" fill="#C4C4C4"/>
<path d="M526.696 105.957C477.383 117.844 433.075 134.407 393.797 154.679C409.542 136.125 458.164 100.405 526.696 105.957Z" fill="#C4C4C4"/>
<path fill-rule="evenodd" clip-rule="evenodd" d="M714.324 84.9678L714.324 909.436C654.973 884.967 593.326 894.05 574.313 901.088C530.203 894.399 487.957 886.113 450.877 873.2C420.279 841.887 353.935 802.166 326.244 795.262C317.333 789.266 308.765 783.868 300.54 778.685C275.172 762.7 253.059 748.767 234.188 725.687C233.14 702.494 195.594 625.136 172.599 589.792C160.753 546.506 157.42 501.74 162.547 457.548C164.664 453.784 168.021 449.226 172.014 443.804C188.242 421.771 214.985 385.463 211.789 330.135C208.53 273.742 265.481 240.406 288.748 227.806C316.795 218.84 377.072 191.662 393.797 154.679C433.075 134.407 477.383 117.844 526.696 105.957C549.938 107.407 602.172 106.121 625.17 89.3694C653.584 86.4781 683.304 84.9678 714.324 84.9678Z" fill="#C4C4C4"/>
</mask>
<g mask="url(#mask2)">
<path d="M-10.2246 -175.15L-10.2246 1103.85L897.489 1099.82L897.489 -175.15H-10.2246Z" fill="url(#paint1_linear)"/>
</g>
<path d="M100.338 482.401C101.841 458.601 88.1955 390.423 72.0923 402.629C26.5486 437.151 245.097 408.121 292.942 402.629" stroke="white" stroke-width="1.51475" stroke-dasharray="3.79 3.79"/>
<path d="M317.027 746.888C307.042 815.119 197.906 862.964 147.394 805.492C99.4201 750.908 213.848 689.055 165.139 620.244" stroke="white" stroke-width="1.51475" stroke-dasharray="3.79 3.79"/>
<path d="M103.046 448.3V455.138H101.502V448.3C101.502 448.085 101.677 447.91 101.891 447.91H102.657C102.872 447.91 103.046 448.085 103.046 448.3Z" fill="#425669"/>
<path d="M100.302 450.656V455.138H98.7576V450.656C98.7576 450.441 98.9321 450.266 99.147 450.266H99.9124C100.127 450.266 100.302 450.441 100.302 450.656Z" fill="#425669"/>
<path d="M97.5489 452.15V455.138H96.0046V452.15C96.0046 451.934 96.1792 451.759 96.3941 451.759H97.1595C97.3743 451.759 97.5489 451.934 97.5489 452.15Z" fill="#425669"/>
<path d="M105.447 454.882V459.916C105.447 460.037 105.34 460.145 105.219 460.145H93.7241C93.6033 460.145 93.4958 460.037 93.4958 459.916V454.882C93.4958 454.438 93.845 454.088 94.2881 454.088H104.655C105.098 454.088 105.447 454.438 105.447 454.882Z" fill="#E5E7EB"/>
<path d="M105.447 455.057H93.4958V455.69H105.447V455.057Z" fill="#78A0C5"/>
<path d="M103.5 457.049V458.772H101.956V457.063C101.956 456.847 102.13 456.672 102.345 456.672H103.111C103.325 456.659 103.5 456.834 103.5 457.049Z" fill="#B0B3B5"/>
<path d="M100.25 457.049V458.772H98.7053V457.063C98.7053 456.847 98.8799 456.672 99.0947 456.672H99.8602C100.075 456.659 100.25 456.834 100.25 457.049Z" fill="#B0B3B5"/>
<path d="M96.9883 457.049V458.772H95.4441V457.063C95.4441 456.847 95.6187 456.672 95.8335 456.672H96.5989C96.8138 456.659 96.9883 456.834 96.9883 457.049Z" fill="#B0B3B5"/>
<path d="M87.6914 476.552H81.7158C81.407 476.552 81.1653 476.296 81.1653 476V472.878C81.1653 472.568 81.4204 472.326 81.7158 472.326H87.6914C88.0002 472.326 88.242 472.581 88.242 472.878V476C88.242 476.296 88.0002 476.552 87.6914 476.552Z" fill="#EACB30"/>
<path d="M86.6279 476C86.5071 476 86.4131 475.906 86.4131 475.785V473.066C86.4131 472.945 86.5071 472.85 86.6279 472.85C86.7488 472.85 86.8428 472.945 86.8428 473.066V475.785C86.8428 475.906 86.7488 476 86.6279 476Z" fill="#BCA327"/>
<path d="M85.6628 476C85.542 476 85.448 475.906 85.448 475.785V473.066C85.448 472.945 85.542 472.85 85.6628 472.85C85.7837 472.85 85.8777 472.945 85.8777 473.066V475.785C85.8777 475.906 85.7837 476 85.6628 476Z" fill="#BCA327"/>
<path d="M84.7097 476C84.5889 476 84.4949 475.906 84.4949 475.785V473.066C84.4949 472.945 84.5889 472.85 84.7097 472.85C84.8306 472.85 84.9246 472.945 84.9246 473.066V475.785C84.9111 475.906 84.8172 476 84.7097 476Z" fill="#BCA327"/>
<path d="M83.7432 476C83.6223 476 83.5283 475.906 83.5283 475.785V473.066C83.5283 472.945 83.6223 472.85 83.7432 472.85C83.864 472.85 83.958 472.945 83.958 473.066V475.785C83.958 475.906 83.864 476 83.7432 476Z" fill="#BCA327"/>
<path d="M82.7925 476C82.6716 476 82.5776 475.906 82.5776 475.785V473.066C82.5776 472.945 82.6716 472.85 82.7925 472.85C82.9133 472.85 83.0073 472.945 83.0073 473.066V475.785C82.9939 475.906 82.8999 476 82.7925 476Z" fill="#BCA327"/>
<path d="M95.0102 476.552H89.0347C88.7258 476.552 88.4841 476.296 88.4841 476V472.878C88.4841 472.568 88.7393 472.326 89.0347 472.326H95.0102C95.3191 472.326 95.5608 472.581 95.5608 472.878V476C95.5742 476.296 95.3191 476.552 95.0102 476.552Z" fill="#D25956"/>
<path d="M93.9497 476C93.8289 476 93.7349 475.906 93.7349 475.785V473.066C93.7349 472.945 93.8289 472.85 93.9497 472.85C94.0706 472.85 94.1646 472.945 94.1646 473.066V475.785C94.1646 475.906 94.0706 476 93.9497 476Z" fill="#B84E4C"/>
<path d="M92.9966 476C92.8757 476 92.7817 475.906 92.7817 475.785V473.066C92.7817 472.945 92.8757 472.85 92.9966 472.85C93.1174 472.85 93.2114 472.945 93.2114 473.066V475.785C93.198 475.906 93.104 476 92.9966 476Z" fill="#B84E4C"/>
<path d="M92.0315 476C91.9106 476 91.8167 475.906 91.8167 475.785V473.066C91.8167 472.945 91.9106 472.85 92.0315 472.85C92.1524 472.85 92.2464 472.945 92.2464 473.066V475.785C92.2464 475.906 92.1524 476 92.0315 476Z" fill="#B84E4C"/>
<path d="M91.0784 476C90.9575 476 90.8635 475.906 90.8635 475.785V473.066C90.8635 472.945 90.9575 472.85 91.0784 472.85C91.1992 472.85 91.2932 472.945 91.2932 473.066V475.785C91.2798 475.906 91.1858 476 91.0784 476Z" fill="#B84E4C"/>
<path d="M90.1084 476C89.9876 476 89.8936 475.906 89.8936 475.785V473.066C89.8936 472.945 89.9876 472.85 90.1084 472.85C90.2293 472.85 90.3233 472.945 90.3233 473.066V475.785C90.3233 475.906 90.2293 476 90.1084 476Z" fill="#B84E4C"/>
<path d="M91.3296 472.312H85.354C85.0452 472.312 84.8035 472.057 84.8035 471.76V468.638C84.8035 468.328 85.0586 468.086 85.354 468.086H91.3296C91.6384 468.086 91.8801 468.342 91.8801 468.638V471.76C91.8801 472.057 91.625 472.312 91.3296 472.312Z" fill="#C9CACE"/>
<path d="M90.2588 471.76C90.1379 471.76 90.0439 471.666 90.0439 471.545V468.826C90.0439 468.705 90.1379 468.611 90.2588 468.611C90.3797 468.611 90.4737 468.705 90.4737 468.826V471.545C90.4737 471.666 90.3797 471.76 90.2588 471.76Z" fill="#AFAFB2"/>
<path d="M89.304 471.76C89.1831 471.76 89.0891 471.666 89.0891 471.545V468.826C89.0891 468.705 89.1831 468.611 89.304 468.611C89.4248 468.611 89.5188 468.705 89.5188 468.826V471.545C89.5054 471.666 89.4114 471.76 89.304 471.76Z" fill="#AFAFB2"/>
<path d="M88.3357 471.76C88.2148 471.76 88.1208 471.666 88.1208 471.545V468.826C88.1208 468.705 88.2148 468.611 88.3357 468.611C88.4566 468.611 88.5506 468.705 88.5506 468.826V471.545C88.5506 471.666 88.4566 471.76 88.3357 471.76Z" fill="#AFAFB2"/>
<path d="M87.3826 471.76C87.2617 471.76 87.1677 471.666 87.1677 471.545V468.826C87.1677 468.705 87.2617 468.611 87.3826 468.611C87.5034 468.611 87.5974 468.705 87.5974 468.826V471.545C87.584 471.666 87.49 471.76 87.3826 471.76Z" fill="#AFAFB2"/>
<path d="M86.4143 471.76C86.2935 471.76 86.1995 471.666 86.1995 471.545V468.826C86.1995 468.705 86.2935 468.611 86.4143 468.611C86.5352 468.611 86.6292 468.705 86.6292 468.826V471.545C86.6292 471.666 86.5352 471.76 86.4143 471.76Z" fill="#AFAFB2"/>
<path d="M95.0102 468.072H89.0347C88.7258 468.072 88.4841 467.817 88.4841 467.52V464.398C88.4841 464.088 88.7393 463.846 89.0347 463.846H95.0102C95.3191 463.846 95.5608 464.102 95.5608 464.398V467.52C95.5742 467.817 95.3191 468.072 95.0102 468.072Z" fill="#78A0C5"/>
<path d="M93.9497 467.521C93.8289 467.521 93.7349 467.426 93.7349 467.305V464.586C93.7349 464.465 93.8289 464.371 93.9497 464.371C94.0706 464.371 94.1646 464.465 94.1646 464.586V467.305C94.1646 467.426 94.0706 467.521 93.9497 467.521Z" fill="#6D90B1"/>
<path d="M92.9966 467.521C92.8757 467.521 92.7817 467.426 92.7817 467.305V464.586C92.7817 464.465 92.8757 464.371 92.9966 464.371C93.1174 464.371 93.2114 464.465 93.2114 464.586V467.305C93.198 467.426 93.104 467.521 92.9966 467.521Z" fill="#6D90B1"/>
<path d="M92.0315 467.521C91.9106 467.521 91.8167 467.426 91.8167 467.305V464.586C91.8167 464.465 91.9106 464.371 92.0315 464.371C92.1524 464.371 92.2464 464.465 92.2464 464.586V467.305C92.2464 467.426 92.1524 467.521 92.0315 467.521Z" fill="#6D90B1"/>
<path d="M91.0784 467.521C90.9575 467.521 90.8635 467.426 90.8635 467.305V464.586C90.8635 464.465 90.9575 464.371 91.0784 464.371C91.1992 464.371 91.2932 464.465 91.2932 464.586V467.305C91.2798 467.426 91.1858 467.521 91.0784 467.521Z" fill="#6D90B1"/>
<path d="M90.1084 467.521C89.9876 467.521 89.8936 467.426 89.8936 467.305V464.586C89.8936 464.465 89.9876 464.371 90.1084 464.371C90.2293 464.371 90.3233 464.465 90.3233 464.586V467.305C90.3233 467.426 90.2293 467.521 90.1084 467.521Z" fill="#6D90B1"/>
<path d="M102.248 468.072H96.2722C95.9634 468.072 95.7217 467.817 95.7217 467.52V464.398C95.7217 464.088 95.9768 463.846 96.2722 463.846H102.248C102.557 463.846 102.798 464.102 102.798 464.398V467.52C102.798 467.817 102.557 468.072 102.248 468.072Z" fill="#EDB939"/>
<path d="M101.19 467.521C101.069 467.521 100.975 467.426 100.975 467.305V464.586C100.975 464.465 101.069 464.371 101.19 464.371C101.311 464.371 101.405 464.465 101.405 464.586V467.305C101.391 467.426 101.297 467.521 101.19 467.521Z" fill="#CFA233"/>
<path d="M100.222 467.521C100.102 467.521 100.008 467.426 100.008 467.305V464.586C100.008 464.465 100.102 464.371 100.222 464.371C100.343 464.371 100.437 464.465 100.437 464.586V467.305C100.437 467.426 100.343 467.521 100.222 467.521Z" fill="#CFA233"/>
<path d="M99.2669 467.521C99.146 467.521 99.052 467.426 99.052 467.305V464.586C99.052 464.465 99.146 464.371 99.2669 464.371C99.3877 464.371 99.4817 464.465 99.4817 464.586V467.305C99.4683 467.426 99.3743 467.521 99.2669 467.521Z" fill="#CFA233"/>
<path d="M98.302 467.521C98.1812 467.521 98.0872 467.426 98.0872 467.305V464.586C98.0872 464.465 98.1812 464.371 98.302 464.371C98.4229 464.371 98.5169 464.465 98.5169 464.586V467.305C98.5169 467.426 98.4229 467.521 98.302 467.521Z" fill="#CFA233"/>
<path d="M97.3472 467.521C97.2263 467.521 97.1323 467.426 97.1323 467.305V464.586C97.1323 464.465 97.2263 464.371 97.3472 464.371C97.468 464.371 97.562 464.465 97.562 464.586V467.305C97.5486 467.426 97.4546 467.521 97.3472 467.521Z" fill="#CFA233"/>
<path d="M99.0393 463.833H93.0637C92.7549 463.833 92.5132 463.577 92.5132 463.281V460.158C92.5132 459.848 92.7683 459.606 93.0637 459.606H99.0393C99.3481 459.606 99.5899 459.862 99.5899 460.158V463.281C99.5899 463.577 99.3481 463.833 99.0393 463.833Z" fill="#C9CACE"/>
<path d="M97.9793 463.28C97.8584 463.28 97.7644 463.186 97.7644 463.065V460.346C97.7644 460.225 97.8584 460.131 97.9793 460.131C98.1001 460.131 98.1941 460.225 98.1941 460.346V463.065C98.1807 463.186 98.0867 463.28 97.9793 463.28Z" fill="#AFAFB2"/>
<path d="M97.0085 463.28C96.8877 463.28 96.7937 463.186 96.7937 463.065V460.346C96.7937 460.225 96.8877 460.131 97.0085 460.131C97.1294 460.131 97.2234 460.225 97.2234 460.346V463.065C97.2234 463.186 97.1294 463.28 97.0085 463.28Z" fill="#AFAFB2"/>
<path d="M96.0579 463.28C95.937 463.28 95.843 463.186 95.843 463.065V460.346C95.843 460.225 95.937 460.131 96.0579 460.131C96.1787 460.131 96.2727 460.225 96.2727 460.346V463.065C96.2593 463.186 96.1653 463.28 96.0579 463.28Z" fill="#AFAFB2"/>
<path d="M95.0896 463.28C94.9688 463.28 94.8748 463.186 94.8748 463.065V460.346C94.8748 460.225 94.9688 460.131 95.0896 460.131C95.2105 460.131 95.3045 460.225 95.3045 460.346V463.065C95.3045 463.186 95.2105 463.28 95.0896 463.28Z" fill="#AFAFB2"/>
<path d="M94.1399 463.28C94.019 463.28 93.925 463.186 93.925 463.065V460.346C93.925 460.225 94.019 460.131 94.1399 460.131C94.2608 460.131 94.3547 460.225 94.3547 460.346V463.065C94.3413 463.186 94.2473 463.28 94.1399 463.28Z" fill="#AFAFB2"/>
<path d="M106.116 463.833H100.14C99.8316 463.833 99.5898 463.577 99.5898 463.281V460.158C99.5898 459.848 99.845 459.606 100.14 459.606H106.116C106.425 459.606 106.667 459.862 106.667 460.158V463.281C106.68 463.577 106.425 463.833 106.116 463.833Z" fill="#D25956"/>
<path d="M105.055 463.28C104.935 463.28 104.841 463.186 104.841 463.065V460.346C104.841 460.225 104.935 460.131 105.055 460.131C105.176 460.131 105.27 460.225 105.27 460.346V463.065C105.27 463.186 105.176 463.28 105.055 463.28Z" fill="#B84E4C"/>
<path d="M104.087 463.28C103.966 463.28 103.872 463.186 103.872 463.065V460.346C103.872 460.225 103.966 460.131 104.087 460.131C104.208 460.131 104.302 460.225 104.302 460.346V463.065C104.302 463.186 104.208 463.28 104.087 463.28Z" fill="#B84E4C"/>
<path d="M103.133 463.28C103.012 463.28 102.918 463.186 102.918 463.065V460.346C102.918 460.225 103.012 460.131 103.133 460.131C103.254 460.131 103.348 460.225 103.348 460.346V463.065C103.348 463.186 103.254 463.28 103.133 463.28Z" fill="#B84E4C"/>
<path d="M102.167 463.28C102.047 463.28 101.953 463.186 101.953 463.065V460.346C101.953 460.225 102.047 460.131 102.167 460.131C102.288 460.131 102.382 460.225 102.382 460.346V463.065C102.382 463.186 102.288 463.28 102.167 463.28Z" fill="#B84E4C"/>
<path d="M101.216 463.28C101.095 463.28 101.001 463.186 101.001 463.065V460.346C101.001 460.225 101.095 460.131 101.216 460.131C101.337 460.131 101.431 460.225 101.431 460.346V463.065C101.431 463.186 101.337 463.28 101.216 463.28Z" fill="#B84E4C"/>
<path d="M109.472 468.072H103.496C103.188 468.072 102.946 467.817 102.946 467.52V464.398C102.946 464.088 103.201 463.846 103.496 463.846H109.472C109.781 463.846 110.022 464.102 110.022 464.398V467.52C110.036 467.817 109.781 468.072 109.472 468.072Z" fill="#78A0C5"/>
<path d="M108.409 467.521C108.289 467.521 108.195 467.426 108.195 467.305V464.586C108.195 464.465 108.289 464.371 108.409 464.371C108.53 464.371 108.624 464.465 108.624 464.586V467.305C108.624 467.426 108.53 467.521 108.409 467.521Z" fill="#6D90B1"/>
<path d="M107.457 467.521C107.336 467.521 107.242 467.426 107.242 467.305V464.586C107.242 464.465 107.336 464.371 107.457 464.371C107.578 464.371 107.672 464.465 107.672 464.586V467.305C107.658 467.426 107.564 467.521 107.457 467.521Z" fill="#6D90B1"/>
<path d="M106.49 467.521C106.369 467.521 106.275 467.426 106.275 467.305V464.586C106.275 464.465 106.369 464.371 106.49 464.371C106.611 464.371 106.705 464.465 106.705 464.586V467.305C106.705 467.426 106.611 467.521 106.49 467.521Z" fill="#6D90B1"/>
<path d="M105.537 467.521C105.417 467.521 105.323 467.426 105.323 467.305V464.586C105.323 464.465 105.417 464.371 105.537 464.371C105.658 464.371 105.752 464.465 105.752 464.586V467.305C105.739 467.426 105.645 467.521 105.537 467.521Z" fill="#6D90B1"/>
<path d="M104.573 467.521C104.452 467.521 104.358 467.426 104.358 467.305V464.586C104.358 464.465 104.452 464.371 104.573 464.371C104.693 464.371 104.787 464.465 104.787 464.586V467.305C104.787 467.426 104.693 467.521 104.573 467.521Z" fill="#6D90B1"/>
<path d="M98.5552 472.312H92.5796C92.2708 472.312 92.0291 472.057 92.0291 471.76V468.638C92.0291 468.328 92.2842 468.086 92.5796 468.086H98.5552C98.864 468.086 99.1057 468.342 99.1057 468.638V471.76C99.1057 472.057 98.864 472.312 98.5552 472.312Z" fill="#EACB30"/>
<path d="M97.4937 471.76C97.3728 471.76 97.2788 471.666 97.2788 471.545V468.826C97.2788 468.705 97.3728 468.611 97.4937 468.611C97.6145 468.611 97.7085 468.705 97.7085 468.826V471.545C97.6951 471.666 97.6011 471.76 97.4937 471.76Z" fill="#BCA327"/>
<path d="M96.5264 471.76C96.4055 471.76 96.3115 471.666 96.3115 471.545V468.826C96.3115 468.705 96.4055 468.611 96.5264 468.611C96.6472 468.611 96.7412 468.705 96.7412 468.826V471.545C96.7412 471.666 96.6472 471.76 96.5264 471.76Z" fill="#BCA327"/>
<path d="M95.5733 471.76C95.4524 471.76 95.3584 471.666 95.3584 471.545V468.826C95.3584 468.705 95.4524 468.611 95.5733 468.611C95.6941 468.611 95.7881 468.705 95.7881 468.826V471.545C95.7747 471.666 95.6807 471.76 95.5733 471.76Z" fill="#BCA327"/>
<path d="M94.6057 471.76C94.4849 471.76 94.3909 471.666 94.3909 471.545V468.826C94.3909 468.705 94.4849 468.611 94.6057 468.611C94.7266 468.611 94.8206 468.705 94.8206 468.826V471.545C94.8206 471.666 94.7266 471.76 94.6057 471.76Z" fill="#BCA327"/>
<path d="M93.6536 471.76C93.5327 471.76 93.4387 471.666 93.4387 471.545V468.826C93.4387 468.705 93.5327 468.611 93.6536 468.611C93.7744 468.611 93.8684 468.705 93.8684 468.826V471.545C93.855 471.666 93.761 471.76 93.6536 471.76Z" fill="#BCA327"/>
<path d="M105.779 472.312H99.803C99.4942 472.312 99.2524 472.057 99.2524 471.76V468.638C99.2524 468.328 99.5076 468.086 99.803 468.086H105.779C106.087 468.086 106.329 468.342 106.329 468.638V471.76C106.343 472.057 106.087 472.312 105.779 472.312Z" fill="#D25956"/>
<path d="M104.717 471.76C104.596 471.76 104.502 471.666 104.502 471.545V468.826C104.502 468.705 104.596 468.611 104.717 468.611C104.838 468.611 104.932 468.705 104.932 468.826V471.545C104.932 471.666 104.838 471.76 104.717 471.76Z" fill="#B84E4C"/>
<path d="M103.761 471.76C103.64 471.76 103.546 471.666 103.546 471.545V468.826C103.546 468.705 103.64 468.611 103.761 468.611C103.882 468.611 103.976 468.705 103.976 468.826V471.545C103.962 471.666 103.868 471.76 103.761 471.76Z" fill="#B84E4C"/>
<path d="M102.796 471.76C102.675 471.76 102.581 471.666 102.581 471.545V468.826C102.581 468.705 102.675 468.611 102.796 468.611C102.917 468.611 103.011 468.705 103.011 468.826V471.545C103.011 471.666 102.917 471.76 102.796 471.76Z" fill="#B84E4C"/>
<path d="M101.841 471.76C101.72 471.76 101.626 471.666 101.626 471.545V468.826C101.626 468.705 101.72 468.611 101.841 468.611C101.962 468.611 102.056 468.705 102.056 468.826V471.545C102.043 471.666 101.949 471.76 101.841 471.76Z" fill="#B84E4C"/>
<path d="M100.876 471.76C100.756 471.76 100.662 471.666 100.662 471.545V468.826C100.662 468.705 100.756 468.611 100.876 468.611C100.997 468.611 101.091 468.705 101.091 468.826V471.545C101.091 471.666 100.997 471.76 100.876 471.76Z" fill="#B84E4C"/>
<path d="M113.017 472.312H107.041C106.732 472.312 106.491 472.057 106.491 471.76V468.638C106.491 468.328 106.746 468.086 107.041 468.086H113.017C113.326 468.086 113.567 468.342 113.567 468.638V471.76C113.567 472.057 113.326 472.312 113.017 472.312Z" fill="#C9CACE"/>
<path d="M111.955 471.76C111.834 471.76 111.74 471.666 111.74 471.545V468.826C111.74 468.705 111.834 468.611 111.955 468.611C112.076 468.611 112.17 468.705 112.17 468.826V471.545C112.157 471.666 112.063 471.76 111.955 471.76Z" fill="#AFAFB2"/>
<path d="M110.987 471.76C110.866 471.76 110.772 471.666 110.772 471.545V468.826C110.772 468.705 110.866 468.611 110.987 468.611C111.108 468.611 111.202 468.705 111.202 468.826V471.545C111.202 471.666 111.108 471.76 110.987 471.76Z" fill="#AFAFB2"/>
<path d="M110.035 471.76C109.914 471.76 109.82 471.666 109.82 471.545V468.826C109.82 468.705 109.914 468.611 110.035 468.611C110.156 468.611 110.25 468.705 110.25 468.826V471.545C110.236 471.666 110.142 471.76 110.035 471.76Z" fill="#AFAFB2"/>
<path d="M109.069 471.76C108.948 471.76 108.854 471.666 108.854 471.545V468.826C108.854 468.705 108.948 468.611 109.069 468.611C109.19 468.611 109.284 468.705 109.284 468.826V471.545C109.284 471.666 109.19 471.76 109.069 471.76Z" fill="#AFAFB2"/>
<path d="M108.116 471.76C107.996 471.76 107.902 471.666 107.902 471.545V468.826C107.902 468.705 107.996 468.611 108.116 468.611C108.237 468.611 108.331 468.705 108.331 468.826V471.545C108.318 471.666 108.224 471.76 108.116 471.76Z" fill="#AFAFB2"/>
<path d="M102.34 476.552H96.3645C96.0557 476.552 95.814 476.296 95.814 476V472.878C95.814 472.568 96.0691 472.326 96.3645 472.326H102.34C102.649 472.326 102.891 472.581 102.891 472.878V476C102.891 476.296 102.635 476.552 102.34 476.552Z" fill="#C9CACE"/>
<path d="M101.264 476C101.143 476 101.049 475.906 101.049 475.785V473.066C101.049 472.945 101.143 472.85 101.264 472.85C101.385 472.85 101.479 472.945 101.479 473.066V475.785C101.479 475.906 101.385 476 101.264 476Z" fill="#AFAFB2"/>
<path d="M100.314 476C100.194 476 100.1 475.906 100.1 475.785V473.066C100.1 472.945 100.194 472.85 100.314 472.85C100.435 472.85 100.529 472.945 100.529 473.066V475.785C100.529 475.906 100.435 476 100.314 476Z" fill="#AFAFB2"/>
<path d="M99.3445 476C99.2236 476 99.1296 475.906 99.1296 475.785V473.066C99.1296 472.945 99.2236 472.85 99.3445 472.85C99.4653 472.85 99.5593 472.945 99.5593 473.066V475.785C99.5593 475.906 99.4653 476 99.3445 476Z" fill="#AFAFB2"/>
<path d="M98.3945 476C98.2737 476 98.1797 475.906 98.1797 475.785V473.066C98.1797 472.945 98.2737 472.85 98.3945 472.85C98.5154 472.85 98.6094 472.945 98.6094 473.066V475.785C98.596 475.906 98.502 476 98.3945 476Z" fill="#AFAFB2"/>
<path d="M97.4263 476C97.3054 476 97.2114 475.906 97.2114 475.785V473.066C97.2114 472.945 97.3054 472.85 97.4263 472.85C97.5471 472.85 97.6411 472.945 97.6411 473.066V475.785C97.6411 475.906 97.5471 476 97.4263 476Z" fill="#AFAFB2"/>
<path d="M109.661 476.552H103.685C103.376 476.552 103.135 476.296 103.135 476V472.878C103.135 472.568 103.39 472.326 103.685 472.326H109.661C109.97 472.326 110.211 472.581 110.211 472.878V476C110.211 476.296 109.97 476.552 109.661 476.552Z" fill="#78A0C5"/>
<path d="M108.6 476C108.479 476 108.385 475.906 108.385 475.785V473.066C108.385 472.945 108.479 472.85 108.6 472.85C108.721 472.85 108.815 472.945 108.815 473.066V475.785C108.802 475.906 108.708 476 108.6 476Z" fill="#6D90B1"/>
<path d="M107.636 476C107.515 476 107.421 475.906 107.421 475.785V473.066C107.421 472.945 107.515 472.85 107.636 472.85C107.756 472.85 107.85 472.945 107.85 473.066V475.785C107.85 475.906 107.756 476 107.636 476Z" fill="#6D90B1"/>
<path d="M106.681 476C106.561 476 106.467 475.906 106.467 475.785V473.066C106.467 472.945 106.561 472.85 106.681 472.85C106.802 472.85 106.896 472.945 106.896 473.066V475.785C106.883 475.906 106.789 476 106.681 476Z" fill="#6D90B1"/>
<path d="M105.715 476C105.594 476 105.5 475.906 105.5 475.785V473.066C105.5 472.945 105.594 472.85 105.715 472.85C105.836 472.85 105.93 472.945 105.93 473.066V475.785C105.93 475.906 105.836 476 105.715 476Z" fill="#6D90B1"/>
<path d="M104.761 476C104.64 476 104.546 475.906 104.546 475.785V473.066C104.546 472.945 104.64 472.85 104.761 472.85C104.882 472.85 104.976 472.945 104.976 473.066V475.785C104.962 475.906 104.868 476 104.761 476Z" fill="#6D90B1"/>
<path d="M116.98 476.552H111.018C110.709 476.552 110.467 476.296 110.467 476V472.878C110.467 472.568 110.722 472.326 111.018 472.326H116.993C117.302 472.326 117.544 472.581 117.544 472.878V476C117.544 476.296 117.289 476.552 116.98 476.552Z" fill="#EDB939"/>
<path d="M115.919 476C115.799 476 115.705 475.906 115.705 475.785V473.066C115.705 472.945 115.799 472.85 115.919 472.85C116.04 472.85 116.134 472.945 116.134 473.066V475.785C116.134 475.906 116.04 476 115.919 476Z" fill="#CFA233"/>
<path d="M114.949 476C114.828 476 114.734 475.906 114.734 475.785V473.066C114.734 472.945 114.828 472.85 114.949 472.85C115.07 472.85 115.164 472.945 115.164 473.066V475.785C115.164 475.906 115.07 476 114.949 476Z" fill="#CFA233"/>
<path d="M113.998 476C113.877 476 113.783 475.906 113.783 475.785V473.066C113.783 472.945 113.877 472.85 113.998 472.85C114.119 472.85 114.213 472.945 114.213 473.066V475.785C114.213 475.906 114.119 476 113.998 476Z" fill="#CFA233"/>
<path d="M113.032 476C112.911 476 112.817 475.906 112.817 475.785V473.066C112.817 472.945 112.911 472.85 113.032 472.85C113.152 472.85 113.246 472.945 113.246 473.066V475.785C113.246 475.906 113.152 476 113.032 476Z" fill="#CFA233"/>
<path d="M112.078 476C111.958 476 111.864 475.906 111.864 475.785V473.066C111.864 472.945 111.958 472.85 112.078 472.85C112.199 472.85 112.293 472.945 112.293 473.066V475.785C112.293 475.906 112.186 476 112.078 476Z" fill="#CFA233"/>
<path d="M119.84 477.347L100.866 469.742C100.383 469.554 99.8727 469.446 99.349 469.432C98.8387 469.446 98.3284 469.54 97.8316 469.742L78.871 477.347C77.5953 477.858 76.9642 479.312 77.4476 480.59L81.1538 490.308V495.773C81.1538 496.998 82.1474 497.98 83.356 497.98H99.3356H115.315C116.537 497.98 117.517 496.984 117.517 495.773V490.308L121.224 480.59C121.747 479.298 121.116 477.858 119.84 477.347Z" fill="#B71C22"/>
<path d="M99.3356 475.057L77.8362 481.623L78.4773 483.304L99.349 477.361L120.326 482.959L120.835 481.623L99.3356 475.057Z" fill="#6D1415"/>
<path d="M100.866 469.72L119.84 477.325C121.116 477.836 121.747 479.276 121.224 480.568L99.349 473.781L77.4476 480.568C76.9642 479.29 77.5953 477.836 78.871 477.325L97.8316 469.72C98.3284 469.518 98.8387 469.424 99.349 469.41C99.8727 469.424 100.383 469.532 100.866 469.72Z" fill="#6D1415"/>
<path d="M81.1665 492.718V495.773C81.1665 496.998 82.1602 497.98 83.3687 497.98H99.3483H115.328C116.55 497.98 117.53 496.984 117.53 495.773V492.718H81.1665Z" fill="#6D1415"/>
<path d="M81.6063 485.574C81.8892 485.574 82.1186 485.326 82.1186 485.021C82.1186 484.715 81.8892 484.467 81.6063 484.467C81.3234 484.467 81.094 484.715 81.094 485.021C81.094 485.326 81.3234 485.574 81.6063 485.574Z" fill="white"/>
<path d="M88.4863 483.385C88.8214 483.385 89.0931 483.091 89.0931 482.729C89.0931 482.367 88.8214 482.074 88.4863 482.074C88.1511 482.074 87.8794 482.367 87.8794 482.729C87.8794 483.091 88.1511 483.385 88.4863 483.385Z" fill="white"/>
<path d="M95.5137 481.787C95.9011 481.787 96.2151 481.448 96.2151 481.029C96.2151 480.611 95.9011 480.272 95.5137 480.272C95.1263 480.272 94.8123 480.611 94.8123 481.029C94.8123 481.448 95.1263 481.787 95.5137 481.787Z" fill="white"/>
<path d="M116.705 485.663C116.418 485.663 116.184 485.412 116.184 485.101C116.184 484.79 116.418 484.538 116.705 484.538C116.993 484.538 117.226 484.79 117.226 485.101C117.226 485.412 116.993 485.663 116.705 485.663Z" fill="white"/>
<path d="M109.704 483.437C109.363 483.437 109.087 483.139 109.087 482.771C109.087 482.403 109.363 482.104 109.704 482.104C110.045 482.104 110.321 482.403 110.321 482.771C110.321 483.139 110.045 483.437 109.704 483.437Z" fill="white"/>
<path d="M102.558 481.812C102.164 481.812 101.845 481.467 101.845 481.042C101.845 480.616 102.164 480.271 102.558 480.271C102.952 480.271 103.271 480.616 103.271 481.042C103.271 481.467 102.952 481.812 102.558 481.812Z" fill="white"/>
<path d="M167.87 630.135V636.972H166.325V630.135C166.325 629.92 166.5 629.745 166.715 629.745H167.48C167.695 629.745 167.87 629.92 167.87 630.135Z" fill="#425669"/>
<path d="M165.125 632.491V636.973H163.581V632.491C163.581 632.275 163.756 632.1 163.97 632.1H164.736C164.951 632.1 165.125 632.275 165.125 632.491Z" fill="#425669"/>
<path d="M162.372 633.985V636.973H160.828V633.985C160.828 633.769 161.003 633.594 161.218 633.594H161.983C162.198 633.594 162.372 633.769 162.372 633.985Z" fill="#425669"/>
<path d="M170.27 636.716V641.75C170.27 641.872 170.163 641.979 170.042 641.979H158.548C158.427 641.979 158.319 641.872 158.319 641.75V636.716C158.319 636.272 158.668 635.922 159.112 635.922H169.478C169.921 635.922 170.27 636.272 170.27 636.716Z" fill="#E5E7EB"/>
<path d="M170.27 636.892H158.319V637.525H170.27V636.892Z" fill="#78A0C5"/>
<path d="M168.325 638.884V640.607H166.781V638.897C166.781 638.682 166.956 638.507 167.17 638.507H167.936C168.151 638.494 168.325 638.669 168.325 638.884Z" fill="#B0B3B5"/>
<path d="M165.073 638.884V640.607H163.529V638.897C163.529 638.682 163.703 638.507 163.918 638.507H164.684C164.898 638.494 165.073 638.669 165.073 638.884Z" fill="#B0B3B5"/>
<path d="M161.812 638.884V640.607H160.268V638.897C160.268 638.682 160.442 638.507 160.657 638.507H161.422C161.637 638.494 161.812 638.669 161.812 638.884Z" fill="#B0B3B5"/>
<path d="M152.515 658.387H146.539C146.23 658.387 145.989 658.131 145.989 657.835V654.712C145.989 654.403 146.244 654.161 146.539 654.161H152.515C152.823 654.161 153.065 654.416 153.065 654.712V657.835C153.065 658.131 152.823 658.387 152.515 658.387Z" fill="#EACB30"/>
<path d="M151.448 657.835C151.328 657.835 151.234 657.741 151.234 657.62V654.901C151.234 654.78 151.328 654.686 151.448 654.686C151.569 654.686 151.663 654.78 151.663 654.901V657.62C151.663 657.741 151.569 657.835 151.448 657.835Z" fill="#BCA327"/>
<path d="M150.485 657.835C150.365 657.835 150.271 657.741 150.271 657.62V654.901C150.271 654.78 150.365 654.686 150.485 654.686C150.606 654.686 150.7 654.78 150.7 654.901V657.62C150.7 657.741 150.606 657.835 150.485 657.835Z" fill="#BCA327"/>
<path d="M149.53 657.835C149.409 657.835 149.315 657.741 149.315 657.62V654.901C149.315 654.78 149.409 654.686 149.53 654.686C149.651 654.686 149.745 654.78 149.745 654.901V657.62C149.731 657.741 149.637 657.835 149.53 657.835Z" fill="#BCA327"/>
<path d="M148.564 657.835C148.443 657.835 148.349 657.741 148.349 657.62V654.901C148.349 654.78 148.443 654.686 148.564 654.686C148.685 654.686 148.779 654.78 148.779 654.901V657.62C148.779 657.741 148.685 657.835 148.564 657.835Z" fill="#BCA327"/>
<path d="M147.609 657.835C147.488 657.835 147.394 657.741 147.394 657.62V654.901C147.394 654.78 147.488 654.686 147.609 654.686C147.73 654.686 147.824 654.78 147.824 654.901V657.62C147.811 657.741 147.717 657.835 147.609 657.835Z" fill="#BCA327"/>
<path d="M159.833 658.387H153.858C153.549 658.387 153.307 658.131 153.307 657.835V654.712C153.307 654.403 153.563 654.161 153.858 654.161H159.833C160.142 654.161 160.384 654.416 160.384 654.712V657.835C160.397 658.131 160.142 658.387 159.833 658.387Z" fill="#D25956"/>
<path d="M158.771 657.835C158.65 657.835 158.556 657.741 158.556 657.62V654.901C158.556 654.78 158.65 654.686 158.771 654.686C158.892 654.686 158.986 654.78 158.986 654.901V657.62C158.986 657.741 158.892 657.835 158.771 657.835Z" fill="#B84E4C"/>
<path d="M157.817 657.835C157.696 657.835 157.602 657.741 157.602 657.62V654.901C157.602 654.78 157.696 654.686 157.817 654.686C157.938 654.686 158.032 654.78 158.032 654.901V657.62C158.019 657.741 157.925 657.835 157.817 657.835Z" fill="#B84E4C"/>
<path d="M156.85 657.835C156.729 657.835 156.635 657.741 156.635 657.62V654.901C156.635 654.78 156.729 654.686 156.85 654.686C156.971 654.686 157.065 654.78 157.065 654.901V657.62C157.065 657.741 156.971 657.835 156.85 657.835Z" fill="#B84E4C"/>
<path d="M155.901 657.835C155.78 657.835 155.686 657.741 155.686 657.62V654.901C155.686 654.78 155.78 654.686 155.901 654.686C156.022 654.686 156.116 654.78 156.116 654.901V657.62C156.102 657.741 156.008 657.835 155.901 657.835Z" fill="#B84E4C"/>
<path d="M154.931 657.835C154.81 657.835 154.716 657.741 154.716 657.62V654.901C154.716 654.78 154.81 654.686 154.931 654.686C155.052 654.686 155.146 654.78 155.146 654.901V657.62C155.146 657.741 155.052 657.835 154.931 657.835Z" fill="#B84E4C"/>
<path d="M156.153 654.147H150.177C149.868 654.147 149.627 653.892 149.627 653.596V650.473C149.627 650.163 149.882 649.921 150.177 649.921H156.153C156.462 649.921 156.703 650.177 156.703 650.473V653.596C156.703 653.892 156.448 654.147 156.153 654.147Z" fill="#C9CACE"/>
<path d="M155.079 653.596C154.958 653.596 154.865 653.502 154.865 653.38V650.662C154.865 650.541 154.958 650.446 155.079 650.446C155.2 650.446 155.294 650.541 155.294 650.662V653.38C155.294 653.502 155.2 653.596 155.079 653.596Z" fill="#AFAFB2"/>
<path d="M154.126 653.596C154.005 653.596 153.911 653.502 153.911 653.38V650.662C153.911 650.541 154.005 650.446 154.126 650.446C154.247 650.446 154.341 650.541 154.341 650.662V653.38C154.328 653.502 154.234 653.596 154.126 653.596Z" fill="#AFAFB2"/>
<path d="M153.16 653.596C153.039 653.596 152.945 653.502 152.945 653.38V650.662C152.945 650.541 153.039 650.446 153.16 650.446C153.281 650.446 153.375 650.541 153.375 650.662V653.38C153.375 653.502 153.281 653.596 153.16 653.596Z" fill="#AFAFB2"/>
<path d="M152.205 653.596C152.084 653.596 151.99 653.502 151.99 653.38V650.662C151.99 650.541 152.084 650.446 152.205 650.446C152.326 650.446 152.42 650.541 152.42 650.662V653.38C152.406 653.502 152.312 653.596 152.205 653.596Z" fill="#AFAFB2"/>
<path d="M151.238 653.596C151.117 653.596 151.023 653.502 151.023 653.38V650.662C151.023 650.541 151.117 650.446 151.238 650.446C151.359 650.446 151.453 650.541 151.453 650.662V653.38C151.453 653.502 151.359 653.596 151.238 653.596Z" fill="#AFAFB2"/>
<path d="M159.833 649.907H153.858C153.549 649.907 153.307 649.652 153.307 649.356V646.233C153.307 645.923 153.563 645.681 153.858 645.681H159.833C160.142 645.681 160.384 645.937 160.384 646.233V649.356C160.397 649.652 160.142 649.907 159.833 649.907Z" fill="#78A0C5"/>
<path d="M158.771 649.356C158.65 649.356 158.556 649.261 158.556 649.14V646.421C158.556 646.3 158.65 646.206 158.771 646.206C158.892 646.206 158.986 646.3 158.986 646.421V649.14C158.986 649.261 158.892 649.356 158.771 649.356Z" fill="#6D90B1"/>
<path d="M157.817 649.356C157.696 649.356 157.602 649.261 157.602 649.14V646.421C157.602 646.3 157.696 646.206 157.817 646.206C157.938 646.206 158.032 646.3 158.032 646.421V649.14C158.019 649.261 157.925 649.356 157.817 649.356Z" fill="#6D90B1"/>
<path d="M156.85 649.356C156.729 649.356 156.635 649.261 156.635 649.14V646.421C156.635 646.3 156.729 646.206 156.85 646.206C156.971 646.206 157.065 646.3 157.065 646.421V649.14C157.065 649.261 156.971 649.356 156.85 649.356Z" fill="#6D90B1"/>
<path d="M155.901 649.356C155.78 649.356 155.686 649.261 155.686 649.14V646.421C155.686 646.3 155.78 646.206 155.901 646.206C156.022 646.206 156.116 646.3 156.116 646.421V649.14C156.102 649.261 156.008 649.356 155.901 649.356Z" fill="#6D90B1"/>
<path d="M154.931 649.356C154.81 649.356 154.716 649.261 154.716 649.14V646.421C154.716 646.3 154.81 646.206 154.931 646.206C155.052 646.206 155.146 646.3 155.146 646.421V649.14C155.146 649.261 155.052 649.356 154.931 649.356Z" fill="#6D90B1"/>
<path d="M167.071 649.907H161.095C160.787 649.907 160.545 649.652 160.545 649.356V646.233C160.545 645.923 160.8 645.681 161.095 645.681H167.071C167.38 645.681 167.622 645.937 167.622 646.233V649.356C167.622 649.652 167.38 649.907 167.071 649.907Z" fill="#EDB939"/>
<path d="M166.011 649.356C165.891 649.356 165.797 649.261 165.797 649.14V646.421C165.797 646.3 165.891 646.206 166.011 646.206C166.132 646.206 166.226 646.3 166.226 646.421V649.14C166.213 649.261 166.119 649.356 166.011 649.356Z" fill="#CFA233"/>
<path d="M165.045 649.356C164.924 649.356 164.83 649.261 164.83 649.14V646.421C164.83 646.3 164.924 646.206 165.045 646.206C165.166 646.206 165.26 646.3 165.26 646.421V649.14C165.26 649.261 165.166 649.356 165.045 649.356Z" fill="#CFA233"/>
<path d="M164.089 649.356C163.969 649.356 163.875 649.261 163.875 649.14V646.421C163.875 646.3 163.969 646.206 164.089 646.206C164.21 646.206 164.304 646.3 164.304 646.421V649.14C164.291 649.261 164.197 649.356 164.089 649.356Z" fill="#CFA233"/>
<path d="M163.124 649.356C163.003 649.356 162.909 649.261 162.909 649.14V646.421C162.909 646.3 163.003 646.206 163.124 646.206C163.245 646.206 163.339 646.3 163.339 646.421V649.14C163.339 649.261 163.245 649.356 163.124 649.356Z" fill="#CFA233"/>
<path d="M162.172 649.356C162.051 649.356 161.957 649.261 161.957 649.14V646.421C161.957 646.3 162.051 646.206 162.172 646.206C162.293 646.206 162.387 646.3 162.387 646.421V649.14C162.374 649.261 162.28 649.356 162.172 649.356Z" fill="#CFA233"/>
<path d="M163.863 645.668H157.887C157.578 645.668 157.336 645.412 157.336 645.116V641.993C157.336 641.684 157.592 641.441 157.887 641.441H163.863C164.171 641.441 164.413 641.697 164.413 641.993V645.116C164.413 645.412 164.171 645.668 163.863 645.668Z" fill="#C9CACE"/>
<path d="M162.802 645.116C162.681 645.116 162.587 645.021 162.587 644.9V642.181C162.587 642.06 162.681 641.966 162.802 641.966C162.923 641.966 163.017 642.06 163.017 642.181V644.9C163.003 645.021 162.909 645.116 162.802 645.116Z" fill="#AFAFB2"/>
<path d="M161.831 645.116C161.71 645.116 161.616 645.021 161.616 644.9V642.181C161.616 642.06 161.71 641.966 161.831 641.966C161.952 641.966 162.046 642.06 162.046 642.181V644.9C162.046 645.021 161.952 645.116 161.831 645.116Z" fill="#AFAFB2"/>
<path d="M160.879 645.116C160.759 645.116 160.665 645.021 160.665 644.9V642.181C160.665 642.06 160.759 641.966 160.879 641.966C161 641.966 161.094 642.06 161.094 642.181V644.9C161.081 645.021 160.987 645.116 160.879 645.116Z" fill="#AFAFB2"/>
<path d="M159.913 645.116C159.792 645.116 159.698 645.021 159.698 644.9V642.181C159.698 642.06 159.792 641.966 159.913 641.966C160.034 641.966 160.128 642.06 160.128 642.181V644.9C160.128 645.021 160.034 645.116 159.913 645.116Z" fill="#AFAFB2"/>
<path d="M158.961 645.116C158.84 645.116 158.746 645.021 158.746 644.9V642.181C158.746 642.06 158.84 641.966 158.961 641.966C159.082 641.966 159.176 642.06 159.176 642.181V644.9C159.162 645.021 159.068 645.116 158.961 645.116Z" fill="#AFAFB2"/>
<path d="M170.938 645.668H164.963C164.654 645.668 164.412 645.412 164.412 645.116V641.993C164.412 641.684 164.667 641.442 164.963 641.442H170.938C171.247 641.442 171.489 641.697 171.489 641.993V645.116C171.502 645.412 171.247 645.668 170.938 645.668Z" fill="#D25956"/>
<path d="M169.88 645.116C169.76 645.116 169.666 645.022 169.666 644.901V642.182C169.666 642.061 169.76 641.967 169.88 641.967C170.001 641.967 170.095 642.061 170.095 642.182V644.901C170.095 645.022 170.001 645.116 169.88 645.116Z" fill="#B84E4C"/>
<path d="M168.909 645.116C168.789 645.116 168.695 645.022 168.695 644.901V642.182C168.695 642.061 168.789 641.967 168.909 641.967C169.03 641.967 169.124 642.061 169.124 642.182V644.901C169.124 645.022 169.03 645.116 168.909 645.116Z" fill="#B84E4C"/>
<path d="M167.957 645.116C167.836 645.116 167.742 645.022 167.742 644.901V642.182C167.742 642.061 167.836 641.967 167.957 641.967C168.078 641.967 168.172 642.061 168.172 642.182V644.901C168.172 645.022 168.078 645.116 167.957 645.116Z" fill="#B84E4C"/>
<path d="M166.992 645.116C166.872 645.116 166.778 645.022 166.778 644.901V642.182C166.778 642.061 166.872 641.967 166.992 641.967C167.113 641.967 167.207 642.061 167.207 642.182V644.901C167.207 645.022 167.113 645.116 166.992 645.116Z" fill="#B84E4C"/>
<path d="M166.038 645.116C165.917 645.116 165.823 645.022 165.823 644.901V642.182C165.823 642.061 165.917 641.967 166.038 641.967C166.158 641.967 166.252 642.061 166.252 642.182V644.901C166.252 645.022 166.158 645.116 166.038 645.116Z" fill="#B84E4C"/>
<path d="M174.294 649.907H168.319C168.01 649.907 167.768 649.652 167.768 649.356V646.233C167.768 645.923 168.023 645.681 168.319 645.681H174.294C174.603 645.681 174.845 645.937 174.845 646.233V649.356C174.858 649.652 174.603 649.907 174.294 649.907Z" fill="#78A0C5"/>
<path d="M173.23 649.356C173.11 649.356 173.016 649.261 173.016 649.14V646.421C173.016 646.3 173.11 646.206 173.23 646.206C173.351 646.206 173.445 646.3 173.445 646.421V649.14C173.445 649.261 173.351 649.356 173.23 649.356Z" fill="#6D90B1"/>
<path d="M172.278 649.356C172.157 649.356 172.063 649.261 172.063 649.14V646.421C172.063 646.3 172.157 646.206 172.278 646.206C172.399 646.206 172.493 646.3 172.493 646.421V649.14C172.48 649.261 172.386 649.356 172.278 649.356Z" fill="#6D90B1"/>
<path d="M171.31 649.356C171.189 649.356 171.095 649.261 171.095 649.14V646.421C171.095 646.3 171.189 646.206 171.31 646.206C171.431 646.206 171.525 646.3 171.525 646.421V649.14C171.525 649.261 171.431 649.356 171.31 649.356Z" fill="#6D90B1"/>
<path d="M170.36 649.356C170.239 649.356 170.145 649.261 170.145 649.14V646.421C170.145 646.3 170.239 646.206 170.36 646.206C170.481 646.206 170.575 646.3 170.575 646.421V649.14C170.562 649.261 170.468 649.356 170.36 649.356Z" fill="#6D90B1"/>
<path d="M169.392 649.356C169.271 649.356 169.177 649.261 169.177 649.14V646.421C169.177 646.3 169.271 646.206 169.392 646.206C169.513 646.206 169.607 646.3 169.607 646.421V649.14C169.607 649.261 169.513 649.356 169.392 649.356Z" fill="#6D90B1"/>
<path d="M163.378 654.147H157.402C157.093 654.147 156.852 653.892 156.852 653.596V650.473C156.852 650.163 157.107 649.921 157.402 649.921H163.378C163.687 649.921 163.928 650.177 163.928 650.473V653.596C163.928 653.892 163.687 654.147 163.378 654.147Z" fill="#EACB30"/>
<path d="M162.319 653.596C162.198 653.596 162.104 653.502 162.104 653.38V650.662C162.104 650.541 162.198 650.446 162.319 650.446C162.44 650.446 162.534 650.541 162.534 650.662V653.38C162.52 653.502 162.426 653.596 162.319 653.596Z" fill="#BCA327"/>
<path d="M161.35 653.596C161.229 653.596 161.135 653.502 161.135 653.38V650.662C161.135 650.541 161.229 650.446 161.35 650.446C161.471 650.446 161.565 650.541 161.565 650.662V653.38C161.565 653.502 161.471 653.596 161.35 653.596Z" fill="#BCA327"/>
<path d="M160.399 653.596C160.278 653.596 160.184 653.502 160.184 653.38V650.662C160.184 650.541 160.278 650.446 160.399 650.446C160.52 650.446 160.614 650.541 160.614 650.662V653.38C160.601 653.502 160.507 653.596 160.399 653.596Z" fill="#BCA327"/>
<path d="M159.431 653.596C159.31 653.596 159.216 653.502 159.216 653.38V650.662C159.216 650.541 159.31 650.446 159.431 650.446C159.552 650.446 159.646 650.541 159.646 650.662V653.38C159.646 653.502 159.552 653.596 159.431 653.596Z" fill="#BCA327"/>
<path d="M158.478 653.596C158.357 653.596 158.263 653.502 158.263 653.38V650.662C158.263 650.541 158.357 650.446 158.478 650.446C158.599 650.446 158.693 650.541 158.693 650.662V653.38C158.679 653.502 158.585 653.596 158.478 653.596Z" fill="#BCA327"/>
<path d="M170.602 654.147H164.626C164.317 654.147 164.076 653.892 164.076 653.596V650.473C164.076 650.163 164.331 649.921 164.626 649.921H170.602C170.911 649.921 171.152 650.177 171.152 650.473V653.596C171.166 653.892 170.911 654.147 170.602 654.147Z" fill="#D25956"/>
<path d="M169.538 653.596C169.417 653.596 169.323 653.502 169.323 653.38V650.662C169.323 650.541 169.417 650.446 169.538 650.446C169.659 650.446 169.753 650.541 169.753 650.662V653.38C169.753 653.502 169.659 653.596 169.538 653.596Z" fill="#B84E4C"/>
<path d="M168.585 653.596C168.464 653.596 168.37 653.502 168.37 653.38V650.662C168.37 650.541 168.464 650.446 168.585 650.446C168.706 650.446 168.8 650.541 168.8 650.662V653.38C168.787 653.502 168.693 653.596 168.585 653.596Z" fill="#B84E4C"/>
<path d="M167.619 653.596C167.498 653.596 167.404 653.502 167.404 653.38V650.662C167.404 650.541 167.498 650.446 167.619 650.446C167.74 650.446 167.834 650.541 167.834 650.662V653.38C167.834 653.502 167.74 653.596 167.619 653.596Z" fill="#B84E4C"/>
<path d="M166.666 653.596C166.545 653.596 166.451 653.502 166.451 653.38V650.662C166.451 650.541 166.545 650.446 166.666 650.446C166.787 650.446 166.881 650.541 166.881 650.662V653.38C166.868 653.502 166.774 653.596 166.666 653.596Z" fill="#B84E4C"/>
<path d="M165.699 653.596C165.578 653.596 165.484 653.502 165.484 653.38V650.662C165.484 650.541 165.578 650.446 165.699 650.446C165.82 650.446 165.914 650.541 165.914 650.662V653.38C165.914 653.502 165.82 653.596 165.699 653.596Z" fill="#B84E4C"/>
<path d="M177.838 654.147H171.863C171.554 654.147 171.312 653.892 171.312 653.596V650.473C171.312 650.163 171.567 649.921 171.863 649.921H177.838C178.147 649.921 178.389 650.177 178.389 650.473V653.596C178.389 653.892 178.147 654.147 177.838 654.147Z" fill="#C9CACE"/>
<path d="M176.778 653.596C176.657 653.596 176.563 653.502 176.563 653.38V650.662C176.563 650.541 176.657 650.446 176.778 650.446C176.899 650.446 176.993 650.541 176.993 650.662V653.38C176.979 653.502 176.885 653.596 176.778 653.596Z" fill="#AFAFB2"/>
<path d="M175.81 653.596C175.689 653.596 175.595 653.502 175.595 653.38V650.662C175.595 650.541 175.689 650.446 175.81 650.446C175.93 650.446 176.024 650.541 176.024 650.662V653.38C176.024 653.502 175.93 653.596 175.81 653.596Z" fill="#AFAFB2"/>
<path d="M174.857 653.596C174.736 653.596 174.642 653.502 174.642 653.38V650.662C174.642 650.541 174.736 650.446 174.857 650.446C174.978 650.446 175.072 650.541 175.072 650.662V653.38C175.059 653.502 174.965 653.596 174.857 653.596Z" fill="#AFAFB2"/>
<path d="M173.893 653.596C173.772 653.596 173.678 653.502 173.678 653.38V650.662C173.678 650.541 173.772 650.446 173.893 650.446C174.014 650.446 174.108 650.541 174.108 650.662V653.38C174.108 653.502 174.014 653.596 173.893 653.596Z" fill="#AFAFB2"/>
<path d="M172.938 653.596C172.817 653.596 172.723 653.502 172.723 653.38V650.662C172.723 650.541 172.817 650.446 172.938 650.446C173.058 650.446 173.152 650.541 173.152 650.662V653.38C173.139 653.502 173.045 653.596 172.938 653.596Z" fill="#AFAFB2"/>
<path d="M167.163 658.387H161.188C160.879 658.387 160.637 658.131 160.637 657.835V654.712C160.637 654.403 160.892 654.161 161.188 654.161H167.163C167.472 654.161 167.714 654.416 167.714 654.712V657.835C167.714 658.131 167.459 658.387 167.163 658.387Z" fill="#C9CACE"/>
<path d="M166.086 657.835C165.965 657.835 165.871 657.741 165.871 657.62V654.901C165.871 654.78 165.965 654.686 166.086 654.686C166.207 654.686 166.301 654.78 166.301 654.901V657.62C166.301 657.741 166.207 657.835 166.086 657.835Z" fill="#AFAFB2"/>
<path d="M165.133 657.835C165.012 657.835 164.918 657.741 164.918 657.62V654.901C164.918 654.78 165.012 654.686 165.133 654.686C165.254 654.686 165.348 654.78 165.348 654.901V657.62C165.348 657.741 165.254 657.835 165.133 657.835Z" fill="#AFAFB2"/>
<path d="M164.167 657.835C164.046 657.835 163.952 657.741 163.952 657.62V654.901C163.952 654.78 164.046 654.686 164.167 654.686C164.288 654.686 164.382 654.78 164.382 654.901V657.62C164.382 657.741 164.288 657.835 164.167 657.835Z" fill="#AFAFB2"/>
<path d="M163.213 657.835C163.092 657.835 162.998 657.741 162.998 657.62V654.901C162.998 654.78 163.092 654.686 163.213 654.686C163.334 654.686 163.428 654.78 163.428 654.901V657.62C163.414 657.741 163.32 657.835 163.213 657.835Z" fill="#AFAFB2"/>
<path d="M162.247 657.835C162.126 657.835 162.032 657.741 162.032 657.62V654.901C162.032 654.78 162.126 654.686 162.247 654.686C162.368 654.686 162.462 654.78 162.462 654.901V657.62C162.462 657.741 162.368 657.835 162.247 657.835Z" fill="#AFAFB2"/>
<path d="M174.484 658.387H168.509C168.2 658.387 167.958 658.131 167.958 657.835V654.712C167.958 654.403 168.213 654.161 168.509 654.161H174.484C174.793 654.161 175.035 654.416 175.035 654.712V657.835C175.035 658.131 174.793 658.387 174.484 658.387Z" fill="#78A0C5"/>
<path d="M173.421 657.835C173.3 657.835 173.206 657.741 173.206 657.62V654.901C173.206 654.78 173.3 654.686 173.421 654.686C173.542 654.686 173.636 654.78 173.636 654.901V657.62C173.623 657.741 173.529 657.835 173.421 657.835Z" fill="#6D90B1"/>
<path d="M172.457 657.835C172.336 657.835 172.242 657.741 172.242 657.62V654.901C172.242 654.78 172.336 654.686 172.457 654.686C172.578 654.686 172.672 654.78 172.672 654.901V657.62C172.672 657.741 172.578 657.835 172.457 657.835Z" fill="#6D90B1"/>
<path d="M171.501 657.835C171.38 657.835 171.286 657.741 171.286 657.62V654.901C171.286 654.78 171.38 654.686 171.501 654.686C171.622 654.686 171.716 654.78 171.716 654.901V657.62C171.703 657.741 171.609 657.835 171.501 657.835Z" fill="#6D90B1"/>
<path d="M170.535 657.835C170.414 657.835 170.32 657.741 170.32 657.62V654.901C170.32 654.78 170.414 654.686 170.535 654.686C170.656 654.686 170.75 654.78 170.75 654.901V657.62C170.75 657.741 170.656 657.835 170.535 657.835Z" fill="#6D90B1"/>
<path d="M169.583 657.835C169.462 657.835 169.368 657.741 169.368 657.62V654.901C169.368 654.78 169.462 654.686 169.583 654.686C169.703 654.686 169.797 654.78 169.797 654.901V657.62C169.784 657.741 169.69 657.835 169.583 657.835Z" fill="#6D90B1"/>
<path d="M181.803 658.387H175.841C175.532 658.387 175.29 658.131 175.29 657.835V654.712C175.29 654.403 175.545 654.161 175.841 654.161H181.816C182.125 654.161 182.367 654.416 182.367 654.712V657.835C182.367 658.131 182.112 658.387 181.803 658.387Z" fill="#EDB939"/>
<path d="M180.742 657.835C180.621 657.835 180.527 657.741 180.527 657.62V654.901C180.527 654.78 180.621 654.686 180.742 654.686C180.863 654.686 180.957 654.78 180.957 654.901V657.62C180.957 657.741 180.863 657.835 180.742 657.835Z" fill="#CFA233"/>
<path d="M179.775 657.835C179.655 657.835 179.561 657.741 179.561 657.62V654.901C179.561 654.78 179.655 654.686 179.775 654.686C179.896 654.686 179.99 654.78 179.99 654.901V657.62C179.99 657.741 179.896 657.835 179.775 657.835Z" fill="#CFA233"/>
<path d="M178.821 657.835C178.7 657.835 178.606 657.741 178.606 657.62V654.901C178.606 654.78 178.7 654.686 178.821 654.686C178.942 654.686 179.036 654.78 179.036 654.901V657.62C179.036 657.741 178.942 657.835 178.821 657.835Z" fill="#CFA233"/>
<path d="M177.854 657.835C177.733 657.835 177.639 657.741 177.639 657.62V654.901C177.639 654.78 177.733 654.686 177.854 654.686C177.975 654.686 178.069 654.78 178.069 654.901V657.62C178.069 657.741 177.975 657.835 177.854 657.835Z" fill="#CFA233"/>
<path d="M176.903 657.835C176.782 657.835 176.688 657.741 176.688 657.62V654.901C176.688 654.78 176.782 654.686 176.903 654.686C177.023 654.686 177.117 654.78 177.117 654.901V657.62C177.117 657.741 177.01 657.835 176.903 657.835Z" fill="#CFA233"/>
<path d="M184.663 659.181L165.689 651.576C165.205 651.388 164.695 651.28 164.171 651.267C163.661 651.28 163.151 651.375 162.654 651.576L143.693 659.181C142.418 659.693 141.787 661.146 142.27 662.425L145.976 672.143V677.607C145.976 678.832 146.97 679.815 148.178 679.815H164.158H180.138C181.36 679.815 182.34 678.819 182.34 677.607V672.143L186.046 662.425C186.57 661.133 185.939 659.693 184.663 659.181Z" fill="#B71C22"/>
<path d="M164.158 656.892L142.659 663.458L143.3 665.139L164.171 659.195L185.148 664.794L185.657 663.458L164.158 656.892Z" fill="#6D1415"/>
<path d="M165.689 651.555L184.663 659.159C185.939 659.671 186.57 661.111 186.046 662.403L164.171 655.616L142.27 662.403C141.787 661.125 142.418 659.671 143.693 659.159L162.654 651.555C163.151 651.353 163.661 651.259 164.171 651.245C164.695 651.259 165.205 651.366 165.689 651.555Z" fill="#6D1415"/>
<path d="M145.989 674.552V677.608C145.989 678.833 146.983 679.815 148.191 679.815H164.171H180.15C181.372 679.815 182.353 678.819 182.353 677.608V674.552H145.989Z" fill="#6D1415"/>
<path d="M146.43 667.409C146.713 667.409 146.943 667.162 146.943 666.856C146.943 666.55 146.713 666.303 146.43 666.303C146.147 666.303 145.918 666.55 145.918 666.856C145.918 667.162 146.147 667.409 146.43 667.409Z" fill="white"/>
<path d="M153.31 665.22C153.645 665.22 153.917 664.926 153.917 664.564C153.917 664.202 153.645 663.909 153.31 663.909C152.975 663.909 152.703 664.202 152.703 664.564C152.703 664.926 152.975 665.22 153.31 665.22Z" fill="white"/>
<path d="M160.338 663.622C160.725 663.622 161.039 663.283 161.039 662.864C161.039 662.446 160.725 662.107 160.338 662.107C159.95 662.107 159.636 662.446 159.636 662.864C159.636 663.283 159.95 663.622 160.338 663.622Z" fill="white"/>
<path d="M181.53 667.499C181.242 667.499 181.009 667.247 181.009 666.936C181.009 666.625 181.242 666.373 181.53 666.373C181.818 666.373 182.051 666.625 182.051 666.936C182.051 667.247 181.818 667.499 181.53 667.499Z" fill="white"/>
<path d="M174.529 665.273C174.188 665.273 173.911 664.974 173.911 664.606C173.911 664.238 174.188 663.939 174.529 663.939C174.869 663.939 175.146 664.238 175.146 664.606C175.146 664.974 174.869 665.273 174.529 665.273Z" fill="white"/>
<path d="M167.383 663.648C166.989 663.648 166.669 663.303 166.669 662.877C166.669 662.452 166.989 662.107 167.383 662.107C167.777 662.107 168.096 662.452 168.096 662.877C168.096 663.303 167.777 663.648 167.383 663.648Z" fill="white"/>
<path fill-rule="evenodd" clip-rule="evenodd" d="M193.58 328.904L149.161 251.969C147.026 248.272 141.691 248.272 139.557 251.969L95.1376 328.904C93.0034 332.601 95.6712 337.222 99.9397 337.222H129.588V333.756H99.9397C98.339 333.756 97.3386 332.023 98.1389 330.637L142.558 253.701C143.358 252.315 145.359 252.315 146.159 253.701L190.578 330.637C191.379 332.023 190.378 333.756 188.777 333.756H159.183V337.222H188.777C193.046 337.222 195.714 332.601 193.58 328.904Z" fill="#B71C22"/>
<path d="M141.268 274.454V282.493H139.855V274.454C139.855 274.201 140.015 273.996 140.211 273.996H140.912C141.108 273.996 141.268 274.201 141.268 274.454Z" fill="#425669"/>
<path d="M149.717 282.796V287.403C149.717 287.514 149.619 287.613 149.508 287.613H138.989C138.879 287.613 138.78 287.514 138.78 287.403V282.796C138.78 282.39 139.1 282.07 139.505 282.07H148.992C149.398 282.07 149.717 282.39 149.717 282.796Z" fill="#E5E7EB"/>
<path d="M149.717 282.957H138.78V283.536H149.717V282.957Z" fill="#78A0C5"/>
<path d="M147.937 284.779V286.356H146.524V284.792C146.524 284.595 146.683 284.435 146.88 284.435H147.581C147.777 284.422 147.937 284.582 147.937 284.779Z" fill="#B0B3B5"/>
<path d="M144.961 284.779V286.356H143.548V284.792C143.548 284.595 143.707 284.435 143.904 284.435H144.604C144.801 284.422 144.961 284.582 144.961 284.779Z" fill="#B0B3B5"/>
<path d="M141.976 284.779V286.356H140.563V284.792C140.563 284.595 140.723 284.435 140.92 284.435H141.62C141.817 284.422 141.976 284.582 141.976 284.779Z" fill="#B0B3B5"/>
<rect x="124.048" y="295.118" width="5.64953" height="11.9818" fill="#D9AA06" stroke="black" stroke-width="0.207935"/>
<path d="M129.697 295.095C129.697 295.217 129.635 295.344 129.5 295.47C129.365 295.597 129.163 295.716 128.905 295.818C128.39 296.022 127.672 296.15 126.873 296.15C126.074 296.15 125.355 296.022 124.84 295.818C124.582 295.716 124.38 295.597 124.245 295.47C124.11 295.344 124.048 295.217 124.048 295.095C124.048 294.973 124.11 294.846 124.245 294.719C124.38 294.592 124.582 294.473 124.84 294.371C125.355 294.167 126.074 294.039 126.873 294.039C127.672 294.039 128.39 294.167 128.905 294.371C129.163 294.473 129.365 294.592 129.5 294.719C129.635 294.846 129.697 294.973 129.697 295.095Z" fill="#FFC700" stroke="black" stroke-width="0.207935"/>
<rect x="129.658" y="290.803" width="5.64953" height="11.9818" fill="#D9AA06" stroke="black" stroke-width="0.207935"/>
<path d="M135.309 290.78C135.309 290.902 135.247 291.029 135.112 291.155C134.976 291.282 134.775 291.401 134.517 291.503C134.002 291.707 133.283 291.836 132.484 291.836C131.685 291.836 130.967 291.707 130.452 291.503C130.194 291.401 129.992 291.282 129.857 291.155C129.721 291.029 129.659 290.902 129.659 290.78C129.659 290.658 129.721 290.531 129.857 290.404C129.992 290.278 130.194 290.159 130.452 290.056C130.967 289.853 131.685 289.724 132.484 289.724C133.283 289.724 134.002 289.853 134.517 290.056C134.775 290.159 134.976 290.278 135.112 290.404C135.247 290.531 135.309 290.658 135.309 290.78Z" fill="#FFC700" stroke="black" stroke-width="0.207935"/>
<rect x="135.517" y="287.936" width="5.64953" height="11.9818" fill="#D9AA06" stroke="black" stroke-width="0.207935"/>
<path d="M141.166 287.913C141.166 288.035 141.104 288.162 140.969 288.288C140.833 288.415 140.632 288.534 140.374 288.636C139.859 288.84 139.14 288.969 138.341 288.969C137.542 288.969 136.824 288.84 136.309 288.636C136.051 288.534 135.849 288.415 135.714 288.288C135.579 288.162 135.517 288.035 135.517 287.913C135.517 287.791 135.579 287.664 135.714 287.537C135.849 287.411 136.051 287.292 136.309 287.19C136.824 286.986 137.542 286.857 138.341 286.857C139.14 286.857 139.859 286.986 140.374 287.19C140.632 287.292 140.833 287.411 140.969 287.537C141.104 287.664 141.166 287.791 141.166 287.913Z" fill="#FFC700" stroke="black" stroke-width="0.207935"/>
<rect x="141.175" y="285.616" width="5.64953" height="11.9818" fill="#D9AA06" stroke="black" stroke-width="0.207935"/>
<path d="M146.827 285.593C146.827 285.715 146.765 285.842 146.63 285.969C146.494 286.096 146.293 286.215 146.035 286.317C145.52 286.521 144.801 286.649 144.002 286.649C143.203 286.649 142.485 286.521 141.97 286.317C141.712 286.215 141.51 286.096 141.375 285.969C141.239 285.842 141.177 285.715 141.177 285.593C141.177 285.471 141.239 285.344 141.375 285.218C141.51 285.091 141.712 284.972 141.97 284.87C142.485 284.666 143.203 284.538 144.002 284.538C144.801 284.538 145.52 284.666 146.035 284.87C146.293 284.972 146.494 285.091 146.63 285.218C146.765 285.344 146.827 285.471 146.827 285.593Z" fill="#FFC700" stroke="black" stroke-width="0.207935"/>
<rect x="146.893" y="287.936" width="5.64953" height="11.9818" fill="#D9AA06" stroke="black" stroke-width="0.207935"/>
<path d="M152.543 287.913C152.543 288.035 152.481 288.162 152.346 288.288C152.21 288.415 152.009 288.534 151.751 288.636C151.236 288.84 150.517 288.969 149.718 288.969C148.919 288.969 148.2 288.84 147.685 288.636C147.428 288.534 147.226 288.415 147.091 288.288C146.955 288.162 146.893 288.035 146.893 287.913C146.893 287.791 146.955 287.664 147.091 287.537C147.226 287.411 147.428 287.292 147.685 287.19C148.2 286.986 148.919 286.857 149.718 286.857C150.517 286.857 151.236 286.986 151.751 287.19C152.009 287.292 152.21 287.411 152.346 287.537C152.481 287.664 152.543 287.791 152.543 287.913Z" fill="#FFC700" stroke="black" stroke-width="0.207935"/>
<rect x="152.446" y="290.803" width="5.64953" height="11.9818" fill="#D9AA06" stroke="black" stroke-width="0.207935"/>
<path d="M158.097 290.78C158.097 290.902 158.035 291.029 157.9 291.155C157.764 291.282 157.562 291.401 157.305 291.503C156.79 291.707 156.071 291.836 155.272 291.836C154.473 291.836 153.754 291.707 153.239 291.503C152.982 291.401 152.78 291.282 152.644 291.155C152.509 291.029 152.447 290.902 152.447 290.78C152.447 290.658 152.509 290.531 152.644 290.404C152.78 290.278 152.982 290.159 153.239 290.056C153.754 289.853 154.473 289.724 155.272 289.724C156.071 289.724 156.79 289.853 157.305 290.056C157.562 290.159 157.764 290.278 157.9 290.404C158.035 290.531 158.097 290.658 158.097 290.78Z" fill="#FFC700" stroke="black" stroke-width="0.207935"/>
<rect x="158.303" y="295.118" width="5.64953" height="11.9818" fill="#D9AA06" stroke="black" stroke-width="0.207935"/>
<path d="M163.954 295.095C163.954 295.217 163.892 295.344 163.756 295.47C163.621 295.597 163.419 295.716 163.162 295.818C162.647 296.022 161.928 296.15 161.129 296.15C160.33 296.15 159.611 296.022 159.096 295.818C158.838 295.716 158.637 295.597 158.501 295.47C158.366 295.344 158.304 295.217 158.304 295.095C158.304 294.973 158.366 294.846 158.501 294.719C158.637 294.592 158.838 294.473 159.096 294.371C159.611 294.167 160.33 294.039 161.129 294.039C161.928 294.039 162.647 294.167 163.162 294.371C163.419 294.473 163.621 294.592 163.756 294.719C163.892 294.846 163.954 294.973 163.954 295.095Z" fill="#FFC700" stroke="black" stroke-width="0.207935"/>
<path d="M162.888 303.355L145.524 296.395C145.081 296.223 144.614 296.124 144.135 296.112C143.668 296.124 143.201 296.21 142.746 296.395L125.395 303.355C124.227 303.823 123.65 305.153 124.092 306.323L127.484 315.216V320.217C127.484 321.338 128.393 322.238 129.499 322.238H144.123H158.747C159.865 322.238 160.762 321.326 160.762 320.217V315.216L164.154 306.323C164.633 305.141 164.055 303.823 162.888 303.355Z" fill="black"/>
<path d="M144.123 301.26L124.448 307.269L125.034 308.807L144.135 303.368L163.332 308.491L163.798 307.269L144.123 301.26Z" fill="#292D39"/>
<path d="M145.524 296.375L162.888 303.335C164.055 303.803 164.633 305.121 164.154 306.303L144.135 300.092L124.092 306.303C123.65 305.133 124.227 303.803 125.395 303.335L142.746 296.375C143.201 296.19 143.668 296.104 144.135 296.092C144.614 296.104 145.081 296.203 145.524 296.375Z" fill="#292D39"/>
<path d="M127.496 317.421V320.217C127.496 321.338 128.405 322.238 129.511 322.238H144.135H158.759C159.877 322.238 160.774 321.326 160.774 320.217V317.421H127.496Z" fill="#292D39"/>
<path d="M143.19 324.073C141.285 324.073 139.97 323.42 139.183 322.841C138.938 322.656 138.618 322.619 138.335 322.742C133.506 324.812 130.127 323.543 128.64 322.681C128.418 322.545 128.148 322.533 127.902 322.619C125.53 323.518 123.331 323.494 122.139 323.383C121.623 323.334 121.279 322.841 121.389 322.336L121.426 322.176C121.524 321.757 121.918 321.474 122.348 321.511C123.478 321.621 125.727 321.634 128.013 320.537L128.062 320.513C128.369 320.365 128.738 320.414 128.996 320.648L129.033 320.685C129.168 320.808 132.584 323.629 138.594 320.55L138.655 320.525C139.036 320.328 139.491 320.439 139.736 320.784L139.773 320.833C139.859 320.956 142.256 323.974 148.547 320.562L148.584 320.537C148.83 320.402 149.113 320.402 149.359 320.513L149.395 320.525C149.445 320.55 154.102 322.656 159.239 320.513L159.276 320.501C159.534 320.39 159.829 320.414 160.062 320.562L160.099 320.587C160.111 320.599 162.139 321.794 165.985 321.424C166.44 321.375 166.846 321.708 166.907 322.151L166.932 322.299C167.005 322.792 166.649 323.235 166.157 323.284C163.011 323.592 160.886 322.976 159.841 322.533C159.644 322.459 159.435 322.447 159.239 322.521C154.864 324.085 150.981 323.1 149.383 322.533C149.162 322.459 148.928 322.471 148.72 322.57C146.483 323.678 144.652 324.073 143.19 324.073Z" fill="#599DC9"/>
<path d="M127.899 310.884C128.158 310.884 128.368 310.658 128.368 310.378C128.368 310.098 128.158 309.872 127.899 309.872C127.64 309.872 127.43 310.098 127.43 310.378C127.43 310.658 127.64 310.884 127.899 310.884Z" fill="white"/>
<path d="M134.195 308.881C134.502 308.881 134.75 308.612 134.75 308.281C134.75 307.95 134.502 307.681 134.195 307.681C133.888 307.681 133.64 307.95 133.64 308.281C133.64 308.612 133.888 308.881 134.195 308.881Z" fill="white"/>
<path d="M140.626 307.418C140.981 307.418 141.268 307.108 141.268 306.725C141.268 306.342 140.981 306.032 140.626 306.032C140.272 306.032 139.984 306.342 139.984 306.725C139.984 307.108 140.272 307.418 140.626 307.418Z" fill="white"/>
<path d="M160.021 310.966C159.758 310.966 159.545 310.736 159.545 310.451C159.545 310.167 159.758 309.936 160.021 309.936C160.285 309.936 160.498 310.167 160.498 310.451C160.498 310.736 160.285 310.966 160.021 310.966Z" fill="white"/>
<path d="M153.615 308.929C153.303 308.929 153.05 308.656 153.05 308.319C153.05 307.982 153.303 307.709 153.615 307.709C153.927 307.709 154.179 307.982 154.179 308.319C154.179 308.656 153.927 308.929 153.615 308.929Z" fill="white"/>
<path d="M147.074 307.442C146.714 307.442 146.422 307.126 146.422 306.737C146.422 306.347 146.714 306.031 147.074 306.031C147.435 306.031 147.727 306.347 147.727 306.737C147.727 307.126 147.435 307.442 147.074 307.442Z" fill="white"/>
<path d="M137.41 239.68C139.468 238.212 140.496 237.044 140.496 236.177C140.496 235.647 140.267 235.382 139.807 235.382C139.549 235.382 139.358 235.472 139.235 235.653C139.118 235.834 139.054 236.116 139.041 236.498H137.42C137.459 235.663 137.711 235.036 138.177 234.615C138.643 234.195 139.232 233.984 139.943 233.984C140.687 233.984 141.247 234.172 141.622 234.547C142.004 234.922 142.194 235.411 142.194 236.012C142.194 236.679 141.939 237.332 141.428 237.972C140.917 238.606 140.305 239.143 139.594 239.583H142.301V240.922H137.41V239.68ZM147.448 235.304L144.993 241H143.275L145.76 235.498H142.848V234.072H147.448V235.304ZM149.59 234.023C150.062 234.023 150.447 234.165 150.745 234.45C151.049 234.735 151.201 235.136 151.201 235.653C151.201 236.171 151.049 236.572 150.745 236.857C150.447 237.141 150.062 237.284 149.59 237.284C149.105 237.284 148.71 237.141 148.406 236.857C148.109 236.572 147.96 236.171 147.96 235.653C147.96 235.136 148.109 234.735 148.406 234.45C148.71 234.165 149.105 234.023 149.59 234.023ZM154.296 234.12L150.551 241H148.95L152.695 234.12H154.296ZM149.066 235.653C149.066 235.854 149.111 236.012 149.202 236.129C149.293 236.239 149.416 236.294 149.571 236.294C149.733 236.294 149.862 236.239 149.959 236.129C150.056 236.012 150.104 235.854 150.104 235.653C150.104 235.453 150.056 235.298 149.959 235.188C149.862 235.071 149.733 235.013 149.571 235.013C149.416 235.013 149.293 235.071 149.202 235.188C149.111 235.298 149.066 235.453 149.066 235.653ZM153.666 237.827C154.144 237.827 154.533 237.969 154.83 238.254C155.128 238.539 155.277 238.94 155.277 239.457C155.277 239.975 155.128 240.379 154.83 240.67C154.533 240.955 154.144 241.097 153.666 241.097C153.193 241.097 152.805 240.955 152.501 240.67C152.204 240.379 152.055 239.975 152.055 239.457C152.055 238.94 152.204 238.539 152.501 238.254C152.805 237.969 153.193 237.827 153.666 237.827ZM153.151 239.457C153.151 239.664 153.197 239.826 153.287 239.942C153.378 240.052 153.504 240.107 153.666 240.107C153.821 240.107 153.944 240.052 154.034 239.942C154.131 239.826 154.18 239.664 154.18 239.457C154.18 239.257 154.131 239.101 154.034 238.991C153.944 238.875 153.821 238.817 153.666 238.817C153.504 238.817 153.378 238.875 153.287 238.991C153.197 239.101 153.151 239.257 153.151 239.457Z" fill="white"/>
<path d="M135.876 334.525C136.29 334.622 136.617 334.823 136.856 335.127C137.102 335.431 137.225 335.783 137.225 336.184C137.225 336.773 137.027 337.232 136.633 337.562C136.245 337.892 135.685 338.057 134.954 338.057H131.761V331.197H134.876C135.575 331.197 136.115 331.349 136.497 331.653C136.879 331.957 137.069 332.39 137.069 332.953C137.069 333.367 136.959 333.713 136.739 333.991C136.519 334.263 136.232 334.441 135.876 334.525ZM133.421 334.001H134.508C135.083 334.001 135.371 333.755 135.371 333.264C135.371 332.772 135.077 332.526 134.488 332.526H133.421V334.001ZM134.605 336.708C135.219 336.708 135.526 336.456 135.526 335.951C135.526 335.706 135.446 335.515 135.284 335.379C135.122 335.237 134.893 335.165 134.595 335.165H133.421V336.708H134.605ZM140.255 332.575C140.669 332.575 141.025 332.668 141.323 332.856C141.62 333.044 141.84 333.299 141.982 333.623V332.643H143.632V338.057H141.982V337.077C141.84 337.401 141.62 337.656 141.323 337.844C141.025 338.031 140.669 338.125 140.255 338.125C139.809 338.125 139.408 338.015 139.052 337.795C138.703 337.569 138.425 337.245 138.217 336.825C138.017 336.404 137.917 335.913 137.917 335.35C137.917 334.781 138.017 334.289 138.217 333.875C138.425 333.454 138.703 333.134 139.052 332.914C139.408 332.688 139.809 332.575 140.255 332.575ZM140.789 334.03C140.433 334.03 140.145 334.147 139.925 334.379C139.712 334.612 139.605 334.936 139.605 335.35C139.605 335.764 139.712 336.087 139.925 336.32C140.145 336.553 140.433 336.67 140.789 336.67C141.138 336.67 141.423 336.55 141.643 336.31C141.869 336.071 141.982 335.751 141.982 335.35C141.982 334.942 141.869 334.622 141.643 334.389C141.423 334.15 141.138 334.03 140.789 334.03ZM148.307 332.584C148.928 332.584 149.419 332.791 149.782 333.205C150.15 333.619 150.335 334.189 150.335 334.913V338.057H148.675V335.107C148.675 334.745 148.578 334.464 148.384 334.263C148.197 334.056 147.944 333.953 147.627 333.953C147.291 333.953 147.023 334.059 146.822 334.273C146.628 334.486 146.531 334.79 146.531 335.185V338.057H144.872V332.643H146.531V333.632C146.686 333.309 146.916 333.053 147.22 332.866C147.53 332.678 147.893 332.584 148.307 332.584ZM154.806 338.057L153.185 335.757V338.057H151.526V330.876H153.185V334.816L154.806 332.643H156.756L154.573 335.35L156.805 338.057H154.806Z" fill="white"/>
<path fill-rule="evenodd" clip-rule="evenodd" d="M138.523 622.104L94.1042 545.169C91.97 541.472 86.6344 541.472 84.5001 545.169L40.0812 622.104C37.947 625.801 40.6148 630.422 44.8833 630.422H74.5315V626.956H44.8833C43.2826 626.956 42.2822 625.224 43.0825 623.837L87.5014 546.901C88.3017 545.515 90.3026 545.515 91.1029 546.901L135.522 623.837C136.322 625.224 135.322 626.956 133.721 626.956H104.126V630.422H133.721C137.99 630.422 140.657 625.801 138.523 622.104Z" fill="#B71C22"/>
<path d="M86.2113 567.655V575.693H84.7981V567.655C84.7981 567.402 84.9578 567.196 85.1545 567.196H85.8549C86.0516 567.196 86.2113 567.402 86.2113 567.655Z" fill="#425669"/>
<path d="M94.6605 575.997V580.604C94.6605 580.714 94.5622 580.813 94.4516 580.813H83.9323C83.8217 580.813 83.7234 580.714 83.7234 580.604V575.997C83.7234 575.59 84.0429 575.27 84.4484 575.27H93.9354C94.341 575.27 94.6605 575.59 94.6605 575.997Z" fill="#E5E7EB"/>
<path d="M94.6605 576.157H83.7234V576.736H94.6605V576.157Z" fill="#78A0C5"/>
<path d="M92.88 577.98V579.556H91.4668V577.992C91.4668 577.795 91.6266 577.635 91.8232 577.635H92.5236C92.7203 577.623 92.88 577.783 92.88 577.98Z" fill="#B0B3B5"/>
<path d="M89.9039 577.98V579.556H88.4907V577.992C88.4907 577.795 88.6505 577.635 88.8471 577.635H89.5476C89.7442 577.623 89.9039 577.783 89.9039 577.98Z" fill="#B0B3B5"/>
<path d="M86.9196 577.98V579.556H85.5063V577.992C85.5063 577.795 85.6661 577.635 85.8627 577.635H86.5632C86.7598 577.623 86.9196 577.783 86.9196 577.98Z" fill="#B0B3B5"/>
<rect x="68.9914" y="588.319" width="5.64953" height="11.9818" fill="#D9AA06" stroke="black" stroke-width="0.207935"/>
<path d="M74.6407 588.295C74.6407 588.417 74.5787 588.544 74.4435 588.671C74.308 588.798 74.1064 588.917 73.8486 589.019C73.3336 589.223 72.615 589.351 71.8159 589.351C71.0169 589.351 70.2983 589.223 69.7833 589.019C69.5255 588.917 69.3239 588.798 69.1884 588.671C69.0532 588.544 68.9912 588.417 68.9912 588.295C68.9912 588.174 69.0532 588.047 69.1884 587.92C69.3239 587.793 69.5255 587.674 69.7833 587.572C70.2983 587.368 71.0169 587.24 71.8159 587.24C72.615 587.24 73.3336 587.368 73.8486 587.572C74.1064 587.674 74.308 587.793 74.4435 587.92C74.5787 588.047 74.6407 588.174 74.6407 588.295Z" fill="#FFC700" stroke="black" stroke-width="0.207935"/>
<rect x="74.602" y="584.003" width="5.64953" height="11.9818" fill="#D9AA06" stroke="black" stroke-width="0.207935"/>
<path d="M80.253 583.98C80.253 584.102 80.191 584.229 80.0558 584.356C79.9203 584.483 79.7187 584.602 79.4609 584.704C78.9459 584.908 78.2273 585.036 77.4282 585.036C76.6292 585.036 75.9106 584.908 75.3956 584.704C75.1378 584.602 74.9362 584.483 74.8007 584.356C74.6655 584.229 74.6035 584.102 74.6035 583.98C74.6035 583.859 74.6655 583.732 74.8007 583.605C74.9362 583.478 75.1378 583.359 75.3956 583.257C75.9106 583.053 76.6292 582.925 77.4282 582.925C78.2273 582.925 78.9459 583.053 79.4609 583.257C79.7187 583.359 79.9203 583.478 80.0558 583.605C80.191 583.732 80.253 583.859 80.253 583.98Z" fill="#FFC700" stroke="black" stroke-width="0.207935"/>
<rect x="80.4594" y="581.137" width="5.64953" height="11.9818" fill="#D9AA06" stroke="black" stroke-width="0.207935"/>
<path d="M86.109 581.113C86.109 581.235 86.047 581.362 85.9117 581.489C85.7763 581.616 85.5747 581.735 85.3169 581.837C84.8018 582.041 84.0832 582.169 83.2842 582.169C82.4852 582.169 81.7666 582.041 81.2516 581.837C80.9937 581.735 80.7921 581.616 80.6567 581.489C80.5214 581.362 80.4594 581.235 80.4594 581.113C80.4594 580.991 80.5214 580.864 80.6567 580.738C80.7921 580.611 80.9937 580.492 81.2516 580.39C81.7666 580.186 82.4852 580.058 83.2842 580.058C84.0832 580.058 84.8018 580.186 85.3169 580.39C85.5747 580.492 85.7763 580.611 85.9117 580.738C86.047 580.864 86.109 580.991 86.109 581.113Z" fill="#FFC700" stroke="black" stroke-width="0.207935"/>
<rect x="86.1189" y="578.817" width="5.64953" height="11.9818" fill="#D9AA06" stroke="black" stroke-width="0.207935"/>
<path d="M91.7694 578.794C91.7694 578.916 91.7074 579.043 91.5721 579.169C91.4367 579.296 91.2351 579.415 90.9773 579.517C90.4622 579.721 89.7436 579.849 88.9446 579.849C88.1456 579.849 87.427 579.721 86.912 579.517C86.6541 579.415 86.4525 579.296 86.3171 579.169C86.1818 579.043 86.1198 578.916 86.1198 578.794C86.1198 578.672 86.1818 578.545 86.3171 578.418C86.4525 578.291 86.6541 578.172 86.912 578.07C87.427 577.866 88.1456 577.738 88.9446 577.738C89.7436 577.738 90.4622 577.866 90.9773 578.07C91.2351 578.172 91.4367 578.291 91.5721 578.418C91.7074 578.545 91.7694 578.672 91.7694 578.794Z" fill="#FFC700" stroke="black" stroke-width="0.207935"/>
<rect x="91.8357" y="581.137" width="5.64953" height="11.9818" fill="#D9AA06" stroke="black" stroke-width="0.207935"/>
<path d="M97.4849 581.114C97.4849 581.235 97.423 581.362 97.2877 581.489C97.1523 581.616 96.9506 581.735 96.6928 581.837C96.1778 582.041 95.4592 582.169 94.6602 582.169C93.8612 582.169 93.1426 582.041 92.6275 581.837C92.3697 581.735 92.1681 581.616 92.0327 581.489C91.8974 581.362 91.8354 581.235 91.8354 581.114C91.8354 580.992 91.8974 580.865 92.0327 580.738C92.1681 580.611 92.3697 580.492 92.6275 580.39C93.1426 580.186 93.8612 580.058 94.6602 580.058C95.4592 580.058 96.1778 580.186 96.6928 580.39C96.9506 580.492 97.1523 580.611 97.2877 580.738C97.423 580.865 97.4849 580.992 97.4849 581.114Z" fill="#FFC700" stroke="black" stroke-width="0.207935"/>
<rect x="97.3891" y="584.003" width="5.64953" height="11.9818" fill="#D9AA06" stroke="black" stroke-width="0.207935"/>
<path d="M103.04 583.98C103.04 584.102 102.978 584.229 102.843 584.356C102.707 584.483 102.506 584.602 102.248 584.704C101.733 584.908 101.014 585.036 100.215 585.036C99.4163 585.036 98.6977 584.908 98.1827 584.704C97.9249 584.602 97.7233 584.483 97.5878 584.356C97.4526 584.229 97.3906 584.102 97.3906 583.98C97.3906 583.859 97.4526 583.732 97.5878 583.605C97.7233 583.478 97.9249 583.359 98.1827 583.257C98.6977 583.053 99.4163 582.925 100.215 582.925C101.014 582.925 101.733 583.053 102.248 583.257C102.506 583.359 102.707 583.478 102.843 583.605C102.978 583.732 103.04 583.859 103.04 583.98Z" fill="#FFC700" stroke="black" stroke-width="0.207935"/>
<rect x="103.246" y="588.319" width="5.64953" height="11.9818" fill="#D9AA06" stroke="black" stroke-width="0.207935"/>
<path d="M108.896 588.295C108.896 588.417 108.834 588.544 108.699 588.671C108.564 588.798 108.362 588.917 108.104 589.019C107.589 589.223 106.871 589.351 106.072 589.351C105.273 589.351 104.554 589.223 104.039 589.019C103.781 588.917 103.579 588.798 103.444 588.671C103.309 588.544 103.247 588.417 103.247 588.295C103.247 588.174 103.309 588.047 103.444 587.92C103.579 587.793 103.781 587.674 104.039 587.572C104.554 587.368 105.273 587.24 106.072 587.24C106.871 587.24 107.589 587.368 108.104 587.572C108.362 587.674 108.564 587.793 108.699 587.92C108.834 588.047 108.896 588.174 108.896 588.295Z" fill="#FFC700" stroke="black" stroke-width="0.207935"/>
<path d="M107.832 596.555L90.4674 589.596C90.025 589.423 89.558 589.325 89.0787 589.312C88.6117 589.325 88.1448 589.411 87.6901 589.596L70.3382 596.555C69.1708 597.023 68.5932 598.353 69.0356 599.524L72.4273 608.417V613.418C72.4273 614.539 73.3367 615.438 74.4427 615.438H89.0664H103.69C104.808 615.438 105.706 614.526 105.706 613.418V608.417L109.097 599.524C109.577 598.341 108.999 597.023 107.832 596.555Z" fill="black"/>
<path d="M89.0664 594.46L69.3913 600.469L69.978 602.007L89.0787 596.568L108.275 601.691L108.742 600.469L89.0664 594.46Z" fill="#292D39"/>
<path d="M90.4674 589.576L107.832 596.535C108.999 597.003 109.577 598.321 109.097 599.504L89.0787 593.292L69.0356 599.504C68.5932 598.334 69.1708 597.003 70.3382 596.535L87.6901 589.576C88.1448 589.391 88.6117 589.305 89.0787 589.292C89.558 589.305 90.025 589.403 90.4674 589.576Z" fill="#292D39"/>
<path d="M72.4395 610.622V613.418C72.4395 614.539 73.3488 615.438 74.4548 615.438H89.0786H103.702C104.821 615.438 105.718 614.527 105.718 613.418V610.622H72.4395Z" fill="#292D39"/>
<path d="M88.1332 617.273C86.2284 617.273 84.9135 616.62 84.127 616.041C83.8812 615.857 83.5617 615.82 83.2791 615.943C78.4495 618.012 75.0701 616.743 73.5832 615.881C73.362 615.746 73.0916 615.733 72.8458 615.82C70.4741 616.719 68.2744 616.694 67.0823 616.583C66.5662 616.534 66.2221 616.041 66.3327 615.536L66.3696 615.376C66.4679 614.957 66.8611 614.674 67.2913 614.711C68.4218 614.822 70.6707 614.834 72.9564 613.738L73.0056 613.713C73.3128 613.565 73.6815 613.615 73.9395 613.849L73.9764 613.886C74.1116 614.009 77.5279 616.83 83.5371 613.75L83.5986 613.726C83.9795 613.529 84.4342 613.639 84.68 613.984L84.7169 614.034C84.8029 614.157 87.1992 617.175 93.4911 613.763L93.528 613.738C93.7737 613.602 94.0564 613.602 94.3022 613.713L94.339 613.726C94.3882 613.75 99.0457 615.857 104.182 613.713L104.219 613.701C104.477 613.59 104.772 613.615 105.006 613.763L105.043 613.787C105.055 613.799 107.083 614.994 110.929 614.625C111.384 614.576 111.789 614.908 111.851 615.352L111.875 615.499C111.949 615.992 111.593 616.435 111.101 616.485C107.955 616.793 105.829 616.177 104.785 615.733C104.588 615.659 104.379 615.647 104.182 615.721C99.8076 617.285 95.9243 616.3 94.3267 615.733C94.1055 615.659 93.8721 615.672 93.6631 615.77C91.4266 616.879 89.5955 617.273 88.1332 617.273Z" fill="#599DC9"/>
<path d="M72.8431 604.084C73.102 604.084 73.312 603.858 73.312 603.578C73.312 603.298 73.102 603.072 72.8431 603.072C72.5842 603.072 72.3743 603.298 72.3743 603.578C72.3743 603.858 72.5842 604.084 72.8431 604.084Z" fill="white"/>
<path d="M79.1394 602.081C79.4461 602.081 79.6947 601.812 79.6947 601.481C79.6947 601.15 79.4461 600.881 79.1394 600.881C78.8326 600.881 78.584 601.15 78.584 601.481C78.584 601.812 78.8326 602.081 79.1394 602.081Z" fill="white"/>
<path d="M85.5706 600.619C85.9252 600.619 86.2126 600.308 86.2126 599.925C86.2126 599.542 85.9252 599.232 85.5706 599.232C85.2161 599.232 84.9287 599.542 84.9287 599.925C84.9287 600.308 85.2161 600.619 85.5706 600.619Z" fill="white"/>
<path d="M104.965 604.167C104.702 604.167 104.488 603.936 104.488 603.652C104.488 603.367 104.702 603.137 104.965 603.137C105.228 603.137 105.442 603.367 105.442 603.652C105.442 603.936 105.228 604.167 104.965 604.167Z" fill="white"/>
<path d="M98.5582 602.129C98.2463 602.129 97.9934 601.856 97.9934 601.519C97.9934 601.183 98.2463 600.909 98.5582 600.909C98.8702 600.909 99.123 601.183 99.123 601.519C99.123 601.856 98.8702 602.129 98.5582 602.129Z" fill="white"/>
<path d="M92.0181 600.642C91.6575 600.642 91.3653 600.326 91.3653 599.937C91.3653 599.548 91.6575 599.232 92.0181 599.232C92.3786 599.232 92.6709 599.548 92.6709 599.937C92.6709 600.326 92.3786 600.642 92.0181 600.642Z" fill="white"/>
<path d="M81.2832 532.939V531.551L84.4174 527.252H86.2029V531.493H87.0277V532.939H86.2029V534.2H84.5242V532.939H81.2832ZM84.66 529.174L82.9716 531.493H84.66V529.174ZM87.8028 532.881C89.8599 531.412 90.8885 530.244 90.8885 529.377C90.8885 528.847 90.6589 528.582 90.1996 528.582C89.9408 528.582 89.75 528.672 89.6271 528.854C89.5106 529.035 89.4459 529.316 89.433 529.698H87.8125C87.8513 528.863 88.1036 528.236 88.5694 527.815C89.0351 527.395 89.6238 527.184 90.3354 527.184C91.0794 527.184 91.6389 527.372 92.0141 527.747C92.3958 528.122 92.5867 528.611 92.5867 529.213C92.5867 529.879 92.3311 530.532 91.8201 531.173C91.309 531.807 90.6977 532.344 89.9861 532.783H92.6934V534.123H87.8028V532.881ZM94.9389 527.223C95.4111 527.223 95.796 527.366 96.0936 527.65C96.3977 527.935 96.5497 528.336 96.5497 528.854C96.5497 529.371 96.3977 529.772 96.0936 530.057C95.796 530.341 95.4111 530.484 94.9389 530.484C94.4537 530.484 94.0591 530.341 93.755 530.057C93.4575 529.772 93.3087 529.371 93.3087 528.854C93.3087 528.336 93.4575 527.935 93.755 527.65C94.0591 527.366 94.4537 527.223 94.9389 527.223ZM99.6451 527.32L95.8995 534.2H94.2984L98.044 527.32H99.6451ZM94.4149 528.854C94.4149 529.054 94.4602 529.213 94.5507 529.329C94.6413 529.439 94.7642 529.494 94.9195 529.494C95.0812 529.494 95.2106 529.439 95.3076 529.329C95.4046 529.213 95.4532 529.054 95.4532 528.854C95.4532 528.653 95.4046 528.498 95.3076 528.388C95.2106 528.271 95.0812 528.213 94.9195 528.213C94.7642 528.213 94.6413 528.271 94.5507 528.388C94.4602 528.498 94.4149 528.653 94.4149 528.854ZM99.0144 531.027C99.4931 531.027 99.8812 531.169 100.179 531.454C100.476 531.739 100.625 532.14 100.625 532.657C100.625 533.175 100.476 533.579 100.179 533.87C99.8812 534.155 99.4931 534.297 99.0144 534.297C98.5422 534.297 98.154 534.155 97.85 533.87C97.5524 533.579 97.4036 533.175 97.4036 532.657C97.4036 532.14 97.5524 531.739 97.85 531.454C98.154 531.169 98.5422 531.027 99.0144 531.027ZM98.5001 532.657C98.5001 532.864 98.5454 533.026 98.636 533.143C98.7265 533.252 98.8527 533.307 99.0144 533.307C99.1697 533.307 99.2926 533.252 99.3831 533.143C99.4802 533.026 99.5287 532.864 99.5287 532.657C99.5287 532.457 99.4802 532.302 99.3831 532.192C99.2926 532.075 99.1697 532.017 99.0144 532.017C98.8527 532.017 98.7265 532.075 98.636 532.192C98.5454 532.302 98.5001 532.457 98.5001 532.657Z" fill="white"/>
<path d="M80.8192 627.725C81.2332 627.822 81.5599 628.023 81.7992 628.327C82.0451 628.631 82.168 628.983 82.168 629.384C82.168 629.973 81.9707 630.432 81.5761 630.762C81.1879 631.092 80.6283 631.257 79.8973 631.257H76.7048V624.397H79.8197C80.5184 624.397 81.0585 624.549 81.4402 624.853C81.8219 625.157 82.0127 625.59 82.0127 626.153C82.0127 626.567 81.9027 626.913 81.6828 627.191C81.4628 627.463 81.175 627.641 80.8192 627.725ZM78.3642 627.201H79.451C80.0267 627.201 80.3146 626.955 80.3146 626.463C80.3146 625.972 80.0202 625.726 79.4316 625.726H78.3642V627.201ZM79.548 629.908C80.1626 629.908 80.4698 629.656 80.4698 629.151C80.4698 628.906 80.389 628.715 80.2272 628.579C80.0655 628.437 79.8359 628.365 79.5383 628.365H78.3642V629.908H79.548ZM85.1986 625.775C85.6126 625.775 85.9684 625.868 86.266 626.056C86.5636 626.244 86.7835 626.499 86.9259 626.823V625.842H88.5755V631.257H86.9259V630.277C86.7835 630.6 86.5636 630.856 86.266 631.044C85.9684 631.231 85.6126 631.325 85.1986 631.325C84.7522 631.325 84.3512 631.215 83.9954 630.995C83.646 630.769 83.3679 630.445 83.1608 630.025C82.9603 629.604 82.86 629.113 82.86 628.55C82.86 627.98 82.9603 627.489 83.1608 627.075C83.3679 626.654 83.646 626.334 83.9954 626.114C84.3512 625.888 84.7522 625.775 85.1986 625.775ZM85.7323 627.23C85.3765 627.23 85.0886 627.347 84.8687 627.579C84.6552 627.812 84.5485 628.136 84.5485 628.55C84.5485 628.964 84.6552 629.287 84.8687 629.52C85.0886 629.753 85.3765 629.869 85.7323 629.869C86.0816 629.869 86.3663 629.75 86.5862 629.51C86.8126 629.271 86.9259 628.951 86.9259 628.55C86.9259 628.142 86.8126 627.822 86.5862 627.589C86.3663 627.35 86.0816 627.23 85.7323 627.23ZM93.25 625.784C93.8711 625.784 94.3627 625.991 94.725 626.405C95.0937 626.819 95.2781 627.389 95.2781 628.113V631.257H93.6188V628.307C93.6188 627.945 93.5217 627.664 93.3277 627.463C93.1401 627.256 92.8878 627.152 92.5708 627.152C92.2344 627.152 91.9659 627.259 91.7654 627.473C91.5713 627.686 91.4743 627.99 91.4743 628.385V631.257H89.815V625.842H91.4743V626.832C91.6295 626.509 91.8592 626.253 92.1632 626.066C92.4737 625.878 92.836 625.784 93.25 625.784ZM99.7493 631.257L98.1288 628.957V631.257H96.4695V624.076H98.1288V628.016L99.7493 625.842H101.7L99.5164 628.55L101.748 631.257H99.7493Z" fill="white"/>
<path d="M320.298 356.729H332.675L340.927 409.242H312.045L320.298 356.729Z" fill="#3E61C4"/>
<path d="M308.106 409.242H344.865V422.371H308.106V409.242Z" fill="#D3D3D3"/>
<path d="M339.615 414.494H338.302C337.577 414.494 336.989 415.081 336.989 415.806V417.119C336.989 417.844 337.577 418.432 338.302 418.432H339.615C340.34 418.432 340.928 417.844 340.928 417.119V415.806C340.928 415.081 340.34 414.494 339.615 414.494Z" fill="#2747A3"/>
<path d="M331.738 414.494H330.425C329.7 414.494 329.112 415.081 329.112 415.806V417.119C329.112 417.844 329.7 418.432 330.425 418.432H331.738C332.463 418.432 333.051 417.844 333.051 417.119V415.806C333.051 415.081 332.463 414.494 331.738 414.494Z" fill="#2747A3"/>
<path d="M322.548 414.494H321.235C320.51 414.494 319.922 415.081 319.922 415.806V417.119C319.922 417.844 320.51 418.432 321.235 418.432H322.548C323.273 418.432 323.861 417.844 323.861 417.119V415.806C323.861 415.081 323.273 414.494 322.548 414.494Z" fill="#2747A3"/>
<path d="M314.671 414.494H313.358C312.633 414.494 312.045 415.082 312.045 415.807V417.12C312.045 417.845 312.633 418.433 313.358 418.433H314.671C315.396 418.433 315.984 417.845 315.984 417.12V415.807C315.984 415.082 315.396 414.494 314.671 414.494Z" fill="#2747A3"/>
<path d="M314.164 395.762L340.535 406.744L340.033 403.553L316.244 393.646L337.329 386.347L336.622 381.849L319.465 375.062L334.614 369.069L334.001 365.168L319.69 360.639L319.679 360.66L319.258 363.345L331.681 367.277L317.776 372.779L317.1 377.077L335.155 384.219L314.874 391.24L314.164 395.762Z" fill="#2747A3"/>
<path d="M291.04 357.386H293.665V371.171H291.04V357.386Z" fill="#2747A3"/>
<path d="M288.414 369.858H296.291V375.109H288.414V369.858Z" fill="#5D86FA"/>
<path d="M284.476 375.109H300.229V385.612H284.476V375.109Z" fill="#B71C22"/>
<path d="M284.476 375.109V385.612L300.229 375.109H284.476Z" fill="#6D1415"/>
<path d="M292.544 355.417L292.095 352.842L326.429 343.627C326.598 343.591 326.773 343.597 326.938 343.644C327.104 343.691 327.256 343.779 327.379 343.899C327.514 344.031 327.621 344.189 327.693 344.364C327.765 344.538 327.801 344.725 327.799 344.914V354.104H325.51V346.516L292.544 355.417Z" fill="#2747A3"/>
<path d="M291.04 352.791H343.552V358.043H291.04V352.791Z" fill="#AFAFAF"/>
<path d="M344.233 670.107H356.61L364.863 722.62H335.98L344.233 670.107Z" fill="#3E61C4"/>
<path d="M332.042 722.619H368.8V735.747H332.042V722.619Z" fill="#D3D3D3"/>
<path d="M363.55 727.871H362.237C361.512 727.871 360.924 728.458 360.924 729.183V730.496C360.924 731.221 361.512 731.809 362.237 731.809H363.55C364.275 731.809 364.863 731.221 364.863 730.496V729.183C364.863 728.458 364.275 727.871 363.55 727.871Z" fill="#2747A3"/>
<path d="M355.673 727.871H354.36C353.635 727.871 353.047 728.458 353.047 729.183V730.496C353.047 731.221 353.635 731.809 354.36 731.809H355.673C356.398 731.809 356.986 731.221 356.986 730.496V729.183C356.986 728.458 356.398 727.871 355.673 727.871Z" fill="#2747A3"/>
<path d="M346.483 727.871H345.17C344.445 727.871 343.857 728.458 343.857 729.183V730.496C343.857 731.221 344.445 731.809 345.17 731.809H346.483C347.208 731.809 347.796 731.221 347.796 730.496V729.183C347.796 728.458 347.208 727.871 346.483 727.871Z" fill="#2747A3"/>
<path d="M338.606 727.871H337.293C336.568 727.871 335.98 728.459 335.98 729.184V730.496C335.98 731.222 336.568 731.809 337.293 731.809H338.606C339.331 731.809 339.919 731.222 339.919 730.496V729.184C339.919 728.459 339.331 727.871 338.606 727.871Z" fill="#2747A3"/>
<path d="M338.099 709.14L364.47 720.121L363.968 716.93L340.179 707.023L361.264 699.724L360.558 695.226L343.4 688.439L358.549 682.446L357.936 678.546L343.625 674.016L343.614 674.037L343.193 676.722L355.616 680.654L341.711 686.156L341.035 690.454L359.09 697.596L338.809 704.617L338.099 709.14Z" fill="#2747A3"/>
<path d="M314.975 670.763H317.6V684.548H314.975V670.763Z" fill="#2747A3"/>
<path d="M312.349 683.235H320.226V688.486H312.349V683.235Z" fill="#5D86FA"/>
<path d="M308.411 688.486H324.164V698.988H308.411V688.486Z" fill="#B71C22"/>
<path d="M308.411 688.486V698.988L324.164 688.486H308.411Z" fill="#6D1415"/>
<path d="M316.479 668.794L316.03 666.219L350.364 657.004C350.533 656.968 350.708 656.973 350.873 657.021C351.039 657.068 351.191 657.156 351.314 657.276C351.449 657.408 351.556 657.566 351.628 657.741C351.7 657.915 351.736 658.102 351.734 658.291V667.481H349.445V659.892L316.479 668.794Z" fill="#2747A3"/>
<path d="M314.975 666.168H367.487V671.419H314.975V666.168Z" fill="#AFAFAF"/>
<defs>
<linearGradient id="paint0_linear" x1="-191.876" y1="254.585" x2="809.765" y2="254.585" gradientUnits="userSpaceOnUse">
<stop offset="0.1539" stop-color="#65C4CE"/>
<stop offset="0.7683" stop-color="#3AB7CD"/>
</linearGradient>
<linearGradient id="paint1_linear" x1="891.005" y1="462.337" x2="693.588" y2="462.337" gradientUnits="userSpaceOnUse">
<stop offset="0.1891" stop-color="#FFEAD4"/>
<stop offset="0.8985" stop-color="#FFDFA8"/>
</linearGradient>
</defs>
</svg>
