<svg width="308" height="77" viewBox="0 0 308 77" fill="none" xmlns="http://www.w3.org/2000/svg">
<path d="M69.0734 14.9169C66.3787 10.6076 62.7858 8.55554 58.145 8.55554C55.4503 8.55554 53.055 9.37637 50.9592 10.8128C48.8633 12.2493 47.2166 14.3013 46.0189 16.7638V8.96595H32.0964V38.3106C32.0964 41.3887 31.4976 43.8512 30.3 45.698C29.1023 47.5449 27.4556 48.3657 25.5095 48.3657C23.5633 48.3657 21.9166 47.5449 20.719 45.698C19.5213 43.8512 18.9225 41.3887 18.9225 38.3106V8.96595H5V40.7731C5 47.9553 6.34734 53.7011 9.04198 57.8053C11.7367 61.9094 15.3296 64.1667 19.9704 64.1667C22.6651 64.1667 25.0604 63.3459 27.1562 61.9094C29.252 60.4729 30.8988 58.4208 32.0964 55.9583V63.7562H46.0189V32.5648C46.1686 30.3075 46.7675 28.4606 47.6657 27.0242C48.8633 25.1773 50.51 24.3565 52.6059 24.3565C54.5521 24.3565 56.1989 25.1773 57.3964 27.0242C58.5941 28.871 59.1929 31.3335 59.1929 34.4116V63.7562H73.1154V31.744C73.1154 24.7669 71.768 19.0211 69.0734 14.9169Z" fill="#060D5D"/>
<path d="M99.7972 14.9154V33.8081H96.4307V31.5633C96.042 32.3116 95.3941 33.0598 94.747 33.4339C94.0992 33.8081 93.3225 34.1822 92.5451 34.1822C91.5093 34.1822 90.6031 33.8081 89.8257 33.2469C89.049 32.6857 88.4012 31.7505 88.0132 30.4411C87.495 29.1316 87.3654 27.6352 87.3654 25.9517V14.9154H90.7327V25.3905C90.7327 26.887 90.9911 28.0094 91.5093 28.9446C92.0276 29.6929 92.8043 30.067 93.5817 30.067C94.4879 30.067 95.2646 29.6929 95.7828 28.9446C96.3011 28.1964 96.5602 26.887 96.5602 25.3905V14.9154H99.7972Z" fill="#060D5D"/>
<path d="M114.172 16.786C115.079 18.2825 115.596 20.1529 115.596 22.7718V33.808H112.23V23.3329C112.23 21.8365 111.971 20.7142 111.452 19.7788C110.935 19.0307 110.157 18.6566 109.381 18.6566C108.474 18.6566 107.697 19.0307 107.179 19.7788C106.661 20.5271 106.402 21.8365 106.402 23.3329V33.808H103.035V14.9154H106.402V17.3471C106.79 16.599 107.438 15.8507 108.086 15.4766C108.733 15.1025 109.51 14.7284 110.287 14.7284C111.841 14.7284 113.136 15.2895 114.172 16.786Z" fill="#060D5D"/>
<path d="M128.935 10.052V13.9802H122.072V20.153H127.381V23.8942H122.072V33.9952H118.704V10.052H128.935Z" fill="#060D5D"/>
<path d="M143.31 25.7646H133.727C133.856 27.0741 134.115 28.1964 134.763 28.9446C135.41 29.6928 136.058 30.067 136.964 30.067C138.259 30.067 139.036 29.3187 139.554 27.8222H143.18C142.791 29.6928 142.015 31.1893 140.979 32.3117C139.942 33.4339 138.647 33.9952 136.964 33.9952C135.669 33.9952 134.633 33.621 133.597 32.8728C132.561 32.1246 131.784 31.0022 131.266 29.5058C130.748 28.0093 130.489 26.3259 130.489 24.4553C130.489 22.5847 130.748 20.7142 131.266 19.2177C131.784 17.7212 132.561 16.599 133.597 15.8507C134.633 15.1025 135.798 14.7284 137.093 14.7284C138.388 14.7284 139.425 15.1025 140.461 15.8507C141.496 16.599 142.274 17.7212 142.791 19.2177C143.31 20.7142 143.569 22.2107 143.569 24.0811C143.439 24.6424 143.439 25.2035 143.31 25.7646ZM140.072 22.5847C140.072 21.2753 139.813 20.3401 139.166 19.5918C138.518 18.8436 137.871 18.4695 136.964 18.4695C136.187 18.4695 135.41 18.8436 134.892 19.5918C134.374 20.3401 133.985 21.2753 133.856 22.5847H140.072Z" fill="#060D5D"/>
<path d="M145.77 19.2177C146.288 17.7213 147.065 16.5989 147.972 15.8508C148.878 15.1025 149.914 14.7284 151.079 14.7284C151.986 14.7284 152.763 14.9154 153.54 15.4767C154.317 16.0378 154.965 16.786 155.353 17.5343V8.55554H158.72V33.8081H155.353V31.0022C154.965 31.9376 154.317 32.6857 153.67 33.247C153.022 33.8081 152.116 34.1822 151.079 34.1822C149.914 34.1822 149.008 33.8081 148.101 32.8728C147.194 32.1246 146.418 30.8152 145.899 29.3188C145.381 27.8223 145.123 26.1388 145.123 24.0812C144.993 22.3977 145.252 20.7142 145.77 19.2177ZM154.835 21.4625C154.576 20.7142 154.058 19.966 153.54 19.5919C153.022 19.2177 152.375 18.8436 151.857 18.8436C151.338 18.8436 150.691 19.0306 150.173 19.4048C149.655 19.7789 149.267 20.5271 148.878 21.2753C148.619 22.0236 148.36 23.1459 148.36 24.2682C148.36 25.3906 148.489 26.3259 148.878 27.2612C149.137 28.1964 149.655 28.7576 150.173 29.3188C150.691 29.6929 151.209 30.067 151.857 30.067C152.504 30.067 153.022 29.8799 153.54 29.3188C154.058 28.9446 154.446 28.1964 154.835 27.4482C155.094 26.6999 155.353 25.5777 155.353 24.4553C155.353 23.1459 155.224 22.2106 154.835 21.4625Z" fill="#060D5D"/>
<path d="M174.001 25.7646H164.418C164.548 27.0741 164.807 28.1964 165.454 28.9446C166.102 29.6928 166.749 30.067 167.656 30.067C168.951 30.067 169.728 29.3187 170.246 27.8222H173.872C173.483 29.6928 172.706 31.1893 171.67 32.3117C170.634 33.4339 169.339 33.9952 167.656 33.9952C166.361 33.9952 165.325 33.621 164.288 32.8728C163.253 32.1246 162.476 31.0022 161.958 29.5058C161.439 28.0093 161.18 26.3259 161.18 24.4553C161.18 22.5847 161.439 20.7142 161.958 19.2177C162.476 17.7212 163.253 16.599 164.288 15.8507C165.325 15.1025 166.49 14.7284 167.785 14.7284C169.08 14.7284 170.116 15.1025 171.152 15.8507C172.188 16.599 172.965 17.7212 173.483 19.2177C174.001 20.7142 174.26 22.2107 174.26 24.0811C174.13 24.6424 174.13 25.2035 174.001 25.7646ZM170.634 22.5847C170.634 21.2753 170.375 20.3401 169.728 19.5918C169.08 18.8436 168.432 18.4695 167.526 18.4695C166.749 18.4695 165.972 18.8436 165.454 19.5918C164.936 20.3401 164.548 21.2753 164.418 22.5847H170.634Z" fill="#060D5D"/>
<path d="M181.512 15.4767C182.16 14.9156 182.936 14.5415 183.843 14.5415V19.592H182.936C181.901 19.592 181.124 19.966 180.606 20.7143C180.087 21.4625 179.828 22.5849 179.828 24.4555V33.8083H176.462V14.9156H179.828V17.9084C180.217 16.7862 180.865 16.0379 181.512 15.4767Z" fill="#060D5D"/>
<path d="M186.045 19.2177C186.563 17.7212 187.34 16.599 188.247 15.8507C189.153 15.1025 190.189 14.7284 191.225 14.7284C192.261 14.7284 193.038 15.1025 193.815 15.6636C194.592 16.2248 195.11 16.9731 195.627 17.9083V15.2895H198.995V34.1822H195.627V31.3763C195.239 32.3117 194.592 33.0598 193.815 33.621C193.038 34.1822 192.261 34.5563 191.225 34.5563C190.059 34.5563 189.153 34.1822 188.247 33.2469C187.34 32.4987 186.563 31.1893 186.045 29.6928C185.526 28.1964 185.268 26.5129 185.268 24.4553C185.268 22.3977 185.526 20.7142 186.045 19.2177ZM195.11 21.4624C194.851 20.7142 194.332 19.9659 193.815 19.5918C193.297 19.2177 192.65 18.8436 192.131 18.8436C191.483 18.8436 190.966 19.0307 190.448 19.4048C189.929 19.7788 189.541 20.5271 189.153 21.2753C188.764 22.0235 188.634 23.1459 188.634 24.2683C188.634 25.3905 188.764 26.3259 189.153 27.2611C189.412 28.1964 189.929 28.7576 190.448 29.3187C190.966 29.6928 191.483 30.067 192.131 30.067C192.778 30.067 193.297 29.8799 193.815 29.3187C194.332 28.9446 194.721 28.1964 195.11 27.4482C195.369 26.7 195.627 25.5776 195.627 24.4553C195.627 23.1459 195.369 22.2107 195.11 21.4624Z" fill="#060D5D"/>
<path d="M205.469 8.55554V33.8081H202.103V8.55554H205.469Z" fill="#060D5D"/>
<path d="M217.254 33.8081L213.628 24.4553H212.074V33.8081H208.707V10.052H214.923C216.218 10.052 217.254 10.4261 218.161 10.9872C219.067 11.5485 219.715 12.4837 220.233 13.6061C220.621 14.7284 220.88 16.0378 220.88 17.3472C220.88 18.8436 220.621 20.3401 219.973 21.6495C219.326 22.9588 218.419 23.7071 217.124 24.2682L221.14 33.9952H217.254V33.8081ZM212.074 20.9012H214.794C215.7 20.9012 216.348 20.5271 216.866 19.966C217.254 19.4048 217.513 18.4695 217.513 17.3472C217.513 16.2248 217.254 15.4767 216.866 14.7284C216.477 13.9802 215.7 13.7931 214.794 13.7931H212.074V20.9012Z" fill="#060D5D"/>
<path d="M236.032 25.7646H226.449C226.578 27.0741 226.838 28.1964 227.485 28.9446C228.133 29.6928 228.78 30.067 229.687 30.067C230.982 30.067 231.758 29.3187 232.276 27.8222H235.902C235.514 29.6928 234.737 31.1893 233.701 32.3117C232.665 33.4339 231.369 33.9952 229.687 33.9952C228.391 33.9952 227.355 33.621 226.319 32.8728C225.284 32.1246 224.506 31.0022 223.989 29.5058C223.47 28.0093 223.211 26.3259 223.211 24.4553C223.211 22.5847 223.47 20.7142 223.989 19.2177C224.506 17.7212 225.284 16.599 226.319 15.8507C227.355 15.1025 228.52 14.7284 229.815 14.7284C231.111 14.7284 232.147 15.1025 233.183 15.8507C234.218 16.599 234.996 17.7212 235.513 19.2177C236.032 20.7142 236.291 22.2107 236.291 24.0811C236.161 24.6424 236.032 25.2035 236.032 25.7646ZM232.664 22.5847C232.664 21.2753 232.406 20.3401 231.758 19.5918C231.111 18.8436 230.463 18.4695 229.557 18.4695C228.78 18.4695 228.003 18.8436 227.485 19.5918C226.966 20.3401 226.578 21.2753 226.449 22.5847H232.664Z" fill="#060D5D"/>
<path d="M240.694 33.2469C239.788 32.6857 239.14 31.9375 238.622 31.0022C238.104 30.067 237.845 28.9446 237.845 27.8223H241.212C241.212 28.5705 241.471 29.1316 241.989 29.6929C242.377 30.254 243.025 30.4411 243.672 30.4411C244.32 30.4411 244.838 30.254 245.097 29.8799C245.486 29.5057 245.614 29.1316 245.614 28.5705C245.614 28.0094 245.356 27.4481 244.967 27.2611C244.579 26.887 243.802 26.6999 242.895 26.3258C241.859 25.9518 241.083 25.5776 240.435 25.2035C239.788 24.8294 239.269 24.2682 238.881 23.5199C238.492 22.7718 238.234 21.8365 238.234 20.5271C238.234 19.4047 238.492 18.4695 238.881 17.7212C239.269 16.973 239.916 16.2248 240.694 15.6636C241.471 15.1025 242.377 14.9154 243.413 14.9154C244.967 14.9154 246.262 15.4765 247.169 16.5989C248.075 17.7212 248.593 19.2177 248.723 21.0882H245.356C245.356 20.3401 245.097 19.7788 244.708 19.2177C244.32 18.8436 243.802 18.4695 243.154 18.4695C242.507 18.4695 242.118 18.6565 241.73 19.0306C241.471 19.4047 241.212 19.7788 241.212 20.3401C241.212 20.9012 241.471 21.4623 241.859 21.8365C242.248 22.2106 243.025 22.5847 243.932 22.7718C244.838 23.1459 245.614 23.5199 246.262 23.8941C246.91 24.2682 247.428 24.8294 247.816 25.5776C248.205 26.3258 248.463 27.2611 248.463 28.5705C248.463 29.6929 248.205 30.6281 247.816 31.5633C247.428 32.4987 246.781 33.0598 246.003 33.6211C245.226 34.1822 244.32 34.3692 243.284 34.3692C242.507 34.1822 241.471 33.8081 240.694 33.2469Z" fill="#060D5D"/>
<path d="M263.486 25.7646H253.903C254.033 27.0741 254.291 28.1964 254.939 28.9446C255.586 29.6928 256.234 30.067 257.14 30.067C258.435 30.067 259.212 29.3187 259.731 27.8222H263.356C262.968 29.6928 262.191 31.1893 261.155 32.3117C260.119 33.4339 258.824 33.9952 257.14 33.9952C255.845 33.9952 254.809 33.621 253.773 32.8728C252.737 32.1246 251.96 31.0022 251.442 29.5058C250.924 28.0093 250.665 26.3259 250.665 24.4553C250.665 22.5847 250.924 20.7142 251.442 19.2177C251.96 17.7212 252.737 16.599 253.773 15.8507C254.809 15.1025 255.975 14.7284 257.27 14.7284C258.565 14.7284 259.601 15.1025 260.637 15.8507C261.673 16.599 262.45 17.7212 262.968 19.2177C263.486 20.7142 263.745 22.2107 263.745 24.0811C263.615 24.6424 263.615 25.2035 263.486 25.7646ZM260.119 22.5847C260.119 21.2753 259.859 20.3401 259.212 19.5918C258.565 18.8436 257.917 18.4695 257.01 18.4695C256.234 18.4695 255.457 18.8436 254.939 19.5918C254.421 20.3401 254.033 21.2753 253.903 22.5847H260.119Z" fill="#060D5D"/>
<path d="M270.997 15.4767C271.644 14.9156 272.422 14.5415 273.328 14.5415V19.592H272.551C271.515 19.592 270.738 19.966 270.22 20.7143C269.702 21.4625 269.443 22.5849 269.443 24.4555V33.8083H266.076V14.9156H269.443V17.9084C269.832 16.7862 270.349 16.0379 270.997 15.4767Z" fill="#060D5D"/>
<path d="M281.098 29.5057L284.465 14.9154H287.961L283.17 33.8081H279.026L274.234 14.9154H277.731L281.098 29.5057Z" fill="#060D5D"/>
<path d="M301.818 25.7646H292.235C292.365 27.0741 292.624 28.1964 293.271 28.9446C293.919 29.6928 294.566 30.067 295.473 30.067C296.768 30.067 297.544 29.3187 298.063 27.8222H301.688C301.3 29.6928 300.523 31.1893 299.487 32.3117C298.451 33.4339 297.156 33.9952 295.473 33.9952C294.178 33.9952 293.141 33.621 292.105 32.8728C291.07 32.1246 290.292 31.0022 289.775 29.5058C289.256 28.0093 288.997 26.3259 288.997 24.4553C288.997 22.5847 289.256 20.7142 289.775 19.2177C290.292 17.7212 291.07 16.599 292.105 15.8507C293.141 15.1025 294.307 14.7284 295.602 14.7284C296.897 14.7284 297.933 15.1025 298.969 15.8507C300.005 16.599 300.782 17.7212 301.3 19.2177C301.818 20.7142 302.077 22.2107 302.077 24.0811C301.947 24.6424 301.947 25.2035 301.818 25.7646ZM298.581 22.5847C298.581 21.2753 298.322 20.3401 297.674 19.5918C297.027 18.8436 296.379 18.4695 295.473 18.4695C294.695 18.4695 293.919 18.8436 293.4 19.5918C292.883 20.3401 292.494 21.2753 292.365 22.5847H298.581Z" fill="#060D5D"/>
<path d="M97.0052 58.1565C97.0052 58.5842 96.9852 58.9692 96.946 59.3114H90.9489C90.9985 60.167 91.2058 60.8372 91.5708 61.322C91.9358 61.8068 92.3852 62.0492 92.9183 62.0492C93.6883 62.0492 94.2362 61.5715 94.5619 60.6162H96.7979C96.561 61.7569 96.1071 62.6981 95.4356 63.4395C94.7641 64.1667 93.94 64.5303 92.9627 64.5303C92.1727 64.5303 91.4619 64.2808 90.8304 63.7817C90.2085 63.2684 89.7198 62.5483 89.3644 61.6214C89.0187 60.6946 88.8462 59.6251 88.8462 58.4131C88.8462 57.1868 89.0187 56.1103 89.3644 55.1834C89.7102 54.2565 90.1937 53.5436 90.8156 53.0445C91.4375 52.5454 92.1535 52.2959 92.9627 52.2959C93.7423 52.2959 94.4383 52.5383 95.0506 53.0231C95.6725 53.5079 96.1515 54.1995 96.4869 55.0978C96.8327 55.9819 97.0052 57.0015 97.0052 58.1565ZM94.8581 57.3009C94.8485 56.5309 94.656 55.9178 94.2806 55.4615C93.9052 54.9909 93.4462 54.7556 92.9035 54.7556C92.3904 54.7556 91.9558 54.9837 91.6004 55.4401C91.2546 55.8821 91.0429 56.5023 90.9637 57.3009H94.8581Z" fill="#B7C0DB"/>
<path d="M103.997 64.3378L101.717 58.52H100.74V64.3378H98.6666V49.4083H102.546C103.346 49.4083 104.027 49.615 104.59 50.0286C105.152 50.4278 105.571 50.9769 105.848 51.6755C106.134 52.36 106.278 53.13 106.278 53.9855C106.278 54.9694 106.08 55.8606 105.685 56.6592C105.29 57.4434 104.703 57.9853 103.923 58.2847L106.396 64.3378H103.997ZM100.74 56.2742H102.472C103.035 56.2742 103.454 56.0817 103.731 55.6967C104.007 55.2974 104.145 54.7484 104.145 54.0497C104.145 53.3653 104.007 52.8377 103.731 52.4669C103.454 52.0819 103.035 51.8894 102.472 51.8894H100.74V56.2742Z" fill="#B7C0DB"/>
<path d="M111.869 64.4875C111.149 64.4875 110.497 64.3092 109.915 63.9528C109.342 63.5963 108.888 63.083 108.552 62.4128C108.217 61.7426 108.044 60.9512 108.034 60.0386H110.255C110.285 60.6517 110.433 61.1366 110.699 61.4931C110.976 61.8495 111.351 62.0278 111.825 62.0278C112.309 62.0278 112.689 61.8638 112.965 61.5358C113.242 61.1936 113.38 60.7516 113.38 60.2097C113.38 59.7677 113.286 59.4041 113.098 59.1189C112.911 58.8337 112.674 58.6127 112.387 58.4558C112.111 58.2847 111.726 58.0994 111.232 57.8997C110.562 57.6145 110.014 57.3365 109.589 57.0656C109.174 56.7803 108.814 56.3597 108.508 55.8036C108.212 55.2333 108.064 54.4775 108.064 53.5364C108.064 52.6523 108.217 51.8823 108.523 51.2264C108.829 50.5705 109.259 50.0714 109.811 49.7292C110.364 49.3727 110.995 49.1945 111.706 49.1945C112.772 49.1945 113.636 49.5723 114.298 50.3281C114.969 51.0695 115.339 52.1105 115.408 53.4508H113.128C113.109 52.9375 112.955 52.5169 112.669 52.1889C112.393 51.8467 112.022 51.6756 111.558 51.6756C111.154 51.6756 110.828 51.8253 110.581 52.1247C110.344 52.4242 110.225 52.8591 110.225 53.4295C110.225 53.8287 110.314 54.1638 110.492 54.4347C110.68 54.6914 110.907 54.9053 111.173 55.0764C111.45 55.2333 111.835 55.4186 112.328 55.6325C113 55.9177 113.548 56.2028 113.972 56.4881C114.397 56.7733 114.762 57.2011 115.068 57.7714C115.374 58.3417 115.527 59.0903 115.527 60.0172C115.527 60.8158 115.384 61.5572 115.097 62.2417C114.811 62.9261 114.392 63.4751 113.839 63.8886C113.286 64.2879 112.629 64.4875 111.869 64.4875Z" fill="#B7C0DB"/>
<path d="M121.085 49.4083C122.171 49.4083 123.124 49.7149 123.943 50.328C124.773 50.9412 125.409 51.8181 125.854 52.9589C126.307 54.0853 126.535 55.3972 126.535 56.8944C126.535 58.3917 126.307 59.7035 125.854 60.83C125.409 61.9422 124.773 62.8049 123.943 63.418C123.124 64.0312 122.171 64.3378 121.085 64.3378H117.472V49.4083H121.085ZM121.011 61.7925C122.097 61.7925 122.936 61.3647 123.529 60.5092C124.121 59.6536 124.417 58.4487 124.417 56.8944C124.417 55.3402 124.121 54.1281 123.529 53.2583C122.936 52.3742 122.097 51.9322 121.011 51.9322H119.545V61.7925H121.011Z" fill="#B7C0DB"/>
<path d="M130.308 61.9636H133.713V64.3378H128.235V49.4083H130.308V61.9636Z" fill="#B7C0DB"/>
</svg>
