<svg width="308" height="53" viewBox="0 0 308 53" fill="none" xmlns="http://www.w3.org/2000/svg">
<path d="M27.3696 43.0652C29.0559 42.2696 30.466 41.2071 31.5964 39.9453V43.8842V44.3842H32.0964H46.0189H46.5189V43.8842V22.4392C46.6619 21.0048 47.2136 19.8436 48.0328 18.9406C49.1088 17.8005 50.6048 17.2649 52.6059 17.2649C54.4532 17.2649 55.9531 17.7982 57.0325 18.944L57.0325 18.944C58.1249 20.1034 58.6929 21.666 58.6929 23.6859V43.8842V44.3842H59.1929H73.1154H73.6154V43.8842V21.8498C73.6154 16.957 72.2418 12.8674 69.4394 9.92678C66.6329 6.84022 62.8962 5.38892 58.145 5.38892C55.3785 5.38892 52.9101 5.96942 50.7458 6.99042L50.9592 7.44263L50.7458 6.99042C49.0595 7.78597 47.6493 8.84855 46.5189 10.1103V6.17141V5.67141H46.0189H32.0964H31.5964V6.17141V26.3697C31.5964 28.3896 31.0284 29.9522 29.9361 31.1116L30.3 31.4545L29.936 31.1116C28.8566 32.2575 27.3567 32.7907 25.5095 32.7907C23.6622 32.7907 22.1624 32.2575 21.0829 31.1116L21.0829 31.1116C19.9905 29.9522 19.4225 28.3896 19.4225 26.3697V6.17141V5.67141H18.9225H5H4.5V6.17141V28.0646C4.5 33.0987 5.87369 37.191 8.68018 40.1332L9.04198 39.7881L8.68019 40.1332C11.4774 43.0656 15.2052 44.6667 19.9704 44.6667C22.7369 44.6667 25.2053 44.0862 27.3696 43.0652L27.1562 42.613L27.3696 43.0652Z" stroke="#060D5D"/>
<path d="M100.297 10.2665V9.76648H99.7972H96.5602H96.0602V10.2665V17.4766C96.0602 18.4489 95.8116 19.1895 95.4304 19.5683L95.4304 19.5683C95.0334 19.9628 94.4007 20.1955 93.5817 20.1955C92.9134 20.1955 92.2851 19.9761 91.881 19.5871C91.4576 19.0512 91.2327 18.4002 91.2327 17.4766V10.2665V9.76648H90.7327H87.3654H86.8654V10.2665V17.8629C86.8654 19.0409 86.9937 20.1681 87.5654 21.1771C88.0028 22.1765 88.7311 22.8983 89.603 23.3319L89.6032 23.332C90.4415 23.7486 91.4234 24.028 92.5451 24.028C93.4222 24.028 94.2727 23.7396 94.9317 23.4776L94.9319 23.4775C95.2774 23.3401 95.6194 23.1408 95.9307 22.9077V23.2705V23.7705H96.4307H99.7972H100.297V23.2705V10.2665Z" stroke="#060D5D"/>
<path d="M114.547 11.2235L114.536 11.2111L114.524 11.1994C113.368 10.0495 111.93 9.6377 110.287 9.6377C109.411 9.6377 108.559 9.92607 107.901 10.1881C107.555 10.3255 107.213 10.5246 106.902 10.7576V10.2664V9.76644H106.402H103.035H102.535V10.2664V23.2704V23.7704H103.035H106.402H106.902V23.2704V16.0603C106.902 15.0882 107.151 14.3476 107.531 13.9687C107.928 13.5742 108.561 13.3415 109.381 13.3415C110.048 13.3415 110.677 13.561 111.081 13.9497C111.504 14.4859 111.73 15.137 111.73 16.0603V23.2704V23.7704H112.23H115.596H116.096V23.2704V15.6741C116.096 13.7616 115.542 12.3534 114.547 11.2235Z" stroke="#060D5D"/>
<path d="M129.435 6.91895V6.41895H128.935H118.704H118.204V6.91895V23.3993V23.8993H118.704H122.072H122.572V23.3993V16.9467H127.381H127.881V16.4467V13.8716V13.3716H127.381H122.572V10.1228H128.935H129.435V9.62276V6.91895Z" stroke="#060D5D"/>
<path d="M143.669 18.2341H143.31H134.33C134.471 18.8033 134.696 19.231 135.074 19.5315L135.074 19.5317C135.639 19.9811 136.178 20.1954 136.964 20.1954C137.544 20.1954 137.966 20.0804 138.289 19.8826C138.612 19.6853 138.879 19.3797 139.108 18.9256L139.246 18.6503H139.554H143.18H143.853L143.659 19.2949C143.236 20.6942 142.391 21.8108 141.278 22.6413L141.278 22.6414C140.135 23.4929 138.728 23.8993 136.964 23.8993C135.592 23.8993 134.48 23.624 133.375 23.0744C132.241 22.5114 131.386 21.6607 130.819 20.5339L130.819 20.5336C130.263 19.4262 129.989 18.1892 129.989 16.8328C129.989 15.4848 130.259 14.117 130.819 13.0033L130.819 13.003C131.386 11.8761 132.242 11.0255 133.375 10.4625L143.669 18.2341ZM143.669 18.2341L143.784 17.8931M143.669 18.2341L143.784 17.8931M143.784 17.8931C143.861 17.6622 143.899 17.436 143.93 17.2507L143.932 17.2374C143.966 17.0388 143.992 16.8842 144.043 16.7343L144.069 16.6569V16.5753C144.069 15.2102 143.791 14.1031 143.238 13.003C142.672 11.8759 141.815 11.0254 140.683 10.4625L140.683 10.4625M143.784 17.8931L140.683 10.4625M140.683 10.4625C139.578 9.91279 138.465 9.6377 137.093 9.6377C135.73 9.6377 134.488 9.90914 133.375 10.4624L140.683 10.4625ZM135.245 13.8399L135.245 13.8397C135.647 13.4394 136.285 13.2128 136.964 13.2128C137.75 13.2128 138.289 13.427 138.854 13.8764C139.241 14.1846 139.457 14.5423 139.536 15.0453H134.483C134.645 14.5541 134.912 14.1702 135.245 13.8399Z" stroke="#060D5D"/>
<path d="M145.323 13.0031L145.323 13.0033C144.773 14.098 144.488 15.3433 144.623 16.6029C144.626 18.0715 144.897 19.3011 145.453 20.4052L145.453 20.4053C146 21.4937 146.83 22.4726 147.832 23.0489C148.827 23.7495 149.832 24.0281 151.079 24.0281C152.194 24.0281 153.191 23.7519 153.926 23.3138L153.926 23.3136C154.235 23.129 154.555 22.9109 154.853 22.6576V23.2706V23.7706H155.353H158.72H159.22V23.2706V5.88892V5.38892H158.72H155.353H154.853V5.88892V10.8824C154.527 10.6314 154.158 10.4014 153.763 10.2051L153.763 10.205C152.897 9.77469 152.038 9.63775 151.079 9.63775C149.838 9.63775 148.715 9.91283 147.725 10.4755C146.736 11.0369 145.888 11.8807 145.323 13.0031ZM154.389 14.9976L154.409 15.038L154.436 15.0741C154.727 15.4595 154.853 15.9703 154.853 16.8329C154.853 17.4867 154.637 18.1616 154.408 18.6289C154.013 19.151 153.7 19.5424 153.317 19.7329L153.277 19.7528L153.241 19.7796C152.829 20.0873 152.423 20.1955 151.857 20.1955C151.355 20.1955 150.946 20.0059 150.436 19.7527C149.919 19.367 149.536 19.0604 149.342 18.5775L149.327 18.5402L149.306 18.5058C148.977 17.9601 148.86 17.4125 148.86 16.7042C148.86 16.0503 149.077 15.3754 149.305 14.9082C149.7 14.3857 150.012 13.9947 150.395 13.8044L150.395 13.8044C150.837 13.5851 151.406 13.4703 151.857 13.4703C152.248 13.4703 152.803 13.6774 153.317 13.933C153.739 14.1426 154.178 14.5796 154.389 14.9976Z" stroke="#060D5D"/>
<path d="M174.001 18.2341H174.362L174.476 17.8923C174.553 17.6622 174.59 17.4366 174.621 17.2517L174.624 17.2372C174.657 17.0388 174.684 16.8841 174.734 16.7343L174.76 16.6569V16.5753C174.76 15.2104 174.484 14.1033 173.93 13.003C173.363 11.8761 172.507 11.0255 171.375 10.4625L171.375 10.4624C170.269 9.91283 169.157 9.6377 167.785 9.6377C166.422 9.6377 165.179 9.90917 164.066 10.4624L164.066 10.4625C162.933 11.0255 162.078 11.8761 161.511 13.003C160.951 14.1169 160.68 15.4848 160.68 16.8328C160.68 18.1892 160.954 19.4263 161.511 20.5339C162.078 21.6608 162.933 22.5114 164.066 23.0744L164.066 23.0745C165.172 23.624 166.284 23.8993 167.656 23.8993C169.419 23.8993 170.827 23.4929 171.969 22.6413L171.969 22.6413C173.082 21.8109 173.928 20.6944 174.351 19.2949L174.545 18.6503H173.872H170.246H169.937L169.799 18.9259C169.571 19.3798 169.304 19.6854 168.981 19.8827C168.658 20.0804 168.236 20.1954 167.656 20.1954C166.87 20.1954 166.331 19.9811 165.766 19.5317L165.766 19.5315C165.388 19.2309 165.162 18.8032 165.021 18.2341H174.001ZM165.807 13.8399L165.807 13.8397C166.209 13.4394 166.848 13.2128 167.526 13.2128C168.312 13.2128 168.851 13.427 169.417 13.8764C169.804 14.1846 170.019 14.5423 170.099 15.0453H165.045C165.208 14.5541 165.475 14.1701 165.807 13.8399Z" stroke="#060D5D"/>
<path d="M181.256 10.2233L181.256 10.2234C180.947 10.4074 180.628 10.6255 180.328 10.8914V10.2665V9.76652H179.828H176.462H175.962V10.2665V23.2706V23.7706H176.462H179.828H180.328V23.2706V16.8329C180.328 15.6031 180.577 14.9913 180.958 14.6125L180.958 14.6125C181.35 14.2235 181.977 13.9853 182.936 13.9853H183.843H184.343V13.4853V10.009V9.50903H183.843C182.837 9.50903 181.973 9.79576 181.256 10.2233Z" stroke="#060D5D"/>
<path d="M194.037 10.3336L194.038 10.3337C194.461 10.5443 194.814 10.7893 195.127 11.0633V10.5239V10.0239H195.627H198.995H199.495V10.5239V23.528V24.028H198.995H195.627H195.127V23.528V22.899C194.798 23.1657 194.428 23.3951 194.038 23.5894L194.037 23.5894C193.211 24.0001 192.358 24.2855 191.225 24.2855C189.977 24.2855 188.972 24.007 187.977 23.3063C186.976 22.73 186.146 21.7511 185.598 20.6626C185.039 19.5517 184.768 18.3135 184.768 16.8328C184.768 15.3522 185.039 14.114 185.598 13.003C186.163 11.8806 187.011 11.0369 187.999 10.4755L194.037 10.3336ZM194.037 10.3336C193.211 9.92313 192.358 9.6377 191.225 9.6377C190.107 9.6377 188.985 9.91523 188 10.4754L194.037 10.3336ZM189.617 18.5774L189.602 18.5401L189.581 18.5057C189.251 17.9601 189.134 17.4123 189.134 16.7041C189.134 15.961 189.264 15.3264 189.552 14.9452C189.96 14.4042 190.278 13.9991 190.67 13.8043C191.119 13.5813 191.56 13.4703 192.131 13.4703C192.523 13.4703 193.078 13.6774 193.592 13.9329C194.013 14.1424 194.453 14.5795 194.663 14.9975C194.903 15.474 195.127 16.0383 195.127 16.8328C195.127 17.4869 194.911 18.1619 194.683 18.6288C194.288 19.151 193.975 19.5424 193.592 19.7327L193.552 19.7527L193.516 19.7795C193.103 20.0872 192.697 20.1954 192.131 20.1954C191.63 20.1954 191.221 20.0058 190.71 19.7526C190.194 19.367 189.811 19.0603 189.617 18.5774Z" stroke="#060D5D"/>
<path d="M205.969 5.88892V5.38892H205.469H202.103H201.603V5.88892V23.2706V23.7706H202.103H205.469H205.969V23.2706V5.88892Z" stroke="#060D5D"/>
<path d="M221.568 23.1421L217.874 16.9825C218.931 16.5942 219.758 16.0591 220.38 15.1933C221.099 14.1921 221.38 13.055 221.38 11.9403C221.38 10.9465 221.096 9.96856 220.679 9.14052L220.665 9.11279L220.648 9.08699C220.093 8.2591 219.377 7.53742 218.357 7.10273L218.357 7.10266C217.392 6.69182 216.29 6.41895 214.923 6.41895H208.707H208.207V6.91895V23.2706V23.7706H208.707H212.074H212.574V23.2706V17.3329H213.336L216.754 23.4017V23.8993H217.254H221.14H222.022L221.568 23.1421ZM214.794 13.8866H212.574V9.99402H214.794C215.229 9.99402 215.599 10.0257 215.893 10.1053C216.184 10.1842 216.361 10.2992 216.467 10.4388C216.812 10.8972 217.013 11.3089 217.013 11.9403C217.013 12.59 216.801 13.0857 216.537 13.3642C216.11 13.674 215.574 13.8866 214.794 13.8866Z" stroke="#060D5D"/>
<path d="M236.532 18.2341H236.032H227.052C227.193 18.8031 227.418 19.2309 227.796 19.5315C228.361 19.9811 228.9 20.1954 229.687 20.1954C230.267 20.1954 230.689 20.0804 231.012 19.8827C231.334 19.6854 231.601 19.3798 231.83 18.9256L231.968 18.6503H232.276H235.902H236.575L236.381 19.2946C235.959 20.6943 235.113 21.8109 234 22.6413L234 22.6413C232.858 23.4929 231.45 23.8993 229.687 23.8993C228.314 23.8993 227.202 23.6241 226.097 23.0744C224.965 22.5115 224.108 21.661 223.542 20.5339L236.532 18.2341ZM236.532 18.2341V17.7341M236.532 18.2341V17.7341M236.532 17.7341C236.532 17.4442 236.63 17.1376 236.765 16.7343L236.791 16.6569V16.5753C236.791 15.2102 236.514 14.1031 235.96 13.003C235.394 11.8759 234.537 11.0254 233.405 10.4625L233.405 10.4625C232.3 9.91281 231.188 9.6377 229.815 9.6377C228.453 9.6377 227.21 9.90916 226.097 10.4625L226.097 10.4625M236.532 17.7341L226.097 10.4625M226.097 10.4625C224.965 11.0254 224.108 11.8759 223.542 13.003L226.097 10.4625ZM231.447 13.8766L231.447 13.8765C230.882 13.4271 230.343 13.2128 229.557 13.2128C228.878 13.2128 228.24 13.4393 227.837 13.8399L231.447 13.8766ZM231.447 13.8766C231.834 14.1847 232.05 14.5422 232.129 15.0453M231.447 13.8766L232.129 15.0453M232.129 15.0453H227.076M232.129 15.0453H227.076M227.076 15.0453C227.238 14.5539 227.505 14.17 227.837 13.8399L227.076 15.0453ZM222.711 16.8328C222.711 18.1891 222.985 19.4261 223.542 20.5336L223.542 13.0033C222.981 14.1171 222.711 15.4849 222.711 16.8328Z" stroke="#060D5D"/>
<path d="M238.232 21.6527L238.232 21.6525C237.642 20.9188 237.345 20.0354 237.345 19.1505V18.6505H237.845H241.212H241.712V19.1505C241.712 19.4473 241.838 19.7022 242.288 20.0371L242.316 20.0583L242.341 20.0833C242.583 20.3239 243.056 20.453 243.672 20.453C243.966 20.453 244.212 20.4235 244.402 20.3731C244.597 20.3213 244.7 20.2565 244.745 20.2121L244.78 20.1772L244.821 20.1499C244.974 20.0485 245.035 19.9735 245.065 19.9208C245.092 19.8715 245.114 19.8012 245.114 19.6654C245.114 19.4844 244.984 19.2965 244.81 19.2388L244.747 19.2178L244.691 19.181C244.573 19.1025 244.356 19.0228 243.995 18.9249C243.871 18.8912 243.722 18.8535 243.56 18.8125C243.311 18.7497 243.033 18.6791 242.766 18.6037C241.715 18.3419 240.919 18.0783 240.25 17.8125L240.25 17.8124C239.525 17.524 238.93 17.0843 238.482 16.4903L238.232 21.6527ZM238.232 21.6527C238.799 22.3572 239.509 22.9206 240.484 23.3385C241.323 23.7527 242.407 24.0184 243.202 24.1501L243.243 24.1568M238.232 21.6527L243.243 24.1568M238.482 11.8965L238.482 11.8965C238.928 11.3057 239.642 10.7458 240.471 10.3338L238.482 11.8965ZM238.482 11.8965C238.034 12.4898 237.734 13.2376 237.734 14.1291C237.734 15.139 238.027 15.8885 238.482 16.4903L238.482 11.8965ZM249.275 15.0153H248.723H245.356H244.856V14.5153C244.856 14.2088 244.719 13.9511 244.391 13.6176C244.051 13.3985 243.644 13.2128 243.154 13.2128C242.619 13.2128 242.33 13.3092 242.046 13.4898C241.787 13.7497 241.712 13.8608 241.712 14.0003C241.712 14.1655 241.835 14.4146 242.135 14.6135C242.434 14.8113 243.125 15.0546 244.002 15.1791L244.036 15.1838L244.068 15.1931C244.986 15.4538 245.779 15.7165 246.447 15.982L249.275 15.0153ZM249.275 15.0153L249.22 14.4653M249.275 15.0153L249.22 14.4653M249.22 14.4653C249.079 13.0617 248.507 11.9086 247.493 11.0448C246.468 10.1712 245.043 9.76648 243.413 9.76648C242.342 9.76648 241.347 9.8983 240.471 10.3337L249.22 14.4653ZM248.215 17.3041L248.215 17.3042C248.67 17.906 248.963 18.6555 248.963 19.6654C248.963 20.5614 248.66 21.2955 248.244 21.9839L248.215 17.3041ZM248.215 17.3041C247.767 16.7104 247.173 16.2706 246.447 15.982L248.215 17.3041ZM243.243 24.1568H243.284M243.243 24.1568H243.284M243.284 24.1568C244.355 24.1568 245.35 24.025 246.226 23.5896M243.284 24.1568L246.226 23.5896M246.226 23.5896C247.005 23.2022 247.774 22.7627 248.244 21.9839L246.226 23.5896Z" stroke="#060D5D"/>
<path d="M263.846 18.2341H263.486H254.506C254.647 18.8033 254.872 19.231 255.25 19.5315L255.25 19.5317C255.815 19.9811 256.354 20.1954 257.14 20.1954C257.721 20.1954 258.142 20.0804 258.466 19.8826C258.788 19.6853 259.056 19.3797 259.284 18.9256L259.422 18.6503H259.731H263.356H264.03L263.835 19.2949C263.412 20.6942 262.567 21.8108 261.454 22.6413L261.454 22.6414C260.311 23.4929 258.904 23.8993 257.14 23.8993C255.768 23.8993 254.656 23.624 253.551 23.0744C252.418 22.5114 251.562 21.6607 250.995 20.5339L250.995 20.5336C250.439 19.4262 250.165 18.1892 250.165 16.8328C250.165 15.4848 250.436 14.117 250.995 13.0033L250.995 13.003C251.562 11.8761 252.418 11.0255 253.551 10.4625L263.846 18.2341ZM263.846 18.2341L263.96 17.8931M263.846 18.2341L263.96 17.8931M263.96 17.8931C264.037 17.6622 264.075 17.436 264.106 17.2507L264.109 17.2374C264.142 17.0388 264.169 16.8842 264.219 16.7343L264.245 16.6569V16.5753C264.245 15.2102 263.968 14.1031 263.414 13.003C262.848 11.8759 261.992 11.0254 260.859 10.4625L260.859 10.4625M263.96 17.8931L260.859 10.4625M260.859 10.4625C259.754 9.91279 258.641 9.6377 257.27 9.6377C255.907 9.6377 254.664 9.90914 253.551 10.4624L260.859 10.4625ZM259.583 15.0453C259.504 14.5424 259.288 14.1848 258.901 13.8766L259.583 15.0453ZM259.583 15.0453H254.53M259.583 15.0453H254.53M254.53 15.0453C254.693 14.5539 254.959 14.17 255.291 13.8399L254.53 15.0453ZM257.01 13.2128C257.797 13.2128 258.336 13.427 258.901 13.8766L255.291 13.8399C255.695 13.4392 256.332 13.2128 257.01 13.2128Z" stroke="#060D5D"/>
<path d="M273.328 9.50903C272.323 9.50903 271.458 9.79566 270.741 10.2233L270.741 10.2234C270.453 10.3952 270.186 10.5911 269.943 10.8189V10.2665V9.76652H269.443H266.076H265.576V10.2665V23.2706V23.7706H266.076H269.443H269.943V23.2706V16.8329C269.943 15.6031 270.192 14.9911 270.572 14.6123C270.964 14.2235 271.591 13.9853 272.551 13.9853H273.328H273.828V13.4853V10.009V9.50903H273.328Z" stroke="#060D5D"/>
<path d="M283.991 10.1076L281.098 18.7362L278.205 10.1075L278.091 9.76648H277.731H274.234H273.517L273.765 10.4394L278.557 23.4434L278.677 23.7705H279.026H283.17H283.518L283.639 23.4434L288.431 10.4394L288.679 9.76648H287.961H284.465H284.105L283.991 10.1076Z" stroke="#060D5D"/>
<path d="M302.177 18.2341H301.818H292.838C292.979 18.8032 293.204 19.2311 293.582 19.5317C294.148 19.9812 294.687 20.1954 295.473 20.1954C296.053 20.1954 296.475 20.0804 296.798 19.8827C297.12 19.6854 297.387 19.3798 297.616 18.9256L297.754 18.6503H298.063H301.688H302.361L302.167 19.2946C301.745 20.6943 300.899 21.8109 299.786 22.6413L299.786 22.6413C298.644 23.4929 297.236 23.8993 295.473 23.8993C294.101 23.8993 292.988 23.6241 291.883 23.0744C290.751 22.5115 289.894 21.6609 289.328 20.5336C288.771 19.4261 288.497 18.1891 288.497 16.8328C288.497 15.4849 288.768 14.1171 289.328 13.0033L302.177 18.2341ZM302.177 18.2341L302.292 17.8931M302.177 18.2341L302.292 17.8931M302.292 17.8931C302.369 17.6623 302.407 17.436 302.438 17.2507L302.44 17.2374C302.474 17.0388 302.501 16.8842 302.551 16.7343L302.577 16.6569V16.5753C302.577 15.2102 302.3 14.1032 301.747 13.0033L301.747 13.003C301.18 11.8761 300.324 11.0255 299.191 10.4624C298.086 9.9128 296.974 9.6377 295.602 9.6377C294.239 9.6377 292.996 9.90914 291.883 10.4625L291.883 10.4625M302.292 17.8931L291.883 10.4625M291.883 10.4625C290.751 11.0254 289.894 11.8759 289.328 13.003L291.883 10.4625ZM297.363 13.8766L297.363 13.8765C296.798 13.4271 296.258 13.2128 295.473 13.2128C294.794 13.2128 294.156 13.4392 293.753 13.8398L297.363 13.8766ZM297.363 13.8766C297.75 14.1848 297.966 14.5424 298.045 15.0453M297.363 13.8766L298.045 15.0453M298.045 15.0453H292.992M298.045 15.0453H292.992M292.992 15.0453C293.154 14.5541 293.421 14.1702 293.753 13.8399L292.992 15.0453Z" stroke="#060D5D"/>
<path d="M97.3865 41.2228L97.4392 40.9069C97.4838 40.6392 97.5052 40.3461 97.5052 40.0297C97.5052 39.1621 97.3166 38.3744 96.9241 37.6817C96.5423 36.9798 95.9938 36.4354 95.2884 36.0566C94.5947 35.6789 93.8153 35.4958 92.9627 35.4958C92.0809 35.4958 91.2796 35.6836 90.5738 36.0735C89.8663 36.4643 89.315 37.0251 88.9248 37.7451C88.5333 38.4675 88.3462 39.2929 88.3462 40.2064C88.3462 41.1111 88.5338 41.9314 88.9248 42.653L88.9248 42.653L88.9276 42.6581C89.3266 43.3743 89.8801 43.9369 90.5834 44.3364L90.5834 44.3365L90.5915 44.3409C91.3034 44.7282 92.0977 44.917 92.9627 44.917C94.0291 44.917 94.9627 44.6422 95.7344 44.067L95.7344 44.067L95.7381 44.0642C96.4912 43.4919 97.0083 42.7564 97.2766 41.8672L97.471 41.2228H97.3865ZM91.5633 41.3247H94.2011L94.1139 41.5008C93.987 41.7569 93.8296 41.9257 93.6494 42.0339C93.4677 42.1429 93.2313 42.2092 92.9183 42.2092C92.4994 42.2092 92.1734 42.0821 91.9081 41.8396C91.7612 41.7053 91.6441 41.5371 91.5633 41.3247ZM93.9539 38.5533L93.9539 38.5533L93.9597 38.5582C94.0887 38.6662 94.1875 38.7915 94.2545 38.9408H91.6249C91.7056 38.7755 91.8089 38.6426 91.9307 38.5354L91.9315 38.5347C92.1876 38.3083 92.5014 38.1889 92.9035 38.1889C93.3385 38.1889 93.6782 38.3154 93.9539 38.5533Z" stroke="#060D5D"/>
<path d="M103.563 44.5318L103.707 44.7844H103.997H106.396H107.274L106.826 44.0292L104.668 40.3923C105.251 40.1448 105.732 39.7823 106.089 39.2946L106.089 39.2946L106.092 39.2907C106.547 38.6562 106.778 37.9408 106.778 37.1589C106.778 36.4866 106.613 35.8675 106.279 35.3144C105.947 34.7399 105.45 34.2994 104.812 33.9875C104.164 33.6603 103.402 33.5083 102.546 33.5083H98.6666H98.1666V34.0083V44.2844V44.7844H98.6666H100.74H101.24V44.2844V40.78H101.426L103.563 44.5318ZM103.385 36.4748L103.385 36.4749L103.392 36.4808C103.541 36.6187 103.645 36.834 103.645 37.203C103.645 37.5809 103.541 37.8186 103.382 37.9787C103.233 38.1191 102.962 38.2341 102.472 38.2341H101.24V36.2161H102.472C102.966 36.2161 103.237 36.3329 103.385 36.4748Z" stroke="#060D5D"/>
<path d="M114.182 38.4276C113.727 38.2172 113.154 38.0131 112.47 37.813C111.989 37.6694 111.623 37.5478 111.365 37.448C111.155 37.3537 110.984 37.2413 110.845 37.1139C110.768 37.0289 110.726 36.9265 110.726 36.7761C110.726 36.4927 110.806 36.3471 110.905 36.2586C111.042 36.1468 111.243 36.0689 111.558 36.0689C111.937 36.0689 112.181 36.1637 112.344 36.3026L112.352 36.3089L112.359 36.3149C112.537 36.4552 112.617 36.6135 112.629 36.818L112.654 37.2908H113.128H115.408H115.947L115.907 36.7536C115.829 35.7052 115.399 34.8517 114.604 34.2458C113.833 33.6413 112.852 33.3611 111.706 33.3611C110.939 33.3611 110.238 33.4935 109.611 33.7706C108.982 34.0399 108.474 34.4412 108.109 34.9788L108.109 34.9793C107.741 35.5228 107.564 36.153 107.564 36.8497C107.564 37.5717 107.729 38.2081 108.109 38.7114L108.113 38.7171L108.118 38.7228C108.468 39.1604 108.887 39.4996 109.375 39.7308L109.381 39.7338L109.388 39.7367C109.84 39.935 110.41 40.1332 111.092 40.3329L111.092 40.3329L111.098 40.3347C111.584 40.4698 111.945 40.5905 112.191 40.6957L112.201 40.6999L112.211 40.7037C112.437 40.7886 112.607 40.902 112.736 41.0374L112.737 41.0381C112.825 41.1293 112.88 41.25 112.88 41.443C112.88 41.6727 112.804 41.8351 112.645 41.9717C112.485 42.1006 112.231 42.1944 111.825 42.1944C111.441 42.1944 111.197 42.0973 111.034 41.9553C110.879 41.8109 110.776 41.6055 110.754 41.2902L110.721 40.8252H110.255H108.034H107.526L107.534 41.3335C107.546 42.0533 107.746 42.7004 108.148 43.2534L108.148 43.2539C108.542 43.7943 109.07 44.2015 109.718 44.479L109.72 44.4802L113.972 38.8814M114.182 38.4276L113.972 38.8814M114.182 38.4276C114.182 38.4275 114.182 38.4275 114.182 38.4275L113.972 38.8814M114.182 38.4276C114.684 38.6595 115.111 39.0063 115.462 39.4574M113.972 38.8814C114.397 39.0777 114.762 39.3721 115.068 39.7647M115.462 39.4574C115.462 39.4573 115.462 39.4571 115.462 39.457L115.068 39.7647M115.462 39.4574C115.854 39.9602 116.027 40.5935 116.027 41.3105C116.027 41.9517 115.859 42.5518 115.525 43.101M115.462 39.4574L115.068 39.7647M115.068 39.7647L115.525 43.101M115.408 36.7908H114.907C114.908 36.8032 114.909 36.8156 114.91 36.828L115.408 36.7908ZM115.408 36.7908V36.2908H115.337C115.372 36.4501 115.395 36.6168 115.408 36.7908ZM115.525 43.101L115.097 42.8416L115.524 43.1015C115.524 43.1014 115.525 43.1013 115.525 43.1012L115.525 43.101ZM109.915 44.0194L109.915 44.0194L109.915 44.0194Z" stroke="#060D5D"/>
<path d="M116.972 44.2844V44.7844H117.472H121.085C122.236 44.7844 123.27 44.5605 124.171 44.0964C125.081 43.6332 125.791 42.9742 126.286 42.1216C126.79 41.2593 127.035 40.2669 127.035 39.1611C127.035 38.0562 126.791 37.0646 126.287 36.2028C125.793 35.3312 125.083 34.6608 124.171 34.1963C123.269 33.7322 122.236 33.5083 121.085 33.5083H117.472H116.972V34.0083V44.2844ZM123.17 37.007L123.17 37.0071L123.173 37.01C123.65 37.4915 123.917 38.1856 123.917 39.1611C123.917 40.137 123.65 40.824 123.176 41.2946C122.703 41.7647 122.006 42.0325 121.011 42.0325H120.045V36.2455H121.011C122.002 36.2455 122.697 36.5203 123.17 37.007Z" stroke="#060D5D"/>
<path d="M134.213 42.6502V42.1502H133.713H130.808V34.0083V33.5083H130.308H128.235H127.735V34.0083V44.2844V44.7844H128.235H133.713H134.213V44.2844V42.6502Z" stroke="#060D5D"/>
</svg>
