<svg width="314" height="303" viewBox="0 0 314 303" fill="none" xmlns="http://www.w3.org/2000/svg">
<path opacity="0.6" d="M13.6348 0L153.02 63.6334L0.000183105 67.8057L13.6348 0Z" fill="url(#paint0_linear)"/>
<path opacity="0.6" d="M300.267 130.217L160.881 66.5838L313.901 62.4116L300.267 130.217Z" fill="url(#paint1_linear)"/>
<path d="M155.363 67.8058L137.947 118.183L142.822 120.004L156.982 68.3377L155.363 67.8058Z" fill="#ED2D18"/>
<path d="M155.104 68.0341L137.106 117.7L140.525 120.085L156.432 68.4743L155.104 68.0341Z" fill="#ED2D18"/>
<path d="M158.431 67.943C160.12 67.066 160.775 64.9879 159.893 63.3014C159.011 61.615 156.927 60.9588 155.238 61.8358C153.549 62.7129 152.894 64.791 153.776 66.4774C154.658 68.1638 156.742 68.82 158.431 67.943Z" fill="#C6881A"/>
<path opacity="0.2" d="M156.983 64.4119C156.743 65.1724 155.939 65.59 155.176 65.3499C154.414 65.1098 153.994 64.3067 154.233 63.5462C154.473 62.7857 155.277 62.368 156.04 62.6082C156.792 62.8451 157.222 63.6514 156.983 64.4119Z" fill="#F9BE58"/>
<path d="M146.317 115.418L136.402 112.296L122.49 156.485L132.404 159.606L146.317 115.418Z" fill="#ED2D18"/>
<path d="M141.23 113.816C139.202 119.524 137.338 125.338 135.283 131.026C132.463 138.827 129.518 146.951 125.555 154.216C125.058 155.127 124.569 156.051 124.076 156.984L132.406 159.607L146.318 115.418L141.23 113.816Z" fill="#ED2D18"/>
<path d="M135.059 193.251L139.589 163.552L125.426 159.489L111.49 154.706L98.179 181.64L115.406 190.825L116.781 186.947L115.687 190.914L135.059 193.251Z" fill="#ED2D18"/>
<path d="M136.22 190.899L140.75 161.2L126.587 157.137L112.651 152.353L99.34 179.287L116.567 188.473L117.939 184.604L116.848 188.561L136.22 190.899Z" fill="#353535"/>
<path d="M129.138 286.819C128.086 290.161 112.079 288.135 92.5236 282.352C91.1625 281.946 89.7814 281.533 88.3865 281.094C67.0113 274.364 50.5908 266.015 51.7155 262.443C51.7407 262.363 51.7791 262.276 51.8244 262.203L51.7642 262.184L63.1342 226.07C63.213 225.82 63.3055 225.596 63.4281 225.382C64.3624 224.411 67.2221 224.157 71.4533 224.521L134.555 244.388C138.4 246.611 140.626 248.543 140.66 249.874C140.636 250.053 140.596 250.217 140.542 250.387C140.536 250.407 140.53 250.427 140.526 250.437C140.526 250.437 129.176 286.699 129.138 286.819Z" fill="#ED2D18"/>
<path d="M117.481 276.683C122.669 278.317 128.428 274.704 130.346 268.614C132.263 262.524 129.612 256.263 124.425 254.629C119.237 252.996 113.477 256.609 111.56 262.699C109.642 268.789 112.293 275.05 117.481 276.683Z" fill="white"/>
<path d="M127.347 263.01C126.995 262.129 126.376 261.591 125.489 261.395C124.968 261.28 124.475 261.317 124.011 261.507C123.555 261.693 123.16 261.98 122.827 262.367L123.136 260.968L123.124 260.965L120.435 260.37L120.434 260.369L119.249 265.725C119.122 266.295 118.909 266.717 118.608 266.993C118.307 267.269 117.96 267.363 117.567 267.276C117.184 267.191 116.911 266.96 116.75 266.581C116.589 266.203 116.571 265.73 116.698 265.16L117.883 259.805L115.209 259.212L113.925 265.013C113.633 266.33 113.661 267.428 114.008 268.308C114.355 269.187 114.977 269.726 115.873 269.924C116.394 270.04 116.887 270.002 117.351 269.813C117.815 269.624 118.211 269.329 118.539 268.928L118.224 270.352H118.225L120.913 270.947L120.926 270.95L122.182 265.278C122.311 264.864 122.497 264.546 122.74 264.323C123.04 264.048 123.392 263.954 123.794 264.043C124.178 264.128 124.448 264.36 124.605 264.736C124.761 265.114 124.776 265.586 124.65 266.156L123.464 271.512L126.153 272.107L127.441 266.289C127.73 264.984 127.698 263.891 127.347 263.01Z" fill="#ED2D18"/>
<path d="M129.138 286.818C128.014 290.391 109.772 287.826 88.3969 281.096C67.0217 274.366 50.5912 266.015 51.7159 262.443C51.7411 262.362 51.7795 262.276 51.8247 262.202L51.7645 262.183L53.7997 255.719L53.8599 255.738C53.8147 255.811 53.7763 255.898 53.7511 255.978C52.6263 259.551 69.0468 267.899 90.4221 274.629C111.506 281.267 129.532 283.852 131.106 280.498C129.951 284.237 129.148 286.788 129.138 286.818Z" fill="#353535"/>
<g opacity="0.4">
<path opacity="0.4" d="M106.481 235.955L106.625 235.989C106.574 235.973 106.524 235.957 106.481 235.955Z" fill="#AA958C"/>
<path opacity="0.4" d="M129.141 286.819C128.089 290.161 112.082 288.135 92.5267 282.352C98.3474 277.773 103.285 272.179 106.734 266.094C109.69 260.876 111.594 254.547 110.796 248.499C110.45 245.883 108.672 236.711 106.617 235.987L114.531 238.072L134.551 244.375C138.396 246.598 140.622 248.531 140.656 249.861C140.632 250.04 140.592 250.204 140.538 250.374C140.532 250.394 140.526 250.414 140.523 250.424C140.53 250.437 129.179 286.699 129.141 286.819Z" fill="#A01000"/>
</g>
<path d="M140.606 250.22C140.587 250.28 140.571 250.33 140.532 250.383C138.931 253.542 120.969 250.823 99.9254 244.198C79.2125 237.676 63.119 229.761 63.0924 226.167C63.0969 226.047 63.1083 225.941 63.143 225.831C63.1966 225.661 63.2871 225.513 63.4178 225.379C64.3521 224.408 67.2118 224.153 71.443 224.518C78.9623 225.158 90.7941 227.762 103.81 231.86C116.826 235.958 128.015 240.602 134.545 244.385C138.39 246.607 140.616 248.54 140.649 249.87C140.658 249.983 140.64 250.109 140.606 250.22Z" fill="#F95F53"/>
<path d="M97.1739 240.538C99.28 241.201 101.134 241.273 101.315 240.698C101.496 240.123 99.9353 239.12 97.8292 238.456C95.7231 237.793 93.8691 237.722 93.6882 238.297C93.5072 238.871 95.0678 239.875 97.1739 240.538Z" fill="#353535"/>
<path d="M143.608 160.353L141.705 162.404L141.361 164.826L126.428 161.004L127.645 156.471L143.608 160.353Z" fill="#A01000"/>
<path d="M117.235 240.684C116.835 241.955 110.757 241.185 103.341 238.993C102.826 238.842 102.304 238.678 101.772 238.51C93.6633 235.957 87.4267 232.784 87.852 231.433C87.8615 231.403 87.8709 231.373 87.8936 231.336L87.8735 231.33L92.1896 217.621C92.218 217.531 92.2564 217.444 92.3048 217.36C92.661 217 93.7436 216.89 95.3528 217.033L119.297 224.572C120.752 225.415 121.603 226.145 121.609 226.653C121.6 226.716 121.588 226.789 121.569 226.849C121.566 226.859 121.566 226.859 121.563 226.869C121.56 226.879 117.251 240.634 117.235 240.684Z" fill="#ED2D18"/>
<path d="M117.237 240.684C116.811 242.035 109.892 241.066 101.773 238.51C93.6645 235.957 87.4278 232.784 87.8532 231.433C87.8626 231.403 87.8721 231.373 87.8947 231.336L87.8746 231.33L88.6465 228.878L88.6666 228.885C88.6471 228.912 88.6376 228.942 88.625 228.982C88.1997 230.333 94.4263 233.503 102.545 236.059C110.543 238.577 117.383 239.554 117.979 238.29C117.545 239.704 117.24 240.674 117.237 240.684Z" fill="#353535"/>
<g opacity="0.4">
<path opacity="0.4" d="M117.237 240.686C116.837 241.957 110.759 241.187 103.342 238.995C105.553 237.26 107.425 235.133 108.735 232.829C109.855 230.85 110.578 228.449 110.275 226.154C110.147 225.157 109.467 221.676 108.691 221.41L111.695 222.202L119.292 224.593C120.747 225.436 121.598 226.166 121.604 226.674C121.595 226.737 121.583 226.81 121.564 226.871C121.561 226.881 121.561 226.881 121.558 226.891C121.561 226.881 117.252 240.636 117.237 240.686Z" fill="#A01000"/>
</g>
<path d="M121.585 226.799C121.579 226.819 121.573 226.839 121.556 226.856C120.949 228.051 114.134 227.027 106.146 224.512C98.2886 222.038 92.1748 219.036 92.174 217.672C92.1766 217.628 92.1792 217.585 92.1918 217.545C92.2107 217.485 92.2528 217.421 92.3018 217.371C92.6581 217.01 93.7406 216.9 95.3498 217.044C98.2083 217.284 102.693 218.278 107.631 219.832C112.568 221.387 116.811 223.152 119.294 224.582C120.749 225.425 121.601 226.155 121.606 226.663C121.604 226.706 121.601 226.749 121.585 226.799Z" fill="#F95F53"/>
<path d="M97.5057 239.345L99.2073 234.15L100.929 228.962L102.671 223.781L104.422 218.602L107.973 208.271C109.157 204.827 110.37 201.392 111.564 197.952L113.363 192.799L115.181 187.653L118.832 177.353C119.438 175.641 120.056 173.922 120.671 172.213L122.52 167.076L126.218 156.802L126.133 157.072L126.804 154.38C127.041 153.486 127.258 152.587 127.496 151.694C127.733 150.8 127.97 149.907 128.217 149.017C128.464 148.127 128.721 147.24 128.978 146.353L129.374 145.026L129.78 143.702C130.047 142.819 130.334 141.941 130.615 141.051C131.193 139.286 131.787 137.537 132.465 135.804L135.372 136.521C135.165 138.37 134.875 140.203 134.574 142.033C134.42 142.942 134.254 143.857 134.09 144.762L133.828 146.12L133.556 147.476C133.369 148.385 133.185 149.284 132.988 150.189C132.801 151.098 132.587 151.988 132.39 152.894C132.183 153.796 131.966 154.696 131.762 155.589L131.101 158.284L131.067 158.427L131.016 158.554L127.158 168.778L125.228 173.889C124.583 175.589 123.944 177.302 123.289 178.998L119.383 189.196L117.424 194.298L115.445 199.394C114.124 202.783 112.82 206.189 111.479 209.572L107.473 219.738L105.447 224.808L103.41 229.875L101.363 234.939L99.2868 239.994L97.5057 239.345Z" fill="#ED2D18"/>
<path d="M96.0702 238.893L97.7718 233.698L99.4935 228.51L101.235 223.328L102.987 218.15L106.538 207.818C107.721 204.375 108.935 200.94 110.128 197.5L111.927 192.347L113.746 187.2L117.397 176.901C118.002 175.189 118.621 173.469 119.236 171.761L121.085 166.624L124.783 156.35L124.698 156.62L125.359 153.924C125.596 153.031 125.813 152.132 126.05 151.238C126.287 150.345 126.524 149.452 126.771 148.562C127.019 147.672 127.276 146.785 127.533 145.898L127.929 144.571L128.334 143.247C128.602 142.363 128.889 141.486 129.169 140.595C129.747 138.83 130.342 137.082 131.02 135.349L133.926 136.066C133.719 137.914 133.429 139.748 133.129 141.578C132.975 142.486 132.808 143.402 132.644 144.307L132.382 145.665L132.11 147.02C131.923 147.929 131.739 148.828 131.542 149.734C131.345 150.64 131.142 151.533 130.945 152.438C130.738 153.341 130.521 154.241 130.317 155.133L129.656 157.829L129.622 157.972L129.571 158.099L125.712 168.322L123.783 173.434C123.137 175.134 122.499 176.846 121.843 178.543L117.938 188.74L115.979 193.842L113.999 198.938C112.678 202.328 111.374 205.734 110.033 209.117L106.027 219.283L104.001 224.353L101.965 229.42L99.918 234.484L97.8413 239.538L96.0702 238.893Z" fill="#ED2D18"/>
<path d="M82.1278 229.432C81.9451 230.012 80.0942 229.935 77.9867 229.272C75.8793 228.608 74.3214 227.601 74.501 227.03C74.6805 226.46 76.5346 226.527 78.642 227.19C80.7494 227.854 82.3074 228.861 82.1278 229.432Z" fill="#353535"/>
<path d="M117.48 129.975L124.72 156.55L125.813 153.253L120.819 131.84L117.48 129.975Z" fill="#ED2D18"/>
<path d="M151.859 140.38L130.71 158.017L131.703 154.689L148.054 139.996L151.859 140.38Z" fill="#ED2D18"/>
<path d="M77.7302 228.157L79.3358 228.663L116.801 153.88L117.007 153.471L117.009 153.043L117.538 129.783L114.544 129.622L112.649 152.352L77.7302 228.157Z" fill="#ED2D18"/>
<path d="M76.2051 227.681L77.8107 228.186L115.276 153.403L115.481 152.995L115.484 152.567L116.013 129.307L113.019 129.145L111.124 151.876L76.2051 227.681Z" fill="#ED2D18"/>
<path d="M126.573 243.535L128.108 244.018L141.146 162.424L154.601 142.112L152.142 140.392L137.173 160.293L136.851 160.72L136.778 161.269L126.573 243.535Z" fill="#ED2D18"/>
<path d="M127.717 243.895L129.253 244.378L142.29 162.784L155.735 142.469L153.286 140.752L138.318 160.654L137.996 161.08L137.922 161.629L127.717 243.895Z" fill="#ED2D18"/>
<path d="M158.339 137.46C157.2 136.628 155.526 135.673 153.359 134.638C150.189 133.112 146.175 131.497 141.743 129.947L140.965 132.419C150.267 135.667 155.572 138.47 157.24 139.864C155.068 140.038 149.11 139.306 139.636 136.642C138.014 136.186 136.289 135.676 134.472 135.104C132.787 134.573 131.207 134.054 129.725 133.543C120.196 130.246 114.78 127.375 113.082 125.972C115.28 125.784 121.362 126.544 131.06 129.301L131.839 126.829C127.181 125.506 122.822 124.496 119.246 123.909C116.877 123.515 114.958 123.34 113.548 123.369C112.727 123.385 110.539 123.433 110.041 125.014C109.543 126.595 111.309 127.888 111.973 128.372C113.112 129.204 114.788 130.149 116.952 131.194C120.22 132.761 124.364 134.418 128.946 136.015C130.489 136.545 132.075 137.077 133.691 137.586C135.437 138.135 137.173 138.649 138.854 139.123C143.374 140.392 147.59 141.368 151.063 141.933C153.431 142.327 155.35 142.502 156.76 142.473C157.582 142.457 159.77 142.409 160.268 140.828C160.765 139.247 159.003 137.944 158.339 137.46Z" fill="#ED2D18"/>
<path d="M112.87 150.432L113.255 153.203L112.149 155.385L126.579 160.808L128.178 156.395L112.87 150.432Z" fill="#ED2D18"/>
<path d="M66.7257 261.714C71.9133 263.348 77.6731 259.735 79.5905 253.645C81.5079 247.555 78.8569 241.294 73.6692 239.66C68.4816 238.027 62.7218 241.64 60.8044 247.73C58.887 253.82 61.538 260.081 66.7257 261.714Z" fill="white"/>
<path d="M76.9465 249.224C76.7509 248.296 76.2332 247.659 75.3932 247.314C74.8995 247.111 74.4074 247.063 73.9177 247.17C73.4366 247.276 72.999 247.491 72.6036 247.815L73.149 246.489L73.1368 246.484L70.5904 245.437H70.5894L68.5029 250.51C68.281 251.05 67.9983 251.429 67.6549 251.649C67.3109 251.869 66.953 251.903 66.5808 251.749C66.2172 251.6 65.9883 251.325 65.8946 250.925C65.8008 250.525 65.8646 250.056 66.0866 249.516L68.1731 244.443L65.64 243.401L63.38 248.896C62.8672 250.143 62.7064 251.23 62.8972 252.156C63.0888 253.081 63.6088 253.719 64.4573 254.068C64.951 254.271 65.4431 254.319 65.9329 254.212C66.4218 254.105 66.8631 253.882 67.2551 253.544L66.7005 254.892L66.7015 254.893L69.2479 255.94L69.2601 255.945L71.4697 250.572C71.6678 250.187 71.9054 249.905 72.183 249.728C72.5261 249.508 72.8885 249.476 73.2696 249.633C73.6333 249.782 73.8598 250.057 73.9496 250.454C74.0386 250.853 73.9727 251.321 73.7507 251.861L71.6642 256.934L74.2105 257.981L76.4772 252.47C76.9855 251.234 77.142 250.152 76.9465 249.224Z" fill="#ED2D18"/>
<path opacity="0.7" d="M125.892 296.139C124.84 299.481 108.833 297.455 89.2777 291.672C87.9166 291.266 86.5355 290.853 85.1406 290.414C63.7654 283.684 47.3449 275.336 48.4696 271.763C48.4948 271.683 48.5332 271.596 48.5785 271.523L48.5183 271.504C52.4618 258.978 56.4073 245.716 57.9998 242C58.9341 241.029 69.4995 243.5 74.008 244.338C74.008 244.338 98.4269 245.4 130.809 262.918C133.548 264.502 135.586 265.572 135.586 265.572C135.586 265.572 129.714 284.001 125.892 296.139Z" fill="#954979"/>
<path opacity="0.7" d="M117.374 276.78C122.562 278.414 128.322 274.801 130.239 268.711C132.157 262.621 129.506 256.36 124.318 254.726C119.13 253.093 113.371 256.706 111.453 262.796C109.536 268.886 112.187 275.147 117.374 276.78Z" fill="white"/>
<path opacity="0.7" d="M127.241 263.107C126.889 262.227 126.27 261.689 125.383 261.492C124.862 261.377 124.369 261.414 123.905 261.604C123.449 261.79 123.054 262.077 122.721 262.465L123.03 261.065L123.018 261.062L120.329 260.467L120.328 260.466L119.143 265.822C119.016 266.392 118.803 266.814 118.502 267.09C118.201 267.366 117.854 267.46 117.461 267.373C117.078 267.288 116.805 267.057 116.644 266.679C116.483 266.3 116.465 265.827 116.592 265.257L117.777 259.902L115.103 259.31L113.819 265.111C113.527 266.427 113.555 267.525 113.902 268.405C114.249 269.284 114.871 269.823 115.767 270.022C116.288 270.137 116.781 270.1 117.245 269.91C117.709 269.721 118.105 269.426 118.433 269.025L118.118 270.449H118.119L120.807 271.044L120.82 271.047L122.076 265.375C122.205 264.961 122.391 264.643 122.634 264.421C122.934 264.145 123.286 264.052 123.688 264.141C124.072 264.226 124.342 264.457 124.499 264.834C124.655 265.211 124.67 265.683 124.544 266.253L123.358 271.609L126.047 272.204L127.335 266.386C127.624 265.081 127.592 263.988 127.241 263.107Z" fill="#E12814"/>
<path opacity="0.7" d="M125.892 296.139C124.767 299.711 106.526 297.146 85.1506 290.417C63.7754 283.687 47.3449 275.335 48.4696 271.763C48.4948 271.683 48.5332 271.596 48.5785 271.522L48.5183 271.503L50.5535 265.039L50.6137 265.058C50.5684 265.132 50.53 265.219 50.5048 265.299C49.3801 268.871 65.8006 277.219 87.1758 283.949C108.26 290.587 126.286 293.172 127.86 289.818C126.705 293.557 125.901 296.109 125.892 296.139Z" fill="#353535"/>
<path opacity="0.7" d="M66.4133 261.918C71.6009 263.551 77.3607 259.938 79.2781 253.848C81.1955 247.758 78.5445 241.497 73.3569 239.864C68.1692 238.23 62.4094 241.843 60.492 247.933C58.5746 254.023 61.2257 260.284 66.4133 261.918Z" fill="white"/>
<path opacity="0.7" d="M76.6356 249.426C76.44 248.498 75.9224 247.862 75.0824 247.517C74.5887 247.313 74.0966 247.266 73.6069 247.373C73.1258 247.478 72.6882 247.693 72.2928 248.018L72.8381 246.692L72.8259 246.687L70.2796 245.64L70.2786 245.639L68.1921 250.712C67.9701 251.252 67.6874 251.631 67.344 251.852C67.0001 252.072 66.6422 252.105 66.27 251.952C65.9063 251.803 65.6775 251.528 65.5837 251.128C65.49 250.728 65.5538 250.258 65.7758 249.719L67.8623 244.646L65.3291 243.604L63.0692 249.099C62.5564 250.345 62.3955 251.432 62.5863 252.358C62.778 253.284 63.298 253.922 64.1464 254.271C64.6402 254.474 65.1323 254.522 65.622 254.414C66.111 254.307 66.5523 254.085 66.9442 253.747L66.3897 255.095H66.3907L68.937 256.143L68.9493 256.148L71.1588 250.775C71.3569 250.389 71.5945 250.108 71.8722 249.93C72.2153 249.711 72.5777 249.678 72.9588 249.835C73.3225 249.985 73.549 250.259 73.6388 250.657C73.7278 251.055 73.6618 251.524 73.4399 252.063L71.3534 257.136L73.8997 258.184L76.1664 252.672C76.6747 251.436 76.8312 250.354 76.6356 249.426Z" fill="#E12814"/>
<defs>
<linearGradient id="paint0_linear" x1="151.384" y1="63.0833" x2="16.0296" y2="35.8658" gradientUnits="userSpaceOnUse">
<stop stop-color="#FED68E"/>
<stop offset="1" stop-color="#FED68E" stop-opacity="0"/>
</linearGradient>
<linearGradient id="paint1_linear" x1="162.518" y1="67.134" x2="297.872" y2="94.3515" gradientUnits="userSpaceOnUse">
<stop stop-color="#FED68E"/>
<stop offset="1" stop-color="#FED68E" stop-opacity="0"/>
</linearGradient>
</defs>
</svg>
