<svg width="17" height="17" viewBox="0 0 17 17" fill="none" xmlns="http://www.w3.org/2000/svg">
<path d="M16.4149 16.4172V16.4165H16.419V10.3953C16.419 7.44972 15.7848 5.18066 12.3412 5.18066C10.6858 5.18066 9.57485 6.08911 9.12131 6.95035H9.07342V5.45566H5.80835V16.4165H9.20818V10.9891C9.20818 9.56008 9.47907 8.17826 11.2488 8.17826C12.9925 8.17826 13.0185 9.80908 13.0185 11.0808V16.4172H16.4149Z" fill="white"/>
<path d="M0.270508 5.45703H3.67445V16.4179H0.270508V5.45703Z" fill="white"/>
<path d="M1.97149 0C0.883136 0 0 0.883136 0 1.97149C0 3.05985 0.883136 3.96146 1.97149 3.96146C3.05985 3.96146 3.94299 3.05985 3.94299 1.97149C3.9423 0.883136 3.05917 0 1.97149 0V0Z" fill="white"/>
</svg>
