<svg width="735" height="702" viewBox="0 0 735 702" fill="none" xmlns="http://www.w3.org/2000/svg">
<path fill-rule="evenodd" clip-rule="evenodd" d="M262.276 638.31C203.488 616.799 152.72 577.698 116.849 526.306C80.9786 474.914 61.7398 413.715 61.7398 351C61.7398 288.286 80.9786 227.086 116.849 175.694C152.72 124.302 203.488 85.2018 262.276 63.6897C266.045 62.032 269.274 59.3466 271.595 55.9397C273.915 52.5327 275.234 48.5416 275.401 44.4204V15.8725C275.645 13.3444 275.222 10.7965 274.173 8.48489C273.123 6.17332 271.486 4.17829 269.424 2.70077C267.363 1.22324 264.949 0.316312 262.426 0.068495C259.904 -0.17828 257.36 0.24446 255.053 1.293C181.019 24.9376 116.408 71.5626 70.5596 134.427C24.7107 197.291 0 273.136 0 351C0 428.863 24.7107 504.71 70.5596 567.574C116.408 630.438 181.019 677.062 255.053 700.707C257.36 701.756 259.904 702.179 262.426 701.931C264.949 701.684 267.363 700.776 269.424 699.3C271.486 697.822 273.123 695.827 274.173 693.516C275.222 691.203 275.645 688.655 275.401 686.127V657.58C275.234 653.459 273.915 649.467 271.595 646.06C269.274 642.654 266.045 639.969 262.276 638.31ZM500.286 423.069C500.286 352.314 456.905 328.459 372.994 317.037C310.977 308.142 299.063 293.688 299.063 264.982C299.063 236.275 320.041 218.384 360.163 218.384C396.721 218.384 417.801 231.019 426.457 260.231C427.376 263.428 429.309 266.246 431.968 268.267C434.628 270.288 437.873 271.405 441.223 271.45H473.3C475.396 271.493 477.475 271.077 479.389 270.233C481.304 269.388 483.007 268.133 484.379 266.56C485.75 264.987 486.755 263.133 487.321 261.131C487.888 259.129 488.004 257.026 487.659 254.975C477.476 208.781 446.111 180.985 396.925 172.292V123.571C396.925 119.551 395.315 115.694 392.451 112.851C389.587 110.007 385.701 108.41 381.65 108.41H351.099C347.049 108.41 343.163 110.007 340.299 112.851C337.434 115.694 335.825 119.551 335.825 123.571V170.573C274.725 179.064 236.129 219.091 236.129 270.44C236.129 336.848 276.863 362.624 361.996 374.046C419.939 383.446 436.436 395.879 436.436 428.528C436.436 461.176 408.432 483.11 368.921 483.11C315.661 483.11 297.637 459.963 291.629 429.943C290.93 426.498 289.063 423.395 286.339 421.151C283.616 418.907 280.199 417.658 276.659 417.611H241.832C239.754 417.598 237.698 418.035 235.809 418.894C233.919 419.752 232.24 421.01 230.893 422.579C229.544 424.15 228.558 425.992 228.002 427.98C227.447 429.968 227.336 432.052 227.677 434.087C236.537 484.627 269.225 521.621 335.825 530.516V578.427C335.825 582.449 337.434 586.306 340.299 589.149C343.163 591.992 347.049 593.59 351.099 593.59H381.65C385.701 593.59 389.587 591.992 392.451 589.149C395.315 586.306 396.925 582.449 396.925 578.427V530.516C460.062 520.611 500.286 477.349 500.286 423.069ZM469.913 0.068495C472.459 -0.17828 475.027 0.24446 477.358 1.293C552.107 24.9376 617.345 71.5626 663.637 134.427C709.929 197.291 734.878 273.136 734.878 351C734.878 428.863 709.929 504.71 663.637 567.574C617.345 630.438 552.107 677.062 477.358 700.707C475.027 701.756 472.459 702.179 469.913 701.931C467.366 701.684 464.929 700.776 462.847 699.3C460.765 697.822 459.112 695.827 458.052 693.516C456.994 691.203 456.566 688.655 456.812 686.127V657.58C456.769 653.408 458.018 649.324 460.387 645.879C462.757 642.432 466.134 639.792 470.064 638.31C529.422 616.799 580.682 577.698 616.9 526.306C653.117 474.914 672.541 413.715 672.541 351C672.541 288.286 653.117 227.086 616.9 175.694C580.682 124.302 529.422 85.2018 470.064 63.6897C466.259 62.032 462.999 59.3466 460.655 55.9397C458.312 52.5327 456.981 48.5416 456.812 44.4204V15.8725C456.566 13.3444 456.994 10.7965 458.052 8.48489C459.112 6.17332 460.765 4.17829 462.847 2.70077C464.929 1.22324 467.366 0.316312 469.913 0.068495Z" fill="url(#paint0_linear)"/>
<defs>
<linearGradient id="paint0_linear" x1="595.811" y1="0" x2="595.811" y2="702" gradientUnits="userSpaceOnUse">
<stop offset="0.0001" stop-color="#395DCF" stop-opacity="0.2"/>
<stop offset="1" stop-color="#395DCF" stop-opacity="0"/>
</linearGradient>
</defs>
</svg>
