<?xml version="1.0" encoding="UTF-8"?>
<svg width="255px" height="36px" viewBox="0 0 255 36" version="1.1" xmlns="http://www.w3.org/2000/svg" xmlns:xlink="http://www.w3.org/1999/xlink">
    <!-- Generator: Sketch 60.1 (88133) - https://sketch.com -->
    <title>Group</title>
    <desc>Created with Sketch.</desc>
    <g id="Page-1" stroke="none" stroke-width="1" fill="none" fill-rule="evenodd">
        <g id="Group" fill="#042751" fill-rule="nonzero">
            <g id="logo" transform="translate(65.000000, 1.000000)">
                <path d="M4.432,1.10062 L4.432,9.5006 C4.432,10.3406 4.6387,10.9873 5.052,11.4406 C5.4654,11.894 6.072,12.1206 6.872,12.1206 C7.672,12.1206 8.2854,11.894 8.712,11.4406 C9.1387,10.9873 9.352,10.3406 9.352,9.5006 L9.352,1.10062 L12.772,1.10062 L12.772,9.4806 C12.772,10.734 12.5054,11.794 11.972,12.6606 C11.4387,13.5273 10.7187,14.1806 9.812,14.6206 C8.9187,15.0606 7.9187,15.2806 6.812,15.2806 C5.7054,15.2806 4.712,15.0673 3.832,14.6406 C2.9654,14.2006 2.2787,13.5473 1.772,12.6806 C1.2654,11.8006 1.012,10.734 1.012,9.4806 L1.012,1.10062 L4.432,1.10062 Z M22.1736,3.86062 C23.4803,3.86062 24.5203,4.28729 25.2936,5.14062 C26.0803,5.98062 26.4736,7.14062 26.4736,8.6206 L26.4736,15.1406 L23.0736,15.1406 L23.0736,9.0806 C23.0736,8.334 22.8803,7.75396 22.4936,7.34062 C22.1069,6.92729 21.5869,6.72062 20.9336,6.72062 C20.2803,6.72062 19.7603,6.92729 19.3736,7.34062 C18.9869,7.75396 18.7936,8.334 18.7936,9.0806 L18.7936,15.1406 L15.3736,15.1406 L15.3736,3.98062 L18.7936,3.98062 L18.7936,5.46062 C19.1403,4.96729 19.6069,4.58062 20.1936,4.30062 C20.7803,4.00729 21.4403,3.86062 22.1736,3.86062 Z M38.19,1.10062 L38.19,3.84063 L32.4702,3.84063 L32.4702,6.80062 L36.75,6.80062 L36.75,9.4606 L32.4702,9.4606 L32.4702,15.1406 L29.0502,15.1406 L29.0502,1.10062 L38.19,1.10062 Z M50.708,9.3806 C50.708,9.7006 50.688,10.034 50.648,10.3806 L42.908,10.3806 C42.961,11.074 43.181,11.6073 43.568,11.9806 C43.968,12.3406 44.454,12.5206 45.028,12.5206 C45.881,12.5206 46.474,12.1606 46.808,11.4406 L50.448,11.4406 C50.261,12.174 49.921,12.834 49.428,13.4206 C48.948,14.0073 48.341,14.4673 47.608,14.8006 C46.874,15.134 46.054,15.3006 45.148,15.3006 C44.054,15.3006 43.081,15.0673 42.228,14.6006 C41.374,14.134 40.708,13.4673 40.228,12.6006 C39.748,11.734 39.508,10.7206 39.508,9.5606 C39.508,8.4006 39.741,7.38729 40.208,6.52062 C40.688,5.65396 41.354,4.98729 42.208,4.52062 C43.061,4.05396 44.041,3.82062 45.148,3.82062 C46.228,3.82062 47.188,4.04729 48.028,4.50062 C48.868,4.95396 49.521,5.60062 49.988,6.44062 C50.468,7.28062 50.708,8.2606 50.708,9.3806 Z M47.208,8.4806 C47.208,7.89396 47.008,7.42729 46.608,7.08062 C46.208,6.73396 45.708,6.56062 45.108,6.56062 C44.534,6.56062 44.048,6.72729 43.648,7.06062 C43.261,7.39396 43.021,7.86729 42.928,8.4806 L47.208,8.4806 Z M52.032,9.5406 C52.032,8.394 52.245,7.38729 52.672,6.52062 C53.112,5.65396 53.705,4.98729 54.452,4.52062 C55.199,4.05396 56.032,3.82062 56.952,3.82062 C57.685,3.82062 58.352,3.97396 58.952,4.28062 C59.565,4.58729 60.045,5.00062 60.392,5.52062 L60.392,0.34062 L63.812,0.34062 L63.812,15.1406 L60.392,15.1406 L60.392,13.5406 C60.072,14.074 59.612,14.5006 59.012,14.8206 C58.425,15.1406 57.739,15.3006 56.952,15.3006 C56.032,15.3006 55.199,15.0673 54.452,14.6006 C53.705,14.1206 53.112,13.4473 52.672,12.5806 C52.245,11.7006 52.032,10.6873 52.032,9.5406 Z M60.392,9.5606 C60.392,8.7073 60.152,8.034 59.672,7.54062 C59.205,7.04729 58.632,6.80062 57.952,6.80062 C57.272,6.80062 56.692,7.04729 56.212,7.54062 C55.745,8.0206 55.512,8.6873 55.512,9.5406 C55.512,10.394 55.745,11.074 56.212,11.5806 C56.692,12.074 57.272,12.3206 57.952,12.3206 C58.632,12.3206 59.205,12.074 59.672,11.5806 C60.152,11.0873 60.392,10.414 60.392,9.5606 Z M77.006,9.3806 C77.006,9.7006 76.986,10.034 76.946,10.3806 L69.206,10.3806 C69.259,11.074 69.479,11.6073 69.866,11.9806 C70.266,12.3406 70.753,12.5206 71.326,12.5206 C72.179,12.5206 72.773,12.1606 73.106,11.4406 L76.746,11.4406 C76.559,12.174 76.219,12.834 75.726,13.4206 C75.246,14.0073 74.639,14.4673 73.906,14.8006 C73.173,15.134 72.353,15.3006 71.446,15.3006 C70.353,15.3006 69.379,15.0673 68.526,14.6006 C67.673,14.134 67.006,13.4673 66.526,12.6006 C66.046,11.734 65.806,10.7206 65.806,9.5606 C65.806,8.4006 66.039,7.38729 66.506,6.52062 C66.986,5.65396 67.653,4.98729 68.506,4.52062 C69.359,4.05396 70.339,3.82062 71.446,3.82062 C72.526,3.82062 73.486,4.04729 74.326,4.50062 C75.166,4.95396 75.819,5.60062 76.286,6.44062 C76.766,7.28062 77.006,8.2606 77.006,9.3806 Z M73.506,8.4806 C73.506,7.89396 73.306,7.42729 72.906,7.08062 C72.506,6.73396 72.006,6.56062 71.406,6.56062 C70.833,6.56062 70.346,6.72729 69.946,7.06062 C69.559,7.39396 69.319,7.86729 69.226,8.4806 L73.506,8.4806 Z M82.43,5.84062 C82.83,5.22729 83.33,4.74729 83.93,4.40062 C84.53,4.04062 85.197,3.86062 85.93,3.86062 L85.93,7.48062 L84.99,7.48062 C84.137,7.48062 83.497,7.66729 83.07,8.0406 C82.644,8.4006 82.43,9.0406 82.43,9.9606 L82.43,15.1406 L79.01,15.1406 L79.01,3.98062 L82.43,3.98062 L82.43,5.84062 Z M87.085,9.5406 C87.085,8.394 87.298,7.38729 87.725,6.52062 C88.165,5.65396 88.758,4.98729 89.505,4.52062 C90.252,4.05396 91.085,3.82062 92.005,3.82062 C92.792,3.82062 93.478,3.98062 94.065,4.30062 C94.665,4.62062 95.125,5.04062 95.445,5.56062 L95.445,3.98062 L98.865,3.98062 L98.865,15.1406 L95.445,15.1406 L95.445,13.5606 C95.112,14.0806 94.645,14.5006 94.045,14.8206 C93.458,15.1406 92.772,15.3006 91.985,15.3006 C91.078,15.3006 90.252,15.0673 89.505,14.6006 C88.758,14.1206 88.165,13.4473 87.725,12.5806 C87.298,11.7006 87.085,10.6873 87.085,9.5406 Z M95.445,9.5606 C95.445,8.7073 95.205,8.034 94.725,7.54062 C94.258,7.04729 93.685,6.80062 93.005,6.80062 C92.325,6.80062 91.745,7.04729 91.265,7.54062 C90.798,8.0206 90.565,8.6873 90.565,9.5406 C90.565,10.394 90.798,11.074 91.265,11.5806 C91.745,12.074 92.325,12.3206 93.005,12.3206 C93.685,12.3206 94.258,12.074 94.725,11.5806 C95.205,11.0873 95.445,10.414 95.445,9.5606 Z M104.959,0.34062 L104.959,15.1406 L101.539,15.1406 L101.539,0.34062 L104.959,0.34062 Z M114.798,15.1406 L111.878,9.8406 L111.058,9.8406 L111.058,15.1406 L107.638,15.1406 L107.638,1.10062 L113.378,1.10062 C114.484,1.10062 115.424,1.29396 116.198,1.68062 C116.984,2.06729 117.571,2.60062 117.958,3.28062 C118.344,3.94729 118.538,4.69396 118.538,5.52062 C118.538,6.45396 118.271,7.28729 117.738,8.0206 C117.218,8.754 116.444,9.274 115.418,9.5806 L118.658,15.1406 L114.798,15.1406 Z M111.058,7.42062 L113.178,7.42062 C113.804,7.42062 114.271,7.26729 114.578,6.96062 C114.898,6.65396 115.058,6.22062 115.058,5.66062 C115.058,5.12729 114.898,4.70729 114.578,4.40062 C114.271,4.09396 113.804,3.94062 113.178,3.94062 L111.058,3.94062 L111.058,7.42062 Z M131.405,9.3806 C131.405,9.7006 131.385,10.034 131.345,10.3806 L123.605,10.3806 C123.658,11.074 123.878,11.6073 124.265,11.9806 C124.665,12.3406 125.151,12.5206 125.725,12.5206 C126.578,12.5206 127.171,12.1606 127.505,11.4406 L131.145,11.4406 C130.958,12.174 130.618,12.834 130.125,13.4206 C129.645,14.0073 129.038,14.4673 128.305,14.8006 C127.571,15.134 126.751,15.3006 125.845,15.3006 C124.751,15.3006 123.778,15.0673 122.925,14.6006 C122.071,14.134 121.405,13.4673 120.925,12.6006 C120.445,11.734 120.205,10.7206 120.205,9.5606 C120.205,8.4006 120.438,7.38729 120.905,6.52062 C121.385,5.65396 122.051,4.98729 122.905,4.52062 C123.758,4.05396 124.738,3.82062 125.845,3.82062 C126.925,3.82062 127.885,4.04729 128.725,4.50062 C129.565,4.95396 130.218,5.60062 130.685,6.44062 C131.165,7.28062 131.405,8.2606 131.405,9.3806 Z M127.905,8.4806 C127.905,7.89396 127.705,7.42729 127.305,7.08062 C126.905,6.73396 126.405,6.56062 125.805,6.56062 C125.231,6.56062 124.745,6.72729 124.345,7.06062 C123.958,7.39396 123.718,7.86729 123.625,8.4806 L127.905,8.4806 Z M137.949,15.3006 C136.975,15.3006 136.109,15.134 135.349,14.8006 C134.589,14.4673 133.989,14.014 133.549,13.4406 C133.109,12.854 132.862,12.2006 132.809,11.4806 L136.189,11.4806 C136.229,11.8673 136.409,12.1806 136.729,12.4206 C137.049,12.6606 137.442,12.7806 137.909,12.7806 C138.335,12.7806 138.662,12.7006 138.889,12.5406 C139.129,12.3673 139.249,12.1473 139.249,11.8806 C139.249,11.5606 139.082,11.3273 138.749,11.1806 C138.415,11.0206 137.875,10.8473 137.129,10.6606 C136.329,10.474 135.662,10.2806 135.129,10.0806 C134.595,9.8673 134.135,9.5406 133.749,9.1006 C133.362,8.6473 133.169,8.0406 133.169,7.28062 C133.169,6.64062 133.342,6.06062 133.689,5.54062 C134.049,5.00729 134.569,4.58729 135.249,4.28062 C135.942,3.97396 136.762,3.82062 137.709,3.82062 C139.109,3.82062 140.209,4.16729 141.009,4.86063 C141.822,5.55396 142.289,6.47396 142.409,7.62062 L139.249,7.62062 C139.195,7.23396 139.022,6.92729 138.729,6.70062 C138.449,6.47396 138.075,6.36062 137.609,6.36062 C137.209,6.36062 136.902,6.44062 136.689,6.60062 C136.475,6.74729 136.369,6.95396 136.369,7.22062 C136.369,7.54062 136.535,7.78062 136.869,7.94062 C137.215,8.1006 137.749,8.2606 138.469,8.4206 C139.295,8.634 139.969,8.8473 140.489,9.0606 C141.009,9.2606 141.462,9.594 141.849,10.0606 C142.249,10.514 142.455,11.1273 142.469,11.9006 C142.469,12.554 142.282,13.1406 141.909,13.6606 C141.549,14.1673 141.022,14.5673 140.329,14.8606 C139.649,15.154 138.855,15.3006 137.949,15.3006 Z M155.281,9.3806 C155.281,9.7006 155.261,10.034 155.221,10.3806 L147.481,10.3806 C147.534,11.074 147.754,11.6073 148.141,11.9806 C148.541,12.3406 149.028,12.5206 149.601,12.5206 C150.454,12.5206 151.048,12.1606 151.381,11.4406 L155.021,11.4406 C154.834,12.174 154.494,12.834 154.001,13.4206 C153.521,14.0073 152.914,14.4673 152.181,14.8006 C151.448,15.134 150.628,15.3006 149.721,15.3006 C148.628,15.3006 147.654,15.0673 146.801,14.6006 C145.948,14.134 145.281,13.4673 144.801,12.6006 C144.321,11.734 144.081,10.7206 144.081,9.5606 C144.081,8.4006 144.314,7.38729 144.781,6.52062 C145.261,5.65396 145.928,4.98729 146.781,4.52062 C147.634,4.05396 148.614,3.82062 149.721,3.82062 C150.801,3.82062 151.761,4.04729 152.601,4.50062 C153.441,4.95396 154.094,5.60062 154.561,6.44062 C155.041,7.28062 155.281,8.2606 155.281,9.3806 Z M151.781,8.4806 C151.781,7.89396 151.581,7.42729 151.181,7.08062 C150.781,6.73396 150.281,6.56062 149.681,6.56062 C149.108,6.56062 148.621,6.72729 148.221,7.06062 C147.834,7.39396 147.594,7.86729 147.501,8.4806 L151.781,8.4806 Z M160.705,5.84062 C161.105,5.22729 161.605,4.74729 162.205,4.40062 C162.805,4.04062 163.472,3.86062 164.205,3.86062 L164.205,7.48062 L163.265,7.48062 C162.412,7.48062 161.772,7.66729 161.345,8.0406 C160.919,8.4006 160.705,9.0406 160.705,9.9606 L160.705,15.1406 L157.285,15.1406 L157.285,3.98062 L160.705,3.98062 L160.705,5.84062 Z M171.06,11.9406 L173.48,3.98062 L177.12,3.98062 L173.16,15.1406 L168.94,15.1406 L164.98,3.98062 L168.64,3.98062 L171.06,11.9406 Z M189.28,9.3806 C189.28,9.7006 189.26,10.034 189.22,10.3806 L181.48,10.3806 C181.533,11.074 181.753,11.6073 182.14,11.9806 C182.54,12.3406 183.026,12.5206 183.6,12.5206 C184.453,12.5206 185.046,12.1606 185.38,11.4406 L189.02,11.4406 C188.833,12.174 188.493,12.834 188,13.4206 C187.52,14.0073 186.913,14.4673 186.18,14.8006 C185.446,15.134 184.626,15.3006 183.72,15.3006 C182.626,15.3006 181.653,15.0673 180.8,14.6006 C179.946,14.134 179.28,13.4673 178.8,12.6006 C178.32,11.734 178.08,10.7206 178.08,9.5606 C178.08,8.4006 178.313,7.38729 178.78,6.52062 C179.26,5.65396 179.926,4.98729 180.78,4.52062 C181.633,4.05396 182.613,3.82062 183.72,3.82062 C184.8,3.82062 185.76,4.04729 186.6,4.50062 C187.44,4.95396 188.093,5.60062 188.56,6.44062 C189.04,7.28062 189.28,8.2606 189.28,9.3806 Z M185.78,8.4806 C185.78,7.89396 185.58,7.42729 185.18,7.08062 C184.78,6.73396 184.28,6.56062 183.68,6.56062 C183.106,6.56062 182.62,6.72729 182.22,7.06062 C181.833,7.39396 181.593,7.86729 181.5,8.4806 L185.78,8.4806 Z" id="Shape"></path>
                <path d="M7.2346,30.6726 C7.2346,30.9126 7.2186,31.1286 7.1866,31.3206 L2.3266,31.3206 C2.3666,31.8006 2.5346,32.1766 2.8306,32.4486 C3.1266,32.7206 3.4906,32.8566 3.9226,32.8566 C4.5466,32.8566 4.9906,32.5886 5.2546,32.0526 L7.0666,32.0526 C6.8746,32.6926 6.5066,33.2206 5.9626,33.6366 C5.4186,34.0446 4.7506,34.2486 3.9586,34.2486 C3.3186,34.2486 2.7426,34.1086 2.2306,33.8286 C1.7266,33.5406 1.3306,33.1366 1.0426,32.6166 C0.7626,32.0966 0.6226,31.4966 0.6226,30.8166 C0.6226,30.1286 0.7626,29.5246 1.0426,29.0046 C1.3226,28.4846 1.7146,28.0846 2.2186,27.8046 C2.7226,27.5246 3.3026,27.3846 3.9586,27.3846 C4.5906,27.3846 5.1546,27.5206 5.6506,27.7926 C6.1546,28.0646 6.5426,28.4526 6.8146,28.9566 C7.0946,29.4526 7.2346,30.0246 7.2346,30.6726 Z M5.4946,30.1926 C5.4866,29.7606 5.3306,29.4166 5.0266,29.1606 C4.7226,28.8966 4.3506,28.7646 3.9106,28.7646 C3.4946,28.7646 3.1426,28.8926 2.8546,29.1486 C2.5746,29.3966 2.4026,29.7446 2.3386,30.1926 L5.4946,30.1926 Z M12.9008,34.1406 L11.0528,30.8766 L10.2608,30.8766 L10.2608,34.1406 L8.5808,34.1406 L8.5808,25.7646 L11.7248,25.7646 C12.3728,25.7646 12.9248,25.8806 13.3808,26.1126 C13.8368,26.3366 14.1768,26.6446 14.4008,27.0366 C14.6328,27.4206 14.7488,27.8526 14.7488,28.3326 C14.7488,28.8846 14.5888,29.3846 14.2688,29.8326 C13.9488,30.2726 13.4728,30.5766 12.8408,30.7446 L14.8448,34.1406 L12.9008,34.1406 Z M10.2608,29.6166 L11.6648,29.6166 C12.1208,29.6166 12.4608,29.5086 12.6848,29.2926 C12.9088,29.0686 13.0208,28.7606 13.0208,28.3686 C13.0208,27.9846 12.9088,27.6886 12.6848,27.4806 C12.4608,27.2646 12.1208,27.1566 11.6648,27.1566 L10.2608,27.1566 L10.2608,29.6166 Z M19.2803,34.2246 C18.6963,34.2246 18.1683,34.1246 17.6963,33.9246 C17.2323,33.7246 16.8643,33.4366 16.5923,33.0606 C16.3203,32.6846 16.1803,32.2406 16.1723,31.7286 L17.9723,31.7286 C17.9963,32.0726 18.1163,32.3446 18.3323,32.5446 C18.5563,32.7446 18.8603,32.8446 19.2443,32.8446 C19.6363,32.8446 19.9443,32.7526 20.1683,32.5686 C20.3923,32.3766 20.5043,32.1286 20.5043,31.8246 C20.5043,31.5766 20.4283,31.3726 20.2763,31.2126 C20.1243,31.0526 19.9323,30.9286 19.7003,30.8406 C19.4763,30.7446 19.1643,30.6406 18.7643,30.5286 C18.2203,30.3686 17.7763,30.2126 17.4323,30.0606 C17.0963,29.9006 16.8043,29.6646 16.5563,29.3526 C16.3163,29.0326 16.1963,28.6086 16.1963,28.0806 C16.1963,27.5846 16.3203,27.1526 16.5683,26.7846 C16.8163,26.4166 17.1643,26.1366 17.6123,25.9446 C18.0603,25.7446 18.5723,25.6446 19.1483,25.6446 C20.0123,25.6446 20.7123,25.8566 21.2483,26.2806 C21.7923,26.6966 22.0923,27.2806 22.1483,28.0326 L20.3003,28.0326 C20.2843,27.7446 20.1603,27.5086 19.9283,27.3246 C19.7043,27.1326 19.4043,27.0366 19.0283,27.0366 C18.7003,27.0366 18.4363,27.1206 18.2363,27.2886 C18.0443,27.4566 17.9483,27.7006 17.9483,28.0206 C17.9483,28.2446 18.0203,28.4326 18.1643,28.5846 C18.3163,28.7286 18.5003,28.8486 18.7163,28.9446 C18.9403,29.0326 19.2523,29.1366 19.6523,29.2566 C20.1963,29.4166 20.6403,29.5766 20.9843,29.7366 C21.3283,29.8966 21.6243,30.1366 21.8723,30.4566 C22.1203,30.7766 22.2443,31.1966 22.2443,31.7166 C22.2443,32.1646 22.1283,32.5806 21.8963,32.9646 C21.6643,33.3486 21.3243,33.6566 20.8763,33.8886 C20.4283,34.1126 19.8963,34.2246 19.2803,34.2246 Z M26.7488,25.7646 C27.6288,25.7646 28.4008,25.9366 29.0648,26.2806 C29.7368,26.6246 30.2528,27.1166 30.6128,27.7566 C30.9808,28.3886 31.1648,29.1246 31.1648,29.9646 C31.1648,30.8046 30.9808,31.5406 30.6128,32.1726 C30.2528,32.7966 29.7368,33.2806 29.0648,33.6246 C28.4008,33.9686 27.6288,34.1406 26.7488,34.1406 L23.8208,34.1406 L23.8208,25.7646 L26.7488,25.7646 Z M26.6888,32.7126 C27.5688,32.7126 28.2488,32.4726 28.7288,31.9926 C29.2088,31.5126 29.4488,30.8366 29.4488,29.9646 C29.4488,29.0926 29.2088,28.4126 28.7288,27.9246 C28.2488,27.4286 27.5688,27.1806 26.6888,27.1806 L25.5008,27.1806 L25.5008,32.7126 L26.6888,32.7126 Z M34.222,32.8086 L36.982,32.8086 L36.982,34.1406 L32.5424,34.1406 L32.5424,25.7646 L34.222,25.7646 L34.222,32.8086 Z" id="Shape" opacity="0.4"></path>
            </g>
            <g id="path26">
                <path d="M51.5391,3.68453 C49.3677,1.22725 46.4361,-0.000263214 42.7418,-0.000263214 C40.5705,-0.000263214 38.6456,0.448383 36.9694,1.34342 C35.3229,2.22271 34.009,3.3673 33.0243,4.78033 L33.0243,0.285683 L32.9705,0.285683 L21.772,0.285683 L21.7674,0.285683 L21.7674,17.4824 C21.7674,19.312 21.2908,20.7489 20.34,21.7974 C19.3869,22.8458 18.0919,23.3689 16.4552,23.3689 C14.8557,23.3689 13.5701,22.8458 12.5983,21.7974 C11.6266,20.7489 11.1406,19.312 11.1406,17.4824 L11.1406,0.285683 L0,0.285683 L0,18.9122 C0,23.1388 1.07642,26.4818 3.2269,28.9392 C5.37974,31.3943 8.32295,32.624 12.0543,32.624 C14.2257,32.624 16.1506,32.1754 17.8269,31.2803 C19.5008,30.3876 20.8166,29.2159 21.7674,27.7675 L21.7674,32.3381 L21.772,32.3381 L32.9705,32.3381 L33.0243,32.3381 L33.0243,14.1265 C33.1727,12.7721 33.6311,11.6726 34.4004,10.8264 C35.3513,9.78028 36.6648,9.2548 38.3409,9.2548 C39.9405,9.2548 41.2168,9.78028 42.17,10.8264 C43.1208,11.875 43.5975,13.3117 43.5975,15.1413 L43.5975,32.3381 L54.7961,32.3381 L54.7961,13.6558 C54.7961,9.46639 53.7104,6.14191 51.5391,3.68453 Z" id="Path"></path>
            </g>
        </g>
    </g>
</svg>