<svg width="252" height="141" viewBox="0 0 252 141" fill="none" xmlns="http://www.w3.org/2000/svg">
<path d="M15 100V115.689H10.938V113.825C10.469 114.447 9.68733 115.068 8.90656 115.379C8.12489 115.689 7.18778 116 6.24978 116C5 116 3.90656 115.689 2.96855 115.223C2.03144 114.757 1.24978 113.981 0.781669 112.893C0.156334 111.806 0 110.563 0 109.165V100H4.06289V108.699C4.06289 109.942 4.37467 110.874 5 111.65C5.62534 112.272 6.56245 112.583 7.50045 112.583C8.59389 112.583 9.531 112.272 10.1563 111.65C10.7817 111.029 11.0943 109.942 11.0943 108.699V100H15Z" fill="white"/>
<path d="M31.2989 101.618C32.382 102.794 33 104.265 33 106.324V115H28.9799V106.765C28.9799 105.588 28.6705 104.706 28.0516 103.971C27.4336 103.382 26.5052 103.088 25.5778 103.088C24.4948 103.088 23.5673 103.382 22.9484 103.971C22.3304 104.559 22.021 105.588 22.021 106.765V115H18V100.147H22.021V102.059C22.4843 101.471 23.2579 100.882 24.0315 100.588C24.8042 100.294 25.7325 100 26.66 100C28.5157 100 30.0621 100.441 31.2989 101.618Z" fill="white"/>
<path d="M49 96V99.2813H40.9496V104.437H47.1772V107.563H40.9496V116H37V96H49Z" fill="white"/>
<path d="M65.7028 109.165H54.7131C54.8617 110.252 55.158 111.184 55.9009 111.806C56.643 112.427 57.386 112.738 58.4253 112.738C59.9103 112.738 60.8019 112.116 61.3962 110.874H65.5542C65.1085 112.427 64.2178 113.67 63.0299 114.602C61.8412 115.534 60.3561 116 58.4253 116C56.9402 116 55.7523 115.689 54.5645 115.068C53.3757 114.447 52.4851 113.515 51.8907 112.272C51.2972 111.029 51 109.631 51 108.078C51 106.524 51.2972 104.971 51.8907 103.728C52.4851 102.485 53.3757 101.553 54.5645 100.932C55.7523 100.311 57.0888 100 58.5739 100C60.0589 100 61.2477 100.311 62.4355 100.932C63.6234 101.553 64.5149 102.485 65.1085 103.728C65.7028 104.971 66 106.214 66 107.767C65.8514 108.233 65.8514 108.699 65.7028 109.165ZM61.9898 106.524C61.9898 105.437 61.6926 104.66 60.9505 104.039C60.2075 103.417 59.4654 103.107 58.4253 103.107C57.5346 103.107 56.643 103.417 56.0495 104.039C55.4552 104.66 55.0094 105.437 54.8617 106.524H61.9898Z" fill="white"/>
<path d="M68.7984 103.737C69.4068 102.511 70.3184 101.591 71.3831 100.978C72.4469 100.365 73.6628 100.058 75.0308 100.058C76.0954 100.058 77.0071 100.212 77.9197 100.672C78.8314 101.131 79.5919 101.745 80.0482 102.358V95H84V115.693H80.0482V113.394C79.5919 114.161 78.8314 114.774 78.0718 115.234C77.3113 115.693 76.2475 116 75.0308 116C73.6628 116 72.599 115.693 71.5352 114.927C70.4705 114.314 69.5588 113.241 68.9505 112.015C68.3421 110.788 68.0388 109.409 68.0388 107.723C67.8867 106.343 68.1909 104.963 68.7984 103.737ZM79.4398 105.577C79.1356 104.963 78.5272 104.35 77.9197 104.044C77.3113 103.737 76.5517 103.431 75.9433 103.431C75.335 103.431 74.5753 103.584 73.967 103.891C73.3586 104.197 72.9032 104.81 72.4469 105.423C72.1427 106.037 71.8385 106.956 71.8385 107.876C71.8385 108.796 71.9906 109.562 72.4469 110.329C72.7511 111.095 73.3586 111.555 73.967 112.015C74.5753 112.321 75.1829 112.628 75.9433 112.628C76.7038 112.628 77.3113 112.474 77.9197 112.015C78.5272 111.708 78.9835 111.095 79.4398 110.482C79.744 109.869 80.0482 108.949 80.0482 108.029C80.0482 106.956 79.8961 106.19 79.4398 105.577Z" fill="white"/>
<path d="M101.704 109.165H90.7131C90.8617 110.252 91.1588 111.184 91.9018 111.806C92.6439 112.427 93.3868 112.738 94.4261 112.738C95.9112 112.738 96.8027 112.116 97.3962 110.874H101.555C101.109 112.427 100.218 113.67 99.0299 114.602C97.842 115.534 96.357 116 94.4261 116C92.9411 116 91.7532 115.689 90.5645 115.068C89.3766 114.447 88.4859 113.515 87.8915 112.272C87.2972 111.029 87 109.631 87 108.078C87 106.524 87.2972 104.971 87.8915 103.728C88.4859 102.485 89.3766 101.553 90.5645 100.932C91.7532 100.311 93.0897 100 94.5747 100C96.0598 100 97.2477 100.311 98.4364 100.932C99.6243 101.553 100.515 102.485 101.109 103.728C101.704 104.971 102 106.214 102 107.767C101.851 108.233 101.851 108.699 101.704 109.165ZM97.842 106.524C97.842 105.437 97.5448 104.66 96.8027 104.039C96.0598 103.417 95.3168 103.107 94.2775 103.107C93.3868 103.107 92.4953 103.417 91.9018 104.039C91.3074 104.66 90.8617 105.437 90.7131 106.524H97.842Z" fill="white"/>
<path d="M110.473 100.728C111.175 100.291 112.017 100 113 100V103.932H112.017C110.894 103.932 110.053 104.223 109.491 104.806C108.929 105.388 108.649 106.262 108.649 107.718V115H105V100.291H108.649V102.621C109.07 101.748 109.772 101.165 110.473 100.728Z" fill="white"/>
<path d="M115.905 103.623C116.509 102.415 117.415 101.509 118.472 100.906C119.528 100.302 120.736 100 121.944 100C123.151 100 124.056 100.302 124.962 100.755C125.868 101.207 126.472 101.811 127.075 102.566V100.453H131V115.698H127.075V113.434C126.623 114.189 125.868 114.792 124.962 115.245C124.056 115.698 123.151 116 121.944 116C120.584 116 119.528 115.698 118.472 114.943C117.415 114.34 116.509 113.283 115.905 112.075C115.301 110.868 115 109.509 115 107.849C115 106.189 115.301 104.83 115.905 103.623ZM126.472 105.434C126.17 104.83 125.566 104.226 124.962 103.924C124.358 103.623 123.604 103.321 123 103.321C122.245 103.321 121.642 103.472 121.038 103.774C120.433 104.075 119.981 104.679 119.528 105.283C119.075 105.887 118.924 106.792 118.924 107.698C118.924 108.604 119.075 109.359 119.528 110.113C119.83 110.868 120.433 111.321 121.038 111.774C121.642 112.075 122.245 112.377 123 112.377C123.754 112.377 124.358 112.226 124.962 111.774C125.566 111.472 126.019 110.868 126.472 110.264C126.774 109.66 127.075 108.755 127.075 107.849C127.075 106.792 126.774 106.038 126.472 105.434Z" fill="white"/>
<path d="M139 95V115H135V95H139Z" fill="white"/>
<path d="M152.312 115.844L147.938 108.031H146.063V115.844H142V96H149.5C151.062 96 152.312 96.3125 153.406 96.7812C154.5 97.25 155.281 98.0312 155.906 98.9688C156.375 99.9062 156.687 101 156.687 102.094C156.687 103.344 156.375 104.594 155.593 105.688C154.812 106.781 153.718 107.406 152.156 107.875L157 116H152.312V115.844ZM146.063 105.062H149.344C150.437 105.062 151.219 104.75 151.844 104.281C152.312 103.813 152.625 103.031 152.625 102.094C152.625 101.156 152.312 100.531 151.844 99.9062C151.375 99.2813 150.437 99.125 149.344 99.125H146.063V105.062Z" fill="white"/>
<path d="M174.683 109.165H162.961C163.119 110.252 163.436 111.184 164.228 111.806C165.02 112.427 165.812 112.738 166.921 112.738C168.505 112.738 169.455 112.116 170.089 110.874H174.525C174.05 112.427 173.099 113.67 171.832 114.602C170.565 115.534 168.98 116 166.921 116C165.336 116 164.069 115.689 162.802 115.068C161.535 114.447 160.584 113.515 159.951 112.272C159.317 111.029 159 109.631 159 108.078C159 106.524 159.317 104.971 159.951 103.728C160.584 102.485 161.535 101.553 162.802 100.932C164.069 100.311 165.495 100 167.079 100C168.664 100 169.931 100.311 171.198 100.932C172.465 101.553 173.416 102.485 174.049 103.728C174.683 104.971 175 106.214 175 107.767C174.842 108.233 174.683 108.699 174.683 109.165ZM170.564 106.524C170.564 105.437 170.248 104.66 169.455 104.039C168.664 103.417 167.871 103.107 166.763 103.107C165.812 103.107 164.862 103.417 164.228 104.039C163.594 104.66 163.119 105.437 162.961 106.524H170.564Z" fill="white"/>
<path d="M180.143 115.077C179.143 114.615 178.429 114 177.857 113.231C177.286 112.462 177 111.538 177 110.615H180.715C180.715 111.231 181 111.692 181.571 112.154C182 112.615 182.714 112.769 183.429 112.769C184.143 112.769 184.714 112.615 185 112.308C185.429 112 185.571 111.692 185.571 111.231C185.571 110.769 185.286 110.308 184.857 110.154C184.429 109.846 183.572 109.692 182.571 109.385C181.429 109.077 180.572 108.769 179.857 108.462C179.143 108.154 178.571 107.692 178.143 107.077C177.714 106.462 177.429 105.692 177.429 104.615C177.429 103.692 177.714 102.923 178.143 102.308C178.571 101.692 179.285 101.077 180.143 100.615C181 100.154 182 100 183.143 100C184.857 100 186.286 100.462 187.286 101.385C188.286 102.308 188.857 103.538 189 105.077H185.286C185.286 104.462 185 104 184.571 103.538C184.143 103.231 183.572 102.923 182.857 102.923C182.143 102.923 181.714 103.077 181.286 103.385C181 103.692 180.715 104 180.715 104.462C180.715 104.923 181 105.385 181.429 105.692C181.857 106 182.714 106.308 183.715 106.462C184.714 106.769 185.571 107.077 186.286 107.385C187.001 107.692 187.571 108.154 188 108.769C188.429 109.385 188.714 110.154 188.714 111.231C188.714 112.154 188.429 112.923 188 113.692C187.571 114.462 186.858 114.923 186 115.385C185.143 115.846 184.143 116 183 116C182.143 115.846 181 115.538 180.143 115.077Z" fill="white"/>
<path d="M206.703 109.165H195.713C195.862 110.252 196.158 111.184 196.901 111.806C197.643 112.427 198.386 112.738 199.425 112.738C200.91 112.738 201.802 112.116 202.396 110.874H206.554C206.108 112.427 205.218 113.67 204.03 114.602C202.841 115.534 201.356 116 199.425 116C197.94 116 196.752 115.689 195.564 115.068C194.376 114.447 193.485 113.515 192.891 112.272C192.297 111.029 192 109.631 192 108.078C192 106.524 192.297 104.971 192.891 103.728C193.485 102.485 194.376 101.553 195.564 100.932C196.752 100.311 198.089 100 199.574 100C201.059 100 202.248 100.311 203.436 100.932C204.623 101.553 205.515 102.485 206.108 103.728C206.703 104.971 207 106.214 207 107.767C206.851 108.233 206.851 108.699 206.703 109.165ZM202.841 106.524C202.841 105.437 202.544 104.66 201.802 104.039C201.059 103.417 200.317 103.107 199.277 103.107C198.386 103.107 197.495 103.417 196.901 104.039C196.307 104.66 195.862 105.437 195.713 106.524H202.841Z" fill="white"/>
<path d="M215.429 100.728C216.143 100.291 217 100 218 100V103.932H217.143C216 103.932 215.143 104.223 214.571 104.806C214 105.388 213.715 106.262 213.715 107.718V115H210V100.291H213.715V102.621C214.143 101.748 214.714 101.165 215.429 100.728Z" fill="white"/>
<path d="M227 111.584L230.924 100H235L229.415 115H224.585L219 100H223.076L227 111.584Z" fill="white"/>
<path d="M251.703 109.165H240.713C240.862 110.252 241.159 111.184 241.901 111.806C242.644 112.427 243.386 112.738 244.426 112.738C245.911 112.738 246.802 112.116 247.396 110.874H251.554C251.109 112.427 250.218 113.67 249.03 114.602C247.842 115.534 246.357 116 244.426 116C242.941 116 241.752 115.689 240.564 115.068C239.377 114.447 238.485 113.515 237.892 112.272C237.297 111.029 237 109.631 237 108.078C237 106.524 237.297 104.971 237.892 103.728C238.485 102.485 239.377 101.553 240.564 100.932C241.752 100.311 243.09 100 244.575 100C246.06 100 247.248 100.311 248.436 100.932C249.624 101.553 250.515 102.485 251.109 103.728C251.703 104.971 252 106.214 252 107.767C251.851 108.233 251.851 108.699 251.703 109.165ZM247.991 106.524C247.991 105.437 247.693 104.66 246.95 104.039C246.208 103.417 245.465 103.107 244.426 103.107C243.535 103.107 242.644 103.417 242.05 104.039C241.456 104.66 241.01 105.437 240.862 106.524H247.991Z" fill="white"/>
<path d="M185.048 8.57928C179.747 2.76753 172.679 0 163.549 0C158.248 0 153.536 1.10701 149.413 3.04428C145.29 4.98159 142.051 7.74909 139.695 11.0701V0.553501H112.305V40.1292C112.305 44.2804 111.127 47.6015 108.771 50.0922C106.415 52.5831 103.176 53.6901 99.3473 53.6901C95.5186 53.6901 92.2792 52.5831 89.9231 50.0922C87.5671 47.6015 86.389 44.2804 86.389 40.1292V0.553501H59V43.4502C59 53.1365 61.6505 60.8856 66.9516 66.4207C72.2527 71.9557 79.3208 75 88.4506 75C93.7516 75 98.4637 73.893 102.587 71.9557C106.71 70.0184 109.949 67.2509 112.305 63.9299V74.4464H139.695V32.3801C139.989 29.3358 141.167 26.845 142.934 24.9078C145.29 22.4169 148.53 21.31 152.653 21.31C156.481 21.31 159.721 22.4169 162.077 24.9078C164.433 27.3985 165.611 30.7196 165.611 34.8708V74.4464H193V31.2731C193 21.8635 190.349 14.1144 185.048 8.57928Z" fill="white"/>
<path d="M108.705 135.337C108.705 135.688 108.681 136.003 108.634 136.283H101.501C101.56 136.983 101.807 137.532 102.241 137.929C102.675 138.326 103.21 138.524 103.844 138.524C104.76 138.524 105.411 138.133 105.799 137.351H108.458C108.177 138.285 107.637 139.056 106.838 139.663C106.039 140.258 105.059 140.556 103.896 140.556C102.957 140.556 102.111 140.352 101.36 139.943C100.62 139.523 100.039 138.933 99.6165 138.174C99.2052 137.415 99 136.54 99 135.548C99 134.543 99.2052 133.662 99.6165 132.903C100.028 132.144 100.603 131.561 101.343 131.152C102.082 130.743 102.934 130.539 103.896 130.539C104.824 130.539 105.652 130.738 106.38 131.135C107.12 131.531 107.69 132.098 108.088 132.833C108.5 133.557 108.705 134.392 108.705 135.337ZM106.151 134.637C106.14 134.006 105.911 133.505 105.464 133.131C105.018 132.746 104.472 132.553 103.826 132.553C103.216 132.553 102.699 132.74 102.276 133.113C101.865 133.475 101.613 133.983 101.519 134.637H106.151Z" fill="#B7C0DB"/>
<path d="M117.022 140.398L114.309 135.635H113.147V140.398H110.681V128.175H115.296C116.247 128.175 117.057 128.344 117.726 128.683C118.396 129.01 118.894 129.459 119.224 130.031C119.564 130.592 119.734 131.222 119.734 131.923C119.734 132.728 119.499 133.458 119.03 134.111C118.56 134.754 117.861 135.197 116.934 135.442L119.875 140.398H117.022ZM113.147 133.796H115.208C115.877 133.796 116.376 133.639 116.705 133.323C117.033 132.997 117.198 132.547 117.198 131.975C117.198 131.415 117.033 130.983 116.705 130.679C116.376 130.364 115.877 130.206 115.208 130.206H113.147V133.796Z" fill="#B7C0DB"/>
<path d="M126.385 140.521C125.528 140.521 124.753 140.375 124.06 140.083C123.379 139.791 122.84 139.371 122.44 138.822C122.041 138.273 121.836 137.626 121.823 136.878H124.465C124.501 137.38 124.677 137.777 124.994 138.069C125.323 138.361 125.769 138.507 126.332 138.507C126.908 138.507 127.36 138.373 127.689 138.104C128.018 137.824 128.182 137.462 128.182 137.018C128.182 136.657 128.071 136.359 127.847 136.125C127.624 135.892 127.342 135.711 127.002 135.583C126.673 135.442 126.215 135.291 125.628 135.127C124.83 134.894 124.178 134.666 123.673 134.444C123.18 134.211 122.752 133.866 122.387 133.411C122.035 132.944 121.859 132.325 121.859 131.555C121.859 130.831 122.041 130.201 122.405 129.664C122.769 129.127 123.28 128.718 123.937 128.438C124.595 128.146 125.346 128 126.191 128C127.46 128 128.487 128.309 129.274 128.928C130.072 129.535 130.513 130.387 130.595 131.485H127.882C127.859 131.065 127.677 130.72 127.336 130.452C127.008 130.171 126.567 130.031 126.015 130.031C125.534 130.031 125.147 130.154 124.853 130.399C124.571 130.644 124.43 131 124.43 131.467C124.43 131.794 124.536 132.069 124.747 132.29C124.971 132.5 125.24 132.676 125.557 132.816C125.887 132.944 126.345 133.096 126.931 133.271C127.73 133.505 128.382 133.738 128.886 133.971C129.392 134.205 129.826 134.555 130.19 135.022C130.554 135.489 130.736 136.102 130.736 136.861C130.736 137.515 130.566 138.122 130.225 138.682C129.885 139.242 129.386 139.692 128.728 140.03C128.071 140.357 127.29 140.521 126.385 140.521Z" fill="#B7C0DB"/>
<path d="M137.348 128.175C138.639 128.175 139.772 128.426 140.747 128.928C141.733 129.43 142.491 130.148 143.019 131.082C143.559 132.004 143.829 133.078 143.829 134.304C143.829 135.53 143.559 136.604 143.019 137.526C142.491 138.437 141.733 139.143 140.747 139.645C139.772 140.147 138.639 140.398 137.348 140.398H133.05V128.175H137.348ZM137.26 138.314C138.551 138.314 139.549 137.964 140.254 137.264C140.958 136.563 141.311 135.577 141.311 134.304C141.311 133.032 140.958 132.039 140.254 131.327C139.549 130.603 138.551 130.241 137.26 130.241H135.516V138.314H137.26Z" fill="#B7C0DB"/>
<path d="M148.317 138.454H152.368V140.398H145.851V128.175H148.317V138.454Z" fill="#B7C0DB"/>
</svg>
