<svg width="308" height="53" viewBox="0 0 308 53" fill="none" xmlns="http://www.w3.org/2000/svg">
<path d="M68.5157 10.2675C65.821 7.30138 62.2282 5.88892 57.5873 5.88892C54.8926 5.88892 52.4974 6.4539 50.4015 7.44263C48.3057 8.43137 46.6589 9.84382 45.4613 11.5388V6.17141H31.5388V26.3697C31.5388 28.4883 30.9399 30.1833 29.7423 31.4545C28.5447 32.7258 26.898 33.2907 24.9518 33.2907C23.0056 33.2907 21.3589 32.7258 20.1613 31.4545C18.9636 30.1833 18.3648 28.4883 18.3648 26.3697V6.17141H4.44232V28.0646C4.44232 33.0082 5.78966 36.9631 8.4843 39.7881C11.179 42.613 14.7719 44.1667 19.4128 44.1667C22.1074 44.1667 24.5027 43.6017 26.5986 42.613C28.6944 41.6242 30.3411 40.2118 31.5388 38.5168V43.8842H45.4613V22.4148C45.611 20.861 46.2098 19.5898 47.108 18.6011C48.3057 17.3298 49.9524 16.7649 52.0482 16.7649C53.9944 16.7649 55.6412 17.3298 56.8388 18.6011C58.0364 19.8723 58.6352 21.5673 58.6352 23.6859V43.8842H72.5577V21.8498C72.5577 17.0474 71.2104 13.0925 68.5157 10.2675Z" fill="white"/>
<path d="M99.7972 10.2664V23.2704H96.4307V21.7253C96.042 22.2404 95.3941 22.7554 94.747 23.0129C94.0992 23.2704 93.3225 23.5279 92.5451 23.5279C91.5093 23.5279 90.6031 23.2704 89.8257 22.8841C89.049 22.4979 88.4012 21.8541 88.0132 20.9528C87.495 20.0516 87.3654 19.0215 87.3654 17.8628V10.2664H90.7327V17.4765C90.7327 18.5065 90.9911 19.2791 91.5093 19.9228C92.0276 20.4379 92.8043 20.6954 93.5817 20.6954C94.4879 20.6954 95.2646 20.4379 95.7828 19.9228C96.3011 19.4078 96.5602 18.5065 96.5602 17.4765V10.2664H99.7972Z" fill="white"/>
<path d="M114.172 11.554C115.079 12.584 115.596 13.8715 115.596 15.6741V23.2704H112.23V16.0603C112.23 15.0303 111.971 14.2578 111.452 13.614C110.935 13.099 110.157 12.8415 109.381 12.8415C108.474 12.8415 107.697 13.099 107.179 13.614C106.661 14.129 106.402 15.0303 106.402 16.0603V23.2704H103.035V10.2664H106.402V11.9402C106.79 11.4252 107.438 10.9102 108.086 10.6527C108.733 10.3952 109.51 10.1377 110.287 10.1377C111.841 10.1377 113.136 10.5239 114.172 11.554Z" fill="white"/>
<path d="M128.935 6.91895V9.62276H122.072V13.8716H127.381V16.4467H122.072V23.3993H118.704V6.91895H128.935Z" fill="white"/>
<path d="M143.31 17.7341H133.727C133.856 18.6354 134.115 19.4079 134.763 19.9229C135.41 20.4379 136.058 20.6954 136.964 20.6954C138.259 20.6954 139.036 20.1804 139.554 19.1503H143.18C142.791 20.4379 142.015 21.4679 140.979 22.2405C139.942 23.0129 138.647 23.3993 136.964 23.3993C135.669 23.3993 134.633 23.1417 133.597 22.6267C132.561 22.1117 131.784 21.3392 131.266 20.3091C130.748 19.2791 130.489 18.1204 130.489 16.8328C130.489 15.5453 130.748 14.2578 131.266 13.2277C131.784 12.1977 132.561 11.4252 133.597 10.9102C134.633 10.3952 135.798 10.1377 137.093 10.1377C138.388 10.1377 139.425 10.3952 140.461 10.9102C141.496 11.4252 142.274 12.1977 142.791 13.2277C143.31 14.2578 143.569 15.2878 143.569 16.5753C143.439 16.9616 143.439 17.3478 143.31 17.7341ZM140.072 15.5453C140.072 14.644 139.813 14.0003 139.166 13.4852C138.518 12.9703 137.871 12.7128 136.964 12.7128C136.187 12.7128 135.41 12.9703 134.892 13.4852C134.374 14.0003 133.985 14.644 133.856 15.5453H140.072Z" fill="white"/>
<path d="M145.77 13.2278C146.288 12.1978 147.065 11.4253 147.972 10.9103C148.878 10.3952 149.914 10.1377 151.079 10.1377C151.986 10.1377 152.763 10.2665 153.54 10.6528C154.317 11.039 154.965 11.554 155.353 12.0691V5.88892H158.72V23.2706H155.353V21.3392C154.965 21.983 154.317 22.498 153.67 22.8843C153.022 23.2706 152.116 23.5281 151.079 23.5281C149.914 23.5281 149.008 23.2706 148.101 22.6268C147.194 22.1118 146.418 21.2105 145.899 20.1805C145.381 19.1505 145.123 17.9917 145.123 16.5754C144.993 15.4166 145.252 14.2578 145.77 13.2278ZM154.835 14.7729C154.576 14.2578 154.058 13.7429 153.54 13.4854C153.022 13.2278 152.375 12.9703 151.857 12.9703C151.338 12.9703 150.691 13.0991 150.173 13.3566C149.655 13.6141 149.267 14.1291 148.878 14.6441C148.619 15.1591 148.36 15.9316 148.36 16.7042C148.36 17.4767 148.489 18.1204 148.878 18.7642C149.137 19.408 149.655 19.7942 150.173 20.1805C150.691 20.438 151.209 20.6955 151.857 20.6955C152.504 20.6955 153.022 20.5668 153.54 20.1805C154.058 19.9229 154.446 19.408 154.835 18.893C155.094 18.3779 155.353 17.6055 155.353 16.8329C155.353 15.9316 155.224 15.2879 154.835 14.7729Z" fill="white"/>
<path d="M174.001 17.7341H164.418C164.548 18.6354 164.807 19.4079 165.454 19.9229C166.102 20.4379 166.749 20.6954 167.656 20.6954C168.951 20.6954 169.728 20.1804 170.246 19.1503H173.872C173.483 20.4379 172.706 21.4679 171.67 22.2405C170.634 23.0129 169.339 23.3993 167.656 23.3993C166.361 23.3993 165.325 23.1417 164.288 22.6267C163.253 22.1117 162.476 21.3392 161.958 20.3091C161.439 19.2791 161.18 18.1204 161.18 16.8328C161.18 15.5453 161.439 14.2578 161.958 13.2277C162.476 12.1977 163.253 11.4252 164.288 10.9102C165.325 10.3952 166.49 10.1377 167.785 10.1377C169.08 10.1377 170.116 10.3952 171.152 10.9102C172.188 11.4252 172.965 12.1977 173.483 13.2277C174.001 14.2578 174.26 15.2878 174.26 16.5753C174.13 16.9616 174.13 17.3478 174.001 17.7341ZM170.634 15.5453C170.634 14.644 170.375 14.0003 169.728 13.4852C169.08 12.9703 168.432 12.7128 167.526 12.7128C166.749 12.7128 165.972 12.9703 165.454 13.4852C164.936 14.0003 164.548 14.644 164.418 15.5453H170.634Z" fill="white"/>
<path d="M181.512 10.6528C182.16 10.2665 182.936 10.009 183.843 10.009V13.4853H182.936C181.901 13.4853 181.124 13.7428 180.606 14.2579C180.087 14.7728 179.828 15.5454 179.828 16.8329V23.2706H176.462V10.2665H179.828V12.3265C180.217 11.5541 180.865 11.039 181.512 10.6528Z" fill="white"/>
<path d="M186.045 13.2277C186.563 12.1977 187.34 11.4252 188.247 10.9102C189.153 10.3952 190.189 10.1377 191.225 10.1377C192.261 10.1377 193.038 10.3952 193.815 10.7814C194.592 11.1677 195.11 11.6827 195.627 12.3264V10.5239H198.995V23.528H195.627V21.5967C195.239 22.2405 194.592 22.7554 193.815 23.1417C193.038 23.528 192.261 23.7855 191.225 23.7855C190.059 23.7855 189.153 23.528 188.247 22.8842C187.34 22.3692 186.563 21.4679 186.045 20.4379C185.526 19.4079 185.268 18.2491 185.268 16.8328C185.268 15.4166 185.526 14.2578 186.045 13.2277ZM195.11 14.7728C194.851 14.2578 194.332 13.7427 193.815 13.4852C193.297 13.2277 192.65 12.9703 192.131 12.9703C191.483 12.9703 190.966 13.099 190.448 13.3565C189.929 13.614 189.541 14.129 189.153 14.644C188.764 15.159 188.634 15.9316 188.634 16.7041C188.634 17.4766 188.764 18.1204 189.153 18.7641C189.412 19.4079 189.929 19.7941 190.448 20.1804C190.966 20.4379 191.483 20.6954 192.131 20.6954C192.778 20.6954 193.297 20.5666 193.815 20.1804C194.332 19.9229 194.721 19.4079 195.11 18.8929C195.369 18.3779 195.627 17.6053 195.627 16.8328C195.627 15.9316 195.369 15.2878 195.11 14.7728Z" fill="white"/>
<path d="M205.469 5.88892V23.2706H202.103V5.88892H205.469Z" fill="white"/>
<path d="M217.254 23.2706L213.628 16.8329H212.074V23.2706H208.707V6.91895H214.923C216.218 6.91895 217.254 7.17645 218.161 7.56268C219.067 7.94899 219.715 8.59272 220.233 9.36527C220.621 10.1377 220.88 11.039 220.88 11.9403C220.88 12.9703 220.621 14.0003 219.973 14.9016C219.326 15.8029 218.419 16.3179 217.124 16.7042L221.14 23.3993H217.254V23.2706ZM212.074 14.3866H214.794C215.7 14.3866 216.348 14.1291 216.866 13.7428C217.254 13.3566 217.513 12.7128 217.513 11.9403C217.513 11.1678 217.254 10.6528 216.866 10.1377C216.477 9.62276 215.7 9.49402 214.794 9.49402H212.074V14.3866Z" fill="white"/>
<path d="M236.032 17.7341H226.449C226.578 18.6354 226.838 19.4079 227.485 19.9229C228.133 20.4379 228.78 20.6954 229.687 20.6954C230.982 20.6954 231.758 20.1804 232.276 19.1503H235.902C235.514 20.4379 234.737 21.4679 233.701 22.2405C232.665 23.0129 231.369 23.3993 229.687 23.3993C228.391 23.3993 227.355 23.1417 226.319 22.6267C225.284 22.1117 224.506 21.3392 223.989 20.3091C223.47 19.2791 223.211 18.1204 223.211 16.8328C223.211 15.5453 223.47 14.2578 223.989 13.2277C224.506 12.1977 225.284 11.4252 226.319 10.9102C227.355 10.3952 228.52 10.1377 229.815 10.1377C231.111 10.1377 232.147 10.3952 233.183 10.9102C234.218 11.4252 234.996 12.1977 235.513 13.2277C236.032 14.2578 236.291 15.2878 236.291 16.5753C236.161 16.9616 236.032 17.3478 236.032 17.7341ZM232.664 15.5453C232.664 14.644 232.406 14.0003 231.758 13.4852C231.111 12.9703 230.463 12.7128 229.557 12.7128C228.78 12.7128 228.003 12.9703 227.485 13.4852C226.966 14.0003 226.578 14.644 226.449 15.5453H232.664Z" fill="white"/>
<path d="M240.694 22.8841C239.788 22.4979 239.14 21.9829 238.622 21.3391C238.104 20.6954 237.845 19.9228 237.845 19.1503H241.212C241.212 19.6653 241.471 20.0516 241.989 20.4379C242.377 20.8241 243.025 20.9529 243.672 20.9529C244.32 20.9529 244.838 20.8241 245.097 20.5666C245.486 20.309 245.614 20.0516 245.614 19.6653C245.614 19.2791 245.356 18.8928 244.967 18.764C244.579 18.5065 243.802 18.3778 242.895 18.1203C241.859 17.8628 241.083 17.6052 240.435 17.3477C239.788 17.0903 239.269 16.704 238.881 16.189C238.492 15.674 238.234 15.0302 238.234 14.129C238.234 13.3564 238.492 12.7127 238.881 12.1976C239.269 11.6826 239.916 11.1677 240.694 10.7813C241.471 10.3951 242.377 10.2664 243.413 10.2664C244.967 10.2664 246.262 10.6526 247.169 11.4251C248.075 12.1976 248.593 13.2277 248.723 14.5152H245.356C245.356 14.0002 245.097 13.6139 244.708 13.2277C244.32 12.9702 243.802 12.7127 243.154 12.7127C242.507 12.7127 242.118 12.8414 241.73 13.0989C241.471 13.3564 241.212 13.6139 241.212 14.0002C241.212 14.3864 241.471 14.7727 241.859 15.0302C242.248 15.2877 243.025 15.5452 243.932 15.674C244.838 15.9315 245.614 16.189 246.262 16.4465C246.91 16.704 247.428 17.0903 247.816 17.6052C248.205 18.1203 248.463 18.764 248.463 19.6653C248.463 20.4379 248.205 21.0816 247.816 21.7253C247.428 22.3691 246.781 22.7554 246.003 23.1417C245.226 23.5279 244.32 23.6567 243.284 23.6567C242.507 23.5279 241.471 23.2704 240.694 22.8841Z" fill="white"/>
<path d="M263.486 17.7341H253.903C254.033 18.6354 254.291 19.4079 254.939 19.9229C255.586 20.4379 256.234 20.6954 257.14 20.6954C258.435 20.6954 259.212 20.1804 259.731 19.1503H263.356C262.968 20.4379 262.191 21.4679 261.155 22.2405C260.119 23.0129 258.824 23.3993 257.14 23.3993C255.845 23.3993 254.809 23.1417 253.773 22.6267C252.737 22.1117 251.96 21.3392 251.442 20.3091C250.924 19.2791 250.665 18.1204 250.665 16.8328C250.665 15.5453 250.924 14.2578 251.442 13.2277C251.96 12.1977 252.737 11.4252 253.773 10.9102C254.809 10.3952 255.975 10.1377 257.27 10.1377C258.565 10.1377 259.601 10.3952 260.637 10.9102C261.673 11.4252 262.45 12.1977 262.968 13.2277C263.486 14.2578 263.745 15.2878 263.745 16.5753C263.615 16.9616 263.615 17.3478 263.486 17.7341ZM260.119 15.5453C260.119 14.644 259.859 14.0003 259.212 13.4852C258.565 12.9703 257.917 12.7128 257.01 12.7128C256.234 12.7128 255.457 12.9703 254.939 13.4852C254.421 14.0003 254.033 14.644 253.903 15.5453H260.119Z" fill="white"/>
<path d="M270.997 10.6528C271.644 10.2665 272.422 10.009 273.328 10.009V13.4853H272.551C271.515 13.4853 270.738 13.7428 270.22 14.2579C269.702 14.7728 269.443 15.5454 269.443 16.8329V23.2706H266.076V10.2665H269.443V12.3265C269.832 11.5541 270.349 11.039 270.997 10.6528Z" fill="white"/>
<path d="M281.098 20.309L284.465 10.2664H287.961L283.17 23.2704H279.026L274.234 10.2664H277.731L281.098 20.309Z" fill="white"/>
<path d="M301.818 17.7341H292.235C292.365 18.6354 292.624 19.4079 293.271 19.9229C293.919 20.4379 294.566 20.6954 295.473 20.6954C296.768 20.6954 297.544 20.1804 298.063 19.1503H301.688C301.3 20.4379 300.523 21.4679 299.487 22.2405C298.451 23.0129 297.156 23.3993 295.473 23.3993C294.178 23.3993 293.141 23.1417 292.105 22.6267C291.07 22.1117 290.292 21.3392 289.775 20.3091C289.256 19.2791 288.997 18.1204 288.997 16.8328C288.997 15.5453 289.256 14.2578 289.775 13.2277C290.292 12.1977 291.07 11.4252 292.105 10.9102C293.141 10.3952 294.307 10.1377 295.602 10.1377C296.897 10.1377 297.933 10.3952 298.969 10.9102C300.005 11.4252 300.782 12.1977 301.3 13.2277C301.818 14.2578 302.077 15.2878 302.077 16.5753C301.947 16.9616 301.947 17.3478 301.818 17.7341ZM298.581 15.5453C298.581 14.644 298.322 14.0003 297.674 13.4852C297.027 12.9703 296.379 12.7128 295.473 12.7128C294.695 12.7128 293.919 12.9703 293.4 13.4852C292.883 14.0003 292.494 14.644 292.365 15.5453H298.581Z" fill="white"/>
<path d="M97.0052 40.0297C97.0052 40.3242 96.9852 40.5892 96.946 40.8247H90.9489C90.9985 41.4136 91.2058 41.8749 91.5708 42.2086C91.9358 42.5423 92.3852 42.7092 92.9183 42.7092C93.6883 42.7092 94.2362 42.3804 94.5619 41.7228H96.7979C96.561 42.508 96.1071 43.1558 95.4356 43.6661C94.7641 44.1667 93.94 44.417 92.9627 44.417C92.1727 44.417 91.4619 44.2452 90.8304 43.9017C90.2085 43.5483 89.7198 43.0527 89.3644 42.4147C89.0187 41.7767 88.8462 41.0406 88.8462 40.2064C88.8462 39.3623 89.0187 38.6213 89.3644 37.9833C89.7102 37.3454 90.1937 36.8547 90.8156 36.5111C91.4375 36.1676 92.1535 35.9958 92.9627 35.9958C93.7423 35.9958 94.4383 36.1627 95.0506 36.4964C95.6725 36.8301 96.1515 37.3061 96.4869 37.9245C96.8327 38.533 97.0052 39.2347 97.0052 40.0297ZM94.8581 39.4408C94.8485 38.9108 94.656 38.4888 94.2806 38.1747C93.9052 37.8508 93.4462 37.6889 92.9035 37.6889C92.3904 37.6889 91.9558 37.8459 91.6004 38.16C91.2546 38.4642 91.0429 38.8912 90.9637 39.4408H94.8581Z" fill="#B7C0DB"/>
<path d="M103.997 44.2844L101.717 40.28H100.74V44.2844H98.6666V34.0083H102.546C103.346 34.0083 104.027 34.1506 104.59 34.4352C105.152 34.71 105.571 35.088 105.848 35.5689C106.134 36.04 106.278 36.57 106.278 37.1589C106.278 37.8361 106.08 38.4495 105.685 38.9991C105.29 39.5389 104.703 39.9119 103.923 40.118L106.396 44.2844H103.997ZM100.74 38.7341H102.472C103.035 38.7341 103.454 38.6016 103.731 38.3366C104.007 38.0618 104.145 37.6839 104.145 37.203C104.145 36.7319 104.007 36.3688 103.731 36.1136C103.454 35.8486 103.035 35.7161 102.472 35.7161H100.74V38.7341Z" fill="#B7C0DB"/>
<path d="M111.869 44.3875C111.149 44.3875 110.497 44.2648 109.915 44.0194C109.342 43.7741 108.888 43.4207 108.552 42.9594C108.217 42.4981 108.044 41.9534 108.034 41.3252H110.255C110.285 41.7473 110.433 42.081 110.699 42.3264C110.976 42.5717 111.351 42.6944 111.825 42.6944C112.309 42.6944 112.689 42.5816 112.965 42.3558C113.242 42.1202 113.38 41.816 113.38 41.443C113.38 41.1388 113.286 40.8885 113.098 40.6922C112.911 40.4959 112.674 40.3438 112.387 40.2358C112.111 40.118 111.726 39.9905 111.232 39.853C110.562 39.6567 110.014 39.4653 109.589 39.2789C109.174 39.0825 108.814 38.793 108.508 38.4103C108.212 38.0177 108.064 37.4975 108.064 36.8497C108.064 36.2412 108.217 35.7112 108.523 35.2597C108.829 34.8082 109.259 34.4647 109.811 34.2291C110.364 33.9838 110.995 33.8611 111.706 33.8611C112.772 33.8611 113.636 34.1212 114.298 34.6414C114.969 35.1517 115.339 35.8682 115.408 36.7908H113.128C113.109 36.4375 112.955 36.148 112.669 35.9222C112.393 35.6866 112.022 35.5689 111.558 35.5689C111.154 35.5689 110.828 35.6719 110.581 35.878C110.344 36.0841 110.225 36.3835 110.225 36.7761C110.225 37.0509 110.314 37.2816 110.492 37.468C110.68 37.6447 110.907 37.7919 111.173 37.9097C111.45 38.0177 111.835 38.1453 112.328 38.2925C113 38.4888 113.548 38.685 113.972 38.8814C114.397 39.0777 114.762 39.3721 115.068 39.7647C115.374 40.1573 115.527 40.6725 115.527 41.3105C115.527 41.8602 115.384 42.3705 115.097 42.8416C114.811 43.3127 114.392 43.6906 113.839 43.9753C113.286 44.25 112.629 44.3875 111.869 44.3875Z" fill="#B7C0DB"/>
<path d="M121.085 34.0083C122.171 34.0083 123.124 34.2193 123.943 34.6414C124.773 35.0634 125.409 35.667 125.854 36.4522C126.307 37.2275 126.535 38.1305 126.535 39.1611C126.535 40.1916 126.307 41.0946 125.854 41.87C125.409 42.6355 124.773 43.2293 123.943 43.6514C123.124 44.0734 122.171 44.2844 121.085 44.2844H117.472V34.0083H121.085ZM121.011 42.5325C122.097 42.5325 122.936 42.238 123.529 41.6491C124.121 41.0602 124.417 40.2309 124.417 39.1611C124.417 38.0913 124.121 37.257 123.529 36.6583C122.936 36.0498 122.097 35.7455 121.011 35.7455H119.545V42.5325H121.011Z" fill="#B7C0DB"/>
<path d="M130.308 42.6502H133.713V44.2844H128.235V34.0083H130.308V42.6502Z" fill="#B7C0DB"/>
</svg>
