<svg width="189" height="48" viewBox="0 0 189 48" fill="none" xmlns="http://www.w3.org/2000/svg">
<path d="M4.94141 10.7823V19.0623C4.94141 20.169 5.18141 21.0023 5.66141 21.5623C6.15474 22.109 6.86141 22.3823 7.78141 22.3823C8.68807 22.3823 9.38141 22.109 9.86141 21.5623C10.3547 21.0023 10.6014 20.169 10.6014 19.0623V10.7823H13.4014V19.0623C13.4014 20.369 13.1547 21.4757 12.6614 22.3823C12.1814 23.2757 11.5081 23.9423 10.6414 24.3823C9.78807 24.8223 8.81474 25.0423 7.72141 25.0423C6.02807 25.0423 4.67474 24.5357 3.66141 23.5223C2.64807 22.509 2.14141 21.0223 2.14141 19.0623V10.7823H4.94141ZM22.6738 13.6623C23.9538 13.6623 24.9738 14.0823 25.7338 14.9223C26.4938 15.7623 26.8738 16.9423 26.8738 18.4623V24.9023H24.0738V18.7823C24.0738 17.9023 23.8471 17.2223 23.3937 16.7423C22.9404 16.249 22.3204 16.0023 21.5338 16.0023C20.7338 16.0023 20.0938 16.2623 19.6138 16.7823C19.1338 17.3023 18.8938 18.049 18.8938 19.0223V24.9023H16.0737V13.8223H18.8938V16.0423C19.1871 15.2957 19.6671 14.7157 20.3338 14.3023C21.0137 13.8757 21.7938 13.6623 22.6738 13.6623ZM38.315 10.7823V13.0223H32.375V16.8023H37.135V18.9623H32.375V24.9023H29.555V10.7823H38.315ZM50.8391 18.9423C50.8391 19.2223 50.8057 19.5423 50.7391 19.9023H42.6191C42.6591 20.889 42.9257 21.6157 43.4191 22.0823C43.9124 22.549 44.5257 22.7823 45.2591 22.7823C45.9124 22.7823 46.4524 22.6223 46.8791 22.3023C47.3191 21.9823 47.5991 21.549 47.7191 21.0023H50.6991C50.5524 21.7757 50.2391 22.469 49.7591 23.0823C49.2791 23.6957 48.6591 24.1757 47.8991 24.5223C47.1524 24.869 46.3191 25.0423 45.3991 25.0423C44.3191 25.0423 43.3591 24.8157 42.5191 24.3623C41.6791 23.8957 41.0257 23.2357 40.5591 22.3823C40.0924 21.529 39.8591 20.5223 39.8591 19.3623C39.8591 18.2023 40.0924 17.1957 40.5591 16.3423C41.0257 15.4757 41.6791 14.8157 42.5191 14.3623C43.3591 13.909 44.3191 13.6823 45.3991 13.6823C46.4924 13.6823 47.4457 13.909 48.2591 14.3623C49.0857 14.8157 49.7191 15.4423 50.1591 16.2423C50.6124 17.029 50.8391 17.929 50.8391 18.9423ZM47.9991 18.6623C48.0391 17.7557 47.7991 17.069 47.2791 16.6023C46.7724 16.1357 46.1457 15.9023 45.3991 15.9023C44.6391 15.9023 43.9991 16.1357 43.4791 16.6023C42.9591 17.069 42.6724 17.7557 42.6191 18.6623H47.9991ZM57.3809 13.6823C58.3143 13.6823 59.1076 13.9023 59.7609 14.3423C60.4276 14.7823 60.9076 15.3757 61.2009 16.1223V10.1023H64.0009V24.9023H61.2009V22.5823C60.9076 23.329 60.4276 23.929 59.7609 24.3823C59.1076 24.8223 58.3143 25.0423 57.3809 25.0423C56.4476 25.0423 55.6076 24.8157 54.8609 24.3623C54.1143 23.909 53.5276 23.2557 53.1009 22.4023C52.6876 21.5357 52.4809 20.5223 52.4809 19.3623C52.4809 18.2023 52.6876 17.1957 53.1009 16.3423C53.5276 15.4757 54.1143 14.8157 54.8609 14.3623C55.6076 13.909 56.4476 13.6823 57.3809 13.6823ZM58.2609 16.1423C57.3809 16.1423 56.6743 16.429 56.1409 17.0023C55.6076 17.5757 55.3409 18.3623 55.3409 19.3623C55.3409 20.3623 55.6076 21.149 56.1409 21.7223C56.6743 22.2823 57.3809 22.5623 58.2609 22.5623C59.1143 22.5623 59.8143 22.2757 60.3609 21.7023C60.9209 21.1157 61.2009 20.3357 61.2009 19.3623C61.2009 18.3757 60.9209 17.5957 60.3609 17.0223C59.8143 16.4357 59.1143 16.1423 58.2609 16.1423ZM77.1766 18.9423C77.1766 19.2223 77.1432 19.5423 77.0766 19.9023H68.9566C68.9966 20.889 69.2632 21.6157 69.7566 22.0823C70.2499 22.549 70.8632 22.7823 71.5966 22.7823C72.2499 22.7823 72.7899 22.6223 73.2166 22.3023C73.6566 21.9823 73.9366 21.549 74.0566 21.0023H77.0366C76.8899 21.7757 76.5766 22.469 76.0966 23.0823C75.6166 23.6957 74.9966 24.1757 74.2366 24.5223C73.4899 24.869 72.6566 25.0423 71.7366 25.0423C70.6566 25.0423 69.6966 24.8157 68.8566 24.3623C68.0166 23.8957 67.3632 23.2357 66.8966 22.3823C66.4299 21.529 66.1966 20.5223 66.1966 19.3623C66.1966 18.2023 66.4299 17.1957 66.8966 16.3423C67.3632 15.4757 68.0166 14.8157 68.8566 14.3623C69.6966 13.909 70.6566 13.6823 71.7366 13.6823C72.8299 13.6823 73.7832 13.909 74.5966 14.3623C75.4232 14.8157 76.0566 15.4423 76.4966 16.2423C76.9499 17.029 77.1766 17.929 77.1766 18.9423ZM74.3366 18.6623C74.3766 17.7557 74.1366 17.069 73.6166 16.6023C73.1099 16.1357 72.4832 15.9023 71.7366 15.9023C70.9766 15.9023 70.3366 16.1357 69.8166 16.6023C69.2966 17.069 69.0099 17.7557 68.9566 18.6623H74.3366ZM82.1984 15.9423C82.6118 15.2357 83.1584 14.6823 83.8384 14.2823C84.5184 13.869 85.2784 13.6623 86.1184 13.6623V16.6823H85.2984C83.2318 16.6823 82.1984 17.6423 82.1984 19.5623V24.9023H79.3784V13.8223H82.1984V15.9423ZM92.2192 13.6823C93.1526 13.6823 93.9526 13.9023 94.6192 14.3423C95.2859 14.7823 95.7592 15.3757 96.0392 16.1223V13.8223H98.8392V24.9023H96.0392V22.5823C95.7592 23.329 95.2859 23.929 94.6192 24.3823C93.9526 24.8223 93.1526 25.0423 92.2192 25.0423C91.2859 25.0423 90.4459 24.8157 89.6992 24.3623C88.9526 23.909 88.3659 23.2557 87.9392 22.4023C87.5259 21.5357 87.3192 20.5223 87.3192 19.3623C87.3192 18.2023 87.5259 17.1957 87.9392 16.3423C88.3659 15.4757 88.9526 14.8157 89.6992 14.3623C90.4459 13.909 91.2859 13.6823 92.2192 13.6823ZM93.0992 16.1423C92.2192 16.1423 91.5126 16.429 90.9792 17.0023C90.4459 17.5757 90.1792 18.3623 90.1792 19.3623C90.1792 20.3623 90.4459 21.149 90.9792 21.7223C91.5126 22.2823 92.2192 22.5623 93.0992 22.5623C93.9526 22.5623 94.6526 22.2757 95.1992 21.7023C95.7592 21.1157 96.0392 20.3357 96.0392 19.3623C96.0392 18.3757 95.7592 17.5957 95.1992 17.0223C94.6526 16.4357 93.9526 16.1423 93.0992 16.1423ZM104.415 10.1023V24.9023H101.595V10.1023H104.415ZM114.526 24.9023L111.226 19.4023H109.986V24.9023H107.166V10.7823H112.546C114.186 10.7823 115.433 11.1823 116.286 11.9823C117.153 12.7823 117.586 13.8357 117.586 15.1423C117.586 16.209 117.286 17.1023 116.686 17.8223C116.099 18.5423 115.246 19.0223 114.126 19.2623L117.646 24.9023H114.526ZM109.986 17.4623H112.306C113.919 17.4623 114.726 16.749 114.726 15.3223C114.726 14.6423 114.526 14.1157 114.126 13.7423C113.739 13.3557 113.133 13.1623 112.306 13.1623H109.986V17.4623ZM130.11 18.9423C130.11 19.2223 130.077 19.5423 130.01 19.9023H121.89C121.93 20.889 122.197 21.6157 122.69 22.0823C123.183 22.549 123.797 22.7823 124.53 22.7823C125.183 22.7823 125.723 22.6223 126.15 22.3023C126.59 21.9823 126.87 21.549 126.99 21.0023H129.97C129.823 21.7757 129.51 22.469 129.03 23.0823C128.55 23.6957 127.93 24.1757 127.17 24.5223C126.423 24.869 125.59 25.0423 124.67 25.0423C123.59 25.0423 122.63 24.8157 121.79 24.3623C120.95 23.8957 120.297 23.2357 119.83 22.3823C119.363 21.529 119.13 20.5223 119.13 19.3623C119.13 18.2023 119.363 17.1957 119.83 16.3423C120.297 15.4757 120.95 14.8157 121.79 14.3623C122.63 13.909 123.59 13.6823 124.67 13.6823C125.763 13.6823 126.717 13.909 127.53 14.3623C128.357 14.8157 128.99 15.4423 129.43 16.2423C129.883 17.029 130.11 17.929 130.11 18.9423ZM127.27 18.6623C127.31 17.7557 127.07 17.069 126.55 16.6023C126.043 16.1357 125.417 15.9023 124.67 15.9023C123.91 15.9023 123.27 16.1357 122.75 16.6023C122.23 17.069 121.943 17.7557 121.89 18.6623H127.27ZM136.132 13.6823C137.479 13.6823 138.559 14.0223 139.372 14.7023C140.185 15.3823 140.692 16.289 140.892 17.4223H138.252C138.145 16.889 137.905 16.4623 137.532 16.1423C137.159 15.8223 136.672 15.6623 136.072 15.6623C135.592 15.6623 135.219 15.7757 134.952 16.0023C134.685 16.229 134.552 16.5357 134.552 16.9223C134.552 17.229 134.659 17.4757 134.872 17.6623C135.085 17.849 135.352 17.9957 135.672 18.1023C135.992 18.209 136.452 18.3357 137.052 18.4823C137.892 18.669 138.572 18.869 139.092 19.0823C139.625 19.2823 140.079 19.609 140.452 20.0623C140.839 20.5023 141.032 21.1023 141.032 21.8623C141.032 22.809 140.659 23.5757 139.912 24.1623C139.179 24.749 138.185 25.0423 136.932 25.0423C135.492 25.0423 134.339 24.7223 133.472 24.0823C132.605 23.429 132.079 22.5023 131.892 21.3023H134.592C134.659 21.849 134.899 22.2823 135.312 22.6023C135.725 22.909 136.265 23.0623 136.932 23.0623C137.412 23.0623 137.779 22.949 138.032 22.7223C138.285 22.4823 138.412 22.1757 138.412 21.8023C138.412 21.4823 138.299 21.2223 138.072 21.0223C137.859 20.8223 137.585 20.669 137.252 20.5623C136.932 20.4557 136.472 20.329 135.872 20.1823C135.045 19.9957 134.372 19.809 133.852 19.6223C133.345 19.4223 132.905 19.109 132.532 18.6823C132.172 18.2557 131.992 17.669 131.992 16.9223C131.992 15.9623 132.359 15.1823 133.092 14.5823C133.825 13.9823 134.839 13.6823 136.132 13.6823ZM153.752 18.9423C153.752 19.2223 153.719 19.5423 153.652 19.9023H145.532C145.572 20.889 145.839 21.6157 146.332 22.0823C146.826 22.549 147.439 22.7823 148.172 22.7823C148.826 22.7823 149.366 22.6223 149.792 22.3023C150.232 21.9823 150.512 21.549 150.632 21.0023H153.612C153.466 21.7757 153.152 22.469 152.672 23.0823C152.192 23.6957 151.572 24.1757 150.812 24.5223C150.066 24.869 149.232 25.0423 148.312 25.0423C147.232 25.0423 146.272 24.8157 145.432 24.3623C144.592 23.8957 143.939 23.2357 143.472 22.3823C143.006 21.529 142.772 20.5223 142.772 19.3623C142.772 18.2023 143.006 17.1957 143.472 16.3423C143.939 15.4757 144.592 14.8157 145.432 14.3623C146.272 13.909 147.232 13.6823 148.312 13.6823C149.406 13.6823 150.359 13.909 151.172 14.3623C151.999 14.8157 152.632 15.4423 153.072 16.2423C153.526 17.029 153.752 17.929 153.752 18.9423ZM150.912 18.6623C150.952 17.7557 150.712 17.069 150.192 16.6023C149.686 16.1357 149.059 15.9023 148.312 15.9023C147.552 15.9023 146.912 16.1357 146.392 16.6023C145.872 17.069 145.586 17.7557 145.532 18.6623H150.912ZM158.774 15.9423C159.188 15.2357 159.734 14.6823 160.414 14.2823C161.094 13.869 161.854 13.6623 162.694 13.6623V16.6823H161.874C159.808 16.6823 158.774 17.6423 158.774 19.5623V24.9023H155.954V13.8223H158.774V15.9423ZM169.275 22.0823L172.075 13.8223H175.075L170.975 24.9023H167.535L163.435 13.8223H166.455L169.275 22.0823ZM187.263 18.9423C187.263 19.2223 187.229 19.5423 187.163 19.9023H179.043C179.083 20.889 179.349 21.6157 179.843 22.0823C180.336 22.549 180.949 22.7823 181.683 22.7823C182.336 22.7823 182.876 22.6223 183.303 22.3023C183.743 21.9823 184.023 21.549 184.143 21.0023H187.123C186.976 21.7757 186.663 22.469 186.183 23.0823C185.703 23.6957 185.083 24.1757 184.323 24.5223C183.576 24.869 182.743 25.0423 181.823 25.0423C180.743 25.0423 179.783 24.8157 178.943 24.3623C178.103 23.8957 177.449 23.2357 176.983 22.3823C176.516 21.529 176.283 20.5223 176.283 19.3623C176.283 18.2023 176.516 17.1957 176.983 16.3423C177.449 15.4757 178.103 14.8157 178.943 14.3623C179.783 13.909 180.743 13.6823 181.823 13.6823C182.916 13.6823 183.869 13.909 184.683 14.3623C185.509 14.8157 186.143 15.4423 186.582 16.2423C187.036 17.029 187.263 17.929 187.263 18.9423ZM184.423 18.6623C184.463 17.7557 184.223 17.069 183.703 16.6023C183.196 16.1357 182.569 15.9023 181.823 15.9023C181.063 15.9023 180.423 16.1357 179.903 16.6023C179.383 17.069 179.096 17.7557 179.043 18.6623H184.423Z" fill="#042751"/>
<path opacity="0.4" d="M7.91341 39.9312C7.91341 40.1552 7.89741 40.3512 7.86541 40.5192H2.77741C2.80141 41.1992 2.98941 41.7032 3.34141 42.0312C3.69341 42.3592 4.12941 42.5232 4.64941 42.5232C5.10541 42.5232 5.48941 42.4072 5.80141 42.1752C6.12141 41.9432 6.31741 41.6352 6.38941 41.2512H7.85341C7.76541 41.7152 7.58141 42.1272 7.30141 42.4872C7.02141 42.8472 6.65741 43.1312 6.20941 43.3392C5.76141 43.5392 5.26141 43.6392 4.70941 43.6392C4.06941 43.6392 3.50141 43.5032 3.00541 43.2312C2.51741 42.9592 2.13341 42.5672 1.85341 42.0552C1.57341 41.5432 1.43341 40.9392 1.43341 40.2432C1.43341 39.5552 1.57341 38.9552 1.85341 38.4432C2.13341 37.9312 2.51741 37.5392 3.00541 37.2672C3.50141 36.9952 4.06941 36.8592 4.70941 36.8592C5.35741 36.8592 5.92141 36.9952 6.40141 37.2672C6.88941 37.5312 7.26141 37.8992 7.51741 38.3712C7.78141 38.8352 7.91341 39.3552 7.91341 39.9312ZM6.53341 39.8952C6.54941 39.4632 6.47341 39.1032 6.30541 38.8152C6.14541 38.5192 5.92141 38.3032 5.63341 38.1672C5.35341 38.0232 5.04541 37.9512 4.70941 37.9512C4.17341 37.9512 3.72541 38.1152 3.36541 38.4432C3.00541 38.7712 2.80941 39.2552 2.77741 39.8952H6.53341ZM13.8063 43.5552L11.6942 40.1712H10.7223V43.5552H9.35425V35.0832H12.3423C13.3103 35.0832 14.0423 35.3192 14.5383 35.7912C15.0423 36.2632 15.2943 36.8872 15.2943 37.6632C15.2943 38.3272 15.1063 38.8712 14.7303 39.2952C14.3623 39.7192 13.8263 39.9912 13.1223 40.1112L15.3423 43.5552H13.8063ZM10.7223 39.1992H12.2343C13.3383 39.1992 13.8903 38.7112 13.8903 37.7352C13.8903 37.2712 13.7543 36.9112 13.4823 36.6552C13.2183 36.3912 12.8023 36.2592 12.2343 36.2592H10.7223V39.1992ZM22.2141 41.2992C22.2141 41.7152 22.1141 42.1032 21.9141 42.4632C21.7141 42.8152 21.4101 43.0992 21.0021 43.3152C20.5941 43.5312 20.0941 43.6392 19.5021 43.6392C18.9261 43.6392 18.4101 43.5392 17.9541 43.3392C17.4981 43.1312 17.1341 42.8432 16.8621 42.4752C16.5901 42.1072 16.4341 41.6832 16.3941 41.2032H17.8581C17.8981 41.5712 18.0541 41.8872 18.3261 42.1512C18.6061 42.4152 18.9781 42.5472 19.4421 42.5472C19.8581 42.5472 20.1781 42.4352 20.4021 42.2112C20.6341 41.9872 20.7501 41.6992 20.7501 41.3472C20.7501 41.0432 20.6661 40.7952 20.4981 40.6032C20.3301 40.4032 20.1221 40.2472 19.8741 40.1352C19.6261 40.0232 19.2861 39.8952 18.8541 39.7512C18.3261 39.5832 17.8941 39.4152 17.5581 39.2472C17.2301 39.0792 16.9501 38.8352 16.7181 38.5152C16.4861 38.1952 16.3701 37.7752 16.3701 37.2552C16.3701 36.7992 16.4821 36.3992 16.7061 36.0552C16.9301 35.7112 17.2501 35.4472 17.6661 35.2632C18.0821 35.0712 18.5621 34.9752 19.1061 34.9752C19.9701 34.9752 20.6541 35.1832 21.1581 35.5992C21.6701 36.0152 21.9621 36.5592 22.0341 37.2312H20.5581C20.5021 36.9112 20.3501 36.6392 20.1021 36.4152C19.8621 36.1832 19.5301 36.0672 19.1061 36.0672C18.7221 36.0672 18.4141 36.1672 18.1821 36.3672C17.9501 36.5592 17.8341 36.8392 17.8341 37.2072C17.8341 37.4952 17.9141 37.7352 18.0741 37.9272C18.2341 38.1112 18.4341 38.2592 18.6741 38.3712C18.9221 38.4752 19.2581 38.5992 19.6821 38.7432C20.2181 38.9112 20.6541 39.0832 20.9901 39.2592C21.3341 39.4272 21.6221 39.6752 21.8541 40.0032C22.0941 40.3312 22.2141 40.7632 22.2141 41.2992ZM30.9756 39.3072C30.9756 40.1632 30.7996 40.9112 30.4476 41.5512C30.1036 42.1832 29.5956 42.6752 28.9236 43.0272C28.2596 43.3792 27.4636 43.5552 26.5356 43.5552H23.7036V35.0832H26.5356C27.4636 35.0832 28.2596 35.2592 28.9236 35.6112C29.5956 35.9552 30.1036 36.4432 30.4476 37.0752C30.7996 37.7072 30.9756 38.4512 30.9756 39.3072ZM26.4276 42.3192C27.4436 42.3192 28.2236 42.0552 28.7676 41.5272C29.3116 40.9992 29.5836 40.2592 29.5836 39.3072C29.5836 38.3552 29.3116 37.6152 28.7676 37.0872C28.2236 36.5592 27.4436 36.2952 26.4276 36.2952H25.0716V42.3192H26.4276ZM33.8401 42.4872H36.7681V43.5552H32.4721V35.0832H33.8401V42.4872Z" fill="#042751"/>
</svg>
