<svg width="375" height="1000" viewBox="0 0 375 1000" fill="none" xmlns="http://www.w3.org/2000/svg">
<rect x="-675" y="-1" width="2560" height="987" fill="#EFF6FF"/>
<g opacity="0.9">
<path d="M474.218 795.321C788.37 589.863 811.324 649.367 1010.77 700.318V952.16L-186.344 968.99C-189.407 971.522 -192.403 974.05 -195.328 976.568C-195.328 976.568 -206.992 973.9 -227.029 969.562L-1395 985.982V962.723C-1395 962.723 -1324.5 871.561 -1157 820.252C-989.5 768.942 -868.5 909.78 -716.5 900.952C-591.519 893.693 -319.711 949.494 -227.029 969.562L-186.344 968.99C-91.7058 890.765 68.0842 807.854 216.258 841.644C383.148 879.701 400.176 843.744 474.218 795.321Z" fill="url(#paint0_linear)"/>
<path d="M-460.862 932.411C-400.422 942.289 -341.6 953.549 -294.885 963.015L-1387.5 978.376V965.398C-1387.08 964.899 -1386.58 964.307 -1385.98 963.627C-1383.83 961.148 -1380.53 957.502 -1376.03 952.946C-1367.03 943.832 -1353.26 931.075 -1334.28 916.707C-1296.35 887.979 -1237.63 852.794 -1154.8 827.423C-1073.66 802.566 -1003.63 824.052 -933.69 851.648C-924.64 855.219 -915.575 858.902 -906.48 862.598C-845.891 887.217 -783.958 912.383 -716.065 908.439C-654.509 904.864 -556.077 916.851 -460.862 932.411ZM941.184 688.528C960.005 694.177 980.475 700.191 1003.27 706.129V944.764L-164.508 961.182C-119.984 926.978 -63.7734 893.247 -2.49231 870.337C66.9241 844.384 142.369 832.487 214.591 848.956C298.371 868.061 345.921 868.954 382.206 858.098C400.357 852.667 415.325 844.404 430.257 834.611C437.174 830.074 444.152 825.162 451.405 820.057L453.036 818.909C460.911 813.368 469.184 807.574 478.323 801.597C635.414 698.858 718.212 663.451 785.984 659.151C819.773 657.007 850.249 662.575 885.007 672.013C899.074 675.833 913.733 680.254 929.598 685.039C933.388 686.182 937.248 687.346 941.184 688.528Z" stroke="#A5BBF5" stroke-opacity="0.15" stroke-width="15"/>
</g>
<path opacity="0.9" d="M1105.67 909.232C1276.67 994.309 1404.67 789.786 1404.67 703.546V982.632H415.538C395.838 985.574 375.726 985.194 355.494 982.632H-195.327C-195.327 982.632 -46.8271 894.085 134.173 921.295C198.77 931.005 278.01 972.819 355.494 982.632H415.538C443.161 978.506 469.974 967.847 495.173 947.51C607.173 857.119 802.173 758.233 1105.67 909.232Z" fill="#4166DB"/>
<path d="M957.125 676.839C1232.21 742.484 1357.5 773.5 1414.5 676.839C1437.49 627.967 1625.4 453.585 1841.4 585.677C2057.4 717.769 2191.5 628.861 2304.5 536.804C2417.5 444.748 2605 489.978 2605 489.978V999.867H-1395V935.624L-1395 785.382C-1148.5 676.839 -1130 874.088 -883 865.069C-636 856.05 -644 935.624 -503 935.624C-348.5 935.624 -207.564 874.088 -207.564 874.088C-207.564 874.088 -79.2283 831.864 86.7717 865.069C169.646 881.646 230.62 884 325.647 865.069C420.512 846.171 664.415 606.987 957.125 676.839Z" fill="url(#paint1_linear)"/>
<path d="M325.647 865.069C420.512 846.171 664.415 606.987 957.125 676.839C1232.21 742.484 1355.13 762.949 1404.5 658C1427.49 609.128 1646.5 455.408 1862.5 587.5C2078.5 719.592 2191.5 628.861 2304.5 536.804C2417.5 444.748 2605 489.978 2605 489.978V509.687L2585 504.923C2585 504.923 2422 460.191 2309 552.247C2196 644.303 2078.5 734.536 1862.5 602.445C1646.5 470.353 1438.49 627.967 1415.5 676.839C1366.13 781.788 1232.21 757.429 957.125 691.783C664.415 621.931 420.512 861.115 325.647 880.013C230.62 898.944 169.646 896.591 86.7717 880.013C-79.2283 846.809 -207.564 889.032 -207.564 889.032C-207.564 889.032 -348.5 950.568 -503 950.568C-644 950.568 -636 870.995 -883 880.013C-1130 889.032 -1161 688.74 -1383 794.348L-1395 800.607L-1395 785.382C-1148.5 676.838 -1130 874.088 -883 865.069C-636 856.05 -644 935.624 -503 935.624C-348.5 935.624 -207.564 874.088 -207.564 874.088C-207.564 874.088 -79.2283 831.864 86.7717 865.069C169.646 881.646 230.62 884 325.647 865.069Z" fill="#A5BBF5" fill-opacity="0.15"/>
<path d="M325.647 865.069C420.512 846.171 664.415 606.987 957.125 676.839C1232.21 742.484 1355.13 762.949 1404.5 658C1427.49 609.128 1646.5 455.408 1862.5 587.5C2078.5 719.592 2191.5 628.861 2304.5 536.804C2417.5 444.748 2605 489.978 2605 489.978V509.687L2585 504.923C2585 504.923 2422 460.191 2309 552.247C2196 644.303 2078.5 734.536 1862.5 602.445C1646.5 470.353 1438.49 627.967 1415.5 676.839C1366.13 781.788 1232.21 757.429 957.125 691.783C664.415 621.931 420.512 861.115 325.647 880.013C230.62 898.944 169.646 896.591 86.7717 880.013C-79.2283 846.809 -207.564 889.032 -207.564 889.032C-207.564 889.032 -348.5 950.568 -503 950.568C-644 950.568 -636 870.995 -883 880.013C-1130 889.032 -1161 688.74 -1383 794.348L-1395 800.607L-1395 785.382C-1148.5 676.838 -1130 874.088 -883 865.069C-636 856.05 -644 935.624 -503 935.624C-348.5 935.624 -207.564 874.088 -207.564 874.088C-207.564 874.088 -79.2283 831.864 86.7717 865.069C169.646 881.646 230.62 884 325.647 865.069Z" fill="url(#paint2_radial)" fill-opacity="0.6"/>
<defs>
<linearGradient id="paint0_linear" x1="615.146" y1="828.478" x2="615.146" y2="1075.65" gradientUnits="userSpaceOnUse">
<stop stop-color="#8CA8FF"/>
<stop offset="0.807292" stop-color="#345BD8"/>
</linearGradient>
<linearGradient id="paint1_linear" x1="623.158" y1="403.82" x2="623.158" y2="1000" gradientUnits="userSpaceOnUse">
<stop stop-color="#2550D9"/>
<stop offset="1" stop-color="#15309A"/>
</linearGradient>
<radialGradient id="paint2_radial" cx="0" cy="0" r="1" gradientUnits="userSpaceOnUse" gradientTransform="translate(964.796 679.064) rotate(159.473) scale(448.85 614.228)">
<stop stop-color="white" stop-opacity="0.8"/>
<stop offset="1" stop-color="white" stop-opacity="0"/>
</radialGradient>
</defs>
</svg>
