<svg width="218" height="217" viewBox="0 0 218 217" fill="none" xmlns="http://www.w3.org/2000/svg">
<path d="M186.089 31.7786C165.596 11.2861 138.349 0 109.367 0C87.6371 0 66.669 6.4015 48.7301 18.5132C31.2268 30.33 17.6347 46.8211 9.42216 66.2028C8.73725 67.8189 9.49209 69.6845 11.1086 70.3699C12.7246 71.0548 14.5903 70.2995 15.2752 68.6835C31.318 30.8216 68.2512 6.35742 109.367 6.35742C136.651 6.35742 162.301 16.9819 181.593 36.2742C200.885 55.5664 211.51 81.2165 211.51 108.5C211.51 135.784 200.885 161.434 181.593 180.726C162.301 200.018 136.651 210.643 109.367 210.643C82.0837 210.643 56.4336 200.018 37.1414 180.726C17.8491 161.434 7.22461 135.784 7.22461 108.5C7.22461 99.1402 8.48931 89.8681 10.9848 80.9418C11.457 79.2512 10.4694 77.4974 8.77879 77.0248C7.08729 76.5514 5.33434 77.5398 4.86177 79.2304C2.21115 88.714 0.867188 98.5617 0.867188 108.5C0.867188 137.481 12.1533 164.728 32.6458 185.221C53.1388 205.714 80.3858 217 109.367 217C138.349 217 165.596 205.714 186.089 185.221C206.581 164.728 217.867 137.481 217.867 108.5C217.867 79.5186 206.581 52.272 186.089 31.7786Z" fill="#85AEFF"/>
</svg>
