<svg width="45" height="39" viewBox="0 0 45 39" fill="none" xmlns="http://www.w3.org/2000/svg">
<path d="M14.4024 17.741C13.2941 17.4219 12.1858 17.2599 11.1077 17.2599C9.44282 17.2599 8.05364 17.6404 6.97646 18.1063C8.01493 14.3045 10.5096 7.74468 15.4791 7.00594C15.9394 6.9375 16.3165 6.60471 16.4421 6.15675L17.5282 2.27191C17.6198 1.94337 17.5655 1.59171 17.3781 1.3066C17.1907 1.02149 16.8896 0.831257 16.5521 0.784998C16.1853 0.734962 15.8114 0.709473 15.4409 0.709473C9.47586 0.709473 3.56841 6.93561 1.07562 15.8505C-0.387669 21.0806 -0.816744 28.9437 2.78767 33.893C4.80466 36.6625 7.74729 38.1413 11.5339 38.2891C11.5495 38.2896 11.5646 38.29 11.5802 38.29C16.2523 38.29 20.3953 35.1435 21.6556 30.6388C22.4085 27.9459 22.0682 25.1217 20.6965 22.6846C19.3394 20.2748 17.1043 18.5184 14.4024 17.741Z" fill="#5577E4"/>
<path d="M43.6492 22.685C42.2921 20.2748 40.057 18.5184 37.3551 17.741C36.2468 17.4219 35.1385 17.2599 34.0608 17.2599C32.396 17.2599 31.0063 17.6404 29.9292 18.1063C30.9676 14.3045 33.4623 7.74468 38.4323 7.00594C38.8925 6.9375 39.2692 6.60471 39.3952 6.15675L40.4814 2.27191C40.573 1.94337 40.5187 1.59171 40.3313 1.3066C40.1444 1.02149 39.8432 0.831257 39.5052 0.784998C39.1389 0.734962 38.7651 0.709473 38.3941 0.709473C32.429 0.709473 26.5216 6.93561 24.0283 15.8505C22.5655 21.0806 22.1364 28.9437 25.7413 33.894C27.7578 36.6629 30.7009 38.1423 34.4871 38.2896C34.5027 38.29 34.5178 38.2905 34.5338 38.2905C39.2055 38.2905 43.349 35.1439 44.6093 30.6393C45.3612 27.9463 45.0204 25.1217 43.6492 22.685Z" fill="#5577E4"/>
</svg>
