<svg width="303" height="301" viewBox="0 0 303 301" fill="none" xmlns="http://www.w3.org/2000/svg">
<path d="M302.254 167.431C302.254 241.199 242.453 301 168.685 301C94.917 301 35.1162 241.199 35.1162 167.431C35.1162 93.6631 94.917 33.8623 168.685 33.8623C242.453 33.8623 302.254 93.6631 302.254 167.431Z" fill="#10227E"/>
<path d="M184.362 92.181C184.362 143.091 143.091 184.362 92.181 184.362C41.2708 184.362 0 143.091 0 92.181C0 41.2708 41.2708 0 92.181 0C143.091 0 184.362 41.2708 184.362 92.181Z" fill="#10227E"/>
<path d="M224.089 63.7786C203.596 43.2861 176.349 32 147.367 32C125.637 32 104.669 38.4015 86.7301 50.5132C69.2268 62.33 55.6347 78.8211 47.4222 98.2028C46.7373 99.8189 47.4921 101.685 49.1086 102.37C50.7246 103.055 52.5903 102.3 53.2752 100.683C69.318 62.8216 106.251 38.3574 147.367 38.3574C174.651 38.3574 200.301 48.9819 219.593 68.2742C238.885 87.5664 249.51 113.216 249.51 140.5C249.51 167.784 238.885 193.434 219.593 212.726C200.301 232.018 174.651 242.643 147.367 242.643C120.084 242.643 94.4336 232.018 75.1414 212.726C55.8491 193.434 45.2246 167.784 45.2246 140.5C45.2246 131.14 46.4893 121.868 48.9848 112.942C49.457 111.251 48.4694 109.497 46.7788 109.025C45.0873 108.551 43.3343 109.54 42.8618 111.23C40.2111 120.714 38.8672 130.562 38.8672 140.5C38.8672 169.481 50.1533 196.728 70.6458 217.221C91.1388 237.714 118.386 249 147.367 249C176.349 249 203.596 237.714 224.089 217.221C244.581 196.728 255.867 169.481 255.867 140.5C255.867 111.519 244.581 84.272 224.089 63.7786Z" fill="#85AEFF"/>
</svg>
