<svg width="246" height="38" viewBox="0 0 246 38" fill="none" xmlns="http://www.w3.org/2000/svg">
<path d="M6.77378 2.34985C11.7113 2.34985 14.0608 5.11158 14.0608 8.57104C14.0608 11.2708 12.5843 13.854 9.06182 14.6392L14.3301 23.5001H11.0499L6.05266 14.8523H2.73987V23.5001H0V2.34985H6.77378ZM6.77378 4.62518H2.73987V12.6408H6.77378C9.87511 12.6408 11.2306 10.9411 11.2306 8.57468C11.2306 6.17365 9.90584 4.62518 6.77378 4.62518Z" fill="white"/>
<path d="M26.3973 24.675C21.511 24.675 17.9121 21.2512 17.9121 15.8334C17.9121 10.4493 21.387 7.0498 26.3973 7.0498C31.3737 7.0498 34.6306 10.5371 34.6306 15.2055C34.6311 15.7774 34.5997 16.3489 34.5366 16.9174H20.8175C21.0355 20.3747 23.4787 22.2735 26.3897 22.2735C28.9569 22.2735 30.5844 20.9653 31.2102 19.1282H34.2791C33.409 22.2473 30.652 24.675 26.3973 24.675ZM20.8551 14.6205H31.6876C31.7195 11.2884 29.2144 9.45315 26.2713 9.45315C23.4862 9.45315 21.169 11.2884 20.8551 14.6205Z" fill="white"/>
<path d="M43.9585 24.675C39.9934 24.675 37.2055 22.4952 37.0195 19.3807H39.9302C40.0864 21.0314 41.5426 22.2783 43.9269 22.2783C46.1587 22.2783 47.3973 21.1567 47.3973 19.7546C47.3973 15.9559 37.3543 18.1674 37.3543 11.815C37.3543 9.1978 39.8018 7.0498 43.581 7.0498C47.3304 7.0498 49.8077 9.07442 49.9937 12.4058H47.1798C47.057 10.6934 45.7551 9.44831 43.4936 9.44831C41.418 9.44831 40.1794 10.4447 40.1794 11.815C40.1794 15.8624 50.0364 13.6508 50.1555 19.7546C50.1555 22.5588 47.7079 24.675 43.9585 24.675Z" fill="white"/>
<path d="M61.6155 24.675C57.0778 24.675 53.7373 21.2512 53.7373 15.8334C53.7373 10.4493 56.9643 7.0498 61.6155 7.0498C66.2387 7.0498 69.2616 10.5371 69.2616 15.2055C69.2629 15.7774 69.2337 16.349 69.1743 16.9174H56.4495C56.6537 20.3747 58.9208 22.2735 61.6242 22.2735C64.0083 22.2735 65.5197 20.9653 66.1026 19.1282H68.9509C68.1289 22.2473 65.5703 24.675 61.6155 24.675ZM56.4704 14.6205H66.5285C66.5581 11.2884 64.2317 9.45315 61.4986 9.45315C58.9121 9.45315 56.7601 11.2884 56.4704 14.6205Z" fill="white"/>
<path d="M76.8779 23.5H74.0391V7.34536H76.8779V9.96818C77.8442 8.17008 79.6868 7.0498 82.3983 7.0498V9.82129H81.6493C78.9359 9.82129 76.8779 10.9716 76.8779 14.7147V23.5Z" fill="white"/>
<path d="M86.6414 7.0498L91.9764 20.9787L97.2795 7.0498H100.311L93.6055 23.5H90.2985L83.5928 7.0498H86.6414Z" fill="white"/>
<path d="M109.989 24.675C105.102 24.675 101.505 21.2512 101.505 15.8334C101.505 10.4493 104.98 7.0498 109.989 7.0498C114.968 7.0498 118.223 10.5371 118.223 15.2055C118.224 15.7774 118.192 16.3489 118.129 16.9174H104.409C104.627 20.3747 107.07 22.2735 109.982 22.2735C112.549 22.2735 114.177 20.9653 114.803 19.1282H117.872C117.002 22.2473 114.246 24.675 109.989 24.675ZM104.448 14.6205H115.282C115.314 11.2884 112.808 9.45315 109.865 9.45315C107.08 9.45315 104.76 11.2884 104.448 14.6205Z" fill="white"/>
<path d="M121.806 2.34985H134.942V5.77332H126.072V11.1978H132.869V14.5612H126.072V23.5001H121.806V2.34985Z" fill="white"/>
<path d="M154.049 24.4543H149.904V22.2552C148.875 23.7319 147.081 24.675 145.053 24.675C141.261 24.675 138.524 22.0345 138.524 17.2609V7.0498H142.639V16.631C142.639 19.428 144.081 20.9368 146.255 20.9368C148.489 20.9368 149.9 19.428 149.9 16.631V7.0498H154.045L154.049 24.4543Z" fill="white"/>
<path d="M171.111 15.0725C171.111 12.2822 169.558 10.7759 167.217 10.7759C164.809 10.7759 163.258 12.2822 163.258 15.0725V24.675H158.825V7.29457H163.258V9.46359C164.398 7.98934 166.299 7.0498 168.545 7.0498C172.63 7.0498 175.544 9.68577 175.544 14.4832V24.675H171.111V15.0725Z" fill="white"/>
<path d="M185.817 6.73296C188.084 6.73296 190.256 7.79902 191.436 9.432V1.1748H195.845V24.3925H191.436V21.8197C190.413 23.4206 188.488 24.675 185.788 24.675C181.41 24.675 177.933 21.0682 177.933 15.6343C177.933 10.2005 181.41 6.73296 185.817 6.73296ZM186.904 10.5922C184.576 10.5922 182.372 12.3495 182.372 15.6437C182.372 18.9379 184.576 20.8195 186.904 20.8195C189.295 20.8195 191.468 19.0001 191.468 15.7059C191.468 12.4117 189.295 10.5885 186.904 10.5885V10.5922Z" fill="white"/>
<path d="M199.428 2.45799C199.428 1.07964 200.678 0 202.412 0C204.115 0 205.399 1.07964 205.399 2.45799C205.399 3.83633 204.115 4.91597 202.412 4.91597C200.676 4.91597 199.428 3.83813 199.428 2.45799ZM199.949 6.89532H204.809V23.5002H199.949V6.89532Z" fill="white"/>
<path d="M246 17.3111V7.32415H241.656V9.74907C240.64 8.27607 238.7 7.0498 236.028 7.0498C231.684 7.0498 228.237 10.4561 228.237 15.7644C228.237 21.0728 231.673 24.6172 236.017 24.6172C237.113 24.6436 238.198 24.4031 239.179 23.9167C240.16 23.4303 241.007 22.7125 241.647 21.8258C241.647 25.709 238.912 27.7915 235.773 27.7915C231.509 27.7915 229.615 24.967 229.615 24.967C230.045 28.8668 232.747 31.2586 237.56 31.2586C237.968 31.2603 238.377 31.24 238.783 31.1978C237.588 32.2135 236.125 32.8666 234.569 33.0796C233.013 33.2926 231.428 33.0566 230.002 32.3996C228.576 31.7426 227.369 30.6921 226.523 29.3725C225.678 28.053 225.23 26.5196 225.232 24.9541V22.868V14.3522C225.232 9.65701 222.398 7.09215 218.424 7.09215C217.444 7.06348 216.47 7.26037 215.579 7.66753C214.688 8.07468 213.903 8.68113 213.285 9.43975V7.32415H208.98V24.3262H213.285V14.9359C213.285 12.2035 214.795 10.7323 217.132 10.7323C219.414 10.7323 220.924 12.2053 220.924 14.9359V22.8532V24.9449C220.902 26.5981 221.21 28.2391 221.83 29.7728C222.449 31.3065 223.368 32.7024 224.533 33.8795C225.698 35.0567 227.086 35.9917 228.616 36.6303C230.146 37.269 231.789 37.5986 233.448 37.6001C235.107 37.6016 236.75 37.2748 238.281 36.6389C239.813 36.0029 241.202 35.0703 242.369 33.8952C243.536 32.7201 244.458 31.3259 245.08 29.7933C245.702 28.2607 246.013 26.6202 245.994 24.967V17.3111H246ZM237.131 20.8297C234.812 20.8297 232.634 18.9885 232.634 15.7644C232.634 12.5404 234.82 10.8152 237.131 10.8152C239.502 10.8152 241.656 12.5938 241.656 15.8178C241.656 19.0419 239.498 20.8297 237.12 20.8297H237.131Z" fill="white"/>
</svg>
