<svg width="244" height="208" viewBox="0 0 244 208" fill="none" xmlns="http://www.w3.org/2000/svg">
<path d="M174.249 29.9735C176.785 24.6803 203.03 -1.45455 182.078 0.75092C177.226 6.26461 164.214 40.4495 158.149 38.9057C157.377 34.4947 157.597 27.768 155.943 23.357C153.186 15.7481 150.319 17.5125 148.003 26.1139C145.247 36.3693 146.46 48.72 145.026 59.3063C137.638 59.196 143.482 53.3515 139.953 51.146C133.778 47.3967 132.786 52.9104 132.345 57.6522C131.573 66.2535 135.212 74.7446 134.44 84.3384C133.668 93.7116 132.896 124.147 117.899 118.854C118.23 110.253 119.443 102.644 121.979 95.2555C123.082 92.0576 126.721 84.4487 125.287 81.1405C121.648 72.2083 119.884 84.6693 115.583 83.5665C105.438 81.0302 123.523 42.8755 123.854 36.1488C119.663 34.4947 115.914 37.031 113.598 39.3467C109.297 30.5248 111.613 18.2845 107.202 8.9112C105.989 8.58038 104.556 8.35985 103.232 8.58039C102.13 16.5201 101.578 25.342 102.019 33.2817C102.35 39.6775 108.084 52.0282 102.35 56.6597C99.9241 54.5645 96.7262 53.572 93.418 54.2337C90.22 63.1658 97.7186 69.672 100.696 77.0603C103.673 84.6692 103.894 92.7192 102.791 101.21C90.8817 102.534 87.1324 85.3308 74.1201 85.9925C71.1427 97.3507 94.1899 111.135 98.27 122.383C101.137 130.543 101.909 155.134 95.9543 161.751C95.6234 165.39 95.7337 173.44 95.6234 177.079C101.799 177.961 111.944 180.387 115.362 176.307C118.891 172.006 119.332 162.302 123.192 157.119C129.698 148.518 141.718 141.57 150.099 134.182C154.73 130.102 159.582 126.904 160.575 120.839C162.008 111.355 156.715 111.576 150.871 116.318C142.931 122.824 140.946 142.563 127.382 138.483C127.493 122.824 138.63 110.694 145.357 97.7918C148.996 90.8445 150.429 84.1178 156.384 78.2733C159.362 75.4062 175.462 65.4816 167.522 61.1809C164.986 63.9377 161.457 64.5994 157.708 63.6069C157.708 58.6446 162.118 52.6899 164.655 48.8303C168.955 42.3242 171.161 36.5899 174.249 29.9735Z" fill="#2C4BAC"/>
<path d="M126.389 61.5121C125.837 58.0936 115.251 38.7957 126.72 43.5374C128.594 47.5073 130.248 69.121 134.108 69.2313C135.321 66.8052 136.313 62.9456 137.968 60.7402C140.835 56.8806 142.158 58.3141 142.048 63.6073C141.937 70.0031 139.181 76.7299 138.188 83.0155C142.378 84.1182 140.063 79.8175 142.489 79.2661C146.679 78.1634 146.238 81.4716 145.687 84.2285C144.694 89.301 141.165 93.4914 140.063 99.1154C138.96 104.629 134.328 122.052 143.812 121.611C145.025 116.649 145.576 112.128 145.356 107.496C145.246 105.511 144.474 100.549 145.797 98.8948C149.326 94.4839 148.333 101.762 150.98 101.872C157.155 102.093 153.296 77.2812 154.178 73.5319C156.824 73.3113 158.589 75.4066 159.471 77.0607C163.441 72.76 164.102 65.3717 168.183 60.7402C168.954 60.7402 169.837 60.8504 170.498 61.1812C169.837 65.923 168.624 70.9956 167.08 75.5168C165.757 79.1558 160.463 85.2209 163 88.7496C164.764 87.9777 166.639 87.9778 168.513 88.86C168.844 94.4839 163.441 96.91 160.574 100.659C157.596 104.519 156.163 109.04 155.391 114.113C161.897 116.869 166.859 107.717 174.248 110.253C174.027 116.759 161.787 121.501 157.155 124.368C148.444 129.772 148.002 136.608 148.002 146.423C148.002 150.172 148.002 153.921 147.672 157.671C147.01 163.405 144.584 162.964 139.952 162.964C139.732 158.222 140.173 153.37 139.401 148.739C138.629 143.997 135.762 141.24 132.674 137.932C129.035 134.072 125.727 129.441 122.97 125.03C120.985 121.942 118.78 119.295 119.221 115.656C119.993 110.033 122.97 111.025 125.507 114.664C128.925 119.737 126.83 131.315 135.211 131.205C137.747 122.273 133.446 113.451 131.682 104.96C130.8 100.439 131.02 96.3585 128.594 92.0579C127.381 89.8524 119.772 81.5819 125.065 80.4791C126.058 82.464 127.933 83.4565 130.248 83.4565C131.131 80.5894 129.587 76.5093 128.705 73.8627C127.271 69.4517 127.05 65.8128 126.389 61.5121Z" fill="#357AA9"/>
<path d="M165.535 195.826C162.006 186.563 155.059 182.483 147.671 176.418C137.195 167.927 121.867 167.596 108.523 166.934C93.5262 166.163 82.7194 152.599 67.9427 149.401C53.6071 146.203 33.7579 148.739 21.0764 156.017C3.8737 166.052 -6.05093 185.681 -5.83038 204.869C15.673 208.508 37.3969 207.515 59.2311 206.964C138.849 210.713 165.535 195.826 165.535 195.826Z" fill="#92B2C5"/>
<path d="M150.097 178.292C153.185 181.931 155.059 186.122 153.295 190.312C148.774 201.009 115.802 202.332 106.539 201.67C94.4088 200.788 79.9629 196.157 88.7848 181.49C86.028 184.357 84.0431 187.886 81.7273 190.974C80.0732 193.179 78.6396 196.708 76.3239 198.252C72.2438 201.009 66.6198 202.994 61.878 204.207C52.5048 206.633 41.5877 205.089 32.1041 204.317C22.5103 203.545 11.7035 202.442 3.32269 197.039C3.32269 197.039 -5.05811 191.635 7.40282 167.706C-1.19853 178.072 -5.83003 191.525 -5.71976 204.758C15.7836 208.397 37.5075 207.405 59.3417 206.853C138.959 210.492 165.646 195.605 165.646 195.605C162.448 187.555 156.603 183.365 150.097 178.292Z" fill="#7A96A5"/>
<path d="M243.609 195.826C240.08 186.563 233.133 182.483 225.745 176.418C215.269 167.927 199.941 167.596 186.598 166.934C171.6 166.163 160.794 152.599 146.017 149.401C131.681 146.203 111.832 148.739 99.1506 156.017C81.9479 166.052 72.0233 185.681 72.2438 204.869C93.7472 208.508 115.471 207.515 137.305 206.964C216.813 210.713 243.609 195.826 243.609 195.826Z" fill="#92B2C5"/>
<path d="M228.061 178.292C231.149 181.931 233.023 186.122 231.259 190.312C226.738 201.009 193.766 202.332 184.503 201.67C172.373 200.788 157.927 196.157 166.749 181.49C163.992 184.357 162.007 187.886 159.691 190.974C158.037 193.179 156.604 196.708 154.288 198.252C150.208 201.009 144.584 202.994 139.842 204.207C130.469 206.633 119.552 205.089 110.068 204.317C100.474 203.545 89.6674 202.442 81.2866 197.039C81.2866 197.039 72.9058 191.635 85.3667 167.706C76.7653 178.072 72.1338 191.525 72.2441 204.758C93.7475 208.397 115.471 207.405 137.306 206.853C216.923 210.492 243.609 195.605 243.609 195.605C240.412 187.555 234.567 183.365 228.061 178.292Z" fill="#7A96A5"/>
</svg>
