<svg width="1085" height="1620" viewBox="0 0 1085 1620" fill="none" xmlns="http://www.w3.org/2000/svg">
<path opacity="0.4" d="M651.909 0.798828C701.373 249.51 311.099 634.764 202.165 523.16C-240.035 70.1208 570.47 -289.606 545.665 567.014C538.339 819.998 1073.05 977.969 1050.81 608.03C1034.04 328.901 446.484 -101.417 500.623 921.456C512.369 1143.38 244.144 1246.83 57.2667 982.971C-176.588 652.782 372.62 231.991 579.512 1191.52C641.038 1476.87 1083.54 1638.99 1083.54 1191.52C1083.54 711.184 202.567 963.198 700.134 1596.46" stroke="url(#paint0_linear)" stroke-dasharray="20 20"/>
<g clip-path="url(#clip0)">
<path d="M730.216 1573.34C730.683 1572.43 730.604 1571.4 730.195 1570.54C730.311 1569.57 730.055 1568.57 729.132 1567.81C728.272 1567.11 727.413 1566.4 726.553 1565.69C725.043 1564.45 722.677 1564.06 721.207 1565.69C714.532 1573.12 707.553 1580.23 700.317 1587.07C694.937 1582.05 689.492 1577.09 684.086 1572.13C682.189 1570.38 679.443 1570.93 678.249 1573.01C676.51 1573.87 675.101 1574.99 673.935 1576.91C673.38 1577.83 673.424 1578.98 673.935 1579.9C677.425 1586.16 684.171 1591.66 689.717 1596.72C688.975 1597.39 688.239 1598.06 687.481 1598.71C680.009 1605.13 674.969 1609.2 684.32 1615.78C684.446 1615.87 684.575 1615.85 684.703 1615.9C684.882 1615.98 685.054 1616.04 685.252 1616.07C685.314 1616.07 685.372 1616.08 685.433 1616.08C685.625 1616.1 685.814 1616.14 686.009 1616.11C691.036 1615.12 695.712 1611.18 699.954 1606.84C704.086 1610.92 708.486 1614.81 713.325 1617.12C714.477 1617.67 715.85 1617.34 716.737 1616.58C718.224 1616.69 719.58 1615.76 720.261 1614.44C720.361 1614.37 720.426 1614.34 720.535 1614.27C722.697 1612.92 722.895 1610.23 721.295 1608.38C717.683 1604.19 713.843 1600.21 709.928 1596.3C716.976 1589.41 725.778 1581.99 730.216 1573.34Z" fill="#3B5295"/>
</g>
<defs>
<linearGradient id="paint0_linear" x1="580.633" y1="0.798828" x2="580.633" y2="1825.47" gradientUnits="userSpaceOnUse">
<stop stop-color="white" stop-opacity="0"/>
<stop offset="0.0549244" stop-color="white"/>
<stop offset="1" stop-color="white"/>
</linearGradient>
<clipPath id="clip0">
<rect width="57" height="57" fill="white" transform="translate(673.535 1562.5)"/>
</clipPath>
</defs>
</svg>
