<svg width="1021" height="2475" viewBox="0 0 1021 2475" fill="none" xmlns="http://www.w3.org/2000/svg">
<path opacity="0.4" d="M618.508 0.986206C664.553 308.037 301.256 783.659 199.852 645.877C-211.781 86.5688 542.698 -357.538 519.608 700.017C512.788 1012.34 1010.54 1207.37 989.835 750.654C974.224 406.051 427.283 -125.206 477.679 1137.6C488.614 1411.58 238.929 1539.3 64.9699 1213.54C-152.72 805.904 501.5 320.5 520.5 1568C520.5 1922 1020.3 2023.44 1020.3 1471.01C1020.3 878.005 398 1178 448 2052C461.333 2210.5 428 2515.8 188 2469C-112 2410.5 -6 1993.22 188 1951C358 1914 579.525 2017.73 626 2198" stroke="url(#paint0_linear)" stroke-dasharray="20 20"/>
<path d="M656.763 2195.78C657.198 2194.66 657.124 2193.38 656.743 2192.32C656.851 2191.13 656.613 2189.89 655.754 2188.95C654.953 2188.09 654.154 2187.21 653.353 2186.33C651.947 2184.8 649.745 2184.32 648.377 2186.33C642.163 2195.51 635.666 2204.29 628.931 2212.73C623.923 2206.53 618.854 2200.41 613.822 2194.29C612.056 2192.12 609.5 2192.8 608.388 2195.37C606.769 2196.43 605.458 2197.82 604.372 2200.19C603.856 2201.32 603.897 2202.74 604.372 2203.88C607.621 2211.61 613.901 2218.4 619.063 2224.64C618.373 2225.47 617.688 2226.3 616.982 2227.1C610.026 2235.03 605.335 2240.05 614.039 2248.17C614.157 2248.29 614.277 2248.26 614.396 2248.32C614.563 2248.42 614.723 2248.5 614.907 2248.53C614.965 2248.53 615.019 2248.54 615.075 2248.54C615.254 2248.57 615.43 2248.62 615.612 2248.58C620.291 2247.36 624.644 2242.5 628.593 2237.14C632.439 2242.17 636.535 2246.98 641.04 2249.83C642.112 2250.51 643.39 2250.1 644.216 2249.16C645.6 2249.3 646.862 2248.15 647.496 2246.52C647.589 2246.43 647.65 2246.4 647.751 2246.31C649.764 2244.64 649.948 2241.32 648.459 2239.04C645.096 2233.87 641.522 2228.95 637.877 2224.13C644.438 2215.62 652.632 2206.46 656.763 2195.78Z" fill="#3B5295"/>
<defs>
<linearGradient id="paint0_linear" x1="552.158" y1="0.986206" x2="552.158" y2="2253.67" gradientUnits="userSpaceOnUse">
<stop stop-color="white" stop-opacity="0"/>
<stop offset="0.0549244" stop-color="white"/>
<stop offset="1" stop-color="white"/>
</linearGradient>
</defs>
</svg>
