<svg width="1021" height="2629" viewBox="0 0 1021 2629" fill="none" xmlns="http://www.w3.org/2000/svg">
<path opacity="0.4" d="M618.508 0.986206C664.553 308.037 301.256 783.659 199.852 645.877C-211.781 86.5688 542.698 -357.538 519.608 700.017C512.788 1012.34 1010.54 1207.37 989.835 750.654C974.225 406.051 427.283 -125.206 477.68 1137.6C488.614 1411.58 238.93 1539.3 64.97 1213.54C-152.72 805.904 526 535.5 545 1783C545 2137 1031 2041 1020.3 1471.01C989 918 398 1178 448 2052C461.333 2210.5 428 2515.8 188 2469C-112 2410.5 -5.99988 1993.22 188 1951C358 1914 527.525 2023.23 574 2203.5C596.5 2267 530 2524 738 2589C786.5 2605.33 922.6 2583.7 969 2510.5C1027 2419 925.431 2284 846 2284C765.5 2284 498 2306.5 399.5 2628.5" stroke="url(#paint0_linear)" stroke-dasharray="20 20"/>
<defs>
<linearGradient id="paint0_linear" x1="552.159" y1="0.986206" x2="552.159" y2="2639.5" gradientUnits="userSpaceOnUse">
<stop stop-color="white" stop-opacity="0"/>
<stop offset="0.0549244" stop-color="white"/>
<stop offset="0.744792" stop-color="white"/>
<stop offset="0.916667" stop-color="white"/>
<stop offset="1" stop-color="white" stop-opacity="0"/>
</linearGradient>
</defs>
</svg>
