<svg width="1019" height="2655" viewBox="0 0 1019 2655" fill="none" xmlns="http://www.w3.org/2000/svg">
<path opacity="0.4" d="M347 2654.5C445.5 2332.5 692 2327.5 772.5 2327.5C851.931 2327.5 931.592 2401.47 890 2501.5C850.5 2596.5 734.499 2702.42 617 2615.5C507.5 2534.5 567.5 2138 567.5 2076C567.5 1822 369 1719.28 175 1761.5C-19 1803.72 -101 2334 199 2392.5C439 2439.3 459.333 2046.5 446 1888C396 1014 987 754 1018.3 1307.01C1029 1877 543 1973 543 1619C524 371.5 -154.719 641.904 62.9702 1049.54C236.93 1375.3 486.613 1247.58 475.679 973.6C425.283 -289.206 972.224 242.051 987.835 586.654C1008.54 1043.37 517.608 852 517.608 536.017C517.608 -356.5 -247.5 186 139 370.5C281.311 438.434 542.406 242.562 606.267 0.5" stroke="url(#paint0_linear)" stroke-dasharray="20 20"/>
<defs>
<linearGradient id="paint0_linear" x1="546" y1="-40" x2="404" y2="2738" gradientUnits="userSpaceOnUse">
<stop stop-color="white" stop-opacity="0"/>
<stop offset="0.0781609" stop-color="white"/>
<stop offset="0.744792" stop-color="white"/>
<stop offset="0.916667" stop-color="white"/>
<stop offset="1" stop-color="white" stop-opacity="0"/>
</linearGradient>
</defs>
</svg>
