<svg width="93" height="47" viewBox="0 0 93 47" fill="none" xmlns="http://www.w3.org/2000/svg">
<path d="M4.69278 27.4092C6.29121 23.1848 9.14558 20.4447 11.9999 16.9053C18.622 8.57063 28.2126 0.464255 39.5157 0.235908C45.4528 0.121734 50.9332 1.03511 56.1852 4.00362C59.9529 6.17292 61.3229 9.71231 64.634 11.9958C68.5159 14.7359 73.4253 16.2202 77.1931 19.3029C81.5317 22.9565 85.2994 28.8935 88.6104 33.3463L91.0082 37.3424C96.2602 41.5668 88.1538 43.3936 85.0711 44.307C77.8781 46.3621 70.0002 45.9054 62.4648 46.1337C50.8191 46.3621 38.9449 46.0195 27.4134 44.7636C21.0196 44.0786 14.7401 42.9368 8.57471 41.1101C5.72037 40.3109 2.866 40.1967 0.125834 39.055C0.0116599 35.8581 3.43687 30.7203 4.69278 27.4092Z" fill="#92B2C5"/>
</svg>
