<svg width="45" height="45" viewBox="0 0 45 45" fill="none" xmlns="http://www.w3.org/2000/svg">
<path d="M22.5 43.6501C26.6831 43.6501 30.7722 42.4097 34.2503 40.0857C37.7284 37.7617 40.4393 34.4585 42.04 30.5938C43.6408 26.7292 44.0597 22.4767 43.2436 18.374C42.4275 14.2713 40.4132 10.5027 37.4553 7.5448C34.4974 4.58692 30.7288 2.57258 26.6261 1.7565C22.5235 0.940422 18.2709 1.35926 14.4063 2.96005C10.5416 4.56085 7.23844 7.27169 4.91442 10.7498C2.59043 14.2279 1.35001 18.317 1.35001 22.5001C1.35001 28.1094 3.5783 33.489 7.54471 37.4554C11.5111 41.4218 16.8907 43.6501 22.5 43.6501Z" fill="white"/>
<path d="M27.3192 21.6644C28.4514 21.0515 29.1599 19.9723 28.9944 18.1742C28.7716 15.717 26.7746 14.893 24.2537 14.6583L24.2532 11.25H22.3L22.2994 14.5688C21.7855 14.5688 21.2617 14.5795 20.7401 14.5906L20.7397 11.2504L18.7883 11.2503L18.7879 14.6578C18.365 14.6669 17.9497 14.6757 17.5441 14.6757V14.6656L14.85 14.6644L14.8504 16.8799C14.8504 16.8799 16.2928 16.8511 16.269 16.8791C17.0599 16.8796 17.3181 17.3676 17.3924 17.7887L17.393 21.6716V27.1257C17.3581 27.39 17.2116 27.8123 16.6586 27.8131C16.6838 27.8366 15.2378 27.8128 15.2378 27.8128L14.8504 30.2902H17.3917C17.8653 30.2908 18.3306 30.2986 18.7871 30.3025L18.7888 33.7494L20.7397 33.75L20.7392 30.3392C21.2759 30.3508 21.794 30.3559 22.3001 30.3552L22.2995 33.75H24.2527L24.2538 30.3088C27.5369 30.1085 29.8354 29.2298 30.1212 25.9541C30.3515 23.3168 29.1832 22.1396 27.3192 21.6644ZM20.7868 17.0294C21.8884 17.0294 25.3529 16.6568 25.3534 19.1016C25.3529 21.4454 21.8895 21.1716 20.7868 21.1716V17.0294ZM20.786 27.8299L20.7868 23.2628C22.1104 23.2623 26.2616 22.8581 26.2622 25.5453C26.2627 28.1223 22.1104 27.8289 20.786 27.8299Z" fill="#F6941A"/>
<path d="M22.5 39.1501C31.6956 39.1501 39.15 31.6956 39.15 22.5001C39.15 13.3046 31.6956 5.8501 22.5 5.8501C13.3045 5.8501 5.85001 13.3046 5.85001 22.5001C5.85001 31.6956 13.3045 39.1501 22.5 39.1501Z" stroke="#657786" stroke-width="4"/>
<path d="M22.5 42.75C33.6838 42.75 42.75 33.6838 42.75 22.5C42.75 11.3162 33.6838 2.25 22.5 2.25C11.3162 2.25 2.25 11.3162 2.25 22.5C2.25 33.6838 11.3162 42.75 22.5 42.75Z" stroke="#283947" stroke-width="4"/>
<path d="M31.7858 14.8638L36.9 9.8999M35.5792 36.4499L29.5544 30.6216L35.5792 36.4499ZM13.2652 14.8638L8.10001 9.8999L13.2652 14.8638ZM9.47188 36.4499L15.4966 30.6216L9.47188 36.4499Z" stroke="white" stroke-width="4"/>
</svg>
