<svg width="55" height="33" viewBox="0 0 55 33" fill="none" xmlns="http://www.w3.org/2000/svg">
<path d="M51.5391 4.0605C49.3677 1.60322 46.4361 0.375713 42.7418 0.375713C40.5705 0.375713 38.6456 0.82436 36.9694 1.71939C35.3229 2.59869 34.009 3.74327 33.0243 5.1563V0.661659H32.9705H21.772H21.7674V17.8584C21.7674 19.688 21.2908 21.1249 20.34 22.1733C19.3869 23.2218 18.0919 23.7448 16.4552 23.7448C14.8557 23.7448 13.5701 23.2218 12.5983 22.1733C11.6266 21.1249 11.1406 19.688 11.1406 17.8584V0.661659H0V19.2882C0 23.5148 1.07642 26.8578 3.2269 29.3152C5.37974 31.7702 8.32295 33 12.0543 33C14.2257 33 16.1506 32.5514 17.8269 31.6563C19.5008 30.7635 20.8166 29.5919 21.7674 28.1435V32.7141H21.772H32.9705H33.0243V14.5025C33.1727 13.1481 33.6311 12.0486 34.4004 11.2024C35.3513 10.1563 36.6648 9.63078 38.3409 9.63078C39.9405 9.63078 41.2168 10.1563 42.17 11.2024C43.1208 12.251 43.5975 13.6877 43.5975 15.5173V32.7141H54.7961V14.0318C54.7961 9.84237 53.7104 6.51789 51.5391 4.0605Z" fill="white"/>
</svg>
