<svg width="33" height="33" viewBox="0 0 33 33" fill="none" xmlns="http://www.w3.org/2000/svg">
<path d="M17.8288 17.2788L23.6148 23.0648C23.7254 23.176 23.8111 23.3095 23.8661 23.4565C23.9211 23.6034 23.9441 23.7603 23.9337 23.9169C23.9233 24.0734 23.8797 24.2259 23.8057 24.3642C23.7318 24.5026 23.6292 24.6236 23.5048 24.7192C21.9607 25.932 20.1063 26.6854 18.1538 26.8932C16.2014 27.1011 14.2299 26.7549 12.4651 25.8943C10.7003 25.0337 9.21354 23.6935 8.17501 22.0272C7.13648 20.3609 6.5882 18.4358 6.59294 16.4723C6.59768 14.5089 7.15524 12.5865 8.2018 10.9252C9.24835 9.26391 10.7416 7.93092 12.5105 7.07886C14.2795 6.2268 16.2526 5.89012 18.204 6.10736C20.1554 6.32459 22.0062 7.08697 23.5444 8.3072C23.6629 8.4045 23.7596 8.52569 23.8281 8.66285C23.8966 8.80002 23.9355 8.95009 23.9421 9.10328C23.9488 9.25647 23.9231 9.40934 23.8667 9.55192C23.8103 9.69451 23.7244 9.82361 23.6148 9.9308L17.8244 15.7212C17.7226 15.8233 17.6419 15.9444 17.5868 16.0776C17.5308 16.2175 17.5024 16.3669 17.5032 16.5176C17.5015 16.6688 17.5315 16.8187 17.5912 16.9576C17.6452 17.0914 17.7261 17.2127 17.8288 17.314V17.2788ZM16.5 0C13.2366 0 10.0465 0.967708 7.3331 2.78075C4.61969 4.59379 2.50484 7.17074 1.256 10.1857C0.00714922 13.2007 -0.319606 16.5183 0.31705 19.719C0.953706 22.9197 2.52518 25.8597 4.83275 28.1673C7.14031 30.4748 10.0803 32.0463 13.281 32.683C16.4817 33.3196 19.7993 32.9929 22.8143 31.744C25.8293 30.4952 28.4062 28.3803 30.2193 25.6669C32.0323 22.9535 33 19.7634 33 16.5C33 12.1239 31.2616 7.92709 28.1673 4.83274C25.0729 1.73839 20.8761 0 16.5 0V0Z" fill="#69E2DC"/>
</svg>
