<svg width="319" height="171" viewBox="0 0 319 171" fill="none" xmlns="http://www.w3.org/2000/svg">
<path fill-rule="evenodd" clip-rule="evenodd" d="M315.831 158C312.636 77.9313 246.716 14 165.863 14C85.0111 14 19.0906 77.9313 15.8959 158H12.8936C16.0901 76.2739 83.354 11 165.863 11C248.373 11 315.637 76.2739 318.833 158H315.831Z" fill="#141E85"/>
<g filter="url(#filter0_d)">
<path fill-rule="evenodd" clip-rule="evenodd" d="M270.683 52.5126C243.291 26.7701 206.419 11 165.863 11C83.354 11 16.0901 76.2739 12.8936 158H15.8959C19.0906 77.9313 85.0111 14 165.863 14C205.602 14 241.733 29.4437 268.583 54.6566L270.683 52.5126Z" fill="#00D395"/>
</g>
<circle cx="268.569" cy="52.4139" r="12.619" fill="url(#paint0_radial)"/>
<g filter="url(#filter1_f)">
<circle cx="268.434" cy="52.2792" r="6.80944" fill="#3377FF" fill-opacity="0.75"/>
</g>
<circle cx="268.475" cy="52.3193" r="2.38378" fill="#87AFFF"/>
<circle cx="268.569" cy="52.4137" r="15.7975" fill="url(#paint1_radial)"/>
<g filter="url(#filter2_f)">
<circle cx="268.4" cy="52.2448" r="8.52461" fill="#6BF8CE" fill-opacity="0.76"/>
</g>
<circle cx="268.451" cy="52.2948" r="2.98421" fill="#A9FFE6"/>
<defs>
<filter id="filter0_d" x="0.893555" y="0" width="281.789" height="171" filterUnits="userSpaceOnUse" color-interpolation-filters="sRGB">
<feFlood flood-opacity="0" result="BackgroundImageFix"/>
<feColorMatrix in="SourceAlpha" type="matrix" values="0 0 0 0 0 0 0 0 0 0 0 0 0 0 0 0 0 0 127 0" result="hardAlpha"/>
<feOffset dy="1"/>
<feGaussianBlur stdDeviation="6"/>
<feComposite in2="hardAlpha" operator="out"/>
<feColorMatrix type="matrix" values="0 0 0 0 0 0 0 0 0 0.827451 0 0 0 0 0.584314 0 0 0 1 0"/>
<feBlend mode="normal" in2="BackgroundImageFix" result="effect1_dropShadow"/>
<feBlend mode="normal" in="SourceGraphic" in2="effect1_dropShadow" result="shape"/>
</filter>
<filter id="filter1_f" x="255.625" y="39.4697" width="25.6189" height="25.6189" filterUnits="userSpaceOnUse" color-interpolation-filters="sRGB">
<feFlood flood-opacity="0" result="BackgroundImageFix"/>
<feBlend mode="normal" in="SourceGraphic" in2="BackgroundImageFix" result="shape"/>
<feGaussianBlur stdDeviation="3" result="effect1_foregroundBlur"/>
</filter>
<filter id="filter2_f" x="253.875" y="37.7202" width="29.0492" height="29.0492" filterUnits="userSpaceOnUse" color-interpolation-filters="sRGB">
<feFlood flood-opacity="0" result="BackgroundImageFix"/>
<feBlend mode="normal" in="SourceGraphic" in2="BackgroundImageFix" result="shape"/>
<feGaussianBlur stdDeviation="3" result="effect1_foregroundBlur"/>
</filter>
<radialGradient id="paint0_radial" cx="0" cy="0" r="1" gradientUnits="userSpaceOnUse" gradientTransform="translate(268.569 52.4139) rotate(90) scale(12.619)">
<stop stop-color="#4382FF"/>
<stop offset="1" stop-color="#5577E4" stop-opacity="0"/>
</radialGradient>
<radialGradient id="paint1_radial" cx="0" cy="0" r="1" gradientUnits="userSpaceOnUse" gradientTransform="translate(268.569 52.4137) rotate(90) scale(15.7975)">
<stop stop-color="#01A675"/>
<stop offset="1" stop-color="#01A675" stop-opacity="0"/>
</radialGradient>
</defs>
</svg>
