<svg width="151" height="229" viewBox="0 0 151 229" fill="none" xmlns="http://www.w3.org/2000/svg">
<path d="M59.5611 35.924C58.5686 29.4178 38.3885 -7.08272 60.333 1.84945C63.7515 9.34807 67.0597 50.3699 74.2275 50.5905C76.5432 46.0692 78.4179 38.6809 81.5055 34.4904C86.9089 27.2124 89.4452 29.9692 89.2247 40.0041C89.0041 52.024 83.711 64.926 81.9466 76.8356C89.9966 79.0411 85.5857 70.8808 89.9966 69.6678C97.826 67.4623 97.1644 73.8582 96.1719 79.1513C94.2973 88.7451 87.6809 96.6848 85.5857 107.271C83.4905 117.637 74.6686 150.719 92.6432 149.837C95.0692 140.464 96.0617 131.752 95.6206 123.04C95.4 119.291 93.9665 109.918 96.5028 106.72C103.229 98.2287 101.245 112.233 106.207 112.454C118.006 112.895 110.508 65.9185 112.272 58.6404C117.344 58.1993 120.542 62.1691 122.417 65.3671C129.916 57.2068 131.239 43.2021 138.848 34.4904C140.281 34.4904 141.936 34.8213 143.259 35.3726C141.936 44.3048 139.84 54.0089 136.753 62.5C134.327 69.337 124.292 80.9157 129.033 87.6424C132.342 86.0986 135.981 86.0985 139.399 87.7526C140.061 98.4492 129.916 103.081 124.402 110.138C118.778 117.416 115.911 126.128 114.588 135.611C126.938 140.794 136.312 123.371 150.206 128.333C149.875 140.684 126.607 149.727 117.786 155.13C101.245 165.275 100.473 178.398 100.473 196.924C100.473 204.091 100.583 211.149 99.811 218.206C98.598 229.124 94.0767 228.241 85.1446 228.241C84.7035 219.309 85.4754 210.156 84.1521 201.335C82.7185 192.292 77.3151 187.22 71.4706 180.934C64.6337 173.656 58.348 164.944 53.0549 156.453C49.4159 150.609 45.0049 145.536 45.9974 138.699C47.4309 128.003 53.0549 129.877 57.907 136.935C64.4131 146.418 60.333 168.473 76.3227 168.252C81.0644 151.27 72.9042 134.619 69.7062 118.629C67.9419 110.028 68.6035 102.309 63.8617 94.0383C61.546 89.9581 47.2104 74.2993 57.2453 72.0938C59.12 75.9534 62.759 77.7177 67.0597 77.828C68.6035 72.4246 65.7364 64.5952 64.1926 59.7432C61.3254 51.0315 60.8843 43.974 59.5611 35.924Z" fill="#357AA9"/>
<path d="M53.0551 55.5073C52.0626 50.7655 56.1427 20.3299 43.4613 32.2395C43.1304 38.3046 51.7318 67.4168 46.8797 69.4018C44.1229 66.8655 40.8147 62.3443 37.6167 60.2491C31.9928 56.61 31.0003 59.2566 33.7572 66.0936C37.0654 74.2538 44.1229 81.7524 48.5338 89.4716C43.5715 93.1106 44.4537 86.2737 41.0352 86.7147C35.0804 87.2661 37.1756 91.4565 39.3811 94.875C43.2407 100.94 49.8571 104.689 54.1578 111.416C58.3482 118.033 73.2351 138.433 60.6639 142.513C56.5838 136.779 53.4962 131.045 51.5112 124.869C50.629 122.223 49.1955 115.386 46.5489 113.842C39.7119 109.872 44.7845 118.915 41.366 120.348C33.3161 123.767 26.038 89.4716 22.9503 84.9504C19.3113 85.9429 18.2086 89.5819 17.7675 92.2284C10.4894 88.5894 5.85792 79.3264 -1.75097 75.3566C-2.74343 75.6874 -3.7359 76.349 -4.50781 77.1209C-1.1996 82.8552 2.88053 89.0305 7.1812 93.9928C10.71 98.0729 20.6346 103.366 19.201 109.211C16.5545 108.99 14.0182 109.983 12.0332 112.078C14.4593 119.576 22.6195 120.128 28.3538 123.436C34.1983 126.965 38.3887 132.148 41.9174 138.323C34.8599 145.16 23.7223 135.676 15.4517 142.734C19.201 151.666 41.366 149.13 49.6366 154.533C55.7016 158.393 68.4934 174.272 67.942 181.66C69.5961 184.197 73.6762 189.49 75.4406 191.916C79.9618 189.38 87.9016 185.851 88.0118 181.44C88.1221 176.808 83.4906 170.192 83.4906 164.899C83.4906 155.856 87.9016 145.27 89.6659 136.228C90.6584 131.265 92.3125 126.634 89.7762 122.113C85.9166 115.165 82.6084 117.922 81.0646 124.098C79.0797 132.368 87.7913 146.373 76.7639 150.563C68.9345 140.087 70.1475 126.524 68.1626 114.614C67.0598 108.218 64.6338 103.035 65.6263 96.1983C66.1776 92.7798 71.8016 78.2237 64.4133 79.3264C64.0824 82.4141 62.0975 84.6196 59.2304 85.8326C56.6941 82.5244 56.5838 76.4593 56.3633 72.5997C55.9222 66.4244 54.3783 61.4621 53.0551 55.5073Z" fill="#2C4BAC"/>
</svg>
