<svg width="62" height="61" viewBox="0 0 62 61" fill="none" xmlns="http://www.w3.org/2000/svg">
<rect opacity="0.2" x="10" width="52" height="52" rx="6" fill="#4382FF"/>
<rect opacity="0.1" y="9" width="52" height="52" rx="6" fill="#4382FF"/>
<path d="M47.2917 23.9583H25.7083C24.0055 23.9583 22.625 25.3387 22.625 27.0416V37.8333C22.625 39.5361 24.0055 40.9166 25.7083 40.9166H47.2917C48.9945 40.9166 50.375 39.5361 50.375 37.8333V27.0416C50.375 25.3387 48.9945 23.9583 47.2917 23.9583Z" stroke="white" stroke-width="2" stroke-linecap="round" stroke-linejoin="round"/>
<path d="M28.7917 23.9582V17.7915C28.7898 15.8799 29.4982 14.0358 30.7795 12.6172C32.0607 11.1985 33.8234 10.3066 35.7253 10.1145C37.6272 9.92237 39.5327 10.4438 41.0718 11.5776C42.6109 12.7113 43.6738 14.3765 44.0542 16.2499" stroke="white" stroke-width="2" stroke-linecap="round" stroke-linejoin="round"/>
</svg>
