<svg width="61" height="59" viewBox="0 0 61 59" fill="none" xmlns="http://www.w3.org/2000/svg">
<rect width="52" height="52" rx="6" fill="#E53737" fill-opacity="0.2"/>
<rect opacity="0.23" x="9" y="7" width="52" height="52" rx="6" fill="#5B4897"/>
<path fill-rule="evenodd" clip-rule="evenodd" d="M35.9571 17.0429C36.3476 17.4334 36.3476 18.0666 35.9571 18.4571L18.4571 35.9571C18.0666 36.3476 17.4334 36.3476 17.0429 35.9571C16.6524 35.5666 16.6524 34.9334 17.0429 34.5429L34.5429 17.0429C34.9334 16.6524 35.5666 16.6524 35.9571 17.0429Z" fill="#E53737"/>
<path fill-rule="evenodd" clip-rule="evenodd" d="M17.0429 17.0429C17.4334 16.6524 18.0666 16.6524 18.4571 17.0429L35.9571 34.5429C36.3476 34.9334 36.3476 35.5666 35.9571 35.9571C35.5666 36.3476 34.9334 36.3476 34.5429 35.9571L17.0429 18.4571C16.6524 18.0666 16.6524 17.4334 17.0429 17.0429Z" fill="#E53737"/>
</svg>
