<svg width="62" height="61" viewBox="0 0 62 61" fill="none" xmlns="http://www.w3.org/2000/svg">
<path opacity="0.2" d="M56 9H16C12.6863 9 10 11.6863 10 15V55C10 58.3137 12.6863 61 16 61H56C59.3137 61 62 58.3137 62 55V15C62 11.6863 59.3137 9 56 9Z" fill="#4382FF"/>
<path opacity="0.1" d="M46 0H6C2.68629 0 0 2.68629 0 6V46C0 49.3137 2.68629 52 6 52H46C49.3137 52 52 49.3137 52 46V6C52 2.68629 49.3137 0 46 0Z" fill="#4382FF"/>
<path fill-rule="evenodd" clip-rule="evenodd" d="M50.2075 18.2929C50.598 18.6834 50.598 19.3166 50.2075 19.7071L47.9146 22L51.7075 25.7929C52.098 26.1834 52.098 26.8166 51.7075 27.2071L46.4575 32.4571C46.067 32.8476 45.4338 32.8476 45.0433 32.4571L41.2504 28.6642L36.4655 33.4491C37.0208 34.1314 37.4769 34.8907 37.819 35.7049C38.2915 36.8296 38.5368 38.0367 38.5409 39.2566C38.545 40.4765 38.3078 41.6852 37.8428 42.8131C37.3778 43.9409 36.6944 44.9657 35.8317 45.8283C34.9691 46.691 33.9443 47.3744 32.8165 47.8394C31.6886 48.3044 30.4799 48.5416 29.26 48.5375C28.0401 48.5334 26.833 48.2881 25.7083 47.8156C24.5835 47.3431 23.5634 46.6527 22.7066 45.7844L22.6991 45.7768C21.0141 44.0322 20.0818 41.6956 20.1029 39.2703C20.124 36.8449 21.0968 34.5249 22.8118 32.8099C24.5268 31.0949 26.8468 30.1221 29.2722 30.101C31.3674 30.0828 33.3964 30.7761 35.0346 32.0515L48.7933 18.2929C49.1838 17.9024 49.817 17.9024 50.2075 18.2929ZM46.5004 23.4142L42.6646 27.25L45.7504 30.3358L49.5862 26.5L46.5004 23.4142ZM34.3892 34.1358C33.0218 32.8151 31.1905 32.0844 29.2895 32.1009C27.3886 32.1174 25.5702 32.8799 24.226 34.2241C22.8818 35.5683 22.1193 37.3867 22.1028 39.2876C22.0863 41.1868 22.8157 43.0165 24.134 44.3835C24.8048 45.0623 25.603 45.602 26.4829 45.9717C27.3644 46.342 28.3105 46.5343 29.2667 46.5375C30.2229 46.5407 31.1702 46.3548 32.0542 45.9904C32.9382 45.6259 33.7414 45.0902 34.4175 44.4141C35.0936 43.738 35.6293 42.9348 35.9938 42.0508C36.3582 41.1668 36.5442 40.2195 36.5409 39.2633C36.5377 38.3071 36.3454 37.361 35.9751 36.4795C35.6127 35.6168 35.0867 34.8326 34.4265 34.1701C34.4139 34.159 34.4014 34.1476 34.3892 34.1358Z" fill="white"/>
</svg>
