<svg width="64" height="61" viewBox="0 0 64 61" fill="none" xmlns="http://www.w3.org/2000/svg">
<rect opacity="0.2" x="12" width="52" height="52" rx="6" fill="#4382FF"/>
<path fill-rule="evenodd" clip-rule="evenodd" d="M44.7929 8.79289C45.1834 8.40237 45.8166 8.40237 46.2071 8.79289L52.2071 14.7929C52.3946 14.9804 52.5 15.2348 52.5 15.5C52.5 15.7652 52.3946 16.0196 52.2071 16.2071L46.2071 22.2071C45.8166 22.5976 45.1834 22.5976 44.7929 22.2071C44.4024 21.8166 44.4024 21.1834 44.7929 20.7929L50.0858 15.5L44.7929 10.2071C44.4024 9.81658 44.4024 9.18342 44.7929 8.79289Z" fill="white"/>
<path fill-rule="evenodd" clip-rule="evenodd" d="M30.5 16.5C29.1739 16.5 27.9021 17.0268 26.9645 17.9645C26.0268 18.9021 25.5 20.1739 25.5 21.5V24.5C25.5 25.0523 25.0523 25.5 24.5 25.5C23.9477 25.5 23.5 25.0523 23.5 24.5V21.5C23.5 19.6435 24.2375 17.863 25.5503 16.5503C26.863 15.2375 28.6435 14.5 30.5 14.5H51.5C52.0523 14.5 52.5 14.9477 52.5 15.5C52.5 16.0523 52.0523 16.5 51.5 16.5H30.5Z" fill="white"/>
<path fill-rule="evenodd" clip-rule="evenodd" d="M31.2071 29.7929C31.5976 30.1834 31.5976 30.8166 31.2071 31.2071L25.9142 36.5L31.2071 41.7929C31.5976 42.1834 31.5976 42.8166 31.2071 43.2071C30.8166 43.5976 30.1834 43.5976 29.7929 43.2071L23.7929 37.2071C23.4024 36.8166 23.4024 36.1834 23.7929 35.7929L29.7929 29.7929C30.1834 29.4024 30.8166 29.4024 31.2071 29.7929Z" fill="white"/>
<path fill-rule="evenodd" clip-rule="evenodd" d="M51.5 26.5C52.0523 26.5 52.5 26.9477 52.5 27.5V30.5C52.5 32.3565 51.7625 34.137 50.4497 35.4497C49.137 36.7625 47.3565 37.5 45.5 37.5H24.5C23.9477 37.5 23.5 37.0523 23.5 36.5C23.5 35.9477 23.9477 35.5 24.5 35.5H45.5C46.8261 35.5 48.0979 34.9732 49.0355 34.0355C49.9732 33.0979 50.5 31.8261 50.5 30.5V27.5C50.5 26.9477 50.9477 26.5 51.5 26.5Z" fill="white"/>
<rect opacity="0.1" y="9" width="52" height="52" rx="6" fill="#4382FF"/>
</svg>
