<svg width="61" height="60" viewBox="0 0 61 60" fill="none" xmlns="http://www.w3.org/2000/svg">
<rect opacity="0.2" y="8" width="52" height="52" rx="6" fill="#4382FF"/>
<rect opacity="0.1" x="9" width="52" height="52" rx="6" fill="#4382FF"/>
<path fill-rule="evenodd" clip-rule="evenodd" d="M20.6667 25.5556C16.0029 25.5556 12.2222 29.3363 12.2222 34.0001C12.2222 38.6638 16.0029 42.4445 20.6667 42.4445H31.3333C35.9971 42.4445 39.7778 38.6638 39.7778 34.0001C39.7778 29.3363 35.9971 25.5556 31.3333 25.5556H20.6667ZM10.4445 34.0001C10.4445 28.3545 15.0211 23.7778 20.6667 23.7778H31.3333C36.9789 23.7778 41.5556 28.3545 41.5556 34.0001C41.5556 39.6456 36.9789 44.2223 31.3333 44.2223H20.6667C15.0211 44.2223 10.4445 39.6456 10.4445 34.0001Z" fill="white"/>
<path fill-rule="evenodd" clip-rule="evenodd" d="M31.3333 30.8889C29.6151 30.8889 28.2222 32.2818 28.2222 34C28.2222 35.7182 29.6151 37.1111 31.3333 37.1111C33.0516 37.1111 34.4445 35.7182 34.4445 34C34.4445 32.2818 33.0516 30.8889 31.3333 30.8889ZM26.4445 34C26.4445 31.2999 28.6333 29.1111 31.3333 29.1111C34.0334 29.1111 36.2222 31.2999 36.2222 34C36.2222 36.7 34.0334 38.8889 31.3333 38.8889C28.6333 38.8889 26.4445 36.7 26.4445 34Z" fill="white"/>
</svg>
