<svg width="103" height="66" viewBox="0 0 103 66" fill="none" xmlns="http://www.w3.org/2000/svg">
<path d="M40.8907 9.01362C40.8907 9.01362 65.3121 -1.30974 73.7254 0.372922C82.0932 2.05558 61.9922 16.4264 61.7648 19.5189C61.5374 22.6114 80.2287 37.7098 81.9113 42.0302C83.594 46.3505 54.352 39.6199 53.6244 39.6199C52.8967 39.6199 51.7143 60.9488 48.8493 62.4041C45.9842 63.8593 35.4334 42.0302 33.7508 41.0752C32.0681 40.1202 8.37437 45.8503 5.00904 43.9403C1.64372 42.0302 17.9701 25.9767 17.9701 25.9767C17.9701 25.9767 9.32941 19.0186 3.37187 18.7913C-2.58567 18.5639 0.5068 13.7432 13.6952 11.6058C26.7473 9.51385 40.8907 9.01362 40.8907 9.01362Z" fill="url(#paint0_linear)"/>
<path d="M75.0894 0.964844C74.5436 2.82942 71.4512 6.78594 65.6755 11.3337C60.2182 15.6086 60.3092 17.7005 61.719 19.5196C62.2647 16.4726 79.2733 4.05731 75.0894 0.964844ZM81.8655 42.0764C81.7745 41.8035 81.5926 41.4852 81.3197 41.1214C81.0014 41.4397 80.6376 41.7126 80.0464 41.849C76.3172 42.804 52.8509 37.4377 52.8509 37.4377C52.8509 37.4377 50.577 58.5392 48.5306 60.3128C46.4841 62.1319 35.3421 39.848 35.3421 39.848C35.3421 39.848 34.6145 39.4842 32.8409 39.1203C31.0672 38.7565 15.4685 41.5307 10.1931 43.0769C7.28257 43.941 5.3725 43.8045 4.46295 43.0769C4.46295 43.5317 4.55391 43.85 4.91773 44.0319C8.28305 45.942 31.9768 40.2118 33.6594 41.1668C35.3421 42.1219 45.8929 63.951 48.7579 62.4957C51.623 61.0405 52.8509 39.7116 53.5331 39.7116C54.3062 39.7116 83.5481 46.3967 81.8655 42.0764ZM17.5605 23.749C16.6054 23.1578 8.8288 18.701 4.14463 18.1098C2.55293 17.8824 1.50694 17.9734 0.779297 18.1553C1.23407 18.5191 2.05266 18.7465 3.28055 18.792C8.82879 19.0194 16.6509 24.9769 17.7424 25.8864C18.47 24.9314 18.3336 24.2493 17.5605 23.749Z" fill="#264FC2"/>
<path d="M73.8617 39.938C74.8914 39.938 75.7262 39.5715 75.7262 39.1194C75.7262 38.6673 74.8914 38.3008 73.8617 38.3008C72.8319 38.3008 71.9971 38.6673 71.9971 39.1194C71.9971 39.5715 72.8319 39.938 73.8617 39.938Z" fill="#2893A6"/>
<path d="M72.4518 39.5741C72.4518 39.1194 73.2705 38.7556 74.3164 38.7556C74.8622 38.7556 75.3169 38.8465 75.6808 39.0284C75.5898 38.6191 74.8167 38.3008 73.8617 38.3008C72.8157 38.3008 71.9971 38.6646 71.9971 39.1194C71.9971 39.3468 72.179 39.5287 72.4973 39.6651C72.4973 39.6196 72.4518 39.6196 72.4518 39.5741Z" fill="#264FC2"/>
<path d="M67.5403 34.7083C67.5403 34.7083 66.3579 33.9352 66.3579 34.5264C66.3579 35.1176 66.0396 35.4814 66.6763 35.4814C67.2675 35.5269 68.4044 35.0266 67.5403 34.7083Z" fill="#264FC2"/>
<path d="M25.2012 21.748C25.2012 21.748 21.9723 23.2033 23.7459 23.7945C25.565 24.3857 27.3841 23.5217 25.2012 21.748Z" fill="#264FC2"/>
<path d="M97.1917 59.4947C100.206 59.4947 102.649 58.3748 102.649 56.9934C102.649 55.612 100.206 54.4922 97.1917 54.4922C94.1777 54.4922 91.7344 55.612 91.7344 56.9934C91.7344 58.3748 94.1777 59.4947 97.1917 59.4947Z" fill="#F3EEE5"/>
<path d="M85.368 65.724C87.4777 65.724 89.1881 64.9299 89.1881 63.9504C89.1881 62.9708 87.4777 62.1768 85.368 62.1768C83.2582 62.1768 81.5479 62.9708 81.5479 63.9504C81.5479 64.9299 83.2582 65.724 85.368 65.724Z" fill="#F3EEE5"/>
<path d="M72.4516 54.1736C73.5316 54.1736 74.4072 53.7664 74.4072 53.264C74.4072 52.7617 73.5316 52.3545 72.4516 52.3545C71.3716 52.3545 70.4961 52.7617 70.4961 53.264C70.4961 53.7664 71.3716 54.1736 72.4516 54.1736Z" fill="#F3EEE5"/>
<defs>
<linearGradient id="paint0_linear" x1="1.55948" y1="57.4619" x2="83.7663" y2="56.2208" gradientUnits="userSpaceOnUse">
<stop stop-color="#6494F4"/>
<stop offset="1" stop-color="#476FEE"/>
</linearGradient>
</defs>
</svg>
