<svg width="85" height="51" viewBox="0 0 85 51" fill="none" xmlns="http://www.w3.org/2000/svg">
<path d="M79.3577 5.94086C76.0457 2.13572 71.5763 0.233154 65.9359 0.233154C62.624 0.233154 59.6867 0.926232 57.1308 2.31239C54.6218 3.67136 52.6146 5.44483 51.1158 7.63958V0.674822H33.9472V27.3108C33.9472 27.9563 33.9071 28.5678 33.8335 29.1454C33.5793 31.1227 32.8901 32.7399 31.7727 33.9901C31.4382 34.3638 31.0769 34.6968 30.6888 34.9822C29.3841 35.9471 27.7716 36.4227 25.8514 36.4227H25.8313C23.3959 36.4227 21.4355 35.6073 19.9568 33.9901C19.8631 33.8882 19.7695 33.7795 19.6825 33.6708C18.3845 32.0808 17.7355 29.9608 17.7355 27.3108V0.674822H0.740845V29.5259C0.740845 36.0762 2.38009 41.2539 5.66527 45.059C8.81663 48.7078 13.072 50.6104 18.438 50.7599C18.6655 50.7667 18.893 50.7667 19.1271 50.7667C21.5425 50.7667 23.7572 50.3998 25.7711 49.6591C26.5205 49.3873 27.2364 49.0612 27.9322 48.6875C30.4881 47.3081 32.4953 45.4871 33.9406 43.2448V50.291V50.325H42.565H51.1091V22.1195C51.3366 20.0198 52.0325 18.3211 53.21 17.0097C54.6619 15.3925 56.6625 14.5772 59.2184 14.5772C61.6605 14.5772 63.6075 15.3925 65.0594 17.0097C66.5113 18.6337 67.2339 20.8624 67.2339 23.6959V50.3318H84.3155V21.3856C84.3222 14.8965 82.6696 9.74599 79.3577 5.94086Z" fill="white"/>
</svg>
