<svg width="96" height="95" viewBox="0 0 96 95" fill="none" xmlns="http://www.w3.org/2000/svg">
<path d="M60.5524 7.62709C55.5199 7.27836 51.0142 9.09341 47.0259 13.0817C44.684 15.4236 43.0971 17.9907 42.27 20.7781C41.4568 23.5132 41.2915 26.1866 41.7836 28.7983L36.8588 23.8734L24.7188 36.0134L43.5533 54.8479C44.0097 55.3043 44.4137 55.7652 44.7701 56.2256C45.9885 57.8035 46.6447 59.4344 46.7387 61.1085C46.7664 61.6093 46.7463 62.1003 46.6737 62.5765C46.4334 64.1813 45.6296 65.6578 44.2717 67.0156L44.2575 67.0298C42.5354 68.752 40.5726 69.5616 38.3835 69.4637C38.2452 69.4578 38.1021 69.4472 37.9637 69.4318C35.9216 69.2254 33.9636 68.1852 32.0898 66.3114L13.2553 47.4769L1.23833 59.4939L21.6391 79.8947C26.2709 84.5264 31.0912 87.0285 36.1048 87.3962C40.9132 87.7479 45.2675 86.0843 49.1676 82.3956C49.3333 82.2396 49.4941 82.0787 49.6597 81.9131C51.3676 80.2052 52.6742 78.3798 53.5745 76.432C53.9122 75.7099 54.1878 74.9731 54.4156 74.2168C55.2475 71.4341 55.3792 68.7271 54.8156 66.1197L59.798 71.1021L59.8221 71.1262L65.9205 65.0278L71.9621 58.9862L52.0177 39.0418C50.6939 37.3963 49.9848 35.7031 49.8902 33.9431C49.7733 31.7729 50.6113 29.7818 52.4186 27.9745C54.1455 26.2476 56.0988 25.4475 58.2689 25.5643C60.4439 25.686 62.5308 26.751 64.5344 28.7546L83.3688 47.589L95.4473 35.5105L74.9793 15.0424C70.3955 10.4492 65.585 7.97583 60.5524 7.62709Z" fill="#060D5D"/>
</svg>
