<svg width="85" height="51" viewBox="0 0 85 51" fill="none" xmlns="http://www.w3.org/2000/svg">
<path d="M79.3576 5.94073C76.0457 2.1356 71.5763 0.233032 65.9359 0.233032C62.624 0.233032 59.6867 0.92611 57.1308 2.31227C54.6218 3.67124 52.6146 5.44471 51.1158 7.63945V0.6747H33.9472V27.3106C33.9472 27.9562 33.9071 28.5677 33.8335 29.1453C33.5793 31.1226 32.8901 32.7397 31.7727 33.99C31.4382 34.3637 31.0769 34.6967 30.6888 34.9821C29.3841 35.9469 27.7716 36.4226 25.8514 36.4226H25.8313C23.3959 36.4226 21.4355 35.6072 19.9568 33.99C19.8631 33.8881 19.7695 33.7794 19.6825 33.6706C18.3845 32.0806 17.7355 29.9606 17.7355 27.3106V0.6747H0.740845V29.5258C0.740845 36.076 2.38009 41.2537 5.66527 45.0589C8.81663 48.7077 13.072 50.6103 18.438 50.7598C18.6655 50.7666 18.893 50.7666 19.1271 50.7666C21.5425 50.7666 23.7572 50.3996 25.7711 49.659C26.5205 49.3872 27.2364 49.0611 27.9322 48.6873C30.4881 47.308 32.4953 45.4869 33.9406 43.2446V50.2909V50.3249H42.565H51.1091V22.1193C51.3366 20.0197 52.0325 18.321 53.21 17.0096C54.6619 15.3924 56.6625 14.577 59.2184 14.577C61.6605 14.577 63.6075 15.3924 65.0594 17.0096C66.5113 18.6336 67.2339 20.8623 67.2339 23.6958V50.3317H84.3155V21.3855C84.3222 14.8964 82.6696 9.74587 79.3576 5.94073Z" fill="#060D5D"/>
</svg>
