<svg width="60" height="29" viewBox="0 0 60 29" fill="none" xmlns="http://www.w3.org/2000/svg">
<path d="M45.5 0H14.5C6.49187 0 0 6.49187 0 14.5C0 22.5081 6.49187 29 14.5 29H45.5C53.5081 29 60 22.5081 60 14.5C60 6.49187 53.5081 0 45.5 0Z" fill="white"/>
<path d="M54.5957 14.5C54.5957 7.87258 49.2231 2.5 42.5957 2.5C35.9683 2.5 30.5957 7.87258 30.5957 14.5C30.5957 21.1274 35.9683 26.5 42.5957 26.5C49.2231 26.5 54.5957 21.1274 54.5957 14.5Z" fill="#F8D085"/>
<path d="M40.2794 12.6109C39.5008 10.9629 36.6977 11.0018 36.4512 12.6109" stroke="#E49A6B"/>
<path d="M48.2794 12.6109C47.5008 10.9629 44.6977 11.0018 44.4512 12.6109" stroke="#E49A6B"/>
<path d="M38.627 15.7974C40.1474 19.5934 45.6208 19.5037 46.1023 15.7974" stroke="#E49A6B"/>
<path d="M51.1806 17.3738C51.9539 17.3738 52.5809 16.7469 52.5809 15.9735C52.5809 15.2002 51.9539 14.5732 51.1806 14.5732C50.4072 14.5732 49.7803 15.2002 49.7803 15.9735C49.7803 16.7469 50.4072 17.3738 51.1806 17.3738Z" fill="#ECB478"/>
<path d="M34.0107 17.3738C34.784 17.3738 35.4109 16.7469 35.4109 15.9735C35.4109 15.2002 34.784 14.5732 34.0107 14.5732C33.2373 14.5732 32.6104 15.2002 32.6104 15.9735C32.6104 16.7469 33.2373 17.3738 34.0107 17.3738Z" fill="#ECB478"/>
</svg>
