<svg width="304" height="391" viewBox="0 0 304 391" fill="none" xmlns="http://www.w3.org/2000/svg">
<g filter="url(#filter0_d)">
<rect x="29" y="21" width="250" height="341" rx="26" fill="white"/>
</g>
<g filter="url(#filter1_d)">
<rect x="48" y="41" width="212" height="301" rx="28" fill="white"/>
</g>
<mask id="mask0" mask-type="alpha" maskUnits="userSpaceOnUse" x="48" y="41" width="212" height="301">
<rect x="48" y="41" width="212" height="301" rx="28" fill="white"/>
</mask>
<g mask="url(#mask0)">
<path d="M122.502 128.874L120.123 138H117.432L115.976 131.994L114.468 138H111.777L109.463 128.874H111.842L113.155 135.517L114.78 128.874H117.224L118.784 135.517L120.11 128.874H122.502Z" fill="#4382FE"/>
<path d="M128.206 130.668C129.038 130.668 129.706 130.945 130.208 131.5C130.711 132.046 130.962 132.8 130.962 133.762V138H128.752V134.061C128.752 133.576 128.627 133.199 128.375 132.93C128.124 132.661 127.786 132.527 127.361 132.527C126.937 132.527 126.599 132.661 126.347 132.93C126.096 133.199 125.97 133.576 125.97 134.061V138H123.747V128.38H125.97V131.721C126.196 131.4 126.503 131.145 126.893 130.954C127.283 130.763 127.721 130.668 128.206 130.668Z" fill="#4382FE"/>
<path d="M133.755 129.992C133.365 129.992 133.044 129.879 132.793 129.654C132.55 129.42 132.429 129.134 132.429 128.796C132.429 128.449 132.55 128.163 132.793 127.938C133.044 127.704 133.365 127.587 133.755 127.587C134.136 127.587 134.448 127.704 134.691 127.938C134.942 128.163 135.068 128.449 135.068 128.796C135.068 129.134 134.942 129.42 134.691 129.654C134.448 129.879 134.136 129.992 133.755 129.992ZM134.86 130.746V138H132.637V130.746H134.86Z" fill="#4382FE"/>
<path d="M140.644 136.115V138H139.513C138.707 138 138.079 137.805 137.628 137.415C137.177 137.016 136.952 136.371 136.952 135.478V132.592H136.068V130.746H136.952V128.978H139.175V130.746H140.631V132.592H139.175V135.504C139.175 135.721 139.227 135.877 139.331 135.972C139.435 136.067 139.608 136.115 139.851 136.115H140.644Z" fill="#4382FE"/>
<path d="M148.85 134.256C148.85 134.464 148.837 134.681 148.811 134.906H143.78C143.815 135.357 143.958 135.703 144.209 135.946C144.469 136.18 144.786 136.297 145.158 136.297C145.713 136.297 146.099 136.063 146.315 135.595H148.681C148.56 136.072 148.339 136.501 148.018 136.882C147.706 137.263 147.312 137.562 146.835 137.779C146.359 137.996 145.826 138.104 145.236 138.104C144.526 138.104 143.893 137.952 143.338 137.649C142.784 137.346 142.35 136.912 142.038 136.349C141.726 135.786 141.57 135.127 141.57 134.373C141.57 133.619 141.722 132.96 142.025 132.397C142.337 131.834 142.771 131.4 143.325 131.097C143.88 130.794 144.517 130.642 145.236 130.642C145.938 130.642 146.562 130.789 147.108 131.084C147.654 131.379 148.079 131.799 148.382 132.345C148.694 132.891 148.85 133.528 148.85 134.256ZM146.575 133.671C146.575 133.29 146.445 132.986 146.185 132.761C145.925 132.536 145.6 132.423 145.21 132.423C144.838 132.423 144.521 132.531 144.261 132.748C144.01 132.965 143.854 133.272 143.793 133.671H146.575Z" fill="#4382FE"/>
<path d="M152.376 131.773C152.593 131.435 152.892 131.162 153.273 130.954C153.654 130.746 154.101 130.642 154.612 130.642C155.21 130.642 155.752 130.794 156.237 131.097C156.722 131.4 157.104 131.834 157.381 132.397C157.667 132.96 157.81 133.615 157.81 134.36C157.81 135.105 157.667 135.764 157.381 136.336C157.104 136.899 156.722 137.337 156.237 137.649C155.752 137.952 155.21 138.104 154.612 138.104C154.109 138.104 153.663 138 153.273 137.792C152.892 137.584 152.593 137.315 152.376 136.986V141.458H150.153V130.746H152.376V131.773ZM155.548 134.36C155.548 133.805 155.392 133.372 155.08 133.06C154.777 132.739 154.4 132.579 153.949 132.579C153.507 132.579 153.13 132.739 152.818 133.06C152.515 133.381 152.363 133.818 152.363 134.373C152.363 134.928 152.515 135.365 152.818 135.686C153.13 136.007 153.507 136.167 153.949 136.167C154.391 136.167 154.768 136.007 155.08 135.686C155.392 135.357 155.548 134.915 155.548 134.36Z" fill="#4382FE"/>
<path d="M158.664 134.36C158.664 133.615 158.803 132.96 159.08 132.397C159.366 131.834 159.752 131.4 160.237 131.097C160.723 130.794 161.264 130.642 161.862 130.642C162.374 130.642 162.82 130.746 163.201 130.954C163.591 131.162 163.89 131.435 164.098 131.773V130.746H166.321V138H164.098V136.973C163.882 137.311 163.578 137.584 163.188 137.792C162.807 138 162.361 138.104 161.849 138.104C161.26 138.104 160.723 137.952 160.237 137.649C159.752 137.337 159.366 136.899 159.08 136.336C158.803 135.764 158.664 135.105 158.664 134.36ZM164.098 134.373C164.098 133.818 163.942 133.381 163.63 133.06C163.327 132.739 162.954 132.579 162.512 132.579C162.07 132.579 161.693 132.739 161.381 133.06C161.078 133.372 160.926 133.805 160.926 134.36C160.926 134.915 161.078 135.357 161.381 135.686C161.693 136.007 162.07 136.167 162.512 136.167C162.954 136.167 163.327 136.007 163.63 135.686C163.942 135.365 164.098 134.928 164.098 134.373Z" fill="#4382FE"/>
<path d="M170.282 131.773C170.499 131.435 170.798 131.162 171.179 130.954C171.561 130.746 172.007 130.642 172.518 130.642C173.116 130.642 173.658 130.794 174.143 131.097C174.629 131.4 175.01 131.834 175.287 132.397C175.573 132.96 175.716 133.615 175.716 134.36C175.716 135.105 175.573 135.764 175.287 136.336C175.01 136.899 174.629 137.337 174.143 137.649C173.658 137.952 173.116 138.104 172.518 138.104C172.016 138.104 171.569 138 171.179 137.792C170.798 137.584 170.499 137.315 170.282 136.986V141.458H168.059V130.746H170.282V131.773ZM173.454 134.36C173.454 133.805 173.298 133.372 172.986 133.06C172.683 132.739 172.306 132.579 171.855 132.579C171.413 132.579 171.036 132.739 170.724 133.06C170.421 133.381 170.269 133.818 170.269 134.373C170.269 134.928 170.421 135.365 170.724 135.686C171.036 136.007 171.413 136.167 171.855 136.167C172.297 136.167 172.674 136.007 172.986 135.686C173.298 135.357 173.454 134.915 173.454 134.36Z" fill="#4382FE"/>
<path d="M176.571 134.36C176.571 133.615 176.709 132.96 176.987 132.397C177.273 131.834 177.658 131.4 178.144 131.097C178.629 130.794 179.171 130.642 179.769 130.642C180.28 130.642 180.726 130.746 181.108 130.954C181.498 131.162 181.797 131.435 182.005 131.773V130.746H184.228V138H182.005V136.973C181.788 137.311 181.485 137.584 181.095 137.792C180.713 138 180.267 138.104 179.756 138.104C179.166 138.104 178.629 137.952 178.144 137.649C177.658 137.337 177.273 136.899 176.987 136.336C176.709 135.764 176.571 135.105 176.571 134.36ZM182.005 134.373C182.005 133.818 181.849 133.381 181.537 133.06C181.233 132.739 180.861 132.579 180.419 132.579C179.977 132.579 179.6 132.739 179.288 133.06C178.984 133.372 178.833 133.805 178.833 134.36C178.833 134.915 178.984 135.357 179.288 135.686C179.6 136.007 179.977 136.167 180.419 136.167C180.861 136.167 181.233 136.007 181.537 135.686C181.849 135.365 182.005 134.928 182.005 134.373Z" fill="#4382FE"/>
<path d="M192.804 134.256C192.804 134.464 192.791 134.681 192.765 134.906H187.734C187.769 135.357 187.912 135.703 188.163 135.946C188.423 136.18 188.739 136.297 189.112 136.297C189.667 136.297 190.052 136.063 190.269 135.595H192.635C192.514 136.072 192.293 136.501 191.972 136.882C191.66 137.263 191.266 137.562 190.789 137.779C190.312 137.996 189.779 138.104 189.19 138.104C188.479 138.104 187.847 137.952 187.292 137.649C186.737 137.346 186.304 136.912 185.992 136.349C185.68 135.786 185.524 135.127 185.524 134.373C185.524 133.619 185.676 132.96 185.979 132.397C186.291 131.834 186.724 131.4 187.279 131.097C187.834 130.794 188.471 130.642 189.19 130.642C189.892 130.642 190.516 130.789 191.062 131.084C191.608 131.379 192.033 131.799 192.336 132.345C192.648 132.891 192.804 133.528 192.804 134.256ZM190.529 133.671C190.529 133.29 190.399 132.986 190.139 132.761C189.879 132.536 189.554 132.423 189.164 132.423C188.791 132.423 188.475 132.531 188.215 132.748C187.964 132.965 187.808 133.272 187.747 133.671H190.529Z" fill="#4382FE"/>
<path d="M196.33 131.955C196.59 131.556 196.915 131.244 197.305 131.019C197.695 130.785 198.128 130.668 198.605 130.668V133.021H197.994C197.439 133.021 197.023 133.142 196.746 133.385C196.468 133.619 196.33 134.035 196.33 134.633V138H194.107V130.746H196.33V131.955Z" fill="#4382FE"/>
<path d="M85.729 63.2873C84.9413 62.4153 83.8911 62 82.5345 62C81.7469 62 81.0467 62.1661 80.4341 62.4568C79.8215 62.7475 79.3401 63.1627 78.99 63.6611V62.0831H74.9204V68.0214C74.9204 68.6443 74.7454 69.1426 74.3953 69.5163C74.0452 69.8901 73.5639 70.0562 72.995 70.0562C72.4261 70.0562 71.9448 69.8901 71.5947 69.5163C71.2446 69.1426 71.0696 68.6443 71.0696 68.0214V62.0831H67V68.5197C67 69.9731 67.3938 71.1359 68.1815 71.9664C68.9692 72.7969 70.0194 73.2537 71.3759 73.2537C72.1636 73.2537 72.8637 73.0876 73.4764 72.7969C74.089 72.5063 74.5703 72.091 74.9204 71.5927V73.1707H78.99V66.8586C79.0338 66.4018 79.2088 66.0281 79.4714 65.7374C79.8215 65.3637 80.3028 65.1976 80.9154 65.1976C81.4843 65.1976 81.9657 65.3637 82.3157 65.7374C82.6658 66.1111 82.8408 66.6095 82.8408 67.2324V73.1707H86.9105V66.6925C86.9105 65.2806 86.5166 64.1179 85.729 63.2873Z" fill="#4383FF"/>
<path d="M94.8732 63.2872V67.1104H93.889V66.6562C93.7754 66.8076 93.5862 66.959 93.3969 67.0347C93.2076 67.1104 92.9805 67.1861 92.7534 67.1861C92.4506 67.1861 92.1856 67.1104 91.9585 66.9969C91.7314 66.8833 91.5421 66.6941 91.4285 66.4291C91.2771 66.1641 91.2393 65.8613 91.2393 65.5206V63.2872H92.2234V65.407C92.2234 65.7099 92.2992 65.937 92.4506 66.1262C92.602 66.2777 92.8291 66.3534 93.0562 66.3534C93.3212 66.3534 93.5483 66.2777 93.6997 66.1262C93.8512 65.9748 93.9269 65.7099 93.9269 65.407V63.2872H94.8732Z" fill="#4383FF"/>
<path d="M99.0747 63.6657C99.3397 63.9685 99.4911 64.347 99.4911 64.877V67.1103H98.5069V64.9905C98.5069 64.6877 98.4312 64.4606 98.2798 64.2713C98.1284 64.1199 97.9013 64.0442 97.6742 64.0442C97.4092 64.0442 97.1821 64.1199 97.0307 64.2713C96.8792 64.4227 96.8035 64.6877 96.8035 64.9905V67.1103H95.8193V63.2871H96.8035V63.7792C96.9171 63.6278 97.1064 63.4764 97.2956 63.4007C97.4849 63.325 97.712 63.2493 97.9391 63.2493C98.3934 63.2493 98.7719 63.3628 99.0747 63.6657Z" fill="#4383FF"/>
<path d="M103.39 62.3029V63.0978H101.384V64.3469H102.936V65.104H101.384V67.1481H100.4V62.3029H103.39Z" fill="#4383FF"/>
<path d="M107.592 65.4826H104.791C104.829 65.7476 104.905 65.9747 105.094 66.1261C105.283 66.2776 105.472 66.3533 105.737 66.3533C106.116 66.3533 106.343 66.2018 106.494 65.899H107.554C107.441 66.2776 107.214 66.5804 106.911 66.8075C106.608 67.0346 106.23 67.1482 105.737 67.1482C105.359 67.1482 105.056 67.0725 104.753 66.9211C104.45 66.7696 104.223 66.5425 104.072 66.2397C103.92 65.9369 103.845 65.5962 103.845 65.2177C103.845 64.8391 103.92 64.4606 104.072 64.1578C104.223 63.8549 104.45 63.6278 104.753 63.4764C105.056 63.325 105.397 63.2493 105.775 63.2493C106.154 63.2493 106.457 63.325 106.759 63.4764C107.062 63.6278 107.289 63.8549 107.441 64.1578C107.592 64.4606 107.668 64.7634 107.668 65.1419C107.63 65.2555 107.63 65.3691 107.592 65.4826ZM106.646 64.8391C106.646 64.5741 106.57 64.3849 106.381 64.2335C106.192 64.082 106.002 64.0063 105.737 64.0063C105.51 64.0063 105.283 64.082 105.132 64.2335C104.98 64.3849 104.867 64.5741 104.829 64.8391H106.646Z" fill="#4383FF"/>
<path d="M108.311 64.1577C108.463 63.8548 108.69 63.6277 108.955 63.4763C109.22 63.3249 109.523 63.2492 109.863 63.2492C110.128 63.2492 110.355 63.287 110.582 63.4006C110.81 63.5141 110.999 63.6656 111.112 63.817V62H112.097V67.1102H111.112V66.5424C110.999 66.7317 110.81 66.8831 110.62 66.9967C110.431 67.1102 110.166 67.1859 109.863 67.1859C109.523 67.1859 109.258 67.1102 108.993 66.921C108.728 66.7695 108.5 66.5046 108.349 66.2017C108.198 65.8989 108.122 65.5582 108.122 65.1418C108.084 64.8012 108.16 64.4605 108.311 64.1577ZM110.961 64.6119C110.885 64.4605 110.734 64.3091 110.582 64.2334C110.431 64.1577 110.242 64.0819 110.09 64.0819C109.939 64.0819 109.75 64.1198 109.598 64.1955C109.447 64.2712 109.333 64.4226 109.22 64.574C109.144 64.7255 109.068 64.9526 109.068 65.1797C109.068 65.4068 109.106 65.5961 109.22 65.7854C109.295 65.9746 109.447 66.0882 109.598 66.2017C109.75 66.2775 109.901 66.3532 110.09 66.3532C110.28 66.3532 110.431 66.3153 110.582 66.2017C110.734 66.126 110.847 65.9746 110.961 65.8232C111.037 65.6718 111.112 65.4447 111.112 65.2176C111.112 64.9526 111.075 64.7633 110.961 64.6119Z" fill="#4383FF"/>
<path d="M116.563 65.4826H113.762C113.8 65.7476 113.876 65.9747 114.065 66.1261C114.254 66.2776 114.444 66.3533 114.709 66.3533C115.087 66.3533 115.314 66.2018 115.466 65.899H116.526C116.412 66.2776 116.185 66.5804 115.882 66.8075C115.579 67.0346 115.201 67.1482 114.709 67.1482C114.33 67.1482 114.027 67.0725 113.724 66.9211C113.422 66.7696 113.194 66.5425 113.043 66.2397C112.892 65.9369 112.816 65.5962 112.816 65.2177C112.816 64.8391 112.892 64.4606 113.043 64.1578C113.194 63.8549 113.422 63.6278 113.724 63.4764C114.027 63.325 114.368 63.2493 114.746 63.2493C115.125 63.2493 115.428 63.325 115.731 63.4764C116.033 63.6278 116.261 63.8549 116.412 64.1578C116.563 64.4606 116.639 64.7634 116.639 65.1419C116.601 65.2555 116.601 65.3691 116.563 65.4826ZM115.579 64.8391C115.579 64.5741 115.504 64.3849 115.314 64.2335C115.125 64.082 114.936 64.0063 114.671 64.0063C114.444 64.0063 114.217 64.082 114.065 64.2335C113.914 64.3849 113.8 64.5741 113.762 64.8391H115.579Z" fill="#4383FF"/>
<path d="M118.759 63.4006C118.948 63.287 119.175 63.2113 119.44 63.2113V64.2334H119.175C118.872 64.2334 118.645 64.3091 118.494 64.4605C118.342 64.6119 118.266 64.839 118.266 65.2175V67.1102H117.282V63.287H118.266V63.8927C118.38 63.6655 118.569 63.5141 118.759 63.4006Z" fill="#4383FF"/>
<path d="M120.084 64.1578C120.235 63.8549 120.462 63.6278 120.727 63.4764C120.992 63.325 121.295 63.2493 121.598 63.2493C121.901 63.2493 122.128 63.325 122.355 63.4385C122.582 63.5521 122.733 63.7035 122.885 63.8928V63.3628H123.869V67.186H122.885V66.6182C122.771 66.8075 122.582 66.9589 122.355 67.0725C122.128 67.186 121.901 67.2617 121.598 67.2617C121.257 67.2617 120.992 67.186 120.727 66.9968C120.462 66.8454 120.235 66.5804 120.084 66.2776C119.932 65.9747 119.856 65.634 119.856 65.2177C119.856 64.8013 119.932 64.4606 120.084 64.1578ZM122.733 64.612C122.658 64.4606 122.506 64.3092 122.355 64.2335C122.203 64.1578 122.014 64.082 121.863 64.082C121.673 64.082 121.522 64.1199 121.371 64.1956C121.219 64.2713 121.106 64.4227 120.992 64.5741C120.878 64.7256 120.841 64.9527 120.841 65.1798C120.841 65.4069 120.878 65.5962 120.992 65.7855C121.068 65.9747 121.219 66.0883 121.371 66.2018C121.522 66.2776 121.673 66.3533 121.863 66.3533C122.052 66.3533 122.203 66.3154 122.355 66.2018C122.506 66.1261 122.62 65.9747 122.733 65.8233C122.809 65.6719 122.885 65.4448 122.885 65.2177C122.885 64.9527 122.809 64.7634 122.733 64.612Z" fill="#4383FF"/>
<path d="M125.762 62V67.1102H124.777V62H125.762Z" fill="#4383FF"/>
<path d="M129.206 67.1103L128.146 65.2176H127.692V67.1103H126.708V62.3029H128.525C128.904 62.3029 129.206 62.3786 129.471 62.4921C129.736 62.6057 129.926 62.795 130.077 63.0221C130.191 63.2492 130.266 63.5142 130.266 63.7791C130.266 64.082 130.191 64.3848 130.001 64.6498C129.812 64.9148 129.547 65.0662 129.168 65.1797L130.342 67.1481H129.206V67.1103ZM127.692 64.4984H128.487C128.752 64.4984 128.941 64.4227 129.093 64.3091C129.206 64.1955 129.282 64.0063 129.282 63.7791C129.282 63.552 129.206 63.4006 129.093 63.2492C128.979 63.0978 128.752 63.0599 128.487 63.0599H127.692V64.4984Z" fill="#4383FF"/>
<path d="M134.695 65.4826H131.894C131.931 65.7476 132.007 65.9747 132.196 66.1261C132.386 66.2776 132.575 66.3533 132.84 66.3533C133.218 66.3533 133.446 66.2018 133.597 65.899H134.657C134.543 66.2776 134.316 66.5804 134.013 66.8075C133.711 67.0346 133.332 67.1482 132.84 67.1482C132.461 67.1482 132.159 67.0725 131.856 66.9211C131.553 66.7696 131.326 66.5425 131.174 66.2397C131.023 65.9369 130.947 65.5962 130.947 65.2177C130.947 64.8391 131.023 64.4606 131.174 64.1578C131.326 63.8549 131.553 63.6278 131.856 63.4764C132.159 63.325 132.499 63.2493 132.878 63.2493C133.256 63.2493 133.559 63.325 133.862 63.4764C134.165 63.6278 134.392 63.8549 134.543 64.1578C134.695 64.4606 134.77 64.7634 134.77 65.1419C134.733 65.2555 134.695 65.3691 134.695 65.4826ZM133.711 64.8391C133.711 64.5741 133.635 64.3849 133.446 64.2335C133.256 64.082 133.067 64.0063 132.802 64.0063C132.575 64.0063 132.348 64.082 132.196 64.2335C132.045 64.3849 131.931 64.5741 131.894 64.8391H133.711Z" fill="#4383FF"/>
<path d="M136.058 66.9969C135.793 66.8833 135.604 66.7319 135.452 66.5426C135.301 66.3534 135.225 66.1262 135.225 65.8991H136.209C136.209 66.0505 136.285 66.1641 136.436 66.2777C136.55 66.3912 136.739 66.4291 136.929 66.4291C137.118 66.4291 137.269 66.3912 137.345 66.3155C137.458 66.2398 137.496 66.1641 137.496 66.0505C137.496 65.937 137.421 65.8234 137.307 65.7856C137.193 65.7099 136.966 65.672 136.701 65.5963C136.399 65.5206 136.171 65.4449 135.982 65.3692C135.793 65.2935 135.641 65.1799 135.528 65.0285C135.414 64.8771 135.339 64.6878 135.339 64.4228C135.339 64.1957 135.414 64.0064 135.528 63.855C135.641 63.7036 135.831 63.5522 136.058 63.4386C136.285 63.3251 136.55 63.2872 136.853 63.2872C137.307 63.2872 137.686 63.4008 137.951 63.6279C138.216 63.855 138.367 64.1579 138.405 64.5364H137.421C137.421 64.385 137.345 64.2714 137.231 64.1579C137.118 64.0822 136.966 64.0064 136.777 64.0064C136.588 64.0064 136.474 64.0443 136.361 64.12C136.285 64.1957 136.209 64.2714 136.209 64.385C136.209 64.4985 136.285 64.6121 136.399 64.6878C136.512 64.7635 136.739 64.8392 137.004 64.8771C137.269 64.9528 137.496 65.0285 137.686 65.1042C137.875 65.1799 138.026 65.2935 138.14 65.4449C138.253 65.5963 138.329 65.7856 138.329 66.0505C138.329 66.2777 138.253 66.4669 138.14 66.6562C138.026 66.8455 137.837 66.959 137.61 67.0726C137.383 67.1861 137.118 67.224 136.815 67.224C136.588 67.1861 136.285 67.1104 136.058 66.9969Z" fill="#4383FF"/>
<path d="M142.72 65.4826H139.919C139.957 65.7476 140.033 65.9747 140.222 66.1261C140.411 66.2776 140.6 66.3533 140.865 66.3533C141.244 66.3533 141.471 66.2018 141.622 65.899H142.682C142.569 66.2776 142.342 66.5804 142.039 66.8075C141.736 67.0346 141.357 67.1482 140.865 67.1482C140.487 67.1482 140.184 67.0725 139.881 66.9211C139.578 66.7696 139.351 66.5425 139.2 66.2397C139.048 65.9369 138.973 65.5962 138.973 65.2177C138.973 64.8391 139.048 64.4606 139.2 64.1578C139.351 63.8549 139.578 63.6278 139.881 63.4764C140.184 63.325 140.525 63.2493 140.903 63.2493C141.282 63.2493 141.585 63.325 141.887 63.4764C142.19 63.6278 142.417 63.8549 142.569 64.1578C142.72 64.4606 142.796 64.7634 142.796 65.1419C142.758 65.2555 142.758 65.3691 142.72 65.4826ZM141.736 64.8391C141.736 64.5741 141.66 64.3849 141.471 64.2335C141.282 64.082 141.092 64.0063 140.827 64.0063C140.6 64.0063 140.373 64.082 140.222 64.2335C140.07 64.3849 139.957 64.5741 139.919 64.8391H141.736Z" fill="#4383FF"/>
<path d="M144.915 63.4006C145.105 63.287 145.332 63.2113 145.597 63.2113V64.2334H145.37C145.067 64.2334 144.84 64.3091 144.688 64.4605C144.537 64.6119 144.461 64.839 144.461 65.2175V67.1102H143.477V63.287H144.461V63.8927C144.575 63.6655 144.726 63.5141 144.915 63.4006Z" fill="#4383FF"/>
<path d="M147.868 66.2398L148.852 63.2872H149.874L148.474 67.1104H147.262L145.862 63.2872H146.884L147.868 66.2398Z" fill="#4383FF"/>
<path d="M153.925 65.4826H151.124C151.161 65.7476 151.237 65.9747 151.426 66.1261C151.616 66.2776 151.805 66.3533 152.07 66.3533C152.448 66.3533 152.676 66.2018 152.827 65.899H153.887C153.773 66.2776 153.546 66.5804 153.243 66.8075C152.941 67.0346 152.562 67.1482 152.07 67.1482C151.691 67.1482 151.389 67.0725 151.086 66.9211C150.783 66.7696 150.556 66.5425 150.404 66.2397C150.253 65.9369 150.177 65.5962 150.177 65.2177C150.177 64.8391 150.253 64.4606 150.404 64.1578C150.556 63.8549 150.783 63.6278 151.086 63.4764C151.389 63.325 151.729 63.2493 152.108 63.2493C152.486 63.2493 152.789 63.325 153.092 63.4764C153.395 63.6278 153.622 63.8549 153.773 64.1578C153.925 64.4606 154 64.7634 154 65.1419C153.963 65.2555 153.963 65.3691 153.925 65.4826ZM152.978 64.8391C152.978 64.5741 152.903 64.3849 152.713 64.2335C152.524 64.082 152.335 64.0063 152.07 64.0063C151.843 64.0063 151.616 64.082 151.464 64.2335C151.313 64.3849 151.199 64.5741 151.161 64.8391H152.978Z" fill="#4383FF"/>
<g opacity="0.4">
<path d="M94.0568 71.8176C94.0568 71.9042 94.051 71.9821 94.0395 72.0513H92.2865C92.3009 72.2245 92.3615 72.3601 92.4683 72.4582C92.5751 72.5563 92.7064 72.6054 92.8622 72.6054C93.0872 72.6054 93.2474 72.5087 93.3426 72.3154H93.9962C93.927 72.5462 93.7942 72.7367 93.598 72.8867C93.4018 73.0339 93.1608 73.1075 92.8752 73.1075C92.6443 73.1075 92.4366 73.057 92.2519 72.956C92.0701 72.8521 91.9272 72.7064 91.8234 72.5188C91.7224 72.3312 91.6719 72.1148 91.6719 71.8696C91.6719 71.6214 91.7224 71.4035 91.8234 71.216C91.9244 71.0284 92.0658 70.8841 92.2475 70.7831C92.4293 70.6821 92.6385 70.6316 92.8752 70.6316C93.1031 70.6316 93.3066 70.6807 93.4855 70.7788C93.6672 70.8769 93.8072 71.0169 93.9053 71.1987C94.0063 71.3776 94.0568 71.5839 94.0568 71.8176ZM93.4292 71.6445C93.4263 71.4887 93.37 71.3646 93.2604 71.2722C93.1507 71.177 93.0166 71.1294 92.8578 71.1294C92.7078 71.1294 92.5808 71.1756 92.4769 71.2679C92.376 71.3574 92.3139 71.4829 92.2908 71.6445H93.4292Z" fill="#3357CF"/>
<path d="M96.1006 73.0685L95.434 71.8912H95.1484V73.0685H94.5424V70.0473H95.6764C95.9102 70.0473 96.1093 70.0892 96.2737 70.1728C96.4382 70.2536 96.5608 70.3647 96.6416 70.5061C96.7253 70.6446 96.7672 70.8004 96.7672 70.9736C96.7672 71.1727 96.7095 71.353 96.594 71.5146C96.4786 71.6733 96.3069 71.783 96.079 71.8436L96.8018 73.0685H96.1006ZM95.1484 71.4367H95.6548C95.8193 71.4367 95.9419 71.3978 96.0227 71.3198C96.1035 71.2391 96.1439 71.128 96.1439 70.9866C96.1439 70.8481 96.1035 70.7413 96.0227 70.6663C95.9419 70.5884 95.8193 70.5494 95.6548 70.5494H95.1484V71.4367Z" fill="#3357CF"/>
<path d="M98.4017 73.0988C98.191 73.0988 98.0006 73.0627 97.8303 72.9906C97.663 72.9185 97.5302 72.8146 97.4321 72.679C97.334 72.5433 97.2835 72.3832 97.2806 72.1985H97.9299C97.9385 72.3226 97.9818 72.4207 98.0597 72.4928C98.1405 72.565 98.2502 72.601 98.3887 72.601C98.5301 72.601 98.6412 72.5679 98.722 72.5015C98.8028 72.4322 98.8432 72.3428 98.8432 72.2331C98.8432 72.1437 98.8157 72.0701 98.7609 72.0124C98.7061 71.9547 98.6368 71.9099 98.5532 71.8782C98.4724 71.8436 98.3598 71.8061 98.2155 71.7657C98.0193 71.708 97.8592 71.6517 97.7351 71.5969C97.6139 71.5392 97.5086 71.454 97.4191 71.3415C97.3326 71.2261 97.2893 71.0731 97.2893 70.8827C97.2893 70.7038 97.334 70.548 97.4235 70.4152C97.5129 70.2825 97.6384 70.1815 97.8 70.1122C97.9616 70.0401 98.1463 70.004 98.3541 70.004C98.6657 70.004 98.9182 70.0805 99.1115 70.2334C99.3077 70.3835 99.4159 70.5941 99.4361 70.8654H98.7696C98.7638 70.7615 98.7191 70.6764 98.6354 70.61C98.5546 70.5407 98.4464 70.5061 98.3108 70.5061C98.1925 70.5061 98.0972 70.5364 98.0251 70.597C97.9558 70.6576 97.9212 70.7456 97.9212 70.861C97.9212 70.9418 97.9472 71.0097 97.9991 71.0645C98.054 71.1164 98.1203 71.1597 98.1982 71.1943C98.279 71.2261 98.3916 71.2636 98.5358 71.3069C98.7321 71.3646 98.8922 71.4223 99.0163 71.48C99.1404 71.5377 99.2471 71.6243 99.3366 71.7397C99.426 71.8551 99.4708 72.0066 99.4708 72.1942C99.4708 72.3558 99.4289 72.5058 99.3452 72.6443C99.2616 72.7828 99.1389 72.8939 98.9773 72.9776C98.8157 73.0584 98.6239 73.0988 98.4017 73.0988Z" fill="#3357CF"/>
<path d="M101.096 70.0473C101.413 70.0473 101.691 70.1094 101.931 70.2334C102.173 70.3575 102.359 70.535 102.489 70.7658C102.622 70.9938 102.688 71.2593 102.688 71.5622C102.688 71.8652 102.622 72.1307 102.489 72.3587C102.359 72.5837 102.173 72.7583 101.931 72.8824C101.691 73.0065 101.413 73.0685 101.096 73.0685H100.039V70.0473H101.096ZM101.074 72.5534C101.391 72.5534 101.637 72.4669 101.81 72.2937C101.983 72.1206 102.069 71.8768 102.069 71.5622C102.069 71.2477 101.983 71.0024 101.81 70.8264C101.637 70.6475 101.391 70.5581 101.074 70.5581H100.645V72.5534H101.074Z" fill="#3357CF"/>
<path d="M103.791 72.5881H104.787V73.0685H103.185V70.0473H103.791V72.5881Z" fill="#3357CF"/>
</g>
<path d="M165.811 278.923C160.352 272.878 153.073 270 143.67 270C138.211 270 133.358 271.151 129.112 273.166C124.866 275.181 121.53 278.059 119.103 281.513V270.576H90.8967V311.734C90.8967 316.052 89.6835 319.506 87.2571 322.096C84.8308 324.686 81.4945 325.838 77.5516 325.838C73.6088 325.838 70.2725 324.686 67.8462 322.096C65.4198 319.506 64.2066 316.052 64.2066 311.734V270.576H36V315.188C36 325.262 38.7297 333.321 44.189 339.077C49.6484 344.834 56.9275 348 66.3297 348C71.789 348 76.6418 346.849 80.8879 344.834C85.1341 342.819 88.4703 339.941 90.8967 336.487V347.424H119.103V303.675C119.407 300.509 120.62 297.919 122.44 295.904C124.866 293.314 128.202 292.162 132.448 292.162C136.391 292.162 139.727 293.314 142.154 295.904C144.58 298.494 145.793 301.948 145.793 306.266V347.424H174V302.524C174 292.738 171.27 284.679 165.811 278.923Z" fill="url(#paint0_linear)"/>
</g>
<g filter="url(#filter2_d)">
<path d="M51 69.8038C55 72.1133 55 77.8868 51 80.1962L24 95.7846C20 98.094 15 95.2073 15 90.5885L15 59.4115C15 54.7927 20 51.906 24 54.2154L51 69.8038Z" fill="#FFC74E"/>
</g>
<defs>
<filter id="filter0_d" x="4" y="0" width="300" height="391" filterUnits="userSpaceOnUse" color-interpolation-filters="sRGB">
<feFlood flood-opacity="0" result="BackgroundImageFix"/>
<feColorMatrix in="SourceAlpha" type="matrix" values="0 0 0 0 0 0 0 0 0 0 0 0 0 0 0 0 0 0 127 0"/>
<feOffset dy="4"/>
<feGaussianBlur stdDeviation="12.5"/>
<feColorMatrix type="matrix" values="0 0 0 0 0.0192574 0 0 0 0 0.13716 0 0 0 0 0.371094 0 0 0 0.45 0"/>
<feBlend mode="normal" in2="BackgroundImageFix" result="effect1_dropShadow"/>
<feBlend mode="normal" in="SourceGraphic" in2="effect1_dropShadow" result="shape"/>
</filter>
<filter id="filter1_d" x="32" y="29" width="244" height="333" filterUnits="userSpaceOnUse" color-interpolation-filters="sRGB">
<feFlood flood-opacity="0" result="BackgroundImageFix"/>
<feColorMatrix in="SourceAlpha" type="matrix" values="0 0 0 0 0 0 0 0 0 0 0 0 0 0 0 0 0 0 127 0"/>
<feOffset dy="4"/>
<feGaussianBlur stdDeviation="8"/>
<feColorMatrix type="matrix" values="0 0 0 0 0.151406 0 0 0 0 0.278371 0 0 0 0 0.6375 0 0 0 0.32 0"/>
<feBlend mode="normal" in2="BackgroundImageFix" result="effect1_dropShadow"/>
<feBlend mode="normal" in="SourceGraphic" in2="effect1_dropShadow" result="shape"/>
</filter>
<filter id="filter2_d" x="5" y="47.4026" width="59" height="63.1948" filterUnits="userSpaceOnUse" color-interpolation-filters="sRGB">
<feFlood flood-opacity="0" result="BackgroundImageFix"/>
<feColorMatrix in="SourceAlpha" type="matrix" values="0 0 0 0 0 0 0 0 0 0 0 0 0 0 0 0 0 0 127 0"/>
<feOffset dy="4"/>
<feGaussianBlur stdDeviation="5"/>
<feColorMatrix type="matrix" values="0 0 0 0 0.304167 0 0 0 0 0.213547 0 0 0 0 0.0177431 0 0 0 0.25 0"/>
<feBlend mode="normal" in2="BackgroundImageFix" result="effect1_dropShadow"/>
<feBlend mode="normal" in="SourceGraphic" in2="effect1_dropShadow" result="shape"/>
</filter>
<linearGradient id="paint0_linear" x1="105" y1="270" x2="105" y2="348" gradientUnits="userSpaceOnUse">
<stop stop-color="#4382FF"/>
<stop offset="1" stop-color="#205CD4"/>
</linearGradient>
</defs>
</svg>
