<svg width="291" height="368" viewBox="0 0 291 368" fill="none" xmlns="http://www.w3.org/2000/svg">
<g opacity="0.6">
<path d="M46.6353 137.28C45.6428 130.774 25.4627 94.2737 47.4072 103.206C50.8257 110.705 54.1339 151.726 61.3017 151.947C63.6174 147.426 65.4921 140.037 68.5798 135.847C73.9832 128.569 76.5195 131.326 76.2989 141.361C76.0784 153.38 70.7852 166.282 69.0208 178.192C77.0708 180.398 72.6599 172.237 77.0708 171.024C84.9003 168.819 84.2386 175.215 83.2462 180.508C81.3715 190.102 74.7551 198.041 72.6599 208.628C70.5647 218.993 61.7428 252.075 79.7174 251.193C82.1434 241.82 83.1359 233.108 82.6948 224.397C82.4742 220.647 81.0407 211.274 83.577 208.076C90.3037 199.585 88.3187 213.59 93.2811 213.81C105.08 214.252 97.5817 167.275 99.3461 159.997C104.419 159.556 107.617 163.526 109.491 166.724C116.99 158.563 118.313 144.559 125.922 135.847C127.356 135.847 129.01 136.178 130.333 136.729C129.01 145.661 126.915 155.365 123.827 163.856C121.401 170.693 111.366 182.272 116.108 188.999C119.416 187.455 123.055 187.455 126.473 189.109C127.135 199.806 116.99 204.437 111.476 211.495C105.852 218.773 102.985 227.484 101.662 236.968C114.013 242.151 123.386 224.728 137.28 229.69C136.949 242.041 113.682 251.083 104.86 256.486C88.3187 266.632 87.5468 279.754 87.5468 298.28C87.5468 305.448 87.6571 312.505 86.8852 319.563C85.6722 330.48 81.151 329.598 72.2188 329.598C71.7777 320.666 72.5496 311.513 71.2263 302.691C69.7928 293.649 64.3893 288.576 58.5448 282.29C51.7079 275.012 45.4223 266.301 40.1291 257.81C36.4901 251.965 32.0791 246.893 33.0716 240.056C34.5052 229.359 40.1291 231.234 44.9812 238.291C51.4873 247.775 47.4072 269.829 63.3969 269.609C68.1387 252.627 59.9784 235.975 56.7805 219.986C55.0161 211.384 55.6777 203.665 50.936 195.395C48.6202 191.315 34.2846 175.656 44.3195 173.45C46.1942 177.31 49.8332 179.074 54.1339 179.184C55.6777 173.781 52.8106 165.952 51.2668 161.1C48.3997 152.388 47.9586 145.33 46.6353 137.28Z" fill="#357AA9"/>
<path d="M40.1293 156.864C39.1368 152.122 43.2169 121.686 30.5355 133.596C30.2046 139.661 38.806 168.773 33.954 170.758C31.1971 168.222 27.8889 163.701 24.691 161.606C19.067 157.966 18.0745 160.613 20.8314 167.45C24.1396 175.61 31.1971 183.109 35.6081 190.828C30.6457 194.467 31.5279 187.63 28.1094 188.071C22.1547 188.623 24.2499 192.813 26.4553 196.231C30.3149 202.297 36.9313 206.046 41.232 212.773C45.4224 219.389 60.3094 239.79 47.7382 243.87C43.658 238.135 40.5704 232.401 38.5854 226.226C37.7033 223.579 36.2697 216.742 33.6231 215.199C26.7862 211.229 31.8588 220.271 28.4403 221.705C20.3903 225.123 13.1122 190.828 10.0246 186.307C6.38553 187.299 5.28279 190.938 4.8417 193.585C-2.43637 189.946 -7.06787 180.683 -14.6768 176.713C-15.6692 177.044 -16.6617 177.705 -17.4336 178.477C-14.1254 184.212 -10.0453 190.387 -5.74458 195.349C-2.21582 199.429 7.70881 204.723 6.27525 210.567C3.62868 210.347 1.09239 211.339 -0.892538 213.434C1.53348 220.933 9.69374 221.484 15.428 224.792C21.2725 228.321 25.4629 233.504 28.9916 239.679C21.9341 246.516 10.7965 237.033 2.52595 244.09C6.27525 253.022 28.4403 250.486 36.7108 255.89C42.7758 259.749 55.5676 275.629 55.0162 283.017C56.6703 285.553 60.7505 290.846 62.5148 293.272C67.0361 290.736 74.9758 287.207 75.086 282.796C75.1963 278.165 70.5648 271.548 70.5648 266.255C70.5648 257.213 74.9758 246.627 76.7402 237.584C77.7326 232.622 79.3867 227.99 76.8504 223.469C72.9908 216.522 69.6826 219.279 68.1388 225.454C66.1539 233.725 74.8655 247.729 63.8381 251.92C56.0087 241.444 57.2217 227.88 55.2368 215.97C54.134 209.575 51.708 204.392 52.7005 197.555C53.2519 194.136 58.8758 179.58 51.4875 180.683C51.1567 183.771 49.1717 185.976 46.3046 187.189C43.7683 183.881 43.658 177.816 43.4375 173.956C42.9964 167.781 41.4526 162.819 40.1293 156.864Z" fill="#2C4BAC"/>
<path d="M290.342 343.723C290.122 343.172 289.901 342.731 289.681 342.29C289.57 342.179 289.57 341.959 289.46 341.849C289.35 341.518 289.129 341.187 289.019 340.966C288.909 340.746 288.799 340.635 288.688 340.415C288.578 340.194 288.357 339.864 288.247 339.643C288.137 339.423 288.027 339.312 287.916 339.092C287.806 338.871 287.586 338.651 287.475 338.43C287.365 338.32 287.255 338.099 287.144 337.989C286.924 337.768 286.814 337.548 286.593 337.327C286.483 337.217 286.373 336.997 286.262 336.886C286.042 336.666 285.931 336.445 285.711 336.225C285.601 336.114 285.49 336.004 285.38 335.784C285.16 335.563 284.939 335.342 284.718 335.122C284.608 335.012 284.498 334.901 284.388 334.791C284.057 334.46 283.836 334.24 283.505 333.909L283.395 333.799C283.064 333.468 282.733 333.137 282.292 332.806L282.182 332.696C281.851 332.365 281.52 332.144 281.19 331.814C281.079 331.703 280.969 331.703 280.969 331.593C280.638 331.372 280.418 331.152 280.087 330.821C279.977 330.711 279.866 330.711 279.866 330.601C279.536 330.38 279.205 330.049 278.874 329.829L278.764 329.718C277.881 329.057 276.999 328.285 276.007 327.623C275.345 327.072 274.573 326.52 273.912 325.969C269.39 322.22 263.766 320.235 257.922 319.132C256.047 310.751 256.158 299.834 257.481 296.085C262.223 276.897 268.618 259.695 274.242 239.294C278.433 224.076 284.277 205.33 283.726 190.443C283.616 186.252 283.616 180.077 282.623 174.894C284.498 165.19 285.49 155.265 285.38 145.451C285.27 136.739 284.277 128.8 280.197 120.639C277.44 115.126 273.801 109.943 270.824 104.319C272.257 110.825 275.786 120.198 276.668 127.146C277.661 134.755 278.543 142.804 277.992 150.413C276.448 171.365 268.508 190.443 258.584 208.748C250.313 223.856 242.594 242.602 239.396 259.915C238.624 255.614 237.962 251.314 237.411 247.234C236.529 241.389 235.867 235.655 235.536 229.81C236.86 225.51 238.183 221.209 239.506 216.908C246.012 195.515 248.99 173.35 249.431 151.626C250.423 134.975 245.461 108.84 232.89 96.1587C235.426 100.459 237.632 104.65 239.727 108.95C244.579 126.925 245.351 144.017 242.042 161.661C241.05 167.175 238.955 172.468 236.86 177.651C237.742 165.852 238.514 154.052 238.073 142.033C238.073 146.444 236.088 151.296 235.426 155.817C234.544 161.661 232.89 167.726 231.677 174.122C229.03 188.789 225.171 202.904 222.303 217.901C221.532 221.981 220.98 226.061 220.76 229.921C214.915 252.637 211.717 276.015 213.702 299.173C210.614 289.689 208.96 280.206 206.755 270.722C203.778 258.041 200.58 247.013 202.013 232.567C202.785 225.51 210.063 202.132 207.306 197.831C206.645 202.021 203.778 207.315 202.123 211.174C200.359 215.585 198.815 219.886 197.492 224.517C194.073 235.765 189.552 249.219 189.552 260.908C189.442 273.699 193.412 287.373 196.941 299.724C196.941 299.834 197.051 300.055 197.051 300.165C186.795 298.731 174.445 299.945 164.52 303.694C158.896 303.032 153.272 302.701 147.758 302.371C149.302 295.423 151.397 288.697 153.162 283.073C158.455 265.87 167.828 246.903 170.916 229.149C173.783 212.939 169.593 194.192 167.277 178.533C166.284 172.137 164.961 165.962 163.197 159.897C161.653 154.604 157.793 147.105 158.014 141.261C151.398 147.326 156.801 179.636 155.588 189.561C153.272 209.741 143.458 224.958 135.298 242.602C129.232 255.725 125.263 268.958 120.3 282.08C122.065 250.101 122.947 217.57 120.08 186.252C121.182 180.739 121.734 175.004 121.734 169.27C121.734 148.428 119.639 128.8 117.654 108.399C116.772 99.6875 114.456 91.1964 113.243 83.0361C112.25 76.53 108.391 69.693 108.17 63.6279C108.17 80.4998 107.95 96.9306 106.737 113.361C103.87 106.083 101.002 98.8053 99.6791 91.0861C95.4887 66.4951 95.3784 42.7862 95.3784 17.7541L100.451 0C87.1079 17.6438 86.0052 53.9238 86.0052 77.0813C86.0052 107.186 83.7997 138.063 88.3209 167.726C89.2031 173.681 90.1956 179.636 91.188 185.701C88.2106 193.751 84.9024 201.691 81.3737 209.851C78.9477 215.475 76.3011 221.43 73.7648 227.495C72.0004 203.455 64.6121 177.43 54.0258 156.368C41.2341 130.895 32.5224 104.319 30.0964 75.317C29.2142 64.7307 30.0964 53.593 30.0964 43.0068C30.0964 33.3027 32.9635 20.2904 31.6402 11.2479C29.2142 19.0774 24.693 26.2452 21.1642 33.9643C16.0916 45.2122 15.6505 56.2396 15.6505 68.48C15.6505 82.1539 16.3122 95.8278 17.856 109.392C14.7684 116.67 13.004 125.271 11.4601 131.005C5.72591 151.626 9.47522 177.761 12.3423 198.824C15.9814 225.4 23.3697 248.336 32.743 273.148C20.1718 275.133 7.93139 278.882 -1.55215 284.506C-10.1535 289.579 -17.6521 296.085 -23.8274 303.584C-24.5994 304.576 -25.4816 305.569 -26.1432 306.561C-26.2535 306.782 -26.3637 306.892 -26.5843 307.112C-27.2459 307.995 -27.7973 308.877 -28.4589 309.759C-28.5692 309.979 -28.6795 310.09 -28.9 310.31C-30.3336 312.405 -31.6569 314.501 -32.8699 316.706C-32.9802 316.927 -33.0904 317.147 -33.311 317.368C-33.8624 318.36 -34.3034 319.242 -34.8548 320.235C-34.9651 320.345 -34.9651 320.566 -35.0754 320.676C-35.6267 321.779 -36.1781 322.881 -36.7295 324.094C-36.8397 324.315 -36.8397 324.425 -36.95 324.646C-37.3911 325.638 -37.8322 326.521 -38.163 327.513C-38.2733 327.734 -38.3836 328.064 -38.4939 328.285C-38.9349 329.388 -39.376 330.601 -39.8171 331.703C-40.2582 332.916 -40.5891 334.019 -40.9199 335.232C-41.0301 335.563 -41.1404 335.784 -41.1404 336.114C-41.4712 337.107 -41.6918 337.989 -41.9123 338.981C-42.0226 339.202 -42.0226 339.533 -42.1329 339.753C-42.4637 340.966 -42.6843 342.069 -43.0151 343.282C-43.0151 343.392 -43.1253 343.613 -43.1253 343.723C-43.3459 344.716 -43.5664 345.818 -43.6767 346.811C-43.787 347.142 -43.787 347.472 -43.8973 347.803C-44.0075 348.796 -44.2281 349.788 -44.3384 350.781C-44.3384 351.001 -44.4486 351.222 -44.4486 351.442C-44.5589 352.655 -44.6692 353.868 -44.7795 354.971C-44.7795 355.302 -44.7795 355.522 -44.8897 355.853C-45 356.735 -45 357.728 -45 358.61C-45 358.941 -45 359.272 -45 359.603C-45 360.816 -45 362.029 -45 363.242C-10.2638 369.086 24.8033 367.542 59.8703 366.66C145.994 370.63 193.743 361.146 215.908 354.42C271.044 354.42 290.342 343.723 290.342 343.723ZM255.496 250.652C259.907 237.309 266.303 224.297 271.596 211.064C273.801 205.55 275.786 199.926 277.551 194.302C277.33 197.169 277.11 200.037 276.668 203.014C274.904 214.593 271.816 223.635 267.185 234.662C263.546 243.264 260.568 252.196 256.268 260.136C254.945 262.562 253.621 264.988 252.298 267.303C252.739 261.569 253.842 255.835 255.496 250.652ZM40.9032 228.046C34.3971 217.129 31.6402 204.668 27.6704 192.758C22.4875 177.32 20.282 164.749 20.8334 148.759C20.9437 144.679 21.495 140.599 22.0464 136.629C23.5903 144.459 25.4649 152.178 27.7807 159.897C33.1841 178.313 40.3519 196.287 44.8731 214.923C46.6375 222.091 47.0786 230.031 47.0786 237.971C45.0936 234.773 42.9984 231.465 40.9032 228.046ZM90.6367 280.095C91.7394 268.186 95.599 256.166 99.5688 245.139C100.451 254.181 101.113 263.334 101.443 272.486C101.554 277.228 101.664 281.86 101.774 286.601C98.025 284.286 94.386 282.08 90.6367 280.095ZM224.84 272.376C226.384 281.419 228.258 291.343 229.03 301.047C229.361 305.017 229.802 308.766 229.692 312.516C229.692 313.398 229.582 314.28 229.471 315.273C227.707 314.611 225.943 313.729 224.178 312.847C223.296 305.899 222.965 298.952 222.965 292.005C223.186 285.499 223.737 278.882 224.84 272.376Z" fill="url(#paint0_linear)"/>
</g>
<defs>
<linearGradient id="paint0_linear" x1="122.671" y1="0" x2="122.671" y2="367.599" gradientUnits="userSpaceOnUse">
<stop stop-color="#34BCBE" stop-opacity="0.75"/>
<stop offset="1" stop-color="#367ED3"/>
</linearGradient>
</defs>
</svg>
