<svg width="324" height="356" viewBox="0 0 324 356" fill="none" xmlns="http://www.w3.org/2000/svg">
<path d="M50.3025 131.73C49.4353 127.587 53.0008 100.99 41.9188 111.397C41.6297 116.697 49.1462 142.138 44.9061 143.872C42.497 141.656 39.606 137.705 36.8114 135.874C31.8968 132.694 31.0295 135.007 33.4387 140.981C36.3296 148.112 42.497 154.665 46.3516 161.411C42.0152 164.591 42.7861 158.616 39.7988 159.002C34.595 159.484 36.426 163.145 38.3533 166.133C41.7261 171.433 47.508 174.709 51.2662 180.588C54.9281 186.369 67.9373 204.197 56.9517 207.762C53.3862 202.751 50.688 197.74 48.9534 192.344C48.1825 190.031 46.9298 184.057 44.617 182.708C38.6424 179.238 43.0752 187.14 40.0878 188.393C33.0532 191.38 26.6931 161.411 23.9949 157.46C20.8148 158.327 19.8512 161.507 19.4657 163.82C13.1056 160.64 9.05831 152.545 2.40913 149.076C1.54184 149.365 0.674555 149.943 0 150.618C2.89095 155.629 6.45646 161.025 10.2147 165.362C13.2984 168.927 21.9712 173.553 20.7185 178.66C18.4057 178.468 16.1893 179.335 14.4548 181.166C16.5748 187.719 23.7058 188.2 28.7168 191.091C33.8241 194.175 37.486 198.704 40.5697 204.101C34.4023 210.075 24.6694 201.788 17.4421 207.955C20.7185 215.761 40.0878 213.544 47.3152 218.266C52.6153 221.639 63.7936 235.516 63.3118 241.972C64.7573 244.188 68.3228 248.814 69.8646 250.934C73.8156 248.718 80.7539 245.634 80.8503 241.779C80.9466 237.732 76.8993 231.95 76.8993 227.325C76.8993 219.423 80.7539 210.172 82.2957 202.27C83.163 197.933 84.6085 193.886 82.3921 189.935C79.0193 183.864 76.1284 186.273 74.7793 191.67C73.0447 198.897 80.6575 211.135 71.021 214.797C64.1791 205.642 65.2391 193.79 63.5046 183.382C62.5409 177.793 60.4209 173.264 61.2882 167.289C61.77 164.302 66.6846 151.582 60.2281 152.545C59.939 155.243 58.2045 157.171 55.699 158.231C53.4826 155.34 53.3862 150.04 53.1935 146.667C52.808 141.271 51.4589 136.934 50.3025 131.73Z" fill="#2C4BAC"/>
<path d="M311.067 291.786C310.717 291.436 310.368 291.087 310.018 290.824L309.931 290.737C309.669 290.475 309.319 290.213 309.057 289.95C308.969 289.863 308.882 289.863 308.882 289.776C308.62 289.601 308.358 289.426 308.096 289.077C308.008 288.989 307.921 288.989 307.921 288.902C307.659 288.727 307.309 288.378 307.047 288.203L306.96 288.115C306.173 287.504 305.387 286.892 304.513 286.28C303.901 285.756 303.289 285.319 302.678 284.795C298.745 281.561 293.851 279.814 288.696 278.852C287.035 271.512 287.123 261.987 288.346 258.753C292.453 241.975 298.046 226.944 303.027 209.117C306.697 195.835 311.766 179.406 311.329 166.385C311.241 162.715 311.241 157.297 310.368 152.84C312.028 144.364 312.902 135.712 312.814 127.148C312.727 119.546 311.853 112.555 308.27 105.476C305.823 100.67 302.678 96.1258 300.056 91.2322C301.279 96.9123 304.425 105.127 305.124 111.156C305.998 117.798 306.785 124.876 306.26 131.518C304.95 149.869 297.959 166.472 289.307 182.464C282.054 195.66 275.325 212.089 272.529 227.207C271.83 223.449 271.306 219.691 270.781 216.108C269.995 211.04 269.47 205.971 269.121 200.903C270.257 197.145 271.393 193.388 272.616 189.63C278.297 170.929 280.918 151.529 281.268 132.566C282.142 117.973 277.772 95.1646 266.849 84.0664C269.033 87.8241 270.956 91.4943 272.791 95.252C277.073 110.982 277.685 125.925 274.801 141.305C273.927 146.111 272.092 150.743 270.257 155.287C271.043 144.975 271.743 134.664 271.306 124.177C271.306 128.022 269.558 132.304 269.033 136.237C268.247 141.305 266.849 146.636 265.8 152.228C263.528 165.074 260.12 177.396 257.586 190.504C256.887 194.087 256.45 197.67 256.275 200.99C251.207 220.827 248.41 241.276 250.071 261.55C247.362 253.248 245.963 244.946 244.041 236.644C241.419 225.546 238.623 215.934 239.934 203.262C240.633 197.058 246.925 176.697 244.565 172.939C243.953 176.609 241.507 181.241 240.021 184.562C238.448 188.407 237.137 192.164 236.001 196.184C233.03 205.971 229.098 217.769 229.098 227.993C229.01 239.179 232.506 251.151 235.564 261.899C235.564 261.987 235.652 262.161 235.652 262.249C226.651 261.025 215.902 262.074 207.251 265.307C202.357 264.696 197.463 264.433 192.57 264.171C193.881 258.142 195.716 252.199 197.289 247.306C201.92 232.275 210.135 215.671 212.844 200.204C215.378 186.047 211.708 169.618 209.698 155.986C208.824 150.393 207.688 144.975 206.115 139.732C204.804 135.1 201.396 128.546 201.571 123.478C195.803 128.809 200.522 157.035 199.473 165.686C197.463 183.338 188.9 196.621 181.734 212.001C176.403 223.449 172.995 235.071 168.626 246.519C170.199 218.555 170.898 190.154 168.451 162.802C169.412 157.996 169.937 153.015 169.937 147.946C169.937 129.77 168.101 112.555 166.354 94.7276C165.567 87.125 163.557 79.6971 162.509 72.5313C161.635 66.8512 158.227 60.9088 158.052 55.5782C158.052 70.3466 157.877 84.6781 156.828 99.0096C154.294 92.6304 151.847 86.2511 150.624 79.5223C146.954 58.0251 146.866 37.3143 146.866 15.4675L151.148 0C139.438 15.3801 138.477 47.1017 138.477 67.3755C138.477 93.679 136.555 120.682 140.487 146.548C141.274 151.791 142.147 156.947 143.021 162.278C140.4 169.269 137.516 176.26 134.457 183.426C132.36 188.319 130.001 193.562 127.816 198.806C126.243 177.833 119.776 155.025 110.601 136.673C99.4151 114.39 91.8124 91.2322 89.7151 65.8025C88.9286 56.5395 89.7151 46.8395 89.7151 37.5765C89.7151 29.0999 92.2493 17.7396 91.0259 9.78736C88.9286 16.6036 84.9962 22.8954 81.8503 29.6242C77.3935 39.4116 77.044 49.1116 77.044 59.7728C77.044 71.7448 77.6557 83.6295 78.9665 95.5141C76.2575 101.893 74.6845 109.409 73.3737 114.39C68.3927 132.391 71.626 155.287 74.1602 173.638C77.3061 196.883 83.7728 216.895 91.9872 238.567C80.9764 240.315 70.3152 243.548 62.0134 248.529C54.4981 252.986 47.9441 258.666 42.5261 265.22C41.827 266.094 41.0405 266.968 40.5162 267.842C40.4288 268.016 40.3414 268.104 40.1666 268.366C39.5549 269.152 39.118 269.939 38.5063 270.638C38.4189 270.813 38.3315 270.9 38.1567 271.162C36.9333 272.997 35.7099 274.833 34.6612 276.755C34.5738 276.93 34.4865 277.105 34.3117 277.367C33.7874 278.241 33.4378 279.027 33.0009 279.901C32.9135 279.988 32.9135 280.163 32.8261 280.251C32.3018 281.212 31.8648 282.173 31.3405 283.222C31.2531 283.396 31.2531 283.484 31.1657 283.746C30.8162 284.62 30.3793 285.406 30.1171 286.28C30.0297 286.455 29.9423 286.805 29.8549 286.979C29.5054 287.941 29.0685 288.989 28.7189 289.95C28.3694 290.999 28.0198 291.96 27.7576 293.009C27.6703 293.271 27.5829 293.533 27.5829 293.796C27.3207 294.669 27.0585 295.456 26.8838 296.33C26.7964 296.505 26.7964 296.854 26.709 297.029C26.4468 298.077 26.1847 299.039 25.9225 300.087C25.9225 300.175 25.8351 300.35 25.8351 300.437C25.6604 301.311 25.4856 302.272 25.3108 303.146C25.2234 303.408 25.2234 303.758 25.136 304.02C25.0486 304.894 24.8739 305.768 24.7865 306.641C24.7865 306.816 24.6991 306.991 24.6991 307.253C24.6117 308.302 24.5243 309.35 24.4369 310.312C24.4369 310.574 24.4369 310.836 24.3495 311.098C24 311.71 24 312.584 24 313.37C24 313.632 24 313.982 24 314.244C24 315.293 24 316.341 24 317.39H24.0874C26.5342 338.8 74.2476 355.928 132.797 355.928C163.47 355.928 191.172 351.209 210.921 343.694C222.893 351.209 239.671 355.928 258.197 355.928C294.551 355.928 324 337.926 324 315.73C324 306.729 319.194 298.514 311.067 291.786ZM286.598 219.08C290.443 207.457 296.036 196.009 300.668 184.474C302.59 179.668 304.338 174.774 305.911 169.793C305.736 172.327 305.561 174.774 305.124 177.396C303.551 187.533 300.842 195.398 296.823 205.01C293.677 212.525 291.055 220.303 287.297 227.294C286.161 229.391 285.025 231.576 283.802 233.586C284.151 228.605 285.113 223.536 286.598 219.08ZM259.77 238.043C261.081 245.907 262.742 254.646 263.441 263.123C263.703 266.618 264.14 269.851 264.052 273.172C264.052 273.959 263.965 274.745 263.878 275.619C262.305 275.007 260.819 274.308 259.246 273.522C258.46 267.492 258.197 261.375 258.197 255.345C258.372 249.49 258.809 243.723 259.77 238.043ZM150.362 214.186C151.148 222.051 151.673 230.09 152.022 238.043C152.11 242.15 152.197 246.257 152.284 250.364C149.051 248.354 145.818 246.432 142.584 244.684C143.458 234.372 146.866 223.886 150.362 214.186ZM87.5304 168.482C82.9863 155.025 81.0638 144.014 81.5881 130.032C81.6755 126.449 82.1998 122.866 82.6368 119.458C83.9476 126.274 85.6079 133.003 87.6178 139.819C92.3367 155.899 98.6286 171.628 102.561 187.882C104.134 194.174 104.484 201.078 104.484 207.981C102.736 205.185 100.901 202.301 99.0655 199.33C93.3854 189.717 90.9385 178.881 87.5304 168.482Z" fill="url(#paint0_linear)"/>
<defs>
<linearGradient id="paint0_linear" x1="174.006" y1="0" x2="174.006" y2="340.406" gradientUnits="userSpaceOnUse">
<stop stop-color="#34BCBE" stop-opacity="0.75"/>
<stop offset="1" stop-color="#367ED3"/>
</linearGradient>
</defs>
</svg>
