<svg width="304" height="369" viewBox="0 0 304 369" fill="none" xmlns="http://www.w3.org/2000/svg">
<path d="M303.268 344.367C303.048 343.815 302.827 343.374 302.607 342.933C302.496 342.823 302.496 342.602 302.386 342.492C302.276 342.161 302.055 341.83 301.945 341.61C301.835 341.389 301.724 341.279 301.614 341.059C301.504 340.838 301.283 340.507 301.173 340.287C301.063 340.066 300.952 339.956 300.842 339.735C300.732 339.515 300.511 339.294 300.401 339.074C300.291 338.963 300.181 338.743 300.07 338.633C299.85 338.412 299.739 338.191 299.519 337.971C299.409 337.861 299.298 337.64 299.188 337.53C298.967 337.309 298.857 337.089 298.637 336.868C298.526 336.758 298.416 336.648 298.306 336.427C298.085 336.207 297.865 335.986 297.644 335.765C297.534 335.655 297.424 335.545 297.313 335.435C296.983 335.104 296.762 334.883 296.431 334.552L296.321 334.442C295.99 334.111 295.659 333.78 295.218 333.45L295.108 333.339C294.777 333.009 294.446 332.788 294.115 332.457C294.005 332.347 293.895 332.347 293.895 332.237C293.564 332.016 293.344 331.796 293.013 331.465C292.902 331.354 292.792 331.354 292.792 331.244C292.461 331.024 292.131 330.693 291.8 330.472L291.689 330.362C290.807 329.7 289.925 328.928 288.933 328.267C288.271 327.715 287.499 327.164 286.837 326.613C282.316 322.863 276.692 320.878 270.848 319.776C268.973 311.395 269.083 300.478 270.407 296.729C275.148 277.541 281.544 260.338 287.168 239.938C291.359 224.72 297.203 205.973 296.652 191.086C296.541 186.896 296.541 180.721 295.549 175.538C297.424 165.834 298.416 155.909 298.306 146.095C298.196 137.383 297.203 129.443 293.123 121.283C290.366 115.769 286.727 110.586 283.75 104.963C285.183 111.469 288.712 120.842 289.594 127.789C290.587 135.398 291.469 143.448 290.918 151.057C289.374 172.009 281.434 191.086 271.509 209.392C263.239 224.499 255.52 243.246 252.322 260.559C251.55 256.258 250.888 251.957 250.337 247.877C249.455 242.033 248.793 236.298 248.462 230.454C249.785 226.153 251.109 221.853 252.432 217.552C258.938 196.159 261.916 173.994 262.357 152.27C263.349 135.619 258.387 109.484 245.816 96.8022C248.352 101.103 250.557 105.293 252.653 109.594C257.505 127.569 258.276 144.661 254.968 162.305C253.976 167.819 251.881 173.112 249.785 178.295C250.668 166.495 251.44 154.696 250.998 142.676C250.998 147.087 249.013 151.939 248.352 156.46C247.47 162.305 245.816 168.37 244.603 174.766C241.956 189.432 238.096 203.547 235.229 218.544C234.457 222.625 233.906 226.705 233.685 230.564C227.841 253.281 224.643 276.659 226.628 299.816C223.54 290.333 221.886 280.849 219.681 271.366C216.703 258.684 213.505 247.657 214.939 233.211C215.711 226.153 222.989 202.775 220.232 198.475C219.57 202.665 216.703 207.958 215.049 211.818C213.285 216.229 211.741 220.529 210.418 225.161C206.999 236.409 202.478 249.862 202.478 261.551C202.368 274.343 206.338 288.017 209.866 300.368C209.866 300.478 209.977 300.698 209.977 300.809C199.721 299.375 187.37 300.588 177.446 304.337C171.822 303.676 166.198 303.345 160.684 303.014C162.228 296.067 164.323 289.34 166.088 283.716C171.381 266.513 180.754 247.546 183.842 229.792C186.709 213.582 182.518 194.836 180.203 179.177C179.21 172.781 177.887 166.606 176.123 160.54C174.579 155.247 170.719 147.749 170.94 141.904C164.323 147.969 169.727 180.279 168.514 190.204C166.198 210.384 156.384 225.602 148.223 243.246C142.158 256.368 138.188 269.601 133.226 282.724C134.99 250.744 135.873 218.214 133.006 186.896C134.108 181.382 134.66 175.648 134.66 169.914C134.66 149.072 132.564 129.443 130.58 109.043C129.697 100.331 127.382 91.8399 126.169 83.6797C125.176 77.1735 121.317 70.3366 121.096 64.2715C121.096 81.1434 120.875 97.5742 119.662 114.005C116.795 106.727 113.928 99.4488 112.605 91.7297C108.414 67.1386 108.304 43.4298 108.304 18.3976L113.377 0.643555C100.034 18.2873 98.931 54.5674 98.931 77.7249C98.931 107.83 96.7255 138.706 101.247 168.37C102.129 174.325 103.121 180.279 104.114 186.344C101.136 194.394 97.8282 202.334 94.2995 210.494C91.8734 216.118 89.2269 222.073 86.6906 228.138C84.9262 204.099 77.5379 178.074 66.9516 157.012C54.1598 131.538 45.4482 104.963 43.0222 75.9605C42.14 65.3742 43.0222 54.2366 43.0222 43.6503C43.0222 33.9462 45.8893 20.9339 44.566 11.8915C42.14 19.7209 37.6188 26.8887 34.09 34.6079C29.0174 45.8558 28.5763 56.8832 28.5763 69.1235C28.5763 82.7975 29.238 96.4714 30.7818 110.035C27.6941 117.313 25.9298 125.915 24.3859 131.649C18.6517 152.27 22.401 178.405 25.2681 199.467C28.9071 226.043 36.2955 248.98 45.6688 273.792C33.0975 275.776 20.8572 279.526 11.3736 285.15C2.77228 290.222 -4.72634 296.729 -10.9017 304.227C-11.6736 305.22 -12.5558 306.212 -13.2174 307.205C-13.3277 307.425 -13.438 307.535 -13.6585 307.756C-14.3201 308.638 -14.8715 309.52 -15.5332 310.402C-15.6434 310.623 -15.7537 310.733 -15.9743 310.954C-17.4078 313.049 -18.7311 315.144 -19.9441 317.35C-20.0544 317.57 -20.1647 317.791 -20.3852 318.011C-20.9366 319.004 -21.3777 319.886 -21.929 320.878C-22.0393 320.989 -22.0393 321.209 -22.1496 321.32C-22.701 322.422 -23.2523 323.525 -23.8037 324.738C-23.914 324.959 -23.914 325.069 -24.0242 325.289C-24.4653 326.282 -24.9064 327.164 -25.2372 328.157C-25.3475 328.377 -25.4578 328.708 -25.5681 328.928C-26.0092 330.031 -26.4503 331.244 -26.8914 332.347C-27.3324 333.56 -27.6633 334.663 -27.9941 335.876C-28.1044 336.207 -28.2146 336.427 -28.2146 336.758C-28.5455 337.75 -28.766 338.633 -28.9866 339.625C-29.0968 339.846 -29.0968 340.176 -29.2071 340.397C-29.5379 341.61 -29.7585 342.713 -30.0893 343.926C-30.0893 344.036 -30.1996 344.256 -30.1996 344.367C-30.4201 345.359 -30.6407 346.462 -30.7509 347.454C-30.8612 347.785 -30.8612 348.116 -30.9715 348.447C-31.0818 349.439 -31.3023 350.432 -31.4126 351.424C-31.4126 351.645 -31.5229 351.865 -31.5229 352.086C-31.6331 353.299 -31.7434 354.512 -31.8537 355.615C-31.8537 355.945 -31.8537 356.166 -31.9639 356.497C-32.0742 357.379 -32.0742 358.371 -32.0742 359.254C-32.0742 359.585 -32.0742 359.915 -32.0742 360.246C-32.0742 361.459 -32.0742 362.672 -32.0742 363.885C2.662 369.73 37.729 368.186 72.7961 367.304C158.92 371.274 206.668 361.79 228.833 355.063C283.97 355.063 303.268 344.367 303.268 344.367ZM268.422 251.296C272.833 237.953 279.228 224.94 284.522 211.707C286.727 206.194 288.712 200.57 290.476 194.946C290.256 197.813 290.035 200.68 289.594 203.657C287.83 215.236 284.742 224.279 280.111 235.306C276.472 243.907 273.494 252.84 269.194 260.779C267.87 263.205 266.547 265.631 265.224 267.947C265.665 262.213 266.768 256.479 268.422 251.296ZM53.829 228.69C47.3229 217.773 44.566 205.312 40.5962 193.402C35.4133 177.964 33.2078 165.392 33.7592 149.403C33.8695 145.323 34.4208 141.243 34.9722 137.273C36.516 145.102 38.3907 152.821 40.7064 160.54C46.1098 178.956 53.2776 196.931 57.7989 215.567C59.5632 222.735 60.0043 230.675 60.0043 238.614C58.0194 235.416 55.9242 232.108 53.829 228.69ZM103.562 280.739C104.665 268.829 108.525 256.809 112.495 245.782C113.377 254.824 114.038 263.977 114.369 273.13C114.48 277.872 114.59 282.503 114.7 287.245C110.951 284.929 107.312 282.724 103.562 280.739ZM237.766 273.02C239.309 282.062 241.184 291.987 241.956 301.691C242.287 305.661 242.728 309.41 242.618 313.159C242.618 314.041 242.507 314.924 242.397 315.916C240.633 315.254 238.868 314.372 237.104 313.49C236.222 306.543 235.891 299.596 235.891 292.648C236.111 286.142 236.663 279.526 237.766 273.02Z" fill="url(#paint0_linear)"/>
<defs>
<linearGradient id="paint0_linear" x1="135.597" y1="0.643555" x2="135.597" y2="368.243" gradientUnits="userSpaceOnUse">
<stop stop-color="#34BCBE" stop-opacity="0.75"/>
<stop offset="1" stop-color="#367ED3"/>
</linearGradient>
</defs>
</svg>
