<svg width="495" height="407" viewBox="0 0 495 407" fill="none" xmlns="http://www.w3.org/2000/svg">
<path d="M92.3217 406.601C92.4359 406.601 551.3 370.065 551.3 370.065C551.642 346.431 545.819 321.884 541.253 298.821C528.351 232.6 500.721 170.946 486.792 105.296C483.937 91.9381 486.221 93.0799 474.803 88.1704C453.681 78.9223 447.059 91.0247 442.15 65.7924C439.752 53.8041 437.925 41.7017 435.642 29.7135C431.76 9.61892 431.76 3.6819 410.524 1.39843C381.067 -1.79843 347.614 6.42206 320.669 18.2961C291.783 30.9694 280.708 77.0956 265.523 103.47C257.645 117.171 252.279 132.927 244.059 145.029C235.267 157.931 224.991 158.273 209.121 163.068C194.165 167.635 174.641 170.147 165.393 180.309C152.948 193.781 152.491 221.411 146.554 238.537C141.074 254.521 138.79 271.305 134.566 287.632C130.798 302.018 123.149 310.923 117.668 323.711C117.326 324.396 116.983 325.423 116.755 326.565C112.302 326.108 107.735 325.88 103.397 325.652C101.113 325.537 98.9438 325.081 96.8887 324.396C102.94 316.86 113.444 310.695 120.751 304.187C124.861 300.533 129.428 297.565 130.227 292.085C131.483 283.522 126.688 283.636 121.436 287.974C114.243 293.797 112.53 311.722 100.085 308.069C100.2 293.797 110.361 282.837 116.412 271.191C119.723 264.911 120.979 258.86 126.46 253.494C129.2 250.868 143.7 241.962 136.507 238.08C134.223 240.592 131.027 241.163 127.716 240.25C127.716 235.797 131.712 230.317 133.995 226.891C137.991 220.954 139.818 215.702 142.672 209.651C144.956 204.856 168.704 181.222 149.751 183.163C145.412 188.187 133.538 219.128 128.058 217.643C127.373 213.647 127.487 207.482 126.117 203.6C123.605 196.75 120.979 198.348 118.924 206.112C116.412 215.474 117.554 226.549 116.184 236.139C109.448 236.025 114.7 230.773 111.617 228.718C106.023 225.293 105.109 230.317 104.767 234.655C104.31 240.592 106.023 246.301 106.593 252.466C103.054 251.439 99.8572 252.01 96.7745 253.151C95.8612 252.466 95.0619 253.151 94.2626 254.293C92.2075 255.321 90.2666 256.462 88.3257 257.376C84.1012 253.836 89.4674 238.08 93.4635 226.663C95.9753 223.695 97.9162 220.384 97.5737 215.931C97.3454 215.817 97.117 215.702 96.8887 215.588C96.8887 215.36 96.8887 215.246 97.0028 215.017C95.6328 214.447 94.2627 214.447 93.0068 214.675C91.4083 214.675 89.6958 215.017 88.2115 215.702C83.8729 209.537 93.0068 199.147 95.2902 192.868C98.0304 185.218 99.9713 176.427 101.227 168.32C99.9713 167.749 98.6012 167.521 97.2311 167.521C90.7232 174.942 89.239 186.702 83.4161 194.238C83.0736 192.868 82.617 191.498 82.0461 190.242C80.9044 189.899 79.6484 189.785 78.3925 189.899C78.3925 190.242 78.2783 190.47 78.2783 190.813C76.9082 189.785 75.1956 189.214 73.1405 189.442C71.9988 194.352 75.424 219.013 72.9122 231.23C71.8847 231.002 70.7429 231.116 69.6012 231.23C68.8019 233.628 68.6877 235.797 69.1444 237.852C68.6877 238.08 68.2311 238.08 67.6602 238.08C63.0932 237.966 64.92 225.293 58.8688 232.943C56.5853 235.797 57.9555 244.36 58.0696 247.785C58.298 252.238 58.0696 256.577 57.4988 261.143C55.9003 260.458 54.0736 260.116 52.1326 260.23C51.2192 263.655 52.9318 267.195 55.672 270.962C55.5578 271.305 55.4436 271.762 55.4436 272.104C39.2309 272.903 47.2231 242.99 49.0499 233.514C50.9909 223.923 56.9279 216.73 58.6405 208.053C59.5539 203.257 60.2389 197.549 53.046 199.49C48.9357 200.631 53.046 207.939 45.7388 205.998C47.3373 195.265 52.1326 183.505 52.2467 172.659C52.4751 163.639 50.0775 161.127 45.2822 167.635C42.4278 171.517 40.7153 178.139 38.6601 182.25C32.2664 182.021 29.1837 144.915 26.101 138.178C6.23481 130.072 24.5026 163.183 25.4159 169.12C26.5577 176.541 27.0144 182.82 29.412 190.47C30.7821 194.923 33.4081 202.002 32.038 206.797C28.1561 206.797 24.8451 205.084 23.1325 201.659C14.1128 203.6 27.0144 217.872 29.1837 221.525C33.4081 228.947 32.8373 236.025 34.4357 243.789C37.29 258.289 44.8255 273.36 40.4869 288.774C25.9868 288.888 29.7546 269.022 23.8176 260.344C19.479 253.951 14.3411 252.238 13.0852 261.943C12.286 268.108 16.1679 272.675 19.4789 278.041C24.2742 285.691 29.9829 293.569 36.1483 300.191C39.0026 303.159 41.6286 305.9 43.7979 308.982C36.7192 310.124 29.8687 312.179 24.5026 315.376C19.7073 318.23 15.4828 321.884 11.9435 326.108C11.8293 326.222 11.7151 326.337 11.7151 326.451C11.1442 327.136 10.6876 327.707 10.2309 328.392C10.0025 328.62 9.88834 328.848 9.65999 329.077C9.2033 329.762 8.74659 330.447 8.2899 331.132C8.17572 331.246 8.17571 331.36 8.06153 331.474C7.60484 332.274 7.03399 333.073 6.57729 333.986C6.46312 334.215 6.34898 334.443 6.12064 334.785C5.77812 335.471 5.43557 336.156 5.09305 336.841C4.97887 337.069 4.86469 337.183 4.86469 337.412C4.52216 338.325 4.06547 339.124 3.72295 340.038C3.60878 340.266 3.49459 340.494 3.49459 340.723C3.26624 341.408 2.92378 342.207 2.69543 342.892C2.58125 343.12 2.58124 343.349 2.46707 343.577C2.23872 344.49 1.89618 345.404 1.66784 346.317C1.66784 346.545 1.55369 346.774 1.55369 346.888C1.32534 347.687 1.21114 348.372 1.09697 349.171C1.09697 349.4 0.982823 349.628 0.982823 349.971C0.86865 350.884 0.640274 351.912 0.526101 352.825C0.526101 352.939 0.526101 353.053 0.526101 353.282C0.411927 354.081 0.411913 354.994 0.29774 355.793C0.29774 356.022 0.29774 356.364 0.29774 356.593C0.29774 357.506 0.183594 358.534 0.183594 359.447C19.5931 362.758 39.3451 361.845 59.0972 361.388C80.4476 362.416 97.6879 361.845 111.275 360.703C107.164 383.081 102.027 405.802 92.3217 406.601ZM75.6524 313.321C72.7981 311.837 69.7153 310.581 66.5185 309.896C65.1484 309.553 63.6641 309.325 62.1799 309.211C62.4082 299.848 63.55 292.199 68.3453 285.691C70.7429 288.431 72.798 291.171 73.7114 293.683C75.0815 297.565 75.9949 305.671 75.6524 313.321ZM74.9673 259.659C75.3098 257.49 75.6524 255.435 76.2233 253.38C77.0225 255.663 77.7075 258.061 77.9359 260.458C77.0225 260.344 75.9948 260.116 74.9673 259.659ZM91.4083 290.372C91.6366 282.608 92.8926 275.644 95.1761 269.021C95.2903 268.565 95.5186 267.994 95.8611 267.309C100.771 264.112 104.995 260.458 106.593 256.234C106.593 257.147 106.593 258.061 106.479 259.088C105.794 267.537 105.109 295.167 91.4083 290.372Z" fill="url(#paint0_linear)"/>
<defs>
<linearGradient id="paint0_linear" x1="275.749" y1="0.704102" x2="275.749" y2="406.601" gradientUnits="userSpaceOnUse">
<stop stop-color="#34BCBE" stop-opacity="0.75"/>
<stop offset="1" stop-color="#367ED3"/>
</linearGradient>
</defs>
</svg>
