<svg width="95" height="95" viewBox="0 0 95 95" fill="none" xmlns="http://www.w3.org/2000/svg">
<path d="M81.0877 13.9123C72.1161 4.94093 60.1877 0 47.5 0C37.9868 0 28.8073 2.8025 20.9538 8.10487C13.2911 13.2781 7.34061 20.4977 3.74526 28.9828C3.44542 29.6903 3.77588 30.5071 4.48355 30.8071C5.19104 31.1069 6.00782 30.7763 6.30767 30.0688C13.331 13.4933 29.4999 2.7832 47.5 2.7832C59.4444 2.7832 70.6737 7.43449 79.1196 15.8804C87.5655 24.3263 92.2168 35.5556 92.2168 47.5C92.2168 59.4444 87.5655 70.6737 79.1196 79.1196C70.6737 87.5655 59.4444 92.2168 47.5 92.2168C35.5556 92.2168 24.3263 87.5655 15.8804 79.1196C7.43449 70.6737 2.7832 59.4444 2.7832 47.5C2.7832 43.4024 3.33687 39.3432 4.42938 35.4354C4.63607 34.6952 4.20375 33.9274 3.4636 33.7205C2.72309 33.5133 1.95566 33.946 1.74878 34.6861C0.588369 38.8379 0 43.1491 0 47.5C0 60.1877 4.94093 72.1159 13.9123 81.0877C22.8839 90.0591 34.8123 95 47.5 95C60.1877 95 72.1161 90.0591 81.0877 81.0877C90.0591 72.1159 95 60.1877 95 47.5C95 34.8123 90.0591 22.8841 81.0877 13.9123Z" fill="#85AEFF"/>
<path d="M75.4646 76.3422C76.0183 76.8753 76.8992 76.8584 77.4321 76.3047C84.9184 68.5273 89.0411 58.2976 89.0411 47.4997C89.0411 36.4036 84.72 25.9718 76.874 18.1255C69.028 10.2795 58.5961 5.9585 47.5001 5.9585C36.404 5.9585 25.9722 10.2795 18.126 18.1255C10.2799 25.9718 5.95891 36.4036 5.95891 47.4997C5.95891 58.5957 10.2799 69.0275 18.126 76.8738C25.972 84.7198 36.404 89.0408 47.5001 89.0408C56.7958 89.0408 65.5846 86.0392 72.9163 80.3606C73.5238 79.8898 73.6349 79.0157 73.1644 78.4082C72.6934 77.8006 71.8192 77.6896 71.212 78.1602C64.3726 83.4575 56.1731 86.2576 47.5001 86.2576C26.1288 86.2576 8.74211 68.8708 8.74211 47.4997C8.74211 26.1286 26.1288 8.7417 47.5001 8.7417C68.8714 8.7417 86.258 26.1286 86.258 47.4997C86.258 57.5741 82.4117 67.1185 75.4271 74.3746C74.894 74.9283 74.9107 75.8093 75.4646 76.3422Z" fill="#85AEFF"/>
<path d="M68.8957 37.307C66.9203 35.1362 64.2863 34.1025 60.8841 34.1025C58.9086 34.1025 57.1526 34.516 55.6161 35.2396C54.0796 35.9632 52.8724 36.9969 51.9944 38.2373V34.3093H41.7877V49.0909C41.7877 50.6415 41.3487 51.8819 40.4707 52.8122C39.5927 53.7425 38.3855 54.156 36.9587 54.156C35.532 54.156 34.3247 53.7425 33.4467 52.8122C32.5688 51.8819 32.1298 50.6415 32.1298 49.0909V34.3093H21.9231V50.3314C21.9231 53.9493 22.9108 56.8436 24.8863 58.9109C26.8618 60.9783 29.4958 62.1154 32.898 62.1154C34.8735 62.1154 36.6295 61.7019 38.166 60.9783C39.7025 60.2547 40.9097 59.221 41.7877 57.9806V61.9086H51.9944V46.1966C52.1041 45.0596 52.5431 44.1293 53.2016 43.4057C54.0796 42.4754 55.2868 42.0619 56.8233 42.0619C58.2501 42.0619 59.4573 42.4754 60.3353 43.4057C61.2133 44.336 61.6523 45.5764 61.6523 47.127V61.9086H71.859V45.7832C71.859 42.2686 70.8712 39.3743 68.8957 37.307Z" fill="white"/>
</svg>
