<svg width="23" height="23" viewBox="0 0 23 23" fill="none" xmlns="http://www.w3.org/2000/svg">
<path d="M11.4997 22.585C17.7186 22.585 22.7601 17.5956 22.7601 11.4407C22.7601 5.28587 17.7186 0.296387 11.4997 0.296387C5.28072 0.296387 0.239258 5.28587 0.239258 11.4407C0.239258 17.5956 5.28072 22.585 11.4997 22.585Z" fill="#F9FAFB"/>
<path d="M11.4997 22.585C17.7186 22.585 22.7601 17.5956 22.7601 11.4407C22.7601 5.28587 17.7186 0.296387 11.4997 0.296387C5.28071 0.296387 0.239258 5.28587 0.239258 11.4407C0.239258 17.5956 5.28071 22.585 11.4997 22.585Z" fill="url(#paint0_linear)"/>
<path d="M17.938 9.60188H16.6018C15.8661 7.58103 13.888 6.19543 11.2794 6.19543H6.98914V9.60188H5.49902V10.824H6.98914V12.1056H5.49902V13.3278H6.98914V16.6934H11.2794C13.858 16.6934 15.8211 15.3189 16.5755 13.3278H17.938V12.1056H16.8758C16.9021 11.8902 16.9171 11.6673 16.9171 11.4444V11.4147C16.9171 11.2141 16.9058 11.0172 16.887 10.824H17.9418V9.60188H17.938ZM8.19026 7.28386H11.2794C13.1936 7.28386 14.6162 8.21626 15.2731 9.59815H8.19026V7.28386ZM11.2794 15.5938H8.19026V13.3241H15.2655C14.6049 14.6837 13.1861 15.5938 11.2794 15.5938ZM15.6747 11.4704C15.6747 11.6859 15.6597 11.8976 15.6296 12.1019H8.19026V10.8203H15.6334C15.6597 11.0209 15.6747 11.2289 15.6747 11.4407V11.4704Z" fill="white"/>
<defs>
<linearGradient id="paint0_linear" x1="11.4997" y1="-2.86116" x2="11.4997" y2="24.9254" gradientUnits="userSpaceOnUse">
<stop stop-color="#F9A606"/>
<stop offset="1" stop-color="#FBCC5F"/>
</linearGradient>
</defs>
</svg>
