<svg width="23" height="23" viewBox="0 0 23 23" fill="none" xmlns="http://www.w3.org/2000/svg">
<path d="M11.4997 22.7605C13.7268 22.7605 15.9039 22.1 17.7556 20.8627C19.6074 19.6254 21.0507 17.8668 21.9029 15.8092C22.7552 13.7516 22.9782 11.4876 22.5437 9.30325C22.1092 7.11895 21.0368 5.11253 19.462 3.53773C17.8872 1.96293 15.8808 0.890481 13.6965 0.455995C11.5122 0.0215097 9.24807 0.244502 7.1905 1.09678C5.13291 1.94905 3.3743 3.39233 2.13698 5.24409C0.899669 7.09585 0.239258 9.27295 0.239258 11.5C0.239258 14.4865 1.42562 17.3506 3.53736 19.4624C5.6491 21.5741 8.51322 22.7605 11.4997 22.7605Z" fill="#071369"/>
<path d="M17.2235 8.90285C16.7087 8.30132 16.0134 8.00055 15.1374 8.00055C14.6617 7.99106 14.1912 8.10424 13.7685 8.32989C13.3956 8.52961 13.0746 8.81893 12.8323 9.17354V8.06913H10.1625V12.2874C10.1625 12.7355 10.0496 13.0883 9.82396 13.3458C9.59828 13.6032 9.29116 13.7317 8.90262 13.7311C8.7324 13.7385 8.56263 13.7079 8.40485 13.6415C8.24707 13.575 8.10498 13.4741 7.98826 13.3458C7.75559 13.0883 7.63926 12.7355 7.63926 12.2874V8.06913H5V12.6375C5 13.6745 5.25506 14.4944 5.76517 15.0972C6.27528 15.6999 6.97327 16.0007 7.85913 15.9995C8.33479 16.0089 8.80525 15.8957 9.22805 15.6701C9.6051 15.4694 9.92664 15.1729 10.1625 14.8084V15.9291H12.8323V11.4636C12.8537 11.1636 12.9681 10.8788 13.1586 10.6515C13.3843 10.3953 13.696 10.2668 14.0939 10.2662C14.2632 10.2588 14.4321 10.2893 14.5889 10.3558C14.7457 10.4224 14.8867 10.5232 15.0021 10.6515C15.2272 10.909 15.3401 11.2618 15.3407 11.7099V15.9282H18V11.3481C18 10.3213 17.7412 9.50619 17.2235 8.90285Z" fill="white"/>
</svg>
