<svg width="23" height="23" viewBox="0 0 23 23" fill="none" xmlns="http://www.w3.org/2000/svg">
<path d="M11.5525 22.7605C13.7567 22.7605 15.9113 22.1 17.744 20.8627C19.5767 19.6254 21.0051 17.8668 21.8485 15.8092C22.6921 13.7516 22.9127 11.4876 22.4827 9.30325C22.0527 7.11895 20.9913 5.11253 19.4328 3.53773C17.8742 1.96293 15.8885 0.890481 13.7267 0.455995C11.5649 0.0215097 9.32414 0.244502 7.28779 1.09678C5.25143 1.94905 3.51092 3.39233 2.28636 5.24409C1.06181 7.09585 0.408203 9.27295 0.408203 11.5C0.408203 14.4865 1.58234 17.3506 3.6723 19.4624C5.76227 21.5741 8.59687 22.7605 11.5525 22.7605Z" fill="#22A079"/>
<path d="M12.8891 12.4379V12.4361C12.8141 12.4414 12.4264 12.4643 11.5639 12.4643C10.8742 12.4643 10.3906 12.445 10.2194 12.4361V12.4379C7.56721 12.3197 5.58895 11.8539 5.58895 11.2947C5.58895 10.7372 7.56896 10.2697 10.2194 10.1515V11.9739C10.3923 11.9863 10.8899 12.0162 11.5761 12.0162C12.4002 12.0162 12.8123 11.981 12.8891 11.9739V10.1532C15.5361 10.2732 17.5092 10.7389 17.5092 11.2964C17.5092 11.8539 15.5344 12.3197 12.8891 12.4397V12.4379ZM12.8891 9.96443V8.33431H16.582V5.84851H6.52832V8.33431H10.2212V9.96443C7.21974 10.1038 4.96387 10.7037 4.96387 11.4235C4.96387 12.1433 7.2215 12.7431 10.2212 12.8842V18.1099H12.8909V12.8842C15.8871 12.7449 18.1395 12.145 18.1395 11.4252C18.1395 10.7072 15.8871 10.1056 12.8909 9.9662" fill="#FEFEFE"/>
</svg>
