<svg width="23" height="23" viewBox="0 0 23 23" fill="none" xmlns="http://www.w3.org/2000/svg">
<path d="M11.4997 22.7605C13.7268 22.7605 15.9039 22.1 17.7556 20.8627C19.6074 19.6254 21.0507 17.8668 21.9029 15.8092C22.7552 13.7516 22.9782 11.4876 22.5437 9.30325C22.1092 7.11895 21.0368 5.11253 19.462 3.53773C17.8872 1.96293 15.8808 0.890481 13.6965 0.455995C11.5122 0.0215097 9.24807 0.244502 7.1905 1.09678C5.13291 1.94905 3.3743 3.39233 2.13698 5.24409C0.899669 7.09585 0.239258 9.27295 0.239258 11.5C0.239258 14.4865 1.42562 17.3506 3.53736 19.4624C5.6491 21.5741 8.51322 22.7605 11.4997 22.7605Z" fill="#2775C9"/>
<path d="M14.6009 13.2895C14.6009 11.6474 13.6015 11.0937 11.6685 10.8287C10.2398 10.6222 9.96536 10.2868 9.96536 9.62053C9.96536 8.95427 10.4486 8.53905 11.3729 8.53905C12.2151 8.53905 12.7007 8.8323 12.9001 9.51027C12.9213 9.58447 12.9658 9.64988 13.0271 9.69676C13.0884 9.74367 13.1631 9.7696 13.2403 9.77065H13.9792C14.0275 9.77166 14.0754 9.762 14.1195 9.7424C14.1636 9.72278 14.2028 9.69367 14.2344 9.65716C14.266 9.62065 14.2892 9.57762 14.3022 9.53116C14.3153 9.48468 14.3179 9.43588 14.31 9.38827C14.0754 8.31619 13.3529 7.67106 12.2198 7.46931V6.33857C12.2198 6.24525 12.1827 6.15574 12.1167 6.08976C12.0507 6.02376 11.9612 5.98669 11.8679 5.98669H11.1641C11.0708 5.98669 10.9813 6.02376 10.9153 6.08976C10.8493 6.15574 10.8122 6.24525 10.8122 6.33857V7.42942C9.40469 7.62647 8.51557 8.55546 8.51557 9.74719C8.51557 11.2885 9.45395 11.8867 11.4151 12.1518C12.75 12.3699 13.13 12.6585 13.13 13.4162C13.13 14.174 12.4849 14.683 11.5747 14.683C10.3477 14.683 9.93251 14.1458 9.79411 13.4491C9.77801 13.3691 9.735 13.2971 9.67225 13.245C9.60951 13.1929 9.5308 13.1639 9.44925 13.1629H8.64696C8.59909 13.1625 8.55172 13.1727 8.50819 13.1926C8.46466 13.2126 8.42599 13.2418 8.39494 13.2782C8.36387 13.3146 8.34115 13.3574 8.32836 13.4035C8.31557 13.4496 8.313 13.498 8.32086 13.5452C8.52496 14.7182 9.278 15.5768 10.8122 15.7833V16.8952C10.8122 16.9886 10.8493 17.0781 10.9153 17.144C10.9813 17.21 11.0708 17.2471 11.1641 17.2471H11.8679C11.9612 17.2471 12.0507 17.21 12.1167 17.144C12.1827 17.0781 12.2198 16.9886 12.2198 16.8952V15.7833C13.6743 15.5534 14.6009 14.5493 14.6009 13.2895Z" fill="white"/>
<path d="M9.10199 18.2276C7.7465 17.7326 6.57594 16.8329 5.74887 15.6505C4.92181 14.468 4.47822 13.0598 4.47822 11.6168C4.47822 10.1738 4.92181 8.76562 5.74887 7.58313C6.57594 6.40062 7.7465 5.50096 9.10199 5.00598C9.18888 4.96784 9.26332 4.90605 9.31685 4.82766C9.37034 4.74927 9.40075 4.65744 9.40461 4.56261V3.90574C9.41024 3.84757 9.40048 3.78895 9.37629 3.73576C9.35209 3.68257 9.31433 3.63667 9.2668 3.60267C9.21926 3.56867 9.16361 3.54781 9.10544 3.5421C9.04729 3.53643 8.98864 3.54615 8.93543 3.57028C7.22845 4.11432 5.73872 5.18713 4.68158 6.63359C3.62444 8.08005 3.05469 9.8252 3.05469 11.6168C3.05469 13.4084 3.62444 15.1535 4.68158 16.6C5.73872 18.0465 7.22845 19.1192 8.93543 19.6633C8.98864 19.6874 9.04729 19.6972 9.10544 19.6915C9.16361 19.6858 9.21926 19.6649 9.2668 19.6309C9.31433 19.5969 9.35209 19.551 9.37629 19.4978C9.40048 19.4446 9.41024 19.386 9.40461 19.3278V18.671C9.40075 18.5761 9.37034 18.4843 9.31685 18.4059C9.26332 18.3275 9.18888 18.2657 9.10199 18.2276Z" fill="white"/>
<path d="M14.0957 3.57028C14.0425 3.54615 13.9839 3.53643 13.9257 3.5421C13.8675 3.54781 13.8119 3.56867 13.7644 3.60267C13.7168 3.63667 13.6791 3.68257 13.6549 3.73576C13.6307 3.78895 13.6209 3.84757 13.6265 3.90574V4.56261C13.6304 4.65744 13.6608 4.74927 13.7143 4.82766C13.7678 4.90605 13.8423 4.96784 13.9292 5.00598C15.2847 5.50096 16.4552 6.40062 17.2823 7.58313C18.1094 8.76562 18.5529 10.1738 18.5529 11.6168C18.5529 13.0598 18.1094 14.468 17.2823 15.6505C16.4552 16.8329 15.2847 17.7326 13.9292 18.2276C13.8394 18.2617 13.7623 18.3224 13.7082 18.4017C13.6541 18.481 13.6256 18.575 13.6265 18.671V19.3278C13.6209 19.386 13.6307 19.4446 13.6549 19.4978C13.6791 19.551 13.7168 19.5969 13.7644 19.6309C13.8119 19.6649 13.8675 19.6858 13.9257 19.6915C13.9839 19.6972 14.0425 19.6874 14.0957 19.6633C15.8027 19.1192 17.2925 18.0465 18.3496 16.6C19.4067 15.1535 19.9765 13.4084 19.9765 11.6168C19.9765 9.8252 19.4067 8.08005 18.3496 6.63359C17.2925 5.18713 15.8027 4.11432 14.0957 3.57028Z" fill="white"/>
</svg>
