<svg width="19" height="18" viewBox="0 0 19 18" fill="none" xmlns="http://www.w3.org/2000/svg">
<path d="M2.28383 17.125H16.7163C18.1922 17.125 19.1122 15.5246 18.3742 14.25L11.158 1.78211C10.4201 0.507526 8.58008 0.507526 7.84216 1.78211L0.625909 14.25C-0.112008 15.5246 0.807992 17.125 2.28383 17.125ZM9.50008 10.4167C8.97299 10.4167 8.54174 9.98544 8.54174 9.45836V7.54169C8.54174 7.01461 8.97299 6.58336 9.50008 6.58336C10.0272 6.58336 10.4584 7.01461 10.4584 7.54169V9.45836C10.4584 9.98544 10.0272 10.4167 9.50008 10.4167ZM10.4584 14.25H8.54174V12.3334H10.4584V14.25Z" fill="white"/>
</svg>
