<svg width="16" height="15" viewBox="0 0 16 15" fill="none" xmlns="http://www.w3.org/2000/svg">
<path d="M1.725 14.5001H14.275C15.5583 14.5001 16.3583 13.1084 15.7167 12.0001L9.44167 1.1584C8.8 0.0500651 7.2 0.0500651 6.55833 1.1584L0.283333 12.0001C-0.358334 13.1084 0.441666 14.5001 1.725 14.5001ZM8 8.66673C7.54167 8.66673 7.16667 8.29173 7.16667 7.8334V6.16673C7.16667 5.7084 7.54167 5.3334 8 5.3334C8.45833 5.3334 8.83333 5.7084 8.83333 6.16673V7.8334C8.83333 8.29173 8.45833 8.66673 8 8.66673ZM8.83333 12.0001H7.16667V10.3334H8.83333V12.0001Z" fill="#E53737"/>
</svg>
