<svg width="93" height="8" viewBox="0 0 93 8" fill="none" xmlns="http://www.w3.org/2000/svg">
<path d="M0.874023 4.07825C2.19845 2.19169 5.69624 -0.449494 9.09197 4.07825C12.4877 8.60599 15.9857 5.96481 17.3103 4.07825C18.6347 2.19169 22.1325 -0.449494 25.5282 4.07825C28.9239 8.60599 32.422 5.96481 33.7465 4.07825C35.0709 2.19169 38.5687 -0.449494 41.9644 4.07825C45.3602 8.60599 48.8582 5.96481 50.1828 4.07825C51.5072 2.19169 55.0049 -0.449494 58.4007 4.07825C61.7964 8.60599 65.2944 5.96481 66.619 4.07825C67.9434 2.19169 71.4413 -0.449494 74.8371 4.07825C78.2328 8.60599 81.7308 5.96481 83.0554 4.07825C84.3798 2.19169 87.8779 -0.449494 91.2736 4.07825" stroke="white" stroke-width="2"/>
</svg>
