<svg width="183" height="32" viewBox="0 0 183 32" fill="none" xmlns="http://www.w3.org/2000/svg">
<path d="M43.3936 5.84215C42.8839 3.94898 41.3912 2.45629 39.498 1.94659C36.0393 1 22.2046 1 22.2046 1C22.2046 1 8.36989 1 4.91121 1.91018C3.05445 2.41988 1.52535 3.94898 1.01565 5.84215C0.105469 9.30083 0.105469 16.473 0.105469 16.473C0.105469 16.473 0.105469 23.6816 1.01565 27.1039C1.52535 28.9971 3.01804 30.4898 4.91121 30.9995C8.4063 31.9461 22.2046 31.9461 22.2046 31.9461C22.2046 31.9461 36.0393 31.9461 39.498 31.0359C41.3912 30.5262 42.8839 29.0335 43.3936 27.1403C44.3037 23.6817 44.3037 16.5094 44.3037 16.5094C44.3037 16.5094 44.3401 9.30083 43.3936 5.84215Z" fill="#FF0000"/>
<path d="M17.7988 9.84668V23.0989L29.3035 16.4728L17.7988 9.84668Z" fill="white"/>
<path d="M64.2915 29.1778C63.4178 28.5953 62.7989 27.6851 62.4348 26.4108C62.0707 25.173 61.8887 23.4983 61.8887 21.4595V18.6561C61.8887 16.5809 62.1071 14.9062 62.5076 13.6319C62.9445 12.3577 63.5998 11.4475 64.4736 10.865C65.3838 10.2825 66.5488 9.99121 68.0051 9.99121C69.425 9.99121 70.59 10.2825 71.4637 10.865C72.3375 11.4475 72.9564 12.3941 73.3569 13.6319C73.7574 14.8698 73.9758 16.5445 73.9758 18.6561V21.4595C73.9758 23.5347 73.7938 25.173 73.3933 26.4472C72.9929 27.6851 72.3739 28.6317 71.5002 29.2142C70.6264 29.7967 69.425 30.088 67.9323 30.088C66.4032 30.0515 65.1653 29.7603 64.2915 29.1778ZM69.2065 26.1196C69.4614 25.5007 69.5706 24.4448 69.5706 23.025V16.9814C69.5706 15.5979 69.4614 14.5785 69.2065 13.9232C68.9517 13.2679 68.5512 12.9766 67.9323 12.9766C67.3497 12.9766 66.9129 13.3043 66.6944 13.9232C66.4396 14.5785 66.3303 15.5979 66.3303 16.9814V23.025C66.3303 24.4448 66.4396 25.5007 66.6944 26.1196C66.9129 26.7385 67.3497 27.0662 67.9687 27.0662C68.5512 27.0662 68.9517 26.7749 69.2065 26.1196Z" fill="white"/>
<path d="M131.499 21.4974V22.4804C131.499 23.7182 131.535 24.6648 131.608 25.2837C131.681 25.9027 131.826 26.3759 132.081 26.6308C132.3 26.9221 132.664 27.0677 133.173 27.0677C133.829 27.0677 134.266 26.8128 134.52 26.3031C134.775 25.7934 134.884 24.9561 134.921 23.7546L138.671 23.9731C138.707 24.1551 138.707 24.3736 138.707 24.6648C138.707 26.4488 138.234 27.7958 137.251 28.6696C136.268 29.5434 134.884 29.9803 133.101 29.9803C130.953 29.9803 129.46 29.2885 128.586 27.9415C127.712 26.5944 127.275 24.5192 127.275 21.6794V18.2936C127.275 15.381 127.712 13.2694 128.622 11.9223C129.533 10.5753 131.062 9.91992 133.21 9.91992C134.702 9.91992 135.867 10.2112 136.668 10.7573C137.469 11.3034 138.016 12.1772 138.343 13.3058C138.671 14.4708 138.816 16.0727 138.816 18.1115V21.4246H131.499V21.4974ZM132.045 13.3422C131.826 13.6335 131.681 14.0703 131.608 14.6893C131.535 15.3082 131.499 16.2548 131.499 17.529V18.9125H134.702V17.529C134.702 16.2912 134.666 15.3446 134.593 14.6893C134.52 14.0339 134.338 13.597 134.12 13.3422C133.901 13.0873 133.537 12.9417 133.101 12.9417C132.591 12.9053 132.263 13.0509 132.045 13.3422Z" fill="white"/>
<path d="M53.6604 21.1323L48.709 3.18359H53.0414L54.789 11.3024C55.2259 13.3048 55.5535 15.0159 55.772 16.4358H55.8812C56.0268 15.4164 56.3545 13.7417 56.8642 11.3388L58.6845 3.18359H63.017L57.9928 21.1323V29.7244H53.6968V21.1323H53.6604Z" fill="white"/>
<path d="M88.0647 10.3564V29.7614H84.6425L84.2784 27.395H84.1692C83.259 29.1789 81.8391 30.0891 79.9824 30.0891C78.7081 30.0891 77.7615 29.6522 77.1426 28.8149C76.5237 27.9775 76.2324 26.6668 76.2324 24.8465V10.3564H80.6013V24.5916C80.6013 25.4654 80.7105 26.0843 80.8925 26.4484C81.0746 26.8125 81.4022 26.9945 81.8391 26.9945C82.2032 26.9945 82.5673 26.8853 82.9313 26.6304C83.2954 26.412 83.5503 26.1207 83.6959 25.7567V10.3564H88.0647Z" fill="white"/>
<path d="M110.455 10.3564V29.7614H107.033L106.669 27.395H106.56C105.65 29.1789 104.23 30.0891 102.373 30.0891C101.099 30.0891 100.152 29.6522 99.5332 28.8149C98.9143 27.9775 98.623 26.6668 98.623 24.8465V10.3564H102.992V24.5916C102.992 25.4654 103.101 26.0843 103.283 26.4484C103.465 26.8125 103.793 26.9945 104.23 26.9945C104.594 26.9945 104.958 26.8853 105.322 26.6304C105.686 26.412 105.941 26.1207 106.087 25.7567V10.3564H110.455Z" fill="white"/>
<path d="M99.9333 6.71509H95.6009V29.7244H91.3412V6.71509H87.0088V3.18359H99.9333V6.71509Z" fill="white"/>
<path d="M124.908 13.451C124.654 12.2131 124.217 11.3394 123.634 10.7933C123.052 10.2472 122.214 9.95589 121.195 9.95589C120.394 9.95589 119.629 10.1743 118.938 10.6476C118.246 11.0845 117.7 11.7034 117.336 12.4316H117.299V2.20117H113.076V29.725H116.68L117.117 27.9046H117.227C117.554 28.5599 118.064 29.0696 118.756 29.4701C119.447 29.8342 120.176 30.0526 121.013 30.0526C122.506 30.0526 123.561 29.3609 124.253 28.0138C124.945 26.6668 125.309 24.5188 125.309 21.6426V18.5844C125.273 16.3636 125.163 14.6524 124.908 13.451ZM120.904 21.3513C120.904 22.7712 120.831 23.8634 120.722 24.6644C120.612 25.4653 120.394 26.0478 120.139 26.3755C119.848 26.7032 119.484 26.8852 119.047 26.8852C118.683 26.8852 118.355 26.8124 118.064 26.6304C117.773 26.4483 117.518 26.1935 117.336 25.8658V14.8709C117.481 14.3612 117.736 13.9243 118.1 13.5602C118.464 13.2325 118.865 13.0505 119.265 13.0505C119.702 13.0505 120.066 13.2325 120.285 13.5602C120.54 13.9243 120.685 14.5068 120.794 15.3077C120.904 16.1451 120.94 17.3101 120.94 18.8028V21.3513H120.904Z" fill="white"/>
<path fill-rule="evenodd" clip-rule="evenodd" d="M157.667 9.33366C157.313 9.33366 156.974 9.47413 156.724 9.72418C156.474 9.97423 156.334 10.3134 156.334 10.667V25.3337C156.334 25.6873 156.474 26.0264 156.724 26.2765C156.974 26.5265 157.313 26.667 157.667 26.667H172.334C172.687 26.667 173.026 26.5265 173.276 26.2765C173.527 26.0264 173.667 25.6873 173.667 25.3337V17.3337C173.667 16.5973 174.264 16.0003 175 16.0003C175.737 16.0003 176.334 16.5973 176.334 17.3337V25.3337C176.334 26.3945 175.912 27.4119 175.162 28.1621C174.412 28.9122 173.395 29.3337 172.334 29.3337H157.667C156.606 29.3337 155.589 28.9122 154.839 28.1621C154.088 27.4119 153.667 26.3945 153.667 25.3337V10.667C153.667 9.60613 154.088 8.58871 154.839 7.83856C155.589 7.08842 156.606 6.66699 157.667 6.66699H165.667C166.403 6.66699 167 7.26395 167 8.00033C167 8.73671 166.403 9.33366 165.667 9.33366H157.667Z" fill="white"/>
<path fill-rule="evenodd" clip-rule="evenodd" d="M169.667 4.00033C169.667 3.26395 170.264 2.66699 171 2.66699H179C179.737 2.66699 180.334 3.26395 180.334 4.00033V12.0003C180.334 12.7367 179.737 13.3337 179 13.3337C178.264 13.3337 177.667 12.7367 177.667 12.0003V5.33366H171C170.264 5.33366 169.667 4.73671 169.667 4.00033Z" fill="white"/>
<path fill-rule="evenodd" clip-rule="evenodd" d="M179.943 3.05752C180.464 3.57822 180.464 4.42244 179.943 4.94313L165.276 19.6098C164.755 20.1305 163.911 20.1305 163.391 19.6098C162.87 19.0891 162.87 18.2449 163.391 17.7242L178.057 3.05752C178.578 2.53682 179.422 2.53682 179.943 3.05752Z" fill="white"/>
</svg>
