<svg width="375" height="473" viewBox="0 0 375 473" fill="none" xmlns="http://www.w3.org/2000/svg">
<g filter="url(#filter0_ddd2)">
<path d="M245.964 333.848C245.5 333.045 245.5 332.055 245.964 331.252L257.39 311.462C257.853 310.659 258.71 310.165 259.637 310.165H282.489C283.416 310.165 284.273 310.659 284.736 311.462L296.162 331.252C296.626 332.055 296.626 333.045 296.162 333.848L284.736 353.638C284.273 354.441 283.416 354.935 282.489 354.935H259.637C258.71 354.935 257.853 354.441 257.39 353.638L245.964 333.848Z" fill="#5D78CF"/>
</g>
<g filter="url(#filter1_ddd2)">
<path d="M204.709 26.916C206.563 26.916 208.277 27.9053 209.204 29.5111L226.254 59.044C227.182 60.6498 227.182 62.6282 226.254 64.2341L209.204 93.7669C208.277 95.3727 206.563 96.362 204.709 96.362L170.607 96.362C168.753 96.362 167.04 95.3727 166.113 93.7669L149.062 64.2341C148.135 62.6282 148.135 60.6498 149.062 59.044L166.113 29.5111C167.04 27.9053 168.753 26.916 170.607 26.916L204.709 26.916Z" fill="url(#paint0_linear2)"/>
</g>
<g filter="url(#filter2_ddd2)">
<path d="M204.709 171.564C206.563 171.564 208.277 172.553 209.204 174.159L226.254 203.692C227.182 205.298 227.182 207.276 226.254 208.882L209.204 238.415C208.277 240.021 206.563 241.01 204.709 241.01L170.607 241.01C168.753 241.01 167.04 240.021 166.113 238.415L149.062 208.882C148.135 207.276 148.135 205.298 149.062 203.692L166.113 174.159C167.04 172.553 168.753 171.564 170.607 171.564L204.709 171.564Z" fill="url(#paint1_linear2)"/>
</g>
<g filter="url(#filter3_ddd2)">
<path d="M18.311 304.327C17.4997 302.922 17.4997 301.191 18.311 299.786L35.7363 269.604C36.5476 268.199 38.0468 267.334 39.6693 267.334H74.52C76.1425 267.334 77.6417 268.199 78.4529 269.604L95.8783 299.786C96.6895 301.191 96.6895 302.922 95.8783 304.327L78.4529 334.509C77.6417 335.914 76.1425 336.78 74.52 336.78H39.6693C38.0468 336.78 36.5476 335.914 35.7363 334.509L18.311 304.327Z" fill="white"/>
</g>
<g filter="url(#filter4_ddd2)">
<path d="M148.875 348.672C148.064 347.267 148.064 345.536 148.875 344.131L166.301 313.949C167.112 312.544 168.611 311.678 170.234 311.678H205.084C206.707 311.678 208.206 312.544 209.017 313.949L226.443 344.131C227.254 345.536 227.254 347.267 226.443 348.672L209.017 378.854C208.206 380.259 206.707 381.124 205.084 381.124H170.234C168.611 381.124 167.112 380.259 166.301 378.854L148.875 348.672Z" fill="white"/>
</g>
<g filter="url(#filter5_ddd2)">
<path d="M18.3119 140.333C17.5007 138.928 17.5007 137.197 18.3119 135.791L35.7373 105.61C36.5486 104.205 38.0478 103.339 39.6702 103.339H74.521C76.1434 103.339 77.6427 104.205 78.4539 105.61L95.8793 135.791C96.6905 137.197 96.6905 138.928 95.8793 140.333L78.4539 170.514C77.6427 171.92 76.1434 172.785 74.521 172.785H39.6702C38.0478 172.785 36.5486 171.92 35.7373 170.514L18.3119 140.333Z" fill="white"/>
</g>
<g filter="url(#filter6_ddd2)">
<path d="M250.195 65.581C251.122 65.581 251.978 66.0756 252.442 66.8785L263.868 86.6686C264.331 87.4715 264.331 88.4608 263.868 89.2637L252.442 109.054C251.978 109.857 251.122 110.351 250.195 110.351L227.343 110.351C226.416 110.351 225.559 109.857 225.095 109.054L213.67 89.2637C213.206 88.4608 213.206 87.4715 213.67 86.6686L225.095 66.8785C225.559 66.0756 226.416 65.581 227.343 65.581L250.195 65.581Z" fill="#5D78CF"/>
</g>
<g filter="url(#filter7_ddd2)">
<path d="M31.9972 246.486C31.5336 245.683 31.5336 244.694 31.9972 243.891L43.423 224.101C43.8866 223.298 44.7433 222.803 45.6704 222.803H68.5221C69.4492 222.803 70.3059 223.298 70.7695 224.101L82.1953 243.891C82.6589 244.694 82.6589 245.683 82.1953 246.486L70.7695 266.276C70.3059 267.079 69.4492 267.574 68.5221 267.574H45.6704C44.7433 267.574 43.8866 267.079 43.423 266.276L31.9972 246.486Z" fill="#5D78CF"/>
</g>
<g filter="url(#filter8_ddd2)">
<path d="M123.371 298.129C123.835 297.326 124.692 296.831 125.619 296.831L148.47 296.831C149.398 296.831 150.254 297.326 150.718 298.129L162.144 317.919C162.607 318.722 162.607 319.711 162.144 320.514L150.718 340.304C150.254 341.107 149.398 341.602 148.47 341.602L125.619 341.602C124.692 341.602 123.835 341.107 123.371 340.304L111.946 320.514C111.482 319.711 111.482 318.722 111.946 317.919L123.371 298.129Z" fill="#5D78CF"/>
</g>
<g filter="url(#filter9_ddd2)">
<path d="M343.32 194.134C343.784 194.937 343.784 195.926 343.32 196.729L331.894 216.519C331.431 217.322 330.574 217.816 329.647 217.816H306.795C305.868 217.816 305.011 217.322 304.548 216.519L293.122 196.729C292.659 195.926 292.659 194.937 293.122 194.134L304.548 174.344C305.011 173.541 305.868 173.046 306.795 173.046H329.647C330.574 173.046 331.431 173.541 331.894 174.344L343.32 194.134Z" fill="#5D78CF"/>
</g>
<path d="M46.8529 40.799H49.5154V42.3287H44.856V34.0726H46.8529V40.799ZM53.025 35.7308C53.5233 35.7308 53.9514 35.8437 54.3096 36.0695C54.6677 36.2952 54.9324 36.6028 55.1036 36.992V35.8126H57.0889V42.3287H55.1036V41.1493C54.9324 41.5385 54.6677 41.8461 54.3096 42.0718C53.9514 42.2976 53.5233 42.4105 53.025 42.4105C52.4878 42.4105 52.0052 42.2781 51.577 42.0134C51.1566 41.741 50.8218 41.3517 50.5727 40.8457C50.3313 40.3396 50.2107 39.748 50.2107 39.0706C50.2107 38.3856 50.3313 37.7939 50.5727 37.2956C50.8218 36.7896 51.1566 36.4042 51.577 36.1395C52.0052 35.8671 52.4878 35.7308 53.025 35.7308ZM53.6673 37.4825C53.2391 37.4825 52.8927 37.6226 52.628 37.9029C52.3711 38.1831 52.2426 38.5724 52.2426 39.0706C52.2426 39.5689 52.3711 39.9582 52.628 40.2384C52.8927 40.5187 53.2391 40.6588 53.6673 40.6588C54.0877 40.6588 54.4302 40.5148 54.6949 40.2267C54.9674 39.9387 55.1036 39.5533 55.1036 39.0706C55.1036 38.5802 54.9674 38.1948 54.6949 37.9146C54.4302 37.6265 54.0877 37.4825 53.6673 37.4825ZM62.2707 40.6121V42.3287H61.3715C60.6085 42.3287 60.013 42.1419 59.5848 41.7682C59.1644 41.3867 58.9542 40.76 58.9542 39.8881V37.4942H58.0784V35.8126H58.9542V34.2127H60.9511V35.8126H62.259V37.4942H60.9511V39.9231C60.9511 40.18 61.0017 40.3591 61.1029 40.4603C61.2119 40.5615 61.3909 40.6121 61.6401 40.6121H62.2707ZM69.699 38.8955C69.699 39.059 69.6795 39.238 69.6406 39.4327H65.1213C65.1447 39.9231 65.2692 40.2773 65.495 40.4953C65.7208 40.7055 66.0088 40.8106 66.3591 40.8106C66.655 40.8106 66.9002 40.7367 67.0948 40.5888C67.2895 40.4408 67.4179 40.2501 67.4802 40.0165H69.5939C69.5082 40.4759 69.3214 40.8885 69.0333 41.2544C68.7453 41.6125 68.3794 41.8967 67.9356 42.1069C67.4919 42.3093 66.9975 42.4105 66.4526 42.4105C65.8142 42.4105 65.2459 42.2781 64.7476 42.0134C64.2572 41.741 63.8718 41.3517 63.5915 40.8457C63.3113 40.3396 63.1711 39.748 63.1711 39.0706C63.1711 38.3856 63.3074 37.7939 63.5798 37.2956C63.8601 36.7896 64.2494 36.4042 64.7476 36.1395C65.2459 35.8671 65.8142 35.7308 66.4526 35.7308C67.0987 35.7308 67.6671 35.8632 68.1575 36.1279C68.648 36.3926 69.0256 36.7662 69.2903 37.2489C69.5627 37.7238 69.699 38.2727 69.699 38.8955ZM67.6787 38.5919C67.6865 38.1637 67.5697 37.8445 67.3284 37.6343C67.0948 37.4163 66.8029 37.3073 66.4526 37.3073C66.0867 37.3073 65.783 37.4163 65.5417 37.6343C65.3004 37.8523 65.1641 38.1715 65.133 38.5919H67.6787ZM78.4262 40.8223H75.3316L74.8177 42.3287H72.7158L75.7403 34.131H78.0408L81.0653 42.3287H78.94L78.4262 40.8223ZM77.9123 39.3042L76.8847 36.268L75.8454 39.3042H77.9123ZM83.9552 37.0387C84.2043 36.6417 84.5235 36.3264 84.9128 36.0928C85.3098 35.8593 85.738 35.7425 86.1973 35.7425V37.8795H85.6251C85.0957 37.8795 84.6831 37.9924 84.3873 38.2182C84.0992 38.4439 83.9552 38.8254 83.9552 39.3626V42.3287H81.9583V35.8126H83.9552V37.0387ZM89.1468 37.0387C89.3959 36.6417 89.7151 36.3264 90.1044 36.0928C90.5014 35.8593 90.9296 35.7425 91.3889 35.7425V37.8795H90.8167C90.2873 37.8795 89.8747 37.9924 89.5789 38.2182C89.2908 38.4439 89.1468 38.8254 89.1468 39.3626V42.3287H87.1499V35.8126H89.1468V37.0387ZM92.1546 33.9792C92.1546 33.6755 92.2636 33.4264 92.4816 33.2318C92.6996 33.0294 92.9876 32.9282 93.3457 32.9282C93.7039 32.9282 93.9919 33.0294 94.2099 33.2318C94.4279 33.4264 94.5369 33.6755 94.5369 33.9792C94.5369 34.275 94.4279 34.5241 94.2099 34.7265C93.9919 34.9212 93.7039 35.0185 93.3457 35.0185C92.9876 35.0185 92.6996 34.9212 92.4816 34.7265C92.2636 34.5241 92.1546 34.275 92.1546 33.9792ZM94.3384 35.8126V42.3287H92.3415V35.8126H94.3384ZM98.8467 40.3786L100.26 35.8126H102.385L100.073 42.3287H97.5972L95.285 35.8126H97.4103L98.8467 40.3786ZM103.142 33.9792C103.142 33.6755 103.251 33.4264 103.469 33.2318C103.687 33.0294 103.975 32.9282 104.333 32.9282C104.691 32.9282 104.979 33.0294 105.197 33.2318C105.415 33.4264 105.524 33.6755 105.524 33.9792C105.524 34.275 105.415 34.5241 105.197 34.7265C104.979 34.9212 104.691 35.0185 104.333 35.0185C103.975 35.0185 103.687 34.9212 103.469 34.7265C103.251 34.5241 103.142 34.275 103.142 33.9792ZM105.326 35.8126V42.3287H103.329V35.8126H105.326ZM110.955 35.7425C111.703 35.7425 112.294 35.9916 112.73 36.4899C113.174 36.9881 113.396 37.6732 113.396 38.5452V42.3287H111.399V38.7787C111.399 38.3427 111.282 38.0041 111.049 37.7627C110.823 37.5136 110.519 37.3891 110.138 37.3891C109.733 37.3891 109.41 37.5175 109.169 37.7744C108.935 38.0313 108.818 38.3972 108.818 38.8721V42.3287H106.821V35.8126H108.818V37.0037C109.005 36.6144 109.281 36.3069 109.647 36.0811C110.021 35.8554 110.457 35.7425 110.955 35.7425ZM117.305 35.7308C117.804 35.7308 118.232 35.8437 118.59 36.0695C118.948 36.2952 119.213 36.6028 119.384 36.992V35.8126H121.369V42.2937C121.369 42.9009 121.253 43.4459 121.019 43.9286C120.785 44.419 120.427 44.8083 119.945 45.0964C119.462 45.3844 118.862 45.5284 118.146 45.5284C117.165 45.5284 116.379 45.2949 115.787 44.8278C115.203 44.3684 114.853 43.7417 114.736 42.9477H116.71C116.772 43.2124 116.912 43.4187 117.13 43.5666C117.356 43.7145 117.648 43.7885 118.006 43.7885C118.419 43.7885 118.75 43.6678 118.999 43.4264C119.256 43.1929 119.384 42.8153 119.384 42.2937V41.1493C119.213 41.5385 118.948 41.8461 118.59 42.0718C118.232 42.2976 117.804 42.4105 117.305 42.4105C116.768 42.4105 116.286 42.2781 115.857 42.0134C115.437 41.741 115.102 41.3517 114.853 40.8457C114.612 40.3396 114.491 39.748 114.491 39.0706C114.491 38.3856 114.612 37.7939 114.853 37.2956C115.102 36.7896 115.437 36.4042 115.857 36.1395C116.286 35.8671 116.768 35.7308 117.305 35.7308ZM117.948 37.4825C117.52 37.4825 117.173 37.6226 116.908 37.9029C116.651 38.1831 116.523 38.5724 116.523 39.0706C116.523 39.5689 116.651 39.9582 116.908 40.2384C117.173 40.5187 117.52 40.6588 117.948 40.6588C118.368 40.6588 118.711 40.5148 118.975 40.2267C119.248 39.9387 119.384 39.5533 119.384 39.0706C119.384 38.5802 119.248 38.1948 118.975 37.9146C118.711 37.6265 118.368 37.4825 117.948 37.4825ZM56.0783 54.0726L54.1047 62.3287H51.6291L50.3095 56.8052L48.9782 62.3287H46.5025L44.529 54.0726H46.7011L47.7637 60.0516L49.2118 54.0726H51.3955L52.8435 60.0516L53.9179 54.0726H56.0783ZM57.0567 53.9792C57.0567 53.6755 57.1656 53.4264 57.3836 53.2318C57.6016 53.0294 57.8897 52.9282 58.2478 52.9282C58.6059 52.9282 58.8939 53.0294 59.1119 53.2318C59.3299 53.4264 59.4389 53.6755 59.4389 53.9792C59.4389 54.275 59.3299 54.5241 59.1119 54.7265C58.8939 54.9212 58.6059 55.0185 58.2478 55.0185C57.8897 55.0185 57.6016 54.9212 57.3836 54.7265C57.1656 54.5241 57.0567 54.275 57.0567 53.9792ZM59.2404 55.8126V62.3287H57.2435V55.8126H59.2404ZM62.7328 57.0387C62.9819 56.6417 63.3011 56.3264 63.6903 56.0928C64.0874 55.8593 64.5156 55.7425 64.9749 55.7425V57.8795H64.4027C63.8733 57.8795 63.4607 57.9924 63.1648 58.2182C62.8768 58.4439 62.7328 58.8254 62.7328 59.3626V62.3287H60.7359V55.8126H62.7328V57.0387ZM72.1166 58.8955C72.1166 59.059 72.0972 59.238 72.0582 59.4327H67.539C67.5623 59.9231 67.6869 60.2773 67.9127 60.4953C68.1384 60.7055 68.4265 60.8106 68.7768 60.8106C69.0726 60.8106 69.3179 60.7367 69.5125 60.5888C69.7071 60.4408 69.8356 60.2501 69.8979 60.0165H72.0115C71.9259 60.4759 71.7391 60.8885 71.451 61.2544C71.163 61.6125 70.7971 61.8967 70.3533 62.1069C69.9095 62.3093 69.4152 62.4105 68.8702 62.4105C68.2318 62.4105 67.6635 62.2781 67.1653 62.0134C66.6748 61.741 66.2894 61.3517 66.0092 60.8457C65.7289 60.3396 65.5888 59.748 65.5888 59.0706C65.5888 58.3856 65.725 57.7939 65.9975 57.2956C66.2778 56.7896 66.667 56.4042 67.1653 56.1395C67.6635 55.8671 68.2318 55.7308 68.8702 55.7308C69.5164 55.7308 70.0847 55.8632 70.5752 56.1279C71.0656 56.3926 71.4432 56.7662 71.7079 57.2489C71.9804 57.7238 72.1166 58.2727 72.1166 58.8955ZM70.0964 58.5919C70.1042 58.1637 69.9874 57.8445 69.7461 57.6343C69.5125 57.4163 69.2206 57.3073 68.8702 57.3073C68.5043 57.3073 68.2007 57.4163 67.9594 57.6343C67.718 57.8523 67.5818 58.1715 67.5506 58.5919H70.0964Z" fill="white"/>
<path d="M138.084 62.1798C138.274 61.9898 138.274 61.6817 138.084 61.4917L134.988 58.3952C134.798 58.2052 134.49 58.2052 134.299 58.3952C134.109 58.5852 134.109 58.8933 134.299 59.0833L137.052 61.8358L134.299 64.5882C134.109 64.7782 134.109 65.0863 134.299 65.2763C134.49 65.4664 134.798 65.4664 134.988 65.2763L138.084 62.1798ZM83.1455 62.3223H137.74V61.3492H83.1455V62.3223Z" fill="white"/>
<path d="M230.501 82.8008C230.247 82.8882 230.112 83.165 230.199 83.4191L231.622 87.5605C231.71 87.8146 231.987 87.9498 232.241 87.8625C232.495 87.7752 232.63 87.4983 232.543 87.2442L231.277 83.563L234.959 82.2977C235.213 82.2104 235.348 81.9336 235.261 81.6794C235.173 81.4253 234.897 81.2901 234.642 81.3774L230.501 82.8008ZM282.443 108.937C282.697 108.849 282.833 108.572 282.745 108.318L281.322 104.177C281.235 103.923 280.958 103.788 280.704 103.875C280.449 103.962 280.314 104.239 280.402 104.493L281.667 108.174L277.986 109.44C277.731 109.527 277.596 109.804 277.684 110.058C277.771 110.312 278.048 110.447 278.302 110.36L282.443 108.937ZM230.446 83.6982L282.072 108.914L282.499 108.039L230.873 82.8238L230.446 83.6982Z" fill="white"/>
<g filter="url(#filter10_ddd2)">
<path d="M357.004 135.791C357.816 137.196 357.816 138.927 357.004 140.332L339.579 170.514C338.768 171.919 337.269 172.785 335.646 172.785H300.795C299.173 172.785 297.674 171.919 296.863 170.514L279.437 140.332C278.626 138.927 278.626 137.196 279.437 135.791L296.863 105.609C297.674 104.204 299.173 103.339 300.795 103.339H335.646C337.269 103.339 338.768 104.204 339.579 105.609L357.004 135.791Z" fill="white"/>
</g>
<g filter="url(#filter11_ddd2)">
<path d="M281.319 304.326C280.508 302.921 280.508 301.19 281.319 299.785L298.744 269.603C299.555 268.198 301.055 267.333 302.677 267.333H337.528C339.15 267.333 340.65 268.198 341.461 269.603L358.886 299.785C359.697 301.19 359.697 302.921 358.886 304.326L341.461 334.508C340.65 335.913 339.15 336.779 337.528 336.779H302.677C301.055 336.779 299.555 335.913 298.744 334.508L281.319 304.326Z" fill="white"/>
</g>
<path d="M174.859 205.273C175.524 205.429 176.048 205.751 176.432 206.238C176.826 206.726 177.024 207.292 177.024 207.936C177.024 208.88 176.707 209.617 176.074 210.147C175.451 210.676 174.553 210.941 173.38 210.941H168.258V199.932H173.256C174.377 199.932 175.243 200.176 175.856 200.664C176.468 201.152 176.774 201.848 176.774 202.751C176.774 203.415 176.598 203.97 176.245 204.417C175.892 204.853 175.43 205.138 174.859 205.273ZM170.92 204.432H172.664C173.588 204.432 174.05 204.038 174.05 203.249C174.05 202.46 173.577 202.066 172.633 202.066H170.92V204.432ZM172.82 208.776C173.806 208.776 174.299 208.372 174.299 207.562C174.299 207.167 174.169 206.861 173.91 206.643C173.65 206.415 173.282 206.301 172.804 206.301H170.92V208.776H172.82ZM181.887 202.143C182.551 202.143 183.122 202.294 183.599 202.595C184.077 202.896 184.43 203.306 184.658 203.825V202.252H187.305V210.941H184.658V209.368C184.43 209.887 184.077 210.297 183.599 210.598C183.122 210.899 182.551 211.05 181.887 211.05C181.17 211.05 180.527 210.873 179.956 210.52C179.395 210.157 178.949 209.638 178.617 208.963C178.295 208.289 178.134 207.5 178.134 206.597C178.134 205.683 178.295 204.894 178.617 204.23C178.949 203.555 179.395 203.041 179.956 202.688C180.527 202.325 181.17 202.143 181.887 202.143ZM182.743 204.479C182.172 204.479 181.71 204.666 181.357 205.04C181.015 205.413 180.843 205.932 180.843 206.597C180.843 207.261 181.015 207.78 181.357 208.154C181.71 208.527 182.172 208.714 182.743 208.714C183.303 208.714 183.76 208.522 184.113 208.138C184.476 207.754 184.658 207.24 184.658 206.597C184.658 205.943 184.476 205.429 184.113 205.055C183.76 204.671 183.303 204.479 182.743 204.479ZM194.806 202.159C195.802 202.159 196.591 202.491 197.172 203.156C197.764 203.82 198.06 204.733 198.06 205.896V210.941H195.397V206.207C195.397 205.626 195.242 205.174 194.93 204.853C194.629 204.521 194.224 204.354 193.716 204.354C193.176 204.354 192.745 204.526 192.423 204.868C192.112 205.211 191.956 205.699 191.956 206.332V210.941H189.294V202.252H191.956V203.841C192.206 203.322 192.574 202.912 193.062 202.611C193.56 202.31 194.141 202.159 194.806 202.159ZM205.234 210.941L202.634 207.251V210.941H199.972V199.419H202.634V205.74L205.234 202.252H208.364L204.861 206.597L208.442 210.941H205.234Z" fill="white"/>
<path d="M328.36 300.273H331.888V308.722H328.36V300.273Z" fill="url(#paint2_linear2)"/>
<path d="M321.678 300.273H325.207V308.722H321.678V300.273Z" fill="url(#paint3_linear2)"/>
<path d="M314.996 300.273H318.525V308.722H314.996V300.273Z" fill="url(#paint4_linear2)"/>
<path d="M308.314 300.273H311.843V308.722H308.314V300.273Z" fill="url(#paint5_linear2)"/>
<path d="M333.065 297.627V296.745H307.138V297.627C307.138 298.114 307.533 298.509 308.02 298.509H332.182C332.669 298.509 333.065 298.114 333.065 297.627Z" fill="url(#paint6_linear2)"/>
<path d="M334.274 310.486H305.929C305.441 310.486 305.047 310.881 305.047 311.368V313.721C305.047 314.208 305.441 314.603 305.929 314.603H334.274C334.761 314.603 335.156 314.208 335.156 313.721V311.368C335.156 310.881 334.761 310.486 334.274 310.486Z" fill="url(#paint7_linear2)"/>
<path d="M305.928 294.98H334.275C334.669 294.98 335.016 294.718 335.124 294.339C335.231 293.959 335.073 293.554 334.737 293.347L320.564 284.623C320.28 284.448 319.923 284.448 319.639 284.623L305.466 293.347C305.129 293.554 304.972 293.959 305.079 294.339C305.187 294.718 305.534 294.98 305.928 294.98ZM319.502 289.681H320.701C321.188 289.681 321.583 290.076 321.583 290.563C321.583 291.05 321.188 291.445 320.701 291.445H319.502C319.015 291.445 318.62 291.05 318.62 290.563C318.62 290.076 319.015 289.681 319.502 289.681Z" fill="url(#paint8_linear2)"/>
<path d="M65.3532 136.279H68.8816V144.727H65.3532V136.279Z" fill="url(#paint9_linear2)"/>
<path d="M58.6715 136.279H62.2001V144.727H58.6715V136.279Z" fill="url(#paint10_linear2)"/>
<path d="M51.9891 136.279H55.5177V144.727H51.9891V136.279Z" fill="url(#paint11_linear2)"/>
<path d="M45.3073 136.279H48.8358V144.727H45.3073V136.279Z" fill="url(#paint12_linear2)"/>
<path d="M70.0577 133.632V132.75H44.1311V133.632C44.1311 134.119 44.526 134.514 45.0133 134.514H69.1755C69.6626 134.514 70.0577 134.119 70.0577 133.632Z" fill="url(#paint13_linear2)"/>
<path d="M71.2672 146.491H42.9218C42.4346 146.491 42.0397 146.886 42.0397 147.374V149.726C42.0397 150.213 42.4346 150.608 42.9218 150.608H71.2672C71.7545 150.608 72.1494 150.213 72.1494 149.726V147.374C72.1494 146.886 71.7545 146.491 71.2672 146.491Z" fill="url(#paint14_linear2)"/>
<path d="M42.9211 130.986H71.2679C71.6626 130.986 72.0092 130.723 72.1168 130.344C72.224 129.964 72.0664 129.559 71.7304 129.352L57.557 120.628C57.2735 120.453 56.9158 120.453 56.6321 120.628L42.4587 129.352C42.1226 129.559 41.965 129.964 42.0725 130.344C42.18 130.723 42.5267 130.986 42.9211 130.986ZM56.4949 125.686H57.6943C58.1816 125.686 58.5765 126.081 58.5765 126.568C58.5765 127.055 58.1816 127.45 57.6943 127.45H56.4949C56.0077 127.45 55.6128 127.055 55.6128 126.568C55.6128 126.081 56.0077 125.686 56.4949 125.686Z" fill="url(#paint15_linear2)"/>
<path d="M195.917 57.8545H199.445V66.3031H195.917V57.8545Z" fill="white"/>
<path d="M189.235 57.8545H192.764V66.3031H189.235V57.8545Z" fill="white"/>
<path d="M182.553 57.8545H186.081V66.3031H182.553V57.8545Z" fill="white"/>
<path d="M175.871 57.8545H179.399V66.3031H175.871V57.8545Z" fill="white"/>
<path d="M200.621 55.2081V54.3259H174.695V55.2081C174.695 55.6953 175.09 56.0902 175.577 56.0902H199.739C200.226 56.0902 200.621 55.6953 200.621 55.2081Z" fill="white"/>
<path d="M201.831 68.0674H173.485C172.998 68.0674 172.603 68.4623 172.603 68.9496V71.302C172.603 71.7892 172.998 72.1841 173.485 72.1841H201.831C202.318 72.1841 202.713 71.7892 202.713 71.302V68.9496C202.713 68.4623 202.318 68.0674 201.831 68.0674Z" fill="white"/>
<path d="M173.485 52.5616H201.831C202.226 52.5616 202.573 52.2995 202.68 51.9197C202.788 51.54 202.63 51.135 202.294 50.9282L188.12 42.204C187.837 42.0294 187.479 42.0294 187.196 42.204L173.022 50.9282C172.686 51.1352 172.528 51.54 172.636 51.9197C172.744 52.2995 173.09 52.5616 173.485 52.5616ZM187.058 47.2617H188.258C188.745 47.2617 189.14 47.6566 189.14 48.1439C189.14 48.6311 188.745 49.026 188.258 49.026H187.058C186.571 49.026 186.176 48.6311 186.176 48.1439C186.176 47.6566 186.571 47.2617 187.058 47.2617Z" fill="white"/>
<path d="M326.481 136.279H330.01V144.727H326.481V136.279Z" fill="url(#paint16_linear2)"/>
<path d="M319.799 136.279H323.328V144.727H319.799V136.279Z" fill="url(#paint17_linear2)"/>
<path d="M313.117 136.279H316.646V144.727H313.117V136.279Z" fill="url(#paint18_linear2)"/>
<path d="M306.435 136.279H309.964V144.727H306.435V136.279Z" fill="url(#paint19_linear2)"/>
<path d="M331.186 133.632V132.75H305.259V133.632C305.259 134.119 305.654 134.514 306.141 134.514H330.303C330.79 134.514 331.186 134.119 331.186 133.632Z" fill="url(#paint20_linear2)"/>
<path d="M332.395 146.491H304.05C303.563 146.491 303.168 146.886 303.168 147.374V149.726C303.168 150.213 303.563 150.608 304.05 150.608H332.395C332.882 150.608 333.277 150.213 333.277 149.726V147.374C333.277 146.886 332.882 146.491 332.395 146.491Z" fill="url(#paint21_linear2)"/>
<path d="M304.049 130.986H332.396C332.791 130.986 333.137 130.723 333.245 130.344C333.352 129.964 333.194 129.559 332.858 129.352L318.685 120.628C318.401 120.453 318.044 120.453 317.76 120.628L303.587 129.352C303.251 129.559 303.093 129.964 303.2 130.344C303.308 130.723 303.655 130.986 304.049 130.986ZM317.623 125.686H318.822C319.31 125.686 319.704 126.081 319.704 126.568C319.704 127.055 319.31 127.45 318.822 127.45H317.623C317.136 127.45 316.741 127.055 316.741 126.568C316.741 126.081 317.136 125.686 317.623 125.686Z" fill="url(#paint22_linear2)"/>
<path d="M65.3532 300.273H68.8816V308.722H65.3532V300.273Z" fill="url(#paint23_linear2)"/>
<path d="M58.6715 300.273H62.2001V308.722H58.6715V300.273Z" fill="url(#paint24_linear2)"/>
<path d="M51.9891 300.273H55.5177V308.722H51.9891V300.273Z" fill="url(#paint25_linear2)"/>
<path d="M45.3073 300.273H48.8358V308.722H45.3073V300.273Z" fill="url(#paint26_linear2)"/>
<path d="M70.0577 297.627V296.745H44.1311V297.627C44.1311 298.114 44.526 298.509 45.0133 298.509H69.1755C69.6626 298.509 70.0577 298.114 70.0577 297.627Z" fill="url(#paint27_linear2)"/>
<path d="M71.2672 310.486H42.9218C42.4346 310.486 42.0397 310.881 42.0397 311.368V313.721C42.0397 314.208 42.4346 314.603 42.9218 314.603H71.2672C71.7545 314.603 72.1494 314.208 72.1494 313.721V311.368C72.1494 310.881 71.7545 310.486 71.2672 310.486Z" fill="url(#paint28_linear2)"/>
<path d="M42.9211 294.98H71.2679C71.6626 294.98 72.0092 294.718 72.1168 294.339C72.224 293.959 72.0664 293.554 71.7304 293.347L57.557 284.623C57.2735 284.448 56.9158 284.448 56.6321 284.623L42.4587 293.347C42.1226 293.554 41.965 293.959 42.0725 294.339C42.18 294.718 42.5267 294.98 42.9211 294.98ZM56.4949 289.681H57.6943C58.1816 289.681 58.5765 290.076 58.5765 290.563C58.5765 291.05 58.1816 291.445 57.6943 291.445H56.4949C56.0077 291.445 55.6128 291.05 55.6128 290.563C55.6128 290.076 56.0077 289.681 56.4949 289.681Z" fill="url(#paint29_linear2)"/>
<path d="M195.917 344.617H199.445V353.066H195.917V344.617Z" fill="url(#paint30_linear2)"/>
<path d="M189.235 344.617H192.764V353.066H189.235V344.617Z" fill="url(#paint31_linear2)"/>
<path d="M182.553 344.617H186.081V353.066H182.553V344.617Z" fill="url(#paint32_linear2)"/>
<path d="M175.871 344.617H179.399V353.066H175.871V344.617Z" fill="url(#paint33_linear2)"/>
<path d="M200.621 341.971V341.089H174.695V341.971C174.695 342.458 175.09 342.853 175.577 342.853H199.739C200.226 342.853 200.621 342.458 200.621 341.971Z" fill="url(#paint34_linear2)"/>
<path d="M201.831 354.83H173.485C172.998 354.83 172.603 355.225 172.603 355.712V358.065C172.603 358.552 172.998 358.947 173.485 358.947H201.831C202.318 358.947 202.713 358.552 202.713 358.065V355.712C202.713 355.225 202.318 354.83 201.831 354.83Z" fill="url(#paint35_linear2)"/>
<path d="M173.485 339.324H201.831C202.226 339.324 202.573 339.062 202.68 338.683C202.788 338.303 202.63 337.898 202.294 337.691L188.12 328.967C187.837 328.792 187.479 328.792 187.196 328.967L173.022 337.691C172.686 337.898 172.528 338.303 172.636 338.683C172.744 339.062 173.09 339.324 173.485 339.324ZM187.058 334.025H188.258C188.745 334.025 189.14 334.42 189.14 334.907C189.14 335.394 188.745 335.789 188.258 335.789H187.058C186.571 335.789 186.176 335.394 186.176 334.907C186.176 334.42 186.571 334.025 187.058 334.025Z" fill="url(#paint36_linear2)"/>
<path d="M268.621 19.6761C268.621 20.1121 268.508 20.513 268.283 20.8789C268.065 21.2448 267.738 21.5368 267.302 21.7548C266.874 21.9728 266.352 22.0817 265.737 22.0817C264.81 22.0817 264.047 21.856 263.448 21.4044C262.849 20.9529 262.522 20.3223 262.467 19.5126H264.592C264.624 19.824 264.733 20.0693 264.919 20.2483C265.114 20.4274 265.359 20.5169 265.655 20.5169C265.912 20.5169 266.114 20.4469 266.262 20.3067C266.41 20.1666 266.484 19.9798 266.484 19.7462C266.484 19.536 266.414 19.3608 266.274 19.2207C266.142 19.0806 265.974 18.9677 265.772 18.882C265.569 18.7886 265.289 18.6796 264.931 18.5551C264.41 18.376 263.981 18.2047 263.647 18.0412C263.32 17.87 263.035 17.6209 262.794 17.2939C262.561 16.9591 262.444 16.527 262.444 15.9976C262.444 15.5072 262.568 15.0829 262.817 14.7248C263.067 14.3667 263.409 14.0942 263.845 13.9073C264.289 13.7127 264.795 13.6154 265.363 13.6154C266.282 13.6154 267.01 13.8334 267.547 14.2693C268.092 14.7053 268.399 15.3048 268.469 16.0677H266.309C266.27 15.7952 266.169 15.5811 266.005 15.4254C265.85 15.2619 265.636 15.1802 265.363 15.1802C265.13 15.1802 264.939 15.2425 264.791 15.367C264.651 15.4916 264.581 15.6746 264.581 15.9159C264.581 16.1105 264.643 16.2779 264.768 16.418C264.9 16.5504 265.063 16.6594 265.258 16.745C265.453 16.8307 265.733 16.9397 266.099 17.072C266.628 17.2511 267.06 17.4301 267.395 17.6092C267.73 17.7804 268.018 18.0335 268.259 18.3682C268.501 18.703 268.621 19.139 268.621 19.6761ZM273.976 15.4138C274.723 15.4138 275.315 15.6629 275.751 16.1611C276.195 16.6594 276.417 17.3445 276.417 18.2164V22H274.42V18.45C274.42 18.014 274.303 17.6753 274.069 17.434C273.844 17.1849 273.54 17.0603 273.159 17.0603C272.754 17.0603 272.431 17.1888 272.189 17.4457C271.956 17.7026 271.839 18.0685 271.839 18.5434V22H269.842V13.3585H271.839V16.675C272.026 16.2857 272.302 15.9782 272.668 15.7524C273.042 15.5266 273.478 15.4138 273.976 15.4138ZM280.898 15.4021C281.544 15.4021 282.121 15.5383 282.627 15.8108C283.14 16.0755 283.541 16.4609 283.829 16.9669C284.125 17.4729 284.273 18.0646 284.273 18.7419C284.273 19.4192 284.125 20.0109 283.829 20.5169C283.541 21.023 283.14 21.4122 282.627 21.6847C282.121 21.9494 281.544 22.0817 280.898 22.0817C280.252 22.0817 279.672 21.9494 279.158 21.6847C278.645 21.4122 278.24 21.023 277.944 20.5169C277.656 20.0109 277.512 19.4192 277.512 18.7419C277.512 18.0646 277.656 17.4729 277.944 16.9669C278.24 16.4609 278.645 16.0755 279.158 15.8108C279.672 15.5383 280.252 15.4021 280.898 15.4021ZM280.898 17.1304C280.517 17.1304 280.194 17.2705 279.929 17.5508C279.672 17.8233 279.544 18.2203 279.544 18.7419C279.544 19.2635 279.672 19.6606 279.929 19.933C280.194 20.2055 280.517 20.3418 280.898 20.3418C281.28 20.3418 281.599 20.2055 281.856 19.933C282.113 19.6606 282.241 19.2635 282.241 18.7419C282.241 18.2203 282.113 17.8233 281.856 17.5508C281.599 17.2705 281.28 17.1304 280.898 17.1304ZM287.422 16.71C287.671 16.3129 287.991 15.9976 288.38 15.7641C288.777 15.5305 289.205 15.4138 289.664 15.4138V17.5508H289.092C288.563 17.5508 288.15 17.6637 287.854 17.8894C287.566 18.1152 287.422 18.4967 287.422 19.0339V22H285.425V15.4838H287.422V16.71ZM294.307 20.2834V22H293.408C292.645 22 292.049 21.8132 291.621 21.4395C291.201 21.058 290.991 20.4313 290.991 19.5594V17.1654H290.115V15.4838H290.991V13.884H292.988V15.4838H294.295V17.1654H292.988V19.5944C292.988 19.8513 293.038 20.0304 293.139 20.1316C293.248 20.2328 293.427 20.2834 293.677 20.2834H294.307ZM301.735 18.5667C301.735 18.7302 301.716 18.9093 301.677 19.1039H297.158C297.181 19.5944 297.306 19.9486 297.532 20.1666C297.757 20.3768 298.045 20.4819 298.396 20.4819C298.691 20.4819 298.937 20.4079 299.131 20.26C299.326 20.1121 299.454 19.9214 299.517 19.6878H301.63C301.545 20.1471 301.358 20.5597 301.07 20.9256C300.782 21.2838 300.416 21.5679 299.972 21.7781C299.528 21.9805 299.034 22.0817 298.489 22.0817C297.851 22.0817 297.282 21.9494 296.784 21.6847C296.294 21.4122 295.908 21.023 295.628 20.5169C295.348 20.0109 295.208 19.4192 295.208 18.7419C295.208 18.0568 295.344 17.4651 295.616 16.9669C295.897 16.4609 296.286 16.0755 296.784 15.8108C297.282 15.5383 297.851 15.4021 298.489 15.4021C299.135 15.4021 299.704 15.5344 300.194 15.7991C300.684 16.0638 301.062 16.4375 301.327 16.9202C301.599 17.3951 301.735 17.9439 301.735 18.5667ZM299.715 18.2631C299.723 17.8349 299.606 17.5158 299.365 17.3056C299.131 17.0876 298.839 16.9786 298.489 16.9786C298.123 16.9786 297.82 17.0876 297.578 17.3056C297.337 17.5235 297.201 17.8427 297.169 18.2631H299.715ZM304.89 16.71C305.139 16.3129 305.458 15.9976 305.848 15.7641C306.245 15.5305 306.673 15.4138 307.132 15.4138V17.5508H306.56C306.031 17.5508 305.618 17.6637 305.322 17.8894C305.034 18.1152 304.89 18.4967 304.89 19.0339V22H302.893V15.4838H304.89V16.71ZM314.23 20.2834V22H313.33C312.567 22 311.972 21.8132 311.544 21.4395C311.123 21.058 310.913 20.4313 310.913 19.5594V17.1654H310.037V15.4838H310.913V13.884H312.91V15.4838H314.218V17.1654H312.91V19.5944C312.91 19.8513 312.961 20.0304 313.062 20.1316C313.171 20.2328 313.35 20.2834 313.599 20.2834H314.23ZM321.658 18.5667C321.658 18.7302 321.638 18.9093 321.599 19.1039H317.08C317.104 19.5944 317.228 19.9486 317.454 20.1666C317.68 20.3768 317.968 20.4819 318.318 20.4819C318.614 20.4819 318.859 20.4079 319.054 20.26C319.248 20.1121 319.377 19.9214 319.439 19.6878H321.553C321.467 20.1471 321.28 20.5597 320.992 20.9256C320.704 21.2838 320.338 21.5679 319.895 21.7781C319.451 21.9805 318.956 22.0817 318.411 22.0817C317.773 22.0817 317.205 21.9494 316.707 21.6847C316.216 21.4122 315.831 21.023 315.55 20.5169C315.27 20.0109 315.13 19.4192 315.13 18.7419C315.13 18.0568 315.266 17.4651 315.539 16.9669C315.819 16.4609 316.208 16.0755 316.707 15.8108C317.205 15.5383 317.773 15.4021 318.411 15.4021C319.058 15.4021 319.626 15.5344 320.116 15.7991C320.607 16.0638 320.984 16.4375 321.249 16.9202C321.522 17.3951 321.658 17.9439 321.658 18.5667ZM319.638 18.2631C319.645 17.8349 319.529 17.5158 319.287 17.3056C319.054 17.0876 318.762 16.9786 318.411 16.9786C318.046 16.9786 317.742 17.0876 317.501 17.3056C317.259 17.5235 317.123 17.8427 317.092 18.2631H319.638ZM324.813 16.71C325.062 16.3129 325.381 15.9976 325.77 15.7641C326.167 15.5305 326.595 15.4138 327.055 15.4138V17.5508H326.482C325.953 17.5508 325.54 17.6637 325.245 17.8894C324.957 18.1152 324.813 18.4967 324.813 19.0339V22H322.816V15.4838H324.813V16.71ZM336.45 15.4138C337.252 15.4138 337.883 15.6629 338.342 16.1611C338.801 16.6516 339.031 17.3367 339.031 18.2164V22H337.046V18.45C337.046 18.0374 336.933 17.7182 336.707 17.4924C336.489 17.2588 336.189 17.1421 335.808 17.1421C335.411 17.1421 335.096 17.2666 334.862 17.5158C334.636 17.7571 334.523 18.0996 334.523 18.5434V22H332.526V18.45C332.526 18.0374 332.417 17.7182 332.199 17.4924C331.982 17.2588 331.682 17.1421 331.3 17.1421C330.903 17.1421 330.588 17.2627 330.354 17.5041C330.121 17.7454 330.004 18.0919 330.004 18.5434V22H328.007V15.4838H330.004V16.5932C330.175 16.2273 330.436 15.9393 330.786 15.7291C331.145 15.5189 331.561 15.4138 332.036 15.4138C332.534 15.4138 332.974 15.5305 333.356 15.7641C333.737 15.9899 334.025 16.3168 334.22 16.745C334.446 16.3402 334.753 16.0171 335.142 15.7758C335.539 15.5344 335.975 15.4138 336.45 15.4138ZM266.753 30.4021C267.29 30.4021 267.769 30.5383 268.189 30.8108C268.617 31.0755 268.952 31.4609 269.193 31.9669C269.443 32.4651 269.567 33.0568 269.567 33.7419C269.567 34.4192 269.443 35.0109 269.193 35.5169C268.952 36.023 268.617 36.4122 268.189 36.6847C267.769 36.9494 267.29 37.0817 266.753 37.0817C266.255 37.0817 265.826 36.9689 265.468 36.7431C265.11 36.5173 264.849 36.2098 264.686 35.8205V37H262.689V28.3585H264.686V31.6633C264.849 31.274 265.11 30.9665 265.468 30.7407C265.826 30.515 266.255 30.4021 266.753 30.4021ZM266.111 32.1537C265.69 32.1537 265.344 32.2978 265.071 32.5858C264.807 32.8661 264.674 33.2514 264.674 33.7419C264.674 34.2246 264.807 34.61 265.071 34.898C265.344 35.1861 265.69 35.3301 266.111 35.3301C266.539 35.3301 266.881 35.19 267.138 34.9097C267.403 34.6294 267.535 34.2402 267.535 33.7419C267.535 33.2437 267.403 32.8544 267.138 32.5741C266.881 32.2939 266.539 32.1537 266.111 32.1537ZM273.196 30.4021C273.694 30.4021 274.122 30.515 274.48 30.7407C274.839 30.9665 275.103 31.274 275.274 31.6633V30.4838H277.26V37H275.274V35.8205C275.103 36.2098 274.839 36.5173 274.48 36.7431C274.122 36.9689 273.694 37.0817 273.196 37.0817C272.659 37.0817 272.176 36.9494 271.748 36.6847C271.327 36.4122 270.993 36.023 270.744 35.5169C270.502 35.0109 270.382 34.4192 270.382 33.7419C270.382 33.0568 270.502 32.4651 270.744 31.9669C270.993 31.4609 271.327 31.0755 271.748 30.8108C272.176 30.5383 272.659 30.4021 273.196 30.4021ZM273.838 32.1537C273.41 32.1537 273.063 32.2939 272.799 32.5741C272.542 32.8544 272.413 33.2437 272.413 33.7419C272.413 34.2402 272.542 34.6294 272.799 34.9097C273.063 35.19 273.41 35.3301 273.838 35.3301C274.259 35.3301 274.601 35.1861 274.866 34.898C275.138 34.61 275.274 34.2246 275.274 33.7419C275.274 33.2514 275.138 32.8661 274.866 32.5858C274.601 32.2978 274.259 32.1537 273.838 32.1537ZM281.122 30.4021C281.947 30.4021 282.605 30.6084 283.095 31.021C283.594 31.4336 283.905 31.9786 284.03 32.6559H282.161C282.107 32.3912 281.982 32.1849 281.788 32.037C281.601 31.8813 281.363 31.8034 281.075 31.8034C280.849 31.8034 280.678 31.854 280.561 31.9552C280.445 32.0486 280.386 32.1849 280.386 32.3639C280.386 32.5664 280.491 32.7182 280.702 32.8194C280.92 32.9206 281.258 33.0218 281.717 33.123C282.216 33.2398 282.624 33.3604 282.944 33.485C283.263 33.6018 283.539 33.7964 283.773 34.0689C284.006 34.3414 284.123 34.7073 284.123 35.1666C284.123 35.5403 284.022 35.8712 283.819 36.1592C283.617 36.4473 283.325 36.673 282.944 36.8365C282.562 37 282.111 37.0817 281.589 37.0817C280.709 37.0817 280.005 36.8871 279.475 36.4979C278.946 36.1086 278.623 35.552 278.506 34.8279H280.433C280.464 35.1082 280.581 35.3223 280.783 35.4702C280.993 35.6181 281.262 35.6921 281.589 35.6921C281.815 35.6921 281.986 35.6415 282.103 35.5403C282.22 35.4313 282.278 35.2912 282.278 35.1199C282.278 34.8941 282.169 34.7345 281.951 34.6411C281.741 34.5399 281.394 34.4348 280.912 34.3258C280.429 34.2246 280.032 34.1156 279.721 33.9988C279.409 33.882 279.141 33.6952 278.915 33.4383C278.689 33.1736 278.576 32.8155 278.576 32.3639C278.576 31.7801 278.798 31.3091 279.242 30.9509C279.686 30.585 280.312 30.4021 281.122 30.4021ZM291.535 33.5667C291.535 33.7302 291.515 33.9093 291.476 34.1039H286.957C286.98 34.5944 287.105 34.9486 287.331 35.1666C287.557 35.3768 287.845 35.4819 288.195 35.4819C288.491 35.4819 288.736 35.4079 288.931 35.26C289.125 35.1121 289.254 34.9214 289.316 34.6878H291.43C291.344 35.1471 291.157 35.5597 290.869 35.9256C290.581 36.2838 290.215 36.5679 289.771 36.7781C289.328 36.9805 288.833 37.0817 288.288 37.0817C287.65 37.0817 287.082 36.9494 286.583 36.6847C286.093 36.4122 285.708 36.023 285.427 35.5169C285.147 35.0109 285.007 34.4192 285.007 33.7419C285.007 33.0568 285.143 32.4651 285.416 31.9669C285.696 31.4609 286.085 31.0755 286.583 30.8108C287.082 30.5383 287.65 30.4021 288.288 30.4021C288.935 30.4021 289.503 30.5344 289.993 30.7991C290.484 31.0638 290.861 31.4375 291.126 31.9202C291.399 32.3951 291.535 32.9439 291.535 33.5667ZM289.515 33.2631C289.522 32.8349 289.406 32.5158 289.164 32.3056C288.931 32.0876 288.639 31.9786 288.288 31.9786C287.922 31.9786 287.619 32.0876 287.378 32.3056C287.136 32.5235 287 32.8427 286.969 33.2631H289.515ZM295.168 30.4021C295.666 30.4021 296.095 30.515 296.453 30.7407C296.811 30.9665 297.072 31.274 297.235 31.6633V28.3585H299.232V37H297.235V35.8205C297.072 36.2098 296.811 36.5173 296.453 36.7431C296.095 36.9689 295.666 37.0817 295.168 37.0817C294.631 37.0817 294.148 36.9494 293.72 36.6847C293.3 36.4122 292.965 36.023 292.716 35.5169C292.475 35.0109 292.354 34.4192 292.354 33.7419C292.354 33.0568 292.475 32.4651 292.716 31.9669C292.965 31.4609 293.3 31.0755 293.72 30.8108C294.148 30.5383 294.631 30.4021 295.168 30.4021ZM295.81 32.1537C295.382 32.1537 295.036 32.2939 294.771 32.5741C294.514 32.8544 294.386 33.2437 294.386 33.7419C294.386 34.2402 294.514 34.6294 294.771 34.9097C295.036 35.19 295.382 35.3301 295.81 35.3301C296.231 35.3301 296.573 35.1861 296.838 34.898C297.111 34.61 297.247 34.2246 297.247 33.7419C297.247 33.2514 297.111 32.8661 296.838 32.5858C296.573 32.2978 296.231 32.1537 295.81 32.1537ZM305.175 31.71C305.424 31.3129 305.744 30.9976 306.133 30.7641C306.53 30.5305 306.958 30.4138 307.417 30.4138V32.5508H306.845C306.316 32.5508 305.903 32.6637 305.607 32.8894C305.319 33.1152 305.175 33.4967 305.175 34.0339V37H303.178V30.4838H305.175V31.71ZM310.846 30.4021C311.344 30.4021 311.772 30.515 312.13 30.7407C312.488 30.9665 312.753 31.274 312.924 31.6633V30.4838H314.909V37H312.924V35.8205C312.753 36.2098 312.488 36.5173 312.13 36.7431C311.772 36.9689 311.344 37.0817 310.846 37.0817C310.308 37.0817 309.826 36.9494 309.398 36.6847C308.977 36.4122 308.642 36.023 308.393 35.5169C308.152 35.0109 308.031 34.4192 308.031 33.7419C308.031 33.0568 308.152 32.4651 308.393 31.9669C308.642 31.4609 308.977 31.0755 309.398 30.8108C309.826 30.5383 310.308 30.4021 310.846 30.4021ZM311.488 32.1537C311.06 32.1537 310.713 32.2939 310.449 32.5741C310.192 32.8544 310.063 33.2437 310.063 33.7419C310.063 34.2402 310.192 34.6294 310.449 34.9097C310.713 35.19 311.06 35.3301 311.488 35.3301C311.908 35.3301 312.251 35.1861 312.515 34.898C312.788 34.61 312.924 34.2246 312.924 33.7419C312.924 33.2514 312.788 32.8661 312.515 32.5858C312.251 32.2978 311.908 32.1537 311.488 32.1537ZM320.091 35.2834V37H319.192C318.429 37 317.834 36.8132 317.405 36.4395C316.985 36.058 316.775 35.4313 316.775 34.5594V32.1654H315.899V30.4838H316.775V28.884H318.772V30.4838H320.08V32.1654H318.772V34.5944C318.772 34.8513 318.822 35.0304 318.923 35.1316C319.032 35.2328 319.212 35.2834 319.461 35.2834H320.091ZM327.52 33.5667C327.52 33.7302 327.5 33.9093 327.461 34.1039H322.942C322.965 34.5944 323.09 34.9486 323.316 35.1666C323.541 35.3768 323.829 35.4819 324.18 35.4819C324.476 35.4819 324.721 35.4079 324.915 35.26C325.11 35.1121 325.238 34.9214 325.301 34.6878H327.414C327.329 35.1471 327.142 35.5597 326.854 35.9256C326.566 36.2838 326.2 36.5679 325.756 36.7781C325.312 36.9805 324.818 37.0817 324.273 37.0817C323.635 37.0817 323.066 36.9494 322.568 36.6847C322.078 36.4122 321.692 36.023 321.412 35.5169C321.132 35.0109 320.992 34.4192 320.992 33.7419C320.992 33.0568 321.128 32.4651 321.4 31.9669C321.681 31.4609 322.07 31.0755 322.568 30.8108C323.066 30.5383 323.635 30.4021 324.273 30.4021C324.919 30.4021 325.488 30.5344 325.978 30.7991C326.469 31.0638 326.846 31.4375 327.111 31.9202C327.383 32.3951 327.52 32.9439 327.52 33.5667ZM325.499 33.2631C325.507 32.8349 325.39 32.5158 325.149 32.3056C324.915 32.0876 324.623 31.9786 324.273 31.9786C323.907 31.9786 323.604 32.0876 323.362 32.3056C323.121 32.5235 322.985 32.8427 322.954 33.2631H325.499ZM331.048 30.4021C331.873 30.4021 332.531 30.6084 333.021 31.021C333.52 31.4336 333.831 31.9786 333.956 32.6559H332.087C332.033 32.3912 331.908 32.1849 331.713 32.037C331.527 31.8813 331.289 31.8034 331.001 31.8034C330.775 31.8034 330.604 31.854 330.487 31.9552C330.371 32.0486 330.312 32.1849 330.312 32.3639C330.312 32.5664 330.417 32.7182 330.627 32.8194C330.845 32.9206 331.184 33.0218 331.643 33.123C332.142 33.2398 332.55 33.3604 332.87 33.485C333.189 33.6018 333.465 33.7964 333.699 34.0689C333.932 34.3414 334.049 34.7073 334.049 35.1666C334.049 35.5403 333.948 35.8712 333.745 36.1592C333.543 36.4473 333.251 36.673 332.87 36.8365C332.488 37 332.037 37.0817 331.515 37.0817C330.635 37.0817 329.931 36.8871 329.401 36.4979C328.872 36.1086 328.549 35.552 328.432 34.8279H330.359C330.39 35.1082 330.507 35.3223 330.709 35.4702C330.919 35.6181 331.188 35.6921 331.515 35.6921C331.741 35.6921 331.912 35.6415 332.029 35.5403C332.146 35.4313 332.204 35.2912 332.204 35.1199C332.204 34.8941 332.095 34.7345 331.877 34.6411C331.667 34.5399 331.32 34.4348 330.838 34.3258C330.355 34.2246 329.958 34.1156 329.647 33.9988C329.335 33.882 329.067 33.6952 328.841 33.4383C328.615 33.1736 328.502 32.8155 328.502 32.3639C328.502 31.7801 328.724 31.3091 329.168 30.9509C329.612 30.585 330.238 30.4021 331.048 30.4021ZM336.556 35.7622C336.79 36.2137 336.906 36.7042 336.906 37.2336C336.906 37.7707 336.762 38.2145 336.474 38.5648C336.194 38.9151 335.754 39.0903 335.155 39.0903V38.3546C335.365 38.3546 335.517 38.3079 335.61 38.2145C335.711 38.1211 335.762 37.942 335.762 37.6773V37.5605H334.91V35.7622H336.556ZM264.686 43.3585V52H262.689V43.3585H264.686ZM265.995 43.6504C265.995 43.3468 266.104 43.0977 266.321 42.903C266.539 42.7006 266.828 42.5994 267.186 42.5994C267.544 42.5994 267.832 42.7006 268.05 42.903C268.268 43.0977 268.377 43.3468 268.377 43.6504C268.377 43.9463 268.268 44.1954 268.05 44.3978C267.832 44.5924 267.544 44.6897 267.186 44.6897C266.828 44.6897 266.539 44.5924 266.321 44.3978C266.104 44.1954 265.995 43.9463 265.995 43.6504ZM268.178 45.4838V52H266.181V45.4838H268.178ZM272.29 45.4254C273.161 45.4254 273.808 45.7602 274.228 46.4297V45.4838H276.213V55.1063H274.228V50.949C273.777 51.6964 273.13 52.0701 272.29 52.0701C271.745 52.0701 271.246 51.9338 270.795 51.6613C270.351 51.3811 269.997 50.9918 269.732 50.4936C269.467 49.9953 269.335 49.4231 269.335 48.7769C269.335 48.1308 269.467 47.5547 269.732 47.0486C269.997 46.5348 270.355 46.1378 270.806 45.8575C271.258 45.5695 271.752 45.4254 272.29 45.4254ZM272.792 47.1654C272.402 47.1654 272.068 47.3056 271.787 47.5858C271.507 47.8583 271.367 48.2553 271.367 48.7769C271.367 49.2908 271.503 49.68 271.776 49.9447C272.056 50.2016 272.395 50.3301 272.792 50.3301C273.181 50.3301 273.516 50.1938 273.796 49.9214C274.084 49.6411 274.228 49.2479 274.228 48.7419C274.228 48.2359 274.084 47.8466 273.796 47.5741C273.516 47.3017 273.181 47.1654 272.792 47.1654ZM284.186 45.4838V52H282.177V50.8205C281.991 51.202 281.71 51.5056 281.337 51.7314C280.971 51.9572 280.543 52.0701 280.052 52.0701C279.305 52.0701 278.709 51.8209 278.265 51.3227C277.829 50.8244 277.611 50.1393 277.611 49.2674V45.4838H279.597V49.0222C279.597 49.4659 279.71 49.8124 279.935 50.0615C280.169 50.3028 280.48 50.4235 280.87 50.4235C281.274 50.4235 281.594 50.2951 281.827 50.0381C282.061 49.7812 282.177 49.4153 282.177 48.9404V45.4838H284.186ZM285.492 43.6504C285.492 43.3468 285.601 43.0977 285.819 42.903C286.037 42.7006 286.325 42.5994 286.683 42.5994C287.041 42.5994 287.33 42.7006 287.547 42.903C287.765 43.0977 287.874 43.3468 287.874 43.6504C287.874 43.9463 287.765 44.1954 287.547 44.3978C287.33 44.5924 287.041 44.6897 286.683 44.6897C286.325 44.6897 286.037 44.5924 285.819 44.3978C285.601 44.1954 285.492 43.9463 285.492 43.6504ZM287.676 45.4838V52H285.679V45.4838H287.676ZM291.647 45.4021C292.145 45.4021 292.574 45.515 292.932 45.7407C293.29 45.9665 293.551 46.274 293.714 46.6633V43.3585H295.711V52H293.714V50.8205C293.551 51.2098 293.29 51.5173 292.932 51.7431C292.574 51.9689 292.145 52.0817 291.647 52.0817C291.11 52.0817 290.627 51.9494 290.199 51.6847C289.779 51.4122 289.444 51.023 289.195 50.5169C288.953 50.0109 288.833 49.4192 288.833 48.7419C288.833 48.0568 288.953 47.4651 289.195 46.9669C289.444 46.4609 289.779 46.0755 290.199 45.8108C290.627 45.5383 291.11 45.4021 291.647 45.4021ZM292.289 47.1537C291.861 47.1537 291.515 47.2939 291.25 47.5741C290.993 47.8544 290.865 48.2437 290.865 48.7419C290.865 49.2402 290.993 49.6294 291.25 49.9097C291.515 50.19 291.861 50.3301 292.289 50.3301C292.71 50.3301 293.052 50.1861 293.317 49.898C293.59 49.61 293.726 49.2246 293.726 48.7419C293.726 48.2514 293.59 47.8661 293.317 47.5858C293.052 47.2978 292.71 47.1537 292.289 47.1537ZM297.016 43.6504C297.016 43.3468 297.125 43.0977 297.343 42.903C297.561 42.7006 297.849 42.5994 298.207 42.5994C298.565 42.5994 298.853 42.7006 299.071 42.903C299.289 43.0977 299.398 43.3468 299.398 43.6504C299.398 43.9463 299.289 44.1954 299.071 44.3978C298.853 44.5924 298.565 44.6897 298.207 44.6897C297.849 44.6897 297.561 44.5924 297.343 44.3978C297.125 44.1954 297.016 43.9463 297.016 43.6504ZM299.2 45.4838V52H297.203V45.4838H299.2ZM304.385 50.2834V52H303.486C302.723 52 302.127 51.8132 301.699 51.4395C301.279 51.058 301.069 50.4313 301.069 49.5594V47.1654H300.193V45.4838H301.069V43.884H303.066V45.4838H304.373V47.1654H303.066V49.5944C303.066 49.8513 303.116 50.0304 303.217 50.1316C303.326 50.2328 303.505 50.2834 303.755 50.2834H304.385ZM307.131 45.4838L308.696 49.4776L310.155 45.4838H312.362L308.298 55.1063H306.103L307.633 51.7548L304.9 45.4838H307.131ZM268.878 63.5667C268.878 63.7302 268.859 63.9093 268.82 64.1039H264.301C264.324 64.5944 264.448 64.9486 264.674 65.1666C264.9 65.3768 265.188 65.4819 265.538 65.4819C265.834 65.4819 266.079 65.4079 266.274 65.26C266.469 65.1121 266.597 64.9214 266.659 64.6878H268.773C268.687 65.1471 268.501 65.5597 268.213 65.9256C267.925 66.2838 267.559 66.5679 267.115 66.7781C266.671 66.9805 266.177 67.0817 265.632 67.0817C264.993 67.0817 264.425 66.9494 263.927 66.6847C263.436 66.4122 263.051 66.023 262.771 65.5169C262.49 65.0109 262.35 64.4192 262.35 63.7419C262.35 63.0568 262.487 62.4651 262.759 61.9669C263.039 61.4609 263.429 61.0755 263.927 60.8108C264.425 60.5383 264.993 60.4021 265.632 60.4021C266.278 60.4021 266.846 60.5344 267.337 60.7991C267.827 61.0638 268.205 61.4375 268.469 61.9202C268.742 62.3951 268.878 62.9439 268.878 63.5667ZM266.858 63.2631C266.866 62.8349 266.749 62.5158 266.508 62.3056C266.274 62.0876 265.982 61.9786 265.632 61.9786C265.266 61.9786 264.962 62.0876 264.721 62.3056C264.48 62.5235 264.343 62.8427 264.312 63.2631H266.858ZM274.111 67L272.78 65.1432L271.694 67H269.499L271.659 63.6018L269.417 60.4838H271.659L272.979 62.3172L274.065 60.4838H276.26L274.053 63.8003L276.354 67H274.111ZM281.287 60.4021C281.824 60.4021 282.303 60.5383 282.723 60.8108C283.152 61.0755 283.486 61.4609 283.728 61.9669C283.977 62.4651 284.101 63.0568 284.101 63.7419C284.101 64.4192 283.977 65.0109 283.728 65.5169C283.486 66.023 283.152 66.4122 282.723 66.6847C282.303 66.9494 281.824 67.0817 281.287 67.0817C280.789 67.0817 280.361 66.9689 280.002 66.7431C279.644 66.5173 279.384 66.2098 279.22 65.8205V70.1063H277.223V60.4838H279.22V61.6633C279.384 61.274 279.644 60.9665 280.002 60.7407C280.361 60.515 280.789 60.4021 281.287 60.4021ZM280.645 62.1537C280.224 62.1537 279.878 62.2978 279.605 62.5858C279.341 62.8661 279.208 63.2514 279.208 63.7419C279.208 64.2246 279.341 64.61 279.605 64.898C279.878 65.1861 280.224 65.3301 280.645 65.3301C281.073 65.3301 281.416 65.19 281.672 64.9097C281.937 64.6294 282.069 64.2402 282.069 63.7419C282.069 63.2437 281.937 62.8544 281.672 62.5741C281.416 62.2939 281.073 62.1537 280.645 62.1537ZM287.73 60.4021C288.228 60.4021 288.656 60.515 289.015 60.7407C289.373 60.9665 289.637 61.274 289.809 61.6633V60.4838H291.794V67H289.809V65.8205C289.637 66.2098 289.373 66.5173 289.015 66.7431C288.656 66.9689 288.228 67.0817 287.73 67.0817C287.193 67.0817 286.71 66.9494 286.282 66.6847C285.862 66.4122 285.527 66.023 285.278 65.5169C285.036 65.0109 284.916 64.4192 284.916 63.7419C284.916 63.0568 285.036 62.4651 285.278 61.9669C285.527 61.4609 285.862 61.0755 286.282 60.8108C286.71 60.5383 287.193 60.4021 287.73 60.4021ZM288.372 62.1537C287.944 62.1537 287.598 62.2939 287.333 62.5741C287.076 62.8544 286.948 63.2437 286.948 63.7419C286.948 64.2402 287.076 64.6294 287.333 64.9097C287.598 65.19 287.944 65.3301 288.372 65.3301C288.793 65.3301 289.135 65.1861 289.4 64.898C289.672 64.61 289.809 64.2246 289.809 63.7419C289.809 63.2514 289.672 62.8661 289.4 62.5858C289.135 62.2978 288.793 62.1537 288.372 62.1537ZM297.419 60.4138C298.167 60.4138 298.759 60.6629 299.194 61.1611C299.638 61.6594 299.86 62.3445 299.86 63.2164V67H297.863V63.45C297.863 63.014 297.746 62.6753 297.513 62.434C297.287 62.1849 296.983 62.0603 296.602 62.0603C296.197 62.0603 295.874 62.1888 295.633 62.4457C295.399 62.7026 295.282 63.0685 295.282 63.5434V67H293.286V60.4838H295.282V61.675C295.469 61.2857 295.746 60.9782 296.112 60.7524C296.485 60.5266 296.921 60.4138 297.419 60.4138ZM303.664 60.4021C304.49 60.4021 305.148 60.6084 305.638 61.021C306.136 61.4336 306.448 61.9786 306.572 62.6559H304.704C304.649 62.3912 304.525 62.1849 304.33 62.037C304.143 61.8813 303.906 61.8034 303.618 61.8034C303.392 61.8034 303.221 61.854 303.104 61.9552C302.987 62.0486 302.929 62.1849 302.929 62.3639C302.929 62.5664 303.034 62.7182 303.244 62.8194C303.462 62.9206 303.801 63.0218 304.26 63.123C304.758 63.2398 305.167 63.3604 305.486 63.485C305.805 63.6018 306.082 63.7964 306.315 64.0689C306.549 64.3414 306.666 64.7073 306.666 65.1666C306.666 65.5403 306.564 65.8712 306.362 66.1592C306.16 66.4473 305.868 66.673 305.486 66.8365C305.105 67 304.653 67.0817 304.132 67.0817C303.252 67.0817 302.547 66.8871 302.018 66.4979C301.489 66.1086 301.165 65.552 301.049 64.8279H302.976C303.007 65.1082 303.123 65.3223 303.326 65.4702C303.536 65.6181 303.805 65.6921 304.132 65.6921C304.357 65.6921 304.529 65.6415 304.645 65.5403C304.762 65.4313 304.821 65.2912 304.821 65.1199C304.821 64.8941 304.712 64.7345 304.494 64.6411C304.283 64.5399 303.937 64.4348 303.454 64.3258C302.972 64.2246 302.575 64.1156 302.263 63.9988C301.952 63.882 301.683 63.6952 301.457 63.4383C301.232 63.1736 301.119 62.8155 301.119 62.3639C301.119 61.7801 301.341 61.3091 301.784 60.9509C302.228 60.585 302.855 60.4021 303.664 60.4021ZM307.701 58.6504C307.701 58.3468 307.81 58.0977 308.028 57.903C308.246 57.7006 308.534 57.5994 308.892 57.5994C309.251 57.5994 309.539 57.7006 309.757 57.903C309.975 58.0977 310.084 58.3468 310.084 58.6504C310.084 58.9463 309.975 59.1954 309.757 59.3978C309.539 59.5924 309.251 59.6897 308.892 59.6897C308.534 59.6897 308.246 59.5924 308.028 59.3978C307.81 59.1954 307.701 58.9463 307.701 58.6504ZM309.885 60.4838V67H307.888V60.4838H309.885ZM314.428 60.4021C315.075 60.4021 315.651 60.5383 316.157 60.8108C316.671 61.0755 317.072 61.4609 317.36 61.9669C317.655 62.4729 317.803 63.0646 317.803 63.7419C317.803 64.4192 317.655 65.0109 317.36 65.5169C317.072 66.023 316.671 66.4122 316.157 66.6847C315.651 66.9494 315.075 67.0817 314.428 67.0817C313.782 67.0817 313.202 66.9494 312.688 66.6847C312.175 66.4122 311.77 66.023 311.474 65.5169C311.186 65.0109 311.042 64.4192 311.042 63.7419C311.042 63.0646 311.186 62.4729 311.474 61.9669C311.77 61.4609 312.175 61.0755 312.688 60.8108C313.202 60.5383 313.782 60.4021 314.428 60.4021ZM314.428 62.1304C314.047 62.1304 313.724 62.2705 313.459 62.5508C313.202 62.8233 313.074 63.2203 313.074 63.7419C313.074 64.2635 313.202 64.6606 313.459 64.933C313.724 65.2055 314.047 65.3418 314.428 65.3418C314.81 65.3418 315.129 65.2055 315.386 64.933C315.643 64.6606 315.771 64.2635 315.771 63.7419C315.771 63.2203 315.643 62.8233 315.386 62.5508C315.129 62.2705 314.81 62.1304 314.428 62.1304ZM323.089 60.4138C323.837 60.4138 324.429 60.6629 324.865 61.1611C325.308 61.6594 325.53 62.3445 325.53 63.2164V67H323.533V63.45C323.533 63.014 323.416 62.6753 323.183 62.434C322.957 62.1849 322.654 62.0603 322.272 62.0603C321.867 62.0603 321.544 62.1888 321.303 62.4457C321.069 62.7026 320.952 63.0685 320.952 63.5434V67H318.956V60.4838H320.952V61.675C321.139 61.2857 321.416 60.9782 321.782 60.7524C322.155 60.5266 322.591 60.4138 323.089 60.4138ZM331.894 60.4021C332.392 60.4021 332.821 60.515 333.179 60.7407C333.537 60.9665 333.802 61.274 333.973 61.6633V60.4838H335.958V67H333.973V65.8205C333.802 66.2098 333.537 66.5173 333.179 66.7431C332.821 66.9689 332.392 67.0817 331.894 67.0817C331.357 67.0817 330.874 66.9494 330.446 66.6847C330.026 66.4122 329.691 66.023 329.442 65.5169C329.201 65.0109 329.08 64.4192 329.08 63.7419C329.08 63.0568 329.201 62.4651 329.442 61.9669C329.691 61.4609 330.026 61.0755 330.446 60.8108C330.874 60.5383 331.357 60.4021 331.894 60.4021ZM332.537 62.1537C332.108 62.1537 331.762 62.2939 331.497 62.5741C331.24 62.8544 331.112 63.2437 331.112 63.7419C331.112 64.2402 331.24 64.6294 331.497 64.9097C331.762 65.19 332.108 65.3301 332.537 65.3301C332.957 65.3301 333.299 65.1861 333.564 64.898C333.837 64.61 333.973 64.2246 333.973 63.7419C333.973 63.2514 333.837 62.8661 333.564 62.5858C333.299 62.2978 332.957 62.1537 332.537 62.1537ZM341.584 60.4138C342.331 60.4138 342.923 60.6629 343.359 61.1611C343.802 61.6594 344.024 62.3445 344.024 63.2164V67H342.027V63.45C342.027 63.014 341.911 62.6753 341.677 62.434C341.451 62.1849 341.148 62.0603 340.766 62.0603C340.361 62.0603 340.038 62.1888 339.797 62.4457C339.563 62.7026 339.447 63.0685 339.447 63.5434V67H337.45V60.4838H339.447V61.675C339.633 61.2857 339.91 60.9782 340.276 60.7524C340.649 60.5266 341.085 60.4138 341.584 60.4138ZM347.934 60.4021C348.432 60.4021 348.86 60.515 349.218 60.7407C349.576 60.9665 349.837 61.274 350.001 61.6633V58.3585H351.998V67H350.001V65.8205C349.837 66.2098 349.576 66.5173 349.218 66.7431C348.86 66.9689 348.432 67.0817 347.934 67.0817C347.397 67.0817 346.914 66.9494 346.486 66.6847C346.065 66.4122 345.731 66.023 345.481 65.5169C345.24 65.0109 345.119 64.4192 345.119 63.7419C345.119 63.0568 345.24 62.4651 345.481 61.9669C345.731 61.4609 346.065 61.0755 346.486 60.8108C346.914 60.5383 347.397 60.4021 347.934 60.4021ZM348.576 62.1537C348.148 62.1537 347.801 62.2939 347.537 62.5741C347.28 62.8544 347.151 63.2437 347.151 63.7419C347.151 64.2402 347.28 64.6294 347.537 64.9097C347.801 65.19 348.148 65.3301 348.576 65.3301C348.996 65.3301 349.339 65.1861 349.604 64.898C349.876 64.61 350.012 64.2246 350.012 63.7419C350.012 63.2514 349.876 62.8661 349.604 62.5858C349.339 62.2978 348.996 62.1537 348.576 62.1537ZM262.502 73.6504C262.502 73.3468 262.611 73.0977 262.829 72.903C263.047 72.7006 263.335 72.5994 263.693 72.5994C264.051 72.5994 264.339 72.7006 264.557 72.903C264.775 73.0977 264.884 73.3468 264.884 73.6504C264.884 73.9463 264.775 74.1954 264.557 74.3978C264.339 74.5924 264.051 74.6897 263.693 74.6897C263.335 74.6897 263.047 74.5924 262.829 74.3978C262.611 74.1954 262.502 73.9463 262.502 73.6504ZM264.686 75.4838V82H262.689V75.4838H264.686ZM270.315 75.4138C271.063 75.4138 271.654 75.6629 272.09 76.1611C272.534 76.6594 272.756 77.3445 272.756 78.2164V82H270.759V78.45C270.759 78.014 270.642 77.6753 270.409 77.434C270.183 77.1849 269.879 77.0603 269.498 77.0603C269.093 77.0603 268.77 77.1888 268.529 77.4457C268.295 77.7026 268.178 78.0685 268.178 78.5434V82H266.181V75.4838H268.178V76.675C268.365 76.2857 268.641 75.9782 269.007 75.7524C269.381 75.5266 269.817 75.4138 270.315 75.4138ZM277.88 80.2834V82H276.981C276.218 82 275.622 81.8132 275.194 81.4395C274.774 81.058 274.563 80.4313 274.563 79.5594V77.1654H273.688V75.4838H274.563V73.884H276.56V75.4838H277.868V77.1654H276.56V79.5944C276.56 79.8513 276.611 80.0304 276.712 80.1316C276.821 80.2328 277 80.2834 277.249 80.2834H277.88ZM285.308 78.5667C285.308 78.7302 285.289 78.9093 285.25 79.1039H280.731C280.754 79.5944 280.878 79.9486 281.104 80.1666C281.33 80.3768 281.618 80.4819 281.968 80.4819C282.264 80.4819 282.509 80.4079 282.704 80.26C282.899 80.1121 283.027 79.9214 283.089 79.6878H285.203C285.117 80.1471 284.931 80.5597 284.643 80.9256C284.355 81.2838 283.989 81.5679 283.545 81.7781C283.101 81.9805 282.607 82.0817 282.062 82.0817C281.423 82.0817 280.855 81.9494 280.357 81.6847C279.866 81.4122 279.481 81.023 279.201 80.5169C278.92 80.0109 278.78 79.4192 278.78 78.7419C278.78 78.0568 278.917 77.4651 279.189 76.9669C279.469 76.4609 279.859 76.0755 280.357 75.8108C280.855 75.5383 281.423 75.4021 282.062 75.4021C282.708 75.4021 283.276 75.5344 283.767 75.7991C284.257 76.0638 284.635 76.4375 284.899 76.9202C285.172 77.3951 285.308 77.9439 285.308 78.5667ZM283.288 78.2631C283.296 77.8349 283.179 77.5158 282.938 77.3056C282.704 77.0876 282.412 76.9786 282.062 76.9786C281.696 76.9786 281.392 77.0876 281.151 77.3056C280.91 77.5235 280.773 77.8427 280.742 78.2631H283.288ZM288.463 76.71C288.712 76.3129 289.031 75.9976 289.42 75.7641C289.817 75.5305 290.246 75.4138 290.705 75.4138V77.5508H290.133C289.603 77.5508 289.191 77.6637 288.895 77.8894C288.607 78.1152 288.463 78.4967 288.463 79.0339V82H286.466V75.4838H288.463V76.71ZM297.847 78.5667C297.847 78.7302 297.827 78.9093 297.788 79.1039H293.269C293.292 79.5944 293.417 79.9486 293.643 80.1666C293.868 80.3768 294.157 80.4819 294.507 80.4819C294.803 80.4819 295.048 80.4079 295.243 80.26C295.437 80.1121 295.566 79.9214 295.628 79.6878H297.742C297.656 80.1471 297.469 80.5597 297.181 80.9256C296.893 81.2838 296.527 81.5679 296.083 81.7781C295.64 81.9805 295.145 82.0817 294.6 82.0817C293.962 82.0817 293.394 81.9494 292.895 81.6847C292.405 81.4122 292.02 81.023 291.739 80.5169C291.459 80.0109 291.319 79.4192 291.319 78.7419C291.319 78.0568 291.455 77.4651 291.728 76.9669C292.008 76.4609 292.397 76.0755 292.895 75.8108C293.394 75.5383 293.962 75.4021 294.6 75.4021C295.246 75.4021 295.815 75.5344 296.305 75.7991C296.796 76.0638 297.173 76.4375 297.438 76.9202C297.71 77.3951 297.847 77.9439 297.847 78.5667ZM295.826 78.2631C295.834 77.8349 295.717 77.5158 295.476 77.3056C295.243 77.0876 294.951 76.9786 294.6 76.9786C294.234 76.9786 293.931 77.0876 293.689 77.3056C293.448 77.5235 293.312 77.8427 293.281 78.2631H295.826ZM301.375 75.4021C302.2 75.4021 302.858 75.6084 303.349 76.021C303.847 76.4336 304.158 76.9786 304.283 77.6559H302.414C302.36 77.3912 302.235 77.1849 302.041 77.037C301.854 76.8813 301.616 76.8034 301.328 76.8034C301.103 76.8034 300.931 76.854 300.814 76.9552C300.698 77.0486 300.639 77.1849 300.639 77.3639C300.639 77.5664 300.744 77.7182 300.955 77.8194C301.173 77.9206 301.511 78.0218 301.971 78.123C302.469 78.2398 302.878 78.3604 303.197 78.485C303.516 78.6018 303.792 78.7964 304.026 79.0689C304.259 79.3414 304.376 79.7073 304.376 80.1666C304.376 80.5403 304.275 80.8712 304.073 81.1592C303.87 81.4473 303.578 81.673 303.197 81.8365C302.815 82 302.364 82.0817 301.842 82.0817C300.962 82.0817 300.258 81.8871 299.728 81.4979C299.199 81.1086 298.876 80.552 298.759 79.8279H300.686C300.717 80.1082 300.834 80.3223 301.036 80.4702C301.247 80.6181 301.515 80.6921 301.842 80.6921C302.068 80.6921 302.239 80.6415 302.356 80.5403C302.473 80.4313 302.531 80.2912 302.531 80.1199C302.531 79.8941 302.422 79.7345 302.204 79.6411C301.994 79.5399 301.648 79.4348 301.165 79.3258C300.682 79.2246 300.285 79.1156 299.974 78.9988C299.662 78.882 299.394 78.6952 299.168 78.4383C298.942 78.1736 298.829 77.8155 298.829 77.3639C298.829 76.7801 299.051 76.3091 299.495 75.9509C299.939 75.585 300.565 75.4021 301.375 75.4021ZM309.289 80.2834V82H308.39C307.627 82 307.031 81.8132 306.603 81.4395C306.183 81.058 305.972 80.4313 305.972 79.5594V77.1654H305.097V75.4838H305.972V73.884H307.969V75.4838H309.277V77.1654H307.969V79.5944C307.969 79.8513 308.02 80.0304 308.121 80.1316C308.23 80.2328 308.409 80.2834 308.658 80.2834H309.289ZM312.796 73.6504C312.796 73.3468 312.905 73.0977 313.123 72.903C313.341 72.7006 313.629 72.5994 313.987 72.5994C314.345 72.5994 314.633 72.7006 314.851 72.903C315.069 73.0977 315.178 73.3468 315.178 73.6504C315.178 73.9463 315.069 74.1954 314.851 74.3978C314.633 74.5924 314.345 74.6897 313.987 74.6897C313.629 74.6897 313.341 74.5924 313.123 74.3978C312.905 74.1954 312.796 73.9463 312.796 73.6504ZM314.979 75.4838V82H312.983V75.4838H314.979ZM320.609 75.4138C321.356 75.4138 321.948 75.6629 322.384 76.1611C322.828 76.6594 323.05 77.3445 323.05 78.2164V82H321.053V78.45C321.053 78.014 320.936 77.6753 320.702 77.434C320.477 77.1849 320.173 77.0603 319.791 77.0603C319.387 77.0603 319.064 77.1888 318.822 77.4457C318.589 77.7026 318.472 78.0685 318.472 78.5434V82H316.475V75.4838H318.472V76.675C318.659 76.2857 318.935 75.9782 319.301 75.7524C319.675 75.5266 320.111 75.4138 320.609 75.4138ZM327.426 75.4021C328.267 75.4021 328.971 75.6356 329.54 76.1027C330.108 76.5621 330.466 77.1966 330.614 78.0062H328.5C328.438 77.726 328.31 77.508 328.115 77.3523C327.92 77.1966 327.675 77.1187 327.379 77.1187C327.029 77.1187 326.741 77.2588 326.515 77.5391C326.289 77.8116 326.177 78.2125 326.177 78.7419C326.177 79.2713 326.289 79.6761 326.515 79.9564C326.741 80.2289 327.029 80.3651 327.379 80.3651C327.675 80.3651 327.92 80.2873 328.115 80.1316C328.31 79.9759 328.438 79.7579 328.5 79.4776H330.614C330.466 80.2873 330.108 80.9256 329.54 81.3928C328.971 81.8521 328.267 82.0817 327.426 82.0817C326.788 82.0817 326.219 81.9494 325.721 81.6847C325.231 81.4122 324.845 81.023 324.565 80.5169C324.285 80.0109 324.145 79.4192 324.145 78.7419C324.145 78.0568 324.281 77.4651 324.553 76.9669C324.834 76.4609 325.223 76.0755 325.721 75.8108C326.219 75.5383 326.788 75.4021 327.426 75.4021ZM334.821 75.4021C335.467 75.4021 336.043 75.5383 336.549 75.8108C337.063 76.0755 337.464 76.4609 337.752 76.9669C338.048 77.4729 338.196 78.0646 338.196 78.7419C338.196 79.4192 338.048 80.0109 337.752 80.5169C337.464 81.023 337.063 81.4122 336.549 81.6847C336.043 81.9494 335.467 82.0817 334.821 82.0817C334.175 82.0817 333.595 81.9494 333.081 81.6847C332.567 81.4122 332.163 81.023 331.867 80.5169C331.579 80.0109 331.435 79.4192 331.435 78.7419C331.435 78.0646 331.579 77.4729 331.867 76.9669C332.163 76.4609 332.567 76.0755 333.081 75.8108C333.595 75.5383 334.175 75.4021 334.821 75.4021ZM334.821 77.1304C334.44 77.1304 334.117 77.2705 333.852 77.5508C333.595 77.8233 333.467 78.2203 333.467 78.7419C333.467 79.2635 333.595 79.6606 333.852 79.933C334.117 80.2055 334.44 80.3418 334.821 80.3418C335.203 80.3418 335.522 80.2055 335.779 79.933C336.036 79.6606 336.164 79.2635 336.164 78.7419C336.164 78.2203 336.036 77.8233 335.779 77.5508C335.522 77.2705 335.203 77.1304 334.821 77.1304ZM347.791 75.4138C348.593 75.4138 349.224 75.6629 349.683 76.1611C350.142 76.6516 350.372 77.3367 350.372 78.2164V82H348.387V78.45C348.387 78.0374 348.274 77.7182 348.048 77.4924C347.83 77.2588 347.53 77.1421 347.149 77.1421C346.752 77.1421 346.437 77.2666 346.203 77.5158C345.977 77.7571 345.864 78.0996 345.864 78.5434V82H343.868V78.45C343.868 78.0374 343.759 77.7182 343.541 77.4924C343.323 77.2588 343.023 77.1421 342.641 77.1421C342.244 77.1421 341.929 77.2627 341.695 77.5041C341.462 77.7454 341.345 78.0919 341.345 78.5434V82H339.348V75.4838H341.345V76.5932C341.516 76.2273 341.777 75.9393 342.128 75.7291C342.486 75.5189 342.902 75.4138 343.377 75.4138C343.875 75.4138 344.315 75.5305 344.697 75.7641C345.078 75.9899 345.366 76.3168 345.561 76.745C345.787 76.3402 346.094 76.0171 346.483 75.7758C346.88 75.5344 347.316 75.4138 347.791 75.4138ZM358.005 78.5667C358.005 78.7302 357.985 78.9093 357.946 79.1039H353.427C353.45 79.5944 353.575 79.9486 353.801 80.1666C354.027 80.3768 354.315 80.4819 354.665 80.4819C354.961 80.4819 355.206 80.4079 355.401 80.26C355.595 80.1121 355.724 79.9214 355.786 79.6878H357.9C357.814 80.1471 357.627 80.5597 357.339 80.9256C357.051 81.2838 356.685 81.5679 356.241 81.7781C355.798 81.9805 355.303 82.0817 354.758 82.0817C354.12 82.0817 353.552 81.9494 353.053 81.6847C352.563 81.4122 352.178 81.023 351.897 80.5169C351.617 80.0109 351.477 79.4192 351.477 78.7419C351.477 78.0568 351.613 77.4651 351.886 76.9669C352.166 76.4609 352.555 76.0755 353.053 75.8108C353.552 75.5383 354.12 75.4021 354.758 75.4021C355.405 75.4021 355.973 75.5344 356.463 75.7991C356.954 76.0638 357.331 76.4375 357.596 76.9202C357.869 77.3951 358.005 77.9439 358.005 78.5667ZM355.985 78.2631C355.992 77.8349 355.876 77.5158 355.634 77.3056C355.401 77.0876 355.109 76.9786 354.758 76.9786C354.392 76.9786 354.089 77.0876 353.848 77.3056C353.606 77.5235 353.47 77.8427 353.439 78.2631H355.985Z" fill="white"/>
<path d="M300.247 186.559C300.057 186.369 299.749 186.369 299.559 186.559L296.463 189.655C296.273 189.845 296.273 190.153 296.463 190.343C296.653 190.533 296.961 190.533 297.151 190.343L299.903 187.591L302.656 190.343C302.846 190.533 303.154 190.533 303.344 190.343C303.534 190.153 303.534 189.845 303.344 189.655L300.247 186.559ZM300.39 236.903L300.39 186.903H299.417L299.417 236.903L300.39 236.903Z" fill="white"/>
<path d="M310.686 196.332V198.06H313.477V199.567H310.686V201.4H313.827V203H308.689V194.744H313.827V196.332H310.686ZM317.554 196.402C318.052 196.402 318.48 196.515 318.838 196.741C319.196 196.967 319.461 197.274 319.632 197.663V196.484H321.618V203H319.632V201.821C319.461 202.21 319.196 202.517 318.838 202.743C318.48 202.969 318.052 203.082 317.554 203.082C317.016 203.082 316.534 202.949 316.106 202.685C315.685 202.412 315.35 202.023 315.101 201.517C314.86 201.011 314.739 200.419 314.739 199.742C314.739 199.057 314.86 198.465 315.101 197.967C315.35 197.461 315.685 197.075 316.106 196.811C316.534 196.538 317.016 196.402 317.554 196.402ZM318.196 198.154C317.768 198.154 317.421 198.294 317.157 198.574C316.9 198.854 316.771 199.244 316.771 199.742C316.771 200.24 316.9 200.629 317.157 200.91C317.421 201.19 317.768 201.33 318.196 201.33C318.616 201.33 318.959 201.186 319.224 200.898C319.496 200.61 319.632 200.225 319.632 199.742C319.632 199.251 319.496 198.866 319.224 198.586C318.959 198.298 318.616 198.154 318.196 198.154ZM325.106 197.71C325.355 197.313 325.674 196.998 326.064 196.764C326.461 196.531 326.889 196.414 327.348 196.414V198.551H326.776C326.247 198.551 325.834 198.664 325.538 198.889C325.25 199.115 325.106 199.497 325.106 200.034V203H323.109V196.484H325.106V197.71ZM330.298 194.358V203H328.301V194.358H330.298ZM333.3 196.484L334.864 200.478L336.324 196.484H338.531L334.467 206.106H332.272L333.802 202.755L331.069 196.484H333.3ZM313.804 216.494H310.709L310.195 218H308.093L311.118 209.802H313.418L316.443 218H314.318L313.804 216.494ZM313.29 214.975L312.262 211.939L311.223 214.975H313.29ZM319.333 212.71C319.582 212.313 319.901 211.998 320.29 211.764C320.687 211.531 321.116 211.414 321.575 211.414V213.551H321.003C320.473 213.551 320.061 213.664 319.765 213.889C319.477 214.115 319.333 214.497 319.333 215.034V218H317.336V211.484H319.333V212.71ZM324.524 212.71C324.774 212.313 325.093 211.998 325.482 211.764C325.879 211.531 326.307 211.414 326.767 211.414V213.551H326.194C325.665 213.551 325.252 213.664 324.957 213.889C324.668 214.115 324.524 214.497 324.524 215.034V218H322.528V211.484H324.524V212.71ZM327.532 209.65C327.532 209.347 327.641 209.098 327.859 208.903C328.077 208.701 328.365 208.599 328.723 208.599C329.082 208.599 329.37 208.701 329.588 208.903C329.806 209.098 329.915 209.347 329.915 209.65C329.915 209.946 329.806 210.195 329.588 210.398C329.37 210.592 329.082 210.69 328.723 210.69C328.365 210.69 328.077 210.592 327.859 210.398C327.641 210.195 327.532 209.946 327.532 209.65ZM329.716 211.484V218H327.719V211.484H329.716ZM334.224 216.05L335.637 211.484H337.763L335.451 218H332.975L330.663 211.484H332.788L334.224 216.05ZM338.52 209.65C338.52 209.347 338.629 209.098 338.847 208.903C339.065 208.701 339.353 208.599 339.711 208.599C340.069 208.599 340.357 208.701 340.575 208.903C340.793 209.098 340.902 209.347 340.902 209.65C340.902 209.946 340.793 210.195 340.575 210.398C340.357 210.592 340.069 210.69 339.711 210.69C339.353 210.69 339.065 210.592 338.847 210.398C338.629 210.195 338.52 209.946 338.52 209.65ZM340.704 211.484V218H338.707V211.484H340.704ZM346.333 211.414C347.08 211.414 347.672 211.663 348.108 212.161C348.552 212.659 348.774 213.344 348.774 214.216V218H346.777V214.45C346.777 214.014 346.66 213.675 346.426 213.434C346.201 213.185 345.897 213.06 345.516 213.06C345.111 213.06 344.788 213.189 344.546 213.446C344.313 213.703 344.196 214.068 344.196 214.543V218H342.199V211.484H344.196V212.675C344.383 212.286 344.659 211.978 345.025 211.752C345.399 211.527 345.835 211.414 346.333 211.414ZM352.683 211.402C353.181 211.402 353.61 211.515 353.968 211.741C354.326 211.967 354.59 212.274 354.762 212.663V211.484H356.747V217.965C356.747 218.572 356.63 219.117 356.397 219.6C356.163 220.09 355.805 220.48 355.322 220.768C354.84 221.056 354.24 221.2 353.524 221.2C352.543 221.2 351.757 220.966 351.165 220.499C350.581 220.04 350.231 219.413 350.114 218.619H352.088C352.15 218.884 352.29 219.09 352.508 219.238C352.734 219.386 353.026 219.46 353.384 219.46C353.796 219.46 354.127 219.339 354.376 219.098C354.633 218.864 354.762 218.487 354.762 217.965V216.821C354.59 217.21 354.326 217.517 353.968 217.743C353.61 217.969 353.181 218.082 352.683 218.082C352.146 218.082 351.663 217.949 351.235 217.685C350.815 217.412 350.48 217.023 350.231 216.517C349.989 216.011 349.869 215.419 349.869 214.742C349.869 214.057 349.989 213.465 350.231 212.967C350.48 212.461 350.815 212.075 351.235 211.811C351.663 211.538 352.146 211.402 352.683 211.402ZM353.325 213.154C352.897 213.154 352.551 213.294 352.286 213.574C352.029 213.854 351.901 214.244 351.901 214.742C351.901 215.24 352.029 215.629 352.286 215.91C352.551 216.19 352.897 216.33 353.325 216.33C353.746 216.33 354.088 216.186 354.353 215.898C354.625 215.61 354.762 215.225 354.762 214.742C354.762 214.251 354.625 213.866 354.353 213.586C354.088 213.298 353.746 213.154 353.325 213.154ZM319.911 224.744L317.938 233H315.462L314.142 227.476L312.811 233H310.336L308.362 224.744H310.534L311.597 230.723L313.045 224.744H315.229L316.677 230.723L317.751 224.744H319.911ZM320.89 224.65C320.89 224.347 320.999 224.098 321.217 223.903C321.435 223.701 321.723 223.599 322.081 223.599C322.439 223.599 322.727 223.701 322.945 223.903C323.163 224.098 323.272 224.347 323.272 224.65C323.272 224.946 323.163 225.195 322.945 225.398C322.727 225.592 322.439 225.69 322.081 225.69C321.723 225.69 321.435 225.592 321.217 225.398C320.999 225.195 320.89 224.946 320.89 224.65ZM323.073 226.484V233H321.077V226.484H323.073ZM326.566 227.71C326.815 227.313 327.134 226.998 327.523 226.764C327.92 226.531 328.349 226.414 328.808 226.414V228.551H328.236C327.706 228.551 327.294 228.664 326.998 228.889C326.71 229.115 326.566 229.497 326.566 230.034V233H324.569V226.484H326.566V227.71ZM335.95 229.567C335.95 229.73 335.93 229.909 335.891 230.104H331.372C331.395 230.594 331.52 230.949 331.746 231.167C331.971 231.377 332.259 231.482 332.61 231.482C332.906 231.482 333.151 231.408 333.346 231.26C333.54 231.112 333.669 230.921 333.731 230.688H335.845C335.759 231.147 335.572 231.56 335.284 231.926C334.996 232.284 334.63 232.568 334.186 232.778C333.743 232.981 333.248 233.082 332.703 233.082C332.065 233.082 331.497 232.949 330.998 232.685C330.508 232.412 330.122 232.023 329.842 231.517C329.562 231.011 329.422 230.419 329.422 229.742C329.422 229.057 329.558 228.465 329.831 227.967C330.111 227.461 330.5 227.075 330.998 226.811C331.497 226.538 332.065 226.402 332.703 226.402C333.349 226.402 333.918 226.534 334.408 226.799C334.899 227.064 335.276 227.438 335.541 227.92C335.813 228.395 335.95 228.944 335.95 229.567ZM333.929 229.263C333.937 228.835 333.82 228.516 333.579 228.306C333.346 228.088 333.054 227.979 332.703 227.979C332.337 227.979 332.034 228.088 331.792 228.306C331.551 228.524 331.415 228.843 331.384 229.263H333.929Z" fill="white"/>
<path d="M188.5 352H328V448" stroke="white" stroke-width="0.880708" stroke-dasharray="4.4 4.4"/>
<path d="M339.564 410.499C350.558 430.602 347.635 451.634 334.187 458.988C320.74 466.342 301.858 457.233 290.865 437.129C279.872 417.025 283.623 396.275 297.071 388.921C310.519 381.567 328.571 390.395 339.564 410.499Z" fill="#09AF72"/>
<ellipse cx="312.846" cy="425.9" rx="23.7346" ry="37.697" transform="rotate(-28.6714 312.846 425.9)" fill="#26ECA3"/>
<path d="M309.545 437.453L297.099 415.409L301.448 413.31L309.545 426.806L322.892 419.608L326.791 426.806L309.545 437.453Z" fill="white"/>
<defs>
<filter id="filter0_ddd2" x="220.963" y="300.433" width="100.199" height="104.457" filterUnits="userSpaceOnUse" color-interpolation-filters="sRGB">
<feFlood flood-opacity="0" result="BackgroundImageFix"/>
<feColorMatrix in="SourceAlpha" type="matrix" values="0 0 0 0 0 0 0 0 0 0 0 0 0 0 0 0 0 0 127 0"/>
<feMorphology radius="5.1901" operator="dilate" in="SourceAlpha" result="effect1_dropShadow"/>
<feOffset dy="14.9215"/>
<feGaussianBlur stdDeviation="9.73144"/>
<feColorMatrix type="matrix" values="0 0 0 0 0 0 0 0 0 0.0876457 0 0 0 0 0.391667 0 0 0 0.05 0"/>
<feBlend mode="normal" in2="BackgroundImageFix" result="effect1_dropShadow"/>
<feColorMatrix in="SourceAlpha" type="matrix" values="0 0 0 0 0 0 0 0 0 0 0 0 0 0 0 0 0 0 127 0"/>
<feOffset dy="30.4919"/>
<feGaussianBlur stdDeviation="1.94629"/>
<feColorMatrix type="matrix" values="0 0 0 0 0.121569 0 0 0 0 0.247059 0 0 0 0 0.682353 0 0 0 0.02 0"/>
<feBlend mode="normal" in2="effect1_dropShadow" result="effect2_dropShadow"/>
<feColorMatrix in="SourceAlpha" type="matrix" values="0 0 0 0 0 0 0 0 0 0 0 0 0 0 0 0 0 0 127 0"/>
<feOffset dy="36.9795"/>
<feGaussianBlur stdDeviation="6.48763"/>
<feColorMatrix type="matrix" values="0 0 0 0 0.121569 0 0 0 0 0.247059 0 0 0 0 0.682353 0 0 0 0.02 0"/>
<feBlend mode="normal" in2="effect2_dropShadow" result="effect3_dropShadow"/>
<feBlend mode="normal" in="SourceGraphic" in2="effect3_dropShadow" result="shape"/>
</filter>
<filter id="filter1_ddd2" x="113.288" y="0.518434" width="148.74" height="162.464" filterUnits="userSpaceOnUse" color-interpolation-filters="sRGB">
<feFlood flood-opacity="0" result="BackgroundImageFix"/>
<feColorMatrix in="SourceAlpha" type="matrix" values="0 0 0 0 0 0 0 0 0 0 0 0 0 0 0 0 0 0 127 0"/>
<feMorphology radius="5.1901" operator="dilate" in="SourceAlpha" result="effect1_dropShadow"/>
<feOffset dy="14.9215"/>
<feGaussianBlur stdDeviation="9.73144"/>
<feColorMatrix type="matrix" values="0 0 0 0 0 0 0 0 0 0.0876457 0 0 0 0 0.391667 0 0 0 0.05 0"/>
<feBlend mode="normal" in2="BackgroundImageFix" result="effect1_dropShadow"/>
<feColorMatrix in="SourceAlpha" type="matrix" values="0 0 0 0 0 0 0 0 0 0 0 0 0 0 0 0 0 0 127 0"/>
<feOffset dy="30.4919"/>
<feGaussianBlur stdDeviation="1.94629"/>
<feColorMatrix type="matrix" values="0 0 0 0 0.121569 0 0 0 0 0.247059 0 0 0 0 0.682353 0 0 0 0.02 0"/>
<feBlend mode="normal" in2="effect1_dropShadow" result="effect2_dropShadow"/>
<feColorMatrix in="SourceAlpha" type="matrix" values="0 0 0 0 0 0 0 0 0 0 0 0 0 0 0 0 0 0 127 0"/>
<feOffset dy="36.9795"/>
<feGaussianBlur stdDeviation="6.48763"/>
<feColorMatrix type="matrix" values="0 0 0 0 0.121569 0 0 0 0 0.247059 0 0 0 0 0.682353 0 0 0 0.02 0"/>
<feBlend mode="normal" in2="effect2_dropShadow" result="effect3_dropShadow"/>
<feBlend mode="normal" in="SourceGraphic" in2="effect3_dropShadow" result="shape"/>
</filter>
<filter id="filter2_ddd2" x="113.288" y="145.167" width="148.74" height="162.464" filterUnits="userSpaceOnUse" color-interpolation-filters="sRGB">
<feFlood flood-opacity="0" result="BackgroundImageFix"/>
<feColorMatrix in="SourceAlpha" type="matrix" values="0 0 0 0 0 0 0 0 0 0 0 0 0 0 0 0 0 0 127 0"/>
<feMorphology radius="5.1901" operator="dilate" in="SourceAlpha" result="effect1_dropShadow"/>
<feOffset dy="14.9215"/>
<feGaussianBlur stdDeviation="9.73144"/>
<feColorMatrix type="matrix" values="0 0 0 0 0 0 0 0 0 0.0876457 0 0 0 0 0.391667 0 0 0 0.05 0"/>
<feBlend mode="normal" in2="BackgroundImageFix" result="effect1_dropShadow"/>
<feColorMatrix in="SourceAlpha" type="matrix" values="0 0 0 0 0 0 0 0 0 0 0 0 0 0 0 0 0 0 127 0"/>
<feOffset dy="30.4919"/>
<feGaussianBlur stdDeviation="1.94629"/>
<feColorMatrix type="matrix" values="0 0 0 0 0.121569 0 0 0 0 0.247059 0 0 0 0 0.682353 0 0 0 0.02 0"/>
<feBlend mode="normal" in2="effect1_dropShadow" result="effect2_dropShadow"/>
<feColorMatrix in="SourceAlpha" type="matrix" values="0 0 0 0 0 0 0 0 0 0 0 0 0 0 0 0 0 0 127 0"/>
<feOffset dy="36.9795"/>
<feGaussianBlur stdDeviation="6.48763"/>
<feColorMatrix type="matrix" values="0 0 0 0 0.121569 0 0 0 0 0.247059 0 0 0 0 0.682353 0 0 0 0.02 0"/>
<feBlend mode="normal" in2="effect2_dropShadow" result="effect3_dropShadow"/>
<feBlend mode="normal" in="SourceGraphic" in2="effect3_dropShadow" result="shape"/>
</filter>
<filter id="filter3_ddd2" x="-6.95084" y="257.602" width="128.09" height="129.132" filterUnits="userSpaceOnUse" color-interpolation-filters="sRGB">
<feFlood flood-opacity="0" result="BackgroundImageFix"/>
<feColorMatrix in="SourceAlpha" type="matrix" values="0 0 0 0 0 0 0 0 0 0 0 0 0 0 0 0 0 0 127 0"/>
<feMorphology radius="5.1901" operator="dilate" in="SourceAlpha" result="effect1_dropShadow"/>
<feOffset dy="14.9215"/>
<feGaussianBlur stdDeviation="9.73144"/>
<feColorMatrix type="matrix" values="0 0 0 0 0 0 0 0 0 0.0876457 0 0 0 0 0.391667 0 0 0 0.05 0"/>
<feBlend mode="normal" in2="BackgroundImageFix" result="effect1_dropShadow"/>
<feColorMatrix in="SourceAlpha" type="matrix" values="0 0 0 0 0 0 0 0 0 0 0 0 0 0 0 0 0 0 127 0"/>
<feOffset dy="30.4919"/>
<feGaussianBlur stdDeviation="1.94629"/>
<feColorMatrix type="matrix" values="0 0 0 0 0.121569 0 0 0 0 0.247059 0 0 0 0 0.682353 0 0 0 0.02 0"/>
<feBlend mode="normal" in2="effect1_dropShadow" result="effect2_dropShadow"/>
<feColorMatrix in="SourceAlpha" type="matrix" values="0 0 0 0 0 0 0 0 0 0 0 0 0 0 0 0 0 0 127 0"/>
<feOffset dy="36.9795"/>
<feGaussianBlur stdDeviation="6.48763"/>
<feColorMatrix type="matrix" values="0 0 0 0 0.121569 0 0 0 0 0.247059 0 0 0 0 0.682353 0 0 0 0.02 0"/>
<feBlend mode="normal" in2="effect2_dropShadow" result="effect3_dropShadow"/>
<feBlend mode="normal" in="SourceGraphic" in2="effect3_dropShadow" result="shape"/>
</filter>
<filter id="filter4_ddd2" x="123.614" y="301.947" width="128.09" height="129.132" filterUnits="userSpaceOnUse" color-interpolation-filters="sRGB">
<feFlood flood-opacity="0" result="BackgroundImageFix"/>
<feColorMatrix in="SourceAlpha" type="matrix" values="0 0 0 0 0 0 0 0 0 0 0 0 0 0 0 0 0 0 127 0"/>
<feMorphology radius="5.1901" operator="dilate" in="SourceAlpha" result="effect1_dropShadow"/>
<feOffset dy="14.9215"/>
<feGaussianBlur stdDeviation="9.73144"/>
<feColorMatrix type="matrix" values="0 0 0 0 0 0 0 0 0 0.0876457 0 0 0 0 0.391667 0 0 0 0.05 0"/>
<feBlend mode="normal" in2="BackgroundImageFix" result="effect1_dropShadow"/>
<feColorMatrix in="SourceAlpha" type="matrix" values="0 0 0 0 0 0 0 0 0 0 0 0 0 0 0 0 0 0 127 0"/>
<feOffset dy="30.4919"/>
<feGaussianBlur stdDeviation="1.94629"/>
<feColorMatrix type="matrix" values="0 0 0 0 0.121569 0 0 0 0 0.247059 0 0 0 0 0.682353 0 0 0 0.02 0"/>
<feBlend mode="normal" in2="effect1_dropShadow" result="effect2_dropShadow"/>
<feColorMatrix in="SourceAlpha" type="matrix" values="0 0 0 0 0 0 0 0 0 0 0 0 0 0 0 0 0 0 127 0"/>
<feOffset dy="36.9795"/>
<feGaussianBlur stdDeviation="6.48763"/>
<feColorMatrix type="matrix" values="0 0 0 0 0.121569 0 0 0 0 0.247059 0 0 0 0 0.682353 0 0 0 0.02 0"/>
<feBlend mode="normal" in2="effect2_dropShadow" result="effect3_dropShadow"/>
<feBlend mode="normal" in="SourceGraphic" in2="effect3_dropShadow" result="shape"/>
</filter>
<filter id="filter5_ddd2" x="-6.94986" y="93.6077" width="128.09" height="129.132" filterUnits="userSpaceOnUse" color-interpolation-filters="sRGB">
<feFlood flood-opacity="0" result="BackgroundImageFix"/>
<feColorMatrix in="SourceAlpha" type="matrix" values="0 0 0 0 0 0 0 0 0 0 0 0 0 0 0 0 0 0 127 0"/>
<feMorphology radius="5.1901" operator="dilate" in="SourceAlpha" result="effect1_dropShadow"/>
<feOffset dy="14.9215"/>
<feGaussianBlur stdDeviation="9.73144"/>
<feColorMatrix type="matrix" values="0 0 0 0 0 0 0 0 0 0.0876457 0 0 0 0 0.391667 0 0 0 0.05 0"/>
<feBlend mode="normal" in2="BackgroundImageFix" result="effect1_dropShadow"/>
<feColorMatrix in="SourceAlpha" type="matrix" values="0 0 0 0 0 0 0 0 0 0 0 0 0 0 0 0 0 0 127 0"/>
<feOffset dy="30.4919"/>
<feGaussianBlur stdDeviation="1.94629"/>
<feColorMatrix type="matrix" values="0 0 0 0 0.121569 0 0 0 0 0.247059 0 0 0 0 0.682353 0 0 0 0.02 0"/>
<feBlend mode="normal" in2="effect1_dropShadow" result="effect2_dropShadow"/>
<feColorMatrix in="SourceAlpha" type="matrix" values="0 0 0 0 0 0 0 0 0 0 0 0 0 0 0 0 0 0 127 0"/>
<feOffset dy="36.9795"/>
<feGaussianBlur stdDeviation="6.48763"/>
<feColorMatrix type="matrix" values="0 0 0 0 0.121569 0 0 0 0 0.247059 0 0 0 0 0.682353 0 0 0 0.02 0"/>
<feBlend mode="normal" in2="effect2_dropShadow" result="effect3_dropShadow"/>
<feBlend mode="normal" in="SourceGraphic" in2="effect3_dropShadow" result="shape"/>
</filter>
<filter id="filter6_ddd2" x="182.006" y="45.0046" width="113.525" height="126.146" filterUnits="userSpaceOnUse" color-interpolation-filters="sRGB">
<feFlood flood-opacity="0" result="BackgroundImageFix"/>
<feColorMatrix in="SourceAlpha" type="matrix" values="0 0 0 0 0 0 0 0 0 0 0 0 0 0 0 0 0 0 127 0"/>
<feMorphology radius="5.1901" operator="dilate" in="SourceAlpha" result="effect1_dropShadow"/>
<feOffset dy="14.9215"/>
<feGaussianBlur stdDeviation="9.73144"/>
<feColorMatrix type="matrix" values="0 0 0 0 0 0 0 0 0 0.0876457 0 0 0 0 0.391667 0 0 0 0.05 0"/>
<feBlend mode="normal" in2="BackgroundImageFix" result="effect1_dropShadow"/>
<feColorMatrix in="SourceAlpha" type="matrix" values="0 0 0 0 0 0 0 0 0 0 0 0 0 0 0 0 0 0 127 0"/>
<feOffset dy="30.4919"/>
<feGaussianBlur stdDeviation="1.94629"/>
<feColorMatrix type="matrix" values="0 0 0 0 0.121569 0 0 0 0 0.247059 0 0 0 0 0.682353 0 0 0 0.02 0"/>
<feBlend mode="normal" in2="effect1_dropShadow" result="effect2_dropShadow"/>
<feColorMatrix in="SourceAlpha" type="matrix" values="0 0 0 0 0 0 0 0 0 0 0 0 0 0 0 0 0 0 127 0"/>
<feOffset dy="36.9795"/>
<feGaussianBlur stdDeviation="6.48763"/>
<feColorMatrix type="matrix" values="0 0 0 0 0.121569 0 0 0 0 0.247059 0 0 0 0 0.682353 0 0 0 0.02 0"/>
<feBlend mode="normal" in2="effect2_dropShadow" result="effect3_dropShadow"/>
<feBlend mode="normal" in="SourceGraphic" in2="effect3_dropShadow" result="shape"/>
</filter>
<filter id="filter7_ddd2" x="6.99642" y="213.072" width="100.199" height="104.457" filterUnits="userSpaceOnUse" color-interpolation-filters="sRGB">
<feFlood flood-opacity="0" result="BackgroundImageFix"/>
<feColorMatrix in="SourceAlpha" type="matrix" values="0 0 0 0 0 0 0 0 0 0 0 0 0 0 0 0 0 0 127 0"/>
<feMorphology radius="5.1901" operator="dilate" in="SourceAlpha" result="effect1_dropShadow"/>
<feOffset dy="14.9215"/>
<feGaussianBlur stdDeviation="9.73144"/>
<feColorMatrix type="matrix" values="0 0 0 0 0 0 0 0 0 0.0876457 0 0 0 0 0.391667 0 0 0 0.05 0"/>
<feBlend mode="normal" in2="BackgroundImageFix" result="effect1_dropShadow"/>
<feColorMatrix in="SourceAlpha" type="matrix" values="0 0 0 0 0 0 0 0 0 0 0 0 0 0 0 0 0 0 127 0"/>
<feOffset dy="30.4919"/>
<feGaussianBlur stdDeviation="1.94629"/>
<feColorMatrix type="matrix" values="0 0 0 0 0.121569 0 0 0 0 0.247059 0 0 0 0 0.682353 0 0 0 0.02 0"/>
<feBlend mode="normal" in2="effect1_dropShadow" result="effect2_dropShadow"/>
<feColorMatrix in="SourceAlpha" type="matrix" values="0 0 0 0 0 0 0 0 0 0 0 0 0 0 0 0 0 0 127 0"/>
<feOffset dy="36.9795"/>
<feGaussianBlur stdDeviation="6.48763"/>
<feColorMatrix type="matrix" values="0 0 0 0 0.121569 0 0 0 0 0.247059 0 0 0 0 0.682353 0 0 0 0.02 0"/>
<feBlend mode="normal" in2="effect2_dropShadow" result="effect3_dropShadow"/>
<feBlend mode="normal" in="SourceGraphic" in2="effect3_dropShadow" result="shape"/>
</filter>
<filter id="filter8_ddd2" x="80.2826" y="276.255" width="113.525" height="126.146" filterUnits="userSpaceOnUse" color-interpolation-filters="sRGB">
<feFlood flood-opacity="0" result="BackgroundImageFix"/>
<feColorMatrix in="SourceAlpha" type="matrix" values="0 0 0 0 0 0 0 0 0 0 0 0 0 0 0 0 0 0 127 0"/>
<feMorphology radius="5.1901" operator="dilate" in="SourceAlpha" result="effect1_dropShadow"/>
<feOffset dy="14.9215"/>
<feGaussianBlur stdDeviation="9.73144"/>
<feColorMatrix type="matrix" values="0 0 0 0 0 0 0 0 0 0.0876457 0 0 0 0 0.391667 0 0 0 0.05 0"/>
<feBlend mode="normal" in2="BackgroundImageFix" result="effect1_dropShadow"/>
<feColorMatrix in="SourceAlpha" type="matrix" values="0 0 0 0 0 0 0 0 0 0 0 0 0 0 0 0 0 0 127 0"/>
<feOffset dy="30.4919"/>
<feGaussianBlur stdDeviation="1.94629"/>
<feColorMatrix type="matrix" values="0 0 0 0 0.121569 0 0 0 0 0.247059 0 0 0 0 0.682353 0 0 0 0.02 0"/>
<feBlend mode="normal" in2="effect1_dropShadow" result="effect2_dropShadow"/>
<feColorMatrix in="SourceAlpha" type="matrix" values="0 0 0 0 0 0 0 0 0 0 0 0 0 0 0 0 0 0 127 0"/>
<feOffset dy="36.9795"/>
<feGaussianBlur stdDeviation="6.48763"/>
<feColorMatrix type="matrix" values="0 0 0 0 0.121569 0 0 0 0 0.247059 0 0 0 0 0.682353 0 0 0 0.02 0"/>
<feBlend mode="normal" in2="effect2_dropShadow" result="effect3_dropShadow"/>
<feBlend mode="normal" in="SourceGraphic" in2="effect3_dropShadow" result="shape"/>
</filter>
<filter id="filter9_ddd2" x="268.121" y="163.315" width="100.199" height="104.457" filterUnits="userSpaceOnUse" color-interpolation-filters="sRGB">
<feFlood flood-opacity="0" result="BackgroundImageFix"/>
<feColorMatrix in="SourceAlpha" type="matrix" values="0 0 0 0 0 0 0 0 0 0 0 0 0 0 0 0 0 0 127 0"/>
<feMorphology radius="5.1901" operator="dilate" in="SourceAlpha" result="effect1_dropShadow"/>
<feOffset dy="14.9215"/>
<feGaussianBlur stdDeviation="9.73144"/>
<feColorMatrix type="matrix" values="0 0 0 0 0 0 0 0 0 0.0876457 0 0 0 0 0.391667 0 0 0 0.05 0"/>
<feBlend mode="normal" in2="BackgroundImageFix" result="effect1_dropShadow"/>
<feColorMatrix in="SourceAlpha" type="matrix" values="0 0 0 0 0 0 0 0 0 0 0 0 0 0 0 0 0 0 127 0"/>
<feOffset dy="30.4919"/>
<feGaussianBlur stdDeviation="1.94629"/>
<feColorMatrix type="matrix" values="0 0 0 0 0.121569 0 0 0 0 0.247059 0 0 0 0 0.682353 0 0 0 0.02 0"/>
<feBlend mode="normal" in2="effect1_dropShadow" result="effect2_dropShadow"/>
<feColorMatrix in="SourceAlpha" type="matrix" values="0 0 0 0 0 0 0 0 0 0 0 0 0 0 0 0 0 0 127 0"/>
<feOffset dy="36.9795"/>
<feGaussianBlur stdDeviation="6.48763"/>
<feColorMatrix type="matrix" values="0 0 0 0 0.121569 0 0 0 0 0.247059 0 0 0 0 0.682353 0 0 0 0.02 0"/>
<feBlend mode="normal" in2="effect2_dropShadow" result="effect3_dropShadow"/>
<feBlend mode="normal" in="SourceGraphic" in2="effect3_dropShadow" result="shape"/>
</filter>
<filter id="filter10_ddd2" x="254.176" y="93.6071" width="128.09" height="129.132" filterUnits="userSpaceOnUse" color-interpolation-filters="sRGB">
<feFlood flood-opacity="0" result="BackgroundImageFix"/>
<feColorMatrix in="SourceAlpha" type="matrix" values="0 0 0 0 0 0 0 0 0 0 0 0 0 0 0 0 0 0 127 0"/>
<feMorphology radius="5.1901" operator="dilate" in="SourceAlpha" result="effect1_dropShadow"/>
<feOffset dy="14.9215"/>
<feGaussianBlur stdDeviation="9.73144"/>
<feColorMatrix type="matrix" values="0 0 0 0 0 0 0 0 0 0.0876457 0 0 0 0 0.391667 0 0 0 0.05 0"/>
<feBlend mode="normal" in2="BackgroundImageFix" result="effect1_dropShadow"/>
<feColorMatrix in="SourceAlpha" type="matrix" values="0 0 0 0 0 0 0 0 0 0 0 0 0 0 0 0 0 0 127 0"/>
<feOffset dy="30.4919"/>
<feGaussianBlur stdDeviation="1.94629"/>
<feColorMatrix type="matrix" values="0 0 0 0 0.121569 0 0 0 0 0.247059 0 0 0 0 0.682353 0 0 0 0.02 0"/>
<feBlend mode="normal" in2="effect1_dropShadow" result="effect2_dropShadow"/>
<feColorMatrix in="SourceAlpha" type="matrix" values="0 0 0 0 0 0 0 0 0 0 0 0 0 0 0 0 0 0 127 0"/>
<feOffset dy="36.9795"/>
<feGaussianBlur stdDeviation="6.48763"/>
<feColorMatrix type="matrix" values="0 0 0 0 0.121569 0 0 0 0 0.247059 0 0 0 0 0.682353 0 0 0 0.02 0"/>
<feBlend mode="normal" in2="effect2_dropShadow" result="effect3_dropShadow"/>
<feBlend mode="normal" in="SourceGraphic" in2="effect3_dropShadow" result="shape"/>
</filter>
<filter id="filter11_ddd2" x="256.057" y="257.601" width="128.09" height="129.132" filterUnits="userSpaceOnUse" color-interpolation-filters="sRGB">
<feFlood flood-opacity="0" result="BackgroundImageFix"/>
<feColorMatrix in="SourceAlpha" type="matrix" values="0 0 0 0 0 0 0 0 0 0 0 0 0 0 0 0 0 0 127 0"/>
<feMorphology radius="5.1901" operator="dilate" in="SourceAlpha" result="effect1_dropShadow"/>
<feOffset dy="14.9215"/>
<feGaussianBlur stdDeviation="9.73144"/>
<feColorMatrix type="matrix" values="0 0 0 0 0 0 0 0 0 0.0876457 0 0 0 0 0.391667 0 0 0 0.05 0"/>
<feBlend mode="normal" in2="BackgroundImageFix" result="effect1_dropShadow"/>
<feColorMatrix in="SourceAlpha" type="matrix" values="0 0 0 0 0 0 0 0 0 0 0 0 0 0 0 0 0 0 127 0"/>
<feOffset dy="30.4919"/>
<feGaussianBlur stdDeviation="1.94629"/>
<feColorMatrix type="matrix" values="0 0 0 0 0.121569 0 0 0 0 0.247059 0 0 0 0 0.682353 0 0 0 0.02 0"/>
<feBlend mode="normal" in2="effect1_dropShadow" result="effect2_dropShadow"/>
<feColorMatrix in="SourceAlpha" type="matrix" values="0 0 0 0 0 0 0 0 0 0 0 0 0 0 0 0 0 0 127 0"/>
<feOffset dy="36.9795"/>
<feGaussianBlur stdDeviation="6.48763"/>
<feColorMatrix type="matrix" values="0 0 0 0 0.121569 0 0 0 0 0.247059 0 0 0 0 0.682353 0 0 0 0.02 0"/>
<feBlend mode="normal" in2="effect2_dropShadow" result="effect3_dropShadow"/>
<feBlend mode="normal" in="SourceGraphic" in2="effect3_dropShadow" result="shape"/>
</filter>
<linearGradient id="paint0_linear2" x1="222.381" y1="81.6863" x2="168.174" y2="95.3871" gradientUnits="userSpaceOnUse">
<stop stop-color="#0B53DE"/>
<stop offset="1" stop-color="#3DD7D9"/>
</linearGradient>
<linearGradient id="paint1_linear2" x1="222.381" y1="226.334" x2="168.174" y2="240.035" gradientUnits="userSpaceOnUse">
<stop stop-color="#0B53DE"/>
<stop offset="1" stop-color="#3DD7D9"/>
</linearGradient>
<linearGradient id="paint2_linear2" x1="305.046" y1="299.547" x2="335.157" y2="299.547" gradientUnits="userSpaceOnUse">
<stop stop-color="#16D9E3"/>
<stop offset="0.47" stop-color="#30C7EC"/>
<stop offset="1" stop-color="#46AEF7"/>
</linearGradient>
<linearGradient id="paint3_linear2" x1="305.046" y1="299.547" x2="335.157" y2="299.547" gradientUnits="userSpaceOnUse">
<stop stop-color="#16D9E3"/>
<stop offset="0.47" stop-color="#30C7EC"/>
<stop offset="1" stop-color="#46AEF7"/>
</linearGradient>
<linearGradient id="paint4_linear2" x1="305.046" y1="299.547" x2="335.157" y2="299.547" gradientUnits="userSpaceOnUse">
<stop stop-color="#16D9E3"/>
<stop offset="0.47" stop-color="#30C7EC"/>
<stop offset="1" stop-color="#46AEF7"/>
</linearGradient>
<linearGradient id="paint5_linear2" x1="305.046" y1="299.547" x2="335.157" y2="299.547" gradientUnits="userSpaceOnUse">
<stop stop-color="#16D9E3"/>
<stop offset="0.47" stop-color="#30C7EC"/>
<stop offset="1" stop-color="#46AEF7"/>
</linearGradient>
<linearGradient id="paint6_linear2" x1="305.046" y1="299.547" x2="335.157" y2="299.547" gradientUnits="userSpaceOnUse">
<stop stop-color="#16D9E3"/>
<stop offset="0.47" stop-color="#30C7EC"/>
<stop offset="1" stop-color="#46AEF7"/>
</linearGradient>
<linearGradient id="paint7_linear2" x1="305.046" y1="299.547" x2="335.157" y2="299.547" gradientUnits="userSpaceOnUse">
<stop stop-color="#16D9E3"/>
<stop offset="0.47" stop-color="#30C7EC"/>
<stop offset="1" stop-color="#46AEF7"/>
</linearGradient>
<linearGradient id="paint8_linear2" x1="305.046" y1="299.547" x2="335.157" y2="299.547" gradientUnits="userSpaceOnUse">
<stop stop-color="#16D9E3"/>
<stop offset="0.47" stop-color="#30C7EC"/>
<stop offset="1" stop-color="#46AEF7"/>
</linearGradient>
<linearGradient id="paint9_linear2" x1="42.0391" y1="135.553" x2="72.1501" y2="135.553" gradientUnits="userSpaceOnUse">
<stop stop-color="#89F7FE"/>
<stop offset="1" stop-color="#66A6FF"/>
</linearGradient>
<linearGradient id="paint10_linear2" x1="42.0391" y1="135.553" x2="72.1501" y2="135.553" gradientUnits="userSpaceOnUse">
<stop stop-color="#89F7FE"/>
<stop offset="1" stop-color="#66A6FF"/>
</linearGradient>
<linearGradient id="paint11_linear2" x1="42.0391" y1="135.553" x2="72.1501" y2="135.553" gradientUnits="userSpaceOnUse">
<stop stop-color="#89F7FE"/>
<stop offset="1" stop-color="#66A6FF"/>
</linearGradient>
<linearGradient id="paint12_linear2" x1="42.0391" y1="135.553" x2="72.1501" y2="135.553" gradientUnits="userSpaceOnUse">
<stop stop-color="#89F7FE"/>
<stop offset="1" stop-color="#66A6FF"/>
</linearGradient>
<linearGradient id="paint13_linear2" x1="42.0391" y1="135.553" x2="72.1501" y2="135.553" gradientUnits="userSpaceOnUse">
<stop stop-color="#89F7FE"/>
<stop offset="1" stop-color="#66A6FF"/>
</linearGradient>
<linearGradient id="paint14_linear2" x1="42.0391" y1="135.553" x2="72.1501" y2="135.553" gradientUnits="userSpaceOnUse">
<stop stop-color="#89F7FE"/>
<stop offset="1" stop-color="#66A6FF"/>
</linearGradient>
<linearGradient id="paint15_linear2" x1="42.0391" y1="135.553" x2="72.1501" y2="135.553" gradientUnits="userSpaceOnUse">
<stop stop-color="#89F7FE"/>
<stop offset="1" stop-color="#66A6FF"/>
</linearGradient>
<linearGradient id="paint16_linear2" x1="303.167" y1="135.553" x2="333.278" y2="135.553" gradientUnits="userSpaceOnUse">
<stop stop-color="#E0C3FC"/>
<stop offset="1" stop-color="#8EC5FC"/>
</linearGradient>
<linearGradient id="paint17_linear2" x1="303.167" y1="135.553" x2="333.278" y2="135.553" gradientUnits="userSpaceOnUse">
<stop stop-color="#E0C3FC"/>
<stop offset="1" stop-color="#8EC5FC"/>
</linearGradient>
<linearGradient id="paint18_linear2" x1="303.167" y1="135.553" x2="333.278" y2="135.553" gradientUnits="userSpaceOnUse">
<stop stop-color="#E0C3FC"/>
<stop offset="1" stop-color="#8EC5FC"/>
</linearGradient>
<linearGradient id="paint19_linear2" x1="303.167" y1="135.553" x2="333.278" y2="135.553" gradientUnits="userSpaceOnUse">
<stop stop-color="#E0C3FC"/>
<stop offset="1" stop-color="#8EC5FC"/>
</linearGradient>
<linearGradient id="paint20_linear2" x1="303.167" y1="135.553" x2="333.278" y2="135.553" gradientUnits="userSpaceOnUse">
<stop stop-color="#E0C3FC"/>
<stop offset="1" stop-color="#8EC5FC"/>
</linearGradient>
<linearGradient id="paint21_linear2" x1="303.167" y1="135.553" x2="333.278" y2="135.553" gradientUnits="userSpaceOnUse">
<stop stop-color="#E0C3FC"/>
<stop offset="1" stop-color="#8EC5FC"/>
</linearGradient>
<linearGradient id="paint22_linear2" x1="303.167" y1="135.553" x2="333.278" y2="135.553" gradientUnits="userSpaceOnUse">
<stop stop-color="#E0C3FC"/>
<stop offset="1" stop-color="#8EC5FC"/>
</linearGradient>
<linearGradient id="paint23_linear2" x1="42.0391" y1="299.547" x2="72.1501" y2="299.547" gradientUnits="userSpaceOnUse">
<stop stop-color="#2AF598"/>
<stop offset="1" stop-color="#009EFD"/>
</linearGradient>
<linearGradient id="paint24_linear2" x1="42.0391" y1="299.547" x2="72.1501" y2="299.547" gradientUnits="userSpaceOnUse">
<stop stop-color="#2AF598"/>
<stop offset="1" stop-color="#009EFD"/>
</linearGradient>
<linearGradient id="paint25_linear2" x1="42.0391" y1="299.547" x2="72.1501" y2="299.547" gradientUnits="userSpaceOnUse">
<stop stop-color="#2AF598"/>
<stop offset="1" stop-color="#009EFD"/>
</linearGradient>
<linearGradient id="paint26_linear2" x1="42.0391" y1="299.547" x2="72.1501" y2="299.547" gradientUnits="userSpaceOnUse">
<stop stop-color="#2AF598"/>
<stop offset="1" stop-color="#009EFD"/>
</linearGradient>
<linearGradient id="paint27_linear2" x1="42.0391" y1="299.547" x2="72.1501" y2="299.547" gradientUnits="userSpaceOnUse">
<stop stop-color="#2AF598"/>
<stop offset="1" stop-color="#009EFD"/>
</linearGradient>
<linearGradient id="paint28_linear2" x1="42.0391" y1="299.547" x2="72.1501" y2="299.547" gradientUnits="userSpaceOnUse">
<stop stop-color="#2AF598"/>
<stop offset="1" stop-color="#009EFD"/>
</linearGradient>
<linearGradient id="paint29_linear2" x1="42.0391" y1="299.547" x2="72.1501" y2="299.547" gradientUnits="userSpaceOnUse">
<stop stop-color="#2AF598"/>
<stop offset="1" stop-color="#009EFD"/>
</linearGradient>
<linearGradient id="paint30_linear2" x1="172.603" y1="343.891" x2="202.714" y2="343.891" gradientUnits="userSpaceOnUse">
<stop stop-color="#48C6EF"/>
<stop offset="1" stop-color="#6F86D6"/>
</linearGradient>
<linearGradient id="paint31_linear2" x1="172.603" y1="343.891" x2="202.714" y2="343.891" gradientUnits="userSpaceOnUse">
<stop stop-color="#48C6EF"/>
<stop offset="1" stop-color="#6F86D6"/>
</linearGradient>
<linearGradient id="paint32_linear2" x1="172.603" y1="343.891" x2="202.714" y2="343.891" gradientUnits="userSpaceOnUse">
<stop stop-color="#48C6EF"/>
<stop offset="1" stop-color="#6F86D6"/>
</linearGradient>
<linearGradient id="paint33_linear2" x1="172.603" y1="343.891" x2="202.714" y2="343.891" gradientUnits="userSpaceOnUse">
<stop stop-color="#48C6EF"/>
<stop offset="1" stop-color="#6F86D6"/>
</linearGradient>
<linearGradient id="paint34_linear2" x1="172.603" y1="343.891" x2="202.714" y2="343.891" gradientUnits="userSpaceOnUse">
<stop stop-color="#48C6EF"/>
<stop offset="1" stop-color="#6F86D6"/>
</linearGradient>
<linearGradient id="paint35_linear2" x1="172.603" y1="343.891" x2="202.714" y2="343.891" gradientUnits="userSpaceOnUse">
<stop stop-color="#48C6EF"/>
<stop offset="1" stop-color="#6F86D6"/>
</linearGradient>
<linearGradient id="paint36_linear2" x1="172.603" y1="343.891" x2="202.714" y2="343.891" gradientUnits="userSpaceOnUse">
<stop stop-color="#48C6EF"/>
<stop offset="1" stop-color="#6F86D6"/>
</linearGradient>
</defs>
</svg>
