<svg width="913" height="819" viewBox="0 0 913 819" fill="none" xmlns="http://www.w3.org/2000/svg">
<circle cx="405.895" cy="415.998" r="207.593" fill="#263DA1"/>
<g filter="url(#filter0_f)">
<circle cx="409.221" cy="409.823" r="209.018" fill="#152673"/>
</g>
<path d="M630.614 594.897V597.185H634.304V599.312H630.614V601.793H634.787V604H627.859V592.69H634.787V594.897H630.614ZM636.189 599.489C636.189 598.565 636.361 597.754 636.704 597.056C637.059 596.358 637.537 595.821 638.138 595.445C638.74 595.069 639.411 594.881 640.152 594.881C640.786 594.881 641.339 595.01 641.812 595.268C642.295 595.525 642.666 595.864 642.923 596.283V595.01H645.678V604H642.923V602.727C642.655 603.146 642.279 603.484 641.796 603.742C641.323 604 640.77 604.129 640.136 604.129C639.406 604.129 638.74 603.941 638.138 603.565C637.537 603.178 637.059 602.636 636.704 601.938C636.361 601.229 636.189 600.413 636.189 599.489ZM642.923 599.505C642.923 598.818 642.73 598.275 642.343 597.878C641.967 597.48 641.506 597.282 640.958 597.282C640.41 597.282 639.943 597.48 639.556 597.878C639.18 598.264 638.992 598.801 638.992 599.489C638.992 600.176 639.18 600.724 639.556 601.132C639.943 601.53 640.41 601.728 640.958 601.728C641.506 601.728 641.967 601.53 642.343 601.132C642.73 600.735 642.923 600.192 642.923 599.505ZM650.588 596.508C650.91 596.014 651.313 595.628 651.796 595.348C652.279 595.058 652.816 594.913 653.407 594.913V597.829H652.65C651.963 597.829 651.447 597.98 651.103 598.28C650.76 598.57 650.588 599.086 650.588 599.827V604H647.833V595.01H650.588V596.508ZM657.64 592.078V604H654.885V592.078H657.64ZM668.981 595.01L663.342 608.269H660.378L662.44 603.694L658.783 595.01H661.86L663.938 600.633L666.001 595.01H668.981ZM621.874 623.002H617.653L616.977 625H614.093L618.185 613.69H621.375L625.467 625H622.551L621.874 623.002ZM621.166 620.876L619.764 616.735L618.378 620.876H621.166ZM629.629 617.508C629.951 617.014 630.354 616.628 630.837 616.348C631.321 616.058 631.858 615.913 632.448 615.913V618.829H631.691C631.004 618.829 630.488 618.98 630.144 619.28C629.801 619.57 629.629 620.086 629.629 620.827V625H626.874V616.01H629.629V617.508ZM636.681 617.508C637.004 617.014 637.406 616.628 637.89 616.348C638.373 616.058 638.91 615.913 639.501 615.913V618.829H638.744C638.056 618.829 637.541 618.98 637.197 619.28C636.853 619.57 636.681 620.086 636.681 620.827V625H633.926V616.01H636.681V617.508ZM642.364 615.075C641.881 615.075 641.484 614.936 641.172 614.657C640.871 614.367 640.721 614.012 640.721 613.593C640.721 613.164 640.871 612.809 641.172 612.53C641.484 612.24 641.881 612.095 642.364 612.095C642.837 612.095 643.224 612.24 643.524 612.53C643.836 612.809 643.992 613.164 643.992 613.593C643.992 614.012 643.836 614.367 643.524 614.657C643.224 614.936 642.837 615.075 642.364 615.075ZM643.734 616.01V625H640.979V616.01H643.734ZM649.935 622.422L651.885 616.01H654.817L651.627 625H648.228L645.038 616.01H647.986L649.935 622.422ZM657.523 615.075C657.04 615.075 656.643 614.936 656.331 614.657C656.03 614.367 655.88 614.012 655.88 613.593C655.88 613.164 656.03 612.809 656.331 612.53C656.643 612.24 657.04 612.095 657.523 612.095C657.996 612.095 658.383 612.24 658.683 612.53C658.995 612.809 659.151 613.164 659.151 613.593C659.151 614.012 658.995 614.367 658.683 614.657C658.383 614.936 657.996 615.075 657.523 615.075ZM658.893 616.01V625H656.138V616.01H658.893ZM666.528 615.913C667.581 615.913 668.419 616.257 669.042 616.944C669.675 617.621 669.992 618.555 669.992 619.748V625H667.253V620.118C667.253 619.517 667.098 619.05 666.786 618.717C666.475 618.384 666.056 618.217 665.53 618.217C665.003 618.217 664.584 618.384 664.273 618.717C663.961 619.05 663.806 619.517 663.806 620.118V625H661.051V616.01H663.806V617.202C664.085 616.805 664.461 616.493 664.933 616.268C665.406 616.031 665.938 615.913 666.528 615.913ZM675.484 615.881C676.117 615.881 676.67 616.01 677.143 616.268C677.626 616.525 677.997 616.864 678.255 617.283V616.01H681.01V624.984C681.01 625.811 680.843 626.557 680.51 627.223C680.188 627.9 679.689 628.437 679.012 628.834C678.346 629.232 677.514 629.431 676.515 629.431C675.183 629.431 674.103 629.114 673.276 628.48C672.449 627.857 671.977 627.009 671.858 625.934H674.581C674.667 626.278 674.871 626.547 675.194 626.74C675.516 626.944 675.913 627.046 676.386 627.046C676.955 627.046 677.406 626.88 677.739 626.547C678.083 626.224 678.255 625.704 678.255 624.984V623.711C677.986 624.13 677.616 624.474 677.143 624.742C676.67 625 676.117 625.129 675.484 625.129C674.742 625.129 674.071 624.941 673.47 624.565C672.868 624.178 672.39 623.636 672.036 622.938C671.692 622.229 671.52 621.413 671.52 620.489C671.52 619.565 671.692 618.754 672.036 618.056C672.39 617.358 672.868 616.821 673.47 616.445C674.071 616.069 674.742 615.881 675.484 615.881ZM678.255 620.505C678.255 619.818 678.061 619.275 677.675 618.878C677.299 618.48 676.837 618.282 676.289 618.282C675.741 618.282 675.274 618.48 674.887 618.878C674.511 619.264 674.324 619.801 674.324 620.489C674.324 621.176 674.511 621.724 674.887 622.132C675.274 622.53 675.741 622.728 676.289 622.728C676.837 622.728 677.299 622.53 677.675 622.132C678.061 621.735 678.255 621.192 678.255 620.505ZM645.063 634.69L642.114 646H638.779L636.975 638.557L635.106 646H631.771L628.903 634.69H631.851L633.479 642.923L635.493 634.69H638.522L640.455 642.923L642.098 634.69H645.063ZM647.991 636.075C647.508 636.075 647.11 635.936 646.799 635.657C646.498 635.367 646.348 635.012 646.348 634.593C646.348 634.164 646.498 633.809 646.799 633.53C647.11 633.24 647.508 633.095 647.991 633.095C648.464 633.095 648.85 633.24 649.151 633.53C649.463 633.809 649.618 634.164 649.618 634.593C649.618 635.012 649.463 635.367 649.151 635.657C648.85 635.936 648.464 636.075 647.991 636.075ZM649.361 637.01V646H646.605V637.01H649.361ZM654.273 638.508C654.595 638.014 654.998 637.628 655.482 637.348C655.965 637.058 656.502 636.913 657.093 636.913V639.829H656.335C655.648 639.829 655.132 639.98 654.789 640.28C654.445 640.57 654.273 641.086 654.273 641.827V646H651.518V637.01H654.273V638.508ZM667.045 641.36C667.045 641.618 667.029 641.886 666.997 642.166H660.762C660.805 642.724 660.982 643.154 661.293 643.454C661.616 643.744 662.008 643.889 662.47 643.889C663.157 643.889 663.635 643.599 663.903 643.019H666.836C666.685 643.61 666.411 644.142 666.014 644.614C665.627 645.087 665.139 645.458 664.548 645.726C663.957 645.995 663.297 646.129 662.566 646.129C661.685 646.129 660.901 645.941 660.214 645.565C659.527 645.189 658.99 644.652 658.603 643.954C658.216 643.256 658.023 642.439 658.023 641.505C658.023 640.57 658.211 639.754 658.587 639.056C658.973 638.358 659.51 637.821 660.198 637.445C660.885 637.069 661.675 636.881 662.566 636.881C663.436 636.881 664.21 637.064 664.886 637.429C665.563 637.794 666.089 638.315 666.465 638.992C666.852 639.668 667.045 640.458 667.045 641.36ZM664.226 640.635C664.226 640.162 664.065 639.786 663.742 639.507C663.42 639.228 663.017 639.088 662.534 639.088C662.072 639.088 661.68 639.223 661.358 639.491C661.046 639.76 660.853 640.141 660.778 640.635H664.226Z" fill="white"/>
<path opacity="0.2" d="M593.061 585.113C592.799 584.851 592.374 584.851 592.112 585.113L587.84 589.385C587.577 589.647 587.577 590.072 587.84 590.335C588.102 590.597 588.527 590.597 588.789 590.335L592.586 586.537L596.384 590.335C596.646 590.597 597.071 590.597 597.333 590.335C597.595 590.072 597.595 589.647 597.333 589.385L593.061 585.113ZM593.258 628.341L593.258 585.588L591.915 585.588L591.915 628.341L593.258 628.341Z" fill="white"/>
<path d="M410.001 646L410 693H884" stroke="#FF0000" stroke-width="1.37106" stroke-dasharray="6.86 6.86"/>
<path d="M422.476 377.693C431.765 377.693 440.349 382.649 444.993 390.693L457.158 411.764C461.803 419.808 461.803 429.719 457.158 437.764L444.993 458.835C440.349 466.879 431.765 471.835 422.476 471.835L398.146 471.835C388.857 471.835 380.274 466.879 375.63 458.835L363.464 437.764C358.82 429.72 358.82 419.808 363.464 411.764L375.63 390.693C380.274 382.649 388.857 377.693 398.146 377.693L422.476 377.693Z" fill="white"/>
<path d="M422.476 377.693C431.765 377.693 440.349 382.649 444.993 390.693L457.158 411.764C461.803 419.808 461.803 429.719 457.158 437.764L444.993 458.835C440.349 466.879 431.765 471.835 422.476 471.835L398.146 471.835C388.857 471.835 380.274 466.879 375.63 458.835L363.464 437.764C358.82 429.72 358.82 419.808 363.464 411.764L375.63 390.693C380.274 382.649 388.857 377.693 398.146 377.693L422.476 377.693Z" fill="url(#paint0_linear)"/>
<path d="M393.227 425.004C394.101 425.191 394.803 425.627 395.332 426.315C395.862 426.988 396.127 427.761 396.127 428.635C396.127 429.895 395.683 430.898 394.795 431.642C393.922 432.373 392.697 432.738 391.122 432.738H384.097V417.658H390.886C392.418 417.658 393.614 418.008 394.473 418.71C395.347 419.412 395.784 420.364 395.784 421.567C395.784 422.455 395.547 423.193 395.075 423.78C394.616 424.367 394.001 424.775 393.227 425.004ZM387.771 423.758H390.177C390.778 423.758 391.237 423.63 391.552 423.372C391.881 423.1 392.046 422.706 392.046 422.19C392.046 421.675 391.881 421.281 391.552 421.009C391.237 420.737 390.778 420.601 390.177 420.601H387.771V423.758ZM390.478 429.773C391.093 429.773 391.566 429.637 391.895 429.365C392.239 429.079 392.411 428.671 392.411 428.141C392.411 427.611 392.232 427.196 391.874 426.895C391.53 426.594 391.05 426.444 390.435 426.444H387.771V429.773H390.478ZM397.742 426.723C397.742 425.491 397.971 424.41 398.43 423.479C398.902 422.548 399.54 421.832 400.342 421.331C401.144 420.83 402.039 420.579 403.027 420.579C403.872 420.579 404.609 420.751 405.239 421.095C405.884 421.438 406.378 421.89 406.722 422.448V420.751H410.395V432.738H406.722V431.041C406.364 431.599 405.862 432.05 405.218 432.394C404.588 432.738 403.85 432.91 403.005 432.91C402.031 432.91 401.144 432.659 400.342 432.158C399.54 431.642 398.902 430.919 398.43 429.988C397.971 429.043 397.742 427.955 397.742 426.723ZM406.722 426.744C406.722 425.828 406.464 425.105 405.948 424.575C405.447 424.045 404.831 423.78 404.101 423.78C403.37 423.78 402.747 424.045 402.232 424.575C401.731 425.09 401.48 425.806 401.48 426.723C401.48 427.639 401.731 428.37 402.232 428.914C402.747 429.444 403.37 429.709 404.101 429.709C404.831 429.709 405.447 429.444 405.948 428.914C406.464 428.384 406.722 427.661 406.722 426.744ZM420.571 420.622C421.975 420.622 423.092 421.08 423.922 421.997C424.767 422.899 425.19 424.145 425.19 425.735V432.738H421.538V426.229C421.538 425.427 421.33 424.804 420.915 424.36C420.499 423.916 419.941 423.694 419.239 423.694C418.537 423.694 417.979 423.916 417.564 424.36C417.148 424.804 416.941 425.427 416.941 426.229V432.738H413.267V420.751H416.941V422.341C417.313 421.811 417.814 421.395 418.444 421.095C419.075 420.78 419.783 420.622 420.571 420.622ZM435.282 432.738L431.63 427.711V432.738H427.957V416.841H431.63V425.627L435.261 420.751H439.794L434.81 426.766L439.837 432.738H435.282Z" fill="white"/>
<path d="M422.476 177.176C431.765 177.176 440.349 182.132 444.993 190.176L457.158 211.247C461.803 219.291 461.803 229.202 457.158 237.247L444.993 258.317C440.349 266.362 431.765 271.317 422.476 271.317L398.146 271.317C388.857 271.317 380.274 266.362 375.63 258.317L363.464 237.247C358.82 229.202 358.82 219.291 363.464 211.247L375.63 190.176C380.274 182.132 388.857 177.176 398.146 177.176L422.476 177.176Z" fill="white"/>
<path d="M422.476 177.176C431.765 177.176 440.349 182.132 444.993 190.176L457.158 211.247C461.803 219.291 461.803 229.202 457.158 237.247L444.993 258.317C440.349 266.362 431.765 271.317 422.476 271.317L398.146 271.317C388.857 271.317 380.274 266.362 375.63 258.317L363.464 237.247C358.82 229.202 358.82 219.291 363.464 211.247L375.63 190.176C380.274 182.132 388.857 177.176 398.146 177.176L422.476 177.176Z" fill="url(#paint1_linear)"/>
<path d="M419.725 222.679H424.509V234.132H419.725V222.679Z" fill="white"/>
<path d="M410.668 222.679H415.451V234.132H410.668V222.679Z" fill="white"/>
<path d="M401.609 222.679H406.392V234.132H401.609V222.679Z" fill="white"/>
<path d="M392.551 222.679H397.334V234.132H392.551V222.679Z" fill="white"/>
<path d="M426.103 219.092V217.896H390.957V219.092C390.957 219.752 391.492 220.287 392.152 220.287H424.907C425.567 220.287 426.103 219.752 426.103 219.092Z" fill="white"/>
<path d="M427.742 236.524H389.317C388.657 236.524 388.121 237.059 388.121 237.72V240.909C388.121 241.569 388.657 242.104 389.317 242.104H427.742C428.403 242.104 428.938 241.569 428.938 240.909V237.72C428.938 237.059 428.403 236.524 427.742 236.524Z" fill="white"/>
<path d="M389.316 215.504H427.743C428.278 215.504 428.748 215.149 428.894 214.634C429.039 214.119 428.826 213.57 428.37 213.29L409.157 201.463C408.772 201.226 408.288 201.226 407.903 201.463L388.689 213.29C388.234 213.57 388.02 214.119 388.166 214.634C388.312 215.149 388.782 215.504 389.316 215.504ZM407.717 208.319H409.343C410.004 208.319 410.539 208.855 410.539 209.515C410.539 210.176 410.004 210.711 409.343 210.711H407.717C407.057 210.711 406.521 210.176 406.521 209.515C406.521 208.855 407.057 208.319 407.717 208.319Z" fill="white"/>
<g filter="url(#filter1_ddd)">
<path d="M525.937 531.33C521.293 523.286 521.293 513.375 525.937 505.33L538.102 484.26C542.747 476.215 551.33 471.26 560.619 471.26H584.949C594.238 471.26 602.821 476.215 607.466 484.26L619.631 505.33C624.275 513.375 624.275 523.286 619.631 531.33L607.466 552.401C602.821 560.445 594.238 565.401 584.949 565.401H560.619C551.33 565.401 542.747 560.445 538.102 552.401L525.937 531.33Z" fill="white"/>
</g>
<path d="M583.979 518.305C583.979 516.984 585.05 515.913 586.37 515.913C587.691 515.913 588.762 516.984 588.762 518.305V524.975C588.762 526.296 587.691 527.366 586.37 527.366C585.05 527.366 583.979 526.296 583.979 524.975V518.305Z" fill="white"/>
<path d="M583.979 518.305C583.979 516.984 585.05 515.913 586.37 515.913C587.691 515.913 588.762 516.984 588.762 518.305V524.975C588.762 526.296 587.691 527.366 586.37 527.366C585.05 527.366 583.979 526.296 583.979 524.975V518.305Z" fill="url(#paint2_linear)"/>
<path d="M574.921 518.305C574.921 516.984 575.992 515.913 577.313 515.913C578.634 515.913 579.704 516.984 579.704 518.305V524.975C579.704 526.296 578.634 527.366 577.313 527.366C575.992 527.366 574.921 526.296 574.921 524.975V518.305Z" fill="white"/>
<path d="M574.921 518.305C574.921 516.984 575.992 515.913 577.313 515.913C578.634 515.913 579.704 516.984 579.704 518.305V524.975C579.704 526.296 578.634 527.366 577.313 527.366C575.992 527.366 574.921 526.296 574.921 524.975V518.305Z" fill="url(#paint3_linear)"/>
<path d="M565.862 518.305C565.862 516.984 566.933 515.913 568.254 515.913C569.575 515.913 570.646 516.984 570.646 518.305V524.975C570.646 526.296 569.575 527.366 568.254 527.366C566.933 527.366 565.862 526.296 565.862 524.975V518.305Z" fill="white"/>
<path d="M565.862 518.305C565.862 516.984 566.933 515.913 568.254 515.913C569.575 515.913 570.646 516.984 570.646 518.305V524.975C570.646 526.296 569.575 527.366 568.254 527.366C566.933 527.366 565.862 526.296 565.862 524.975V518.305Z" fill="url(#paint4_linear)"/>
<path d="M556.805 518.305C556.805 516.984 557.875 515.913 559.196 515.913C560.517 515.913 561.588 516.984 561.588 518.305V524.975C561.588 526.296 560.517 527.366 559.196 527.366C557.875 527.366 556.805 526.296 556.805 524.975V518.305Z" fill="white"/>
<path d="M556.805 518.305C556.805 516.984 557.875 515.913 559.196 515.913C560.517 515.913 561.588 516.984 561.588 518.305V524.975C561.588 526.296 560.517 527.366 559.196 527.366C557.875 527.366 556.805 526.296 556.805 524.975V518.305Z" fill="url(#paint5_linear)"/>
<path d="M590.356 512.326C590.356 511.665 589.821 511.13 589.16 511.13H556.406C555.745 511.13 555.21 511.665 555.21 512.326C555.21 512.986 555.745 513.522 556.406 513.522H589.16C589.821 513.522 590.356 512.986 590.356 512.326Z" fill="white"/>
<path d="M590.356 512.326C590.356 511.665 589.821 511.13 589.16 511.13H556.406C555.745 511.13 555.21 511.665 555.21 512.326C555.21 512.986 555.745 513.522 556.406 513.522H589.16C589.821 513.522 590.356 512.986 590.356 512.326Z" fill="url(#paint6_linear)"/>
<path d="M591.996 529.758H553.571C552.91 529.758 552.375 530.293 552.375 530.954V534.143C552.375 534.803 552.91 535.339 553.571 535.339H591.996C592.656 535.339 593.192 534.803 593.192 534.143V530.954C593.192 530.293 592.656 529.758 591.996 529.758Z" fill="white"/>
<path d="M591.996 529.758H553.571C552.91 529.758 552.375 530.293 552.375 530.954V534.143C552.375 534.803 552.91 535.339 553.571 535.339H591.996C592.656 535.339 593.192 534.803 593.192 534.143V530.954C593.192 530.293 592.656 529.758 591.996 529.758Z" fill="url(#paint7_linear)"/>
<path d="M553.57 508.738H591.997C592.532 508.738 593.002 508.383 593.147 507.868C593.293 507.353 593.079 506.804 592.624 506.524L573.41 494.698C573.026 494.461 572.541 494.461 572.156 494.698L552.943 506.524C552.487 506.805 552.274 507.353 552.419 507.868C552.565 508.383 553.035 508.738 553.57 508.738ZM571.97 501.554H573.596C574.257 501.554 574.792 502.089 574.792 502.75C574.792 503.41 574.257 503.946 573.596 503.946H571.97C571.31 503.946 570.775 503.41 570.775 502.75C570.775 502.089 571.31 501.554 571.97 501.554Z" fill="white"/>
<path d="M553.57 508.738H591.997C592.532 508.738 593.002 508.383 593.147 507.868C593.293 507.353 593.079 506.804 592.624 506.524L573.41 494.698C573.026 494.461 572.541 494.461 572.156 494.698L552.943 506.524C552.487 506.805 552.274 507.353 552.419 507.868C552.565 508.383 553.035 508.738 553.57 508.738ZM571.97 501.554H573.596C574.257 501.554 574.792 502.089 574.792 502.75C574.792 503.41 574.257 503.946 573.596 503.946H571.97C571.31 503.946 570.775 503.41 570.775 502.75C570.775 502.089 571.31 501.554 571.97 501.554Z" fill="url(#paint8_linear)"/>
<g filter="url(#filter2_ddd)">
<path d="M205.857 531.33C201.212 523.286 201.212 513.375 205.857 505.33L218.022 484.26C222.666 476.215 231.25 471.26 240.538 471.26H264.869C274.158 471.26 282.741 476.215 287.385 484.26L299.55 505.33C304.195 513.375 304.195 523.286 299.55 531.33L287.385 552.401C282.741 560.445 274.158 565.401 264.869 565.401H240.538C231.25 565.401 222.666 560.445 218.022 552.401L205.857 531.33Z" fill="white"/>
</g>
<path d="M263.899 515.913H268.682V527.366H263.899V515.913Z" fill="url(#paint9_linear)"/>
<path d="M254.841 515.913H259.624V527.366H254.841V515.913Z" fill="url(#paint10_linear)"/>
<path d="M245.782 515.913H250.566V527.366H245.782V515.913Z" fill="url(#paint11_linear)"/>
<path d="M236.724 515.913H241.508V527.366H236.724V515.913Z" fill="url(#paint12_linear)"/>
<path d="M270.276 512.326V511.13H235.13V512.326C235.13 512.986 235.665 513.522 236.326 513.522H269.08C269.74 513.522 270.276 512.986 270.276 512.326Z" fill="url(#paint13_linear)"/>
<path d="M271.916 529.758H233.491C232.83 529.758 232.295 530.293 232.295 530.954V534.143C232.295 534.803 232.83 535.339 233.491 535.339H271.916C272.576 535.339 273.112 534.803 273.112 534.143V530.954C273.112 530.293 272.576 529.758 271.916 529.758Z" fill="url(#paint14_linear)"/>
<path d="M233.49 508.738H271.917C272.452 508.738 272.922 508.383 273.067 507.868C273.213 507.353 272.999 506.804 272.544 506.524L253.33 494.698C252.946 494.461 252.461 494.461 252.076 494.698L232.863 506.524C232.407 506.805 232.194 507.353 232.339 507.868C232.485 508.383 232.955 508.738 233.49 508.738ZM251.89 501.554H253.516C254.177 501.554 254.712 502.089 254.712 502.75C254.712 503.41 254.177 503.946 253.516 503.946H251.89C251.23 503.946 250.695 503.41 250.695 502.75C250.695 502.089 251.23 501.554 251.89 501.554Z" fill="url(#paint15_linear)"/>
<g filter="url(#filter3_ddd)">
<path d="M629.132 305.813C633.776 313.857 633.776 323.768 629.132 331.813L616.967 352.884C612.322 360.928 603.739 365.884 594.45 365.884H570.12C560.831 365.884 552.247 360.928 547.603 352.884L535.438 331.813C530.793 323.769 530.793 313.857 535.438 305.813L547.603 284.742C552.247 276.698 560.831 271.742 570.12 271.742H594.45C603.739 271.742 612.322 276.698 616.967 284.742L629.132 305.813Z" fill="white"/>
</g>
<path d="M593.481 316.396H598.264V327.849H593.481V316.396Z" fill="url(#paint16_linear)"/>
<path d="M584.423 316.396H589.206V327.849H584.423V316.396Z" fill="url(#paint17_linear)"/>
<path d="M575.364 316.396H580.148V327.849H575.364V316.396Z" fill="url(#paint18_linear)"/>
<path d="M566.306 316.396H571.09V327.849H566.306V316.396Z" fill="url(#paint19_linear)"/>
<path d="M599.858 312.809V311.613H564.712V312.809C564.712 313.469 565.247 314.005 565.908 314.005H598.662C599.323 314.005 599.858 313.469 599.858 312.809Z" fill="url(#paint20_linear)"/>
<path d="M601.498 330.241H563.073C562.412 330.241 561.877 330.776 561.877 331.437V334.626C561.877 335.286 562.412 335.822 563.073 335.822H601.498C602.158 335.822 602.694 335.286 602.694 334.626V331.437C602.694 330.776 602.158 330.241 601.498 330.241Z" fill="url(#paint21_linear)"/>
<path d="M563.072 309.221H601.499C602.034 309.221 602.504 308.866 602.649 308.351C602.795 307.836 602.581 307.287 602.126 307.007L582.912 295.18C582.528 294.944 582.043 294.944 581.658 295.18L562.445 307.007C561.989 307.288 561.776 307.836 561.921 308.351C562.067 308.866 562.537 309.221 563.072 309.221ZM581.472 302.037H583.098C583.759 302.037 584.294 302.572 584.294 303.233C584.294 303.893 583.759 304.428 583.098 304.428H581.472C580.812 304.428 580.277 303.893 580.277 303.233C580.277 302.572 580.812 302.037 581.472 302.037Z" fill="url(#paint22_linear)"/>
<g filter="url(#filter4_ddd)">
<path d="M287.2 305.813C291.844 313.857 291.844 323.768 287.2 331.813L275.034 352.884C270.39 360.928 261.807 365.884 252.518 365.884H228.187C218.899 365.884 210.315 360.928 205.671 352.884L193.506 331.813C188.861 323.769 188.861 313.857 193.506 305.813L205.671 284.742C210.315 276.698 218.899 271.742 228.187 271.742H252.518C261.807 271.742 270.39 276.698 275.034 284.742L287.2 305.813Z" fill="white"/>
</g>
<path d="M251.549 316.396H256.332V327.849H251.549V316.396Z" fill="url(#paint23_linear)"/>
<path d="M242.491 316.396H247.274V327.849H242.491V316.396Z" fill="url(#paint24_linear)"/>
<path d="M233.432 316.396H238.216V327.849H233.432V316.396Z" fill="url(#paint25_linear)"/>
<path d="M224.374 316.396H229.157V327.849H224.374V316.396Z" fill="url(#paint26_linear)"/>
<path d="M257.926 312.809V311.613H222.78V312.809C222.78 313.469 223.315 314.005 223.976 314.005H256.73C257.39 314.005 257.926 313.469 257.926 312.809Z" fill="url(#paint27_linear)"/>
<path d="M259.566 330.241H221.141C220.48 330.241 219.945 330.776 219.945 331.437V334.626C219.945 335.286 220.48 335.822 221.141 335.822H259.566C260.226 335.822 260.762 335.286 260.762 334.626V331.437C260.762 330.776 260.226 330.241 259.566 330.241Z" fill="url(#paint28_linear)"/>
<path d="M221.14 309.221H259.567C260.102 309.221 260.572 308.866 260.717 308.351C260.863 307.836 260.649 307.287 260.193 307.007L240.98 295.18C240.596 294.944 240.111 294.944 239.726 295.18L220.513 307.007C220.057 307.288 219.843 307.836 219.989 308.351C220.135 308.866 220.605 309.221 221.14 309.221ZM239.54 302.037H241.166C241.827 302.037 242.362 302.572 242.362 303.233C242.362 303.893 241.827 304.428 241.166 304.428H239.54C238.88 304.428 238.344 303.893 238.344 303.233C238.344 302.572 238.88 302.037 239.54 302.037Z" fill="url(#paint29_linear)"/>
<g filter="url(#filter5_ddd)">
<path d="M363.522 612.538C358.877 604.493 358.877 594.582 363.522 586.538L375.687 565.467C380.331 557.423 388.915 552.467 398.203 552.467H422.534C431.823 552.467 440.406 557.423 445.05 565.467L457.215 586.538C461.86 594.582 461.86 604.493 457.215 612.538L445.05 633.608C440.406 641.653 431.823 646.608 422.534 646.608H398.203C388.915 646.608 380.331 641.653 375.687 633.608L363.522 612.538Z" fill="white"/>
</g>
<path d="M421.563 597.12H426.346V608.572H421.563V597.12Z" fill="url(#paint30_linear)"/>
<path d="M412.505 597.12H417.288V608.572H412.505V597.12Z" fill="url(#paint31_linear)"/>
<path d="M403.446 597.12H408.23V608.572H403.446V597.12Z" fill="url(#paint32_linear)"/>
<path d="M394.389 597.12H399.172V608.572H394.389V597.12Z" fill="url(#paint33_linear)"/>
<path d="M427.94 593.532V592.336H392.794V593.532C392.794 594.192 393.329 594.728 393.99 594.728H426.744C427.405 594.728 427.94 594.192 427.94 593.532Z" fill="url(#paint34_linear)"/>
<path d="M429.58 610.964H391.155C390.494 610.964 389.959 611.499 389.959 612.16V615.349C389.959 616.009 390.494 616.545 391.155 616.545H429.58C430.24 616.545 430.776 616.009 430.776 615.349V612.16C430.776 611.499 430.24 610.964 429.58 610.964Z" fill="url(#paint35_linear)"/>
<path d="M391.154 589.944H429.581C430.116 589.944 430.586 589.589 430.731 589.074C430.877 588.559 430.663 588.01 430.208 587.73L410.994 575.904C410.61 575.667 410.125 575.667 409.74 575.904L390.527 587.73C390.071 588.011 389.858 588.559 390.003 589.074C390.149 589.589 390.619 589.944 391.154 589.944ZM409.554 582.76H411.18C411.841 582.76 412.376 583.295 412.376 583.956C412.376 584.616 411.841 585.152 411.18 585.152H409.554C408.894 585.152 408.359 584.616 408.359 583.956C408.359 583.295 408.894 582.76 409.554 582.76Z" fill="url(#paint36_linear)"/>
<path d="M241.025 190.927H244.634V193.053H238.27V181.743H241.025V190.927ZM245.562 188.542C245.562 187.618 245.734 186.807 246.077 186.109C246.432 185.411 246.91 184.874 247.511 184.498C248.113 184.122 248.784 183.934 249.525 183.934C250.159 183.934 250.712 184.063 251.185 184.321C251.668 184.579 252.038 184.917 252.296 185.336V184.063H255.051V193.053H252.296V191.78C252.028 192.199 251.652 192.538 251.168 192.795C250.696 193.053 250.143 193.182 249.509 193.182C248.779 193.182 248.113 192.994 247.511 192.618C246.91 192.232 246.432 191.689 246.077 190.991C245.734 190.282 245.562 189.466 245.562 188.542ZM252.296 188.558C252.296 187.871 252.103 187.328 251.716 186.931C251.34 186.534 250.878 186.335 250.331 186.335C249.783 186.335 249.316 186.534 248.929 186.931C248.553 187.318 248.365 187.855 248.365 188.542C248.365 189.229 248.553 189.777 248.929 190.185C249.316 190.583 249.783 190.782 250.331 190.782C250.878 190.782 251.34 190.583 251.716 190.185C252.103 189.788 252.296 189.246 252.296 188.558ZM262.216 190.717V193.053H260.814C259.816 193.053 259.037 192.812 258.478 192.328C257.92 191.834 257.641 191.034 257.641 189.928V186.351H256.545V184.063H257.641V181.872H260.396V184.063H262.2V186.351H260.396V189.96C260.396 190.228 260.46 190.422 260.589 190.54C260.718 190.658 260.933 190.717 261.233 190.717H262.216ZM272.386 188.413C272.386 188.671 272.37 188.939 272.338 189.219H266.103C266.146 189.777 266.323 190.207 266.635 190.508C266.957 190.798 267.349 190.943 267.811 190.943C268.498 190.943 268.976 190.653 269.245 190.073H272.177C272.027 190.663 271.753 191.195 271.355 191.668C270.969 192.14 270.48 192.511 269.889 192.779C269.298 193.048 268.638 193.182 267.907 193.182C267.027 193.182 266.243 192.994 265.555 192.618C264.868 192.242 264.331 191.705 263.944 191.007C263.557 190.309 263.364 189.493 263.364 188.558C263.364 187.624 263.552 186.807 263.928 186.109C264.315 185.411 264.852 184.874 265.539 184.498C266.226 184.122 267.016 183.934 267.907 183.934C268.777 183.934 269.551 184.117 270.227 184.482C270.904 184.847 271.43 185.368 271.806 186.045C272.193 186.721 272.386 187.511 272.386 188.413ZM269.567 187.688C269.567 187.216 269.406 186.84 269.084 186.56C268.761 186.281 268.359 186.141 267.875 186.141C267.413 186.141 267.021 186.276 266.699 186.544C266.388 186.813 266.194 187.194 266.119 187.688H269.567ZM284.617 191.055H280.396L279.719 193.053H276.835L280.927 181.743H284.117L288.21 193.053H285.294L284.617 191.055ZM283.908 188.929L282.506 184.788L281.121 188.929H283.908ZM292.371 185.561C292.694 185.067 293.096 184.681 293.58 184.401C294.063 184.111 294.6 183.966 295.191 183.966V186.883H294.434C293.746 186.883 293.231 187.033 292.887 187.334C292.543 187.624 292.371 188.139 292.371 188.88V193.053H289.616V184.063H292.371V185.561ZM299.424 185.561C299.746 185.067 300.149 184.681 300.632 184.401C301.115 184.111 301.652 183.966 302.243 183.966V186.883H301.486C300.799 186.883 300.283 187.033 299.939 187.334C299.596 187.624 299.424 188.139 299.424 188.88V193.053H296.669V184.063H299.424V185.561ZM305.107 183.129C304.623 183.129 304.226 182.989 303.915 182.71C303.614 182.42 303.463 182.065 303.463 181.646C303.463 181.217 303.614 180.862 303.915 180.583C304.226 180.293 304.623 180.148 305.107 180.148C305.579 180.148 305.966 180.293 306.267 180.583C306.578 180.862 306.734 181.217 306.734 181.646C306.734 182.065 306.578 182.42 306.267 182.71C305.966 182.989 305.579 183.129 305.107 183.129ZM306.476 184.063V193.053H303.721V184.063H306.476ZM312.678 190.475L314.627 184.063H317.56L314.369 193.053H310.97L307.78 184.063H310.728L312.678 190.475ZM320.266 183.129C319.782 183.129 319.385 182.989 319.074 182.71C318.773 182.42 318.622 182.065 318.622 181.646C318.622 181.217 318.773 180.862 319.074 180.583C319.385 180.293 319.782 180.148 320.266 180.148C320.738 180.148 321.125 180.293 321.426 180.583C321.737 180.862 321.893 181.217 321.893 181.646C321.893 182.065 321.737 182.42 321.426 182.71C321.125 182.989 320.738 183.129 320.266 183.129ZM321.635 184.063V193.053H318.88V184.063H321.635ZM329.271 183.966C330.323 183.966 331.161 184.31 331.784 184.998C332.418 185.674 332.735 186.609 332.735 187.801V193.053H329.996V188.172C329.996 187.57 329.84 187.103 329.529 186.77C329.217 186.437 328.798 186.27 328.272 186.27C327.746 186.27 327.327 186.437 327.015 186.77C326.704 187.103 326.548 187.57 326.548 188.172V193.053H323.793V184.063H326.548V185.255C326.827 184.858 327.203 184.546 327.676 184.321C328.148 184.085 328.68 183.966 329.271 183.966ZM338.226 183.934C338.86 183.934 339.413 184.063 339.885 184.321C340.369 184.579 340.739 184.917 340.997 185.336V184.063H343.752V193.037C343.752 193.864 343.586 194.611 343.253 195.277C342.93 195.953 342.431 196.49 341.754 196.888C341.088 197.285 340.256 197.484 339.257 197.484C337.925 197.484 336.846 197.167 336.019 196.533C335.192 195.91 334.719 195.062 334.601 193.988H337.324C337.41 194.331 337.614 194.6 337.936 194.793C338.258 194.997 338.656 195.099 339.128 195.099C339.697 195.099 340.149 194.933 340.481 194.6C340.825 194.278 340.997 193.757 340.997 193.037V191.764C340.729 192.183 340.358 192.527 339.885 192.795C339.413 193.053 338.86 193.182 338.226 193.182C337.485 193.182 336.813 192.994 336.212 192.618C335.61 192.232 335.133 191.689 334.778 190.991C334.434 190.282 334.263 189.466 334.263 188.542C334.263 187.618 334.434 186.807 334.778 186.109C335.133 185.411 335.61 184.874 336.212 184.498C336.813 184.122 337.485 183.934 338.226 183.934ZM340.997 188.558C340.997 187.871 340.804 187.328 340.417 186.931C340.041 186.534 339.579 186.335 339.031 186.335C338.484 186.335 338.016 186.534 337.63 186.931C337.254 187.318 337.066 187.855 337.066 188.542C337.066 189.229 337.254 189.777 337.63 190.185C338.016 190.583 338.484 190.782 339.031 190.782C339.579 190.782 340.041 190.583 340.417 190.185C340.804 189.788 340.997 189.246 340.997 188.558ZM288.152 202.743L285.204 214.053H281.869L280.064 206.61L278.195 214.053H274.86L271.993 202.743H274.941L276.568 210.976L278.582 202.743H281.611L283.544 210.976L285.188 202.743H288.152ZM291.08 204.129C290.597 204.129 290.2 203.989 289.888 203.71C289.588 203.42 289.437 203.065 289.437 202.646C289.437 202.217 289.588 201.862 289.888 201.583C290.2 201.293 290.597 201.148 291.08 201.148C291.553 201.148 291.94 201.293 292.24 201.583C292.552 201.862 292.708 202.217 292.708 202.646C292.708 203.065 292.552 203.42 292.24 203.71C291.94 203.989 291.553 204.129 291.08 204.129ZM292.45 205.063V214.053H289.695V205.063H292.45ZM297.363 206.561C297.685 206.067 298.088 205.681 298.571 205.401C299.054 205.111 299.591 204.966 300.182 204.966V207.883H299.425C298.737 207.883 298.222 208.033 297.878 208.334C297.534 208.624 297.363 209.139 297.363 209.88V214.053H294.608V205.063H297.363V206.561ZM310.135 209.413C310.135 209.671 310.118 209.939 310.086 210.219H303.851C303.894 210.777 304.071 211.207 304.383 211.508C304.705 211.798 305.097 211.943 305.559 211.943C306.246 211.943 306.724 211.653 306.993 211.073H309.925C309.775 211.663 309.501 212.195 309.103 212.668C308.717 213.14 308.228 213.511 307.637 213.779C307.047 214.048 306.386 214.182 305.656 214.182C304.775 214.182 303.991 213.994 303.303 213.618C302.616 213.242 302.079 212.705 301.692 212.007C301.306 211.309 301.112 210.493 301.112 209.558C301.112 208.624 301.3 207.807 301.676 207.109C302.063 206.411 302.6 205.874 303.287 205.498C303.975 205.122 304.764 204.934 305.656 204.934C306.526 204.934 307.299 205.117 307.976 205.482C308.652 205.847 309.179 206.368 309.555 207.045C309.941 207.721 310.135 208.511 310.135 209.413ZM307.315 208.688C307.315 208.216 307.154 207.84 306.832 207.56C306.51 207.281 306.107 207.141 305.623 207.141C305.162 207.141 304.77 207.276 304.447 207.544C304.136 207.813 303.942 208.194 303.867 208.688H307.315Z" fill="white"/>
<path opacity="0.2" d="M339.39 227.882C339.652 227.62 339.652 227.195 339.39 226.933L335.117 222.66C334.855 222.398 334.43 222.398 334.168 222.66C333.906 222.923 333.906 223.348 334.168 223.61L337.966 227.407L334.168 231.205C333.906 231.467 333.906 231.892 334.168 232.154C334.43 232.416 334.855 232.416 335.117 232.154L339.39 227.882ZM232.506 228.079L338.915 228.079L338.915 226.736L232.506 226.736L232.506 228.079Z" fill="white"/>
<path d="M322.659 299.236H326.268V301.362H319.904V290.052H322.659V299.236ZM329.129 291.438C328.645 291.438 328.248 291.298 327.936 291.019C327.636 290.729 327.485 290.374 327.485 289.956C327.485 289.526 327.636 289.171 327.936 288.892C328.248 288.602 328.645 288.457 329.129 288.457C329.601 288.457 329.988 288.602 330.289 288.892C330.6 289.171 330.756 289.526 330.756 289.956C330.756 290.374 330.6 290.729 330.289 291.019C329.988 291.298 329.601 291.438 329.129 291.438ZM330.498 292.372V301.362H327.743V292.372H330.498ZM338.134 292.276C339.186 292.276 340.024 292.619 340.647 293.307C341.281 293.983 341.597 294.918 341.597 296.11V301.362H338.859V296.481C338.859 295.879 338.703 295.412 338.391 295.079C338.08 294.746 337.661 294.579 337.135 294.579C336.608 294.579 336.189 294.746 335.878 295.079C335.566 295.412 335.411 295.879 335.411 296.481V301.362H332.656V292.372H335.411V293.564C335.69 293.167 336.066 292.856 336.539 292.63C337.011 292.394 337.543 292.276 338.134 292.276ZM352.148 296.722C352.148 296.98 352.131 297.249 352.099 297.528H345.864C345.907 298.086 346.084 298.516 346.396 298.817C346.718 299.107 347.11 299.252 347.572 299.252C348.259 299.252 348.737 298.962 349.006 298.382H351.938C351.788 298.972 351.514 299.504 351.116 299.977C350.73 300.449 350.241 300.82 349.65 301.088C349.06 301.357 348.399 301.491 347.669 301.491C346.788 301.491 346.004 301.303 345.316 300.927C344.629 300.551 344.092 300.014 343.705 299.316C343.319 298.618 343.125 297.802 343.125 296.867C343.125 295.933 343.313 295.116 343.689 294.418C344.076 293.72 344.613 293.183 345.3 292.807C345.988 292.431 346.777 292.243 347.669 292.243C348.539 292.243 349.312 292.426 349.989 292.791C350.665 293.156 351.192 293.677 351.568 294.354C351.954 295.031 352.148 295.82 352.148 296.722ZM349.328 295.997C349.328 295.525 349.167 295.149 348.845 294.869C348.523 294.59 348.12 294.451 347.636 294.451C347.175 294.451 346.783 294.585 346.46 294.853C346.149 295.122 345.955 295.503 345.88 295.997H349.328ZM361.43 301.491C360.549 301.491 359.754 301.303 359.045 300.927C358.347 300.551 357.794 300.014 357.386 299.316C356.988 298.618 356.79 297.802 356.79 296.867C356.79 295.944 356.994 295.133 357.402 294.434C357.81 293.726 358.369 293.183 359.077 292.807C359.786 292.431 360.581 292.243 361.462 292.243C362.343 292.243 363.138 292.431 363.846 292.807C364.555 293.183 365.114 293.726 365.522 294.434C365.93 295.133 366.134 295.944 366.134 296.867C366.134 297.791 365.925 298.607 365.506 299.316C365.098 300.014 364.534 300.551 363.814 300.927C363.105 301.303 362.31 301.491 361.43 301.491ZM361.43 299.107C361.956 299.107 362.402 298.913 362.767 298.527C363.143 298.14 363.331 297.587 363.331 296.867C363.331 296.148 363.148 295.594 362.783 295.208C362.429 294.821 361.988 294.628 361.462 294.628C360.925 294.628 360.479 294.821 360.125 295.208C359.77 295.584 359.593 296.137 359.593 296.867C359.593 297.587 359.765 298.14 360.109 298.527C360.463 298.913 360.903 299.107 361.43 299.107ZM372.268 294.66H370.786V301.362H368.031V294.66H367.032V292.372H368.031V292.114C368.031 291.008 368.348 290.17 368.981 289.601C369.615 289.021 370.544 288.731 371.769 288.731C371.973 288.731 372.123 288.736 372.22 288.747V291.083C371.693 291.051 371.323 291.126 371.108 291.309C370.893 291.491 370.786 291.819 370.786 292.292V292.372H372.268V294.66ZM316.807 317.867C316.807 316.933 316.995 316.116 317.371 315.418C317.758 314.72 318.289 314.183 318.966 313.807C319.654 313.431 320.438 313.243 321.318 313.243C322.446 313.243 323.386 313.539 324.138 314.129C324.9 314.72 325.4 315.553 325.636 316.627H322.704C322.457 315.939 321.979 315.596 321.27 315.596C320.765 315.596 320.362 315.794 320.062 316.192C319.761 316.578 319.611 317.137 319.611 317.867C319.611 318.598 319.761 319.162 320.062 319.559C320.362 319.946 320.765 320.139 321.27 320.139C321.979 320.139 322.457 319.795 322.704 319.108H325.636C325.4 320.16 324.9 320.987 324.138 321.589C323.375 322.19 322.435 322.491 321.318 322.491C320.438 322.491 319.654 322.303 318.966 321.927C318.289 321.551 317.758 321.014 317.371 320.316C316.995 319.618 316.807 318.802 316.807 317.867ZM330.026 314.871C330.348 314.376 330.751 313.99 331.234 313.711C331.718 313.421 332.255 313.276 332.846 313.276V316.192H332.088C331.401 316.192 330.885 316.342 330.542 316.643C330.198 316.933 330.026 317.448 330.026 318.189V322.362H327.271V313.372H330.026V314.871ZM342.798 317.722C342.798 317.98 342.782 318.249 342.75 318.528H336.515C336.558 319.086 336.735 319.516 337.046 319.817C337.369 320.107 337.761 320.252 338.222 320.252C338.91 320.252 339.388 319.962 339.656 319.382H342.589C342.438 319.972 342.164 320.504 341.767 320.977C341.38 321.449 340.892 321.82 340.301 322.088C339.71 322.357 339.049 322.491 338.319 322.491C337.438 322.491 336.654 322.303 335.967 321.927C335.279 321.551 334.742 321.014 334.356 320.316C333.969 319.618 333.776 318.802 333.776 317.867C333.776 316.933 333.964 316.116 334.34 315.418C334.726 314.72 335.263 314.183 335.951 313.807C336.638 313.431 337.428 313.243 338.319 313.243C339.189 313.243 339.962 313.426 340.639 313.791C341.316 314.156 341.842 314.677 342.218 315.354C342.605 316.031 342.798 316.82 342.798 317.722ZM339.979 316.997C339.979 316.525 339.817 316.149 339.495 315.869C339.173 315.59 338.77 315.451 338.287 315.451C337.825 315.451 337.433 315.585 337.111 315.853C336.799 316.122 336.606 316.503 336.531 316.997H339.979ZM343.865 317.851C343.865 316.927 344.037 316.116 344.38 315.418C344.735 314.72 345.213 314.183 345.814 313.807C346.416 313.431 347.087 313.243 347.828 313.243C348.419 313.243 348.956 313.367 349.439 313.614C349.933 313.861 350.32 314.194 350.599 314.613V310.44H353.354V322.362H350.599V321.073C350.341 321.503 349.971 321.847 349.488 322.105C349.015 322.362 348.462 322.491 347.828 322.491C347.087 322.491 346.416 322.303 345.814 321.927C345.213 321.541 344.735 320.998 344.38 320.3C344.037 319.591 343.865 318.775 343.865 317.851ZM350.599 317.867C350.599 317.18 350.406 316.637 350.019 316.24C349.643 315.843 349.181 315.644 348.634 315.644C348.086 315.644 347.619 315.843 347.232 316.24C346.856 316.627 346.668 317.164 346.668 317.851C346.668 318.539 346.856 319.086 347.232 319.494C347.619 319.892 348.086 320.091 348.634 320.091C349.181 320.091 349.643 319.892 350.019 319.494C350.406 319.097 350.599 318.555 350.599 317.867ZM356.894 312.438C356.411 312.438 356.013 312.298 355.702 312.019C355.401 311.729 355.251 311.374 355.251 310.956C355.251 310.526 355.401 310.171 355.702 309.892C356.013 309.602 356.411 309.457 356.894 309.457C357.367 309.457 357.753 309.602 358.054 309.892C358.366 310.171 358.521 310.526 358.521 310.956C358.521 311.374 358.366 311.729 358.054 312.019C357.753 312.298 357.367 312.438 356.894 312.438ZM358.264 313.372V322.362H355.509V313.372H358.264ZM365.432 320.026V322.362H364.03C363.031 322.362 362.253 322.121 361.694 321.637C361.136 321.143 360.856 320.343 360.856 319.237V315.66H359.761V313.372H360.856V311.181H363.611V313.372H365.416V315.66H363.611V319.269C363.611 319.537 363.676 319.731 363.805 319.849C363.934 319.967 364.148 320.026 364.449 320.026H365.432ZM370.785 322.491C370.001 322.491 369.303 322.357 368.69 322.088C368.078 321.82 367.595 321.455 367.24 320.993C366.886 320.52 366.687 319.994 366.644 319.414H369.367C369.399 319.725 369.544 319.978 369.802 320.171C370.06 320.365 370.377 320.461 370.753 320.461C371.096 320.461 371.359 320.397 371.542 320.268C371.735 320.128 371.832 319.951 371.832 319.736C371.832 319.478 371.698 319.29 371.429 319.172C371.161 319.043 370.726 318.904 370.124 318.753C369.48 318.603 368.943 318.447 368.513 318.286C368.084 318.114 367.713 317.851 367.401 317.497C367.09 317.132 366.934 316.643 366.934 316.031C366.934 315.515 367.074 315.048 367.353 314.629C367.643 314.199 368.062 313.861 368.61 313.614C369.168 313.367 369.829 313.243 370.592 313.243C371.719 313.243 372.605 313.523 373.25 314.081C373.905 314.64 374.281 315.381 374.378 316.304H371.832C371.789 315.993 371.649 315.746 371.413 315.563C371.188 315.381 370.887 315.289 370.511 315.289C370.189 315.289 369.942 315.354 369.77 315.483C369.598 315.601 369.512 315.767 369.512 315.982C369.512 316.24 369.646 316.433 369.915 316.562C370.194 316.691 370.624 316.82 371.204 316.949C371.87 317.121 372.412 317.293 372.831 317.464C373.25 317.626 373.615 317.894 373.927 318.27C374.249 318.635 374.415 319.129 374.426 319.752C374.426 320.279 374.276 320.751 373.975 321.17C373.685 321.578 373.261 321.9 372.702 322.137C372.154 322.373 371.515 322.491 370.785 322.491ZM310.309 338.851C310.309 337.927 310.481 337.116 310.825 336.418C311.179 335.72 311.657 335.183 312.259 334.807C312.86 334.431 313.531 334.243 314.273 334.243C314.906 334.243 315.459 334.372 315.932 334.63C316.415 334.888 316.786 335.226 317.044 335.645V334.372H319.799V343.362H317.044V342.09C316.775 342.508 316.399 342.847 315.916 343.105C315.443 343.362 314.89 343.491 314.256 343.491C313.526 343.491 312.86 343.303 312.259 342.927C311.657 342.541 311.179 341.998 310.825 341.3C310.481 340.591 310.309 339.775 310.309 338.851ZM317.044 338.867C317.044 338.18 316.85 337.637 316.464 337.24C316.088 336.843 315.626 336.644 315.078 336.644C314.53 336.644 314.063 336.843 313.676 337.24C313.301 337.627 313.113 338.164 313.113 338.851C313.113 339.539 313.301 340.086 313.676 340.494C314.063 340.892 314.53 341.091 315.078 341.091C315.626 341.091 316.088 340.892 316.464 340.494C316.85 340.097 317.044 339.555 317.044 338.867ZM327.431 334.276C328.483 334.276 329.321 334.619 329.944 335.307C330.578 335.983 330.895 336.918 330.895 338.11V343.362H328.156V338.481C328.156 337.879 328 337.412 327.689 337.079C327.377 336.746 326.958 336.579 326.432 336.579C325.906 336.579 325.487 336.746 325.175 337.079C324.864 337.412 324.708 337.879 324.708 338.481V343.362H321.953V334.372H324.708V335.564C324.987 335.167 325.363 334.856 325.836 334.63C326.308 334.394 326.84 334.276 327.431 334.276ZM332.423 338.851C332.423 337.927 332.594 337.116 332.938 336.418C333.293 335.72 333.771 335.183 334.372 334.807C334.974 334.431 335.645 334.243 336.386 334.243C336.977 334.243 337.514 334.367 337.997 334.614C338.491 334.861 338.878 335.194 339.157 335.613V331.44H341.912V343.362H339.157V342.073C338.899 342.503 338.529 342.847 338.045 343.105C337.573 343.362 337.02 343.491 336.386 343.491C335.645 343.491 334.974 343.303 334.372 342.927C333.771 342.541 333.293 341.998 332.938 341.3C332.594 340.591 332.423 339.775 332.423 338.851ZM339.157 338.867C339.157 338.18 338.964 337.637 338.577 337.24C338.201 336.843 337.739 336.644 337.192 336.644C336.644 336.644 336.177 336.843 335.79 337.24C335.414 337.627 335.226 338.164 335.226 338.851C335.226 339.539 335.414 340.086 335.79 340.494C336.177 340.892 336.644 341.091 337.192 341.091C337.739 341.091 338.201 340.892 338.577 340.494C338.964 340.097 339.157 339.555 339.157 338.867ZM352.153 336.66H350.671V343.362H347.916V336.66H346.917V334.372H347.916V334.114C347.916 333.008 348.232 332.17 348.866 331.601C349.5 331.021 350.429 330.731 351.653 330.731C351.858 330.731 352.008 330.736 352.105 330.747V333.083C351.578 333.051 351.208 333.126 350.993 333.309C350.778 333.491 350.671 333.819 350.671 334.292V334.372H352.153V336.66ZM362.083 338.722C362.083 338.98 362.067 339.249 362.035 339.528H355.8C355.843 340.086 356.02 340.516 356.331 340.817C356.654 341.107 357.046 341.252 357.507 341.252C358.195 341.252 358.673 340.962 358.941 340.382H361.874C361.723 340.972 361.449 341.504 361.052 341.977C360.665 342.449 360.177 342.82 359.586 343.088C358.995 343.357 358.335 343.491 357.604 343.491C356.723 343.491 355.939 343.303 355.252 342.927C354.565 342.551 354.027 342.014 353.641 341.316C353.254 340.618 353.061 339.802 353.061 338.867C353.061 337.933 353.249 337.116 353.625 336.418C354.011 335.72 354.548 335.183 355.236 334.807C355.923 334.431 356.713 334.243 357.604 334.243C358.474 334.243 359.248 334.426 359.924 334.791C360.601 335.156 361.127 335.677 361.503 336.354C361.89 337.031 362.083 337.82 362.083 338.722ZM359.264 337.997C359.264 337.525 359.103 337.149 358.78 336.869C358.458 336.59 358.055 336.451 357.572 336.451C357.11 336.451 356.718 336.585 356.396 336.853C356.084 337.122 355.891 337.503 355.816 337.997H359.264ZM372.172 338.722C372.172 338.98 372.156 339.249 372.124 339.528H365.889C365.932 340.086 366.109 340.516 366.42 340.817C366.743 341.107 367.135 341.252 367.597 341.252C368.284 341.252 368.762 340.962 369.03 340.382H371.963C371.812 340.972 371.538 341.504 371.141 341.977C370.754 342.449 370.266 342.82 369.675 343.088C369.084 343.357 368.424 343.491 367.693 343.491C366.812 343.491 366.028 343.303 365.341 342.927C364.654 342.551 364.117 342.014 363.73 341.316C363.343 340.618 363.15 339.802 363.15 338.867C363.15 337.933 363.338 337.116 363.714 336.418C364.1 335.72 364.637 335.183 365.325 334.807C366.012 334.431 366.802 334.243 367.693 334.243C368.563 334.243 369.337 334.426 370.013 334.791C370.69 335.156 371.216 335.677 371.592 336.354C371.979 337.031 372.172 337.82 372.172 338.722ZM369.353 337.997C369.353 337.525 369.192 337.149 368.869 336.869C368.547 336.59 368.144 336.451 367.661 336.451C367.199 336.451 366.807 336.585 366.485 336.853C366.173 337.122 365.98 337.503 365.905 337.997H369.353ZM377.444 343.491C376.66 343.491 375.962 343.357 375.349 343.088C374.737 342.82 374.254 342.455 373.899 341.993C373.545 341.52 373.346 340.994 373.303 340.414H376.026C376.058 340.725 376.203 340.978 376.461 341.171C376.719 341.365 377.036 341.461 377.412 341.461C377.755 341.461 378.019 341.397 378.201 341.268C378.395 341.128 378.491 340.951 378.491 340.736C378.491 340.478 378.357 340.29 378.088 340.172C377.82 340.043 377.385 339.904 376.783 339.753C376.139 339.603 375.602 339.447 375.172 339.286C374.743 339.114 374.372 338.851 374.061 338.497C373.749 338.132 373.593 337.643 373.593 337.031C373.593 336.515 373.733 336.048 374.012 335.629C374.302 335.199 374.721 334.861 375.269 334.614C375.827 334.367 376.488 334.243 377.251 334.243C378.378 334.243 379.265 334.523 379.909 335.081C380.564 335.64 380.94 336.381 381.037 337.304H378.491C378.448 336.993 378.309 336.746 378.072 336.563C377.847 336.381 377.546 336.289 377.17 336.289C376.848 336.289 376.601 336.354 376.429 336.483C376.257 336.601 376.171 336.767 376.171 336.982C376.171 337.24 376.305 337.433 376.574 337.562C376.853 337.691 377.283 337.82 377.863 337.949C378.529 338.121 379.071 338.293 379.49 338.464C379.909 338.626 380.274 338.894 380.586 339.27C380.908 339.635 381.074 340.129 381.085 340.752C381.085 341.279 380.935 341.751 380.634 342.17C380.344 342.578 379.92 342.9 379.361 343.137C378.813 343.373 378.174 343.491 377.444 343.491Z" fill="white"/>
<path opacity="0.2" d="M409.509 342.842C409.771 343.104 410.196 343.104 410.459 342.842L414.731 338.57C414.993 338.308 414.993 337.883 414.731 337.62C414.469 337.358 414.044 337.358 413.781 337.62L409.984 341.418L406.186 337.62C405.924 337.358 405.499 337.358 405.237 337.62C404.975 337.883 404.975 338.308 405.237 338.57L409.509 342.842ZM410.459 284.709C410.196 284.447 409.771 284.447 409.509 284.709L405.237 288.981C404.975 289.243 404.975 289.668 405.237 289.93C405.499 290.193 405.924 290.193 406.186 289.93L409.984 286.133L413.781 289.93C414.044 290.193 414.469 290.193 414.731 289.93C414.993 289.668 414.993 289.243 414.731 288.981L410.459 284.709ZM410.655 342.367V285.184H409.313V342.367H410.655Z" fill="white"/>
<path opacity="0.2" d="M470.898 456.337C470.531 456.393 470.28 456.736 470.337 457.102L471.255 463.074C471.312 463.44 471.654 463.691 472.021 463.635C472.387 463.579 472.639 463.236 472.582 462.869L471.766 457.561L477.074 456.745C477.44 456.688 477.691 456.346 477.635 455.979C477.579 455.613 477.236 455.361 476.869 455.418L470.898 456.337ZM516.102 490.663C516.469 490.607 516.72 490.264 516.663 489.898L515.745 483.926C515.688 483.56 515.346 483.309 514.979 483.365C514.613 483.421 514.361 483.764 514.418 484.131L515.234 489.439L509.926 490.255C509.56 490.312 509.309 490.654 509.365 491.021C509.421 491.387 509.764 491.639 510.131 491.582L516.102 490.663ZM470.603 457.541L515.603 490.541L516.397 489.459L471.397 456.459L470.603 457.541Z" fill="white"/>
<circle cx="883.502" cy="692.502" r="28.5024" fill="#B71C22"/>
<line x1="873.737" y1="681.102" x2="893.359" y2="700.724" stroke="white" stroke-width="5" stroke-linecap="round" stroke-linejoin="round"/>
<line x1="2.5" y1="-2.5" x2="30.2507" y2="-2.5" transform="matrix(-0.707107 0.707107 0.707107 0.707107 896.091 681.102)" stroke="white" stroke-width="5" stroke-linecap="round" stroke-linejoin="round"/>
<path d="M539.859 408.113C539.032 408.113 538.291 407.979 537.636 407.71C536.98 407.441 536.454 407.044 536.057 406.518C535.67 405.991 535.466 405.358 535.444 404.617H538.377C538.42 405.036 538.565 405.358 538.812 405.583C539.059 405.798 539.381 405.906 539.778 405.906C540.187 405.906 540.509 405.814 540.745 405.632C540.981 405.438 541.1 405.175 541.1 404.842C541.1 404.563 541.003 404.332 540.81 404.149C540.627 403.967 540.396 403.816 540.117 403.698C539.848 403.58 539.462 403.446 538.957 403.296C538.226 403.07 537.63 402.844 537.168 402.619C536.707 402.393 536.309 402.06 535.976 401.62C535.643 401.18 535.477 400.605 535.477 399.896C535.477 398.843 535.858 398.022 536.621 397.431C537.383 396.83 538.377 396.529 539.601 396.529C540.847 396.529 541.851 396.83 542.614 397.431C543.377 398.022 543.785 398.849 543.838 399.912H540.858C540.836 399.547 540.702 399.262 540.455 399.058C540.208 398.843 539.891 398.736 539.505 398.736C539.172 398.736 538.903 398.827 538.699 399.01C538.495 399.182 538.393 399.434 538.393 399.767C538.393 400.132 538.565 400.417 538.908 400.621C539.252 400.825 539.789 401.045 540.52 401.282C541.25 401.529 541.841 401.765 542.292 401.99C542.754 402.216 543.151 402.544 543.484 402.973C543.817 403.403 543.983 403.956 543.983 404.633C543.983 405.277 543.817 405.863 543.484 406.389C543.162 406.915 542.689 407.334 542.066 407.646C541.443 407.957 540.708 408.113 539.859 408.113ZM558.745 399.01L556.312 408H553.267L551.85 402.168L550.383 408H547.355L544.906 399.01H547.661L548.933 405.438L550.448 399.01H553.364L554.895 405.406L556.151 399.01H558.745ZM568.431 403.36C568.431 403.618 568.415 403.886 568.383 404.166H562.148C562.191 404.724 562.368 405.154 562.68 405.454C563.002 405.744 563.394 405.889 563.856 405.889C564.543 405.889 565.021 405.599 565.29 405.019H568.222C568.072 405.61 567.798 406.142 567.4 406.614C567.014 407.087 566.525 407.458 565.934 407.726C565.343 407.995 564.683 408.129 563.953 408.129C563.072 408.129 562.288 407.941 561.6 407.565C560.913 407.189 560.376 406.652 559.989 405.954C559.602 405.256 559.409 404.439 559.409 403.505C559.409 402.57 559.597 401.754 559.973 401.056C560.36 400.358 560.897 399.821 561.584 399.445C562.272 399.069 563.061 398.881 563.953 398.881C564.823 398.881 565.596 399.064 566.273 399.429C566.949 399.794 567.476 400.315 567.851 400.992C568.238 401.668 568.431 402.458 568.431 403.36ZM565.612 402.635C565.612 402.162 565.451 401.786 565.129 401.507C564.806 401.228 564.404 401.088 563.92 401.088C563.458 401.088 563.066 401.223 562.744 401.491C562.433 401.76 562.239 402.141 562.164 402.635H565.612ZM578.521 403.36C578.521 403.618 578.504 403.886 578.472 404.166H572.237C572.28 404.724 572.457 405.154 572.769 405.454C573.091 405.744 573.483 405.889 573.945 405.889C574.632 405.889 575.11 405.599 575.379 405.019H578.311C578.161 405.61 577.887 406.142 577.489 406.614C577.103 407.087 576.614 407.458 576.023 407.726C575.433 407.995 574.772 408.129 574.042 408.129C573.161 408.129 572.377 407.941 571.689 407.565C571.002 407.189 570.465 406.652 570.078 405.954C569.692 405.256 569.498 404.439 569.498 403.505C569.498 402.57 569.686 401.754 570.062 401.056C570.449 400.358 570.986 399.821 571.673 399.445C572.361 399.069 573.15 398.881 574.042 398.881C574.912 398.881 575.685 399.064 576.362 399.429C577.038 399.794 577.565 400.315 577.941 400.992C578.327 401.668 578.521 402.458 578.521 403.36ZM575.701 402.635C575.701 402.162 575.54 401.786 575.218 401.507C574.895 401.228 574.493 401.088 574.009 401.088C573.548 401.088 573.155 401.223 572.833 401.491C572.522 401.76 572.328 402.141 572.253 402.635H575.701ZM582.89 400.283C583.159 399.864 583.529 399.525 584.002 399.268C584.474 399.01 585.028 398.881 585.661 398.881C586.402 398.881 587.074 399.069 587.675 399.445C588.277 399.821 588.749 400.358 589.093 401.056C589.447 401.754 589.625 402.565 589.625 403.489C589.625 404.413 589.447 405.229 589.093 405.938C588.749 406.636 588.277 407.178 587.675 407.565C587.074 407.941 586.402 408.129 585.661 408.129C585.038 408.129 584.485 408 584.002 407.742C583.529 407.484 583.159 407.151 582.89 406.743V412.286H580.135V399.01H582.89V400.283ZM586.821 403.489C586.821 402.801 586.628 402.264 586.241 401.878C585.865 401.48 585.398 401.282 584.84 401.282C584.292 401.282 583.825 401.48 583.438 401.878C583.062 402.275 582.874 402.818 582.874 403.505C582.874 404.192 583.062 404.735 583.438 405.132C583.825 405.53 584.292 405.728 584.84 405.728C585.387 405.728 585.855 405.53 586.241 405.132C586.628 404.724 586.821 404.176 586.821 403.489ZM501.919 423.489C501.919 422.565 502.091 421.754 502.435 421.056C502.789 420.358 503.267 419.821 503.869 419.445C504.47 419.069 505.141 418.881 505.883 418.881C506.516 418.881 507.069 419.01 507.542 419.268C508.025 419.525 508.396 419.864 508.654 420.283V419.01H511.409V428H508.654V426.727C508.385 427.146 508.009 427.484 507.526 427.742C507.053 428 506.5 428.129 505.866 428.129C505.136 428.129 504.47 427.941 503.869 427.565C503.267 427.178 502.789 426.636 502.435 425.938C502.091 425.229 501.919 424.413 501.919 423.489ZM508.654 423.505C508.654 422.818 508.46 422.275 508.074 421.878C507.698 421.48 507.236 421.282 506.688 421.282C506.14 421.282 505.673 421.48 505.286 421.878C504.911 422.264 504.723 422.801 504.723 423.489C504.723 424.176 504.911 424.724 505.286 425.132C505.673 425.53 506.14 425.728 506.688 425.728C507.236 425.728 507.698 425.53 508.074 425.132C508.46 424.735 508.654 424.192 508.654 423.505ZM513.015 423.505C513.015 422.57 513.203 421.754 513.579 421.056C513.966 420.358 514.497 419.821 515.174 419.445C515.862 419.069 516.646 418.881 517.526 418.881C518.654 418.881 519.594 419.176 520.346 419.767C521.108 420.358 521.608 421.19 521.844 422.264H518.912C518.665 421.577 518.187 421.233 517.478 421.233C516.973 421.233 516.57 421.432 516.27 421.829C515.969 422.216 515.819 422.775 515.819 423.505C515.819 424.235 515.969 424.799 516.27 425.197C516.57 425.583 516.973 425.777 517.478 425.777C518.187 425.777 518.665 425.433 518.912 424.746H521.844C521.608 425.798 521.108 426.625 520.346 427.227C519.583 427.828 518.643 428.129 517.526 428.129C516.646 428.129 515.862 427.941 515.174 427.565C514.497 427.189 513.966 426.652 513.579 425.954C513.203 425.256 513.015 424.439 513.015 423.505ZM522.931 423.505C522.931 422.57 523.119 421.754 523.495 421.056C523.882 420.358 524.413 419.821 525.09 419.445C525.778 419.069 526.562 418.881 527.442 418.881C528.57 418.881 529.51 419.176 530.262 419.767C531.024 420.358 531.524 421.19 531.76 422.264H528.828C528.581 421.577 528.103 421.233 527.394 421.233C526.889 421.233 526.486 421.432 526.186 421.829C525.885 422.216 525.735 422.775 525.735 423.505C525.735 424.235 525.885 424.799 526.186 425.197C526.486 425.583 526.889 425.777 527.394 425.777C528.103 425.777 528.581 425.433 528.828 424.746H531.76C531.524 425.798 531.024 426.625 530.262 427.227C529.499 427.828 528.559 428.129 527.442 428.129C526.562 428.129 525.778 427.941 525.09 427.565C524.413 427.189 523.882 426.652 523.495 425.954C523.119 425.256 522.931 424.439 522.931 423.505ZM537.487 428.129C536.607 428.129 535.812 427.941 535.103 427.565C534.405 427.189 533.852 426.652 533.443 425.954C533.046 425.256 532.847 424.439 532.847 423.505C532.847 422.581 533.051 421.77 533.459 421.072C533.868 420.363 534.426 419.821 535.135 419.445C535.844 419.069 536.639 418.881 537.52 418.881C538.4 418.881 539.195 419.069 539.904 419.445C540.613 419.821 541.171 420.363 541.58 421.072C541.988 421.77 542.192 422.581 542.192 423.505C542.192 424.429 541.982 425.245 541.563 425.954C541.155 426.652 540.591 427.189 539.872 427.565C539.163 427.941 538.368 428.129 537.487 428.129ZM537.487 425.744C538.014 425.744 538.459 425.551 538.825 425.164C539.2 424.778 539.388 424.225 539.388 423.505C539.388 422.785 539.206 422.232 538.841 421.845C538.486 421.459 538.046 421.265 537.52 421.265C536.982 421.265 536.537 421.459 536.182 421.845C535.828 422.221 535.651 422.775 535.651 423.505C535.651 424.225 535.822 424.778 536.166 425.164C536.521 425.551 536.961 425.744 537.487 425.744ZM552.692 419.01V428H549.937V426.776C549.658 427.173 549.276 427.495 548.793 427.742C548.32 427.979 547.794 428.097 547.214 428.097C546.527 428.097 545.92 427.946 545.393 427.646C544.867 427.334 544.459 426.888 544.169 426.308C543.879 425.728 543.734 425.046 543.734 424.262V419.01H546.473V423.892C546.473 424.493 546.629 424.96 546.94 425.293C547.252 425.626 547.67 425.793 548.197 425.793C548.734 425.793 549.158 425.626 549.47 425.293C549.781 424.96 549.937 424.493 549.937 423.892V419.01H552.692ZM560.31 418.913C561.362 418.913 562.2 419.257 562.823 419.944C563.457 420.621 563.774 421.555 563.774 422.748V428H561.035V423.118C561.035 422.517 560.879 422.05 560.567 421.717C560.256 421.384 559.837 421.217 559.311 421.217C558.784 421.217 558.366 421.384 558.054 421.717C557.743 422.05 557.587 422.517 557.587 423.118V428H554.832V419.01H557.587V420.202C557.866 419.805 558.242 419.493 558.715 419.268C559.187 419.031 559.719 418.913 560.31 418.913ZM570.86 425.664V428H569.458C568.459 428 567.681 427.758 567.122 427.275C566.563 426.781 566.284 425.981 566.284 424.874V421.298H565.189V419.01H566.284V416.819H569.039V419.01H570.844V421.298H569.039V424.907C569.039 425.175 569.104 425.368 569.233 425.487C569.361 425.605 569.576 425.664 569.877 425.664H570.86ZM576.213 428.129C575.429 428.129 574.731 427.995 574.118 427.726C573.506 427.458 573.023 427.092 572.668 426.631C572.314 426.158 572.115 425.632 572.072 425.052H574.795C574.827 425.363 574.972 425.616 575.23 425.809C575.488 426.002 575.805 426.099 576.181 426.099C576.524 426.099 576.787 426.034 576.97 425.906C577.163 425.766 577.26 425.589 577.26 425.374C577.26 425.116 577.126 424.928 576.857 424.81C576.589 424.681 576.154 424.541 575.552 424.391C574.908 424.241 574.371 424.085 573.941 423.924C573.511 423.752 573.141 423.489 572.829 423.134C572.518 422.769 572.362 422.28 572.362 421.668C572.362 421.153 572.502 420.685 572.781 420.267C573.071 419.837 573.49 419.499 574.038 419.252C574.596 419.005 575.257 418.881 576.019 418.881C577.147 418.881 578.033 419.16 578.678 419.719C579.333 420.277 579.709 421.018 579.806 421.942H577.26C577.217 421.631 577.077 421.384 576.841 421.201C576.616 421.018 576.315 420.927 575.939 420.927C575.617 420.927 575.37 420.992 575.198 421.12C575.026 421.239 574.94 421.405 574.94 421.62C574.94 421.878 575.074 422.071 575.343 422.2C575.622 422.329 576.052 422.458 576.632 422.587C577.298 422.758 577.84 422.93 578.259 423.102C578.678 423.263 579.043 423.532 579.354 423.908C579.677 424.273 579.843 424.767 579.854 425.39C579.854 425.916 579.704 426.389 579.403 426.808C579.113 427.216 578.689 427.538 578.13 427.774C577.582 428.011 576.943 428.129 576.213 428.129ZM593.75 423.36C593.75 423.618 593.734 423.886 593.702 424.166H587.467C587.51 424.724 587.687 425.154 587.999 425.454C588.321 425.744 588.713 425.889 589.175 425.889C589.862 425.889 590.34 425.599 590.609 425.019H593.541C593.391 425.61 593.117 426.142 592.719 426.614C592.333 427.087 591.844 427.458 591.253 427.726C590.662 427.995 590.002 428.129 589.271 428.129C588.391 428.129 587.607 427.941 586.919 427.565C586.232 427.189 585.695 426.652 585.308 425.954C584.921 425.256 584.728 424.439 584.728 423.505C584.728 422.57 584.916 421.754 585.292 421.056C585.679 420.358 586.216 419.821 586.903 419.445C587.591 419.069 588.38 418.881 589.271 418.881C590.142 418.881 590.915 419.064 591.592 419.429C592.268 419.794 592.794 420.315 593.17 420.992C593.557 421.668 593.75 422.458 593.75 423.36ZM590.931 422.635C590.931 422.162 590.77 421.786 590.448 421.507C590.125 421.228 589.723 421.088 589.239 421.088C588.777 421.088 588.385 421.223 588.063 421.491C587.752 421.76 587.558 422.141 587.483 422.635H590.931ZM594.817 423.489C594.817 422.565 594.989 421.754 595.333 421.056C595.687 420.358 596.165 419.821 596.767 419.445C597.368 419.069 598.039 418.881 598.781 418.881C599.414 418.881 599.967 419.01 600.44 419.268C600.923 419.525 601.294 419.864 601.552 420.283V419.01H604.307V428H601.552V426.727C601.283 427.146 600.907 427.484 600.424 427.742C599.951 428 599.398 428.129 598.764 428.129C598.034 428.129 597.368 427.941 596.767 427.565C596.165 427.178 595.687 426.636 595.333 425.938C594.989 425.229 594.817 424.413 594.817 423.489ZM601.552 423.505C601.552 422.818 601.358 422.275 600.972 421.878C600.596 421.48 600.134 421.282 599.586 421.282C599.038 421.282 598.571 421.48 598.184 421.878C597.809 422.264 597.621 422.801 597.621 423.489C597.621 424.176 597.809 424.724 598.184 425.132C598.571 425.53 599.038 425.728 599.586 425.728C600.134 425.728 600.596 425.53 600.972 425.132C601.358 424.735 601.552 424.192 601.552 423.505ZM609.216 420.508C609.538 420.014 609.941 419.628 610.424 419.348C610.908 419.058 611.445 418.913 612.035 418.913V421.829H611.278C610.591 421.829 610.075 421.98 609.732 422.28C609.388 422.57 609.216 423.086 609.216 423.827V428H606.461V419.01H609.216V420.508ZM618.991 418.913C620.044 418.913 620.882 419.257 621.505 419.944C622.138 420.621 622.455 421.555 622.455 422.748V428H619.716V423.118C619.716 422.517 619.561 422.05 619.249 421.717C618.938 421.384 618.519 421.217 617.992 421.217C617.466 421.217 617.047 421.384 616.736 421.717C616.424 422.05 616.268 422.517 616.268 423.118V428H613.513V419.01H616.268V420.202C616.548 419.805 616.924 419.493 617.396 419.268C617.869 419.031 618.401 418.913 618.991 418.913ZM529.785 438.913C530.837 438.913 531.675 439.257 532.298 439.944C532.932 440.621 533.249 441.555 533.249 442.748V448H530.51V443.118C530.51 442.517 530.354 442.05 530.043 441.717C529.731 441.384 529.312 441.217 528.786 441.217C528.26 441.217 527.841 441.384 527.529 441.717C527.218 442.05 527.062 442.517 527.062 443.118V448H524.307V439.01H527.062V440.202C527.341 439.805 527.717 439.493 528.19 439.268C528.662 439.031 529.194 438.913 529.785 438.913ZM543.799 443.36C543.799 443.618 543.783 443.886 543.75 444.166H537.515C537.558 444.724 537.736 445.154 538.047 445.454C538.369 445.744 538.761 445.889 539.223 445.889C539.911 445.889 540.389 445.599 540.657 445.019H543.589C543.439 445.61 543.165 446.142 542.768 446.614C542.381 447.087 541.892 447.458 541.302 447.726C540.711 447.995 540.05 448.129 539.32 448.129C538.439 448.129 537.655 447.941 536.968 447.565C536.28 447.189 535.743 446.652 535.357 445.954C534.97 445.256 534.777 444.439 534.777 443.505C534.777 442.57 534.964 441.754 535.34 441.056C535.727 440.358 536.264 439.821 536.952 439.445C537.639 439.069 538.428 438.881 539.32 438.881C540.19 438.881 540.963 439.064 541.64 439.429C542.317 439.794 542.843 440.315 543.219 440.992C543.605 441.668 543.799 442.458 543.799 443.36ZM540.979 442.635C540.979 442.162 540.818 441.786 540.496 441.507C540.174 441.228 539.771 441.088 539.288 441.088C538.826 441.088 538.434 441.223 538.112 441.491C537.8 441.76 537.607 442.141 537.532 442.635H540.979ZM544.866 443.489C544.866 442.565 545.037 441.754 545.381 441.056C545.736 440.358 546.214 439.821 546.815 439.445C547.417 439.069 548.088 438.881 548.829 438.881C549.463 438.881 550.016 439.01 550.488 439.268C550.972 439.525 551.342 439.864 551.6 440.283V439.01H554.355V448H551.6V446.727C551.332 447.146 550.956 447.484 550.472 447.742C550 448 549.447 448.129 548.813 448.129C548.082 448.129 547.417 447.941 546.815 447.565C546.214 447.178 545.736 446.636 545.381 445.938C545.037 445.229 544.866 444.413 544.866 443.489ZM551.6 443.505C551.6 442.818 551.407 442.275 551.02 441.878C550.644 441.48 550.182 441.282 549.635 441.282C549.087 441.282 548.619 441.48 548.233 441.878C547.857 442.264 547.669 442.801 547.669 443.489C547.669 444.176 547.857 444.724 548.233 445.132C548.619 445.53 549.087 445.728 549.635 445.728C550.182 445.728 550.644 445.53 551.02 445.132C551.407 444.735 551.6 444.192 551.6 443.505ZM559.264 440.508C559.587 440.014 559.989 439.628 560.473 439.348C560.956 439.058 561.493 438.913 562.084 438.913V441.829H561.327C560.639 441.829 560.124 441.98 559.78 442.28C559.436 442.57 559.264 443.086 559.264 443.827V448H556.509V439.01H559.264V440.508ZM569.715 445.728H573.614V448H566.638V445.809L570.376 441.282H566.67V439.01H573.533V441.201L569.715 445.728ZM583.766 443.36C583.766 443.618 583.749 443.886 583.717 444.166H577.482C577.525 444.724 577.702 445.154 578.014 445.454C578.336 445.744 578.728 445.889 579.19 445.889C579.877 445.889 580.355 445.599 580.624 445.019H583.556C583.406 445.61 583.132 446.142 582.734 446.614C582.348 447.087 581.859 447.458 581.268 447.726C580.678 447.995 580.017 448.129 579.287 448.129C578.406 448.129 577.622 447.941 576.934 447.565C576.247 447.189 575.71 446.652 575.323 445.954C574.937 445.256 574.743 444.439 574.743 443.505C574.743 442.57 574.931 441.754 575.307 441.056C575.694 440.358 576.231 439.821 576.918 439.445C577.606 439.069 578.395 438.881 579.287 438.881C580.157 438.881 580.93 439.064 581.607 439.429C582.283 439.794 582.81 440.315 583.186 440.992C583.572 441.668 583.766 442.458 583.766 443.36ZM580.946 442.635C580.946 442.162 580.785 441.786 580.463 441.507C580.14 441.228 579.738 441.088 579.254 441.088C578.792 441.088 578.4 441.223 578.078 441.491C577.767 441.76 577.573 442.141 577.498 442.635H580.946ZM588.135 440.508C588.457 440.014 588.86 439.628 589.343 439.348C589.827 439.058 590.364 438.913 590.955 438.913V441.829H590.197C589.51 441.829 588.994 441.98 588.651 442.28C588.307 442.57 588.135 443.086 588.135 443.827V448H585.38V439.01H588.135V440.508ZM596.525 448.129C595.644 448.129 594.849 447.941 594.14 447.565C593.442 447.189 592.889 446.652 592.481 445.954C592.083 445.256 591.885 444.439 591.885 443.505C591.885 442.581 592.089 441.77 592.497 441.072C592.905 440.363 593.464 439.821 594.173 439.445C594.881 439.069 595.676 438.881 596.557 438.881C597.438 438.881 598.233 439.069 598.941 439.445C599.65 439.821 600.209 440.363 600.617 441.072C601.025 441.77 601.229 442.581 601.229 443.505C601.229 444.429 601.02 445.245 600.601 445.954C600.193 446.652 599.629 447.189 598.909 447.565C598.2 447.941 597.406 448.129 596.525 448.129ZM596.525 445.744C597.051 445.744 597.497 445.551 597.862 445.164C598.238 444.778 598.426 444.225 598.426 443.505C598.426 442.785 598.243 442.232 597.878 441.845C597.524 441.459 597.083 441.265 596.557 441.265C596.02 441.265 595.574 441.459 595.22 441.845C594.865 442.221 594.688 442.775 594.688 443.505C594.688 444.225 594.86 444.778 595.204 445.164C595.558 445.551 595.998 445.744 596.525 445.744Z" fill="white"/>
<defs>
<filter id="filter0_f" x="0.203125" y="0.805176" width="818.035" height="818.035" filterUnits="userSpaceOnUse" color-interpolation-filters="sRGB">
<feFlood flood-opacity="0" result="BackgroundImageFix"/>
<feBlend mode="normal" in="SourceGraphic" in2="BackgroundImageFix" result="shape"/>
<feGaussianBlur stdDeviation="100" result="effect1_foregroundBlur"/>
</filter>
<filter id="filter1_ddd" x="488.441" y="457.833" width="168.686" height="176.488" filterUnits="userSpaceOnUse" color-interpolation-filters="sRGB">
<feFlood flood-opacity="0" result="BackgroundImageFix"/>
<feColorMatrix in="SourceAlpha" type="matrix" values="0 0 0 0 0 0 0 0 0 0 0 0 0 0 0 0 0 0 127 0"/>
<feMorphology radius="7.16057" operator="dilate" in="SourceAlpha" result="effect1_dropShadow"/>
<feOffset dy="20.5866"/>
<feGaussianBlur stdDeviation="13.4261"/>
<feColorMatrix type="matrix" values="0 0 0 0 0 0 0 0 0 0.0876457 0 0 0 0 0.391667 0 0 0 0.05 0"/>
<feBlend mode="normal" in2="BackgroundImageFix" result="effect1_dropShadow"/>
<feColorMatrix in="SourceAlpha" type="matrix" values="0 0 0 0 0 0 0 0 0 0 0 0 0 0 0 0 0 0 127 0"/>
<feOffset dy="42.0684"/>
<feGaussianBlur stdDeviation="2.68521"/>
<feColorMatrix type="matrix" values="0 0 0 0 0.121569 0 0 0 0 0.247059 0 0 0 0 0.682353 0 0 0 0.02 0"/>
<feBlend mode="normal" in2="effect1_dropShadow" result="effect2_dropShadow"/>
<feColorMatrix in="SourceAlpha" type="matrix" values="0 0 0 0 0 0 0 0 0 0 0 0 0 0 0 0 0 0 127 0"/>
<feOffset dy="51.0191"/>
<feGaussianBlur stdDeviation="8.95072"/>
<feColorMatrix type="matrix" values="0 0 0 0 0.121569 0 0 0 0 0.247059 0 0 0 0 0.682353 0 0 0 0.02 0"/>
<feBlend mode="normal" in2="effect2_dropShadow" result="effect3_dropShadow"/>
<feBlend mode="normal" in="SourceGraphic" in2="effect3_dropShadow" result="shape"/>
</filter>
<filter id="filter2_ddd" x="168.36" y="457.833" width="168.686" height="176.488" filterUnits="userSpaceOnUse" color-interpolation-filters="sRGB">
<feFlood flood-opacity="0" result="BackgroundImageFix"/>
<feColorMatrix in="SourceAlpha" type="matrix" values="0 0 0 0 0 0 0 0 0 0 0 0 0 0 0 0 0 0 127 0"/>
<feMorphology radius="7.16057" operator="dilate" in="SourceAlpha" result="effect1_dropShadow"/>
<feOffset dy="20.5866"/>
<feGaussianBlur stdDeviation="13.4261"/>
<feColorMatrix type="matrix" values="0 0 0 0 0 0 0 0 0 0.0876457 0 0 0 0 0.391667 0 0 0 0.05 0"/>
<feBlend mode="normal" in2="BackgroundImageFix" result="effect1_dropShadow"/>
<feColorMatrix in="SourceAlpha" type="matrix" values="0 0 0 0 0 0 0 0 0 0 0 0 0 0 0 0 0 0 127 0"/>
<feOffset dy="42.0684"/>
<feGaussianBlur stdDeviation="2.68521"/>
<feColorMatrix type="matrix" values="0 0 0 0 0.121569 0 0 0 0 0.247059 0 0 0 0 0.682353 0 0 0 0.02 0"/>
<feBlend mode="normal" in2="effect1_dropShadow" result="effect2_dropShadow"/>
<feColorMatrix in="SourceAlpha" type="matrix" values="0 0 0 0 0 0 0 0 0 0 0 0 0 0 0 0 0 0 127 0"/>
<feOffset dy="51.0191"/>
<feGaussianBlur stdDeviation="8.95072"/>
<feColorMatrix type="matrix" values="0 0 0 0 0.121569 0 0 0 0 0.247059 0 0 0 0 0.682353 0 0 0 0.02 0"/>
<feBlend mode="normal" in2="effect2_dropShadow" result="effect3_dropShadow"/>
<feBlend mode="normal" in="SourceGraphic" in2="effect3_dropShadow" result="shape"/>
</filter>
<filter id="filter3_ddd" x="497.942" y="258.316" width="168.686" height="176.488" filterUnits="userSpaceOnUse" color-interpolation-filters="sRGB">
<feFlood flood-opacity="0" result="BackgroundImageFix"/>
<feColorMatrix in="SourceAlpha" type="matrix" values="0 0 0 0 0 0 0 0 0 0 0 0 0 0 0 0 0 0 127 0"/>
<feMorphology radius="7.16057" operator="dilate" in="SourceAlpha" result="effect1_dropShadow"/>
<feOffset dy="20.5866"/>
<feGaussianBlur stdDeviation="13.4261"/>
<feColorMatrix type="matrix" values="0 0 0 0 0 0 0 0 0 0.0876457 0 0 0 0 0.391667 0 0 0 0.05 0"/>
<feBlend mode="normal" in2="BackgroundImageFix" result="effect1_dropShadow"/>
<feColorMatrix in="SourceAlpha" type="matrix" values="0 0 0 0 0 0 0 0 0 0 0 0 0 0 0 0 0 0 127 0"/>
<feOffset dy="42.0684"/>
<feGaussianBlur stdDeviation="2.68521"/>
<feColorMatrix type="matrix" values="0 0 0 0 0.121569 0 0 0 0 0.247059 0 0 0 0 0.682353 0 0 0 0.02 0"/>
<feBlend mode="normal" in2="effect1_dropShadow" result="effect2_dropShadow"/>
<feColorMatrix in="SourceAlpha" type="matrix" values="0 0 0 0 0 0 0 0 0 0 0 0 0 0 0 0 0 0 127 0"/>
<feOffset dy="51.0191"/>
<feGaussianBlur stdDeviation="8.95072"/>
<feColorMatrix type="matrix" values="0 0 0 0 0.121569 0 0 0 0 0.247059 0 0 0 0 0.682353 0 0 0 0.02 0"/>
<feBlend mode="normal" in2="effect2_dropShadow" result="effect3_dropShadow"/>
<feBlend mode="normal" in="SourceGraphic" in2="effect3_dropShadow" result="shape"/>
</filter>
<filter id="filter4_ddd" x="156.01" y="258.316" width="168.686" height="176.488" filterUnits="userSpaceOnUse" color-interpolation-filters="sRGB">
<feFlood flood-opacity="0" result="BackgroundImageFix"/>
<feColorMatrix in="SourceAlpha" type="matrix" values="0 0 0 0 0 0 0 0 0 0 0 0 0 0 0 0 0 0 127 0"/>
<feMorphology radius="7.16057" operator="dilate" in="SourceAlpha" result="effect1_dropShadow"/>
<feOffset dy="20.5866"/>
<feGaussianBlur stdDeviation="13.4261"/>
<feColorMatrix type="matrix" values="0 0 0 0 0 0 0 0 0 0.0876457 0 0 0 0 0.391667 0 0 0 0.05 0"/>
<feBlend mode="normal" in2="BackgroundImageFix" result="effect1_dropShadow"/>
<feColorMatrix in="SourceAlpha" type="matrix" values="0 0 0 0 0 0 0 0 0 0 0 0 0 0 0 0 0 0 127 0"/>
<feOffset dy="42.0684"/>
<feGaussianBlur stdDeviation="2.68521"/>
<feColorMatrix type="matrix" values="0 0 0 0 0.121569 0 0 0 0 0.247059 0 0 0 0 0.682353 0 0 0 0.02 0"/>
<feBlend mode="normal" in2="effect1_dropShadow" result="effect2_dropShadow"/>
<feColorMatrix in="SourceAlpha" type="matrix" values="0 0 0 0 0 0 0 0 0 0 0 0 0 0 0 0 0 0 127 0"/>
<feOffset dy="51.0191"/>
<feGaussianBlur stdDeviation="8.95072"/>
<feColorMatrix type="matrix" values="0 0 0 0 0.121569 0 0 0 0 0.247059 0 0 0 0 0.682353 0 0 0 0.02 0"/>
<feBlend mode="normal" in2="effect2_dropShadow" result="effect3_dropShadow"/>
<feBlend mode="normal" in="SourceGraphic" in2="effect3_dropShadow" result="shape"/>
</filter>
<filter id="filter5_ddd" x="326.025" y="539.041" width="168.686" height="176.488" filterUnits="userSpaceOnUse" color-interpolation-filters="sRGB">
<feFlood flood-opacity="0" result="BackgroundImageFix"/>
<feColorMatrix in="SourceAlpha" type="matrix" values="0 0 0 0 0 0 0 0 0 0 0 0 0 0 0 0 0 0 127 0"/>
<feMorphology radius="7.16057" operator="dilate" in="SourceAlpha" result="effect1_dropShadow"/>
<feOffset dy="20.5866"/>
<feGaussianBlur stdDeviation="13.4261"/>
<feColorMatrix type="matrix" values="0 0 0 0 0 0 0 0 0 0.0876457 0 0 0 0 0.391667 0 0 0 0.05 0"/>
<feBlend mode="normal" in2="BackgroundImageFix" result="effect1_dropShadow"/>
<feColorMatrix in="SourceAlpha" type="matrix" values="0 0 0 0 0 0 0 0 0 0 0 0 0 0 0 0 0 0 127 0"/>
<feOffset dy="42.0684"/>
<feGaussianBlur stdDeviation="2.68521"/>
<feColorMatrix type="matrix" values="0 0 0 0 0.121569 0 0 0 0 0.247059 0 0 0 0 0.682353 0 0 0 0.02 0"/>
<feBlend mode="normal" in2="effect1_dropShadow" result="effect2_dropShadow"/>
<feColorMatrix in="SourceAlpha" type="matrix" values="0 0 0 0 0 0 0 0 0 0 0 0 0 0 0 0 0 0 127 0"/>
<feOffset dy="51.0191"/>
<feGaussianBlur stdDeviation="8.95072"/>
<feColorMatrix type="matrix" values="0 0 0 0 0.121569 0 0 0 0 0.247059 0 0 0 0 0.682353 0 0 0 0.02 0"/>
<feBlend mode="normal" in2="effect2_dropShadow" result="effect3_dropShadow"/>
<feBlend mode="normal" in="SourceGraphic" in2="effect3_dropShadow" result="shape"/>
</filter>
<linearGradient id="paint0_linear" x1="410.171" y1="379.019" x2="410.171" y2="471.177" gradientUnits="userSpaceOnUse">
<stop stop-color="#FF4950"/>
<stop offset="0.90625" stop-color="#B71C22"/>
</linearGradient>
<linearGradient id="paint1_linear" x1="410.171" y1="178.502" x2="410.171" y2="270.66" gradientUnits="userSpaceOnUse">
<stop stop-color="#FF4950"/>
<stop offset="0.90625" stop-color="#B71C22"/>
</linearGradient>
<linearGradient id="paint2_linear" x1="564.149" y1="500.08" x2="581.452" y2="530.049" gradientUnits="userSpaceOnUse">
<stop stop-color="#FF4950"/>
<stop offset="0.90625" stop-color="#B71C22"/>
</linearGradient>
<linearGradient id="paint3_linear" x1="564.149" y1="500.08" x2="581.452" y2="530.049" gradientUnits="userSpaceOnUse">
<stop stop-color="#FF4950"/>
<stop offset="0.90625" stop-color="#B71C22"/>
</linearGradient>
<linearGradient id="paint4_linear" x1="564.149" y1="500.08" x2="581.452" y2="530.049" gradientUnits="userSpaceOnUse">
<stop stop-color="#FF4950"/>
<stop offset="0.90625" stop-color="#B71C22"/>
</linearGradient>
<linearGradient id="paint5_linear" x1="564.149" y1="500.08" x2="581.452" y2="530.049" gradientUnits="userSpaceOnUse">
<stop stop-color="#FF4950"/>
<stop offset="0.90625" stop-color="#B71C22"/>
</linearGradient>
<linearGradient id="paint6_linear" x1="564.149" y1="500.08" x2="581.452" y2="530.049" gradientUnits="userSpaceOnUse">
<stop stop-color="#FF4950"/>
<stop offset="0.90625" stop-color="#B71C22"/>
</linearGradient>
<linearGradient id="paint7_linear" x1="564.149" y1="500.08" x2="581.452" y2="530.049" gradientUnits="userSpaceOnUse">
<stop stop-color="#FF4950"/>
<stop offset="0.90625" stop-color="#B71C22"/>
</linearGradient>
<linearGradient id="paint8_linear" x1="564.149" y1="500.08" x2="581.452" y2="530.049" gradientUnits="userSpaceOnUse">
<stop stop-color="#FF4950"/>
<stop offset="0.90625" stop-color="#B71C22"/>
</linearGradient>
<linearGradient id="paint9_linear" x1="252.505" y1="494.38" x2="252.505" y2="573.237" gradientUnits="userSpaceOnUse">
<stop stop-color="#E0C3FC"/>
<stop offset="1" stop-color="#8EC5FC"/>
</linearGradient>
<linearGradient id="paint10_linear" x1="252.505" y1="494.38" x2="252.505" y2="573.237" gradientUnits="userSpaceOnUse">
<stop stop-color="#E0C3FC"/>
<stop offset="1" stop-color="#8EC5FC"/>
</linearGradient>
<linearGradient id="paint11_linear" x1="252.505" y1="494.38" x2="252.505" y2="573.237" gradientUnits="userSpaceOnUse">
<stop stop-color="#E0C3FC"/>
<stop offset="1" stop-color="#8EC5FC"/>
</linearGradient>
<linearGradient id="paint12_linear" x1="252.505" y1="494.38" x2="252.505" y2="573.237" gradientUnits="userSpaceOnUse">
<stop stop-color="#E0C3FC"/>
<stop offset="1" stop-color="#8EC5FC"/>
</linearGradient>
<linearGradient id="paint13_linear" x1="252.505" y1="494.38" x2="252.505" y2="573.237" gradientUnits="userSpaceOnUse">
<stop stop-color="#E0C3FC"/>
<stop offset="1" stop-color="#8EC5FC"/>
</linearGradient>
<linearGradient id="paint14_linear" x1="252.505" y1="494.38" x2="252.505" y2="573.237" gradientUnits="userSpaceOnUse">
<stop stop-color="#E0C3FC"/>
<stop offset="1" stop-color="#8EC5FC"/>
</linearGradient>
<linearGradient id="paint15_linear" x1="252.505" y1="494.38" x2="252.505" y2="573.237" gradientUnits="userSpaceOnUse">
<stop stop-color="#E0C3FC"/>
<stop offset="1" stop-color="#8EC5FC"/>
</linearGradient>
<linearGradient id="paint16_linear" x1="582.087" y1="294.863" x2="582.087" y2="373.72" gradientUnits="userSpaceOnUse">
<stop stop-color="#E0C3FC"/>
<stop offset="1" stop-color="#8EC5FC"/>
</linearGradient>
<linearGradient id="paint17_linear" x1="582.087" y1="294.863" x2="582.087" y2="373.72" gradientUnits="userSpaceOnUse">
<stop stop-color="#E0C3FC"/>
<stop offset="1" stop-color="#8EC5FC"/>
</linearGradient>
<linearGradient id="paint18_linear" x1="582.087" y1="294.863" x2="582.087" y2="373.72" gradientUnits="userSpaceOnUse">
<stop stop-color="#E0C3FC"/>
<stop offset="1" stop-color="#8EC5FC"/>
</linearGradient>
<linearGradient id="paint19_linear" x1="582.087" y1="294.863" x2="582.087" y2="373.72" gradientUnits="userSpaceOnUse">
<stop stop-color="#E0C3FC"/>
<stop offset="1" stop-color="#8EC5FC"/>
</linearGradient>
<linearGradient id="paint20_linear" x1="582.087" y1="294.863" x2="582.087" y2="373.72" gradientUnits="userSpaceOnUse">
<stop stop-color="#E0C3FC"/>
<stop offset="1" stop-color="#8EC5FC"/>
</linearGradient>
<linearGradient id="paint21_linear" x1="582.087" y1="294.863" x2="582.087" y2="373.72" gradientUnits="userSpaceOnUse">
<stop stop-color="#E0C3FC"/>
<stop offset="1" stop-color="#8EC5FC"/>
</linearGradient>
<linearGradient id="paint22_linear" x1="582.087" y1="294.863" x2="582.087" y2="373.72" gradientUnits="userSpaceOnUse">
<stop stop-color="#E0C3FC"/>
<stop offset="1" stop-color="#8EC5FC"/>
</linearGradient>
<linearGradient id="paint23_linear" x1="240.155" y1="294.863" x2="240.155" y2="373.72" gradientUnits="userSpaceOnUse">
<stop stop-color="#E0C3FC"/>
<stop offset="1" stop-color="#8EC5FC"/>
</linearGradient>
<linearGradient id="paint24_linear" x1="240.155" y1="294.863" x2="240.155" y2="373.72" gradientUnits="userSpaceOnUse">
<stop stop-color="#E0C3FC"/>
<stop offset="1" stop-color="#8EC5FC"/>
</linearGradient>
<linearGradient id="paint25_linear" x1="240.155" y1="294.863" x2="240.155" y2="373.72" gradientUnits="userSpaceOnUse">
<stop stop-color="#E0C3FC"/>
<stop offset="1" stop-color="#8EC5FC"/>
</linearGradient>
<linearGradient id="paint26_linear" x1="240.155" y1="294.863" x2="240.155" y2="373.72" gradientUnits="userSpaceOnUse">
<stop stop-color="#E0C3FC"/>
<stop offset="1" stop-color="#8EC5FC"/>
</linearGradient>
<linearGradient id="paint27_linear" x1="240.155" y1="294.863" x2="240.155" y2="373.72" gradientUnits="userSpaceOnUse">
<stop stop-color="#E0C3FC"/>
<stop offset="1" stop-color="#8EC5FC"/>
</linearGradient>
<linearGradient id="paint28_linear" x1="240.155" y1="294.863" x2="240.155" y2="373.72" gradientUnits="userSpaceOnUse">
<stop stop-color="#E0C3FC"/>
<stop offset="1" stop-color="#8EC5FC"/>
</linearGradient>
<linearGradient id="paint29_linear" x1="240.155" y1="294.863" x2="240.155" y2="373.72" gradientUnits="userSpaceOnUse">
<stop stop-color="#E0C3FC"/>
<stop offset="1" stop-color="#8EC5FC"/>
</linearGradient>
<linearGradient id="paint30_linear" x1="410.169" y1="575.586" x2="410.169" y2="654.443" gradientUnits="userSpaceOnUse">
<stop stop-color="#E0C3FC"/>
<stop offset="1" stop-color="#8EC5FC"/>
</linearGradient>
<linearGradient id="paint31_linear" x1="410.169" y1="575.586" x2="410.169" y2="654.443" gradientUnits="userSpaceOnUse">
<stop stop-color="#E0C3FC"/>
<stop offset="1" stop-color="#8EC5FC"/>
</linearGradient>
<linearGradient id="paint32_linear" x1="410.169" y1="575.586" x2="410.169" y2="654.443" gradientUnits="userSpaceOnUse">
<stop stop-color="#E0C3FC"/>
<stop offset="1" stop-color="#8EC5FC"/>
</linearGradient>
<linearGradient id="paint33_linear" x1="410.169" y1="575.586" x2="410.169" y2="654.443" gradientUnits="userSpaceOnUse">
<stop stop-color="#E0C3FC"/>
<stop offset="1" stop-color="#8EC5FC"/>
</linearGradient>
<linearGradient id="paint34_linear" x1="410.169" y1="575.586" x2="410.169" y2="654.443" gradientUnits="userSpaceOnUse">
<stop stop-color="#E0C3FC"/>
<stop offset="1" stop-color="#8EC5FC"/>
</linearGradient>
<linearGradient id="paint35_linear" x1="410.169" y1="575.586" x2="410.169" y2="654.443" gradientUnits="userSpaceOnUse">
<stop stop-color="#E0C3FC"/>
<stop offset="1" stop-color="#8EC5FC"/>
</linearGradient>
<linearGradient id="paint36_linear" x1="410.169" y1="575.586" x2="410.169" y2="654.443" gradientUnits="userSpaceOnUse">
<stop stop-color="#E0C3FC"/>
<stop offset="1" stop-color="#8EC5FC"/>
</linearGradient>
</defs>
</svg>
