<svg width="819" height="819" viewBox="0 0 819 819" fill="none" xmlns="http://www.w3.org/2000/svg">
<g filter="url(#filter0_f)">
<circle cx="409.221" cy="409.823" r="209.018" fill="#152673"/>
</g>
<path d="M705.114 296.897V299.185H708.804V301.312H705.114V303.793H709.287V306H702.359V294.69H709.287V296.897H705.114ZM710.689 301.489C710.689 300.565 710.861 299.754 711.204 299.056C711.559 298.358 712.037 297.821 712.638 297.445C713.24 297.069 713.911 296.881 714.652 296.881C715.286 296.881 715.839 297.01 716.312 297.268C716.795 297.525 717.166 297.864 717.423 298.283V297.01H720.178V306H717.423V304.727C717.155 305.146 716.779 305.484 716.296 305.742C715.823 306 715.27 306.129 714.636 306.129C713.906 306.129 713.24 305.941 712.638 305.565C712.037 305.178 711.559 304.636 711.204 303.938C710.861 303.229 710.689 302.413 710.689 301.489ZM717.423 301.505C717.423 300.818 717.23 300.275 716.843 299.878C716.467 299.48 716.006 299.282 715.458 299.282C714.91 299.282 714.443 299.48 714.056 299.878C713.68 300.264 713.492 300.801 713.492 301.489C713.492 302.176 713.68 302.724 714.056 303.132C714.443 303.53 714.91 303.728 715.458 303.728C716.006 303.728 716.467 303.53 716.843 303.132C717.23 302.735 717.423 302.192 717.423 301.505ZM725.088 298.508C725.41 298.014 725.813 297.628 726.296 297.348C726.779 297.058 727.316 296.913 727.907 296.913V299.829H727.15C726.463 299.829 725.947 299.98 725.603 300.28C725.26 300.57 725.088 301.086 725.088 301.827V306H722.333V297.01H725.088V298.508ZM732.14 294.078V306H729.385V294.078H732.14ZM743.481 297.01L737.842 310.269H734.878L736.94 305.694L733.283 297.01H736.36L738.438 302.633L740.501 297.01H743.481ZM696.374 325.002H692.153L691.477 327H688.593L692.685 315.69H695.875L699.967 327H697.051L696.374 325.002ZM695.666 322.876L694.264 318.735L692.878 322.876H695.666ZM704.129 319.508C704.451 319.014 704.854 318.628 705.337 318.348C705.821 318.058 706.358 317.913 706.948 317.913V320.829H706.191C705.504 320.829 704.988 320.98 704.644 321.28C704.301 321.57 704.129 322.086 704.129 322.827V327H701.374V318.01H704.129V319.508ZM711.181 319.508C711.504 319.014 711.906 318.628 712.39 318.348C712.873 318.058 713.41 317.913 714.001 317.913V320.829H713.244C712.556 320.829 712.041 320.98 711.697 321.28C711.353 321.57 711.181 322.086 711.181 322.827V327H708.426V318.01H711.181V319.508ZM716.864 317.075C716.381 317.075 715.984 316.936 715.672 316.657C715.371 316.367 715.221 316.012 715.221 315.593C715.221 315.164 715.371 314.809 715.672 314.53C715.984 314.24 716.381 314.095 716.864 314.095C717.337 314.095 717.724 314.24 718.024 314.53C718.336 314.809 718.492 315.164 718.492 315.593C718.492 316.012 718.336 316.367 718.024 316.657C717.724 316.936 717.337 317.075 716.864 317.075ZM718.234 318.01V327H715.479V318.01H718.234ZM724.435 324.422L726.385 318.01H729.317L726.127 327H722.728L719.538 318.01H722.486L724.435 324.422ZM732.023 317.075C731.54 317.075 731.143 316.936 730.831 316.657C730.53 316.367 730.38 316.012 730.38 315.593C730.38 315.164 730.53 314.809 730.831 314.53C731.143 314.24 731.54 314.095 732.023 314.095C732.496 314.095 732.883 314.24 733.183 314.53C733.495 314.809 733.651 315.164 733.651 315.593C733.651 316.012 733.495 316.367 733.183 316.657C732.883 316.936 732.496 317.075 732.023 317.075ZM733.393 318.01V327H730.638V318.01H733.393ZM741.028 317.913C742.081 317.913 742.919 318.257 743.542 318.944C744.175 319.621 744.492 320.555 744.492 321.748V327H741.753V322.118C741.753 321.517 741.598 321.05 741.286 320.717C740.975 320.384 740.556 320.217 740.03 320.217C739.503 320.217 739.084 320.384 738.773 320.717C738.461 321.05 738.306 321.517 738.306 322.118V327H735.551V318.01H738.306V319.202C738.585 318.805 738.961 318.493 739.433 318.268C739.906 318.031 740.438 317.913 741.028 317.913ZM749.984 317.881C750.617 317.881 751.17 318.01 751.643 318.268C752.126 318.525 752.497 318.864 752.755 319.283V318.01H755.51V326.984C755.51 327.811 755.343 328.557 755.01 329.223C754.688 329.9 754.189 330.437 753.512 330.834C752.846 331.232 752.014 331.431 751.015 331.431C749.683 331.431 748.603 331.114 747.776 330.48C746.949 329.857 746.477 329.009 746.358 327.934H749.081C749.167 328.278 749.371 328.547 749.694 328.74C750.016 328.944 750.413 329.046 750.886 329.046C751.455 329.046 751.906 328.88 752.239 328.547C752.583 328.224 752.755 327.704 752.755 326.984V325.711C752.486 326.13 752.116 326.474 751.643 326.742C751.17 327 750.617 327.129 749.984 327.129C749.242 327.129 748.571 326.941 747.97 326.565C747.368 326.178 746.89 325.636 746.536 324.938C746.192 324.229 746.02 323.413 746.02 322.489C746.02 321.565 746.192 320.754 746.536 320.056C746.89 319.358 747.368 318.821 747.97 318.445C748.571 318.069 749.242 317.881 749.984 317.881ZM752.755 322.505C752.755 321.818 752.561 321.275 752.175 320.878C751.799 320.48 751.337 320.282 750.789 320.282C750.241 320.282 749.774 320.48 749.387 320.878C749.011 321.264 748.824 321.801 748.824 322.489C748.824 323.176 749.011 323.724 749.387 324.132C749.774 324.53 750.241 324.728 750.789 324.728C751.337 324.728 751.799 324.53 752.175 324.132C752.561 323.735 752.755 323.192 752.755 322.505ZM719.563 336.69L716.614 348H713.279L711.475 340.557L709.606 348H706.271L703.403 336.69H706.351L707.979 344.923L709.993 336.69H713.022L714.955 344.923L716.598 336.69H719.563ZM722.491 338.075C722.008 338.075 721.61 337.936 721.299 337.657C720.998 337.367 720.848 337.012 720.848 336.593C720.848 336.164 720.998 335.809 721.299 335.53C721.61 335.24 722.008 335.095 722.491 335.095C722.964 335.095 723.35 335.24 723.651 335.53C723.963 335.809 724.118 336.164 724.118 336.593C724.118 337.012 723.963 337.367 723.651 337.657C723.35 337.936 722.964 338.075 722.491 338.075ZM723.861 339.01V348H721.105V339.01H723.861ZM728.773 340.508C729.095 340.014 729.498 339.628 729.982 339.348C730.465 339.058 731.002 338.913 731.593 338.913V341.829H730.835C730.148 341.829 729.632 341.98 729.289 342.28C728.945 342.57 728.773 343.086 728.773 343.827V348H726.018V339.01H728.773V340.508ZM741.545 343.36C741.545 343.618 741.529 343.886 741.497 344.166H735.262C735.305 344.724 735.482 345.154 735.793 345.454C736.116 345.744 736.508 345.889 736.97 345.889C737.657 345.889 738.135 345.599 738.403 345.019H741.336C741.185 345.61 740.911 346.142 740.514 346.614C740.127 347.087 739.639 347.458 739.048 347.726C738.457 347.995 737.797 348.129 737.066 348.129C736.185 348.129 735.401 347.941 734.714 347.565C734.027 347.189 733.49 346.652 733.103 345.954C732.716 345.256 732.523 344.439 732.523 343.505C732.523 342.57 732.711 341.754 733.087 341.056C733.473 340.358 734.01 339.821 734.698 339.445C735.385 339.069 736.175 338.881 737.066 338.881C737.936 338.881 738.71 339.064 739.386 339.429C740.063 339.794 740.589 340.315 740.965 340.992C741.352 341.668 741.545 342.458 741.545 343.36ZM738.726 342.635C738.726 342.162 738.565 341.786 738.242 341.507C737.92 341.228 737.517 341.088 737.034 341.088C736.572 341.088 736.18 341.223 735.858 341.491C735.546 341.76 735.353 342.141 735.278 342.635H738.726Z" fill="white"/>
<path opacity="0.2" d="M647.529 321.962C647.265 322.222 647.262 322.647 647.522 322.911L651.763 327.215C652.023 327.479 652.448 327.482 652.712 327.222C652.976 326.961 652.979 326.536 652.719 326.272L648.949 322.447L652.774 318.678C653.039 318.417 653.042 317.992 652.781 317.728C652.521 317.464 652.096 317.461 651.832 317.721L647.529 321.962ZM671.985 321.944L648.005 321.769L647.995 323.111L671.976 323.287L671.985 321.944Z" fill="white"/>
<path d="M410 633L410 686H160" stroke="#41F9CD" stroke-width="1.37106" stroke-dasharray="6.86 6.86"/>
<path d="M422.476 357.693C431.765 357.693 440.349 362.649 444.993 370.693L457.158 391.764C461.803 399.808 461.803 409.719 457.158 417.764L444.993 438.835C440.349 446.879 431.765 451.835 422.476 451.835L398.146 451.835C388.857 451.835 380.274 446.879 375.63 438.835L363.464 417.764C358.82 409.72 358.82 399.808 363.464 391.764L375.63 370.693C380.274 362.649 388.857 357.693 398.146 357.693L422.476 357.693Z" fill="white"/>
<path d="M422.476 357.693C431.765 357.693 440.349 362.649 444.993 370.693L457.158 391.764C461.803 399.808 461.803 409.719 457.158 417.764L444.993 438.835C440.349 446.879 431.765 451.835 422.476 451.835L398.146 451.835C388.857 451.835 380.274 446.879 375.63 438.835L363.464 417.764C358.82 409.72 358.82 399.808 363.464 391.764L375.63 370.693C380.274 362.649 388.857 357.693 398.146 357.693L422.476 357.693Z" fill="url(#paint0_linear)"/>
<path d="M393.227 405.004C394.101 405.191 394.803 405.627 395.332 406.315C395.862 406.988 396.127 407.761 396.127 408.635C396.127 409.895 395.683 410.898 394.795 411.642C393.922 412.373 392.697 412.738 391.122 412.738H384.097V397.658H390.886C392.418 397.658 393.614 398.008 394.473 398.71C395.347 399.412 395.784 400.364 395.784 401.567C395.784 402.455 395.547 403.193 395.075 403.78C394.616 404.367 394.001 404.775 393.227 405.004ZM387.771 403.758H390.177C390.778 403.758 391.237 403.63 391.552 403.372C391.881 403.1 392.046 402.706 392.046 402.19C392.046 401.675 391.881 401.281 391.552 401.009C391.237 400.737 390.778 400.601 390.177 400.601H387.771V403.758ZM390.478 409.773C391.093 409.773 391.566 409.637 391.895 409.365C392.239 409.079 392.411 408.671 392.411 408.141C392.411 407.611 392.232 407.196 391.874 406.895C391.53 406.594 391.05 406.444 390.435 406.444H387.771V409.773H390.478ZM397.742 406.723C397.742 405.491 397.971 404.41 398.43 403.479C398.902 402.548 399.54 401.832 400.342 401.331C401.144 400.83 402.039 400.579 403.027 400.579C403.872 400.579 404.609 400.751 405.239 401.095C405.884 401.438 406.378 401.89 406.722 402.448V400.751H410.395V412.738H406.722V411.041C406.364 411.599 405.862 412.05 405.218 412.394C404.588 412.738 403.85 412.91 403.005 412.91C402.031 412.91 401.144 412.659 400.342 412.158C399.54 411.642 398.902 410.919 398.43 409.988C397.971 409.043 397.742 407.955 397.742 406.723ZM406.722 406.744C406.722 405.828 406.464 405.105 405.948 404.575C405.447 404.045 404.831 403.78 404.101 403.78C403.37 403.78 402.747 404.045 402.232 404.575C401.731 405.09 401.48 405.806 401.48 406.723C401.48 407.639 401.731 408.37 402.232 408.914C402.747 409.444 403.37 409.709 404.101 409.709C404.831 409.709 405.447 409.444 405.948 408.914C406.464 408.384 406.722 407.661 406.722 406.744ZM420.571 400.622C421.975 400.622 423.092 401.08 423.922 401.997C424.767 402.899 425.19 404.145 425.19 405.735V412.738H421.538V406.229C421.538 405.427 421.33 404.804 420.915 404.36C420.499 403.916 419.941 403.694 419.239 403.694C418.537 403.694 417.979 403.916 417.564 404.36C417.148 404.804 416.941 405.427 416.941 406.229V412.738H413.267V400.751H416.941V402.341C417.313 401.811 417.814 401.395 418.444 401.095C419.075 400.78 419.783 400.622 420.571 400.622ZM435.282 412.738L431.63 407.711V412.738H427.957V396.841H431.63V405.627L435.261 400.751H439.794L434.81 406.766L439.837 412.738H435.282Z" fill="white"/>
<path d="M422.476 187.176C431.765 187.176 440.349 192.132 444.993 200.176L457.158 221.247C461.803 229.291 461.803 239.202 457.158 247.247L444.993 268.317C440.349 276.362 431.765 281.317 422.476 281.317L398.146 281.317C388.857 281.317 380.274 276.362 375.63 268.317L363.464 247.247C358.82 239.202 358.82 229.291 363.464 221.247L375.63 200.176C380.274 192.132 388.857 187.176 398.146 187.176L422.476 187.176Z" fill="white"/>
<path d="M422.476 187.176C431.765 187.176 440.349 192.132 444.993 200.176L457.158 221.247C461.803 229.291 461.803 239.202 457.158 247.247L444.993 268.317C440.349 276.362 431.765 281.317 422.476 281.317L398.146 281.317C388.857 281.317 380.274 276.362 375.63 268.317L363.464 247.247C358.82 239.202 358.82 229.291 363.464 221.247L375.63 200.176C380.274 192.132 388.857 187.176 398.146 187.176L422.476 187.176Z" fill="url(#paint1_linear)"/>
<path d="M421.605 232.679H426.388V244.132H421.605V232.679Z" fill="white"/>
<path d="M412.547 232.679H417.33V244.132H412.547V232.679Z" fill="white"/>
<path d="M403.488 232.679H408.272V244.132H403.488V232.679Z" fill="white"/>
<path d="M394.43 232.679H399.214V244.132H394.43V232.679Z" fill="white"/>
<path d="M427.982 229.092V227.896H392.836V229.092C392.836 229.752 393.371 230.287 394.032 230.287H426.786C427.447 230.287 427.982 229.752 427.982 229.092Z" fill="white"/>
<path d="M429.622 246.524H391.197C390.536 246.524 390.001 247.059 390.001 247.72V250.909C390.001 251.569 390.536 252.104 391.197 252.104H429.622C430.282 252.104 430.818 251.569 430.818 250.909V247.72C430.818 247.059 430.282 246.524 429.622 246.524Z" fill="white"/>
<path d="M391.196 225.504H429.623C430.158 225.504 430.628 225.149 430.773 224.634C430.919 224.119 430.705 223.57 430.25 223.29L411.036 211.463C410.652 211.226 410.167 211.226 409.782 211.463L390.569 223.29C390.113 223.57 389.9 224.119 390.045 224.634C390.191 225.149 390.661 225.504 391.196 225.504ZM409.596 218.319H411.222C411.883 218.319 412.418 218.855 412.418 219.515C412.418 220.176 411.883 220.711 411.222 220.711H409.596C408.936 220.711 408.401 220.176 408.401 219.515C408.401 218.855 408.936 218.319 409.596 218.319Z" fill="white"/>
<g filter="url(#filter1_ddd)">
<path d="M525.937 531.33C521.293 523.285 521.293 513.374 525.937 505.33L538.102 484.259C542.747 476.215 551.33 471.259 560.619 471.259H584.949C594.238 471.259 602.821 476.215 607.466 484.259L619.631 505.33C624.275 513.374 624.275 523.285 619.631 531.33L607.466 552.4C602.821 560.445 594.238 565.4 584.949 565.4H560.619C551.33 565.4 542.747 560.445 538.102 552.4L525.937 531.33Z" fill="white"/>
</g>
<path d="M583.979 515.913H588.762V527.366H583.979V515.913Z" fill="url(#paint2_linear)"/>
<path d="M574.921 515.913H579.704V527.366H574.921V515.913Z" fill="url(#paint3_linear)"/>
<path d="M565.862 515.913H570.646V527.366H565.862V515.913Z" fill="url(#paint4_linear)"/>
<path d="M556.805 515.913H561.588V527.366H556.805V515.913Z" fill="url(#paint5_linear)"/>
<path d="M590.356 512.326V511.13H555.21V512.326C555.21 512.986 555.745 513.522 556.406 513.522H589.16C589.821 513.522 590.356 512.986 590.356 512.326Z" fill="url(#paint6_linear)"/>
<path d="M591.996 529.758H553.571C552.91 529.758 552.375 530.293 552.375 530.954V534.143C552.375 534.803 552.91 535.339 553.571 535.339H591.996C592.656 535.339 593.192 534.803 593.192 534.143V530.954C593.192 530.293 592.656 529.758 591.996 529.758Z" fill="url(#paint7_linear)"/>
<path d="M553.57 508.738H591.997C592.532 508.738 593.002 508.383 593.147 507.868C593.293 507.353 593.079 506.804 592.624 506.524L573.41 494.698C573.026 494.461 572.541 494.461 572.156 494.698L552.943 506.524C552.487 506.805 552.274 507.353 552.419 507.868C552.565 508.383 553.035 508.738 553.57 508.738ZM571.97 501.554H573.596C574.257 501.554 574.792 502.089 574.792 502.75C574.792 503.41 574.257 503.946 573.596 503.946H571.97C571.31 503.946 570.775 503.41 570.775 502.75C570.775 502.089 571.31 501.554 571.97 501.554Z" fill="url(#paint8_linear)"/>
<g filter="url(#filter2_ddd)">
<path d="M205.857 531.33C201.212 523.285 201.212 513.374 205.857 505.33L218.022 484.259C222.666 476.215 231.25 471.259 240.538 471.259H264.869C274.158 471.259 282.741 476.215 287.385 484.259L299.55 505.33C304.195 513.374 304.195 523.285 299.55 531.33L287.385 552.4C282.741 560.445 274.158 565.4 264.869 565.4H240.538C231.25 565.4 222.666 560.445 218.022 552.4L205.857 531.33Z" fill="white"/>
</g>
<path d="M263.899 515.913H268.682V527.366H263.899V515.913Z" fill="url(#paint9_linear)"/>
<path d="M254.841 515.913H259.624V527.366H254.841V515.913Z" fill="url(#paint10_linear)"/>
<path d="M245.782 515.913H250.566V527.366H245.782V515.913Z" fill="url(#paint11_linear)"/>
<path d="M236.724 515.913H241.508V527.366H236.724V515.913Z" fill="url(#paint12_linear)"/>
<path d="M270.276 512.326V511.13H235.13V512.326C235.13 512.986 235.665 513.522 236.326 513.522H269.08C269.74 513.522 270.276 512.986 270.276 512.326Z" fill="url(#paint13_linear)"/>
<path d="M271.916 529.758H233.491C232.83 529.758 232.295 530.293 232.295 530.954V534.143C232.295 534.803 232.83 535.339 233.491 535.339H271.916C272.576 535.339 273.112 534.803 273.112 534.143V530.954C273.112 530.293 272.576 529.758 271.916 529.758Z" fill="url(#paint14_linear)"/>
<path d="M233.49 508.738H271.917C272.452 508.738 272.922 508.383 273.067 507.868C273.213 507.353 272.999 506.804 272.544 506.524L253.33 494.698C252.946 494.461 252.461 494.461 252.076 494.698L232.863 506.524C232.407 506.805 232.194 507.353 232.339 507.868C232.485 508.383 232.955 508.738 233.49 508.738ZM251.89 501.554H253.516C254.177 501.554 254.712 502.089 254.712 502.75C254.712 503.41 254.177 503.946 253.516 503.946H251.89C251.23 503.946 250.695 503.41 250.695 502.75C250.695 502.089 251.23 501.554 251.89 501.554Z" fill="url(#paint15_linear)"/>
<g filter="url(#filter3_ddd)">
<path d="M629.132 305.813C633.776 313.857 633.776 323.768 629.132 331.813L616.967 352.884C612.322 360.928 603.739 365.884 594.45 365.884H570.12C560.831 365.884 552.247 360.928 547.603 352.884L535.438 331.813C530.793 323.769 530.793 313.857 535.438 305.813L547.603 284.742C552.247 276.698 560.831 271.742 570.12 271.742H594.45C603.739 271.742 612.322 276.698 616.967 284.742L629.132 305.813Z" fill="white"/>
</g>
<path d="M593.481 316.396H598.264V327.849H593.481V316.396Z" fill="url(#paint16_linear)"/>
<path d="M584.423 316.396H589.206V327.849H584.423V316.396Z" fill="url(#paint17_linear)"/>
<path d="M575.364 316.396H580.148V327.849H575.364V316.396Z" fill="url(#paint18_linear)"/>
<path d="M566.306 316.396H571.09V327.849H566.306V316.396Z" fill="url(#paint19_linear)"/>
<path d="M599.858 312.809V311.613H564.712V312.809C564.712 313.469 565.247 314.005 565.908 314.005H598.662C599.323 314.005 599.858 313.469 599.858 312.809Z" fill="url(#paint20_linear)"/>
<path d="M601.498 330.241H563.073C562.412 330.241 561.877 330.776 561.877 331.437V334.626C561.877 335.286 562.412 335.822 563.073 335.822H601.498C602.158 335.822 602.694 335.286 602.694 334.626V331.437C602.694 330.776 602.158 330.241 601.498 330.241Z" fill="url(#paint21_linear)"/>
<path d="M563.072 309.221H601.499C602.034 309.221 602.504 308.866 602.649 308.351C602.795 307.836 602.581 307.287 602.126 307.007L582.912 295.18C582.528 294.944 582.043 294.944 581.658 295.18L562.445 307.007C561.989 307.288 561.776 307.836 561.921 308.351C562.067 308.866 562.537 309.221 563.072 309.221ZM581.472 302.037H583.098C583.759 302.037 584.294 302.572 584.294 303.233C584.294 303.893 583.759 304.428 583.098 304.428H581.472C580.812 304.428 580.277 303.893 580.277 303.233C580.277 302.572 580.812 302.037 581.472 302.037Z" fill="url(#paint22_linear)"/>
<g filter="url(#filter4_ddd)">
<path d="M287.2 305.813C291.844 313.857 291.844 323.768 287.2 331.813L275.034 352.884C270.39 360.928 261.807 365.884 252.518 365.884H228.187C218.899 365.884 210.315 360.928 205.671 352.884L193.506 331.813C188.861 323.769 188.861 313.857 193.506 305.813L205.671 284.742C210.315 276.698 218.899 271.742 228.187 271.742H252.518C261.807 271.742 270.39 276.698 275.034 284.742L287.2 305.813Z" fill="white"/>
</g>
<path d="M251.549 316.396H256.332V327.849H251.549V316.396Z" fill="url(#paint23_linear)"/>
<path d="M242.491 316.396H247.274V327.849H242.491V316.396Z" fill="url(#paint24_linear)"/>
<path d="M233.432 316.396H238.216V327.849H233.432V316.396Z" fill="url(#paint25_linear)"/>
<path d="M224.374 316.396H229.157V327.849H224.374V316.396Z" fill="url(#paint26_linear)"/>
<path d="M257.926 312.809V311.613H222.78V312.809C222.78 313.469 223.315 314.005 223.976 314.005H256.73C257.39 314.005 257.926 313.469 257.926 312.809Z" fill="url(#paint27_linear)"/>
<path d="M259.566 330.241H221.141C220.48 330.241 219.945 330.776 219.945 331.437V334.626C219.945 335.286 220.48 335.822 221.141 335.822H259.566C260.226 335.822 260.762 335.286 260.762 334.626V331.437C260.762 330.776 260.226 330.241 259.566 330.241Z" fill="url(#paint28_linear)"/>
<path d="M221.14 309.221H259.567C260.102 309.221 260.572 308.866 260.717 308.351C260.863 307.836 260.649 307.287 260.193 307.007L240.98 295.18C240.596 294.944 240.111 294.944 239.726 295.18L220.513 307.007C220.057 307.288 219.843 307.836 219.989 308.351C220.135 308.866 220.605 309.221 221.14 309.221ZM239.54 302.037H241.166C241.827 302.037 242.362 302.572 242.362 303.233C242.362 303.893 241.827 304.428 241.166 304.428H239.54C238.88 304.428 238.344 303.893 238.344 303.233C238.344 302.572 238.88 302.037 239.54 302.037Z" fill="url(#paint29_linear)"/>
<g filter="url(#filter5_ddd)">
<path d="M363.522 602.538C358.877 594.493 358.877 584.582 363.522 576.538L375.687 555.467C380.331 547.423 388.915 542.467 398.203 542.467H422.534C431.823 542.467 440.406 547.423 445.05 555.467L457.215 576.538C461.86 584.582 461.86 594.493 457.215 602.538L445.05 623.608C440.406 631.653 431.823 636.608 422.534 636.608H398.203C388.915 636.608 380.331 631.653 375.687 623.608L363.522 602.538Z" fill="white"/>
</g>
<path d="M421.563 587.12H426.346V598.572H421.563V587.12Z" fill="url(#paint30_linear)"/>
<path d="M412.505 587.12H417.288V598.572H412.505V587.12Z" fill="url(#paint31_linear)"/>
<path d="M403.446 587.12H408.23V598.572H403.446V587.12Z" fill="url(#paint32_linear)"/>
<path d="M394.389 587.12H399.172V598.572H394.389V587.12Z" fill="url(#paint33_linear)"/>
<path d="M427.94 583.532V582.336H392.794V583.532C392.794 584.192 393.329 584.728 393.99 584.728H426.744C427.405 584.728 427.94 584.192 427.94 583.532Z" fill="url(#paint34_linear)"/>
<path d="M429.58 600.964H391.155C390.494 600.964 389.959 601.499 389.959 602.16V605.349C389.959 606.009 390.494 606.545 391.155 606.545H429.58C430.24 606.545 430.776 606.009 430.776 605.349V602.16C430.776 601.499 430.24 600.964 429.58 600.964Z" fill="url(#paint35_linear)"/>
<path d="M391.154 579.944H429.581C430.116 579.944 430.586 579.589 430.731 579.074C430.877 578.559 430.663 578.01 430.208 577.73L410.994 565.904C410.61 565.667 410.125 565.667 409.74 565.904L390.527 577.73C390.071 578.011 389.858 578.559 390.003 579.074C390.149 579.589 390.619 579.944 391.154 579.944ZM409.554 572.76H411.18C411.841 572.76 412.376 573.295 412.376 573.956C412.376 574.616 411.841 575.152 411.18 575.152H409.554C408.894 575.152 408.359 574.616 408.359 573.956C408.359 573.295 408.894 572.76 409.554 572.76Z" fill="url(#paint36_linear)"/>
<path d="M237.371 183.941H240.955V186.053H234.635V174.821H237.371V183.941ZM241.876 181.573C241.876 180.656 242.047 179.851 242.388 179.157C242.74 178.464 243.215 177.931 243.812 177.557C244.41 177.184 245.076 176.997 245.812 176.997C246.442 176.997 246.991 177.125 247.46 177.381C247.94 177.637 248.308 177.973 248.564 178.389V177.125H251.3V186.053H248.564V184.789C248.298 185.205 247.924 185.541 247.444 185.797C246.975 186.053 246.426 186.181 245.796 186.181C245.071 186.181 244.41 185.995 243.812 185.621C243.215 185.237 242.74 184.699 242.388 184.005C242.047 183.301 241.876 182.491 241.876 181.573ZM248.564 181.589C248.564 180.907 248.372 180.368 247.988 179.973C247.615 179.579 247.156 179.381 246.612 179.381C246.068 179.381 245.604 179.579 245.22 179.973C244.847 180.357 244.66 180.891 244.66 181.573C244.66 182.256 244.847 182.8 245.22 183.205C245.604 183.6 246.068 183.797 246.612 183.797C247.156 183.797 247.615 183.6 247.988 183.205C248.372 182.811 248.564 182.272 248.564 181.589ZM258.416 183.733V186.053H257.024C256.032 186.053 255.258 185.813 254.704 185.333C254.149 184.843 253.872 184.048 253.872 182.949V179.397H252.784V177.125H253.872V174.949H256.608V177.125H258.4V179.397H256.608V182.981C256.608 183.248 256.672 183.44 256.8 183.557C256.928 183.675 257.141 183.733 257.44 183.733H258.416ZM268.516 181.445C268.516 181.701 268.5 181.968 268.468 182.245H262.276C262.318 182.8 262.494 183.227 262.804 183.525C263.124 183.813 263.513 183.957 263.972 183.957C264.654 183.957 265.129 183.669 265.396 183.093H268.308C268.158 183.68 267.886 184.208 267.492 184.677C267.108 185.147 266.622 185.515 266.036 185.781C265.449 186.048 264.793 186.181 264.068 186.181C263.193 186.181 262.414 185.995 261.732 185.621C261.049 185.248 260.516 184.715 260.132 184.021C259.748 183.328 259.556 182.517 259.556 181.589C259.556 180.661 259.742 179.851 260.116 179.157C260.5 178.464 261.033 177.931 261.716 177.557C262.398 177.184 263.182 176.997 264.068 176.997C264.932 176.997 265.7 177.179 266.372 177.541C267.044 177.904 267.566 178.421 267.94 179.093C268.324 179.765 268.516 180.549 268.516 181.445ZM265.716 180.725C265.716 180.256 265.556 179.883 265.236 179.605C264.916 179.328 264.516 179.189 264.036 179.189C263.577 179.189 263.188 179.323 262.868 179.589C262.558 179.856 262.366 180.235 262.292 180.725H265.716ZM280.662 184.069H276.47L275.798 186.053H272.934L276.998 174.821H280.166L284.23 186.053H281.334L280.662 184.069ZM279.958 181.957L278.566 177.845L277.19 181.957H279.958ZM288.362 178.613C288.682 178.123 289.082 177.739 289.562 177.461C290.042 177.173 290.576 177.029 291.162 177.029V179.925H290.41C289.728 179.925 289.216 180.075 288.874 180.373C288.533 180.661 288.362 181.173 288.362 181.909V186.053H285.626V177.125H288.362V178.613ZM295.366 178.613C295.686 178.123 296.086 177.739 296.566 177.461C297.046 177.173 297.58 177.029 298.166 177.029V179.925H297.414C296.732 179.925 296.22 180.075 295.878 180.373C295.537 180.661 295.366 181.173 295.366 181.909V186.053H292.63V177.125H295.366V178.613ZM301.01 176.197C300.53 176.197 300.135 176.059 299.826 175.781C299.527 175.493 299.378 175.141 299.378 174.725C299.378 174.299 299.527 173.947 299.826 173.669C300.135 173.381 300.53 173.237 301.01 173.237C301.479 173.237 301.863 173.381 302.162 173.669C302.471 173.947 302.626 174.299 302.626 174.725C302.626 175.141 302.471 175.493 302.162 175.781C301.863 176.059 301.479 176.197 301.01 176.197ZM302.37 177.125V186.053H299.634V177.125H302.37ZM308.529 183.493L310.465 177.125H313.377L310.209 186.053H306.833L303.665 177.125H306.593L308.529 183.493ZM316.064 176.197C315.584 176.197 315.19 176.059 314.88 175.781C314.582 175.493 314.432 175.141 314.432 174.725C314.432 174.299 314.582 173.947 314.88 173.669C315.19 173.381 315.584 173.237 316.064 173.237C316.534 173.237 316.918 173.381 317.216 173.669C317.526 173.947 317.68 174.299 317.68 174.725C317.68 175.141 317.526 175.493 317.216 175.781C316.918 176.059 316.534 176.197 316.064 176.197ZM317.424 177.125V186.053H314.688V177.125H317.424ZM325.007 177.029C326.052 177.029 326.884 177.371 327.503 178.053C328.132 178.725 328.447 179.653 328.447 180.837V186.053H325.727V181.205C325.727 180.608 325.572 180.144 325.263 179.813C324.954 179.483 324.538 179.317 324.015 179.317C323.492 179.317 323.076 179.483 322.767 179.813C322.458 180.144 322.303 180.608 322.303 181.205V186.053H319.567V177.125H322.303V178.309C322.58 177.915 322.954 177.605 323.423 177.381C323.892 177.147 324.42 177.029 325.007 177.029ZM333.9 176.997C334.53 176.997 335.079 177.125 335.548 177.381C336.028 177.637 336.396 177.973 336.652 178.389V177.125H339.388V186.037C339.388 186.859 339.223 187.6 338.892 188.261C338.572 188.933 338.076 189.467 337.404 189.861C336.743 190.256 335.916 190.453 334.924 190.453C333.602 190.453 332.53 190.139 331.708 189.509C330.887 188.891 330.418 188.048 330.3 186.981H333.004C333.09 187.323 333.292 187.589 333.612 187.781C333.932 187.984 334.327 188.085 334.796 188.085C335.362 188.085 335.81 187.92 336.14 187.589C336.482 187.269 336.652 186.752 336.652 186.037V184.773C336.386 185.189 336.018 185.531 335.548 185.797C335.079 186.053 334.53 186.181 333.9 186.181C333.164 186.181 332.498 185.995 331.9 185.621C331.303 185.237 330.828 184.699 330.476 184.005C330.135 183.301 329.964 182.491 329.964 181.573C329.964 180.656 330.135 179.851 330.476 179.157C330.828 178.464 331.303 177.931 331.9 177.557C332.498 177.184 333.164 176.997 333.9 176.997ZM336.652 181.589C336.652 180.907 336.46 180.368 336.076 179.973C335.703 179.579 335.244 179.381 334.7 179.381C334.156 179.381 333.692 179.579 333.308 179.973C332.935 180.357 332.748 180.891 332.748 181.573C332.748 182.256 332.935 182.8 333.308 183.205C333.692 183.6 334.156 183.797 334.7 183.797C335.244 183.797 335.703 183.6 336.076 183.205C336.46 182.811 336.652 182.272 336.652 181.589ZM284.172 195.821L281.244 207.053H277.932L276.14 199.661L274.284 207.053H270.972L268.124 195.821H271.052L272.668 203.997L274.668 195.821H277.676L279.596 203.997L281.228 195.821H284.172ZM287.081 197.197C286.601 197.197 286.206 197.059 285.897 196.781C285.598 196.493 285.449 196.141 285.449 195.725C285.449 195.299 285.598 194.947 285.897 194.669C286.206 194.381 286.601 194.237 287.081 194.237C287.55 194.237 287.934 194.381 288.233 194.669C288.542 194.947 288.697 195.299 288.697 195.725C288.697 196.141 288.542 196.493 288.233 196.781C287.934 197.059 287.55 197.197 287.081 197.197ZM288.441 198.125V207.053H285.705V198.125H288.441ZM293.319 199.613C293.639 199.123 294.039 198.739 294.519 198.461C294.999 198.173 295.533 198.029 296.119 198.029V200.925H295.367C294.685 200.925 294.173 201.075 293.831 201.373C293.49 201.661 293.319 202.173 293.319 202.909V207.053H290.583V198.125H293.319V199.613ZM306.003 202.445C306.003 202.701 305.987 202.968 305.955 203.245H299.763C299.806 203.8 299.982 204.227 300.291 204.525C300.611 204.813 301 204.957 301.459 204.957C302.142 204.957 302.616 204.669 302.883 204.093H305.795C305.646 204.68 305.374 205.208 304.979 205.677C304.595 206.147 304.11 206.515 303.523 206.781C302.936 207.048 302.28 207.181 301.555 207.181C300.68 207.181 299.902 206.995 299.219 206.621C298.536 206.248 298.003 205.715 297.619 205.021C297.235 204.328 297.043 203.517 297.043 202.589C297.043 201.661 297.23 200.851 297.603 200.157C297.987 199.464 298.52 198.931 299.203 198.557C299.886 198.184 300.67 197.997 301.555 197.997C302.419 197.997 303.187 198.179 303.859 198.541C304.531 198.904 305.054 199.421 305.427 200.093C305.811 200.765 306.003 201.549 306.003 202.445ZM303.203 201.725C303.203 201.256 303.043 200.883 302.723 200.605C302.403 200.328 302.003 200.189 301.523 200.189C301.064 200.189 300.675 200.323 300.355 200.589C300.046 200.856 299.854 201.235 299.779 201.725H303.203Z" fill="white"/>
<path opacity="0.2" d="M339.39 227.882C339.652 227.62 339.652 227.195 339.39 226.933L335.117 222.66C334.855 222.398 334.43 222.398 334.168 222.66C333.906 222.923 333.906 223.348 334.168 223.61L337.966 227.407L334.168 231.205C333.906 231.467 333.906 231.892 334.168 232.154C334.43 232.416 334.855 232.416 335.117 232.154L339.39 227.882ZM232.506 228.079L338.915 228.079L338.915 226.736L232.506 226.736L232.506 228.079Z" fill="white"/>
<path opacity="0.2" d="M473.871 243.341C473.507 243.412 473.27 243.765 473.341 244.129L474.503 250.058C474.574 250.422 474.927 250.659 475.29 250.588C475.654 250.517 475.891 250.164 475.82 249.8L474.788 244.53L480.058 243.497C480.422 243.426 480.659 243.073 480.588 242.71C480.517 242.346 480.164 242.109 479.8 242.18L473.871 243.341ZM532.129 283.659C532.493 283.588 532.73 283.235 532.659 282.871L531.497 276.942C531.426 276.578 531.073 276.341 530.71 276.412C530.346 276.483 530.109 276.836 530.18 277.2L531.212 282.47L525.942 283.503C525.578 283.574 525.341 283.927 525.412 284.29C525.483 284.654 525.836 284.891 526.2 284.82L532.129 283.659ZM473.625 244.557L531.625 283.557L532.375 282.443L474.375 243.443L473.625 244.557Z" fill="white"/>
<circle cx="156.502" cy="682.502" r="28.5024" fill="url(#paint37_linear)"/>
<line x1="2.5" y1="-2.5" x2="17.9673" y2="-2.5" transform="matrix(0.648747 0.761004 -0.760996 0.648756 140 680.485)" stroke="white" stroke-width="5" stroke-linecap="round" stroke-linejoin="round"/>
<line x1="2.5" y1="-2.5" x2="30.2507" y2="-2.5" transform="matrix(-0.609998 0.792403 0.792412 0.609987 174.091 670)" stroke="white" stroke-width="5" stroke-linecap="round" stroke-linejoin="round"/>
<path d="M533.046 171.112C532.224 171.112 531.488 170.979 530.838 170.712C530.187 170.445 529.664 170.051 529.27 169.528C528.886 169.005 528.683 168.376 528.662 167.64H531.574C531.616 168.056 531.76 168.376 532.006 168.6C532.251 168.813 532.571 168.92 532.966 168.92C533.371 168.92 533.691 168.829 533.926 168.648C534.16 168.456 534.278 168.195 534.278 167.864C534.278 167.587 534.182 167.357 533.99 167.176C533.808 166.995 533.579 166.845 533.302 166.728C533.035 166.611 532.651 166.477 532.15 166.328C531.424 166.104 530.832 165.88 530.374 165.656C529.915 165.432 529.52 165.101 529.19 164.664C528.859 164.227 528.694 163.656 528.694 162.952C528.694 161.907 529.072 161.091 529.83 160.504C530.587 159.907 531.574 159.608 532.79 159.608C534.027 159.608 535.024 159.907 535.782 160.504C536.539 161.091 536.944 161.912 536.998 162.968H534.038C534.016 162.605 533.883 162.323 533.638 162.12C533.392 161.907 533.078 161.8 532.694 161.8C532.363 161.8 532.096 161.891 531.894 162.072C531.691 162.243 531.59 162.493 531.59 162.824C531.59 163.187 531.76 163.469 532.102 163.672C532.443 163.875 532.976 164.093 533.702 164.328C534.427 164.573 535.014 164.808 535.462 165.032C535.92 165.256 536.315 165.581 536.646 166.008C536.976 166.435 537.142 166.984 537.142 167.656C537.142 168.296 536.976 168.877 536.646 169.4C536.326 169.923 535.856 170.339 535.238 170.648C534.619 170.957 533.888 171.112 533.046 171.112ZM544.473 161.976C545.497 161.976 546.319 162.317 546.937 163C547.556 163.672 547.865 164.6 547.865 165.784V171H545.145V166.152C545.145 165.555 544.991 165.091 544.681 164.76C544.372 164.429 543.956 164.264 543.433 164.264C542.911 164.264 542.495 164.429 542.185 164.76C541.876 165.091 541.721 165.555 541.721 166.152V171H538.985V159.16H541.721V163.272C541.999 162.877 542.377 162.563 542.857 162.328C543.337 162.093 543.876 161.976 544.473 161.976ZM553.991 171.128C553.116 171.128 552.327 170.941 551.623 170.568C550.929 170.195 550.38 169.661 549.975 168.968C549.58 168.275 549.383 167.464 549.383 166.536C549.383 165.619 549.585 164.813 549.991 164.12C550.396 163.416 550.951 162.877 551.655 162.504C552.359 162.131 553.148 161.944 554.023 161.944C554.897 161.944 555.687 162.131 556.391 162.504C557.095 162.877 557.649 163.416 558.055 164.12C558.46 164.813 558.663 165.619 558.663 166.536C558.663 167.453 558.455 168.264 558.039 168.968C557.633 169.661 557.073 170.195 556.359 170.568C555.655 170.941 554.865 171.128 553.991 171.128ZM553.991 168.76C554.513 168.76 554.956 168.568 555.319 168.184C555.692 167.8 555.879 167.251 555.879 166.536C555.879 165.821 555.697 165.272 555.335 164.888C554.983 164.504 554.545 164.312 554.023 164.312C553.489 164.312 553.047 164.504 552.695 164.888C552.343 165.261 552.167 165.811 552.167 166.536C552.167 167.251 552.337 167.8 552.679 168.184C553.031 168.568 553.468 168.76 553.991 168.76ZM563.01 163.56C563.33 163.069 563.73 162.685 564.21 162.408C564.69 162.12 565.224 161.976 565.81 161.976V164.872H565.058C564.376 164.872 563.864 165.021 563.522 165.32C563.181 165.608 563.01 166.12 563.01 166.856V171H560.274V162.072H563.01V163.56ZM572.254 168.68V171H570.862C569.87 171 569.097 170.76 568.542 170.28C567.987 169.789 567.71 168.995 567.71 167.896V164.344H566.622V162.072H567.71V159.896H570.446V162.072H572.238V164.344H570.446V167.928C570.446 168.195 570.51 168.387 570.638 168.504C570.766 168.621 570.979 168.68 571.278 168.68H572.254ZM582.354 166.392C582.354 166.648 582.338 166.915 582.306 167.192H576.114C576.157 167.747 576.333 168.173 576.642 168.472C576.962 168.76 577.351 168.904 577.81 168.904C578.493 168.904 578.967 168.616 579.234 168.04H582.146C581.997 168.627 581.725 169.155 581.33 169.624C580.946 170.093 580.461 170.461 579.874 170.728C579.287 170.995 578.631 171.128 577.906 171.128C577.031 171.128 576.253 170.941 575.57 170.568C574.887 170.195 574.354 169.661 573.97 168.968C573.586 168.275 573.394 167.464 573.394 166.536C573.394 165.608 573.581 164.797 573.954 164.104C574.338 163.411 574.871 162.877 575.554 162.504C576.237 162.131 577.021 161.944 577.906 161.944C578.77 161.944 579.538 162.125 580.21 162.488C580.882 162.851 581.405 163.368 581.778 164.04C582.162 164.712 582.354 165.496 582.354 166.392ZM579.554 165.672C579.554 165.203 579.394 164.829 579.074 164.552C578.754 164.275 578.354 164.136 577.874 164.136C577.415 164.136 577.026 164.269 576.706 164.536C576.397 164.803 576.205 165.181 576.13 165.672H579.554ZM586.693 163.56C587.013 163.069 587.413 162.685 587.893 162.408C588.373 162.12 588.907 161.976 589.493 161.976V164.872H588.741C588.059 164.872 587.547 165.021 587.205 165.32C586.864 165.608 586.693 166.12 586.693 166.856V171H583.957V162.072H586.693V163.56ZM599.488 168.68V171H598.096C597.104 171 596.33 170.76 595.776 170.28C595.221 169.789 594.944 168.995 594.944 167.896V164.344H593.856V162.072H594.944V159.896H597.68V162.072H599.472V164.344H597.68V167.928C597.68 168.195 597.744 168.387 597.872 168.504C598 168.621 598.213 168.68 598.512 168.68H599.488ZM609.588 166.392C609.588 166.648 609.572 166.915 609.54 167.192H603.348C603.39 167.747 603.566 168.173 603.876 168.472C604.196 168.76 604.585 168.904 605.044 168.904C605.726 168.904 606.201 168.616 606.468 168.04H609.38C609.23 168.627 608.958 169.155 608.564 169.624C608.18 170.093 607.694 170.461 607.108 170.728C606.521 170.995 605.865 171.128 605.14 171.128C604.265 171.128 603.486 170.941 602.804 170.568C602.121 170.195 601.588 169.661 601.204 168.968C600.82 168.275 600.628 167.464 600.628 166.536C600.628 165.608 600.814 164.797 601.188 164.104C601.572 163.411 602.105 162.877 602.788 162.504C603.47 162.131 604.254 161.944 605.14 161.944C606.004 161.944 606.772 162.125 607.444 162.488C608.116 162.851 608.638 163.368 609.012 164.04C609.396 164.712 609.588 165.496 609.588 166.392ZM606.788 165.672C606.788 165.203 606.628 164.829 606.308 164.552C605.988 164.275 605.588 164.136 605.108 164.136C604.649 164.136 604.26 164.269 603.94 164.536C603.63 164.803 603.438 165.181 603.364 165.672H606.788ZM613.927 163.56C614.247 163.069 614.647 162.685 615.127 162.408C615.607 162.12 616.14 161.976 616.727 161.976V164.872H615.975C615.292 164.872 614.78 165.021 614.439 165.32C614.098 165.608 613.927 166.12 613.927 166.856V171H611.191V162.072H613.927V163.56ZM629.587 161.976C630.696 161.976 631.576 162.312 632.227 162.984C632.888 163.656 633.219 164.589 633.219 165.784V171H630.499V166.152C630.499 165.576 630.344 165.133 630.035 164.824C629.736 164.504 629.32 164.344 628.787 164.344C628.253 164.344 627.832 164.504 627.523 164.824C627.224 165.133 627.075 165.576 627.075 166.152V171H624.355V166.152C624.355 165.576 624.2 165.133 623.891 164.824C623.592 164.504 623.176 164.344 622.643 164.344C622.109 164.344 621.688 164.504 621.379 164.824C621.08 165.133 620.931 165.576 620.931 166.152V171H618.195V162.072H620.931V163.192C621.208 162.819 621.571 162.525 622.019 162.312C622.467 162.088 622.973 161.976 623.539 161.976C624.211 161.976 624.808 162.12 625.331 162.408C625.864 162.696 626.28 163.107 626.579 163.64C626.888 163.149 627.309 162.749 627.843 162.44C628.376 162.131 628.957 161.976 629.587 161.976ZM641.579 163.336C641.835 162.92 642.203 162.584 642.683 162.328C643.163 162.072 643.712 161.944 644.331 161.944C645.067 161.944 645.734 162.131 646.331 162.504C646.928 162.877 647.398 163.411 647.739 164.104C648.091 164.797 648.267 165.603 648.267 166.52C648.267 167.437 648.091 168.248 647.739 168.952C647.398 169.645 646.928 170.184 646.331 170.568C645.734 170.941 645.067 171.128 644.331 171.128C643.702 171.128 643.152 171.005 642.683 170.76C642.214 170.504 641.846 170.168 641.579 169.752V171H638.843V159.16H641.579V163.336ZM645.483 166.52C645.483 165.837 645.291 165.304 644.907 164.92C644.534 164.525 644.07 164.328 643.515 164.328C642.971 164.328 642.507 164.525 642.123 164.92C641.75 165.315 641.563 165.853 641.563 166.536C641.563 167.219 641.75 167.757 642.123 168.152C642.507 168.547 642.971 168.744 643.515 168.744C644.059 168.744 644.523 168.547 644.907 168.152C645.291 167.747 645.483 167.203 645.483 166.52ZM649.318 166.52C649.318 165.603 649.489 164.797 649.83 164.104C650.182 163.411 650.657 162.877 651.254 162.504C651.852 162.131 652.518 161.944 653.254 161.944C653.884 161.944 654.433 162.072 654.902 162.328C655.382 162.584 655.75 162.92 656.006 163.336V162.072H658.742V171H656.006V169.736C655.74 170.152 655.366 170.488 654.886 170.744C654.417 171 653.868 171.128 653.238 171.128C652.513 171.128 651.852 170.941 651.254 170.568C650.657 170.184 650.182 169.645 649.83 168.952C649.489 168.248 649.318 167.437 649.318 166.52ZM656.006 166.536C656.006 165.853 655.814 165.315 655.43 164.92C655.057 164.525 654.598 164.328 654.054 164.328C653.51 164.328 653.046 164.525 652.662 164.92C652.289 165.304 652.102 165.837 652.102 166.52C652.102 167.203 652.289 167.747 652.662 168.152C653.046 168.547 653.51 168.744 654.054 168.744C654.598 168.744 655.057 168.547 655.43 168.152C655.814 167.757 656.006 167.219 656.006 166.536ZM664.514 171.128C663.735 171.128 663.042 170.995 662.434 170.728C661.826 170.461 661.346 170.099 660.994 169.64C660.642 169.171 660.444 168.648 660.402 168.072H663.106C663.138 168.381 663.282 168.632 663.538 168.824C663.794 169.016 664.108 169.112 664.482 169.112C664.823 169.112 665.084 169.048 665.266 168.92C665.458 168.781 665.554 168.605 665.554 168.392C665.554 168.136 665.42 167.949 665.154 167.832C664.887 167.704 664.455 167.565 663.858 167.416C663.218 167.267 662.684 167.112 662.258 166.952C661.831 166.781 661.463 166.52 661.154 166.168C660.844 165.805 660.69 165.32 660.69 164.712C660.69 164.2 660.828 163.736 661.106 163.32C661.394 162.893 661.81 162.557 662.354 162.312C662.908 162.067 663.564 161.944 664.322 161.944C665.442 161.944 666.322 162.221 666.962 162.776C667.612 163.331 667.986 164.067 668.082 164.984H665.554C665.511 164.675 665.372 164.429 665.138 164.248C664.914 164.067 664.615 163.976 664.242 163.976C663.922 163.976 663.676 164.04 663.506 164.168C663.335 164.285 663.25 164.451 663.25 164.664C663.25 164.92 663.383 165.112 663.65 165.24C663.927 165.368 664.354 165.496 664.93 165.624C665.591 165.795 666.13 165.965 666.546 166.136C666.962 166.296 667.324 166.563 667.634 166.936C667.954 167.299 668.119 167.789 668.13 168.408C668.13 168.931 667.98 169.4 667.682 169.816C667.394 170.221 666.972 170.541 666.418 170.776C665.874 171.011 665.239 171.128 664.514 171.128ZM678.38 166.392C678.38 166.648 678.364 166.915 678.332 167.192H672.14C672.182 167.747 672.358 168.173 672.668 168.472C672.988 168.76 673.377 168.904 673.836 168.904C674.518 168.904 674.993 168.616 675.26 168.04H678.172C678.022 168.627 677.75 169.155 677.356 169.624C676.972 170.093 676.486 170.461 675.9 170.728C675.313 170.995 674.657 171.128 673.932 171.128C673.057 171.128 672.278 170.941 671.596 170.568C670.913 170.195 670.38 169.661 669.996 168.968C669.612 168.275 669.42 167.464 669.42 166.536C669.42 165.608 669.606 164.797 669.98 164.104C670.364 163.411 670.897 162.877 671.58 162.504C672.262 162.131 673.046 161.944 673.932 161.944C674.796 161.944 675.564 162.125 676.236 162.488C676.908 162.851 677.43 163.368 677.804 164.04C678.188 164.712 678.38 165.496 678.38 166.392ZM675.58 165.672C675.58 165.203 675.42 164.829 675.1 164.552C674.78 164.275 674.38 164.136 673.9 164.136C673.441 164.136 673.052 164.269 672.732 164.536C672.422 164.803 672.23 165.181 672.156 165.672H675.58ZM679.439 166.52C679.439 165.603 679.61 164.797 679.951 164.104C680.303 163.411 680.778 162.877 681.375 162.504C681.972 162.131 682.639 161.944 683.375 161.944C683.962 161.944 684.495 162.067 684.975 162.312C685.466 162.557 685.85 162.888 686.127 163.304V159.16H688.863V171H686.127V169.72C685.871 170.147 685.503 170.488 685.023 170.744C684.554 171 684.004 171.128 683.375 171.128C682.639 171.128 681.972 170.941 681.375 170.568C680.778 170.184 680.303 169.645 679.951 168.952C679.61 168.248 679.439 167.437 679.439 166.52ZM686.127 166.536C686.127 165.853 685.935 165.315 685.551 164.92C685.178 164.525 684.719 164.328 684.175 164.328C683.631 164.328 683.167 164.525 682.783 164.92C682.41 165.304 682.223 165.837 682.223 166.52C682.223 167.203 682.41 167.747 682.783 168.152C683.167 168.547 683.631 168.744 684.175 168.744C684.719 168.744 685.178 168.547 685.551 168.152C685.935 167.757 686.127 167.219 686.127 166.536ZM551.971 184.56C552.291 184.069 552.691 183.685 553.171 183.408C553.651 183.12 554.185 182.976 554.771 182.976V185.872H554.019C553.337 185.872 552.825 186.021 552.483 186.32C552.142 186.608 551.971 187.12 551.971 187.856V192H549.235V183.072H551.971V184.56ZM555.695 187.52C555.695 186.603 555.866 185.797 556.207 185.104C556.559 184.411 557.034 183.877 557.631 183.504C558.229 183.131 558.895 182.944 559.631 182.944C560.261 182.944 560.81 183.072 561.279 183.328C561.759 183.584 562.127 183.92 562.383 184.336V183.072H565.119V192H562.383V190.736C562.117 191.152 561.743 191.488 561.263 191.744C560.794 192 560.245 192.128 559.615 192.128C558.89 192.128 558.229 191.941 557.631 191.568C557.034 191.184 556.559 190.645 556.207 189.952C555.866 189.248 555.695 188.437 555.695 187.52ZM562.383 187.536C562.383 186.853 562.191 186.315 561.807 185.92C561.434 185.525 560.975 185.328 560.431 185.328C559.887 185.328 559.423 185.525 559.039 185.92C558.666 186.304 558.479 186.837 558.479 187.52C558.479 188.203 558.666 188.747 559.039 189.152C559.423 189.547 559.887 189.744 560.431 189.744C560.975 189.744 561.434 189.547 561.807 189.152C562.191 188.757 562.383 188.219 562.383 187.536ZM572.235 189.68V192H570.843C569.851 192 569.077 191.76 568.523 191.28C567.968 190.789 567.691 189.995 567.691 188.896V185.344H566.603V183.072H567.691V180.896H570.427V183.072H572.219V185.344H570.427V188.928C570.427 189.195 570.491 189.387 570.619 189.504C570.747 189.621 570.96 189.68 571.259 189.68H572.235ZM582.335 187.392C582.335 187.648 582.319 187.915 582.287 188.192H576.095C576.137 188.747 576.313 189.173 576.623 189.472C576.943 189.76 577.332 189.904 577.791 189.904C578.473 189.904 578.948 189.616 579.215 189.04H582.127C581.977 189.627 581.705 190.155 581.311 190.624C580.927 191.093 580.441 191.461 579.855 191.728C579.268 191.995 578.612 192.128 577.887 192.128C577.012 192.128 576.233 191.941 575.551 191.568C574.868 191.195 574.335 190.661 573.951 189.968C573.567 189.275 573.375 188.464 573.375 187.536C573.375 186.608 573.561 185.797 573.935 185.104C574.319 184.411 574.852 183.877 575.535 183.504C576.217 183.131 577.001 182.944 577.887 182.944C578.751 182.944 579.519 183.125 580.191 183.488C580.863 183.851 581.385 184.368 581.759 185.04C582.143 185.712 582.335 186.496 582.335 187.392ZM579.535 186.672C579.535 186.203 579.375 185.829 579.055 185.552C578.735 185.275 578.335 185.136 577.855 185.136C577.396 185.136 577.007 185.269 576.687 185.536C576.377 185.803 576.185 186.181 576.111 186.672H579.535ZM587.57 192.128C586.791 192.128 586.098 191.995 585.49 191.728C584.882 191.461 584.402 191.099 584.05 190.64C583.698 190.171 583.501 189.648 583.458 189.072H586.162C586.194 189.381 586.338 189.632 586.594 189.824C586.85 190.016 587.165 190.112 587.538 190.112C587.879 190.112 588.141 190.048 588.322 189.92C588.514 189.781 588.61 189.605 588.61 189.392C588.61 189.136 588.477 188.949 588.21 188.832C587.943 188.704 587.511 188.565 586.914 188.416C586.274 188.267 585.741 188.112 585.314 187.952C584.887 187.781 584.519 187.52 584.21 187.168C583.901 186.805 583.746 186.32 583.746 185.712C583.746 185.2 583.885 184.736 584.162 184.32C584.45 183.893 584.866 183.557 585.41 183.312C585.965 183.067 586.621 182.944 587.378 182.944C588.498 182.944 589.378 183.221 590.018 183.776C590.669 184.331 591.042 185.067 591.138 185.984H588.61C588.567 185.675 588.429 185.429 588.194 185.248C587.97 185.067 587.671 184.976 587.298 184.976C586.978 184.976 586.733 185.04 586.562 185.168C586.391 185.285 586.306 185.451 586.306 185.664C586.306 185.92 586.439 186.112 586.706 186.24C586.983 186.368 587.41 186.496 587.986 186.624C588.647 186.795 589.186 186.965 589.602 187.136C590.018 187.296 590.381 187.563 590.69 187.936C591.01 188.299 591.175 188.789 591.186 189.408C591.186 189.931 591.037 190.4 590.738 190.816C590.45 191.221 590.029 191.541 589.474 191.776C588.93 192.011 588.295 192.128 587.57 192.128ZM595.964 189.472L594.188 194.064H592.444L593.372 189.472H595.964ZM604.06 180.16V192H601.324V180.16H604.06ZM607.579 182.144C607.099 182.144 606.704 182.005 606.395 181.728C606.096 181.44 605.947 181.088 605.947 180.672C605.947 180.245 606.096 179.893 606.395 179.616C606.704 179.328 607.099 179.184 607.579 179.184C608.048 179.184 608.432 179.328 608.731 179.616C609.04 179.893 609.195 180.245 609.195 180.672C609.195 181.088 609.04 181.44 608.731 181.728C608.432 182.005 608.048 182.144 607.579 182.144ZM608.939 183.072V192H606.203V183.072H608.939ZM610.538 187.552C610.538 186.667 610.719 185.877 611.082 185.184C611.455 184.491 611.951 183.952 612.57 183.568C613.199 183.173 613.882 182.976 614.618 182.976C615.183 182.976 615.69 183.077 616.138 183.28C616.586 183.472 616.948 183.744 617.226 184.096V183.072H619.962V196.256H617.226V190.88C616.916 191.253 616.538 191.552 616.09 191.776C615.652 192 615.151 192.112 614.586 192.112C613.86 192.112 613.188 191.92 612.57 191.536C611.951 191.152 611.455 190.613 611.082 189.92C610.719 189.227 610.538 188.437 610.538 187.552ZM617.226 187.536C617.226 187.056 617.13 186.656 616.938 186.336C616.756 186.005 616.516 185.76 616.218 185.6C615.919 185.429 615.604 185.344 615.274 185.344C614.954 185.344 614.644 185.429 614.346 185.6C614.047 185.76 613.802 186.005 613.61 186.336C613.418 186.667 613.322 187.072 613.322 187.552C613.322 188.032 613.418 188.437 613.61 188.768C613.802 189.088 614.047 189.333 614.346 189.504C614.644 189.664 614.954 189.744 615.274 189.744C615.594 189.744 615.903 189.664 616.202 189.504C616.511 189.333 616.756 189.083 616.938 188.752C617.13 188.421 617.226 188.016 617.226 187.536ZM630.917 183.072V192H628.181V190.784C627.904 191.179 627.525 191.499 627.045 191.744C626.576 191.979 626.053 192.096 625.477 192.096C624.794 192.096 624.192 191.947 623.669 191.648C623.146 191.339 622.741 190.896 622.453 190.32C622.165 189.744 622.021 189.067 622.021 188.288V183.072H624.741V187.92C624.741 188.517 624.896 188.981 625.205 189.312C625.514 189.643 625.93 189.808 626.453 189.808C626.986 189.808 627.408 189.643 627.717 189.312C628.026 188.981 628.181 188.517 628.181 187.92V183.072H630.917ZM634.418 182.144C633.938 182.144 633.544 182.005 633.234 181.728C632.936 181.44 632.786 181.088 632.786 180.672C632.786 180.245 632.936 179.893 633.234 179.616C633.544 179.328 633.938 179.184 634.418 179.184C634.888 179.184 635.272 179.328 635.57 179.616C635.88 179.893 636.034 180.245 636.034 180.672C636.034 181.088 635.88 181.44 635.57 181.728C635.272 182.005 634.888 182.144 634.418 182.144ZM635.778 183.072V192H633.042V183.072H635.778ZM637.377 187.52C637.377 186.603 637.548 185.797 637.889 185.104C638.241 184.411 638.716 183.877 639.313 183.504C639.91 183.131 640.577 182.944 641.313 182.944C641.9 182.944 642.433 183.067 642.913 183.312C643.404 183.557 643.788 183.888 644.065 184.304V180.16H646.801V192H644.065V190.72C643.809 191.147 643.441 191.488 642.961 191.744C642.492 192 641.942 192.128 641.313 192.128C640.577 192.128 639.91 191.941 639.313 191.568C638.716 191.184 638.241 190.645 637.889 189.952C637.548 189.248 637.377 188.437 637.377 187.52ZM644.065 187.536C644.065 186.853 643.873 186.315 643.489 185.92C643.116 185.525 642.657 185.328 642.113 185.328C641.569 185.328 641.105 185.525 640.721 185.92C640.348 186.304 640.161 186.837 640.161 187.52C640.161 188.203 640.348 188.747 640.721 189.152C641.105 189.547 641.569 189.744 642.113 189.744C642.657 189.744 643.116 189.547 643.489 189.152C643.873 188.757 644.065 188.219 644.065 187.536ZM650.316 182.144C649.836 182.144 649.442 182.005 649.132 181.728C648.834 181.44 648.684 181.088 648.684 180.672C648.684 180.245 648.834 179.893 649.132 179.616C649.442 179.328 649.836 179.184 650.316 179.184C650.786 179.184 651.17 179.328 651.468 179.616C651.778 179.893 651.932 180.245 651.932 180.672C651.932 181.088 651.778 181.44 651.468 181.728C651.17 182.005 650.786 182.144 650.316 182.144ZM651.676 183.072V192H648.94V183.072H651.676ZM658.795 189.68V192H657.403C656.411 192 655.638 191.76 655.083 191.28C654.529 190.789 654.251 189.995 654.251 188.896V185.344H653.163V183.072H654.251V180.896H656.987V183.072H658.779V185.344H656.987V188.928C656.987 189.195 657.051 189.387 657.179 189.504C657.307 189.621 657.521 189.68 657.819 189.68H658.795ZM669.599 183.072L663.999 196.24H661.055L663.103 191.696L659.471 183.072H662.527L664.591 188.656L666.639 183.072H669.599ZM521.828 208.392C521.828 208.648 521.812 208.915 521.78 209.192H515.588C515.63 209.747 515.806 210.173 516.116 210.472C516.436 210.76 516.825 210.904 517.284 210.904C517.966 210.904 518.441 210.616 518.708 210.04H521.62C521.47 210.627 521.198 211.155 520.804 211.624C520.42 212.093 519.934 212.461 519.348 212.728C518.761 212.995 518.105 213.128 517.38 213.128C516.505 213.128 515.726 212.941 515.044 212.568C514.361 212.195 513.828 211.661 513.444 210.968C513.06 210.275 512.868 209.464 512.868 208.536C512.868 207.608 513.054 206.797 513.428 206.104C513.812 205.411 514.345 204.877 515.028 204.504C515.71 204.131 516.494 203.944 517.38 203.944C518.244 203.944 519.012 204.125 519.684 204.488C520.356 204.851 520.878 205.368 521.252 206.04C521.636 206.712 521.828 207.496 521.828 208.392ZM519.028 207.672C519.028 207.203 518.868 206.829 518.548 206.552C518.228 206.275 517.828 206.136 517.348 206.136C516.889 206.136 516.5 206.269 516.18 206.536C515.87 206.803 515.678 207.181 515.604 207.672H519.028ZM528.711 213L526.999 210.52L525.559 213H522.599L525.543 208.44L522.519 204.072H525.591L527.303 206.536L528.743 204.072H531.703L528.711 208.568L531.783 213H528.711ZM535.733 205.336C536 204.92 536.368 204.584 536.837 204.328C537.307 204.072 537.856 203.944 538.485 203.944C539.221 203.944 539.888 204.131 540.485 204.504C541.083 204.877 541.552 205.411 541.893 206.104C542.245 206.797 542.421 207.603 542.421 208.52C542.421 209.437 542.245 210.248 541.893 210.952C541.552 211.645 541.083 212.184 540.485 212.568C539.888 212.941 539.221 213.128 538.485 213.128C537.867 213.128 537.317 213 536.837 212.744C536.368 212.488 536 212.157 535.733 211.752V217.256H532.997V204.072H535.733V205.336ZM539.637 208.52C539.637 207.837 539.445 207.304 539.061 206.92C538.688 206.525 538.224 206.328 537.669 206.328C537.125 206.328 536.661 206.525 536.277 206.92C535.904 207.315 535.717 207.853 535.717 208.536C535.717 209.219 535.904 209.757 536.277 210.152C536.661 210.547 537.125 210.744 537.669 210.744C538.213 210.744 538.677 210.547 539.061 210.152C539.445 209.747 539.637 209.203 539.637 208.52ZM543.473 208.52C543.473 207.603 543.643 206.797 543.985 206.104C544.337 205.411 544.811 204.877 545.409 204.504C546.006 204.131 546.673 203.944 547.409 203.944C548.038 203.944 548.587 204.072 549.057 204.328C549.537 204.584 549.905 204.92 550.161 205.336V204.072H552.897V213H550.161V211.736C549.894 212.152 549.521 212.488 549.041 212.744C548.571 213 548.022 213.128 547.393 213.128C546.667 213.128 546.006 212.941 545.409 212.568C544.811 212.184 544.337 211.645 543.985 210.952C543.643 210.248 543.473 209.437 543.473 208.52ZM550.161 208.536C550.161 207.853 549.969 207.315 549.585 206.92C549.211 206.525 548.753 206.328 548.209 206.328C547.665 206.328 547.201 206.525 546.817 206.92C546.443 207.304 546.257 207.837 546.257 208.52C546.257 209.203 546.443 209.747 546.817 210.152C547.201 210.547 547.665 210.744 548.209 210.744C548.753 210.744 549.211 210.547 549.585 210.152C549.969 209.757 550.161 209.219 550.161 208.536ZM560.476 203.976C561.521 203.976 562.353 204.317 562.972 205C563.601 205.672 563.916 206.6 563.916 207.784V213H561.196V208.152C561.196 207.555 561.041 207.091 560.732 206.76C560.423 206.429 560.007 206.264 559.484 206.264C558.961 206.264 558.545 206.429 558.236 206.76C557.927 207.091 557.772 207.555 557.772 208.152V213H555.036V204.072H557.772V205.256C558.049 204.861 558.423 204.552 558.892 204.328C559.361 204.093 559.889 203.976 560.476 203.976ZM569.609 213.128C568.831 213.128 568.137 212.995 567.529 212.728C566.921 212.461 566.441 212.099 566.089 211.64C565.737 211.171 565.54 210.648 565.497 210.072H568.201C568.233 210.381 568.377 210.632 568.633 210.824C568.889 211.016 569.204 211.112 569.577 211.112C569.919 211.112 570.18 211.048 570.361 210.92C570.553 210.781 570.649 210.605 570.649 210.392C570.649 210.136 570.516 209.949 570.249 209.832C569.983 209.704 569.551 209.565 568.953 209.416C568.313 209.267 567.78 209.112 567.353 208.952C566.927 208.781 566.559 208.52 566.249 208.168C565.94 207.805 565.785 207.32 565.785 206.712C565.785 206.2 565.924 205.736 566.201 205.32C566.489 204.893 566.905 204.557 567.449 204.312C568.004 204.067 568.66 203.944 569.417 203.944C570.537 203.944 571.417 204.221 572.057 204.776C572.708 205.331 573.081 206.067 573.177 206.984H570.649C570.607 206.675 570.468 206.429 570.233 206.248C570.009 206.067 569.711 205.976 569.337 205.976C569.017 205.976 568.772 206.04 568.601 206.168C568.431 206.285 568.345 206.451 568.345 206.664C568.345 206.92 568.479 207.112 568.745 207.24C569.023 207.368 569.449 207.496 570.025 207.624C570.687 207.795 571.225 207.965 571.641 208.136C572.057 208.296 572.42 208.563 572.729 208.936C573.049 209.299 573.215 209.789 573.225 210.408C573.225 210.931 573.076 211.4 572.777 211.816C572.489 212.221 572.068 212.541 571.513 212.776C570.969 213.011 570.335 213.128 569.609 213.128ZM576.435 203.144C575.955 203.144 575.561 203.005 575.251 202.728C574.953 202.44 574.803 202.088 574.803 201.672C574.803 201.245 574.953 200.893 575.251 200.616C575.561 200.328 575.955 200.184 576.435 200.184C576.905 200.184 577.289 200.328 577.587 200.616C577.897 200.893 578.051 201.245 578.051 201.672C578.051 202.088 577.897 202.44 577.587 202.728C577.289 203.005 576.905 203.144 576.435 203.144ZM577.795 204.072V213H575.059V204.072H577.795ZM584.002 213.128C583.127 213.128 582.338 212.941 581.634 212.568C580.941 212.195 580.391 211.661 579.986 210.968C579.591 210.275 579.394 209.464 579.394 208.536C579.394 207.619 579.597 206.813 580.002 206.12C580.407 205.416 580.962 204.877 581.666 204.504C582.37 204.131 583.159 203.944 584.034 203.944C584.909 203.944 585.698 204.131 586.402 204.504C587.106 204.877 587.661 205.416 588.066 206.12C588.471 206.813 588.674 207.619 588.674 208.536C588.674 209.453 588.466 210.264 588.05 210.968C587.645 211.661 587.085 212.195 586.37 212.568C585.666 212.941 584.877 213.128 584.002 213.128ZM584.002 210.76C584.525 210.76 584.967 210.568 585.33 210.184C585.703 209.8 585.89 209.251 585.89 208.536C585.89 207.821 585.709 207.272 585.346 206.888C584.994 206.504 584.557 206.312 584.034 206.312C583.501 206.312 583.058 206.504 582.706 206.888C582.354 207.261 582.178 207.811 582.178 208.536C582.178 209.251 582.349 209.8 582.69 210.184C583.042 210.568 583.479 210.76 584.002 210.76ZM595.725 203.976C596.771 203.976 597.603 204.317 598.221 205C598.851 205.672 599.165 206.6 599.165 207.784V213H596.445V208.152C596.445 207.555 596.291 207.091 595.981 206.76C595.672 206.429 595.256 206.264 594.733 206.264C594.211 206.264 593.795 206.429 593.485 206.76C593.176 207.091 593.021 207.555 593.021 208.152V213H590.285V204.072H593.021V205.256C593.299 204.861 593.672 204.552 594.141 204.328C594.611 204.093 595.139 203.976 595.725 203.976ZM604.233 208.52C604.233 207.603 604.404 206.797 604.745 206.104C605.097 205.411 605.572 204.877 606.169 204.504C606.767 204.131 607.433 203.944 608.169 203.944C608.799 203.944 609.348 204.072 609.817 204.328C610.297 204.584 610.665 204.92 610.921 205.336V204.072H613.657V213H610.921V211.736C610.655 212.152 610.281 212.488 609.801 212.744C609.332 213 608.783 213.128 608.153 213.128C607.428 213.128 606.767 212.941 606.169 212.568C605.572 212.184 605.097 211.645 604.745 210.952C604.404 210.248 604.233 209.437 604.233 208.52ZM610.921 208.536C610.921 207.853 610.729 207.315 610.345 206.92C609.972 206.525 609.513 206.328 608.969 206.328C608.425 206.328 607.961 206.525 607.577 206.92C607.204 207.304 607.017 207.837 607.017 208.52C607.017 209.203 607.204 209.747 607.577 210.152C607.961 210.547 608.425 210.744 608.969 210.744C609.513 210.744 609.972 210.547 610.345 210.152C610.729 209.757 610.921 209.219 610.921 208.536ZM621.237 203.976C622.282 203.976 623.114 204.317 623.733 205C624.362 205.672 624.677 206.6 624.677 207.784V213H621.957V208.152C621.957 207.555 621.802 207.091 621.493 206.76C621.183 206.429 620.767 206.264 620.245 206.264C619.722 206.264 619.306 206.429 618.997 206.76C618.687 207.091 618.533 207.555 618.533 208.152V213H615.797V204.072H618.533V205.256C618.81 204.861 619.183 204.552 619.653 204.328C620.122 204.093 620.65 203.976 621.237 203.976ZM626.194 208.52C626.194 207.603 626.365 206.797 626.706 206.104C627.058 205.411 627.533 204.877 628.13 204.504C628.727 204.131 629.394 203.944 630.13 203.944C630.717 203.944 631.25 204.067 631.73 204.312C632.221 204.557 632.605 204.888 632.882 205.304V201.16H635.618V213H632.882V211.72C632.626 212.147 632.258 212.488 631.778 212.744C631.309 213 630.759 213.128 630.13 213.128C629.394 213.128 628.727 212.941 628.13 212.568C627.533 212.184 627.058 211.645 626.706 210.952C626.365 210.248 626.194 209.437 626.194 208.52ZM632.882 208.536C632.882 207.853 632.69 207.315 632.306 206.92C631.933 206.525 631.474 206.328 630.93 206.328C630.386 206.328 629.922 206.525 629.538 206.92C629.165 207.304 628.978 207.837 628.978 208.52C628.978 209.203 629.165 209.747 629.538 210.152C629.922 210.547 630.386 210.744 630.93 210.744C631.474 210.744 631.933 210.547 632.306 210.152C632.69 209.757 632.882 209.219 632.882 208.536ZM642.684 203.144C642.204 203.144 641.809 203.005 641.5 202.728C641.201 202.44 641.052 202.088 641.052 201.672C641.052 201.245 641.201 200.893 641.5 200.616C641.809 200.328 642.204 200.184 642.684 200.184C643.153 200.184 643.537 200.328 643.836 200.616C644.145 200.893 644.3 201.245 644.3 201.672C644.3 202.088 644.145 202.44 643.836 202.728C643.537 203.005 643.153 203.144 642.684 203.144ZM644.044 204.072V213H641.308V204.072H644.044ZM651.627 203.976C652.672 203.976 653.504 204.317 654.123 205C654.752 205.672 655.067 206.6 655.067 207.784V213H652.347V208.152C652.347 207.555 652.192 207.091 651.883 206.76C651.573 206.429 651.157 206.264 650.635 206.264C650.112 206.264 649.696 206.429 649.387 206.76C649.077 207.091 648.923 207.555 648.923 208.152V213H646.187V204.072H648.923V205.256C649.2 204.861 649.573 204.552 650.043 204.328C650.512 204.093 651.04 203.976 651.627 203.976ZM662.104 210.68V213H660.712C659.72 213 658.947 212.76 658.392 212.28C657.837 211.789 657.56 210.995 657.56 209.896V206.344H656.472V204.072H657.56V201.896H660.296V204.072H662.088V206.344H660.296V209.928C660.296 210.195 660.36 210.387 660.488 210.504C660.616 210.621 660.829 210.68 661.128 210.68H662.104ZM672.204 208.392C672.204 208.648 672.188 208.915 672.156 209.192H665.964C666.007 209.747 666.183 210.173 666.492 210.472C666.812 210.76 667.201 210.904 667.66 210.904C668.343 210.904 668.817 210.616 669.084 210.04H671.996C671.847 210.627 671.575 211.155 671.18 211.624C670.796 212.093 670.311 212.461 669.724 212.728C669.137 212.995 668.481 213.128 667.756 213.128C666.881 213.128 666.103 212.941 665.42 212.568C664.737 212.195 664.204 211.661 663.82 210.968C663.436 210.275 663.244 209.464 663.244 208.536C663.244 207.608 663.431 206.797 663.804 206.104C664.188 205.411 664.721 204.877 665.404 204.504C666.087 204.131 666.871 203.944 667.756 203.944C668.62 203.944 669.388 204.125 670.06 204.488C670.732 204.851 671.255 205.368 671.628 206.04C672.012 206.712 672.204 207.496 672.204 208.392ZM669.404 207.672C669.404 207.203 669.244 206.829 668.924 206.552C668.604 206.275 668.204 206.136 667.724 206.136C667.265 206.136 666.876 206.269 666.556 206.536C666.247 206.803 666.055 207.181 665.98 207.672H669.404ZM676.543 205.56C676.863 205.069 677.263 204.685 677.743 204.408C678.223 204.12 678.757 203.976 679.343 203.976V206.872H678.591C677.909 206.872 677.397 207.021 677.055 207.32C676.714 207.608 676.543 208.12 676.543 208.856V213H673.807V204.072H676.543V205.56ZM689.227 208.392C689.227 208.648 689.211 208.915 689.179 209.192H682.987C683.03 209.747 683.206 210.173 683.515 210.472C683.835 210.76 684.224 210.904 684.683 210.904C685.366 210.904 685.84 210.616 686.107 210.04H689.019C688.87 210.627 688.598 211.155 688.203 211.624C687.819 212.093 687.334 212.461 686.747 212.728C686.16 212.995 685.504 213.128 684.779 213.128C683.904 213.128 683.126 212.941 682.443 212.568C681.76 212.195 681.227 211.661 680.843 210.968C680.459 210.275 680.267 209.464 680.267 208.536C680.267 207.608 680.454 206.797 680.827 206.104C681.211 205.411 681.744 204.877 682.427 204.504C683.11 204.131 683.894 203.944 684.779 203.944C685.643 203.944 686.411 204.125 687.083 204.488C687.755 204.851 688.278 205.368 688.651 206.04C689.035 206.712 689.227 207.496 689.227 208.392ZM686.427 207.672C686.427 207.203 686.267 206.829 685.947 206.552C685.627 206.275 685.227 206.136 684.747 206.136C684.288 206.136 683.899 206.269 683.579 206.536C683.27 206.803 683.078 207.181 683.003 207.672H686.427ZM694.462 213.128C693.684 213.128 692.99 212.995 692.382 212.728C691.774 212.461 691.294 212.099 690.942 211.64C690.59 211.171 690.393 210.648 690.35 210.072H693.054C693.086 210.381 693.23 210.632 693.486 210.824C693.742 211.016 694.057 211.112 694.43 211.112C694.772 211.112 695.033 211.048 695.214 210.92C695.406 210.781 695.502 210.605 695.502 210.392C695.502 210.136 695.369 209.949 695.102 209.832C694.836 209.704 694.404 209.565 693.806 209.416C693.166 209.267 692.633 209.112 692.206 208.952C691.78 208.781 691.412 208.52 691.102 208.168C690.793 207.805 690.638 207.32 690.638 206.712C690.638 206.2 690.777 205.736 691.054 205.32C691.342 204.893 691.758 204.557 692.302 204.312C692.857 204.067 693.513 203.944 694.27 203.944C695.39 203.944 696.27 204.221 696.91 204.776C697.561 205.331 697.934 206.067 698.03 206.984H695.502C695.46 206.675 695.321 206.429 695.086 206.248C694.862 206.067 694.564 205.976 694.19 205.976C693.87 205.976 693.625 206.04 693.454 206.168C693.284 206.285 693.198 206.451 693.198 206.664C693.198 206.92 693.332 207.112 693.598 207.24C693.876 207.368 694.302 207.496 694.878 207.624C695.54 207.795 696.078 207.965 696.494 208.136C696.91 208.296 697.273 208.563 697.582 208.936C697.902 209.299 698.068 209.789 698.078 210.408C698.078 210.931 697.929 211.4 697.63 211.816C697.342 212.221 696.921 212.541 696.366 212.776C695.822 213.011 695.188 213.128 694.462 213.128ZM704.888 210.68V213H703.496C702.504 213 701.731 212.76 701.176 212.28C700.622 211.789 700.344 210.995 700.344 209.896V206.344H699.256V204.072H700.344V201.896H703.08V204.072H704.872V206.344H703.08V209.928C703.08 210.195 703.144 210.387 703.272 210.504C703.4 210.621 703.614 210.68 703.912 210.68H704.888ZM579.882 224.144C579.402 224.144 579.007 224.005 578.698 223.728C578.399 223.44 578.25 223.088 578.25 222.672C578.25 222.245 578.399 221.893 578.698 221.616C579.007 221.328 579.402 221.184 579.882 221.184C580.351 221.184 580.735 221.328 581.034 221.616C581.343 221.893 581.498 222.245 581.498 222.672C581.498 223.088 581.343 223.44 581.034 223.728C580.735 224.005 580.351 224.144 579.882 224.144ZM581.242 225.072V234H578.506V225.072H581.242ZM588.825 224.976C589.87 224.976 590.702 225.317 591.321 226C591.95 226.672 592.265 227.6 592.265 228.784V234H589.545V229.152C589.545 228.555 589.39 228.091 589.081 227.76C588.771 227.429 588.355 227.264 587.833 227.264C587.31 227.264 586.894 227.429 586.585 227.76C586.275 228.091 586.121 228.555 586.121 229.152V234H583.385V225.072H586.121V226.256C586.398 225.861 586.771 225.552 587.241 225.328C587.71 225.093 588.238 224.976 588.825 224.976ZM593.782 229.536C593.782 228.608 593.969 227.797 594.342 227.104C594.726 226.411 595.254 225.877 595.926 225.504C596.609 225.131 597.387 224.944 598.262 224.944C599.382 224.944 600.315 225.237 601.062 225.824C601.819 226.411 602.315 227.237 602.55 228.304H599.638C599.393 227.621 598.918 227.28 598.214 227.28C597.713 227.28 597.313 227.477 597.014 227.872C596.715 228.256 596.566 228.811 596.566 229.536C596.566 230.261 596.715 230.821 597.014 231.216C597.313 231.6 597.713 231.792 598.214 231.792C598.918 231.792 599.393 231.451 599.638 230.768H602.55C602.315 231.813 601.819 232.635 601.062 233.232C600.305 233.829 599.371 234.128 598.262 234.128C597.387 234.128 596.609 233.941 595.926 233.568C595.254 233.195 594.726 232.661 594.342 231.968C593.969 231.275 593.782 230.464 593.782 229.536ZM608.238 234.128C607.363 234.128 606.574 233.941 605.87 233.568C605.176 233.195 604.627 232.661 604.222 231.968C603.827 231.275 603.63 230.464 603.63 229.536C603.63 228.619 603.832 227.813 604.238 227.12C604.643 226.416 605.198 225.877 605.902 225.504C606.606 225.131 607.395 224.944 608.27 224.944C609.144 224.944 609.934 225.131 610.638 225.504C611.342 225.877 611.896 226.416 612.302 227.12C612.707 227.813 612.91 228.619 612.91 229.536C612.91 230.453 612.702 231.264 612.286 231.968C611.88 232.661 611.32 233.195 610.606 233.568C609.902 233.941 609.112 234.128 608.238 234.128ZM608.238 231.76C608.76 231.76 609.203 231.568 609.566 231.184C609.939 230.8 610.126 230.251 610.126 229.536C610.126 228.821 609.944 228.272 609.582 227.888C609.23 227.504 608.792 227.312 608.27 227.312C607.736 227.312 607.294 227.504 606.942 227.888C606.59 228.261 606.414 228.811 606.414 229.536C606.414 230.251 606.584 230.8 606.926 231.184C607.278 231.568 607.715 231.76 608.238 231.76ZM625.913 224.976C627.022 224.976 627.902 225.312 628.553 225.984C629.214 226.656 629.545 227.589 629.545 228.784V234H626.825V229.152C626.825 228.576 626.67 228.133 626.361 227.824C626.062 227.504 625.646 227.344 625.113 227.344C624.58 227.344 624.158 227.504 623.849 227.824C623.55 228.133 623.401 228.576 623.401 229.152V234H620.681V229.152C620.681 228.576 620.526 228.133 620.217 227.824C619.918 227.504 619.502 227.344 618.969 227.344C618.436 227.344 618.014 227.504 617.705 227.824C617.406 228.133 617.257 228.576 617.257 229.152V234H614.521V225.072H617.257V226.192C617.534 225.819 617.897 225.525 618.345 225.312C618.793 225.088 619.3 224.976 619.865 224.976C620.537 224.976 621.134 225.12 621.657 225.408C622.19 225.696 622.606 226.107 622.905 226.64C623.214 226.149 623.636 225.749 624.169 225.44C624.702 225.131 625.284 224.976 625.913 224.976ZM640.035 229.392C640.035 229.648 640.019 229.915 639.987 230.192H633.795C633.837 230.747 634.013 231.173 634.323 231.472C634.643 231.76 635.032 231.904 635.491 231.904C636.173 231.904 636.648 231.616 636.915 231.04H639.827C639.677 231.627 639.405 232.155 639.011 232.624C638.627 233.093 638.141 233.461 637.555 233.728C636.968 233.995 636.312 234.128 635.587 234.128C634.712 234.128 633.933 233.941 633.251 233.568C632.568 233.195 632.035 232.661 631.651 231.968C631.267 231.275 631.075 230.464 631.075 229.536C631.075 228.608 631.261 227.797 631.635 227.104C632.019 226.411 632.552 225.877 633.235 225.504C633.917 225.131 634.701 224.944 635.587 224.944C636.451 224.944 637.219 225.125 637.891 225.488C638.563 225.851 639.085 226.368 639.459 227.04C639.843 227.712 640.035 228.496 640.035 229.392ZM637.235 228.672C637.235 228.203 637.075 227.829 636.755 227.552C636.435 227.275 636.035 227.136 635.555 227.136C635.096 227.136 634.707 227.269 634.387 227.536C634.077 227.803 633.885 228.181 633.811 228.672H637.235Z" fill="white"/>
<defs>
<filter id="filter0_f" x="0.203125" y="0.805176" width="818.035" height="818.035" filterUnits="userSpaceOnUse" color-interpolation-filters="sRGB">
<feFlood flood-opacity="0" result="BackgroundImageFix"/>
<feBlend mode="normal" in="SourceGraphic" in2="BackgroundImageFix" result="shape"/>
<feGaussianBlur stdDeviation="100" result="effect1_foregroundBlur"/>
</filter>
<filter id="filter1_ddd" x="488.441" y="457.833" width="168.686" height="176.488" filterUnits="userSpaceOnUse" color-interpolation-filters="sRGB">
<feFlood flood-opacity="0" result="BackgroundImageFix"/>
<feColorMatrix in="SourceAlpha" type="matrix" values="0 0 0 0 0 0 0 0 0 0 0 0 0 0 0 0 0 0 127 0"/>
<feMorphology radius="7.16057" operator="dilate" in="SourceAlpha" result="effect1_dropShadow"/>
<feOffset dy="20.5866"/>
<feGaussianBlur stdDeviation="13.4261"/>
<feColorMatrix type="matrix" values="0 0 0 0 0 0 0 0 0 0.0876457 0 0 0 0 0.391667 0 0 0 0.05 0"/>
<feBlend mode="normal" in2="BackgroundImageFix" result="effect1_dropShadow"/>
<feColorMatrix in="SourceAlpha" type="matrix" values="0 0 0 0 0 0 0 0 0 0 0 0 0 0 0 0 0 0 127 0"/>
<feOffset dy="42.0684"/>
<feGaussianBlur stdDeviation="2.68521"/>
<feColorMatrix type="matrix" values="0 0 0 0 0.121569 0 0 0 0 0.247059 0 0 0 0 0.682353 0 0 0 0.02 0"/>
<feBlend mode="normal" in2="effect1_dropShadow" result="effect2_dropShadow"/>
<feColorMatrix in="SourceAlpha" type="matrix" values="0 0 0 0 0 0 0 0 0 0 0 0 0 0 0 0 0 0 127 0"/>
<feOffset dy="51.0191"/>
<feGaussianBlur stdDeviation="8.95072"/>
<feColorMatrix type="matrix" values="0 0 0 0 0.121569 0 0 0 0 0.247059 0 0 0 0 0.682353 0 0 0 0.02 0"/>
<feBlend mode="normal" in2="effect2_dropShadow" result="effect3_dropShadow"/>
<feBlend mode="normal" in="SourceGraphic" in2="effect3_dropShadow" result="shape"/>
</filter>
<filter id="filter2_ddd" x="168.36" y="457.833" width="168.686" height="176.488" filterUnits="userSpaceOnUse" color-interpolation-filters="sRGB">
<feFlood flood-opacity="0" result="BackgroundImageFix"/>
<feColorMatrix in="SourceAlpha" type="matrix" values="0 0 0 0 0 0 0 0 0 0 0 0 0 0 0 0 0 0 127 0"/>
<feMorphology radius="7.16057" operator="dilate" in="SourceAlpha" result="effect1_dropShadow"/>
<feOffset dy="20.5866"/>
<feGaussianBlur stdDeviation="13.4261"/>
<feColorMatrix type="matrix" values="0 0 0 0 0 0 0 0 0 0.0876457 0 0 0 0 0.391667 0 0 0 0.05 0"/>
<feBlend mode="normal" in2="BackgroundImageFix" result="effect1_dropShadow"/>
<feColorMatrix in="SourceAlpha" type="matrix" values="0 0 0 0 0 0 0 0 0 0 0 0 0 0 0 0 0 0 127 0"/>
<feOffset dy="42.0684"/>
<feGaussianBlur stdDeviation="2.68521"/>
<feColorMatrix type="matrix" values="0 0 0 0 0.121569 0 0 0 0 0.247059 0 0 0 0 0.682353 0 0 0 0.02 0"/>
<feBlend mode="normal" in2="effect1_dropShadow" result="effect2_dropShadow"/>
<feColorMatrix in="SourceAlpha" type="matrix" values="0 0 0 0 0 0 0 0 0 0 0 0 0 0 0 0 0 0 127 0"/>
<feOffset dy="51.0191"/>
<feGaussianBlur stdDeviation="8.95072"/>
<feColorMatrix type="matrix" values="0 0 0 0 0.121569 0 0 0 0 0.247059 0 0 0 0 0.682353 0 0 0 0.02 0"/>
<feBlend mode="normal" in2="effect2_dropShadow" result="effect3_dropShadow"/>
<feBlend mode="normal" in="SourceGraphic" in2="effect3_dropShadow" result="shape"/>
</filter>
<filter id="filter3_ddd" x="497.942" y="258.316" width="168.686" height="176.488" filterUnits="userSpaceOnUse" color-interpolation-filters="sRGB">
<feFlood flood-opacity="0" result="BackgroundImageFix"/>
<feColorMatrix in="SourceAlpha" type="matrix" values="0 0 0 0 0 0 0 0 0 0 0 0 0 0 0 0 0 0 127 0"/>
<feMorphology radius="7.16057" operator="dilate" in="SourceAlpha" result="effect1_dropShadow"/>
<feOffset dy="20.5866"/>
<feGaussianBlur stdDeviation="13.4261"/>
<feColorMatrix type="matrix" values="0 0 0 0 0 0 0 0 0 0.0876457 0 0 0 0 0.391667 0 0 0 0.05 0"/>
<feBlend mode="normal" in2="BackgroundImageFix" result="effect1_dropShadow"/>
<feColorMatrix in="SourceAlpha" type="matrix" values="0 0 0 0 0 0 0 0 0 0 0 0 0 0 0 0 0 0 127 0"/>
<feOffset dy="42.0684"/>
<feGaussianBlur stdDeviation="2.68521"/>
<feColorMatrix type="matrix" values="0 0 0 0 0.121569 0 0 0 0 0.247059 0 0 0 0 0.682353 0 0 0 0.02 0"/>
<feBlend mode="normal" in2="effect1_dropShadow" result="effect2_dropShadow"/>
<feColorMatrix in="SourceAlpha" type="matrix" values="0 0 0 0 0 0 0 0 0 0 0 0 0 0 0 0 0 0 127 0"/>
<feOffset dy="51.0191"/>
<feGaussianBlur stdDeviation="8.95072"/>
<feColorMatrix type="matrix" values="0 0 0 0 0.121569 0 0 0 0 0.247059 0 0 0 0 0.682353 0 0 0 0.02 0"/>
<feBlend mode="normal" in2="effect2_dropShadow" result="effect3_dropShadow"/>
<feBlend mode="normal" in="SourceGraphic" in2="effect3_dropShadow" result="shape"/>
</filter>
<filter id="filter4_ddd" x="156.01" y="258.316" width="168.686" height="176.488" filterUnits="userSpaceOnUse" color-interpolation-filters="sRGB">
<feFlood flood-opacity="0" result="BackgroundImageFix"/>
<feColorMatrix in="SourceAlpha" type="matrix" values="0 0 0 0 0 0 0 0 0 0 0 0 0 0 0 0 0 0 127 0"/>
<feMorphology radius="7.16057" operator="dilate" in="SourceAlpha" result="effect1_dropShadow"/>
<feOffset dy="20.5866"/>
<feGaussianBlur stdDeviation="13.4261"/>
<feColorMatrix type="matrix" values="0 0 0 0 0 0 0 0 0 0.0876457 0 0 0 0 0.391667 0 0 0 0.05 0"/>
<feBlend mode="normal" in2="BackgroundImageFix" result="effect1_dropShadow"/>
<feColorMatrix in="SourceAlpha" type="matrix" values="0 0 0 0 0 0 0 0 0 0 0 0 0 0 0 0 0 0 127 0"/>
<feOffset dy="42.0684"/>
<feGaussianBlur stdDeviation="2.68521"/>
<feColorMatrix type="matrix" values="0 0 0 0 0.121569 0 0 0 0 0.247059 0 0 0 0 0.682353 0 0 0 0.02 0"/>
<feBlend mode="normal" in2="effect1_dropShadow" result="effect2_dropShadow"/>
<feColorMatrix in="SourceAlpha" type="matrix" values="0 0 0 0 0 0 0 0 0 0 0 0 0 0 0 0 0 0 127 0"/>
<feOffset dy="51.0191"/>
<feGaussianBlur stdDeviation="8.95072"/>
<feColorMatrix type="matrix" values="0 0 0 0 0.121569 0 0 0 0 0.247059 0 0 0 0 0.682353 0 0 0 0.02 0"/>
<feBlend mode="normal" in2="effect2_dropShadow" result="effect3_dropShadow"/>
<feBlend mode="normal" in="SourceGraphic" in2="effect3_dropShadow" result="shape"/>
</filter>
<filter id="filter5_ddd" x="326.025" y="529.041" width="168.686" height="176.488" filterUnits="userSpaceOnUse" color-interpolation-filters="sRGB">
<feFlood flood-opacity="0" result="BackgroundImageFix"/>
<feColorMatrix in="SourceAlpha" type="matrix" values="0 0 0 0 0 0 0 0 0 0 0 0 0 0 0 0 0 0 127 0"/>
<feMorphology radius="7.16057" operator="dilate" in="SourceAlpha" result="effect1_dropShadow"/>
<feOffset dy="20.5866"/>
<feGaussianBlur stdDeviation="13.4261"/>
<feColorMatrix type="matrix" values="0 0 0 0 0 0 0 0 0 0.0876457 0 0 0 0 0.391667 0 0 0 0.05 0"/>
<feBlend mode="normal" in2="BackgroundImageFix" result="effect1_dropShadow"/>
<feColorMatrix in="SourceAlpha" type="matrix" values="0 0 0 0 0 0 0 0 0 0 0 0 0 0 0 0 0 0 127 0"/>
<feOffset dy="42.0684"/>
<feGaussianBlur stdDeviation="2.68521"/>
<feColorMatrix type="matrix" values="0 0 0 0 0.121569 0 0 0 0 0.247059 0 0 0 0 0.682353 0 0 0 0.02 0"/>
<feBlend mode="normal" in2="effect1_dropShadow" result="effect2_dropShadow"/>
<feColorMatrix in="SourceAlpha" type="matrix" values="0 0 0 0 0 0 0 0 0 0 0 0 0 0 0 0 0 0 127 0"/>
<feOffset dy="51.0191"/>
<feGaussianBlur stdDeviation="8.95072"/>
<feColorMatrix type="matrix" values="0 0 0 0 0.121569 0 0 0 0 0.247059 0 0 0 0 0.682353 0 0 0 0.02 0"/>
<feBlend mode="normal" in2="effect2_dropShadow" result="effect3_dropShadow"/>
<feBlend mode="normal" in="SourceGraphic" in2="effect3_dropShadow" result="shape"/>
</filter>
<linearGradient id="paint0_linear" x1="410.171" y1="359.019" x2="410.171" y2="451.177" gradientUnits="userSpaceOnUse">
<stop stop-color="#5CEFFF"/>
<stop offset="0.90625" stop-color="#0A88E3"/>
</linearGradient>
<linearGradient id="paint1_linear" x1="410.171" y1="189.452" x2="410.171" y2="280.66" gradientUnits="userSpaceOnUse">
<stop stop-color="#5CEFFF"/>
<stop offset="0.90625" stop-color="#0A88E3"/>
</linearGradient>
<linearGradient id="paint2_linear" x1="572.585" y1="494.38" x2="572.585" y2="573.237" gradientUnits="userSpaceOnUse">
<stop stop-color="#E0C3FC"/>
<stop offset="1" stop-color="#8EC5FC"/>
</linearGradient>
<linearGradient id="paint3_linear" x1="572.585" y1="494.38" x2="572.585" y2="573.237" gradientUnits="userSpaceOnUse">
<stop stop-color="#E0C3FC"/>
<stop offset="1" stop-color="#8EC5FC"/>
</linearGradient>
<linearGradient id="paint4_linear" x1="572.585" y1="494.38" x2="572.585" y2="573.237" gradientUnits="userSpaceOnUse">
<stop stop-color="#E0C3FC"/>
<stop offset="1" stop-color="#8EC5FC"/>
</linearGradient>
<linearGradient id="paint5_linear" x1="572.585" y1="494.38" x2="572.585" y2="573.237" gradientUnits="userSpaceOnUse">
<stop stop-color="#E0C3FC"/>
<stop offset="1" stop-color="#8EC5FC"/>
</linearGradient>
<linearGradient id="paint6_linear" x1="572.585" y1="494.38" x2="572.585" y2="573.237" gradientUnits="userSpaceOnUse">
<stop stop-color="#E0C3FC"/>
<stop offset="1" stop-color="#8EC5FC"/>
</linearGradient>
<linearGradient id="paint7_linear" x1="572.585" y1="494.38" x2="572.585" y2="573.237" gradientUnits="userSpaceOnUse">
<stop stop-color="#E0C3FC"/>
<stop offset="1" stop-color="#8EC5FC"/>
</linearGradient>
<linearGradient id="paint8_linear" x1="572.585" y1="494.38" x2="572.585" y2="573.237" gradientUnits="userSpaceOnUse">
<stop stop-color="#E0C3FC"/>
<stop offset="1" stop-color="#8EC5FC"/>
</linearGradient>
<linearGradient id="paint9_linear" x1="252.505" y1="494.38" x2="252.505" y2="573.237" gradientUnits="userSpaceOnUse">
<stop stop-color="#E0C3FC"/>
<stop offset="1" stop-color="#8EC5FC"/>
</linearGradient>
<linearGradient id="paint10_linear" x1="252.505" y1="494.38" x2="252.505" y2="573.237" gradientUnits="userSpaceOnUse">
<stop stop-color="#E0C3FC"/>
<stop offset="1" stop-color="#8EC5FC"/>
</linearGradient>
<linearGradient id="paint11_linear" x1="252.505" y1="494.38" x2="252.505" y2="573.237" gradientUnits="userSpaceOnUse">
<stop stop-color="#E0C3FC"/>
<stop offset="1" stop-color="#8EC5FC"/>
</linearGradient>
<linearGradient id="paint12_linear" x1="252.505" y1="494.38" x2="252.505" y2="573.237" gradientUnits="userSpaceOnUse">
<stop stop-color="#E0C3FC"/>
<stop offset="1" stop-color="#8EC5FC"/>
</linearGradient>
<linearGradient id="paint13_linear" x1="252.505" y1="494.38" x2="252.505" y2="573.237" gradientUnits="userSpaceOnUse">
<stop stop-color="#E0C3FC"/>
<stop offset="1" stop-color="#8EC5FC"/>
</linearGradient>
<linearGradient id="paint14_linear" x1="252.505" y1="494.38" x2="252.505" y2="573.237" gradientUnits="userSpaceOnUse">
<stop stop-color="#E0C3FC"/>
<stop offset="1" stop-color="#8EC5FC"/>
</linearGradient>
<linearGradient id="paint15_linear" x1="252.505" y1="494.38" x2="252.505" y2="573.237" gradientUnits="userSpaceOnUse">
<stop stop-color="#E0C3FC"/>
<stop offset="1" stop-color="#8EC5FC"/>
</linearGradient>
<linearGradient id="paint16_linear" x1="582.087" y1="294.863" x2="582.087" y2="373.72" gradientUnits="userSpaceOnUse">
<stop stop-color="#E0C3FC"/>
<stop offset="1" stop-color="#8EC5FC"/>
</linearGradient>
<linearGradient id="paint17_linear" x1="582.087" y1="294.863" x2="582.087" y2="373.72" gradientUnits="userSpaceOnUse">
<stop stop-color="#E0C3FC"/>
<stop offset="1" stop-color="#8EC5FC"/>
</linearGradient>
<linearGradient id="paint18_linear" x1="582.087" y1="294.863" x2="582.087" y2="373.72" gradientUnits="userSpaceOnUse">
<stop stop-color="#E0C3FC"/>
<stop offset="1" stop-color="#8EC5FC"/>
</linearGradient>
<linearGradient id="paint19_linear" x1="582.087" y1="294.863" x2="582.087" y2="373.72" gradientUnits="userSpaceOnUse">
<stop stop-color="#E0C3FC"/>
<stop offset="1" stop-color="#8EC5FC"/>
</linearGradient>
<linearGradient id="paint20_linear" x1="582.087" y1="294.863" x2="582.087" y2="373.72" gradientUnits="userSpaceOnUse">
<stop stop-color="#E0C3FC"/>
<stop offset="1" stop-color="#8EC5FC"/>
</linearGradient>
<linearGradient id="paint21_linear" x1="582.087" y1="294.863" x2="582.087" y2="373.72" gradientUnits="userSpaceOnUse">
<stop stop-color="#E0C3FC"/>
<stop offset="1" stop-color="#8EC5FC"/>
</linearGradient>
<linearGradient id="paint22_linear" x1="582.087" y1="294.863" x2="582.087" y2="373.72" gradientUnits="userSpaceOnUse">
<stop stop-color="#E0C3FC"/>
<stop offset="1" stop-color="#8EC5FC"/>
</linearGradient>
<linearGradient id="paint23_linear" x1="240.155" y1="294.863" x2="240.155" y2="373.72" gradientUnits="userSpaceOnUse">
<stop stop-color="#E0C3FC"/>
<stop offset="1" stop-color="#8EC5FC"/>
</linearGradient>
<linearGradient id="paint24_linear" x1="240.155" y1="294.863" x2="240.155" y2="373.72" gradientUnits="userSpaceOnUse">
<stop stop-color="#E0C3FC"/>
<stop offset="1" stop-color="#8EC5FC"/>
</linearGradient>
<linearGradient id="paint25_linear" x1="240.155" y1="294.863" x2="240.155" y2="373.72" gradientUnits="userSpaceOnUse">
<stop stop-color="#E0C3FC"/>
<stop offset="1" stop-color="#8EC5FC"/>
</linearGradient>
<linearGradient id="paint26_linear" x1="240.155" y1="294.863" x2="240.155" y2="373.72" gradientUnits="userSpaceOnUse">
<stop stop-color="#E0C3FC"/>
<stop offset="1" stop-color="#8EC5FC"/>
</linearGradient>
<linearGradient id="paint27_linear" x1="240.155" y1="294.863" x2="240.155" y2="373.72" gradientUnits="userSpaceOnUse">
<stop stop-color="#E0C3FC"/>
<stop offset="1" stop-color="#8EC5FC"/>
</linearGradient>
<linearGradient id="paint28_linear" x1="240.155" y1="294.863" x2="240.155" y2="373.72" gradientUnits="userSpaceOnUse">
<stop stop-color="#E0C3FC"/>
<stop offset="1" stop-color="#8EC5FC"/>
</linearGradient>
<linearGradient id="paint29_linear" x1="240.155" y1="294.863" x2="240.155" y2="373.72" gradientUnits="userSpaceOnUse">
<stop stop-color="#E0C3FC"/>
<stop offset="1" stop-color="#8EC5FC"/>
</linearGradient>
<linearGradient id="paint30_linear" x1="410.169" y1="565.586" x2="410.169" y2="644.443" gradientUnits="userSpaceOnUse">
<stop stop-color="#E0C3FC"/>
<stop offset="1" stop-color="#8EC5FC"/>
</linearGradient>
<linearGradient id="paint31_linear" x1="410.169" y1="565.586" x2="410.169" y2="644.443" gradientUnits="userSpaceOnUse">
<stop stop-color="#E0C3FC"/>
<stop offset="1" stop-color="#8EC5FC"/>
</linearGradient>
<linearGradient id="paint32_linear" x1="410.169" y1="565.586" x2="410.169" y2="644.443" gradientUnits="userSpaceOnUse">
<stop stop-color="#E0C3FC"/>
<stop offset="1" stop-color="#8EC5FC"/>
</linearGradient>
<linearGradient id="paint33_linear" x1="410.169" y1="565.586" x2="410.169" y2="644.443" gradientUnits="userSpaceOnUse">
<stop stop-color="#E0C3FC"/>
<stop offset="1" stop-color="#8EC5FC"/>
</linearGradient>
<linearGradient id="paint34_linear" x1="410.169" y1="565.586" x2="410.169" y2="644.443" gradientUnits="userSpaceOnUse">
<stop stop-color="#E0C3FC"/>
<stop offset="1" stop-color="#8EC5FC"/>
</linearGradient>
<linearGradient id="paint35_linear" x1="410.169" y1="565.586" x2="410.169" y2="644.443" gradientUnits="userSpaceOnUse">
<stop stop-color="#E0C3FC"/>
<stop offset="1" stop-color="#8EC5FC"/>
</linearGradient>
<linearGradient id="paint36_linear" x1="410.169" y1="565.586" x2="410.169" y2="644.443" gradientUnits="userSpaceOnUse">
<stop stop-color="#E0C3FC"/>
<stop offset="1" stop-color="#8EC5FC"/>
</linearGradient>
<linearGradient id="paint37_linear" x1="156" y1="654" x2="156.502" y2="711.005" gradientUnits="userSpaceOnUse">
<stop stop-color="#46FFD2"/>
<stop offset="1" stop-color="#0BB289"/>
</linearGradient>
</defs>
</svg>
