<svg width="414" height="551" viewBox="0 0 414 551" fill="none" xmlns="http://www.w3.org/2000/svg">
<g clip-path="url(#clip0)">
<path d="M202.083 375.54C294.933 375.54 370.203 300.27 370.203 207.42C370.203 114.57 294.933 39.3 202.083 39.3C109.233 39.3 33.963 114.57 33.963 207.42C33.963 300.27 109.233 375.54 202.083 375.54Z" fill="#263DA1"/>
<g filter="url(#filter0_f)">
<path d="M205.746 375.09C299.233 375.09 375.02 299.303 375.02 205.816C375.02 112.329 299.233 36.542 205.746 36.542C112.259 36.542 36.472 112.329 36.472 205.816C36.472 299.303 112.259 375.09 205.746 375.09Z" fill="#152673"/>
</g>
<path d="M297.814 392.755V394.459H300.562V396.043H297.814V397.891H300.922V399.535H295.762V391.111H300.922V392.755H297.814ZM301.967 396.175C301.967 395.487 302.095 394.883 302.351 394.363C302.615 393.843 302.971 393.443 303.419 393.163C303.867 392.883 304.367 392.743 304.919 392.743C305.391 392.743 305.803 392.839 306.155 393.031C306.515 393.223 306.791 393.475 306.983 393.787V392.839H309.035V399.535H306.983V398.587C306.783 398.899 306.503 399.151 306.143 399.343C305.791 399.535 305.379 399.631 304.907 399.631C304.363 399.631 303.867 399.491 303.419 399.211C302.971 398.923 302.615 398.519 302.351 397.999C302.095 397.471 301.967 396.863 301.967 396.175ZM306.983 396.187C306.983 395.675 306.839 395.271 306.551 394.975C306.271 394.679 305.927 394.531 305.519 394.531C305.111 394.531 304.763 394.679 304.475 394.975C304.195 395.263 304.055 395.663 304.055 396.175C304.055 396.687 304.195 397.095 304.475 397.399C304.763 397.695 305.111 397.843 305.519 397.843C305.927 397.843 306.271 397.695 306.551 397.399C306.839 397.103 306.983 396.699 306.983 396.187ZM312.691 393.955C312.931 393.587 313.231 393.299 313.591 393.091C313.951 392.875 314.351 392.767 314.791 392.767V394.939H314.227C313.715 394.939 313.331 395.051 313.075 395.275C312.819 395.491 312.691 395.875 312.691 396.427V399.535H310.639V392.839H312.691V393.955ZM317.944 390.655V399.535H315.892V390.655H317.944ZM326.391 392.839L322.191 402.715H319.983L321.519 399.307L318.795 392.839H321.087L322.635 397.027L324.171 392.839H326.391ZM335.16 398.047H332.016L331.512 399.535H329.364L332.412 391.111H334.788L337.836 399.535H335.664L335.16 398.047ZM334.632 396.463L333.588 393.379L332.556 396.463H334.632ZM340.936 393.955C341.176 393.587 341.476 393.299 341.836 393.091C342.196 392.875 342.596 392.767 343.036 392.767V394.939H342.472C341.96 394.939 341.576 395.051 341.32 395.275C341.064 395.491 340.936 395.875 340.936 396.427V399.535H338.884V392.839H340.936V393.955ZM346.188 393.955C346.428 393.587 346.728 393.299 347.088 393.091C347.448 392.875 347.848 392.767 348.288 392.767V394.939H347.724C347.212 394.939 346.828 395.051 346.572 395.275C346.316 395.491 346.188 395.875 346.188 396.427V399.535H344.136V392.839H346.188V393.955ZM350.421 392.143C350.061 392.143 349.765 392.039 349.533 391.831C349.309 391.615 349.197 391.351 349.197 391.039C349.197 390.719 349.309 390.455 349.533 390.247C349.765 390.031 350.061 389.923 350.421 389.923C350.773 389.923 351.061 390.031 351.285 390.247C351.517 390.455 351.633 390.719 351.633 391.039C351.633 391.351 351.517 391.615 351.285 391.831C351.061 392.039 350.773 392.143 350.421 392.143ZM351.441 392.839V399.535H349.389V392.839H351.441ZM356.06 397.615L357.512 392.839H359.696L357.32 399.535H354.788L352.412 392.839H354.608L356.06 397.615ZM361.712 392.143C361.352 392.143 361.056 392.039 360.824 391.831C360.6 391.615 360.488 391.351 360.488 391.039C360.488 390.719 360.6 390.455 360.824 390.247C361.056 390.031 361.352 389.923 361.712 389.923C362.064 389.923 362.352 390.031 362.576 390.247C362.808 390.455 362.924 390.719 362.924 391.039C362.924 391.351 362.808 391.615 362.576 391.831C362.352 392.039 362.064 392.143 361.712 392.143ZM362.732 392.839V399.535H360.68V392.839H362.732ZM368.419 392.767C369.203 392.767 369.827 393.023 370.291 393.535C370.763 394.039 370.999 394.735 370.999 395.623V399.535H368.959V395.899C368.959 395.451 368.843 395.103 368.611 394.855C368.379 394.607 368.067 394.483 367.675 394.483C367.283 394.483 366.971 394.607 366.739 394.855C366.507 395.103 366.391 395.451 366.391 395.899V399.535H364.339V392.839H366.391V393.727C366.599 393.431 366.879 393.199 367.231 393.031C367.583 392.855 367.979 392.767 368.419 392.767ZM375.089 392.743C375.561 392.743 375.973 392.839 376.325 393.031C376.685 393.223 376.961 393.475 377.153 393.787V392.839H379.205V399.523C379.205 400.139 379.081 400.695 378.833 401.191C378.593 401.695 378.221 402.095 377.717 402.391C377.221 402.687 376.601 402.835 375.857 402.835C374.865 402.835 374.061 402.599 373.445 402.127C372.829 401.663 372.477 401.031 372.389 400.231H374.417C374.481 400.487 374.633 400.687 374.873 400.831C375.113 400.983 375.409 401.059 375.761 401.059C376.185 401.059 376.521 400.935 376.769 400.687C377.025 400.447 377.153 400.059 377.153 399.523V398.575C376.953 398.887 376.677 399.143 376.325 399.343C375.973 399.535 375.561 399.631 375.089 399.631C374.537 399.631 374.037 399.491 373.589 399.211C373.141 398.923 372.785 398.519 372.521 397.999C372.265 397.471 372.137 396.863 372.137 396.175C372.137 395.487 372.265 394.883 372.521 394.363C372.785 393.843 373.141 393.443 373.589 393.163C374.037 392.883 374.537 392.743 375.089 392.743ZM377.153 396.187C377.153 395.675 377.009 395.271 376.721 394.975C376.441 394.679 376.097 394.531 375.689 394.531C375.281 394.531 374.933 394.679 374.645 394.975C374.365 395.263 374.225 395.663 374.225 396.175C374.225 396.687 374.365 397.095 374.645 397.399C374.933 397.695 375.281 397.843 375.689 397.843C376.097 397.843 376.441 397.695 376.721 397.399C377.009 397.103 377.153 396.699 377.153 396.187ZM335.354 407.111L333.158 415.535H330.674L329.33 409.991L327.938 415.535H325.454L323.318 407.111H325.514L326.726 413.243L328.226 407.111H330.482L331.922 413.243L333.146 407.111H335.354ZM337.535 408.143C337.175 408.143 336.879 408.039 336.647 407.831C336.423 407.615 336.311 407.351 336.311 407.039C336.311 406.719 336.423 406.455 336.647 406.247C336.879 406.031 337.175 405.923 337.535 405.923C337.887 405.923 338.175 406.031 338.399 406.247C338.631 406.455 338.747 406.719 338.747 407.039C338.747 407.351 338.631 407.615 338.399 407.831C338.175 408.039 337.887 408.143 337.535 408.143ZM338.555 408.839V415.535H336.503V408.839H338.555ZM342.214 409.955C342.454 409.587 342.754 409.299 343.114 409.091C343.474 408.875 343.874 408.767 344.314 408.767V410.939H343.75C343.238 410.939 342.854 411.051 342.598 411.275C342.342 411.491 342.214 411.875 342.214 412.427V415.535H340.162V408.839H342.214V409.955ZM351.727 412.079C351.727 412.271 351.715 412.471 351.691 412.679H347.047C347.079 413.095 347.211 413.415 347.443 413.639C347.683 413.855 347.975 413.963 348.319 413.963C348.831 413.963 349.187 413.747 349.387 413.315H351.571C351.459 413.755 351.255 414.151 350.959 414.503C350.671 414.855 350.307 415.131 349.867 415.331C349.427 415.531 348.935 415.631 348.391 415.631C347.735 415.631 347.151 415.491 346.639 415.211C346.127 414.931 345.727 414.531 345.439 414.011C345.151 413.491 345.007 412.883 345.007 412.187C345.007 411.491 345.147 410.883 345.427 410.363C345.715 409.843 346.115 409.443 346.627 409.163C347.139 408.883 347.727 408.743 348.391 408.743C349.039 408.743 349.615 408.879 350.119 409.151C350.623 409.423 351.015 409.811 351.295 410.315C351.583 410.819 351.727 411.407 351.727 412.079ZM349.627 411.539C349.627 411.187 349.507 410.907 349.267 410.699C349.027 410.491 348.727 410.387 348.367 410.387C348.023 410.387 347.731 410.487 347.491 410.687C347.259 410.887 347.115 411.171 347.059 411.539H349.627Z" fill="white"/>
<path opacity="0.2" d="M339.496 344.288C339.234 344.026 338.809 344.026 338.547 344.288L334.275 348.56C334.012 348.822 334.012 349.247 334.275 349.509C334.537 349.772 334.962 349.772 335.224 349.509L339.021 345.712L342.819 349.509C343.081 349.772 343.506 349.772 343.768 349.509C344.03 349.247 344.03 348.822 343.768 348.56L339.496 344.288ZM339.693 379.387V344.763H338.35V379.387H339.693Z" fill="white"/>
<path d="M213.112 176.661C222.401 176.661 230.985 181.616 235.629 189.661L242.889 202.235C247.534 210.28 247.534 220.191 242.889 228.235L235.629 240.81C230.985 248.855 222.401 253.81 213.112 253.81H198.592C189.303 253.81 180.72 248.855 176.076 240.81L168.816 228.235C164.171 220.191 164.171 210.28 168.816 202.235L176.076 189.661C180.72 181.616 189.303 176.661 198.592 176.661H213.112Z" fill="white"/>
<path d="M213.112 176.661C222.401 176.661 230.985 181.616 235.629 189.661L242.889 202.235C247.534 210.28 247.534 220.191 242.889 228.235L235.629 240.81C230.985 248.855 222.401 253.81 213.112 253.81H198.592C189.303 253.81 180.72 248.855 176.076 240.81L168.816 228.235C164.171 220.191 164.171 210.28 168.816 202.235L176.076 189.661C180.72 181.616 189.303 176.661 198.592 176.661H213.112Z" fill="url(#paint0_linear)"/>
<path d="M193.814 217.426C194.688 217.612 195.389 218.049 195.919 218.737C196.449 219.41 196.714 220.183 196.714 221.057C196.714 222.317 196.27 223.319 195.382 224.064C194.509 224.794 193.284 225.16 191.709 225.16H184.684V210.079H191.473C193.005 210.079 194.201 210.43 195.06 211.132C195.934 211.834 196.37 212.786 196.37 213.989C196.37 214.877 196.134 215.615 195.662 216.202C195.203 216.789 194.587 217.197 193.814 217.426ZM188.358 216.18H190.764C191.365 216.18 191.823 216.051 192.139 215.794C192.468 215.521 192.633 215.128 192.633 214.612C192.633 214.096 192.468 213.703 192.139 213.431C191.823 213.158 191.365 213.022 190.764 213.022H188.358V216.18ZM191.064 222.195C191.68 222.195 192.153 222.059 192.482 221.787C192.826 221.5 192.998 221.092 192.998 220.562C192.998 220.033 192.819 219.617 192.461 219.317C192.117 219.016 191.637 218.865 191.022 218.865H188.358V222.195H191.064ZM198.329 219.145C198.329 217.913 198.558 216.832 199.017 215.901C199.489 214.97 200.126 214.254 200.928 213.753C201.73 213.252 202.626 213.001 203.614 213.001C204.459 213.001 205.196 213.173 205.826 213.516C206.471 213.86 206.965 214.311 207.309 214.87V213.173H210.982V225.16H207.309V223.462C206.95 224.021 206.449 224.472 205.805 224.816C205.175 225.16 204.437 225.331 203.592 225.331C202.618 225.331 201.73 225.081 200.928 224.58C200.126 224.064 199.489 223.341 199.017 222.41C198.558 221.465 198.329 220.376 198.329 219.145ZM207.309 219.166C207.309 218.25 207.051 217.526 206.535 216.996C206.034 216.467 205.418 216.202 204.688 216.202C203.957 216.202 203.334 216.467 202.819 216.996C202.318 217.512 202.067 218.228 202.067 219.145C202.067 220.061 202.318 220.792 202.819 221.336C203.334 221.866 203.957 222.131 204.688 222.131C205.418 222.131 206.034 221.866 206.535 221.336C207.051 220.806 207.309 220.083 207.309 219.166ZM221.158 213.044C222.561 213.044 223.679 213.502 224.509 214.419C225.354 215.321 225.777 216.567 225.777 218.157V225.16H222.125V218.651C222.125 217.849 221.917 217.226 221.502 216.782C221.086 216.338 220.528 216.116 219.826 216.116C219.124 216.116 218.566 216.338 218.151 216.782C217.735 217.226 217.528 217.849 217.528 218.651V225.16H213.854V213.173H217.528V214.762C217.9 214.233 218.401 213.817 219.031 213.516C219.661 213.201 220.37 213.044 221.158 213.044ZM235.869 225.16L232.217 220.133V225.16H228.544V209.263H232.217V218.049L235.848 213.173H240.38L235.397 219.188L240.423 225.16H235.869Z" fill="white"/>
<path d="M213.112 14.271C222.401 14.271 230.985 19.227 235.629 27.271L242.889 39.846C247.534 47.89 247.534 57.801 242.889 65.846L235.629 78.421C230.985 86.465 222.401 91.421 213.112 91.421H198.592C189.303 91.421 180.72 86.465 176.076 78.421L168.816 65.846C164.171 57.801 164.171 47.89 168.816 39.846L176.076 27.271C180.72 19.227 189.303 14.271 198.592 14.271H213.112Z" fill="white"/>
<path d="M213.112 14.271C222.401 14.271 230.985 19.227 235.629 27.271L242.889 39.846C247.534 47.89 247.534 57.801 242.889 65.846L235.629 78.421C230.985 86.465 222.401 91.421 213.112 91.421H198.592C189.303 91.421 180.72 86.465 176.076 78.421L168.816 65.846C164.171 57.801 164.171 47.89 168.816 39.846L176.076 27.271C180.72 19.227 189.303 14.271 198.592 14.271H213.112Z" fill="url(#paint1_linear)"/>
<path d="M215.066 50.86H218.94V60.135H215.066V50.86Z" fill="white"/>
<path d="M207.73 50.86H211.604V60.135H207.73V50.86Z" fill="white"/>
<path d="M200.394 50.86H204.268V60.135H200.394V50.86Z" fill="white"/>
<path d="M193.059 50.86H196.932V60.135H193.059V50.86Z" fill="white"/>
<path d="M220.231 47.954V46.986H191.767V47.954C191.767 48.489 192.201 48.923 192.736 48.923H219.262C219.797 48.923 220.231 48.489 220.231 47.954Z" fill="white"/>
<path d="M221.559 62.072H190.44C189.905 62.072 189.471 62.505 189.471 63.04V65.623C189.471 66.158 189.905 66.591 190.44 66.591H221.559C222.094 66.591 222.527 66.158 222.527 65.623V63.04C222.527 62.505 222.094 62.072 221.559 62.072Z" fill="white"/>
<path d="M190.439 45.049H221.559C221.993 45.049 222.373 44.761 222.491 44.344C222.609 43.927 222.436 43.482 222.067 43.255L206.507 33.678C206.196 33.486 205.803 33.486 205.492 33.678L189.931 43.255C189.562 43.483 189.389 43.927 189.507 44.344C189.625 44.761 190.006 45.049 190.439 45.049ZM205.341 39.23H206.658C207.193 39.23 207.626 39.664 207.626 40.199C207.626 40.734 207.193 41.167 206.658 41.167H205.341C204.806 41.167 204.372 40.734 204.372 40.199C204.372 39.664 204.806 39.23 205.341 39.23Z" fill="white"/>
<g filter="url(#filter1_ddd)">
<path d="M300.726 303.818C296.082 295.774 296.082 285.863 300.726 277.818L307.986 265.244C312.631 257.199 321.214 252.244 330.503 252.244H345.023C354.312 252.244 362.895 257.199 367.54 265.244L374.8 277.818C379.444 285.863 379.444 295.774 374.8 303.818L367.54 316.393C362.895 324.438 354.312 329.393 345.023 329.393H330.503C321.214 329.393 312.631 324.438 307.986 316.393L300.726 303.818Z" fill="white"/>
</g>
<path d="M347.829 290.798C347.829 289.715 348.707 288.838 349.789 288.838C350.871 288.838 351.749 289.715 351.749 290.798V296.264C351.749 297.346 350.871 298.224 349.789 298.224C348.707 298.224 347.829 297.346 347.829 296.264V290.798Z" fill="white"/>
<path d="M347.829 290.798C347.829 289.715 348.707 288.838 349.789 288.838C350.871 288.838 351.749 289.715 351.749 290.798V296.264C351.749 297.346 350.871 298.224 349.789 298.224C348.707 298.224 347.829 297.346 347.829 296.264V290.798Z" fill="url(#paint2_linear)"/>
<path d="M340.406 290.798C340.406 289.715 341.284 288.838 342.366 288.838C343.449 288.838 344.326 289.715 344.326 290.798V296.264C344.326 297.346 343.449 298.224 342.366 298.224C341.284 298.224 340.406 297.346 340.406 296.264V290.798Z" fill="white"/>
<path d="M340.406 290.798C340.406 289.715 341.284 288.838 342.366 288.838C343.449 288.838 344.326 289.715 344.326 290.798V296.264C344.326 297.346 343.449 298.224 342.366 298.224C341.284 298.224 340.406 297.346 340.406 296.264V290.798Z" fill="url(#paint3_linear)"/>
<path d="M332.982 290.798C332.982 289.715 333.86 288.838 334.943 288.838C336.025 288.838 336.903 289.715 336.903 290.798V296.264C336.903 297.346 336.025 298.224 334.943 298.224C333.86 298.224 332.982 297.346 332.982 296.264V290.798Z" fill="white"/>
<path d="M332.982 290.798C332.982 289.715 333.86 288.838 334.943 288.838C336.025 288.838 336.903 289.715 336.903 290.798V296.264C336.903 297.346 336.025 298.224 334.943 298.224C333.86 298.224 332.982 297.346 332.982 296.264V290.798Z" fill="url(#paint4_linear)"/>
<path d="M325.56 290.798C325.56 289.715 326.437 288.838 327.519 288.838C328.602 288.838 329.479 289.715 329.479 290.798V296.264C329.479 297.346 328.602 298.224 327.519 298.224C326.437 298.224 325.56 297.346 325.56 296.264V290.798Z" fill="white"/>
<path d="M325.56 290.798C325.56 289.715 326.437 288.838 327.519 288.838C328.602 288.838 329.479 289.715 329.479 290.798V296.264C329.479 297.346 328.602 298.224 327.519 298.224C326.437 298.224 325.56 297.346 325.56 296.264V290.798Z" fill="url(#paint5_linear)"/>
<path d="M353.055 285.898C353.055 285.357 352.617 284.918 352.075 284.918H325.233C324.692 284.918 324.253 285.357 324.253 285.898C324.253 286.439 324.692 286.878 325.233 286.878H352.075C352.616 286.878 353.055 286.439 353.055 285.898Z" fill="white"/>
<path d="M353.055 285.898C353.055 285.357 352.617 284.918 352.075 284.918H325.233C324.692 284.918 324.253 285.357 324.253 285.898C324.253 286.439 324.692 286.878 325.233 286.878H352.075C352.616 286.878 353.055 286.439 353.055 285.898Z" fill="url(#paint6_linear)"/>
<path d="M354.399 300.184H322.909C322.368 300.184 321.929 300.622 321.929 301.164V303.777C321.929 304.318 322.368 304.757 322.909 304.757H354.399C354.94 304.757 355.379 304.318 355.379 303.777V301.164C355.379 300.622 354.94 300.184 354.399 300.184Z" fill="white"/>
<path d="M354.399 300.184H322.909C322.368 300.184 321.929 300.622 321.929 301.164V303.777C321.929 304.318 322.368 304.757 322.909 304.757H354.399C354.94 304.757 355.379 304.318 355.379 303.777V301.164C355.379 300.622 354.94 300.184 354.399 300.184Z" fill="url(#paint7_linear)"/>
<path d="M322.909 282.958H354.4C354.838 282.958 355.223 282.667 355.343 282.245C355.462 281.823 355.287 281.373 354.914 281.143L339.168 271.451C338.853 271.257 338.456 271.257 338.141 271.451L322.395 281.143C322.022 281.373 321.846 281.823 321.966 282.245C322.085 282.667 322.47 282.958 322.909 282.958ZM337.988 277.07H339.321C339.862 277.07 340.301 277.509 340.301 278.05C340.301 278.591 339.862 279.03 339.321 279.03H337.988C337.447 279.03 337.008 278.591 337.008 278.05C337.008 277.509 337.447 277.07 337.988 277.07Z" fill="white"/>
<path d="M322.909 282.958H354.4C354.838 282.958 355.223 282.667 355.343 282.245C355.462 281.823 355.287 281.373 354.914 281.143L339.168 271.451C338.853 271.257 338.456 271.257 338.141 271.451L322.395 281.143C322.022 281.373 321.846 281.823 321.966 282.245C322.085 282.667 322.47 282.958 322.909 282.958ZM337.988 277.07H339.321C339.862 277.07 340.301 277.509 340.301 278.05C340.301 278.591 339.862 279.03 339.321 279.03H337.988C337.447 279.03 337.008 278.591 337.008 278.05C337.008 277.509 337.447 277.07 337.988 277.07Z" fill="url(#paint8_linear)"/>
<g filter="url(#filter2_ddd)">
<path d="M41.5085 303.818C36.864 295.774 36.864 285.863 41.5085 277.818L48.7685 265.244C53.413 257.199 61.9963 252.244 71.2852 252.244H85.8052C95.0941 252.244 103.677 257.199 108.322 265.244L115.582 277.818C120.226 285.863 120.226 295.774 115.582 303.818L108.322 316.393C103.677 324.438 95.0941 329.393 85.8052 329.393H71.2852C61.9963 329.393 53.413 324.438 48.7685 316.393L41.5085 303.818Z" fill="white"/>
</g>
<path d="M87.7207 288.838H91.6405V298.224H87.7207V288.838Z" fill="url(#paint9_linear)"/>
<path d="M80.2977 288.838H84.2178V298.224H80.2977V288.838Z" fill="url(#paint10_linear)"/>
<path d="M72.8741 288.838H76.7942V298.224H72.8741V288.838Z" fill="url(#paint11_linear)"/>
<path d="M65.4511 288.838H69.371V298.224H65.4511V288.838Z" fill="url(#paint12_linear)"/>
<path d="M92.947 285.898V284.918H64.1445V285.898C64.1445 286.439 64.5832 286.878 65.1245 286.878H91.967C92.508 286.878 92.947 286.439 92.947 285.898Z" fill="url(#paint13_linear)"/>
<path d="M94.2907 300.184H62.801C62.2597 300.184 61.821 300.622 61.821 301.164V303.777C61.821 304.318 62.2597 304.757 62.801 304.757H94.2907C94.832 304.757 95.2707 304.318 95.2707 303.777V301.164C95.2707 300.622 94.832 300.184 94.2907 300.184Z" fill="url(#paint14_linear)"/>
<path d="M62.8002 282.958H94.2915C94.7299 282.958 95.115 282.667 95.2345 282.245C95.3537 281.823 95.1786 281.373 94.8052 281.143L79.0596 271.451C78.7447 271.257 78.3473 271.257 78.0321 271.451L62.2865 281.143C61.9131 281.373 61.738 281.823 61.8575 282.245C61.9769 282.667 62.362 282.958 62.8002 282.958ZM77.8797 277.07H79.2122C79.7535 277.07 80.1922 277.509 80.1922 278.05C80.1922 278.591 79.7535 279.03 79.2122 279.03H77.8797C77.3384 279.03 76.8997 278.591 76.8997 278.05C76.8997 277.509 77.3384 277.07 77.8797 277.07Z" fill="url(#paint15_linear)"/>
<g filter="url(#filter3_ddd)">
<path d="M382.495 116.238C387.14 124.283 387.14 134.194 382.495 142.238L375.235 154.813C370.591 162.858 362.008 167.813 352.719 167.813H338.199C328.91 167.813 320.326 162.858 315.682 154.813L308.422 142.239C303.778 134.194 303.778 124.283 308.422 116.238L315.682 103.664C320.326 95.619 328.91 90.664 338.199 90.664H352.719C362.008 90.664 370.591 95.619 375.235 103.664L382.495 116.238Z" fill="white"/>
</g>
<path d="M354.633 127.258H358.553V136.644H354.633V127.258Z" fill="url(#paint16_linear)"/>
<path d="M347.21 127.258H351.13V136.644H347.21V127.258Z" fill="url(#paint17_linear)"/>
<path d="M339.786 127.258H343.706V136.644H339.786V127.258Z" fill="url(#paint18_linear)"/>
<path d="M332.363 127.258H336.283V136.644H332.363V127.258Z" fill="url(#paint19_linear)"/>
<path d="M359.859 124.318V123.338H331.057V124.318C331.057 124.859 331.495 125.298 332.037 125.298H358.879C359.42 125.298 359.859 124.859 359.859 124.318Z" fill="url(#paint20_linear)"/>
<path d="M361.203 138.604H329.713C329.172 138.604 328.733 139.043 328.733 139.584V142.197C328.733 142.739 329.172 143.177 329.713 143.177H361.203C361.744 143.177 362.183 142.739 362.183 142.197V139.584C362.183 139.043 361.744 138.604 361.203 138.604Z" fill="url(#paint21_linear)"/>
<path d="M329.712 121.378H361.204C361.642 121.378 362.027 121.087 362.147 120.665C362.266 120.243 362.091 119.793 361.717 119.564L345.972 109.872C345.657 109.678 345.259 109.678 344.944 109.872L329.199 119.564C328.825 119.793 328.65 120.243 328.77 120.665C328.889 121.087 329.274 121.378 329.712 121.378ZM344.792 115.49H346.124C346.666 115.49 347.104 115.929 347.104 116.47C347.104 117.012 346.666 117.45 346.124 117.45H344.792C344.251 117.45 343.812 117.012 343.812 116.47C343.812 115.929 344.251 115.49 344.792 115.49Z" fill="url(#paint22_linear)"/>
<g filter="url(#filter4_ddd)">
<path d="M105.579 116.239C110.224 124.283 110.224 134.194 105.579 142.239L98.3194 154.813C93.6749 162.858 85.0916 167.813 75.8027 167.813H61.2827C51.9938 167.813 43.4105 162.858 38.766 154.813L31.506 142.239C26.8615 134.194 26.8615 124.283 31.506 116.239L38.766 103.664C43.4104 95.619 51.9938 90.664 61.2827 90.664H75.8027C85.0916 90.664 93.6749 95.619 98.3194 103.664L105.579 116.239Z" fill="white"/>
</g>
<path d="M77.7168 127.258H81.6366V136.644H77.7168V127.258Z" fill="url(#paint23_linear)"/>
<path d="M70.2938 127.258H74.2139V136.644H70.2938V127.258Z" fill="url(#paint24_linear)"/>
<path d="M62.8702 127.258H66.7903V136.644H62.8702V127.258Z" fill="url(#paint25_linear)"/>
<path d="M55.4472 127.258H59.367V136.644H55.4472V127.258Z" fill="url(#paint26_linear)"/>
<path d="M82.9431 124.318V123.338H54.1405V124.318C54.1405 124.859 54.5793 125.298 55.1206 125.298H81.9631C82.5041 125.298 82.9431 124.859 82.9431 124.318Z" fill="url(#paint27_linear)"/>
<path d="M84.2868 138.604H52.7971C52.2558 138.604 51.8171 139.043 51.8171 139.584V142.197C51.8171 142.739 52.2558 143.177 52.7971 143.177H84.2868C84.8281 143.177 85.2668 142.739 85.2668 142.197V139.584C85.2668 139.043 84.8281 138.604 84.2868 138.604Z" fill="url(#paint28_linear)"/>
<path d="M52.7963 121.378H84.2876C84.726 121.378 85.1111 121.087 85.2306 120.665C85.3498 120.243 85.1747 119.793 84.8013 119.564L69.0557 109.872C68.7408 109.678 68.3434 109.678 68.0282 109.872L52.2826 119.564C51.9092 119.793 51.7341 120.243 51.8536 120.665C51.973 121.087 52.3581 121.378 52.7963 121.378ZM67.8758 115.49H69.2083C69.7496 115.49 70.1883 115.929 70.1883 116.47C70.1883 117.012 69.7496 117.45 69.2083 117.45H67.8758C67.3345 117.45 66.8958 117.012 66.8958 116.47C66.8958 115.929 67.3345 115.49 67.8758 115.49Z" fill="url(#paint29_linear)"/>
<g filter="url(#filter5_ddd)">
<path d="M169.194 369.585C164.55 361.54 164.55 351.629 169.194 343.585L176.454 331.01C181.099 322.965 189.682 318.01 198.971 318.01H213.491C222.78 318.01 231.363 322.965 236.007 331.01L243.267 343.585C247.912 351.629 247.912 361.54 243.267 369.585L236.007 382.159C231.363 390.204 222.78 395.159 213.491 395.159H198.971C189.682 395.159 181.099 390.204 176.454 382.159L169.194 369.585Z" fill="white"/>
</g>
<path d="M215.406 354.603H219.326V363.989H215.406V354.603Z" fill="url(#paint30_linear)"/>
<path d="M207.983 354.603H211.903V363.989H207.983V354.603Z" fill="url(#paint31_linear)"/>
<path d="M200.56 354.603H204.48V363.989H200.56V354.603Z" fill="url(#paint32_linear)"/>
<path d="M193.137 354.603H197.057V363.989H193.137V354.603Z" fill="url(#paint33_linear)"/>
<path d="M220.633 351.663V350.683H191.83V351.663C191.83 352.204 192.269 352.643 192.81 352.643H219.653C220.194 352.643 220.633 352.204 220.633 351.663Z" fill="url(#paint34_linear)"/>
<path d="M221.976 365.949H190.487C189.945 365.949 189.507 366.387 189.507 366.929V369.542C189.507 370.083 189.945 370.522 190.487 370.522H221.976C222.518 370.522 222.956 370.083 222.956 369.542V366.929C222.956 366.387 222.518 365.949 221.976 365.949Z" fill="url(#paint35_linear)"/>
<path d="M190.486 348.723H221.977C222.415 348.723 222.801 348.432 222.92 348.01C223.039 347.588 222.864 347.138 222.491 346.908L206.745 337.216C206.43 337.022 206.033 337.022 205.718 337.216L189.972 346.908C189.599 347.138 189.424 347.588 189.543 348.01C189.662 348.432 190.048 348.723 190.486 348.723ZM205.565 342.835H206.898C207.439 342.835 207.878 343.274 207.878 343.815C207.878 344.356 207.439 344.795 206.898 344.795H205.565C205.024 344.795 204.585 344.356 204.585 343.815C204.585 343.274 205.024 342.835 205.565 342.835Z" fill="url(#paint36_linear)"/>
<path d="M71.1555 18.416H73.8435V20H69.1035V11.576H71.1555V18.416ZM74.5342 16.64C74.5342 15.952 74.6622 15.348 74.9182 14.828C75.1822 14.308 75.5382 13.908 75.9862 13.628C76.4342 13.348 76.9342 13.208 77.4862 13.208C77.9582 13.208 78.3702 13.304 78.7222 13.496C79.0822 13.688 79.3582 13.94 79.5502 14.252V13.304H81.6022V20H79.5502V19.052C79.3502 19.364 79.0702 19.616 78.7102 19.808C78.3582 20 77.9462 20.096 77.4742 20.096C76.9302 20.096 76.4342 19.956 75.9862 19.676C75.5382 19.388 75.1822 18.984 74.9182 18.464C74.6622 17.936 74.5342 17.328 74.5342 16.64ZM79.5502 16.652C79.5502 16.14 79.4062 15.736 79.1182 15.44C78.8382 15.144 78.4942 14.996 78.0862 14.996C77.6782 14.996 77.3302 15.144 77.0422 15.44C76.7622 15.728 76.6222 16.128 76.6222 16.64C76.6222 17.152 76.7622 17.56 77.0422 17.864C77.3302 18.16 77.6782 18.308 78.0862 18.308C78.4942 18.308 78.8382 18.16 79.1182 17.864C79.4062 17.568 79.5502 17.164 79.5502 16.652ZM86.9387 18.26V20H85.8947C85.1507 20 84.5707 19.82 84.1547 19.46C83.7387 19.092 83.5307 18.496 83.5307 17.672V15.008H82.7147V13.304H83.5307V11.672H85.5827V13.304H86.9267V15.008H85.5827V17.696C85.5827 17.896 85.6307 18.04 85.7267 18.128C85.8227 18.216 85.9827 18.26 86.2067 18.26H86.9387ZM94.5137 16.544C94.5137 16.736 94.5017 16.936 94.4777 17.144H89.8337C89.8657 17.56 89.9977 17.88 90.2297 18.104C90.4697 18.32 90.7617 18.428 91.1057 18.428C91.6177 18.428 91.9737 18.212 92.1737 17.78H94.3577C94.2457 18.22 94.0417 18.616 93.7457 18.968C93.4577 19.32 93.0937 19.596 92.6537 19.796C92.2137 19.996 91.7217 20.096 91.1777 20.096C90.5217 20.096 89.9377 19.956 89.4257 19.676C88.9137 19.396 88.5137 18.996 88.2257 18.476C87.9377 17.956 87.7937 17.348 87.7937 16.652C87.7937 15.956 87.9337 15.348 88.2137 14.828C88.5017 14.308 88.9017 13.908 89.4137 13.628C89.9257 13.348 90.5137 13.208 91.1777 13.208C91.8257 13.208 92.4017 13.344 92.9057 13.616C93.4097 13.888 93.8017 14.276 94.0817 14.78C94.3697 15.284 94.5137 15.872 94.5137 16.544ZM92.4137 16.004C92.4137 15.652 92.2937 15.372 92.0537 15.164C91.8137 14.956 91.5137 14.852 91.1537 14.852C90.8097 14.852 90.5177 14.952 90.2777 15.152C90.0457 15.352 89.9017 15.636 89.8457 16.004H92.4137ZM103.623 18.512H100.479L99.9752 20H97.8272L100.875 11.576H103.251L106.299 20H104.127L103.623 18.512ZM103.095 16.928L102.051 13.844L101.019 16.928H103.095ZM109.399 14.42C109.639 14.052 109.939 13.764 110.299 13.556C110.659 13.34 111.059 13.232 111.499 13.232V15.404H110.935C110.423 15.404 110.039 15.516 109.783 15.74C109.527 15.956 109.399 16.34 109.399 16.892V20H107.347V13.304H109.399V14.42ZM114.652 14.42C114.892 14.052 115.192 13.764 115.552 13.556C115.912 13.34 116.312 13.232 116.752 13.232V15.404H116.188C115.676 15.404 115.292 15.516 115.036 15.74C114.78 15.956 114.652 16.34 114.652 16.892V20H112.6V13.304H114.652V14.42ZM118.885 12.608C118.525 12.608 118.229 12.504 117.997 12.296C117.773 12.08 117.661 11.816 117.661 11.504C117.661 11.184 117.773 10.92 117.997 10.712C118.229 10.496 118.525 10.388 118.885 10.388C119.237 10.388 119.525 10.496 119.749 10.712C119.981 10.92 120.097 11.184 120.097 11.504C120.097 11.816 119.981 12.08 119.749 12.296C119.525 12.504 119.237 12.608 118.885 12.608ZM119.905 13.304V20H117.853V13.304H119.905ZM124.524 18.08L125.976 13.304H128.16L125.784 20H123.252L120.876 13.304H123.072L124.524 18.08ZM130.175 12.608C129.815 12.608 129.519 12.504 129.287 12.296C129.063 12.08 128.951 11.816 128.951 11.504C128.951 11.184 129.063 10.92 129.287 10.712C129.519 10.496 129.815 10.388 130.175 10.388C130.527 10.388 130.815 10.496 131.039 10.712C131.271 10.92 131.387 11.184 131.387 11.504C131.387 11.816 131.271 12.08 131.039 12.296C130.815 12.504 130.527 12.608 130.175 12.608ZM131.195 13.304V20H129.143V13.304H131.195ZM136.882 13.232C137.666 13.232 138.29 13.488 138.754 14C139.226 14.504 139.462 15.2 139.462 16.088V20H137.422V16.364C137.422 15.916 137.306 15.568 137.074 15.32C136.842 15.072 136.53 14.948 136.138 14.948C135.746 14.948 135.434 15.072 135.202 15.32C134.97 15.568 134.854 15.916 134.854 16.364V20H132.802V13.304H134.854V14.192C135.062 13.896 135.342 13.664 135.694 13.496C136.046 13.32 136.442 13.232 136.882 13.232ZM143.552 13.208C144.024 13.208 144.436 13.304 144.788 13.496C145.148 13.688 145.424 13.94 145.616 14.252V13.304H147.668V19.988C147.668 20.604 147.544 21.16 147.296 21.656C147.056 22.16 146.684 22.56 146.18 22.856C145.684 23.152 145.064 23.3 144.32 23.3C143.328 23.3 142.524 23.064 141.908 22.592C141.292 22.128 140.94 21.496 140.852 20.696H142.88C142.944 20.952 143.096 21.152 143.336 21.296C143.576 21.448 143.872 21.524 144.224 21.524C144.648 21.524 144.984 21.4 145.232 21.152C145.488 20.912 145.616 20.524 145.616 19.988V19.04C145.416 19.352 145.14 19.608 144.788 19.808C144.436 20 144.024 20.096 143.552 20.096C143 20.096 142.5 19.956 142.052 19.676C141.604 19.388 141.248 18.984 140.984 18.464C140.728 17.936 140.6 17.328 140.6 16.64C140.6 15.952 140.728 15.348 140.984 14.828C141.248 14.308 141.604 13.908 142.052 13.628C142.5 13.348 143 13.208 143.552 13.208ZM145.616 16.652C145.616 16.14 145.472 15.736 145.184 15.44C144.904 15.144 144.56 14.996 144.152 14.996C143.744 14.996 143.396 15.144 143.108 15.44C142.828 15.728 142.688 16.128 142.688 16.64C142.688 17.152 142.828 17.56 143.108 17.864C143.396 18.16 143.744 18.308 144.152 18.308C144.56 18.308 144.904 18.16 145.184 17.864C145.472 17.568 145.616 17.164 145.616 16.652ZM106.256 27.576L104.06 36H101.576L100.232 30.456L98.8404 36H96.3564L94.2204 27.576H96.4164L97.6284 33.708L99.1284 27.576H101.384L102.824 33.708L104.048 27.576H106.256ZM108.437 28.608C108.077 28.608 107.781 28.504 107.549 28.296C107.325 28.08 107.213 27.816 107.213 27.504C107.213 27.184 107.325 26.92 107.549 26.712C107.781 26.496 108.077 26.388 108.437 26.388C108.789 26.388 109.077 26.496 109.301 26.712C109.533 26.92 109.649 27.184 109.649 27.504C109.649 27.816 109.533 28.08 109.301 28.296C109.077 28.504 108.789 28.608 108.437 28.608ZM109.457 29.304V36H107.405V29.304H109.457ZM113.117 30.42C113.357 30.052 113.657 29.764 114.017 29.556C114.377 29.34 114.777 29.232 115.217 29.232V31.404H114.653C114.141 31.404 113.757 31.516 113.501 31.74C113.245 31.956 113.117 32.34 113.117 32.892V36H111.065V29.304H113.117V30.42ZM122.629 32.544C122.629 32.736 122.617 32.936 122.593 33.144H117.949C117.981 33.56 118.113 33.88 118.345 34.104C118.585 34.32 118.877 34.428 119.221 34.428C119.733 34.428 120.089 34.212 120.289 33.78H122.473C122.361 34.22 122.157 34.616 121.861 34.968C121.573 35.32 121.209 35.596 120.769 35.796C120.329 35.996 119.837 36.096 119.293 36.096C118.637 36.096 118.053 35.956 117.541 35.676C117.029 35.396 116.629 34.996 116.341 34.476C116.053 33.956 115.909 33.348 115.909 32.652C115.909 31.956 116.049 31.348 116.329 30.828C116.617 30.308 117.017 29.908 117.529 29.628C118.041 29.348 118.629 29.208 119.293 29.208C119.941 29.208 120.517 29.344 121.021 29.616C121.525 29.888 121.917 30.276 122.197 30.78C122.485 31.284 122.629 31.872 122.629 32.544ZM120.529 32.004C120.529 31.652 120.409 31.372 120.169 31.164C119.929 30.956 119.629 30.852 119.269 30.852C118.925 30.852 118.633 30.952 118.393 31.152C118.161 31.352 118.017 31.636 117.961 32.004H120.529Z" fill="white"/>
<path opacity="0.2" d="M148.313 55.163C148.575 54.901 148.575 54.476 148.313 54.214L144.04 49.942C143.778 49.68 143.353 49.68 143.091 49.942C142.829 50.204 142.829 50.629 143.091 50.891L146.889 54.689L143.091 58.486C142.829 58.748 142.829 59.173 143.091 59.435C143.353 59.698 143.778 59.698 144.04 59.435L148.313 55.163ZM61.6621 55.36H147.838V54.017H61.6621V55.36Z" fill="white"/>
<path d="M136.181 112.04H138.869V113.624H134.129V105.2H136.181V112.04ZM140.999 106.232C140.639 106.232 140.343 106.128 140.111 105.92C139.887 105.704 139.775 105.44 139.775 105.128C139.775 104.808 139.887 104.544 140.111 104.336C140.343 104.12 140.639 104.012 140.999 104.012C141.351 104.012 141.639 104.12 141.863 104.336C142.095 104.544 142.211 104.808 142.211 105.128C142.211 105.44 142.095 105.704 141.863 105.92C141.639 106.128 141.351 106.232 140.999 106.232ZM142.019 106.928V113.624H139.967V106.928H142.019ZM147.706 106.856C148.49 106.856 149.114 107.112 149.578 107.624C150.05 108.128 150.286 108.824 150.286 109.712V113.624H148.246V109.988C148.246 109.54 148.13 109.192 147.898 108.944C147.666 108.696 147.354 108.572 146.962 108.572C146.57 108.572 146.258 108.696 146.026 108.944C145.794 109.192 145.678 109.54 145.678 109.988V113.624H143.626V106.928H145.678V107.816C145.886 107.52 146.166 107.288 146.518 107.12C146.87 106.944 147.266 106.856 147.706 106.856ZM158.144 110.168C158.144 110.36 158.132 110.56 158.108 110.768H153.464C153.496 111.184 153.628 111.504 153.86 111.728C154.1 111.944 154.392 112.052 154.736 112.052C155.248 112.052 155.604 111.836 155.804 111.404H157.988C157.876 111.844 157.672 112.24 157.376 112.592C157.088 112.944 156.724 113.22 156.284 113.42C155.844 113.62 155.352 113.72 154.808 113.72C154.152 113.72 153.568 113.58 153.056 113.3C152.544 113.02 152.144 112.62 151.856 112.1C151.568 111.58 151.424 110.972 151.424 110.276C151.424 109.58 151.564 108.972 151.844 108.452C152.132 107.932 152.532 107.532 153.044 107.252C153.556 106.972 154.144 106.832 154.808 106.832C155.456 106.832 156.032 106.968 156.536 107.24C157.04 107.512 157.432 107.9 157.712 108.404C158 108.908 158.144 109.496 158.144 110.168ZM156.044 109.628C156.044 109.276 155.924 108.996 155.684 108.788C155.444 108.58 155.144 108.476 154.784 108.476C154.44 108.476 154.148 108.576 153.908 108.776C153.676 108.976 153.532 109.26 153.476 109.628H156.044ZM165.058 113.72C164.402 113.72 163.81 113.58 163.282 113.3C162.762 113.02 162.35 112.62 162.046 112.1C161.75 111.58 161.602 110.972 161.602 110.276C161.602 109.588 161.754 108.984 162.058 108.464C162.362 107.936 162.778 107.532 163.306 107.252C163.834 106.972 164.426 106.832 165.082 106.832C165.738 106.832 166.33 106.972 166.858 107.252C167.386 107.532 167.802 107.936 168.106 108.464C168.41 108.984 168.562 109.588 168.562 110.276C168.562 110.964 168.406 111.572 168.094 112.1C167.79 112.62 167.37 113.02 166.834 113.3C166.306 113.58 165.714 113.72 165.058 113.72ZM165.058 111.944C165.45 111.944 165.782 111.8 166.054 111.512C166.334 111.224 166.474 110.812 166.474 110.276C166.474 109.74 166.338 109.328 166.066 109.04C165.802 108.752 165.474 108.608 165.082 108.608C164.682 108.608 164.35 108.752 164.086 109.04C163.822 109.32 163.69 109.732 163.69 110.276C163.69 110.812 163.818 111.224 164.074 111.512C164.338 111.8 164.666 111.944 165.058 111.944ZM173.131 108.632H172.027V113.624H169.975V108.632H169.231V106.928H169.975V106.736C169.975 105.912 170.211 105.288 170.683 104.864C171.155 104.432 171.847 104.216 172.759 104.216C172.911 104.216 173.023 104.22 173.095 104.228V105.968C172.703 105.944 172.427 106 172.267 106.136C172.107 106.272 172.027 106.516 172.027 106.868V106.928H173.131V108.632ZM118.123 126.276C118.123 125.58 118.263 124.972 118.543 124.452C118.831 123.932 119.227 123.532 119.731 123.252C120.243 122.972 120.827 122.832 121.483 122.832C122.323 122.832 123.023 123.052 123.583 123.492C124.151 123.932 124.523 124.552 124.699 125.352H122.515C122.331 124.84 121.975 124.584 121.447 124.584C121.071 124.584 120.771 124.732 120.547 125.028C120.323 125.316 120.211 125.732 120.211 126.276C120.211 126.82 120.323 127.24 120.547 127.536C120.771 127.824 121.071 127.968 121.447 127.968C121.975 127.968 122.331 127.712 122.515 127.2H124.699C124.523 127.984 124.151 128.6 123.583 129.048C123.015 129.496 122.315 129.72 121.483 129.72C120.827 129.72 120.243 129.58 119.731 129.3C119.227 129.02 118.831 128.62 118.543 128.1C118.263 127.58 118.123 126.972 118.123 126.276ZM127.969 124.044C128.209 123.676 128.509 123.388 128.869 123.18C129.229 122.964 129.629 122.856 130.069 122.856V125.028H129.505C128.993 125.028 128.609 125.14 128.353 125.364C128.097 125.58 127.969 125.964 127.969 126.516V129.624H125.917V122.928H127.969V124.044ZM137.482 126.168C137.482 126.36 137.47 126.56 137.446 126.768H132.802C132.834 127.184 132.966 127.504 133.198 127.728C133.438 127.944 133.73 128.052 134.074 128.052C134.586 128.052 134.942 127.836 135.142 127.404H137.326C137.214 127.844 137.01 128.24 136.714 128.592C136.426 128.944 136.062 129.22 135.622 129.42C135.182 129.62 134.69 129.72 134.146 129.72C133.49 129.72 132.906 129.58 132.394 129.3C131.882 129.02 131.482 128.62 131.194 128.1C130.906 127.58 130.762 126.972 130.762 126.276C130.762 125.58 130.902 124.972 131.182 124.452C131.47 123.932 131.87 123.532 132.382 123.252C132.894 122.972 133.482 122.832 134.146 122.832C134.794 122.832 135.37 122.968 135.874 123.24C136.378 123.512 136.77 123.9 137.05 124.404C137.338 124.908 137.482 125.496 137.482 126.168ZM135.382 125.628C135.382 125.276 135.262 124.996 135.022 124.788C134.782 124.58 134.482 124.476 134.122 124.476C133.778 124.476 133.486 124.576 133.246 124.776C133.014 124.976 132.87 125.26 132.814 125.628H135.382ZM138.276 126.264C138.276 125.576 138.404 124.972 138.66 124.452C138.924 123.932 139.28 123.532 139.728 123.252C140.176 122.972 140.676 122.832 141.228 122.832C141.668 122.832 142.068 122.924 142.428 123.108C142.796 123.292 143.084 123.54 143.292 123.852V120.744H145.344V129.624H143.292V128.664C143.1 128.984 142.824 129.24 142.464 129.432C142.112 129.624 141.7 129.72 141.228 129.72C140.676 129.72 140.176 129.58 139.728 129.3C139.28 129.012 138.924 128.608 138.66 128.088C138.404 127.56 138.276 126.952 138.276 126.264ZM143.292 126.276C143.292 125.764 143.148 125.36 142.86 125.064C142.58 124.768 142.236 124.62 141.828 124.62C141.42 124.62 141.072 124.768 140.784 125.064C140.504 125.352 140.364 125.752 140.364 126.264C140.364 126.776 140.504 127.184 140.784 127.488C141.072 127.784 141.42 127.932 141.828 127.932C142.236 127.932 142.58 127.784 142.86 127.488C143.148 127.192 143.292 126.788 143.292 126.276ZM147.981 122.232C147.621 122.232 147.325 122.128 147.093 121.92C146.869 121.704 146.757 121.44 146.757 121.128C146.757 120.808 146.869 120.544 147.093 120.336C147.325 120.12 147.621 120.012 147.981 120.012C148.333 120.012 148.621 120.12 148.845 120.336C149.077 120.544 149.193 120.808 149.193 121.128C149.193 121.44 149.077 121.704 148.845 121.92C148.621 122.128 148.333 122.232 147.981 122.232ZM149.001 122.928V129.624H146.949V122.928H149.001ZM154.34 127.884V129.624H153.296C152.552 129.624 151.972 129.444 151.556 129.084C151.14 128.716 150.932 128.12 150.932 127.296V124.632H150.116V122.928H150.932V121.296H152.984V122.928H154.328V124.632H152.984V127.32C152.984 127.52 153.032 127.664 153.128 127.752C153.224 127.84 153.384 127.884 153.608 127.884H154.34ZM158.327 129.72C157.743 129.72 157.223 129.62 156.767 129.42C156.311 129.22 155.951 128.948 155.687 128.604C155.423 128.252 155.275 127.86 155.243 127.428H157.271C157.295 127.66 157.403 127.848 157.595 127.992C157.787 128.136 158.023 128.208 158.303 128.208C158.559 128.208 158.755 128.16 158.891 128.064C159.035 127.96 159.107 127.828 159.107 127.668C159.107 127.476 159.007 127.336 158.807 127.248C158.607 127.152 158.283 127.048 157.835 126.936C157.355 126.824 156.955 126.708 156.635 126.588C156.315 126.46 156.039 126.264 155.807 126C155.575 125.728 155.459 125.364 155.459 124.908C155.459 124.524 155.563 124.176 155.771 123.864C155.987 123.544 156.299 123.292 156.707 123.108C157.123 122.924 157.615 122.832 158.183 122.832C159.023 122.832 159.683 123.04 160.163 123.456C160.651 123.872 160.931 124.424 161.003 125.112H159.107C159.075 124.88 158.971 124.696 158.795 124.56C158.627 124.424 158.403 124.356 158.123 124.356C157.883 124.356 157.699 124.404 157.571 124.5C157.443 124.588 157.379 124.712 157.379 124.872C157.379 125.064 157.479 125.208 157.679 125.304C157.887 125.4 158.207 125.496 158.639 125.592C159.135 125.72 159.539 125.848 159.851 125.976C160.163 126.096 160.435 126.296 160.667 126.576C160.907 126.848 161.031 127.216 161.039 127.68C161.039 128.072 160.927 128.424 160.703 128.736C160.487 129.04 160.171 129.28 159.755 129.456C159.347 129.632 158.871 129.72 158.327 129.72ZM164.669 126.264C164.669 125.576 164.797 124.972 165.053 124.452C165.317 123.932 165.673 123.532 166.121 123.252C166.569 122.972 167.069 122.832 167.621 122.832C168.093 122.832 168.505 122.928 168.857 123.12C169.217 123.312 169.493 123.564 169.685 123.876V122.928H171.737V129.624H169.685V128.676C169.485 128.988 169.205 129.24 168.845 129.432C168.493 129.624 168.081 129.72 167.609 129.72C167.065 129.72 166.569 129.58 166.121 129.3C165.673 129.012 165.317 128.608 165.053 128.088C164.797 127.56 164.669 126.952 164.669 126.264ZM169.685 126.276C169.685 125.764 169.541 125.36 169.253 125.064C168.973 124.768 168.629 124.62 168.221 124.62C167.813 124.62 167.465 124.768 167.177 125.064C166.897 125.352 166.757 125.752 166.757 126.264C166.757 126.776 166.897 127.184 167.177 127.488C167.465 127.784 167.813 127.932 168.221 127.932C168.629 127.932 168.973 127.784 169.253 127.488C169.541 127.192 169.685 126.788 169.685 126.276ZM177.422 122.856C178.206 122.856 178.83 123.112 179.294 123.624C179.766 124.128 180.002 124.824 180.002 125.712V129.624H177.962V125.988C177.962 125.54 177.846 125.192 177.614 124.944C177.382 124.696 177.07 124.572 176.678 124.572C176.286 124.572 175.974 124.696 175.742 124.944C175.51 125.192 175.394 125.54 175.394 125.988V129.624H173.342V122.928H175.394V123.816C175.602 123.52 175.882 123.288 176.234 123.12C176.586 122.944 176.982 122.856 177.422 122.856ZM181.14 126.264C181.14 125.576 181.268 124.972 181.524 124.452C181.788 123.932 182.144 123.532 182.592 123.252C183.04 122.972 183.54 122.832 184.092 122.832C184.532 122.832 184.932 122.924 185.292 123.108C185.66 123.292 185.948 123.54 186.156 123.852V120.744H188.208V129.624H186.156V128.664C185.964 128.984 185.688 129.24 185.328 129.432C184.976 129.624 184.564 129.72 184.092 129.72C183.54 129.72 183.04 129.58 182.592 129.3C182.144 129.012 181.788 128.608 181.524 128.088C181.268 127.56 181.14 126.952 181.14 126.264ZM186.156 126.276C186.156 125.764 186.012 125.36 185.724 125.064C185.444 124.768 185.1 124.62 184.692 124.62C184.284 124.62 183.936 124.768 183.648 125.064C183.368 125.352 183.228 125.752 183.228 126.264C183.228 126.776 183.368 127.184 183.648 127.488C183.936 127.784 184.284 127.932 184.692 127.932C185.1 127.932 185.444 127.784 185.724 127.488C186.012 127.192 186.156 126.788 186.156 126.276ZM144.449 140.632H143.345V145.624H141.293V140.632H140.549V138.928H141.293V138.736C141.293 137.912 141.529 137.288 142.001 136.864C142.473 136.432 143.165 136.216 144.077 136.216C144.229 136.216 144.341 136.22 144.413 136.228V137.968C144.021 137.944 143.745 138 143.585 138.136C143.425 138.272 143.345 138.516 143.345 138.868V138.928H144.449V140.632ZM151.846 142.168C151.846 142.36 151.834 142.56 151.81 142.768H147.166C147.198 143.184 147.33 143.504 147.562 143.728C147.802 143.944 148.094 144.052 148.438 144.052C148.95 144.052 149.306 143.836 149.506 143.404H151.69C151.578 143.844 151.374 144.24 151.078 144.592C150.79 144.944 150.426 145.22 149.986 145.42C149.546 145.62 149.054 145.72 148.51 145.72C147.854 145.72 147.27 145.58 146.758 145.3C146.246 145.02 145.846 144.62 145.558 144.1C145.27 143.58 145.126 142.972 145.126 142.276C145.126 141.58 145.266 140.972 145.546 140.452C145.834 139.932 146.234 139.532 146.746 139.252C147.258 138.972 147.846 138.832 148.51 138.832C149.158 138.832 149.734 138.968 150.238 139.24C150.742 139.512 151.134 139.9 151.414 140.404C151.702 140.908 151.846 141.496 151.846 142.168ZM149.746 141.628C149.746 141.276 149.626 140.996 149.386 140.788C149.146 140.58 148.846 140.476 148.486 140.476C148.142 140.476 147.85 140.576 147.61 140.776C147.378 140.976 147.234 141.26 147.178 141.628H149.746ZM159.36 142.168C159.36 142.36 159.348 142.56 159.324 142.768H154.68C154.712 143.184 154.844 143.504 155.076 143.728C155.316 143.944 155.608 144.052 155.952 144.052C156.464 144.052 156.82 143.836 157.02 143.404H159.204C159.092 143.844 158.888 144.24 158.592 144.592C158.304 144.944 157.94 145.22 157.5 145.42C157.06 145.62 156.568 145.72 156.024 145.72C155.368 145.72 154.784 145.58 154.272 145.3C153.76 145.02 153.36 144.62 153.072 144.1C152.784 143.58 152.64 142.972 152.64 142.276C152.64 141.58 152.78 140.972 153.06 140.452C153.348 139.932 153.748 139.532 154.26 139.252C154.772 138.972 155.36 138.832 156.024 138.832C156.672 138.832 157.248 138.968 157.752 139.24C158.256 139.512 158.648 139.9 158.928 140.404C159.216 140.908 159.36 141.496 159.36 142.168ZM157.26 141.628C157.26 141.276 157.14 140.996 156.9 140.788C156.66 140.58 156.36 140.476 156 140.476C155.656 140.476 155.364 140.576 155.124 140.776C154.892 140.976 154.748 141.26 154.692 141.628H157.26ZM163.287 145.72C162.703 145.72 162.183 145.62 161.727 145.42C161.271 145.22 160.911 144.948 160.647 144.604C160.383 144.252 160.235 143.86 160.203 143.428H162.231C162.255 143.66 162.363 143.848 162.555 143.992C162.747 144.136 162.983 144.208 163.263 144.208C163.519 144.208 163.715 144.16 163.851 144.064C163.995 143.96 164.067 143.828 164.067 143.668C164.067 143.476 163.967 143.336 163.767 143.248C163.567 143.152 163.243 143.048 162.795 142.936C162.315 142.824 161.915 142.708 161.595 142.588C161.275 142.46 160.999 142.264 160.767 142C160.535 141.728 160.419 141.364 160.419 140.908C160.419 140.524 160.523 140.176 160.731 139.864C160.947 139.544 161.259 139.292 161.667 139.108C162.083 138.924 162.575 138.832 163.143 138.832C163.983 138.832 164.643 139.04 165.123 139.456C165.611 139.872 165.891 140.424 165.963 141.112H164.067C164.035 140.88 163.931 140.696 163.755 140.56C163.587 140.424 163.363 140.356 163.083 140.356C162.843 140.356 162.659 140.404 162.531 140.5C162.403 140.588 162.339 140.712 162.339 140.872C162.339 141.064 162.439 141.208 162.639 141.304C162.847 141.4 163.167 141.496 163.599 141.592C164.095 141.72 164.499 141.848 164.811 141.976C165.123 142.096 165.395 142.296 165.627 142.576C165.867 142.848 165.991 143.216 165.999 143.68C165.999 144.072 165.887 144.424 165.663 144.736C165.447 145.04 165.131 145.28 164.715 145.456C164.307 145.632 163.831 145.72 163.287 145.72Z" fill="white"/>
<path opacity="0.2" d="M204.919 148.264C205.181 148.526 205.606 148.526 205.868 148.264L210.14 143.992C210.403 143.73 210.403 143.305 210.14 143.043C209.878 142.78 209.453 142.78 209.191 143.043L205.394 146.84L201.596 143.043C201.334 142.78 200.909 142.78 200.647 143.043C200.385 143.305 200.385 143.73 200.647 143.992L204.919 148.264ZM205.868 101.004C205.606 100.742 205.181 100.742 204.919 101.004L200.647 105.276C200.385 105.539 200.385 105.964 200.647 106.226C200.909 106.488 201.334 106.488 201.596 106.226L205.394 102.428L209.191 106.226C209.453 106.488 209.878 106.488 210.14 106.226C210.403 105.964 210.403 105.539 210.14 105.276L205.868 101.004ZM206.065 147.789V101.479H204.722V147.789H206.065Z" fill="white"/>
<path opacity="0.2" d="M254.707 239.962C254.34 240.018 254.089 240.361 254.145 240.727L255.064 246.699C255.12 247.065 255.463 247.317 255.829 247.26C256.196 247.204 256.447 246.861 256.391 246.495L255.574 241.187L260.882 240.37C261.249 240.314 261.5 239.971 261.444 239.604C261.387 239.238 261.044 238.987 260.678 239.043L254.707 239.962ZM291.354 268.014C291.721 267.957 291.972 267.615 291.916 267.248L290.997 261.277C290.94 260.91 290.598 260.659 290.231 260.715C289.865 260.772 289.613 261.115 289.67 261.481L290.486 266.789L285.178 267.606C284.812 267.662 284.561 268.005 284.617 268.371C284.673 268.738 285.016 268.989 285.383 268.933L291.354 268.014ZM254.412 241.167L290.855 267.892L291.649 266.809L255.206 240.084L254.412 241.167Z" fill="white"/>
<path d="M296.798 200.084C296.182 200.084 295.63 199.984 295.142 199.784C294.654 199.584 294.262 199.288 293.966 198.896C293.678 198.504 293.526 198.032 293.51 197.48H295.694C295.726 197.792 295.834 198.032 296.018 198.2C296.202 198.36 296.442 198.44 296.738 198.44C297.042 198.44 297.282 198.372 297.458 198.236C297.634 198.092 297.722 197.896 297.722 197.648C297.722 197.44 297.65 197.268 297.506 197.132C297.37 196.996 297.198 196.884 296.99 196.796C296.79 196.708 296.502 196.608 296.126 196.496C295.582 196.328 295.138 196.16 294.794 195.992C294.45 195.824 294.154 195.576 293.906 195.248C293.658 194.92 293.534 194.492 293.534 193.964C293.534 193.18 293.818 192.568 294.386 192.128C294.954 191.68 295.694 191.456 296.606 191.456C297.534 191.456 298.282 191.68 298.85 192.128C299.418 192.568 299.722 193.184 299.762 193.976H297.542C297.526 193.704 297.426 193.492 297.242 193.34C297.058 193.18 296.822 193.1 296.534 193.1C296.286 193.1 296.086 193.168 295.934 193.304C295.782 193.432 295.706 193.62 295.706 193.868C295.706 194.14 295.834 194.352 296.09 194.504C296.346 194.656 296.746 194.82 297.29 194.996C297.834 195.18 298.274 195.356 298.61 195.524C298.954 195.692 299.25 195.936 299.498 196.256C299.746 196.576 299.87 196.988 299.87 197.492C299.87 197.972 299.746 198.408 299.498 198.8C299.258 199.192 298.906 199.504 298.442 199.736C297.978 199.968 297.43 200.084 296.798 200.084ZM310.865 193.304L309.053 200H306.785L305.729 195.656L304.637 200H302.381L300.557 193.304H302.609L303.557 198.092L304.685 193.304H306.857L307.997 198.068L308.933 193.304H310.865ZM318.079 196.544C318.079 196.736 318.067 196.936 318.043 197.144H313.399C313.431 197.56 313.563 197.88 313.795 198.104C314.035 198.32 314.327 198.428 314.671 198.428C315.183 198.428 315.539 198.212 315.739 197.78H317.923C317.811 198.22 317.607 198.616 317.311 198.968C317.023 199.32 316.659 199.596 316.219 199.796C315.779 199.996 315.287 200.096 314.743 200.096C314.087 200.096 313.503 199.956 312.991 199.676C312.479 199.396 312.079 198.996 311.791 198.476C311.503 197.956 311.359 197.348 311.359 196.652C311.359 195.956 311.499 195.348 311.779 194.828C312.067 194.308 312.467 193.908 312.979 193.628C313.491 193.348 314.079 193.208 314.743 193.208C315.391 193.208 315.967 193.344 316.471 193.616C316.975 193.888 317.367 194.276 317.647 194.78C317.935 195.284 318.079 195.872 318.079 196.544ZM315.979 196.004C315.979 195.652 315.859 195.372 315.619 195.164C315.379 194.956 315.079 194.852 314.719 194.852C314.375 194.852 314.083 194.952 313.843 195.152C313.611 195.352 313.467 195.636 313.411 196.004H315.979ZM325.594 196.544C325.594 196.736 325.582 196.936 325.558 197.144H320.914C320.946 197.56 321.078 197.88 321.31 198.104C321.55 198.32 321.842 198.428 322.186 198.428C322.698 198.428 323.054 198.212 323.254 197.78H325.438C325.326 198.22 325.122 198.616 324.826 198.968C324.538 199.32 324.174 199.596 323.734 199.796C323.294 199.996 322.802 200.096 322.258 200.096C321.602 200.096 321.018 199.956 320.506 199.676C319.994 199.396 319.594 198.996 319.306 198.476C319.018 197.956 318.874 197.348 318.874 196.652C318.874 195.956 319.014 195.348 319.294 194.828C319.582 194.308 319.982 193.908 320.494 193.628C321.006 193.348 321.594 193.208 322.258 193.208C322.906 193.208 323.482 193.344 323.986 193.616C324.49 193.888 324.882 194.276 325.162 194.78C325.45 195.284 325.594 195.872 325.594 196.544ZM323.494 196.004C323.494 195.652 323.374 195.372 323.134 195.164C322.894 194.956 322.594 194.852 322.234 194.852C321.89 194.852 321.598 194.952 321.358 195.152C321.126 195.352 320.982 195.636 320.926 196.004H323.494ZM328.848 194.252C329.048 193.94 329.324 193.688 329.676 193.496C330.028 193.304 330.44 193.208 330.912 193.208C331.464 193.208 331.964 193.348 332.412 193.628C332.86 193.908 333.212 194.308 333.468 194.828C333.732 195.348 333.864 195.952 333.864 196.64C333.864 197.328 333.732 197.936 333.468 198.464C333.212 198.984 332.86 199.388 332.412 199.676C331.964 199.956 331.464 200.096 330.912 200.096C330.448 200.096 330.036 200 329.676 199.808C329.324 199.616 329.048 199.368 328.848 199.064V203.192H326.796V193.304H328.848V194.252ZM331.776 196.64C331.776 196.128 331.632 195.728 331.344 195.44C331.064 195.144 330.716 194.996 330.3 194.996C329.892 194.996 329.544 195.144 329.256 195.44C328.976 195.736 328.836 196.14 328.836 196.652C328.836 197.164 328.976 197.568 329.256 197.864C329.544 198.16 329.892 198.308 330.3 198.308C330.708 198.308 331.056 198.16 331.344 197.864C331.632 197.56 331.776 197.152 331.776 196.64ZM337.316 196.64C337.316 195.952 337.444 195.348 337.7 194.828C337.964 194.308 338.32 193.908 338.768 193.628C339.216 193.348 339.716 193.208 340.268 193.208C340.74 193.208 341.152 193.304 341.504 193.496C341.864 193.688 342.14 193.94 342.332 194.252V193.304H344.384V200H342.332V199.052C342.132 199.364 341.852 199.616 341.492 199.808C341.14 200 340.728 200.096 340.256 200.096C339.712 200.096 339.216 199.956 338.768 199.676C338.32 199.388 337.964 198.984 337.7 198.464C337.444 197.936 337.316 197.328 337.316 196.64ZM342.332 196.652C342.332 196.14 342.188 195.736 341.9 195.44C341.62 195.144 341.276 194.996 340.868 194.996C340.46 194.996 340.112 195.144 339.824 195.44C339.544 195.728 339.404 196.128 339.404 196.64C339.404 197.152 339.544 197.56 339.824 197.864C340.112 198.16 340.46 198.308 340.868 198.308C341.276 198.308 341.62 198.16 341.9 197.864C342.188 197.568 342.332 197.164 342.332 196.652ZM345.58 196.652C345.58 195.956 345.72 195.348 346 194.828C346.288 194.308 346.684 193.908 347.188 193.628C347.7 193.348 348.284 193.208 348.94 193.208C349.78 193.208 350.48 193.428 351.04 193.868C351.608 194.308 351.98 194.928 352.156 195.728H349.972C349.788 195.216 349.432 194.96 348.904 194.96C348.528 194.96 348.228 195.108 348.004 195.404C347.78 195.692 347.668 196.108 347.668 196.652C347.668 197.196 347.78 197.616 348.004 197.912C348.228 198.2 348.528 198.344 348.904 198.344C349.432 198.344 349.788 198.088 349.972 197.576H352.156C351.98 198.36 351.608 198.976 351.04 199.424C350.472 199.872 349.772 200.096 348.94 200.096C348.284 200.096 347.7 199.956 347.188 199.676C346.684 199.396 346.288 198.996 346 198.476C345.72 197.956 345.58 197.348 345.58 196.652ZM352.966 196.652C352.966 195.956 353.106 195.348 353.386 194.828C353.674 194.308 354.07 193.908 354.574 193.628C355.086 193.348 355.67 193.208 356.326 193.208C357.166 193.208 357.866 193.428 358.426 193.868C358.994 194.308 359.366 194.928 359.542 195.728H357.358C357.174 195.216 356.818 194.96 356.29 194.96C355.914 194.96 355.614 195.108 355.39 195.404C355.166 195.692 355.054 196.108 355.054 196.652C355.054 197.196 355.166 197.616 355.39 197.912C355.614 198.2 355.914 198.344 356.29 198.344C356.818 198.344 357.174 198.088 357.358 197.576H359.542C359.366 198.36 358.994 198.976 358.426 199.424C357.858 199.872 357.158 200.096 356.326 200.096C355.67 200.096 355.086 199.956 354.574 199.676C354.07 199.396 353.674 198.996 353.386 198.476C353.106 197.956 352.966 197.348 352.966 196.652ZM363.807 200.096C363.151 200.096 362.559 199.956 362.031 199.676C361.511 199.396 361.099 198.996 360.795 198.476C360.499 197.956 360.351 197.348 360.351 196.652C360.351 195.964 360.503 195.36 360.807 194.84C361.111 194.312 361.527 193.908 362.055 193.628C362.583 193.348 363.175 193.208 363.831 193.208C364.487 193.208 365.079 193.348 365.607 193.628C366.135 193.908 366.551 194.312 366.855 194.84C367.159 195.36 367.311 195.964 367.311 196.652C367.311 197.34 367.155 197.948 366.843 198.476C366.539 198.996 366.119 199.396 365.583 199.676C365.055 199.956 364.463 200.096 363.807 200.096ZM363.807 198.32C364.199 198.32 364.531 198.176 364.803 197.888C365.083 197.6 365.223 197.188 365.223 196.652C365.223 196.116 365.087 195.704 364.815 195.416C364.551 195.128 364.223 194.984 363.831 194.984C363.431 194.984 363.099 195.128 362.835 195.416C362.571 195.696 362.439 196.108 362.439 196.652C362.439 197.188 362.567 197.6 362.823 197.888C363.087 198.176 363.415 198.32 363.807 198.32ZM375.132 193.304V200H373.08V199.088C372.872 199.384 372.588 199.624 372.228 199.808C371.876 199.984 371.484 200.072 371.052 200.072C370.54 200.072 370.088 199.96 369.696 199.736C369.304 199.504 369 199.172 368.784 198.74C368.568 198.308 368.46 197.8 368.46 197.216V193.304H370.5V196.94C370.5 197.388 370.616 197.736 370.848 197.984C371.08 198.232 371.392 198.356 371.784 198.356C372.184 198.356 372.5 198.232 372.732 197.984C372.964 197.736 373.08 197.388 373.08 196.94V193.304H375.132ZM380.806 193.232C381.59 193.232 382.214 193.488 382.678 194C383.15 194.504 383.386 195.2 383.386 196.088V200H381.346V196.364C381.346 195.916 381.23 195.568 380.998 195.32C380.766 195.072 380.454 194.948 380.062 194.948C379.67 194.948 379.358 195.072 379.126 195.32C378.894 195.568 378.778 195.916 378.778 196.364V200H376.726V193.304H378.778V194.192C378.986 193.896 379.266 193.664 379.618 193.496C379.97 193.32 380.366 193.232 380.806 193.232ZM388.664 198.26V200H387.62C386.876 200 386.296 199.82 385.88 199.46C385.464 199.092 385.256 198.496 385.256 197.672V195.008H384.44V193.304H385.256V191.672H387.308V193.304H388.652V195.008H387.308V197.696C387.308 197.896 387.356 198.04 387.452 198.128C387.548 198.216 387.708 198.26 387.932 198.26H388.664ZM392.651 200.096C392.067 200.096 391.547 199.996 391.091 199.796C390.635 199.596 390.275 199.324 390.011 198.98C389.747 198.628 389.599 198.236 389.567 197.804H391.595C391.619 198.036 391.727 198.224 391.919 198.368C392.111 198.512 392.347 198.584 392.627 198.584C392.883 198.584 393.079 198.536 393.215 198.44C393.359 198.336 393.431 198.204 393.431 198.044C393.431 197.852 393.331 197.712 393.131 197.624C392.931 197.528 392.607 197.424 392.159 197.312C391.679 197.2 391.279 197.084 390.959 196.964C390.639 196.836 390.363 196.64 390.131 196.376C389.899 196.104 389.783 195.74 389.783 195.284C389.783 194.9 389.887 194.552 390.095 194.24C390.311 193.92 390.623 193.668 391.031 193.484C391.447 193.3 391.939 193.208 392.507 193.208C393.347 193.208 394.007 193.416 394.487 193.832C394.975 194.248 395.255 194.8 395.327 195.488H393.431C393.399 195.256 393.295 195.072 393.119 194.936C392.951 194.8 392.727 194.732 392.447 194.732C392.207 194.732 392.023 194.78 391.895 194.876C391.767 194.964 391.703 195.088 391.703 195.248C391.703 195.44 391.803 195.584 392.003 195.68C392.211 195.776 392.531 195.872 392.963 195.968C393.459 196.096 393.863 196.224 394.175 196.352C394.487 196.472 394.759 196.672 394.991 196.952C395.231 197.224 395.355 197.592 395.363 198.056C395.363 198.448 395.251 198.8 395.027 199.112C394.811 199.416 394.495 199.656 394.079 199.832C393.671 200.008 393.195 200.096 392.651 200.096ZM306.415 211.544C306.415 211.736 306.403 211.936 306.379 212.144H301.735C301.767 212.56 301.899 212.88 302.131 213.104C302.371 213.32 302.663 213.428 303.007 213.428C303.519 213.428 303.875 213.212 304.075 212.78H306.259C306.147 213.22 305.943 213.616 305.647 213.968C305.359 214.32 304.995 214.596 304.555 214.796C304.115 214.996 303.623 215.096 303.079 215.096C302.423 215.096 301.839 214.956 301.327 214.676C300.815 214.396 300.415 213.996 300.127 213.476C299.839 212.956 299.695 212.348 299.695 211.652C299.695 210.956 299.835 210.348 300.115 209.828C300.403 209.308 300.803 208.908 301.315 208.628C301.827 208.348 302.415 208.208 303.079 208.208C303.727 208.208 304.303 208.344 304.807 208.616C305.311 208.888 305.703 209.276 305.983 209.78C306.271 210.284 306.415 210.872 306.415 211.544ZM304.315 211.004C304.315 210.652 304.195 210.372 303.955 210.164C303.715 209.956 303.415 209.852 303.055 209.852C302.711 209.852 302.419 209.952 302.179 210.152C301.947 210.352 301.803 210.636 301.747 211.004H304.315ZM307.209 211.64C307.209 210.952 307.337 210.348 307.593 209.828C307.857 209.308 308.213 208.908 308.661 208.628C309.109 208.348 309.609 208.208 310.161 208.208C310.633 208.208 311.045 208.304 311.397 208.496C311.757 208.688 312.033 208.94 312.225 209.252V208.304H314.277V215H312.225V214.052C312.025 214.364 311.745 214.616 311.385 214.808C311.033 215 310.621 215.096 310.149 215.096C309.605 215.096 309.109 214.956 308.661 214.676C308.213 214.388 307.857 213.984 307.593 213.464C307.337 212.936 307.209 212.328 307.209 211.64ZM312.225 211.652C312.225 211.14 312.081 210.736 311.793 210.44C311.513 210.144 311.169 209.996 310.761 209.996C310.353 209.996 310.005 210.144 309.717 210.44C309.437 210.728 309.297 211.128 309.297 211.64C309.297 212.152 309.437 212.56 309.717 212.864C310.005 213.16 310.353 213.308 310.761 213.308C311.169 213.308 311.513 213.16 311.793 212.864C312.081 212.568 312.225 212.164 312.225 211.652ZM317.934 209.42C318.174 209.052 318.474 208.764 318.834 208.556C319.194 208.34 319.594 208.232 320.034 208.232V210.404H319.47C318.958 210.404 318.574 210.516 318.318 210.74C318.062 210.956 317.934 211.34 317.934 211.892V215H315.882V208.304H317.934V209.42ZM325.215 208.232C325.999 208.232 326.623 208.488 327.087 209C327.559 209.504 327.795 210.2 327.795 211.088V215H325.755V211.364C325.755 210.916 325.639 210.568 325.407 210.32C325.175 210.072 324.863 209.948 324.471 209.948C324.079 209.948 323.767 210.072 323.535 210.32C323.303 210.568 323.187 210.916 323.187 211.364V215H321.135V208.304H323.187V209.192C323.395 208.896 323.675 208.664 324.027 208.496C324.379 208.32 324.775 208.232 325.215 208.232ZM336.083 208.232C336.867 208.232 337.491 208.488 337.955 209C338.427 209.504 338.663 210.2 338.663 211.088V215H336.623V211.364C336.623 210.916 336.507 210.568 336.275 210.32C336.043 210.072 335.731 209.948 335.339 209.948C334.947 209.948 334.635 210.072 334.403 210.32C334.171 210.568 334.055 210.916 334.055 211.364V215H332.003V208.304H334.055V209.192C334.263 208.896 334.543 208.664 334.895 208.496C335.247 208.32 335.643 208.232 336.083 208.232ZM346.521 211.544C346.521 211.736 346.509 211.936 346.485 212.144H341.841C341.873 212.56 342.005 212.88 342.237 213.104C342.477 213.32 342.769 213.428 343.113 213.428C343.625 213.428 343.981 213.212 344.181 212.78H346.365C346.253 213.22 346.049 213.616 345.753 213.968C345.465 214.32 345.101 214.596 344.661 214.796C344.221 214.996 343.729 215.096 343.185 215.096C342.529 215.096 341.945 214.956 341.433 214.676C340.921 214.396 340.521 213.996 340.233 213.476C339.945 212.956 339.801 212.348 339.801 211.652C339.801 210.956 339.941 210.348 340.221 209.828C340.509 209.308 340.909 208.908 341.421 208.628C341.933 208.348 342.521 208.208 343.185 208.208C343.833 208.208 344.409 208.344 344.913 208.616C345.417 208.888 345.809 209.276 346.089 209.78C346.377 210.284 346.521 210.872 346.521 211.544ZM344.421 211.004C344.421 210.652 344.301 210.372 344.061 210.164C343.821 209.956 343.521 209.852 343.161 209.852C342.817 209.852 342.525 209.952 342.285 210.152C342.053 210.352 341.909 210.636 341.853 211.004H344.421ZM347.316 211.64C347.316 210.952 347.444 210.348 347.7 209.828C347.964 209.308 348.32 208.908 348.768 208.628C349.216 208.348 349.716 208.208 350.268 208.208C350.74 208.208 351.152 208.304 351.504 208.496C351.864 208.688 352.14 208.94 352.332 209.252V208.304H354.384V215H352.332V214.052C352.132 214.364 351.852 214.616 351.492 214.808C351.14 215 350.728 215.096 350.256 215.096C349.712 215.096 349.216 214.956 348.768 214.676C348.32 214.388 347.964 213.984 347.7 213.464C347.444 212.936 347.316 212.328 347.316 211.64ZM352.332 211.652C352.332 211.14 352.188 210.736 351.9 210.44C351.62 210.144 351.276 209.996 350.868 209.996C350.46 209.996 350.112 210.144 349.824 210.44C349.544 210.728 349.404 211.128 349.404 211.64C349.404 212.152 349.544 212.56 349.824 212.864C350.112 213.16 350.46 213.308 350.868 213.308C351.276 213.308 351.62 213.16 351.9 212.864C352.188 212.568 352.332 212.164 352.332 211.652ZM358.04 209.42C358.28 209.052 358.58 208.764 358.94 208.556C359.3 208.34 359.7 208.232 360.14 208.232V210.404H359.576C359.064 210.404 358.68 210.516 358.424 210.74C358.168 210.956 358.04 211.34 358.04 211.892V215H355.988V208.304H358.04V209.42ZM365.824 213.308H368.728V215H363.532V213.368L366.316 209.996H363.556V208.304H368.668V209.936L365.824 213.308ZM376.289 211.544C376.289 211.736 376.277 211.936 376.253 212.144H371.609C371.641 212.56 371.773 212.88 372.005 213.104C372.245 213.32 372.537 213.428 372.881 213.428C373.393 213.428 373.749 213.212 373.949 212.78H376.133C376.021 213.22 375.817 213.616 375.521 213.968C375.233 214.32 374.869 214.596 374.429 214.796C373.989 214.996 373.497 215.096 372.953 215.096C372.297 215.096 371.713 214.956 371.201 214.676C370.689 214.396 370.289 213.996 370.001 213.476C369.713 212.956 369.569 212.348 369.569 211.652C369.569 210.956 369.709 210.348 369.989 209.828C370.277 209.308 370.677 208.908 371.189 208.628C371.701 208.348 372.289 208.208 372.953 208.208C373.601 208.208 374.177 208.344 374.681 208.616C375.185 208.888 375.577 209.276 375.857 209.78C376.145 210.284 376.289 210.872 376.289 211.544ZM374.189 211.004C374.189 210.652 374.069 210.372 373.829 210.164C373.589 209.956 373.289 209.852 372.929 209.852C372.585 209.852 372.293 209.952 372.053 210.152C371.821 210.352 371.677 210.636 371.621 211.004H374.189ZM379.544 209.42C379.784 209.052 380.084 208.764 380.444 208.556C380.804 208.34 381.204 208.232 381.644 208.232V210.404H381.08C380.568 210.404 380.184 210.516 379.928 210.74C379.672 210.956 379.544 211.34 379.544 211.892V215H377.492V208.304H379.544V209.42ZM385.793 215.096C385.137 215.096 384.545 214.956 384.017 214.676C383.497 214.396 383.085 213.996 382.781 213.476C382.485 212.956 382.337 212.348 382.337 211.652C382.337 210.964 382.489 210.36 382.793 209.84C383.097 209.312 383.513 208.908 384.041 208.628C384.569 208.348 385.161 208.208 385.817 208.208C386.473 208.208 387.065 208.348 387.593 208.628C388.121 208.908 388.537 209.312 388.841 209.84C389.145 210.36 389.297 210.964 389.297 211.652C389.297 212.34 389.141 212.948 388.829 213.476C388.525 213.996 388.105 214.396 387.569 214.676C387.041 214.956 386.449 215.096 385.793 215.096ZM385.793 213.32C386.185 213.32 386.517 213.176 386.789 212.888C387.069 212.6 387.209 212.188 387.209 211.652C387.209 211.116 387.073 210.704 386.801 210.416C386.537 210.128 386.209 209.984 385.817 209.984C385.417 209.984 385.085 210.128 384.821 210.416C384.557 210.696 384.425 211.108 384.425 211.652C384.425 212.188 384.553 212.6 384.809 212.888C385.073 213.176 385.401 213.32 385.793 213.32Z" fill="white"/>
<path d="M204 398V509H301" stroke="#FF0000" stroke-width="1.37106" stroke-dasharray="6.86 6.86"/>
<path d="M313.911 534.822C328.221 534.822 339.822 523.221 339.822 508.911C339.822 494.601 328.221 483 313.911 483C299.601 483 288 494.601 288 508.911C288 523.221 299.601 534.822 313.911 534.822Z" fill="#B71C22"/>
<path d="M305.354 498.547L322.871 516.064" stroke="white" stroke-width="5" stroke-linecap="round" stroke-linejoin="round"/>
<path d="M321.819 498.547L304.302 516.064" stroke="white" stroke-width="5" stroke-linecap="round" stroke-linejoin="round"/>
</g>
<defs>
<filter id="filter0_f" x="-163.528" y="-163.458" width="738.548" height="738.548" filterUnits="userSpaceOnUse" color-interpolation-filters="sRGB">
<feFlood flood-opacity="0" result="BackgroundImageFix"/>
<feBlend mode="normal" in="SourceGraphic" in2="BackgroundImageFix" result="shape"/>
<feGaussianBlur stdDeviation="100" result="effect1_foregroundBlur"/>
</filter>
<filter id="filter1_ddd" x="270.391" y="245.978" width="134.744" height="152.335" filterUnits="userSpaceOnUse" color-interpolation-filters="sRGB">
<feFlood flood-opacity="0" result="BackgroundImageFix"/>
<feColorMatrix in="SourceAlpha" type="matrix" values="0 0 0 0 0 0 0 0 0 0 0 0 0 0 0 0 0 0 127 0"/>
<feOffset dy="20.5866"/>
<feGaussianBlur stdDeviation="13.4261"/>
<feColorMatrix type="matrix" values="0 0 0 0 0 0 0 0 0 0.0876457 0 0 0 0 0.391667 0 0 0 0.05 0"/>
<feBlend mode="normal" in2="BackgroundImageFix" result="effect1_dropShadow"/>
<feColorMatrix in="SourceAlpha" type="matrix" values="0 0 0 0 0 0 0 0 0 0 0 0 0 0 0 0 0 0 127 0"/>
<feOffset dy="42.0684"/>
<feGaussianBlur stdDeviation="2.68521"/>
<feColorMatrix type="matrix" values="0 0 0 0 0.121569 0 0 0 0 0.247059 0 0 0 0 0.682353 0 0 0 0.02 0"/>
<feBlend mode="normal" in2="effect1_dropShadow" result="effect2_dropShadow"/>
<feColorMatrix in="SourceAlpha" type="matrix" values="0 0 0 0 0 0 0 0 0 0 0 0 0 0 0 0 0 0 127 0"/>
<feOffset dy="51.0191"/>
<feGaussianBlur stdDeviation="8.95072"/>
<feColorMatrix type="matrix" values="0 0 0 0 0.121569 0 0 0 0 0.247059 0 0 0 0 0.682353 0 0 0 0.02 0"/>
<feBlend mode="normal" in2="effect2_dropShadow" result="effect3_dropShadow"/>
<feBlend mode="normal" in="SourceGraphic" in2="effect3_dropShadow" result="shape"/>
</filter>
<filter id="filter2_ddd" x="11.1729" y="245.978" width="134.744" height="152.335" filterUnits="userSpaceOnUse" color-interpolation-filters="sRGB">
<feFlood flood-opacity="0" result="BackgroundImageFix"/>
<feColorMatrix in="SourceAlpha" type="matrix" values="0 0 0 0 0 0 0 0 0 0 0 0 0 0 0 0 0 0 127 0"/>
<feOffset dy="20.5866"/>
<feGaussianBlur stdDeviation="13.4261"/>
<feColorMatrix type="matrix" values="0 0 0 0 0 0 0 0 0 0.0876457 0 0 0 0 0.391667 0 0 0 0.05 0"/>
<feBlend mode="normal" in2="BackgroundImageFix" result="effect1_dropShadow"/>
<feColorMatrix in="SourceAlpha" type="matrix" values="0 0 0 0 0 0 0 0 0 0 0 0 0 0 0 0 0 0 127 0"/>
<feOffset dy="42.0684"/>
<feGaussianBlur stdDeviation="2.68521"/>
<feColorMatrix type="matrix" values="0 0 0 0 0.121569 0 0 0 0 0.247059 0 0 0 0 0.682353 0 0 0 0.02 0"/>
<feBlend mode="normal" in2="effect1_dropShadow" result="effect2_dropShadow"/>
<feColorMatrix in="SourceAlpha" type="matrix" values="0 0 0 0 0 0 0 0 0 0 0 0 0 0 0 0 0 0 127 0"/>
<feOffset dy="51.0191"/>
<feGaussianBlur stdDeviation="8.95072"/>
<feColorMatrix type="matrix" values="0 0 0 0 0.121569 0 0 0 0 0.247059 0 0 0 0 0.682353 0 0 0 0.02 0"/>
<feBlend mode="normal" in2="effect2_dropShadow" result="effect3_dropShadow"/>
<feBlend mode="normal" in="SourceGraphic" in2="effect3_dropShadow" result="shape"/>
</filter>
<filter id="filter3_ddd" x="278.087" y="84.3984" width="134.744" height="152.335" filterUnits="userSpaceOnUse" color-interpolation-filters="sRGB">
<feFlood flood-opacity="0" result="BackgroundImageFix"/>
<feColorMatrix in="SourceAlpha" type="matrix" values="0 0 0 0 0 0 0 0 0 0 0 0 0 0 0 0 0 0 127 0"/>
<feOffset dy="20.5866"/>
<feGaussianBlur stdDeviation="13.4261"/>
<feColorMatrix type="matrix" values="0 0 0 0 0 0 0 0 0 0.0876457 0 0 0 0 0.391667 0 0 0 0.05 0"/>
<feBlend mode="normal" in2="BackgroundImageFix" result="effect1_dropShadow"/>
<feColorMatrix in="SourceAlpha" type="matrix" values="0 0 0 0 0 0 0 0 0 0 0 0 0 0 0 0 0 0 127 0"/>
<feOffset dy="42.0684"/>
<feGaussianBlur stdDeviation="2.68521"/>
<feColorMatrix type="matrix" values="0 0 0 0 0.121569 0 0 0 0 0.247059 0 0 0 0 0.682353 0 0 0 0.02 0"/>
<feBlend mode="normal" in2="effect1_dropShadow" result="effect2_dropShadow"/>
<feColorMatrix in="SourceAlpha" type="matrix" values="0 0 0 0 0 0 0 0 0 0 0 0 0 0 0 0 0 0 127 0"/>
<feOffset dy="51.0191"/>
<feGaussianBlur stdDeviation="8.95072"/>
<feColorMatrix type="matrix" values="0 0 0 0 0.121569 0 0 0 0 0.247059 0 0 0 0 0.682353 0 0 0 0.02 0"/>
<feBlend mode="normal" in2="effect2_dropShadow" result="effect3_dropShadow"/>
<feBlend mode="normal" in="SourceGraphic" in2="effect3_dropShadow" result="shape"/>
</filter>
<filter id="filter4_ddd" x="1.17043" y="84.3984" width="134.745" height="152.335" filterUnits="userSpaceOnUse" color-interpolation-filters="sRGB">
<feFlood flood-opacity="0" result="BackgroundImageFix"/>
<feColorMatrix in="SourceAlpha" type="matrix" values="0 0 0 0 0 0 0 0 0 0 0 0 0 0 0 0 0 0 127 0"/>
<feOffset dy="20.5866"/>
<feGaussianBlur stdDeviation="13.4261"/>
<feColorMatrix type="matrix" values="0 0 0 0 0 0 0 0 0 0.0876457 0 0 0 0 0.391667 0 0 0 0.05 0"/>
<feBlend mode="normal" in2="BackgroundImageFix" result="effect1_dropShadow"/>
<feColorMatrix in="SourceAlpha" type="matrix" values="0 0 0 0 0 0 0 0 0 0 0 0 0 0 0 0 0 0 127 0"/>
<feOffset dy="42.0684"/>
<feGaussianBlur stdDeviation="2.68521"/>
<feColorMatrix type="matrix" values="0 0 0 0 0.121569 0 0 0 0 0.247059 0 0 0 0 0.682353 0 0 0 0.02 0"/>
<feBlend mode="normal" in2="effect1_dropShadow" result="effect2_dropShadow"/>
<feColorMatrix in="SourceAlpha" type="matrix" values="0 0 0 0 0 0 0 0 0 0 0 0 0 0 0 0 0 0 127 0"/>
<feOffset dy="51.0191"/>
<feGaussianBlur stdDeviation="8.95072"/>
<feColorMatrix type="matrix" values="0 0 0 0 0.121569 0 0 0 0 0.247059 0 0 0 0 0.682353 0 0 0 0.02 0"/>
<feBlend mode="normal" in2="effect2_dropShadow" result="effect3_dropShadow"/>
<feBlend mode="normal" in="SourceGraphic" in2="effect3_dropShadow" result="shape"/>
</filter>
<filter id="filter5_ddd" x="138.859" y="311.744" width="134.744" height="152.335" filterUnits="userSpaceOnUse" color-interpolation-filters="sRGB">
<feFlood flood-opacity="0" result="BackgroundImageFix"/>
<feColorMatrix in="SourceAlpha" type="matrix" values="0 0 0 0 0 0 0 0 0 0 0 0 0 0 0 0 0 0 127 0"/>
<feOffset dy="20.5866"/>
<feGaussianBlur stdDeviation="13.4261"/>
<feColorMatrix type="matrix" values="0 0 0 0 0 0 0 0 0 0.0876457 0 0 0 0 0.391667 0 0 0 0.05 0"/>
<feBlend mode="normal" in2="BackgroundImageFix" result="effect1_dropShadow"/>
<feColorMatrix in="SourceAlpha" type="matrix" values="0 0 0 0 0 0 0 0 0 0 0 0 0 0 0 0 0 0 127 0"/>
<feOffset dy="42.0684"/>
<feGaussianBlur stdDeviation="2.68521"/>
<feColorMatrix type="matrix" values="0 0 0 0 0.121569 0 0 0 0 0.247059 0 0 0 0 0.682353 0 0 0 0.02 0"/>
<feBlend mode="normal" in2="effect1_dropShadow" result="effect2_dropShadow"/>
<feColorMatrix in="SourceAlpha" type="matrix" values="0 0 0 0 0 0 0 0 0 0 0 0 0 0 0 0 0 0 127 0"/>
<feOffset dy="51.0191"/>
<feGaussianBlur stdDeviation="8.95072"/>
<feColorMatrix type="matrix" values="0 0 0 0 0.121569 0 0 0 0 0.247059 0 0 0 0 0.682353 0 0 0 0.02 0"/>
<feBlend mode="normal" in2="effect2_dropShadow" result="effect3_dropShadow"/>
<feBlend mode="normal" in="SourceGraphic" in2="effect3_dropShadow" result="shape"/>
</filter>
<linearGradient id="paint0_linear" x1="205.737" y1="177.747" x2="205.737" y2="253.272" gradientUnits="userSpaceOnUse">
<stop stop-color="#FF4950"/>
<stop offset="0.90625" stop-color="#B71C22"/>
</linearGradient>
<linearGradient id="paint1_linear" x1="205.737" y1="15.358" x2="205.737" y2="90.882" gradientUnits="userSpaceOnUse">
<stop stop-color="#FF4950"/>
<stop offset="0.90625" stop-color="#B71C22"/>
</linearGradient>
<linearGradient id="paint2_linear" x1="331.579" y1="275.862" x2="345.758" y2="300.422" gradientUnits="userSpaceOnUse">
<stop stop-color="#FF4950"/>
<stop offset="0.90625" stop-color="#B71C22"/>
</linearGradient>
<linearGradient id="paint3_linear" x1="331.579" y1="275.862" x2="345.758" y2="300.422" gradientUnits="userSpaceOnUse">
<stop stop-color="#FF4950"/>
<stop offset="0.90625" stop-color="#B71C22"/>
</linearGradient>
<linearGradient id="paint4_linear" x1="331.579" y1="275.862" x2="345.758" y2="300.422" gradientUnits="userSpaceOnUse">
<stop stop-color="#FF4950"/>
<stop offset="0.90625" stop-color="#B71C22"/>
</linearGradient>
<linearGradient id="paint5_linear" x1="331.579" y1="275.862" x2="345.758" y2="300.422" gradientUnits="userSpaceOnUse">
<stop stop-color="#FF4950"/>
<stop offset="0.90625" stop-color="#B71C22"/>
</linearGradient>
<linearGradient id="paint6_linear" x1="331.579" y1="275.862" x2="345.758" y2="300.422" gradientUnits="userSpaceOnUse">
<stop stop-color="#FF4950"/>
<stop offset="0.90625" stop-color="#B71C22"/>
</linearGradient>
<linearGradient id="paint7_linear" x1="331.579" y1="275.862" x2="345.758" y2="300.422" gradientUnits="userSpaceOnUse">
<stop stop-color="#FF4950"/>
<stop offset="0.90625" stop-color="#B71C22"/>
</linearGradient>
<linearGradient id="paint8_linear" x1="331.579" y1="275.862" x2="345.758" y2="300.422" gradientUnits="userSpaceOnUse">
<stop stop-color="#FF4950"/>
<stop offset="0.90625" stop-color="#B71C22"/>
</linearGradient>
<linearGradient id="paint9_linear" x1="78.3834" y1="271.191" x2="78.3834" y2="335.815" gradientUnits="userSpaceOnUse">
<stop stop-color="#E0C3FC"/>
<stop offset="1" stop-color="#8EC5FC"/>
</linearGradient>
<linearGradient id="paint10_linear" x1="78.3834" y1="271.191" x2="78.3834" y2="335.815" gradientUnits="userSpaceOnUse">
<stop stop-color="#E0C3FC"/>
<stop offset="1" stop-color="#8EC5FC"/>
</linearGradient>
<linearGradient id="paint11_linear" x1="78.3834" y1="271.191" x2="78.3834" y2="335.815" gradientUnits="userSpaceOnUse">
<stop stop-color="#E0C3FC"/>
<stop offset="1" stop-color="#8EC5FC"/>
</linearGradient>
<linearGradient id="paint12_linear" x1="78.3834" y1="271.191" x2="78.3834" y2="335.815" gradientUnits="userSpaceOnUse">
<stop stop-color="#E0C3FC"/>
<stop offset="1" stop-color="#8EC5FC"/>
</linearGradient>
<linearGradient id="paint13_linear" x1="78.3834" y1="271.191" x2="78.3834" y2="335.815" gradientUnits="userSpaceOnUse">
<stop stop-color="#E0C3FC"/>
<stop offset="1" stop-color="#8EC5FC"/>
</linearGradient>
<linearGradient id="paint14_linear" x1="78.3834" y1="271.191" x2="78.3834" y2="335.815" gradientUnits="userSpaceOnUse">
<stop stop-color="#E0C3FC"/>
<stop offset="1" stop-color="#8EC5FC"/>
</linearGradient>
<linearGradient id="paint15_linear" x1="78.3834" y1="271.191" x2="78.3834" y2="335.815" gradientUnits="userSpaceOnUse">
<stop stop-color="#E0C3FC"/>
<stop offset="1" stop-color="#8EC5FC"/>
</linearGradient>
<linearGradient id="paint16_linear" x1="345.296" y1="109.612" x2="345.296" y2="174.235" gradientUnits="userSpaceOnUse">
<stop stop-color="#E0C3FC"/>
<stop offset="1" stop-color="#8EC5FC"/>
</linearGradient>
<linearGradient id="paint17_linear" x1="345.296" y1="109.612" x2="345.296" y2="174.235" gradientUnits="userSpaceOnUse">
<stop stop-color="#E0C3FC"/>
<stop offset="1" stop-color="#8EC5FC"/>
</linearGradient>
<linearGradient id="paint18_linear" x1="345.296" y1="109.612" x2="345.296" y2="174.235" gradientUnits="userSpaceOnUse">
<stop stop-color="#E0C3FC"/>
<stop offset="1" stop-color="#8EC5FC"/>
</linearGradient>
<linearGradient id="paint19_linear" x1="345.296" y1="109.612" x2="345.296" y2="174.235" gradientUnits="userSpaceOnUse">
<stop stop-color="#E0C3FC"/>
<stop offset="1" stop-color="#8EC5FC"/>
</linearGradient>
<linearGradient id="paint20_linear" x1="345.296" y1="109.612" x2="345.296" y2="174.235" gradientUnits="userSpaceOnUse">
<stop stop-color="#E0C3FC"/>
<stop offset="1" stop-color="#8EC5FC"/>
</linearGradient>
<linearGradient id="paint21_linear" x1="345.296" y1="109.612" x2="345.296" y2="174.235" gradientUnits="userSpaceOnUse">
<stop stop-color="#E0C3FC"/>
<stop offset="1" stop-color="#8EC5FC"/>
</linearGradient>
<linearGradient id="paint22_linear" x1="345.296" y1="109.612" x2="345.296" y2="174.235" gradientUnits="userSpaceOnUse">
<stop stop-color="#E0C3FC"/>
<stop offset="1" stop-color="#8EC5FC"/>
</linearGradient>
<linearGradient id="paint23_linear" x1="68.3795" y1="109.612" x2="68.3795" y2="174.235" gradientUnits="userSpaceOnUse">
<stop stop-color="#E0C3FC"/>
<stop offset="1" stop-color="#8EC5FC"/>
</linearGradient>
<linearGradient id="paint24_linear" x1="68.3795" y1="109.612" x2="68.3795" y2="174.235" gradientUnits="userSpaceOnUse">
<stop stop-color="#E0C3FC"/>
<stop offset="1" stop-color="#8EC5FC"/>
</linearGradient>
<linearGradient id="paint25_linear" x1="68.3795" y1="109.612" x2="68.3795" y2="174.235" gradientUnits="userSpaceOnUse">
<stop stop-color="#E0C3FC"/>
<stop offset="1" stop-color="#8EC5FC"/>
</linearGradient>
<linearGradient id="paint26_linear" x1="68.3795" y1="109.612" x2="68.3795" y2="174.235" gradientUnits="userSpaceOnUse">
<stop stop-color="#E0C3FC"/>
<stop offset="1" stop-color="#8EC5FC"/>
</linearGradient>
<linearGradient id="paint27_linear" x1="68.3795" y1="109.612" x2="68.3795" y2="174.235" gradientUnits="userSpaceOnUse">
<stop stop-color="#E0C3FC"/>
<stop offset="1" stop-color="#8EC5FC"/>
</linearGradient>
<linearGradient id="paint28_linear" x1="68.3795" y1="109.612" x2="68.3795" y2="174.235" gradientUnits="userSpaceOnUse">
<stop stop-color="#E0C3FC"/>
<stop offset="1" stop-color="#8EC5FC"/>
</linearGradient>
<linearGradient id="paint29_linear" x1="68.3795" y1="109.612" x2="68.3795" y2="174.235" gradientUnits="userSpaceOnUse">
<stop stop-color="#E0C3FC"/>
<stop offset="1" stop-color="#8EC5FC"/>
</linearGradient>
<linearGradient id="paint30_linear" x1="206.069" y1="336.956" x2="206.069" y2="401.58" gradientUnits="userSpaceOnUse">
<stop stop-color="#E0C3FC"/>
<stop offset="1" stop-color="#8EC5FC"/>
</linearGradient>
<linearGradient id="paint31_linear" x1="206.069" y1="336.956" x2="206.069" y2="401.58" gradientUnits="userSpaceOnUse">
<stop stop-color="#E0C3FC"/>
<stop offset="1" stop-color="#8EC5FC"/>
</linearGradient>
<linearGradient id="paint32_linear" x1="206.069" y1="336.956" x2="206.069" y2="401.58" gradientUnits="userSpaceOnUse">
<stop stop-color="#E0C3FC"/>
<stop offset="1" stop-color="#8EC5FC"/>
</linearGradient>
<linearGradient id="paint33_linear" x1="206.069" y1="336.956" x2="206.069" y2="401.58" gradientUnits="userSpaceOnUse">
<stop stop-color="#E0C3FC"/>
<stop offset="1" stop-color="#8EC5FC"/>
</linearGradient>
<linearGradient id="paint34_linear" x1="206.069" y1="336.956" x2="206.069" y2="401.581" gradientUnits="userSpaceOnUse">
<stop stop-color="#E0C3FC"/>
<stop offset="1" stop-color="#8EC5FC"/>
</linearGradient>
<linearGradient id="paint35_linear" x1="206.069" y1="336.956" x2="206.069" y2="401.58" gradientUnits="userSpaceOnUse">
<stop stop-color="#E0C3FC"/>
<stop offset="1" stop-color="#8EC5FC"/>
</linearGradient>
<linearGradient id="paint36_linear" x1="206.069" y1="336.956" x2="206.069" y2="401.58" gradientUnits="userSpaceOnUse">
<stop stop-color="#E0C3FC"/>
<stop offset="1" stop-color="#8EC5FC"/>
</linearGradient>
<clipPath id="clip0">
<rect width="414" height="551" fill="white"/>
</clipPath>
</defs>
</svg>
