<svg width="375" height="517" viewBox="0 0 375 517" fill="none" xmlns="http://www.w3.org/2000/svg">
<g filter="url(#filter0_ddd1)">
<path d="M245.624 331.11C245.178 330.338 245.178 329.387 245.624 328.615L257.033 308.853C257.479 308.081 258.302 307.606 259.193 307.606H282.012C282.904 307.606 283.727 308.081 284.173 308.853L295.582 328.615C296.028 329.387 296.028 330.338 295.582 331.11L284.173 350.871C283.727 351.643 282.904 352.119 282.012 352.119H259.193C258.302 352.119 257.479 351.643 257.033 350.871L245.624 331.11Z" fill="#5D78CF"/>
</g>
<path d="M122.639 120.627H125.198V122.098H120.719V114.161H122.639V120.627ZM126.013 114.071C126.013 113.779 126.118 113.54 126.327 113.352C126.537 113.158 126.814 113.061 127.158 113.061C127.502 113.061 127.779 113.158 127.989 113.352C128.198 113.54 128.303 113.779 128.303 114.071C128.303 114.355 128.198 114.595 127.989 114.789C127.779 114.977 127.502 115.07 127.158 115.07C126.814 115.07 126.537 114.977 126.327 114.789C126.118 114.595 126.013 114.355 126.013 114.071ZM128.112 115.834V122.098H126.192V115.834H128.112ZM133.524 115.766C134.243 115.766 134.812 116.006 135.231 116.485C135.657 116.964 135.871 117.622 135.871 118.461V122.098H133.951V118.685C133.951 118.266 133.839 117.94 133.614 117.708C133.397 117.469 133.105 117.349 132.738 117.349C132.349 117.349 132.039 117.473 131.807 117.72C131.582 117.967 131.47 118.318 131.47 118.775V122.098H129.55V115.834H131.47V116.979C131.649 116.604 131.915 116.309 132.267 116.092C132.626 115.875 133.045 115.766 133.524 115.766ZM143.199 118.797C143.199 118.955 143.181 119.127 143.143 119.314H138.798C138.821 119.785 138.941 120.126 139.158 120.335C139.375 120.538 139.652 120.639 139.988 120.639C140.273 120.639 140.509 120.568 140.696 120.425C140.883 120.283 141.006 120.1 141.066 119.875H143.098C143.016 120.317 142.836 120.713 142.559 121.065C142.282 121.41 141.931 121.683 141.504 121.885C141.077 122.079 140.602 122.177 140.078 122.177C139.464 122.177 138.918 122.049 138.439 121.795C137.968 121.533 137.597 121.159 137.328 120.672C137.058 120.186 136.923 119.617 136.923 118.966C136.923 118.307 137.054 117.738 137.316 117.259C137.586 116.773 137.96 116.402 138.439 116.148C138.918 115.886 139.464 115.755 140.078 115.755C140.699 115.755 141.246 115.882 141.717 116.137C142.189 116.391 142.552 116.75 142.806 117.214C143.068 117.671 143.199 118.199 143.199 118.797ZM141.257 118.506C141.264 118.094 141.152 117.787 140.92 117.585C140.696 117.375 140.415 117.271 140.078 117.271C139.726 117.271 139.435 117.375 139.203 117.585C138.97 117.795 138.84 118.101 138.81 118.506H141.257ZM149.602 115.755C150.223 115.755 150.777 115.886 151.264 116.148C151.758 116.402 152.143 116.773 152.42 117.259C152.705 117.746 152.847 118.315 152.847 118.966C152.847 119.617 152.705 120.186 152.42 120.672C152.143 121.159 151.758 121.533 151.264 121.795C150.777 122.049 150.223 122.177 149.602 122.177C148.981 122.177 148.423 122.049 147.929 121.795C147.435 121.533 147.046 121.159 146.762 120.672C146.485 120.186 146.346 119.617 146.346 118.966C146.346 118.315 146.485 117.746 146.762 117.259C147.046 116.773 147.435 116.402 147.929 116.148C148.423 115.886 148.981 115.755 149.602 115.755ZM149.602 117.417C149.235 117.417 148.925 117.551 148.67 117.821C148.423 118.083 148.3 118.464 148.3 118.966C148.3 119.467 148.423 119.849 148.67 120.111C148.925 120.373 149.235 120.504 149.602 120.504C149.969 120.504 150.276 120.373 150.523 120.111C150.77 119.849 150.893 119.467 150.893 118.966C150.893 118.464 150.77 118.083 150.523 117.821C150.276 117.551 149.969 117.417 149.602 117.417ZM157.031 114.98C156.716 114.98 156.488 115.048 156.346 115.182C156.204 115.317 156.125 115.534 156.11 115.834H157.244V117.45H156.11V122.098H154.19V117.45H153.438V115.834H154.19V115.766C154.19 114.988 154.415 114.389 154.864 113.97C155.32 113.543 155.979 113.33 156.84 113.33C157.019 113.33 157.154 113.334 157.244 113.341V114.992L157.031 114.98ZM123.548 130.755C124.356 130.755 125.034 130.98 125.58 131.429C126.127 131.87 126.471 132.48 126.613 133.259H124.581C124.521 132.989 124.398 132.78 124.211 132.63C124.023 132.48 123.788 132.405 123.503 132.405C123.166 132.405 122.89 132.54 122.672 132.809C122.455 133.071 122.347 133.457 122.347 133.966C122.347 134.475 122.455 134.864 122.672 135.133C122.89 135.395 123.166 135.526 123.503 135.526C123.788 135.526 124.023 135.451 124.211 135.302C124.398 135.152 124.521 134.943 124.581 134.673H126.613C126.471 135.451 126.127 136.065 125.58 136.514C125.034 136.956 124.356 137.177 123.548 137.177C122.934 137.177 122.388 137.049 121.909 136.795C121.438 136.533 121.067 136.159 120.798 135.672C120.528 135.186 120.393 134.617 120.393 133.966C120.393 133.307 120.524 132.738 120.786 132.259C121.056 131.773 121.43 131.402 121.909 131.148C122.388 130.886 122.934 130.755 123.548 130.755ZM129.647 132.012C129.887 131.631 130.194 131.328 130.568 131.103C130.949 130.878 131.361 130.766 131.803 130.766V132.821H131.253C130.744 132.821 130.347 132.929 130.063 133.146C129.786 133.363 129.647 133.73 129.647 134.246V137.098H127.727V130.834H129.647V132.012ZM138.669 133.797C138.669 133.955 138.65 134.127 138.612 134.314H134.268C134.29 134.785 134.41 135.126 134.627 135.335C134.844 135.538 135.121 135.639 135.458 135.639C135.742 135.639 135.978 135.568 136.165 135.425C136.352 135.283 136.476 135.1 136.536 134.875H138.568C138.485 135.317 138.306 135.713 138.029 136.065C137.752 136.41 137.4 136.683 136.973 136.885C136.547 137.079 136.072 137.177 135.548 137.177C134.934 137.177 134.387 137.049 133.908 136.795C133.437 136.533 133.066 136.159 132.797 135.672C132.528 135.186 132.393 134.617 132.393 133.966C132.393 133.307 132.524 132.738 132.786 132.259C133.055 131.773 133.429 131.402 133.908 131.148C134.387 130.886 134.934 130.755 135.548 130.755C136.169 130.755 136.715 130.882 137.187 131.137C137.658 131.391 138.021 131.75 138.276 132.214C138.538 132.671 138.669 133.199 138.669 133.797ZM136.726 133.506C136.734 133.094 136.622 132.787 136.39 132.585C136.165 132.375 135.884 132.271 135.548 132.271C135.196 132.271 134.904 132.375 134.672 132.585C134.44 132.795 134.309 133.101 134.279 133.506H136.726ZM142.162 130.755C142.641 130.755 143.052 130.864 143.397 131.081C143.741 131.298 143.992 131.593 144.149 131.967V128.79H146.069V137.098H144.149V135.964C143.992 136.338 143.741 136.634 143.397 136.851C143.052 137.068 142.641 137.177 142.162 137.177C141.645 137.177 141.181 137.049 140.77 136.795C140.365 136.533 140.044 136.159 139.804 135.672C139.572 135.186 139.456 134.617 139.456 133.966C139.456 133.307 139.572 132.738 139.804 132.259C140.044 131.773 140.365 131.402 140.77 131.148C141.181 130.886 141.645 130.755 142.162 130.755ZM142.779 132.439C142.368 132.439 142.034 132.574 141.78 132.843C141.533 133.113 141.41 133.487 141.41 133.966C141.41 134.445 141.533 134.819 141.78 135.088C142.034 135.358 142.368 135.493 142.779 135.493C143.183 135.493 143.513 135.354 143.767 135.077C144.029 134.8 144.16 134.43 144.16 133.966C144.16 133.494 144.029 133.124 143.767 132.854C143.513 132.577 143.183 132.439 142.779 132.439ZM147.323 129.071C147.323 128.779 147.428 128.54 147.637 128.352C147.847 128.158 148.124 128.061 148.468 128.061C148.812 128.061 149.089 128.158 149.299 128.352C149.508 128.54 149.613 128.779 149.613 129.071C149.613 129.355 149.508 129.595 149.299 129.789C149.089 129.977 148.812 130.07 148.468 130.07C148.124 130.07 147.847 129.977 147.637 129.789C147.428 129.595 147.323 129.355 147.323 129.071ZM149.422 130.834V137.098H147.503V130.834H149.422ZM154.408 135.448V137.098H153.543C152.81 137.098 152.237 136.918 151.826 136.559C151.421 136.192 151.219 135.59 151.219 134.752V132.45H150.377V130.834H151.219V129.296H153.139V130.834H154.397V132.45H153.139V134.785C153.139 135.032 153.188 135.205 153.285 135.302C153.39 135.399 153.562 135.448 153.802 135.448H154.408ZM157.878 130.755C158.671 130.755 159.304 130.953 159.775 131.35C160.254 131.747 160.554 132.271 160.674 132.922H158.877C158.825 132.667 158.705 132.469 158.518 132.327C158.338 132.177 158.11 132.102 157.833 132.102C157.616 132.102 157.451 132.151 157.339 132.248C157.227 132.338 157.171 132.469 157.171 132.641C157.171 132.836 157.272 132.982 157.474 133.079C157.683 133.176 158.009 133.274 158.451 133.371C158.93 133.483 159.323 133.599 159.629 133.719C159.936 133.831 160.202 134.018 160.427 134.28C160.651 134.542 160.763 134.894 160.763 135.335C160.763 135.695 160.666 136.013 160.471 136.29C160.277 136.567 159.996 136.784 159.629 136.941C159.263 137.098 158.829 137.177 158.327 137.177C157.481 137.177 156.804 136.99 156.295 136.615C155.786 136.241 155.476 135.706 155.363 135.01H157.216C157.246 135.279 157.358 135.485 157.552 135.627C157.755 135.77 158.013 135.841 158.327 135.841C158.544 135.841 158.709 135.792 158.821 135.695C158.933 135.59 158.99 135.455 158.99 135.291C158.99 135.074 158.885 134.92 158.675 134.83C158.473 134.733 158.14 134.632 157.676 134.527C157.212 134.43 156.83 134.325 156.531 134.213C156.231 134.101 155.973 133.921 155.756 133.674C155.539 133.419 155.431 133.075 155.431 132.641C155.431 132.08 155.644 131.627 156.071 131.283C156.497 130.931 157.1 130.755 157.878 130.755ZM123.099 145.755C123.578 145.755 123.99 145.864 124.334 146.081C124.678 146.298 124.933 146.593 125.097 146.967V145.834H127.006V152.098H125.097V150.964C124.933 151.338 124.678 151.634 124.334 151.851C123.99 152.068 123.578 152.177 123.099 152.177C122.583 152.177 122.119 152.049 121.707 151.795C121.303 151.533 120.981 151.159 120.741 150.672C120.509 150.186 120.393 149.617 120.393 148.966C120.393 148.307 120.509 147.738 120.741 147.259C120.981 146.773 121.303 146.402 121.707 146.148C122.119 145.886 122.583 145.755 123.099 145.755ZM123.717 147.439C123.305 147.439 122.972 147.574 122.717 147.843C122.47 148.113 122.347 148.487 122.347 148.966C122.347 149.445 122.47 149.819 122.717 150.088C122.972 150.358 123.305 150.493 123.717 150.493C124.121 150.493 124.45 150.354 124.705 150.077C124.966 149.8 125.097 149.43 125.097 148.966C125.097 148.494 124.966 148.124 124.705 147.854C124.45 147.577 124.121 147.439 123.717 147.439ZM132.414 145.766C133.133 145.766 133.702 146.006 134.121 146.485C134.547 146.964 134.761 147.622 134.761 148.461V152.098H132.841V148.685C132.841 148.266 132.729 147.94 132.504 147.708C132.287 147.469 131.995 147.349 131.628 147.349C131.239 147.349 130.929 147.473 130.697 147.72C130.472 147.967 130.36 148.318 130.36 148.775V152.098H128.44V145.834H130.36V146.979C130.539 146.604 130.805 146.309 131.157 146.092C131.516 145.875 131.935 145.766 132.414 145.766ZM138.519 145.755C138.998 145.755 139.41 145.864 139.754 146.081C140.098 146.298 140.349 146.593 140.506 146.967V143.79H142.426V152.098H140.506V150.964C140.349 151.338 140.098 151.634 139.754 151.851C139.41 152.068 138.998 152.177 138.519 152.177C138.003 152.177 137.539 152.049 137.127 151.795C136.723 151.533 136.401 151.159 136.162 150.672C135.93 150.186 135.814 149.617 135.814 148.966C135.814 148.307 135.93 147.738 136.162 147.259C136.401 146.773 136.723 146.402 137.127 146.148C137.539 145.886 138.003 145.755 138.519 145.755ZM139.137 147.439C138.725 147.439 138.392 147.574 138.137 147.843C137.89 148.113 137.767 148.487 137.767 148.966C137.767 149.445 137.89 149.819 138.137 150.088C138.392 150.358 138.725 150.493 139.137 150.493C139.541 150.493 139.87 150.354 140.125 150.077C140.387 149.8 140.518 149.43 140.518 148.966C140.518 148.494 140.387 148.124 140.125 147.854C139.87 147.577 139.541 147.439 139.137 147.439ZM149.296 144.98C148.982 144.98 148.753 145.048 148.611 145.182C148.469 145.317 148.39 145.534 148.375 145.834H149.509V147.45H148.375V152.098H146.456V147.45H145.703V145.834H146.456V145.766C146.456 144.988 146.68 144.389 147.129 143.97C147.586 143.543 148.244 143.33 149.105 143.33C149.285 143.33 149.42 143.334 149.509 143.341V144.992L149.296 144.98ZM156.416 148.797C156.416 148.955 156.397 149.127 156.359 149.314H152.015C152.037 149.785 152.157 150.126 152.374 150.335C152.591 150.538 152.868 150.639 153.205 150.639C153.489 150.639 153.725 150.568 153.912 150.425C154.099 150.283 154.223 150.1 154.283 149.875H156.315C156.232 150.317 156.053 150.713 155.776 151.065C155.499 151.41 155.147 151.683 154.72 151.885C154.294 152.079 153.818 152.177 153.295 152.177C152.681 152.177 152.134 152.049 151.655 151.795C151.184 151.533 150.813 151.159 150.544 150.672C150.275 150.186 150.14 149.617 150.14 148.966C150.14 148.307 150.271 147.738 150.533 147.259C150.802 146.773 151.176 146.402 151.655 146.148C152.134 145.886 152.681 145.755 153.295 145.755C153.916 145.755 154.462 145.882 154.934 146.137C155.405 146.391 155.768 146.75 156.023 147.214C156.285 147.671 156.416 148.199 156.416 148.797ZM154.473 148.506C154.481 148.094 154.369 147.787 154.137 147.585C153.912 147.375 153.631 147.271 153.295 147.271C152.943 147.271 152.651 147.375 152.419 147.585C152.187 147.795 152.056 148.101 152.026 148.506H154.473ZM163.479 148.797C163.479 148.955 163.46 149.127 163.423 149.314H159.078C159.1 149.785 159.22 150.126 159.437 150.335C159.654 150.538 159.931 150.639 160.268 150.639C160.552 150.639 160.788 150.568 160.975 150.425C161.162 150.283 161.286 150.1 161.346 149.875H163.378C163.295 150.317 163.116 150.713 162.839 151.065C162.562 151.41 162.21 151.683 161.784 151.885C161.357 152.079 160.882 152.177 160.358 152.177C159.744 152.177 159.198 152.049 158.719 151.795C158.247 151.533 157.877 151.159 157.607 150.672C157.338 150.186 157.203 149.617 157.203 148.966C157.203 148.307 157.334 147.738 157.596 147.259C157.865 146.773 158.24 146.402 158.719 146.148C159.198 145.886 159.744 145.755 160.358 145.755C160.979 145.755 161.525 145.882 161.997 146.137C162.468 146.391 162.831 146.75 163.086 147.214C163.348 147.671 163.479 148.199 163.479 148.797ZM161.537 148.506C161.544 148.094 161.432 147.787 161.2 147.585C160.975 147.375 160.695 147.271 160.358 147.271C160.006 147.271 159.714 147.375 159.482 147.585C159.25 147.795 159.119 148.101 159.089 148.506H161.537ZM166.871 145.755C167.664 145.755 168.297 145.953 168.768 146.35C169.247 146.747 169.547 147.271 169.666 147.922H167.87C167.818 147.667 167.698 147.469 167.511 147.327C167.331 147.177 167.103 147.102 166.826 147.102C166.609 147.102 166.444 147.151 166.332 147.248C166.22 147.338 166.164 147.469 166.164 147.641C166.164 147.836 166.265 147.982 166.467 148.079C166.676 148.176 167.002 148.274 167.443 148.371C167.922 148.483 168.315 148.599 168.622 148.719C168.929 148.831 169.195 149.018 169.419 149.28C169.644 149.542 169.756 149.894 169.756 150.335C169.756 150.695 169.659 151.013 169.464 151.29C169.27 151.567 168.989 151.784 168.622 151.941C168.255 152.098 167.821 152.177 167.32 152.177C166.474 152.177 165.797 151.99 165.288 151.615C164.779 151.241 164.468 150.706 164.356 150.01H166.208C166.238 150.279 166.351 150.485 166.545 150.627C166.747 150.77 167.006 150.841 167.32 150.841C167.537 150.841 167.702 150.792 167.814 150.695C167.926 150.59 167.982 150.455 167.982 150.291C167.982 150.074 167.878 149.92 167.668 149.83C167.466 149.733 167.133 149.632 166.669 149.527C166.205 149.43 165.823 149.325 165.524 149.213C165.224 149.101 164.966 148.921 164.749 148.674C164.532 148.419 164.423 148.075 164.423 147.641C164.423 147.08 164.637 146.627 165.063 146.283C165.49 145.931 166.092 145.755 166.871 145.755Z" fill="white"/>
<g filter="url(#filter1_ddd1)">
<path d="M204.727 25.9857C206.51 25.9857 208.157 26.9368 209.049 28.4806L226.1 58.0142C226.991 59.558 226.991 61.46 226.1 63.0039L209.049 92.5375C208.157 94.0813 206.51 95.0323 204.727 95.0323L170.625 95.0323C168.842 95.0323 167.195 94.0813 166.304 92.5375L149.253 63.0039C148.361 61.46 148.361 59.558 149.253 58.0142L166.304 28.4806C167.195 26.9368 168.842 25.9857 170.625 25.9857L204.727 25.9857Z" fill="url(#paint0_linear1)"/>
</g>
<g filter="url(#filter2_ddd1)">
<path d="M204.727 169.802C206.51 169.802 208.157 170.753 209.049 172.297L226.1 201.83C226.991 203.374 226.991 205.276 226.1 206.82L209.049 236.354C208.157 237.898 206.51 238.849 204.727 238.849L170.625 238.849C168.842 238.849 167.195 237.898 166.304 236.354L149.253 206.82C148.361 205.276 148.361 203.374 149.253 201.83L166.304 172.297C167.195 170.753 168.842 169.802 170.625 169.802L204.727 169.802Z" fill="url(#paint1_linear1)"/>
</g>
<g filter="url(#filter3_ddd1)">
<path d="M19.2603 301.727C18.4804 300.376 18.4804 298.712 19.2603 297.361L36.6717 267.204C37.4516 265.853 38.8929 265.021 40.4527 265.021H75.2754C76.8352 265.021 78.2765 265.853 79.0564 267.204L96.4678 297.361C97.2477 298.712 97.2477 300.376 96.4678 301.727L79.0564 331.885C78.2765 333.235 76.8352 334.068 75.2754 334.068H40.4527C38.8929 334.068 37.4516 333.235 36.6717 331.885L19.2603 301.727Z" fill="white"/>
</g>
<g filter="url(#filter4_ddd1)">
<path d="M149.074 345.817C148.294 344.466 148.294 342.801 149.074 341.451L166.485 311.293C167.265 309.942 168.706 309.11 170.266 309.11H205.089C206.649 309.11 208.09 309.942 208.87 311.293L226.281 341.451C227.061 342.801 227.061 344.466 226.281 345.817L208.87 375.974C208.09 377.325 206.649 378.157 205.089 378.157H170.266C168.706 378.157 167.265 377.325 166.485 375.974L149.074 345.817Z" fill="white"/>
</g>
<g filter="url(#filter5_ddd1)">
<path d="M19.2613 138.675C18.4814 137.325 18.4814 135.66 19.2613 134.309L36.6727 104.152C37.4526 102.801 38.8939 101.969 40.4537 101.969H75.2764C76.8362 101.969 78.2775 102.801 79.0574 104.152L96.4688 134.309C97.2487 135.66 97.2487 137.325 96.4688 138.675L79.0574 168.833C78.2775 170.184 76.8362 171.016 75.2764 171.016H40.4537C38.8939 171.016 37.4526 170.184 36.6727 168.833L19.2613 138.675Z" fill="white"/>
</g>
<g filter="url(#filter6_ddd1)">
<path d="M249.903 64.4281C250.794 64.4281 251.618 64.9036 252.064 65.6755L263.473 85.4372C263.919 86.2091 263.919 87.1601 263.473 87.932L252.064 107.694C251.618 108.466 250.794 108.941 249.903 108.941L227.084 108.941C226.193 108.941 225.369 108.466 224.924 107.694L213.514 87.932C213.069 87.1601 213.069 86.2091 213.514 85.4372L224.924 65.6755C225.369 64.9036 226.193 64.4281 227.084 64.4281L249.903 64.4281Z" fill="#5D78CF"/>
</g>
<g filter="url(#filter7_ddd1)">
<path d="M32.8862 244.25C32.4406 243.478 32.4406 242.527 32.8862 241.756L44.2956 221.994C44.7413 221.222 45.5649 220.747 46.4562 220.747H69.2749C70.1663 220.747 70.9899 221.222 71.4355 221.994L82.8449 241.756C83.2906 242.527 83.2906 243.478 82.8449 244.25L71.4355 264.012C70.9899 264.784 70.1663 265.259 69.275 265.259H46.4562C45.5649 265.259 44.7413 264.784 44.2956 264.012L32.8862 244.25Z" fill="#5D78CF"/>
</g>
<g filter="url(#filter8_ddd1)">
<path d="M123.783 295.596C124.229 294.824 125.053 294.349 125.944 294.349L148.763 294.349C149.654 294.349 150.478 294.824 150.923 295.596L162.333 315.358C162.778 316.13 162.778 317.081 162.333 317.853L150.923 337.614C150.478 338.386 149.654 338.862 148.763 338.862L125.944 338.862C125.053 338.862 124.229 338.386 123.783 337.614L112.374 317.853C111.928 317.081 111.928 316.13 112.374 315.358L123.783 295.596Z" fill="#5D78CF"/>
</g>
<g filter="url(#filter9_ddd1)">
<path d="M342.467 192.284C342.913 193.056 342.913 194.007 342.467 194.779L331.058 214.541C330.612 215.313 329.789 215.788 328.897 215.788H306.079C305.187 215.788 304.364 215.313 303.918 214.541L292.509 194.779C292.063 194.007 292.063 193.056 292.509 192.284L303.918 172.523C304.364 171.751 305.187 171.275 306.079 171.275H328.897C329.789 171.275 330.612 171.751 331.058 172.523L342.467 192.284Z" fill="#5D78CF"/>
</g>
<path d="M62.6612 33.1241H65.2209V34.5948H60.7415V26.6575H62.6612V33.1241ZM68.595 28.2517C69.074 28.2517 69.4857 28.3602 69.8299 28.5773C70.1742 28.7943 70.4287 29.09 70.5934 29.4642V28.3303H72.5019V34.5948H70.5934V33.4609C70.4287 33.8351 70.1742 34.1308 69.8299 34.3478C69.4857 34.5649 69.074 34.6734 68.595 34.6734C68.0786 34.6734 67.6145 34.5462 67.2029 34.2917C66.7987 34.0297 66.4769 33.6555 66.2374 33.169C66.0054 32.6825 65.8894 32.1137 65.8894 31.4625C65.8894 30.8039 66.0054 30.2351 66.2374 29.7561C66.4769 29.2696 66.7987 28.8991 67.2029 28.6446C67.6145 28.3827 68.0786 28.2517 68.595 28.2517ZM69.2125 29.9357C68.8008 29.9357 68.4678 30.0704 68.2133 30.3399C67.9663 30.6093 67.8428 30.9835 67.8428 31.4625C67.8428 31.9416 67.9663 32.3158 68.2133 32.5852C68.4678 32.8547 68.8008 32.9894 69.2125 32.9894C69.6166 32.9894 69.946 32.8509 70.2004 32.574C70.4624 32.2971 70.5934 31.9266 70.5934 31.4625C70.5934 30.991 70.4624 30.6205 70.2004 30.3511C69.946 30.0742 69.6166 29.9357 69.2125 29.9357ZM77.4836 32.9445V34.5948H76.6191C75.8857 34.5948 75.3131 34.4152 74.9014 34.0559C74.4973 33.6892 74.2952 33.0867 74.2952 32.2484V29.9469H73.4532V28.3303H74.2952V26.7922H76.215V28.3303H77.4724V29.9469H76.215V32.2821C76.215 32.5291 76.2636 32.7012 76.3609 32.7985C76.4657 32.8958 76.6378 32.9445 76.8773 32.9445H77.4836ZM84.625 31.2941C84.625 31.4513 84.6063 31.6235 84.5689 31.8106H80.2241C80.2466 32.2821 80.3663 32.6226 80.5834 32.8322C80.8004 33.0343 81.0774 33.1353 81.4142 33.1353C81.6986 33.1353 81.9343 33.0642 82.1215 32.922C82.3086 32.7798 82.4321 32.5964 82.4919 32.3719H84.524C84.4416 32.8135 84.262 33.2102 83.9851 33.5619C83.7082 33.9062 83.3564 34.1794 82.9298 34.3815C82.5032 34.5761 82.0279 34.6734 81.504 34.6734C80.8903 34.6734 80.3439 34.5462 79.8649 34.2917C79.3934 34.0297 79.0229 33.6555 78.7534 33.169C78.484 32.6825 78.3493 32.1137 78.3493 31.4625C78.3493 30.8039 78.4803 30.2351 78.7422 29.7561C79.0117 29.2696 79.3859 28.8991 79.8649 28.6446C80.3439 28.3827 80.8903 28.2517 81.504 28.2517C82.1252 28.2517 82.6716 28.3789 83.1431 28.6334C83.6146 28.8879 83.9776 29.2471 84.2321 29.7112C84.494 30.1677 84.625 30.6954 84.625 31.2941ZM82.6828 31.0023C82.6903 30.5906 82.578 30.2837 82.346 30.0817C82.1215 29.8721 81.8408 29.7673 81.504 29.7673C81.1522 29.7673 80.8603 29.8721 80.6283 30.0817C80.3963 30.2912 80.2653 30.5981 80.2354 31.0023H82.6828ZM93.0152 33.1466H90.0401L89.5461 34.5948H87.5253L90.433 26.7136H92.6447L95.5524 34.5948H93.5091L93.0152 33.1466ZM92.5212 31.6871L91.5332 28.7681L90.534 31.6871H92.5212ZM98.3307 29.5091C98.5702 29.1274 98.877 28.8243 99.2512 28.5997C99.633 28.3752 100.045 28.2629 100.486 28.2629V30.3174H99.9361C99.4271 30.3174 99.0305 30.4259 98.746 30.643C98.4691 30.86 98.3307 31.2268 98.3307 31.7432V34.5948H96.4109V28.3303H98.3307V29.5091ZM103.322 29.5091C103.561 29.1274 103.868 28.8243 104.242 28.5997C104.624 28.3752 105.036 28.2629 105.477 28.2629V30.3174H104.927C104.418 30.3174 104.022 30.4259 103.737 30.643C103.46 30.86 103.322 31.2268 103.322 31.7432V34.5948H101.402V28.3303H103.322V29.5091ZM106.213 26.5677C106.213 26.2758 106.318 26.0363 106.528 25.8492C106.737 25.6546 107.014 25.5573 107.359 25.5573C107.703 25.5573 107.98 25.6546 108.189 25.8492C108.399 26.0363 108.504 26.2758 108.504 26.5677C108.504 26.8521 108.399 27.0916 108.189 27.2862C107.98 27.4733 107.703 27.5669 107.359 27.5669C107.014 27.5669 106.737 27.4733 106.528 27.2862C106.318 27.0916 106.213 26.8521 106.213 26.5677ZM108.313 28.3303V34.5948H106.393V28.3303H108.313ZM112.647 32.7199L114.005 28.3303H116.049L113.826 34.5948H111.446L109.223 28.3303H111.266L112.647 32.7199ZM116.777 26.5677C116.777 26.2758 116.881 26.0363 117.091 25.8492C117.301 25.6546 117.577 25.5573 117.922 25.5573C118.266 25.5573 118.543 25.6546 118.753 25.8492C118.962 26.0363 119.067 26.2758 119.067 26.5677C119.067 26.8521 118.962 27.0916 118.753 27.2862C118.543 27.4733 118.266 27.5669 117.922 27.5669C117.577 27.5669 117.301 27.4733 117.091 27.2862C116.881 27.0916 116.777 26.8521 116.777 26.5677ZM118.876 28.3303V34.5948H116.956V28.3303H118.876ZM124.288 28.2629C125.006 28.2629 125.575 28.5024 125.994 28.9814C126.421 29.4604 126.634 30.1191 126.634 30.9573V34.5948H124.715V31.1819C124.715 30.7627 124.602 30.4372 124.378 30.2052C124.161 29.9657 123.869 29.8459 123.502 29.8459C123.113 29.8459 122.802 29.9694 122.57 30.2164C122.346 30.4634 122.233 30.8151 122.233 31.2717V34.5948H120.314V28.3303H122.233V29.4754C122.413 29.1012 122.679 28.8056 123.031 28.5885C123.39 28.3715 123.809 28.2629 124.288 28.2629ZM130.393 28.2517C130.872 28.2517 131.284 28.3602 131.628 28.5773C131.972 28.7943 132.227 29.09 132.391 29.4642V28.3303H134.3V34.5611C134.3 35.1449 134.187 35.6688 133.963 36.1329C133.738 36.6044 133.394 36.9786 132.93 37.2555C132.466 37.5325 131.89 37.6709 131.201 37.6709C130.258 37.6709 129.502 37.4464 128.933 36.9973C128.372 36.5557 128.035 35.9532 127.923 35.1898H129.82C129.88 35.4443 130.015 35.6426 130.224 35.7848C130.442 35.927 130.722 35.9981 131.066 35.9981C131.463 35.9981 131.781 35.8821 132.021 35.6501C132.268 35.4256 132.391 35.0626 132.391 34.5611V33.4609C132.227 33.8351 131.972 34.1308 131.628 34.3478C131.284 34.5649 130.872 34.6734 130.393 34.6734C129.876 34.6734 129.412 34.5462 129.001 34.2917C128.597 34.0297 128.275 33.6555 128.035 33.169C127.803 32.6825 127.687 32.1137 127.687 31.4625C127.687 30.8039 127.803 30.2351 128.035 29.7561C128.275 29.2696 128.597 28.8991 129.001 28.6446C129.412 28.3827 129.876 28.2517 130.393 28.2517ZM131.01 29.9357C130.599 29.9357 130.266 30.0704 130.011 30.3399C129.764 30.6093 129.641 30.9835 129.641 31.4625C129.641 31.9416 129.764 32.3158 130.011 32.5852C130.266 32.8547 130.599 32.9894 131.01 32.9894C131.414 32.9894 131.744 32.8509 131.998 32.574C132.26 32.2971 132.391 31.9266 132.391 31.4625C132.391 30.991 132.26 30.6205 131.998 30.3511C131.744 30.0742 131.414 29.9357 131.01 29.9357ZM71.5304 41.6575L69.633 49.5948H67.253L65.9844 44.2846L64.7045 49.5948H62.3244L60.4271 41.6575H62.5153L63.5369 47.4056L64.929 41.6575H67.0284L68.4206 47.4056L69.4534 41.6575H71.5304ZM72.4709 41.5677C72.4709 41.2758 72.5757 41.0363 72.7853 40.8492C72.9949 40.6546 73.2718 40.5573 73.6161 40.5573C73.9604 40.5573 74.2373 40.6546 74.4469 40.8492C74.6564 41.0363 74.7612 41.2758 74.7612 41.5677C74.7612 41.8521 74.6564 42.0916 74.4469 42.2862C74.2373 42.4733 73.9604 42.5669 73.6161 42.5669C73.2718 42.5669 72.9949 42.4733 72.7853 42.2862C72.5757 42.0916 72.4709 41.8521 72.4709 41.5677ZM74.5703 43.3303V49.5948H72.6506V43.3303H74.5703ZM77.9278 44.5091C78.1673 44.1274 78.4742 43.8243 78.8484 43.5997C79.2301 43.3752 79.6418 43.2629 80.0834 43.2629V45.3174H79.5333C79.0243 45.3174 78.6276 45.4259 78.3432 45.643C78.0663 45.86 77.9278 46.2268 77.9278 46.7432V49.5948H76.0081V43.3303H77.9278V44.5091ZM86.9493 46.2941C86.9493 46.4513 86.9306 46.6235 86.8932 46.8106H82.5484C82.5709 47.2821 82.6906 47.6226 82.9077 47.8322C83.1247 48.0343 83.4017 48.1353 83.7385 48.1353C84.0229 48.1353 84.2586 48.0642 84.4457 47.922C84.6329 47.7798 84.7563 47.5964 84.8162 47.3719H86.8483C86.7659 47.8135 86.5863 48.2102 86.3094 48.5619C86.0325 48.9062 85.6807 49.1794 85.2541 49.3815C84.8274 49.5761 84.3522 49.6734 83.8283 49.6734C83.2145 49.6734 82.6682 49.5462 82.1892 49.2917C81.7176 49.0297 81.3472 48.6555 81.0777 48.169C80.8083 47.6825 80.6736 47.1137 80.6736 46.4625C80.6736 45.8039 80.8045 45.2351 81.0665 44.7561C81.3359 44.2696 81.7102 43.8991 82.1892 43.6446C82.6682 43.3827 83.2145 43.2517 83.8283 43.2517C84.4495 43.2517 84.9959 43.3789 85.4674 43.6334C85.9389 43.8879 86.3019 44.2471 86.5564 44.7112C86.8183 45.1677 86.9493 45.6954 86.9493 46.2941ZM85.0071 46.0023C85.0146 45.5906 84.9023 45.2837 84.6703 45.0817C84.4457 44.8721 84.1651 44.7673 83.8283 44.7673C83.4765 44.7673 83.1846 44.8721 82.9526 45.0817C82.7206 45.2912 82.5896 45.5981 82.5597 46.0023H85.0071Z" fill="white"/>
<path d="M138.342 60.8572C138.525 60.6745 138.525 60.3784 138.342 60.1957L135.365 57.2187C135.182 57.0361 134.886 57.0361 134.704 57.2187C134.521 57.4014 134.521 57.6976 134.704 57.8803L137.35 60.5264L134.704 63.1726C134.521 63.3553 134.521 63.6515 134.704 63.8341C134.886 64.0168 135.182 64.0168 135.365 63.8341L138.342 60.8572ZM83.7715 60.9942H138.011V60.0587H83.7715V60.9942Z" fill="white"/>
<path d="M186.084 153.369C186.267 153.552 186.563 153.552 186.746 153.369L189.723 150.392C189.905 150.21 189.905 149.914 189.723 149.731C189.54 149.548 189.244 149.548 189.061 149.731L186.415 152.377L183.769 149.731C183.586 149.548 183.29 149.548 183.107 149.731C182.925 149.914 182.925 150.21 183.107 150.392L186.084 153.369ZM186.746 110.767C186.563 110.585 186.267 110.585 186.084 110.767L183.107 113.744C182.925 113.927 182.925 114.223 183.107 114.406C183.29 114.588 183.586 114.588 183.769 114.406L186.415 111.76L189.061 114.406C189.244 114.588 189.54 114.588 189.723 114.406C189.905 114.223 189.905 113.927 189.723 113.744L186.746 110.767ZM186.883 153.039V111.098H185.947V153.039H186.883Z" fill="white"/>
<path d="M227.261 229.39C227.004 229.421 226.822 229.655 226.853 229.911L227.361 234.09C227.392 234.347 227.626 234.529 227.882 234.498C228.139 234.467 228.321 234.234 228.29 233.977L227.838 230.262L231.553 229.811C231.81 229.779 231.992 229.546 231.961 229.29C231.93 229.033 231.697 228.851 231.44 228.882L227.261 229.39ZM285.21 275.612C285.467 275.581 285.649 275.348 285.618 275.092L285.11 270.912C285.079 270.656 284.845 270.473 284.589 270.504C284.333 270.536 284.15 270.769 284.181 271.025L284.633 274.74L280.918 275.192C280.662 275.223 280.479 275.456 280.51 275.713C280.541 275.969 280.775 276.152 281.031 276.121L285.21 275.612ZM227.029 230.223L284.865 275.516L285.442 274.78L227.606 229.486L227.029 230.223Z" fill="white"/>
<g filter="url(#filter10_ddd1)">
<path d="M356.092 134.309C356.872 135.66 356.872 137.324 356.092 138.675L338.681 168.832C337.901 170.183 336.46 171.015 334.9 171.015H300.077C298.517 171.015 297.076 170.183 296.296 168.832L278.885 138.675C278.105 137.324 278.105 135.66 278.885 134.309L296.296 104.152C297.076 102.801 298.517 101.969 300.077 101.969H334.9C336.46 101.969 337.901 102.801 338.681 104.152L356.092 134.309Z" fill="white"/>
</g>
<g filter="url(#filter11_ddd1)">
<path d="M280.756 301.726C279.977 300.375 279.977 298.711 280.756 297.36L298.168 267.203C298.948 265.852 300.389 265.02 301.949 265.02H336.772C338.331 265.02 339.773 265.852 340.553 267.203L357.964 297.36C358.744 298.711 358.744 300.375 357.964 301.726L340.553 331.884C339.773 333.234 338.331 334.067 336.772 334.067H301.949C300.389 334.067 298.948 333.234 298.168 331.884L280.756 301.726Z" fill="white"/>
</g>
<path d="M174.705 203.59C175.343 203.739 175.847 204.049 176.216 204.518C176.596 204.987 176.785 205.531 176.785 206.149C176.785 207.057 176.481 207.766 175.872 208.275C175.273 208.784 174.41 209.038 173.283 209.038H168.358V198.455H173.163C174.241 198.455 175.074 198.69 175.663 199.159C176.251 199.628 176.546 200.296 176.546 201.165C176.546 201.803 176.376 202.337 176.037 202.766C175.698 203.185 175.253 203.46 174.705 203.59ZM170.917 202.781H172.594C173.482 202.781 173.926 202.402 173.926 201.644C173.926 200.885 173.472 200.506 172.564 200.506H170.917V202.781ZM172.744 206.958C173.692 206.958 174.166 206.568 174.166 205.79C174.166 205.411 174.041 205.116 173.792 204.907C173.542 204.687 173.188 204.577 172.729 204.577H170.917V206.958H172.744ZM181.46 200.581C182.099 200.581 182.648 200.725 183.107 201.015C183.566 201.304 183.905 201.698 184.125 202.197V200.686H186.67V209.038H184.125V207.526C183.905 208.025 183.566 208.42 183.107 208.709C182.648 208.998 182.099 209.143 181.46 209.143C180.772 209.143 180.153 208.973 179.604 208.634C179.065 208.285 178.636 207.786 178.317 207.137C178.008 206.489 177.853 205.73 177.853 204.862C177.853 203.984 178.008 203.225 178.317 202.587C178.636 201.938 179.065 201.444 179.604 201.105C180.153 200.755 180.772 200.581 181.46 200.581ZM182.284 202.826C181.735 202.826 181.291 203.006 180.951 203.365C180.622 203.724 180.457 204.223 180.457 204.862C180.457 205.501 180.622 206 180.951 206.359C181.291 206.718 181.735 206.898 182.284 206.898C182.823 206.898 183.262 206.713 183.601 206.344C183.95 205.975 184.125 205.481 184.125 204.862C184.125 204.233 183.95 203.739 183.601 203.38C183.262 203.011 182.823 202.826 182.284 202.826ZM193.881 200.596C194.839 200.596 195.597 200.915 196.156 201.554C196.725 202.192 197.009 203.071 197.009 204.188V209.038H194.45V204.488C194.45 203.929 194.3 203.495 194 203.185C193.711 202.866 193.322 202.706 192.833 202.706C192.314 202.706 191.9 202.871 191.59 203.2C191.291 203.53 191.141 203.999 191.141 204.607V209.038H188.582V200.686H191.141V202.212C191.381 201.713 191.735 201.319 192.204 201.03C192.683 200.74 193.242 200.596 193.881 200.596ZM203.907 209.038L201.407 205.491V209.038H198.847V197.961H201.407V204.039L203.907 200.686H206.915L203.547 204.862L206.99 209.038H203.907Z" fill="white"/>
<path d="M327.57 297.771H331.078V306.171H327.57V297.771Z" fill="url(#paint2_linear1)"/>
<path d="M320.926 297.771H324.435V306.171H320.926V297.771Z" fill="url(#paint3_linear1)"/>
<path d="M314.282 297.771H317.791V306.171H314.282V297.771Z" fill="url(#paint4_linear1)"/>
<path d="M307.639 297.771H311.147V306.171H307.639V297.771Z" fill="url(#paint5_linear1)"/>
<path d="M332.247 295.14V294.263H306.47V295.14C306.47 295.624 306.862 296.017 307.347 296.017H331.37C331.854 296.017 332.247 295.624 332.247 295.14Z" fill="url(#paint6_linear1)"/>
<path d="M333.45 307.925H305.267C304.783 307.925 304.39 308.318 304.39 308.802V311.141C304.39 311.626 304.783 312.018 305.267 312.018H333.45C333.934 312.018 334.327 311.626 334.327 311.141V308.802C334.327 308.318 333.934 307.925 333.45 307.925Z" fill="url(#paint7_linear1)"/>
<path d="M305.267 292.508H333.45C333.843 292.508 334.187 292.248 334.294 291.87C334.401 291.493 334.244 291.09 333.91 290.884L319.818 282.21C319.536 282.037 319.181 282.037 318.899 282.21L304.807 290.884C304.473 291.09 304.316 291.493 304.423 291.87C304.53 292.248 304.874 292.508 305.267 292.508ZM318.762 287.239H319.955C320.439 287.239 320.832 287.632 320.832 288.116C320.832 288.601 320.439 288.993 319.955 288.993H318.762C318.278 288.993 317.885 288.601 317.885 288.116C317.885 287.632 318.278 287.239 318.762 287.239Z" fill="url(#paint8_linear1)"/>
<path d="M66.0766 134.719H69.5847V143.119H66.0766V134.719Z" fill="url(#paint9_linear1)"/>
<path d="M59.4332 134.719H62.9416V143.119H59.4332V134.719Z" fill="url(#paint10_linear1)"/>
<path d="M52.7893 134.719H56.2977V143.119H52.7893V134.719Z" fill="url(#paint11_linear1)"/>
<path d="M46.146 134.719H49.6541V143.119H46.146V134.719Z" fill="url(#paint12_linear1)"/>
<path d="M70.754 132.088V131.211H44.9765V132.088C44.9765 132.573 45.3692 132.965 45.8536 132.965H69.8769C70.3611 132.965 70.754 132.573 70.754 132.088Z" fill="url(#paint13_linear1)"/>
<path d="M71.9566 144.873H43.7742C43.2897 144.873 42.8971 145.266 42.8971 145.751V148.089C42.8971 148.574 43.2897 148.967 43.7742 148.967H71.9566C72.441 148.967 72.8337 148.574 72.8337 148.089V145.751C72.8337 145.266 72.441 144.873 71.9566 144.873Z" fill="url(#paint14_linear1)"/>
<path d="M43.7735 129.457H71.9572C72.3496 129.457 72.6943 129.196 72.8012 128.819C72.9079 128.441 72.7512 128.038 72.417 127.833L58.3252 119.159C58.0433 118.985 57.6877 118.985 57.4056 119.159L43.3137 127.833C42.9795 128.039 42.8229 128.441 42.9298 128.819C43.0366 129.196 43.3813 129.457 43.7735 129.457ZM57.2692 124.187H58.4617C58.9462 124.187 59.3388 124.58 59.3388 125.065C59.3388 125.549 58.9462 125.942 58.4617 125.942H57.2692C56.7848 125.942 56.3921 125.549 56.3921 125.065C56.3921 124.58 56.7848 124.187 57.2692 124.187Z" fill="url(#paint15_linear1)"/>
<path d="M194.58 59.3593H198.089V67.7592H194.58V59.3593Z" fill="white"/>
<path d="M187.937 59.3593H191.446V67.7592H187.937V59.3593Z" fill="white"/>
<path d="M181.293 59.3593H184.802V67.7592H181.293V59.3593Z" fill="white"/>
<path d="M174.65 59.3593H178.158V67.7592H174.65V59.3593Z" fill="white"/>
<path d="M199.258 56.728V55.8509H173.48V56.728C173.48 57.2125 173.873 57.6051 174.358 57.6051H198.381C198.865 57.6051 199.258 57.2125 199.258 56.728Z" fill="white"/>
<path d="M200.46 69.5134H172.278C171.794 69.5134 171.401 69.906 171.401 70.3905V72.7294C171.401 73.2139 171.794 73.6065 172.278 73.6065H200.46C200.945 73.6065 201.338 73.2139 201.338 72.7294V70.3905C201.338 69.906 200.945 69.5134 200.46 69.5134Z" fill="white"/>
<path d="M172.277 54.0968H200.461C200.854 54.0968 201.198 53.8362 201.305 53.4586C201.412 53.081 201.255 52.6784 200.921 52.4728L186.829 43.7988C186.547 43.6252 186.192 43.6252 185.909 43.7988L171.818 52.4728C171.483 52.6786 171.327 53.081 171.434 53.4586C171.541 53.8362 171.885 54.0968 172.277 54.0968ZM185.773 48.8274H186.966C187.45 48.8274 187.843 49.22 187.843 49.7045C187.843 50.1889 187.45 50.5816 186.966 50.5816H185.773C185.289 50.5816 184.896 50.1889 184.896 49.7045C184.896 49.22 185.289 48.8274 185.773 48.8274Z" fill="white"/>
<path d="M325.701 134.719H329.209V143.119H325.701V134.719Z" fill="url(#paint16_linear1)"/>
<path d="M319.057 134.719H322.566V143.119H319.057V134.719Z" fill="url(#paint17_linear1)"/>
<path d="M312.413 134.719H315.922V143.119H312.413V134.719Z" fill="url(#paint18_linear1)"/>
<path d="M305.77 134.719H309.278V143.119H305.77V134.719Z" fill="url(#paint19_linear1)"/>
<path d="M330.378 132.088V131.211H304.601V132.088C304.601 132.573 304.993 132.965 305.478 132.965H329.501C329.985 132.965 330.378 132.573 330.378 132.088Z" fill="url(#paint20_linear1)"/>
<path d="M331.581 144.873H303.398C302.914 144.873 302.521 145.266 302.521 145.751V148.089C302.521 148.574 302.914 148.967 303.398 148.967H331.581C332.065 148.967 332.458 148.574 332.458 148.089V145.751C332.458 145.266 332.065 144.873 331.581 144.873Z" fill="url(#paint21_linear1)"/>
<path d="M303.398 129.457H331.581C331.974 129.457 332.318 129.196 332.425 128.819C332.532 128.441 332.375 128.038 332.041 127.833L317.949 119.159C317.667 118.985 317.312 118.985 317.03 119.159L302.938 127.833C302.604 128.039 302.447 128.441 302.554 128.819C302.661 129.196 303.005 129.457 303.398 129.457ZM316.893 124.187H318.086C318.57 124.187 318.963 124.58 318.963 125.065C318.963 125.549 318.57 125.942 318.086 125.942H316.893C316.409 125.942 316.016 125.549 316.016 125.065C316.016 124.58 316.409 124.187 316.893 124.187Z" fill="url(#paint22_linear1)"/>
<path d="M66.0766 297.771H69.5847V306.171H66.0766V297.771Z" fill="url(#paint23_linear1)"/>
<path d="M59.4332 297.771H62.9416V306.171H59.4332V297.771Z" fill="url(#paint24_linear1)"/>
<path d="M52.7893 297.771H56.2977V306.171H52.7893V297.771Z" fill="url(#paint25_linear1)"/>
<path d="M46.146 297.771H49.6541V306.171H46.146V297.771Z" fill="url(#paint26_linear1)"/>
<path d="M70.754 295.14V294.263H44.9765V295.14C44.9765 295.624 45.3692 296.017 45.8536 296.017H69.8769C70.3611 296.017 70.754 295.624 70.754 295.14Z" fill="url(#paint27_linear1)"/>
<path d="M71.9566 307.925H43.7742C43.2897 307.925 42.8971 308.318 42.8971 308.802V311.141C42.8971 311.626 43.2897 312.018 43.7742 312.018H71.9566C72.441 312.018 72.8337 311.626 72.8337 311.141V308.802C72.8337 308.318 72.441 307.925 71.9566 307.925Z" fill="url(#paint28_linear1)"/>
<path d="M43.7735 292.508H71.9572C72.3496 292.508 72.6943 292.248 72.8012 291.87C72.9079 291.493 72.7512 291.09 72.417 290.884L58.3252 282.21C58.0433 282.037 57.6877 282.037 57.4056 282.21L43.3137 290.884C42.9795 291.09 42.8229 291.493 42.9298 291.87C43.0366 292.248 43.3813 292.508 43.7735 292.508ZM57.2692 287.239H58.4617C58.9462 287.239 59.3388 287.632 59.3388 288.116C59.3388 288.601 58.9462 288.993 58.4617 288.993H57.2692C56.7848 288.993 56.3921 288.601 56.3921 288.116C56.3921 287.632 56.7848 287.239 57.2692 287.239Z" fill="url(#paint29_linear1)"/>
<path d="M195.887 341.86H199.395V350.26H195.887V341.86Z" fill="url(#paint30_linear1)"/>
<path d="M189.244 341.86H192.752V350.26H189.244V341.86Z" fill="url(#paint31_linear1)"/>
<path d="M182.6 341.86H186.108V350.26H182.6V341.86Z" fill="url(#paint32_linear1)"/>
<path d="M175.957 341.86H179.465V350.26H175.957V341.86Z" fill="url(#paint33_linear1)"/>
<path d="M200.565 339.229V338.352H174.787V339.229C174.787 339.713 175.18 340.106 175.664 340.106H199.687C200.172 340.106 200.565 339.713 200.565 339.229Z" fill="url(#paint34_linear1)"/>
<path d="M201.767 352.014H173.585C173.1 352.014 172.708 352.407 172.708 352.891V355.23C172.708 355.715 173.1 356.107 173.585 356.107H201.767C202.252 356.107 202.644 355.715 202.644 355.23V352.891C202.644 352.407 202.252 352.014 201.767 352.014Z" fill="url(#paint35_linear1)"/>
<path d="M173.584 336.598H201.768C202.16 336.598 202.505 336.337 202.612 335.959C202.718 335.582 202.562 335.179 202.228 334.974L188.136 326.3C187.854 326.126 187.498 326.126 187.216 326.3L173.124 334.974C172.79 335.179 172.633 335.582 172.74 335.959C172.847 336.337 173.192 336.598 173.584 336.598ZM187.08 331.328H188.272C188.757 331.328 189.149 331.721 189.149 332.205C189.149 332.69 188.757 333.082 188.272 333.082H187.08C186.595 333.082 186.203 332.69 186.203 332.205C186.203 331.721 186.595 331.328 187.08 331.328Z" fill="url(#paint36_linear1)"/>
<path d="M266.366 233.766C266.366 234.185 266.257 234.57 266.04 234.922C265.83 235.274 265.516 235.555 265.097 235.764C264.685 235.974 264.184 236.079 263.593 236.079C262.702 236.079 261.968 235.862 261.392 235.427C260.816 234.993 260.501 234.387 260.449 233.609H262.492C262.522 233.908 262.627 234.144 262.807 234.316C262.994 234.488 263.23 234.574 263.514 234.574C263.761 234.574 263.956 234.507 264.098 234.372C264.24 234.237 264.311 234.058 264.311 233.833C264.311 233.631 264.244 233.463 264.109 233.328C263.982 233.193 263.821 233.085 263.626 233.002C263.432 232.913 263.162 232.808 262.818 232.688C262.316 232.516 261.905 232.351 261.583 232.194C261.269 232.029 260.995 231.79 260.763 231.476C260.539 231.154 260.427 230.738 260.427 230.229C260.427 229.758 260.546 229.35 260.786 229.006C261.025 228.661 261.355 228.4 261.774 228.22C262.2 228.033 262.687 227.939 263.233 227.939C264.116 227.939 264.816 228.149 265.333 228.568C265.857 228.987 266.152 229.563 266.22 230.297H264.143C264.105 230.035 264.008 229.829 263.851 229.679C263.701 229.522 263.495 229.444 263.233 229.444C263.009 229.444 262.825 229.503 262.683 229.623C262.548 229.743 262.481 229.919 262.481 230.151C262.481 230.338 262.541 230.499 262.661 230.634C262.788 230.761 262.945 230.866 263.132 230.948C263.319 231.03 263.589 231.135 263.941 231.262C264.45 231.434 264.865 231.607 265.187 231.779C265.509 231.943 265.786 232.187 266.018 232.508C266.25 232.83 266.366 233.249 266.366 233.766ZM276.7 229.735L275.095 236H272.95L271.817 231.801L270.671 236H268.527L266.922 229.735H268.841L269.672 234.249L270.84 229.735H272.883L274.084 234.26L274.915 229.735H276.7ZM283.458 232.699C283.458 232.857 283.439 233.029 283.402 233.216H279.057C279.079 233.687 279.199 234.028 279.416 234.237C279.633 234.439 279.91 234.541 280.247 234.541C280.531 234.541 280.767 234.469 280.954 234.327C281.141 234.185 281.265 234.002 281.325 233.777H283.357C283.275 234.219 283.095 234.615 282.818 234.967C282.541 235.311 282.189 235.585 281.763 235.787C281.336 235.981 280.861 236.079 280.337 236.079C279.723 236.079 279.177 235.951 278.698 235.697C278.226 235.435 277.856 235.061 277.586 234.574C277.317 234.088 277.182 233.519 277.182 232.868C277.182 232.209 277.313 231.64 277.575 231.161C277.845 230.675 278.219 230.304 278.698 230.05C279.177 229.788 279.723 229.657 280.337 229.657C280.958 229.657 281.504 229.784 281.976 230.039C282.447 230.293 282.81 230.652 283.065 231.116C283.327 231.573 283.458 232.101 283.458 232.699ZM281.516 232.407C281.523 231.996 281.411 231.689 281.179 231.487C280.954 231.277 280.674 231.173 280.337 231.173C279.985 231.173 279.693 231.277 279.461 231.487C279.229 231.696 279.098 232.003 279.068 232.407H281.516ZM290.521 232.699C290.521 232.857 290.502 233.029 290.465 233.216H286.12C286.143 233.687 286.262 234.028 286.479 234.237C286.697 234.439 286.973 234.541 287.31 234.541C287.595 234.541 287.83 234.469 288.018 234.327C288.205 234.185 288.328 234.002 288.388 233.777H290.42C290.338 234.219 290.158 234.615 289.881 234.967C289.604 235.311 289.252 235.585 288.826 235.787C288.399 235.981 287.924 236.079 287.4 236.079C286.786 236.079 286.24 235.951 285.761 235.697C285.289 235.435 284.919 235.061 284.649 234.574C284.38 234.088 284.245 233.519 284.245 232.868C284.245 232.209 284.376 231.64 284.638 231.161C284.908 230.675 285.282 230.304 285.761 230.05C286.24 229.788 286.786 229.657 287.4 229.657C288.021 229.657 288.568 229.784 289.039 230.039C289.511 230.293 289.874 230.652 290.128 231.116C290.39 231.573 290.521 232.101 290.521 232.699ZM288.579 232.407C288.586 231.996 288.474 231.689 288.242 231.487C288.018 231.277 287.737 231.173 287.4 231.173C287.048 231.173 286.756 231.277 286.524 231.487C286.292 231.696 286.161 232.003 286.131 232.407H288.579ZM295.541 229.657C296.057 229.657 296.518 229.788 296.922 230.05C297.334 230.304 297.655 230.675 297.887 231.161C298.127 231.64 298.247 232.209 298.247 232.868C298.247 233.519 298.127 234.088 297.887 234.574C297.655 235.061 297.334 235.435 296.922 235.697C296.518 235.951 296.057 236.079 295.541 236.079C295.062 236.079 294.65 235.97 294.306 235.753C293.962 235.536 293.711 235.24 293.554 234.866V238.986H291.634V229.735H293.554V230.869C293.711 230.495 293.962 230.2 294.306 229.982C294.65 229.765 295.062 229.657 295.541 229.657ZM294.924 231.341C294.519 231.341 294.186 231.479 293.924 231.756C293.67 232.026 293.543 232.396 293.543 232.868C293.543 233.332 293.67 233.702 293.924 233.979C294.186 234.256 294.519 234.395 294.924 234.395C295.335 234.395 295.664 234.26 295.911 233.99C296.166 233.721 296.293 233.347 296.293 232.868C296.293 232.389 296.166 232.015 295.911 231.745C295.664 231.476 295.335 231.341 294.924 231.341ZM304.095 229.657C304.574 229.657 304.986 229.765 305.33 229.982C305.674 230.2 305.929 230.495 306.093 230.869V229.735H308.002V236H306.093V234.866C305.929 235.24 305.674 235.536 305.33 235.753C304.986 235.97 304.574 236.079 304.095 236.079C303.579 236.079 303.115 235.951 302.703 235.697C302.299 235.435 301.977 235.061 301.737 234.574C301.505 234.088 301.389 233.519 301.389 232.868C301.389 232.209 301.505 231.64 301.737 231.161C301.977 230.675 302.299 230.304 302.703 230.05C303.115 229.788 303.579 229.657 304.095 229.657ZM304.712 231.341C304.301 231.341 303.968 231.476 303.713 231.745C303.466 232.015 303.343 232.389 303.343 232.868C303.343 233.347 303.466 233.721 303.713 233.99C303.968 234.26 304.301 234.395 304.712 234.395C305.117 234.395 305.446 234.256 305.7 233.979C305.962 233.702 306.093 233.332 306.093 232.868C306.093 232.396 305.962 232.026 305.7 231.756C305.446 231.479 305.117 231.341 304.712 231.341ZM312.265 229.657C313.073 229.657 313.751 229.881 314.297 230.331C314.843 230.772 315.188 231.382 315.33 232.16H313.298C313.238 231.891 313.115 231.681 312.927 231.532C312.74 231.382 312.505 231.307 312.22 231.307C311.883 231.307 311.606 231.442 311.389 231.711C311.172 231.973 311.064 232.359 311.064 232.868C311.064 233.377 311.172 233.766 311.389 234.035C311.606 234.297 311.883 234.428 312.22 234.428C312.505 234.428 312.74 234.353 312.927 234.204C313.115 234.054 313.238 233.844 313.298 233.575H315.33C315.188 234.353 314.843 234.967 314.297 235.416C313.751 235.858 313.073 236.079 312.265 236.079C311.651 236.079 311.105 235.951 310.626 235.697C310.154 235.435 309.784 235.061 309.515 234.574C309.245 234.088 309.11 233.519 309.11 232.868C309.11 232.209 309.241 231.64 309.503 231.161C309.773 230.675 310.147 230.304 310.626 230.05C311.105 229.788 311.651 229.657 312.265 229.657ZM319.273 229.657C320.082 229.657 320.759 229.881 321.305 230.331C321.852 230.772 322.196 231.382 322.338 232.16H320.306C320.246 231.891 320.123 231.681 319.936 231.532C319.749 231.382 319.513 231.307 319.229 231.307C318.892 231.307 318.615 231.442 318.398 231.711C318.181 231.973 318.072 232.359 318.072 232.868C318.072 233.377 318.181 233.766 318.398 234.035C318.615 234.297 318.892 234.428 319.229 234.428C319.513 234.428 319.749 234.353 319.936 234.204C320.123 234.054 320.246 233.844 320.306 233.575H322.338C322.196 234.353 321.852 234.967 321.305 235.416C320.759 235.858 320.082 236.079 319.273 236.079C318.66 236.079 318.113 235.951 317.634 235.697C317.163 235.435 316.792 235.061 316.523 234.574C316.253 234.088 316.119 233.519 316.119 232.868C316.119 232.209 316.25 231.64 316.512 231.161C316.781 230.675 317.155 230.304 317.634 230.05C318.113 229.788 318.66 229.657 319.273 229.657ZM326.383 229.657C327.004 229.657 327.558 229.788 328.044 230.05C328.538 230.304 328.924 230.675 329.201 231.161C329.485 231.648 329.627 232.217 329.627 232.868C329.627 233.519 329.485 234.088 329.201 234.574C328.924 235.061 328.538 235.435 328.044 235.697C327.558 235.951 327.004 236.079 326.383 236.079C325.762 236.079 325.204 235.951 324.71 235.697C324.216 235.435 323.827 235.061 323.542 234.574C323.266 234.088 323.127 233.519 323.127 232.868C323.127 232.217 323.266 231.648 323.542 231.161C323.827 230.675 324.216 230.304 324.71 230.05C325.204 229.788 325.762 229.657 326.383 229.657ZM326.383 231.318C326.016 231.318 325.705 231.453 325.451 231.723C325.204 231.985 325.081 232.366 325.081 232.868C325.081 233.369 325.204 233.751 325.451 234.013C325.705 234.275 326.016 234.406 326.383 234.406C326.75 234.406 327.056 234.275 327.303 234.013C327.55 233.751 327.674 233.369 327.674 232.868C327.674 232.366 327.55 231.985 327.303 231.723C327.056 231.453 326.75 231.318 326.383 231.318ZM336.966 229.735V236H335.035V234.866C334.855 235.233 334.586 235.525 334.227 235.742C333.875 235.959 333.463 236.067 332.992 236.067C332.273 236.067 331.701 235.828 331.274 235.349C330.855 234.87 330.645 234.211 330.645 233.373V229.735H332.554V233.137C332.554 233.564 332.662 233.897 332.879 234.136C333.104 234.368 333.403 234.484 333.778 234.484C334.167 234.484 334.474 234.361 334.698 234.114C334.923 233.867 335.035 233.515 335.035 233.059V229.735H336.966ZM342.376 229.668C343.094 229.668 343.663 229.908 344.082 230.387C344.509 230.866 344.722 231.524 344.722 232.363V236H342.802V232.587C342.802 232.168 342.69 231.842 342.465 231.61C342.248 231.371 341.956 231.251 341.59 231.251C341.2 231.251 340.89 231.375 340.658 231.622C340.433 231.869 340.321 232.22 340.321 232.677V236H338.401V229.735H340.321V230.881C340.501 230.506 340.766 230.211 341.118 229.994C341.477 229.777 341.897 229.668 342.376 229.668ZM349.648 234.35V236H348.784C348.05 236 347.478 235.82 347.066 235.461C346.662 235.094 346.46 234.492 346.46 233.654V231.352H345.618V229.735H346.46V228.197H348.379V229.735H349.637V231.352H348.379V233.687C348.379 233.934 348.428 234.106 348.525 234.204C348.63 234.301 348.802 234.35 349.042 234.35H349.648ZM353.118 229.657C353.912 229.657 354.544 229.855 355.016 230.252C355.495 230.649 355.794 231.173 355.914 231.824H354.117C354.065 231.569 353.945 231.371 353.758 231.229C353.579 231.079 353.35 231.004 353.073 231.004C352.856 231.004 352.692 231.053 352.579 231.15C352.467 231.24 352.411 231.371 352.411 231.543C352.411 231.738 352.512 231.884 352.714 231.981C352.924 232.078 353.249 232.175 353.691 232.273C354.17 232.385 354.563 232.501 354.87 232.621C355.177 232.733 355.442 232.92 355.667 233.182C355.891 233.444 356.004 233.796 356.004 234.237C356.004 234.597 355.906 234.915 355.712 235.192C355.517 235.469 355.236 235.686 354.87 235.843C354.503 236 354.069 236.079 353.567 236.079C352.722 236.079 352.044 235.891 351.535 235.517C351.026 235.143 350.716 234.608 350.604 233.912H352.456C352.486 234.181 352.598 234.387 352.793 234.529C352.995 234.672 353.253 234.743 353.567 234.743C353.784 234.743 353.949 234.694 354.061 234.597C354.174 234.492 354.23 234.357 354.23 234.192C354.23 233.975 354.125 233.822 353.915 233.732C353.713 233.635 353.38 233.534 352.916 233.429C352.452 233.332 352.07 233.227 351.771 233.115C351.472 233.002 351.214 232.823 350.996 232.576C350.779 232.321 350.671 231.977 350.671 231.543C350.671 230.982 350.884 230.529 351.311 230.185C351.737 229.833 352.34 229.657 353.118 229.657ZM266.613 246.699C266.613 246.857 266.594 247.029 266.556 247.216H262.212C262.234 247.687 262.354 248.028 262.571 248.237C262.788 248.439 263.065 248.541 263.402 248.541C263.686 248.541 263.922 248.469 264.109 248.327C264.296 248.185 264.42 248.002 264.479 247.777H266.512C266.429 248.219 266.25 248.615 265.973 248.967C265.696 249.311 265.344 249.585 264.917 249.787C264.491 249.981 264.015 250.079 263.492 250.079C262.878 250.079 262.331 249.951 261.852 249.697C261.381 249.435 261.01 249.061 260.741 248.574C260.472 248.088 260.337 247.519 260.337 246.868C260.337 246.209 260.468 245.64 260.73 245.161C260.999 244.675 261.373 244.304 261.852 244.05C262.331 243.788 262.878 243.657 263.492 243.657C264.113 243.657 264.659 243.784 265.131 244.039C265.602 244.293 265.965 244.652 266.22 245.116C266.482 245.573 266.613 246.101 266.613 246.699ZM264.67 246.407C264.678 245.996 264.566 245.689 264.334 245.487C264.109 245.277 263.828 245.173 263.492 245.173C263.14 245.173 262.848 245.277 262.616 245.487C262.384 245.696 262.253 246.003 262.223 246.407H264.67ZM270.106 243.657C270.585 243.657 270.996 243.765 271.341 243.982C271.685 244.2 271.939 244.495 272.104 244.869V243.735H274.013V250H272.104V248.866C271.939 249.24 271.685 249.536 271.341 249.753C270.996 249.97 270.585 250.079 270.106 250.079C269.589 250.079 269.125 249.951 268.714 249.697C268.309 249.435 267.988 249.061 267.748 248.574C267.516 248.088 267.4 247.519 267.4 246.868C267.4 246.209 267.516 245.64 267.748 245.161C267.988 244.675 268.309 244.304 268.714 244.05C269.125 243.788 269.589 243.657 270.106 243.657ZM270.723 245.341C270.311 245.341 269.978 245.476 269.724 245.745C269.477 246.015 269.353 246.389 269.353 246.868C269.353 247.347 269.477 247.721 269.724 247.99C269.978 248.26 270.311 248.395 270.723 248.395C271.127 248.395 271.457 248.256 271.711 247.979C271.973 247.702 272.104 247.332 272.104 246.868C272.104 246.396 271.973 246.026 271.711 245.756C271.457 245.479 271.127 245.341 270.723 245.341ZM277.366 244.914C277.606 244.533 277.913 244.229 278.287 244.005C278.669 243.78 279.08 243.668 279.522 243.668V245.723H278.972C278.463 245.723 278.066 245.831 277.782 246.048C277.505 246.265 277.366 246.632 277.366 247.148V250H275.447V243.735H277.366V244.914ZM284.412 243.668C285.13 243.668 285.699 243.908 286.118 244.387C286.545 244.866 286.758 245.524 286.758 246.363V250H284.839V246.587C284.839 246.168 284.726 245.842 284.502 245.61C284.285 245.371 283.993 245.251 283.626 245.251C283.237 245.251 282.926 245.375 282.694 245.622C282.47 245.869 282.357 246.22 282.357 246.677V250H280.438V243.735H282.357V244.881C282.537 244.506 282.803 244.211 283.155 243.994C283.514 243.777 283.933 243.668 284.412 243.668ZM294.471 243.668C295.189 243.668 295.758 243.908 296.177 244.387C296.604 244.866 296.817 245.524 296.817 246.363V250H294.897V246.587C294.897 246.168 294.785 245.842 294.561 245.61C294.344 245.371 294.052 245.251 293.685 245.251C293.296 245.251 292.985 245.375 292.753 245.622C292.529 245.869 292.416 246.22 292.416 246.677V250H290.497V243.735H292.416V244.881C292.596 244.506 292.862 244.211 293.213 243.994C293.573 243.777 293.992 243.668 294.471 243.668ZM304.146 246.699C304.146 246.857 304.127 247.029 304.09 247.216H299.745C299.767 247.687 299.887 248.028 300.104 248.237C300.321 248.439 300.598 248.541 300.935 248.541C301.219 248.541 301.455 248.469 301.642 248.327C301.829 248.185 301.953 248.002 302.013 247.777H304.045C303.962 248.219 303.783 248.615 303.506 248.967C303.229 249.311 302.877 249.585 302.451 249.787C302.024 249.981 301.549 250.079 301.025 250.079C300.411 250.079 299.865 249.951 299.386 249.697C298.914 249.435 298.544 249.061 298.274 248.574C298.005 248.088 297.87 247.519 297.87 246.868C297.87 246.209 298.001 245.64 298.263 245.161C298.532 244.675 298.907 244.304 299.386 244.05C299.865 243.788 300.411 243.657 301.025 243.657C301.646 243.657 302.192 243.784 302.664 244.039C303.135 244.293 303.498 244.652 303.753 245.116C304.015 245.573 304.146 246.101 304.146 246.699ZM302.204 246.407C302.211 245.996 302.099 245.689 301.867 245.487C301.642 245.277 301.362 245.173 301.025 245.173C300.673 245.173 300.381 245.277 300.149 245.487C299.917 245.696 299.786 246.003 299.756 246.407H302.204ZM307.639 243.657C308.118 243.657 308.53 243.765 308.874 243.982C309.218 244.2 309.473 244.495 309.637 244.869V243.735H311.546V250H309.637V248.866C309.473 249.24 309.218 249.536 308.874 249.753C308.53 249.97 308.118 250.079 307.639 250.079C307.122 250.079 306.658 249.951 306.247 249.697C305.843 249.435 305.521 249.061 305.281 248.574C305.049 248.088 304.933 247.519 304.933 246.868C304.933 246.209 305.049 245.64 305.281 245.161C305.521 244.675 305.843 244.304 306.247 244.05C306.658 243.788 307.122 243.657 307.639 243.657ZM308.256 245.341C307.845 245.341 307.512 245.476 307.257 245.745C307.01 246.015 306.887 246.389 306.887 246.868C306.887 247.347 307.01 247.721 307.257 247.99C307.512 248.26 307.845 248.395 308.256 248.395C308.66 248.395 308.99 248.256 309.244 247.979C309.506 247.702 309.637 247.332 309.637 246.868C309.637 246.396 309.506 246.026 309.244 245.756C308.99 245.479 308.66 245.341 308.256 245.341ZM314.9 244.914C315.139 244.533 315.446 244.229 315.82 244.005C316.202 243.78 316.614 243.668 317.055 243.668V245.723H316.505C315.996 245.723 315.599 245.831 315.315 246.048C315.038 246.265 314.9 246.632 314.9 247.148V250H312.98V243.735H314.9V244.914ZM322.026 248.395H324.922V250H319.926V248.484L322.621 245.33H319.971V243.735H324.81V245.251L322.026 248.395ZM331.897 246.699C331.897 246.857 331.878 247.029 331.841 247.216H327.496C327.518 247.687 327.638 248.028 327.855 248.237C328.072 248.439 328.349 248.541 328.686 248.541C328.97 248.541 329.206 248.469 329.393 248.327C329.58 248.185 329.704 248.002 329.764 247.777H331.796C331.713 248.219 331.534 248.615 331.257 248.967C330.98 249.311 330.628 249.585 330.202 249.787C329.775 249.981 329.3 250.079 328.776 250.079C328.162 250.079 327.616 249.951 327.137 249.697C326.665 249.435 326.295 249.061 326.025 248.574C325.756 248.088 325.621 247.519 325.621 246.868C325.621 246.209 325.752 245.64 326.014 245.161C326.283 244.675 326.658 244.304 327.137 244.05C327.616 243.788 328.162 243.657 328.776 243.657C329.397 243.657 329.943 243.784 330.415 244.039C330.886 244.293 331.249 244.652 331.504 245.116C331.766 245.573 331.897 246.101 331.897 246.699ZM329.955 246.407C329.962 245.996 329.85 245.689 329.618 245.487C329.393 245.277 329.113 245.173 328.776 245.173C328.424 245.173 328.132 245.277 327.9 245.487C327.668 245.696 327.537 246.003 327.507 246.407H329.955ZM334.93 244.914C335.169 244.533 335.476 244.229 335.85 244.005C336.232 243.78 336.644 243.668 337.085 243.668V245.723H336.535C336.026 245.723 335.629 245.831 335.345 246.048C335.068 246.265 334.93 246.632 334.93 247.148V250H333.01V243.735H334.93V244.914ZM340.931 243.657C341.552 243.657 342.106 243.788 342.593 244.05C343.087 244.304 343.472 244.675 343.749 245.161C344.033 245.648 344.176 246.217 344.176 246.868C344.176 247.519 344.033 248.088 343.749 248.574C343.472 249.061 343.087 249.435 342.593 249.697C342.106 249.951 341.552 250.079 340.931 250.079C340.31 250.079 339.752 249.951 339.258 249.697C338.764 249.435 338.375 249.061 338.091 248.574C337.814 248.088 337.675 247.519 337.675 246.868C337.675 246.217 337.814 245.648 338.091 245.161C338.375 244.675 338.764 244.304 339.258 244.05C339.752 243.788 340.31 243.657 340.931 243.657ZM340.931 245.318C340.564 245.318 340.254 245.453 339.999 245.723C339.752 245.985 339.629 246.366 339.629 246.868C339.629 247.369 339.752 247.751 339.999 248.013C340.254 248.275 340.564 248.406 340.931 248.406C341.298 248.406 341.605 248.275 341.852 248.013C342.099 247.751 342.222 247.369 342.222 246.868C342.222 246.366 342.099 245.985 341.852 245.723C341.605 245.453 341.298 245.318 340.931 245.318Z" fill="white"/>
<path d="M323.582 351.59V353.251H326.265V354.699H323.582V356.462H326.602V358H321.662V350.063H326.602V351.59H323.582ZM330.185 351.657C330.664 351.657 331.075 351.765 331.42 351.982C331.764 352.2 332.018 352.495 332.183 352.869V351.735H334.092V358H332.183V356.866C332.018 357.24 331.764 357.536 331.42 357.753C331.075 357.97 330.664 358.079 330.185 358.079C329.668 358.079 329.204 357.951 328.793 357.697C328.388 357.435 328.067 357.061 327.827 356.574C327.595 356.088 327.479 355.519 327.479 354.868C327.479 354.209 327.595 353.64 327.827 353.161C328.067 352.675 328.388 352.304 328.793 352.05C329.204 351.788 329.668 351.657 330.185 351.657ZM330.802 353.341C330.391 353.341 330.057 353.476 329.803 353.745C329.556 354.015 329.432 354.389 329.432 354.868C329.432 355.347 329.556 355.721 329.803 355.99C330.057 356.26 330.391 356.395 330.802 356.395C331.206 356.395 331.536 356.256 331.79 355.979C332.052 355.702 332.183 355.332 332.183 354.868C332.183 354.396 332.052 354.026 331.79 353.756C331.536 353.479 331.206 353.341 330.802 353.341ZM337.445 352.914C337.685 352.533 337.992 352.229 338.366 352.005C338.748 351.78 339.159 351.668 339.601 351.668V353.723H339.051C338.542 353.723 338.145 353.831 337.861 354.048C337.584 354.265 337.445 354.632 337.445 355.148V358H335.526V351.735H337.445V352.914ZM342.436 349.692V358H340.517V349.692H342.436ZM345.322 351.735L346.827 355.575L348.23 351.735H350.352L346.445 360.986H344.334L345.805 357.764L343.178 351.735H345.322ZM326.58 371.552H323.605L323.111 373H321.09L323.998 365.119H326.209L329.117 373H327.074L326.58 371.552ZM326.086 370.092L325.098 367.173L324.099 370.092H326.086ZM331.895 367.914C332.135 367.533 332.442 367.229 332.816 367.005C333.197 366.78 333.609 366.668 334.051 366.668V368.723H333.501C332.992 368.723 332.595 368.831 332.311 369.048C332.034 369.265 331.895 369.632 331.895 370.148V373H329.975V366.735H331.895V367.914ZM336.886 367.914C337.126 367.533 337.433 367.229 337.807 367.005C338.189 366.78 338.6 366.668 339.042 366.668V368.723H338.492C337.983 368.723 337.586 368.831 337.302 369.048C337.025 369.265 336.886 369.632 336.886 370.148V373H334.966V366.735H336.886V367.914ZM339.778 364.973C339.778 364.681 339.883 364.441 340.092 364.254C340.302 364.06 340.579 363.962 340.923 363.962C341.267 363.962 341.544 364.06 341.754 364.254C341.963 364.441 342.068 364.681 342.068 364.973C342.068 365.257 341.963 365.497 341.754 365.691C341.544 365.879 341.267 365.972 340.923 365.972C340.579 365.972 340.302 365.879 340.092 365.691C339.883 365.497 339.778 365.257 339.778 364.973ZM341.877 366.735V373H339.958V366.735H341.877ZM346.212 371.125L347.57 366.735H349.613L347.39 373H345.01L342.787 366.735H344.831L346.212 371.125ZM350.341 364.973C350.341 364.681 350.446 364.441 350.655 364.254C350.865 364.06 351.142 363.962 351.486 363.962C351.831 363.962 352.107 364.06 352.317 364.254C352.527 364.441 352.631 364.681 352.631 364.973C352.631 365.257 352.527 365.497 352.317 365.691C352.107 365.879 351.831 365.972 351.486 365.972C351.142 365.972 350.865 365.879 350.655 365.691C350.446 365.497 350.341 365.257 350.341 364.973ZM352.441 366.735V373H350.521V366.735H352.441ZM357.853 366.668C358.571 366.668 359.14 366.908 359.559 367.387C359.986 367.866 360.199 368.524 360.199 369.363V373H358.279V369.587C358.279 369.168 358.167 368.842 357.942 368.61C357.725 368.371 357.433 368.251 357.067 368.251C356.677 368.251 356.367 368.375 356.135 368.622C355.91 368.869 355.798 369.22 355.798 369.677V373H353.878V366.735H355.798V367.881C355.978 367.506 356.243 367.211 356.595 366.994C356.954 366.777 357.374 366.668 357.853 366.668ZM363.957 366.657C364.436 366.657 364.848 366.765 365.192 366.982C365.537 367.2 365.791 367.495 365.956 367.869V366.735H367.864V372.966C367.864 373.55 367.752 374.074 367.527 374.538C367.303 375.01 366.959 375.384 366.495 375.661C366.031 375.938 365.454 376.076 364.766 376.076C363.823 376.076 363.067 375.852 362.498 375.403C361.937 374.961 361.6 374.358 361.488 373.595H363.385C363.445 373.849 363.579 374.048 363.789 374.19C364.006 374.332 364.287 374.403 364.631 374.403C365.028 374.403 365.346 374.287 365.585 374.055C365.832 373.831 365.956 373.468 365.956 372.966V371.866C365.791 372.24 365.537 372.536 365.192 372.753C364.848 372.97 364.436 373.079 363.957 373.079C363.441 373.079 362.977 372.951 362.565 372.697C362.161 372.435 361.839 372.061 361.6 371.574C361.368 371.088 361.252 370.519 361.252 369.868C361.252 369.209 361.368 368.64 361.6 368.161C361.839 367.675 362.161 367.304 362.565 367.05C362.977 366.788 363.441 366.657 363.957 366.657ZM364.575 368.341C364.163 368.341 363.83 368.476 363.576 368.745C363.329 369.015 363.205 369.389 363.205 369.868C363.205 370.347 363.329 370.721 363.576 370.99C363.83 371.26 364.163 371.395 364.575 371.395C364.979 371.395 365.308 371.256 365.563 370.979C365.825 370.702 365.956 370.332 365.956 369.868C365.956 369.396 365.825 369.026 365.563 368.756C365.308 368.479 364.979 368.341 364.575 368.341ZM332.451 380.063L330.554 388H328.174L326.905 382.69L325.625 388H323.245L321.348 380.063H323.436L324.458 385.811L325.85 380.063H327.949L329.341 385.811L330.374 380.063H332.451ZM333.392 379.973C333.392 379.681 333.497 379.441 333.706 379.254C333.916 379.06 334.193 378.962 334.537 378.962C334.881 378.962 335.158 379.06 335.368 379.254C335.577 379.441 335.682 379.681 335.682 379.973C335.682 380.257 335.577 380.497 335.368 380.691C335.158 380.879 334.881 380.972 334.537 380.972C334.193 380.972 333.916 380.879 333.706 380.691C333.497 380.497 333.392 380.257 333.392 379.973ZM335.491 381.735V388H333.571V381.735H335.491ZM338.849 382.914C339.088 382.533 339.395 382.229 339.769 382.005C340.151 381.78 340.563 381.668 341.004 381.668V383.723H340.454C339.945 383.723 339.549 383.831 339.264 384.048C338.987 384.265 338.849 384.632 338.849 385.148V388H336.929V381.735H338.849V382.914ZM347.87 384.699C347.87 384.857 347.851 385.029 347.814 385.216H343.469C343.492 385.687 343.612 386.028 343.829 386.237C344.046 386.439 344.323 386.541 344.659 386.541C344.944 386.541 345.18 386.469 345.367 386.327C345.554 386.185 345.677 386.002 345.737 385.777H347.769C347.687 386.219 347.507 386.615 347.23 386.967C346.953 387.311 346.602 387.585 346.175 387.787C345.748 387.981 345.273 388.079 344.749 388.079C344.135 388.079 343.589 387.951 343.11 387.697C342.639 387.435 342.268 387.061 341.999 386.574C341.729 386.088 341.594 385.519 341.594 384.868C341.594 384.209 341.725 383.64 341.987 383.161C342.257 382.675 342.631 382.304 343.11 382.05C343.589 381.788 344.135 381.657 344.749 381.657C345.37 381.657 345.917 381.784 346.388 382.039C346.86 382.293 347.223 382.652 347.477 383.116C347.739 383.573 347.87 384.101 347.87 384.699ZM345.928 384.407C345.935 383.996 345.823 383.689 345.591 383.487C345.367 383.277 345.086 383.173 344.749 383.173C344.397 383.173 344.106 383.277 343.873 383.487C343.641 383.696 343.51 384.003 343.481 384.407H345.928Z" fill="white"/>
<path opacity="0.3" d="M185.5 344.5H312.5V478.5" stroke="white" stroke-width="1.37106" stroke-dasharray="6.86 6.86"/>
<path d="M343.246 433.337C358.012 460.339 354.087 488.588 336.025 498.466C317.962 508.343 292.602 496.108 277.836 469.106C263.07 442.104 268.108 414.232 286.171 404.355C304.233 394.477 328.481 406.335 343.246 433.337Z" fill="#D1383E"/>
<ellipse cx="307.361" cy="454.024" rx="31.8793" ry="50.6329" transform="rotate(-28.6714 307.361 454.024)" fill="#B71C22"/>
<path d="M318.963 440.739L308.312 446.905L296.204 427.622L290.711 431.434L301.249 450.268L289.702 457.107L296.204 467.869L307.079 460.582L318.963 480.425L325.016 476.838L313.917 457.107L325.016 450.268L318.963 440.739Z" fill="white"/>
<defs>
<filter id="filter0_ddd1" x="221.588" y="298.25" width="98.0289" height="101.894" filterUnits="userSpaceOnUse" color-interpolation-filters="sRGB">
<feFlood flood-opacity="0" result="BackgroundImageFix"/>
<feColorMatrix in="SourceAlpha" type="matrix" values="0 0 0 0 0 0 0 0 0 0 0 0 0 0 0 0 0 0 127 0"/>
<feMorphology radius="4.98966" operator="dilate" in="SourceAlpha" result="effect1_dropShadow"/>
<feOffset dy="14.3453"/>
<feGaussianBlur stdDeviation="9.3556"/>
<feColorMatrix type="matrix" values="0 0 0 0 0 0 0 0 0 0.0876457 0 0 0 0 0.391667 0 0 0 0.05 0"/>
<feBlend mode="normal" in2="BackgroundImageFix" result="effect1_dropShadow"/>
<feColorMatrix in="SourceAlpha" type="matrix" values="0 0 0 0 0 0 0 0 0 0 0 0 0 0 0 0 0 0 127 0"/>
<feOffset dy="29.3142"/>
<feGaussianBlur stdDeviation="1.87112"/>
<feColorMatrix type="matrix" values="0 0 0 0 0.121569 0 0 0 0 0.247059 0 0 0 0 0.682353 0 0 0 0.02 0"/>
<feBlend mode="normal" in2="effect1_dropShadow" result="effect2_dropShadow"/>
<feColorMatrix in="SourceAlpha" type="matrix" values="0 0 0 0 0 0 0 0 0 0 0 0 0 0 0 0 0 0 127 0"/>
<feOffset dy="35.5513"/>
<feGaussianBlur stdDeviation="6.23707"/>
<feColorMatrix type="matrix" values="0 0 0 0 0.121569 0 0 0 0 0.247059 0 0 0 0 0.682353 0 0 0 0.02 0"/>
<feBlend mode="normal" in2="effect2_dropShadow" result="effect3_dropShadow"/>
<feBlend mode="normal" in="SourceGraphic" in2="effect3_dropShadow" result="shape"/>
</filter>
<filter id="filter1_ddd1" x="114.532" y="0.0369587" width="146.29" height="159.614" filterUnits="userSpaceOnUse" color-interpolation-filters="sRGB">
<feFlood flood-opacity="0" result="BackgroundImageFix"/>
<feColorMatrix in="SourceAlpha" type="matrix" values="0 0 0 0 0 0 0 0 0 0 0 0 0 0 0 0 0 0 127 0"/>
<feMorphology radius="4.98966" operator="dilate" in="SourceAlpha" result="effect1_dropShadow"/>
<feOffset dy="14.3453"/>
<feGaussianBlur stdDeviation="9.3556"/>
<feColorMatrix type="matrix" values="0 0 0 0 0 0 0 0 0 0.0876457 0 0 0 0 0.391667 0 0 0 0.05 0"/>
<feBlend mode="normal" in2="BackgroundImageFix" result="effect1_dropShadow"/>
<feColorMatrix in="SourceAlpha" type="matrix" values="0 0 0 0 0 0 0 0 0 0 0 0 0 0 0 0 0 0 127 0"/>
<feOffset dy="29.3142"/>
<feGaussianBlur stdDeviation="1.87112"/>
<feColorMatrix type="matrix" values="0 0 0 0 0.121569 0 0 0 0 0.247059 0 0 0 0 0.682353 0 0 0 0.02 0"/>
<feBlend mode="normal" in2="effect1_dropShadow" result="effect2_dropShadow"/>
<feColorMatrix in="SourceAlpha" type="matrix" values="0 0 0 0 0 0 0 0 0 0 0 0 0 0 0 0 0 0 127 0"/>
<feOffset dy="35.5513"/>
<feGaussianBlur stdDeviation="6.23707"/>
<feColorMatrix type="matrix" values="0 0 0 0 0.121569 0 0 0 0 0.247059 0 0 0 0 0.682353 0 0 0 0.02 0"/>
<feBlend mode="normal" in2="effect2_dropShadow" result="effect3_dropShadow"/>
<feBlend mode="normal" in="SourceGraphic" in2="effect3_dropShadow" result="shape"/>
</filter>
<filter id="filter2_ddd1" x="114.532" y="143.853" width="146.29" height="159.614" filterUnits="userSpaceOnUse" color-interpolation-filters="sRGB">
<feFlood flood-opacity="0" result="BackgroundImageFix"/>
<feColorMatrix in="SourceAlpha" type="matrix" values="0 0 0 0 0 0 0 0 0 0 0 0 0 0 0 0 0 0 127 0"/>
<feMorphology radius="4.98966" operator="dilate" in="SourceAlpha" result="effect1_dropShadow"/>
<feOffset dy="14.3453"/>
<feGaussianBlur stdDeviation="9.3556"/>
<feColorMatrix type="matrix" values="0 0 0 0 0 0 0 0 0 0.0876457 0 0 0 0 0.391667 0 0 0 0.05 0"/>
<feBlend mode="normal" in2="BackgroundImageFix" result="effect1_dropShadow"/>
<feColorMatrix in="SourceAlpha" type="matrix" values="0 0 0 0 0 0 0 0 0 0 0 0 0 0 0 0 0 0 127 0"/>
<feOffset dy="29.3142"/>
<feGaussianBlur stdDeviation="1.87112"/>
<feColorMatrix type="matrix" values="0 0 0 0 0.121569 0 0 0 0 0.247059 0 0 0 0 0.682353 0 0 0 0.02 0"/>
<feBlend mode="normal" in2="effect1_dropShadow" result="effect2_dropShadow"/>
<feColorMatrix in="SourceAlpha" type="matrix" values="0 0 0 0 0 0 0 0 0 0 0 0 0 0 0 0 0 0 127 0"/>
<feOffset dy="35.5513"/>
<feGaussianBlur stdDeviation="6.23707"/>
<feColorMatrix type="matrix" values="0 0 0 0 0.121569 0 0 0 0 0.247059 0 0 0 0 0.682353 0 0 0 0.02 0"/>
<feBlend mode="normal" in2="effect2_dropShadow" result="effect3_dropShadow"/>
<feBlend mode="normal" in="SourceGraphic" in2="effect3_dropShadow" result="shape"/>
</filter>
<filter id="filter3_ddd1" x="-5.02508" y="255.665" width="125.779" height="126.428" filterUnits="userSpaceOnUse" color-interpolation-filters="sRGB">
<feFlood flood-opacity="0" result="BackgroundImageFix"/>
<feColorMatrix in="SourceAlpha" type="matrix" values="0 0 0 0 0 0 0 0 0 0 0 0 0 0 0 0 0 0 127 0"/>
<feMorphology radius="4.98966" operator="dilate" in="SourceAlpha" result="effect1_dropShadow"/>
<feOffset dy="14.3453"/>
<feGaussianBlur stdDeviation="9.3556"/>
<feColorMatrix type="matrix" values="0 0 0 0 0 0 0 0 0 0.0876457 0 0 0 0 0.391667 0 0 0 0.05 0"/>
<feBlend mode="normal" in2="BackgroundImageFix" result="effect1_dropShadow"/>
<feColorMatrix in="SourceAlpha" type="matrix" values="0 0 0 0 0 0 0 0 0 0 0 0 0 0 0 0 0 0 127 0"/>
<feOffset dy="29.3142"/>
<feGaussianBlur stdDeviation="1.87112"/>
<feColorMatrix type="matrix" values="0 0 0 0 0.121569 0 0 0 0 0.247059 0 0 0 0 0.682353 0 0 0 0.02 0"/>
<feBlend mode="normal" in2="effect1_dropShadow" result="effect2_dropShadow"/>
<feColorMatrix in="SourceAlpha" type="matrix" values="0 0 0 0 0 0 0 0 0 0 0 0 0 0 0 0 0 0 127 0"/>
<feOffset dy="35.5513"/>
<feGaussianBlur stdDeviation="6.23707"/>
<feColorMatrix type="matrix" values="0 0 0 0 0.121569 0 0 0 0 0.247059 0 0 0 0 0.682353 0 0 0 0.02 0"/>
<feBlend mode="normal" in2="effect2_dropShadow" result="effect3_dropShadow"/>
<feBlend mode="normal" in="SourceGraphic" in2="effect3_dropShadow" result="shape"/>
</filter>
<filter id="filter4_ddd1" x="124.788" y="299.755" width="125.779" height="126.428" filterUnits="userSpaceOnUse" color-interpolation-filters="sRGB">
<feFlood flood-opacity="0" result="BackgroundImageFix"/>
<feColorMatrix in="SourceAlpha" type="matrix" values="0 0 0 0 0 0 0 0 0 0 0 0 0 0 0 0 0 0 127 0"/>
<feMorphology radius="4.98966" operator="dilate" in="SourceAlpha" result="effect1_dropShadow"/>
<feOffset dy="14.3453"/>
<feGaussianBlur stdDeviation="9.3556"/>
<feColorMatrix type="matrix" values="0 0 0 0 0 0 0 0 0 0.0876457 0 0 0 0 0.391667 0 0 0 0.05 0"/>
<feBlend mode="normal" in2="BackgroundImageFix" result="effect1_dropShadow"/>
<feColorMatrix in="SourceAlpha" type="matrix" values="0 0 0 0 0 0 0 0 0 0 0 0 0 0 0 0 0 0 127 0"/>
<feOffset dy="29.3142"/>
<feGaussianBlur stdDeviation="1.87112"/>
<feColorMatrix type="matrix" values="0 0 0 0 0.121569 0 0 0 0 0.247059 0 0 0 0 0.682353 0 0 0 0.02 0"/>
<feBlend mode="normal" in2="effect1_dropShadow" result="effect2_dropShadow"/>
<feColorMatrix in="SourceAlpha" type="matrix" values="0 0 0 0 0 0 0 0 0 0 0 0 0 0 0 0 0 0 127 0"/>
<feOffset dy="35.5513"/>
<feGaussianBlur stdDeviation="6.23707"/>
<feColorMatrix type="matrix" values="0 0 0 0 0.121569 0 0 0 0 0.247059 0 0 0 0 0.682353 0 0 0 0.02 0"/>
<feBlend mode="normal" in2="effect2_dropShadow" result="effect3_dropShadow"/>
<feBlend mode="normal" in="SourceGraphic" in2="effect3_dropShadow" result="shape"/>
</filter>
<filter id="filter5_ddd1" x="-5.02411" y="92.6135" width="125.779" height="126.428" filterUnits="userSpaceOnUse" color-interpolation-filters="sRGB">
<feFlood flood-opacity="0" result="BackgroundImageFix"/>
<feColorMatrix in="SourceAlpha" type="matrix" values="0 0 0 0 0 0 0 0 0 0 0 0 0 0 0 0 0 0 127 0"/>
<feMorphology radius="4.98966" operator="dilate" in="SourceAlpha" result="effect1_dropShadow"/>
<feOffset dy="14.3453"/>
<feGaussianBlur stdDeviation="9.3556"/>
<feColorMatrix type="matrix" values="0 0 0 0 0 0 0 0 0 0.0876457 0 0 0 0 0.391667 0 0 0 0.05 0"/>
<feBlend mode="normal" in2="BackgroundImageFix" result="effect1_dropShadow"/>
<feColorMatrix in="SourceAlpha" type="matrix" values="0 0 0 0 0 0 0 0 0 0 0 0 0 0 0 0 0 0 127 0"/>
<feOffset dy="29.3142"/>
<feGaussianBlur stdDeviation="1.87112"/>
<feColorMatrix type="matrix" values="0 0 0 0 0.121569 0 0 0 0 0.247059 0 0 0 0 0.682353 0 0 0 0.02 0"/>
<feBlend mode="normal" in2="effect1_dropShadow" result="effect2_dropShadow"/>
<feColorMatrix in="SourceAlpha" type="matrix" values="0 0 0 0 0 0 0 0 0 0 0 0 0 0 0 0 0 0 127 0"/>
<feOffset dy="35.5513"/>
<feGaussianBlur stdDeviation="6.23707"/>
<feColorMatrix type="matrix" values="0 0 0 0 0.121569 0 0 0 0 0.247059 0 0 0 0 0.682353 0 0 0 0.02 0"/>
<feBlend mode="normal" in2="effect2_dropShadow" result="effect3_dropShadow"/>
<feBlend mode="normal" in="SourceGraphic" in2="effect3_dropShadow" result="shape"/>
</filter>
<filter id="filter6_ddd1" x="182.862" y="44.2785" width="111.265" height="123.482" filterUnits="userSpaceOnUse" color-interpolation-filters="sRGB">
<feFlood flood-opacity="0" result="BackgroundImageFix"/>
<feColorMatrix in="SourceAlpha" type="matrix" values="0 0 0 0 0 0 0 0 0 0 0 0 0 0 0 0 0 0 127 0"/>
<feMorphology radius="4.98966" operator="dilate" in="SourceAlpha" result="effect1_dropShadow"/>
<feOffset dy="14.3453"/>
<feGaussianBlur stdDeviation="9.3556"/>
<feColorMatrix type="matrix" values="0 0 0 0 0 0 0 0 0 0.0876457 0 0 0 0 0.391667 0 0 0 0.05 0"/>
<feBlend mode="normal" in2="BackgroundImageFix" result="effect1_dropShadow"/>
<feColorMatrix in="SourceAlpha" type="matrix" values="0 0 0 0 0 0 0 0 0 0 0 0 0 0 0 0 0 0 127 0"/>
<feOffset dy="29.3142"/>
<feGaussianBlur stdDeviation="1.87112"/>
<feColorMatrix type="matrix" values="0 0 0 0 0.121569 0 0 0 0 0.247059 0 0 0 0 0.682353 0 0 0 0.02 0"/>
<feBlend mode="normal" in2="effect1_dropShadow" result="effect2_dropShadow"/>
<feColorMatrix in="SourceAlpha" type="matrix" values="0 0 0 0 0 0 0 0 0 0 0 0 0 0 0 0 0 0 127 0"/>
<feOffset dy="35.5513"/>
<feGaussianBlur stdDeviation="6.23707"/>
<feColorMatrix type="matrix" values="0 0 0 0 0.121569 0 0 0 0 0.247059 0 0 0 0 0.682353 0 0 0 0.02 0"/>
<feBlend mode="normal" in2="effect2_dropShadow" result="effect3_dropShadow"/>
<feBlend mode="normal" in="SourceGraphic" in2="effect3_dropShadow" result="shape"/>
</filter>
<filter id="filter7_ddd1" x="8.85089" y="211.391" width="98.0289" height="101.894" filterUnits="userSpaceOnUse" color-interpolation-filters="sRGB">
<feFlood flood-opacity="0" result="BackgroundImageFix"/>
<feColorMatrix in="SourceAlpha" type="matrix" values="0 0 0 0 0 0 0 0 0 0 0 0 0 0 0 0 0 0 127 0"/>
<feMorphology radius="4.98966" operator="dilate" in="SourceAlpha" result="effect1_dropShadow"/>
<feOffset dy="14.3453"/>
<feGaussianBlur stdDeviation="9.3556"/>
<feColorMatrix type="matrix" values="0 0 0 0 0 0 0 0 0 0.0876457 0 0 0 0 0.391667 0 0 0 0.05 0"/>
<feBlend mode="normal" in2="BackgroundImageFix" result="effect1_dropShadow"/>
<feColorMatrix in="SourceAlpha" type="matrix" values="0 0 0 0 0 0 0 0 0 0 0 0 0 0 0 0 0 0 127 0"/>
<feOffset dy="29.3142"/>
<feGaussianBlur stdDeviation="1.87112"/>
<feColorMatrix type="matrix" values="0 0 0 0 0.121569 0 0 0 0 0.247059 0 0 0 0 0.682353 0 0 0 0.02 0"/>
<feBlend mode="normal" in2="effect1_dropShadow" result="effect2_dropShadow"/>
<feColorMatrix in="SourceAlpha" type="matrix" values="0 0 0 0 0 0 0 0 0 0 0 0 0 0 0 0 0 0 127 0"/>
<feOffset dy="35.5513"/>
<feGaussianBlur stdDeviation="6.23707"/>
<feColorMatrix type="matrix" values="0 0 0 0 0.121569 0 0 0 0 0.247059 0 0 0 0 0.682353 0 0 0 0.02 0"/>
<feBlend mode="normal" in2="effect2_dropShadow" result="effect3_dropShadow"/>
<feBlend mode="normal" in="SourceGraphic" in2="effect3_dropShadow" result="shape"/>
</filter>
<filter id="filter8_ddd1" x="81.721" y="274.199" width="111.265" height="123.482" filterUnits="userSpaceOnUse" color-interpolation-filters="sRGB">
<feFlood flood-opacity="0" result="BackgroundImageFix"/>
<feColorMatrix in="SourceAlpha" type="matrix" values="0 0 0 0 0 0 0 0 0 0 0 0 0 0 0 0 0 0 127 0"/>
<feMorphology radius="4.98966" operator="dilate" in="SourceAlpha" result="effect1_dropShadow"/>
<feOffset dy="14.3453"/>
<feGaussianBlur stdDeviation="9.3556"/>
<feColorMatrix type="matrix" values="0 0 0 0 0 0 0 0 0 0.0876457 0 0 0 0 0.391667 0 0 0 0.05 0"/>
<feBlend mode="normal" in2="BackgroundImageFix" result="effect1_dropShadow"/>
<feColorMatrix in="SourceAlpha" type="matrix" values="0 0 0 0 0 0 0 0 0 0 0 0 0 0 0 0 0 0 127 0"/>
<feOffset dy="29.3142"/>
<feGaussianBlur stdDeviation="1.87112"/>
<feColorMatrix type="matrix" values="0 0 0 0 0.121569 0 0 0 0 0.247059 0 0 0 0 0.682353 0 0 0 0.02 0"/>
<feBlend mode="normal" in2="effect1_dropShadow" result="effect2_dropShadow"/>
<feColorMatrix in="SourceAlpha" type="matrix" values="0 0 0 0 0 0 0 0 0 0 0 0 0 0 0 0 0 0 127 0"/>
<feOffset dy="35.5513"/>
<feGaussianBlur stdDeviation="6.23707"/>
<feColorMatrix type="matrix" values="0 0 0 0 0.121569 0 0 0 0 0.247059 0 0 0 0 0.682353 0 0 0 0.02 0"/>
<feBlend mode="normal" in2="effect2_dropShadow" result="effect3_dropShadow"/>
<feBlend mode="normal" in="SourceGraphic" in2="effect3_dropShadow" result="shape"/>
</filter>
<filter id="filter9_ddd1" x="268.474" y="161.92" width="98.0289" height="101.894" filterUnits="userSpaceOnUse" color-interpolation-filters="sRGB">
<feFlood flood-opacity="0" result="BackgroundImageFix"/>
<feColorMatrix in="SourceAlpha" type="matrix" values="0 0 0 0 0 0 0 0 0 0 0 0 0 0 0 0 0 0 127 0"/>
<feMorphology radius="4.98966" operator="dilate" in="SourceAlpha" result="effect1_dropShadow"/>
<feOffset dy="14.3453"/>
<feGaussianBlur stdDeviation="9.3556"/>
<feColorMatrix type="matrix" values="0 0 0 0 0 0 0 0 0 0.0876457 0 0 0 0 0.391667 0 0 0 0.05 0"/>
<feBlend mode="normal" in2="BackgroundImageFix" result="effect1_dropShadow"/>
<feColorMatrix in="SourceAlpha" type="matrix" values="0 0 0 0 0 0 0 0 0 0 0 0 0 0 0 0 0 0 127 0"/>
<feOffset dy="29.3142"/>
<feGaussianBlur stdDeviation="1.87112"/>
<feColorMatrix type="matrix" values="0 0 0 0 0.121569 0 0 0 0 0.247059 0 0 0 0 0.682353 0 0 0 0.02 0"/>
<feBlend mode="normal" in2="effect1_dropShadow" result="effect2_dropShadow"/>
<feColorMatrix in="SourceAlpha" type="matrix" values="0 0 0 0 0 0 0 0 0 0 0 0 0 0 0 0 0 0 127 0"/>
<feOffset dy="35.5513"/>
<feGaussianBlur stdDeviation="6.23707"/>
<feColorMatrix type="matrix" values="0 0 0 0 0.121569 0 0 0 0 0.247059 0 0 0 0 0.682353 0 0 0 0.02 0"/>
<feBlend mode="normal" in2="effect2_dropShadow" result="effect3_dropShadow"/>
<feBlend mode="normal" in="SourceGraphic" in2="effect3_dropShadow" result="shape"/>
</filter>
<filter id="filter10_ddd1" x="254.599" y="92.613" width="125.779" height="126.428" filterUnits="userSpaceOnUse" color-interpolation-filters="sRGB">
<feFlood flood-opacity="0" result="BackgroundImageFix"/>
<feColorMatrix in="SourceAlpha" type="matrix" values="0 0 0 0 0 0 0 0 0 0 0 0 0 0 0 0 0 0 127 0"/>
<feMorphology radius="4.98966" operator="dilate" in="SourceAlpha" result="effect1_dropShadow"/>
<feOffset dy="14.3453"/>
<feGaussianBlur stdDeviation="9.3556"/>
<feColorMatrix type="matrix" values="0 0 0 0 0 0 0 0 0 0.0876457 0 0 0 0 0.391667 0 0 0 0.05 0"/>
<feBlend mode="normal" in2="BackgroundImageFix" result="effect1_dropShadow"/>
<feColorMatrix in="SourceAlpha" type="matrix" values="0 0 0 0 0 0 0 0 0 0 0 0 0 0 0 0 0 0 127 0"/>
<feOffset dy="29.3142"/>
<feGaussianBlur stdDeviation="1.87112"/>
<feColorMatrix type="matrix" values="0 0 0 0 0.121569 0 0 0 0 0.247059 0 0 0 0 0.682353 0 0 0 0.02 0"/>
<feBlend mode="normal" in2="effect1_dropShadow" result="effect2_dropShadow"/>
<feColorMatrix in="SourceAlpha" type="matrix" values="0 0 0 0 0 0 0 0 0 0 0 0 0 0 0 0 0 0 127 0"/>
<feOffset dy="35.5513"/>
<feGaussianBlur stdDeviation="6.23707"/>
<feColorMatrix type="matrix" values="0 0 0 0 0.121569 0 0 0 0 0.247059 0 0 0 0 0.682353 0 0 0 0.02 0"/>
<feBlend mode="normal" in2="effect2_dropShadow" result="effect3_dropShadow"/>
<feBlend mode="normal" in="SourceGraphic" in2="effect3_dropShadow" result="shape"/>
</filter>
<filter id="filter11_ddd1" x="256.471" y="255.664" width="125.779" height="126.428" filterUnits="userSpaceOnUse" color-interpolation-filters="sRGB">
<feFlood flood-opacity="0" result="BackgroundImageFix"/>
<feColorMatrix in="SourceAlpha" type="matrix" values="0 0 0 0 0 0 0 0 0 0 0 0 0 0 0 0 0 0 127 0"/>
<feMorphology radius="4.98966" operator="dilate" in="SourceAlpha" result="effect1_dropShadow"/>
<feOffset dy="14.3453"/>
<feGaussianBlur stdDeviation="9.3556"/>
<feColorMatrix type="matrix" values="0 0 0 0 0 0 0 0 0 0.0876457 0 0 0 0 0.391667 0 0 0 0.05 0"/>
<feBlend mode="normal" in2="BackgroundImageFix" result="effect1_dropShadow"/>
<feColorMatrix in="SourceAlpha" type="matrix" values="0 0 0 0 0 0 0 0 0 0 0 0 0 0 0 0 0 0 127 0"/>
<feOffset dy="29.3142"/>
<feGaussianBlur stdDeviation="1.87112"/>
<feColorMatrix type="matrix" values="0 0 0 0 0.121569 0 0 0 0 0.247059 0 0 0 0 0.682353 0 0 0 0.02 0"/>
<feBlend mode="normal" in2="effect1_dropShadow" result="effect2_dropShadow"/>
<feColorMatrix in="SourceAlpha" type="matrix" values="0 0 0 0 0 0 0 0 0 0 0 0 0 0 0 0 0 0 127 0"/>
<feOffset dy="35.5513"/>
<feGaussianBlur stdDeviation="6.23707"/>
<feColorMatrix type="matrix" values="0 0 0 0 0.121569 0 0 0 0 0.247059 0 0 0 0 0.682353 0 0 0 0.02 0"/>
<feBlend mode="normal" in2="effect2_dropShadow" result="effect3_dropShadow"/>
<feBlend mode="normal" in="SourceGraphic" in2="effect3_dropShadow" result="shape"/>
</filter>
<linearGradient id="paint0_linear1" x1="222.2" y1="80.4411" x2="168.304" y2="94.0631" gradientUnits="userSpaceOnUse">
<stop stop-color="#0B53DE"/>
<stop offset="1" stop-color="#3DD7D9"/>
</linearGradient>
<linearGradient id="paint1_linear1" x1="222.2" y1="224.257" x2="168.304" y2="237.879" gradientUnits="userSpaceOnUse">
<stop stop-color="#0B53DE"/>
<stop offset="1" stop-color="#3DD7D9"/>
</linearGradient>
<linearGradient id="paint2_linear1" x1="304.39" y1="297.049" x2="334.328" y2="297.049" gradientUnits="userSpaceOnUse">
<stop stop-color="#16D9E3"/>
<stop offset="0.47" stop-color="#30C7EC"/>
<stop offset="1" stop-color="#46AEF7"/>
</linearGradient>
<linearGradient id="paint3_linear1" x1="304.39" y1="297.049" x2="334.328" y2="297.049" gradientUnits="userSpaceOnUse">
<stop stop-color="#16D9E3"/>
<stop offset="0.47" stop-color="#30C7EC"/>
<stop offset="1" stop-color="#46AEF7"/>
</linearGradient>
<linearGradient id="paint4_linear1" x1="304.39" y1="297.049" x2="334.328" y2="297.049" gradientUnits="userSpaceOnUse">
<stop stop-color="#16D9E3"/>
<stop offset="0.47" stop-color="#30C7EC"/>
<stop offset="1" stop-color="#46AEF7"/>
</linearGradient>
<linearGradient id="paint5_linear1" x1="304.39" y1="297.049" x2="334.328" y2="297.049" gradientUnits="userSpaceOnUse">
<stop stop-color="#16D9E3"/>
<stop offset="0.47" stop-color="#30C7EC"/>
<stop offset="1" stop-color="#46AEF7"/>
</linearGradient>
<linearGradient id="paint6_linear1" x1="304.39" y1="297.049" x2="334.328" y2="297.049" gradientUnits="userSpaceOnUse">
<stop stop-color="#16D9E3"/>
<stop offset="0.47" stop-color="#30C7EC"/>
<stop offset="1" stop-color="#46AEF7"/>
</linearGradient>
<linearGradient id="paint7_linear1" x1="304.39" y1="297.049" x2="334.328" y2="297.049" gradientUnits="userSpaceOnUse">
<stop stop-color="#16D9E3"/>
<stop offset="0.47" stop-color="#30C7EC"/>
<stop offset="1" stop-color="#46AEF7"/>
</linearGradient>
<linearGradient id="paint8_linear1" x1="304.39" y1="297.049" x2="334.328" y2="297.049" gradientUnits="userSpaceOnUse">
<stop stop-color="#16D9E3"/>
<stop offset="0.47" stop-color="#30C7EC"/>
<stop offset="1" stop-color="#46AEF7"/>
</linearGradient>
<linearGradient id="paint9_linear1" x1="42.8965" y1="133.998" x2="72.8344" y2="133.998" gradientUnits="userSpaceOnUse">
<stop stop-color="#89F7FE"/>
<stop offset="1" stop-color="#66A6FF"/>
</linearGradient>
<linearGradient id="paint10_linear1" x1="42.8965" y1="133.998" x2="72.8344" y2="133.998" gradientUnits="userSpaceOnUse">
<stop stop-color="#89F7FE"/>
<stop offset="1" stop-color="#66A6FF"/>
</linearGradient>
<linearGradient id="paint11_linear1" x1="42.8965" y1="133.998" x2="72.8344" y2="133.998" gradientUnits="userSpaceOnUse">
<stop stop-color="#89F7FE"/>
<stop offset="1" stop-color="#66A6FF"/>
</linearGradient>
<linearGradient id="paint12_linear1" x1="42.8965" y1="133.998" x2="72.8344" y2="133.998" gradientUnits="userSpaceOnUse">
<stop stop-color="#89F7FE"/>
<stop offset="1" stop-color="#66A6FF"/>
</linearGradient>
<linearGradient id="paint13_linear1" x1="42.8965" y1="133.998" x2="72.8344" y2="133.998" gradientUnits="userSpaceOnUse">
<stop stop-color="#89F7FE"/>
<stop offset="1" stop-color="#66A6FF"/>
</linearGradient>
<linearGradient id="paint14_linear1" x1="42.8965" y1="133.998" x2="72.8344" y2="133.998" gradientUnits="userSpaceOnUse">
<stop stop-color="#89F7FE"/>
<stop offset="1" stop-color="#66A6FF"/>
</linearGradient>
<linearGradient id="paint15_linear1" x1="42.8965" y1="133.998" x2="72.8344" y2="133.998" gradientUnits="userSpaceOnUse">
<stop stop-color="#89F7FE"/>
<stop offset="1" stop-color="#66A6FF"/>
</linearGradient>
<linearGradient id="paint16_linear1" x1="302.521" y1="133.998" x2="332.458" y2="133.998" gradientUnits="userSpaceOnUse">
<stop stop-color="#E0C3FC"/>
<stop offset="1" stop-color="#8EC5FC"/>
</linearGradient>
<linearGradient id="paint17_linear1" x1="302.521" y1="133.998" x2="332.458" y2="133.998" gradientUnits="userSpaceOnUse">
<stop stop-color="#E0C3FC"/>
<stop offset="1" stop-color="#8EC5FC"/>
</linearGradient>
<linearGradient id="paint18_linear1" x1="302.521" y1="133.998" x2="332.458" y2="133.998" gradientUnits="userSpaceOnUse">
<stop stop-color="#E0C3FC"/>
<stop offset="1" stop-color="#8EC5FC"/>
</linearGradient>
<linearGradient id="paint19_linear1" x1="302.521" y1="133.998" x2="332.458" y2="133.998" gradientUnits="userSpaceOnUse">
<stop stop-color="#E0C3FC"/>
<stop offset="1" stop-color="#8EC5FC"/>
</linearGradient>
<linearGradient id="paint20_linear1" x1="302.521" y1="133.998" x2="332.458" y2="133.998" gradientUnits="userSpaceOnUse">
<stop stop-color="#E0C3FC"/>
<stop offset="1" stop-color="#8EC5FC"/>
</linearGradient>
<linearGradient id="paint21_linear1" x1="302.521" y1="133.998" x2="332.458" y2="133.998" gradientUnits="userSpaceOnUse">
<stop stop-color="#E0C3FC"/>
<stop offset="1" stop-color="#8EC5FC"/>
</linearGradient>
<linearGradient id="paint22_linear1" x1="302.521" y1="133.998" x2="332.458" y2="133.998" gradientUnits="userSpaceOnUse">
<stop stop-color="#E0C3FC"/>
<stop offset="1" stop-color="#8EC5FC"/>
</linearGradient>
<linearGradient id="paint23_linear1" x1="42.8965" y1="297.049" x2="72.8344" y2="297.049" gradientUnits="userSpaceOnUse">
<stop stop-color="#2AF598"/>
<stop offset="1" stop-color="#009EFD"/>
</linearGradient>
<linearGradient id="paint24_linear1" x1="42.8965" y1="297.049" x2="72.8344" y2="297.049" gradientUnits="userSpaceOnUse">
<stop stop-color="#2AF598"/>
<stop offset="1" stop-color="#009EFD"/>
</linearGradient>
<linearGradient id="paint25_linear1" x1="42.8965" y1="297.049" x2="72.8344" y2="297.049" gradientUnits="userSpaceOnUse">
<stop stop-color="#2AF598"/>
<stop offset="1" stop-color="#009EFD"/>
</linearGradient>
<linearGradient id="paint26_linear1" x1="42.8965" y1="297.049" x2="72.8344" y2="297.049" gradientUnits="userSpaceOnUse">
<stop stop-color="#2AF598"/>
<stop offset="1" stop-color="#009EFD"/>
</linearGradient>
<linearGradient id="paint27_linear1" x1="42.8965" y1="297.049" x2="72.8344" y2="297.049" gradientUnits="userSpaceOnUse">
<stop stop-color="#2AF598"/>
<stop offset="1" stop-color="#009EFD"/>
</linearGradient>
<linearGradient id="paint28_linear1" x1="42.8965" y1="297.049" x2="72.8344" y2="297.049" gradientUnits="userSpaceOnUse">
<stop stop-color="#2AF598"/>
<stop offset="1" stop-color="#009EFD"/>
</linearGradient>
<linearGradient id="paint29_linear1" x1="42.8965" y1="297.049" x2="72.8344" y2="297.049" gradientUnits="userSpaceOnUse">
<stop stop-color="#2AF598"/>
<stop offset="1" stop-color="#009EFD"/>
</linearGradient>
<linearGradient id="paint30_linear1" x1="172.707" y1="341.138" x2="202.645" y2="341.138" gradientUnits="userSpaceOnUse">
<stop stop-color="#48C6EF"/>
<stop offset="1" stop-color="#6F86D6"/>
</linearGradient>
<linearGradient id="paint31_linear1" x1="172.707" y1="341.138" x2="202.645" y2="341.138" gradientUnits="userSpaceOnUse">
<stop stop-color="#48C6EF"/>
<stop offset="1" stop-color="#6F86D6"/>
</linearGradient>
<linearGradient id="paint32_linear1" x1="172.707" y1="341.138" x2="202.645" y2="341.138" gradientUnits="userSpaceOnUse">
<stop stop-color="#48C6EF"/>
<stop offset="1" stop-color="#6F86D6"/>
</linearGradient>
<linearGradient id="paint33_linear1" x1="172.707" y1="341.138" x2="202.645" y2="341.138" gradientUnits="userSpaceOnUse">
<stop stop-color="#48C6EF"/>
<stop offset="1" stop-color="#6F86D6"/>
</linearGradient>
<linearGradient id="paint34_linear1" x1="172.707" y1="341.138" x2="202.645" y2="341.138" gradientUnits="userSpaceOnUse">
<stop stop-color="#48C6EF"/>
<stop offset="1" stop-color="#6F86D6"/>
</linearGradient>
<linearGradient id="paint35_linear1" x1="172.707" y1="341.138" x2="202.645" y2="341.138" gradientUnits="userSpaceOnUse">
<stop stop-color="#48C6EF"/>
<stop offset="1" stop-color="#6F86D6"/>
</linearGradient>
<linearGradient id="paint36_linear1" x1="172.707" y1="341.138" x2="202.645" y2="341.138" gradientUnits="userSpaceOnUse">
<stop stop-color="#48C6EF"/>
<stop offset="1" stop-color="#6F86D6"/>
</linearGradient>
</defs>
</svg>
