<svg width="669" height="613" viewBox="0 0 669 613" fill="none" xmlns="http://www.w3.org/2000/svg">
<g filter="url(#filter0_ddd)">
<path d="M359.77 475.805C359.13 474.698 359.13 473.333 359.77 472.225L376.143 443.865C376.783 442.758 377.965 442.075 379.244 442.075H411.991C413.27 442.075 414.452 442.758 415.091 443.865L431.465 472.225C432.104 473.333 432.104 474.698 431.465 475.805L415.091 504.165C414.452 505.273 413.27 505.955 411.991 505.955H379.244C377.965 505.955 376.783 505.273 376.143 504.165L359.77 475.805Z" fill="#5D78CF"/>
</g>
<path d="M183.278 173.96H186.951V176.07H180.523V164.68H183.278V173.96ZM188.12 164.551C188.12 164.132 188.27 163.788 188.571 163.52C188.872 163.24 189.269 163.101 189.763 163.101C190.257 163.101 190.655 163.24 190.955 163.52C191.256 163.788 191.406 164.132 191.406 164.551C191.406 164.959 191.256 165.303 190.955 165.582C190.655 165.85 190.257 165.985 189.763 165.985C189.269 165.985 188.872 165.85 188.571 165.582C188.27 165.303 188.12 164.959 188.12 164.551ZM191.133 167.08V176.07H188.377V167.08H191.133ZM198.899 166.984C199.93 166.984 200.747 167.327 201.348 168.015C201.96 168.702 202.266 169.647 202.266 170.85V176.07H199.511V171.172C199.511 170.571 199.35 170.104 199.028 169.771C198.717 169.427 198.298 169.255 197.771 169.255C197.213 169.255 196.767 169.432 196.434 169.787C196.112 170.141 195.951 170.646 195.951 171.301V176.07H193.196V167.08H195.951V168.724C196.209 168.187 196.59 167.762 197.095 167.451C197.61 167.139 198.212 166.984 198.899 166.984ZM212.784 171.334C212.784 171.559 212.757 171.806 212.703 172.075H206.468C206.5 172.751 206.672 173.24 206.983 173.541C207.295 173.831 207.692 173.976 208.176 173.976C208.584 173.976 208.922 173.874 209.191 173.67C209.459 173.466 209.636 173.203 209.722 172.88H212.639C212.52 173.514 212.263 174.083 211.865 174.588C211.468 175.082 210.963 175.474 210.351 175.764C209.739 176.043 209.056 176.183 208.305 176.183C207.424 176.183 206.64 176 205.952 175.635C205.276 175.259 204.744 174.722 204.357 174.024C203.971 173.326 203.777 172.51 203.777 171.575C203.777 170.63 203.965 169.814 204.341 169.126C204.728 168.428 205.265 167.897 205.952 167.531C206.64 167.155 207.424 166.967 208.305 166.967C209.196 166.967 209.98 167.15 210.657 167.515C211.334 167.88 211.854 168.396 212.22 169.062C212.596 169.717 212.784 170.474 212.784 171.334ZM209.996 170.915C210.007 170.324 209.846 169.884 209.513 169.594C209.191 169.293 208.788 169.142 208.305 169.142C207.8 169.142 207.381 169.293 207.048 169.594C206.715 169.894 206.527 170.335 206.484 170.915H209.996ZM221.972 166.967C222.864 166.967 223.659 167.155 224.357 167.531C225.066 167.897 225.619 168.428 226.016 169.126C226.424 169.825 226.629 170.641 226.629 171.575C226.629 172.51 226.424 173.326 226.016 174.024C225.619 174.722 225.066 175.259 224.357 175.635C223.659 176 222.864 176.183 221.972 176.183C221.081 176.183 220.281 176 219.572 175.635C218.863 175.259 218.304 174.722 217.896 174.024C217.499 173.326 217.3 172.51 217.3 171.575C217.3 170.641 217.499 169.825 217.896 169.126C218.304 168.428 218.863 167.897 219.572 167.531C220.281 167.155 221.081 166.967 221.972 166.967ZM221.972 169.352C221.446 169.352 221 169.545 220.635 169.932C220.281 170.308 220.103 170.856 220.103 171.575C220.103 172.295 220.281 172.843 220.635 173.219C221 173.595 221.446 173.783 221.972 173.783C222.499 173.783 222.939 173.595 223.294 173.219C223.648 172.843 223.825 172.295 223.825 171.575C223.825 170.856 223.648 170.308 223.294 169.932C222.939 169.545 222.499 169.352 221.972 169.352ZM232.633 165.856C232.182 165.856 231.854 165.952 231.65 166.146C231.446 166.339 231.333 166.651 231.312 167.08H232.939V169.4H231.312V176.07H228.557V169.4H227.477V167.08H228.557V166.984C228.557 165.866 228.879 165.007 229.523 164.406C230.178 163.794 231.124 163.487 232.359 163.487C232.617 163.487 232.81 163.493 232.939 163.504V165.872L232.633 165.856ZM184.583 187.967C185.743 187.967 186.715 188.29 187.499 188.934C188.283 189.568 188.777 190.443 188.981 191.56H186.065C185.979 191.174 185.802 190.873 185.533 190.658C185.265 190.443 184.926 190.336 184.518 190.336C184.035 190.336 183.637 190.529 183.326 190.916C183.014 191.292 182.859 191.845 182.859 192.575C182.859 193.306 183.014 193.864 183.326 194.251C183.637 194.627 184.035 194.815 184.518 194.815C184.926 194.815 185.265 194.707 185.533 194.493C185.802 194.278 185.979 193.977 186.065 193.59H188.981C188.777 194.707 188.283 195.588 187.499 196.233C186.715 196.866 185.743 197.183 184.583 197.183C183.702 197.183 182.918 197 182.23 196.635C181.554 196.259 181.022 195.722 180.635 195.024C180.249 194.326 180.055 193.51 180.055 192.575C180.055 191.63 180.243 190.814 180.619 190.126C181.006 189.428 181.543 188.897 182.23 188.531C182.918 188.155 183.702 187.967 184.583 187.967ZM193.335 189.772C193.679 189.224 194.119 188.789 194.656 188.467C195.204 188.145 195.795 187.984 196.429 187.984V190.932H195.639C194.909 190.932 194.339 191.088 193.931 191.399C193.534 191.711 193.335 192.237 193.335 192.978V197.07H190.58V188.08H193.335V189.772ZM206.282 192.334C206.282 192.559 206.255 192.806 206.201 193.075H199.966C199.998 193.751 200.17 194.24 200.482 194.541C200.793 194.831 201.191 194.976 201.674 194.976C202.082 194.976 202.42 194.874 202.689 194.67C202.957 194.466 203.135 194.203 203.221 193.88H206.137C206.019 194.514 205.761 195.083 205.363 195.588C204.966 196.082 204.461 196.474 203.849 196.764C203.237 197.043 202.555 197.183 201.803 197.183C200.922 197.183 200.138 197 199.451 196.635C198.774 196.259 198.242 195.722 197.856 195.024C197.469 194.326 197.276 193.51 197.276 192.575C197.276 191.63 197.464 190.814 197.839 190.126C198.226 189.428 198.763 188.897 199.451 188.531C200.138 188.155 200.922 187.967 201.803 187.967C202.694 187.967 203.478 188.15 204.155 188.515C204.832 188.88 205.353 189.396 205.718 190.062C206.094 190.717 206.282 191.474 206.282 192.334ZM203.495 191.915C203.505 191.324 203.344 190.884 203.011 190.594C202.689 190.293 202.286 190.142 201.803 190.142C201.298 190.142 200.879 190.293 200.546 190.594C200.213 190.894 200.025 191.335 199.982 191.915H203.495ZM211.295 187.967C211.982 187.967 212.573 188.123 213.067 188.435C213.561 188.746 213.921 189.17 214.146 189.707V185.148H216.901V197.07H214.146V195.443C213.921 195.98 213.561 196.404 213.067 196.716C212.573 197.027 211.982 197.183 211.295 197.183C210.554 197.183 209.888 197 209.297 196.635C208.717 196.259 208.255 195.722 207.911 195.024C207.578 194.326 207.412 193.51 207.412 192.575C207.412 191.63 207.578 190.814 207.911 190.126C208.255 189.428 208.717 188.897 209.297 188.531C209.888 188.155 210.554 187.967 211.295 187.967ZM212.181 190.384C211.59 190.384 211.112 190.577 210.747 190.964C210.392 191.351 210.215 191.888 210.215 192.575C210.215 193.263 210.392 193.8 210.747 194.186C211.112 194.573 211.59 194.766 212.181 194.766C212.761 194.766 213.233 194.568 213.599 194.17C213.974 193.773 214.162 193.241 214.162 192.575C214.162 191.899 213.974 191.367 213.599 190.98C213.233 190.583 212.761 190.384 212.181 190.384ZM218.702 185.551C218.702 185.132 218.852 184.788 219.153 184.52C219.453 184.24 219.851 184.101 220.345 184.101C220.839 184.101 221.236 184.24 221.537 184.52C221.838 184.788 221.988 185.132 221.988 185.551C221.988 185.959 221.838 186.303 221.537 186.582C221.236 186.85 220.839 186.985 220.345 186.985C219.851 186.985 219.453 186.85 219.153 186.582C218.852 186.303 218.702 185.959 218.702 185.551ZM221.714 188.08V197.07H218.959V188.08H221.714ZM228.869 194.702V197.07H227.628C226.576 197.07 225.754 196.813 225.163 196.297C224.583 195.771 224.293 194.906 224.293 193.703V190.4H223.085V188.08H224.293V185.873H227.048V188.08H228.853V190.4H227.048V193.751C227.048 194.106 227.118 194.353 227.258 194.493C227.408 194.632 227.655 194.702 227.999 194.702H228.869ZM233.849 187.967C234.987 187.967 235.895 188.252 236.572 188.821C237.259 189.391 237.689 190.142 237.861 191.077H235.283C235.208 190.712 235.036 190.427 234.767 190.223C234.51 190.008 234.182 189.901 233.784 189.901C233.473 189.901 233.237 189.971 233.076 190.11C232.914 190.239 232.834 190.427 232.834 190.674C232.834 190.953 232.979 191.163 233.269 191.302C233.57 191.442 234.037 191.582 234.671 191.721C235.358 191.882 235.922 192.049 236.362 192.221C236.803 192.382 237.184 192.65 237.506 193.026C237.828 193.402 237.99 193.907 237.99 194.541C237.99 195.056 237.85 195.513 237.571 195.91C237.291 196.308 236.889 196.619 236.362 196.845C235.836 197.07 235.213 197.183 234.493 197.183C233.28 197.183 232.308 196.915 231.577 196.378C230.847 195.84 230.401 195.073 230.24 194.074H232.898C232.941 194.46 233.102 194.756 233.382 194.96C233.672 195.164 234.042 195.266 234.493 195.266C234.805 195.266 235.041 195.196 235.202 195.056C235.363 194.906 235.444 194.713 235.444 194.476C235.444 194.165 235.294 193.945 234.993 193.816C234.703 193.676 234.225 193.531 233.559 193.381C232.893 193.241 232.345 193.091 231.916 192.93C231.486 192.769 231.115 192.511 230.804 192.156C230.492 191.791 230.337 191.297 230.337 190.674C230.337 189.869 230.643 189.219 231.255 188.725C231.867 188.22 232.732 187.967 233.849 187.967ZM183.938 208.967C184.626 208.967 185.216 209.123 185.71 209.435C186.205 209.746 186.57 210.17 186.806 210.707V209.08H189.545V218.07H186.806V216.443C186.57 216.98 186.205 217.404 185.71 217.716C185.216 218.027 184.626 218.183 183.938 218.183C183.197 218.183 182.531 218 181.94 217.635C181.36 217.259 180.899 216.722 180.555 216.024C180.222 215.326 180.055 214.51 180.055 213.575C180.055 212.63 180.222 211.814 180.555 211.126C180.899 210.428 181.36 209.897 181.94 209.531C182.531 209.155 183.197 208.967 183.938 208.967ZM184.824 211.384C184.234 211.384 183.756 211.577 183.39 211.964C183.036 212.351 182.859 212.888 182.859 213.575C182.859 214.263 183.036 214.8 183.39 215.186C183.756 215.573 184.234 215.766 184.824 215.766C185.404 215.766 185.877 215.568 186.242 215.17C186.618 214.773 186.806 214.241 186.806 213.575C186.806 212.899 186.618 212.367 186.242 211.98C185.877 211.583 185.404 211.384 184.824 211.384ZM197.306 208.984C198.337 208.984 199.154 209.327 199.755 210.015C200.367 210.702 200.674 211.647 200.674 212.85V218.07H197.918V213.172C197.918 212.571 197.757 212.104 197.435 211.771C197.124 211.427 196.705 211.255 196.178 211.255C195.62 211.255 195.174 211.432 194.841 211.787C194.519 212.141 194.358 212.646 194.358 213.301V218.07H191.603V209.08H194.358V210.724C194.616 210.187 194.997 209.762 195.502 209.451C196.017 209.139 196.619 208.984 197.306 208.984ZM206.067 208.967C206.755 208.967 207.345 209.123 207.84 209.435C208.334 209.746 208.693 210.17 208.919 210.707V206.148H211.674V218.07H208.919V216.443C208.693 216.98 208.334 217.404 207.84 217.716C207.345 218.027 206.755 218.183 206.067 218.183C205.326 218.183 204.66 218 204.069 217.635C203.489 217.259 203.028 216.722 202.684 216.024C202.351 215.326 202.184 214.51 202.184 213.575C202.184 212.63 202.351 211.814 202.684 211.126C203.028 210.428 203.489 209.897 204.069 209.531C204.66 209.155 205.326 208.967 206.067 208.967ZM206.953 211.384C206.363 211.384 205.885 211.577 205.52 211.964C205.165 212.351 204.988 212.888 204.988 213.575C204.988 214.263 205.165 214.8 205.52 215.186C205.885 215.573 206.363 215.766 206.953 215.766C207.533 215.766 208.006 215.568 208.371 215.17C208.747 214.773 208.935 214.241 208.935 213.575C208.935 212.899 208.747 212.367 208.371 211.98C208.006 211.583 207.533 211.384 206.953 211.384ZM221.533 207.856C221.082 207.856 220.754 207.952 220.55 208.146C220.346 208.339 220.233 208.651 220.212 209.08H221.839V211.4H220.212V218.07H217.457V211.4H216.377V209.08H217.457V208.984C217.457 207.866 217.779 207.007 218.424 206.406C219.079 205.794 220.024 205.487 221.259 205.487C221.517 205.487 221.71 205.493 221.839 205.504V207.872L221.533 207.856ZM231.75 213.334C231.75 213.559 231.723 213.806 231.67 214.075H225.435C225.467 214.751 225.639 215.24 225.95 215.541C226.262 215.831 226.659 215.976 227.142 215.976C227.551 215.976 227.889 215.874 228.157 215.67C228.426 215.466 228.603 215.203 228.689 214.88H231.605C231.487 215.514 231.229 216.083 230.832 216.588C230.434 217.082 229.93 217.474 229.317 217.764C228.705 218.043 228.023 218.183 227.271 218.183C226.391 218.183 225.606 218 224.919 217.635C224.242 217.259 223.711 216.722 223.324 216.024C222.937 215.326 222.744 214.51 222.744 213.575C222.744 212.63 222.932 211.814 223.308 211.126C223.695 210.428 224.232 209.897 224.919 209.531C225.606 209.155 226.391 208.967 227.271 208.967C228.163 208.967 228.947 209.15 229.624 209.515C230.3 209.88 230.821 210.396 231.186 211.062C231.562 211.717 231.75 212.474 231.75 213.334ZM228.963 212.915C228.974 212.324 228.813 211.884 228.48 211.594C228.157 211.293 227.755 211.142 227.271 211.142C226.766 211.142 226.348 211.293 226.015 211.594C225.682 211.894 225.494 212.335 225.451 212.915H228.963ZM241.886 213.334C241.886 213.559 241.86 213.806 241.806 214.075H235.571C235.603 214.751 235.775 215.24 236.086 215.541C236.398 215.831 236.795 215.976 237.279 215.976C237.687 215.976 238.025 215.874 238.294 215.67C238.562 215.466 238.739 215.203 238.825 214.88H241.741C241.623 215.514 241.366 216.083 240.968 216.588C240.571 217.082 240.066 217.474 239.454 217.764C238.841 218.043 238.159 218.183 237.408 218.183C236.527 218.183 235.743 218 235.055 217.635C234.379 217.259 233.847 216.722 233.46 216.024C233.074 215.326 232.88 214.51 232.88 213.575C232.88 212.63 233.068 211.814 233.444 211.126C233.831 210.428 234.368 209.897 235.055 209.531C235.743 209.155 236.527 208.967 237.408 208.967C238.299 208.967 239.083 209.15 239.76 209.515C240.436 209.88 240.957 210.396 241.323 211.062C241.698 211.717 241.886 212.474 241.886 213.334ZM239.099 212.915C239.11 212.324 238.949 211.884 238.616 211.594C238.294 211.293 237.891 211.142 237.408 211.142C236.903 211.142 236.484 211.293 236.151 211.594C235.818 211.894 235.63 212.335 235.587 212.915H239.099ZM246.754 208.967C247.893 208.967 248.8 209.252 249.477 209.821C250.165 210.391 250.594 211.142 250.766 212.077H248.188C248.113 211.712 247.941 211.427 247.673 211.223C247.415 211.008 247.087 210.901 246.69 210.901C246.378 210.901 246.142 210.971 245.981 211.11C245.82 211.239 245.739 211.427 245.739 211.674C245.739 211.953 245.884 212.163 246.174 212.302C246.475 212.442 246.942 212.582 247.576 212.721C248.263 212.882 248.827 213.049 249.268 213.221C249.708 213.382 250.089 213.65 250.412 214.026C250.734 214.402 250.895 214.907 250.895 215.541C250.895 216.056 250.755 216.513 250.476 216.91C250.197 217.308 249.794 217.619 249.268 217.845C248.741 218.07 248.118 218.183 247.399 218.183C246.185 218.183 245.213 217.915 244.483 217.378C243.752 216.84 243.307 216.073 243.145 215.074H245.804C245.847 215.46 246.008 215.756 246.287 215.96C246.577 216.164 246.948 216.266 247.399 216.266C247.71 216.266 247.947 216.196 248.108 216.056C248.269 215.906 248.349 215.713 248.349 215.476C248.349 215.165 248.199 214.945 247.898 214.816C247.608 214.676 247.13 214.531 246.464 214.381C245.798 214.241 245.251 214.091 244.821 213.93C244.391 213.769 244.021 213.511 243.709 213.156C243.398 212.791 243.242 212.297 243.242 211.674C243.242 210.869 243.548 210.219 244.16 209.725C244.773 209.22 245.637 208.967 246.754 208.967Z" fill="white"/>
<path d="M557.205 375.296V377.681H561.055V379.759H557.205V382.289H561.539V384.496H554.45V373.105H561.539V375.296H557.205ZM566.68 375.393C567.367 375.393 567.958 375.549 568.452 375.86C568.946 376.172 569.311 376.596 569.548 377.133V375.506H572.287V384.496H569.548V382.869C569.311 383.406 568.946 383.83 568.452 384.141C567.958 384.453 567.367 384.609 566.68 384.609C565.939 384.609 565.273 384.426 564.682 384.061C564.102 383.685 563.64 383.148 563.296 382.45C562.963 381.752 562.797 380.935 562.797 380.001C562.797 379.056 562.963 378.239 563.296 377.552C563.64 376.854 564.102 376.322 564.682 375.957C565.273 375.581 565.939 375.393 566.68 375.393ZM567.566 377.81C566.975 377.81 566.497 378.003 566.132 378.39C565.778 378.776 565.6 379.313 565.6 380.001C565.6 380.688 565.778 381.225 566.132 381.612C566.497 381.999 566.975 382.192 567.566 382.192C568.146 382.192 568.619 381.993 568.984 381.596C569.36 381.198 569.548 380.667 569.548 380.001C569.548 379.324 569.36 378.792 568.984 378.406C568.619 378.008 568.146 377.81 567.566 377.81ZM577.1 377.197C577.443 376.65 577.884 376.215 578.421 375.892C578.968 375.57 579.559 375.409 580.193 375.409V378.357H579.403C578.673 378.357 578.104 378.513 577.696 378.825C577.298 379.136 577.1 379.662 577.1 380.404V384.496H574.345V375.506H577.1V377.197ZM584.262 372.573V384.496H581.507V372.573H584.262ZM588.404 375.506L590.563 381.016L592.577 375.506H595.622L590.015 388.781H586.986L589.097 384.158L585.326 375.506H588.404ZM607.141 382.417H602.871L602.163 384.496H599.263L603.435 373.186H606.609L610.782 384.496H607.85L607.141 382.417ZM606.432 380.323L605.014 376.134L603.58 380.323H606.432ZM614.769 377.197C615.113 376.65 615.553 376.215 616.09 375.892C616.638 375.57 617.229 375.409 617.862 375.409V378.357H617.073C616.343 378.357 615.773 378.513 615.365 378.825C614.968 379.136 614.769 379.662 614.769 380.404V384.496H612.014V375.506H614.769V377.197ZM621.932 377.197C622.275 376.65 622.716 376.215 623.253 375.892C623.801 375.57 624.391 375.409 625.025 375.409V378.357H624.236C623.505 378.357 622.936 378.513 622.528 378.825C622.13 379.136 621.932 379.662 621.932 380.404V384.496H619.177V375.506H621.932V377.197ZM626.082 372.976C626.082 372.557 626.232 372.214 626.533 371.945C626.833 371.666 627.231 371.526 627.725 371.526C628.219 371.526 628.616 371.666 628.917 371.945C629.218 372.214 629.368 372.557 629.368 372.976C629.368 373.384 629.218 373.728 628.917 374.007C628.616 374.276 628.219 374.41 627.725 374.41C627.231 374.41 626.833 374.276 626.533 374.007C626.232 373.728 626.082 373.384 626.082 372.976ZM629.094 375.506V384.496H626.339V375.506H629.094ZM635.314 381.805L637.264 375.506H640.196L637.006 384.496H633.59L630.4 375.506H633.333L635.314 381.805ZM641.241 372.976C641.241 372.557 641.391 372.214 641.692 371.945C641.992 371.666 642.39 371.526 642.884 371.526C643.378 371.526 643.775 371.666 644.076 371.945C644.377 372.214 644.527 372.557 644.527 372.976C644.527 373.384 644.377 373.728 644.076 374.007C643.775 374.276 643.378 374.41 642.884 374.41C642.39 374.41 641.992 374.276 641.692 374.007C641.391 373.728 641.241 373.384 641.241 372.976ZM644.253 375.506V384.496H641.498V375.506H644.253ZM652.02 375.409C653.051 375.409 653.867 375.753 654.469 376.44C655.081 377.128 655.387 378.073 655.387 379.276V384.496H652.632V379.598C652.632 378.997 652.471 378.529 652.149 378.196C651.837 377.853 651.419 377.681 650.892 377.681C650.334 377.681 649.888 377.858 649.555 378.212C649.233 378.567 649.072 379.072 649.072 379.727V384.496H646.317V375.506H649.072V377.149C649.329 376.612 649.711 376.188 650.216 375.876C650.731 375.565 651.333 375.409 652.02 375.409ZM660.781 375.393C661.468 375.393 662.059 375.549 662.553 375.86C663.047 376.172 663.413 376.596 663.649 377.133V375.506H666.388V384.448C666.388 385.285 666.227 386.037 665.904 386.703C665.582 387.38 665.088 387.917 664.422 388.314C663.756 388.712 662.929 388.91 661.941 388.91C660.588 388.91 659.503 388.588 658.687 387.944C657.881 387.31 657.398 386.445 657.237 385.35H659.959C660.045 385.715 660.239 386 660.539 386.204C660.851 386.408 661.254 386.51 661.748 386.51C662.317 386.51 662.773 386.343 663.117 386.01C663.472 385.688 663.649 385.167 663.649 384.448V382.869C663.413 383.406 663.047 383.83 662.553 384.141C662.059 384.453 661.468 384.609 660.781 384.609C660.04 384.609 659.374 384.426 658.783 384.061C658.203 383.685 657.741 383.148 657.398 382.45C657.065 381.752 656.898 380.935 656.898 380.001C656.898 379.056 657.065 378.239 657.398 377.552C657.741 376.854 658.203 376.322 658.783 375.957C659.374 375.581 660.04 375.393 660.781 375.393ZM661.667 377.81C661.076 377.81 660.598 378.003 660.233 378.39C659.879 378.776 659.702 379.313 659.702 380.001C659.702 380.688 659.879 381.225 660.233 381.612C660.598 381.999 661.076 382.192 661.667 382.192C662.247 382.192 662.72 381.993 663.085 381.596C663.461 381.198 663.649 380.667 663.649 380.001C663.649 379.324 663.461 378.792 663.085 378.406C662.72 378.008 662.247 377.81 661.667 377.81ZM569.933 394.105L567.21 405.496H563.794L561.974 397.875L560.137 405.496H556.721L553.998 394.105H556.995L558.461 402.354L560.459 394.105H563.472L565.47 402.354L566.952 394.105H569.933ZM571.282 393.976C571.282 393.557 571.433 393.214 571.733 392.945C572.034 392.666 572.432 392.526 572.926 392.526C573.42 392.526 573.817 392.666 574.118 392.945C574.419 393.214 574.569 393.557 574.569 393.976C574.569 394.384 574.419 394.728 574.118 395.007C573.817 395.276 573.42 395.41 572.926 395.41C572.432 395.41 572.034 395.276 571.733 395.007C571.433 394.728 571.282 394.384 571.282 393.976ZM574.295 396.506V405.496H571.54V396.506H574.295ZM579.113 398.197C579.457 397.65 579.898 397.215 580.435 396.892C580.982 396.57 581.573 396.409 582.207 396.409V399.357H581.417C580.687 399.357 580.118 399.513 579.71 399.825C579.312 400.136 579.113 400.662 579.113 401.404V405.496H576.358V396.506H579.113V398.197ZM592.06 400.759C592.06 400.985 592.033 401.232 591.979 401.5H585.744C585.777 402.177 585.948 402.666 586.26 402.966C586.571 403.256 586.969 403.401 587.452 403.401C587.86 403.401 588.199 403.299 588.467 403.095C588.736 402.891 588.913 402.628 588.999 402.306H591.915C591.797 402.94 591.539 403.509 591.142 404.014C590.744 404.508 590.239 404.9 589.627 405.19C589.015 405.469 588.333 405.609 587.581 405.609C586.7 405.609 585.916 405.426 585.229 405.061C584.552 404.685 584.02 404.148 583.634 403.45C583.247 402.752 583.054 401.935 583.054 401.001C583.054 400.056 583.242 399.239 583.618 398.552C584.004 397.854 584.541 397.322 585.229 396.957C585.916 396.581 586.7 396.393 587.581 396.393C588.473 396.393 589.257 396.576 589.933 396.941C590.61 397.306 591.131 397.822 591.496 398.487C591.872 399.143 592.06 399.9 592.06 400.759ZM589.273 400.34C589.283 399.749 589.122 399.309 588.789 399.019C588.467 398.718 588.064 398.568 587.581 398.568C587.076 398.568 586.657 398.718 586.324 399.019C585.991 399.32 585.803 399.76 585.76 400.34H589.273Z" fill="white"/>
<g filter="url(#filter1_ddd)">
<path d="M301.082 37.927C303.64 37.927 306.004 39.2918 307.283 41.5073L331.753 83.8905C333.032 86.106 333.032 88.8356 331.753 91.0511L307.283 133.434C306.004 135.65 303.64 137.015 301.082 137.015L252.142 137.015C249.584 137.015 247.22 135.65 245.941 133.434L221.471 91.0511C220.192 88.8356 220.192 86.106 221.471 83.8906L245.941 41.5073C247.22 39.2918 249.584 37.927 252.142 37.927L301.082 37.927Z" fill="url(#paint0_linear)"/>
</g>
<g filter="url(#filter2_ddd)">
<path d="M301.082 244.315C303.64 244.315 306.004 245.68 307.283 247.896L331.753 290.279C333.032 292.494 333.032 295.224 331.753 297.44L307.283 339.823C306.004 342.038 303.64 343.403 301.082 343.403L252.142 343.403C249.584 343.403 247.22 342.038 245.941 339.823L221.471 297.44C220.192 295.224 220.192 292.494 221.471 290.279L245.941 247.896C247.22 245.68 249.584 244.315 252.142 244.315L301.082 244.315Z" fill="url(#paint1_linear)"/>
</g>
<g filter="url(#filter3_ddd)">
<path d="M34.92 433.639C33.8008 431.701 33.8008 429.312 34.92 427.374L59.9068 384.095C61.026 382.157 63.0944 380.963 65.3329 380.963H115.306C117.545 380.963 119.613 382.157 120.732 384.095L145.719 427.374C146.838 429.312 146.838 431.701 145.719 433.639L120.732 476.918C119.613 478.856 117.545 480.05 115.306 480.05H65.3329C63.0944 480.05 61.026 478.856 59.9068 476.918L34.92 433.639Z" fill="white"/>
</g>
<g filter="url(#filter4_ddd)">
<path d="M221.213 496.911C220.094 494.972 220.094 492.584 221.213 490.646L246.2 447.367C247.319 445.429 249.388 444.234 251.626 444.234H301.6C303.838 444.234 305.907 445.429 307.026 447.367L332.013 490.646C333.132 492.584 333.132 494.972 332.013 496.911L307.026 540.189C305.907 542.128 303.838 543.322 301.6 543.322H251.626C249.388 543.322 247.319 542.128 246.2 540.189L221.213 496.911Z" fill="white"/>
</g>
<g filter="url(#filter5_ddd)">
<path d="M34.922 199.646C33.8028 197.708 33.8028 195.319 34.922 193.381L59.9087 150.102C61.0279 148.164 63.0964 146.97 65.3348 146.97H115.308C117.547 146.97 119.615 148.164 120.734 150.102L145.721 193.381C146.84 195.319 146.84 197.708 145.721 199.646L120.734 242.924C119.615 244.863 117.547 246.057 115.308 246.057H65.3348C63.0964 246.057 61.028 244.863 59.9087 242.924L34.922 199.646Z" fill="white"/>
</g>
<g filter="url(#filter6_ddd)">
<path d="M365.91 93.095C367.189 93.095 368.371 93.7774 369.011 94.8852L385.384 123.245C386.024 124.353 386.024 125.717 385.384 126.825L369.011 155.185C368.371 156.292 367.189 156.975 365.91 156.975L333.163 156.975C331.884 156.975 330.702 156.292 330.063 155.185L313.689 126.825C313.05 125.717 313.05 124.353 313.689 123.245L330.063 94.8852C330.702 93.7774 331.884 93.095 333.163 93.095L365.91 93.095Z" fill="#5D78CF"/>
</g>
<g filter="url(#filter7_ddd)">
<path d="M54.4742 351.155C53.8347 350.047 53.8347 348.683 54.4742 347.575L70.8476 319.215C71.4872 318.107 72.6691 317.425 73.9483 317.425H106.695C107.974 317.425 109.156 318.107 109.796 319.215L126.169 347.575C126.809 348.683 126.809 350.047 126.169 351.155L109.796 379.515C109.156 380.622 107.974 381.305 106.695 381.305H73.9483C72.6691 381.305 71.4872 380.622 70.8476 379.515L54.4742 351.155Z" fill="#5D78CF"/>
</g>
<g filter="url(#filter8_ddd)">
<path d="M184.919 424.841C185.558 423.733 186.74 423.05 188.019 423.05L220.766 423.05C222.045 423.05 223.227 423.733 223.867 424.841L240.24 453.2C240.88 454.308 240.88 455.673 240.24 456.78L223.867 485.14C223.227 486.248 222.045 486.93 220.766 486.93L188.019 486.93C186.74 486.93 185.558 486.248 184.919 485.14L168.545 456.78C167.906 455.673 167.906 454.308 168.545 453.2L184.919 424.841Z" fill="#5D78CF"/>
</g>
<g filter="url(#filter9_ddd)">
<path d="M498.751 276.58C499.39 277.687 499.39 279.052 498.751 280.16L482.377 308.52C481.738 309.627 480.556 310.31 479.277 310.31H446.53C445.251 310.31 444.069 309.627 443.429 308.52L427.056 280.16C426.416 279.052 426.416 277.687 427.056 276.58L443.429 248.22C444.069 247.112 445.251 246.43 446.53 246.43L479.277 246.43C480.556 246.43 481.738 247.112 482.377 248.22L498.751 276.58Z" fill="#5D78CF"/>
</g>
<path d="M97.253 48.3692H100.862V50.4958H94.4979V39.1857H97.253V48.3692ZM101.789 45.9847C101.789 45.061 101.961 44.25 102.305 43.5519C102.659 42.8537 103.137 42.3167 103.739 41.9408C104.34 41.5648 105.012 41.3769 105.753 41.3769C106.386 41.3769 106.94 41.5058 107.412 41.7635C107.895 42.0213 108.266 42.3596 108.524 42.7785V41.5058H111.279V50.4958H108.524V49.2231C108.255 49.642 107.879 49.9803 107.396 50.2381C106.923 50.4958 106.37 50.6247 105.737 50.6247C105.006 50.6247 104.34 50.4368 103.739 50.0608C103.137 49.6742 102.659 49.1318 102.305 48.4336C101.961 47.7247 101.789 46.9084 101.789 45.9847ZM108.524 46.0008C108.524 45.3134 108.33 44.771 107.944 44.3736C107.568 43.9761 107.106 43.7774 106.558 43.7774C106.01 43.7774 105.543 43.9761 105.157 44.3736C104.781 44.7602 104.593 45.2973 104.593 45.9847C104.593 46.6721 104.781 47.2199 105.157 47.628C105.543 48.0255 106.01 48.2242 106.558 48.2242C107.106 48.2242 107.568 48.0255 107.944 47.628C108.33 47.2306 108.524 46.6882 108.524 46.0008ZM118.444 48.1597V50.4958H117.042C116.043 50.4958 115.264 50.2542 114.706 49.7708C114.147 49.2768 113.868 48.4766 113.868 47.3703V43.7936H112.773V41.5058H113.868V39.3146H116.623V41.5058H118.428V43.7936H116.623V47.4025C116.623 47.671 116.688 47.8643 116.816 47.9825C116.945 48.1006 117.16 48.1597 117.461 48.1597H118.444ZM128.614 45.8558C128.614 46.1136 128.598 46.3821 128.566 46.6614H122.331C122.374 47.2199 122.551 47.6495 122.862 47.9503C123.184 48.2403 123.576 48.3853 124.038 48.3853C124.726 48.3853 125.204 48.0953 125.472 47.5153H128.405C128.254 48.106 127.98 48.6377 127.583 49.1103C127.196 49.5829 126.707 49.9534 126.117 50.222C125.526 50.4905 124.865 50.6247 124.135 50.6247C123.254 50.6247 122.47 50.4368 121.783 50.0608C121.095 49.6849 120.558 49.1479 120.172 48.4497C119.785 47.7516 119.592 46.9353 119.592 46.0008C119.592 45.0663 119.78 44.25 120.156 43.5519C120.542 42.8537 121.079 42.3167 121.767 41.9408C122.454 41.5648 123.244 41.3769 124.135 41.3769C125.005 41.3769 125.778 41.5595 126.455 41.9246C127.132 42.2898 127.658 42.8108 128.034 43.4874C128.421 44.1641 128.614 44.9536 128.614 45.8558ZM125.794 45.1308C125.794 44.6582 125.633 44.2823 125.311 44.003C124.989 43.7237 124.586 43.5841 124.103 43.5841C123.641 43.5841 123.249 43.7184 122.927 43.9869C122.615 44.2554 122.422 44.6367 122.347 45.1308H125.794ZM140.844 48.498H136.623L135.947 50.4958H133.063L137.155 39.1857H140.345L144.437 50.4958H141.521L140.844 48.498ZM140.136 46.3714L138.734 42.2308L137.348 46.3714H140.136ZM148.599 43.0041C148.921 42.51 149.324 42.1233 149.807 41.8441C150.291 41.5541 150.828 41.4091 151.418 41.4091V44.3252H150.661C149.974 44.3252 149.458 44.4756 149.114 44.7763C148.771 45.0663 148.599 45.5819 148.599 46.323V50.4958H145.844V41.5058H148.599V43.0041ZM155.651 43.0041C155.974 42.51 156.376 42.1233 156.86 41.8441C157.343 41.5541 157.88 41.4091 158.471 41.4091V44.3252H157.714C157.026 44.3252 156.511 44.4756 156.167 44.7763C155.823 45.0663 155.651 45.5819 155.651 46.323V50.4958H152.896V41.5058H155.651V43.0041ZM161.334 40.5713C160.851 40.5713 160.454 40.4317 160.142 40.1524C159.841 39.8624 159.691 39.508 159.691 39.0891C159.691 38.6594 159.841 38.305 160.142 38.0257C160.454 37.7357 160.851 37.5907 161.334 37.5907C161.807 37.5907 162.194 37.7357 162.494 38.0257C162.806 38.305 162.962 38.6594 162.962 39.0891C162.962 39.508 162.806 39.8624 162.494 40.1524C162.194 40.4317 161.807 40.5713 161.334 40.5713ZM162.704 41.5058V50.4958H159.949V41.5058H162.704ZM168.905 47.918L170.855 41.5058H173.787L170.597 50.4958H167.198L164.008 41.5058H166.956L168.905 47.918ZM176.493 40.5713C176.01 40.5713 175.613 40.4317 175.301 40.1524C175 39.8624 174.85 39.508 174.85 39.0891C174.85 38.6594 175 38.305 175.301 38.0257C175.613 37.7357 176.01 37.5907 176.493 37.5907C176.966 37.5907 177.353 37.7357 177.653 38.0257C177.965 38.305 178.121 38.6594 178.121 39.0891C178.121 39.508 177.965 39.8624 177.653 40.1524C177.353 40.4317 176.966 40.5713 176.493 40.5713ZM177.863 41.5058V50.4958H175.108V41.5058H177.863ZM185.498 41.4091C186.551 41.4091 187.389 41.7528 188.012 42.4402C188.645 43.1169 188.962 44.0513 188.962 45.2436V50.4958H186.223V45.6141C186.223 45.0126 186.068 44.5454 185.756 44.2124C185.445 43.8795 185.026 43.713 184.499 43.713C183.973 43.713 183.554 43.8795 183.243 44.2124C182.931 44.5454 182.776 45.0126 182.776 45.6141V50.4958H180.021V41.5058H182.776V42.698C183.055 42.3006 183.431 41.9891 183.903 41.7635C184.376 41.5272 184.908 41.4091 185.498 41.4091ZM194.453 41.3769C195.087 41.3769 195.64 41.5058 196.113 41.7635C196.596 42.0213 196.967 42.3596 197.225 42.7785V41.5058H199.98V50.4797C199.98 51.3068 199.813 52.0533 199.48 52.7192C199.158 53.3959 198.659 53.9329 197.982 54.3303C197.316 54.7277 196.484 54.9265 195.485 54.9265C194.153 54.9265 193.073 54.6096 192.246 53.9759C191.419 53.3529 190.947 52.5044 190.828 51.4303H193.551C193.637 51.774 193.841 52.0425 194.163 52.2359C194.486 52.4399 194.883 52.542 195.356 52.542C195.925 52.542 196.376 52.3755 196.709 52.0425C197.053 51.7203 197.225 51.1994 197.225 50.4797V49.2069C196.956 49.6258 196.586 49.9695 196.113 50.2381C195.64 50.4958 195.087 50.6247 194.453 50.6247C193.712 50.6247 193.041 50.4368 192.44 50.0608C191.838 49.6742 191.36 49.1318 191.006 48.4336C190.662 47.7247 190.49 46.9084 190.49 45.9847C190.49 45.061 190.662 44.25 191.006 43.5519C191.36 42.8537 191.838 42.3167 192.44 41.9408C193.041 41.5648 193.712 41.3769 194.453 41.3769ZM197.225 46.0008C197.225 45.3134 197.031 44.771 196.645 44.3736C196.269 43.9761 195.807 43.7774 195.259 43.7774C194.711 43.7774 194.244 43.9761 193.857 44.3736C193.481 44.7602 193.293 45.2973 193.293 45.9847C193.293 46.6721 193.481 47.2199 193.857 47.628C194.244 48.0255 194.711 48.2242 195.259 48.2242C195.807 48.2242 196.269 48.0255 196.645 47.628C197.031 47.2306 197.225 46.6882 197.225 46.0008ZM110.061 60.1857L107.113 71.4958H103.778L101.974 64.0524L100.105 71.4958H96.7696L93.9018 60.1857H96.8502L98.4774 68.4186L100.491 60.1857H103.52L105.454 68.4186L107.097 60.1857H110.061ZM112.99 61.5713C112.506 61.5713 112.109 61.4317 111.798 61.1524C111.497 60.8624 111.346 60.508 111.346 60.0891C111.346 59.6594 111.497 59.305 111.798 59.0257C112.109 58.7357 112.506 58.5907 112.99 58.5907C113.462 58.5907 113.849 58.7357 114.15 59.0257C114.461 59.305 114.617 59.6594 114.617 60.0891C114.617 60.508 114.461 60.8624 114.15 61.1524C113.849 61.4317 113.462 61.5713 112.99 61.5713ZM114.359 62.5058V71.4958H111.604V62.5058H114.359ZM119.272 64.0041C119.594 63.51 119.997 63.1233 120.48 62.8441C120.964 62.5541 121.501 62.4091 122.091 62.4091V65.3252H121.334C120.647 65.3252 120.131 65.4756 119.787 65.7763C119.444 66.0663 119.272 66.5819 119.272 67.323V71.4958H116.517V62.5058H119.272V64.0041ZM132.044 66.8558C132.044 67.1136 132.028 67.3821 131.996 67.6614H125.76C125.803 68.2199 125.981 68.6495 126.292 68.9503C126.614 69.2403 127.006 69.3853 127.468 69.3853C128.156 69.3853 128.634 69.0953 128.902 68.5153H131.834C131.684 69.106 131.41 69.6377 131.013 70.1103C130.626 70.5829 130.137 70.9534 129.547 71.222C128.956 71.4905 128.295 71.6247 127.565 71.6247C126.684 71.6247 125.9 71.4368 125.213 71.0608C124.525 70.6849 123.988 70.1479 123.602 69.4497C123.215 68.7516 123.022 67.9353 123.022 67.0008C123.022 66.0663 123.21 65.25 123.585 64.5519C123.972 63.8537 124.509 63.3167 125.197 62.9408C125.884 62.5648 126.673 62.3769 127.565 62.3769C128.435 62.3769 129.208 62.5595 129.885 62.9246C130.562 63.2898 131.088 63.8108 131.464 64.4874C131.851 65.1641 132.044 65.9536 132.044 66.8558ZM129.224 66.1308C129.224 65.6582 129.063 65.2823 128.741 65.003C128.419 64.7237 128.016 64.5841 127.533 64.5841C127.071 64.5841 126.679 64.7184 126.357 64.9869C126.045 65.2554 125.852 65.6367 125.777 66.1308H129.224Z" fill="white"/>
<path d="M205.812 87.9705C206.075 87.7084 206.075 87.2833 205.812 87.0212L201.54 82.749C201.278 82.4869 200.853 82.4869 200.591 82.749C200.329 83.0112 200.329 83.4362 200.591 83.6984L204.388 87.4958L200.591 91.2933C200.329 91.5555 200.329 91.9805 200.591 92.2427C200.853 92.5048 201.278 92.5048 201.54 92.2427L205.812 87.9705ZM127.499 88.1672H205.338V86.8245H127.499V88.1672Z" fill="white"/>
<path d="M553.593 448.021C553.331 448.283 553.331 448.708 553.593 448.971L557.865 453.243C558.128 453.505 558.553 453.505 558.815 453.243C559.077 452.981 559.077 452.555 558.815 452.293L555.017 448.496L558.815 444.698C559.077 444.436 559.077 444.011 558.815 443.749C558.553 443.487 558.128 443.487 557.865 443.749L553.593 448.021ZM651.499 447.825L554.068 447.825L554.068 449.167L651.499 449.167L651.499 447.825Z" fill="white"/>
<path d="M274.329 220.733C274.591 220.995 275.016 220.995 275.278 220.733L279.55 216.461C279.812 216.199 279.812 215.774 279.55 215.512C279.288 215.25 278.863 215.25 278.601 215.512L274.803 219.309L271.006 215.512C270.744 215.25 270.319 215.25 270.056 215.512C269.794 215.774 269.794 216.199 270.056 216.461L274.329 220.733ZM275.278 159.596C275.016 159.334 274.591 159.334 274.329 159.596L270.056 163.868C269.794 164.13 269.794 164.555 270.056 164.817C270.319 165.079 270.744 165.079 271.006 164.817L274.803 161.02L278.601 164.817C278.863 165.079 279.288 165.079 279.55 164.817C279.812 164.555 279.812 164.13 279.55 163.868L275.278 159.596ZM275.475 220.259V160.07H274.132V220.259H275.475Z" fill="white"/>
<path d="M333.418 329.829C333.05 329.874 332.788 330.209 332.833 330.577L333.562 336.574C333.607 336.942 333.941 337.205 334.31 337.16C334.678 337.115 334.94 336.78 334.895 336.412L334.246 331.081L339.578 330.433C339.946 330.388 340.208 330.053 340.163 329.685C340.118 329.317 339.784 329.055 339.416 329.1L333.418 329.829ZM416.58 396.162C416.948 396.117 417.21 395.783 417.165 395.415L416.436 389.417C416.391 389.049 416.057 388.787 415.689 388.832C415.321 388.877 415.058 389.211 415.103 389.579L415.752 394.911L410.42 395.559C410.052 395.604 409.79 395.938 409.835 396.306C409.88 396.674 410.214 396.936 410.583 396.892L416.58 396.162ZM333.085 331.024L416.085 396.024L416.913 394.967L333.913 329.967L333.085 331.024Z" fill="white"/>
<g filter="url(#filter10_ddd)">
<path d="M518.303 193.38C519.422 195.318 519.422 197.707 518.303 199.645L493.316 242.924C492.197 244.862 490.128 246.056 487.89 246.056L437.917 246.056C435.678 246.056 433.61 244.862 432.49 242.924L407.504 199.645C406.384 197.707 406.384 195.318 407.504 193.38L432.49 150.102C433.61 148.163 435.678 146.969 437.917 146.969L487.89 146.969C490.128 146.969 492.197 148.163 493.316 150.102L518.303 193.38Z" fill="white"/>
</g>
<g filter="url(#filter11_ddd)">
<path d="M410.188 433.638C409.069 431.699 409.069 429.311 410.188 427.372L435.175 384.094C436.294 382.155 438.362 380.961 440.601 380.961H490.574C492.813 380.961 494.881 382.155 496 384.094L520.987 427.372C522.106 429.311 522.106 431.699 520.987 433.638L496 476.916C494.881 478.855 492.813 480.049 490.574 480.049H440.601C438.362 480.049 436.294 478.855 435.175 476.916L410.188 433.638Z" fill="white"/>
</g>
<path d="M257.995 293.277C258.911 293.492 259.635 293.936 260.164 294.609C260.709 295.282 260.981 296.063 260.981 296.95C260.981 298.254 260.544 299.27 259.67 300.001C258.811 300.731 257.572 301.096 255.954 301.096H248.887V285.909H255.782C257.329 285.909 258.525 286.245 259.37 286.919C260.215 287.592 260.637 288.551 260.637 289.797C260.637 290.714 260.394 291.48 259.907 292.096C259.42 292.697 258.782 293.091 257.995 293.277ZM252.56 292.117H254.966C256.24 292.117 256.878 291.573 256.878 290.484C256.878 289.396 256.226 288.852 254.923 288.852H252.56V292.117ZM255.181 298.11C256.541 298.11 257.221 297.552 257.221 296.435C257.221 295.891 257.042 295.468 256.684 295.167C256.326 294.852 255.818 294.695 255.159 294.695H252.56V298.11H255.181ZM267.69 288.959C268.606 288.959 269.394 289.167 270.053 289.582C270.712 289.998 271.199 290.563 271.514 291.279V289.11H275.166V301.096H271.514V298.927C271.199 299.643 270.712 300.209 270.053 300.624C269.394 301.039 268.606 301.247 267.69 301.247C266.702 301.247 265.814 301.003 265.026 300.516C264.253 300.015 263.637 299.299 263.179 298.368C262.735 297.437 262.513 296.349 262.513 295.103C262.513 293.843 262.735 292.754 263.179 291.838C263.637 290.907 264.253 290.198 265.026 289.711C265.814 289.21 266.702 288.959 267.69 288.959ZM268.871 292.182C268.084 292.182 267.446 292.439 266.96 292.955C266.487 293.47 266.251 294.186 266.251 295.103C266.251 296.02 266.487 296.736 266.96 297.251C267.446 297.767 268.084 298.025 268.871 298.025C269.645 298.025 270.275 297.76 270.762 297.23C271.263 296.7 271.514 295.991 271.514 295.103C271.514 294.201 271.263 293.492 270.762 292.976C270.275 292.446 269.645 292.182 268.871 292.182ZM285.514 288.981C286.889 288.981 287.977 289.439 288.779 290.356C289.596 291.272 290.004 292.532 290.004 294.136V301.096H286.33V294.566C286.33 293.764 286.116 293.141 285.686 292.697C285.271 292.239 284.712 292.01 284.01 292.01C283.266 292.01 282.671 292.246 282.227 292.719C281.798 293.191 281.583 293.864 281.583 294.738V301.096H277.91V289.11H281.583V291.301C281.927 290.585 282.435 290.019 283.108 289.604C283.796 289.188 284.598 288.981 285.514 288.981ZM299.902 301.096L296.315 296.005V301.096H292.641V285.2H296.315V293.922L299.902 289.11H304.22L299.387 295.103L304.327 301.096H299.902Z" fill="white"/>
<path d="M477.371 427.962H482.405V440.016H477.371V427.962Z" fill="url(#paint2_linear)"/>
<path d="M467.837 427.962H472.872V440.016H467.837V427.962Z" fill="url(#paint3_linear)"/>
<path d="M458.302 427.962H463.337V440.016H458.302V427.962Z" fill="url(#paint4_linear)"/>
<path d="M448.769 427.962H453.803V440.016H448.769V427.962Z" fill="url(#paint5_linear)"/>
<path d="M484.083 424.186V422.927H447.09V424.186C447.09 424.881 447.654 425.444 448.349 425.444H482.825C483.52 425.444 484.083 424.881 484.083 424.186Z" fill="url(#paint6_linear)"/>
<path d="M485.809 442.534H445.365C444.67 442.534 444.106 443.097 444.106 443.792V447.149C444.106 447.844 444.67 448.408 445.365 448.408H485.809C486.504 448.408 487.068 447.844 487.068 447.149V443.792C487.068 443.097 486.504 442.534 485.809 442.534Z" fill="url(#paint7_linear)"/>
<path d="M445.364 420.409H485.81C486.373 420.409 486.868 420.035 487.021 419.494C487.174 418.952 486.949 418.374 486.47 418.079L466.247 405.631C465.842 405.382 465.332 405.382 464.927 405.631L444.704 418.079C444.225 418.374 444 418.952 444.153 419.494C444.307 420.035 444.801 420.409 445.364 420.409ZM464.732 412.847H466.443C467.138 412.847 467.702 413.411 467.702 414.106C467.702 414.801 467.138 415.365 466.443 415.365H464.732C464.036 415.365 463.473 414.801 463.473 414.106C463.473 413.411 464.036 412.847 464.732 412.847Z" fill="url(#paint8_linear)"/>
<path d="M102.105 193.969H107.139V206.023H102.105V193.969Z" fill="url(#paint9_linear)"/>
<path d="M92.5712 193.969H97.606V206.023H92.5712V193.969Z" fill="url(#paint10_linear)"/>
<path d="M83.0366 193.969H88.0714V206.023H83.0366V193.969Z" fill="url(#paint11_linear)"/>
<path d="M73.5029 193.969H78.5373V206.023H73.5029V193.969Z" fill="url(#paint12_linear)"/>
<path d="M108.817 190.193V188.934H71.8246V190.193C71.8246 190.888 72.3881 191.451 73.0833 191.451H107.559C108.254 191.451 108.817 190.888 108.817 190.193Z" fill="url(#paint13_linear)"/>
<path d="M110.543 208.541H70.0992C69.4039 208.541 68.8405 209.104 68.8405 209.8V213.156C68.8405 213.851 69.4039 214.415 70.0992 214.415H110.543C111.238 214.415 111.802 213.851 111.802 213.156V209.8C111.802 209.104 111.238 208.541 110.543 208.541Z" fill="url(#paint14_linear)"/>
<path d="M70.0982 186.417H110.544C111.107 186.417 111.602 186.043 111.755 185.501C111.908 184.959 111.684 184.381 111.204 184.086L90.981 171.638C90.5765 171.389 90.0662 171.389 89.6614 171.638L69.4384 184.086C68.9588 184.381 68.7339 184.959 68.8873 185.501C69.0407 186.043 69.5354 186.417 70.0982 186.417ZM89.4657 178.855H91.177C91.8723 178.855 92.4357 179.418 92.4357 180.113C92.4357 180.809 91.8723 181.372 91.177 181.372H89.4657C88.7705 181.372 88.207 180.809 88.207 180.113C88.207 179.418 88.7705 178.855 89.4657 178.855Z" fill="url(#paint15_linear)"/>
<path d="M286.521 85.8209H291.555V97.8755H286.521V85.8209Z" fill="white"/>
<path d="M276.987 85.8209H282.022V97.8755H276.987V85.8209Z" fill="white"/>
<path d="M267.452 85.8209H272.487V97.8755H267.452V85.8209Z" fill="white"/>
<path d="M257.919 85.8209H262.953V97.8755H257.919V85.8209Z" fill="white"/>
<path d="M293.233 82.0448V80.7861H256.24V82.0448C256.24 82.74 256.804 83.3035 257.499 83.3035H291.975C292.669 83.3035 293.233 82.74 293.233 82.0448Z" fill="white"/>
<path d="M294.959 100.393H254.515C253.82 100.393 253.256 100.956 253.256 101.652V105.008C253.256 105.703 253.82 106.267 254.515 106.267H294.959C295.654 106.267 296.218 105.703 296.218 105.008V101.652C296.218 100.956 295.654 100.393 294.959 100.393Z" fill="white"/>
<path d="M254.514 78.2687H294.96C295.523 78.2687 296.018 77.8947 296.171 77.3529C296.324 76.811 296.099 76.2332 295.62 75.9381L275.397 63.4902C274.992 63.2411 274.482 63.2411 274.077 63.4902L253.854 75.9381C253.375 76.2335 253.15 76.811 253.303 77.3529C253.457 77.8947 253.951 78.2687 254.514 78.2687ZM273.881 70.7067H275.593C276.288 70.7067 276.852 71.2702 276.852 71.9654C276.852 72.6606 276.288 73.2241 275.593 73.2241H273.881C273.186 73.2241 272.623 72.6606 272.623 71.9654C272.623 71.2702 273.186 70.7067 273.881 70.7067Z" fill="white"/>
<path d="M474.687 193.969H479.722V206.023H474.687V193.969Z" fill="url(#paint16_linear)"/>
<path d="M465.154 193.969H470.189V206.023H465.154V193.969Z" fill="url(#paint17_linear)"/>
<path d="M455.619 193.969H460.654V206.023H455.619V193.969Z" fill="url(#paint18_linear)"/>
<path d="M446.085 193.969H451.12V206.023H446.085V193.969Z" fill="url(#paint19_linear)"/>
<path d="M481.4 190.193V188.934H444.407V190.193C444.407 190.888 444.971 191.451 445.666 191.451H480.141C480.836 191.451 481.4 190.888 481.4 190.193Z" fill="url(#paint20_linear)"/>
<path d="M483.126 208.541H442.682C441.986 208.541 441.423 209.104 441.423 209.8V213.156C441.423 213.851 441.986 214.415 442.682 214.415H483.126C483.821 214.415 484.384 213.851 484.384 213.156V209.8C484.384 209.104 483.821 208.541 483.126 208.541Z" fill="url(#paint21_linear)"/>
<path d="M442.681 186.417H483.127C483.69 186.417 484.185 186.043 484.338 185.501C484.491 184.959 484.266 184.381 483.787 184.086L463.564 171.638C463.159 171.389 462.649 171.389 462.244 171.638L442.021 184.086C441.541 184.381 441.316 184.959 441.47 185.501C441.623 186.043 442.118 186.417 442.681 186.417ZM462.048 178.855H463.76C464.455 178.855 465.018 179.418 465.018 180.113C465.018 180.809 464.455 181.372 463.76 181.372H462.048C461.353 181.372 460.79 180.809 460.79 180.113C460.79 179.418 461.353 178.855 462.048 178.855Z" fill="url(#paint22_linear)"/>
<path d="M102.104 427.962H107.138V440.016H102.104V427.962Z" fill="url(#paint23_linear)"/>
<path d="M92.5703 427.962H97.605V440.016H92.5703V427.962Z" fill="url(#paint24_linear)"/>
<path d="M83.0356 427.962H88.0704V440.016H83.0356V427.962Z" fill="url(#paint25_linear)"/>
<path d="M73.5019 427.962H78.5364V440.016H73.5019V427.962Z" fill="url(#paint26_linear)"/>
<path d="M108.816 424.186V422.927H71.8237V424.186C71.8237 424.881 72.3871 425.444 73.0823 425.444H107.558C108.253 425.444 108.816 424.881 108.816 424.186Z" fill="url(#paint27_linear)"/>
<path d="M110.542 442.534H70.0982C69.403 442.534 68.8395 443.097 68.8395 443.792V447.149C68.8395 447.844 69.403 448.408 70.0982 448.408H110.542C111.238 448.408 111.801 447.844 111.801 447.149V443.792C111.801 443.097 111.238 442.534 110.542 442.534Z" fill="url(#paint28_linear)"/>
<path d="M70.0972 420.409H110.543C111.106 420.409 111.601 420.035 111.754 419.494C111.907 418.952 111.683 418.374 111.203 418.079L90.9801 405.631C90.5756 405.382 90.0652 405.382 89.6604 405.631L69.4374 418.079C68.9578 418.374 68.733 418.952 68.8864 419.494C69.0398 420.035 69.5344 420.409 70.0972 420.409ZM89.4647 412.847H91.1761C91.8713 412.847 92.4348 413.411 92.4348 414.106C92.4348 414.801 91.8713 415.365 91.1761 415.365H89.4647C88.7695 415.365 88.206 414.801 88.206 414.106C88.206 413.411 88.7695 412.847 89.4647 412.847Z" fill="url(#paint29_linear)"/>
<path d="M288.396 491.233H293.43V503.288H288.396V491.233Z" fill="url(#paint30_linear)"/>
<path d="M278.862 491.233H283.897V503.288H278.862V491.233Z" fill="url(#paint31_linear)"/>
<path d="M269.327 491.233H274.362V503.288H269.327V491.233Z" fill="url(#paint32_linear)"/>
<path d="M259.794 491.233H264.828V503.288H259.794V491.233Z" fill="url(#paint33_linear)"/>
<path d="M295.108 487.457V486.199H258.115V487.457C258.115 488.152 258.679 488.716 259.374 488.716H293.85C294.544 488.716 295.108 488.152 295.108 487.457Z" fill="url(#paint34_linear)"/>
<path d="M296.834 505.805H256.39C255.695 505.805 255.131 506.369 255.131 507.064V510.421C255.131 511.116 255.695 511.679 256.39 511.679H296.834C297.529 511.679 298.093 511.116 298.093 510.421V507.064C298.093 506.369 297.529 505.805 296.834 505.805Z" fill="url(#paint35_linear)"/>
<path d="M256.389 483.681H296.835C297.398 483.681 297.893 483.307 298.046 482.765C298.199 482.224 297.974 481.646 297.495 481.351L277.272 468.903C276.867 468.654 276.357 468.654 275.952 468.903L255.729 481.351C255.25 481.646 255.025 482.224 255.178 482.765C255.332 483.307 255.826 483.681 256.389 483.681ZM275.756 476.119H277.468C278.163 476.119 278.727 476.683 278.727 477.378C278.727 478.073 278.163 478.637 277.468 478.637H275.756C275.061 478.637 274.498 478.073 274.498 477.378C274.498 476.683 275.061 476.119 275.756 476.119Z" fill="url(#paint36_linear)"/>
<path d="M389.634 335.29C389.634 335.891 389.478 336.444 389.167 336.949C388.866 337.454 388.415 337.857 387.814 338.158C387.223 338.458 386.503 338.609 385.655 338.609C384.376 338.609 383.324 338.297 382.497 337.674C381.67 337.051 381.219 336.181 381.143 335.064H384.076C384.119 335.494 384.269 335.832 384.527 336.079C384.795 336.326 385.134 336.45 385.542 336.45C385.896 336.45 386.176 336.353 386.38 336.16C386.584 335.966 386.686 335.709 386.686 335.386C386.686 335.096 386.589 334.855 386.396 334.661C386.213 334.468 385.982 334.312 385.703 334.194C385.424 334.065 385.037 333.915 384.543 333.743C383.823 333.496 383.233 333.26 382.771 333.034C382.32 332.798 381.928 332.454 381.595 332.003C381.272 331.541 381.111 330.945 381.111 330.215C381.111 329.538 381.283 328.953 381.627 328.459C381.971 327.964 382.443 327.589 383.045 327.331C383.657 327.062 384.355 326.928 385.139 326.928C386.406 326.928 387.411 327.229 388.152 327.83C388.904 328.432 389.328 329.259 389.425 330.311H386.444C386.39 329.935 386.251 329.64 386.025 329.425C385.81 329.2 385.515 329.087 385.139 329.087C384.817 329.087 384.554 329.173 384.35 329.345C384.156 329.516 384.06 329.769 384.06 330.102C384.06 330.37 384.146 330.601 384.317 330.795C384.5 330.977 384.726 331.128 384.994 331.246C385.263 331.364 385.649 331.514 386.154 331.697C386.884 331.944 387.481 332.191 387.942 332.438C388.404 332.674 388.802 333.023 389.135 333.485C389.468 333.947 389.634 334.549 389.634 335.29ZM404.465 329.506L402.161 338.496H399.084L397.457 332.47L395.813 338.496H392.736L390.432 329.506H393.187L394.38 335.982L396.055 329.506H398.987L400.711 335.999L401.903 329.506H404.465ZM414.163 333.759C414.163 333.985 414.136 334.232 414.083 334.5H407.847C407.88 335.177 408.052 335.666 408.363 335.966C408.674 336.256 409.072 336.401 409.555 336.401C409.963 336.401 410.302 336.299 410.57 336.095C410.839 335.891 411.016 335.628 411.102 335.306H414.018C413.9 335.94 413.642 336.509 413.245 337.014C412.847 337.508 412.342 337.9 411.73 338.19C411.118 338.469 410.436 338.609 409.684 338.609C408.803 338.609 408.019 338.426 407.332 338.061C406.655 337.685 406.124 337.148 405.737 336.45C405.35 335.752 405.157 334.935 405.157 334.001C405.157 333.056 405.345 332.239 405.721 331.552C406.107 330.854 406.644 330.322 407.332 329.957C408.019 329.581 408.803 329.393 409.684 329.393C410.576 329.393 411.36 329.576 412.036 329.941C412.713 330.306 413.234 330.822 413.599 331.487C413.975 332.143 414.163 332.9 414.163 333.759ZM411.376 333.34C411.387 332.749 411.225 332.309 410.892 332.019C410.57 331.718 410.167 331.568 409.684 331.568C409.179 331.568 408.76 331.718 408.427 332.019C408.094 332.32 407.907 332.76 407.864 333.34H411.376ZM424.299 333.759C424.299 333.985 424.272 334.232 424.219 334.5H417.984C418.016 335.177 418.188 335.666 418.499 335.966C418.811 336.256 419.208 336.401 419.691 336.401C420.1 336.401 420.438 336.299 420.707 336.095C420.975 335.891 421.152 335.628 421.238 335.306H424.154C424.036 335.94 423.778 336.509 423.381 337.014C422.984 337.508 422.479 337.9 421.867 338.19C421.254 338.469 420.572 338.609 419.82 338.609C418.94 338.609 418.156 338.426 417.468 338.061C416.791 337.685 416.26 337.148 415.873 336.45C415.486 335.752 415.293 334.935 415.293 334.001C415.293 333.056 415.481 332.239 415.857 331.552C416.244 330.854 416.781 330.322 417.468 329.957C418.156 329.581 418.94 329.393 419.82 329.393C420.712 329.393 421.496 329.576 422.173 329.941C422.849 330.306 423.37 330.822 423.735 331.487C424.111 332.143 424.299 332.9 424.299 333.759ZM421.512 333.34C421.523 332.749 421.362 332.309 421.029 332.019C420.707 331.718 420.304 331.568 419.82 331.568C419.316 331.568 418.897 331.718 418.564 332.019C418.231 332.32 418.043 332.76 418 333.34H421.512ZM431.503 329.393C432.244 329.393 432.905 329.581 433.485 329.957C434.076 330.322 434.538 330.854 434.871 331.552C435.214 332.239 435.386 333.056 435.386 334.001C435.386 334.935 435.214 335.752 434.871 336.45C434.538 337.148 434.076 337.685 433.485 338.061C432.905 338.426 432.244 338.609 431.503 338.609C430.816 338.609 430.225 338.453 429.731 338.141C429.237 337.83 428.877 337.406 428.652 336.869V342.781H425.897V329.506H428.652V331.133C428.877 330.596 429.237 330.172 429.731 329.86C430.225 329.549 430.816 329.393 431.503 329.393ZM430.617 331.81C430.037 331.81 429.559 332.008 429.183 332.406C428.818 332.792 428.636 333.324 428.636 334.001C428.636 334.667 428.818 335.198 429.183 335.596C429.559 335.993 430.037 336.192 430.617 336.192C431.208 336.192 431.681 335.999 432.035 335.612C432.4 335.225 432.583 334.688 432.583 334.001C432.583 333.313 432.4 332.776 432.035 332.39C431.681 332.003 431.208 331.81 430.617 331.81ZM443.779 329.393C444.466 329.393 445.057 329.549 445.551 329.86C446.045 330.172 446.411 330.596 446.647 331.133V329.506H449.386V338.496H446.647V336.869C446.411 337.406 446.045 337.83 445.551 338.141C445.057 338.453 444.466 338.609 443.779 338.609C443.038 338.609 442.372 338.426 441.781 338.061C441.201 337.685 440.739 337.148 440.396 336.45C440.063 335.752 439.896 334.935 439.896 334.001C439.896 333.056 440.063 332.239 440.396 331.552C440.739 330.854 441.201 330.322 441.781 329.957C442.372 329.581 443.038 329.393 443.779 329.393ZM444.665 331.81C444.074 331.81 443.596 332.003 443.231 332.39C442.877 332.776 442.7 333.313 442.7 334.001C442.7 334.688 442.877 335.225 443.231 335.612C443.596 335.999 444.074 336.192 444.665 336.192C445.245 336.192 445.718 335.993 446.083 335.596C446.459 335.198 446.647 334.667 446.647 334.001C446.647 333.324 446.459 332.792 446.083 332.406C445.718 332.008 445.245 331.81 444.665 331.81ZM455.504 329.393C456.664 329.393 457.636 329.715 458.42 330.36C459.204 330.993 459.698 331.869 459.902 332.986H456.986C456.9 332.599 456.723 332.298 456.454 332.084C456.186 331.869 455.847 331.761 455.439 331.761C454.956 331.761 454.559 331.955 454.247 332.341C453.936 332.717 453.78 333.27 453.78 334.001C453.78 334.731 453.936 335.29 454.247 335.676C454.559 336.052 454.956 336.24 455.439 336.24C455.847 336.24 456.186 336.133 456.454 335.918C456.723 335.703 456.9 335.402 456.986 335.016H459.902C459.698 336.133 459.204 337.014 458.42 337.658C457.636 338.292 456.664 338.609 455.504 338.609C454.623 338.609 453.839 338.426 453.151 338.061C452.475 337.685 451.943 337.148 451.556 336.45C451.17 335.752 450.976 334.935 450.976 334.001C450.976 333.056 451.164 332.239 451.54 331.552C451.927 330.854 452.464 330.322 453.151 329.957C453.839 329.581 454.623 329.393 455.504 329.393ZM465.561 329.393C466.721 329.393 467.693 329.715 468.477 330.36C469.262 330.993 469.756 331.869 469.96 332.986H467.044C466.958 332.599 466.78 332.298 466.512 332.084C466.243 331.869 465.905 331.761 465.497 331.761C465.014 331.761 464.616 331.955 464.305 332.341C463.993 332.717 463.837 333.27 463.837 334.001C463.837 334.731 463.993 335.29 464.305 335.676C464.616 336.052 465.014 336.24 465.497 336.24C465.905 336.24 466.243 336.133 466.512 335.918C466.78 335.703 466.958 335.402 467.044 335.016H469.96C469.756 336.133 469.262 337.014 468.477 337.658C467.693 338.292 466.721 338.609 465.561 338.609C464.681 338.609 463.897 338.426 463.209 338.061C462.532 337.685 462.001 337.148 461.614 336.45C461.227 335.752 461.034 334.935 461.034 334.001C461.034 333.056 461.222 332.239 461.598 331.552C461.985 330.854 462.522 330.322 463.209 329.957C463.897 329.581 464.681 329.393 465.561 329.393ZM475.764 329.393C476.655 329.393 477.45 329.581 478.148 329.957C478.857 330.322 479.41 330.854 479.808 331.552C480.216 332.25 480.42 333.066 480.42 334.001C480.42 334.935 480.216 335.752 479.808 336.45C479.41 337.148 478.857 337.685 478.148 338.061C477.45 338.426 476.655 338.609 475.764 338.609C474.872 338.609 474.072 338.426 473.363 338.061C472.654 337.685 472.096 337.148 471.688 336.45C471.29 335.752 471.092 334.935 471.092 334.001C471.092 333.066 471.29 332.25 471.688 331.552C472.096 330.854 472.654 330.322 473.363 329.957C474.072 329.581 474.872 329.393 475.764 329.393ZM475.764 331.777C475.238 331.777 474.792 331.971 474.427 332.357C474.072 332.733 473.895 333.281 473.895 334.001C473.895 334.72 474.072 335.268 474.427 335.644C474.792 336.02 475.238 336.208 475.764 336.208C476.29 336.208 476.731 336.02 477.085 335.644C477.44 335.268 477.617 334.72 477.617 334.001C477.617 333.281 477.44 332.733 477.085 332.357C476.731 331.971 476.29 331.777 475.764 331.777ZM490.952 329.506V338.496H488.18V336.869C487.923 337.395 487.536 337.814 487.02 338.125C486.516 338.437 485.925 338.593 485.248 338.593C484.217 338.593 483.395 338.249 482.783 337.561C482.182 336.874 481.881 335.929 481.881 334.726V329.506H484.62V334.387C484.62 335 484.776 335.478 485.087 335.821C485.409 336.154 485.839 336.321 486.376 336.321C486.935 336.321 487.375 336.144 487.697 335.789C488.019 335.435 488.18 334.93 488.18 334.275V329.506H490.952ZM498.715 329.409C499.746 329.409 500.562 329.753 501.164 330.44C501.776 331.128 502.082 332.073 502.082 333.276V338.496H499.327V333.598C499.327 332.997 499.166 332.529 498.844 332.196C498.532 331.853 498.113 331.681 497.587 331.681C497.029 331.681 496.583 331.858 496.25 332.212C495.928 332.567 495.766 333.072 495.766 333.727V338.496H493.011V329.506H495.766V331.149C496.024 330.612 496.406 330.188 496.91 329.876C497.426 329.565 498.027 329.409 498.715 329.409ZM509.151 336.127V338.496H507.911C506.858 338.496 506.037 338.238 505.446 337.723C504.866 337.196 504.576 336.332 504.576 335.129V331.826H503.367V329.506H504.576V327.299H507.331V329.506H509.135V331.826H507.331V335.177C507.331 335.531 507.401 335.778 507.54 335.918C507.691 336.058 507.938 336.127 508.281 336.127H509.151ZM514.132 329.393C515.27 329.393 516.178 329.678 516.854 330.247C517.542 330.816 517.971 331.568 518.143 332.502H515.565C515.49 332.137 515.318 331.853 515.05 331.649C514.792 331.434 514.465 331.326 514.067 331.326C513.756 331.326 513.519 331.396 513.358 331.536C513.197 331.665 513.117 331.853 513.117 332.1C513.117 332.379 513.262 332.588 513.552 332.728C513.852 332.868 514.32 333.007 514.953 333.147C515.641 333.308 516.205 333.474 516.645 333.646C517.085 333.807 517.467 334.076 517.789 334.452C518.111 334.828 518.272 335.333 518.272 335.966C518.272 336.482 518.133 336.938 517.853 337.336C517.574 337.733 517.171 338.045 516.645 338.27C516.119 338.496 515.496 338.609 514.776 338.609C513.562 338.609 512.59 338.34 511.86 337.803C511.13 337.266 510.684 336.498 510.523 335.499H513.181C513.224 335.886 513.385 336.181 513.664 336.385C513.954 336.589 514.325 336.691 514.776 336.691C515.088 336.691 515.324 336.622 515.485 336.482C515.646 336.332 515.727 336.138 515.727 335.902C515.727 335.59 515.576 335.37 515.275 335.241C514.985 335.102 514.508 334.957 513.842 334.806C513.176 334.667 512.628 334.516 512.198 334.355C511.769 334.194 511.398 333.936 511.087 333.582C510.775 333.217 510.619 332.723 510.619 332.1C510.619 331.294 510.925 330.644 511.538 330.15C512.15 329.645 513.015 329.393 514.132 329.393ZM389.989 353.759C389.989 353.985 389.962 354.232 389.908 354.5H383.673C383.705 355.177 383.877 355.666 384.189 355.966C384.5 356.256 384.897 356.401 385.381 356.401C385.789 356.401 386.127 356.299 386.396 356.095C386.664 355.891 386.842 355.628 386.927 355.306H389.844C389.725 355.94 389.468 356.509 389.07 357.014C388.673 357.508 388.168 357.9 387.556 358.19C386.944 358.469 386.261 358.609 385.51 358.609C384.629 358.609 383.845 358.426 383.157 358.061C382.481 357.685 381.949 357.148 381.562 356.45C381.176 355.752 380.982 354.935 380.982 354.001C380.982 353.056 381.17 352.239 381.546 351.552C381.933 350.854 382.47 350.322 383.157 349.957C383.845 349.581 384.629 349.393 385.51 349.393C386.401 349.393 387.185 349.576 387.862 349.941C388.539 350.306 389.059 350.822 389.425 351.487C389.801 352.143 389.989 352.9 389.989 353.759ZM387.201 353.34C387.212 352.749 387.051 352.309 386.718 352.019C386.396 351.718 385.993 351.568 385.51 351.568C385.005 351.568 384.586 351.718 384.253 352.019C383.92 352.32 383.732 352.76 383.689 353.34H387.201ZM395.001 349.393C395.689 349.393 396.28 349.549 396.774 349.86C397.268 350.172 397.633 350.596 397.869 351.133V349.506H400.608V358.496H397.869V356.869C397.633 357.406 397.268 357.83 396.774 358.141C396.28 358.453 395.689 358.609 395.001 358.609C394.26 358.609 393.594 358.426 393.004 358.061C392.424 357.685 391.962 357.148 391.618 356.45C391.285 355.752 391.119 354.935 391.119 354.001C391.119 353.056 391.285 352.239 391.618 351.552C391.962 350.854 392.424 350.322 393.004 349.957C393.594 349.581 394.26 349.393 395.001 349.393ZM395.888 351.81C395.297 351.81 394.819 352.003 394.454 352.39C394.099 352.776 393.922 353.313 393.922 354.001C393.922 354.688 394.099 355.225 394.454 355.612C394.819 355.999 395.297 356.192 395.888 356.192C396.468 356.192 396.94 355.993 397.305 355.596C397.681 355.198 397.869 354.667 397.869 354.001C397.869 353.324 397.681 352.792 397.305 352.406C396.94 352.008 396.468 351.81 395.888 351.81ZM405.421 351.197C405.765 350.65 406.205 350.215 406.742 349.892C407.29 349.57 407.881 349.409 408.515 349.409V352.357H407.725C406.995 352.357 406.425 352.513 406.017 352.825C405.62 353.136 405.421 353.662 405.421 354.404V358.496H402.666V349.506H405.421V351.197ZM415.532 349.409C416.563 349.409 417.38 349.753 417.981 350.44C418.593 351.128 418.899 352.073 418.899 353.276V358.496H416.144V353.598C416.144 352.997 415.983 352.529 415.661 352.196C415.35 351.853 414.931 351.681 414.404 351.681C413.846 351.681 413.4 351.858 413.067 352.212C412.745 352.567 412.584 353.072 412.584 353.727V358.496H409.829V349.506H412.584V351.149C412.842 350.612 413.223 350.188 413.728 349.876C414.243 349.565 414.845 349.409 415.532 349.409ZM429.967 349.409C430.999 349.409 431.815 349.753 432.416 350.44C433.029 351.128 433.335 352.073 433.335 353.276V358.496H430.58V353.598C430.58 352.997 430.419 352.529 430.096 352.196C429.785 351.853 429.366 351.681 428.84 351.681C428.281 351.681 427.835 351.858 427.502 352.212C427.18 352.567 427.019 353.072 427.019 353.727V358.496H424.264V349.506H427.019V351.149C427.277 350.612 427.658 350.188 428.163 349.876C428.679 349.565 429.28 349.409 429.967 349.409ZM443.852 353.759C443.852 353.985 443.825 354.232 443.771 354.5H437.536C437.568 355.177 437.74 355.666 438.052 355.966C438.363 356.256 438.761 356.401 439.244 356.401C439.652 356.401 439.991 356.299 440.259 356.095C440.528 355.891 440.705 355.628 440.791 355.306H443.707C443.589 355.94 443.331 356.509 442.934 357.014C442.536 357.508 442.031 357.9 441.419 358.19C440.807 358.469 440.125 358.609 439.373 358.609C438.492 358.609 437.708 358.426 437.021 358.061C436.344 357.685 435.812 357.148 435.426 356.45C435.039 355.752 434.846 354.935 434.846 354.001C434.846 353.056 435.034 352.239 435.41 351.552C435.796 350.854 436.333 350.322 437.021 349.957C437.708 349.581 438.492 349.393 439.373 349.393C440.264 349.393 441.049 349.576 441.725 349.941C442.402 350.306 442.923 350.822 443.288 351.487C443.664 352.143 443.852 352.9 443.852 353.759ZM441.065 353.34C441.075 352.749 440.914 352.309 440.581 352.019C440.259 351.718 439.856 351.568 439.373 351.568C438.868 351.568 438.449 351.718 438.116 352.019C437.783 352.32 437.595 352.76 437.552 353.34H441.065ZM448.865 349.393C449.552 349.393 450.143 349.549 450.637 349.86C451.131 350.172 451.496 350.596 451.733 351.133V349.506H454.471V358.496H451.733V356.869C451.496 357.406 451.131 357.83 450.637 358.141C450.143 358.453 449.552 358.609 448.865 358.609C448.124 358.609 447.458 358.426 446.867 358.061C446.287 357.685 445.825 357.148 445.481 356.45C445.148 355.752 444.982 354.935 444.982 354.001C444.982 353.056 445.148 352.239 445.481 351.552C445.825 350.854 446.287 350.322 446.867 349.957C447.458 349.581 448.124 349.393 448.865 349.393ZM449.751 351.81C449.16 351.81 448.682 352.003 448.317 352.39C447.963 352.776 447.785 353.313 447.785 354.001C447.785 354.688 447.963 355.225 448.317 355.612C448.682 355.999 449.16 356.192 449.751 356.192C450.331 356.192 450.803 355.993 451.169 355.596C451.545 355.198 451.733 354.667 451.733 354.001C451.733 353.324 451.545 352.792 451.169 352.406C450.803 352.008 450.331 351.81 449.751 351.81ZM459.284 351.197C459.628 350.65 460.069 350.215 460.606 349.892C461.153 349.57 461.744 349.409 462.378 349.409V352.357H461.588C460.858 352.357 460.289 352.513 459.881 352.825C459.483 353.136 459.284 353.662 459.284 354.404V358.496H456.529V349.506H459.284V351.197ZM469.511 356.192H473.668V358.496H466.499V356.321L470.365 351.794H466.563V349.506H473.507V351.681L469.511 356.192ZM483.677 353.759C483.677 353.985 483.65 354.232 483.596 354.5H477.361C477.394 355.177 477.565 355.666 477.877 355.966C478.188 356.256 478.586 356.401 479.069 356.401C479.477 356.401 479.816 356.299 480.084 356.095C480.353 355.891 480.53 355.628 480.616 355.306H483.532C483.414 355.94 483.156 356.509 482.759 357.014C482.361 357.508 481.856 357.9 481.244 358.19C480.632 358.469 479.95 358.609 479.198 358.609C478.317 358.609 477.533 358.426 476.846 358.061C476.169 357.685 475.637 357.148 475.251 356.45C474.864 355.752 474.671 354.935 474.671 354.001C474.671 353.056 474.859 352.239 475.235 351.552C475.621 350.854 476.158 350.322 476.846 349.957C477.533 349.581 478.317 349.393 479.198 349.393C480.09 349.393 480.874 349.576 481.55 349.941C482.227 350.306 482.748 350.822 483.113 351.487C483.489 352.143 483.677 352.9 483.677 353.759ZM480.89 353.34C480.9 352.749 480.739 352.309 480.406 352.019C480.084 351.718 479.681 351.568 479.198 351.568C478.693 351.568 478.274 351.718 477.941 352.019C477.608 352.32 477.42 352.76 477.377 353.34H480.89ZM488.029 351.197C488.373 350.65 488.813 350.215 489.35 349.892C489.898 349.57 490.489 349.409 491.123 349.409V352.357H490.333C489.603 352.357 489.034 352.513 488.625 352.825C488.228 353.136 488.029 353.662 488.029 354.404V358.496H485.274V349.506H488.029V351.197ZM496.642 349.393C497.533 349.393 498.328 349.581 499.026 349.957C499.735 350.322 500.288 350.854 500.686 351.552C501.094 352.25 501.298 353.066 501.298 354.001C501.298 354.935 501.094 355.752 500.686 356.45C500.288 357.148 499.735 357.685 499.026 358.061C498.328 358.426 497.533 358.609 496.642 358.609C495.75 358.609 494.95 358.426 494.241 358.061C493.532 357.685 492.974 357.148 492.566 356.45C492.168 355.752 491.97 354.935 491.97 354.001C491.97 353.066 492.168 352.25 492.566 351.552C492.974 350.854 493.532 350.322 494.241 349.957C494.95 349.581 495.75 349.393 496.642 349.393ZM496.642 351.777C496.116 351.777 495.67 351.971 495.305 352.357C494.95 352.733 494.773 353.281 494.773 354.001C494.773 354.72 494.95 355.268 495.305 355.644C495.67 356.02 496.116 356.208 496.642 356.208C497.168 356.208 497.609 356.02 497.963 355.644C498.317 355.268 498.495 354.72 498.495 354.001C498.495 353.281 498.317 352.733 497.963 352.357C497.609 351.971 497.168 351.777 496.642 351.777Z" fill="white"/>
<defs>
<filter id="filter0_ddd" x="325.277" y="428.649" width="140.68" height="146.226" filterUnits="userSpaceOnUse" color-interpolation-filters="sRGB">
<feFlood flood-opacity="0" result="BackgroundImageFix"/>
<feColorMatrix in="SourceAlpha" type="matrix" values="0 0 0 0 0 0 0 0 0 0 0 0 0 0 0 0 0 0 127 0"/>
<feMorphology radius="7.16057" operator="dilate" in="SourceAlpha" result="effect1_dropShadow"/>
<feOffset dy="20.5866"/>
<feGaussianBlur stdDeviation="13.4261"/>
<feColorMatrix type="matrix" values="0 0 0 0 0 0 0 0 0 0.0876457 0 0 0 0 0.391667 0 0 0 0.05 0"/>
<feBlend mode="normal" in2="BackgroundImageFix" result="effect1_dropShadow"/>
<feColorMatrix in="SourceAlpha" type="matrix" values="0 0 0 0 0 0 0 0 0 0 0 0 0 0 0 0 0 0 127 0"/>
<feOffset dy="42.0684"/>
<feGaussianBlur stdDeviation="2.68521"/>
<feColorMatrix type="matrix" values="0 0 0 0 0.121569 0 0 0 0 0.247059 0 0 0 0 0.682353 0 0 0 0.02 0"/>
<feBlend mode="normal" in2="effect1_dropShadow" result="effect2_dropShadow"/>
<feColorMatrix in="SourceAlpha" type="matrix" values="0 0 0 0 0 0 0 0 0 0 0 0 0 0 0 0 0 0 127 0"/>
<feOffset dy="51.0191"/>
<feGaussianBlur stdDeviation="8.95072"/>
<feColorMatrix type="matrix" values="0 0 0 0 0.121569 0 0 0 0 0.247059 0 0 0 0 0.682353 0 0 0 0.02 0"/>
<feBlend mode="normal" in2="effect2_dropShadow" result="effect3_dropShadow"/>
<feBlend mode="normal" in="SourceGraphic" in2="effect3_dropShadow" result="shape"/>
</filter>
<filter id="filter1_ddd" x="171.643" y="0.688306" width="209.938" height="229.059" filterUnits="userSpaceOnUse" color-interpolation-filters="sRGB">
<feFlood flood-opacity="0" result="BackgroundImageFix"/>
<feColorMatrix in="SourceAlpha" type="matrix" values="0 0 0 0 0 0 0 0 0 0 0 0 0 0 0 0 0 0 127 0"/>
<feMorphology radius="7.16057" operator="dilate" in="SourceAlpha" result="effect1_dropShadow"/>
<feOffset dy="20.5866"/>
<feGaussianBlur stdDeviation="13.4261"/>
<feColorMatrix type="matrix" values="0 0 0 0 0 0 0 0 0 0.0876457 0 0 0 0 0.391667 0 0 0 0.05 0"/>
<feBlend mode="normal" in2="BackgroundImageFix" result="effect1_dropShadow"/>
<feColorMatrix in="SourceAlpha" type="matrix" values="0 0 0 0 0 0 0 0 0 0 0 0 0 0 0 0 0 0 127 0"/>
<feOffset dy="42.0684"/>
<feGaussianBlur stdDeviation="2.68521"/>
<feColorMatrix type="matrix" values="0 0 0 0 0.121569 0 0 0 0 0.247059 0 0 0 0 0.682353 0 0 0 0.02 0"/>
<feBlend mode="normal" in2="effect1_dropShadow" result="effect2_dropShadow"/>
<feColorMatrix in="SourceAlpha" type="matrix" values="0 0 0 0 0 0 0 0 0 0 0 0 0 0 0 0 0 0 127 0"/>
<feOffset dy="51.0191"/>
<feGaussianBlur stdDeviation="8.95072"/>
<feColorMatrix type="matrix" values="0 0 0 0 0.121569 0 0 0 0 0.247059 0 0 0 0 0.682353 0 0 0 0.02 0"/>
<feBlend mode="normal" in2="effect2_dropShadow" result="effect3_dropShadow"/>
<feBlend mode="normal" in="SourceGraphic" in2="effect3_dropShadow" result="shape"/>
</filter>
<filter id="filter2_ddd" x="171.643" y="207.077" width="209.938" height="229.059" filterUnits="userSpaceOnUse" color-interpolation-filters="sRGB">
<feFlood flood-opacity="0" result="BackgroundImageFix"/>
<feColorMatrix in="SourceAlpha" type="matrix" values="0 0 0 0 0 0 0 0 0 0 0 0 0 0 0 0 0 0 127 0"/>
<feMorphology radius="7.16057" operator="dilate" in="SourceAlpha" result="effect1_dropShadow"/>
<feOffset dy="20.5866"/>
<feGaussianBlur stdDeviation="13.4261"/>
<feColorMatrix type="matrix" values="0 0 0 0 0 0 0 0 0 0.0876457 0 0 0 0 0.391667 0 0 0 0.05 0"/>
<feBlend mode="normal" in2="BackgroundImageFix" result="effect1_dropShadow"/>
<feColorMatrix in="SourceAlpha" type="matrix" values="0 0 0 0 0 0 0 0 0 0 0 0 0 0 0 0 0 0 127 0"/>
<feOffset dy="42.0684"/>
<feGaussianBlur stdDeviation="2.68521"/>
<feColorMatrix type="matrix" values="0 0 0 0 0.121569 0 0 0 0 0.247059 0 0 0 0 0.682353 0 0 0 0.02 0"/>
<feBlend mode="normal" in2="effect1_dropShadow" result="effect2_dropShadow"/>
<feColorMatrix in="SourceAlpha" type="matrix" values="0 0 0 0 0 0 0 0 0 0 0 0 0 0 0 0 0 0 127 0"/>
<feOffset dy="51.0191"/>
<feGaussianBlur stdDeviation="8.95072"/>
<feColorMatrix type="matrix" values="0 0 0 0 0.121569 0 0 0 0 0.247059 0 0 0 0 0.682353 0 0 0 0.02 0"/>
<feBlend mode="normal" in2="effect2_dropShadow" result="effect3_dropShadow"/>
<feBlend mode="normal" in="SourceGraphic" in2="effect3_dropShadow" result="shape"/>
</filter>
<filter id="filter3_ddd" x="0.0678434" y="367.537" width="180.503" height="181.434" filterUnits="userSpaceOnUse" color-interpolation-filters="sRGB">
<feFlood flood-opacity="0" result="BackgroundImageFix"/>
<feColorMatrix in="SourceAlpha" type="matrix" values="0 0 0 0 0 0 0 0 0 0 0 0 0 0 0 0 0 0 127 0"/>
<feMorphology radius="7.16057" operator="dilate" in="SourceAlpha" result="effect1_dropShadow"/>
<feOffset dy="20.5866"/>
<feGaussianBlur stdDeviation="13.4261"/>
<feColorMatrix type="matrix" values="0 0 0 0 0 0 0 0 0 0.0876457 0 0 0 0 0.391667 0 0 0 0.05 0"/>
<feBlend mode="normal" in2="BackgroundImageFix" result="effect1_dropShadow"/>
<feColorMatrix in="SourceAlpha" type="matrix" values="0 0 0 0 0 0 0 0 0 0 0 0 0 0 0 0 0 0 127 0"/>
<feOffset dy="42.0684"/>
<feGaussianBlur stdDeviation="2.68521"/>
<feColorMatrix type="matrix" values="0 0 0 0 0.121569 0 0 0 0 0.247059 0 0 0 0 0.682353 0 0 0 0.02 0"/>
<feBlend mode="normal" in2="effect1_dropShadow" result="effect2_dropShadow"/>
<feColorMatrix in="SourceAlpha" type="matrix" values="0 0 0 0 0 0 0 0 0 0 0 0 0 0 0 0 0 0 127 0"/>
<feOffset dy="51.0191"/>
<feGaussianBlur stdDeviation="8.95072"/>
<feColorMatrix type="matrix" values="0 0 0 0 0.121569 0 0 0 0 0.247059 0 0 0 0 0.682353 0 0 0 0.02 0"/>
<feBlend mode="normal" in2="effect2_dropShadow" result="effect3_dropShadow"/>
<feBlend mode="normal" in="SourceGraphic" in2="effect3_dropShadow" result="shape"/>
</filter>
<filter id="filter4_ddd" x="186.361" y="430.808" width="180.503" height="181.434" filterUnits="userSpaceOnUse" color-interpolation-filters="sRGB">
<feFlood flood-opacity="0" result="BackgroundImageFix"/>
<feColorMatrix in="SourceAlpha" type="matrix" values="0 0 0 0 0 0 0 0 0 0 0 0 0 0 0 0 0 0 127 0"/>
<feMorphology radius="7.16057" operator="dilate" in="SourceAlpha" result="effect1_dropShadow"/>
<feOffset dy="20.5866"/>
<feGaussianBlur stdDeviation="13.4261"/>
<feColorMatrix type="matrix" values="0 0 0 0 0 0 0 0 0 0.0876457 0 0 0 0 0.391667 0 0 0 0.05 0"/>
<feBlend mode="normal" in2="BackgroundImageFix" result="effect1_dropShadow"/>
<feColorMatrix in="SourceAlpha" type="matrix" values="0 0 0 0 0 0 0 0 0 0 0 0 0 0 0 0 0 0 127 0"/>
<feOffset dy="42.0684"/>
<feGaussianBlur stdDeviation="2.68521"/>
<feColorMatrix type="matrix" values="0 0 0 0 0.121569 0 0 0 0 0.247059 0 0 0 0 0.682353 0 0 0 0.02 0"/>
<feBlend mode="normal" in2="effect1_dropShadow" result="effect2_dropShadow"/>
<feColorMatrix in="SourceAlpha" type="matrix" values="0 0 0 0 0 0 0 0 0 0 0 0 0 0 0 0 0 0 127 0"/>
<feOffset dy="51.0191"/>
<feGaussianBlur stdDeviation="8.95072"/>
<feColorMatrix type="matrix" values="0 0 0 0 0.121569 0 0 0 0 0.247059 0 0 0 0 0.682353 0 0 0 0.02 0"/>
<feBlend mode="normal" in2="effect2_dropShadow" result="effect3_dropShadow"/>
<feBlend mode="normal" in="SourceGraphic" in2="effect3_dropShadow" result="shape"/>
</filter>
<filter id="filter5_ddd" x="0.0697966" y="133.544" width="180.503" height="181.434" filterUnits="userSpaceOnUse" color-interpolation-filters="sRGB">
<feFlood flood-opacity="0" result="BackgroundImageFix"/>
<feColorMatrix in="SourceAlpha" type="matrix" values="0 0 0 0 0 0 0 0 0 0 0 0 0 0 0 0 0 0 127 0"/>
<feMorphology radius="7.16057" operator="dilate" in="SourceAlpha" result="effect1_dropShadow"/>
<feOffset dy="20.5866"/>
<feGaussianBlur stdDeviation="13.4261"/>
<feColorMatrix type="matrix" values="0 0 0 0 0 0 0 0 0 0.0876457 0 0 0 0 0.391667 0 0 0 0.05 0"/>
<feBlend mode="normal" in2="BackgroundImageFix" result="effect1_dropShadow"/>
<feColorMatrix in="SourceAlpha" type="matrix" values="0 0 0 0 0 0 0 0 0 0 0 0 0 0 0 0 0 0 127 0"/>
<feOffset dy="42.0684"/>
<feGaussianBlur stdDeviation="2.68521"/>
<feColorMatrix type="matrix" values="0 0 0 0 0.121569 0 0 0 0 0.247059 0 0 0 0 0.682353 0 0 0 0.02 0"/>
<feBlend mode="normal" in2="effect1_dropShadow" result="effect2_dropShadow"/>
<feColorMatrix in="SourceAlpha" type="matrix" values="0 0 0 0 0 0 0 0 0 0 0 0 0 0 0 0 0 0 127 0"/>
<feOffset dy="51.0191"/>
<feGaussianBlur stdDeviation="8.95072"/>
<feColorMatrix type="matrix" values="0 0 0 0 0.121569 0 0 0 0 0.247059 0 0 0 0 0.682353 0 0 0 0.02 0"/>
<feBlend mode="normal" in2="effect2_dropShadow" result="effect3_dropShadow"/>
<feBlend mode="normal" in="SourceGraphic" in2="effect3_dropShadow" result="shape"/>
</filter>
<filter id="filter6_ddd" x="269.7" y="64.1787" width="159.674" height="177.207" filterUnits="userSpaceOnUse" color-interpolation-filters="sRGB">
<feFlood flood-opacity="0" result="BackgroundImageFix"/>
<feColorMatrix in="SourceAlpha" type="matrix" values="0 0 0 0 0 0 0 0 0 0 0 0 0 0 0 0 0 0 127 0"/>
<feMorphology radius="7.16057" operator="dilate" in="SourceAlpha" result="effect1_dropShadow"/>
<feOffset dy="20.5866"/>
<feGaussianBlur stdDeviation="13.4261"/>
<feColorMatrix type="matrix" values="0 0 0 0 0 0 0 0 0 0.0876457 0 0 0 0 0.391667 0 0 0 0.05 0"/>
<feBlend mode="normal" in2="BackgroundImageFix" result="effect1_dropShadow"/>
<feColorMatrix in="SourceAlpha" type="matrix" values="0 0 0 0 0 0 0 0 0 0 0 0 0 0 0 0 0 0 127 0"/>
<feOffset dy="42.0684"/>
<feGaussianBlur stdDeviation="2.68521"/>
<feColorMatrix type="matrix" values="0 0 0 0 0.121569 0 0 0 0 0.247059 0 0 0 0 0.682353 0 0 0 0.02 0"/>
<feBlend mode="normal" in2="effect1_dropShadow" result="effect2_dropShadow"/>
<feColorMatrix in="SourceAlpha" type="matrix" values="0 0 0 0 0 0 0 0 0 0 0 0 0 0 0 0 0 0 127 0"/>
<feOffset dy="51.0191"/>
<feGaussianBlur stdDeviation="8.95072"/>
<feColorMatrix type="matrix" values="0 0 0 0 0.121569 0 0 0 0 0.247059 0 0 0 0 0.682353 0 0 0 0.02 0"/>
<feBlend mode="normal" in2="effect2_dropShadow" result="effect3_dropShadow"/>
<feBlend mode="normal" in="SourceGraphic" in2="effect3_dropShadow" result="shape"/>
</filter>
<filter id="filter7_ddd" x="19.9819" y="303.999" width="140.68" height="146.226" filterUnits="userSpaceOnUse" color-interpolation-filters="sRGB">
<feFlood flood-opacity="0" result="BackgroundImageFix"/>
<feColorMatrix in="SourceAlpha" type="matrix" values="0 0 0 0 0 0 0 0 0 0 0 0 0 0 0 0 0 0 127 0"/>
<feMorphology radius="7.16057" operator="dilate" in="SourceAlpha" result="effect1_dropShadow"/>
<feOffset dy="20.5866"/>
<feGaussianBlur stdDeviation="13.4261"/>
<feColorMatrix type="matrix" values="0 0 0 0 0 0 0 0 0 0.0876457 0 0 0 0 0.391667 0 0 0 0.05 0"/>
<feBlend mode="normal" in2="BackgroundImageFix" result="effect1_dropShadow"/>
<feColorMatrix in="SourceAlpha" type="matrix" values="0 0 0 0 0 0 0 0 0 0 0 0 0 0 0 0 0 0 127 0"/>
<feOffset dy="42.0684"/>
<feGaussianBlur stdDeviation="2.68521"/>
<feColorMatrix type="matrix" values="0 0 0 0 0.121569 0 0 0 0 0.247059 0 0 0 0 0.682353 0 0 0 0.02 0"/>
<feBlend mode="normal" in2="effect1_dropShadow" result="effect2_dropShadow"/>
<feColorMatrix in="SourceAlpha" type="matrix" values="0 0 0 0 0 0 0 0 0 0 0 0 0 0 0 0 0 0 127 0"/>
<feOffset dy="51.0191"/>
<feGaussianBlur stdDeviation="8.95072"/>
<feColorMatrix type="matrix" values="0 0 0 0 0.121569 0 0 0 0 0.247059 0 0 0 0 0.682353 0 0 0 0.02 0"/>
<feBlend mode="normal" in2="effect2_dropShadow" result="effect3_dropShadow"/>
<feBlend mode="normal" in="SourceGraphic" in2="effect3_dropShadow" result="shape"/>
</filter>
<filter id="filter8_ddd" x="124.556" y="394.134" width="159.674" height="177.207" filterUnits="userSpaceOnUse" color-interpolation-filters="sRGB">
<feFlood flood-opacity="0" result="BackgroundImageFix"/>
<feColorMatrix in="SourceAlpha" type="matrix" values="0 0 0 0 0 0 0 0 0 0 0 0 0 0 0 0 0 0 127 0"/>
<feMorphology radius="7.16057" operator="dilate" in="SourceAlpha" result="effect1_dropShadow"/>
<feOffset dy="20.5866"/>
<feGaussianBlur stdDeviation="13.4261"/>
<feColorMatrix type="matrix" values="0 0 0 0 0 0 0 0 0 0.0876457 0 0 0 0 0.391667 0 0 0 0.05 0"/>
<feBlend mode="normal" in2="BackgroundImageFix" result="effect1_dropShadow"/>
<feColorMatrix in="SourceAlpha" type="matrix" values="0 0 0 0 0 0 0 0 0 0 0 0 0 0 0 0 0 0 127 0"/>
<feOffset dy="42.0684"/>
<feGaussianBlur stdDeviation="2.68521"/>
<feColorMatrix type="matrix" values="0 0 0 0 0.121569 0 0 0 0 0.247059 0 0 0 0 0.682353 0 0 0 0.02 0"/>
<feBlend mode="normal" in2="effect1_dropShadow" result="effect2_dropShadow"/>
<feColorMatrix in="SourceAlpha" type="matrix" values="0 0 0 0 0 0 0 0 0 0 0 0 0 0 0 0 0 0 127 0"/>
<feOffset dy="51.0191"/>
<feGaussianBlur stdDeviation="8.95072"/>
<feColorMatrix type="matrix" values="0 0 0 0 0.121569 0 0 0 0 0.247059 0 0 0 0 0.682353 0 0 0 0.02 0"/>
<feBlend mode="normal" in2="effect2_dropShadow" result="effect3_dropShadow"/>
<feBlend mode="normal" in="SourceGraphic" in2="effect3_dropShadow" result="shape"/>
</filter>
<filter id="filter9_ddd" x="392.563" y="233.004" width="140.68" height="146.226" filterUnits="userSpaceOnUse" color-interpolation-filters="sRGB">
<feFlood flood-opacity="0" result="BackgroundImageFix"/>
<feColorMatrix in="SourceAlpha" type="matrix" values="0 0 0 0 0 0 0 0 0 0 0 0 0 0 0 0 0 0 127 0"/>
<feMorphology radius="7.16057" operator="dilate" in="SourceAlpha" result="effect1_dropShadow"/>
<feOffset dy="20.5866"/>
<feGaussianBlur stdDeviation="13.4261"/>
<feColorMatrix type="matrix" values="0 0 0 0 0 0 0 0 0 0.0876457 0 0 0 0 0.391667 0 0 0 0.05 0"/>
<feBlend mode="normal" in2="BackgroundImageFix" result="effect1_dropShadow"/>
<feColorMatrix in="SourceAlpha" type="matrix" values="0 0 0 0 0 0 0 0 0 0 0 0 0 0 0 0 0 0 127 0"/>
<feOffset dy="42.0684"/>
<feGaussianBlur stdDeviation="2.68521"/>
<feColorMatrix type="matrix" values="0 0 0 0 0.121569 0 0 0 0 0.247059 0 0 0 0 0.682353 0 0 0 0.02 0"/>
<feBlend mode="normal" in2="effect1_dropShadow" result="effect2_dropShadow"/>
<feColorMatrix in="SourceAlpha" type="matrix" values="0 0 0 0 0 0 0 0 0 0 0 0 0 0 0 0 0 0 127 0"/>
<feOffset dy="51.0191"/>
<feGaussianBlur stdDeviation="8.95072"/>
<feColorMatrix type="matrix" values="0 0 0 0 0.121569 0 0 0 0 0.247059 0 0 0 0 0.682353 0 0 0 0.02 0"/>
<feBlend mode="normal" in2="effect2_dropShadow" result="effect3_dropShadow"/>
<feBlend mode="normal" in="SourceGraphic" in2="effect3_dropShadow" result="shape"/>
</filter>
<filter id="filter10_ddd" x="372.652" y="133.543" width="180.503" height="181.434" filterUnits="userSpaceOnUse" color-interpolation-filters="sRGB">
<feFlood flood-opacity="0" result="BackgroundImageFix"/>
<feColorMatrix in="SourceAlpha" type="matrix" values="0 0 0 0 0 0 0 0 0 0 0 0 0 0 0 0 0 0 127 0"/>
<feMorphology radius="7.16057" operator="dilate" in="SourceAlpha" result="effect1_dropShadow"/>
<feOffset dy="20.5866"/>
<feGaussianBlur stdDeviation="13.4261"/>
<feColorMatrix type="matrix" values="0 0 0 0 0 0 0 0 0 0.0876457 0 0 0 0 0.391667 0 0 0 0.05 0"/>
<feBlend mode="normal" in2="BackgroundImageFix" result="effect1_dropShadow"/>
<feColorMatrix in="SourceAlpha" type="matrix" values="0 0 0 0 0 0 0 0 0 0 0 0 0 0 0 0 0 0 127 0"/>
<feOffset dy="42.0684"/>
<feGaussianBlur stdDeviation="2.68521"/>
<feColorMatrix type="matrix" values="0 0 0 0 0.121569 0 0 0 0 0.247059 0 0 0 0 0.682353 0 0 0 0.02 0"/>
<feBlend mode="normal" in2="effect1_dropShadow" result="effect2_dropShadow"/>
<feColorMatrix in="SourceAlpha" type="matrix" values="0 0 0 0 0 0 0 0 0 0 0 0 0 0 0 0 0 0 127 0"/>
<feOffset dy="51.0191"/>
<feGaussianBlur stdDeviation="8.95072"/>
<feColorMatrix type="matrix" values="0 0 0 0 0.121569 0 0 0 0 0.247059 0 0 0 0 0.682353 0 0 0 0.02 0"/>
<feBlend mode="normal" in2="effect2_dropShadow" result="effect3_dropShadow"/>
<feBlend mode="normal" in="SourceGraphic" in2="effect3_dropShadow" result="shape"/>
</filter>
<filter id="filter11_ddd" x="375.336" y="367.535" width="180.503" height="181.434" filterUnits="userSpaceOnUse" color-interpolation-filters="sRGB">
<feFlood flood-opacity="0" result="BackgroundImageFix"/>
<feColorMatrix in="SourceAlpha" type="matrix" values="0 0 0 0 0 0 0 0 0 0 0 0 0 0 0 0 0 0 127 0"/>
<feMorphology radius="7.16057" operator="dilate" in="SourceAlpha" result="effect1_dropShadow"/>
<feOffset dy="20.5866"/>
<feGaussianBlur stdDeviation="13.4261"/>
<feColorMatrix type="matrix" values="0 0 0 0 0 0 0 0 0 0.0876457 0 0 0 0 0.391667 0 0 0 0.05 0"/>
<feBlend mode="normal" in2="BackgroundImageFix" result="effect1_dropShadow"/>
<feColorMatrix in="SourceAlpha" type="matrix" values="0 0 0 0 0 0 0 0 0 0 0 0 0 0 0 0 0 0 127 0"/>
<feOffset dy="42.0684"/>
<feGaussianBlur stdDeviation="2.68521"/>
<feColorMatrix type="matrix" values="0 0 0 0 0.121569 0 0 0 0 0.247059 0 0 0 0 0.682353 0 0 0 0.02 0"/>
<feBlend mode="normal" in2="effect1_dropShadow" result="effect2_dropShadow"/>
<feColorMatrix in="SourceAlpha" type="matrix" values="0 0 0 0 0 0 0 0 0 0 0 0 0 0 0 0 0 0 127 0"/>
<feOffset dy="51.0191"/>
<feGaussianBlur stdDeviation="8.95072"/>
<feColorMatrix type="matrix" values="0 0 0 0 0.121569 0 0 0 0 0.247059 0 0 0 0 0.682353 0 0 0 0.02 0"/>
<feBlend mode="normal" in2="effect2_dropShadow" result="effect3_dropShadow"/>
<feBlend mode="normal" in="SourceGraphic" in2="effect3_dropShadow" result="shape"/>
</filter>
<linearGradient id="paint0_linear" x1="326.156" y1="116.075" x2="248.811" y2="135.624" gradientUnits="userSpaceOnUse">
<stop stop-color="#0B53DE"/>
<stop offset="1" stop-color="#3DD7D9"/>
</linearGradient>
<linearGradient id="paint1_linear" x1="326.156" y1="322.463" x2="248.811" y2="342.012" gradientUnits="userSpaceOnUse">
<stop stop-color="#0B53DE"/>
<stop offset="1" stop-color="#3DD7D9"/>
</linearGradient>
<linearGradient id="paint2_linear" x1="444.105" y1="426.926" x2="487.069" y2="426.926" gradientUnits="userSpaceOnUse">
<stop stop-color="#16D9E3"/>
<stop offset="0.47" stop-color="#30C7EC"/>
<stop offset="1" stop-color="#46AEF7"/>
</linearGradient>
<linearGradient id="paint3_linear" x1="444.105" y1="426.926" x2="487.069" y2="426.926" gradientUnits="userSpaceOnUse">
<stop stop-color="#16D9E3"/>
<stop offset="0.47" stop-color="#30C7EC"/>
<stop offset="1" stop-color="#46AEF7"/>
</linearGradient>
<linearGradient id="paint4_linear" x1="444.105" y1="426.926" x2="487.069" y2="426.926" gradientUnits="userSpaceOnUse">
<stop stop-color="#16D9E3"/>
<stop offset="0.47" stop-color="#30C7EC"/>
<stop offset="1" stop-color="#46AEF7"/>
</linearGradient>
<linearGradient id="paint5_linear" x1="444.105" y1="426.926" x2="487.069" y2="426.926" gradientUnits="userSpaceOnUse">
<stop stop-color="#16D9E3"/>
<stop offset="0.47" stop-color="#30C7EC"/>
<stop offset="1" stop-color="#46AEF7"/>
</linearGradient>
<linearGradient id="paint6_linear" x1="444.105" y1="426.926" x2="487.069" y2="426.926" gradientUnits="userSpaceOnUse">
<stop stop-color="#16D9E3"/>
<stop offset="0.47" stop-color="#30C7EC"/>
<stop offset="1" stop-color="#46AEF7"/>
</linearGradient>
<linearGradient id="paint7_linear" x1="444.105" y1="426.926" x2="487.069" y2="426.926" gradientUnits="userSpaceOnUse">
<stop stop-color="#16D9E3"/>
<stop offset="0.47" stop-color="#30C7EC"/>
<stop offset="1" stop-color="#46AEF7"/>
</linearGradient>
<linearGradient id="paint8_linear" x1="444.105" y1="426.926" x2="487.069" y2="426.926" gradientUnits="userSpaceOnUse">
<stop stop-color="#16D9E3"/>
<stop offset="0.47" stop-color="#30C7EC"/>
<stop offset="1" stop-color="#46AEF7"/>
</linearGradient>
<linearGradient id="paint9_linear" x1="68.8396" y1="192.933" x2="111.803" y2="192.933" gradientUnits="userSpaceOnUse">
<stop stop-color="#89F7FE"/>
<stop offset="1" stop-color="#66A6FF"/>
</linearGradient>
<linearGradient id="paint10_linear" x1="68.8396" y1="192.933" x2="111.803" y2="192.933" gradientUnits="userSpaceOnUse">
<stop stop-color="#89F7FE"/>
<stop offset="1" stop-color="#66A6FF"/>
</linearGradient>
<linearGradient id="paint11_linear" x1="68.8396" y1="192.933" x2="111.803" y2="192.933" gradientUnits="userSpaceOnUse">
<stop stop-color="#89F7FE"/>
<stop offset="1" stop-color="#66A6FF"/>
</linearGradient>
<linearGradient id="paint12_linear" x1="68.8396" y1="192.933" x2="111.803" y2="192.933" gradientUnits="userSpaceOnUse">
<stop stop-color="#89F7FE"/>
<stop offset="1" stop-color="#66A6FF"/>
</linearGradient>
<linearGradient id="paint13_linear" x1="68.8396" y1="192.933" x2="111.803" y2="192.933" gradientUnits="userSpaceOnUse">
<stop stop-color="#89F7FE"/>
<stop offset="1" stop-color="#66A6FF"/>
</linearGradient>
<linearGradient id="paint14_linear" x1="68.8396" y1="192.933" x2="111.803" y2="192.933" gradientUnits="userSpaceOnUse">
<stop stop-color="#89F7FE"/>
<stop offset="1" stop-color="#66A6FF"/>
</linearGradient>
<linearGradient id="paint15_linear" x1="68.8396" y1="192.933" x2="111.803" y2="192.933" gradientUnits="userSpaceOnUse">
<stop stop-color="#89F7FE"/>
<stop offset="1" stop-color="#66A6FF"/>
</linearGradient>
<linearGradient id="paint16_linear" x1="441.422" y1="192.933" x2="484.385" y2="192.933" gradientUnits="userSpaceOnUse">
<stop stop-color="#E0C3FC"/>
<stop offset="1" stop-color="#8EC5FC"/>
</linearGradient>
<linearGradient id="paint17_linear" x1="441.422" y1="192.933" x2="484.385" y2="192.933" gradientUnits="userSpaceOnUse">
<stop stop-color="#E0C3FC"/>
<stop offset="1" stop-color="#8EC5FC"/>
</linearGradient>
<linearGradient id="paint18_linear" x1="441.422" y1="192.933" x2="484.385" y2="192.933" gradientUnits="userSpaceOnUse">
<stop stop-color="#E0C3FC"/>
<stop offset="1" stop-color="#8EC5FC"/>
</linearGradient>
<linearGradient id="paint19_linear" x1="441.422" y1="192.933" x2="484.385" y2="192.933" gradientUnits="userSpaceOnUse">
<stop stop-color="#E0C3FC"/>
<stop offset="1" stop-color="#8EC5FC"/>
</linearGradient>
<linearGradient id="paint20_linear" x1="441.422" y1="192.933" x2="484.385" y2="192.933" gradientUnits="userSpaceOnUse">
<stop stop-color="#E0C3FC"/>
<stop offset="1" stop-color="#8EC5FC"/>
</linearGradient>
<linearGradient id="paint21_linear" x1="441.422" y1="192.933" x2="484.385" y2="192.933" gradientUnits="userSpaceOnUse">
<stop stop-color="#E0C3FC"/>
<stop offset="1" stop-color="#8EC5FC"/>
</linearGradient>
<linearGradient id="paint22_linear" x1="441.422" y1="192.933" x2="484.385" y2="192.933" gradientUnits="userSpaceOnUse">
<stop stop-color="#E0C3FC"/>
<stop offset="1" stop-color="#8EC5FC"/>
</linearGradient>
<linearGradient id="paint23_linear" x1="68.8386" y1="426.926" x2="111.802" y2="426.926" gradientUnits="userSpaceOnUse">
<stop stop-color="#2AF598"/>
<stop offset="1" stop-color="#009EFD"/>
</linearGradient>
<linearGradient id="paint24_linear" x1="68.8386" y1="426.926" x2="111.802" y2="426.926" gradientUnits="userSpaceOnUse">
<stop stop-color="#2AF598"/>
<stop offset="1" stop-color="#009EFD"/>
</linearGradient>
<linearGradient id="paint25_linear" x1="68.8386" y1="426.926" x2="111.802" y2="426.926" gradientUnits="userSpaceOnUse">
<stop stop-color="#2AF598"/>
<stop offset="1" stop-color="#009EFD"/>
</linearGradient>
<linearGradient id="paint26_linear" x1="68.8386" y1="426.926" x2="111.802" y2="426.926" gradientUnits="userSpaceOnUse">
<stop stop-color="#2AF598"/>
<stop offset="1" stop-color="#009EFD"/>
</linearGradient>
<linearGradient id="paint27_linear" x1="68.8386" y1="426.926" x2="111.802" y2="426.926" gradientUnits="userSpaceOnUse">
<stop stop-color="#2AF598"/>
<stop offset="1" stop-color="#009EFD"/>
</linearGradient>
<linearGradient id="paint28_linear" x1="68.8386" y1="426.926" x2="111.802" y2="426.926" gradientUnits="userSpaceOnUse">
<stop stop-color="#2AF598"/>
<stop offset="1" stop-color="#009EFD"/>
</linearGradient>
<linearGradient id="paint29_linear" x1="68.8386" y1="426.926" x2="111.802" y2="426.926" gradientUnits="userSpaceOnUse">
<stop stop-color="#2AF598"/>
<stop offset="1" stop-color="#009EFD"/>
</linearGradient>
<linearGradient id="paint30_linear" x1="255.13" y1="490.198" x2="298.094" y2="490.198" gradientUnits="userSpaceOnUse">
<stop stop-color="#48C6EF"/>
<stop offset="1" stop-color="#6F86D6"/>
</linearGradient>
<linearGradient id="paint31_linear" x1="255.13" y1="490.198" x2="298.094" y2="490.198" gradientUnits="userSpaceOnUse">
<stop stop-color="#48C6EF"/>
<stop offset="1" stop-color="#6F86D6"/>
</linearGradient>
<linearGradient id="paint32_linear" x1="255.13" y1="490.198" x2="298.094" y2="490.198" gradientUnits="userSpaceOnUse">
<stop stop-color="#48C6EF"/>
<stop offset="1" stop-color="#6F86D6"/>
</linearGradient>
<linearGradient id="paint33_linear" x1="255.13" y1="490.198" x2="298.094" y2="490.198" gradientUnits="userSpaceOnUse">
<stop stop-color="#48C6EF"/>
<stop offset="1" stop-color="#6F86D6"/>
</linearGradient>
<linearGradient id="paint34_linear" x1="255.13" y1="490.198" x2="298.094" y2="490.198" gradientUnits="userSpaceOnUse">
<stop stop-color="#48C6EF"/>
<stop offset="1" stop-color="#6F86D6"/>
</linearGradient>
<linearGradient id="paint35_linear" x1="255.13" y1="490.198" x2="298.094" y2="490.198" gradientUnits="userSpaceOnUse">
<stop stop-color="#48C6EF"/>
<stop offset="1" stop-color="#6F86D6"/>
</linearGradient>
<linearGradient id="paint36_linear" x1="255.13" y1="490.198" x2="298.094" y2="490.198" gradientUnits="userSpaceOnUse">
<stop stop-color="#48C6EF"/>
<stop offset="1" stop-color="#6F86D6"/>
</linearGradient>
</defs>
</svg>
