<svg width="630" height="631" viewBox="0 0 630 631" fill="none" xmlns="http://www.w3.org/2000/svg">
<g filter="url(#filter0_ddd)">
<path d="M370.606 488.281C369.928 487.107 369.928 485.661 370.606 484.486L387.314 455.546C387.992 454.371 389.245 453.648 390.601 453.648H424.019C425.375 453.648 426.628 454.371 427.305 455.546L444.014 484.486C444.692 485.661 444.692 487.107 444.014 488.281L427.305 517.222C426.628 518.396 425.375 519.12 424.019 519.12H390.601C389.245 519.12 387.992 518.396 387.314 517.222L370.606 488.281Z" fill="#5D78CF"/>
</g>
<path d="M554.928 227.249V229.776H559.009V231.979H554.928V234.66H559.522V237H552.008V224.926H559.522V227.249H554.928ZM564.971 227.351C565.7 227.351 566.326 227.516 566.85 227.847C567.373 228.177 567.76 228.626 568.011 229.196V227.471H570.914V237H568.011V235.275C567.76 235.844 567.373 236.294 566.85 236.624C566.326 236.954 565.7 237.12 564.971 237.12C564.186 237.12 563.48 236.926 562.854 236.539C562.239 236.14 561.749 235.571 561.385 234.831C561.032 234.091 560.855 233.226 560.855 232.235C560.855 231.234 561.032 230.368 561.385 229.64C561.749 228.9 562.239 228.336 562.854 227.949C563.48 227.551 564.186 227.351 564.971 227.351ZM565.91 229.913C565.284 229.913 564.778 230.118 564.39 230.528C564.015 230.938 563.827 231.507 563.827 232.235C563.827 232.964 564.015 233.533 564.39 233.943C564.778 234.353 565.284 234.558 565.91 234.558C566.525 234.558 567.026 234.347 567.413 233.926C567.812 233.505 568.011 232.941 568.011 232.235C568.011 231.518 567.812 230.955 567.413 230.545C567.026 230.124 566.525 229.913 565.91 229.913ZM576.016 229.264C576.38 228.683 576.847 228.222 577.416 227.881C577.997 227.539 578.623 227.368 579.294 227.368V230.494H578.458C577.683 230.494 577.08 230.659 576.647 230.989C576.226 231.319 576.016 231.877 576.016 232.662V237H573.095V227.471H576.016V229.264ZM583.608 224.363V237H580.687V224.363H583.608ZM587.998 227.471L590.286 233.311L592.421 227.471H595.648L589.705 241.543H586.495L588.732 236.641L584.736 227.471H587.998ZM559.487 256.797H554.962L554.211 259H551.137L555.56 247.012H558.924L563.347 259H560.239L559.487 256.797ZM558.736 254.577L557.233 250.137L555.713 254.577H558.736ZM567.573 251.264C567.937 250.683 568.404 250.222 568.973 249.881C569.554 249.539 570.18 249.368 570.852 249.368V252.494H570.015C569.241 252.494 568.637 252.659 568.205 252.989C567.784 253.319 567.573 253.877 567.573 254.662V259H564.653V249.471H567.573V251.264ZM575.165 251.264C575.529 250.683 575.996 250.222 576.565 249.881C577.146 249.539 577.772 249.368 578.444 249.368V252.494H577.607C576.833 252.494 576.23 252.659 575.797 252.989C575.376 253.319 575.165 253.877 575.165 254.662V259H572.245V249.471H575.165V251.264ZM579.564 246.79C579.564 246.346 579.723 245.981 580.042 245.697C580.361 245.401 580.782 245.253 581.306 245.253C581.829 245.253 582.251 245.401 582.569 245.697C582.888 245.981 583.047 246.346 583.047 246.79C583.047 247.222 582.888 247.587 582.569 247.883C582.251 248.167 581.829 248.31 581.306 248.31C580.782 248.31 580.361 248.167 580.042 247.883C579.723 247.587 579.564 247.222 579.564 246.79ZM582.757 249.471V259H579.837V249.471H582.757ZM589.35 256.148L591.416 249.471H594.524L591.143 259H587.523L584.141 249.471H587.25L589.35 256.148ZM595.632 246.79C595.632 246.346 595.791 245.981 596.11 245.697C596.429 245.401 596.85 245.253 597.374 245.253C597.897 245.253 598.319 245.401 598.637 245.697C598.956 245.981 599.115 246.346 599.115 246.79C599.115 247.222 598.956 247.587 598.637 247.883C598.319 248.167 597.897 248.31 597.374 248.31C596.85 248.31 596.429 248.167 596.11 247.883C595.791 247.587 595.632 247.222 595.632 246.79ZM598.825 249.471V259H595.905V249.471H598.825ZM607.058 249.368C608.15 249.368 609.016 249.733 609.653 250.461C610.302 251.19 610.627 252.192 610.627 253.467V259H607.706V253.808C607.706 253.171 607.536 252.676 607.194 252.323C606.864 251.958 606.42 251.776 605.862 251.776C605.27 251.776 604.798 251.964 604.445 252.34C604.103 252.716 603.932 253.251 603.932 253.945V259H601.012V249.471H603.932V251.213C604.206 250.643 604.61 250.194 605.145 249.864C605.691 249.533 606.329 249.368 607.058 249.368ZM616.344 249.351C617.072 249.351 617.699 249.516 618.222 249.847C618.746 250.177 619.133 250.626 619.384 251.196V249.471H622.287V258.949C622.287 259.837 622.116 260.634 621.774 261.34C621.433 262.057 620.909 262.626 620.203 263.047C619.497 263.469 618.621 263.679 617.573 263.679C616.139 263.679 614.989 263.338 614.124 262.655C613.27 261.983 612.758 261.066 612.587 259.905H615.473C615.564 260.292 615.769 260.594 616.088 260.81C616.418 261.027 616.845 261.135 617.368 261.135C617.972 261.135 618.456 260.958 618.82 260.605C619.196 260.264 619.384 259.712 619.384 258.949V257.275C619.133 257.844 618.746 258.294 618.222 258.624C617.699 258.954 617.072 259.12 616.344 259.12C615.558 259.12 614.852 258.926 614.226 258.539C613.611 258.14 613.122 257.571 612.758 256.831C612.405 256.091 612.228 255.226 612.228 254.235C612.228 253.234 612.405 252.368 612.758 251.64C613.122 250.9 613.611 250.336 614.226 249.949C614.852 249.551 615.558 249.351 616.344 249.351ZM617.283 251.913C616.657 251.913 616.15 252.118 615.763 252.528C615.388 252.938 615.2 253.507 615.2 254.235C615.2 254.964 615.388 255.533 615.763 255.943C616.15 256.353 616.657 256.558 617.283 256.558C617.898 256.558 618.399 256.347 618.786 255.926C619.184 255.505 619.384 254.941 619.384 254.235C619.384 253.518 619.184 252.955 618.786 252.545C618.399 252.124 617.898 251.913 617.283 251.913ZM568.419 268.926L565.533 281H561.912L559.983 272.922L558.036 281H554.415L551.529 268.926H554.706L556.26 277.67L558.377 268.926H561.571L563.688 277.67L565.26 268.926H568.419ZM569.85 268.79C569.85 268.346 570.009 267.981 570.328 267.697C570.647 267.401 571.068 267.253 571.592 267.253C572.115 267.253 572.536 267.401 572.855 267.697C573.174 267.981 573.333 268.346 573.333 268.79C573.333 269.222 573.174 269.587 572.855 269.883C572.536 270.167 572.115 270.31 571.592 270.31C571.068 270.31 570.647 270.167 570.328 269.883C570.009 269.587 569.85 269.222 569.85 268.79ZM573.043 271.471V281H570.123V271.471H573.043ZM578.15 273.264C578.515 272.683 578.981 272.222 579.551 271.881C580.131 271.539 580.757 271.368 581.429 271.368V274.494H580.592C579.818 274.494 579.215 274.659 578.782 274.989C578.361 275.319 578.15 275.877 578.15 276.662V281H575.23V271.471H578.15V273.264ZM591.873 275.979C591.873 276.218 591.845 276.48 591.788 276.765H585.179C585.213 277.482 585.395 278 585.725 278.319C586.055 278.626 586.477 278.78 586.989 278.78C587.422 278.78 587.78 278.672 588.065 278.455C588.349 278.239 588.537 277.96 588.628 277.619H591.719C591.594 278.29 591.321 278.894 590.9 279.429C590.478 279.953 589.943 280.368 589.294 280.676C588.645 280.972 587.923 281.12 587.126 281.12C586.192 281.12 585.361 280.926 584.632 280.539C583.915 280.14 583.352 279.571 582.942 278.831C582.532 278.091 582.327 277.226 582.327 276.235C582.327 275.234 582.526 274.368 582.925 273.64C583.334 272.9 583.904 272.336 584.632 271.949C585.361 271.551 586.192 271.351 587.126 271.351C588.071 271.351 588.902 271.545 589.619 271.932C590.336 272.319 590.888 272.866 591.275 273.571C591.674 274.266 591.873 275.068 591.873 275.979ZM588.919 275.535C588.93 274.909 588.759 274.442 588.406 274.135C588.065 273.816 587.638 273.657 587.126 273.657C586.591 273.657 586.147 273.816 585.794 274.135C585.441 274.454 585.241 274.92 585.196 275.535H588.919Z" fill="white"/>
<g filter="url(#filter1_ddd)">
<path d="M310.274 39.4297C312.986 39.4297 315.491 40.8763 316.847 43.2247L341.782 86.4131C343.138 88.7614 343.138 91.6547 341.782 94.003L316.847 137.191C315.491 139.54 312.986 140.986 310.274 140.986L260.404 140.986C257.693 140.986 255.187 139.54 253.831 137.191L228.896 94.003C227.541 91.6546 227.541 88.7614 228.896 86.4131L253.831 43.2247C255.187 40.8763 257.693 39.4297 260.404 39.4297L310.274 39.4297Z" fill="url(#paint0_linear)"/>
</g>
<g filter="url(#filter2_ddd)">
<path d="M310.274 250.961C312.986 250.961 315.491 252.407 316.847 254.756L341.782 297.944C343.138 300.292 343.138 303.186 341.782 305.534L316.847 348.722C315.491 351.071 312.986 352.517 310.274 352.517L260.404 352.517C257.693 352.517 255.187 351.071 253.831 348.722L228.896 305.534C227.541 303.186 227.541 300.292 228.896 297.944L253.831 254.756C255.187 252.407 257.693 250.961 260.404 250.961L310.274 250.961Z" fill="url(#paint1_linear)"/>
</g>
<g filter="url(#filter3_ddd)">
<path d="M37.6886 445.112C36.5023 443.057 36.5023 440.525 37.6886 438.471L63.1712 394.333C64.3575 392.279 66.55 391.013 68.9226 391.013H119.888C122.26 391.013 124.453 392.279 125.639 394.333L151.122 438.471C152.308 440.525 152.308 443.057 151.122 445.112L125.639 489.249C124.453 491.304 122.26 492.569 119.888 492.569H68.9226C66.55 492.569 64.3575 491.304 63.1712 489.249L37.6886 445.112Z" fill="white"/>
</g>
<g filter="url(#filter4_ddd)">
<path d="M228.624 509.96C227.438 507.905 227.438 505.374 228.624 503.319L254.107 459.182C255.293 457.127 257.485 455.861 259.858 455.861H310.823C313.196 455.861 315.388 457.127 316.575 459.182L342.057 503.319C343.243 505.374 343.243 507.905 342.057 509.96L316.575 554.097C315.388 556.152 313.196 557.418 310.823 557.418H259.858C257.485 557.418 255.293 556.152 254.107 554.097L228.624 509.96Z" fill="white"/>
</g>
<g filter="url(#filter5_ddd)">
<path d="M37.6906 205.288C36.5042 203.233 36.5042 200.702 37.6906 198.647L63.1732 154.51C64.3595 152.455 66.5519 151.189 68.9246 151.189H119.89C122.262 151.189 124.455 152.455 125.641 154.51L151.124 198.647C152.31 200.702 152.31 203.233 151.124 205.288L125.641 249.425C124.455 251.48 122.262 252.746 119.89 252.746H68.9246C66.5519 252.746 64.3595 251.48 63.1732 249.425L37.6906 205.288Z" fill="white"/>
</g>
<g filter="url(#filter6_ddd)">
<path d="M376.791 95.9726C378.146 95.9726 379.399 96.6959 380.077 97.8701L396.786 126.811C397.464 127.985 397.464 129.432 396.786 130.606L380.077 159.547C379.399 160.721 378.146 161.444 376.791 161.444L343.373 161.444C342.017 161.444 340.764 160.721 340.086 159.547L323.377 130.606C322.699 129.432 322.699 127.985 323.377 126.811L340.086 97.8701C340.764 96.6959 342.017 95.9726 343.373 95.9726L376.791 95.9726Z" fill="#5D78CF"/>
</g>
<g filter="url(#filter7_ddd)">
<path d="M57.7029 360.525C57.025 359.351 57.025 357.905 57.7029 356.73L74.4119 327.79C75.0898 326.615 76.3426 325.892 77.6984 325.892H111.116C112.472 325.892 113.725 326.615 114.403 327.79L131.112 356.73C131.79 357.905 131.79 359.351 131.112 360.525L114.403 389.466C113.725 390.64 112.472 391.364 111.116 391.364H77.6984C76.3426 391.364 75.0898 390.64 74.4119 389.466L57.7029 360.525Z" fill="#5D78CF"/>
</g>
<g filter="url(#filter8_ddd)">
<path d="M191.325 436.047C192.003 434.872 193.256 434.149 194.611 434.149L228.029 434.149C229.385 434.149 230.638 434.872 231.316 436.047L248.025 464.987C248.703 466.162 248.703 467.608 248.025 468.782L231.316 497.723C230.638 498.897 229.385 499.621 228.029 499.621L194.611 499.621C193.256 499.621 192.003 498.897 191.325 497.723L174.616 468.782C173.938 467.608 173.938 466.162 174.616 464.987L191.325 436.047Z" fill="#5D78CF"/>
</g>
<g filter="url(#filter9_ddd)">
<path d="M512.977 283.966C513.655 285.14 513.655 286.587 512.977 287.761L496.268 316.702C495.59 317.876 494.337 318.599 492.982 318.599H459.564C458.208 318.599 456.955 317.876 456.277 316.702L439.568 287.761C438.89 286.587 438.89 285.14 439.568 283.966L456.277 255.025C456.955 253.851 458.208 253.128 459.564 253.128L492.982 253.128C494.337 253.128 495.59 253.851 496.268 255.025L512.977 283.966Z" fill="#5D78CF"/>
</g>
<path d="M79.48 59.2414H83.3053V61.4956H76.5598V49.5073H79.48V59.2414ZM84.2883 56.714C84.2883 55.7349 84.4705 54.8753 84.8348 54.1353C85.2105 53.3953 85.7171 52.826 86.3547 52.4275C86.9922 52.0291 87.7038 51.8298 88.4893 51.8298C89.1611 51.8298 89.7474 51.9665 90.2483 52.2397C90.7606 52.5129 91.1534 52.8716 91.4266 53.3156V51.9665H94.3469V61.4956H91.4266V60.1465C91.142 60.5905 90.7436 60.9491 90.2312 61.2224C89.7303 61.4956 89.144 61.6322 88.4723 61.6322C87.6981 61.6322 86.9922 61.433 86.3547 61.0345C85.7171 60.6247 85.2105 60.0497 84.8348 59.3097C84.4705 58.5583 84.2883 57.6931 84.2883 56.714ZM91.4266 56.731C91.4266 56.0024 91.2217 55.4275 90.8119 55.0062C90.4134 54.585 89.9238 54.3744 89.3432 54.3744C88.7626 54.3744 88.2673 54.585 87.8575 55.0062C87.459 55.4161 87.2598 55.9853 87.2598 56.714C87.2598 57.4426 87.459 58.0232 87.8575 58.4558C88.2673 58.8771 88.7626 59.0877 89.3432 59.0877C89.9238 59.0877 90.4134 58.8771 90.8119 58.4558C91.2217 58.0346 91.4266 57.4597 91.4266 56.731ZM101.941 59.0194V61.4956H100.456C99.3968 61.4956 98.5714 61.2394 97.9794 60.7271C97.3874 60.2034 97.0914 59.3552 97.0914 58.1826V54.3914H95.9301V51.9665H97.0914V49.6439H100.012V51.9665H101.924V54.3914H100.012V58.2168C100.012 58.5014 100.08 58.7063 100.217 58.8315C100.353 58.9568 100.581 59.0194 100.9 59.0194H101.941ZM112.721 56.5773C112.721 56.8506 112.704 57.1352 112.67 57.4312H106.061C106.107 58.0232 106.295 58.4786 106.625 58.7974C106.966 59.1048 107.382 59.2585 107.871 59.2585C108.6 59.2585 109.107 58.9511 109.391 58.3363H112.499C112.34 58.9625 112.05 59.526 111.628 60.027C111.219 60.5279 110.701 60.9207 110.074 61.2053C109.448 61.4899 108.748 61.6322 107.974 61.6322C107.04 61.6322 106.209 61.433 105.481 61.0345C104.752 60.636 104.183 60.0668 103.773 59.3268C103.363 58.5868 103.158 57.7215 103.158 56.731C103.158 55.7405 103.357 54.8753 103.756 54.1353C104.166 53.3953 104.735 52.826 105.464 52.4275C106.192 52.0291 107.029 51.8298 107.974 51.8298C108.896 51.8298 109.716 52.0234 110.433 52.4105C111.15 52.7976 111.708 53.3497 112.107 54.067C112.516 54.7842 112.721 55.621 112.721 56.5773ZM109.733 55.8089C109.733 55.3079 109.562 54.9095 109.221 54.6134C108.879 54.3174 108.452 54.1694 107.94 54.1694C107.45 54.1694 107.035 54.3117 106.693 54.5964C106.363 54.881 106.158 55.2852 106.078 55.8089H109.733ZM125.685 59.378H121.211L120.494 61.4956H117.437L121.775 49.5073H125.156L129.493 61.4956H126.402L125.685 59.378ZM124.934 57.1238L123.448 52.7349L121.979 57.1238H124.934ZM133.905 53.5547C134.246 53.0309 134.673 52.6211 135.185 52.3251C135.698 52.0177 136.267 51.864 136.893 51.864V54.955H136.091C135.362 54.955 134.815 55.1144 134.451 55.4332C134.087 55.7405 133.905 56.287 133.905 57.0726V61.4956H130.984V51.9665H133.905V53.5547ZM141.38 53.5547C141.721 53.0309 142.148 52.6211 142.661 52.3251C143.173 52.0177 143.742 51.864 144.368 51.864V54.955H143.566C142.837 54.955 142.291 55.1144 141.926 55.4332C141.562 55.7405 141.38 56.287 141.38 57.0726V61.4956H138.46V51.9665H141.38V53.5547ZM147.404 50.976C146.891 50.976 146.47 50.828 146.14 50.532C145.821 50.2246 145.662 49.8489 145.662 49.4049C145.662 48.9495 145.821 48.5738 146.14 48.2778C146.47 47.9704 146.891 47.8167 147.404 47.8167C147.905 47.8167 148.314 47.9704 148.633 48.2778C148.963 48.5738 149.129 48.9495 149.129 49.4049C149.129 49.8489 148.963 50.2246 148.633 50.532C148.314 50.828 147.905 50.976 147.404 50.976ZM148.855 51.9665V61.4956H145.935V51.9665H148.855ZM155.429 58.7632L157.495 51.9665H160.603L157.222 61.4956H153.619L150.237 51.9665H153.362L155.429 58.7632ZM163.472 50.976C162.959 50.976 162.538 50.828 162.208 50.532C161.889 50.2246 161.73 49.8489 161.73 49.4049C161.73 48.9495 161.889 48.5738 162.208 48.2778C162.538 47.9704 162.959 47.8167 163.472 47.8167C163.973 47.8167 164.383 47.9704 164.701 48.2778C165.031 48.5738 165.197 48.9495 165.197 49.4049C165.197 49.8489 165.031 50.2246 164.701 50.532C164.383 50.828 163.973 50.976 163.472 50.976ZM164.923 51.9665V61.4956H162.003V51.9665H164.923ZM173.017 51.864C174.132 51.864 175.02 52.2283 175.681 52.9569C176.352 53.6742 176.688 54.6647 176.688 55.9284V61.4956H173.785V56.3212C173.785 55.6836 173.62 55.1884 173.29 54.8355C172.96 54.4825 172.516 54.3061 171.958 54.3061C171.4 54.3061 170.956 54.4825 170.626 54.8355C170.296 55.1884 170.131 55.6836 170.131 56.3212V61.4956H167.21V51.9665H170.131V53.2302C170.427 52.8089 170.825 52.4788 171.326 52.2397C171.827 51.9892 172.39 51.864 173.017 51.864ZM182.509 51.8298C183.18 51.8298 183.767 51.9665 184.268 52.2397C184.78 52.5129 185.173 52.8716 185.446 53.3156V51.9665H188.366V61.4785C188.366 62.3552 188.19 63.1464 187.837 63.8523C187.495 64.5695 186.966 65.1388 186.249 65.56C185.543 65.9812 184.66 66.1919 183.602 66.1919C182.19 66.1919 181.046 65.856 180.169 65.1843C179.292 64.524 178.792 63.6246 178.666 62.4861H181.552C181.643 62.8504 181.86 63.135 182.201 63.34C182.543 63.5563 182.964 63.6644 183.465 63.6644C184.068 63.6644 184.547 63.488 184.899 63.135C185.264 62.7935 185.446 62.2413 185.446 61.4785V60.1294C185.161 60.5734 184.769 60.9377 184.268 61.2224C183.767 61.4956 183.18 61.6322 182.509 61.6322C181.723 61.6322 181.012 61.433 180.374 61.0345C179.736 60.6247 179.23 60.0497 178.854 59.3097C178.49 58.5583 178.308 57.6931 178.308 56.714C178.308 55.7349 178.49 54.8753 178.854 54.1353C179.23 53.3953 179.736 52.826 180.374 52.4275C181.012 52.0291 181.723 51.8298 182.509 51.8298ZM185.446 56.731C185.446 56.0024 185.241 55.4275 184.831 55.0062C184.433 54.585 183.943 54.3744 183.363 54.3744C182.782 54.3744 182.287 54.585 181.877 55.0062C181.478 55.4161 181.279 55.9853 181.279 56.714C181.279 57.4426 181.478 58.0232 181.877 58.4558C182.287 58.8771 182.782 59.0877 183.363 59.0877C183.943 59.0877 184.433 58.8771 184.831 58.4558C185.241 58.0346 185.446 57.4597 185.446 56.731ZM93.0565 78.5073L89.9313 90.4956H86.3963L84.4836 82.6059L82.5027 90.4956H78.9677L75.9279 78.5073H79.0531L80.7779 87.2338L82.9125 78.5073H86.1231L88.1723 87.2338L89.9142 78.5073H93.0565ZM96.1604 79.976C95.6481 79.976 95.2268 79.828 94.8967 79.532C94.5779 79.2246 94.4185 78.8489 94.4185 78.4049C94.4185 77.9495 94.5779 77.5738 94.8967 77.2778C95.2268 76.9704 95.6481 76.8167 96.1604 76.8167C96.6613 76.8167 97.0712 76.9704 97.39 77.2778C97.7201 77.5738 97.8852 77.9495 97.8852 78.4049C97.8852 78.8489 97.7201 79.2246 97.39 79.532C97.0712 79.828 96.6613 79.976 96.1604 79.976ZM97.612 80.9665V90.4956H94.6917V80.9665H97.612ZM102.819 82.5547C103.161 82.0309 103.588 81.6211 104.1 81.3251C104.612 81.0177 105.182 80.864 105.808 80.864V83.955H105.005C104.276 83.955 103.73 84.1144 103.366 84.4332C103.001 84.7405 102.819 85.287 102.819 86.0726V90.4956H99.899V80.9665H102.819V82.5547ZM116.357 85.5773C116.357 85.8506 116.34 86.1352 116.306 86.4312H109.697C109.742 87.0232 109.93 87.4786 110.26 87.7974C110.602 88.1048 111.017 88.2585 111.507 88.2585C112.236 88.2585 112.742 87.9511 113.027 87.3363H116.135C115.976 87.9625 115.685 88.526 115.264 89.027C114.854 89.5279 114.336 89.9207 113.71 90.2053C113.084 90.4899 112.384 90.6322 111.61 90.6322C110.676 90.6322 109.845 90.433 109.116 90.0345C108.388 89.636 107.818 89.0668 107.408 88.3268C106.999 87.5868 106.794 86.7215 106.794 85.731C106.794 84.7405 106.993 83.8753 107.391 83.1353C107.801 82.3953 108.371 81.826 109.099 81.4275C109.828 81.0291 110.665 80.8298 111.61 80.8298C112.532 80.8298 113.351 81.0234 114.069 81.4105C114.786 81.7976 115.344 82.3497 115.742 83.067C116.152 83.7842 116.357 84.621 116.357 85.5773ZM113.368 84.8089C113.368 84.3079 113.198 83.9095 112.856 83.6134C112.515 83.3174 112.088 83.1694 111.575 83.1694C111.086 83.1694 110.67 83.3117 110.329 83.5964C109.999 83.881 109.794 84.2852 109.714 84.8089H113.368Z" fill="white"/>
<path d="M212.842 90.9988C213.12 90.7209 213.12 90.2703 212.842 89.9925L208.314 85.4642C208.036 85.1863 207.586 85.1863 207.308 85.4642C207.03 85.742 207.03 86.1926 207.308 86.4704L211.333 90.4956L207.308 94.5208C207.03 94.7986 207.03 95.2492 207.308 95.5271C207.586 95.8049 208.036 95.8049 208.314 95.5271L212.842 90.9988ZM132.501 91.2072H212.339V89.7841H132.501V91.2072Z" fill="white"/>
<path d="M347.99 121.155C347.619 121.282 347.421 121.687 347.549 122.059L349.63 128.115C349.758 128.487 350.163 128.685 350.535 128.557C350.906 128.429 351.104 128.024 350.976 127.653L349.126 122.269L354.509 120.419C354.881 120.291 355.079 119.886 354.951 119.515C354.823 119.143 354.418 118.945 354.047 119.073L347.99 121.155ZM423.95 159.375C424.321 159.248 424.519 158.843 424.391 158.471L422.31 152.415C422.182 152.043 421.777 151.845 421.406 151.973C421.034 152.101 420.836 152.506 420.964 152.877L422.814 158.261L417.431 160.111C417.059 160.239 416.862 160.644 416.989 161.015C417.117 161.387 417.522 161.585 417.894 161.457L423.95 159.375ZM347.909 122.467L423.406 159.342L424.031 158.063L348.534 121.188L347.909 122.467Z" fill="white"/>
<g filter="url(#filter10_ddd)">
<path d="M532.989 198.646C534.175 200.701 534.175 203.233 532.989 205.288L507.507 249.425C506.32 251.479 504.128 252.745 501.755 252.745L450.79 252.745C448.417 252.745 446.225 251.479 445.039 249.425L419.556 205.288C418.37 203.233 418.37 200.701 419.556 198.646L445.039 154.509C446.225 152.454 448.417 151.189 450.79 151.189L501.755 151.189C504.128 151.189 506.32 152.454 507.507 154.509L532.989 198.646Z" fill="white"/>
</g>
<g filter="url(#filter11_ddd)">
<path d="M422.308 445.11C421.121 443.055 421.121 440.524 422.308 438.469L447.79 394.332C448.976 392.277 451.169 391.011 453.542 391.011H504.507C506.879 391.011 509.072 392.277 510.258 394.332L535.741 438.469C536.927 440.524 536.927 443.055 535.741 445.11L510.258 489.247C509.072 491.302 506.879 492.568 504.507 492.568H453.542C451.169 492.568 448.976 491.302 447.79 489.247L422.308 445.11Z" fill="white"/>
</g>
<path d="M266.622 301.32C267.593 301.548 268.36 302.018 268.921 302.732C269.498 303.445 269.787 304.273 269.787 305.214C269.787 306.595 269.324 307.673 268.398 308.447C267.487 309.221 266.174 309.608 264.458 309.608H256.967V293.51H264.276C265.916 293.51 267.183 293.867 268.079 294.58C268.974 295.294 269.422 296.311 269.422 297.631C269.422 298.603 269.164 299.415 268.648 300.068C268.132 300.705 267.456 301.123 266.622 301.32ZM260.861 300.091H263.411C264.762 300.091 265.438 299.514 265.438 298.36C265.438 297.206 264.747 296.63 263.365 296.63H260.861V300.091ZM263.639 306.443C265.081 306.443 265.802 305.851 265.802 304.667C265.802 304.09 265.612 303.643 265.233 303.324C264.853 302.99 264.314 302.823 263.616 302.823H260.861V306.443H263.639ZM276.898 296.743C277.87 296.743 278.704 296.964 279.403 297.404C280.101 297.844 280.617 298.444 280.951 299.203V296.903H284.822V309.608H280.951V307.309C280.617 308.068 280.101 308.667 279.403 309.107C278.704 309.548 277.87 309.768 276.898 309.768C275.851 309.768 274.909 309.51 274.075 308.994C273.255 308.462 272.602 307.703 272.116 306.717C271.646 305.73 271.411 304.576 271.411 303.256C271.411 301.92 271.646 300.766 272.116 299.795C272.602 298.808 273.255 298.057 274.075 297.54C274.909 297.009 275.851 296.743 276.898 296.743ZM278.15 300.159C277.315 300.159 276.64 300.432 276.124 300.979C275.623 301.525 275.372 302.284 275.372 303.256C275.372 304.227 275.623 304.986 276.124 305.533C276.64 306.079 277.315 306.352 278.15 306.352C278.97 306.352 279.638 306.071 280.154 305.51C280.685 304.948 280.951 304.197 280.951 303.256C280.951 302.299 280.685 301.548 280.154 301.001C279.638 300.44 278.97 300.159 278.15 300.159ZM295.791 296.766C297.248 296.766 298.402 297.252 299.252 298.223C300.117 299.195 300.55 300.531 300.55 302.231V309.608H296.656V302.686C296.656 301.836 296.428 301.176 295.973 300.705C295.533 300.22 294.941 299.977 294.197 299.977C293.408 299.977 292.778 300.227 292.307 300.728C291.852 301.229 291.624 301.943 291.624 302.869V309.608H287.73V296.903H291.624V299.225C291.988 298.466 292.527 297.867 293.241 297.427C293.969 296.986 294.819 296.766 295.791 296.766ZM311.042 309.608L307.239 304.212V309.608H303.345V292.759H307.239V302.003L311.042 296.903H315.618L310.495 303.256L315.732 309.608H311.042Z" fill="white"/>
<path d="M491.101 439.183H496.26V451.538H491.101V439.183Z" fill="url(#paint2_linear)"/>
<path d="M481.329 439.183H486.49V451.538H481.329V439.183Z" fill="url(#paint3_linear)"/>
<path d="M471.557 439.183H476.717V451.538H471.557V439.183Z" fill="url(#paint4_linear)"/>
<path d="M461.786 439.183H466.946V451.538H461.786V439.183Z" fill="url(#paint5_linear)"/>
<path d="M497.98 435.313V434.023H460.066V435.313C460.066 436.025 460.643 436.603 461.356 436.603H496.69C497.403 436.603 497.98 436.025 497.98 435.313Z" fill="url(#paint6_linear)"/>
<path d="M499.749 454.118H458.297C457.585 454.118 457.007 454.696 457.007 455.408V458.848C457.007 459.561 457.585 460.138 458.297 460.138H499.749C500.462 460.138 501.039 459.561 501.039 458.848V455.408C501.039 454.696 500.462 454.118 499.749 454.118Z" fill="url(#paint7_linear)"/>
<path d="M458.296 431.443H499.75C500.327 431.443 500.834 431.059 500.991 430.504C501.148 429.949 500.918 429.356 500.426 429.054L479.699 416.296C479.285 416.041 478.762 416.041 478.347 416.296L457.62 429.054C457.129 429.357 456.898 429.949 457.055 430.504C457.213 431.059 457.719 431.443 458.296 431.443ZM478.146 423.692H479.9C480.613 423.692 481.19 424.27 481.19 424.982C481.19 425.695 480.613 426.272 479.9 426.272H478.146C477.434 426.272 476.856 425.695 476.856 424.982C476.856 424.27 477.434 423.692 478.146 423.692Z" fill="url(#paint8_linear)"/>
<path d="M106.484 199.36H111.644V211.715H106.484V199.36Z" fill="url(#paint9_linear)"/>
<path d="M96.7131 199.36H101.873V211.715H96.7131V199.36Z" fill="url(#paint10_linear)"/>
<path d="M86.9409 199.36H92.1011V211.715H86.9409V199.36Z" fill="url(#paint11_linear)"/>
<path d="M77.1696 199.36H82.3295V211.715H77.1696V199.36Z" fill="url(#paint12_linear)"/>
<path d="M113.364 195.489V194.199H75.4495V195.489C75.4495 196.202 76.027 196.779 76.7396 196.779H112.074C112.786 196.779 113.364 196.202 113.364 195.489Z" fill="url(#paint13_linear)"/>
<path d="M115.133 214.295H73.6811C72.9685 214.295 72.391 214.872 72.391 215.585V219.025C72.391 219.737 72.9685 220.315 73.6811 220.315H115.133C115.845 220.315 116.423 219.737 116.423 219.025V215.585C116.423 214.872 115.845 214.295 115.133 214.295Z" fill="url(#paint14_linear)"/>
<path d="M73.6801 191.619H115.134C115.711 191.619 116.218 191.236 116.375 190.681C116.532 190.125 116.302 189.533 115.81 189.231L95.0833 176.472C94.6687 176.217 94.1456 176.217 93.7307 176.472L73.0038 189.231C72.5123 189.533 72.2818 190.125 72.4391 190.681C72.5963 191.236 73.1032 191.619 73.6801 191.619ZM93.5302 183.869H95.2842C95.9967 183.869 96.5742 184.446 96.5742 185.159C96.5742 185.871 95.9967 186.449 95.2842 186.449H93.5302C92.8176 186.449 92.2401 185.871 92.2401 185.159C92.2401 184.446 92.8176 183.869 93.5302 183.869Z" fill="url(#paint15_linear)"/>
<path d="M297.417 84.6737H302.577V97.0287H297.417V84.6737Z" fill="white"/>
<path d="M287.645 84.6737H292.806V97.0287H287.645V84.6737Z" fill="white"/>
<path d="M277.873 84.6737H283.034V97.0287H277.873V84.6737Z" fill="white"/>
<path d="M268.102 84.6737H273.262V97.0287H268.102V84.6737Z" fill="white"/>
<path d="M304.296 80.8035V79.5135H266.382V80.8035C266.382 81.5161 266.959 82.0936 267.672 82.0936H303.006C303.719 82.0936 304.296 81.5161 304.296 80.8035Z" fill="white"/>
<path d="M306.065 99.6088H264.613C263.901 99.6088 263.323 100.186 263.323 100.899V104.339C263.323 105.052 263.901 105.629 264.613 105.629H306.065C306.778 105.629 307.355 105.052 307.355 104.339V100.899C307.355 100.186 306.778 99.6088 306.065 99.6088Z" fill="white"/>
<path d="M264.612 76.9333H306.066C306.643 76.9333 307.15 76.55 307.308 75.9947C307.465 75.4394 307.234 74.8471 306.743 74.5447L286.016 61.7866C285.601 61.5313 285.078 61.5313 284.663 61.7866L263.936 74.5447C263.445 74.8474 263.214 75.4394 263.371 75.9947C263.529 76.55 264.036 76.9333 264.612 76.9333ZM284.463 69.1829H286.217C286.929 69.1829 287.507 69.7604 287.507 70.473C287.507 71.1855 286.929 71.763 286.217 71.763H284.463C283.75 71.763 283.172 71.1855 283.172 70.473C283.172 69.7604 283.75 69.1829 284.463 69.1829Z" fill="white"/>
<path d="M488.35 199.36H493.51V211.715H488.35V199.36Z" fill="url(#paint16_linear)"/>
<path d="M478.579 199.36H483.739V211.715H478.579V199.36Z" fill="url(#paint17_linear)"/>
<path d="M468.807 199.36H473.967V211.715H468.807V199.36Z" fill="url(#paint18_linear)"/>
<path d="M459.035 199.36H464.195V211.715H459.035V199.36Z" fill="url(#paint19_linear)"/>
<path d="M495.23 195.489V194.199H457.315V195.489C457.315 196.202 457.893 196.779 458.605 196.779H493.94C494.652 196.779 495.23 196.202 495.23 195.489Z" fill="url(#paint20_linear)"/>
<path d="M496.999 214.295H455.547C454.834 214.295 454.257 214.872 454.257 215.585V219.025C454.257 219.737 454.834 220.315 455.547 220.315H496.999C497.711 220.315 498.289 219.737 498.289 219.025V215.585C498.289 214.872 497.711 214.295 496.999 214.295Z" fill="url(#paint21_linear)"/>
<path d="M455.546 191.619H497C497.577 191.619 498.084 191.236 498.241 190.681C498.398 190.125 498.167 189.533 497.676 189.231L476.949 176.472C476.534 176.217 476.011 176.217 475.596 176.472L454.87 189.231C454.378 189.533 454.148 190.125 454.305 190.681C454.462 191.236 454.969 191.619 455.546 191.619ZM475.396 183.869H477.15C477.862 183.869 478.44 184.446 478.44 185.159C478.44 185.871 477.862 186.449 477.15 186.449H475.396C474.683 186.449 474.106 185.871 474.106 185.159C474.106 184.446 474.683 183.869 475.396 183.869Z" fill="url(#paint22_linear)"/>
<path d="M106.483 439.183H111.643V451.538H106.483V439.183Z" fill="url(#paint23_linear)"/>
<path d="M96.7121 439.183H101.872V451.538H96.7121V439.183Z" fill="url(#paint24_linear)"/>
<path d="M86.9399 439.183H92.1002V451.538H86.9399V439.183Z" fill="url(#paint25_linear)"/>
<path d="M77.1686 439.183H82.3285V451.538H77.1686V439.183Z" fill="url(#paint26_linear)"/>
<path d="M113.363 435.313V434.023H75.4486V435.313C75.4486 436.025 76.0261 436.603 76.7386 436.603H112.073C112.785 436.603 113.363 436.025 113.363 435.313Z" fill="url(#paint27_linear)"/>
<path d="M115.132 454.118H73.6801C72.9676 454.118 72.3901 454.696 72.3901 455.408V458.848C72.3901 459.561 72.9676 460.138 73.6801 460.138H115.132C115.844 460.138 116.422 459.561 116.422 458.848V455.408C116.422 454.696 115.844 454.118 115.132 454.118Z" fill="url(#paint28_linear)"/>
<path d="M73.6791 431.443H115.133C115.71 431.443 116.217 431.059 116.374 430.504C116.531 429.949 116.301 429.356 115.809 429.054L95.0823 416.296C94.6677 416.041 94.1446 416.041 93.7297 416.296L73.0028 429.054C72.5113 429.357 72.2809 429.949 72.4381 430.504C72.5953 431.059 73.1023 431.443 73.6791 431.443ZM93.5292 423.692H95.2832C95.9957 423.692 96.5732 424.27 96.5732 424.982C96.5732 425.695 95.9957 426.272 95.2832 426.272H93.5292C92.8166 426.272 92.2391 425.695 92.2391 424.982C92.2391 424.27 92.8166 423.692 93.5292 423.692Z" fill="url(#paint29_linear)"/>
<path d="M297.417 504.031H302.577V516.386H297.417V504.031Z" fill="url(#paint30_linear)"/>
<path d="M287.645 504.031H292.806V516.386H287.645V504.031Z" fill="url(#paint31_linear)"/>
<path d="M277.873 504.031H283.034V516.386H277.873V504.031Z" fill="url(#paint32_linear)"/>
<path d="M268.102 504.031H273.262V516.386H268.102V504.031Z" fill="url(#paint33_linear)"/>
<path d="M304.296 500.161V498.871H266.382V500.161C266.382 500.873 266.959 501.451 267.672 501.451H303.006C303.719 501.451 304.296 500.873 304.296 500.161Z" fill="url(#paint34_linear)"/>
<path d="M306.065 518.966H264.613C263.901 518.966 263.323 519.544 263.323 520.256V523.696C263.323 524.409 263.901 524.986 264.613 524.986H306.065C306.778 524.986 307.355 524.409 307.355 523.696V520.256C307.355 519.544 306.778 518.966 306.065 518.966Z" fill="url(#paint35_linear)"/>
<path d="M264.612 496.291H306.066C306.643 496.291 307.15 495.907 307.308 495.352C307.465 494.797 307.234 494.204 306.743 493.902L286.016 481.144C285.601 480.889 285.078 480.889 284.663 481.144L263.936 493.902C263.445 494.205 263.214 494.797 263.371 495.352C263.529 495.907 264.036 496.291 264.612 496.291ZM284.463 488.54H286.217C286.929 488.54 287.507 489.118 287.507 489.83C287.507 490.543 286.929 491.12 286.217 491.12H284.463C283.75 491.12 283.172 490.543 283.172 489.83C283.172 489.118 283.75 488.54 284.463 488.54Z" fill="url(#paint36_linear)"/>
<path d="M550.312 201.353C550.034 201.631 550.034 202.082 550.312 202.36L554.84 206.888C555.118 207.166 555.569 207.166 555.847 206.888C556.124 206.61 556.124 206.16 555.847 205.882L551.821 201.857L555.847 197.831C556.124 197.554 556.124 197.103 555.847 196.825C555.569 196.547 555.118 196.547 554.84 196.825L550.312 201.353ZM629.499 201.145L550.815 201.145L550.815 202.568L629.499 202.568L629.499 201.145Z" fill="white"/>
<path d="M407.897 17.6151C407.021 17.6151 406.235 17.4728 405.541 17.1882C404.846 16.9036 404.288 16.4824 403.867 15.9245C403.457 15.3666 403.241 14.6949 403.218 13.9094H406.326C406.372 14.3534 406.526 14.6949 406.787 14.934C407.049 15.1617 407.391 15.2756 407.812 15.2756C408.245 15.2756 408.586 15.1788 408.837 14.9852C409.087 14.7803 409.212 14.5014 409.212 14.1485C409.212 13.8524 409.11 13.6077 408.905 13.4141C408.711 13.2206 408.467 13.0612 408.171 12.936C407.886 12.8107 407.476 12.6684 406.941 12.509C406.167 12.2699 405.535 12.0309 405.045 11.7918C404.556 11.5527 404.135 11.1998 403.782 10.733C403.429 10.2662 403.252 9.65712 403.252 8.90571C403.252 7.78999 403.657 6.91905 404.465 6.29288C405.273 5.65533 406.326 5.33655 407.624 5.33655C408.945 5.33655 410.009 5.65533 410.818 6.29288C411.626 6.91905 412.059 7.79569 412.116 8.92279H408.956C408.933 8.5357 408.791 8.23401 408.529 8.01769C408.267 7.78999 407.932 7.67615 407.522 7.67615C407.169 7.67615 406.884 7.77292 406.668 7.96646C406.452 8.14862 406.343 8.41616 406.343 8.76909C406.343 9.15618 406.526 9.45788 406.89 9.67419C407.254 9.89051 407.823 10.1239 408.598 10.3744C409.372 10.6362 409.998 10.8867 410.476 11.1258C410.966 11.3648 411.387 11.7121 411.74 12.1675C412.093 12.6229 412.269 13.2092 412.269 13.9264C412.269 14.6095 412.093 15.23 411.74 15.7879C411.398 16.3457 410.897 16.7897 410.237 17.1199C409.577 17.4501 408.797 17.6151 407.897 17.6151ZM420.095 7.864C421.188 7.864 422.064 8.22831 422.725 8.95695C423.385 9.67419 423.715 10.6647 423.715 11.9284V17.4956H420.812V12.3212C420.812 11.6836 420.647 11.1884 420.317 10.8355C419.986 10.4825 419.542 10.3061 418.985 10.3061C418.427 10.3061 417.983 10.4825 417.653 10.8355C417.322 11.1884 417.157 11.6836 417.157 12.3212V17.4956H414.237V4.85839H417.157V9.24726C417.453 8.82602 417.857 8.49016 418.37 8.2397C418.882 7.98923 419.457 7.864 420.095 7.864ZM430.253 17.6322C429.319 17.6322 428.477 17.433 427.725 17.0345C426.985 16.636 426.399 16.0668 425.966 15.3268C425.545 14.5868 425.334 13.7215 425.334 12.731C425.334 11.7519 425.551 10.8924 425.983 10.1524C426.416 9.40096 427.008 8.82602 427.759 8.42755C428.511 8.02908 429.353 7.82984 430.287 7.82984C431.22 7.82984 432.063 8.02908 432.814 8.42755C433.566 8.82602 434.158 9.40096 434.59 10.1524C435.023 10.8924 435.239 11.7519 435.239 12.731C435.239 13.7101 435.017 14.5754 434.573 15.3268C434.141 16.0668 433.543 16.636 432.78 17.0345C432.029 17.433 431.186 17.6322 430.253 17.6322ZM430.253 15.1048C430.811 15.1048 431.283 14.8999 431.67 14.49C432.069 14.0801 432.268 13.4938 432.268 12.731C432.268 11.9682 432.074 11.3819 431.687 10.9721C431.311 10.5622 430.845 10.3573 430.287 10.3573C429.718 10.3573 429.245 10.5622 428.869 10.9721C428.494 11.3705 428.306 11.9569 428.306 12.731C428.306 13.4938 428.488 14.0801 428.852 14.49C429.228 14.8999 429.695 15.1048 430.253 15.1048ZM439.879 9.55465C440.221 9.03095 440.648 8.62109 441.16 8.32508C441.673 8.01769 442.242 7.864 442.868 7.864V10.955H442.065C441.337 10.955 440.79 11.1144 440.426 11.4332C440.062 11.7405 439.879 12.287 439.879 13.0726V17.4956H436.959V7.96646H439.879V9.55465ZM449.746 15.0194V17.4956H448.26C447.201 17.4956 446.376 17.2394 445.784 16.7271C445.192 16.2034 444.896 15.3552 444.896 14.1826V10.3914H443.734V7.96646H444.896V5.64395H447.816V7.96646H449.729V10.3914H447.816V14.2168C447.816 14.5014 447.884 14.7063 448.021 14.8315C448.157 14.9568 448.385 15.0194 448.704 15.0194H449.746ZM460.526 12.5773C460.526 12.8506 460.509 13.1352 460.474 13.4312H453.866C453.911 14.0232 454.099 14.4786 454.429 14.7974C454.771 15.1048 455.186 15.2585 455.676 15.2585C456.404 15.2585 456.911 14.9511 457.196 14.3363H460.304C460.144 14.9625 459.854 15.526 459.433 16.027C459.023 16.5279 458.505 16.9207 457.879 17.2053C457.253 17.4899 456.552 17.6322 455.778 17.6322C454.845 17.6322 454.014 17.433 453.285 17.0345C452.556 16.636 451.987 16.0668 451.577 15.3268C451.167 14.5868 450.962 13.7215 450.962 12.731C450.962 11.7405 451.162 10.8753 451.56 10.1353C451.97 9.39526 452.539 8.82602 453.268 8.42755C453.996 8.02908 454.833 7.82984 455.778 7.82984C456.7 7.82984 457.52 8.02338 458.237 8.41047C458.955 8.79756 459.512 9.34972 459.911 10.067C460.321 10.7842 460.526 11.621 460.526 12.5773ZM457.537 11.8089C457.537 11.3079 457.366 10.9095 457.025 10.6134C456.683 10.3174 456.256 10.1694 455.744 10.1694C455.255 10.1694 454.839 10.3117 454.497 10.5964C454.167 10.881 453.962 11.2852 453.883 11.8089H457.537ZM465.157 9.55465C465.499 9.03095 465.926 8.62109 466.438 8.32508C466.95 8.01769 467.52 7.864 468.146 7.864V10.955H467.343C466.615 10.955 466.068 11.1144 465.704 11.4332C465.339 11.7405 465.157 12.287 465.157 13.0726V17.4956H462.237V7.96646H465.157V9.55465ZM478.813 15.0194V17.4956H477.327C476.269 17.4956 475.443 17.2394 474.851 16.7271C474.259 16.2034 473.963 15.3552 473.963 14.1826V10.3914H472.802V7.96646H473.963V5.64395H476.883V7.96646H478.796V10.3914H476.883V14.2168C476.883 14.5014 476.952 14.7063 477.088 14.8315C477.225 14.9568 477.453 15.0194 477.771 15.0194H478.813ZM489.593 12.5773C489.593 12.8506 489.576 13.1352 489.542 13.4312H482.933C482.979 14.0232 483.166 14.4786 483.497 14.7974C483.838 15.1048 484.254 15.2585 484.743 15.2585C485.472 15.2585 485.978 14.9511 486.263 14.3363H489.371C489.212 14.9625 488.921 15.526 488.5 16.027C488.09 16.5279 487.572 16.9207 486.946 17.2053C486.32 17.4899 485.62 17.6322 484.846 17.6322C483.912 17.6322 483.081 17.433 482.352 17.0345C481.624 16.636 481.055 16.0668 480.645 15.3268C480.235 14.5868 480.03 13.7215 480.03 12.731C480.03 11.7405 480.229 10.8753 480.628 10.1353C481.037 9.39526 481.607 8.82602 482.335 8.42755C483.064 8.02908 483.901 7.82984 484.846 7.82984C485.768 7.82984 486.588 8.02338 487.305 8.41047C488.022 8.79756 488.58 9.34972 488.978 10.067C489.388 10.7842 489.593 11.621 489.593 12.5773ZM486.605 11.8089C486.605 11.3079 486.434 10.9095 486.092 10.6134C485.751 10.3174 485.324 10.1694 484.812 10.1694C484.322 10.1694 483.906 10.3117 483.565 10.5964C483.235 10.881 483.03 11.2852 482.95 11.8089H486.605ZM494.225 9.55465C494.566 9.03095 494.993 8.62109 495.506 8.32508C496.018 8.01769 496.587 7.864 497.213 7.864V10.955H496.411C495.682 10.955 495.136 11.1144 494.771 11.4332C494.407 11.7405 494.225 12.287 494.225 13.0726V17.4956H491.305V7.96646H494.225V9.55465ZM510.939 7.864C512.123 7.864 513.062 8.22262 513.757 8.93987C514.463 9.65712 514.815 10.6533 514.815 11.9284V17.4956H511.912V12.3212C511.912 11.7064 511.747 11.2339 511.417 10.9038C511.098 10.5622 510.654 10.3914 510.085 10.3914C509.516 10.3914 509.066 10.5622 508.736 10.9038C508.417 11.2339 508.258 11.7064 508.258 12.3212V17.4956H505.355V12.3212C505.355 11.7064 505.19 11.2339 504.859 10.9038C504.541 10.5622 504.097 10.3914 503.527 10.3914C502.958 10.3914 502.508 10.5622 502.178 10.9038C501.859 11.2339 501.7 11.7064 501.7 12.3212V17.4956H498.78V7.96646H501.7V9.16187C501.996 8.7634 502.383 8.45032 502.861 8.22262C503.339 7.98354 503.88 7.864 504.484 7.864C505.201 7.864 505.838 8.01769 506.396 8.32508C506.966 8.63248 507.41 9.07079 507.728 9.64004C508.059 9.11633 508.508 8.6894 509.077 8.35924C509.647 8.02908 510.267 7.864 510.939 7.864ZM406.48 31.3156C406.753 30.8716 407.146 30.5129 407.658 30.2397C408.171 29.9665 408.757 29.8298 409.417 29.8298C410.203 29.8298 410.914 30.0291 411.552 30.4275C412.19 30.826 412.69 31.3953 413.055 32.1353C413.43 32.8753 413.618 33.7349 413.618 34.714C413.618 35.6931 413.43 36.5583 413.055 37.3097C412.69 38.0497 412.19 38.6247 411.552 39.0345C410.914 39.433 410.203 39.6322 409.417 39.6322C408.746 39.6322 408.159 39.5013 407.658 39.2394C407.157 38.9662 406.765 38.6076 406.48 38.1636V39.4956H403.56V26.8584H406.48V31.3156ZM410.647 34.714C410.647 33.9853 410.442 33.4161 410.032 33.0062C409.634 32.585 409.138 32.3744 408.546 32.3744C407.966 32.3744 407.47 32.585 407.061 33.0062C406.662 33.4275 406.463 34.0024 406.463 34.731C406.463 35.4597 406.662 36.0346 407.061 36.4558C407.47 36.8771 407.966 37.0877 408.546 37.0877C409.127 37.0877 409.622 36.8771 410.032 36.4558C410.442 36.0232 410.647 35.4426 410.647 34.714ZM414.74 34.714C414.74 33.7349 414.923 32.8753 415.287 32.1353C415.663 31.3953 416.169 30.826 416.807 30.4275C417.444 30.0291 418.156 29.8298 418.941 29.8298C419.613 29.8298 420.2 29.9665 420.7 30.2397C421.213 30.5129 421.606 30.8716 421.879 31.3156V29.9665H424.799V39.4956H421.879V38.1465C421.594 38.5905 421.196 38.9491 420.683 39.2224C420.182 39.4956 419.596 39.6322 418.924 39.6322C418.15 39.6322 417.444 39.433 416.807 39.0345C416.169 38.6247 415.663 38.0497 415.287 37.3097C414.923 36.5583 414.74 35.6931 414.74 34.714ZM421.879 34.731C421.879 34.0024 421.674 33.4275 421.264 33.0062C420.866 32.585 420.376 32.3744 419.795 32.3744C419.215 32.3744 418.719 32.585 418.31 33.0062C417.911 33.4161 417.712 33.9853 417.712 34.714C417.712 35.4426 417.911 36.0232 418.31 36.4558C418.719 36.8771 419.215 37.0877 419.795 37.0877C420.376 37.0877 420.866 36.8771 421.264 36.4558C421.674 36.0346 421.879 35.4597 421.879 34.731ZM430.959 39.6322C430.128 39.6322 429.388 39.4899 428.739 39.2053C428.09 38.9207 427.578 38.5336 427.202 38.044C426.826 37.5431 426.616 36.9852 426.57 36.3705H429.456C429.49 36.7006 429.644 36.9682 429.917 37.1731C430.191 37.378 430.526 37.4805 430.925 37.4805C431.289 37.4805 431.568 37.4122 431.762 37.2756C431.967 37.1276 432.069 36.9397 432.069 36.712C432.069 36.4388 431.927 36.2395 431.642 36.1143C431.357 35.9777 430.896 35.8297 430.259 35.6703C429.576 35.5109 429.006 35.3458 428.551 35.175C428.096 34.9929 427.703 34.714 427.373 34.3383C427.043 33.9512 426.878 33.4332 426.878 32.7842C426.878 32.2377 427.026 31.7425 427.322 31.2985C427.629 30.8431 428.073 30.4845 428.654 30.2226C429.246 29.9608 429.946 29.8298 430.754 29.8298C431.949 29.8298 432.889 30.1258 433.572 30.7179C434.266 31.3099 434.665 32.0954 434.767 33.0745H432.069C432.023 32.7444 431.875 32.4825 431.625 32.289C431.386 32.0954 431.067 31.9987 430.669 31.9987C430.327 31.9987 430.065 32.067 429.883 32.2036C429.701 32.3288 429.61 32.5053 429.61 32.733C429.61 33.0062 429.752 33.2112 430.037 33.3478C430.333 33.4844 430.788 33.621 431.403 33.7576C432.109 33.9398 432.684 34.1219 433.128 34.3041C433.572 34.4749 433.959 34.7595 434.289 35.158C434.631 35.5451 434.807 36.0688 434.818 36.7291C434.818 37.2869 434.659 37.7879 434.34 38.2319C434.033 38.6645 433.583 39.0061 432.991 39.2565C432.411 39.507 431.733 39.6322 430.959 39.6322ZM445.758 34.5773C445.758 34.8506 445.741 35.1352 445.707 35.4312H439.098C439.144 36.0232 439.332 36.4786 439.662 36.7974C440.003 37.1048 440.419 37.2585 440.909 37.2585C441.637 37.2585 442.144 36.9511 442.428 36.3363H445.536C445.377 36.9625 445.087 37.526 444.666 38.027C444.256 38.5279 443.738 38.9207 443.112 39.2053C442.485 39.4899 441.785 39.6322 441.011 39.6322C440.077 39.6322 439.246 39.433 438.518 39.0345C437.789 38.636 437.22 38.0668 436.81 37.3268C436.4 36.5868 436.195 35.7215 436.195 34.731C436.195 33.7405 436.394 32.8753 436.793 32.1353C437.203 31.3953 437.772 30.826 438.501 30.4275C439.229 30.0291 440.066 29.8298 441.011 29.8298C441.933 29.8298 442.753 30.0234 443.47 30.4105C444.187 30.7976 444.745 31.3497 445.144 32.067C445.554 32.7842 445.758 33.621 445.758 34.5773ZM442.77 33.8089C442.77 33.3079 442.599 32.9095 442.258 32.6134C441.916 32.3174 441.489 32.1694 440.977 32.1694C440.487 32.1694 440.072 32.3117 439.73 32.5964C439.4 32.881 439.195 33.2852 439.115 33.8089H442.77ZM446.889 34.714C446.889 33.7349 447.071 32.8753 447.436 32.1353C447.811 31.3953 448.318 30.826 448.956 30.4275C449.593 30.0291 450.305 29.8298 451.09 29.8298C451.716 29.8298 452.286 29.9608 452.798 30.2226C453.322 30.4845 453.732 30.8374 454.028 31.2814V26.8584H456.948V39.4956H454.028V38.1294C453.754 38.5848 453.362 38.9491 452.849 39.2224C452.348 39.4956 451.762 39.6322 451.09 39.6322C450.305 39.6322 449.593 39.433 448.956 39.0345C448.318 38.6247 447.811 38.0497 447.436 37.3097C447.071 36.5583 446.889 35.6931 446.889 34.714ZM454.028 34.731C454.028 34.0024 453.823 33.4275 453.413 33.0062C453.014 32.585 452.525 32.3744 451.944 32.3744C451.363 32.3744 450.868 32.585 450.458 33.0062C450.06 33.4161 449.861 33.9853 449.861 34.714C449.861 35.4426 450.06 36.0232 450.458 36.4558C450.868 36.8771 451.363 37.0877 451.944 37.0877C452.525 37.0877 453.014 36.8771 453.413 36.4558C453.823 36.0346 454.028 35.4597 454.028 34.731ZM465.941 31.5547C466.283 31.0309 466.71 30.6211 467.222 30.3251C467.734 30.0177 468.303 29.864 468.93 29.864V32.955H468.127C467.398 32.955 466.852 33.1144 466.488 33.4332C466.123 33.7405 465.941 34.287 465.941 35.0726V39.4956H463.021V29.9665H465.941V31.5547ZM469.916 34.714C469.916 33.7349 470.098 32.8753 470.462 32.1353C470.838 31.3953 471.344 30.826 471.982 30.4275C472.619 30.0291 473.331 29.8298 474.117 29.8298C474.788 29.8298 475.375 29.9665 475.876 30.2397C476.388 30.5129 476.781 30.8716 477.054 31.3156V29.9665H479.974V39.4956H477.054V38.1465C476.769 38.5905 476.371 38.9491 475.858 39.2224C475.358 39.4956 474.771 39.6322 474.1 39.6322C473.325 39.6322 472.619 39.433 471.982 39.0345C471.344 38.6247 470.838 38.0497 470.462 37.3097C470.098 36.5583 469.916 35.6931 469.916 34.714ZM477.054 34.731C477.054 34.0024 476.849 33.4275 476.439 33.0062C476.041 32.585 475.551 32.3744 474.97 32.3744C474.39 32.3744 473.895 32.585 473.485 33.0062C473.086 33.4161 472.887 33.9853 472.887 34.714C472.887 35.4426 473.086 36.0232 473.485 36.4558C473.895 36.8771 474.39 37.0877 474.97 37.0877C475.551 37.0877 476.041 36.8771 476.439 36.4558C476.849 36.0346 477.054 35.4597 477.054 34.731ZM487.569 37.0194V39.4956H486.083C485.024 39.4956 484.199 39.2394 483.607 38.7271C483.015 38.2034 482.719 37.3552 482.719 36.1826V32.3914H481.557V29.9665H482.719V27.6439H485.639V29.9665H487.552V32.3914H485.639V36.2168C485.639 36.5014 485.707 36.7063 485.844 36.8315C485.98 36.9568 486.208 37.0194 486.527 37.0194H487.569ZM498.349 34.5773C498.349 34.8506 498.332 35.1352 498.297 35.4312H491.688C491.734 36.0232 491.922 36.4786 492.252 36.7974C492.594 37.1048 493.009 37.2585 493.499 37.2585C494.227 37.2585 494.734 36.9511 495.019 36.3363H498.127C497.967 36.9625 497.677 37.526 497.256 38.027C496.846 38.5279 496.328 38.9207 495.702 39.2053C495.075 39.4899 494.375 39.6322 493.601 39.6322C492.668 39.6322 491.836 39.433 491.108 39.0345C490.379 38.636 489.81 38.0668 489.4 37.3268C488.99 36.5868 488.785 35.7215 488.785 34.731C488.785 33.7405 488.985 32.8753 489.383 32.1353C489.793 31.3953 490.362 30.826 491.091 30.4275C491.819 30.0291 492.656 29.8298 493.601 29.8298C494.523 29.8298 495.343 30.0234 496.06 30.4105C496.778 30.7976 497.335 31.3497 497.734 32.067C498.144 32.7842 498.349 33.621 498.349 34.5773ZM495.36 33.8089C495.36 33.3079 495.189 32.9095 494.848 32.6134C494.506 32.3174 494.079 32.1694 493.567 32.1694C493.077 32.1694 492.662 32.3117 492.32 32.5964C491.99 32.881 491.785 33.2852 491.706 33.8089H495.36ZM503.937 39.6322C503.105 39.6322 502.365 39.4899 501.716 39.2053C501.068 38.9207 500.555 38.5336 500.18 38.044C499.804 37.5431 499.593 36.9852 499.548 36.3705H502.434C502.468 36.7006 502.622 36.9682 502.895 37.1731C503.168 37.378 503.504 37.4805 503.902 37.4805C504.267 37.4805 504.546 37.4122 504.739 37.2756C504.944 37.1276 505.047 36.9397 505.047 36.712C505.047 36.4388 504.904 36.2395 504.62 36.1143C504.335 35.9777 503.874 35.8297 503.236 35.6703C502.553 35.5109 501.984 35.3458 501.529 35.175C501.073 34.9929 500.68 34.714 500.35 34.3383C500.02 33.9512 499.855 33.4332 499.855 32.7842C499.855 32.2377 500.003 31.7425 500.299 31.2985C500.606 30.8431 501.05 30.4845 501.631 30.2226C502.223 29.9608 502.923 29.8298 503.732 29.8298C504.927 29.8298 505.866 30.1258 506.549 30.7179C507.244 31.3099 507.642 32.0954 507.745 33.0745H505.047C505.001 32.7444 504.853 32.4825 504.603 32.289C504.363 32.0954 504.045 31.9987 503.646 31.9987C503.305 31.9987 503.043 32.067 502.861 32.2036C502.678 32.3288 502.587 32.5053 502.587 32.733C502.587 33.0062 502.73 33.2112 503.014 33.3478C503.31 33.4844 503.766 33.621 504.381 33.7576C505.086 33.9398 505.661 34.1219 506.105 34.3041C506.549 34.4749 506.936 34.7595 507.267 35.158C507.608 35.5451 507.785 36.0688 507.796 36.7291C507.796 37.2869 507.637 37.7879 507.318 38.2319C507.01 38.6645 506.561 39.0061 505.969 39.2565C505.388 39.507 504.711 39.6322 503.937 39.6322ZM512.896 36.7974L511 41.6986H509.139L510.129 36.7974H512.896ZM406.48 48.8584V61.4956H403.56V48.8584H406.48ZM410.236 50.976C409.723 50.976 409.302 50.828 408.972 50.532C408.653 50.2246 408.494 49.8489 408.494 49.4049C408.494 48.9495 408.653 48.5738 408.972 48.2778C409.302 47.9704 409.723 47.8167 410.236 47.8167C410.737 47.8167 411.146 47.9704 411.465 48.2778C411.795 48.5738 411.96 48.9495 411.96 49.4049C411.96 49.8489 411.795 50.2246 411.465 50.532C411.146 50.828 410.737 50.976 410.236 50.976ZM411.687 51.9665V61.4956H408.767V51.9665H411.687ZM413.394 56.7481C413.394 55.8032 413.587 54.9607 413.974 54.2207C414.373 53.4806 414.902 52.9057 415.562 52.4959C416.234 52.0746 416.963 51.864 417.748 51.864C418.352 51.864 418.893 51.9722 419.371 52.1885C419.849 52.3934 420.236 52.6837 420.532 53.0594V51.9665H423.452V66.0382H420.532V60.3002C420.202 60.6987 419.798 61.0174 419.319 61.2565C418.853 61.4956 418.318 61.6151 417.714 61.6151C416.94 61.6151 416.223 61.4102 415.562 61.0004C414.902 60.5905 414.373 60.0156 413.974 59.2756C413.587 58.5355 413.394 57.6931 413.394 56.7481ZM420.532 56.731C420.532 56.2187 420.429 55.7918 420.225 55.4502C420.031 55.0973 419.775 54.8355 419.456 54.6647C419.137 54.4825 418.801 54.3914 418.449 54.3914C418.107 54.3914 417.777 54.4825 417.458 54.6647C417.139 54.8355 416.877 55.0973 416.672 55.4502C416.468 55.8032 416.365 56.2358 416.365 56.7481C416.365 57.2604 416.468 57.6931 416.672 58.046C416.877 58.3875 417.139 58.6494 417.458 58.8315C417.777 59.0023 418.107 59.0877 418.449 59.0877C418.79 59.0877 419.12 59.0023 419.439 58.8315C419.769 58.6494 420.031 58.3818 420.225 58.0289C420.429 57.676 420.532 57.2434 420.532 56.731ZM435.145 51.9665V61.4956H432.225V60.1977C431.929 60.619 431.525 60.9605 431.012 61.2224C430.512 61.4728 429.954 61.5981 429.339 61.5981C428.61 61.5981 427.967 61.4387 427.409 61.1199C426.851 60.7897 426.419 60.3173 426.111 59.7025C425.804 59.0877 425.65 58.3648 425.65 57.5337V51.9665H428.553V57.1409C428.553 57.7784 428.718 58.2737 429.049 58.6266C429.379 58.9795 429.823 59.156 430.381 59.156C430.95 59.156 431.4 58.9795 431.73 58.6266C432.06 58.2737 432.225 57.7784 432.225 57.1409V51.9665H435.145ZM438.882 50.976C438.37 50.976 437.949 50.828 437.618 50.532C437.3 50.2246 437.14 49.8489 437.14 49.4049C437.14 48.9495 437.3 48.5738 437.618 48.2778C437.949 47.9704 438.37 47.8167 438.882 47.8167C439.383 47.8167 439.793 47.9704 440.112 48.2778C440.442 48.5738 440.607 48.9495 440.607 49.4049C440.607 49.8489 440.442 50.2246 440.112 50.532C439.793 50.828 439.383 50.976 438.882 50.976ZM440.334 51.9665V61.4956H437.414V51.9665H440.334ZM442.04 56.714C442.04 55.7349 442.222 54.8753 442.587 54.1353C442.962 53.3953 443.469 52.826 444.107 52.4275C444.744 52.0291 445.456 51.8298 446.241 51.8298C446.867 51.8298 447.437 51.9608 447.949 52.2226C448.473 52.4845 448.882 52.8374 449.178 53.2814V48.8584H452.099V61.4956H449.178V60.1294C448.905 60.5848 448.512 60.9491 448 61.2224C447.499 61.4956 446.913 61.6322 446.241 61.6322C445.456 61.6322 444.744 61.433 444.107 61.0345C443.469 60.6247 442.962 60.0497 442.587 59.3097C442.222 58.5583 442.04 57.6931 442.04 56.714ZM449.178 56.731C449.178 56.0024 448.974 55.4275 448.564 55.0062C448.165 54.585 447.676 54.3744 447.095 54.3744C446.514 54.3744 446.019 54.585 445.609 55.0062C445.211 55.4161 445.012 55.9853 445.012 56.714C445.012 57.4426 445.211 58.0232 445.609 58.4558C446.019 58.8771 446.514 59.0877 447.095 59.0877C447.676 59.0877 448.165 58.8771 448.564 58.4558C448.974 58.0346 449.178 57.4597 449.178 56.731ZM455.851 50.976C455.338 50.976 454.917 50.828 454.587 50.532C454.268 50.2246 454.109 49.8489 454.109 49.4049C454.109 48.9495 454.268 48.5738 454.587 48.2778C454.917 47.9704 455.338 47.8167 455.851 47.8167C456.352 47.8167 456.762 47.9704 457.08 48.2778C457.411 48.5738 457.576 48.9495 457.576 49.4049C457.576 49.8489 457.411 50.2246 457.08 50.532C456.762 50.828 456.352 50.976 455.851 50.976ZM457.302 51.9665V61.4956H454.382V51.9665H457.302ZM464.9 59.0194V61.4956H463.415C462.356 61.4956 461.531 61.2394 460.938 60.7271C460.346 60.2034 460.05 59.3552 460.05 58.1826V54.3914H458.889V51.9665H460.05V49.6439H462.971V51.9665H464.883V54.3914H462.971V58.2168C462.971 58.5014 463.039 58.7063 463.176 58.8315C463.312 58.9568 463.54 59.0194 463.859 59.0194H464.9ZM476.432 51.9665L470.455 66.0211H467.313L469.499 61.1711L465.622 51.9665H468.884L471.087 57.9264L473.273 51.9665H476.432ZM412.542 78.5773C412.542 78.8506 412.525 79.1352 412.491 79.4312H405.882C405.928 80.0232 406.116 80.4786 406.446 80.7974C406.787 81.1048 407.203 81.2585 407.692 81.2585C408.421 81.2585 408.928 80.9511 409.212 80.3363H412.32C412.161 80.9625 411.871 81.526 411.449 82.027C411.04 82.5279 410.522 82.9207 409.895 83.2053C409.269 83.4899 408.569 83.6322 407.795 83.6322C406.861 83.6322 406.03 83.433 405.302 83.0345C404.573 82.636 404.004 82.0668 403.594 81.3268C403.184 80.5868 402.979 79.7215 402.979 78.731C402.979 77.7405 403.178 76.8753 403.577 76.1353C403.987 75.3953 404.556 74.826 405.285 74.4275C406.013 74.0291 406.85 73.8298 407.795 73.8298C408.717 73.8298 409.537 74.0234 410.254 74.4105C410.971 74.7976 411.529 75.3497 411.928 76.067C412.338 76.7842 412.542 77.621 412.542 78.5773ZM409.554 77.8089C409.554 77.3079 409.383 76.9095 409.042 76.6134C408.7 76.3174 408.273 76.1694 407.761 76.1694C407.271 76.1694 406.856 76.3117 406.514 76.5964C406.184 76.881 405.979 77.2852 405.899 77.8089H409.554ZM419.889 83.4956L418.062 80.8486L416.525 83.4956H413.366L416.508 78.6286L413.28 73.9665H416.559L418.386 76.5964L419.923 73.9665H423.083L419.889 78.7652L423.168 83.4956H419.889ZM427.384 75.3156C427.669 74.8716 428.062 74.5129 428.563 74.2397C429.064 73.9665 429.65 73.8298 430.322 73.8298C431.107 73.8298 431.819 74.0291 432.456 74.4275C433.094 74.826 433.595 75.3953 433.959 76.1353C434.335 76.8753 434.523 77.7349 434.523 78.714C434.523 79.6931 434.335 80.5583 433.959 81.3097C433.595 82.0497 433.094 82.6247 432.456 83.0345C431.819 83.433 431.107 83.6322 430.322 83.6322C429.661 83.6322 429.075 83.4956 428.563 83.2224C428.062 82.9491 427.669 82.5962 427.384 82.1636V88.0382H424.464V73.9665H427.384V75.3156ZM431.551 78.714C431.551 77.9853 431.346 77.4161 430.936 77.0062C430.538 76.585 430.043 76.3744 429.451 76.3744C428.87 76.3744 428.375 76.585 427.965 77.0062C427.567 77.4275 427.367 78.0024 427.367 78.731C427.367 79.4597 427.567 80.0346 427.965 80.4558C428.375 80.8771 428.87 81.0877 429.451 81.0877C430.031 81.0877 430.527 80.8771 430.936 80.4558C431.346 80.0232 431.551 79.4426 431.551 78.714ZM435.645 78.714C435.645 77.7349 435.827 76.8753 436.191 76.1353C436.567 75.3953 437.074 74.826 437.711 74.4275C438.349 74.0291 439.06 73.8298 439.846 73.8298C440.518 73.8298 441.104 73.9665 441.605 74.2397C442.117 74.5129 442.51 74.8716 442.783 75.3156V73.9665H445.703V83.4956H442.783V82.1465C442.499 82.5905 442.1 82.9491 441.588 83.2224C441.087 83.4956 440.501 83.6322 439.829 83.6322C439.055 83.6322 438.349 83.433 437.711 83.0345C437.074 82.6247 436.567 82.0497 436.191 81.3097C435.827 80.5583 435.645 79.6931 435.645 78.714ZM442.783 78.731C442.783 78.0024 442.578 77.4275 442.168 77.0062C441.77 76.585 441.28 76.3744 440.7 76.3744C440.119 76.3744 439.624 76.585 439.214 77.0062C438.816 77.4161 438.616 77.9853 438.616 78.714C438.616 79.4426 438.816 80.0232 439.214 80.4558C439.624 80.8771 440.119 81.0877 440.7 81.0877C441.28 81.0877 441.77 80.8771 442.168 80.4558C442.578 80.0346 442.783 79.4597 442.783 78.731ZM453.793 73.864C454.909 73.864 455.797 74.2283 456.457 74.9569C457.129 75.6742 457.465 76.6647 457.465 77.9284V83.4956H454.562V78.3212C454.562 77.6836 454.397 77.1884 454.066 76.8355C453.736 76.4825 453.292 76.3061 452.734 76.3061C452.176 76.3061 451.732 76.4825 451.402 76.8355C451.072 77.1884 450.907 77.6836 450.907 78.3212V83.4956H447.987V73.9665H450.907V75.2302C451.203 74.8089 451.602 74.4788 452.102 74.2397C452.603 73.9892 453.167 73.864 453.793 73.864ZM463.541 83.6322C462.71 83.6322 461.97 83.4899 461.321 83.2053C460.672 82.9207 460.16 82.5336 459.784 82.044C459.409 81.5431 459.198 80.9852 459.152 80.3705H462.039C462.073 80.7006 462.226 80.9682 462.5 81.1731C462.773 81.378 463.109 81.4805 463.507 81.4805C463.871 81.4805 464.15 81.4122 464.344 81.2756C464.549 81.1276 464.651 80.9397 464.651 80.712C464.651 80.4388 464.509 80.2395 464.224 80.1143C463.94 79.9777 463.479 79.8297 462.841 79.6703C462.158 79.5109 461.589 79.3458 461.133 79.175C460.678 78.9929 460.285 78.714 459.955 78.3383C459.625 77.9512 459.46 77.4332 459.46 76.7842C459.46 76.2377 459.608 75.7425 459.904 75.2985C460.211 74.8431 460.655 74.4845 461.236 74.2226C461.828 73.9608 462.528 73.8298 463.336 73.8298C464.532 73.8298 465.471 74.1258 466.154 74.7179C466.849 75.3099 467.247 76.0954 467.35 77.0745H464.651C464.606 76.7444 464.458 76.4825 464.207 76.289C463.968 76.0954 463.649 75.9987 463.251 75.9987C462.909 75.9987 462.648 76.067 462.465 76.2036C462.283 76.3288 462.192 76.5053 462.192 76.733C462.192 77.0062 462.335 77.2112 462.619 77.3478C462.915 77.4844 463.371 77.621 463.985 77.7576C464.691 77.9398 465.266 78.1219 465.71 78.3041C466.154 78.4749 466.541 78.7595 466.871 79.158C467.213 79.5451 467.389 80.0688 467.401 80.7291C467.401 81.2869 467.241 81.7879 466.923 82.2319C466.615 82.6645 466.166 83.0061 465.574 83.2565C464.993 83.507 464.315 83.6322 463.541 83.6322ZM470.827 72.976C470.314 72.976 469.893 72.828 469.563 72.532C469.244 72.2246 469.085 71.8489 469.085 71.4049C469.085 70.9495 469.244 70.5738 469.563 70.2778C469.893 69.9704 470.314 69.8167 470.827 69.8167C471.328 69.8167 471.738 69.9704 472.056 70.2778C472.387 70.5738 472.552 70.9495 472.552 71.4049C472.552 71.8489 472.387 72.2246 472.056 72.532C471.738 72.828 471.328 72.976 470.827 72.976ZM472.278 73.9665V83.4956H469.358V73.9665H472.278ZM478.903 83.6322C477.969 83.6322 477.127 83.433 476.376 83.0345C475.636 82.636 475.049 82.0668 474.617 81.3268C474.195 80.5868 473.985 79.7215 473.985 78.731C473.985 77.7519 474.201 76.8924 474.634 76.1524C475.066 75.401 475.658 74.826 476.41 74.4275C477.161 74.0291 478.004 73.8298 478.937 73.8298C479.871 73.8298 480.713 74.0291 481.465 74.4275C482.216 74.826 482.808 75.401 483.241 76.1524C483.673 76.8924 483.89 77.7519 483.89 78.731C483.89 79.7101 483.668 80.5754 483.224 81.3268C482.791 82.0668 482.193 82.636 481.43 83.0345C480.679 83.433 479.837 83.6322 478.903 83.6322ZM478.903 81.1048C479.461 81.1048 479.933 80.8999 480.32 80.49C480.719 80.0801 480.918 79.4938 480.918 78.731C480.918 77.9682 480.725 77.3819 480.338 76.9721C479.962 76.5622 479.495 76.3573 478.937 76.3573C478.368 76.3573 477.895 76.5622 477.52 76.9721C477.144 77.3705 476.956 77.9569 476.956 78.731C476.956 79.4938 477.138 80.0801 477.503 80.49C477.878 80.8999 478.345 81.1048 478.903 81.1048ZM491.416 73.864C492.532 73.864 493.42 74.2283 494.08 74.9569C494.752 75.6742 495.088 76.6647 495.088 77.9284V83.4956H492.184V78.3212C492.184 77.6836 492.019 77.1884 491.689 76.8355C491.359 76.4825 490.915 76.3061 490.357 76.3061C489.799 76.3061 489.355 76.4825 489.025 76.8355C488.695 77.1884 488.53 77.6836 488.53 78.3212V83.4956H485.61V73.9665H488.53V75.2302C488.826 74.8089 489.224 74.4788 489.725 74.2397C490.226 73.9892 490.79 73.864 491.416 73.864ZM500.497 78.714C500.497 77.7349 500.679 76.8753 501.043 76.1353C501.419 75.3953 501.925 74.826 502.563 74.4275C503.201 74.0291 503.912 73.8298 504.698 73.8298C505.369 73.8298 505.956 73.9665 506.457 74.2397C506.969 74.5129 507.362 74.8716 507.635 75.3156V73.9665H510.555V83.4956H507.635V82.1465C507.35 82.5905 506.952 82.9491 506.44 83.2224C505.939 83.4956 505.352 83.6322 504.681 83.6322C503.906 83.6322 503.201 83.433 502.563 83.0345C501.925 82.6247 501.419 82.0497 501.043 81.3097C500.679 80.5583 500.497 79.6931 500.497 78.714ZM507.635 78.731C507.635 78.0024 507.43 77.4275 507.02 77.0062C506.622 76.585 506.132 76.3744 505.552 76.3744C504.971 76.3744 504.476 76.585 504.066 77.0062C503.667 77.4161 503.468 77.9853 503.468 78.714C503.468 79.4426 503.667 80.0232 504.066 80.4558C504.476 80.8771 504.971 81.0877 505.552 81.0877C506.132 81.0877 506.622 80.8771 507.02 80.4558C507.43 80.0346 507.635 79.4597 507.635 78.731ZM518.645 73.864C519.761 73.864 520.649 74.2283 521.309 74.9569C521.981 75.6742 522.317 76.6647 522.317 77.9284V83.4956H519.413V78.3212C519.413 77.6836 519.248 77.1884 518.918 76.8355C518.588 76.4825 518.144 76.3061 517.586 76.3061C517.028 76.3061 516.584 76.4825 516.254 76.8355C515.924 77.1884 515.759 77.6836 515.759 78.3212V83.4956H512.839V73.9665H515.759V75.2302C516.055 74.8089 516.453 74.4788 516.954 74.2397C517.455 73.9892 518.019 73.864 518.645 73.864ZM523.936 78.714C523.936 77.7349 524.118 76.8753 524.482 76.1353C524.858 75.3953 525.365 74.826 526.002 74.4275C526.64 74.0291 527.351 73.8298 528.137 73.8298C528.763 73.8298 529.332 73.9608 529.845 74.2226C530.368 74.4845 530.778 74.8374 531.074 75.2814V70.8584H533.994V83.4956H531.074V82.1294C530.801 82.5848 530.408 82.9491 529.896 83.2224C529.395 83.4956 528.809 83.6322 528.137 83.6322C527.351 83.6322 526.64 83.433 526.002 83.0345C525.365 82.6247 524.858 82.0497 524.482 81.3097C524.118 80.5583 523.936 79.6931 523.936 78.714ZM531.074 78.731C531.074 78.0024 530.869 77.4275 530.459 77.0062C530.061 76.585 529.571 76.3744 528.991 76.3744C528.41 76.3744 527.915 76.585 527.505 77.0062C527.107 77.4161 526.907 77.9853 526.907 78.714C526.907 79.4426 527.107 80.0232 527.505 80.4558C527.915 80.8771 528.41 81.0877 528.991 81.0877C529.571 81.0877 530.061 80.8771 530.459 80.4558C530.869 80.0346 531.074 79.4597 531.074 78.731ZM405.028 94.976C404.516 94.976 404.095 94.828 403.765 94.532C403.446 94.2246 403.287 93.8489 403.287 93.4049C403.287 92.9495 403.446 92.5738 403.765 92.2778C404.095 91.9704 404.516 91.8167 405.028 91.8167C405.529 91.8167 405.939 91.9704 406.258 92.2778C406.588 92.5738 406.753 92.9495 406.753 93.4049C406.753 93.8489 406.588 94.2246 406.258 94.532C405.939 94.828 405.529 94.976 405.028 94.976ZM406.48 95.9665V105.496H403.56V95.9665H406.48ZM414.573 95.864C415.689 95.864 416.577 96.2283 417.237 96.9569C417.909 97.6742 418.245 98.6647 418.245 99.9284V105.496H415.342V100.321C415.342 99.6836 415.177 99.1884 414.847 98.8355C414.516 98.4825 414.072 98.3061 413.515 98.3061C412.957 98.3061 412.513 98.4825 412.182 98.8355C411.852 99.1884 411.687 99.6836 411.687 100.321V105.496H408.767V95.9665H411.687V97.2302C411.983 96.8089 412.382 96.4788 412.883 96.2397C413.384 95.9892 413.947 95.864 414.573 95.864ZM425.756 103.019V105.496H424.27C423.211 105.496 422.386 105.239 421.794 104.727C421.202 104.203 420.906 103.355 420.906 102.183V98.3914H419.745V95.9665H420.906V93.6439H423.826V95.9665H425.739V98.3914H423.826V102.217C423.826 102.501 423.895 102.706 424.031 102.832C424.168 102.957 424.396 103.019 424.714 103.019H425.756ZM436.536 100.577C436.536 100.851 436.519 101.135 436.485 101.431H429.876C429.921 102.023 430.109 102.479 430.439 102.797C430.781 103.105 431.197 103.258 431.686 103.258C432.415 103.258 432.921 102.951 433.206 102.336H436.314C436.155 102.962 435.864 103.526 435.443 104.027C435.033 104.528 434.515 104.921 433.889 105.205C433.263 105.49 432.563 105.632 431.789 105.632C430.855 105.632 430.024 105.433 429.295 105.035C428.567 104.636 427.997 104.067 427.588 103.327C427.178 102.587 426.973 101.722 426.973 100.731C426.973 99.7405 427.172 98.8753 427.57 98.1353C427.98 97.3953 428.55 96.826 429.278 96.4275C430.007 96.0291 430.844 95.8298 431.789 95.8298C432.711 95.8298 433.53 96.0234 434.248 96.4105C434.965 96.7976 435.523 97.3497 435.921 98.067C436.331 98.7842 436.536 99.621 436.536 100.577ZM433.548 99.8089C433.548 99.3079 433.377 98.9095 433.035 98.6134C432.694 98.3174 432.267 98.1694 431.754 98.1694C431.265 98.1694 430.849 98.3117 430.508 98.5964C430.178 98.881 429.973 99.2852 429.893 99.8089H433.548ZM441.168 97.5547C441.509 97.0309 441.936 96.6211 442.448 96.3251C442.961 96.0177 443.53 95.864 444.156 95.864V98.955H443.354C442.625 98.955 442.078 99.1144 441.714 99.4332C441.35 99.7405 441.168 100.287 441.168 101.073V105.496H438.247V95.9665H441.168V97.5547ZM454.705 100.577C454.705 100.851 454.688 101.135 454.654 101.431H448.045C448.091 102.023 448.279 102.479 448.609 102.797C448.95 103.105 449.366 103.258 449.855 103.258C450.584 103.258 451.091 102.951 451.375 102.336H454.483C454.324 102.962 454.034 103.526 453.612 104.027C453.203 104.528 452.685 104.921 452.058 105.205C451.432 105.49 450.732 105.632 449.958 105.632C449.024 105.632 448.193 105.433 447.465 105.035C446.736 104.636 446.167 104.067 445.757 103.327C445.347 102.587 445.142 101.722 445.142 100.731C445.142 99.7405 445.341 98.8753 445.74 98.1353C446.15 97.3953 446.719 96.826 447.448 96.4275C448.176 96.0291 449.013 95.8298 449.958 95.8298C450.88 95.8298 451.7 96.0234 452.417 96.4105C453.134 96.7976 453.692 97.3497 454.091 98.067C454.5 98.7842 454.705 99.621 454.705 100.577ZM451.717 99.8089C451.717 99.3079 451.546 98.9095 451.205 98.6134C450.863 98.3174 450.436 98.1694 449.924 98.1694C449.434 98.1694 449.019 98.3117 448.677 98.5964C448.347 98.881 448.142 99.2852 448.062 99.8089H451.717ZM460.293 105.632C459.462 105.632 458.722 105.49 458.073 105.205C457.424 104.921 456.912 104.534 456.536 104.044C456.161 103.543 455.95 102.985 455.904 102.37H458.79C458.825 102.701 458.978 102.968 459.252 103.173C459.525 103.378 459.861 103.48 460.259 103.48C460.623 103.48 460.902 103.412 461.096 103.276C461.301 103.128 461.403 102.94 461.403 102.712C461.403 102.439 461.261 102.24 460.976 102.114C460.692 101.978 460.231 101.83 459.593 101.67C458.91 101.511 458.341 101.346 457.885 101.175C457.43 100.993 457.037 100.714 456.707 100.338C456.377 99.9512 456.212 99.4332 456.212 98.7842C456.212 98.2377 456.36 97.7425 456.656 97.2985C456.963 96.8431 457.407 96.4845 457.988 96.2226C458.58 95.9608 459.28 95.8298 460.088 95.8298C461.284 95.8298 462.223 96.1258 462.906 96.7179C463.601 97.3099 463.999 98.0954 464.102 99.0745H461.403C461.358 98.7444 461.21 98.4825 460.959 98.289C460.72 98.0954 460.401 97.9987 460.003 97.9987C459.661 97.9987 459.4 98.067 459.217 98.2036C459.035 98.3288 458.944 98.5053 458.944 98.733C458.944 99.0062 459.087 99.2112 459.371 99.3478C459.667 99.4844 460.123 99.621 460.737 99.7576C461.443 99.9398 462.018 100.122 462.462 100.304C462.906 100.475 463.293 100.759 463.623 101.158C463.965 101.545 464.141 102.069 464.153 102.729C464.153 103.287 463.993 103.788 463.675 104.232C463.367 104.665 462.918 105.006 462.325 105.257C461.745 105.507 461.067 105.632 460.293 105.632ZM471.421 103.019V105.496H469.935C468.877 105.496 468.051 105.239 467.459 104.727C466.867 104.203 466.571 103.355 466.571 102.183V98.3914H465.41V95.9665H466.571V93.6439H469.491V95.9665H471.404V98.3914H469.491V102.217C469.491 102.501 469.56 102.706 469.696 102.832C469.833 102.957 470.061 103.019 470.379 103.019H471.421ZM478.477 94.976C477.965 94.976 477.543 94.828 477.213 94.532C476.894 94.2246 476.735 93.8489 476.735 93.4049C476.735 92.9495 476.894 92.5738 477.213 92.2778C477.543 91.9704 477.965 91.8167 478.477 91.8167C478.978 91.8167 479.388 91.9704 479.706 92.2778C480.037 92.5738 480.202 92.9495 480.202 93.4049C480.202 93.8489 480.037 94.2246 479.706 94.532C479.388 94.828 478.978 94.976 478.477 94.976ZM479.928 95.9665V105.496H477.008V95.9665H479.928ZM488.022 95.864C489.138 95.864 490.026 96.2283 490.686 96.9569C491.358 97.6742 491.693 98.6647 491.693 99.9284V105.496H488.79V100.321C488.79 99.6836 488.625 99.1884 488.295 98.8355C487.965 98.4825 487.521 98.3061 486.963 98.3061C486.405 98.3061 485.961 98.4825 485.631 98.8355C485.301 99.1884 485.136 99.6836 485.136 100.321V105.496H482.216V95.9665H485.136V97.2302C485.432 96.8089 485.83 96.4788 486.331 96.2397C486.832 95.9892 487.396 95.864 488.022 95.864ZM493.313 100.731C493.313 99.7405 493.512 98.8753 493.911 98.1353C494.32 97.3953 494.884 96.826 495.601 96.4275C496.33 96.0291 497.161 95.8298 498.094 95.8298C499.29 95.8298 500.286 96.1429 501.083 96.7691C501.891 97.3953 502.421 98.2776 502.671 99.4161H499.563C499.301 98.6874 498.795 98.3231 498.043 98.3231C497.508 98.3231 497.081 98.5338 496.762 98.955C496.444 99.3648 496.284 99.9569 496.284 100.731C496.284 101.505 496.444 102.103 496.762 102.524C497.081 102.934 497.508 103.139 498.043 103.139C498.795 103.139 499.301 102.775 499.563 102.046H502.671C502.421 103.162 501.891 104.038 501.083 104.676C500.275 105.313 499.279 105.632 498.094 105.632C497.161 105.632 496.33 105.433 495.601 105.035C494.884 104.636 494.32 104.067 493.911 103.327C493.512 102.587 493.313 101.722 493.313 100.731ZM508.742 105.632C507.808 105.632 506.966 105.433 506.214 105.035C505.474 104.636 504.888 104.067 504.455 103.327C504.034 102.587 503.823 101.722 503.823 100.731C503.823 99.7519 504.04 98.8924 504.472 98.1524C504.905 97.401 505.497 96.826 506.248 96.4275C507 96.0291 507.842 95.8298 508.776 95.8298C509.709 95.8298 510.552 96.0291 511.303 96.4275C512.055 96.826 512.647 97.401 513.079 98.1524C513.512 98.8924 513.728 99.7519 513.728 100.731C513.728 101.71 513.506 102.575 513.062 103.327C512.63 104.067 512.032 104.636 511.269 105.035C510.518 105.433 509.675 105.632 508.742 105.632ZM508.742 103.105C509.3 103.105 509.772 102.9 510.159 102.49C510.558 102.08 510.757 101.494 510.757 100.731C510.757 99.9682 510.563 99.3819 510.176 98.9721C509.8 98.5622 509.334 98.3573 508.776 98.3573C508.207 98.3573 507.734 98.5622 507.358 98.9721C506.983 99.3705 506.795 99.9569 506.795 100.731C506.795 101.494 506.977 102.08 507.341 102.49C507.717 102.9 508.184 103.105 508.742 103.105ZM527.607 95.864C528.791 95.864 529.731 96.2226 530.425 96.9399C531.131 97.6571 531.484 98.6533 531.484 99.9284V105.496H528.581V100.321C528.581 99.7064 528.416 99.2339 528.085 98.9038C527.767 98.5622 527.323 98.3914 526.753 98.3914C526.184 98.3914 525.734 98.5622 525.404 98.9038C525.086 99.2339 524.926 99.7064 524.926 100.321V105.496H522.023V100.321C522.023 99.7064 521.858 99.2339 521.528 98.9038C521.209 98.5622 520.765 98.3914 520.196 98.3914C519.626 98.3914 519.177 98.5622 518.847 98.9038C518.528 99.2339 518.368 99.7064 518.368 100.321V105.496H515.448V95.9665H518.368V97.1619C518.664 96.7634 519.052 96.4503 519.53 96.2226C520.008 95.9835 520.549 95.864 521.152 95.864C521.869 95.864 522.507 96.0177 523.065 96.3251C523.634 96.6325 524.078 97.0708 524.397 97.64C524.727 97.1163 525.177 96.6894 525.746 96.3592C526.315 96.0291 526.936 95.864 527.607 95.864ZM542.68 100.577C542.68 100.851 542.663 101.135 542.628 101.431H536.019C536.065 102.023 536.253 102.479 536.583 102.797C536.925 103.105 537.34 103.258 537.83 103.258C538.558 103.258 539.065 102.951 539.35 102.336H542.458C542.298 102.962 542.008 103.526 541.587 104.027C541.177 104.528 540.659 104.921 540.033 105.205C539.406 105.49 538.706 105.632 537.932 105.632C536.999 105.632 536.167 105.433 535.439 105.035C534.71 104.636 534.141 104.067 533.731 103.327C533.321 102.587 533.116 101.722 533.116 100.731C533.116 99.7405 533.316 98.8753 533.714 98.1353C534.124 97.3953 534.693 96.826 535.422 96.4275C536.15 96.0291 536.987 95.8298 537.932 95.8298C538.854 95.8298 539.674 96.0234 540.391 96.4105C541.109 96.7976 541.666 97.3497 542.065 98.067C542.475 98.7842 542.68 99.621 542.68 100.577ZM539.691 99.8089C539.691 99.3079 539.52 98.9095 539.179 98.6134C538.837 98.3174 538.41 98.1694 537.898 98.1694C537.408 98.1694 536.993 98.3117 536.651 98.5964C536.321 98.881 536.116 99.2852 536.037 99.8089H539.691Z" fill="white"/>
<defs>
<filter id="filter0_ddd" x="334.045" y="439.417" width="146.53" height="152.756" filterUnits="userSpaceOnUse" color-interpolation-filters="sRGB">
<feFlood flood-opacity="0" result="BackgroundImageFix"/>
<feColorMatrix in="SourceAlpha" type="matrix" values="0 0 0 0 0 0 0 0 0 0 0 0 0 0 0 0 0 0 127 0"/>
<feMorphology radius="7.58992" operator="dilate" in="SourceAlpha" result="effect1_dropShadow"/>
<feOffset dy="21.821"/>
<feGaussianBlur stdDeviation="14.2311"/>
<feColorMatrix type="matrix" values="0 0 0 0 0 0 0 0 0 0.0876457 0 0 0 0 0.391667 0 0 0 0.05 0"/>
<feBlend mode="normal" in2="BackgroundImageFix" result="effect1_dropShadow"/>
<feColorMatrix in="SourceAlpha" type="matrix" values="0 0 0 0 0 0 0 0 0 0 0 0 0 0 0 0 0 0 127 0"/>
<feOffset dy="44.5908"/>
<feGaussianBlur stdDeviation="2.84622"/>
<feColorMatrix type="matrix" values="0 0 0 0 0.121569 0 0 0 0 0.247059 0 0 0 0 0.682353 0 0 0 0.02 0"/>
<feBlend mode="normal" in2="effect1_dropShadow" result="effect2_dropShadow"/>
<feColorMatrix in="SourceAlpha" type="matrix" values="0 0 0 0 0 0 0 0 0 0 0 0 0 0 0 0 0 0 127 0"/>
<feOffset dy="54.0782"/>
<feGaussianBlur stdDeviation="9.4874"/>
<feColorMatrix type="matrix" values="0 0 0 0 0.121569 0 0 0 0 0.247059 0 0 0 0 0.682353 0 0 0 0.02 0"/>
<feBlend mode="normal" in2="effect2_dropShadow" result="effect3_dropShadow"/>
<feBlend mode="normal" in="SourceGraphic" in2="effect3_dropShadow" result="shape"/>
</filter>
<filter id="filter1_ddd" x="176.582" y="0.826332" width="217.514" height="237.585" filterUnits="userSpaceOnUse" color-interpolation-filters="sRGB">
<feFlood flood-opacity="0" result="BackgroundImageFix"/>
<feColorMatrix in="SourceAlpha" type="matrix" values="0 0 0 0 0 0 0 0 0 0 0 0 0 0 0 0 0 0 127 0"/>
<feMorphology radius="7.58992" operator="dilate" in="SourceAlpha" result="effect1_dropShadow"/>
<feOffset dy="21.821"/>
<feGaussianBlur stdDeviation="14.2311"/>
<feColorMatrix type="matrix" values="0 0 0 0 0 0 0 0 0 0.0876457 0 0 0 0 0.391667 0 0 0 0.05 0"/>
<feBlend mode="normal" in2="BackgroundImageFix" result="effect1_dropShadow"/>
<feColorMatrix in="SourceAlpha" type="matrix" values="0 0 0 0 0 0 0 0 0 0 0 0 0 0 0 0 0 0 127 0"/>
<feOffset dy="44.5908"/>
<feGaussianBlur stdDeviation="2.84622"/>
<feColorMatrix type="matrix" values="0 0 0 0 0.121569 0 0 0 0 0.247059 0 0 0 0 0.682353 0 0 0 0.02 0"/>
<feBlend mode="normal" in2="effect1_dropShadow" result="effect2_dropShadow"/>
<feColorMatrix in="SourceAlpha" type="matrix" values="0 0 0 0 0 0 0 0 0 0 0 0 0 0 0 0 0 0 127 0"/>
<feOffset dy="54.0782"/>
<feGaussianBlur stdDeviation="9.4874"/>
<feColorMatrix type="matrix" values="0 0 0 0 0.121569 0 0 0 0 0.247059 0 0 0 0 0.682353 0 0 0 0.02 0"/>
<feBlend mode="normal" in2="effect2_dropShadow" result="effect3_dropShadow"/>
<feBlend mode="normal" in="SourceGraphic" in2="effect3_dropShadow" result="shape"/>
</filter>
<filter id="filter2_ddd" x="176.582" y="212.357" width="217.514" height="237.585" filterUnits="userSpaceOnUse" color-interpolation-filters="sRGB">
<feFlood flood-opacity="0" result="BackgroundImageFix"/>
<feColorMatrix in="SourceAlpha" type="matrix" values="0 0 0 0 0 0 0 0 0 0 0 0 0 0 0 0 0 0 127 0"/>
<feMorphology radius="7.58992" operator="dilate" in="SourceAlpha" result="effect1_dropShadow"/>
<feOffset dy="21.821"/>
<feGaussianBlur stdDeviation="14.2311"/>
<feColorMatrix type="matrix" values="0 0 0 0 0 0 0 0 0 0.0876457 0 0 0 0 0.391667 0 0 0 0.05 0"/>
<feBlend mode="normal" in2="BackgroundImageFix" result="effect1_dropShadow"/>
<feColorMatrix in="SourceAlpha" type="matrix" values="0 0 0 0 0 0 0 0 0 0 0 0 0 0 0 0 0 0 127 0"/>
<feOffset dy="44.5908"/>
<feGaussianBlur stdDeviation="2.84622"/>
<feColorMatrix type="matrix" values="0 0 0 0 0.121569 0 0 0 0 0.247059 0 0 0 0 0.682353 0 0 0 0.02 0"/>
<feBlend mode="normal" in2="effect1_dropShadow" result="effect2_dropShadow"/>
<feColorMatrix in="SourceAlpha" type="matrix" values="0 0 0 0 0 0 0 0 0 0 0 0 0 0 0 0 0 0 127 0"/>
<feOffset dy="54.0782"/>
<feGaussianBlur stdDeviation="9.4874"/>
<feColorMatrix type="matrix" values="0 0 0 0 0.121569 0 0 0 0 0.247059 0 0 0 0 0.682353 0 0 0 0.02 0"/>
<feBlend mode="normal" in2="effect2_dropShadow" result="effect3_dropShadow"/>
<feBlend mode="normal" in="SourceGraphic" in2="effect3_dropShadow" result="shape"/>
</filter>
<filter id="filter3_ddd" x="0.746704" y="376.782" width="187.317" height="188.841" filterUnits="userSpaceOnUse" color-interpolation-filters="sRGB">
<feFlood flood-opacity="0" result="BackgroundImageFix"/>
<feColorMatrix in="SourceAlpha" type="matrix" values="0 0 0 0 0 0 0 0 0 0 0 0 0 0 0 0 0 0 127 0"/>
<feMorphology radius="7.58992" operator="dilate" in="SourceAlpha" result="effect1_dropShadow"/>
<feOffset dy="21.821"/>
<feGaussianBlur stdDeviation="14.2311"/>
<feColorMatrix type="matrix" values="0 0 0 0 0 0 0 0 0 0.0876457 0 0 0 0 0.391667 0 0 0 0.05 0"/>
<feBlend mode="normal" in2="BackgroundImageFix" result="effect1_dropShadow"/>
<feColorMatrix in="SourceAlpha" type="matrix" values="0 0 0 0 0 0 0 0 0 0 0 0 0 0 0 0 0 0 127 0"/>
<feOffset dy="44.5908"/>
<feGaussianBlur stdDeviation="2.84622"/>
<feColorMatrix type="matrix" values="0 0 0 0 0.121569 0 0 0 0 0.247059 0 0 0 0 0.682353 0 0 0 0.02 0"/>
<feBlend mode="normal" in2="effect1_dropShadow" result="effect2_dropShadow"/>
<feColorMatrix in="SourceAlpha" type="matrix" values="0 0 0 0 0 0 0 0 0 0 0 0 0 0 0 0 0 0 127 0"/>
<feOffset dy="54.0782"/>
<feGaussianBlur stdDeviation="9.4874"/>
<feColorMatrix type="matrix" values="0 0 0 0 0.121569 0 0 0 0 0.247059 0 0 0 0 0.682353 0 0 0 0.02 0"/>
<feBlend mode="normal" in2="effect2_dropShadow" result="effect3_dropShadow"/>
<feBlend mode="normal" in="SourceGraphic" in2="effect3_dropShadow" result="shape"/>
</filter>
<filter id="filter4_ddd" x="191.682" y="441.63" width="187.317" height="188.841" filterUnits="userSpaceOnUse" color-interpolation-filters="sRGB">
<feFlood flood-opacity="0" result="BackgroundImageFix"/>
<feColorMatrix in="SourceAlpha" type="matrix" values="0 0 0 0 0 0 0 0 0 0 0 0 0 0 0 0 0 0 127 0"/>
<feMorphology radius="7.58992" operator="dilate" in="SourceAlpha" result="effect1_dropShadow"/>
<feOffset dy="21.821"/>
<feGaussianBlur stdDeviation="14.2311"/>
<feColorMatrix type="matrix" values="0 0 0 0 0 0 0 0 0 0.0876457 0 0 0 0 0.391667 0 0 0 0.05 0"/>
<feBlend mode="normal" in2="BackgroundImageFix" result="effect1_dropShadow"/>
<feColorMatrix in="SourceAlpha" type="matrix" values="0 0 0 0 0 0 0 0 0 0 0 0 0 0 0 0 0 0 127 0"/>
<feOffset dy="44.5908"/>
<feGaussianBlur stdDeviation="2.84622"/>
<feColorMatrix type="matrix" values="0 0 0 0 0.121569 0 0 0 0 0.247059 0 0 0 0 0.682353 0 0 0 0.02 0"/>
<feBlend mode="normal" in2="effect1_dropShadow" result="effect2_dropShadow"/>
<feColorMatrix in="SourceAlpha" type="matrix" values="0 0 0 0 0 0 0 0 0 0 0 0 0 0 0 0 0 0 127 0"/>
<feOffset dy="54.0782"/>
<feGaussianBlur stdDeviation="9.4874"/>
<feColorMatrix type="matrix" values="0 0 0 0 0.121569 0 0 0 0 0.247059 0 0 0 0 0.682353 0 0 0 0.02 0"/>
<feBlend mode="normal" in2="effect2_dropShadow" result="effect3_dropShadow"/>
<feBlend mode="normal" in="SourceGraphic" in2="effect3_dropShadow" result="shape"/>
</filter>
<filter id="filter5_ddd" x="0.748657" y="136.958" width="187.317" height="188.841" filterUnits="userSpaceOnUse" color-interpolation-filters="sRGB">
<feFlood flood-opacity="0" result="BackgroundImageFix"/>
<feColorMatrix in="SourceAlpha" type="matrix" values="0 0 0 0 0 0 0 0 0 0 0 0 0 0 0 0 0 0 127 0"/>
<feMorphology radius="7.58992" operator="dilate" in="SourceAlpha" result="effect1_dropShadow"/>
<feOffset dy="21.821"/>
<feGaussianBlur stdDeviation="14.2311"/>
<feColorMatrix type="matrix" values="0 0 0 0 0 0 0 0 0 0.0876457 0 0 0 0 0.391667 0 0 0 0.05 0"/>
<feBlend mode="normal" in2="BackgroundImageFix" result="effect1_dropShadow"/>
<feColorMatrix in="SourceAlpha" type="matrix" values="0 0 0 0 0 0 0 0 0 0 0 0 0 0 0 0 0 0 127 0"/>
<feOffset dy="44.5908"/>
<feGaussianBlur stdDeviation="2.84622"/>
<feColorMatrix type="matrix" values="0 0 0 0 0.121569 0 0 0 0 0.247059 0 0 0 0 0.682353 0 0 0 0.02 0"/>
<feBlend mode="normal" in2="effect1_dropShadow" result="effect2_dropShadow"/>
<feColorMatrix in="SourceAlpha" type="matrix" values="0 0 0 0 0 0 0 0 0 0 0 0 0 0 0 0 0 0 127 0"/>
<feOffset dy="54.0782"/>
<feGaussianBlur stdDeviation="9.4874"/>
<feColorMatrix type="matrix" values="0 0 0 0 0.121569 0 0 0 0 0.247059 0 0 0 0 0.682353 0 0 0 0.02 0"/>
<feBlend mode="normal" in2="effect2_dropShadow" result="effect3_dropShadow"/>
<feBlend mode="normal" in="SourceGraphic" in2="effect3_dropShadow" result="shape"/>
</filter>
<filter id="filter6_ddd" x="277.073" y="65.8821" width="166.017" height="184.474" filterUnits="userSpaceOnUse" color-interpolation-filters="sRGB">
<feFlood flood-opacity="0" result="BackgroundImageFix"/>
<feColorMatrix in="SourceAlpha" type="matrix" values="0 0 0 0 0 0 0 0 0 0 0 0 0 0 0 0 0 0 127 0"/>
<feMorphology radius="7.58992" operator="dilate" in="SourceAlpha" result="effect1_dropShadow"/>
<feOffset dy="21.821"/>
<feGaussianBlur stdDeviation="14.2311"/>
<feColorMatrix type="matrix" values="0 0 0 0 0 0 0 0 0 0.0876457 0 0 0 0 0.391667 0 0 0 0.05 0"/>
<feBlend mode="normal" in2="BackgroundImageFix" result="effect1_dropShadow"/>
<feColorMatrix in="SourceAlpha" type="matrix" values="0 0 0 0 0 0 0 0 0 0 0 0 0 0 0 0 0 0 127 0"/>
<feOffset dy="44.5908"/>
<feGaussianBlur stdDeviation="2.84622"/>
<feColorMatrix type="matrix" values="0 0 0 0 0.121569 0 0 0 0 0.247059 0 0 0 0 0.682353 0 0 0 0.02 0"/>
<feBlend mode="normal" in2="effect1_dropShadow" result="effect2_dropShadow"/>
<feColorMatrix in="SourceAlpha" type="matrix" values="0 0 0 0 0 0 0 0 0 0 0 0 0 0 0 0 0 0 127 0"/>
<feOffset dy="54.0782"/>
<feGaussianBlur stdDeviation="9.4874"/>
<feColorMatrix type="matrix" values="0 0 0 0 0.121569 0 0 0 0 0.247059 0 0 0 0 0.682353 0 0 0 0.02 0"/>
<feBlend mode="normal" in2="effect2_dropShadow" result="effect3_dropShadow"/>
<feBlend mode="normal" in="SourceGraphic" in2="effect3_dropShadow" result="shape"/>
</filter>
<filter id="filter7_ddd" x="21.1425" y="311.661" width="146.53" height="152.756" filterUnits="userSpaceOnUse" color-interpolation-filters="sRGB">
<feFlood flood-opacity="0" result="BackgroundImageFix"/>
<feColorMatrix in="SourceAlpha" type="matrix" values="0 0 0 0 0 0 0 0 0 0 0 0 0 0 0 0 0 0 127 0"/>
<feMorphology radius="7.58992" operator="dilate" in="SourceAlpha" result="effect1_dropShadow"/>
<feOffset dy="21.821"/>
<feGaussianBlur stdDeviation="14.2311"/>
<feColorMatrix type="matrix" values="0 0 0 0 0 0 0 0 0 0.0876457 0 0 0 0 0.391667 0 0 0 0.05 0"/>
<feBlend mode="normal" in2="BackgroundImageFix" result="effect1_dropShadow"/>
<feColorMatrix in="SourceAlpha" type="matrix" values="0 0 0 0 0 0 0 0 0 0 0 0 0 0 0 0 0 0 127 0"/>
<feOffset dy="44.5908"/>
<feGaussianBlur stdDeviation="2.84622"/>
<feColorMatrix type="matrix" values="0 0 0 0 0.121569 0 0 0 0 0.247059 0 0 0 0 0.682353 0 0 0 0.02 0"/>
<feBlend mode="normal" in2="effect1_dropShadow" result="effect2_dropShadow"/>
<feColorMatrix in="SourceAlpha" type="matrix" values="0 0 0 0 0 0 0 0 0 0 0 0 0 0 0 0 0 0 127 0"/>
<feOffset dy="54.0782"/>
<feGaussianBlur stdDeviation="9.4874"/>
<feColorMatrix type="matrix" values="0 0 0 0 0.121569 0 0 0 0 0.247059 0 0 0 0 0.682353 0 0 0 0.02 0"/>
<feBlend mode="normal" in2="effect2_dropShadow" result="effect3_dropShadow"/>
<feBlend mode="normal" in="SourceGraphic" in2="effect3_dropShadow" result="shape"/>
</filter>
<filter id="filter8_ddd" x="128.312" y="404.059" width="166.017" height="184.474" filterUnits="userSpaceOnUse" color-interpolation-filters="sRGB">
<feFlood flood-opacity="0" result="BackgroundImageFix"/>
<feColorMatrix in="SourceAlpha" type="matrix" values="0 0 0 0 0 0 0 0 0 0 0 0 0 0 0 0 0 0 127 0"/>
<feMorphology radius="7.58992" operator="dilate" in="SourceAlpha" result="effect1_dropShadow"/>
<feOffset dy="21.821"/>
<feGaussianBlur stdDeviation="14.2311"/>
<feColorMatrix type="matrix" values="0 0 0 0 0 0 0 0 0 0.0876457 0 0 0 0 0.391667 0 0 0 0.05 0"/>
<feBlend mode="normal" in2="BackgroundImageFix" result="effect1_dropShadow"/>
<feColorMatrix in="SourceAlpha" type="matrix" values="0 0 0 0 0 0 0 0 0 0 0 0 0 0 0 0 0 0 127 0"/>
<feOffset dy="44.5908"/>
<feGaussianBlur stdDeviation="2.84622"/>
<feColorMatrix type="matrix" values="0 0 0 0 0.121569 0 0 0 0 0.247059 0 0 0 0 0.682353 0 0 0 0.02 0"/>
<feBlend mode="normal" in2="effect1_dropShadow" result="effect2_dropShadow"/>
<feColorMatrix in="SourceAlpha" type="matrix" values="0 0 0 0 0 0 0 0 0 0 0 0 0 0 0 0 0 0 127 0"/>
<feOffset dy="54.0782"/>
<feGaussianBlur stdDeviation="9.4874"/>
<feColorMatrix type="matrix" values="0 0 0 0 0.121569 0 0 0 0 0.247059 0 0 0 0 0.682353 0 0 0 0.02 0"/>
<feBlend mode="normal" in2="effect2_dropShadow" result="effect3_dropShadow"/>
<feBlend mode="normal" in="SourceGraphic" in2="effect3_dropShadow" result="shape"/>
</filter>
<filter id="filter9_ddd" x="403.007" y="238.897" width="146.53" height="152.756" filterUnits="userSpaceOnUse" color-interpolation-filters="sRGB">
<feFlood flood-opacity="0" result="BackgroundImageFix"/>
<feColorMatrix in="SourceAlpha" type="matrix" values="0 0 0 0 0 0 0 0 0 0 0 0 0 0 0 0 0 0 127 0"/>
<feMorphology radius="7.58992" operator="dilate" in="SourceAlpha" result="effect1_dropShadow"/>
<feOffset dy="21.821"/>
<feGaussianBlur stdDeviation="14.2311"/>
<feColorMatrix type="matrix" values="0 0 0 0 0 0 0 0 0 0.0876457 0 0 0 0 0.391667 0 0 0 0.05 0"/>
<feBlend mode="normal" in2="BackgroundImageFix" result="effect1_dropShadow"/>
<feColorMatrix in="SourceAlpha" type="matrix" values="0 0 0 0 0 0 0 0 0 0 0 0 0 0 0 0 0 0 127 0"/>
<feOffset dy="44.5908"/>
<feGaussianBlur stdDeviation="2.84622"/>
<feColorMatrix type="matrix" values="0 0 0 0 0.121569 0 0 0 0 0.247059 0 0 0 0 0.682353 0 0 0 0.02 0"/>
<feBlend mode="normal" in2="effect1_dropShadow" result="effect2_dropShadow"/>
<feColorMatrix in="SourceAlpha" type="matrix" values="0 0 0 0 0 0 0 0 0 0 0 0 0 0 0 0 0 0 127 0"/>
<feOffset dy="54.0782"/>
<feGaussianBlur stdDeviation="9.4874"/>
<feColorMatrix type="matrix" values="0 0 0 0 0.121569 0 0 0 0 0.247059 0 0 0 0 0.682353 0 0 0 0.02 0"/>
<feBlend mode="normal" in2="effect2_dropShadow" result="effect3_dropShadow"/>
<feBlend mode="normal" in="SourceGraphic" in2="effect3_dropShadow" result="shape"/>
</filter>
<filter id="filter10_ddd" x="382.614" y="136.958" width="187.317" height="188.841" filterUnits="userSpaceOnUse" color-interpolation-filters="sRGB">
<feFlood flood-opacity="0" result="BackgroundImageFix"/>
<feColorMatrix in="SourceAlpha" type="matrix" values="0 0 0 0 0 0 0 0 0 0 0 0 0 0 0 0 0 0 127 0"/>
<feMorphology radius="7.58992" operator="dilate" in="SourceAlpha" result="effect1_dropShadow"/>
<feOffset dy="21.821"/>
<feGaussianBlur stdDeviation="14.2311"/>
<feColorMatrix type="matrix" values="0 0 0 0 0 0 0 0 0 0.0876457 0 0 0 0 0.391667 0 0 0 0.05 0"/>
<feBlend mode="normal" in2="BackgroundImageFix" result="effect1_dropShadow"/>
<feColorMatrix in="SourceAlpha" type="matrix" values="0 0 0 0 0 0 0 0 0 0 0 0 0 0 0 0 0 0 127 0"/>
<feOffset dy="44.5908"/>
<feGaussianBlur stdDeviation="2.84622"/>
<feColorMatrix type="matrix" values="0 0 0 0 0.121569 0 0 0 0 0.247059 0 0 0 0 0.682353 0 0 0 0.02 0"/>
<feBlend mode="normal" in2="effect1_dropShadow" result="effect2_dropShadow"/>
<feColorMatrix in="SourceAlpha" type="matrix" values="0 0 0 0 0 0 0 0 0 0 0 0 0 0 0 0 0 0 127 0"/>
<feOffset dy="54.0782"/>
<feGaussianBlur stdDeviation="9.4874"/>
<feColorMatrix type="matrix" values="0 0 0 0 0.121569 0 0 0 0 0.247059 0 0 0 0 0.682353 0 0 0 0.02 0"/>
<feBlend mode="normal" in2="effect2_dropShadow" result="effect3_dropShadow"/>
<feBlend mode="normal" in="SourceGraphic" in2="effect3_dropShadow" result="shape"/>
</filter>
<filter id="filter11_ddd" x="385.366" y="376.78" width="187.317" height="188.841" filterUnits="userSpaceOnUse" color-interpolation-filters="sRGB">
<feFlood flood-opacity="0" result="BackgroundImageFix"/>
<feColorMatrix in="SourceAlpha" type="matrix" values="0 0 0 0 0 0 0 0 0 0 0 0 0 0 0 0 0 0 127 0"/>
<feMorphology radius="7.58992" operator="dilate" in="SourceAlpha" result="effect1_dropShadow"/>
<feOffset dy="21.821"/>
<feGaussianBlur stdDeviation="14.2311"/>
<feColorMatrix type="matrix" values="0 0 0 0 0 0 0 0 0 0.0876457 0 0 0 0 0.391667 0 0 0 0.05 0"/>
<feBlend mode="normal" in2="BackgroundImageFix" result="effect1_dropShadow"/>
<feColorMatrix in="SourceAlpha" type="matrix" values="0 0 0 0 0 0 0 0 0 0 0 0 0 0 0 0 0 0 127 0"/>
<feOffset dy="44.5908"/>
<feGaussianBlur stdDeviation="2.84622"/>
<feColorMatrix type="matrix" values="0 0 0 0 0.121569 0 0 0 0 0.247059 0 0 0 0 0.682353 0 0 0 0.02 0"/>
<feBlend mode="normal" in2="effect1_dropShadow" result="effect2_dropShadow"/>
<feColorMatrix in="SourceAlpha" type="matrix" values="0 0 0 0 0 0 0 0 0 0 0 0 0 0 0 0 0 0 127 0"/>
<feOffset dy="54.0782"/>
<feGaussianBlur stdDeviation="9.4874"/>
<feColorMatrix type="matrix" values="0 0 0 0 0.121569 0 0 0 0 0.247059 0 0 0 0 0.682353 0 0 0 0.02 0"/>
<feBlend mode="normal" in2="effect2_dropShadow" result="effect3_dropShadow"/>
<feBlend mode="normal" in="SourceGraphic" in2="effect3_dropShadow" result="shape"/>
</filter>
<linearGradient id="paint0_linear" x1="336.117" y1="119.525" x2="256.845" y2="139.561" gradientUnits="userSpaceOnUse">
<stop stop-color="#0B53DE"/>
<stop offset="1" stop-color="#3DD7D9"/>
</linearGradient>
<linearGradient id="paint1_linear" x1="336.117" y1="331.056" x2="256.845" y2="351.092" gradientUnits="userSpaceOnUse">
<stop stop-color="#0B53DE"/>
<stop offset="1" stop-color="#3DD7D9"/>
</linearGradient>
<linearGradient id="paint2_linear" x1="457.006" y1="438.121" x2="501.04" y2="438.121" gradientUnits="userSpaceOnUse">
<stop stop-color="#16D9E3"/>
<stop offset="0.47" stop-color="#30C7EC"/>
<stop offset="1" stop-color="#46AEF7"/>
</linearGradient>
<linearGradient id="paint3_linear" x1="457.006" y1="438.121" x2="501.04" y2="438.121" gradientUnits="userSpaceOnUse">
<stop stop-color="#16D9E3"/>
<stop offset="0.47" stop-color="#30C7EC"/>
<stop offset="1" stop-color="#46AEF7"/>
</linearGradient>
<linearGradient id="paint4_linear" x1="457.006" y1="438.121" x2="501.04" y2="438.121" gradientUnits="userSpaceOnUse">
<stop stop-color="#16D9E3"/>
<stop offset="0.47" stop-color="#30C7EC"/>
<stop offset="1" stop-color="#46AEF7"/>
</linearGradient>
<linearGradient id="paint5_linear" x1="457.006" y1="438.121" x2="501.04" y2="438.121" gradientUnits="userSpaceOnUse">
<stop stop-color="#16D9E3"/>
<stop offset="0.47" stop-color="#30C7EC"/>
<stop offset="1" stop-color="#46AEF7"/>
</linearGradient>
<linearGradient id="paint6_linear" x1="457.006" y1="438.121" x2="501.04" y2="438.121" gradientUnits="userSpaceOnUse">
<stop stop-color="#16D9E3"/>
<stop offset="0.47" stop-color="#30C7EC"/>
<stop offset="1" stop-color="#46AEF7"/>
</linearGradient>
<linearGradient id="paint7_linear" x1="457.006" y1="438.121" x2="501.04" y2="438.121" gradientUnits="userSpaceOnUse">
<stop stop-color="#16D9E3"/>
<stop offset="0.47" stop-color="#30C7EC"/>
<stop offset="1" stop-color="#46AEF7"/>
</linearGradient>
<linearGradient id="paint8_linear" x1="457.006" y1="438.121" x2="501.04" y2="438.121" gradientUnits="userSpaceOnUse">
<stop stop-color="#16D9E3"/>
<stop offset="0.47" stop-color="#30C7EC"/>
<stop offset="1" stop-color="#46AEF7"/>
</linearGradient>
<linearGradient id="paint9_linear" x1="72.3901" y1="198.298" x2="116.424" y2="198.298" gradientUnits="userSpaceOnUse">
<stop stop-color="#89F7FE"/>
<stop offset="1" stop-color="#66A6FF"/>
</linearGradient>
<linearGradient id="paint10_linear" x1="72.3901" y1="198.298" x2="116.424" y2="198.298" gradientUnits="userSpaceOnUse">
<stop stop-color="#89F7FE"/>
<stop offset="1" stop-color="#66A6FF"/>
</linearGradient>
<linearGradient id="paint11_linear" x1="72.3901" y1="198.298" x2="116.424" y2="198.298" gradientUnits="userSpaceOnUse">
<stop stop-color="#89F7FE"/>
<stop offset="1" stop-color="#66A6FF"/>
</linearGradient>
<linearGradient id="paint12_linear" x1="72.3901" y1="198.298" x2="116.424" y2="198.298" gradientUnits="userSpaceOnUse">
<stop stop-color="#89F7FE"/>
<stop offset="1" stop-color="#66A6FF"/>
</linearGradient>
<linearGradient id="paint13_linear" x1="72.3901" y1="198.298" x2="116.424" y2="198.298" gradientUnits="userSpaceOnUse">
<stop stop-color="#89F7FE"/>
<stop offset="1" stop-color="#66A6FF"/>
</linearGradient>
<linearGradient id="paint14_linear" x1="72.3901" y1="198.298" x2="116.424" y2="198.298" gradientUnits="userSpaceOnUse">
<stop stop-color="#89F7FE"/>
<stop offset="1" stop-color="#66A6FF"/>
</linearGradient>
<linearGradient id="paint15_linear" x1="72.3901" y1="198.298" x2="116.424" y2="198.298" gradientUnits="userSpaceOnUse">
<stop stop-color="#89F7FE"/>
<stop offset="1" stop-color="#66A6FF"/>
</linearGradient>
<linearGradient id="paint16_linear" x1="454.256" y1="198.298" x2="498.29" y2="198.298" gradientUnits="userSpaceOnUse">
<stop stop-color="#E0C3FC"/>
<stop offset="1" stop-color="#8EC5FC"/>
</linearGradient>
<linearGradient id="paint17_linear" x1="454.256" y1="198.298" x2="498.29" y2="198.298" gradientUnits="userSpaceOnUse">
<stop stop-color="#E0C3FC"/>
<stop offset="1" stop-color="#8EC5FC"/>
</linearGradient>
<linearGradient id="paint18_linear" x1="454.256" y1="198.298" x2="498.29" y2="198.298" gradientUnits="userSpaceOnUse">
<stop stop-color="#E0C3FC"/>
<stop offset="1" stop-color="#8EC5FC"/>
</linearGradient>
<linearGradient id="paint19_linear" x1="454.256" y1="198.298" x2="498.29" y2="198.298" gradientUnits="userSpaceOnUse">
<stop stop-color="#E0C3FC"/>
<stop offset="1" stop-color="#8EC5FC"/>
</linearGradient>
<linearGradient id="paint20_linear" x1="454.256" y1="198.298" x2="498.29" y2="198.298" gradientUnits="userSpaceOnUse">
<stop stop-color="#E0C3FC"/>
<stop offset="1" stop-color="#8EC5FC"/>
</linearGradient>
<linearGradient id="paint21_linear" x1="454.256" y1="198.298" x2="498.29" y2="198.298" gradientUnits="userSpaceOnUse">
<stop stop-color="#E0C3FC"/>
<stop offset="1" stop-color="#8EC5FC"/>
</linearGradient>
<linearGradient id="paint22_linear" x1="454.256" y1="198.298" x2="498.29" y2="198.298" gradientUnits="userSpaceOnUse">
<stop stop-color="#E0C3FC"/>
<stop offset="1" stop-color="#8EC5FC"/>
</linearGradient>
<linearGradient id="paint23_linear" x1="72.3892" y1="438.121" x2="116.423" y2="438.121" gradientUnits="userSpaceOnUse">
<stop stop-color="#2AF598"/>
<stop offset="1" stop-color="#009EFD"/>
</linearGradient>
<linearGradient id="paint24_linear" x1="72.3892" y1="438.121" x2="116.423" y2="438.121" gradientUnits="userSpaceOnUse">
<stop stop-color="#2AF598"/>
<stop offset="1" stop-color="#009EFD"/>
</linearGradient>
<linearGradient id="paint25_linear" x1="72.3892" y1="438.121" x2="116.423" y2="438.121" gradientUnits="userSpaceOnUse">
<stop stop-color="#2AF598"/>
<stop offset="1" stop-color="#009EFD"/>
</linearGradient>
<linearGradient id="paint26_linear" x1="72.3892" y1="438.121" x2="116.423" y2="438.121" gradientUnits="userSpaceOnUse">
<stop stop-color="#2AF598"/>
<stop offset="1" stop-color="#009EFD"/>
</linearGradient>
<linearGradient id="paint27_linear" x1="72.3892" y1="438.121" x2="116.423" y2="438.121" gradientUnits="userSpaceOnUse">
<stop stop-color="#2AF598"/>
<stop offset="1" stop-color="#009EFD"/>
</linearGradient>
<linearGradient id="paint28_linear" x1="72.3892" y1="438.121" x2="116.423" y2="438.121" gradientUnits="userSpaceOnUse">
<stop stop-color="#2AF598"/>
<stop offset="1" stop-color="#009EFD"/>
</linearGradient>
<linearGradient id="paint29_linear" x1="72.3892" y1="438.121" x2="116.423" y2="438.121" gradientUnits="userSpaceOnUse">
<stop stop-color="#2AF598"/>
<stop offset="1" stop-color="#009EFD"/>
</linearGradient>
<linearGradient id="paint30_linear" x1="263.323" y1="502.969" x2="307.356" y2="502.969" gradientUnits="userSpaceOnUse">
<stop stop-color="#48C6EF"/>
<stop offset="1" stop-color="#6F86D6"/>
</linearGradient>
<linearGradient id="paint31_linear" x1="263.323" y1="502.969" x2="307.356" y2="502.969" gradientUnits="userSpaceOnUse">
<stop stop-color="#48C6EF"/>
<stop offset="1" stop-color="#6F86D6"/>
</linearGradient>
<linearGradient id="paint32_linear" x1="263.323" y1="502.969" x2="307.356" y2="502.969" gradientUnits="userSpaceOnUse">
<stop stop-color="#48C6EF"/>
<stop offset="1" stop-color="#6F86D6"/>
</linearGradient>
<linearGradient id="paint33_linear" x1="263.323" y1="502.969" x2="307.356" y2="502.969" gradientUnits="userSpaceOnUse">
<stop stop-color="#48C6EF"/>
<stop offset="1" stop-color="#6F86D6"/>
</linearGradient>
<linearGradient id="paint34_linear" x1="263.323" y1="502.969" x2="307.356" y2="502.969" gradientUnits="userSpaceOnUse">
<stop stop-color="#48C6EF"/>
<stop offset="1" stop-color="#6F86D6"/>
</linearGradient>
<linearGradient id="paint35_linear" x1="263.323" y1="502.969" x2="307.356" y2="502.969" gradientUnits="userSpaceOnUse">
<stop stop-color="#48C6EF"/>
<stop offset="1" stop-color="#6F86D6"/>
</linearGradient>
<linearGradient id="paint36_linear" x1="263.323" y1="502.969" x2="307.356" y2="502.969" gradientUnits="userSpaceOnUse">
<stop stop-color="#48C6EF"/>
<stop offset="1" stop-color="#6F86D6"/>
</linearGradient>
</defs>
</svg>
