<svg width="19" height="20" viewBox="0 0 19 20" fill="none" xmlns="http://www.w3.org/2000/svg">
<path d="M16.522 11.3545C16.3716 11.4566 16.196 11.5168 16.0138 11.5289C15.8316 11.5409 15.6494 11.5044 15.4865 11.423C15.1042 11.2102 14.8981 10.7111 14.8981 10.0311V7.94688C14.8981 6.94636 14.4958 6.2345 13.8229 6.04125C12.6857 5.71345 11.8365 7.0858 11.5088 7.60195L9.49752 10.809V6.89499C9.47517 5.99232 9.17721 5.4517 8.61356 5.29025C8.24111 5.18262 7.68244 5.22665 7.13866 6.0437L2.64192 13.1549C2.04362 12.0272 1.73339 10.7727 1.73811 9.50024C1.73811 5.21442 5.21432 1.72852 9.49752 1.72852C13.7807 1.72852 17.2693 5.21442 17.2693 9.50024V9.52226C17.2693 9.52226 17.2693 9.53694 17.2693 9.54427C17.3116 10.3736 17.0384 11.034 16.5244 11.3545H16.522ZM19.005 9.50269V9.4611C18.9702 4.23836 14.7193 0.00146484 9.49752 0.00146484C4.27574 0.00146484 0 4.26283 0 9.50024C0 14.7377 4.26085 19.0015 9.49752 19.0015C11.8993 19.0014 14.2097 18.0944 15.9533 16.4672C16.1226 16.3101 16.2222 16.0936 16.2306 15.8646C16.2389 15.6357 16.1554 15.4127 15.998 15.244C15.9227 15.162 15.8317 15.0954 15.7302 15.0481C15.6287 15.0009 15.5187 14.9738 15.4065 14.9686C15.2944 14.9634 15.1823 14.9801 15.0767 15.0177C14.9711 15.0553 14.8741 15.1131 14.7913 15.1878C14.0406 15.8893 13.1537 16.4342 12.1839 16.7897C11.2142 17.1452 10.1815 17.3039 9.14787 17.2564C8.11426 17.2089 7.10107 16.956 6.16911 16.5131C5.23714 16.0702 4.40564 15.4463 3.72452 14.6789L7.77182 8.26978V11.2273C7.77182 12.6486 8.3305 13.1085 8.79979 13.243C9.26908 13.3775 9.98667 13.2846 10.739 12.081L12.9737 8.51685C13.0433 8.40188 13.1103 8.30403 13.1699 8.21841V10.0311C13.1699 11.3594 13.7112 12.4211 14.6597 12.9446C15.091 13.1739 15.577 13.2848 16.0667 13.2654C16.5565 13.246 17.0319 13.0972 17.4432 12.8345C18.486 12.1667 19.0546 10.9582 18.995 9.50269H19.005Z" fill="white"/>
</svg>
