<svg width="23" height="23" viewBox="0 0 23 23" fill="none" xmlns="http://www.w3.org/2000/svg">
<path d="M20.0003 13.7431C19.8182 13.8667 19.6057 13.9396 19.3851 13.9542C19.1645 13.9688 18.944 13.9245 18.7469 13.8261C18.284 13.5684 18.0345 12.9643 18.0345 12.1411V9.61813C18.0345 8.40698 17.5476 7.54526 16.733 7.31132C15.3564 6.91451 14.3284 8.57577 13.9317 9.20059L11.497 13.0828V8.34479C11.4699 7.25209 11.1093 6.59766 10.4269 6.40222C9.97608 6.27192 9.29979 6.32522 8.64153 7.31428L3.19812 15.9226C2.47385 14.5575 2.09831 13.0389 2.10403 11.4985C2.10403 6.31042 6.31208 2.09064 11.497 2.09064C16.6819 2.09064 20.905 6.31042 20.905 11.4985V11.5252C20.905 11.5252 20.905 11.5429 20.905 11.5518C20.9561 12.5557 20.6255 13.3552 20.0033 13.7431H20.0003ZM23.006 11.5015V11.4511C22.9639 5.12888 17.8181 0 11.497 0C5.1759 0 0 5.15849 0 11.4985C0 17.8385 5.15787 23 11.497 23C14.4044 22.9999 17.2012 21.902 19.3119 19.9321C19.5168 19.742 19.6374 19.4799 19.6475 19.2028C19.6576 18.9256 19.5565 18.6557 19.366 18.4515C19.2749 18.3522 19.1647 18.2716 19.0418 18.2144C18.9189 18.1572 18.7858 18.1245 18.65 18.1181C18.5143 18.1118 18.3786 18.132 18.2508 18.1775C18.1229 18.223 18.0055 18.293 17.9053 18.3834C16.9965 19.2327 15.9229 19.8923 14.749 20.3226C13.575 20.7529 12.3249 20.9451 11.0737 20.8875C9.82253 20.83 8.59603 20.524 7.46786 19.9878C6.3397 19.4517 5.33314 18.6964 4.50863 17.7675L9.408 10.009V13.5892C9.408 15.3096 10.0843 15.8664 10.6524 16.0292C11.2205 16.1921 12.0891 16.0796 12.9999 14.6226L15.705 10.3081C15.7892 10.1689 15.8704 10.0505 15.9425 9.94683V12.1411C15.9425 13.7491 16.5978 15.0342 17.7459 15.668C18.268 15.9456 18.8564 16.0798 19.4492 16.0563C20.0421 16.0329 20.6176 15.8527 21.1154 15.5347C22.3778 14.7263 23.0661 13.2634 22.994 11.5015H23.006Z" fill="white"/>
</svg>
