<svg width="19" height="22" viewBox="0 0 19 22" fill="none" xmlns="http://www.w3.org/2000/svg">
<g clip-path="url(#clip0)">
<path fill-rule="evenodd" clip-rule="evenodd" d="M15.7232 5.56441C17.6887 7.53856 18.5928 9.7496 18.5928 12.5924C18.5928 18.12 14.5964 21.9629 8.87055 21.9629H3.26259L0 18.6859V-0.00267913H5.7128C8.77883 -0.00267913 11.3601 1.10284 13.1159 2.95854L15.7232 5.56441ZM3.09225 2.94538H3.05294V3.60343L5.84382 6.3804V5.70918L3.09225 2.94538ZM6.31551 5.61706L3.65566 2.94538H3.27569L5.93554 5.61706H6.31551ZM7.24581 5.61706L4.58595 2.94538H3.83911L6.49896 5.61706H7.24581ZM5.75209 2.94538H4.76939L7.42924 5.61706H8.41195L5.75209 2.94538ZM9.36845 5.63022L6.761 3.01118C6.48584 2.9717 6.2238 2.95854 5.93554 2.94538L8.59539 5.61706H8.87055C9.04088 5.61706 9.21122 5.61706 9.36845 5.63022ZM10.207 5.72234L7.66509 3.16911C7.44235 3.11647 7.2065 3.07699 6.97064 3.03751L9.565 5.64339C9.78774 5.65654 10.0105 5.69603 10.207 5.72234ZM10.967 5.9066L8.49057 3.41917C8.30713 3.35337 8.11059 3.28756 7.91405 3.23492L10.4429 5.77499C10.6263 5.81448 10.7966 5.85396 10.967 5.9066ZM11.2552 5.99872C11.4256 6.07769 11.609 6.15666 11.7662 6.23562L9.35534 3.814C9.185 3.72188 9.00158 3.62974 8.81813 3.55079L11.2552 5.99872ZM3.05294 8.80202L3.52463 9.2758L3.41982 9.3811L3.05294 9.01259V15.909H5.84382V6.56464L3.05294 3.814V4.45889L5.69969 7.10425L5.59487 7.19638L3.05294 4.65631V5.31435L5.25419 7.53855L5.16247 7.64385L3.05294 5.51177V6.18298L4.8218 7.97287L4.73008 8.07816L3.05294 6.3804V7.0516L4.38941 8.40718L4.2977 8.51248L3.05294 7.24902V7.93339L3.95703 8.8415L3.8522 8.94678L3.05294 8.1308V8.80202ZM11.5566 5.84079C11.1111 5.14326 10.5215 4.55101 9.81394 4.09039L11.5566 5.84079ZM15.4612 5.82763L14.3998 4.73527C15.1075 6.06453 15.5661 7.70966 15.5661 9.42058C15.5661 9.60484 15.5661 9.78908 15.5529 9.96017L18.2259 12.6582V12.5924C18.2259 9.84173 17.3349 7.7623 15.4612 5.82763ZM6.2107 15.8958C10.0236 15.6852 12.4869 13.1714 12.4869 9.42058C12.4869 8.44667 12.3166 7.55172 12.0021 6.76206C11.2028 6.20931 10.2856 5.98557 8.87055 5.98557H6.2107V15.8958ZM15.0027 12.803L17.7804 15.5931C18.0424 14.7376 18.1997 13.8163 18.2259 12.8424L15.5399 10.1444C15.4743 11.092 15.2908 11.9738 15.0027 12.803ZM17.728 15.7247L14.9502 12.9346C14.7012 13.5926 14.3868 14.2112 14.0067 14.764L16.837 17.6067C17.2039 17.0276 17.5052 16.3959 17.728 15.7247ZM15.6839 19.0281C16.0901 18.6332 16.4439 18.1858 16.7584 17.712L13.9414 14.8823C13.6138 15.343 13.2469 15.7773 12.8276 16.1589L15.6839 19.0281ZM11.5828 17.146L14.4523 20.0283C14.8585 19.752 15.2385 19.4493 15.5922 19.1202L12.7358 16.2512C12.3821 16.5802 12.0021 16.8829 11.5828 17.146ZM10.3249 17.8436L13.1944 20.7259C13.5875 20.5417 13.9675 20.3311 14.3343 20.1073L11.4649 17.2251C11.1111 17.4619 10.7311 17.6593 10.3249 17.8436ZM9.09329 18.3042L11.9497 21.1734C12.3297 21.0681 12.7096 20.9233 13.0634 20.7785L10.1939 17.8962C9.84015 18.0542 9.47327 18.1989 9.09329 18.3042ZM7.90094 18.5938L10.7442 21.4497C11.1111 21.3839 11.4649 21.3049 11.8056 21.2128L8.96226 18.3569C8.6216 18.449 8.26782 18.5279 7.90094 18.5938ZM7.73061 18.6202C7.41614 18.6859 7.08857 18.7254 6.761 18.7517L9.57809 21.5682C9.91876 21.555 10.2463 21.5155 10.5739 21.476L7.73061 18.6202ZM8.49057 21.5945H8.87055C9.05398 21.5945 9.22432 21.5945 9.39465 21.5813L6.59067 18.7649C6.30241 18.778 6.01416 18.7912 5.7128 18.7912H5.69969L8.49057 21.5945ZM0.628932 18.7912L3.41982 21.5945H3.60325L0.825478 18.7912H0.628932ZM1.00892 18.7912L3.79979 21.5945H4.03563L1.24475 18.7912H1.00892ZM1.4282 18.7912L4.21908 21.5945H4.52044L1.72956 18.7912H1.4282ZM1.91301 18.7912L4.70388 21.5945H5.08386L2.29298 18.7912H1.91301ZM2.47643 18.7912L5.2673 21.5945H5.72589L2.93502 18.7912H2.47643ZM3.11845 18.7912L5.90933 21.5945H6.45964L3.66877 18.7912H3.11845ZM3.8653 18.7912L6.65619 21.5945H7.32442L4.53354 18.7912H3.8653ZM4.71698 18.7912L7.50786 21.5945H8.30713L5.50314 18.7912H4.71698ZM33.0189 15.9353L36.2815 19.2123V21.9629H23.6766L20.4141 18.6859V-0.00267913H32.6389L35.9015 3.27441V5.86712H26.6117L26.5985 7.74914H31.1452L34.4078 11.0262V13.6716H26.5985V15.9353H33.0189ZM35.5346 3.43234L32.7437 0.629049V2.82693L35.5346 5.49861V3.43234ZM26.5069 5.49861L23.7291 2.82693H23.5325L26.3103 5.49861H26.5069ZM27.031 5.49861L24.24 2.82693H23.9256L26.7034 5.49861H27.031ZM27.686 5.49861L24.8952 2.82693H24.4366L27.2274 5.49861H27.686ZM28.4722 5.49861L25.6944 2.82693H25.0917L27.8826 5.49861H28.4722ZM29.5205 5.49861L26.7165 2.82693H25.891L28.6688 5.49861H29.5205ZM30.5686 5.49861L27.7647 2.82693H26.9261L29.717 5.49861H30.5686ZM31.6562 5.49861L28.8653 2.82693H27.9743L30.7652 5.49861H31.6562ZM32.7045 5.49861L29.9397 2.82693H29.0619L31.8527 5.49861H32.7045ZM33.6216 5.49861L30.8438 2.82693H30.1232L32.9141 5.49861H33.6216ZM34.4078 5.49861L31.63 2.82693H31.0273L33.8313 5.49861H34.4078ZM34.9319 5.49861L32.1671 2.82693H31.8135L34.6174 5.49861H34.9319ZM35.325 5.49861L32.5602 2.82693H32.3506L35.1415 5.49861H35.325ZM23.4408 6.66994L24.0829 7.2885L23.9779 7.38062L23.4408 6.86735V7.74914H26.2316V5.60389L23.4408 2.93222V3.48498L25.8647 5.81448L25.7469 5.89344L23.4408 3.6824V4.2878L25.4193 6.18298L25.3013 6.27511L23.4408 4.47205V5.07745L24.9739 6.55149L24.8559 6.64361L23.4408 5.27487V5.88027L24.5283 6.91999L24.4235 7.01212L23.4408 6.06453V6.66994ZM31.25 8.38086V10.6314H31.2369L34.0409 13.303V11.1841L31.25 8.38086ZM26.3234 13.303H26.5592L23.7683 10.6314H23.5325L26.3234 13.303ZM23.9649 10.6314L26.7557 13.303H27.2144L24.4366 10.6314H23.9649ZM24.6331 10.6314L27.4109 13.303H28.1316L25.3276 10.6314H24.6331ZM25.5372 10.6314L28.3281 13.303H29.3108L26.533 10.6314H25.5372ZM30.5686 13.303L27.804 10.6314H26.7295L29.5073 13.303H30.5686ZM31.8265 13.303L29.0356 10.6314H27.9874L30.7784 13.303H31.8265ZM32.7306 13.303L29.9659 10.6314H29.2322L32.0231 13.303H32.7306ZM33.3857 13.303L30.6079 10.6314H30.1494L32.9403 13.303H33.3857ZM30.7914 10.6314L33.5955 13.303H33.8313L31.0535 10.6314H30.7914ZM23.4408 15.3035L23.7815 15.6325L23.6766 15.7378L23.4408 15.5142V15.9353H26.2316V13.3952L23.4408 10.7235V11.3026L25.8647 13.6453L25.7731 13.7374L23.4408 11.5V12.1186L25.4586 14.0532L25.3538 14.1453L23.4408 12.3028V12.9083L25.0393 14.448L24.9345 14.5402L23.4408 13.1057V13.711L24.6201 14.8429L24.5153 14.935L23.4408 13.9084V14.5139L24.2007 15.2377L24.0959 15.3298L23.4408 14.6981V15.3035ZM33.1237 16.567V18.7912L35.9145 21.5945V19.3703L33.1237 16.567ZM22.3139 18.7912H21.043L23.8339 21.5945H25.1048L22.3139 18.7912ZM23.6373 18.7912H22.4974L25.2883 21.5945H26.4413L23.6373 18.7912ZM23.8208 18.7912L26.6247 21.5945H27.6467L24.8428 18.7912H23.8208ZM25.0262 18.7912L27.8302 21.5945H28.7343L25.9434 18.7912H25.0262ZM26.9261 18.7912H26.1268L28.9177 21.5945H29.7301L26.9261 18.7912ZM30.6211 21.5945L27.8302 18.7912H27.1096L29.9136 21.5945H30.6211ZM28.0136 18.7912L30.8045 21.5945H31.4334L28.6426 18.7912H28.0136ZM28.826 18.7912L31.6169 21.5945H32.1803L29.3763 18.7912H28.826ZM29.5598 18.7912L32.3637 21.5945H32.8485L30.0445 18.7912H29.5598ZM30.228 18.7912L33.032 21.5945H33.4512L30.6473 18.7912H30.228ZM30.8307 18.7912L33.6347 21.5945H34.0016L31.1976 18.7912H30.8307ZM31.3811 18.7912L34.185 21.5945H34.4995L31.6955 18.7912H31.3811ZM31.879 18.7912L34.6829 21.5945H34.9449L32.1541 18.7912H31.879ZM32.3376 18.7912L35.1284 21.5945H35.3643L32.5602 18.7912H32.3376ZM32.7437 18.7912L35.5476 21.5945H35.7311L32.9271 18.7912H32.7437ZM53.7736 5.97241H44.1169V8.38086H48.8863L52.1488 11.6579V14.3427H44.1169V21.9629H41.2081L37.9455 18.6859V-0.00267913H50.511L53.7736 3.27441V5.97241ZM50.6158 0.629049V2.93222L53.3936 5.60389H53.4067V3.43234L50.6158 0.629049ZM43.8286 5.60389H44.0383L41.2475 2.93222H41.064L43.8286 5.60389ZM44.5493 5.60389L41.7454 2.93222H41.4571L44.2217 5.60389H44.5493ZM45.2175 5.60389L42.4136 2.93222H41.955L44.7328 5.60389H45.2175ZM46.0692 5.60389L43.2784 2.93222H42.6232L45.401 5.60389H46.0692ZM47.2485 5.60389L44.4575 2.93222H43.488L46.2526 5.60389H47.2485ZM48.3753 5.60389L45.5844 2.93222H44.6541L47.4449 5.60389H48.3753ZM49.607 5.60389L46.816 2.93222H45.7809L48.5718 5.60389H49.607ZM50.7731 5.60389L47.9953 2.93222H46.9995L49.8035 5.60389H50.7731ZM51.6379 5.60389L48.847 2.93222H48.1919L50.9697 5.60389H51.6379ZM52.3061 5.60389L49.5152 2.93222H49.0436L51.8344 5.60389H52.3061ZM52.804 5.60389L50.0262 2.93222H49.7118L52.5026 5.60389H52.804ZM50.2227 2.93222L53.0005 5.60389H53.1971L50.4193 2.93222H50.2227ZM40.9592 8.38086H43.75V5.70918L40.9592 3.02435V3.47182L43.4487 5.88027L43.3569 5.97241L40.9592 3.66924V4.27463L43.0425 6.28826L42.9377 6.39355L40.9592 4.47205V5.07745L42.6362 6.69625L42.5314 6.80154L40.9592 5.27487V5.88027L42.2301 7.10425L42.1383 7.19638L40.9592 6.06453V6.68309L41.8239 7.51224L41.7322 7.60436L40.9592 6.86735V7.47276L41.4178 7.92023L41.326 8.01235L40.9592 7.657V8.38086ZM48.9911 9.01259V11.3026L51.782 13.9743V11.8159L48.9911 9.01259ZM41.0377 11.3026L43.8155 13.9743H44.0776L41.2867 11.3026H41.0377ZM41.4833 11.3026L44.261 13.9743H44.7065L41.9287 11.3026H41.4833ZM42.1253 11.3026L44.8899 13.9743H45.7154L42.9115 11.3026H42.1253ZM43.108 11.3026L45.8989 13.9743H46.9209L44.1431 11.3026H43.108ZM44.3397 11.3026L47.1043 13.9743H48.2836L45.5188 11.3026H44.3397ZM45.7023 11.3026L48.4801 13.9743H49.5152L46.7244 11.3026H45.7023ZM46.9077 11.3026L49.7118 13.9743H50.498L47.7332 11.3026H46.9077ZM47.9167 11.3026L50.6944 13.9743H51.14L48.3622 11.3026H47.9167ZM48.5457 11.3026L51.3365 13.9743H51.5854L48.8076 11.3026H48.5457ZM40.9592 18.7912L43.75 21.5945V14.04L43.7238 14.0664L40.9592 11.421V11.8554L43.4617 14.277L43.3701 14.3691L40.9592 12.0528V12.6582L43.0556 14.6849L42.9508 14.7902L40.9592 12.8556V13.461L42.6494 15.0929L42.5446 15.1982L40.9592 13.6584V14.2638L42.2433 15.501L42.1515 15.5931L40.9592 14.448V15.0667L41.837 15.909L41.7454 16.0011L40.9592 15.2509V15.8694L41.4308 16.3169L41.3391 16.409L40.9592 16.0406V18.7912ZM38.5745 18.7912L41.3653 21.5945H41.9025L39.1247 18.7912H38.5745ZM39.7799 18.7912H39.3082L42.0991 21.5945H42.5707L39.7799 18.7912ZM39.9634 18.7912L42.7673 21.5945H43.108L40.3302 18.7912H39.9634ZM40.5136 18.7912L43.3046 21.5945H43.5535L40.7757 18.7912H40.5136ZM58.1499 -0.00267913L61.4125 3.27441V21.9629H58.4513L55.1887 18.6859V-0.00267913H58.1499ZM58.2548 0.839624L61.0457 3.64291V3.43234L58.2548 0.629049V0.839624ZM58.2548 1.40554L61.0457 4.20883V3.84033L58.2548 1.03704V1.40554ZM58.2548 2.18205L61.0457 4.98533V4.39308L58.2548 1.5898V2.18205ZM58.2548 3.27441L61.0457 6.07769V5.18274L58.2548 2.37946V3.27441ZM58.2548 4.7616L61.0457 7.56488V6.26195L58.2548 3.45865V4.7616ZM58.2548 6.8147L61.0457 9.61799V7.74914L58.2548 4.94585V6.8147ZM58.2548 18.7912L61.0457 21.5945V9.80224L58.2548 6.99896V18.7912ZM56.4203 18.7912H55.8176L58.6085 21.5945H59.1981L56.4203 18.7912ZM59.8664 21.5945L57.0755 18.7912H56.6038L59.3947 21.5945H59.8664ZM57.259 18.7912L60.0629 21.5945H60.4035L57.6259 18.7912H57.259ZM57.8092 18.7912L60.6001 21.5945H60.8491L58.0713 18.7912H57.8092ZM86.6353 4.43258C87.9062 5.69603 88.5089 7.13057 88.5089 8.9073C88.5089 12.5924 85.705 15.2772 81.8134 15.2772H78.4854V21.9629H75.5372L72.2747 18.6859V-0.00267913H78.8785C81.1845 -0.00267913 83.032 0.826462 84.0278 1.8267L86.6353 4.43258ZM75.3276 7.49907L75.6028 7.77546L75.498 7.88075L75.3276 7.70966V9.53903H77.9875V5.48544L75.3276 2.81377V3.37969L77.6206 5.73551L77.5289 5.82763L75.3276 3.59027V4.22199L77.2144 6.1435L77.1227 6.23562L75.3276 4.41941V5.03797L76.8213 6.55149L76.7165 6.64361L75.3276 5.23539V5.85396L76.4152 6.95948L76.3103 7.0516L75.3276 6.05136V6.66994L76.0089 7.36747L75.9041 7.45959L75.3276 6.88051V7.49907ZM78.3151 5.35383L75.7993 2.81377H75.511L78.053 5.367L78.171 5.35383H78.3151ZM78.9047 5.35383L76.3758 2.81377H75.9827L78.5116 5.35383H78.9047ZM79.6515 5.35383L77.1227 2.81377H76.5593L79.0881 5.35383H79.6515ZM80.5163 5.35383L77.9875 2.81377H77.3061L79.835 5.35383H80.5163ZM78.9308 2.81377H78.171L80.6998 5.35383H81.4597L78.9308 2.81377ZM82.2065 5.35383L79.7563 2.89273C79.5597 2.85325 79.3371 2.84009 79.1274 2.82693L81.6431 5.35383H82.2065ZM82.4816 5.05114L80.5425 3.10332C80.3722 3.03751 80.1756 2.98487 79.9921 2.94538L82.4162 5.38016C82.4686 5.38016 82.521 5.38016 82.5734 5.39332C82.5473 5.27487 82.521 5.16959 82.4816 5.05114ZM82.3638 4.74843C82.0755 4.09038 81.5645 3.5771 80.8831 3.24808L82.3638 4.74843ZM86.3732 4.69579L85.2201 3.52446C85.5347 4.23516 85.7443 5.11694 85.7443 5.99872C85.7443 6.15666 85.7443 6.31459 85.7312 6.45936L88.142 8.65724C88.0897 7.09108 87.5 5.85396 86.3732 4.69579ZM78.7999 9.53903C81.0666 9.53903 82.6521 8.1308 82.6521 6.13033C82.6521 6.01189 82.6521 5.89344 82.6389 5.77499C82.4162 5.73551 82.1803 5.72234 81.9576 5.72234H78.3543V9.53903H78.7999ZM87.7752 11.0657C88.011 10.4077 88.142 9.6838 88.142 8.9073V8.8415L85.7181 6.6173C85.6525 7.36747 85.4692 8.06499 85.1809 8.69672L87.7752 11.0657ZM85.1153 8.81517C84.8795 9.30213 84.5912 9.73644 84.2374 10.1313L86.9366 12.5924C87.251 12.1713 87.5263 11.6974 87.7228 11.1973L85.1153 8.81517ZM85.9015 13.6057C86.2552 13.3294 86.5698 13.0267 86.8581 12.6845L84.1458 10.2234C83.8444 10.5524 83.5168 10.8288 83.15 11.092L85.9015 13.6057ZM82.0362 11.7106L84.827 14.2638C85.1809 14.0928 85.4953 13.9085 85.7966 13.6848L83.032 11.171C82.7176 11.3684 82.39 11.5527 82.0362 11.7106ZM80.9356 12.0922L83.7527 14.6587C84.0803 14.5665 84.4078 14.448 84.7092 14.3165L81.9052 11.7632C81.5907 11.8948 81.2632 12.0001 80.9356 12.0922ZM79.8743 12.2897L82.7044 14.8561C83.0189 14.8166 83.3203 14.764 83.6085 14.6981L80.7914 12.1186C80.49 12.1975 80.1887 12.2502 79.8743 12.2897ZM81.6693 14.9087H81.8134C82.0492 14.9087 82.2852 14.8955 82.5079 14.8823L79.6908 12.316C79.4287 12.3423 79.1536 12.3555 78.8785 12.3687L81.6693 14.9087ZM77.9612 12.3687L80.7521 14.9087H81.4597L78.6819 12.3687H77.9612ZM78.1185 21.5945V14.9087H78.1316L75.3407 12.3687H75.3276V13.0399L77.7516 15.2509L77.6468 15.343L75.3276 13.2241V13.9216L77.293 15.7116L77.1882 15.8037L75.3276 14.1059V14.7902L76.8344 16.1721L76.7426 16.2643L75.3276 14.9746V15.672L76.3758 16.6328L76.2842 16.7249L75.3276 15.8563V16.5275L75.9303 17.0803L75.8386 17.1856L75.3276 16.7249V18.7912L78.1185 21.5945ZM75.5372 12.3687L78.3151 14.9087H78.6033L75.8124 12.3687H75.5372ZM75.9959 12.3687L78.7867 14.9087H79.1405L76.3497 12.3687H75.9959ZM76.5593 12.3687L79.3371 14.9087H79.7825L77.0047 12.3687H76.5593ZM77.175 12.3687L79.9791 14.9087H80.5555L77.7779 12.3687H77.175ZM72.9037 18.7912L75.6945 21.5945H76.271L73.4932 18.7912H72.9037ZM74.1483 18.7912H73.6767L76.4675 21.5945H76.9392L74.1483 18.7912ZM74.3318 18.7912L77.1358 21.5945H77.4765L74.6987 18.7912H74.3318ZM74.8821 18.7912L77.6731 21.5945H77.922L75.1441 18.7912H74.8821ZM105.844 -0.01584L108.975 3.12963V13.5268C108.975 18.7912 105.857 22.2394 101.127 22.2394C98.6243 22.2394 96.8291 21.5286 95.2044 19.8968L92.5183 17.2251C91.0378 15.7641 90.2386 13.5663 90.2386 10.7498V-0.01584H93.1867L96.4492 3.26124V13.8163C96.4492 14.6324 96.541 15.4219 96.7506 16.1327C97.183 16.238 97.6546 16.3038 98.1525 16.3038C101.114 16.3038 102.896 14.198 102.896 10.6446V-0.01584H105.844ZM96.0823 3.41917L93.2915 0.615886V0.826462L96.0823 3.62974V3.41917ZM105.949 0.839624L108.609 3.51131V3.28756L105.949 0.629049V0.839624ZM96.0823 4.19568V3.82716L93.2915 1.02388V1.39238L96.0823 4.19568ZM105.949 1.40554L108.609 4.07723V3.70872L105.949 1.03704V1.40554ZM96.0823 4.97217V4.37992L93.2915 1.57664V2.16888L96.0823 4.97217ZM105.949 2.18205L108.609 4.85372V4.26148L105.949 1.5898V2.18205ZM96.0823 6.06453V5.16959L93.2915 2.36629V3.26124L96.0823 6.06453ZM105.949 3.27441L108.609 5.94608V5.05114L105.949 2.37946V3.27441ZM96.0823 7.55172V6.24878L93.2915 3.4455V4.74843L96.0823 7.55172ZM105.949 4.7616L108.609 7.43327V6.13033L105.949 3.45865V4.7616ZM96.0823 9.60484V7.73597L93.2915 4.93269V6.80154L96.0823 9.60484ZM108.609 7.61752L105.949 4.94585V6.8147L108.609 9.48639V7.61752ZM93.2915 6.9858V10.6446C93.2915 13.382 94.4183 15.2904 96.3444 16.0011C96.1741 15.3167 96.0823 14.5797 96.0823 13.8163V9.78908L93.2915 6.9858ZM108.163 16.7117C108.451 15.751 108.609 14.6849 108.609 13.5268V9.67064L105.949 6.99896V10.7498C105.949 11.9738 105.805 13.0793 105.516 14.0532L108.163 16.7117ZM105.464 14.1849C105.267 14.8298 105.005 15.4219 104.678 15.9353L107.311 18.5806C107.639 18.0542 107.914 17.4751 108.111 16.8434L105.464 14.1849ZM106.302 19.8704C106.656 19.515 106.971 19.1334 107.246 18.6991L104.612 16.0537C104.337 16.488 104.023 16.8697 103.669 17.2251L106.302 19.8704ZM102.568 18.0674L105.228 20.739C105.582 20.5153 105.909 20.252 106.211 19.9625L103.564 17.304C103.263 17.5935 102.935 17.8436 102.568 18.0674ZM101.481 18.6202L104.154 21.3049C104.481 21.1602 104.809 21.0022 105.11 20.8048L102.45 18.1331C102.149 18.3174 101.821 18.4753 101.481 18.6202ZM94.0383 18.2648L95.4665 19.6335C95.7417 19.8968 96.0168 20.1336 96.2919 20.3441L94.3789 18.4226L94.0383 18.2648ZM95.0734 18.6859C94.9423 18.6332 94.8114 18.5938 94.6804 18.5411L96.8816 20.7522C97.0781 20.8707 97.2615 20.989 97.4581 21.0813L95.0734 18.6859ZM100.406 18.9491L103.092 21.6471C103.407 21.5682 103.708 21.476 104.009 21.3576L101.336 18.6727C101.035 18.778 100.721 18.8701 100.406 18.9491ZM95.3354 18.7649L97.8119 21.2523C97.9822 21.3181 98.1525 21.3971 98.336 21.4497L95.7941 18.8965C95.6368 18.857 95.4927 18.8176 95.3354 18.7649ZM96.0561 18.9622L98.6243 21.5418C98.8077 21.5945 98.9912 21.6471 99.1877 21.6866L96.5802 19.0675C96.3968 19.0281 96.2264 19.0018 96.0561 18.9622ZM99.3842 19.1202L102.07 21.8183C102.372 21.7919 102.66 21.7392 102.935 21.6734L100.249 18.9754C99.9738 19.0413 99.6856 19.0939 99.3842 19.1202ZM96.7899 19.0939L99.4104 21.7261C99.6201 21.7656 99.8297 21.7919 100.039 21.8183L97.4057 19.1728C97.1961 19.1596 96.9996 19.1334 96.7899 19.0939ZM98.4671 19.1992L101.127 21.8708C101.389 21.8708 101.651 21.8577 101.9 21.8314L99.227 19.1466C98.978 19.1728 98.7159 19.186 98.4671 19.1992ZM97.6023 19.186L100.236 21.8314C100.472 21.8577 100.694 21.8708 100.943 21.8708L98.2836 19.1992H98.1002C97.9299 19.1992 97.7726 19.1992 97.6023 19.186ZM123.519 15.8694L126.782 19.1466V21.9629H114.845L111.583 18.6859V-0.00267913H114.531L117.794 3.27441V15.8694H123.519ZM117.427 3.43234L114.636 0.629049V0.826462L117.427 3.62974V3.43234ZM117.427 4.19568V3.82716L114.636 1.02388V1.39238L117.427 4.19568ZM117.427 4.97217V4.37992L114.636 1.57664V2.16888L117.427 4.97217ZM117.427 6.06453V5.16959L114.636 2.36629V3.26124L117.427 6.06453ZM117.427 7.55172V6.24878L114.636 3.4455V4.74843L117.427 7.55172ZM117.427 9.60484V7.73597L114.636 4.93269V6.80154L117.427 9.60484ZM114.636 15.8694H117.427V9.78908L114.636 6.9858V15.8694ZM126.415 21.5945V19.3045L123.624 16.5011V18.7912L126.415 21.5945ZM112.212 18.7912L115.003 21.5945H116.221L113.417 18.7912H112.212ZM113.601 18.7912L116.405 21.5945H117.505L114.701 18.7912H113.601ZM114.885 18.7912L117.689 21.5945H118.671L115.867 18.7912H114.885ZM116.051 18.7912L118.855 21.5945H119.72L116.929 18.7912H116.051ZM117.112 18.7912L119.916 21.5945H120.689L117.898 18.7912H117.112ZM118.082 18.7912L120.873 21.5945H121.567L118.763 18.7912H118.082ZM118.947 18.7912L121.751 21.5945H122.366L119.562 18.7912H118.947ZM119.746 18.7912L122.55 21.5945H123.088L120.283 18.7912H119.746ZM120.467 18.7912L123.27 21.5945H123.743L120.952 18.7912H120.467ZM121.134 18.7912L123.925 21.5945H124.345L121.542 18.7912H121.134ZM121.724 18.7912L124.528 21.5945H124.883L122.092 18.7912H121.724ZM122.275 18.7912L125.065 21.5945H125.379L122.576 18.7912H122.275ZM122.772 18.7912L125.563 21.5945H125.826L123.034 18.7912H122.772ZM123.218 18.7912L126.009 21.5945H126.232L123.441 18.7912H123.218ZM140.854 12.974C141.864 13.9875 142.295 15.1061 142.295 16.646C142.295 19.9493 139.701 22.2394 135.941 22.2394C133.216 22.292 131.184 21.4892 129.914 20.5153L126.69 17.2777V14.1717L127.005 14.04C128.42 15.3694 130.385 16.1195 132.429 16.1195C134.132 16.1195 135.508 15.501 136.046 14.5665C134.002 13.5663 131.604 13.0135 130.255 11.2894L128.276 8.76253C127.333 7.55172 126.874 6.66994 126.874 5.22223C126.874 1.98463 129.442 -0.239577 133.189 -0.239577C135.09 -0.27906 137.015 0.23422 138.404 1.14233L141.64 4.39308V7.34114L141.352 7.48591C139.872 6.39355 138.182 5.77499 136.609 5.77499C134.801 5.77499 133.452 6.49885 133.098 7.63069C134.933 8.28874 136.897 8.94678 138.142 10.2234L140.854 12.974ZM138.483 1.74773V4.16935H138.469L141.274 6.9858V4.55101L138.483 1.74773ZM133.753 2.61635C133.648 2.60319 133.544 2.60319 133.452 2.60319C133.255 2.60319 133.058 2.61635 132.862 2.62952L135.692 5.47228C135.954 5.4328 136.242 5.40649 136.531 5.40649L133.753 2.61635ZM137.461 5.45913L134.749 2.7348C134.486 2.68216 134.211 2.64268 133.936 2.61635L136.714 5.40649C136.963 5.40649 137.212 5.4328 137.461 5.45913ZM135.535 5.49861L132.691 2.64268C132.351 2.69532 132.036 2.76112 131.735 2.85325L134.605 5.73551C134.893 5.63022 135.207 5.55125 135.535 5.49861ZM138.339 5.63022L135.718 2.99802C135.483 2.91906 135.234 2.84009 134.985 2.78745L137.684 5.49861C137.893 5.52494 138.116 5.57758 138.339 5.63022ZM134.473 5.78815L131.604 2.9059C131.224 3.03751 130.91 3.22177 130.647 3.4455L133.544 6.35407C133.805 6.13033 134.119 5.94608 134.473 5.78815ZM139.178 5.89344L136.701 3.40601C136.479 3.30072 136.242 3.19544 136.006 3.10332L138.588 5.69603C138.784 5.74867 138.981 5.81448 139.178 5.89344ZM132.743 7.49907C132.875 7.09108 133.111 6.73575 133.438 6.43304L130.542 3.52446C130.176 3.86664 129.94 4.2878 129.874 4.74843L132.534 7.42012L132.743 7.49907ZM139.964 6.22246L137.762 4.01142C137.54 3.86664 137.316 3.72188 137.081 3.60343L139.479 6.01189C139.636 6.07769 139.806 6.1435 139.964 6.22246ZM138.234 4.30096L140.343 6.41988C140.475 6.48568 140.619 6.56464 140.763 6.65678L138.352 4.23516L138.234 4.30096ZM129.862 5.02481C129.862 6.13034 130.87 6.7489 132.233 7.30167L129.862 4.91952V5.02481ZM130.831 11.3816C131.303 11.8948 131.958 12.3028 132.705 12.6713L129.691 9.64432C129.534 9.55219 129.377 9.46006 129.232 9.36794C129.705 10.026 130.228 10.7235 130.831 11.3816ZM131.002 10.276C130.687 10.1444 130.372 9.99966 130.084 9.85489L133.058 12.8424C133.347 12.974 133.648 13.1057 133.962 13.2373L131.002 10.276ZM131.303 10.3945L134.277 13.3689C134.513 13.4742 134.749 13.5663 134.985 13.6716L131.984 10.6577C131.761 10.5787 131.538 10.4866 131.303 10.3945ZM132.272 10.763L135.312 13.8163C135.508 13.8954 135.705 13.9875 135.902 14.0796L132.797 10.9472C132.626 10.8946 132.442 10.8288 132.272 10.763ZM136.216 14.198C136.23 14.1322 136.255 14.0664 136.268 14.0006L133.504 11.2105C133.373 11.1578 133.228 11.1052 133.098 11.0657L136.216 14.198ZM133.818 11.3289L136.295 13.8163C136.308 13.7637 136.308 13.6978 136.308 13.6453V13.6321L134.159 11.4737L133.818 11.3289ZM136.295 13.4347L136.255 13.2373L134.787 11.7632C134.696 11.7106 134.592 11.6711 134.486 11.6185L136.295 13.4347ZM140.592 13.2373L139.111 11.7501C139.295 12.2502 139.4 12.8161 139.4 13.4742C139.4 13.8031 139.374 14.1191 139.322 14.435L141.916 17.0408C141.929 16.9091 141.929 16.7776 141.929 16.646C141.929 15.1851 141.536 14.1849 140.592 13.2373ZM136.151 12.9346C135.967 12.5792 135.64 12.2765 135.22 12.0133L136.151 12.9346ZM141.902 17.2119L139.295 14.5928C139.165 15.1982 138.941 15.7641 138.627 16.2643L141.379 19.0281C141.653 18.4753 141.837 17.87 141.902 17.2119ZM140.448 20.252C140.789 19.923 141.077 19.5546 141.3 19.1466L138.548 16.3827C138.299 16.7776 137.998 17.1198 137.644 17.4357L140.448 20.252ZM136.557 18.1727L139.4 21.0417C139.753 20.8312 140.069 20.6074 140.356 20.3441L137.54 17.5146C137.238 17.7647 136.91 17.9883 136.557 18.1727ZM128.053 18.12L130.149 20.2258C130.346 20.3705 130.542 20.5153 130.766 20.6469L128.394 18.2779L128.053 18.12ZM135.456 18.6464L138.312 21.5155C138.653 21.3971 138.981 21.2655 139.282 21.0943L136.439 18.2384C136.138 18.3964 135.81 18.5411 135.456 18.6464ZM128.722 18.4095L131.184 20.8837C131.329 20.9496 131.473 21.0286 131.63 21.0943L129.088 18.5411L128.722 18.4095ZM129.364 18.6202L131.944 21.2259C132.102 21.2787 132.272 21.3444 132.442 21.3971L129.795 18.7385L129.364 18.6202ZM134.395 18.9097L137.238 21.7656C137.565 21.713 137.88 21.6471 138.168 21.555L135.325 18.6991C135.023 18.778 134.722 18.857 134.395 18.9097ZM130.044 18.8044L132.705 21.476C132.888 21.5286 133.071 21.5813 133.268 21.6209L130.556 18.8965C130.385 18.8701 130.215 18.8307 130.044 18.8044ZM130.778 18.936L133.49 21.6603C133.701 21.6998 133.897 21.7392 134.107 21.7656L131.368 19.0018C131.159 18.9886 130.975 18.9622 130.778 18.936ZM137.067 21.7919L134.237 18.936C133.962 18.9886 133.674 19.0149 133.385 19.0413L136.203 21.8708C136.504 21.8577 136.793 21.8314 137.067 21.7919ZM131.578 19.0281L134.343 21.7919C134.578 21.8183 134.801 21.8445 135.036 21.8577L132.245 19.0544C132.023 19.0544 131.801 19.0413 131.578 19.0281ZM135.22 21.8577C135.456 21.8708 135.705 21.8708 135.941 21.8708H136.006L133.203 19.0413C133.058 19.0544 132.927 19.0544 132.783 19.0544H132.429L135.22 21.8577ZM157.023 15.9353L160.286 19.2123V21.9629H147.68L144.418 18.6859V-0.00267913H156.644L159.906 3.27441V5.86712H150.615L150.603 7.74914H155.15L158.412 11.0262V13.6716H150.603V15.9353H157.023ZM159.539 3.43234L156.748 0.629049V2.82693L159.539 5.49861V3.43234ZM150.511 5.49861L147.734 2.82693H147.537L150.314 5.49861H150.511ZM151.035 5.49861L148.244 2.82693H147.929L150.707 5.49861H151.035ZM151.69 5.49861L148.899 2.82693H148.441L151.232 5.49861H151.69ZM152.477 5.49861L149.699 2.82693H149.096L151.887 5.49861H152.477ZM153.525 5.49861L150.721 2.82693H149.895L152.673 5.49861H153.525ZM154.573 5.49861L151.769 2.82693H150.931L153.721 5.49861H154.573ZM155.661 5.49861L152.87 2.82693H151.979L154.77 5.49861H155.661ZM156.709 5.49861L153.944 2.82693H153.066L155.857 5.49861H156.709ZM157.626 5.49861L154.849 2.82693H154.127L156.918 5.49861H157.626ZM158.412 5.49861L155.634 2.82693H155.031L157.836 5.49861H158.412ZM158.937 5.49861L156.171 2.82693H155.818L158.621 5.49861H158.937ZM159.33 5.49861L156.565 2.82693H156.355L159.146 5.49861H159.33ZM147.445 6.66994L148.087 7.2885L147.983 7.38062L147.445 6.86735V7.74914H150.236V5.60389L147.445 2.93222V3.48498L149.87 5.81448L149.751 5.89344L147.445 3.6824V4.2878L149.424 6.18298L149.305 6.27511L147.445 4.47205V5.07745L148.977 6.55149L148.86 6.64361L147.445 5.27487V5.88027L148.533 6.91999L148.427 7.01212L147.445 6.06453V6.66994ZM155.255 8.38086V10.6314H155.241L158.045 13.303V11.1841L155.255 8.38086ZM150.328 13.303H150.563L147.772 10.6314H147.537L150.328 13.303ZM147.969 10.6314L150.76 13.303H151.219L148.441 10.6314H147.969ZM148.638 10.6314L151.416 13.303H152.136L149.332 10.6314H148.638ZM149.542 10.6314L152.332 13.303H153.315L150.537 10.6314H149.542ZM154.573 13.303L151.808 10.6314H150.734L153.512 13.303H154.573ZM155.831 13.303L153.04 10.6314H151.992L154.782 13.303H155.831ZM156.734 13.303L153.97 10.6314H153.236L156.027 13.303H156.734ZM157.389 13.303L154.612 10.6314H154.154L156.945 13.303H157.389ZM154.795 10.6314L157.6 13.303H157.836L155.058 10.6314H154.795ZM147.445 15.3035L147.786 15.6325L147.68 15.7378L147.445 15.5142V15.9353H150.236V13.3952L147.445 10.7235V11.3026L149.87 13.6453L149.778 13.7374L147.445 11.5V12.1186L149.463 14.0532L149.358 14.1453L147.445 12.3028V12.9083L149.044 14.448L148.939 14.5402L147.445 13.1057V13.711L148.625 14.8429L148.519 14.935L147.445 13.9084V14.5139L148.205 15.2377L148.1 15.3298L147.445 14.6981V15.3035ZM157.128 16.567V18.7912L159.918 21.5945V19.3703L157.128 16.567ZM146.318 18.7912H145.048L147.838 21.5945H149.109L146.318 18.7912ZM147.642 18.7912H146.502L149.293 21.5945H150.446L147.642 18.7912ZM147.826 18.7912L150.629 21.5945H151.651L148.847 18.7912H147.826ZM149.031 18.7912L151.834 21.5945H152.738L149.948 18.7912H149.031ZM150.931 18.7912H150.131L152.922 21.5945H153.734L150.931 18.7912ZM154.625 21.5945L151.834 18.7912H151.113L153.918 21.5945H154.625ZM152.018 18.7912L154.809 21.5945H155.437L152.647 18.7912H152.018ZM152.83 18.7912L155.621 21.5945H156.184L153.381 18.7912H152.83ZM153.564 18.7912L156.368 21.5945H156.853L154.048 18.7912H153.564ZM154.232 18.7912L157.036 21.5945H157.456L154.652 18.7912H154.232ZM154.835 18.7912L157.638 21.5945H158.006L155.202 18.7912H154.835ZM155.385 18.7912L158.19 21.5945H158.504L155.7 18.7912H155.385ZM155.883 18.7912L158.688 21.5945H158.949L156.159 18.7912H155.883ZM156.341 18.7912L159.133 21.5945H159.368L156.565 18.7912H156.341ZM156.748 18.7912L159.552 21.5945H159.736L156.931 18.7912H156.748Z" fill="white"/>
</g>
<defs>
<clipPath id="clip0">
<rect width="18.6154" height="22" fill="white"/>
</clipPath>
</defs>
</svg>
