<svg width="22" height="22" viewBox="0 0 22 22" fill="none" xmlns="http://www.w3.org/2000/svg">
<path d="M10.9518 0.166517C13.825 0.153895 16.5855 1.28306 18.6262 3.30571C20.6668 5.32836 21.8203 8.0788 21.8331 10.952C21.8593 16.9349 17.0306 21.8064 11.0477 21.833C5.06475 21.8593 0.193185 17.0306 0.166611 11.0477C0.140659 5.15677 4.82148 0.343287 10.6765 0.171172L10.9518 0.166517ZM10.9558 0.986082L10.6801 0.991114C6.73863 1.11705 3.22583 3.54802 1.7272 7.21415C0.431563 10.3837 0.857019 13.949 2.75674 16.6989C3.61338 14.7819 3.75554 13.094 3.93815 10.8882L3.97305 10.4684L3.98261 10.3384C4.15914 8.2717 4.84891 6.56156 8.41467 5.57931C9.26171 5.37285 10.1441 5.44743 11.0374 5.65781C11.8468 5.46627 12.7833 5.45528 13.2818 5.88782C13.6248 6.17906 13.7944 6.41771 13.8384 6.60925C14.6014 6.9107 15.355 7.20901 16.0819 7.41939C19.929 8.46712 19.5419 10.5705 17.653 12.3289C17.1862 12.8102 16.6891 13.2617 16.3645 13.5904C14.9672 15.0144 12.5086 17.7615 12.7463 20.6027L12.7754 20.8612C13.4895 20.7379 14.1946 20.531 14.8803 20.2431C18.617 18.6741 21.0404 15.0085 21.0206 10.9559C20.9924 5.42433 16.4873 0.961842 10.9558 0.986082ZM18.4244 11.368C17.9142 11.7762 17.3215 12.0628 16.7225 12.31C16.1239 12.5583 15.5034 12.7501 14.8691 12.8831C14.2412 13.0071 13.6012 13.0598 12.9615 13.0401C12.4005 13.0241 11.837 12.923 11.3327 12.6505L11.1465 12.5401L11.1253 12.5644C11.5736 13.0715 12.2652 13.3015 12.9419 13.3627C13.6185 13.424 14.2866 13.2992 14.9272 13.1335C15.5671 12.9663 16.19 12.7395 16.7877 12.4561C17.2937 12.2071 17.7922 11.9299 18.2313 11.5759L18.4456 11.3924L18.4244 11.368ZM16.5153 10.0484C16.2833 10.0497 16.0963 10.2388 16.0976 10.4707C16.0989 10.7027 16.288 10.8897 16.52 10.8884C16.7519 10.8871 16.9389 10.698 16.9376 10.466C16.9359 10.2343 16.747 10.0475 16.5153 10.0484ZM9.57964 6.59669L9.44128 6.60161C8.43587 6.67297 7.64259 7.51141 7.643 8.5349C7.64344 9.60491 8.5112 10.472 9.58121 10.4715C10.6047 10.4711 11.4425 9.67715 11.513 8.67169L11.5178 8.53333C11.5162 7.46315 10.649 6.59669 9.57964 6.59669ZM9.58042 7.18781C10.3331 7.18781 10.9432 7.79795 10.9432 8.5506C10.9432 9.30325 10.3331 9.91339 9.58042 9.91339C8.82778 9.91339 8.21764 9.30325 8.21764 8.5506C8.21764 7.83977 8.76187 7.25604 9.45638 7.19338L9.58042 7.18781Z" fill="white"/>
</svg>
