<svg width="18" height="19" viewBox="0 0 18 19" fill="none" xmlns="http://www.w3.org/2000/svg">
<path d="M8.96013 0.00155181C11.3471 -0.008934 13.6404 0.929142 15.3357 2.6095C17.031 4.28985 17.9893 6.57484 17.9999 8.96177C18.0217 13.9322 14.0102 17.9793 9.03975 18.0014C4.06931 18.0232 0.0221661 14.0117 8.92197e-05 9.04127C-0.0214709 4.1473 3.86721 0.148406 8.73142 0.00541891L8.96013 0.00155181ZM8.96339 0.682421L8.73438 0.686602C5.45992 0.791223 2.54159 2.8108 1.29658 5.8565C0.220203 8.48966 0.573659 11.4516 2.15189 13.7361C2.86356 12.1435 2.98166 10.7413 3.13337 8.90881L3.16236 8.56003L3.17031 8.45204C3.31696 6.73509 3.89 5.31436 6.85233 4.49833C7.55601 4.32681 8.28905 4.38877 9.03122 4.56355C9.7036 4.40442 10.4816 4.39529 10.8958 4.75464C11.1808 4.99659 11.3216 5.19485 11.3581 5.35398C11.9921 5.60441 12.6181 5.85223 13.222 6.02701C16.4181 6.89744 16.0965 8.64487 14.5272 10.1057C14.1395 10.5055 13.7265 10.8806 13.4568 11.1537C12.2959 12.3368 10.2534 14.6189 10.4509 16.9793L10.4751 17.1941C11.0684 17.0916 11.6541 16.9197 12.2238 16.6806C15.3281 15.3771 17.3414 12.3319 17.3249 8.96503C17.3015 4.36958 13.5589 0.662283 8.96339 0.682421ZM15.1681 9.30742C14.7442 9.64654 14.2518 9.88458 13.7542 10.09C13.2569 10.2963 12.7414 10.4556 12.2144 10.5661C11.6928 10.6691 11.1612 10.7129 10.6297 10.6965C10.1636 10.6832 9.69545 10.5993 9.27655 10.3728L9.12187 10.2811L9.10426 10.3013C9.47665 10.7226 10.0512 10.9137 10.6134 10.9646C11.1755 11.0154 11.7305 10.9117 12.2627 10.7741C12.7944 10.6352 13.3118 10.4468 13.8083 10.2113C14.2287 10.0045 14.6429 9.77418 15.0076 9.48015L15.1857 9.32763L15.1681 9.30742ZM13.582 8.21112C13.3893 8.21221 13.234 8.36929 13.2351 8.56199C13.2362 8.75468 13.3933 8.91001 13.586 8.90894C13.7786 8.90785 13.934 8.75077 13.9329 8.55808C13.9315 8.36553 13.7746 8.2104 13.582 8.21112ZM7.82014 5.34354L7.7052 5.34763C6.86994 5.40691 6.2109 6.10346 6.21125 6.95374C6.21161 7.84267 6.93252 8.563 7.82145 8.56264C8.67173 8.5623 9.36775 7.9027 9.42635 7.06739L9.43034 6.95244C9.42897 6.06337 8.70856 5.34354 7.82014 5.34354ZM7.82079 5.83463C8.44607 5.83463 8.95296 6.34151 8.95296 6.96679C8.95296 7.59206 8.44607 8.09895 7.82079 8.09895C7.19552 8.09895 6.68863 7.59206 6.68863 6.96679C6.68863 6.37625 7.14076 5.89131 7.71774 5.83925L7.82079 5.83463Z" fill="white"/>
</svg>
