<svg width="20" height="21" viewBox="0 0 20 21" fill="none" xmlns="http://www.w3.org/2000/svg">
<path d="M2.96543 18.4924H14.8479L14.2804 16.6549L15.6379 17.8199L16.8821 18.9349L19.1488 20.8291V2.8916C19.0921 1.7766 18.1321 0.829102 16.9421 0.829102L2.9696 0.831602C1.78043 0.831602 0.81543 1.78077 0.81543 2.89577V16.4291C0.81543 17.6049 1.77876 18.4924 2.96543 18.4924ZM11.7554 5.56493L11.7279 5.57493L11.7379 5.56493H11.7554ZM5.39626 6.62244C6.92376 5.51077 8.3396 5.5641 8.3396 5.5641L8.45376 5.6766C6.5846 6.12243 5.7371 6.95743 5.7371 6.95743C5.7371 6.95743 5.96376 6.8466 6.3596 6.67743C8.8771 5.68744 11.6263 5.7591 14.1713 7.01243C14.1713 7.01243 13.3221 6.2316 11.5679 5.7316L11.7229 5.5791C11.9654 5.57993 13.2488 5.62493 14.6221 6.6291C14.6221 6.6291 16.1588 9.2541 16.1588 12.4791C16.1079 12.4174 15.2054 13.8674 12.8829 13.9174C12.8829 13.9174 12.4896 13.4724 12.2096 13.0841C13.5679 12.6941 14.0763 11.9141 14.0763 11.9141C13.6304 12.1949 13.2238 12.3616 12.8938 12.5283C12.3863 12.7516 11.8779 12.8616 11.3704 12.9741C8.9671 13.3641 7.61793 12.7116 6.34293 12.1941L5.9071 11.9724C5.9071 11.9724 6.4146 12.7524 7.71876 13.1424C7.37626 13.5333 7.0371 13.9774 7.0371 13.9774C4.71543 13.9224 3.86876 12.4724 3.86876 12.4724C3.86876 9.24243 5.39626 6.62244 5.39626 6.62244Z" fill="white"/>
<path d="M11.9051 11.4714C12.4976 11.4714 12.9801 10.9714 12.9801 10.3547C12.9801 9.74219 12.5001 9.24219 11.9051 9.24219V9.24469C11.3151 9.24469 10.8317 9.74302 10.8301 10.3597C10.8301 10.9714 11.3126 11.4714 11.9051 11.4714Z" fill="white"/>
<path d="M8.05742 11.4714C8.64992 11.4714 9.13242 10.9714 9.13242 10.3547C9.13242 9.74219 8.65326 9.24219 8.06076 9.24219L8.05742 9.24469C7.46492 9.24469 6.98242 9.74302 6.98242 10.3597C6.98242 10.9714 7.46492 11.4714 8.05742 11.4714Z" fill="white"/>
</svg>
