<svg width="44" height="44" viewBox="0 0 44 44" fill="none" xmlns="http://www.w3.org/2000/svg">
<path d="M38.8691 19.4062C38.8691 19.2359 38.8641 19.0706 38.8541 18.9053C38.8242 17.8894 38.6745 16.8807 38.4082 15.8999C38.3181 15.5593 38.2129 15.2237 38.0977 14.8981C37.7243 13.8366 37.2177 12.8267 36.59 11.8928C36.3596 11.5472 36.1092 11.2115 35.8487 10.891C33.2839 7.72039 29.4231 5.87935 25.345 5.88208C25.0095 5.88208 24.6738 5.89212 24.3433 5.92214V32.8902C24.6738 32.9203 25.0095 32.9303 25.345 32.9303C29.4232 32.933 33.2839 31.092 35.8487 27.9213C36.1125 27.6001 36.3599 27.2658 36.59 26.9196C37.2177 25.9856 37.7243 24.9758 38.0977 23.9142C38.2129 23.5886 38.3181 23.253 38.4082 22.9124C38.6745 21.9317 38.8242 20.9229 38.8541 19.9071C38.8641 19.7418 38.8691 19.5765 38.8691 19.4062Z" fill="#6F480E"/>
<path d="M36.5891 11.8926C36.3587 11.547 36.1083 11.2113 35.8478 10.8908H31.8557C31.579 10.8908 31.3547 11.1151 31.3547 11.3917C31.3547 11.6683 31.579 11.8926 31.8557 11.8926H36.5891V11.8926Z" fill="#C08935"/>
<path d="M38.4082 22.9124H31.6362C31.3596 22.9124 31.1353 23.1367 31.1353 23.4134C31.1353 23.69 31.3595 23.9143 31.6362 23.9143H38.0977C38.2129 23.5886 38.318 23.2531 38.4082 22.9124Z" fill="#C08935"/>
<path d="M38.8685 19.406C38.8685 19.2357 38.8635 19.0704 38.8535 18.9051H34.8364C34.5597 18.9051 34.3354 19.1293 34.3354 19.406C34.3354 19.6827 34.5597 19.9069 34.8364 19.9069H38.8535C38.8635 19.7416 38.8685 19.5763 38.8685 19.406Z" fill="#C08935"/>
<path d="M38.4077 15.8995C38.3176 15.5589 38.2124 15.2233 38.0972 14.8977H31.6357C31.3591 14.8977 31.1348 15.122 31.1348 15.3987C31.1348 15.6753 31.359 15.8996 31.6357 15.8996H38.4077V15.8995Z" fill="#C08935"/>
<path d="M23.3405 5.88205C30.8096 5.88205 36.8645 11.937 36.8645 19.4061C36.8645 26.8752 30.8096 32.9302 23.3405 32.9302C15.8713 32.9302 9.81641 26.8752 9.81641 19.4061C9.81641 11.937 15.8713 5.88205 23.3405 5.88205Z" fill="#F4CB45"/>
<path d="M23.3407 9.88923C18.0846 9.88923 13.8237 14.1501 13.8237 19.4061C13.8237 24.6622 18.0846 28.9231 23.3407 28.9231C28.5967 28.9231 32.8576 24.6622 32.8576 19.4061C32.8516 14.1526 28.5942 9.89519 23.3407 9.88923Z" fill="#EBA53A"/>
<path d="M23.3405 30.426C23.2079 30.428 23.0809 30.4799 22.9849 30.5713C22.8925 30.6668 22.8405 30.7941 22.8396 30.9269C22.8403 30.9924 22.8538 31.0572 22.8795 31.1175C22.905 31.1781 22.9406 31.234 22.9849 31.2826C23.1281 31.4271 23.3447 31.4705 23.5326 31.3925C23.7205 31.3145 23.8426 31.1305 23.8414 30.927C23.8402 30.8935 23.8369 30.86 23.8313 30.827C23.8258 30.7956 23.8156 30.7652 23.8013 30.7367C23.7902 30.7047 23.775 30.6744 23.756 30.6464C23.7362 30.6214 23.7161 30.5965 23.6961 30.5713C23.6001 30.4799 23.4731 30.428 23.3405 30.426Z" fill="#F4DF8B"/>
<path d="M23.3405 7.38492C23.2079 7.3869 23.0809 7.43876 22.9849 7.53017C22.8925 7.62567 22.8405 7.753 22.8396 7.88583C22.8403 7.95131 22.8538 8.01605 22.8795 8.07637C22.905 8.13702 22.9406 8.19286 22.9849 8.24149C23.1281 8.38595 23.3447 8.42941 23.5326 8.35139C23.7205 8.27337 23.8426 8.08936 23.8414 7.88589C23.8402 7.85235 23.8369 7.81893 23.8313 7.78585C23.8258 7.75447 23.8156 7.72406 23.8013 7.69558C23.7902 7.66363 23.775 7.63327 23.756 7.6053C23.7362 7.58033 23.7161 7.55543 23.6961 7.53023C23.6001 7.43876 23.4731 7.3869 23.3405 7.38492Z" fill="#F4DF8B"/>
<path d="M20.3605 30.0352C20.2938 30.0346 20.2275 30.0465 20.1651 30.0701C20.1052 30.0963 20.0508 30.1338 20.0049 30.1804C19.8112 30.376 19.8112 30.6911 20.0049 30.8867C20.0494 30.9349 20.1041 30.9725 20.1651 30.9968C20.3528 31.0716 20.5671 31.0285 20.7112 30.8868C20.8072 30.7944 20.8614 30.6669 20.8614 30.5336C20.8614 30.4004 20.8072 30.2729 20.7112 30.1805C20.619 30.0863 20.4923 30.0339 20.3605 30.0352Z" fill="#F4DF8B"/>
<path d="M26.3215 7.77558C26.1881 7.77824 26.0608 7.83198 25.9658 7.92577C25.7721 8.12136 25.7721 8.4365 25.9658 8.63209C26.1667 8.81746 26.4762 8.81746 26.677 8.63209C26.7013 8.6107 26.7216 8.58533 26.7372 8.55702C26.7556 8.52973 26.7724 8.5013 26.7873 8.47191C26.7981 8.44081 26.8064 8.40892 26.8123 8.37652C26.8206 8.34384 26.824 8.31014 26.8224 8.27649C26.8237 8.14468 26.7712 8.01803 26.6771 7.92577C26.6317 7.87624 26.575 7.83845 26.5118 7.81569C26.4517 7.78988 26.387 7.7762 26.3215 7.77558Z" fill="#F4DF8B"/>
<path d="M17.5805 28.8833C17.5153 28.8823 17.4506 28.8941 17.39 28.9183C17.3295 28.9461 17.2738 28.9833 17.2248 29.0284C17.2032 29.0522 17.1831 29.0773 17.1647 29.1037C17.1457 29.1316 17.1305 29.1618 17.1195 29.1937C17.1051 29.2221 17.095 29.2525 17.0896 29.284C17.0837 29.3171 17.0804 29.3507 17.0796 29.3842C17.0803 29.4497 17.0938 29.5143 17.1195 29.5745C17.1653 29.7002 17.2643 29.7992 17.39 29.845C17.4814 29.8849 17.5829 29.8954 17.6805 29.8751C17.7119 29.8695 17.7423 29.8593 17.7708 29.845C17.8028 29.834 17.8331 29.8188 17.8611 29.7998C17.8861 29.7797 17.911 29.7599 17.9362 29.7398C17.9803 29.691 18.0159 29.6352 18.0414 29.5745C18.0694 29.5151 18.0832 29.4499 18.0815 29.3842C18.0806 29.3506 18.0772 29.3171 18.0714 29.284C18.0659 29.2526 18.0557 29.2222 18.0414 29.1937C18.0304 29.1618 18.0151 29.1316 17.9961 29.1037C17.9763 29.0785 17.9562 29.0536 17.9362 29.0284C17.9123 29.007 17.8873 28.9869 17.8611 28.9684C17.8322 28.9498 17.802 28.933 17.7709 28.9183C17.7415 28.9076 17.7113 28.8992 17.6806 28.8931C17.6478 28.885 17.6141 28.8817 17.5805 28.8833Z" fill="#F4DF8B"/>
<path d="M29.1015 8.92758C28.9682 8.92628 28.8401 8.97865 28.7459 9.07284C28.6517 9.16703 28.5993 9.29521 28.6006 9.42844C28.6013 9.49386 28.6149 9.55849 28.6405 9.61869C28.6635 9.68065 28.6994 9.737 28.7459 9.78398C28.8898 9.9264 29.1053 9.96793 29.2918 9.88918C29.3526 9.86387 29.4084 9.82829 29.4571 9.78398C29.6508 9.58646 29.6508 9.27024 29.4571 9.07278C29.4084 9.02858 29.3525 8.993 29.2918 8.96758C29.2316 8.94194 29.1669 8.92838 29.1015 8.92758Z" fill="#F4DF8B"/>
<path d="M15.1969 27.05C15.0631 27.0504 14.935 27.1045 14.8413 27.2002C14.8159 27.2217 14.7939 27.247 14.7762 27.2752C14.761 27.3004 14.7461 27.3305 14.7312 27.3606C14.7198 27.3914 14.7114 27.4233 14.706 27.4557C14.6977 27.4867 14.6944 27.5188 14.6959 27.5509C14.6954 27.6177 14.7073 27.6839 14.7312 27.7463C14.7942 27.9018 14.9314 28.015 15.096 28.0473C15.2606 28.0796 15.4305 28.0267 15.5476 27.9065C15.5959 27.862 15.6335 27.8073 15.6577 27.7463C15.683 27.6842 15.6966 27.6179 15.6978 27.5509C15.697 27.5189 15.6936 27.4872 15.6877 27.4557C15.6777 27.4205 15.6677 27.3904 15.6577 27.3606C15.6427 27.3305 15.6276 27.3004 15.6127 27.2752C15.5949 27.247 15.573 27.2217 15.5476 27.2002C15.503 27.1519 15.4482 27.1143 15.3871 27.0901C15.3271 27.0643 15.2624 27.0506 15.1969 27.05Z" fill="#F4DF8B"/>
<path d="M31.4848 10.761C31.4197 10.7601 31.355 10.772 31.2945 10.796C31.2345 10.8221 31.18 10.8595 31.1343 10.9063C31.0377 10.9993 30.9833 11.1278 30.9839 11.2619C30.9847 11.3274 30.9983 11.3921 31.024 11.4522C31.0779 11.5725 31.1741 11.6688 31.2945 11.7227C31.4823 11.7971 31.6962 11.7538 31.8404 11.6124C31.9345 11.5202 31.987 11.3936 31.9857 11.2619C31.987 11.1287 31.9347 11.0005 31.8404 10.9062C31.7467 10.8112 31.6182 10.7587 31.4848 10.761Z" fill="#F4DF8B"/>
<path d="M13.3629 24.6658C13.2975 24.6666 13.2328 24.6802 13.1727 24.7059C13.112 24.7314 13.0561 24.767 13.0073 24.8111C12.9873 24.8363 12.9674 24.8613 12.9474 24.8862C12.9284 24.9141 12.9132 24.9444 12.9022 24.9765C12.8878 25.0049 12.8777 25.0353 12.8721 25.0667C12.8664 25.0998 12.863 25.1332 12.8621 25.1668C12.864 25.2994 12.9159 25.4264 13.0073 25.5224C13.0561 25.5667 13.112 25.6024 13.1727 25.6278C13.2936 25.6829 13.4325 25.6829 13.5535 25.6278C13.6154 25.6047 13.6717 25.5688 13.7188 25.5224C13.8102 25.4264 13.862 25.2994 13.8638 25.1668C13.8629 25.034 13.8109 24.9067 13.7188 24.8111C13.6716 24.7649 13.6153 24.7291 13.5535 24.7059C13.4931 24.6801 13.4284 24.6665 13.3629 24.6658Z" fill="#F4DF8B"/>
<path d="M33.3187 13.1452C33.0825 13.1475 32.8806 13.3161 32.8363 13.5481C32.7919 13.7801 32.9172 14.0112 33.1359 14.1005C33.3546 14.1898 33.6059 14.1126 33.7367 13.9158C33.8674 13.7191 33.8413 13.4575 33.6743 13.2904C33.5782 13.199 33.4512 13.1472 33.3187 13.1452Z" fill="#F4DF8B"/>
<path d="M12.2109 21.8858C12.0785 21.8863 11.952 21.9405 11.8601 22.036C11.7661 22.1283 11.7137 22.2549 11.7151 22.3867C11.7146 22.4534 11.7265 22.5197 11.7501 22.5821C11.7744 22.6431 11.812 22.6978 11.8601 22.7423C11.8806 22.7675 11.9063 22.7881 11.9355 22.8024C11.9621 22.8221 11.9906 22.8389 12.0206 22.8526C12.0515 22.8639 12.0833 22.8722 12.1158 22.8776C12.2627 22.9078 12.4153 22.8699 12.5311 22.7745C12.6468 22.6792 12.7133 22.5367 12.7118 22.3867C12.7134 22.3546 12.71 22.3226 12.7017 22.2915C12.6965 22.2591 12.6881 22.2273 12.6768 22.1964C12.6616 22.1663 12.6467 22.1362 12.6315 22.1113C12.614 22.0829 12.592 22.0575 12.5665 22.0359C12.4728 21.9404 12.3447 21.8863 12.2109 21.8858Z" fill="#F4DF8B"/>
<path d="M34.4709 15.9255C34.3376 15.9242 34.2094 15.9765 34.1153 16.0707C34.0211 16.1649 33.9687 16.2931 33.97 16.4263C33.9687 16.558 34.0212 16.6846 34.1153 16.7768C34.3121 16.9673 34.6247 16.9673 34.8216 16.7768C34.917 16.6851 34.9712 16.5587 34.9717 16.4263C34.9713 16.2925 34.9171 16.1644 34.8216 16.0707C34.7293 15.9766 34.6027 15.9242 34.4709 15.9255Z" fill="#F4DF8B"/>
<path d="M11.8205 18.9055C11.755 18.9063 11.6903 18.9199 11.63 18.9456C11.5694 18.9711 11.5136 19.0067 11.4649 19.0508C11.4195 19.0986 11.3838 19.1548 11.3595 19.2161C11.3063 19.3375 11.3063 19.4755 11.3595 19.5969C11.3849 19.6576 11.4206 19.7134 11.4649 19.762C11.5135 19.8063 11.5693 19.842 11.6299 19.8674C11.752 19.9173 11.8887 19.9173 12.0107 19.8674C12.0714 19.842 12.1274 19.8063 12.1761 19.762C12.2203 19.7133 12.2559 19.6575 12.2813 19.597C12.3348 19.4756 12.3348 19.3375 12.2813 19.2162C12.257 19.1549 12.2213 19.0988 12.1761 19.0508C12.1273 19.0067 12.0714 18.9711 12.0108 18.9456C11.9506 18.92 11.886 18.9063 11.8205 18.9055Z" fill="#F4DF8B"/>
<path d="M34.8614 18.9052C34.6252 18.9075 34.4234 19.076 34.379 19.308C34.3346 19.54 34.46 19.7711 34.6786 19.8605C34.8973 19.9498 35.1486 19.8725 35.2794 19.6758C35.4102 19.479 35.3841 19.2174 35.217 19.0504C35.121 18.959 34.994 18.9071 34.8614 18.9052Z" fill="#F4DF8B"/>
<path d="M12.2109 15.9253C12.0785 15.9253 11.9516 15.9782 11.8584 16.0723C11.7653 16.1664 11.7137 16.2938 11.7151 16.4262C11.7147 16.5592 11.7668 16.687 11.8601 16.7818C11.8832 16.8043 11.9085 16.8245 11.9355 16.842C11.9622 16.8599 11.9908 16.875 12.0206 16.887C12.0513 16.8999 12.0832 16.91 12.1158 16.9171C12.2791 16.9475 12.447 16.8971 12.5665 16.7818C12.5909 16.7574 12.6127 16.7305 12.6316 16.7016C12.6468 16.6766 12.6617 16.6466 12.6768 16.6165C12.6881 16.5856 12.6965 16.5538 12.7018 16.5213C12.7101 16.4904 12.7134 16.4582 12.7118 16.4262C12.7131 16.293 12.6608 16.1648 12.5666 16.0706C12.4724 15.9764 12.3441 15.924 12.2109 15.9253Z" fill="#F4DF8B"/>
<path d="M34.4709 21.886C34.3371 21.8864 34.209 21.9405 34.1153 22.0362C34.0212 22.1285 33.9687 22.2551 33.97 22.3869C33.9686 22.5201 34.021 22.6483 34.1153 22.7425C34.3142 22.9279 34.6226 22.9279 34.8216 22.7425C34.9172 22.6488 34.9713 22.5207 34.9717 22.3869C34.9653 22.113 34.7448 21.8925 34.4709 21.886Z" fill="#F4DF8B"/>
<path d="M13.3629 13.145C13.2975 13.1458 13.2328 13.1594 13.1727 13.1851C13.112 13.2106 13.0561 13.2462 13.0073 13.2903C12.8136 13.4878 12.8136 13.8041 13.0073 14.0015C13.0561 14.0458 13.112 14.0815 13.1727 14.1069C13.2947 14.1568 13.4315 14.1568 13.5535 14.1069C13.6154 14.0838 13.6717 14.0479 13.7188 14.0015C13.9122 13.8039 13.9122 13.4879 13.7188 13.2903C13.6716 13.2441 13.6153 13.2083 13.5534 13.1851C13.4932 13.1594 13.4284 13.1458 13.3629 13.145Z" fill="#F4DF8B"/>
<path d="M33.3187 24.6655C33.0825 24.6678 32.8806 24.8363 32.8363 25.0684C32.7919 25.3004 32.9172 25.5315 33.1359 25.6208C33.3546 25.7101 33.6059 25.6329 33.7367 25.4361C33.8674 25.2394 33.8413 24.9777 33.6743 24.8107C33.5782 24.7193 33.4512 24.6674 33.3187 24.6655Z" fill="#F4DF8B"/>
<path d="M15.1965 10.761C15.1629 10.7594 15.1292 10.7628 15.0965 10.7711C15.0641 10.777 15.0322 10.7853 15.0011 10.796C14.9713 10.8112 14.9461 10.8261 14.916 10.8412C14.8886 10.8601 14.8635 10.8819 14.8409 10.9063C14.7942 10.9521 14.7568 11.0065 14.7308 11.0665C14.707 11.1289 14.695 11.1951 14.6956 11.2619C14.6946 11.3271 14.7066 11.3917 14.7308 11.4522C14.7568 11.5122 14.7942 11.5666 14.8409 11.6124C14.8636 11.6368 14.8887 11.6586 14.916 11.6777C14.9461 11.6926 14.9713 11.7077 15.0011 11.7227C15.0312 11.7327 15.0664 11.7427 15.0965 11.7527C15.194 11.7732 15.2955 11.7627 15.3868 11.7227C15.5072 11.669 15.6036 11.5726 15.6573 11.4522C15.6831 11.392 15.6967 11.3273 15.6974 11.2619C15.6967 11.1948 15.6831 11.1285 15.6573 11.0665C15.6332 11.0055 15.5955 10.9507 15.5472 10.9063C15.5013 10.8596 15.4468 10.8222 15.3867 10.796C15.3263 10.7719 15.2616 10.76 15.1965 10.761Z" fill="#F4DF8B"/>
<path d="M31.4855 27.0501C31.4201 27.0508 31.3554 27.0644 31.2952 27.0902C31.1748 27.1439 31.0784 27.2403 31.0247 27.3607C30.999 27.4209 30.9854 27.4856 30.9846 27.551C30.9841 27.6851 31.0385 27.8136 31.135 27.9066C31.2276 28.0022 31.355 28.0561 31.4881 28.0561C31.6211 28.0561 31.7485 28.0022 31.8411 27.9066C31.9354 27.8124 31.9878 27.6843 31.9864 27.551C31.9877 27.4192 31.9352 27.2925 31.8411 27.2003C31.748 27.1039 31.6196 27.0496 31.4855 27.0501Z" fill="#F4DF8B"/>
<path d="M17.5807 8.92764C17.5152 8.92843 17.4504 8.94205 17.3902 8.96776C17.3289 8.99193 17.2729 9.02762 17.2251 9.07295C17.2023 9.09752 17.1821 9.12442 17.1649 9.15319C17.145 9.17872 17.1297 9.20749 17.1197 9.2383C17.1046 9.26815 17.0945 9.30032 17.0899 9.33346C17.084 9.36483 17.0806 9.39667 17.0798 9.42861C17.0817 9.56122 17.1336 9.68826 17.2251 9.78427C17.2737 9.82858 17.3295 9.86416 17.3902 9.88947C17.4815 9.92953 17.5831 9.94002 17.6807 9.91954C17.7122 9.91421 17.7426 9.90399 17.771 9.88941C17.8029 9.87852 17.8333 9.86336 17.8613 9.84441C17.8875 9.82586 17.9126 9.80577 17.9364 9.78421C17.9827 9.73712 18.0186 9.68077 18.0416 9.61887C18.0697 9.55946 18.0834 9.49426 18.0817 9.42861C18.0808 9.39667 18.0775 9.36489 18.0717 9.33346C18.0669 9.30032 18.0567 9.2682 18.0416 9.2383C18.0316 9.20749 18.0163 9.17872 17.9964 9.15319C17.9766 9.12311 17.9565 9.09815 17.9365 9.07295C17.9113 9.05293 17.8863 9.03284 17.8614 9.01281C17.8335 8.99386 17.8031 8.97871 17.7711 8.96781C17.7427 8.95346 17.7123 8.9433 17.6808 8.93774C17.6476 8.9319 17.6142 8.92855 17.5807 8.92764Z" fill="#F4DF8B"/>
<path d="M29.1011 28.8832C29.0354 28.8813 28.9701 28.895 28.9106 28.923C28.7198 28.9953 28.5955 29.1801 28.6002 29.3841C28.601 29.4495 28.6145 29.5141 28.6401 29.5743C28.6656 29.635 28.7012 29.6909 28.7455 29.7397C28.8918 29.8774 29.1044 29.9183 29.2914 29.8449C29.3521 29.8194 29.4079 29.7838 29.4567 29.7397C29.6505 29.542 29.6505 29.2258 29.4567 29.0282C29.4087 28.983 29.3527 28.9473 29.2914 28.923C29.232 28.895 29.1668 28.8813 29.1011 28.8832Z" fill="#F4DF8B"/>
<path d="M20.3606 7.77574C20.2267 7.77619 20.0987 7.83032 20.0049 7.92593C19.9599 7.9732 19.9226 8.02739 19.8946 8.0864C19.8706 8.14688 19.8587 8.21157 19.8597 8.27665C19.8592 8.34338 19.871 8.40965 19.8946 8.47207C19.9226 8.53102 19.9598 8.5851 20.0049 8.63225C20.1233 8.74959 20.2923 8.80032 20.4557 8.76746C20.4881 8.76202 20.52 8.75356 20.5508 8.74227C20.5809 8.72735 20.611 8.71243 20.636 8.69728C20.6643 8.67963 20.6897 8.65767 20.7113 8.63219C20.7595 8.58765 20.7971 8.53295 20.8214 8.47201C20.8467 8.40994 20.8603 8.34366 20.8615 8.27659C20.8608 8.21111 20.8472 8.14649 20.8214 8.08634C20.7971 8.02534 20.7595 7.97053 20.7113 7.92587C20.6897 7.90045 20.6643 7.87849 20.636 7.86079C20.611 7.84587 20.5809 7.83072 20.5508 7.8158C20.5208 7.80575 20.4909 7.79577 20.4557 7.78572C20.4243 7.77988 20.3925 7.77653 20.3606 7.77574Z" fill="#F4DF8B"/>
<path d="M18.6445 24.1223V13.8547H22.0645V24.1223H18.6445ZM22.6061 15.9051V13.8547H26.5136L28.5717 15.9051V18.9846L26.9933 20.5631L26.885 20.3464L23.6739 20.772L23.7977 21.0428H22.6061V19.0543H25.175V15.9051H22.6061ZM28.9199 24.1223H25.2678L23.7977 21.0428H26.5136L26.9933 20.5631L28.9199 24.1223Z" fill="#F4DF8B"/>
<path d="M26.3215 30.0353C26.2564 30.0344 26.1917 30.0462 26.1312 30.0703C26.0704 30.0976 26.0145 30.1349 25.9658 30.1806C25.7721 30.3762 25.7721 30.6913 25.9658 30.8869C26.1647 31.0772 26.4782 31.0772 26.677 30.8869C26.7711 30.7946 26.8236 30.668 26.8223 30.5362C26.8237 30.4029 26.7713 30.2748 26.677 30.1805C26.6302 30.1326 26.5739 30.095 26.5117 30.0702C26.4513 30.0462 26.3866 30.0344 26.3215 30.0353Z" fill="#F4DF8B"/>
<mask id="mask0" mask-type="alpha" maskUnits="userSpaceOnUse" x="9" y="5" width="28" height="28">
<path d="M23.3405 5.88204C30.8096 5.88204 36.8645 11.937 36.8645 19.4061C36.8645 26.8752 30.8096 32.9302 23.3405 32.9302C15.8713 32.9302 9.81641 26.8752 9.81641 19.4061C9.81641 11.937 15.8713 5.88204 23.3405 5.88204Z" fill="#F4CB45"/>
</mask>
<g mask="url(#mask0)">
<g style="mix-blend-mode:soft-light">
<path d="M15.6269 30.3005L33.7844 10.6906C30.1529 4.15396 19.0457 3.10258 12.7221 10.6906C5.45886 19.4061 11.2694 29.5742 15.6269 30.3005Z" fill="url(#paint0_linear)"/>
</g>
</g>
<path d="M34.3352 5.57922C39.3496 7.15852 43.4045 13.8529 42.0606 20.7105" stroke="url(#paint1_linear)" stroke-width="2" stroke-linecap="round"/>
<path d="M6.37671 20.0818C4.88931 15.0394 8.1821 7.93904 14.6227 5.22775" stroke="url(#paint2_linear)" stroke-width="2" stroke-linecap="round"/>
<path d="M32.7993 35.0957C29.173 38.902 21.3769 39.5941 15.8121 35.3674" stroke="url(#paint3_linear)" stroke-width="2" stroke-linecap="round"/>
<path d="M8.97188 31.692C8.5702 32.071 8.55186 32.7039 8.93091 33.1056C9.30995 33.5073 9.94285 33.5256 10.3445 33.1466L8.97188 31.692ZM14.0494 29.6504C14.4511 29.2713 14.4694 28.6384 14.0904 28.2368C13.7113 27.8351 13.0784 27.8168 12.6768 28.1958L14.0494 29.6504ZM10.3445 33.1466L14.0494 29.6504L12.6768 28.1958L8.97188 31.692L10.3445 33.1466Z" fill="url(#paint4_linear)"/>
<path d="M37.3579 32.4731C37.7512 32.8608 38.3844 32.8563 38.7721 32.4631C39.1599 32.0698 39.1554 31.4366 38.7621 31.0489L37.3579 32.4731ZM35.6696 28C35.2763 27.6122 34.6432 27.6167 34.2554 28.01C33.8677 28.4033 33.8722 29.0365 34.2655 29.4242L35.6696 28ZM38.7621 31.0489L35.6696 28L34.2655 29.4242L37.3579 32.4731L38.7621 31.0489Z" fill="url(#paint5_linear)"/>
<path d="M25.3428 1.5326C25.339 0.980332 24.8883 0.5357 24.336 0.53949C23.7837 0.54328 23.3391 0.994058 23.3429 1.54633L25.3428 1.5326ZM23.3727 5.88894C23.3765 6.44121 23.8272 6.88584 24.3795 6.88205C24.9318 6.87826 25.3764 6.42748 25.3726 5.87521L23.3727 5.88894ZM23.3429 1.54633L23.3727 5.88894L25.3726 5.87521L25.3428 1.5326L23.3429 1.54633Z" fill="url(#paint6_linear)"/>
<defs>
<linearGradient id="paint0_linear" x1="25.795" y1="21.585" x2="16.3532" y2="14.322" gradientUnits="userSpaceOnUse">
<stop stop-color="white"/>
<stop offset="1" stop-color="white" stop-opacity="0"/>
</linearGradient>
<linearGradient id="paint1_linear" x1="43.5929" y1="5.57922" x2="26.9238" y2="12.8771" gradientUnits="userSpaceOnUse">
<stop stop-color="#F6D450"/>
<stop offset="1" stop-color="#F8E9A2"/>
</linearGradient>
<linearGradient id="paint2_linear" x1="1.21099" y1="12.3993" x2="16.5683" y2="22.16" gradientUnits="userSpaceOnUse">
<stop stop-color="#F6D450"/>
<stop offset="1" stop-color="#F8E9A2"/>
</linearGradient>
<linearGradient id="paint3_linear" x1="28.722" y1="43.4072" x2="29.5115" y2="25.2277" gradientUnits="userSpaceOnUse">
<stop stop-color="#F6D450"/>
<stop offset="1" stop-color="#F8E9A2"/>
</linearGradient>
<linearGradient id="paint4_linear" x1="14.3195" y1="28.9231" x2="11.5106" y2="32.4193" gradientUnits="userSpaceOnUse">
<stop stop-color="#FBE564"/>
<stop offset="1" stop-color="#F5E393"/>
</linearGradient>
<linearGradient id="paint5_linear" x1="34.9675" y1="28.2264" x2="38.6842" y2="32.7707" gradientUnits="userSpaceOnUse">
<stop stop-color="#6E480E"/>
<stop offset="1" stop-color="#FBE564"/>
</linearGradient>
<linearGradient id="paint6_linear" x1="24.0291" y1="6.22543" x2="24.6157" y2="0.384135" gradientUnits="userSpaceOnUse">
<stop stop-color="#F6D450"/>
<stop offset="1" stop-color="#F8E9A2"/>
</linearGradient>
</defs>
</svg>
