<svg width="21" height="21" viewBox="0 0 21 21" fill="none" xmlns="http://www.w3.org/2000/svg">
<path d="M20.9775 20.8289V20.8281H20.9825V13.4931C20.9825 9.90479 20.21 7.14062 16.015 7.14062C13.9983 7.14062 12.645 8.24729 12.0925 9.29646H12.0341V7.47562H8.05664V20.8281H12.1983V14.2165C12.1983 12.4756 12.5283 10.7923 14.6841 10.7923C16.8083 10.7923 16.84 12.779 16.84 14.3281V20.8289H20.9775Z" fill="white"/>
<path d="M1.3125 7.47656H5.45916V20.829H1.3125V7.47656Z" fill="white"/>
<path d="M3.38409 0.829102C2.05825 0.829102 0.982422 1.90493 0.982422 3.23077C0.982422 4.5566 2.05825 5.65493 3.38409 5.65493C4.70992 5.65493 5.78575 4.5566 5.78575 3.23077C5.78492 1.90493 4.70908 0.829102 3.38409 0.829102V0.829102Z" fill="white"/>
</svg>
