<?xml version="1.0" encoding="UTF-8"?>
<svg
        width="265"
        height="45"
        viewBox="0 0 265 45"
        fill="none"
        xmlns="http://www.w3.org/2000/svg"
>
    <path
            d="M79.092 6.61405V17.774H75.672V16.254C75.3254 16.7474 74.852 17.1474 74.252 17.454C73.6654 17.7474 73.012 17.894 72.292 17.894C71.4387 17.894 70.6854 17.7074 70.032 17.334C69.3787 16.9474 68.872 16.394 68.512 15.674C68.152 14.954 67.972 14.1074 67.972 13.134V6.61405H71.372V12.674C71.372 13.4207 71.5654 14.0007 71.952 14.414C72.3387 14.8274 72.8587 15.034 73.512 15.034C74.1787 15.034 74.7054 14.8274 75.092 14.414C75.4787 14.0007 75.672 13.4207 75.672 12.674V6.61405H79.092ZM88.5486 6.49405C89.8553 6.49405 90.8953 6.92071 91.6686 7.77405C92.4553 8.61405 92.8486 9.77405 92.8486 11.254V17.774H89.4486V11.714C89.4486 10.9674 89.2553 10.3874 88.8686 9.97405C88.4819 9.56071 87.9619 9.35405 87.3086 9.35405C86.6553 9.35405 86.1353 9.56071 85.7486 9.97405C85.3619 10.3874 85.1686 10.9674 85.1686 11.714V17.774H81.7486V6.61405H85.1686V8.09405C85.5153 7.60071 85.9819 7.21405 86.5686 6.93405C87.1553 6.64071 87.8153 6.49405 88.5486 6.49405ZM104.565 3.73405V6.47405H98.8452V9.43405H103.125V12.094H98.8452V17.774H95.4252V3.73405H104.565ZM117.083 12.014C117.083 12.334 117.063 12.6674 117.023 13.014H109.283C109.336 13.7074 109.556 14.2407 109.943 14.614C110.343 14.974 110.829 15.154 111.403 15.154C112.256 15.154 112.849 14.794 113.183 14.074H116.823C116.636 14.8074 116.296 15.4674 115.803 16.054C115.323 16.6407 114.716 17.1007 113.983 17.434C113.249 17.7674 112.429 17.934 111.523 17.934C110.429 17.934 109.456 17.7007 108.603 17.234C107.749 16.7674 107.083 16.1007 106.603 15.234C106.123 14.3674 105.883 13.354 105.883 12.194C105.883 11.034 106.116 10.0207 106.583 9.15405C107.063 8.28738 107.729 7.62071 108.583 7.15405C109.436 6.68738 110.416 6.45405 111.523 6.45405C112.603 6.45405 113.563 6.68071 114.403 7.13405C115.243 7.58738 115.896 8.23405 116.363 9.07405C116.843 9.91405 117.083 10.894 117.083 12.014ZM113.583 11.114C113.583 10.5274 113.383 10.0607 112.983 9.71405C112.583 9.36738 112.083 9.19405 111.483 9.19405C110.909 9.19405 110.423 9.36071 110.023 9.69405C109.636 10.0274 109.396 10.5007 109.303 11.114H113.583ZM118.407 12.174C118.407 11.0274 118.62 10.0207 119.047 9.15405C119.487 8.28738 120.08 7.62071 120.827 7.15405C121.574 6.68738 122.407 6.45405 123.327 6.45405C124.06 6.45405 124.727 6.60738 125.327 6.91405C125.94 7.22071 126.42 7.63405 126.767 8.15405V2.97405H130.187V17.774H126.767V16.174C126.447 16.7074 125.987 17.134 125.387 17.454C124.8 17.774 124.114 17.934 123.327 17.934C122.407 17.934 121.574 17.7007 120.827 17.234C120.08 16.754 119.487 16.0807 119.047 15.214C118.62 14.334 118.407 13.3207 118.407 12.174ZM126.767 12.194C126.767 11.3407 126.527 10.6674 126.047 10.174C125.58 9.68071 125.007 9.43405 124.327 9.43405C123.647 9.43405 123.067 9.68071 122.587 10.174C122.12 10.654 121.887 11.3207 121.887 12.174C121.887 13.0274 122.12 13.7074 122.587 14.214C123.067 14.7074 123.647 14.954 124.327 14.954C125.007 14.954 125.58 14.7074 126.047 14.214C126.527 13.7207 126.767 13.0474 126.767 12.194ZM143.381 12.014C143.381 12.334 143.361 12.6674 143.321 13.014H135.581C135.634 13.7074 135.854 14.2407 136.241 14.614C136.641 14.974 137.128 15.154 137.701 15.154C138.554 15.154 139.148 14.794 139.481 14.074H143.121C142.934 14.8074 142.594 15.4674 142.101 16.054C141.621 16.6407 141.014 17.1007 140.281 17.434C139.548 17.7674 138.728 17.934 137.821 17.934C136.728 17.934 135.754 17.7007 134.901 17.234C134.048 16.7674 133.381 16.1007 132.901 15.234C132.421 14.3674 132.181 13.354 132.181 12.194C132.181 11.034 132.414 10.0207 132.881 9.15405C133.361 8.28738 134.028 7.62071 134.881 7.15405C135.734 6.68738 136.714 6.45405 137.821 6.45405C138.901 6.45405 139.861 6.68071 140.701 7.13405C141.541 7.58738 142.194 8.23405 142.661 9.07405C143.141 9.91405 143.381 10.894 143.381 12.014ZM139.881 11.114C139.881 10.5274 139.681 10.0607 139.281 9.71405C138.881 9.36738 138.381 9.19405 137.781 9.19405C137.208 9.19405 136.721 9.36071 136.321 9.69405C135.934 10.0274 135.694 10.5007 135.601 11.114H139.881ZM148.805 8.47405C149.205 7.86071 149.705 7.38071 150.305 7.03405C150.905 6.67405 151.572 6.49405 152.305 6.49405V10.114H151.365C150.512 10.114 149.872 10.3007 149.445 10.674C149.019 11.034 148.805 11.674 148.805 12.594V17.774H145.385V6.61405H148.805V8.47405ZM153.46 12.174C153.46 11.0274 153.673 10.0207 154.1 9.15405C154.54 8.28738 155.133 7.62071 155.88 7.15405C156.627 6.68738 157.46 6.45405 158.38 6.45405C159.167 6.45405 159.853 6.61405 160.44 6.93405C161.04 7.25405 161.5 7.67405 161.82 8.19405V6.61405H165.24V17.774H161.82V16.194C161.487 16.714 161.02 17.134 160.42 17.454C159.833 17.774 159.147 17.934 158.36 17.934C157.453 17.934 156.627 17.7007 155.88 17.234C155.133 16.754 154.54 16.0807 154.1 15.214C153.673 14.334 153.46 13.3207 153.46 12.174ZM161.82 12.194C161.82 11.3407 161.58 10.6674 161.1 10.174C160.633 9.68071 160.06 9.43405 159.38 9.43405C158.7 9.43405 158.12 9.68071 157.64 10.174C157.173 10.654 156.94 11.3207 156.94 12.174C156.94 13.0274 157.173 13.7074 157.64 14.214C158.12 14.7074 158.7 14.954 159.38 14.954C160.06 14.954 160.633 14.7074 161.1 14.214C161.58 13.7207 161.82 13.0474 161.82 12.194ZM171.334 2.97405V17.774H167.914V2.97405H171.334ZM181.173 17.774L178.253 12.474H177.433V17.774H174.013V3.73405H179.753C180.859 3.73405 181.799 3.92738 182.573 4.31405C183.359 4.70071 183.946 5.23405 184.333 5.91405C184.719 6.58071 184.913 7.32738 184.913 8.15405C184.913 9.08738 184.646 9.92071 184.113 10.654C183.593 11.3874 182.819 11.9074 181.793 12.214L185.033 17.774H181.173ZM177.433 10.054H179.553C180.179 10.054 180.646 9.90071 180.953 9.59405C181.273 9.28738 181.433 8.85405 181.433 8.29405C181.433 7.76071 181.273 7.34071 180.953 7.03405C180.646 6.72738 180.179 6.57405 179.553 6.57405H177.433V10.054ZM197.78 12.014C197.78 12.334 197.76 12.6674 197.72 13.014H189.98C190.033 13.7074 190.253 14.2407 190.64 14.614C191.04 14.974 191.526 15.154 192.1 15.154C192.953 15.154 193.546 14.794 193.88 14.074H197.52C197.333 14.8074 196.993 15.4674 196.5 16.054C196.02 16.6407 195.413 17.1007 194.68 17.434C193.946 17.7674 193.126 17.934 192.22 17.934C191.126 17.934 190.153 17.7007 189.3 17.234C188.446 16.7674 187.78 16.1007 187.3 15.234C186.82 14.3674 186.58 13.354 186.58 12.194C186.58 11.034 186.813 10.0207 187.28 9.15405C187.76 8.28738 188.426 7.62071 189.28 7.15405C190.133 6.68738 191.113 6.45405 192.22 6.45405C193.3 6.45405 194.26 6.68071 195.1 7.13405C195.94 7.58738 196.593 8.23405 197.06 9.07405C197.54 9.91405 197.78 10.894 197.78 12.014ZM194.28 11.114C194.28 10.5274 194.08 10.0607 193.68 9.71405C193.28 9.36738 192.78 9.19405 192.18 9.19405C191.606 9.19405 191.12 9.36071 190.72 9.69405C190.333 10.0274 190.093 10.5007 190 11.114H194.28ZM204.324 17.934C203.35 17.934 202.484 17.7674 201.724 17.434C200.964 17.1007 200.364 16.6474 199.924 16.074C199.484 15.4874 199.237 14.834 199.184 14.114H202.564C202.604 14.5007 202.784 14.814 203.104 15.054C203.424 15.294 203.817 15.414 204.284 15.414C204.71 15.414 205.037 15.334 205.264 15.174C205.504 15.0007 205.624 14.7807 205.624 14.514C205.624 14.194 205.457 13.9607 205.124 13.814C204.79 13.654 204.25 13.4807 203.504 13.294C202.704 13.1074 202.037 12.914 201.504 12.714C200.97 12.5007 200.51 12.174 200.124 11.734C199.737 11.2807 199.544 10.674 199.544 9.91405C199.544 9.27405 199.717 8.69405 200.064 8.17405C200.424 7.64071 200.944 7.22071 201.624 6.91405C202.317 6.60738 203.137 6.45405 204.084 6.45405C205.484 6.45405 206.584 6.80071 207.384 7.49405C208.197 8.18738 208.664 9.10738 208.784 10.254H205.624C205.57 9.86738 205.397 9.56071 205.104 9.33405C204.824 9.10738 204.45 8.99405 203.984 8.99405C203.584 8.99405 203.277 9.07405 203.064 9.23405C202.85 9.38071 202.744 9.58738 202.744 9.85405C202.744 10.174 202.91 10.414 203.244 10.574C203.59 10.734 204.124 10.894 204.844 11.054C205.67 11.2674 206.344 11.4807 206.864 11.694C207.384 11.894 207.837 12.2274 208.224 12.694C208.624 13.1474 208.83 13.7607 208.844 14.534C208.844 15.1874 208.657 15.774 208.284 16.294C207.924 16.8007 207.397 17.2007 206.704 17.494C206.024 17.7874 205.23 17.934 204.324 17.934ZM221.656 12.014C221.656 12.334 221.636 12.6674 221.596 13.014H213.856C213.909 13.7074 214.129 14.2407 214.516 14.614C214.916 14.974 215.403 15.154 215.976 15.154C216.829 15.154 217.423 14.794 217.756 14.074H221.396C221.209 14.8074 220.869 15.4674 220.376 16.054C219.896 16.6407 219.289 17.1007 218.556 17.434C217.823 17.7674 217.003 17.934 216.096 17.934C215.003 17.934 214.029 17.7007 213.176 17.234C212.323 16.7674 211.656 16.1007 211.176 15.234C210.696 14.3674 210.456 13.354 210.456 12.194C210.456 11.034 210.689 10.0207 211.156 9.15405C211.636 8.28738 212.303 7.62071 213.156 7.15405C214.009 6.68738 214.989 6.45405 216.096 6.45405C217.176 6.45405 218.136 6.68071 218.976 7.13405C219.816 7.58738 220.469 8.23405 220.936 9.07405C221.416 9.91405 221.656 10.894 221.656 12.014ZM218.156 11.114C218.156 10.5274 217.956 10.0607 217.556 9.71405C217.156 9.36738 216.656 9.19405 216.056 9.19405C215.483 9.19405 214.996 9.36071 214.596 9.69405C214.209 10.0274 213.969 10.5007 213.876 11.114H218.156ZM227.08 8.47405C227.48 7.86071 227.98 7.38071 228.58 7.03405C229.18 6.67405 229.847 6.49405 230.58 6.49405V10.114H229.64C228.787 10.114 228.147 10.3007 227.72 10.674C227.294 11.034 227.08 11.674 227.08 12.594V17.774H223.66V6.61405H227.08V8.47405ZM237.435 14.574L239.855 6.61405H243.495L239.535 17.774H235.315L231.355 6.61405H235.015L237.435 14.574ZM255.655 12.014C255.655 12.334 255.635 12.6674 255.595 13.014H247.855C247.908 13.7074 248.128 14.2407 248.515 14.614C248.915 14.974 249.401 15.154 249.975 15.154C250.828 15.154 251.421 14.794 251.755 14.074H255.395C255.208 14.8074 254.868 15.4674 254.375 16.054C253.895 16.6407 253.288 17.1007 252.555 17.434C251.821 17.7674 251.001 17.934 250.095 17.934C249.001 17.934 248.028 17.7007 247.175 17.234C246.321 16.7674 245.655 16.1007 245.175 15.234C244.695 14.3674 244.455 13.354 244.455 12.194C244.455 11.034 244.688 10.0207 245.155 9.15405C245.635 8.28738 246.301 7.62071 247.155 7.15405C248.008 6.68738 248.988 6.45405 250.095 6.45405C251.175 6.45405 252.135 6.68071 252.975 7.13405C253.815 7.58738 254.468 8.23405 254.935 9.07405C255.415 9.91405 255.655 10.894 255.655 12.014ZM252.155 11.114C252.155 10.5274 251.955 10.0607 251.555 9.71405C251.155 9.36738 250.655 9.19405 250.055 9.19405C249.481 9.19405 248.995 9.36071 248.595 9.69405C248.208 10.0274 247.968 10.5007 247.875 11.114H252.155Z"
            fill="#042751"
    />
    <path
            opacity="0.4"
            d="M74.2466 33.198C74.2466 33.366 74.2266 33.558 74.1866 33.774H69.3146C69.3386 34.366 69.4986 34.802 69.7946 35.082C70.0906 35.362 70.4586 35.502 70.8986 35.502C71.2906 35.502 71.6146 35.406 71.8706 35.214C72.1346 35.022 72.3026 34.762 72.3746 34.434H74.1626C74.0746 34.898 73.8866 35.314 73.5986 35.682C73.3106 36.05 72.9386 36.338 72.4826 36.546C72.0346 36.754 71.5346 36.858 70.9826 36.858C70.3346 36.858 69.7586 36.722 69.2546 36.45C68.7506 36.17 68.3586 35.774 68.0786 35.262C67.7986 34.75 67.6586 34.146 67.6586 33.45C67.6586 32.754 67.7986 32.15 68.0786 31.638C68.3586 31.118 68.7506 30.722 69.2546 30.45C69.7586 30.178 70.3346 30.042 70.9826 30.042C71.6386 30.042 72.2106 30.178 72.6986 30.45C73.1946 30.722 73.5746 31.098 73.8386 31.578C74.1106 32.05 74.2466 32.59 74.2466 33.198ZM72.5426 33.03C72.5666 32.486 72.4226 32.074 72.1106 31.794C71.8066 31.514 71.4306 31.374 70.9826 31.374C70.5266 31.374 70.1426 31.514 69.8306 31.794C69.5186 32.074 69.3466 32.486 69.3146 33.03H72.5426ZM79.9837 36.774L78.0037 33.474H77.2597V36.774H75.5677V28.302H78.7957C79.7797 28.302 80.5277 28.542 81.0397 29.022C81.5597 29.502 81.8197 30.134 81.8197 30.918C81.8197 31.558 81.6397 32.094 81.2797 32.526C80.9277 32.958 80.4157 33.246 79.7437 33.39L81.8557 36.774H79.9837ZM77.2597 32.31H78.6517C79.6197 32.31 80.1037 31.882 80.1037 31.026C80.1037 30.618 79.9837 30.302 79.7437 30.078C79.5117 29.846 79.1477 29.73 78.6517 29.73H77.2597V32.31ZM88.9022 34.458C88.9022 34.89 88.7942 35.29 88.5782 35.658C88.3622 36.018 88.0422 36.31 87.6182 36.534C87.1942 36.75 86.6782 36.858 86.0702 36.858C85.4702 36.858 84.9342 36.758 84.4622 36.558C83.9902 36.35 83.6102 36.054 83.3222 35.67C83.0422 35.286 82.8822 34.838 82.8422 34.326H84.6422C84.6822 34.67 84.8182 34.958 85.0502 35.19C85.2902 35.414 85.6062 35.526 85.9982 35.526C86.3502 35.526 86.6182 35.434 86.8022 35.25C86.9942 35.058 87.0902 34.814 87.0902 34.518C87.0902 34.254 87.0142 34.038 86.8622 33.87C86.7102 33.694 86.5182 33.554 86.2862 33.45C86.0542 33.346 85.7342 33.226 85.3262 33.09C84.7982 32.914 84.3662 32.742 84.0302 32.574C83.6942 32.398 83.4062 32.146 83.1662 31.818C82.9342 31.49 82.8182 31.062 82.8182 30.534C82.8182 29.806 83.0782 29.234 83.5982 28.818C84.1262 28.394 84.8222 28.182 85.6862 28.182C86.5822 28.182 87.2942 28.398 87.8222 28.83C88.3582 29.262 88.6622 29.838 88.7342 30.558H86.9102C86.8622 30.254 86.7342 30.006 86.5262 29.814C86.3182 29.614 86.0342 29.514 85.6742 29.514C85.3622 29.514 85.1102 29.598 84.9182 29.766C84.7262 29.926 84.6302 30.162 84.6302 30.474C84.6302 30.722 84.7022 30.93 84.8462 31.098C84.9982 31.258 85.1862 31.39 85.4102 31.494C85.6422 31.598 85.9542 31.714 86.3462 31.842C86.8902 32.034 87.3302 32.214 87.6662 32.382C88.0102 32.55 88.3022 32.802 88.5422 33.138C88.7822 33.474 88.9022 33.914 88.9022 34.458ZM97.7206 32.526C97.7206 33.366 97.5446 34.106 97.1926 34.746C96.8406 35.386 96.3286 35.886 95.6566 36.246C94.9926 36.598 94.2006 36.774 93.2806 36.774H90.2686V28.302H93.2806C94.2006 28.302 94.9926 28.478 95.6566 28.83C96.3286 29.174 96.8406 29.666 97.1926 30.306C97.5446 30.938 97.7206 31.678 97.7206 32.526ZM93.1366 35.262C94.0486 35.262 94.7526 35.022 95.2486 34.542C95.7526 34.062 96.0046 33.39 96.0046 32.526C96.0046 31.654 95.7526 30.978 95.2486 30.498C94.7526 30.018 94.0486 29.778 93.1366 29.778H91.9606V35.262H93.1366ZM100.799 35.478H103.643V36.774H99.1074V28.302H100.799V35.478Z"
            fill="#042751"
    />
    <path
            d="M54.5391 7.31795C52.3677 4.86067 49.4361 3.63316 45.7418 3.63316C43.5705 3.63316 41.6456 4.08181 39.9694 4.97684C38.3229 5.85613 37.009 7.00072 36.0243 8.41375V3.91911H35.9705H24.772H24.7674V21.1159C24.7674 22.9455 24.2908 24.3823 23.34 25.4308C22.3869 26.4793 21.0919 27.0023 19.4552 27.0023C17.8557 27.0023 16.5701 26.4793 15.5983 25.4308C14.6266 24.3823 14.1406 22.9455 14.1406 21.1159V3.91911H3V22.5456C3 26.7722 4.07642 30.1153 6.2269 32.5727C8.37974 35.0277 11.323 36.2574 15.0543 36.2574C17.2257 36.2574 19.1506 35.8088 20.8269 34.9138C22.5008 34.021 23.8166 32.8494 24.7674 31.4009V35.9715H24.772H35.9705H36.0243V17.7599C36.1727 16.4055 36.6311 15.3061 37.4004 14.4598C38.3513 13.4137 39.6648 12.8882 41.3409 12.8882C42.9405 12.8882 44.2168 13.4137 45.17 14.4598C46.1208 15.5084 46.5975 16.9451 46.5975 18.7747V35.9715H57.7961V17.2892C57.7961 13.0998 56.7104 9.77533 54.5391 7.31795Z"
            fill="#042751"
    />
</svg>
