<svg width="250" height="33" viewBox="0 0 250 33" fill="none" xmlns="http://www.w3.org/2000/svg">
<path d="M53.8188 3.69922C51.5554 1.1933 48.5375 0 44.6394 0C42.376 0 40.3641 0.477318 38.6037 1.31263C36.8433 2.14793 35.4601 3.34123 34.4541 4.77318V0.238659H22.7598V17.3028C22.7598 19.0927 22.2568 20.5247 21.2509 21.5986C20.2449 22.6726 18.8617 23.1499 17.2271 23.1499C15.5924 23.1499 14.2092 22.6726 13.2032 21.5986C12.1973 20.5247 11.6943 19.0927 11.6943 17.3028V0.238659H0V18.7347C0 22.9113 1.1317 26.2525 3.39511 28.6391C5.65852 31.0257 8.6764 32.3383 12.5745 32.3383C14.8379 32.3383 16.8498 31.861 18.6102 31.0257C20.3707 30.1904 21.7539 28.9971 22.7598 27.5651V32.0997H34.4541V13.9616C34.5798 12.6489 35.0828 11.575 35.8373 10.7397C36.8433 9.66569 38.2264 9.18838 39.9869 9.18838C41.6216 9.18838 43.0048 9.66569 44.0107 10.7397C45.0167 11.8136 45.5197 13.2456 45.5197 15.0355V32.0997H57.2139V13.4842C57.2139 9.42704 56.0822 6.08581 53.8188 3.69922Z" fill="#042751"/>
<path d="M80.0937 3.69873V14.685H77.2656V13.3797C76.9393 13.8148 76.3954 14.2499 75.8515 14.4674C75.3076 14.685 74.655 14.9025 74.0023 14.9025C73.1322 14.9025 72.3707 14.685 71.7181 14.3586C71.0654 14.0323 70.5216 13.4884 70.1952 12.727C69.7601 11.9656 69.6514 11.0954 69.6514 10.1164V3.69873H72.4795V9.79011C72.4795 10.6603 72.6971 11.313 73.1321 11.8568C73.5672 12.2919 74.2199 12.5095 74.8725 12.5095C75.634 12.5095 76.2866 12.2919 76.7217 11.8568C77.1568 11.4217 77.3744 10.6603 77.3744 9.79011V3.69873H80.0937Z" fill="#042751"/>
<path d="M92.1681 4.78643C92.9295 5.65662 93.3646 6.74437 93.3646 8.26721V14.6849H90.5365V8.59354C90.5365 7.72334 90.3189 7.07069 89.8838 6.52682C89.4487 6.09172 88.7961 5.87417 88.1434 5.87417C87.382 5.87417 86.7294 6.09172 86.2943 6.52682C85.8592 6.96192 85.6416 7.72334 85.6416 8.59354V14.6849H82.8135V3.69868H85.6416V5.11275C85.9679 4.67765 86.5118 4.24255 87.0557 4.025C87.5996 3.80745 88.2522 3.5899 88.9049 3.5899C90.2101 3.5899 91.2979 3.91623 92.1681 4.78643Z" fill="#042751"/>
<path d="M104.568 0.870239V3.15451H98.8028V6.74407H103.263V8.91956H98.8028V14.7934H95.9746V0.870239H104.568Z" fill="#042751"/>
<path d="M116.642 10.0076H108.592C108.701 10.769 108.919 11.4217 109.463 11.8568C110.006 12.2919 110.55 12.5094 111.312 12.5094C112.4 12.5094 113.052 12.0743 113.487 11.2041H116.533C116.207 12.2919 115.554 13.1621 114.684 13.8147C113.814 14.4674 112.726 14.7937 111.312 14.7937C110.224 14.7937 109.354 14.5761 108.484 14.141C107.613 13.7059 106.961 13.0533 106.526 12.1831C106.091 11.3129 105.873 10.3339 105.873 9.24618C105.873 8.15844 106.091 7.07069 106.526 6.20049C106.961 5.3303 107.613 4.67765 108.484 4.24255C109.354 3.80745 110.333 3.5899 111.421 3.5899C112.508 3.5899 113.378 3.80745 114.249 4.24255C115.119 4.67765 115.772 5.3303 116.207 6.20049C116.642 7.07069 116.859 7.94089 116.859 9.02863C116.751 9.35496 116.75 9.68128 116.642 10.0076ZM113.922 8.15844C113.922 7.39702 113.705 6.85314 113.161 6.41804C112.617 5.98295 112.073 5.7654 111.312 5.7654C110.659 5.7654 110.006 5.98295 109.571 6.41804C109.136 6.85314 108.81 7.39702 108.701 8.15844H113.922Z" fill="#042751"/>
<path d="M118.708 6.20015C119.143 5.32995 119.796 4.67731 120.557 4.24221C121.319 3.80711 122.189 3.58956 123.168 3.58956C123.929 3.58956 124.582 3.69834 125.235 4.02466C125.887 4.35098 126.431 4.78608 126.758 5.22118V0H129.586V14.6846H126.758V13.053C126.431 13.5968 125.887 14.0319 125.344 14.3582C124.8 14.6846 124.038 14.9021 123.168 14.9021C122.189 14.9021 121.428 14.6846 120.666 14.1407C119.905 13.7056 119.252 12.9442 118.817 12.074C118.382 11.2038 118.164 10.2248 118.164 9.02829C118.056 8.04932 118.273 7.07035 118.708 6.20015ZM126.323 7.50545C126.105 7.07035 125.67 6.63525 125.235 6.4177C124.8 6.20015 124.256 5.9826 123.821 5.9826C123.386 5.9826 122.842 6.09138 122.407 6.30893C121.972 6.52647 121.645 6.96157 121.319 7.39667C121.101 7.83177 120.884 8.48442 120.884 9.13706C120.884 9.78971 120.993 10.3336 121.319 10.8775C121.536 11.4213 121.972 11.7477 122.407 12.074C122.842 12.2915 123.277 12.5091 123.821 12.5091C124.365 12.5091 124.8 12.4003 125.235 12.074C125.67 11.8564 125.996 11.4213 126.323 10.9862C126.54 10.5511 126.758 9.89849 126.758 9.24584C126.758 8.48442 126.649 7.94055 126.323 7.50545Z" fill="#042751"/>
<path d="M142.422 10.0076H134.373C134.481 10.769 134.699 11.4217 135.243 11.8568C135.787 12.2919 136.331 12.5094 137.092 12.5094C138.18 12.5094 138.832 12.0743 139.268 11.2041H142.313C141.987 12.2919 141.334 13.1621 140.464 13.8147C139.594 14.4674 138.506 14.7937 137.092 14.7937C136.004 14.7937 135.134 14.5761 134.264 14.141C133.394 13.7059 132.741 13.0533 132.306 12.1831C131.871 11.3129 131.653 10.3339 131.653 9.24618C131.653 8.15844 131.871 7.07069 132.306 6.20049C132.741 5.3303 133.394 4.67765 134.264 4.24255C135.134 3.80745 136.113 3.5899 137.201 3.5899C138.289 3.5899 139.159 3.80745 140.029 4.24255C140.899 4.67765 141.552 5.3303 141.987 6.20049C142.422 7.07069 142.64 7.94089 142.64 9.02863C142.531 9.35496 142.531 9.68128 142.422 10.0076ZM139.594 8.15844C139.594 7.39702 139.376 6.85314 138.832 6.41804C138.289 5.98295 137.745 5.7654 136.983 5.7654C136.331 5.7654 135.678 5.98295 135.243 6.41804C134.808 6.85314 134.481 7.39702 134.373 8.15844H139.594Z" fill="#042751"/>
<path d="M148.73 4.0244C149.274 3.69808 149.927 3.48053 150.688 3.48053V6.41744H149.927C149.057 6.41744 148.404 6.63499 147.969 7.07009C147.534 7.50519 147.316 8.15784 147.316 9.24558V14.6843H144.488V3.69808H147.316V5.43847C147.643 4.78583 148.187 4.35073 148.73 4.0244Z" fill="#042751"/>
<path d="M152.537 6.20049C152.973 5.3303 153.625 4.67765 154.387 4.24255C155.148 3.80745 156.018 3.5899 156.888 3.5899C157.759 3.5899 158.411 3.80745 159.064 4.13378C159.717 4.4601 160.152 4.8952 160.587 5.43907V3.91623H163.415V14.9025H160.587V13.2708C160.26 13.8147 159.717 14.2498 159.064 14.5761C158.411 14.9025 157.759 15.12 156.888 15.12C155.909 15.12 155.148 14.9025 154.387 14.3586C153.625 13.9235 152.973 13.1621 152.537 12.2919C152.102 11.4217 151.885 10.4427 151.885 9.24618C151.885 8.04966 152.102 7.07069 152.537 6.20049ZM160.152 7.50579C159.934 7.07069 159.499 6.63559 159.064 6.41804C158.629 6.2005 158.085 5.98295 157.65 5.98295C157.106 5.98295 156.671 6.09172 156.236 6.30927C155.801 6.52682 155.474 6.96192 155.148 7.39702C154.822 7.83211 154.713 8.48476 154.713 9.13741C154.713 9.79006 154.822 10.3339 155.148 10.8778C155.366 11.4217 155.801 11.748 156.236 12.0743C156.671 12.2919 157.106 12.5094 157.65 12.5094C158.194 12.5094 158.629 12.4006 159.064 12.0743C159.499 11.8568 159.825 11.4217 160.152 10.9866C160.369 10.5515 160.587 9.89883 160.587 9.24618C160.587 8.48476 160.369 7.94089 160.152 7.50579Z" fill="#042751"/>
<path d="M168.854 0V14.6846H166.025V0H168.854Z" fill="#042751"/>
<path d="M178.752 14.6846L175.707 9.24588H174.401V14.6846H171.573V0.870239H176.794C177.882 0.870239 178.752 1.08779 179.514 1.41411C180.275 1.74044 180.819 2.28431 181.254 2.93696C181.581 3.5896 181.798 4.35103 181.798 5.11245C181.798 5.98264 181.58 6.85284 181.037 7.61426C180.493 8.37568 179.731 8.81078 178.644 9.13711L182.016 14.7934H178.752V14.6846ZM174.401 7.17916H176.686C177.447 7.17916 177.991 6.96162 178.426 6.63529C178.752 6.30897 178.97 5.76509 178.97 5.11245C178.97 4.4598 178.752 4.0247 178.426 3.5896C178.1 3.15451 177.447 3.04573 176.686 3.04573H174.401V7.17916Z" fill="#042751"/>
<path d="M194.525 10.0076H186.475C186.584 10.769 186.802 11.4217 187.345 11.8568C187.889 12.2919 188.433 12.5094 189.195 12.5094C190.282 12.5094 190.935 12.0743 191.37 11.2041H194.416C194.089 12.2919 193.437 13.1621 192.567 13.8147C191.696 14.4674 190.609 14.7937 189.195 14.7937C188.107 14.7937 187.237 14.5761 186.366 14.141C185.496 13.7059 184.844 13.0533 184.409 12.1831C183.973 11.3129 183.756 10.3339 183.756 9.24618C183.756 8.15844 183.973 7.07069 184.409 6.20049C184.844 5.3303 185.496 4.67765 186.366 4.24255C187.237 3.80745 188.216 3.5899 189.303 3.5899C190.391 3.5899 191.261 3.80745 192.132 4.24255C193.002 4.67765 193.654 5.3303 194.089 6.20049C194.525 7.07069 194.742 7.94089 194.742 9.02863C194.633 9.35496 194.525 9.68128 194.525 10.0076ZM191.696 8.15844C191.696 7.39702 191.479 6.85314 190.935 6.41804C190.391 5.98295 189.847 5.7654 189.086 5.7654C188.433 5.7654 187.781 5.98295 187.345 6.41804C186.91 6.85314 186.584 7.39702 186.475 8.15844H191.696Z" fill="#042751"/>
<path d="M198.441 14.3586C197.679 14.0323 197.136 13.5972 196.701 13.0533C196.265 12.5095 196.048 11.8568 196.048 11.2042H198.876C198.876 11.6393 199.094 11.9656 199.529 12.2919C199.855 12.6182 200.399 12.727 200.943 12.727C201.487 12.727 201.922 12.6182 202.139 12.4007C202.466 12.1831 202.574 11.9656 202.574 11.6393C202.574 11.313 202.357 10.9866 202.03 10.8779C201.704 10.6603 201.051 10.5515 200.29 10.334C199.42 10.1164 198.767 9.89888 198.223 9.68133C197.679 9.46378 197.244 9.13746 196.918 8.70236C196.592 8.26726 196.374 7.72339 196.374 6.96197C196.374 6.30932 196.592 5.76545 196.918 5.33035C197.244 4.89525 197.788 4.46015 198.441 4.13383C199.094 3.8075 199.855 3.69873 200.725 3.69873C202.03 3.69873 203.118 4.02505 203.88 4.6777C204.641 5.33035 205.076 6.20054 205.185 7.28829H202.357C202.357 6.85319 202.139 6.52687 201.813 6.20054C201.487 5.983 201.051 5.76545 200.508 5.76545C199.964 5.76545 199.637 5.87422 199.311 6.09177C199.094 6.30932 198.876 6.52687 198.876 6.85319C198.876 7.17952 199.094 7.50584 199.42 7.72339C199.746 7.94094 200.399 8.15849 201.16 8.26726C201.922 8.48481 202.574 8.70236 203.118 8.91991C203.662 9.13746 204.097 9.46378 204.423 9.89888C204.75 10.334 204.967 10.8779 204.967 11.6393C204.967 12.2919 204.75 12.8358 204.423 13.3797C204.097 13.9235 203.553 14.2499 202.901 14.5762C202.248 14.9025 201.487 15.0113 200.616 15.0113C199.964 14.9025 199.094 14.685 198.441 14.3586Z" fill="#042751"/>
<path d="M217.585 10.0076H209.536C209.645 10.769 209.862 11.4217 210.406 11.8568C210.95 12.2919 211.494 12.5094 212.255 12.5094C213.343 12.5094 213.996 12.0743 214.431 11.2041H217.476C217.15 12.2919 216.497 13.1621 215.627 13.8147C214.757 14.4674 213.669 14.7937 212.255 14.7937C211.167 14.7937 210.297 14.5761 209.427 14.141C208.557 13.7059 207.904 13.0533 207.469 12.1831C207.034 11.3129 206.816 10.3339 206.816 9.24618C206.816 8.15844 207.034 7.07069 207.469 6.20049C207.904 5.3303 208.557 4.67765 209.427 4.24255C210.297 3.80745 211.276 3.5899 212.364 3.5899C213.452 3.5899 214.322 3.80745 215.192 4.24255C216.062 4.67765 216.715 5.3303 217.15 6.20049C217.585 7.07069 217.803 7.94089 217.803 9.02863C217.694 9.35496 217.694 9.68128 217.585 10.0076ZM214.757 8.15844C214.757 7.39702 214.539 6.85314 213.996 6.41804C213.452 5.98295 212.908 5.7654 212.146 5.7654C211.494 5.7654 210.841 5.98295 210.406 6.41804C209.971 6.85314 209.645 7.39702 209.536 8.15844H214.757Z" fill="#042751"/>
<path d="M223.894 4.0244C224.438 3.69808 225.091 3.48053 225.852 3.48053V6.41744H225.199C224.329 6.41744 223.677 6.63499 223.242 7.07009C222.806 7.50519 222.589 8.15784 222.589 9.24558V14.6843H219.761V3.69808H222.589V5.43847C222.915 4.78583 223.35 4.35073 223.894 4.0244Z" fill="#042751"/>
<path d="M232.378 12.1831L235.206 3.69873H238.143L234.119 14.685H230.638L226.613 3.69873H229.55L232.378 12.1831Z" fill="#042751"/>
<path d="M249.782 10.0076H241.733C241.842 10.769 242.059 11.4217 242.603 11.8568C243.147 12.2919 243.691 12.5094 244.452 12.5094C245.54 12.5094 246.193 12.0743 246.628 11.2041H249.674C249.347 12.2919 248.695 13.1621 247.824 13.8147C246.954 14.4674 245.866 14.7937 244.452 14.7937C243.365 14.7937 242.494 14.5761 241.624 14.141C240.754 13.7059 240.101 13.0533 239.666 12.1831C239.231 11.3129 239.014 10.3339 239.014 9.24618C239.014 8.15844 239.231 7.07069 239.666 6.20049C240.101 5.3303 240.754 4.67765 241.624 4.24255C242.494 3.80745 243.473 3.5899 244.561 3.5899C245.649 3.5899 246.519 3.80745 247.389 4.24255C248.26 4.67765 248.912 5.3303 249.347 6.20049C249.782 7.07069 250 7.94089 250 9.02863C249.891 9.35496 249.891 9.68128 249.782 10.0076ZM247.063 8.15844C247.063 7.39702 246.845 6.85314 246.302 6.41804C245.758 5.98295 245.214 5.7654 244.452 5.7654C243.8 5.7654 243.147 5.98295 242.712 6.41804C242.277 6.85314 241.951 7.39702 241.842 8.15844H247.063Z" fill="#042751"/>
<g opacity="0.4">
<path d="M77.7487 28.2114C77.7487 28.4602 77.7322 28.6841 77.699 28.8831H72.6617C72.7031 29.3806 72.8773 29.7703 73.1841 30.0522C73.4909 30.3342 73.8681 30.4751 74.3159 30.4751C74.9627 30.4751 75.4229 30.1973 75.6965 29.6418H77.5746C77.3756 30.3051 76.9942 30.8524 76.4303 31.2836C75.8665 31.7065 75.1741 31.9179 74.3532 31.9179C73.6899 31.9179 73.0929 31.7728 72.5622 31.4826C72.0398 31.1841 71.6293 30.7653 71.3308 30.2264C71.0406 29.6874 70.8955 29.0655 70.8955 28.3607C70.8955 27.6476 71.0406 27.0216 71.3308 26.4826C71.621 25.9436 72.0273 25.529 72.5497 25.2388C73.0721 24.9486 73.6733 24.8035 74.3532 24.8035C75.0083 24.8035 75.5929 24.9444 76.107 25.2264C76.6293 25.5083 77.0315 25.9104 77.3134 26.4328C77.6036 26.9469 77.7487 27.5398 77.7487 28.2114ZM75.9453 27.7139C75.937 27.2662 75.7753 26.9096 75.4602 26.6443C75.1451 26.3706 74.7595 26.2338 74.3035 26.2338C73.8723 26.2338 73.5074 26.3665 73.2089 26.6318C72.9187 26.8889 72.7404 27.2496 72.6741 27.7139H75.9453Z" fill="#3357CF"/>
<path d="M83.6217 31.806L81.7063 28.4229H80.8854V31.806H79.1441V23.1244H82.4028C83.0745 23.1244 83.6466 23.2446 84.1192 23.4851C84.5919 23.7172 84.9443 24.0365 85.1764 24.4428C85.4169 24.8408 85.5371 25.2886 85.5371 25.7861C85.5371 26.3582 85.3713 26.8765 85.0396 27.3408C84.708 27.7968 84.2146 28.1119 83.5595 28.2861L85.6366 31.806H83.6217ZM80.8854 27.1169H82.3406C82.8133 27.1169 83.1657 27.005 83.3978 26.7811C83.63 26.5489 83.7461 26.2297 83.7461 25.8234C83.7461 25.4254 83.63 25.1186 83.3978 24.903C83.1657 24.6791 82.8133 24.5672 82.3406 24.5672H80.8854V27.1169Z" fill="#3357CF"/>
<path d="M90.234 31.893C89.6287 31.893 89.0814 31.7894 88.5922 31.5821C88.1113 31.3748 87.7298 31.0763 87.4479 30.6866C87.166 30.2968 87.0209 29.8366 87.0126 29.306H88.8783C88.9031 29.6625 89.0275 29.9444 89.2514 30.1517C89.4836 30.359 89.7986 30.4627 90.1967 30.4627C90.603 30.4627 90.9222 30.3673 91.1544 30.1766C91.3865 29.9776 91.5026 29.7206 91.5026 29.4055C91.5026 29.1484 91.4239 28.937 91.2663 28.7711C91.1088 28.6053 90.9098 28.4768 90.6693 28.3856C90.4371 28.2861 90.1137 28.1783 89.6991 28.0622C89.1353 27.8964 88.6751 27.7347 88.3186 27.5771C87.9703 27.4113 87.6676 27.1667 87.4106 26.8433C87.1618 26.5116 87.0375 26.0721 87.0375 25.5249C87.0375 25.0108 87.166 24.563 87.423 24.1816C87.6801 23.8002 88.0408 23.5099 88.5051 23.3109C88.9695 23.1036 89.5001 23 90.0972 23C90.9927 23 91.7182 23.2197 92.2738 23.6592C92.8376 24.0904 93.1486 24.6957 93.2066 25.4751H91.2912C91.2746 25.1766 91.1461 24.932 90.9056 24.7413C90.6734 24.5423 90.3625 24.4428 89.9728 24.4428C89.6328 24.4428 89.3592 24.5299 89.1519 24.704C88.9529 24.8781 88.8534 25.131 88.8534 25.4627C88.8534 25.6949 88.928 25.8897 89.0773 26.0473C89.2348 26.1965 89.4255 26.3209 89.6494 26.4204C89.8816 26.5116 90.205 26.6194 90.6195 26.7438C91.1834 26.9096 91.6436 27.0755 92.0001 27.2413C92.3567 27.4071 92.6635 27.6559 92.9205 27.9876C93.1776 28.3192 93.3061 28.7546 93.3061 29.2935C93.3061 29.7579 93.1859 30.1891 92.9454 30.5871C92.705 30.9851 92.3525 31.3043 91.8882 31.5448C91.4239 31.7769 90.8724 31.893 90.234 31.893Z" fill="#3357CF"/>
<path d="M97.975 23.1244C98.8871 23.1244 99.6872 23.3027 100.375 23.6592C101.072 24.0158 101.607 24.5257 101.98 25.1891C102.361 25.8441 102.552 26.607 102.552 27.4776C102.552 28.3483 102.361 29.1111 101.98 29.7662C101.607 30.4129 101.072 30.9146 100.375 31.2711C99.6872 31.6277 98.8871 31.806 97.975 31.806H94.9401V23.1244H97.975ZM97.9128 30.3259C98.8249 30.3259 99.5297 30.0771 100.027 29.5796C100.525 29.0821 100.773 28.3814 100.773 27.4776C100.773 26.5738 100.525 25.869 100.027 25.3632C99.5297 24.8491 98.8249 24.592 97.9128 24.592H96.6814V30.3259H97.9128Z" fill="#3357CF"/>
<path d="M105.721 30.4254H108.582V31.806H103.98V23.1244H105.721V30.4254Z" fill="#3357CF"/>
</g>
</svg>
