<svg width="81" height="12" viewBox="0 0 81 12" fill="none" xmlns="http://www.w3.org/2000/svg">
<path d="M6.075 0.131282C9.423 0.131282 12.15 2.78318 12.15 6.06523C12.15 9.34728 9.423 11.9992 6.075 11.9992C2.727 11.9992 0 9.37354 0 6.06523C0 2.75692 2.727 0.131282 6.075 0.131282ZM53.703 0V10.3975C53.703 11.1852 54.027 11.3953 54.648 11.5528L54.675 11.6841H51.246V10.3975C50.841 11.3428 50.004 11.9204 48.924 11.9204C47.088 11.9204 45.873 10.2925 45.873 7.87692C45.873 6.51159 46.278 5.35631 47.034 4.48985C47.763 3.64964 48.762 3.20328 49.869 3.20328C50.409 3.20328 50.868 3.30831 51.246 3.54462V2.12677C51.246 1.81169 51.165 1.60164 51.003 1.4441C50.787 1.26031 50.436 1.18154 49.896 1.23405H49.869V1.10277L53.703 0ZM66.717 3.22954V10.3975C66.717 11.1852 67.041 11.3953 67.662 11.5528V11.6841H64.233V10.3713C63.828 11.3165 62.937 11.9204 61.938 11.9204C60.75 11.9204 59.994 11.3953 59.697 10.3713L59.643 10.1087C59.589 9.84615 59.562 9.58359 59.562 9.32102V5.48759C59.562 4.64738 59.373 4.38482 58.617 4.33231H58.59V4.20103L62.019 3.22954V9.26851C62.019 10.1612 62.424 10.6601 63.18 10.6601C63.639 10.6601 64.017 10.4238 64.233 10.0299V5.48759C64.233 4.62113 64.071 4.35856 63.45 4.30605H63.423V4.17477L66.717 3.22954ZM41.958 3.20328C42.876 3.20328 43.767 3.51836 44.361 4.06974C45.036 4.6999 45.387 5.61887 45.414 6.82667V6.85292H40.257C40.149 8.58584 41.256 10.0037 42.714 10.0562C43.767 10.135 44.685 9.50482 45.198 8.48082L45.333 8.53333C45.036 10.4501 43.875 11.8942 41.85 11.8942C39.555 11.8942 38.259 10.0299 38.205 7.69313V7.08923C38.313 6.06523 38.637 5.14626 39.204 4.46359C39.555 4.04349 39.96 3.72841 40.446 3.51836C40.851 3.30831 41.445 3.20328 41.931 3.20328H41.958ZM77.679 3.22954C79.137 3.22954 80.028 4.12226 80.028 5.64513V10.5288C80.028 11.1065 80.298 11.3953 80.973 11.5528H81V11.6841H77.544V5.7239C77.544 4.77867 77.193 4.30605 76.464 4.30605C75.87 4.30605 75.573 4.72615 75.411 5.09374C75.438 5.27754 75.465 5.46133 75.465 5.64513V10.6076C75.465 11.2115 75.654 11.4215 76.194 11.5528H76.221V11.6841H73.008V5.7239C73.008 4.77867 72.63 4.30605 71.928 4.30605C71.361 4.30605 71.064 4.6999 70.929 5.01497V10.6338C70.929 11.2377 71.118 11.4478 71.658 11.5791H71.685V11.7104H68.472V5.46133C68.472 4.62113 68.256 4.35856 67.527 4.30605H67.5V4.17477L70.929 3.25579V4.64738C71.28 3.75467 72.09 3.22954 73.116 3.22954C74.277 3.22954 75.087 3.78092 75.357 4.77867C75.708 3.83344 76.599 3.22954 77.679 3.22954ZM28.431 0.525128L31.644 7.85067L34.857 0.525128H38.313L38.286 0.65641L38.2468 0.664901C37.6514 0.796868 37.341 1.01339 37.341 1.73292V10.6601C37.395 11.2377 37.719 11.4215 38.286 11.5528H38.313V11.6841H33.912V11.5528H33.939C34.506 11.4215 34.83 11.2377 34.884 10.6601V1.96923L30.645 11.6578H30.402L26.271 2.23179V10.4501C26.271 11.1852 26.595 11.3953 27.216 11.5266H27.243V11.6578H24.705V11.5266H24.732C25.353 11.3953 25.677 11.1852 25.677 10.4501V1.73292C25.677 0.997744 25.353 0.787692 24.732 0.65641H24.705V0.525128H28.431ZM57.888 3.22954V10.3975L57.8884 10.446C57.9016 11.194 58.2249 11.3986 58.833 11.5528L58.86 11.6841H55.431V5.48759C55.431 4.64738 55.242 4.38482 54.486 4.33231H54.459V4.20103L57.888 3.22954ZM15.795 0.472615C17.442 0.472615 18.819 2.99323 18.819 6.06523C18.819 9.16349 17.469 11.6578 15.795 11.6578C14.121 11.6578 12.771 9.16349 12.771 6.06523C12.771 2.96697 14.121 0.472615 15.795 0.472615ZM20.439 1.05026C21.06 1.05026 21.519 3.30831 21.519 6.06523C21.519 8.82215 21.033 11.0802 20.439 11.0802C19.8509 11.0802 19.3687 8.86709 19.3591 6.14779L19.359 6.06523C19.359 3.30831 19.845 1.05026 20.439 1.05026ZM50.274 3.6759C49.194 3.6759 48.519 5.06749 48.519 7.22051C48.519 8.24451 48.708 9.13723 49.032 9.74113C49.329 10.3188 49.761 10.6338 50.247 10.6338C50.733 10.6338 51.084 10.4238 51.246 10.0299V4.25354C51.057 3.88595 50.706 3.6759 50.274 3.6759ZM41.931 3.70215C40.959 3.70215 40.392 4.83118 40.311 6.40656V6.43282H43.254C43.308 5.19877 43.092 4.38482 42.687 3.99097C42.471 3.80718 42.228 3.70215 41.931 3.70215ZM56.565 0.0787692C57.348 0.0787692 57.942 0.65641 57.942 1.41785C57.942 2.17928 57.348 2.75692 56.565 2.75692C55.782 2.75692 55.188 2.17928 55.188 1.41785C55.188 0.65641 55.782 0.0787692 56.565 0.0787692Z" fill="white"/>
</svg>
