<svg width="20" height="21" viewBox="0 0 20 21" fill="none" xmlns="http://www.w3.org/2000/svg">
<path d="M17.7708 8.24967C17.1391 8.24967 16.5833 8.5155 16.1741 8.92967C14.67 7.873 12.6416 7.193 10.3941 7.1205L11.5616 1.78217L15.2791 2.62883C15.2791 3.55217 16.0208 4.30633 16.9308 4.30633C17.8583 4.30633 18.6041 3.53217 18.6041 2.608C18.6041 1.68383 17.8633 0.909668 16.9316 0.909668C16.2825 0.909668 15.7225 1.30717 15.4433 1.8505L11.3375 0.927168C11.1308 0.871335 10.9283 1.02133 10.8733 1.23133L9.59164 7.11633C7.36164 7.2105 5.35497 7.88967 3.8458 8.94717C3.43664 8.5155 2.85914 8.24967 2.22747 8.24967C-0.115865 8.24967 -0.883365 11.4405 1.26247 12.5313C1.18664 12.8688 1.15247 13.2288 1.15247 13.588C1.15247 17.1722 5.13164 20.0763 10.0175 20.0763C14.9241 20.0763 18.9033 17.1722 18.9033 13.588C18.9033 13.2288 18.8658 12.8522 18.7733 12.5138C20.8758 11.4188 20.1016 8.25133 17.7708 8.24967ZM4.66747 12.758C4.66747 11.8172 5.40914 11.0597 6.3408 11.0597C7.2508 11.0597 7.9933 11.8122 7.9933 12.758C7.9933 13.6822 7.25164 14.4355 6.3408 14.4355C5.4133 14.4397 4.66747 13.6822 4.66747 12.758ZM13.7 16.7563C12.1658 18.313 7.83664 18.313 6.30164 16.7563C6.13247 16.6063 6.13247 16.3413 6.30164 16.1705C6.44914 16.0205 6.7108 16.0205 6.8583 16.1705C8.02997 17.3897 11.9166 17.4105 13.1391 16.1705C13.2866 16.0205 13.5483 16.0205 13.6958 16.1705C13.8683 16.3422 13.8683 16.6072 13.7 16.7563ZM13.6658 14.4388C12.7558 14.4388 12.0141 13.6863 12.0141 12.763C12.0141 11.8222 12.7558 11.0647 13.6658 11.0647C14.5933 11.0647 15.3391 11.8172 15.3391 12.763C15.335 13.6822 14.5933 14.4388 13.6658 14.4388Z" fill="white"/>
</svg>
