<svg width="22" height="19" viewBox="0 0 22 19" fill="none" xmlns="http://www.w3.org/2000/svg">
<path fill-rule="evenodd" clip-rule="evenodd" d="M6.14216 0.513192C6.4914 -0.171064 7.40347 -0.171064 7.75263 0.513192L10.4211 5.74239L13.386 0.513178C13.7739 -0.171059 14.7873 -0.171059 15.1754 0.513178L21.8931 12.3612C22.2256 12.9477 21.742 13.6378 20.9984 13.6378H16.4971V18.156C16.4971 18.3798 16.4055 18.5945 16.2423 18.7528C16.0792 18.9111 15.8579 19 15.6272 19H12.9342C12.82 19 12.7068 18.9782 12.6013 18.9358C12.4958 18.8933 12.3998 18.8312 12.3191 18.7528C12.2383 18.6744 12.1742 18.5814 12.1305 18.479C12.0868 18.3766 12.0643 18.2668 12.0643 18.156V13.6379H13.2791L13.2796 13.6378C13.8371 13.6376 14.2484 13.2496 14.2789 12.8081C14.2891 12.6524 14.2526 12.4972 14.1739 12.3612L10.4211 5.7424L7.04352 12.3612C6.97267 12.4972 6.93984 12.6524 6.94897 12.8081C6.97649 13.2496 7.34663 13.6376 7.84832 13.6378H7.84791L7.84879 13.6379H8.94213V18.156C8.94213 18.3798 8.85965 18.5945 8.71282 18.7528C8.56599 18.9111 8.36685 19 8.15921 19H5.7355C5.52786 19 5.32873 18.9111 5.18191 18.7528C5.0351 18.5945 4.95261 18.3798 4.95261 18.156V13.6378H0.901443C0.232224 13.6378 -0.203077 12.9477 0.0961857 12.3612L6.14216 0.513192Z" fill="white"/>
</svg>
