<svg width="21" height="17" viewBox="0 0 21 17" fill="none" xmlns="http://www.w3.org/2000/svg">
<path d="M20.9824 2.62785C20.2387 2.9541 19.4462 3.17035 18.6199 3.27535C19.4699 2.76785 20.1187 1.97035 20.4237 1.0091C19.6312 1.4816 18.7562 1.81535 17.8237 2.0016C17.0712 1.20035 15.9987 0.704102 14.8287 0.704102C12.5587 0.704102 10.7312 2.5466 10.7312 4.80535C10.7312 5.13035 10.7587 5.44285 10.8262 5.74035C7.41742 5.5741 4.40117 3.94035 2.37492 1.4516C2.02117 2.06535 1.81367 2.76785 1.81367 3.5241C1.81367 4.9441 2.54492 6.20285 3.63492 6.9316C2.97617 6.9191 2.32992 6.72785 1.78242 6.4266C1.78242 6.4391 1.78242 6.45535 1.78242 6.4716C1.78242 8.4641 3.20367 10.1191 5.06742 10.5004C4.73367 10.5916 4.36992 10.6354 3.99242 10.6354C3.72992 10.6354 3.46492 10.6204 3.21617 10.5654C3.74742 12.1891 5.25492 13.3829 7.04742 13.4216C5.65242 14.5129 3.88117 15.1704 1.96367 15.1704C1.62742 15.1704 1.30492 15.1554 0.982422 15.1141C2.79867 16.2854 4.95117 16.9541 7.27242 16.9541C14.8174 16.9541 18.9424 10.7041 18.9424 5.2866C18.9424 5.10535 18.9362 4.93035 18.9274 4.7566C19.7412 4.1791 20.4249 3.45785 20.9824 2.62785Z" fill="white"/>
</svg>
