<svg width="26" height="22" viewBox="0 0 26 22" fill="none" xmlns="http://www.w3.org/2000/svg">
<path fill-rule="evenodd" clip-rule="evenodd" d="M11.4222 0.509586C11.9038 0.235048 12.4472 0.0908203 13 0.0908203C13.5527 0.0908203 14.0962 0.235048 14.5778 0.509586C15.0595 0.784124 15.4631 1.17971 15.7498 1.65816L15.7529 1.66332L24.833 17.0099L24.8417 17.0249C25.1225 17.5172 25.2711 18.0754 25.2727 18.644C25.2743 19.2125 25.1288 19.7715 24.8507 20.2654C24.5726 20.7594 24.1716 21.171 23.6876 21.4593C23.2036 21.7476 22.6535 21.9026 22.0919 21.9089L22.0802 21.909L3.90803 21.9089C3.3465 21.9027 2.79637 21.7476 2.31237 21.4593C1.82837 21.171 1.42738 20.7594 1.14929 20.2654C0.871201 19.7715 0.725705 19.2125 0.727277 18.644C0.728849 18.0754 0.877437 17.5172 1.15825 17.0249L1.16696 17.0099L10.2471 1.66333L11.1668 2.22103L10.2502 1.65816C10.5369 1.17971 10.9405 0.784124 11.4222 0.509586ZM12.0847 2.78177L3.01147 18.1166C2.92015 18.2792 2.87187 18.4629 2.87135 18.65C2.87082 18.8395 2.91932 19.0259 3.01202 19.1905C3.10472 19.3552 3.23838 19.4924 3.39971 19.5885C3.55963 19.6838 3.74121 19.7353 3.92668 19.7383H22.0733C22.2588 19.7353 22.4403 19.6838 22.6003 19.5885C22.7616 19.4924 22.8953 19.3552 22.988 19.1905C23.0807 19.0259 23.1292 18.8395 23.1286 18.65C23.1281 18.463 23.0798 18.2792 22.9886 18.1167L13.9166 2.78393L13.9153 2.78177C13.8198 2.62325 13.6858 2.49217 13.5259 2.40107C13.3654 2.30956 13.1842 2.26148 13 2.26148C12.8157 2.26148 12.6346 2.30956 12.4741 2.40107C12.3142 2.49217 12.1802 2.62325 12.0847 2.78177ZM13 6.71435C13.592 6.71435 14.072 7.20027 14.072 7.79969V12.141C14.072 12.7404 13.592 13.2263 13 13.2263C12.4079 13.2263 11.9279 12.7404 11.9279 12.141V7.79969C11.9279 7.20027 12.4079 6.71435 13 6.71435ZM13 15.397C12.4079 15.397 11.9279 15.8829 11.9279 16.4823C11.9279 17.0817 12.4079 17.5677 13 17.5677H13.0107C13.6028 17.5677 14.0827 17.0817 14.0827 16.4823C14.0827 15.8829 13.6028 15.397 13.0107 15.397H13Z" fill="white"/>
</svg>
