<svg width="20" height="20" viewBox="0 0 20 20" fill="none" xmlns="http://www.w3.org/2000/svg">
<g clip-path="url(#clip0)">
<path d="M8.46289 11.8734L11.6073 9.99994L8.46289 8.12646V11.8734Z" fill="white"/>
<path d="M17.939 0H1.39433C0.624227 0 0 0.645752 0 1.44241V18.5576C0 19.3542 0.624227 20 1.39433 20H17.939C18.7091 20 19.3333 19.3542 19.3333 18.5576V1.44241C19.3333 0.645752 18.7091 0 17.939 0V0ZM15.7069 10.0102C15.7069 10.0102 15.7069 12.0383 15.4582 13.0162C15.3188 13.5515 14.9108 13.9735 14.3934 14.1176C13.448 14.375 9.66667 14.375 9.66667 14.375C9.66667 14.375 5.8952 14.375 4.93998 14.1074C4.42254 13.9633 4.01455 13.5411 3.87516 13.0058C3.62633 12.0383 3.62633 10 3.62633 10C3.62633 10 3.62633 7.97211 3.87516 6.99417C4.0144 6.45889 4.43242 6.02646 4.93998 5.88242C5.88531 5.625 9.66667 5.625 9.66667 5.625C9.66667 5.625 13.448 5.625 14.3934 5.89264C14.9108 6.03668 15.3188 6.45889 15.4582 6.99417C15.7169 7.97211 15.7069 10.0102 15.7069 10.0102Z" fill="white"/>
</g>
<defs>
<clipPath id="clip0">
<rect width="19.3333" height="20" fill="white"/>
</clipPath>
</defs>
</svg>
